<svg width="150" height="200" viewBox="0 0 150 200" fill="none" xmlns="http://www.w3.org/2000/svg">
<rect width="150" height="200" fill="white"/>
<path d="M18.21 148.935H17.125V148.505H19.81V148.935H18.725V152H18.21V148.935ZM21.0096 148.305H21.5146V149.93C21.7446 149.66 22.0512 149.525 22.4346 149.525C22.7546 149.525 22.9929 149.61 23.1496 149.78C23.3062 149.95 23.3846 150.178 23.3846 150.465V152H22.8796V150.515C22.8796 150.125 22.6929 149.93 22.3196 149.93C22.1596 149.93 22.0096 149.968 21.8696 150.045C21.7329 150.118 21.6146 150.232 21.5146 150.385V152H21.0096V148.305ZM26.0776 152.075C25.6343 152.075 25.286 151.965 25.0326 151.745C24.7826 151.522 24.6576 151.208 24.6576 150.805C24.6576 150.412 24.7693 150.1 24.9926 149.87C25.2193 149.64 25.541 149.525 25.9576 149.525C26.2343 149.525 26.4693 149.578 26.6626 149.685C26.856 149.788 27.001 149.933 27.0976 150.12C27.1976 150.303 27.2476 150.513 27.2476 150.75V151H25.1376C25.1543 151.227 25.2493 151.397 25.4226 151.51C25.5993 151.62 25.8376 151.675 26.1376 151.675C26.291 151.675 26.446 151.662 26.6026 151.635C26.7593 151.605 26.8976 151.567 27.0176 151.52V151.925C26.911 151.968 26.7693 152.003 26.5926 152.03C26.4193 152.06 26.2476 152.075 26.0776 152.075ZM26.7726 150.645C26.766 150.418 26.691 150.243 26.5476 150.12C26.4076 149.993 26.2076 149.93 25.9476 149.93C25.6943 149.93 25.4976 149.995 25.3576 150.125C25.2176 150.255 25.1443 150.428 25.1376 150.645H26.7726ZM32.0102 152.075C31.7202 152.075 31.4869 152.002 31.3102 151.855C31.1369 151.705 31.0502 151.503 31.0502 151.25C31.0502 150.983 31.1335 150.778 31.3002 150.635C31.4702 150.488 31.7102 150.415 32.0202 150.415C32.3502 150.415 32.6302 150.482 32.8602 150.615V150.49C32.8602 150.3 32.8019 150.16 32.6852 150.07C32.5719 149.977 32.3919 149.93 32.1452 149.93C31.9985 149.93 31.8552 149.945 31.7152 149.975C31.5785 150.002 31.4552 150.04 31.3452 150.09V149.68C31.4452 149.633 31.5752 149.597 31.7352 149.57C31.8952 149.54 32.0502 149.525 32.2002 149.525C32.5969 149.525 32.8902 149.613 33.0802 149.79C33.2735 149.963 33.3702 150.205 33.3702 150.515V152H32.8952V151.73C32.7919 151.843 32.6685 151.93 32.5252 151.99C32.3852 152.047 32.2135 152.075 32.0102 152.075ZM32.1352 151.69C32.2952 151.69 32.4402 151.658 32.5702 151.595C32.7002 151.532 32.7969 151.443 32.8602 151.33V151.005C32.6435 150.865 32.4019 150.795 32.1352 150.795C31.9419 150.795 31.7969 150.833 31.7002 150.91C31.6069 150.983 31.5602 151.097 31.5602 151.25C31.5602 151.543 31.7519 151.69 32.1352 151.69ZM35.9142 152.075C35.6476 152.075 35.4109 152.025 35.2042 151.925C34.9976 151.825 34.8359 151.68 34.7192 151.49C34.6059 151.297 34.5492 151.068 34.5492 150.805C34.5492 150.542 34.6059 150.315 34.7192 150.125C34.8359 149.932 34.9976 149.783 35.2042 149.68C35.4142 149.577 35.6542 149.525 35.9242 149.525C36.2909 149.525 36.5842 149.597 36.8042 149.74V150.155C36.5876 150.005 36.3109 149.93 35.9742 149.93C35.7009 149.93 35.4792 150.005 35.3092 150.155C35.1426 150.302 35.0592 150.518 35.0592 150.805C35.0592 151.092 35.1426 151.308 35.3092 151.455C35.4759 151.602 35.6942 151.675 35.9642 151.675C36.3009 151.675 36.5909 151.595 36.8342 151.435V151.845C36.7176 151.925 36.5842 151.983 36.4342 152.02C36.2876 152.057 36.1142 152.075 35.9142 152.075ZM39.0586 152.075C38.8153 152.075 38.6269 152.005 38.4936 151.865C38.3636 151.725 38.2986 151.527 38.2986 151.27V149.99H37.9336V149.6H38.2986V148.88H38.8086V149.6H39.3986V149.99H38.8086V151.235C38.8086 151.395 38.8386 151.508 38.8986 151.575C38.9619 151.642 39.0753 151.675 39.2386 151.675C39.3353 151.675 39.4319 151.653 39.5286 151.61V152.01C39.4019 152.053 39.2453 152.075 39.0586 152.075ZM44.6193 152.075C44.3493 152.075 44.111 152.025 43.9043 151.925C43.701 151.822 43.541 151.675 43.4243 151.485C43.311 151.292 43.2543 151.065 43.2543 150.805C43.2543 150.548 43.311 150.323 43.4243 150.13C43.5376 149.937 43.6976 149.788 43.9043 149.685C44.111 149.578 44.3493 149.525 44.6193 149.525C44.8893 149.525 45.1276 149.578 45.3343 149.685C45.541 149.788 45.701 149.937 45.8143 150.13C45.931 150.323 45.9893 150.548 45.9893 150.805C45.9893 151.065 45.931 151.292 45.8143 151.485C45.701 151.675 45.541 151.822 45.3343 151.925C45.1276 152.025 44.8893 152.075 44.6193 152.075ZM44.6193 151.675C44.8793 151.675 45.086 151.595 45.2393 151.435C45.3926 151.275 45.4693 151.065 45.4693 150.805C45.4693 150.535 45.3926 150.322 45.2393 150.165C45.086 150.008 44.8793 149.93 44.6193 149.93C44.3593 149.93 44.1526 150.008 43.9993 150.165C43.846 150.322 43.7693 150.535 43.7693 150.805C43.7693 151.065 43.846 151.275 43.9993 151.435C44.1526 151.595 44.3593 151.675 44.6193 151.675ZM47.2771 149.99H46.9121V149.6H47.2771V149.13C47.2771 148.853 47.3554 148.643 47.5121 148.5C47.6688 148.353 47.8788 148.28 48.1421 148.28C48.2788 148.28 48.4071 148.3 48.5271 148.34V148.76C48.4338 148.717 48.3371 148.695 48.2371 148.695C48.0804 148.695 47.9654 148.733 47.8921 148.81C47.8188 148.883 47.7821 149 47.7821 149.16V149.6H48.3821V149.99H47.7821V152H47.2771V149.99ZM53.4904 152.075C53.2237 152.075 52.9871 152.025 52.7804 151.925C52.5737 151.825 52.4121 151.68 52.2954 151.49C52.1821 151.297 52.1254 151.068 52.1254 150.805C52.1254 150.542 52.1821 150.315 52.2954 150.125C52.4121 149.932 52.5737 149.783 52.7804 149.68C52.9904 149.577 53.2304 149.525 53.5004 149.525C53.8671 149.525 54.1604 149.597 54.3804 149.74V150.155C54.1637 150.005 53.8871 149.93 53.5504 149.93C53.2771 149.93 53.0554 150.005 52.8854 150.155C52.7187 150.302 52.6354 150.518 52.6354 150.805C52.6354 151.092 52.7187 151.308 52.8854 151.455C53.0521 151.602 53.2704 151.675 53.5404 151.675C53.8771 151.675 54.1671 151.595 54.4104 151.435V151.845C54.2937 151.925 54.1604 151.983 54.0104 152.02C53.8637 152.057 53.6904 152.075 53.4904 152.075ZM56.5454 152.075C56.2554 152.075 56.022 152.002 55.8454 151.855C55.672 151.705 55.5854 151.503 55.5854 151.25C55.5854 150.983 55.6687 150.778 55.8354 150.635C56.0054 150.488 56.2454 150.415 56.5554 150.415C56.8854 150.415 57.1654 150.482 57.3954 150.615V150.49C57.3954 150.3 57.337 150.16 57.2204 150.07C57.107 149.977 56.927 149.93 56.6804 149.93C56.5337 149.93 56.3904 149.945 56.2504 149.975C56.1137 150.002 55.9904 150.04 55.8804 150.09V149.68C55.9804 149.633 56.1104 149.597 56.2704 149.57C56.4304 149.54 56.5854 149.525 56.7354 149.525C57.132 149.525 57.4254 149.613 57.6154 149.79C57.8087 149.963 57.9054 150.205 57.9054 150.515V152H57.4304V151.73C57.327 151.843 57.2037 151.93 57.0604 151.99C56.9204 152.047 56.7487 152.075 56.5454 152.075ZM56.6704 151.69C56.8304 151.69 56.9754 151.658 57.1054 151.595C57.2354 151.532 57.332 151.443 57.3954 151.33V151.005C57.1787 150.865 56.937 150.795 56.6704 150.795C56.477 150.795 56.332 150.833 56.2354 150.91C56.142 150.983 56.0954 151.097 56.0954 151.25C56.0954 151.543 56.287 151.69 56.6704 151.69ZM59.282 149.6H59.772V149.945C59.8854 149.802 60.0237 149.697 60.187 149.63C60.3537 149.56 60.527 149.525 60.707 149.525C61.027 149.525 61.2654 149.61 61.422 149.78C61.5787 149.95 61.657 150.178 61.657 150.465V152H61.152V150.515C61.152 150.125 60.9654 149.93 60.592 149.93C60.432 149.93 60.282 149.968 60.142 150.045C60.0054 150.118 59.887 150.232 59.787 150.385V152H59.282V149.6ZM63.0301 149.6H63.5201V149.945C63.6334 149.802 63.7717 149.697 63.9351 149.63C64.1017 149.56 64.2751 149.525 64.4551 149.525C64.7751 149.525 65.0134 149.61 65.1701 149.78C65.3267 149.95 65.4051 150.178 65.4051 150.465V152H64.9001V150.515C64.9001 150.125 64.7134 149.93 64.3401 149.93C64.1801 149.93 64.0301 149.968 63.8901 150.045C63.7534 150.118 63.6351 150.232 63.5351 150.385V152H63.0301V149.6ZM67.0731 149.13C66.9898 149.13 66.9198 149.102 66.8631 149.045C66.8065 148.988 66.7781 148.918 66.7781 148.835C66.7781 148.752 66.8065 148.682 66.8631 148.625C66.9198 148.568 66.9898 148.54 67.0731 148.54C67.1598 148.54 67.2315 148.568 67.2881 148.625C67.3481 148.682 67.3781 148.752 67.3781 148.835C67.3781 148.918 67.3481 148.988 67.2881 149.045C67.2315 149.102 67.1598 149.13 67.0731 149.13ZM66.8181 149.6H67.3331V152H66.8181V149.6ZM70.2681 152.075C70.0515 152.075 69.8631 152.042 69.7031 151.975C69.5465 151.905 69.4015 151.797 69.2681 151.65V152H68.7781V148.305H69.2831V149.92C69.3931 149.79 69.5348 149.692 69.7081 149.625C69.8815 149.558 70.0681 149.525 70.2681 149.525C70.5081 149.525 70.7231 149.58 70.9131 149.69C71.1065 149.797 71.2565 149.947 71.3631 150.14C71.4731 150.333 71.5281 150.555 71.5281 150.805C71.5281 151.058 71.4731 151.282 71.3631 151.475C71.2565 151.665 71.1065 151.813 70.9131 151.92C70.7231 152.023 70.5081 152.075 70.2681 152.075ZM70.1531 151.675C70.3165 151.675 70.4631 151.64 70.5931 151.57C70.7265 151.497 70.8298 151.393 70.9031 151.26C70.9798 151.127 71.0181 150.975 71.0181 150.805C71.0181 150.635 70.9798 150.483 70.9031 150.35C70.8298 150.217 70.7265 150.113 70.5931 150.04C70.4631 149.967 70.3165 149.93 70.1531 149.93C69.9498 149.93 69.7681 149.985 69.6081 150.095C69.4481 150.205 69.3398 150.352 69.2831 150.535V151.075C69.3465 151.258 69.4548 151.405 69.6081 151.515C69.7648 151.622 69.9465 151.675 70.1531 151.675ZM73.562 152.075C73.272 152.075 73.0386 152.002 72.862 151.855C72.6886 151.705 72.602 151.503 72.602 151.25C72.602 150.983 72.6853 150.778 72.852 150.635C73.022 150.488 73.262 150.415 73.572 150.415C73.902 150.415 74.182 150.482 74.412 150.615V150.49C74.412 150.3 74.3536 150.16 74.237 150.07C74.1236 149.977 73.9436 149.93 73.697 149.93C73.5503 149.93 73.407 149.945 73.267 149.975C73.1303 150.002 73.007 150.04 72.897 150.09V149.68C72.997 149.633 73.127 149.597 73.287 149.57C73.447 149.54 73.602 149.525 73.752 149.525C74.1486 149.525 74.442 149.613 74.632 149.79C74.8253 149.963 74.922 150.205 74.922 150.515V152H74.447V151.73C74.3436 151.843 74.2203 151.93 74.077 151.99C73.937 152.047 73.7653 152.075 73.562 152.075ZM73.687 151.69C73.847 151.69 73.992 151.658 74.122 151.595C74.252 151.532 74.3486 151.443 74.412 151.33V151.005C74.1953 150.865 73.9536 150.795 73.687 150.795C73.4936 150.795 73.3486 150.833 73.252 150.91C73.1586 150.983 73.112 151.097 73.112 151.25C73.112 151.543 73.3036 151.69 73.687 151.69ZM76.2986 148.305H76.8036V152H76.2986V148.305ZM78.5009 149.13C78.4175 149.13 78.3475 149.102 78.2909 149.045C78.2342 148.988 78.2059 148.918 78.2059 148.835C78.2059 148.752 78.2342 148.682 78.2909 148.625C78.3475 148.568 78.4175 148.54 78.5009 148.54C78.5875 148.54 78.6592 148.568 78.7159 148.625C78.7759 148.682 78.8059 148.752 78.8059 148.835C78.8059 148.918 78.7759 148.988 78.7159 149.045C78.6592 149.102 78.5875 149.13 78.5009 149.13ZM78.2459 149.6H78.7609V152H78.2459V149.6ZM81.0909 152.075C80.9242 152.075 80.7475 152.053 80.5609 152.01C80.3742 151.97 80.2275 151.915 80.1209 151.845V151.415C80.2509 151.492 80.4009 151.555 80.5709 151.605C80.7409 151.652 80.9059 151.675 81.0659 151.675C81.2459 151.675 81.3775 151.653 81.4609 151.61C81.5442 151.567 81.5859 151.497 81.5859 151.4C81.5859 151.327 81.5659 151.268 81.5259 151.225C81.4892 151.178 81.4242 151.137 81.3309 151.1C81.2409 151.063 81.1042 151.02 80.9209 150.97C80.7242 150.913 80.5675 150.857 80.4509 150.8C80.3375 150.74 80.2509 150.665 80.1909 150.575C80.1342 150.485 80.1059 150.368 80.1059 150.225C80.1059 149.995 80.1959 149.822 80.3759 149.705C80.5592 149.585 80.8042 149.525 81.1109 149.525C81.2709 149.525 81.4275 149.54 81.5809 149.57C81.7342 149.6 81.8575 149.642 81.9509 149.695V150.115C81.8542 150.058 81.7342 150.013 81.5909 149.98C81.4509 149.947 81.3075 149.93 81.1609 149.93C80.9842 149.93 80.8492 149.952 80.7559 149.995C80.6625 150.038 80.6159 150.115 80.6159 150.225C80.6159 150.295 80.6359 150.352 80.6759 150.395C80.7159 150.438 80.7792 150.477 80.8659 150.51C80.9559 150.54 81.0975 150.58 81.2909 150.63C81.5942 150.713 81.8042 150.812 81.9209 150.925C82.0409 151.038 82.1009 151.195 82.1009 151.395C82.1009 151.602 82.0159 151.767 81.8459 151.89C81.6759 152.013 81.4242 152.075 81.0909 152.075ZM83.4021 149.6H83.8821V149.945C83.9955 149.805 84.1238 149.7 84.2671 149.63C84.4105 149.56 84.5588 149.525 84.7121 149.525C84.9055 149.525 85.0588 149.558 85.1721 149.625C85.2855 149.688 85.3688 149.787 85.4221 149.92C85.5288 149.79 85.6588 149.692 85.8121 149.625C85.9688 149.558 86.1255 149.525 86.2821 149.525C86.5755 149.525 86.7871 149.6 86.9171 149.75C87.0471 149.897 87.1121 150.115 87.1121 150.405V152H86.6221V150.47C86.6221 150.273 86.5855 150.135 86.5121 150.055C86.4388 149.972 86.3138 149.93 86.1371 149.93C85.8838 149.93 85.6771 150.04 85.5171 150.26C85.5238 150.31 85.5271 150.392 85.5271 150.505V152H85.0371V150.47C85.0371 150.273 85.0038 150.135 84.9371 150.055C84.8705 149.972 84.7505 149.93 84.5771 149.93C84.3238 149.93 84.0971 150.073 83.8971 150.36V152H83.4021V149.6ZM92.4087 152.075C91.9653 152.075 91.617 151.965 91.3637 151.745C91.1137 151.522 90.9887 151.208 90.9887 150.805C90.9887 150.412 91.1003 150.1 91.3237 149.87C91.5503 149.64 91.872 149.525 92.2887 149.525C92.5653 149.525 92.8003 149.578 92.9937 149.685C93.187 149.788 93.332 149.933 93.4287 150.12C93.5287 150.303 93.5787 150.513 93.5787 150.75V151H91.4687C91.4853 151.227 91.5803 151.397 91.7537 151.51C91.9303 151.62 92.1687 151.675 92.4687 151.675C92.622 151.675 92.777 151.662 92.9337 151.635C93.0903 151.605 93.2287 151.567 93.3487 151.52V151.925C93.242 151.968 93.1003 152.003 92.9237 152.03C92.7503 152.06 92.5787 152.075 92.4087 152.075ZM93.1037 150.645C93.097 150.418 93.022 150.243 92.8787 150.12C92.7387 149.993 92.5387 149.93 92.2787 149.93C92.0253 149.93 91.8287 149.995 91.6887 150.125C91.5487 150.255 91.4753 150.428 91.4687 150.645H93.1037ZM94.8807 149.6H95.3607V149.945C95.474 149.805 95.6023 149.7 95.7457 149.63C95.889 149.56 96.0373 149.525 96.1907 149.525C96.384 149.525 96.5373 149.558 96.6507 149.625C96.764 149.688 96.8473 149.787 96.9007 149.92C97.0073 149.79 97.1373 149.692 97.2907 149.625C97.4473 149.558 97.604 149.525 97.7607 149.525C98.054 149.525 98.2657 149.6 98.3957 149.75C98.5257 149.897 98.5907 150.115 98.5907 150.405V152H98.1007V150.47C98.1007 150.273 98.064 150.135 97.9907 150.055C97.9173 149.972 97.7923 149.93 97.6157 149.93C97.3623 149.93 97.1557 150.04 96.9957 150.26C97.0023 150.31 97.0057 150.392 97.0057 150.505V152H96.5157V150.47C96.5157 150.273 96.4823 150.135 96.4157 150.055C96.349 149.972 96.229 149.93 96.0557 149.93C95.8023 149.93 95.5757 150.073 95.3757 150.36V152H94.8807V149.6ZM99.9666 149.6H100.457V149.955C100.703 149.668 101.037 149.525 101.457 149.525C101.697 149.525 101.912 149.578 102.102 149.685C102.295 149.792 102.445 149.942 102.552 150.135C102.662 150.325 102.717 150.547 102.717 150.8C102.717 151.05 102.662 151.272 102.552 151.465C102.445 151.658 102.297 151.808 102.107 151.915C101.917 152.022 101.7 152.075 101.457 152.075C101.257 152.075 101.07 152.042 100.897 151.975C100.723 151.908 100.582 151.81 100.472 151.68V153.095H99.9666V149.6ZM101.342 151.675C101.505 151.675 101.652 151.64 101.782 151.57C101.915 151.497 102.018 151.393 102.092 151.26C102.168 151.127 102.207 150.973 102.207 150.8C102.207 150.627 102.168 150.475 102.092 150.345C102.018 150.212 101.915 150.11 101.782 150.04C101.652 149.967 101.505 149.93 101.342 149.93C101.138 149.93 100.958 149.983 100.802 150.09C100.648 150.197 100.538 150.343 100.472 150.53V151.07C100.528 151.253 100.637 151.4 100.797 151.51C100.957 151.62 101.138 151.675 101.342 151.675ZM105.155 152.075C104.885 152.075 104.647 152.025 104.44 151.925C104.237 151.822 104.077 151.675 103.96 151.485C103.847 151.292 103.79 151.065 103.79 150.805C103.79 150.548 103.847 150.323 103.96 150.13C104.074 149.937 104.234 149.788 104.44 149.685C104.647 149.578 104.885 149.525 105.155 149.525C105.425 149.525 105.664 149.578 105.87 149.685C106.077 149.788 106.237 149.937 106.35 150.13C106.467 150.323 106.525 150.548 106.525 150.805C106.525 151.065 106.467 151.292 106.35 151.485C106.237 151.675 106.077 151.822 105.87 151.925C105.664 152.025 105.425 152.075 105.155 152.075ZM105.155 151.675C105.415 151.675 105.622 151.595 105.775 151.435C105.929 151.275 106.005 151.065 106.005 150.805C106.005 150.535 105.929 150.322 105.775 150.165C105.622 150.008 105.415 149.93 105.155 149.93C104.895 149.93 104.689 150.008 104.535 150.165C104.382 150.322 104.305 150.535 104.305 150.805C104.305 151.065 104.382 151.275 104.535 151.435C104.689 151.595 104.895 151.675 105.155 151.675ZM107.397 149.6H107.912L108.452 151.38L108.987 149.6H109.442L109.977 151.38L110.517 149.6H111.037L110.257 152H109.772L109.217 150.21L108.662 152H108.172L107.397 149.6ZM113.507 152.075C113.064 152.075 112.716 151.965 112.462 151.745C112.212 151.522 112.087 151.208 112.087 150.805C112.087 150.412 112.199 150.1 112.422 149.87C112.649 149.64 112.971 149.525 113.387 149.525C113.664 149.525 113.899 149.578 114.092 149.685C114.286 149.788 114.431 149.933 114.527 150.12C114.627 150.303 114.677 150.513 114.677 150.75V151H112.567C112.584 151.227 112.679 151.397 112.852 151.51C113.029 151.62 113.267 151.675 113.567 151.675C113.721 151.675 113.876 151.662 114.032 151.635C114.189 151.605 114.327 151.567 114.447 151.52V151.925C114.341 151.968 114.199 152.003 114.022 152.03C113.849 152.06 113.677 152.075 113.507 152.075ZM114.202 150.645C114.196 150.418 114.121 150.243 113.977 150.12C113.837 149.993 113.637 149.93 113.377 149.93C113.124 149.93 112.927 149.995 112.787 150.125C112.647 150.255 112.574 150.428 112.567 150.645H114.202ZM115.979 149.6H116.469V150.03C116.569 149.883 116.709 149.775 116.889 149.705C117.073 149.635 117.284 149.6 117.524 149.6V149.995C117.268 149.995 117.048 150.037 116.864 150.12C116.681 150.203 116.554 150.335 116.484 150.515V152H115.979V149.6ZM119.538 152.075C119.371 152.075 119.195 152.053 119.008 152.01C118.821 151.97 118.675 151.915 118.568 151.845V151.415C118.698 151.492 118.848 151.555 119.018 151.605C119.188 151.652 119.353 151.675 119.513 151.675C119.693 151.675 119.825 151.653 119.908 151.61C119.991 151.567 120.033 151.497 120.033 151.4C120.033 151.327 120.013 151.268 119.973 151.225C119.936 151.178 119.871 151.137 119.778 151.1C119.688 151.063 119.551 151.02 119.368 150.97C119.171 150.913 119.015 150.857 118.898 150.8C118.785 150.74 118.698 150.665 118.638 150.575C118.581 150.485 118.553 150.368 118.553 150.225C118.553 149.995 118.643 149.822 118.823 149.705C119.006 149.585 119.251 149.525 119.558 149.525C119.718 149.525 119.875 149.54 120.028 149.57C120.181 149.6 120.305 149.642 120.398 149.695V150.115C120.301 150.058 120.181 150.013 120.038 149.98C119.898 149.947 119.755 149.93 119.608 149.93C119.431 149.93 119.296 149.952 119.203 149.995C119.11 150.038 119.063 150.115 119.063 150.225C119.063 150.295 119.083 150.352 119.123 150.395C119.163 150.438 119.226 150.477 119.313 150.51C119.403 150.54 119.545 150.58 119.738 150.63C120.041 150.713 120.251 150.812 120.368 150.925C120.488 151.038 120.548 151.195 120.548 151.395C120.548 151.602 120.463 151.767 120.293 151.89C120.123 152.013 119.871 152.075 119.538 152.075ZM17.835 160.99C17.655 160.99 17.505 160.972 17.385 160.935V160.54C17.4717 160.573 17.5783 160.59 17.705 160.59C17.8217 160.59 17.9133 160.56 17.98 160.5C18.0467 160.443 18.1067 160.35 18.16 160.22L18.275 159.94L17.225 157.6H17.745L18.545 159.445L19.29 157.6H19.81L18.73 160.27C18.63 160.52 18.51 160.702 18.37 160.815C18.2333 160.932 18.055 160.99 17.835 160.99ZM21.9474 160.075C21.6774 160.075 21.4391 160.025 21.2324 159.925C21.0291 159.822 20.8691 159.675 20.7524 159.485C20.6391 159.292 20.5824 159.065 20.5824 158.805C20.5824 158.548 20.6391 158.323 20.7524 158.13C20.8658 157.937 21.0258 157.788 21.2324 157.685C21.4391 157.578 21.6774 157.525 21.9474 157.525C22.2174 157.525 22.4558 157.578 22.6624 157.685C22.8691 157.788 23.0291 157.937 23.1424 158.13C23.2591 158.323 23.3174 158.548 23.3174 158.805C23.3174 159.065 23.2591 159.292 23.1424 159.485C23.0291 159.675 22.8691 159.822 22.6624 159.925C22.4558 160.025 22.2174 160.075 21.9474 160.075ZM21.9474 159.675C22.2074 159.675 22.4141 159.595 22.5674 159.435C22.7208 159.275 22.7974 159.065 22.7974 158.805C22.7974 158.535 22.7208 158.322 22.5674 158.165C22.4141 158.008 22.2074 157.93 21.9474 157.93C21.6874 157.93 21.4808 158.008 21.3274 158.165C21.1741 158.322 21.0974 158.535 21.0974 158.805C21.0974 159.065 21.1741 159.275 21.3274 159.435C21.4808 159.595 21.6874 159.675 21.9474 159.675ZM25.571 160.075C25.2477 160.075 25.0027 159.988 24.836 159.815C24.6727 159.642 24.591 159.41 24.591 159.12V157.6H25.096V159.1C25.096 159.483 25.2877 159.675 25.671 159.675C26.0077 159.675 26.271 159.523 26.461 159.22V157.6H26.966V160H26.476V159.66C26.3627 159.803 26.2277 159.908 26.071 159.975C25.9177 160.042 25.751 160.075 25.571 160.075ZM28.3641 157.6H28.8541V158.03C28.9541 157.883 29.0941 157.775 29.2741 157.705C29.4574 157.635 29.6691 157.6 29.9091 157.6V157.995C29.6524 157.995 29.4324 158.037 29.2491 158.12C29.0657 158.203 28.9391 158.335 28.8691 158.515V160H28.3641V157.6ZM33.8767 157.99H33.5117V157.6H33.8767V157.145C33.8767 156.868 33.9651 156.655 34.1417 156.505C34.3184 156.355 34.5384 156.28 34.8017 156.28C34.9351 156.28 35.0651 156.3 35.1917 156.34V156.75C35.0984 156.713 35.0017 156.695 34.9017 156.695C34.7317 156.695 34.6017 156.737 34.5117 156.82C34.4251 156.9 34.3817 157.018 34.3817 157.175V157.6H36.0017V160H35.4967V157.99H34.3817V160H33.8767V157.99ZM35.7467 157.13C35.6601 157.13 35.5884 157.102 35.5317 157.045C35.4751 156.988 35.4467 156.918 35.4467 156.835C35.4467 156.752 35.4751 156.682 35.5317 156.625C35.5917 156.568 35.6634 156.54 35.7467 156.54C35.8301 156.54 35.9001 156.568 35.9567 156.625C36.0167 156.682 36.0467 156.752 36.0467 156.835C36.0467 156.918 36.0167 156.988 35.9567 157.045C35.9001 157.102 35.8301 157.13 35.7467 157.13ZM38.3301 160.075C38.1635 160.075 37.9868 160.053 37.8001 160.01C37.6135 159.97 37.4668 159.915 37.3601 159.845V159.415C37.4901 159.492 37.6401 159.555 37.8101 159.605C37.9801 159.652 38.1451 159.675 38.3051 159.675C38.4851 159.675 38.6168 159.653 38.7001 159.61C38.7835 159.567 38.8251 159.497 38.8251 159.4C38.8251 159.327 38.8051 159.268 38.7651 159.225C38.7285 159.178 38.6635 159.137 38.5701 159.1C38.4801 159.063 38.3435 159.02 38.1601 158.97C37.9635 158.913 37.8068 158.857 37.6901 158.8C37.5768 158.74 37.4901 158.665 37.4301 158.575C37.3735 158.485 37.3451 158.368 37.3451 158.225C37.3451 157.995 37.4351 157.822 37.6151 157.705C37.7985 157.585 38.0435 157.525 38.3501 157.525C38.5101 157.525 38.6668 157.54 38.8201 157.57C38.9735 157.6 39.0968 157.642 39.1901 157.695V158.115C39.0935 158.058 38.9735 158.013 38.8301 157.98C38.6901 157.947 38.5468 157.93 38.4001 157.93C38.2235 157.93 38.0885 157.952 37.9951 157.995C37.9018 158.038 37.8551 158.115 37.8551 158.225C37.8551 158.295 37.8751 158.352 37.9151 158.395C37.9551 158.438 38.0185 158.477 38.1051 158.51C38.1951 158.54 38.3368 158.58 38.5301 158.63C38.8335 158.713 39.0435 158.812 39.1601 158.925C39.2801 159.038 39.3401 159.195 39.3401 159.395C39.3401 159.602 39.2551 159.767 39.0851 159.89C38.9151 160.013 38.6635 160.075 38.3301 160.075ZM40.6414 156.305H41.1464V157.93C41.3764 157.66 41.6831 157.525 42.0664 157.525C42.3864 157.525 42.6247 157.61 42.7814 157.78C42.9381 157.95 43.0164 158.178 43.0164 158.465V160H42.5114V158.515C42.5114 158.125 42.3247 157.93 41.9514 157.93C41.7914 157.93 41.6414 157.968 41.5014 158.045C41.3647 158.118 41.2464 158.232 41.1464 158.385V160H40.6414V156.305ZM47.915 160.075C47.6717 160.075 47.4834 160.005 47.35 159.865C47.22 159.725 47.155 159.527 47.155 159.27V157.99H46.79V157.6H47.155V156.88H47.665V157.6H48.255V157.99H47.665V159.235C47.665 159.395 47.695 159.508 47.755 159.575C47.8184 159.642 47.9317 159.675 48.095 159.675C48.1917 159.675 48.2884 159.653 48.385 159.61V160.01C48.2584 160.053 48.1017 160.075 47.915 160.075ZM50.8507 160.075C50.5807 160.075 50.3424 160.025 50.1357 159.925C49.9324 159.822 49.7724 159.675 49.6557 159.485C49.5424 159.292 49.4857 159.065 49.4857 158.805C49.4857 158.548 49.5424 158.323 49.6557 158.13C49.7691 157.937 49.9291 157.788 50.1357 157.685C50.3424 157.578 50.5807 157.525 50.8507 157.525C51.1207 157.525 51.3591 157.578 51.5657 157.685C51.7724 157.788 51.9324 157.937 52.0457 158.13C52.1624 158.323 52.2207 158.548 52.2207 158.805C52.2207 159.065 52.1624 159.292 52.0457 159.485C51.9324 159.675 51.7724 159.822 51.5657 159.925C51.3591 160.025 51.1207 160.075 50.8507 160.075ZM50.8507 159.675C51.1107 159.675 51.3174 159.595 51.4707 159.435C51.6241 159.275 51.7007 159.065 51.7007 158.805C51.7007 158.535 51.6241 158.322 51.4707 158.165C51.3174 158.008 51.1107 157.93 50.8507 157.93C50.5907 157.93 50.3841 158.008 50.2307 158.165C50.0774 158.322 50.0007 158.535 50.0007 158.805C50.0007 159.065 50.0774 159.275 50.2307 159.435C50.3841 159.595 50.5907 159.675 50.8507 159.675ZM57.3749 161.15C57.2116 161.15 57.0516 161.137 56.8949 161.11C56.7416 161.083 56.6116 161.045 56.5049 160.995V160.58C56.7549 160.693 57.0449 160.75 57.3749 160.75C57.6849 160.75 57.9099 160.682 58.0499 160.545C58.1933 160.412 58.2649 160.208 58.2649 159.935V159.68C58.0449 159.943 57.7216 160.075 57.2949 160.075C57.0516 160.075 56.8333 160.022 56.6399 159.915C56.4466 159.808 56.2949 159.658 56.1849 159.465C56.0749 159.272 56.0199 159.05 56.0199 158.8C56.0199 158.547 56.0733 158.325 56.1799 158.135C56.2899 157.942 56.4399 157.792 56.6299 157.685C56.8233 157.578 57.0399 157.525 57.2799 157.525C57.5033 157.525 57.6916 157.558 57.8449 157.625C58.0016 157.688 58.1466 157.795 58.2799 157.945V157.6H58.7699V159.88C58.7699 160.29 58.6549 160.603 58.4249 160.82C58.1983 161.04 57.8483 161.15 57.3749 161.15ZM57.3949 159.675C57.6016 159.675 57.7833 159.62 57.9399 159.51C58.0999 159.4 58.2083 159.253 58.2649 159.07V158.53C58.2016 158.343 58.0916 158.197 57.9349 158.09C57.7816 157.983 57.6016 157.93 57.3949 157.93C57.2316 157.93 57.0833 157.967 56.9499 158.04C56.8199 158.11 56.7166 158.212 56.6399 158.345C56.5666 158.478 56.5299 158.63 56.5299 158.8C56.5299 158.973 56.5666 159.127 56.6399 159.26C56.7166 159.39 56.8199 159.492 56.9499 159.565C57.0833 159.638 57.2316 159.675 57.3949 159.675ZM61.3088 160.075C61.0388 160.075 60.8004 160.025 60.5938 159.925C60.3904 159.822 60.2304 159.675 60.1138 159.485C60.0004 159.292 59.9438 159.065 59.9438 158.805C59.9438 158.548 60.0004 158.323 60.1138 158.13C60.2271 157.937 60.3871 157.788 60.5938 157.685C60.8004 157.578 61.0388 157.525 61.3088 157.525C61.5788 157.525 61.8171 157.578 62.0238 157.685C62.2304 157.788 62.3904 157.937 62.5038 158.13C62.6204 158.323 62.6788 158.548 62.6788 158.805C62.6788 159.065 62.6204 159.292 62.5038 159.485C62.3904 159.675 62.2304 159.822 62.0238 159.925C61.8171 160.025 61.5788 160.075 61.3088 160.075ZM61.3088 159.675C61.5688 159.675 61.7754 159.595 61.9288 159.435C62.0821 159.275 62.1588 159.065 62.1588 158.805C62.1588 158.535 62.0821 158.322 61.9288 158.165C61.7754 158.008 61.5688 157.93 61.3088 157.93C61.0488 157.93 60.8421 158.008 60.6888 158.165C60.5354 158.322 60.4588 158.535 60.4588 158.805C60.4588 159.065 60.5354 159.275 60.6888 159.435C60.8421 159.595 61.0488 159.675 61.3088 159.675ZM66.8729 157.13C66.7896 157.13 66.7196 157.102 66.6629 157.045C66.6063 156.988 66.5779 156.918 66.5779 156.835C66.5779 156.752 66.6063 156.682 66.6629 156.625C66.7196 156.568 66.7896 156.54 66.8729 156.54C66.9596 156.54 67.0313 156.568 67.0879 156.625C67.1479 156.682 67.1779 156.752 67.1779 156.835C67.1779 156.918 67.1479 156.988 67.0879 157.045C67.0313 157.102 66.9596 157.13 66.8729 157.13ZM66.6179 157.6H67.1329V160H66.6179V157.6ZM68.5779 157.6H69.0679V157.945C69.1813 157.802 69.3196 157.697 69.4829 157.63C69.6496 157.56 69.8229 157.525 70.0029 157.525C70.3229 157.525 70.5613 157.61 70.7179 157.78C70.8746 157.95 70.9529 158.178 70.9529 158.465V160H70.4479V158.515C70.4479 158.125 70.2613 157.93 69.8879 157.93C69.7279 157.93 69.5779 157.968 69.4379 158.045C69.3013 158.118 69.1829 158.232 69.0829 158.385V160H68.5779V157.6ZM73.251 160.075C73.0076 160.075 72.8193 160.005 72.686 159.865C72.556 159.725 72.491 159.527 72.491 159.27V157.99H72.126V157.6H72.491V156.88H73.001V157.6H73.591V157.99H73.001V159.235C73.001 159.395 73.031 159.508 73.091 159.575C73.1543 159.642 73.2676 159.675 73.431 159.675C73.5276 159.675 73.6243 159.653 73.721 159.61V160.01C73.5943 160.053 73.4376 160.075 73.251 160.075ZM76.1867 160.075C75.9167 160.075 75.6783 160.025 75.4717 159.925C75.2683 159.822 75.1083 159.675 74.9917 159.485C74.8783 159.292 74.8217 159.065 74.8217 158.805C74.8217 158.548 74.8783 158.323 74.9917 158.13C75.105 157.937 75.265 157.788 75.4717 157.685C75.6783 157.578 75.9167 157.525 76.1867 157.525C76.4567 157.525 76.695 157.578 76.9017 157.685C77.1083 157.788 77.2683 157.937 77.3817 158.13C77.4983 158.323 77.5567 158.548 77.5567 158.805C77.5567 159.065 77.4983 159.292 77.3817 159.485C77.2683 159.675 77.1083 159.822 76.9017 159.925C76.695 160.025 76.4567 160.075 76.1867 160.075ZM76.1867 159.675C76.4467 159.675 76.6533 159.595 76.8067 159.435C76.96 159.275 77.0367 159.065 77.0367 158.805C77.0367 158.535 76.96 158.322 76.8067 158.165C76.6533 158.008 76.4467 157.93 76.1867 157.93C75.9267 157.93 75.72 158.008 75.5667 158.165C75.4133 158.322 75.3367 158.535 75.3367 158.805C75.3367 159.065 75.4133 159.275 75.5667 159.435C75.72 159.595 75.9267 159.675 76.1867 159.675ZM82.3159 160.075C82.0259 160.075 81.7925 160.002 81.6159 159.855C81.4425 159.705 81.3559 159.503 81.3559 159.25C81.3559 158.983 81.4392 158.778 81.6059 158.635C81.7759 158.488 82.0159 158.415 82.3259 158.415C82.6559 158.415 82.9359 158.482 83.1659 158.615V158.49C83.1659 158.3 83.1075 158.16 82.9909 158.07C82.8775 157.977 82.6975 157.93 82.4509 157.93C82.3042 157.93 82.1609 157.945 82.0209 157.975C81.8842 158.002 81.7609 158.04 81.6509 158.09V157.68C81.7509 157.633 81.8809 157.597 82.0409 157.57C82.2009 157.54 82.3559 157.525 82.5059 157.525C82.9025 157.525 83.1959 157.613 83.3859 157.79C83.5792 157.963 83.6759 158.205 83.6759 158.515V160H83.2009V159.73C83.0975 159.843 82.9742 159.93 82.8309 159.99C82.6909 160.047 82.5192 160.075 82.3159 160.075ZM82.4409 159.69C82.6009 159.69 82.7459 159.658 82.8759 159.595C83.0059 159.532 83.1025 159.443 83.1659 159.33V159.005C82.9492 158.865 82.7075 158.795 82.4409 158.795C82.2475 158.795 82.1025 158.833 82.0059 158.91C81.9125 158.983 81.8659 159.097 81.8659 159.25C81.8659 159.543 82.0575 159.69 82.4409 159.69ZM87.8181 157.99H87.4531V157.6H87.8181V157.13C87.8181 156.853 87.8965 156.643 88.0531 156.5C88.2098 156.353 88.4198 156.28 88.6831 156.28C88.8198 156.28 88.9481 156.3 89.0681 156.34V156.76C88.9748 156.717 88.8781 156.695 88.7781 156.695C88.6215 156.695 88.5065 156.733 88.4331 156.81C88.3598 156.883 88.3231 157 88.3231 157.16V157.6H88.9231V157.99H88.3231V160H87.8181V157.99ZM90.1414 157.6H90.6314V158.03C90.7314 157.883 90.8714 157.775 91.0514 157.705C91.2347 157.635 91.4464 157.6 91.6864 157.6V157.995C91.4297 157.995 91.2097 158.037 91.0264 158.12C90.8431 158.203 90.7164 158.335 90.6464 158.515V160H90.1414V157.6ZM94.0571 160.075C93.6138 160.075 93.2654 159.965 93.0121 159.745C92.7621 159.522 92.6371 159.208 92.6371 158.805C92.6371 158.412 92.7488 158.1 92.9721 157.87C93.1988 157.64 93.5204 157.525 93.9371 157.525C94.2138 157.525 94.4488 157.578 94.6421 157.685C94.8354 157.788 94.9804 157.933 95.0771 158.12C95.1771 158.303 95.2271 158.513 95.2271 158.75V159H93.1171C93.1338 159.227 93.2288 159.397 93.4021 159.51C93.5788 159.62 93.8171 159.675 94.1171 159.675C94.2704 159.675 94.4254 159.662 94.5821 159.635C94.7388 159.605 94.8771 159.567 94.9971 159.52V159.925C94.8904 159.968 94.7488 160.003 94.5721 160.03C94.3988 160.06 94.2271 160.075 94.0571 160.075ZM94.7521 158.645C94.7454 158.418 94.6704 158.243 94.5271 158.12C94.3871 157.993 94.1871 157.93 93.9271 157.93C93.6738 157.93 93.4771 157.995 93.3371 158.125C93.1971 158.255 93.1238 158.428 93.1171 158.645H94.7521ZM96.5291 157.6H97.0191V157.945C97.1324 157.802 97.2708 157.697 97.4341 157.63C97.6008 157.56 97.7741 157.525 97.9541 157.525C98.2741 157.525 98.5124 157.61 98.6691 157.78C98.8258 157.95 98.9041 158.178 98.9041 158.465V160H98.3991V158.515C98.3991 158.125 98.2124 157.93 97.8391 157.93C97.6791 157.93 97.5291 157.968 97.3891 158.045C97.2524 158.118 97.1341 158.232 97.0341 158.385V160H96.5291V157.6ZM100.177 159.675L101.542 157.99H100.207V157.6H102.172V157.93L100.807 159.61H102.222V160H100.177V159.675ZM103.856 160.99C103.676 160.99 103.526 160.972 103.406 160.935V160.54C103.493 160.573 103.6 160.59 103.726 160.59C103.843 160.59 103.935 160.56 104.001 160.5C104.068 160.443 104.128 160.35 104.181 160.22L104.296 159.94L103.246 157.6H103.766L104.566 159.445L105.311 157.6H105.831L104.751 160.27C104.651 160.52 104.531 160.702 104.391 160.815C104.255 160.932 104.076 160.99 103.856 160.99ZM107.009 159.735H107.539L107.064 160.74H106.604L107.009 159.735ZM111.441 157.6H111.921V157.945C112.035 157.805 112.163 157.7 112.306 157.63C112.45 157.56 112.598 157.525 112.751 157.525C112.945 157.525 113.098 157.558 113.211 157.625C113.325 157.688 113.408 157.787 113.461 157.92C113.568 157.79 113.698 157.692 113.851 157.625C114.008 157.558 114.165 157.525 114.321 157.525C114.615 157.525 114.826 157.6 114.956 157.75C115.086 157.897 115.151 158.115 115.151 158.405V160H114.661V158.47C114.661 158.273 114.625 158.135 114.551 158.055C114.478 157.972 114.353 157.93 114.176 157.93C113.923 157.93 113.716 158.04 113.556 158.26C113.563 158.31 113.566 158.392 113.566 158.505V160H113.076V158.47C113.076 158.273 113.043 158.135 112.976 158.055C112.91 157.972 112.79 157.93 112.616 157.93C112.363 157.93 112.136 158.073 111.936 158.36V160H111.441V157.6ZM117.314 160.075C117.024 160.075 116.791 160.002 116.614 159.855C116.441 159.705 116.354 159.503 116.354 159.25C116.354 158.983 116.437 158.778 116.604 158.635C116.774 158.488 117.014 158.415 117.324 158.415C117.654 158.415 117.934 158.482 118.164 158.615V158.49C118.164 158.3 118.106 158.16 117.989 158.07C117.876 157.977 117.696 157.93 117.449 157.93C117.302 157.93 117.159 157.945 117.019 157.975C116.882 158.002 116.759 158.04 116.649 158.09V157.68C116.749 157.633 116.879 157.597 117.039 157.57C117.199 157.54 117.354 157.525 117.504 157.525C117.901 157.525 118.194 157.613 118.384 157.79C118.577 157.963 118.674 158.205 118.674 158.515V160H118.199V159.73C118.096 159.843 117.972 159.93 117.829 159.99C117.689 160.047 117.517 160.075 117.314 160.075ZM117.439 159.69C117.599 159.69 117.744 159.658 117.874 159.595C118.004 159.532 118.101 159.443 118.164 159.33V159.005C117.947 158.865 117.706 158.795 117.439 158.795C117.246 158.795 117.101 158.833 117.004 158.91C116.911 158.983 116.864 159.097 116.864 159.25C116.864 159.543 117.056 159.69 117.439 159.69ZM120.051 156.305H120.556V160H120.051V156.305ZM120.561 158.785L121.666 157.6H122.281L121.171 158.785L122.396 160H121.781L120.561 158.785ZM123.942 157.13C123.859 157.13 123.789 157.102 123.732 157.045C123.676 156.988 123.647 156.918 123.647 156.835C123.647 156.752 123.676 156.682 123.732 156.625C123.789 156.568 123.859 156.54 123.942 156.54C124.029 156.54 124.101 156.568 124.157 156.625C124.217 156.682 124.247 156.752 124.247 156.835C124.247 156.918 124.217 156.988 124.157 157.045C124.101 157.102 124.029 157.13 123.942 157.13ZM123.687 157.6H124.202V160H123.687V157.6ZM125.647 157.6H126.137V157.945C126.251 157.802 126.389 157.697 126.552 157.63C126.719 157.56 126.892 157.525 127.072 157.525C127.392 157.525 127.631 157.61 127.787 157.78C127.944 157.95 128.022 158.178 128.022 158.465V160H127.517V158.515C127.517 158.125 127.331 157.93 126.957 157.93C126.797 157.93 126.647 157.968 126.507 158.045C126.371 158.118 126.252 158.232 126.152 158.385V160H125.647V157.6ZM130.65 161.15C130.487 161.15 130.327 161.137 130.17 161.11C130.017 161.083 129.887 161.045 129.78 160.995V160.58C130.03 160.693 130.32 160.75 130.65 160.75C130.96 160.75 131.185 160.682 131.325 160.545C131.469 160.412 131.54 160.208 131.54 159.935V159.68C131.32 159.943 130.997 160.075 130.57 160.075C130.327 160.075 130.109 160.022 129.915 159.915C129.722 159.808 129.57 159.658 129.46 159.465C129.35 159.272 129.295 159.05 129.295 158.8C129.295 158.547 129.349 158.325 129.455 158.135C129.565 157.942 129.715 157.792 129.905 157.685C130.099 157.578 130.315 157.525 130.555 157.525C130.779 157.525 130.967 157.558 131.12 157.625C131.277 157.688 131.422 157.795 131.555 157.945V157.6H132.045V159.88C132.045 160.29 131.93 160.603 131.7 160.82C131.474 161.04 131.124 161.15 130.65 161.15ZM130.67 159.675C130.877 159.675 131.059 159.62 131.215 159.51C131.375 159.4 131.484 159.253 131.54 159.07V158.53C131.477 158.343 131.367 158.197 131.21 158.09C131.057 157.983 130.877 157.93 130.67 157.93C130.507 157.93 130.359 157.967 130.225 158.04C130.095 158.11 129.992 158.212 129.915 158.345C129.842 158.478 129.805 158.63 129.805 158.8C129.805 158.973 129.842 159.127 129.915 159.26C129.992 159.39 130.095 159.492 130.225 159.565C130.359 159.638 130.507 159.675 130.67 159.675ZM17.62 165.13C17.5367 165.13 17.4667 165.102 17.41 165.045C17.3533 164.988 17.325 164.918 17.325 164.835C17.325 164.752 17.3533 164.682 17.41 164.625C17.4667 164.568 17.5367 164.54 17.62 164.54C17.7067 164.54 17.7783 164.568 17.835 164.625C17.895 164.682 17.925 164.752 17.925 164.835C17.925 164.918 17.895 164.988 17.835 165.045C17.7783 165.102 17.7067 165.13 17.62 165.13ZM17.365 165.6H17.88V168H17.365V165.6ZM20.25 168.075C20.0067 168.075 19.8183 168.005 19.685 167.865C19.555 167.725 19.49 167.527 19.49 167.27V165.99H19.125V165.6H19.49V164.88H20V165.6H20.59V165.99H20V167.235C20 167.395 20.03 167.508 20.09 167.575C20.1533 167.642 20.2667 167.675 20.43 167.675C20.5267 167.675 20.6233 167.653 20.72 167.61V168.01C20.5933 168.053 20.4367 168.075 20.25 168.075ZM22.7325 168.075C22.5658 168.075 22.3891 168.053 22.2025 168.01C22.0158 167.97 21.8691 167.915 21.7625 167.845V167.415C21.8925 167.492 22.0425 167.555 22.2125 167.605C22.3825 167.652 22.5475 167.675 22.7075 167.675C22.8875 167.675 23.0191 167.653 23.1025 167.61C23.1858 167.567 23.2275 167.497 23.2275 167.4C23.2275 167.327 23.2075 167.268 23.1675 167.225C23.1308 167.178 23.0658 167.137 22.9725 167.1C22.8825 167.063 22.7458 167.02 22.5625 166.97C22.3658 166.913 22.2091 166.857 22.0925 166.8C21.9791 166.74 21.8925 166.665 21.8325 166.575C21.7758 166.485 21.7475 166.368 21.7475 166.225C21.7475 165.995 21.8375 165.822 22.0175 165.705C22.2008 165.585 22.4458 165.525 22.7525 165.525C22.9125 165.525 23.0691 165.54 23.2225 165.57C23.3758 165.6 23.4991 165.642 23.5925 165.695V166.115C23.4958 166.058 23.3758 166.013 23.2325 165.98C23.0925 165.947 22.9491 165.93 22.8025 165.93C22.6258 165.93 22.4908 165.952 22.3975 165.995C22.3041 166.038 22.2575 166.115 22.2575 166.225C22.2575 166.295 22.2775 166.352 22.3175 166.395C22.3575 166.438 22.4208 166.477 22.5075 166.51C22.5975 166.54 22.7391 166.58 22.9325 166.63C23.2358 166.713 23.4458 166.812 23.5625 166.925C23.6825 167.038 23.7425 167.195 23.7425 167.395C23.7425 167.602 23.6575 167.767 23.4875 167.89C23.3175 168.013 23.0658 168.075 22.7325 168.075ZM28.9393 164.505H29.4293L30.8243 168H30.3043L29.9543 167.13H28.4093L28.0693 168H27.5443L28.9393 164.505ZM29.8143 166.705L29.1843 165.07L28.5543 166.705H29.8143ZM32.3848 164.935H31.2998V164.505H33.9848V164.935H32.8998V168H32.3848V164.935ZM35.1844 164.505H35.6944V168H35.1844V164.505ZM35.7194 166.22L37.3144 164.505H37.9344L36.3394 166.22L38.0344 168H37.4144L35.7194 166.22ZM42.1796 165.13C42.0962 165.13 42.0262 165.102 41.9696 165.045C41.9129 164.988 41.8846 164.918 41.8846 164.835C41.8846 164.752 41.9129 164.682 41.9696 164.625C42.0262 164.568 42.0962 164.54 42.1796 164.54C42.2662 164.54 42.3379 164.568 42.3946 164.625C42.4546 164.682 42.4846 164.752 42.4846 164.835C42.4846 164.918 42.4546 164.988 42.3946 165.045C42.3379 165.102 42.2662 165.13 42.1796 165.13ZM41.9246 165.6H42.4396V168H41.9246V165.6ZM43.8846 165.6H44.3746V165.945C44.4879 165.802 44.6262 165.697 44.7896 165.63C44.9562 165.56 45.1296 165.525 45.3096 165.525C45.6296 165.525 45.8679 165.61 46.0246 165.78C46.1812 165.95 46.2596 166.178 46.2596 166.465V168H45.7546V166.515C45.7546 166.125 45.5679 165.93 45.1946 165.93C45.0346 165.93 44.8846 165.968 44.7446 166.045C44.6079 166.118 44.4896 166.232 44.3896 166.385V168H43.8846V165.6ZM48.8976 168.075C48.631 168.075 48.3943 168.025 48.1876 167.925C47.981 167.825 47.8193 167.68 47.7026 167.49C47.5893 167.297 47.5326 167.068 47.5326 166.805C47.5326 166.542 47.5893 166.315 47.7026 166.125C47.8193 165.932 47.981 165.783 48.1876 165.68C48.3976 165.577 48.6376 165.525 48.9076 165.525C49.2743 165.525 49.5676 165.597 49.7876 165.74V166.155C49.571 166.005 49.2943 165.93 48.9576 165.93C48.6843 165.93 48.4626 166.005 48.2926 166.155C48.126 166.302 48.0426 166.518 48.0426 166.805C48.0426 167.092 48.126 167.308 48.2926 167.455C48.4593 167.602 48.6776 167.675 48.9476 167.675C49.2843 167.675 49.5743 167.595 49.8176 167.435V167.845C49.701 167.925 49.5676 167.983 49.4176 168.02C49.271 168.057 49.0976 168.075 48.8976 168.075ZM51.117 165.6H51.607V166.03C51.707 165.883 51.847 165.775 52.027 165.705C52.2103 165.635 52.422 165.6 52.662 165.6V165.995C52.4053 165.995 52.1853 166.037 52.002 166.12C51.8187 166.203 51.692 166.335 51.622 166.515V168H51.117V165.6ZM55.0327 168.075C54.5894 168.075 54.241 167.965 53.9877 167.745C53.7377 167.522 53.6127 167.208 53.6127 166.805C53.6127 166.412 53.7244 166.1 53.9477 165.87C54.1744 165.64 54.496 165.525 54.9127 165.525C55.1894 165.525 55.4244 165.578 55.6177 165.685C55.811 165.788 55.956 165.933 56.0527 166.12C56.1527 166.303 56.2027 166.513 56.2027 166.75V167H54.0927C54.1094 167.227 54.2044 167.397 54.3777 167.51C54.5544 167.62 54.7927 167.675 55.0927 167.675C55.246 167.675 55.401 167.662 55.5577 167.635C55.7144 167.605 55.8527 167.567 55.9727 167.52V167.925C55.866 167.968 55.7244 168.003 55.5477 168.03C55.3744 168.06 55.2027 168.075 55.0327 168.075ZM55.7277 166.645C55.721 166.418 55.646 166.243 55.5027 166.12C55.3627 165.993 55.1627 165.93 54.9027 165.93C54.6494 165.93 54.4527 165.995 54.3127 166.125C54.1727 166.255 54.0994 166.428 54.0927 166.645H55.7277ZM58.3647 168.075C58.0747 168.075 57.8414 168.002 57.6647 167.855C57.4914 167.705 57.4047 167.503 57.4047 167.25C57.4047 166.983 57.488 166.778 57.6547 166.635C57.8247 166.488 58.0647 166.415 58.3747 166.415C58.7047 166.415 58.9847 166.482 59.2147 166.615V166.49C59.2147 166.3 59.1564 166.16 59.0397 166.07C58.9264 165.977 58.7464 165.93 58.4997 165.93C58.353 165.93 58.2097 165.945 58.0697 165.975C57.933 166.002 57.8097 166.04 57.6997 166.09V165.68C57.7997 165.633 57.9297 165.597 58.0897 165.57C58.2497 165.54 58.4047 165.525 58.5547 165.525C58.9514 165.525 59.2447 165.613 59.4347 165.79C59.628 165.963 59.7247 166.205 59.7247 166.515V168H59.2497V167.73C59.1464 167.843 59.023 167.93 58.8797 167.99C58.7397 168.047 58.568 168.075 58.3647 168.075ZM58.4897 167.69C58.6497 167.69 58.7947 167.658 58.9247 167.595C59.0547 167.532 59.1514 167.443 59.2147 167.33V167.005C58.998 166.865 58.7564 166.795 58.4897 166.795C58.2964 166.795 58.1514 166.833 58.0547 166.91C57.9614 166.983 57.9147 167.097 57.9147 167.25C57.9147 167.543 58.1064 167.69 58.4897 167.69ZM61.9131 168.075C61.7465 168.075 61.5698 168.053 61.3831 168.01C61.1965 167.97 61.0498 167.915 60.9431 167.845V167.415C61.0731 167.492 61.2231 167.555 61.3931 167.605C61.5631 167.652 61.7281 167.675 61.8881 167.675C62.0681 167.675 62.1998 167.653 62.2831 167.61C62.3665 167.567 62.4081 167.497 62.4081 167.4C62.4081 167.327 62.3881 167.268 62.3481 167.225C62.3115 167.178 62.2465 167.137 62.1531 167.1C62.0631 167.063 61.9265 167.02 61.7431 166.97C61.5465 166.913 61.3898 166.857 61.2731 166.8C61.1598 166.74 61.0731 166.665 61.0131 166.575C60.9565 166.485 60.9281 166.368 60.9281 166.225C60.9281 165.995 61.0181 165.822 61.1981 165.705C61.3815 165.585 61.6265 165.525 61.9331 165.525C62.0931 165.525 62.2498 165.54 62.4031 165.57C62.5565 165.6 62.6798 165.642 62.7731 165.695V166.115C62.6765 166.058 62.5565 166.013 62.4131 165.98C62.2731 165.947 62.1298 165.93 61.9831 165.93C61.8065 165.93 61.6715 165.952 61.5781 165.995C61.4848 166.038 61.4381 166.115 61.4381 166.225C61.4381 166.295 61.4581 166.352 61.4981 166.395C61.5381 166.438 61.6015 166.477 61.6881 166.51C61.7781 166.54 61.9198 166.58 62.1131 166.63C62.4165 166.713 62.6265 166.812 62.7431 166.925C62.8631 167.038 62.9231 167.195 62.9231 167.395C62.9231 167.602 62.8381 167.767 62.6681 167.89C62.4981 168.013 62.2465 168.075 61.9131 168.075ZM65.5444 168.075C65.1011 168.075 64.7527 167.965 64.4994 167.745C64.2494 167.522 64.1244 167.208 64.1244 166.805C64.1244 166.412 64.2361 166.1 64.4594 165.87C64.6861 165.64 65.0077 165.525 65.4244 165.525C65.7011 165.525 65.9361 165.578 66.1294 165.685C66.3227 165.788 66.4677 165.933 66.5644 166.12C66.6644 166.303 66.7144 166.513 66.7144 166.75V167H64.6044C64.6211 167.227 64.7161 167.397 64.8894 167.51C65.0661 167.62 65.3044 167.675 65.6044 167.675C65.7577 167.675 65.9127 167.662 66.0694 167.635C66.2261 167.605 66.3644 167.567 66.4844 167.52V167.925C66.3777 167.968 66.2361 168.003 66.0594 168.03C65.8861 168.06 65.7144 168.075 65.5444 168.075ZM66.2394 166.645C66.2327 166.418 66.1577 166.243 66.0144 166.12C65.8744 165.993 65.6744 165.93 65.4144 165.93C65.1611 165.93 64.9644 165.995 64.8244 166.125C64.6844 166.255 64.6111 166.428 64.6044 166.645H66.2394ZM72.107 168.075C71.8903 168.075 71.702 168.042 71.542 167.975C71.3853 167.905 71.2403 167.797 71.107 167.65V168H70.617V164.305H71.122V165.92C71.232 165.79 71.3737 165.692 71.547 165.625C71.7203 165.558 71.907 165.525 72.107 165.525C72.347 165.525 72.562 165.58 72.752 165.69C72.9453 165.797 73.0953 165.947 73.202 166.14C73.312 166.333 73.367 166.555 73.367 166.805C73.367 167.058 73.312 167.282 73.202 167.475C73.0953 167.665 72.9453 167.813 72.752 167.92C72.562 168.023 72.347 168.075 72.107 168.075ZM71.992 167.675C72.1553 167.675 72.302 167.64 72.432 167.57C72.5653 167.497 72.6687 167.393 72.742 167.26C72.8187 167.127 72.857 166.975 72.857 166.805C72.857 166.635 72.8187 166.483 72.742 166.35C72.6687 166.217 72.5653 166.113 72.432 166.04C72.302 165.967 72.1553 165.93 71.992 165.93C71.7887 165.93 71.607 165.985 71.447 166.095C71.287 166.205 71.1787 166.352 71.122 166.535V167.075C71.1853 167.258 71.2937 167.405 71.447 167.515C71.6037 167.622 71.7853 167.675 71.992 167.675ZM74.8506 168.99C74.6706 168.99 74.5206 168.972 74.4006 168.935V168.54C74.4873 168.573 74.594 168.59 74.7206 168.59C74.8373 168.59 74.929 168.56 74.9956 168.5C75.0623 168.443 75.1223 168.35 75.1756 168.22L75.2906 167.94L74.2406 165.6H74.7606L75.5606 167.445L76.3056 165.6H76.8256L75.7456 168.27C75.6456 168.52 75.5256 168.702 75.3856 168.815C75.249 168.932 75.0706 168.99 74.8506 168.99ZM88.5254 168C88.4588 168 88.4021 167.978 88.3554 167.935C88.3121 167.888 88.2904 167.832 88.2904 167.765C88.2904 167.698 88.3121 167.642 88.3554 167.595C88.4021 167.548 88.4588 167.525 88.5254 167.525C88.5921 167.525 88.6488 167.548 88.6954 167.595C88.7421 167.642 88.7654 167.698 88.7654 167.765C88.7654 167.832 88.7421 167.888 88.6954 167.935C88.6488 167.978 88.5921 168 88.5254 168ZM94.4039 168.075C94.0572 168.075 93.7439 168 93.4639 167.85C93.1839 167.697 92.9639 167.482 92.8039 167.205C92.6439 166.928 92.5639 166.612 92.5639 166.255C92.5639 165.898 92.6439 165.582 92.8039 165.305C92.9639 165.028 93.1839 164.813 93.4639 164.66C93.7439 164.507 94.0572 164.43 94.4039 164.43C94.7505 164.43 95.0639 164.507 95.3439 164.66C95.6239 164.813 95.8439 165.028 96.0039 165.305C96.1639 165.582 96.2439 165.898 96.2439 166.255C96.2439 166.612 96.1639 166.928 96.0039 167.205C95.8439 167.482 95.6239 167.697 95.3439 167.85C95.0639 168 94.7505 168.075 94.4039 168.075ZM94.4039 167.615C94.6505 167.615 94.8739 167.56 95.0739 167.45C95.2772 167.337 95.4372 167.178 95.5539 166.975C95.6705 166.768 95.7289 166.528 95.7289 166.255C95.7289 165.985 95.6705 165.748 95.5539 165.545C95.4405 165.338 95.2839 165.18 95.0839 165.07C94.8839 164.957 94.6605 164.9 94.4139 164.9C94.1639 164.9 93.9372 164.955 93.7339 165.065C93.5339 165.175 93.3739 165.333 93.2539 165.54C93.1372 165.747 93.0789 165.985 93.0789 166.255C93.0789 166.528 93.1372 166.768 93.2539 166.975C93.3705 167.178 93.5289 167.337 93.7289 167.45C93.9322 167.56 94.1572 167.615 94.4039 167.615ZM97.5447 165.6H98.0347V165.945C98.1481 165.802 98.2864 165.697 98.4497 165.63C98.6164 165.56 98.7897 165.525 98.9697 165.525C99.2897 165.525 99.5281 165.61 99.6847 165.78C99.8414 165.95 99.9197 166.178 99.9197 166.465V168H99.4147V166.515C99.4147 166.125 99.2281 165.93 98.8547 165.93C98.6947 165.93 98.5447 165.968 98.4047 166.045C98.2681 166.118 98.1497 166.232 98.0497 166.385V168H97.5447V165.6ZM102.613 168.075C102.169 168.075 101.821 167.965 101.568 167.745C101.318 167.522 101.193 167.208 101.193 166.805C101.193 166.412 101.304 166.1 101.528 165.87C101.754 165.64 102.076 165.525 102.493 165.525C102.769 165.525 103.004 165.578 103.198 165.685C103.391 165.788 103.536 165.933 103.633 166.12C103.733 166.303 103.783 166.513 103.783 166.75V167H101.673C101.689 167.227 101.784 167.397 101.958 167.51C102.134 167.62 102.373 167.675 102.673 167.675C102.826 167.675 102.981 167.662 103.138 167.635C103.294 167.605 103.433 167.567 103.553 167.52V167.925C103.446 167.968 103.304 168.003 103.128 168.03C102.954 168.06 102.783 168.075 102.613 168.075ZM103.308 166.645C103.301 166.418 103.226 166.243 103.083 166.12C102.943 165.993 102.743 165.93 102.483 165.93C102.229 165.93 102.033 165.995 101.893 166.125C101.753 166.255 101.679 166.428 101.673 166.645H103.308ZM108.61 168.075C108.367 168.075 108.179 168.005 108.045 167.865C107.915 167.725 107.85 167.527 107.85 167.27V165.99H107.485V165.6H107.85V164.88H108.36V165.6H108.95V165.99H108.36V167.235C108.36 167.395 108.39 167.508 108.45 167.575C108.514 167.642 108.627 167.675 108.79 167.675C108.887 167.675 108.984 167.653 109.08 167.61V168.01C108.954 168.053 108.797 168.075 108.61 168.075ZM111.236 168.075C110.913 168.075 110.668 167.988 110.501 167.815C110.338 167.642 110.256 167.41 110.256 167.12V165.6H110.761V167.1C110.761 167.483 110.953 167.675 111.336 167.675C111.673 167.675 111.936 167.523 112.126 167.22V165.6H112.631V168H112.141V167.66C112.028 167.803 111.893 167.908 111.736 167.975C111.583 168.042 111.416 168.075 111.236 168.075ZM114.029 165.6H114.519V166.03C114.619 165.883 114.759 165.775 114.939 165.705C115.122 165.635 115.334 165.6 115.574 165.6V165.995C115.317 165.995 115.097 166.037 114.914 166.12C114.731 166.203 114.604 166.335 114.534 166.515V168H114.029V165.6ZM116.776 165.6H117.266V165.945C117.38 165.802 117.518 165.697 117.681 165.63C117.848 165.56 118.021 165.525 118.201 165.525C118.521 165.525 118.76 165.61 118.916 165.78C119.073 165.95 119.151 166.178 119.151 166.465V168H118.646V166.515C118.646 166.125 118.46 165.93 118.086 165.93C117.926 165.93 117.776 165.968 117.636 166.045C117.5 166.118 117.381 166.232 117.281 166.385V168H116.776V165.6ZM18.59 176.075C18.32 176.075 18.0817 176.025 17.875 175.925C17.6717 175.822 17.5117 175.675 17.395 175.485C17.2817 175.292 17.225 175.065 17.225 174.805C17.225 174.548 17.2817 174.323 17.395 174.13C17.5083 173.937 17.6683 173.788 17.875 173.685C18.0817 173.578 18.32 173.525 18.59 173.525C18.86 173.525 19.0983 173.578 19.305 173.685C19.5117 173.788 19.6717 173.937 19.785 174.13C19.9017 174.323 19.96 174.548 19.96 174.805C19.96 175.065 19.9017 175.292 19.785 175.485C19.6717 175.675 19.5117 175.822 19.305 175.925C19.0983 176.025 18.86 176.075 18.59 176.075ZM18.59 175.675C18.85 175.675 19.0567 175.595 19.21 175.435C19.3633 175.275 19.44 175.065 19.44 174.805C19.44 174.535 19.3633 174.322 19.21 174.165C19.0567 174.008 18.85 173.93 18.59 173.93C18.33 173.93 18.1233 174.008 17.97 174.165C17.8167 174.322 17.74 174.535 17.74 174.805C17.74 175.065 17.8167 175.275 17.97 175.435C18.1233 175.595 18.33 175.675 18.59 175.675ZM21.2586 173.6H21.7486V173.945C21.8619 173.802 22.0003 173.697 22.1636 173.63C22.3303 173.56 22.5036 173.525 22.6836 173.525C23.0036 173.525 23.2419 173.61 23.3986 173.78C23.5553 173.95 23.6336 174.178 23.6336 174.465V176H23.1286V174.515C23.1286 174.125 22.9419 173.93 22.5686 173.93C22.4086 173.93 22.2586 173.968 22.1186 174.045C21.9819 174.118 21.8636 174.232 21.7636 174.385V176H21.2586V173.6ZM25.0066 172.305H25.5116V176H25.0066V172.305ZM27.4239 176.99C27.2439 176.99 27.0939 176.972 26.9739 176.935V176.54C27.0605 176.573 27.1672 176.59 27.2939 176.59C27.4105 176.59 27.5022 176.56 27.5689 176.5C27.6355 176.443 27.6955 176.35 27.7489 176.22L27.8639 175.94L26.8139 173.6H27.3339L28.1339 175.445L28.8789 173.6H29.3989L28.3189 176.27C28.2189 176.52 28.0989 176.702 27.9589 176.815C27.8222 176.932 27.6439 176.99 27.4239 176.99ZM30.7334 176C30.6668 176 30.6101 175.978 30.5634 175.935C30.5201 175.888 30.4984 175.832 30.4984 175.765C30.4984 175.698 30.5201 175.642 30.5634 175.595C30.6101 175.548 30.6668 175.525 30.7334 175.525C30.8001 175.525 30.8568 175.548 30.9034 175.595C30.9501 175.642 30.9734 175.698 30.9734 175.765C30.9734 175.832 30.9501 175.888 30.9034 175.935C30.8568 175.978 30.8001 176 30.7334 176Z" fill="black"/>
<path d="M80.5258 167.665L81.2808 166.94C81.3474 166.873 81.4408 166.787 81.5608 166.68C81.7508 166.507 81.8958 166.367 81.9958 166.26C82.0958 166.153 82.1774 166.04 82.2408 165.92C82.3041 165.797 82.3358 165.665 82.3358 165.525C82.3358 165.318 82.2758 165.162 82.1558 165.055C82.0358 164.945 81.8608 164.89 81.6308 164.89C81.4741 164.89 81.3124 164.918 81.1458 164.975C80.9824 165.032 80.8291 165.115 80.6858 165.225V164.735C80.9658 164.532 81.3074 164.43 81.7108 164.43C82.0708 164.43 82.3508 164.527 82.5508 164.72C82.7508 164.91 82.8508 165.17 82.8508 165.5C82.8508 165.66 82.8158 165.813 82.7458 165.96C82.6791 166.107 82.5841 166.252 82.4608 166.395C82.3374 166.535 82.1708 166.707 81.9608 166.91L81.2808 167.575H82.9808V168H80.5258V167.665ZM85.6361 168.075C85.3361 168.075 85.0761 168.002 84.8561 167.855C84.6394 167.708 84.4727 167.498 84.3561 167.225C84.2394 166.952 84.1811 166.628 84.1811 166.255C84.1811 165.882 84.2377 165.558 84.3511 165.285C84.4677 165.008 84.6344 164.797 84.8511 164.65C85.0711 164.503 85.3327 164.43 85.6361 164.43C85.9394 164.43 86.1994 164.503 86.4161 164.65C86.6361 164.797 86.8027 165.008 86.9161 165.285C87.0327 165.558 87.0911 165.882 87.0911 166.255C87.0911 166.628 87.0327 166.952 86.9161 167.225C86.7994 167.498 86.6311 167.708 86.4111 167.855C86.1944 168.002 85.9361 168.075 85.6361 168.075ZM85.6361 167.625C85.9327 167.625 86.1644 167.503 86.3311 167.26C86.5011 167.013 86.5861 166.68 86.5861 166.26C86.5861 165.84 86.5027 165.507 86.3361 165.26C86.1694 165.013 85.9361 164.89 85.6361 164.89C85.3361 164.89 85.1027 165.013 84.9361 165.26C84.7694 165.507 84.6861 165.84 84.6861 166.26C84.6861 166.68 84.7694 167.013 84.9361 167.26C85.1061 167.503 85.3394 167.625 85.6361 167.625Z" fill="#ACA350"/>
<rect x="12.25" y="143.25" width="125.5" height="46.5" stroke="#6C6C6C" stroke-width="0.5"/>
<path d="M13.47 28.97H12.375V27.8H13.47V26.435C13.47 25.605 13.735 24.965 14.265 24.515C14.795 24.065 15.455 23.84 16.245 23.84C16.645 23.84 17.035 23.9 17.415 24.02V25.25C17.135 25.14 16.845 25.085 16.545 25.085C16.035 25.085 15.645 25.21 15.375 25.46C15.115 25.7 14.985 26.055 14.985 26.525V27.8H19.845V35H18.33V28.97H14.985V35H13.47V28.97ZM19.08 26.39C18.82 26.39 18.605 26.305 18.435 26.135C18.265 25.965 18.18 25.755 18.18 25.505C18.18 25.255 18.265 25.045 18.435 24.875C18.615 24.705 18.83 24.62 19.08 24.62C19.33 24.62 19.54 24.705 19.71 24.875C19.89 25.045 19.98 25.255 19.98 25.505C19.98 25.755 19.89 25.965 19.71 26.135C19.54 26.305 19.33 26.39 19.08 26.39ZM27.5802 35.225C27.0802 35.225 26.5502 35.16 25.9902 35.03C25.4302 34.91 24.9902 34.745 24.6702 34.535V33.245C25.0602 33.475 25.5102 33.665 26.0202 33.815C26.5302 33.955 27.0252 34.025 27.5052 34.025C28.0452 34.025 28.4402 33.96 28.6902 33.83C28.9402 33.7 29.0652 33.49 29.0652 33.2C29.0652 32.98 29.0052 32.805 28.8852 32.675C28.7752 32.535 28.5802 32.41 28.3002 32.3C28.0302 32.19 27.6202 32.06 27.0702 31.91C26.4802 31.74 26.0102 31.57 25.6602 31.4C25.3202 31.22 25.0602 30.995 24.8802 30.725C24.7102 30.455 24.6252 30.105 24.6252 29.675C24.6252 28.985 24.8952 28.465 25.4352 28.115C25.9852 27.755 26.7202 27.575 27.6402 27.575C28.1202 27.575 28.5902 27.62 29.0502 27.71C29.5102 27.8 29.8802 27.925 30.1602 28.085V29.345C29.8702 29.175 29.5102 29.04 29.0802 28.94C28.6602 28.84 28.2302 28.79 27.7902 28.79C27.2602 28.79 26.8552 28.855 26.5752 28.985C26.2952 29.115 26.1552 29.345 26.1552 29.675C26.1552 29.885 26.2152 30.055 26.3352 30.185C26.4552 30.315 26.6452 30.43 26.9052 30.53C27.1752 30.62 27.6002 30.74 28.1802 30.89C29.0902 31.14 29.7202 31.435 30.0702 31.775C30.4302 32.115 30.6102 32.585 30.6102 33.185C30.6102 33.805 30.3552 34.3 29.8452 34.67C29.3352 35.04 28.5802 35.225 27.5802 35.225ZM35.2641 23.915H36.7791V28.79C37.4691 27.98 38.3891 27.575 39.5391 27.575C40.4991 27.575 41.2141 27.83 41.6841 28.34C42.1541 28.85 42.3891 29.535 42.3891 30.395V35H40.8741V30.545C40.8741 29.375 40.3141 28.79 39.1941 28.79C38.7141 28.79 38.2641 28.905 37.8441 29.135C37.4341 29.355 37.0791 29.695 36.7791 30.155V35H35.2641V23.915ZM58.465 35.225C57.965 35.225 57.435 35.16 56.875 35.03C56.315 34.91 55.875 34.745 55.555 34.535V33.245C55.945 33.475 56.395 33.665 56.905 33.815C57.415 33.955 57.91 34.025 58.39 34.025C58.93 34.025 59.325 33.96 59.575 33.83C59.825 33.7 59.95 33.49 59.95 33.2C59.95 32.98 59.89 32.805 59.77 32.675C59.66 32.535 59.465 32.41 59.185 32.3C58.915 32.19 58.505 32.06 57.955 31.91C57.365 31.74 56.895 31.57 56.545 31.4C56.205 31.22 55.945 30.995 55.765 30.725C55.595 30.455 55.51 30.105 55.51 29.675C55.51 28.985 55.78 28.465 56.32 28.115C56.87 27.755 57.605 27.575 58.525 27.575C59.005 27.575 59.475 27.62 59.935 27.71C60.395 27.8 60.765 27.925 61.045 28.085V29.345C60.755 29.175 60.395 29.04 59.965 28.94C59.545 28.84 59.115 28.79 58.675 28.79C58.145 28.79 57.74 28.855 57.46 28.985C57.18 29.115 57.04 29.345 57.04 29.675C57.04 29.885 57.1 30.055 57.22 30.185C57.34 30.315 57.53 30.43 57.79 30.53C58.06 30.62 58.485 30.74 59.065 30.89C59.975 31.14 60.605 31.435 60.955 31.775C61.315 32.115 61.495 32.585 61.495 33.185C61.495 33.805 61.24 34.3 60.73 34.67C60.22 35.04 59.465 35.225 58.465 35.225ZM68.7041 35.225C67.9741 35.225 67.4091 35.015 67.0091 34.595C66.6191 34.175 66.4241 33.58 66.4241 32.81V28.97H65.3291V27.8H66.4241V25.64H67.9541V27.8H69.7241V28.97H67.9541V32.705C67.9541 33.185 68.0441 33.525 68.2241 33.725C68.4141 33.925 68.7541 34.025 69.2441 34.025C69.5341 34.025 69.8241 33.96 70.1141 33.83V35.03C69.7341 35.16 69.2641 35.225 68.7041 35.225ZM75.4245 26.39C75.1745 26.39 74.9645 26.305 74.7945 26.135C74.6245 25.965 74.5395 25.755 74.5395 25.505C74.5395 25.255 74.6245 25.045 74.7945 24.875C74.9645 24.705 75.1745 24.62 75.4245 24.62C75.6845 24.62 75.8995 24.705 76.0695 24.875C76.2495 25.045 76.3395 25.255 76.3395 25.505C76.3395 25.755 76.2495 25.965 76.0695 26.135C75.8995 26.305 75.6845 26.39 75.4245 26.39ZM74.6595 27.8H76.2045V35H74.6595V27.8ZM85.0845 35.225C84.2845 35.225 83.5745 35.075 82.9545 34.775C82.3345 34.475 81.8495 34.04 81.4995 33.47C81.1595 32.89 80.9895 32.205 80.9895 31.415C80.9895 30.625 81.1595 29.945 81.4995 29.375C81.8495 28.795 82.3345 28.35 82.9545 28.04C83.5845 27.73 84.3045 27.575 85.1145 27.575C86.2145 27.575 87.0945 27.79 87.7545 28.22V29.465C87.1045 29.015 86.2745 28.79 85.2645 28.79C84.4445 28.79 83.7795 29.015 83.2695 29.465C82.7695 29.905 82.5195 30.555 82.5195 31.415C82.5195 32.275 82.7695 32.925 83.2695 33.365C83.7695 33.805 84.4245 34.025 85.2345 34.025C86.2445 34.025 87.1145 33.785 87.8445 33.305V34.535C87.4945 34.775 87.0945 34.95 86.6445 35.06C86.2045 35.17 85.6845 35.225 85.0845 35.225ZM92.4926 23.915H94.0076V35H92.4926V23.915ZM94.0226 31.355L97.3376 27.8H99.1826L95.8526 31.355L99.5276 35H97.6826L94.0226 31.355ZM106.16 35.225C105.66 35.225 105.13 35.16 104.57 35.03C104.01 34.91 103.57 34.745 103.25 34.535V33.245C103.64 33.475 104.09 33.665 104.6 33.815C105.11 33.955 105.605 34.025 106.085 34.025C106.625 34.025 107.02 33.96 107.27 33.83C107.52 33.7 107.645 33.49 107.645 33.2C107.645 32.98 107.585 32.805 107.465 32.675C107.355 32.535 107.16 32.41 106.88 32.3C106.61 32.19 106.2 32.06 105.65 31.91C105.06 31.74 104.59 31.57 104.24 31.4C103.9 31.22 103.64 30.995 103.46 30.725C103.29 30.455 103.205 30.105 103.205 29.675C103.205 28.985 103.475 28.465 104.015 28.115C104.565 27.755 105.3 27.575 106.22 27.575C106.7 27.575 107.17 27.62 107.63 27.71C108.09 27.8 108.46 27.925 108.74 28.085V29.345C108.45 29.175 108.09 29.04 107.66 28.94C107.24 28.84 106.81 28.79 106.37 28.79C105.84 28.79 105.435 28.855 105.155 28.985C104.875 29.115 104.735 29.345 104.735 29.675C104.735 29.885 104.795 30.055 104.915 30.185C105.035 30.315 105.225 30.43 105.485 30.53C105.755 30.62 106.18 30.74 106.76 30.89C107.67 31.14 108.3 31.435 108.65 31.775C109.01 32.115 109.19 32.585 109.19 33.185C109.19 33.805 108.935 34.3 108.425 34.67C107.915 35.04 107.16 35.225 106.16 35.225Z" fill="black"/>
<path d="M12.8691 19.0381L17.1807 17.1875V16.4746L12.8691 14.6289V15.5615L16.0283 16.7334L16.3213 16.8262L16.0283 16.9092L12.8691 18.1006V19.0381ZM20.875 19.0381L25.1865 17.1875V16.4746L20.875 14.6289V15.5615L24.0342 16.7334L24.3271 16.8262L24.0342 16.9092L20.875 18.1006V19.0381ZM38.2148 20H39.123V15.415H41.1592V14.7168H39.123V14.3457C39.123 14.1243 39.1507 13.9307 39.2061 13.7646C39.2646 13.5986 39.3493 13.4635 39.46 13.3594C39.5641 13.2585 39.6943 13.1836 39.8506 13.1348C40.0101 13.0827 40.1924 13.0566 40.3975 13.0566C40.5993 13.0566 40.7881 13.0745 40.9639 13.1104C41.1429 13.1429 41.2992 13.182 41.4326 13.2275L41.54 12.4805C41.4554 12.4577 41.3724 12.4382 41.291 12.4219C41.2096 12.4023 41.1283 12.3844 41.0469 12.3682C40.9232 12.3454 40.7979 12.3275 40.6709 12.3145C40.5439 12.2982 40.4154 12.29 40.2852 12.29C39.9727 12.29 39.6895 12.334 39.4355 12.4219C39.1816 12.5098 38.9652 12.64 38.7861 12.8125C38.6038 12.985 38.4622 13.1999 38.3613 13.457C38.2637 13.7109 38.2148 14.0072 38.2148 14.3457V14.7168H36.7598V15.415H38.2148V20ZM44.6191 17.3096V17.417C44.6191 17.7979 44.6745 18.151 44.7852 18.4766C44.8958 18.8021 45.0553 19.0853 45.2637 19.3262C45.4688 19.5671 45.7194 19.7559 46.0156 19.8926C46.3151 20.0293 46.652 20.0977 47.0264 20.0977C47.3975 20.0977 47.7311 20.0293 48.0273 19.8926C48.3236 19.7559 48.5758 19.5671 48.7842 19.3262C48.9893 19.0853 49.1471 18.8021 49.2578 18.4766C49.3685 18.151 49.4238 17.7979 49.4238 17.417V17.3096C49.4238 16.9287 49.3685 16.5755 49.2578 16.25C49.1471 15.9212 48.9893 15.6364 48.7842 15.3955C48.5758 15.1546 48.3219 14.9658 48.0225 14.8291C47.7262 14.6891 47.391 14.6191 47.0166 14.6191C46.6455 14.6191 46.3118 14.6891 46.0156 14.8291C45.7194 14.9658 45.4688 15.1546 45.2637 15.3955C45.0553 15.6364 44.8958 15.9212 44.7852 16.25C44.6745 16.5755 44.6191 16.9287 44.6191 17.3096ZM45.5225 17.417V17.3096C45.5225 17.0524 45.5534 16.8066 45.6152 16.5723C45.6771 16.3346 45.7715 16.1263 45.8984 15.9473C46.0221 15.7682 46.1768 15.6266 46.3623 15.5225C46.5479 15.415 46.766 15.3613 47.0166 15.3613C47.2673 15.3613 47.4854 15.415 47.6709 15.5225C47.8597 15.6266 48.0176 15.7682 48.1445 15.9473C48.2682 16.1263 48.361 16.3346 48.4229 16.5723C48.488 16.8066 48.5205 17.0524 48.5205 17.3096V17.417C48.5205 17.6774 48.4896 17.9264 48.4277 18.1641C48.3659 18.3984 48.2731 18.6051 48.1494 18.7842C48.0225 18.9632 47.8646 19.1048 47.6758 19.209C47.4902 19.3132 47.2738 19.3652 47.0264 19.3652C46.7757 19.3652 46.556 19.3132 46.3672 19.209C46.1784 19.1048 46.0221 18.9632 45.8984 18.7842C45.7715 18.6051 45.6771 18.3984 45.6152 18.1641C45.5534 17.9264 45.5225 17.6774 45.5225 17.417ZM52.625 17.3096V17.417C52.625 17.7979 52.6803 18.151 52.791 18.4766C52.9017 18.8021 53.0612 19.0853 53.2695 19.3262C53.4746 19.5671 53.7253 19.7559 54.0215 19.8926C54.321 20.0293 54.6579 20.0977 55.0322 20.0977C55.4033 20.0977 55.737 20.0293 56.0332 19.8926C56.3294 19.7559 56.5817 19.5671 56.79 19.3262C56.9951 19.0853 57.153 18.8021 57.2637 18.4766C57.3743 18.151 57.4297 17.7979 57.4297 17.417V17.3096C57.4297 16.9287 57.3743 16.5755 57.2637 16.25C57.153 15.9212 56.9951 15.6364 56.79 15.3955C56.5817 15.1546 56.3278 14.9658 56.0283 14.8291C55.7321 14.6891 55.3968 14.6191 55.0225 14.6191C54.6514 14.6191 54.3177 14.6891 54.0215 14.8291C53.7253 14.9658 53.4746 15.1546 53.2695 15.3955C53.0612 15.6364 52.9017 15.9212 52.791 16.25C52.6803 16.5755 52.625 16.9287 52.625 17.3096ZM53.5283 17.417V17.3096C53.5283 17.0524 53.5592 16.8066 53.6211 16.5723C53.6829 16.3346 53.7773 16.1263 53.9043 15.9473C54.028 15.7682 54.1826 15.6266 54.3682 15.5225C54.5537 15.415 54.7718 15.3613 55.0225 15.3613C55.2731 15.3613 55.4912 15.415 55.6768 15.5225C55.8656 15.6266 56.0234 15.7682 56.1504 15.9473C56.2741 16.1263 56.3669 16.3346 56.4287 16.5723C56.4938 16.8066 56.5264 17.0524 56.5264 17.3096V17.417C56.5264 17.6774 56.4954 17.9264 56.4336 18.1641C56.3717 18.3984 56.279 18.6051 56.1553 18.7842C56.0283 18.9632 55.8704 19.1048 55.6816 19.209C55.4961 19.3132 55.2796 19.3652 55.0322 19.3652C54.7816 19.3652 54.5618 19.3132 54.373 19.209C54.1842 19.1048 54.028 18.9632 53.9043 18.7842C53.7773 18.6051 53.6829 18.3984 53.6211 18.1641C53.5592 17.9264 53.5283 17.6774 53.5283 17.417ZM60.7139 17.3145V17.417C60.7139 17.7946 60.7643 18.1478 60.8652 18.4766C60.9661 18.8021 61.1077 19.0853 61.29 19.3262C61.4723 19.5671 61.6921 19.7559 61.9492 19.8926C62.2096 20.0293 62.4993 20.0977 62.8184 20.0977C63.1439 20.0977 63.4287 20.0423 63.6729 19.9316C63.917 19.821 64.127 19.6582 64.3027 19.4434L64.3418 20H65.1719V12.5H64.2686V15.2393C64.096 15.0374 63.891 14.8844 63.6533 14.7803C63.4189 14.6729 63.1439 14.6191 62.8281 14.6191C62.5059 14.6191 62.2145 14.6859 61.9541 14.8193C61.6937 14.9528 61.4723 15.1383 61.29 15.376C61.1045 15.6136 60.9613 15.8984 60.8604 16.2305C60.7627 16.5592 60.7139 16.9206 60.7139 17.3145ZM61.6172 17.417V17.3145C61.6172 17.0573 61.6449 16.8132 61.7002 16.582C61.7555 16.3477 61.8418 16.141 61.959 15.9619C62.0729 15.7861 62.2194 15.6462 62.3984 15.542C62.5807 15.4378 62.7988 15.3857 63.0527 15.3857C63.349 15.3857 63.5964 15.4557 63.7949 15.5957C63.9935 15.7324 64.1514 15.9082 64.2686 16.123V18.5742C64.1514 18.8053 63.9935 18.9893 63.7949 19.126C63.5964 19.2627 63.3457 19.3311 63.043 19.3311C62.7923 19.3311 62.5775 19.2806 62.3984 19.1797C62.2194 19.0755 62.0729 18.9355 61.959 18.7598C61.8418 18.584 61.7555 18.3805 61.7002 18.1494C61.6449 17.9183 61.6172 17.6742 61.6172 17.417Z" fill="#707070"/>
<path d="M131.21 17V16.2627H127.641L129.55 14.1924C129.729 13.9971 129.898 13.8018 130.058 13.6064C130.22 13.4079 130.364 13.2077 130.487 13.0059C130.608 12.804 130.704 12.6006 130.775 12.3955C130.847 12.1872 130.883 11.9772 130.883 11.7656C130.883 11.4824 130.832 11.2204 130.731 10.9795C130.634 10.7386 130.492 10.5303 130.307 10.3545C130.121 10.1787 129.893 10.042 129.623 9.94434C129.356 9.84342 129.055 9.79297 128.72 9.79297C128.355 9.79297 128.03 9.85156 127.743 9.96875C127.46 10.0859 127.221 10.2438 127.025 10.4424C126.827 10.641 126.675 10.8737 126.571 11.1406C126.467 11.4043 126.415 11.6859 126.415 11.9854H127.323C127.323 11.764 127.351 11.5638 127.406 11.3848C127.465 11.2057 127.553 11.0527 127.67 10.9258C127.784 10.8021 127.927 10.7061 128.1 10.6377C128.275 10.5693 128.482 10.5352 128.72 10.5352C128.915 10.5352 129.089 10.5693 129.242 10.6377C129.398 10.7028 129.532 10.7923 129.643 10.9062C129.75 11.0202 129.831 11.1553 129.887 11.3115C129.945 11.4645 129.975 11.6289 129.975 11.8047C129.975 11.9479 129.957 12.0879 129.921 12.2246C129.885 12.3581 129.825 12.4997 129.74 12.6494C129.656 12.8024 129.543 12.9684 129.403 13.1475C129.263 13.3265 129.089 13.5316 128.881 13.7627L126.552 16.3506V17H131.21ZM137.318 14.2803V12.6152C137.318 12.1628 137.266 11.7624 137.162 11.4141C137.058 11.0625 136.908 10.7663 136.713 10.5254C136.514 10.2845 136.272 10.1022 135.985 9.97852C135.702 9.85156 135.378 9.78809 135.014 9.78809C134.652 9.78809 134.328 9.85156 134.042 9.97852C133.759 10.1022 133.52 10.2845 133.324 10.5254C133.126 10.7663 132.974 11.0625 132.87 11.4141C132.766 11.7624 132.714 12.1628 132.714 12.6152V14.2803C132.714 14.7327 132.766 15.1348 132.87 15.4863C132.974 15.8346 133.126 16.1276 133.324 16.3652C133.523 16.6094 133.765 16.7933 134.052 16.917C134.338 17.0374 134.662 17.0977 135.023 17.0977C135.388 17.0977 135.712 17.0358 135.995 16.9121C136.278 16.7884 136.518 16.6061 136.713 16.3652C136.908 16.1276 137.058 15.8346 137.162 15.4863C137.266 15.1348 137.318 14.7327 137.318 14.2803ZM133.622 14.0996C133.622 14.015 133.622 13.932 133.622 13.8506C133.622 13.7692 133.622 13.6878 133.622 13.6064V12.415C133.622 12.083 133.655 11.7917 133.72 11.541C133.788 11.2871 133.891 11.0804 134.027 10.9209C134.141 10.7939 134.28 10.6979 134.442 10.6328C134.608 10.5645 134.799 10.5303 135.014 10.5303C135.225 10.5303 135.411 10.5612 135.57 10.623C135.733 10.6849 135.87 10.7777 135.98 10.9014C136.094 11.0218 136.184 11.1732 136.249 11.3555C136.317 11.5345 136.365 11.7412 136.391 11.9756L133.622 14.0996ZM136.41 14.4707C136.41 14.819 136.374 15.1217 136.303 15.3789C136.234 15.6361 136.125 15.8444 135.976 16.0039C135.865 16.1211 135.73 16.2106 135.57 16.2725C135.411 16.3343 135.229 16.3652 135.023 16.3652C134.828 16.3652 134.652 16.3376 134.496 16.2822C134.34 16.2236 134.206 16.139 134.096 16.0283C133.975 15.9111 133.878 15.763 133.803 15.584C133.728 15.4017 133.676 15.1917 133.646 14.9541L136.41 12.8398C136.41 12.931 136.41 13.0465 136.41 13.1865C136.41 13.3232 136.41 13.416 136.41 13.4648V14.4707Z" fill="#877900"/>
<path d="M120.101 17.1268L120.894 16.5628L119.33 15.1133L122.689 10.9714L122.405 9.08467L120.716 9.14382L117.63 13.5379L115.93 11.9624L115.71 12.8421L117.479 14.4806L114.925 17.7441L116.081 18.8155L118.499 15.4258L120.101 17.1268Z" fill="#FFEC44"/>
<path d="M94.4825 80.1561L110.215 110.18L102.21 115.438L89.3925 114.887L72.9325 89.8256L54.6849 55.9733L68.6081 46.8289L94.4825 80.1561Z" fill="#DB9F4D"/>
<path d="M80.7098 81.4081L54.5021 59.9119L47.7293 66.6847L45.6681 79.3468L66.8698 100.549L96.3166 125.284L108.095 113.505L80.7098 81.4081Z" fill="#DA681A"/>
<path d="M58.306 110.879L84.4966 132.396L91.2748 125.629L93.3461 112.968L72.1613 91.7496L42.7341 66.9909L36.2511 72.2866L33.3018 78.7602L58.306 110.879Z" fill="#B87035"/>
<path d="M77.8291 72.372L110.184 82.4769L108.241 91.8559L98.7887 100.53L69.4283 94.4475L32.5881 83.4133L35.9672 67.102L77.8291 72.372Z" fill="#E5AA58"/>
<path d="M68.9756 82.996L35.2439 86.3276V95.9057L42.7398 106.317H72.7236L111.036 102.985V86.3276L68.9756 82.996Z" fill="#DA681A"/>
<path d="M77.7209 91.7413H73.9729V94.6564L77.7209 91.7413Z" fill="#A1C35D"/>
<path d="M49.7782 75.1039H53.5262V78.019L49.7782 75.1039Z" fill="#A1C35D"/>
<path d="M56.4824 90.0756H60.2303V92.9906L56.4824 90.0756Z" fill="#A1C35D"/>
<path d="M83.1346 89.2427H86.8826V92.1578L83.1346 89.2427Z" fill="#A1C35D"/>
<path d="M68.1016 76.7698H71.8496V79.6849L68.1016 76.7698Z" fill="#A1C35D"/>
<path d="M73.9729 119.677L107.707 116.372L107.715 106.794L100.227 96.3771L70.2435 96.3533L31.9283 99.6543L31.0888 107.983L33.5808 114.646L73.9729 119.677Z" fill="#CA6919"/>
<path d="M73.14 105.9H76.8879V108.815L73.14 105.9Z" fill="#A1C35D"/>
<path d="M59.8139 107.982H63.5619V105.067L59.8139 107.982Z" fill="#A1C35D"/>
</svg>
