<svg width="150" height="200" viewBox="0 0 150 200" fill="none" xmlns="http://www.w3.org/2000/svg">
<rect width="150" height="200" fill="white"/>
<path d="M17.325 148.505H17.84V152H17.325V148.505ZM20.167 152.075C19.9237 152.075 19.7353 152.005 19.602 151.865C19.472 151.725 19.407 151.527 19.407 151.27V149.99H19.042V149.6H19.407V148.88H19.917V149.6H20.507V149.99H19.917V151.235C19.917 151.395 19.947 151.508 20.007 151.575C20.0703 151.642 20.1837 151.675 20.347 151.675C20.4437 151.675 20.5403 151.653 20.637 151.61V152.01C20.5103 152.053 20.3537 152.075 20.167 152.075ZM25.6227 152.075C25.3827 152.075 25.166 152.023 24.9727 151.92C24.7827 151.813 24.6327 151.665 24.5227 151.475C24.416 151.282 24.3627 151.058 24.3627 150.805C24.3627 150.555 24.416 150.333 24.5227 150.14C24.6327 149.947 24.7827 149.797 24.9727 149.69C25.166 149.58 25.3827 149.525 25.6227 149.525C26.056 149.525 26.3844 149.657 26.6077 149.92V148.305H27.1127V152H26.6227V151.65C26.4894 151.797 26.3427 151.905 26.1827 151.975C26.026 152.042 25.8394 152.075 25.6227 152.075ZM25.7377 151.675C25.9444 151.675 26.1244 151.622 26.2777 151.515C26.4344 151.405 26.5444 151.258 26.6077 151.075V150.535C26.551 150.352 26.4427 150.205 26.2827 150.095C26.126 149.985 25.9444 149.93 25.7377 149.93C25.5744 149.93 25.426 149.967 25.2927 150.04C25.1627 150.113 25.0594 150.217 24.9827 150.35C24.9094 150.483 24.8727 150.635 24.8727 150.805C24.8727 150.975 24.9094 151.127 24.9827 151.26C25.0594 151.393 25.1627 151.497 25.2927 151.57C25.426 151.64 25.5744 151.675 25.7377 151.675ZM29.8335 152.075C29.3901 152.075 29.0418 151.965 28.7885 151.745C28.5385 151.522 28.4135 151.208 28.4135 150.805C28.4135 150.412 28.5251 150.1 28.7485 149.87C28.9751 149.64 29.2968 149.525 29.7135 149.525C29.9901 149.525 30.2251 149.578 30.4185 149.685C30.6118 149.788 30.7568 149.933 30.8535 150.12C30.9535 150.303 31.0035 150.513 31.0035 150.75V151H28.8935C28.9101 151.227 29.0051 151.397 29.1785 151.51C29.3551 151.62 29.5935 151.675 29.8935 151.675C30.0468 151.675 30.2018 151.662 30.3585 151.635C30.5151 151.605 30.6535 151.567 30.7735 151.52V151.925C30.6668 151.968 30.5251 152.003 30.3485 152.03C30.1751 152.06 30.0035 152.075 29.8335 152.075ZM30.5285 150.645C30.5218 150.418 30.4468 150.243 30.3035 150.12C30.1635 149.993 29.9635 149.93 29.7035 149.93C29.4501 149.93 29.2535 149.995 29.1135 150.125C28.9735 150.255 28.9001 150.428 28.8935 150.645H30.5285ZM33.5705 152.075C33.3038 152.075 33.0671 152.025 32.8605 151.925C32.6538 151.825 32.4921 151.68 32.3755 151.49C32.2621 151.297 32.2055 151.068 32.2055 150.805C32.2055 150.542 32.2621 150.315 32.3755 150.125C32.4921 149.932 32.6538 149.783 32.8605 149.68C33.0705 149.577 33.3105 149.525 33.5805 149.525C33.9471 149.525 34.2405 149.597 34.4605 149.74V150.155C34.2438 150.005 33.9671 149.93 33.6305 149.93C33.3571 149.93 33.1355 150.005 32.9655 150.155C32.7988 150.302 32.7155 150.518 32.7155 150.805C32.7155 151.092 32.7988 151.308 32.9655 151.455C33.1321 151.602 33.3505 151.675 33.6205 151.675C33.9571 151.675 34.2471 151.595 34.4905 151.435V151.845C34.3738 151.925 34.2405 151.983 34.0905 152.02C33.9438 152.057 33.7705 152.075 33.5705 152.075ZM35.7898 149.6H36.2798V150.03C36.3798 149.883 36.5198 149.775 36.6998 149.705C36.8832 149.635 37.0948 149.6 37.3348 149.6V149.995C37.0782 149.995 36.8582 150.037 36.6748 150.12C36.4915 150.203 36.3648 150.335 36.2948 150.515V152H35.7898V149.6ZM39.7055 152.075C39.2622 152.075 38.9139 151.965 38.6605 151.745C38.4105 151.522 38.2855 151.208 38.2855 150.805C38.2855 150.412 38.3972 150.1 38.6205 149.87C38.8472 149.64 39.1689 149.525 39.5855 149.525C39.8622 149.525 40.0972 149.578 40.2905 149.685C40.4839 149.788 40.6289 149.933 40.7255 150.12C40.8255 150.303 40.8755 150.513 40.8755 150.75V151H38.7655C38.7822 151.227 38.8772 151.397 39.0505 151.51C39.2272 151.62 39.4655 151.675 39.7655 151.675C39.9189 151.675 40.0739 151.662 40.2305 151.635C40.3872 151.605 40.5255 151.567 40.6455 151.52V151.925C40.5389 151.968 40.3972 152.003 40.2205 152.03C40.0472 152.06 39.8755 152.075 39.7055 152.075ZM40.4005 150.645C40.3939 150.418 40.3189 150.243 40.1755 150.12C40.0355 149.993 39.8355 149.93 39.5755 149.93C39.3222 149.93 39.1255 149.995 38.9855 150.125C38.8455 150.255 38.7722 150.428 38.7655 150.645H40.4005ZM43.0375 152.075C42.7475 152.075 42.5142 152.002 42.3375 151.855C42.1642 151.705 42.0775 151.503 42.0775 151.25C42.0775 150.983 42.1609 150.778 42.3275 150.635C42.4975 150.488 42.7375 150.415 43.0475 150.415C43.3775 150.415 43.6575 150.482 43.8875 150.615V150.49C43.8875 150.3 43.8292 150.16 43.7125 150.07C43.5992 149.977 43.4192 149.93 43.1725 149.93C43.0259 149.93 42.8825 149.945 42.7425 149.975C42.6059 150.002 42.4825 150.04 42.3725 150.09V149.68C42.4725 149.633 42.6025 149.597 42.7625 149.57C42.9225 149.54 43.0775 149.525 43.2275 149.525C43.6242 149.525 43.9175 149.613 44.1075 149.79C44.3009 149.963 44.3975 150.205 44.3975 150.515V152H43.9225V151.73C43.8192 151.843 43.6959 151.93 43.5525 151.99C43.4125 152.047 43.2409 152.075 43.0375 152.075ZM43.1625 151.69C43.3225 151.69 43.4675 151.658 43.5975 151.595C43.7275 151.532 43.8242 151.443 43.8875 151.33V151.005C43.6709 150.865 43.4292 150.795 43.1625 150.795C42.9692 150.795 42.8242 150.833 42.7275 150.91C42.6342 150.983 42.5875 151.097 42.5875 151.25C42.5875 151.543 42.7792 151.69 43.1625 151.69ZM46.586 152.075C46.4193 152.075 46.2426 152.053 46.056 152.01C45.8693 151.97 45.7226 151.915 45.616 151.845V151.415C45.746 151.492 45.896 151.555 46.066 151.605C46.236 151.652 46.401 151.675 46.561 151.675C46.741 151.675 46.8726 151.653 46.956 151.61C47.0393 151.567 47.081 151.497 47.081 151.4C47.081 151.327 47.061 151.268 47.021 151.225C46.9843 151.178 46.9193 151.137 46.826 151.1C46.736 151.063 46.5993 151.02 46.416 150.97C46.2193 150.913 46.0626 150.857 45.946 150.8C45.8326 150.74 45.746 150.665 45.686 150.575C45.6293 150.485 45.601 150.368 45.601 150.225C45.601 149.995 45.691 149.822 45.871 149.705C46.0543 149.585 46.2993 149.525 46.606 149.525C46.766 149.525 46.9226 149.54 47.076 149.57C47.2293 149.6 47.3526 149.642 47.446 149.695V150.115C47.3493 150.058 47.2293 150.013 47.086 149.98C46.946 149.947 46.8026 149.93 46.656 149.93C46.4793 149.93 46.3443 149.952 46.251 149.995C46.1576 150.038 46.111 150.115 46.111 150.225C46.111 150.295 46.131 150.352 46.171 150.395C46.211 150.438 46.2743 150.477 46.361 150.51C46.451 150.54 46.5926 150.58 46.786 150.63C47.0893 150.713 47.2993 150.812 47.416 150.925C47.536 151.038 47.596 151.195 47.596 151.395C47.596 151.602 47.511 151.767 47.341 151.89C47.171 152.013 46.9193 152.075 46.586 152.075ZM50.2173 152.075C49.7739 152.075 49.4256 151.965 49.1723 151.745C48.9223 151.522 48.7973 151.208 48.7973 150.805C48.7973 150.412 48.9089 150.1 49.1323 149.87C49.3589 149.64 49.6806 149.525 50.0973 149.525C50.3739 149.525 50.6089 149.578 50.8023 149.685C50.9956 149.788 51.1406 149.933 51.2373 150.12C51.3373 150.303 51.3873 150.513 51.3873 150.75V151H49.2773C49.2939 151.227 49.3889 151.397 49.5623 151.51C49.7389 151.62 49.9773 151.675 50.2773 151.675C50.4306 151.675 50.5856 151.662 50.7423 151.635C50.8989 151.605 51.0373 151.567 51.1573 151.52V151.925C51.0506 151.968 50.9089 152.003 50.7323 152.03C50.5589 152.06 50.3873 152.075 50.2173 152.075ZM50.9123 150.645C50.9056 150.418 50.8306 150.243 50.6873 150.12C50.5473 149.993 50.3473 149.93 50.0873 149.93C49.8339 149.93 49.6373 149.995 49.4973 150.125C49.3573 150.255 49.2839 150.428 49.2773 150.645H50.9123ZM53.5743 152.075C53.4076 152.075 53.2309 152.053 53.0443 152.01C52.8576 151.97 52.7109 151.915 52.6043 151.845V151.415C52.7343 151.492 52.8843 151.555 53.0543 151.605C53.2243 151.652 53.3893 151.675 53.5493 151.675C53.7293 151.675 53.8609 151.653 53.9443 151.61C54.0276 151.567 54.0693 151.497 54.0693 151.4C54.0693 151.327 54.0493 151.268 54.0093 151.225C53.9726 151.178 53.9076 151.137 53.8143 151.1C53.7243 151.063 53.5876 151.02 53.4043 150.97C53.2076 150.913 53.0509 150.857 52.9343 150.8C52.8209 150.74 52.7343 150.665 52.6743 150.575C52.6176 150.485 52.5893 150.368 52.5893 150.225C52.5893 149.995 52.6793 149.822 52.8593 149.705C53.0426 149.585 53.2876 149.525 53.5943 149.525C53.7543 149.525 53.9109 149.54 54.0643 149.57C54.2176 149.6 54.3409 149.642 54.4343 149.695V150.115C54.3376 150.058 54.2176 150.013 54.0743 149.98C53.9343 149.947 53.7909 149.93 53.6443 149.93C53.4676 149.93 53.3326 149.952 53.2393 149.995C53.1459 150.038 53.0993 150.115 53.0993 150.225C53.0993 150.295 53.1193 150.352 53.1593 150.395C53.1993 150.438 53.2626 150.477 53.3493 150.51C53.4393 150.54 53.5809 150.58 53.7743 150.63C54.0776 150.713 54.2876 150.812 54.4043 150.925C54.5243 151.038 54.5843 151.195 54.5843 151.395C54.5843 151.602 54.4993 151.767 54.3293 151.89C54.1593 152.013 53.9076 152.075 53.5743 152.075ZM58.9961 152.99C58.8161 152.99 58.6661 152.972 58.5461 152.935V152.54C58.6328 152.573 58.7395 152.59 58.8661 152.59C58.9828 152.59 59.0745 152.56 59.1411 152.5C59.2078 152.443 59.2678 152.35 59.3211 152.22L59.4361 151.94L58.3861 149.6H58.9061L59.7061 151.445L60.4511 149.6H60.9711L59.8911 152.27C59.7911 152.52 59.6711 152.702 59.5311 152.815C59.3945 152.932 59.2161 152.99 58.9961 152.99ZM63.1086 152.075C62.8386 152.075 62.6002 152.025 62.3936 151.925C62.1902 151.822 62.0302 151.675 61.9136 151.485C61.8002 151.292 61.7436 151.065 61.7436 150.805C61.7436 150.548 61.8002 150.323 61.9136 150.13C62.0269 149.937 62.1869 149.788 62.3936 149.685C62.6002 149.578 62.8386 149.525 63.1086 149.525C63.3786 149.525 63.6169 149.578 63.8236 149.685C64.0302 149.788 64.1902 149.937 64.3036 150.13C64.4202 150.323 64.4786 150.548 64.4786 150.805C64.4786 151.065 64.4202 151.292 64.3036 151.485C64.1902 151.675 64.0302 151.822 63.8236 151.925C63.6169 152.025 63.3786 152.075 63.1086 152.075ZM63.1086 151.675C63.3686 151.675 63.5752 151.595 63.7286 151.435C63.8819 151.275 63.9586 151.065 63.9586 150.805C63.9586 150.535 63.8819 150.322 63.7286 150.165C63.5752 150.008 63.3686 149.93 63.1086 149.93C62.8486 149.93 62.6419 150.008 62.4886 150.165C62.3352 150.322 62.2586 150.535 62.2586 150.805C62.2586 151.065 62.3352 151.275 62.4886 151.435C62.6419 151.595 62.8486 151.675 63.1086 151.675ZM66.7321 152.075C66.4088 152.075 66.1638 151.988 65.9971 151.815C65.8338 151.642 65.7521 151.41 65.7521 151.12V149.6H66.2571V151.1C66.2571 151.483 66.4488 151.675 66.8321 151.675C67.1688 151.675 67.4321 151.523 67.6221 151.22V149.6H68.1271V152H67.6371V151.66C67.5238 151.803 67.3888 151.908 67.2321 151.975C67.0788 152.042 66.9121 152.075 66.7321 152.075ZM69.5252 149.6H70.0152V150.03C70.1152 149.883 70.2552 149.775 70.4352 149.705C70.6185 149.635 70.8302 149.6 71.0702 149.6V149.995C70.8135 149.995 70.5935 150.037 70.4102 150.12C70.2269 150.203 70.1002 150.335 70.0302 150.515V152H69.5252V149.6ZM75.7329 152.075C75.4429 152.075 75.2095 152.002 75.0329 151.855C74.8595 151.705 74.7729 151.503 74.7729 151.25C74.7729 150.983 74.8562 150.778 75.0229 150.635C75.1929 150.488 75.4329 150.415 75.7429 150.415C76.0729 150.415 76.3529 150.482 76.5829 150.615V150.49C76.5829 150.3 76.5245 150.16 76.4079 150.07C76.2945 149.977 76.1145 149.93 75.8679 149.93C75.7212 149.93 75.5779 149.945 75.4379 149.975C75.3012 150.002 75.1779 150.04 75.0679 150.09V149.68C75.1679 149.633 75.2979 149.597 75.4579 149.57C75.6179 149.54 75.7729 149.525 75.9229 149.525C76.3195 149.525 76.6129 149.613 76.8029 149.79C76.9962 149.963 77.0929 150.205 77.0929 150.515V152H76.6179V151.73C76.5145 151.843 76.3912 151.93 76.2479 151.99C76.1079 152.047 75.9362 152.075 75.7329 152.075ZM75.8579 151.69C76.0179 151.69 76.1629 151.658 76.2929 151.595C76.4229 151.532 76.5195 151.443 76.5829 151.33V151.005C76.3662 150.865 76.1245 150.795 75.8579 150.795C75.6645 150.795 75.5195 150.833 75.4229 150.91C75.3295 150.983 75.2829 151.097 75.2829 151.25C75.2829 151.543 75.4745 151.69 75.8579 151.69ZM79.2676 152.075C79.0242 152.075 78.8359 152.005 78.7026 151.865C78.5726 151.725 78.5076 151.527 78.5076 151.27V149.99H78.1426V149.6H78.5076V148.88H79.0176V149.6H79.6076V149.99H79.0176V151.235C79.0176 151.395 79.0476 151.508 79.1076 151.575C79.1709 151.642 79.2842 151.675 79.4476 151.675C79.5442 151.675 79.6409 151.653 79.7376 151.61V152.01C79.6109 152.053 79.4542 152.075 79.2676 152.075ZM81.7607 152.075C81.5174 152.075 81.3291 152.005 81.1957 151.865C81.0657 151.725 81.0007 151.527 81.0007 151.27V149.99H80.6357V149.6H81.0007V148.88H81.5107V149.6H82.1007V149.99H81.5107V151.235C81.5107 151.395 81.5407 151.508 81.6007 151.575C81.6641 151.642 81.7774 151.675 81.9407 151.675C82.0374 151.675 82.1341 151.653 82.2307 151.61V152.01C82.1041 152.053 81.9474 152.075 81.7607 152.075ZM84.2426 152.075C83.9526 152.075 83.7193 152.002 83.5426 151.855C83.3693 151.705 83.2826 151.503 83.2826 151.25C83.2826 150.983 83.366 150.778 83.5326 150.635C83.7026 150.488 83.9426 150.415 84.2526 150.415C84.5826 150.415 84.8626 150.482 85.0926 150.615V150.49C85.0926 150.3 85.0343 150.16 84.9176 150.07C84.8043 149.977 84.6243 149.93 84.3776 149.93C84.231 149.93 84.0876 149.945 83.9476 149.975C83.811 150.002 83.6876 150.04 83.5776 150.09V149.68C83.6776 149.633 83.8076 149.597 83.9676 149.57C84.1276 149.54 84.2826 149.525 84.4326 149.525C84.8293 149.525 85.1226 149.613 85.3126 149.79C85.506 149.963 85.6026 150.205 85.6026 150.515V152H85.1276V151.73C85.0243 151.843 84.901 151.93 84.7576 151.99C84.6176 152.047 84.446 152.075 84.2426 152.075ZM84.3676 151.69C84.5276 151.69 84.6726 151.658 84.8026 151.595C84.9326 151.532 85.0293 151.443 85.0926 151.33V151.005C84.876 150.865 84.6343 150.795 84.3676 150.795C84.1743 150.795 84.0293 150.833 83.9326 150.91C83.8393 150.983 83.7926 151.097 83.7926 151.25C83.7926 151.543 83.9843 151.69 84.3676 151.69ZM88.1466 152.075C87.88 152.075 87.6433 152.025 87.4366 151.925C87.23 151.825 87.0683 151.68 86.9516 151.49C86.8383 151.297 86.7816 151.068 86.7816 150.805C86.7816 150.542 86.8383 150.315 86.9516 150.125C87.0683 149.932 87.23 149.783 87.4366 149.68C87.6466 149.577 87.8866 149.525 88.1566 149.525C88.5233 149.525 88.8166 149.597 89.0366 149.74V150.155C88.82 150.005 88.5433 149.93 88.2066 149.93C87.9333 149.93 87.7116 150.005 87.5416 150.155C87.375 150.302 87.2916 150.518 87.2916 150.805C87.2916 151.092 87.375 151.308 87.5416 151.455C87.7083 151.602 87.9266 151.675 88.1966 151.675C88.5333 151.675 88.8233 151.595 89.0666 151.435V151.845C88.95 151.925 88.8166 151.983 88.6666 152.02C88.52 152.057 88.3466 152.075 88.1466 152.075ZM90.366 148.305H90.871V152H90.366V148.305ZM90.876 150.785L91.981 149.6H92.596L91.486 150.785L92.711 152H92.096L90.876 150.785ZM96.7283 149.99H96.3633V149.6H96.7283V149.13C96.7283 148.853 96.8066 148.643 96.9633 148.5C97.1199 148.353 97.3299 148.28 97.5933 148.28C97.7299 148.28 97.8583 148.3 97.9783 148.34V148.76C97.8849 148.717 97.7883 148.695 97.6883 148.695C97.5316 148.695 97.4166 148.733 97.3433 148.81C97.2699 148.883 97.2333 149 97.2333 149.16V149.6H97.8333V149.99H97.2333V152H96.7283V149.99ZM100.165 152.075C99.8952 152.075 99.6569 152.025 99.4502 151.925C99.2469 151.822 99.0869 151.675 98.9702 151.485C98.8569 151.292 98.8002 151.065 98.8002 150.805C98.8002 150.548 98.8569 150.323 98.9702 150.13C99.0835 149.937 99.2435 149.788 99.4502 149.685C99.6569 149.578 99.8952 149.525 100.165 149.525C100.435 149.525 100.674 149.578 100.88 149.685C101.087 149.788 101.247 149.937 101.36 150.13C101.477 150.323 101.535 150.548 101.535 150.805C101.535 151.065 101.477 151.292 101.36 151.485C101.247 151.675 101.087 151.822 100.88 151.925C100.674 152.025 100.435 152.075 100.165 152.075ZM100.165 151.675C100.425 151.675 100.632 151.595 100.785 151.435C100.939 151.275 101.015 151.065 101.015 150.805C101.015 150.535 100.939 150.322 100.785 150.165C100.632 150.008 100.425 149.93 100.165 149.93C99.9052 149.93 99.6985 150.008 99.5452 150.165C99.3919 150.322 99.3152 150.535 99.3152 150.805C99.3152 151.065 99.3919 151.275 99.5452 151.435C99.6985 151.595 99.9052 151.675 100.165 151.675ZM102.834 149.6H103.324V150.03C103.424 149.883 103.564 149.775 103.744 149.705C103.927 149.635 104.139 149.6 104.379 149.6V149.995C104.122 149.995 103.902 150.037 103.719 150.12C103.535 150.203 103.409 150.335 103.339 150.515V152H102.834V149.6ZM109.446 152.075C109.176 152.075 108.938 152.025 108.731 151.925C108.528 151.822 108.368 151.675 108.251 151.485C108.138 151.292 108.081 151.065 108.081 150.805C108.081 150.548 108.138 150.323 108.251 150.13C108.365 149.937 108.525 149.788 108.731 149.685C108.938 149.578 109.176 149.525 109.446 149.525C109.716 149.525 109.955 149.578 110.161 149.685C110.368 149.788 110.528 149.937 110.641 150.13C110.758 150.323 110.816 150.548 110.816 150.805C110.816 151.065 110.758 151.292 110.641 151.485C110.528 151.675 110.368 151.822 110.161 151.925C109.955 152.025 109.716 152.075 109.446 152.075ZM109.446 151.675C109.706 151.675 109.913 151.595 110.066 151.435C110.22 151.275 110.296 151.065 110.296 150.805C110.296 150.535 110.22 150.322 110.066 150.165C109.913 150.008 109.706 149.93 109.446 149.93C109.186 149.93 108.98 150.008 108.826 150.165C108.673 150.322 108.596 150.535 108.596 150.805C108.596 151.065 108.673 151.275 108.826 151.435C108.98 151.595 109.186 151.675 109.446 151.675ZM112.115 149.6H112.605V149.945C112.718 149.802 112.857 149.697 113.02 149.63C113.187 149.56 113.36 149.525 113.54 149.525C113.86 149.525 114.098 149.61 114.255 149.78C114.412 149.95 114.49 150.178 114.49 150.465V152H113.985V150.515C113.985 150.125 113.798 149.93 113.425 149.93C113.265 149.93 113.115 149.968 112.975 150.045C112.838 150.118 112.72 150.232 112.62 150.385V152H112.115V149.6ZM117.183 152.075C116.74 152.075 116.391 151.965 116.138 151.745C115.888 151.522 115.763 151.208 115.763 150.805C115.763 150.412 115.875 150.1 116.098 149.87C116.325 149.64 116.646 149.525 117.063 149.525C117.34 149.525 117.575 149.578 117.768 149.685C117.961 149.788 118.106 149.933 118.203 150.12C118.303 150.303 118.353 150.513 118.353 150.75V151H116.243C116.26 151.227 116.355 151.397 116.528 151.51C116.705 151.62 116.943 151.675 117.243 151.675C117.396 151.675 117.551 151.662 117.708 151.635C117.865 151.605 118.003 151.567 118.123 151.52V151.925C118.016 151.968 117.875 152.003 117.698 152.03C117.525 152.06 117.353 152.075 117.183 152.075ZM117.878 150.645C117.871 150.418 117.796 150.243 117.653 150.12C117.513 149.993 117.313 149.93 117.053 149.93C116.8 149.93 116.603 149.995 116.463 150.125C116.323 150.255 116.25 150.428 116.243 150.645H117.878ZM18.25 160.075C18.0067 160.075 17.8183 160.005 17.685 159.865C17.555 159.725 17.49 159.527 17.49 159.27V157.99H17.125V157.6H17.49V156.88H18V157.6H18.59V157.99H18V159.235C18 159.395 18.03 159.508 18.09 159.575C18.1533 159.642 18.2667 159.675 18.43 159.675C18.5267 159.675 18.6233 159.653 18.72 159.61V160.01C18.5933 160.053 18.4367 160.075 18.25 160.075ZM20.8757 160.075C20.5524 160.075 20.3074 159.988 20.1407 159.815C19.9774 159.642 19.8957 159.41 19.8957 159.12V157.6H20.4007V159.1C20.4007 159.483 20.5924 159.675 20.9757 159.675C21.3124 159.675 21.5757 159.523 21.7657 159.22V157.6H22.2707V160H21.7807V159.66C21.6674 159.803 21.5324 159.908 21.3757 159.975C21.2224 160.042 21.0557 160.075 20.8757 160.075ZM23.6688 157.6H24.1588V158.03C24.2588 157.883 24.3988 157.775 24.5788 157.705C24.7621 157.635 24.9738 157.6 25.2138 157.6V157.995C24.9571 157.995 24.7371 158.037 24.5538 158.12C24.3704 158.203 24.2438 158.335 24.1738 158.515V160H23.6688V157.6ZM26.4158 157.6H26.9058V157.945C27.0192 157.802 27.1575 157.697 27.3208 157.63C27.4875 157.56 27.6608 157.525 27.8408 157.525C28.1608 157.525 28.3992 157.61 28.5558 157.78C28.7125 157.95 28.7908 158.178 28.7908 158.465V160H28.2858V158.515C28.2858 158.125 28.0992 157.93 27.7258 157.93C27.5658 157.93 27.4158 157.968 27.2758 158.045C27.1392 158.118 27.0208 158.232 26.9208 158.385V160H26.4158V157.6ZM30.4689 159.735H30.9989L30.5239 160.74H30.0639L30.4689 159.735ZM36.3912 160.075C36.1745 160.075 35.9862 160.042 35.8262 159.975C35.6695 159.905 35.5245 159.797 35.3912 159.65V160H34.9012V156.305H35.4062V157.92C35.5162 157.79 35.6578 157.692 35.8312 157.625C36.0045 157.558 36.1912 157.525 36.3912 157.525C36.6312 157.525 36.8462 157.58 37.0362 157.69C37.2295 157.797 37.3795 157.947 37.4862 158.14C37.5962 158.333 37.6512 158.555 37.6512 158.805C37.6512 159.058 37.5962 159.282 37.4862 159.475C37.3795 159.665 37.2295 159.813 37.0362 159.92C36.8462 160.023 36.6312 160.075 36.3912 160.075ZM36.2762 159.675C36.4395 159.675 36.5862 159.64 36.7162 159.57C36.8495 159.497 36.9528 159.393 37.0262 159.26C37.1028 159.127 37.1412 158.975 37.1412 158.805C37.1412 158.635 37.1028 158.483 37.0262 158.35C36.9528 158.217 36.8495 158.113 36.7162 158.04C36.5862 157.967 36.4395 157.93 36.2762 157.93C36.0728 157.93 35.8912 157.985 35.7312 158.095C35.5712 158.205 35.4628 158.352 35.4062 158.535V159.075C35.4695 159.258 35.5778 159.405 35.7312 159.515C35.8878 159.622 36.0695 159.675 36.2762 159.675ZM39.78 160.075C39.4567 160.075 39.2117 159.988 39.045 159.815C38.8817 159.642 38.8 159.41 38.8 159.12V157.6H39.305V159.1C39.305 159.483 39.4967 159.675 39.88 159.675C40.2167 159.675 40.48 159.523 40.67 159.22V157.6H41.175V160H40.685V159.66C40.5717 159.803 40.4367 159.908 40.28 159.975C40.1267 160.042 39.96 160.075 39.78 160.075ZM43.498 160.075C43.2547 160.075 43.0664 160.005 42.933 159.865C42.803 159.725 42.738 159.527 42.738 159.27V157.99H42.373V157.6H42.738V156.88H43.248V157.6H43.838V157.99H43.248V159.235C43.248 159.395 43.278 159.508 43.338 159.575C43.4014 159.642 43.5147 159.675 43.678 159.675C43.7747 159.675 43.8714 159.653 43.968 159.61V160.01C43.8414 160.053 43.6847 160.075 43.498 160.075ZM48.6538 160.075C48.3638 160.075 48.1304 160.002 47.9538 159.855C47.7804 159.705 47.6938 159.503 47.6938 159.25C47.6938 158.983 47.7771 158.778 47.9438 158.635C48.1138 158.488 48.3538 158.415 48.6638 158.415C48.9938 158.415 49.2738 158.482 49.5038 158.615V158.49C49.5038 158.3 49.4454 158.16 49.3288 158.07C49.2154 157.977 49.0354 157.93 48.7887 157.93C48.6421 157.93 48.4988 157.945 48.3588 157.975C48.2221 158.002 48.0988 158.04 47.9888 158.09V157.68C48.0888 157.633 48.2188 157.597 48.3788 157.57C48.5388 157.54 48.6938 157.525 48.8438 157.525C49.2404 157.525 49.5338 157.613 49.7238 157.79C49.9171 157.963 50.0138 158.205 50.0138 158.515V160H49.5388V159.73C49.4354 159.843 49.3121 159.93 49.1688 159.99C49.0288 160.047 48.8571 160.075 48.6538 160.075ZM48.7788 159.69C48.9388 159.69 49.0838 159.658 49.2138 159.595C49.3438 159.532 49.4404 159.443 49.5038 159.33V159.005C49.2871 158.865 49.0454 158.795 48.7788 158.795C48.5854 158.795 48.4404 158.833 48.3438 158.91C48.2504 158.983 48.2037 159.097 48.2037 159.25C48.2037 159.543 48.3954 159.69 48.7788 159.69ZM52.1885 160.075C51.9451 160.075 51.7568 160.005 51.6235 159.865C51.4935 159.725 51.4285 159.527 51.4285 159.27V157.99H51.0635V157.6H51.4285V156.88H51.9385V157.6H52.5285V157.99H51.9385V159.235C51.9385 159.395 51.9685 159.508 52.0285 159.575C52.0918 159.642 52.2051 159.675 52.3685 159.675C52.4651 159.675 52.5618 159.653 52.6585 159.61V160.01C52.5318 160.053 52.3751 160.075 52.1885 160.075ZM56.4842 156.305H56.9892V160H56.4842V156.305ZM59.7114 160.075C59.2681 160.075 58.9197 159.965 58.6664 159.745C58.4164 159.522 58.2914 159.208 58.2914 158.805C58.2914 158.412 58.4031 158.1 58.6264 157.87C58.8531 157.64 59.1747 157.525 59.5914 157.525C59.8681 157.525 60.1031 157.578 60.2964 157.685C60.4897 157.788 60.6347 157.933 60.7314 158.12C60.8314 158.303 60.8814 158.513 60.8814 158.75V159H58.7714C58.7881 159.227 58.8831 159.397 59.0564 159.51C59.2331 159.62 59.4714 159.675 59.7714 159.675C59.9247 159.675 60.0797 159.662 60.2364 159.635C60.3931 159.605 60.5314 159.567 60.6514 159.52V159.925C60.5447 159.968 60.4031 160.003 60.2264 160.03C60.0531 160.06 59.8814 160.075 59.7114 160.075ZM60.4064 158.645C60.3997 158.418 60.3247 158.243 60.1814 158.12C60.0414 157.993 59.8414 157.93 59.5814 157.93C59.3281 157.93 59.1314 157.995 58.9914 158.125C58.8514 158.255 58.7781 158.428 58.7714 158.645H60.4064ZM63.0434 160.075C62.7534 160.075 62.5201 160.002 62.3434 159.855C62.1701 159.705 62.0834 159.503 62.0834 159.25C62.0834 158.983 62.1667 158.778 62.3334 158.635C62.5034 158.488 62.7434 158.415 63.0534 158.415C63.3834 158.415 63.6634 158.482 63.8934 158.615V158.49C63.8934 158.3 63.8351 158.16 63.7184 158.07C63.6051 157.977 63.4251 157.93 63.1784 157.93C63.0317 157.93 62.8884 157.945 62.7484 157.975C62.6117 158.002 62.4884 158.04 62.3784 158.09V157.68C62.4784 157.633 62.6084 157.597 62.7684 157.57C62.9284 157.54 63.0834 157.525 63.2334 157.525C63.6301 157.525 63.9234 157.613 64.1134 157.79C64.3067 157.963 64.4034 158.205 64.4034 158.515V160H63.9284V159.73C63.8251 159.843 63.7017 159.93 63.5584 159.99C63.4184 160.047 63.2467 160.075 63.0434 160.075ZM63.1684 159.69C63.3284 159.69 63.4734 159.658 63.6034 159.595C63.7334 159.532 63.8301 159.443 63.8934 159.33V159.005C63.6767 158.865 63.4351 158.795 63.1684 158.795C62.9751 158.795 62.8301 158.833 62.7334 158.91C62.6401 158.983 62.5934 159.097 62.5934 159.25C62.5934 159.543 62.7851 159.69 63.1684 159.69ZM66.5918 160.075C66.4252 160.075 66.2485 160.053 66.0618 160.01C65.8752 159.97 65.7285 159.915 65.6218 159.845V159.415C65.7518 159.492 65.9018 159.555 66.0718 159.605C66.2418 159.652 66.4068 159.675 66.5668 159.675C66.7468 159.675 66.8785 159.653 66.9618 159.61C67.0452 159.567 67.0868 159.497 67.0868 159.4C67.0868 159.327 67.0668 159.268 67.0268 159.225C66.9902 159.178 66.9252 159.137 66.8318 159.1C66.7418 159.063 66.6052 159.02 66.4218 158.97C66.2252 158.913 66.0685 158.857 65.9518 158.8C65.8385 158.74 65.7518 158.665 65.6918 158.575C65.6352 158.485 65.6068 158.368 65.6068 158.225C65.6068 157.995 65.6968 157.822 65.8768 157.705C66.0602 157.585 66.3052 157.525 66.6118 157.525C66.7718 157.525 66.9285 157.54 67.0818 157.57C67.2352 157.6 67.3585 157.642 67.4518 157.695V158.115C67.3552 158.058 67.2352 158.013 67.0918 157.98C66.9518 157.947 66.8085 157.93 66.6618 157.93C66.4852 157.93 66.3502 157.952 66.2568 157.995C66.1635 158.038 66.1168 158.115 66.1168 158.225C66.1168 158.295 66.1368 158.352 66.1768 158.395C66.2168 158.438 66.2802 158.477 66.3668 158.51C66.4568 158.54 66.5985 158.58 66.7918 158.63C67.0952 158.713 67.3052 158.812 67.4218 158.925C67.5418 159.038 67.6018 159.195 67.6018 159.395C67.6018 159.602 67.5168 159.767 67.3468 159.89C67.1768 160.013 66.9252 160.075 66.5918 160.075ZM69.7549 160.075C69.5115 160.075 69.3232 160.005 69.1899 159.865C69.0599 159.725 68.9949 159.527 68.9949 159.27V157.99H68.6299V157.6H68.9949V156.88H69.5049V157.6H70.0949V157.99H69.5049V159.235C69.5049 159.395 69.5349 159.508 69.5949 159.575C69.6582 159.642 69.7715 159.675 69.9349 159.675C70.0315 159.675 70.1282 159.653 70.2249 159.61V160.01C70.0982 160.053 69.9415 160.075 69.7549 160.075ZM74.3456 157.13C74.2623 157.13 74.1923 157.102 74.1356 157.045C74.0789 156.988 74.0506 156.918 74.0506 156.835C74.0506 156.752 74.0789 156.682 74.1356 156.625C74.1923 156.568 74.2623 156.54 74.3456 156.54C74.4323 156.54 74.5039 156.568 74.5606 156.625C74.6206 156.682 74.6506 156.752 74.6506 156.835C74.6506 156.918 74.6206 156.988 74.5606 157.045C74.5039 157.102 74.4323 157.13 74.3456 157.13ZM74.0906 157.6H74.6056V160H74.0906V157.6ZM76.9756 160.075C76.7323 160.075 76.5439 160.005 76.4106 159.865C76.2806 159.725 76.2156 159.527 76.2156 159.27V157.99H75.8506V157.6H76.2156V156.88H76.7256V157.6H77.3156V157.99H76.7256V159.235C76.7256 159.395 76.7556 159.508 76.8156 159.575C76.8789 159.642 76.9923 159.675 77.1556 159.675C77.2523 159.675 77.3489 159.653 77.4456 159.61V160.01C77.3189 160.053 77.1623 160.075 76.9756 160.075ZM82.1963 160.075C81.953 160.075 81.7646 160.005 81.6313 159.865C81.5013 159.725 81.4363 159.527 81.4363 159.27V157.99H81.0713V157.6H81.4363V156.88H81.9463V157.6H82.5363V157.99H81.9463V159.235C81.9463 159.395 81.9763 159.508 82.0363 159.575C82.0996 159.642 82.213 159.675 82.3763 159.675C82.473 159.675 82.5696 159.653 82.6663 159.61V160.01C82.5396 160.053 82.383 160.075 82.1963 160.075ZM84.6782 160.075C84.3882 160.075 84.1548 160.002 83.9782 159.855C83.8048 159.705 83.7182 159.503 83.7182 159.25C83.7182 158.983 83.8015 158.778 83.9682 158.635C84.1382 158.488 84.3782 158.415 84.6882 158.415C85.0182 158.415 85.2982 158.482 85.5282 158.615V158.49C85.5282 158.3 85.4698 158.16 85.3532 158.07C85.2398 157.977 85.0598 157.93 84.8132 157.93C84.6665 157.93 84.5232 157.945 84.3832 157.975C84.2465 158.002 84.1232 158.04 84.0132 158.09V157.68C84.1132 157.633 84.2432 157.597 84.4032 157.57C84.5632 157.54 84.7182 157.525 84.8682 157.525C85.2648 157.525 85.5582 157.613 85.7482 157.79C85.9415 157.963 86.0382 158.205 86.0382 158.515V160H85.5632V159.73C85.4598 159.843 85.3365 159.93 85.1932 159.99C85.0532 160.047 84.8815 160.075 84.6782 160.075ZM84.8032 159.69C84.9632 159.69 85.1082 159.658 85.2382 159.595C85.3682 159.532 85.4648 159.443 85.5282 159.33V159.005C85.3115 158.865 85.0698 158.795 84.8032 158.795C84.6098 158.795 84.4648 158.833 84.3682 158.91C84.2748 158.983 84.2282 159.097 84.2282 159.25C84.2282 159.543 84.4198 159.69 84.8032 159.69ZM88.2266 160.075C88.0599 160.075 87.8833 160.053 87.6966 160.01C87.5099 159.97 87.3633 159.915 87.2566 159.845V159.415C87.3866 159.492 87.5366 159.555 87.7066 159.605C87.8766 159.652 88.0416 159.675 88.2016 159.675C88.3816 159.675 88.5133 159.653 88.5966 159.61C88.6799 159.567 88.7216 159.497 88.7216 159.4C88.7216 159.327 88.7016 159.268 88.6616 159.225C88.6249 159.178 88.5599 159.137 88.4666 159.1C88.3766 159.063 88.2399 159.02 88.0566 158.97C87.8599 158.913 87.7033 158.857 87.5866 158.8C87.4733 158.74 87.3866 158.665 87.3266 158.575C87.2699 158.485 87.2416 158.368 87.2416 158.225C87.2416 157.995 87.3316 157.822 87.5116 157.705C87.6949 157.585 87.9399 157.525 88.2466 157.525C88.4066 157.525 88.5633 157.54 88.7166 157.57C88.8699 157.6 88.9933 157.642 89.0866 157.695V158.115C88.9899 158.058 88.8699 158.013 88.7266 157.98C88.5866 157.947 88.4433 157.93 88.2966 157.93C88.1199 157.93 87.9849 157.952 87.8916 157.995C87.7983 158.038 87.7516 158.115 87.7516 158.225C87.7516 158.295 87.7716 158.352 87.8116 158.395C87.8516 158.438 87.9149 158.477 88.0016 158.51C88.0916 158.54 88.2333 158.58 88.4266 158.63C88.7299 158.713 88.9399 158.812 89.0566 158.925C89.1766 159.038 89.2366 159.195 89.2366 159.395C89.2366 159.602 89.1516 159.767 88.9816 159.89C88.8116 160.013 88.5599 160.075 88.2266 160.075ZM91.3896 160.075C91.1463 160.075 90.958 160.005 90.8246 159.865C90.6946 159.725 90.6296 159.527 90.6296 159.27V157.99H90.2646V157.6H90.6296V156.88H91.1396V157.6H91.7296V157.99H91.1396V159.235C91.1396 159.395 91.1696 159.508 91.2296 159.575C91.293 159.642 91.4063 159.675 91.5696 159.675C91.6663 159.675 91.763 159.653 91.8596 159.61V160.01C91.733 160.053 91.5763 160.075 91.3896 160.075ZM94.4048 160.075C93.9614 160.075 93.6131 159.965 93.3598 159.745C93.1098 159.522 92.9848 159.208 92.9848 158.805C92.9848 158.412 93.0964 158.1 93.3198 157.87C93.5464 157.64 93.8681 157.525 94.2848 157.525C94.5614 157.525 94.7964 157.578 94.9898 157.685C95.1831 157.788 95.3281 157.933 95.4248 158.12C95.5248 158.303 95.5748 158.513 95.5748 158.75V159H93.4648C93.4814 159.227 93.5764 159.397 93.7498 159.51C93.9264 159.62 94.1648 159.675 94.4648 159.675C94.6181 159.675 94.7731 159.662 94.9298 159.635C95.0864 159.605 95.2248 159.567 95.3448 159.52V159.925C95.2381 159.968 95.0964 160.003 94.9198 160.03C94.7464 160.06 94.5748 160.075 94.4048 160.075ZM95.0998 158.645C95.0931 158.418 95.0181 158.243 94.8748 158.12C94.7348 157.993 94.5348 157.93 94.2748 157.93C94.0214 157.93 93.8248 157.995 93.6848 158.125C93.5448 158.255 93.4714 158.428 93.4648 158.645H95.0998ZM97.7618 160.075C97.5951 160.075 97.4184 160.053 97.2318 160.01C97.0451 159.97 96.8984 159.915 96.7918 159.845V159.415C96.9218 159.492 97.0718 159.555 97.2418 159.605C97.4118 159.652 97.5768 159.675 97.7368 159.675C97.9168 159.675 98.0484 159.653 98.1318 159.61C98.2151 159.567 98.2568 159.497 98.2568 159.4C98.2568 159.327 98.2368 159.268 98.1968 159.225C98.1601 159.178 98.0951 159.137 98.0018 159.1C97.9118 159.063 97.7751 159.02 97.5918 158.97C97.3951 158.913 97.2384 158.857 97.1218 158.8C97.0084 158.74 96.9218 158.665 96.8618 158.575C96.8051 158.485 96.7768 158.368 96.7768 158.225C96.7768 157.995 96.8668 157.822 97.0468 157.705C97.2301 157.585 97.4751 157.525 97.7818 157.525C97.9418 157.525 98.0984 157.54 98.2518 157.57C98.4051 157.6 98.5284 157.642 98.6218 157.695V158.115C98.5251 158.058 98.4051 158.013 98.2618 157.98C98.1218 157.947 97.9784 157.93 97.8318 157.93C97.6551 157.93 97.5201 157.952 97.4268 157.995C97.3334 158.038 97.2868 158.115 97.2868 158.225C97.2868 158.295 97.3068 158.352 97.3468 158.395C97.3868 158.438 97.4501 158.477 97.5368 158.51C97.6268 158.54 97.7684 158.58 97.9618 158.63C98.2651 158.713 98.4751 158.812 98.5918 158.925C98.7118 159.038 98.7718 159.195 98.7718 159.395C98.7718 159.602 98.6868 159.767 98.5168 159.89C98.3468 160.013 98.0951 160.075 97.7618 160.075ZM103.929 161.15C103.765 161.15 103.605 161.137 103.449 161.11C103.295 161.083 103.165 161.045 103.059 160.995V160.58C103.309 160.693 103.599 160.75 103.929 160.75C104.239 160.75 104.464 160.682 104.604 160.545C104.747 160.412 104.819 160.208 104.819 159.935V159.68C104.599 159.943 104.275 160.075 103.849 160.075C103.605 160.075 103.387 160.022 103.194 159.915C103 159.808 102.849 159.658 102.739 159.465C102.629 159.272 102.574 159.05 102.574 158.8C102.574 158.547 102.627 158.325 102.734 158.135C102.844 157.942 102.994 157.792 103.184 157.685C103.377 157.578 103.594 157.525 103.834 157.525C104.057 157.525 104.245 157.558 104.399 157.625C104.555 157.688 104.7 157.795 104.834 157.945V157.6H105.324V159.88C105.324 160.29 105.209 160.603 104.979 160.82C104.752 161.04 104.402 161.15 103.929 161.15ZM103.949 159.675C104.155 159.675 104.337 159.62 104.494 159.51C104.654 159.4 104.762 159.253 104.819 159.07V158.53C104.755 158.343 104.645 158.197 104.489 158.09C104.335 157.983 104.155 157.93 103.949 157.93C103.785 157.93 103.637 157.967 103.504 158.04C103.374 158.11 103.27 158.212 103.194 158.345C103.12 158.478 103.084 158.63 103.084 158.8C103.084 158.973 103.12 159.127 103.194 159.26C103.27 159.39 103.374 159.492 103.504 159.565C103.637 159.638 103.785 159.675 103.949 159.675ZM107.862 160.075C107.592 160.075 107.354 160.025 107.147 159.925C106.944 159.822 106.784 159.675 106.667 159.485C106.554 159.292 106.497 159.065 106.497 158.805C106.497 158.548 106.554 158.323 106.667 158.13C106.781 157.937 106.941 157.788 107.147 157.685C107.354 157.578 107.592 157.525 107.862 157.525C108.132 157.525 108.371 157.578 108.577 157.685C108.784 157.788 108.944 157.937 109.057 158.13C109.174 158.323 109.232 158.548 109.232 158.805C109.232 159.065 109.174 159.292 109.057 159.485C108.944 159.675 108.784 159.822 108.577 159.925C108.371 160.025 108.132 160.075 107.862 160.075ZM107.862 159.675C108.122 159.675 108.329 159.595 108.482 159.435C108.636 159.275 108.712 159.065 108.712 158.805C108.712 158.535 108.636 158.322 108.482 158.165C108.329 158.008 108.122 157.93 107.862 157.93C107.602 157.93 107.396 158.008 107.242 158.165C107.089 158.322 107.012 158.535 107.012 158.805C107.012 159.065 107.089 159.275 107.242 159.435C107.396 159.595 107.602 159.675 107.862 159.675ZM111.669 160.075C111.399 160.075 111.161 160.025 110.954 159.925C110.751 159.822 110.591 159.675 110.474 159.485C110.361 159.292 110.304 159.065 110.304 158.805C110.304 158.548 110.361 158.323 110.474 158.13C110.587 157.937 110.747 157.788 110.954 157.685C111.161 157.578 111.399 157.525 111.669 157.525C111.939 157.525 112.177 157.578 112.384 157.685C112.591 157.788 112.751 157.937 112.864 158.13C112.981 158.323 113.039 158.548 113.039 158.805C113.039 159.065 112.981 159.292 112.864 159.485C112.751 159.675 112.591 159.822 112.384 159.925C112.177 160.025 111.939 160.075 111.669 160.075ZM111.669 159.675C111.929 159.675 112.136 159.595 112.289 159.435C112.442 159.275 112.519 159.065 112.519 158.805C112.519 158.535 112.442 158.322 112.289 158.165C112.136 158.008 111.929 157.93 111.669 157.93C111.409 157.93 111.202 158.008 111.049 158.165C110.896 158.322 110.819 158.535 110.819 158.805C110.819 159.065 110.896 159.275 111.049 159.435C111.202 159.595 111.409 159.675 111.669 159.675ZM115.424 160.075C115.184 160.075 114.968 160.023 114.774 159.92C114.584 159.813 114.434 159.665 114.324 159.475C114.218 159.282 114.164 159.058 114.164 158.805C114.164 158.555 114.218 158.333 114.324 158.14C114.434 157.947 114.584 157.797 114.774 157.69C114.968 157.58 115.184 157.525 115.424 157.525C115.858 157.525 116.186 157.657 116.409 157.92V156.305H116.914V160H116.424V159.65C116.291 159.797 116.144 159.905 115.984 159.975C115.828 160.042 115.641 160.075 115.424 160.075ZM115.539 159.675C115.746 159.675 115.926 159.622 116.079 159.515C116.236 159.405 116.346 159.258 116.409 159.075V158.535C116.353 158.352 116.244 158.205 116.084 158.095C115.928 157.985 115.746 157.93 115.539 157.93C115.376 157.93 115.228 157.967 115.094 158.04C114.964 158.113 114.861 158.217 114.784 158.35C114.711 158.483 114.674 158.635 114.674 158.805C114.674 158.975 114.711 159.127 114.784 159.26C114.861 159.393 114.964 159.497 115.094 159.57C115.228 159.64 115.376 159.675 115.539 159.675ZM118.45 160C118.384 160 118.327 159.978 118.28 159.935C118.237 159.888 118.215 159.832 118.215 159.765C118.215 159.698 118.237 159.642 118.28 159.595C118.327 159.548 118.384 159.525 118.45 159.525C118.517 159.525 118.574 159.548 118.62 159.595C118.667 159.642 118.69 159.698 118.69 159.765C118.69 159.832 118.667 159.888 118.62 159.935C118.574 159.978 118.517 160 118.45 160ZM18.21 164.935H17.125V164.505H19.81V164.935H18.725V168H18.21V164.935ZM21.0096 164.305H21.5146V165.93C21.7446 165.66 22.0512 165.525 22.4346 165.525C22.7546 165.525 22.9929 165.61 23.1496 165.78C23.3062 165.95 23.3846 166.178 23.3846 166.465V168H22.8796V166.515C22.8796 166.125 22.6929 165.93 22.3196 165.93C22.1596 165.93 22.0096 165.968 21.8696 166.045C21.7329 166.118 21.6146 166.232 21.5146 166.385V168H21.0096V164.305ZM26.0776 168.075C25.6343 168.075 25.286 167.965 25.0326 167.745C24.7826 167.522 24.6576 167.208 24.6576 166.805C24.6576 166.412 24.7693 166.1 24.9926 165.87C25.2193 165.64 25.541 165.525 25.9576 165.525C26.2343 165.525 26.4693 165.578 26.6626 165.685C26.856 165.788 27.001 165.933 27.0976 166.12C27.1976 166.303 27.2476 166.513 27.2476 166.75V167H25.1376C25.1543 167.227 25.2493 167.397 25.4226 167.51C25.5993 167.62 25.8376 167.675 26.1376 167.675C26.291 167.675 26.446 167.662 26.6026 167.635C26.7593 167.605 26.8976 167.567 27.0176 167.52V167.925C26.911 167.968 26.7693 168.003 26.5926 168.03C26.4193 168.06 26.2476 168.075 26.0776 168.075ZM26.7726 166.645C26.766 166.418 26.691 166.243 26.5476 166.12C26.4076 165.993 26.2076 165.93 25.9476 165.93C25.6943 165.93 25.4976 165.995 25.3576 166.125C25.2176 166.255 25.1443 166.428 25.1376 166.645H26.7726ZM32.0352 168.075C31.8685 168.075 31.6919 168.053 31.5052 168.01C31.3185 167.97 31.1719 167.915 31.0652 167.845V167.415C31.1952 167.492 31.3452 167.555 31.5152 167.605C31.6852 167.652 31.8502 167.675 32.0102 167.675C32.1902 167.675 32.3219 167.653 32.4052 167.61C32.4885 167.567 32.5302 167.497 32.5302 167.4C32.5302 167.327 32.5102 167.268 32.4702 167.225C32.4335 167.178 32.3685 167.137 32.2752 167.1C32.1852 167.063 32.0485 167.02 31.8652 166.97C31.6685 166.913 31.5119 166.857 31.3952 166.8C31.2819 166.74 31.1952 166.665 31.1352 166.575C31.0785 166.485 31.0502 166.368 31.0502 166.225C31.0502 165.995 31.1402 165.822 31.3202 165.705C31.5035 165.585 31.7485 165.525 32.0552 165.525C32.2152 165.525 32.3719 165.54 32.5252 165.57C32.6785 165.6 32.8019 165.642 32.8952 165.695V166.115C32.7985 166.058 32.6785 166.013 32.5352 165.98C32.3952 165.947 32.2519 165.93 32.1052 165.93C31.9285 165.93 31.7935 165.952 31.7002 165.995C31.6069 166.038 31.5602 166.115 31.5602 166.225C31.5602 166.295 31.5802 166.352 31.6202 166.395C31.6602 166.438 31.7235 166.477 31.8102 166.51C31.9002 166.54 32.0419 166.58 32.2352 166.63C32.5385 166.713 32.7485 166.812 32.8652 166.925C32.9852 167.038 33.0452 167.195 33.0452 167.395C33.0452 167.602 32.9602 167.767 32.7902 167.89C32.6202 168.013 32.3685 168.075 32.0352 168.075ZM35.3015 168.075C34.9782 168.075 34.7332 167.988 34.5665 167.815C34.4032 167.642 34.3215 167.41 34.3215 167.12V165.6H34.8265V167.1C34.8265 167.483 35.0182 167.675 35.4015 167.675C35.7382 167.675 36.0015 167.523 36.1915 167.22V165.6H36.6965V168H36.2065V167.66C36.0932 167.803 35.9582 167.908 35.8015 167.975C35.6482 168.042 35.4815 168.075 35.3015 168.075ZM39.3495 169.15C39.1862 169.15 39.0262 169.137 38.8695 169.11C38.7162 169.083 38.5862 169.045 38.4795 168.995V168.58C38.7295 168.693 39.0195 168.75 39.3495 168.75C39.6595 168.75 39.8845 168.682 40.0245 168.545C40.1679 168.412 40.2395 168.208 40.2395 167.935V167.68C40.0195 167.943 39.6962 168.075 39.2695 168.075C39.0262 168.075 38.8079 168.022 38.6145 167.915C38.4212 167.808 38.2695 167.658 38.1595 167.465C38.0495 167.272 37.9945 167.05 37.9945 166.8C37.9945 166.547 38.0479 166.325 38.1545 166.135C38.2645 165.942 38.4145 165.792 38.6045 165.685C38.7979 165.578 39.0145 165.525 39.2545 165.525C39.4779 165.525 39.6662 165.558 39.8195 165.625C39.9762 165.688 40.1212 165.795 40.2545 165.945V165.6H40.7445V167.88C40.7445 168.29 40.6295 168.603 40.3995 168.82C40.1729 169.04 39.8229 169.15 39.3495 169.15ZM39.3695 167.675C39.5762 167.675 39.7579 167.62 39.9145 167.51C40.0745 167.4 40.1829 167.253 40.2395 167.07V166.53C40.1762 166.343 40.0662 166.197 39.9095 166.09C39.7562 165.983 39.5762 165.93 39.3695 165.93C39.2062 165.93 39.0579 165.967 38.9245 166.04C38.7945 166.11 38.6912 166.212 38.6145 166.345C38.5412 166.478 38.5045 166.63 38.5045 166.8C38.5045 166.973 38.5412 167.127 38.6145 167.26C38.6912 167.39 38.7945 167.492 38.9245 167.565C39.0579 167.638 39.2062 167.675 39.3695 167.675ZM43.0053 168.075C42.7153 168.075 42.482 168.002 42.3053 167.855C42.132 167.705 42.0453 167.503 42.0453 167.25C42.0453 166.983 42.1286 166.778 42.2953 166.635C42.4653 166.488 42.7053 166.415 43.0153 166.415C43.3453 166.415 43.6253 166.482 43.8553 166.615V166.49C43.8553 166.3 43.797 166.16 43.6803 166.07C43.567 165.977 43.387 165.93 43.1403 165.93C42.9936 165.93 42.8503 165.945 42.7103 165.975C42.5736 166.002 42.4503 166.04 42.3403 166.09V165.68C42.4403 165.633 42.5703 165.597 42.7303 165.57C42.8903 165.54 43.0453 165.525 43.1953 165.525C43.592 165.525 43.8853 165.613 44.0753 165.79C44.2686 165.963 44.3653 166.205 44.3653 166.515V168H43.8903V167.73C43.787 167.843 43.6636 167.93 43.5203 167.99C43.3803 168.047 43.2086 168.075 43.0053 168.075ZM43.1303 167.69C43.2903 167.69 43.4353 167.658 43.5653 167.595C43.6953 167.532 43.792 167.443 43.8553 167.33V167.005C43.6386 166.865 43.397 166.795 43.1303 166.795C42.937 166.795 42.792 166.833 42.6953 166.91C42.602 166.983 42.5553 167.097 42.5553 167.25C42.5553 167.543 42.747 167.69 43.1303 167.69ZM45.742 165.6H46.232V166.03C46.332 165.883 46.472 165.775 46.652 165.705C46.8353 165.635 47.047 165.6 47.287 165.6V165.995C47.0303 165.995 46.8103 166.037 46.627 166.12C46.4437 166.203 46.317 166.335 46.247 166.515V168H45.742V165.6ZM51.0896 165.6H51.5796V166.03C51.6796 165.883 51.8196 165.775 51.9996 165.705C52.183 165.635 52.3946 165.6 52.6346 165.6V165.995C52.378 165.995 52.158 166.037 51.9746 166.12C51.7913 166.203 51.6646 166.335 51.5946 166.515V168H51.0896V165.6ZM54.7673 168.075C54.444 168.075 54.199 167.988 54.0323 167.815C53.869 167.642 53.7873 167.41 53.7873 167.12V165.6H54.2923V167.1C54.2923 167.483 54.484 167.675 54.8673 167.675C55.204 167.675 55.4673 167.523 55.6573 167.22V165.6H56.1623V168H55.6723V167.66C55.559 167.803 55.424 167.908 55.2673 167.975C55.114 168.042 54.9473 168.075 54.7673 168.075ZM58.4454 168.075C58.2787 168.075 58.102 168.053 57.9154 168.01C57.7287 167.97 57.582 167.915 57.4754 167.845V167.415C57.6054 167.492 57.7554 167.555 57.9254 167.605C58.0954 167.652 58.2604 167.675 58.4204 167.675C58.6004 167.675 58.732 167.653 58.8154 167.61C58.8987 167.567 58.9404 167.497 58.9404 167.4C58.9404 167.327 58.9204 167.268 58.8804 167.225C58.8437 167.178 58.7787 167.137 58.6854 167.1C58.5954 167.063 58.4587 167.02 58.2754 166.97C58.0787 166.913 57.922 166.857 57.8054 166.8C57.692 166.74 57.6054 166.665 57.5454 166.575C57.4887 166.485 57.4604 166.368 57.4604 166.225C57.4604 165.995 57.5504 165.822 57.7304 165.705C57.9137 165.585 58.1587 165.525 58.4654 165.525C58.6254 165.525 58.782 165.54 58.9354 165.57C59.0887 165.6 59.212 165.642 59.3054 165.695V166.115C59.2087 166.058 59.0887 166.013 58.9454 165.98C58.8054 165.947 58.662 165.93 58.5154 165.93C58.3387 165.93 58.2037 165.952 58.1104 165.995C58.017 166.038 57.9704 166.115 57.9704 166.225C57.9704 166.295 57.9904 166.352 58.0304 166.395C58.0704 166.438 58.1337 166.477 58.2204 166.51C58.3104 166.54 58.452 166.58 58.6454 166.63C58.9487 166.713 59.1587 166.812 59.2754 166.925C59.3954 167.038 59.4554 167.195 59.4554 167.395C59.4554 167.602 59.3704 167.767 59.2004 167.89C59.0304 168.013 58.7787 168.075 58.4454 168.075ZM60.7566 164.305H61.2616V165.93C61.4916 165.66 61.7983 165.525 62.1816 165.525C62.5016 165.525 62.74 165.61 62.8966 165.78C63.0533 165.95 63.1316 166.178 63.1316 166.465V168H62.6266V166.515C62.6266 166.125 62.44 165.93 62.0666 165.93C61.9066 165.93 61.7566 165.968 61.6166 166.045C61.48 166.118 61.3616 166.232 61.2616 166.385V168H60.7566V164.305ZM67.1053 164.305H67.6103V168H67.1053V164.305ZM70.3325 168.075C69.8892 168.075 69.5408 167.965 69.2875 167.745C69.0375 167.522 68.9125 167.208 68.9125 166.805C68.9125 166.412 69.0242 166.1 69.2475 165.87C69.4742 165.64 69.7958 165.525 70.2125 165.525C70.4892 165.525 70.7242 165.578 70.9175 165.685C71.1108 165.788 71.2558 165.933 71.3525 166.12C71.4525 166.303 71.5025 166.513 71.5025 166.75V167H69.3925C69.4092 167.227 69.5042 167.397 69.6775 167.51C69.8542 167.62 70.0925 167.675 70.3925 167.675C70.5458 167.675 70.7008 167.662 70.8575 167.635C71.0142 167.605 71.1525 167.567 71.2725 167.52V167.925C71.1658 167.968 71.0242 168.003 70.8475 168.03C70.6742 168.06 70.5025 168.075 70.3325 168.075ZM71.0275 166.645C71.0208 166.418 70.9458 166.243 70.8025 166.12C70.6625 165.993 70.4625 165.93 70.2025 165.93C69.9492 165.93 69.7525 165.995 69.6125 166.125C69.4725 166.255 69.3992 166.428 69.3925 166.645H71.0275ZM73.7295 168.075C73.4862 168.075 73.2978 168.005 73.1645 167.865C73.0345 167.725 72.9695 167.527 72.9695 167.27V165.99H72.6045V165.6H72.9695V164.88H73.4795V165.6H74.0695V165.99H73.4795V167.235C73.4795 167.395 73.5095 167.508 73.5695 167.575C73.6328 167.642 73.7462 167.675 73.9095 167.675C74.0062 167.675 74.1028 167.653 74.1995 167.61V168.01C74.0728 168.053 73.9162 168.075 73.7295 168.075ZM76.212 168.075C76.0453 168.075 75.8686 168.053 75.682 168.01C75.4953 167.97 75.3486 167.915 75.242 167.845V167.415C75.372 167.492 75.522 167.555 75.692 167.605C75.862 167.652 76.027 167.675 76.187 167.675C76.367 167.675 76.4986 167.653 76.582 167.61C76.6653 167.567 76.707 167.497 76.707 167.4C76.707 167.327 76.687 167.268 76.647 167.225C76.6103 167.178 76.5453 167.137 76.452 167.1C76.362 167.063 76.2253 167.02 76.042 166.97C75.8453 166.913 75.6886 166.857 75.572 166.8C75.4586 166.74 75.372 166.665 75.312 166.575C75.2553 166.485 75.227 166.368 75.227 166.225C75.227 165.995 75.317 165.822 75.497 165.705C75.6803 165.585 75.9253 165.525 76.232 165.525C76.392 165.525 76.5486 165.54 76.702 165.57C76.8553 165.6 76.9786 165.642 77.072 165.695V166.115C76.9753 166.058 76.8553 166.013 76.712 165.98C76.572 165.947 76.4286 165.93 76.282 165.93C76.1053 165.93 75.9703 165.952 75.877 165.995C75.7836 166.038 75.737 166.115 75.737 166.225C75.737 166.295 75.757 166.352 75.797 166.395C75.837 166.438 75.9003 166.477 75.987 166.51C76.077 166.54 76.2186 166.58 76.412 166.63C76.7153 166.713 76.9253 166.812 77.042 166.925C77.162 167.038 77.222 167.195 77.222 167.395C77.222 167.602 77.137 167.767 76.967 167.89C76.797 168.013 76.5453 168.075 76.212 168.075ZM82.0488 168.075C81.8055 168.075 81.6172 168.005 81.4838 167.865C81.3538 167.725 81.2888 167.527 81.2888 167.27V165.99H80.9238V165.6H81.2888V164.88H81.7988V165.6H82.3888V165.99H81.7988V167.235C81.7988 167.395 81.8288 167.508 81.8888 167.575C81.9522 167.642 82.0655 167.675 82.2288 167.675C82.3255 167.675 82.4222 167.653 82.5188 167.61V168.01C82.3922 168.053 82.2355 168.075 82.0488 168.075ZM83.7439 164.305H84.2489V165.93C84.4789 165.66 84.7856 165.525 85.1689 165.525C85.4889 165.525 85.7273 165.61 85.8839 165.78C86.0406 165.95 86.1189 166.178 86.1189 166.465V168H85.6139V166.515C85.6139 166.125 85.4273 165.93 85.0539 165.93C84.8939 165.93 84.7439 165.968 84.6039 166.045C84.4673 166.118 84.3489 166.232 84.2489 166.385V168H83.7439V164.305ZM88.812 168.075C88.3687 168.075 88.0203 167.965 87.767 167.745C87.517 167.522 87.392 167.208 87.392 166.805C87.392 166.412 87.5037 166.1 87.727 165.87C87.9537 165.64 88.2753 165.525 88.692 165.525C88.9687 165.525 89.2037 165.578 89.397 165.685C89.5903 165.788 89.7353 165.933 89.832 166.12C89.932 166.303 89.982 166.513 89.982 166.75V167H87.872C87.8887 167.227 87.9837 167.397 88.157 167.51C88.3337 167.62 88.572 167.675 88.872 167.675C89.0253 167.675 89.1803 167.662 89.337 167.635C89.4937 167.605 89.632 167.567 89.752 167.52V167.925C89.6453 167.968 89.5037 168.003 89.327 168.03C89.1537 168.06 88.982 168.075 88.812 168.075ZM89.507 166.645C89.5003 166.418 89.4253 166.243 89.282 166.12C89.142 165.993 88.942 165.93 88.682 165.93C88.4287 165.93 88.232 165.995 88.092 166.125C87.952 166.255 87.8787 166.428 87.872 166.645H89.507ZM94.7446 168.075C94.4546 168.075 94.2212 168.002 94.0446 167.855C93.8712 167.705 93.7846 167.503 93.7846 167.25C93.7846 166.983 93.8679 166.778 94.0346 166.635C94.2046 166.488 94.4446 166.415 94.7546 166.415C95.0846 166.415 95.3646 166.482 95.5946 166.615V166.49C95.5946 166.3 95.5362 166.16 95.4196 166.07C95.3062 165.977 95.1262 165.93 94.8796 165.93C94.7329 165.93 94.5896 165.945 94.4496 165.975C94.3129 166.002 94.1896 166.04 94.0796 166.09V165.68C94.1796 165.633 94.3096 165.597 94.4696 165.57C94.6296 165.54 94.7846 165.525 94.9346 165.525C95.3312 165.525 95.6246 165.613 95.8146 165.79C96.0079 165.963 96.1046 166.205 96.1046 166.515V168H95.6296V167.73C95.5262 167.843 95.4029 167.93 95.2596 167.99C95.1196 168.047 94.9479 168.075 94.7446 168.075ZM94.8696 167.69C95.0296 167.69 95.1746 167.658 95.3046 167.595C95.4346 167.532 95.5312 167.443 95.5946 167.33V167.005C95.3779 166.865 95.1362 166.795 94.8696 166.795C94.6762 166.795 94.5312 166.833 94.4346 166.91C94.3412 166.983 94.2946 167.097 94.2946 167.25C94.2946 167.543 94.4862 167.69 94.8696 167.69ZM97.6463 165.99H97.2813V165.6H97.6463V165.13C97.6463 164.853 97.7246 164.643 97.8813 164.5C98.0379 164.353 98.2479 164.28 98.5113 164.28C98.6479 164.28 98.7763 164.3 98.8963 164.34V164.76C98.8029 164.717 98.7063 164.695 98.6063 164.695C98.4496 164.695 98.3346 164.733 98.2613 164.81C98.1879 164.883 98.1513 165 98.1513 165.16V165.6H98.7513V165.99H98.1513V168H97.6463V165.99ZM100.032 165.99H99.667V165.6H100.032V165.13C100.032 164.853 100.11 164.643 100.267 164.5C100.424 164.353 100.634 164.28 100.897 164.28C101.034 164.28 101.162 164.3 101.282 164.34V164.76C101.189 164.717 101.092 164.695 100.992 164.695C100.835 164.695 100.72 164.733 100.647 164.81C100.574 164.883 100.537 165 100.537 165.16V165.6H101.137V165.99H100.537V168H100.032V165.99ZM103.7 168.075C103.256 168.075 102.908 167.965 102.655 167.745C102.405 167.522 102.28 167.208 102.28 166.805C102.28 166.412 102.391 166.1 102.615 165.87C102.841 165.64 103.163 165.525 103.58 165.525C103.856 165.525 104.091 165.578 104.285 165.685C104.478 165.788 104.623 165.933 104.72 166.12C104.82 166.303 104.87 166.513 104.87 166.75V167H102.76C102.776 167.227 102.871 167.397 103.045 167.51C103.221 167.62 103.46 167.675 103.76 167.675C103.913 167.675 104.068 167.662 104.225 167.635C104.381 167.605 104.52 167.567 104.64 167.52V167.925C104.533 167.968 104.391 168.003 104.215 168.03C104.041 168.06 103.87 168.075 103.7 168.075ZM104.395 166.645C104.388 166.418 104.313 166.243 104.17 166.12C104.03 165.993 103.83 165.93 103.57 165.93C103.316 165.93 103.12 165.995 102.98 166.125C102.84 166.255 102.766 166.428 102.76 166.645H104.395ZM107.437 168.075C107.17 168.075 106.933 168.025 106.727 167.925C106.52 167.825 106.358 167.68 106.242 167.49C106.128 167.297 106.072 167.068 106.072 166.805C106.072 166.542 106.128 166.315 106.242 166.125C106.358 165.932 106.52 165.783 106.727 165.68C106.937 165.577 107.177 165.525 107.447 165.525C107.813 165.525 108.107 165.597 108.327 165.74V166.155C108.11 166.005 107.833 165.93 107.497 165.93C107.223 165.93 107.002 166.005 106.832 166.155C106.665 166.302 106.582 166.518 106.582 166.805C106.582 167.092 106.665 167.308 106.832 167.455C106.998 167.602 107.217 167.675 107.487 167.675C107.823 167.675 108.113 167.595 108.357 167.435V167.845C108.24 167.925 108.107 167.983 107.957 168.02C107.81 168.057 107.637 168.075 107.437 168.075ZM110.581 168.075C110.338 168.075 110.149 168.005 110.016 167.865C109.886 167.725 109.821 167.527 109.821 167.27V165.99H109.456V165.6H109.821V164.88H110.331V165.6H110.921V165.99H110.331V167.235C110.331 167.395 110.361 167.508 110.421 167.575C110.484 167.642 110.598 167.675 110.761 167.675C110.858 167.675 110.954 167.653 111.051 167.61V168.01C110.924 168.053 110.768 168.075 110.581 168.075ZM113.596 168.075C113.153 168.075 112.805 167.965 112.551 167.745C112.301 167.522 112.176 167.208 112.176 166.805C112.176 166.412 112.288 166.1 112.511 165.87C112.738 165.64 113.06 165.525 113.476 165.525C113.753 165.525 113.988 165.578 114.181 165.685C114.375 165.788 114.52 165.933 114.616 166.12C114.716 166.303 114.766 166.513 114.766 166.75V167H112.656C112.673 167.227 112.768 167.397 112.941 167.51C113.118 167.62 113.356 167.675 113.656 167.675C113.81 167.675 113.965 167.662 114.121 167.635C114.278 167.605 114.416 167.567 114.536 167.52V167.925C114.43 167.968 114.288 168.003 114.111 168.03C113.938 168.06 113.766 168.075 113.596 168.075ZM114.291 166.645C114.285 166.418 114.21 166.243 114.066 166.12C113.926 165.993 113.726 165.93 113.466 165.93C113.213 165.93 113.016 165.995 112.876 166.125C112.736 166.255 112.663 166.428 112.656 166.645H114.291ZM117.228 168.075C116.988 168.075 116.771 168.023 116.578 167.92C116.388 167.813 116.238 167.665 116.128 167.475C116.021 167.282 115.968 167.058 115.968 166.805C115.968 166.555 116.021 166.333 116.128 166.14C116.238 165.947 116.388 165.797 116.578 165.69C116.771 165.58 116.988 165.525 117.228 165.525C117.661 165.525 117.99 165.657 118.213 165.92V164.305H118.718V168H118.228V167.65C118.095 167.797 117.948 167.905 117.788 167.975C117.631 168.042 117.445 168.075 117.228 168.075ZM117.343 167.675C117.55 167.675 117.73 167.622 117.883 167.515C118.04 167.405 118.15 167.258 118.213 167.075V166.535C118.156 166.352 118.048 166.205 117.888 166.095C117.731 165.985 117.55 165.93 117.343 165.93C117.18 165.93 117.031 165.967 116.898 166.04C116.768 166.113 116.665 166.217 116.588 166.35C116.515 166.483 116.478 166.635 116.478 166.805C116.478 166.975 116.515 167.127 116.588 167.26C116.665 167.393 116.768 167.497 116.898 167.57C117.031 167.64 117.18 167.675 117.343 167.675ZM122.885 165.99H122.52V165.6H122.885V165.145C122.885 164.868 122.973 164.655 123.15 164.505C123.326 164.355 123.546 164.28 123.81 164.28C123.943 164.28 124.073 164.3 124.2 164.34V164.75C124.106 164.713 124.01 164.695 123.91 164.695C123.74 164.695 123.61 164.737 123.52 164.82C123.433 164.9 123.39 165.018 123.39 165.175V165.6H125.01V168H124.505V165.99H123.39V168H122.885V165.99ZM124.755 165.13C124.668 165.13 124.596 165.102 124.54 165.045C124.483 164.988 124.455 164.918 124.455 164.835C124.455 164.752 124.483 164.682 124.54 164.625C124.6 164.568 124.671 164.54 124.755 164.54C124.838 164.54 124.908 164.568 124.965 164.625C125.025 164.682 125.055 164.752 125.055 164.835C125.055 164.918 125.025 164.988 124.965 165.045C124.908 165.102 124.838 165.13 124.755 165.13ZM127.338 168.075C127.171 168.075 126.995 168.053 126.808 168.01C126.621 167.97 126.475 167.915 126.368 167.845V167.415C126.498 167.492 126.648 167.555 126.818 167.605C126.988 167.652 127.153 167.675 127.313 167.675C127.493 167.675 127.625 167.653 127.708 167.61C127.791 167.567 127.833 167.497 127.833 167.4C127.833 167.327 127.813 167.268 127.773 167.225C127.736 167.178 127.671 167.137 127.578 167.1C127.488 167.063 127.351 167.02 127.168 166.97C126.971 166.913 126.815 166.857 126.698 166.8C126.585 166.74 126.498 166.665 126.438 166.575C126.381 166.485 126.353 166.368 126.353 166.225C126.353 165.995 126.443 165.822 126.623 165.705C126.806 165.585 127.051 165.525 127.358 165.525C127.518 165.525 127.675 165.54 127.828 165.57C127.981 165.6 128.105 165.642 128.198 165.695V166.115C128.101 166.058 127.981 166.013 127.838 165.98C127.698 165.947 127.555 165.93 127.408 165.93C127.231 165.93 127.096 165.952 127.003 165.995C126.91 166.038 126.863 166.115 126.863 166.225C126.863 166.295 126.883 166.352 126.923 166.395C126.963 166.438 127.026 166.477 127.113 166.51C127.203 166.54 127.345 166.58 127.538 166.63C127.841 166.713 128.051 166.812 128.168 166.925C128.288 167.038 128.348 167.195 128.348 167.395C128.348 167.602 128.263 167.767 128.093 167.89C127.923 168.013 127.671 168.075 127.338 168.075ZM129.649 164.305H130.154V165.93C130.384 165.66 130.691 165.525 131.074 165.525C131.394 165.525 131.633 165.61 131.789 165.78C131.946 165.95 132.024 166.178 132.024 166.465V168H131.519V166.515C131.519 166.125 131.333 165.93 130.959 165.93C130.799 165.93 130.649 165.968 130.509 166.045C130.373 166.118 130.254 166.232 130.154 166.385V168H129.649V164.305ZM18.28 176.075C17.9567 176.075 17.7117 175.988 17.545 175.815C17.3817 175.642 17.3 175.41 17.3 175.12V173.6H17.805V175.1C17.805 175.483 17.9967 175.675 18.38 175.675C18.7167 175.675 18.98 175.523 19.17 175.22V173.6H19.675V176H19.185V175.66C19.0717 175.803 18.9367 175.908 18.78 175.975C18.6267 176.042 18.46 176.075 18.28 176.075ZM21.958 176.075C21.7914 176.075 21.6147 176.053 21.428 176.01C21.2414 175.97 21.0947 175.915 20.988 175.845V175.415C21.118 175.492 21.268 175.555 21.438 175.605C21.608 175.652 21.773 175.675 21.933 175.675C22.113 175.675 22.2447 175.653 22.328 175.61C22.4114 175.567 22.453 175.497 22.453 175.4C22.453 175.327 22.433 175.268 22.393 175.225C22.3564 175.178 22.2914 175.137 22.198 175.1C22.108 175.063 21.9714 175.02 21.788 174.97C21.5914 174.913 21.4347 174.857 21.318 174.8C21.2047 174.74 21.118 174.665 21.058 174.575C21.0014 174.485 20.973 174.368 20.973 174.225C20.973 173.995 21.063 173.822 21.243 173.705C21.4264 173.585 21.6714 173.525 21.978 173.525C22.138 173.525 22.2947 173.54 22.448 173.57C22.6014 173.6 22.7247 173.642 22.818 173.695V174.115C22.7214 174.058 22.6014 174.013 22.458 173.98C22.318 173.947 22.1747 173.93 22.028 173.93C21.8514 173.93 21.7164 173.952 21.623 173.995C21.5297 174.038 21.483 174.115 21.483 174.225C21.483 174.295 21.503 174.352 21.543 174.395C21.583 174.438 21.6464 174.477 21.733 174.51C21.823 174.54 21.9647 174.58 22.158 174.63C22.4614 174.713 22.6714 174.812 22.788 174.925C22.908 175.038 22.968 175.195 22.968 175.395C22.968 175.602 22.883 175.767 22.713 175.89C22.543 176.013 22.2914 176.075 21.958 176.075ZM25.5893 176.075C25.146 176.075 24.7977 175.965 24.5443 175.745C24.2943 175.522 24.1693 175.208 24.1693 174.805C24.1693 174.412 24.281 174.1 24.5043 173.87C24.731 173.64 25.0527 173.525 25.4693 173.525C25.746 173.525 25.981 173.578 26.1743 173.685C26.3677 173.788 26.5127 173.933 26.6093 174.12C26.7093 174.303 26.7593 174.513 26.7593 174.75V175H24.6493C24.666 175.227 24.761 175.397 24.9343 175.51C25.111 175.62 25.3493 175.675 25.6493 175.675C25.8027 175.675 25.9577 175.662 26.1143 175.635C26.271 175.605 26.4093 175.567 26.5293 175.52V175.925C26.4227 175.968 26.281 176.003 26.1043 176.03C25.931 176.06 25.7593 176.075 25.5893 176.075ZM26.2843 174.645C26.2777 174.418 26.2027 174.243 26.0593 174.12C25.9193 173.993 25.7193 173.93 25.4593 173.93C25.206 173.93 25.0093 173.995 24.8693 174.125C24.7293 174.255 24.656 174.428 24.6493 174.645H26.2843ZM31.5869 176.075C31.3436 176.075 31.1552 176.005 31.0219 175.865C30.8919 175.725 30.8269 175.527 30.8269 175.27V173.99H30.4619V173.6H30.8269V172.88H31.3369V173.6H31.9269V173.99H31.3369V175.235C31.3369 175.395 31.3669 175.508 31.4269 175.575C31.4902 175.642 31.6036 175.675 31.7669 175.675C31.8636 175.675 31.9602 175.653 32.0569 175.61V176.01C31.9302 176.053 31.7736 176.075 31.5869 176.075ZM33.0551 173.6H33.5701L34.1101 175.38L34.6451 173.6H35.1001L35.6351 175.38L36.1751 173.6H36.6951L35.9151 176H35.4301L34.8751 174.21L34.3201 176H33.8301L33.0551 173.6ZM38.9347 176.075C38.6647 176.075 38.4264 176.025 38.2197 175.925C38.0164 175.822 37.8564 175.675 37.7397 175.485C37.6264 175.292 37.5697 175.065 37.5697 174.805C37.5697 174.548 37.6264 174.323 37.7397 174.13C37.8531 173.937 38.0131 173.788 38.2197 173.685C38.4264 173.578 38.6647 173.525 38.9347 173.525C39.2047 173.525 39.4431 173.578 39.6497 173.685C39.8564 173.788 40.0164 173.937 40.1297 174.13C40.2464 174.323 40.3047 174.548 40.3047 174.805C40.3047 175.065 40.2464 175.292 40.1297 175.485C40.0164 175.675 39.8564 175.822 39.6497 175.925C39.4431 176.025 39.2047 176.075 38.9347 176.075ZM38.9347 175.675C39.1947 175.675 39.4014 175.595 39.5547 175.435C39.7081 175.275 39.7847 175.065 39.7847 174.805C39.7847 174.535 39.7081 174.322 39.5547 174.165C39.4014 174.008 39.1947 173.93 38.9347 173.93C38.6747 173.93 38.4681 174.008 38.3147 174.165C38.1614 174.322 38.0847 174.535 38.0847 174.805C38.0847 175.065 38.1614 175.275 38.3147 175.435C38.4681 175.595 38.6747 175.675 38.9347 175.675ZM45.0639 176.075C44.7739 176.075 44.5406 176.002 44.3639 175.855C44.1906 175.705 44.1039 175.503 44.1039 175.25C44.1039 174.983 44.1872 174.778 44.3539 174.635C44.5239 174.488 44.7639 174.415 45.0739 174.415C45.4039 174.415 45.6839 174.482 45.9139 174.615V174.49C45.9139 174.3 45.8556 174.16 45.7389 174.07C45.6256 173.977 45.4456 173.93 45.1989 173.93C45.0522 173.93 44.9089 173.945 44.7689 173.975C44.6322 174.002 44.5089 174.04 44.3989 174.09V173.68C44.4989 173.633 44.6289 173.597 44.7889 173.57C44.9489 173.54 45.1039 173.525 45.2539 173.525C45.6506 173.525 45.9439 173.613 46.1339 173.79C46.3272 173.963 46.4239 174.205 46.4239 174.515V176H45.9489V175.73C45.8456 175.843 45.7222 175.93 45.5789 175.99C45.4389 176.047 45.2672 176.075 45.0639 176.075ZM45.1889 175.69C45.3489 175.69 45.4939 175.658 45.6239 175.595C45.7539 175.532 45.8506 175.443 45.9139 175.33V175.005C45.6972 174.865 45.4556 174.795 45.1889 174.795C44.9956 174.795 44.8506 174.833 44.7539 174.91C44.6606 174.983 44.6139 175.097 44.6139 175.25C44.6139 175.543 44.8056 175.69 45.1889 175.69ZM49.2906 176.075C49.0739 176.075 48.8856 176.042 48.7256 175.975C48.5689 175.905 48.4239 175.797 48.2906 175.65V176H47.8006V172.305H48.3056V173.92C48.4156 173.79 48.5573 173.692 48.7306 173.625C48.9039 173.558 49.0906 173.525 49.2906 173.525C49.5306 173.525 49.7456 173.58 49.9356 173.69C50.1289 173.797 50.2789 173.947 50.3856 174.14C50.4956 174.333 50.5506 174.555 50.5506 174.805C50.5506 175.058 50.4956 175.282 50.3856 175.475C50.2789 175.665 50.1289 175.813 49.9356 175.92C49.7456 176.023 49.5306 176.075 49.2906 176.075ZM49.1756 175.675C49.3389 175.675 49.4856 175.64 49.6156 175.57C49.7489 175.497 49.8523 175.393 49.9256 175.26C50.0023 175.127 50.0406 174.975 50.0406 174.805C50.0406 174.635 50.0023 174.483 49.9256 174.35C49.8523 174.217 49.7489 174.113 49.6156 174.04C49.4856 173.967 49.3389 173.93 49.1756 173.93C48.9723 173.93 48.7906 173.985 48.6306 174.095C48.4706 174.205 48.3623 174.352 48.3056 174.535V175.075C48.3689 175.258 48.4773 175.405 48.6306 175.515C48.7873 175.622 48.9689 175.675 49.1756 175.675ZM52.1464 173.13C52.063 173.13 51.993 173.102 51.9364 173.045C51.8797 172.988 51.8514 172.918 51.8514 172.835C51.8514 172.752 51.8797 172.682 51.9364 172.625C51.993 172.568 52.063 172.54 52.1464 172.54C52.233 172.54 52.3047 172.568 52.3614 172.625C52.4214 172.682 52.4514 172.752 52.4514 172.835C52.4514 172.918 52.4214 172.988 52.3614 173.045C52.3047 173.102 52.233 173.13 52.1464 173.13ZM51.8914 173.6H52.4064V176H51.8914V173.6ZM53.8514 172.305H54.3564V176H53.8514V172.305ZM56.0536 173.13C55.9703 173.13 55.9003 173.102 55.8436 173.045C55.7869 172.988 55.7586 172.918 55.7586 172.835C55.7586 172.752 55.7869 172.682 55.8436 172.625C55.9003 172.568 55.9703 172.54 56.0536 172.54C56.1403 172.54 56.2119 172.568 56.2686 172.625C56.3286 172.682 56.3586 172.752 56.3586 172.835C56.3586 172.918 56.3286 172.988 56.2686 173.045C56.2119 173.102 56.1403 173.13 56.0536 173.13ZM55.7986 173.6H56.3136V176H55.7986V173.6ZM58.6836 176.075C58.4403 176.075 58.2519 176.005 58.1186 175.865C57.9886 175.725 57.9236 175.527 57.9236 175.27V173.99H57.5586V173.6H57.9236V172.88H58.4336V173.6H59.0236V173.99H58.4336V175.235C58.4336 175.395 58.4636 175.508 58.5236 175.575C58.5869 175.642 58.7003 175.675 58.8636 175.675C58.9603 175.675 59.0569 175.653 59.1536 175.61V176.01C59.0269 176.053 58.8703 176.075 58.6836 176.075ZM60.6737 173.13C60.5904 173.13 60.5204 173.102 60.4637 173.045C60.407 172.988 60.3787 172.918 60.3787 172.835C60.3787 172.752 60.407 172.682 60.4637 172.625C60.5204 172.568 60.5904 172.54 60.6737 172.54C60.7604 172.54 60.832 172.568 60.8887 172.625C60.9487 172.682 60.9787 172.752 60.9787 172.835C60.9787 172.918 60.9487 172.988 60.8887 173.045C60.832 173.102 60.7604 173.13 60.6737 173.13ZM60.4187 173.6H60.9337V176H60.4187V173.6ZM63.6987 176.075C63.2554 176.075 62.907 175.965 62.6537 175.745C62.4037 175.522 62.2787 175.208 62.2787 174.805C62.2787 174.412 62.3904 174.1 62.6137 173.87C62.8404 173.64 63.162 173.525 63.5787 173.525C63.8554 173.525 64.0904 173.578 64.2837 173.685C64.477 173.788 64.622 173.933 64.7187 174.12C64.8187 174.303 64.8687 174.513 64.8687 174.75V175H62.7587C62.7754 175.227 62.8704 175.397 63.0437 175.51C63.2204 175.62 63.4587 175.675 63.7587 175.675C63.912 175.675 64.067 175.662 64.2237 175.635C64.3804 175.605 64.5187 175.567 64.6387 175.52V175.925C64.532 175.968 64.3904 176.003 64.2137 176.03C64.0404 176.06 63.8687 176.075 63.6987 176.075ZM64.3937 174.645C64.387 174.418 64.312 174.243 64.1687 174.12C64.0287 173.993 63.8287 173.93 63.5687 173.93C63.3154 173.93 63.1187 173.995 62.9787 174.125C62.8387 174.255 62.7654 174.428 62.7587 174.645H64.3937ZM67.0557 176.075C66.889 176.075 66.7124 176.053 66.5257 176.01C66.339 175.97 66.1924 175.915 66.0857 175.845V175.415C66.2157 175.492 66.3657 175.555 66.5357 175.605C66.7057 175.652 66.8707 175.675 67.0307 175.675C67.2107 175.675 67.3424 175.653 67.4257 175.61C67.509 175.567 67.5507 175.497 67.5507 175.4C67.5507 175.327 67.5307 175.268 67.4907 175.225C67.454 175.178 67.389 175.137 67.2957 175.1C67.2057 175.063 67.069 175.02 66.8857 174.97C66.689 174.913 66.5324 174.857 66.4157 174.8C66.3024 174.74 66.2157 174.665 66.1557 174.575C66.099 174.485 66.0707 174.368 66.0707 174.225C66.0707 173.995 66.1607 173.822 66.3407 173.705C66.524 173.585 66.769 173.525 67.0757 173.525C67.2357 173.525 67.3924 173.54 67.5457 173.57C67.699 173.6 67.8224 173.642 67.9157 173.695V174.115C67.819 174.058 67.699 174.013 67.5557 173.98C67.4157 173.947 67.2724 173.93 67.1257 173.93C66.949 173.93 66.814 173.952 66.7207 173.995C66.6274 174.038 66.5807 174.115 66.5807 174.225C66.5807 174.295 66.6007 174.352 66.6407 174.395C66.6807 174.438 66.744 174.477 66.8307 174.51C66.9207 174.54 67.0624 174.58 67.2557 174.63C67.559 174.713 67.769 174.812 67.8857 174.925C68.0057 175.038 68.0657 175.195 68.0657 175.395C68.0657 175.602 67.9807 175.767 67.8107 175.89C67.6407 176.013 67.389 176.075 67.0557 176.075ZM72.2626 173.13C72.1792 173.13 72.1092 173.102 72.0526 173.045C71.9959 172.988 71.9676 172.918 71.9676 172.835C71.9676 172.752 71.9959 172.682 72.0526 172.625C72.1092 172.568 72.1792 172.54 72.2626 172.54C72.3492 172.54 72.4209 172.568 72.4776 172.625C72.5376 172.682 72.5676 172.752 72.5676 172.835C72.5676 172.918 72.5376 172.988 72.4776 173.045C72.4209 173.102 72.3492 173.13 72.2626 173.13ZM72.0076 173.6H72.5226V176H72.0076V173.6ZM73.9676 173.6H74.4576V173.945C74.5709 173.802 74.7092 173.697 74.8726 173.63C75.0392 173.56 75.2126 173.525 75.3926 173.525C75.7126 173.525 75.9509 173.61 76.1076 173.78C76.2642 173.95 76.3426 174.178 76.3426 174.465V176H75.8376V174.515C75.8376 174.125 75.6509 173.93 75.2776 173.93C75.1176 173.93 74.9676 173.968 74.8276 174.045C74.6909 174.118 74.5726 174.232 74.4726 174.385V176H73.9676V173.6ZM81.2412 176.075C80.9979 176.075 80.8095 176.005 80.6762 175.865C80.5462 175.725 80.4812 175.527 80.4812 175.27V173.99H80.1162V173.6H80.4812V172.88H80.9912V173.6H81.5812V173.99H80.9912V175.235C80.9912 175.395 81.0212 175.508 81.0812 175.575C81.1445 175.642 81.2579 175.675 81.4212 175.675C81.5179 175.675 81.6145 175.653 81.7112 175.61V176.01C81.5845 176.053 81.4279 176.075 81.2412 176.075ZM82.9363 172.305H83.4413V173.93C83.6713 173.66 83.978 173.525 84.3613 173.525C84.6813 173.525 84.9197 173.61 85.0763 173.78C85.233 173.95 85.3113 174.178 85.3113 174.465V176H84.8063V174.515C84.8063 174.125 84.6197 173.93 84.2463 173.93C84.0863 173.93 83.9363 173.968 83.7963 174.045C83.6597 174.118 83.5413 174.232 83.4413 174.385V176H82.9363V172.305ZM88.0044 176.075C87.561 176.075 87.2127 175.965 86.9594 175.745C86.7094 175.522 86.5844 175.208 86.5844 174.805C86.5844 174.412 86.696 174.1 86.9194 173.87C87.146 173.64 87.4677 173.525 87.8844 173.525C88.161 173.525 88.396 173.578 88.5894 173.685C88.7827 173.788 88.9277 173.933 89.0244 174.12C89.1244 174.303 89.1744 174.513 89.1744 174.75V175H87.0644C87.081 175.227 87.176 175.397 87.3494 175.51C87.526 175.62 87.7644 175.675 88.0644 175.675C88.2177 175.675 88.3727 175.662 88.5294 175.635C88.686 175.605 88.8244 175.567 88.9444 175.52V175.925C88.8377 175.968 88.696 176.003 88.5194 176.03C88.346 176.06 88.1744 176.075 88.0044 176.075ZM88.6994 174.645C88.6927 174.418 88.6177 174.243 88.4744 174.12C88.3344 173.993 88.1344 173.93 87.8744 173.93C87.621 173.93 87.4244 173.995 87.2844 174.125C87.1444 174.255 87.071 174.428 87.0644 174.645H88.6994ZM93.962 176.075C93.7953 176.075 93.6186 176.053 93.432 176.01C93.2453 175.97 93.0986 175.915 92.992 175.845V175.415C93.122 175.492 93.272 175.555 93.442 175.605C93.612 175.652 93.777 175.675 93.937 175.675C94.117 175.675 94.2486 175.653 94.332 175.61C94.4153 175.567 94.457 175.497 94.457 175.4C94.457 175.327 94.437 175.268 94.397 175.225C94.3603 175.178 94.2953 175.137 94.202 175.1C94.112 175.063 93.9753 175.02 93.792 174.97C93.5953 174.913 93.4386 174.857 93.322 174.8C93.2086 174.74 93.122 174.665 93.062 174.575C93.0053 174.485 92.977 174.368 92.977 174.225C92.977 173.995 93.067 173.822 93.247 173.705C93.4303 173.585 93.6753 173.525 93.982 173.525C94.142 173.525 94.2986 173.54 94.452 173.57C94.6053 173.6 94.7286 173.642 94.822 173.695V174.115C94.7253 174.058 94.6053 174.013 94.462 173.98C94.322 173.947 94.1786 173.93 94.032 173.93C93.8553 173.93 93.7203 173.952 93.627 173.995C93.5336 174.038 93.487 174.115 93.487 174.225C93.487 174.295 93.507 174.352 93.547 174.395C93.587 174.438 93.6503 174.477 93.737 174.51C93.827 174.54 93.9686 174.58 94.162 174.63C94.4653 174.713 94.6753 174.812 94.792 174.925C94.912 175.038 94.972 175.195 94.972 175.395C94.972 175.602 94.887 175.767 94.717 175.89C94.547 176.013 94.2953 176.075 93.962 176.075ZM97.06 176.075C96.77 176.075 96.5367 176.002 96.36 175.855C96.1867 175.705 96.1 175.503 96.1 175.25C96.1 174.983 96.1833 174.778 96.35 174.635C96.52 174.488 96.76 174.415 97.07 174.415C97.4 174.415 97.68 174.482 97.91 174.615V174.49C97.91 174.3 97.8517 174.16 97.735 174.07C97.6217 173.977 97.4417 173.93 97.195 173.93C97.0483 173.93 96.905 173.945 96.765 173.975C96.6283 174.002 96.505 174.04 96.395 174.09V173.68C96.495 173.633 96.625 173.597 96.785 173.57C96.945 173.54 97.1 173.525 97.25 173.525C97.6467 173.525 97.94 173.613 98.13 173.79C98.3233 173.963 98.42 174.205 98.42 174.515V176H97.945V175.73C97.8417 175.843 97.7183 175.93 97.575 175.99C97.435 176.047 97.2633 176.075 97.06 176.075ZM97.185 175.69C97.345 175.69 97.49 175.658 97.62 175.595C97.75 175.532 97.8467 175.443 97.91 175.33V175.005C97.6933 174.865 97.4517 174.795 97.185 174.795C96.9917 174.795 96.8467 174.833 96.75 174.91C96.6567 174.983 96.61 175.097 96.61 175.25C96.61 175.543 96.8017 175.69 97.185 175.69ZM99.7967 173.6H100.277V173.945C100.39 173.805 100.518 173.7 100.662 173.63C100.805 173.56 100.953 173.525 101.107 173.525C101.3 173.525 101.453 173.558 101.567 173.625C101.68 173.688 101.763 173.787 101.817 173.92C101.923 173.79 102.053 173.692 102.207 173.625C102.363 173.558 102.52 173.525 102.677 173.525C102.97 173.525 103.182 173.6 103.312 173.75C103.442 173.897 103.507 174.115 103.507 174.405V176H103.017V174.47C103.017 174.273 102.98 174.135 102.907 174.055C102.833 173.972 102.708 173.93 102.532 173.93C102.278 173.93 102.072 174.04 101.912 174.26C101.918 174.31 101.922 174.392 101.922 174.505V176H101.432V174.47C101.432 174.273 101.398 174.135 101.332 174.055C101.265 173.972 101.145 173.93 100.972 173.93C100.718 173.93 100.492 174.073 100.292 174.36V176H99.7967V173.6ZM106.203 176.075C105.759 176.075 105.411 175.965 105.158 175.745C104.908 175.522 104.783 175.208 104.783 174.805C104.783 174.412 104.894 174.1 105.118 173.87C105.344 173.64 105.666 173.525 106.083 173.525C106.359 173.525 106.594 173.578 106.788 173.685C106.981 173.788 107.126 173.933 107.223 174.12C107.323 174.303 107.373 174.513 107.373 174.75V175H105.263C105.279 175.227 105.374 175.397 105.548 175.51C105.724 175.62 105.963 175.675 106.263 175.675C106.416 175.675 106.571 175.662 106.728 175.635C106.884 175.605 107.023 175.567 107.143 175.52V175.925C107.036 175.968 106.894 176.003 106.718 176.03C106.544 176.06 106.373 176.075 106.203 176.075ZM106.898 174.645C106.891 174.418 106.816 174.243 106.673 174.12C106.533 173.993 106.333 173.93 106.073 173.93C105.819 173.93 105.623 173.995 105.483 174.125C105.343 174.255 105.269 174.428 105.263 174.645H106.898ZM112.2 176.075C111.957 176.075 111.769 176.005 111.635 175.865C111.505 175.725 111.44 175.527 111.44 175.27V173.99H111.075V173.6H111.44V172.88H111.95V173.6H112.54V173.99H111.95V175.235C111.95 175.395 111.98 175.508 112.04 175.575C112.104 175.642 112.217 175.675 112.38 175.675C112.477 175.675 112.574 175.653 112.67 175.61V176.01C112.544 176.053 112.387 176.075 112.2 176.075ZM114.826 176.075C114.503 176.075 114.258 175.988 114.091 175.815C113.928 175.642 113.846 175.41 113.846 175.12V173.6H114.351V175.1C114.351 175.483 114.543 175.675 114.926 175.675C115.263 175.675 115.526 175.523 115.716 175.22V173.6H116.221V176H115.731V175.66C115.618 175.803 115.483 175.908 115.326 175.975C115.173 176.042 115.006 176.075 114.826 176.075ZM117.619 173.6H118.109V174.03C118.209 173.883 118.349 173.775 118.529 173.705C118.712 173.635 118.924 173.6 119.164 173.6V173.995C118.907 173.995 118.687 174.037 118.504 174.12C118.321 174.203 118.194 174.335 118.124 174.515V176H117.619V173.6ZM120.366 173.6H120.856V173.945C120.969 173.802 121.108 173.697 121.271 173.63C121.438 173.56 121.611 173.525 121.791 173.525C122.111 173.525 122.349 173.61 122.506 173.78C122.663 173.95 122.741 174.178 122.741 174.465V176H122.236V174.515C122.236 174.125 122.049 173.93 121.676 173.93C121.516 173.93 121.366 173.968 121.226 174.045C121.089 174.118 120.971 174.232 120.871 174.385V176H120.366V173.6ZM124.249 176C124.182 176 124.126 175.978 124.079 175.935C124.036 175.888 124.014 175.832 124.014 175.765C124.014 175.698 124.036 175.642 124.079 175.595C124.126 175.548 124.182 175.525 124.249 175.525C124.316 175.525 124.372 175.548 124.419 175.595C124.466 175.642 124.489 175.698 124.489 175.765C124.489 175.832 124.466 175.888 124.419 175.935C124.372 175.978 124.316 176 124.249 176Z" fill="black"/>
<rect x="12.25" y="143.25" width="125.5" height="46.5" stroke="#6C6C6C" stroke-width="0.5"/>
<path d="M16.74 38.45C16.25 38.45 15.77 38.41 15.3 38.33C14.84 38.25 14.45 38.135 14.13 37.985V36.74C14.88 37.08 15.75 37.25 16.74 37.25C17.67 37.25 18.345 37.045 18.765 36.635C19.195 36.235 19.41 35.625 19.41 34.805V34.04C18.75 34.83 17.78 35.225 16.5 35.225C15.77 35.225 15.115 35.065 14.535 34.745C13.955 34.425 13.5 33.975 13.17 33.395C12.84 32.815 12.675 32.15 12.675 31.4C12.675 30.64 12.835 29.975 13.155 29.405C13.485 28.825 13.935 28.375 14.505 28.055C15.085 27.735 15.735 27.575 16.455 27.575C17.125 27.575 17.69 27.675 18.15 27.875C18.62 28.065 19.055 28.385 19.455 28.835V27.8H20.925V34.64C20.925 35.87 20.58 36.81 19.89 37.46C19.21 38.12 18.16 38.45 16.74 38.45ZM16.8 34.025C17.42 34.025 17.965 33.86 18.435 33.53C18.915 33.2 19.24 32.76 19.41 32.21V30.59C19.22 30.03 18.89 29.59 18.42 29.27C17.96 28.95 17.42 28.79 16.8 28.79C16.31 28.79 15.865 28.9 15.465 29.12C15.075 29.33 14.765 29.635 14.535 30.035C14.315 30.435 14.205 30.89 14.205 31.4C14.205 31.92 14.315 32.38 14.535 32.78C14.765 33.17 15.075 33.475 15.465 33.695C15.865 33.915 16.31 34.025 16.8 34.025ZM25.8773 27.8H27.3473V29.09C27.6473 28.65 28.0673 28.325 28.6073 28.115C29.1573 27.905 29.7923 27.8 30.5123 27.8V28.985C29.7423 28.985 29.0823 29.11 28.5323 29.36C27.9823 29.61 27.6023 30.005 27.3923 30.545V35H25.8773V27.8ZM38.3745 35.225C37.0445 35.225 35.9995 34.895 35.2395 34.235C34.4895 33.565 34.1145 32.625 34.1145 31.415C34.1145 30.235 34.4495 29.3 35.1195 28.61C35.7995 27.92 36.7645 27.575 38.0145 27.575C38.8445 27.575 39.5495 27.735 40.1295 28.055C40.7095 28.365 41.1445 28.8 41.4345 29.36C41.7345 29.91 41.8845 30.54 41.8845 31.25V32H35.5545C35.6045 32.68 35.8895 33.19 36.4095 33.53C36.9395 33.86 37.6545 34.025 38.5545 34.025C39.0145 34.025 39.4795 33.985 39.9495 33.905C40.4195 33.815 40.8345 33.7 41.1945 33.56V34.775C40.8745 34.905 40.4495 35.01 39.9195 35.09C39.3995 35.18 38.8845 35.225 38.3745 35.225ZM40.4595 30.935C40.4395 30.255 40.2145 29.73 39.7845 29.36C39.3645 28.98 38.7645 28.79 37.9845 28.79C37.2245 28.79 36.6345 28.985 36.2145 29.375C35.7945 29.765 35.5745 30.285 35.5545 30.935H40.4595ZM49.1204 35.225C48.2504 35.225 47.5504 35.005 47.0204 34.565C46.5004 34.115 46.2404 33.51 46.2404 32.75C46.2404 31.95 46.4904 31.335 46.9904 30.905C47.5004 30.465 48.2204 30.245 49.1504 30.245C50.1404 30.245 50.9804 30.445 51.6704 30.845V30.47C51.6704 29.9 51.4954 29.48 51.1454 29.21C50.8054 28.93 50.2654 28.79 49.5254 28.79C49.0854 28.79 48.6554 28.835 48.2354 28.925C47.8254 29.005 47.4554 29.12 47.1254 29.27V28.04C47.4254 27.9 47.8154 27.79 48.2954 27.71C48.7754 27.62 49.2404 27.575 49.6904 27.575C50.8804 27.575 51.7604 27.84 52.3304 28.37C52.9104 28.89 53.2004 29.615 53.2004 30.545V35H51.7754V34.19C51.4654 34.53 51.0954 34.79 50.6654 34.97C50.2454 35.14 49.7304 35.225 49.1204 35.225ZM49.4954 34.07C49.9754 34.07 50.4104 33.975 50.8004 33.785C51.1904 33.595 51.4804 33.33 51.6704 32.99V32.015C51.0204 31.595 50.2954 31.385 49.4954 31.385C48.9154 31.385 48.4804 31.5 48.1904 31.73C47.9104 31.95 47.7704 32.29 47.7704 32.75C47.7704 33.63 48.3454 34.07 49.4954 34.07ZM60.5157 35.225C60.0157 35.225 59.4857 35.16 58.9257 35.03C58.3657 34.91 57.9257 34.745 57.6057 34.535V33.245C57.9957 33.475 58.4457 33.665 58.9557 33.815C59.4657 33.955 59.9607 34.025 60.4407 34.025C60.9807 34.025 61.3757 33.96 61.6257 33.83C61.8757 33.7 62.0007 33.49 62.0007 33.2C62.0007 32.98 61.9407 32.805 61.8207 32.675C61.7107 32.535 61.5157 32.41 61.2357 32.3C60.9657 32.19 60.5557 32.06 60.0057 31.91C59.4157 31.74 58.9457 31.57 58.5957 31.4C58.2557 31.22 57.9957 30.995 57.8157 30.725C57.6457 30.455 57.5607 30.105 57.5607 29.675C57.5607 28.985 57.8307 28.465 58.3707 28.115C58.9207 27.755 59.6557 27.575 60.5757 27.575C61.0557 27.575 61.5257 27.62 61.9857 27.71C62.4457 27.8 62.8157 27.925 63.0957 28.085V29.345C62.8057 29.175 62.4457 29.04 62.0157 28.94C61.5957 28.84 61.1657 28.79 60.7257 28.79C60.1957 28.79 59.7907 28.855 59.5107 28.985C59.2307 29.115 59.0907 29.345 59.0907 29.675C59.0907 29.885 59.1507 30.055 59.2707 30.185C59.3907 30.315 59.5807 30.43 59.8407 30.53C60.1107 30.62 60.5357 30.74 61.1157 30.89C62.0257 31.14 62.6557 31.435 63.0057 31.775C63.3657 32.115 63.5457 32.585 63.5457 33.185C63.5457 33.805 63.2907 34.3 62.7807 34.67C62.2707 35.04 61.5157 35.225 60.5157 35.225ZM68.9093 37.97C68.3693 37.97 67.9193 37.915 67.5593 37.805V36.62C67.8193 36.72 68.1393 36.77 68.5193 36.77C68.8693 36.77 69.1443 36.68 69.3443 36.5C69.5443 36.33 69.7243 36.05 69.8843 35.66L70.2293 34.82L67.0793 27.8H68.6393L71.0393 33.335L73.2743 27.8H74.8343L71.5943 35.81C71.2943 36.56 70.9343 37.105 70.5143 37.445C70.1043 37.795 69.5693 37.97 68.9093 37.97ZM91.5298 35.225C90.7298 35.225 90.0198 35.075 89.3998 34.775C88.7798 34.475 88.2948 34.04 87.9448 33.47C87.6048 32.89 87.4348 32.205 87.4348 31.415C87.4348 30.625 87.6048 29.945 87.9448 29.375C88.2948 28.795 88.7798 28.35 89.3998 28.04C90.0298 27.73 90.7498 27.575 91.5598 27.575C92.6598 27.575 93.5398 27.79 94.1998 28.22V29.465C93.5498 29.015 92.7198 28.79 91.7098 28.79C90.8898 28.79 90.2248 29.015 89.7148 29.465C89.2148 29.905 88.9648 30.555 88.9648 31.415C88.9648 32.275 89.2148 32.925 89.7148 33.365C90.2148 33.805 90.8698 34.025 91.6798 34.025C92.6898 34.025 93.5598 33.785 94.2898 33.305V34.535C93.9398 34.775 93.5398 34.95 93.0898 35.06C92.6498 35.17 92.1298 35.225 91.5298 35.225ZM101.445 35.225C100.575 35.225 99.8746 35.005 99.3446 34.565C98.8246 34.115 98.5646 33.51 98.5646 32.75C98.5646 31.95 98.8146 31.335 99.3146 30.905C99.8246 30.465 100.545 30.245 101.475 30.245C102.465 30.245 103.305 30.445 103.995 30.845V30.47C103.995 29.9 103.82 29.48 103.47 29.21C103.13 28.93 102.59 28.79 101.85 28.79C101.41 28.79 100.98 28.835 100.56 28.925C100.15 29.005 99.7796 29.12 99.4496 29.27V28.04C99.7496 27.9 100.14 27.79 100.62 27.71C101.1 27.62 101.565 27.575 102.015 27.575C103.205 27.575 104.085 27.84 104.655 28.37C105.235 28.89 105.525 29.615 105.525 30.545V35H104.1V34.19C103.79 34.53 103.42 34.79 102.99 34.97C102.57 35.14 102.055 35.225 101.445 35.225ZM101.82 34.07C102.3 34.07 102.735 33.975 103.125 33.785C103.515 33.595 103.805 33.33 103.995 32.99V32.015C103.345 31.595 102.62 31.385 101.82 31.385C101.24 31.385 100.805 31.5 100.515 31.73C100.235 31.95 100.095 32.29 100.095 32.75C100.095 33.63 100.67 34.07 101.82 34.07ZM110.405 23.915H111.92V35H110.405V23.915ZM111.935 31.355L115.25 27.8H117.095L113.765 31.355L117.44 35H115.595L111.935 31.355ZM125.905 35.225C124.575 35.225 123.53 34.895 122.77 34.235C122.02 33.565 121.645 32.625 121.645 31.415C121.645 30.235 121.98 29.3 122.65 28.61C123.33 27.92 124.295 27.575 125.545 27.575C126.375 27.575 127.08 27.735 127.66 28.055C128.24 28.365 128.675 28.8 128.965 29.36C129.265 29.91 129.415 30.54 129.415 31.25V32H123.085C123.135 32.68 123.42 33.19 123.94 33.53C124.47 33.86 125.185 34.025 126.085 34.025C126.545 34.025 127.01 33.985 127.48 33.905C127.95 33.815 128.365 33.7 128.725 33.56V34.775C128.405 34.905 127.98 35.01 127.45 35.09C126.93 35.18 126.415 35.225 125.905 35.225ZM127.99 30.935C127.97 30.255 127.745 29.73 127.315 29.36C126.895 28.98 126.295 28.79 125.515 28.79C124.755 28.79 124.165 28.985 123.745 29.375C123.325 29.765 123.105 30.285 123.085 30.935H127.99Z" fill="black"/>
<path d="M12.8691 19.0381L17.1807 17.1875V16.4746L12.8691 14.6289V15.5615L16.0283 16.7334L16.3213 16.8262L16.0283 16.9092L12.8691 18.1006V19.0381ZM20.875 19.0381L25.1865 17.1875V16.4746L20.875 14.6289V15.5615L24.0342 16.7334L24.3271 16.8262L24.0342 16.9092L20.875 18.1006V19.0381ZM38.2148 20H39.123V15.415H41.1592V14.7168H39.123V14.3457C39.123 14.1243 39.1507 13.9307 39.2061 13.7646C39.2646 13.5986 39.3493 13.4635 39.46 13.3594C39.5641 13.2585 39.6943 13.1836 39.8506 13.1348C40.0101 13.0827 40.1924 13.0566 40.3975 13.0566C40.5993 13.0566 40.7881 13.0745 40.9639 13.1104C41.1429 13.1429 41.2992 13.182 41.4326 13.2275L41.54 12.4805C41.4554 12.4577 41.3724 12.4382 41.291 12.4219C41.2096 12.4023 41.1283 12.3844 41.0469 12.3682C40.9232 12.3454 40.7979 12.3275 40.6709 12.3145C40.5439 12.2982 40.4154 12.29 40.2852 12.29C39.9727 12.29 39.6895 12.334 39.4355 12.4219C39.1816 12.5098 38.9652 12.64 38.7861 12.8125C38.6038 12.985 38.4622 13.1999 38.3613 13.457C38.2637 13.7109 38.2148 14.0072 38.2148 14.3457V14.7168H36.7598V15.415H38.2148V20ZM44.6191 17.3096V17.417C44.6191 17.7979 44.6745 18.151 44.7852 18.4766C44.8958 18.8021 45.0553 19.0853 45.2637 19.3262C45.4688 19.5671 45.7194 19.7559 46.0156 19.8926C46.3151 20.0293 46.652 20.0977 47.0264 20.0977C47.3975 20.0977 47.7311 20.0293 48.0273 19.8926C48.3236 19.7559 48.5758 19.5671 48.7842 19.3262C48.9893 19.0853 49.1471 18.8021 49.2578 18.4766C49.3685 18.151 49.4238 17.7979 49.4238 17.417V17.3096C49.4238 16.9287 49.3685 16.5755 49.2578 16.25C49.1471 15.9212 48.9893 15.6364 48.7842 15.3955C48.5758 15.1546 48.3219 14.9658 48.0225 14.8291C47.7262 14.6891 47.391 14.6191 47.0166 14.6191C46.6455 14.6191 46.3118 14.6891 46.0156 14.8291C45.7194 14.9658 45.4688 15.1546 45.2637 15.3955C45.0553 15.6364 44.8958 15.9212 44.7852 16.25C44.6745 16.5755 44.6191 16.9287 44.6191 17.3096ZM45.5225 17.417V17.3096C45.5225 17.0524 45.5534 16.8066 45.6152 16.5723C45.6771 16.3346 45.7715 16.1263 45.8984 15.9473C46.0221 15.7682 46.1768 15.6266 46.3623 15.5225C46.5479 15.415 46.766 15.3613 47.0166 15.3613C47.2673 15.3613 47.4854 15.415 47.6709 15.5225C47.8597 15.6266 48.0176 15.7682 48.1445 15.9473C48.2682 16.1263 48.361 16.3346 48.4229 16.5723C48.488 16.8066 48.5205 17.0524 48.5205 17.3096V17.417C48.5205 17.6774 48.4896 17.9264 48.4277 18.1641C48.3659 18.3984 48.2731 18.6051 48.1494 18.7842C48.0225 18.9632 47.8646 19.1048 47.6758 19.209C47.4902 19.3132 47.2738 19.3652 47.0264 19.3652C46.7757 19.3652 46.556 19.3132 46.3672 19.209C46.1784 19.1048 46.0221 18.9632 45.8984 18.7842C45.7715 18.6051 45.6771 18.3984 45.6152 18.1641C45.5534 17.9264 45.5225 17.6774 45.5225 17.417ZM52.625 17.3096V17.417C52.625 17.7979 52.6803 18.151 52.791 18.4766C52.9017 18.8021 53.0612 19.0853 53.2695 19.3262C53.4746 19.5671 53.7253 19.7559 54.0215 19.8926C54.321 20.0293 54.6579 20.0977 55.0322 20.0977C55.4033 20.0977 55.737 20.0293 56.0332 19.8926C56.3294 19.7559 56.5817 19.5671 56.79 19.3262C56.9951 19.0853 57.153 18.8021 57.2637 18.4766C57.3743 18.151 57.4297 17.7979 57.4297 17.417V17.3096C57.4297 16.9287 57.3743 16.5755 57.2637 16.25C57.153 15.9212 56.9951 15.6364 56.79 15.3955C56.5817 15.1546 56.3278 14.9658 56.0283 14.8291C55.7321 14.6891 55.3968 14.6191 55.0225 14.6191C54.6514 14.6191 54.3177 14.6891 54.0215 14.8291C53.7253 14.9658 53.4746 15.1546 53.2695 15.3955C53.0612 15.6364 52.9017 15.9212 52.791 16.25C52.6803 16.5755 52.625 16.9287 52.625 17.3096ZM53.5283 17.417V17.3096C53.5283 17.0524 53.5592 16.8066 53.6211 16.5723C53.6829 16.3346 53.7773 16.1263 53.9043 15.9473C54.028 15.7682 54.1826 15.6266 54.3682 15.5225C54.5537 15.415 54.7718 15.3613 55.0225 15.3613C55.2731 15.3613 55.4912 15.415 55.6768 15.5225C55.8656 15.6266 56.0234 15.7682 56.1504 15.9473C56.2741 16.1263 56.3669 16.3346 56.4287 16.5723C56.4938 16.8066 56.5264 17.0524 56.5264 17.3096V17.417C56.5264 17.6774 56.4954 17.9264 56.4336 18.1641C56.3717 18.3984 56.279 18.6051 56.1553 18.7842C56.0283 18.9632 55.8704 19.1048 55.6816 19.209C55.4961 19.3132 55.2796 19.3652 55.0322 19.3652C54.7816 19.3652 54.5618 19.3132 54.373 19.209C54.1842 19.1048 54.028 18.9632 53.9043 18.7842C53.7773 18.6051 53.6829 18.3984 53.6211 18.1641C53.5592 17.9264 53.5283 17.6774 53.5283 17.417ZM60.7139 17.3145V17.417C60.7139 17.7946 60.7643 18.1478 60.8652 18.4766C60.9661 18.8021 61.1077 19.0853 61.29 19.3262C61.4723 19.5671 61.6921 19.7559 61.9492 19.8926C62.2096 20.0293 62.4993 20.0977 62.8184 20.0977C63.1439 20.0977 63.4287 20.0423 63.6729 19.9316C63.917 19.821 64.127 19.6582 64.3027 19.4434L64.3418 20H65.1719V12.5H64.2686V15.2393C64.096 15.0374 63.891 14.8844 63.6533 14.7803C63.4189 14.6729 63.1439 14.6191 62.8281 14.6191C62.5059 14.6191 62.2145 14.6859 61.9541 14.8193C61.6937 14.9528 61.4723 15.1383 61.29 15.376C61.1045 15.6136 60.9613 15.8984 60.8604 16.2305C60.7627 16.5592 60.7139 16.9206 60.7139 17.3145ZM61.6172 17.417V17.3145C61.6172 17.0573 61.6449 16.8132 61.7002 16.582C61.7555 16.3477 61.8418 16.141 61.959 15.9619C62.0729 15.7861 62.2194 15.6462 62.3984 15.542C62.5807 15.4378 62.7988 15.3857 63.0527 15.3857C63.349 15.3857 63.5964 15.4557 63.7949 15.5957C63.9935 15.7324 64.1514 15.9082 64.2686 16.123V18.5742C64.1514 18.8053 63.9935 18.9893 63.7949 19.126C63.5964 19.2627 63.3457 19.3311 63.043 19.3311C62.7923 19.3311 62.5775 19.2806 62.3984 19.1797C62.2194 19.0755 62.0729 18.9355 61.959 18.7598C61.8418 18.584 61.7555 18.3805 61.7002 18.1494C61.6449 17.9183 61.6172 17.6742 61.6172 17.417Z" fill="#707070"/>
<path d="M126.8 14.2607V13.5186H123.064V14.2607H126.8ZM131.785 17V9.89062H131.712L129.021 10.9258V11.751L130.882 11.043V17H131.785ZM139.324 14.2803V12.6152C139.324 12.1628 139.272 11.7624 139.168 11.4141C139.064 11.0625 138.914 10.7663 138.719 10.5254C138.52 10.2845 138.278 10.1022 137.991 9.97852C137.708 9.85156 137.384 9.78809 137.02 9.78809C136.658 9.78809 136.334 9.85156 136.048 9.97852C135.765 10.1022 135.525 10.2845 135.33 10.5254C135.132 10.7663 134.98 11.0625 134.876 11.4141C134.772 11.7624 134.72 12.1628 134.72 12.6152V14.2803C134.72 14.7327 134.772 15.1348 134.876 15.4863C134.98 15.8346 135.132 16.1276 135.33 16.3652C135.529 16.6094 135.771 16.7933 136.058 16.917C136.344 17.0374 136.668 17.0977 137.029 17.0977C137.394 17.0977 137.718 17.0358 138.001 16.9121C138.284 16.7884 138.523 16.6061 138.719 16.3652C138.914 16.1276 139.064 15.8346 139.168 15.4863C139.272 15.1348 139.324 14.7327 139.324 14.2803ZM135.628 14.0996C135.628 14.015 135.628 13.932 135.628 13.8506C135.628 13.7692 135.628 13.6878 135.628 13.6064V12.415C135.628 12.083 135.66 11.7917 135.726 11.541C135.794 11.2871 135.896 11.0804 136.033 10.9209C136.147 10.7939 136.285 10.6979 136.448 10.6328C136.614 10.5645 136.805 10.5303 137.02 10.5303C137.231 10.5303 137.417 10.5612 137.576 10.623C137.739 10.6849 137.876 10.7777 137.986 10.9014C138.1 11.0218 138.19 11.1732 138.255 11.3555C138.323 11.5345 138.37 11.7412 138.396 11.9756L135.628 14.0996ZM138.416 14.4707C138.416 14.819 138.38 15.1217 138.309 15.3789C138.24 15.6361 138.131 15.8444 137.981 16.0039C137.871 16.1211 137.736 16.2106 137.576 16.2725C137.417 16.3343 137.234 16.3652 137.029 16.3652C136.834 16.3652 136.658 16.3376 136.502 16.2822C136.346 16.2236 136.212 16.139 136.102 16.0283C135.981 15.9111 135.883 15.763 135.809 15.584C135.734 15.4017 135.682 15.1917 135.652 14.9541L138.416 12.8398C138.416 12.931 138.416 13.0465 138.416 13.1865C138.416 13.3232 138.416 13.416 138.416 13.4648V14.4707Z" fill="#F31212"/>
<path d="M116.101 17.1268L116.894 16.5628L115.33 15.1133L118.689 10.9714L118.405 9.08467L116.717 9.14382L113.63 13.5379L111.93 11.9624L111.711 12.8421L113.479 14.4806L110.925 17.7441L112.081 18.8155L114.499 15.4258L116.101 17.1268Z" fill="#FFEC44"/>
<path d="M41.5 91.5L70.5 84L108.099 89.6269L113.5 105.5L106 116.134L96.5 117L89 118.343L84.1788 120L78.6159 118.343L75.2781 113.925L61.9272 116.134L56.9205 113.925L48.5762 118.343L38.5629 112.821L36.894 103.985L33 100.119L41.5 91.5Z" fill="#AA6600"/>
<path d="M100.654 111L48.2308 103.688L46 76L104 92L100.654 111Z" fill="#FFE2B6"/>
<path d="M52.1346 67.069L46 76L104 92L86.1538 61H64.4038L52.1346 67.069Z" fill="#FFC877"/>
<path d="M47.5 80.5L46 76L48 75L56.5 73L66.5 76.5L79 75L88 77.5L90.5 83L98 89L104 92L103 98L101.5 94.5L99 93L95.5 95.5L90.5 96L83 92L78 89L73.5 91L68.5 90.5L66 87L62 83L58.5 88L56.5 83H53L51 80.5H47.5Z" fill="#AA6600"/>
<path d="M56.5 91L58 89L59 91L58 92.5L56.5 91Z" fill="#AA6600"/>
<path d="M70 93.5V92.5L70.5 93L70 93.5Z" fill="#AA6600"/>
<path d="M88 99L89.5 97L91.5 99L90 100.5L88 99Z" fill="#AA6600"/>
<path d="M63.5013 66.049L67.9483 63.3022L68.8981 63.1623L68.4344 61.6621L67.9707 60.162L69.5685 57.8352L69.8851 57.7885L68.4456 60.092L69.6248 62.8809L69.8478 63.0223L75.2753 66.9278L73.9791 71.3015L68.4315 73.1648L63.6298 70.2127L63.5013 66.049Z" fill="#E91717"/>
</svg>
