<svg width="150" height="200" viewBox="0 0 150 200" fill="none" xmlns="http://www.w3.org/2000/svg">
<rect width="150" height="200" fill="white"/>
<path d="M17.295 152.075C17.095 152.075 16.8967 152.057 16.7 152.02C16.5067 151.987 16.3483 151.94 16.225 151.88V151.42C16.545 151.57 16.89 151.645 17.26 151.645C17.78 151.645 18.04 151.47 18.04 151.12C18.04 151 18.0117 150.903 17.955 150.83C17.8983 150.757 17.8167 150.693 17.71 150.64C17.6033 150.583 17.43 150.507 17.19 150.41C16.86 150.277 16.6217 150.13 16.475 149.97C16.3283 149.81 16.255 149.608 16.255 149.365C16.255 149.182 16.305 149.02 16.405 148.88C16.505 148.737 16.645 148.627 16.825 148.55C17.005 148.47 17.2117 148.43 17.445 148.43C17.635 148.43 17.8067 148.445 17.96 148.475C18.1133 148.505 18.2633 148.553 18.41 148.62V149.06C18.12 148.93 17.8267 148.865 17.53 148.865C17.29 148.865 17.1067 148.908 16.98 148.995C16.8533 149.082 16.79 149.205 16.79 149.365C16.79 149.475 16.8167 149.568 16.87 149.645C16.9267 149.718 17.0083 149.785 17.115 149.845C17.225 149.902 17.3867 149.973 17.6 150.06C17.8367 150.157 18.0233 150.248 18.16 150.335C18.2967 150.422 18.4 150.528 18.47 150.655C18.5433 150.778 18.58 150.933 18.58 151.12C18.58 151.423 18.4717 151.658 18.255 151.825C18.0383 151.992 17.7183 152.075 17.295 152.075ZM20.777 152.075C20.5336 152.075 20.3453 152.005 20.212 151.865C20.082 151.725 20.017 151.527 20.017 151.27V149.99H19.652V149.6H20.017V148.88H20.527V149.6H21.117V149.99H20.527V151.235C20.527 151.395 20.557 151.508 20.617 151.575C20.6803 151.642 20.7936 151.675 20.957 151.675C21.0536 151.675 21.1503 151.653 21.247 151.61V152.01C21.1203 152.053 20.9636 152.075 20.777 152.075ZM22.6221 149.6H23.1121V150.03C23.2121 149.883 23.3521 149.775 23.5321 149.705C23.7154 149.635 23.9271 149.6 24.1671 149.6V149.995C23.9104 149.995 23.6904 150.037 23.5071 150.12C23.3237 150.203 23.1971 150.335 23.1271 150.515V152H22.6221V149.6ZM26.1545 152.075C25.8645 152.075 25.6312 152.002 25.4545 151.855C25.2812 151.705 25.1945 151.503 25.1945 151.25C25.1945 150.983 25.2779 150.778 25.4445 150.635C25.6145 150.488 25.8545 150.415 26.1645 150.415C26.4945 150.415 26.7745 150.482 27.0045 150.615V150.49C27.0045 150.3 26.9462 150.16 26.8295 150.07C26.7162 149.977 26.5362 149.93 26.2895 149.93C26.1429 149.93 25.9995 149.945 25.8595 149.975C25.7229 150.002 25.5995 150.04 25.4895 150.09V149.68C25.5895 149.633 25.7195 149.597 25.8795 149.57C26.0395 149.54 26.1945 149.525 26.3445 149.525C26.7412 149.525 27.0345 149.613 27.2245 149.79C27.4179 149.963 27.5145 150.205 27.5145 150.515V152H27.0395V151.73C26.9362 151.843 26.8129 151.93 26.6695 151.99C26.5295 152.047 26.3579 152.075 26.1545 152.075ZM26.2795 151.69C26.4395 151.69 26.5845 151.658 26.7145 151.595C26.8445 151.532 26.9412 151.443 27.0045 151.33V151.005C26.7879 150.865 26.5462 150.795 26.2795 150.795C26.0862 150.795 25.9412 150.833 25.8445 150.91C25.7512 150.983 25.7045 151.097 25.7045 151.25C25.7045 151.543 25.8962 151.69 26.2795 151.69ZM28.6678 149.6H29.1828L29.7228 151.38L30.2578 149.6H30.7128L31.2478 151.38L31.7878 149.6H32.3078L31.5278 152H31.0428L30.4878 150.21L29.9328 152H29.4428L28.6678 149.6ZM35.2496 152.075C35.0329 152.075 34.8446 152.042 34.6846 151.975C34.5279 151.905 34.3829 151.797 34.2496 151.65V152H33.7596V148.305H34.2646V149.92C34.3746 149.79 34.5162 149.692 34.6896 149.625C34.8629 149.558 35.0496 149.525 35.2496 149.525C35.4896 149.525 35.7046 149.58 35.8946 149.69C36.0879 149.797 36.2379 149.947 36.3446 150.14C36.4546 150.333 36.5096 150.555 36.5096 150.805C36.5096 151.058 36.4546 151.282 36.3446 151.475C36.2379 151.665 36.0879 151.813 35.8946 151.92C35.7046 152.023 35.4896 152.075 35.2496 152.075ZM35.1346 151.675C35.2979 151.675 35.4446 151.64 35.5746 151.57C35.7079 151.497 35.8112 151.393 35.8846 151.26C35.9612 151.127 35.9996 150.975 35.9996 150.805C35.9996 150.635 35.9612 150.483 35.8846 150.35C35.8112 150.217 35.7079 150.113 35.5746 150.04C35.4446 149.967 35.2979 149.93 35.1346 149.93C34.9312 149.93 34.7496 149.985 34.5896 150.095C34.4296 150.205 34.3212 150.352 34.2646 150.535V151.075C34.3279 151.258 34.4362 151.405 34.5896 151.515C34.7462 151.622 34.9279 151.675 35.1346 151.675ZM39.2804 152.075C38.837 152.075 38.4887 151.965 38.2354 151.745C37.9854 151.522 37.8604 151.208 37.8604 150.805C37.8604 150.412 37.972 150.1 38.1954 149.87C38.422 149.64 38.7437 149.525 39.1604 149.525C39.437 149.525 39.672 149.578 39.8654 149.685C40.0587 149.788 40.2037 149.933 40.3004 150.12C40.4004 150.303 40.4504 150.513 40.4504 150.75V151H38.3404C38.357 151.227 38.452 151.397 38.6254 151.51C38.802 151.62 39.0404 151.675 39.3404 151.675C39.4937 151.675 39.6487 151.662 39.8054 151.635C39.962 151.605 40.1004 151.567 40.2204 151.52V151.925C40.1137 151.968 39.972 152.003 39.7954 152.03C39.622 152.06 39.4504 152.075 39.2804 152.075ZM39.9754 150.645C39.9687 150.418 39.8937 150.243 39.7504 150.12C39.6104 149.993 39.4104 149.93 39.1504 149.93C38.897 149.93 38.7004 149.995 38.5604 150.125C38.4204 150.255 38.347 150.428 38.3404 150.645H39.9754ZM41.9023 149.6H42.3923V150.03C42.4923 149.883 42.6323 149.775 42.8123 149.705C42.9957 149.635 43.2073 149.6 43.4473 149.6V149.995C43.1907 149.995 42.9707 150.037 42.7873 150.12C42.604 150.203 42.4773 150.335 42.4073 150.515V152H41.9023V149.6ZM44.775 149.6H45.265V150.03C45.365 149.883 45.505 149.775 45.685 149.705C45.8683 149.635 46.08 149.6 46.32 149.6V149.995C46.0633 149.995 45.8433 150.037 45.66 150.12C45.4767 150.203 45.35 150.335 45.28 150.515V152H44.775V149.6ZM47.9671 149.13C47.8837 149.13 47.8137 149.102 47.7571 149.045C47.7004 148.988 47.6721 148.918 47.6721 148.835C47.6721 148.752 47.7004 148.682 47.7571 148.625C47.8137 148.568 47.8837 148.54 47.9671 148.54C48.0537 148.54 48.1254 148.568 48.1821 148.625C48.2421 148.682 48.2721 148.752 48.2721 148.835C48.2721 148.918 48.2421 148.988 48.1821 149.045C48.1254 149.102 48.0537 149.13 47.9671 149.13ZM47.7121 149.6H48.2271V152H47.7121V149.6ZM51.1421 152.075C50.6987 152.075 50.3504 151.965 50.0971 151.745C49.8471 151.522 49.7221 151.208 49.7221 150.805C49.7221 150.412 49.8337 150.1 50.0571 149.87C50.2837 149.64 50.6054 149.525 51.0221 149.525C51.2987 149.525 51.5337 149.578 51.7271 149.685C51.9204 149.788 52.0654 149.933 52.1621 150.12C52.2621 150.303 52.3121 150.513 52.3121 150.75V151H50.2021C50.2187 151.227 50.3137 151.397 50.4871 151.51C50.6637 151.62 50.9021 151.675 51.2021 151.675C51.3554 151.675 51.5104 151.662 51.6671 151.635C51.8237 151.605 51.9621 151.567 52.0821 151.52V151.925C51.9754 151.968 51.8337 152.003 51.6571 152.03C51.4837 152.06 51.3121 152.075 51.1421 152.075ZM51.8371 150.645C51.8304 150.418 51.7554 150.243 51.6121 150.12C51.4721 149.993 51.2721 149.93 51.0121 149.93C50.7587 149.93 50.5621 149.995 50.4221 150.125C50.2821 150.255 50.2087 150.428 50.2021 150.645H51.8371ZM54.6491 152.075C54.4824 152.075 54.3057 152.053 54.1191 152.01C53.9324 151.97 53.7857 151.915 53.6791 151.845V151.415C53.8091 151.492 53.9591 151.555 54.1291 151.605C54.2991 151.652 54.4641 151.675 54.6241 151.675C54.8041 151.675 54.9357 151.653 55.0191 151.61C55.1024 151.567 55.1441 151.497 55.1441 151.4C55.1441 151.327 55.1241 151.268 55.0841 151.225C55.0474 151.178 54.9824 151.137 54.8891 151.1C54.7991 151.063 54.6624 151.02 54.4791 150.97C54.2824 150.913 54.1257 150.857 54.0091 150.8C53.8957 150.74 53.8091 150.665 53.7491 150.575C53.6924 150.485 53.6641 150.368 53.6641 150.225C53.6641 149.995 53.7541 149.822 53.9341 149.705C54.1174 149.585 54.3624 149.525 54.6691 149.525C54.8291 149.525 54.9857 149.54 55.1391 149.57C55.2924 149.6 55.4157 149.642 55.5091 149.695V150.115C55.4124 150.058 55.2924 150.013 55.1491 149.98C55.0091 149.947 54.8657 149.93 54.7191 149.93C54.5424 149.93 54.4074 149.952 54.3141 149.995C54.2207 150.038 54.1741 150.115 54.1741 150.225C54.1741 150.295 54.1941 150.352 54.2341 150.395C54.2741 150.438 54.3374 150.477 54.4241 150.51C54.5141 150.54 54.6557 150.58 54.8491 150.63C55.1524 150.713 55.3624 150.812 55.4791 150.925C55.5991 151.038 55.6591 151.195 55.6591 151.395C55.6591 151.602 55.5741 151.767 55.4041 151.89C55.2341 152.013 54.9824 152.075 54.6491 152.075ZM60.7209 152.075C60.4309 152.075 60.1976 152.002 60.0209 151.855C59.8476 151.705 59.7609 151.503 59.7609 151.25C59.7609 150.983 59.8443 150.778 60.0109 150.635C60.1809 150.488 60.4209 150.415 60.7309 150.415C61.0609 150.415 61.3409 150.482 61.5709 150.615V150.49C61.5709 150.3 61.5126 150.16 61.3959 150.07C61.2826 149.977 61.1026 149.93 60.8559 149.93C60.7093 149.93 60.5659 149.945 60.4259 149.975C60.2893 150.002 60.1659 150.04 60.0559 150.09V149.68C60.1559 149.633 60.2859 149.597 60.4459 149.57C60.6059 149.54 60.7609 149.525 60.9109 149.525C61.3076 149.525 61.6009 149.613 61.7909 149.79C61.9843 149.963 62.0809 150.205 62.0809 150.515V152H61.6059V151.73C61.5026 151.843 61.3793 151.93 61.2359 151.99C61.0959 152.047 60.9243 152.075 60.7209 152.075ZM60.8459 151.69C61.0059 151.69 61.1509 151.658 61.2809 151.595C61.4109 151.532 61.5076 151.443 61.5709 151.33V151.005C61.3543 150.865 61.1126 150.795 60.8459 150.795C60.6526 150.795 60.5076 150.833 60.4109 150.91C60.3176 150.983 60.2709 151.097 60.2709 151.25C60.2709 151.543 60.4626 151.69 60.8459 151.69ZM63.6076 149.6H64.0976V150.03C64.1976 149.883 64.3376 149.775 64.5176 149.705C64.7009 149.635 64.9126 149.6 65.1526 149.6V149.995C64.8959 149.995 64.6759 150.037 64.4926 150.12C64.3093 150.203 64.1826 150.335 64.1126 150.515V152H63.6076V149.6ZM67.6733 152.075C67.23 152.075 66.8817 151.965 66.6283 151.745C66.3783 151.522 66.2533 151.208 66.2533 150.805C66.2533 150.412 66.365 150.1 66.5883 149.87C66.815 149.64 67.1367 149.525 67.5533 149.525C67.83 149.525 68.065 149.578 68.2583 149.685C68.4517 149.788 68.5967 149.933 68.6933 150.12C68.7933 150.303 68.8433 150.513 68.8433 150.75V151H66.7333C66.75 151.227 66.845 151.397 67.0183 151.51C67.195 151.62 67.4333 151.675 67.7333 151.675C67.8867 151.675 68.0417 151.662 68.1983 151.635C68.355 151.605 68.4933 151.567 68.6133 151.52V151.925C68.5067 151.968 68.365 152.003 68.1883 152.03C68.015 152.06 67.8433 152.075 67.6733 152.075ZM68.3683 150.645C68.3617 150.418 68.2867 150.243 68.1433 150.12C68.0033 149.993 67.8033 149.93 67.5433 149.93C67.29 149.93 67.0933 149.995 66.9533 150.125C66.8133 150.255 66.74 150.428 66.7333 150.645H68.3683ZM70.2953 149.6H70.7853V149.945C70.8986 149.802 71.037 149.697 71.2003 149.63C71.367 149.56 71.5403 149.525 71.7203 149.525C72.0403 149.525 72.2786 149.61 72.4353 149.78C72.592 149.95 72.6703 150.178 72.6703 150.465V152H72.1653V150.515C72.1653 150.125 71.9786 149.93 71.6053 149.93C71.4453 149.93 71.2953 149.968 71.1553 150.045C71.0186 150.118 70.9003 150.232 70.8003 150.385V152H70.2953V149.6ZM74.4234 148.43H74.9234L74.5284 149.405H74.0934L74.4234 148.43ZM77.2977 152.075C77.0543 152.075 76.866 152.005 76.7327 151.865C76.6027 151.725 76.5377 151.527 76.5377 151.27V149.99H76.1727V149.6H76.5377V148.88H77.0477V149.6H77.6377V149.99H77.0477V151.235C77.0477 151.395 77.0777 151.508 77.1377 151.575C77.201 151.642 77.3143 151.675 77.4777 151.675C77.5743 151.675 77.671 151.653 77.7677 151.61V152.01C77.641 152.053 77.4843 152.075 77.2977 152.075ZM82.7534 152.075C82.4634 152.075 82.23 152.002 82.0534 151.855C81.88 151.705 81.7934 151.503 81.7934 151.25C81.7934 150.983 81.8767 150.778 82.0434 150.635C82.2134 150.488 82.4534 150.415 82.7634 150.415C83.0934 150.415 83.3734 150.482 83.6034 150.615V150.49C83.6034 150.3 83.545 150.16 83.4284 150.07C83.315 149.977 83.135 149.93 82.8884 149.93C82.7417 149.93 82.5984 149.945 82.4584 149.975C82.3217 150.002 82.1984 150.04 82.0884 150.09V149.68C82.1884 149.633 82.3184 149.597 82.4784 149.57C82.6384 149.54 82.7934 149.525 82.9434 149.525C83.34 149.525 83.6334 149.613 83.8234 149.79C84.0167 149.963 84.1134 150.205 84.1134 150.515V152H83.6384V151.73C83.535 151.843 83.4117 151.93 83.2684 151.99C83.1284 152.047 82.9567 152.075 82.7534 152.075ZM82.8784 151.69C83.0384 151.69 83.1834 151.658 83.3134 151.595C83.4434 151.532 83.54 151.443 83.6034 151.33V151.005C83.3867 150.865 83.145 150.795 82.8784 150.795C82.685 150.795 82.54 150.833 82.4434 150.91C82.35 150.983 82.3034 151.097 82.3034 151.25C82.3034 151.543 82.495 151.69 82.8784 151.69ZM86.8074 152.075C86.5407 152.075 86.3041 152.025 86.0974 151.925C85.8907 151.825 85.7291 151.68 85.6124 151.49C85.4991 151.297 85.4424 151.068 85.4424 150.805C85.4424 150.542 85.4991 150.315 85.6124 150.125C85.7291 149.932 85.8907 149.783 86.0974 149.68C86.3074 149.577 86.5474 149.525 86.8174 149.525C87.1841 149.525 87.4774 149.597 87.6974 149.74V150.155C87.4807 150.005 87.2041 149.93 86.8674 149.93C86.5941 149.93 86.3724 150.005 86.2024 150.155C86.0357 150.302 85.9524 150.518 85.9524 150.805C85.9524 151.092 86.0357 151.308 86.2024 151.455C86.3691 151.602 86.5874 151.675 86.8574 151.675C87.1941 151.675 87.4841 151.595 87.7274 151.435V151.845C87.6107 151.925 87.4774 151.983 87.3274 152.02C87.1807 152.057 87.0074 152.075 86.8074 152.075ZM90.1018 152.075C89.8584 152.075 89.6701 152.005 89.5368 151.865C89.4068 151.725 89.3418 151.527 89.3418 151.27V149.99H88.9768V149.6H89.3418V148.88H89.8518V149.6H90.4418V149.99H89.8518V151.235C89.8518 151.395 89.8818 151.508 89.9418 151.575C90.0051 151.642 90.1184 151.675 90.2818 151.675C90.3784 151.675 90.4751 151.653 90.5718 151.61V152.01C90.4451 152.053 90.2884 152.075 90.1018 152.075ZM92.8775 152.075C92.5541 152.075 92.3091 151.988 92.1425 151.815C91.9791 151.642 91.8975 151.41 91.8975 151.12V149.6H92.4025V151.1C92.4025 151.483 92.5941 151.675 92.9775 151.675C93.3141 151.675 93.5775 151.523 93.7675 151.22V149.6H94.2725V152H93.7825V151.66C93.6691 151.803 93.5341 151.908 93.3775 151.975C93.2241 152.042 93.0575 152.075 92.8775 152.075ZM96.6073 152.075C96.3173 152.075 96.0839 152.002 95.9073 151.855C95.7339 151.705 95.6473 151.503 95.6473 151.25C95.6473 150.983 95.7306 150.778 95.8973 150.635C96.0673 150.488 96.3073 150.415 96.6173 150.415C96.9473 150.415 97.2273 150.482 97.4573 150.615V150.49C97.4573 150.3 97.3989 150.16 97.2823 150.07C97.1689 149.977 96.9889 149.93 96.7423 149.93C96.5956 149.93 96.4523 149.945 96.3123 149.975C96.1756 150.002 96.0523 150.04 95.9423 150.09V149.68C96.0423 149.633 96.1723 149.597 96.3323 149.57C96.4923 149.54 96.6473 149.525 96.7973 149.525C97.1939 149.525 97.4873 149.613 97.6773 149.79C97.8706 149.963 97.9673 150.205 97.9673 150.515V152H97.4923V151.73C97.3889 151.843 97.2656 151.93 97.1223 151.99C96.9823 152.047 96.8106 152.075 96.6073 152.075ZM96.7323 151.69C96.8923 151.69 97.0373 151.658 97.1673 151.595C97.2973 151.532 97.3939 151.443 97.4573 151.33V151.005C97.2406 150.865 96.9989 150.795 96.7323 150.795C96.5389 150.795 96.3939 150.833 96.2973 150.91C96.2039 150.983 96.1573 151.097 96.1573 151.25C96.1573 151.543 96.3489 151.69 96.7323 151.69ZM99.4939 148.305H99.9989V152H99.4939V148.305ZM101.551 148.305H102.056V152H101.551V148.305ZM104.118 152.99C103.938 152.99 103.788 152.972 103.668 152.935V152.54C103.755 152.573 103.862 152.59 103.988 152.59C104.105 152.59 104.197 152.56 104.263 152.5C104.33 152.443 104.39 152.35 104.443 152.22L104.558 151.94L103.508 149.6H104.028L104.828 151.445L105.573 149.6H106.093L105.013 152.27C104.913 152.52 104.793 152.702 104.653 152.815C104.517 152.932 104.338 152.99 104.118 152.99ZM111.684 152.075C111.467 152.075 111.279 152.042 111.119 151.975C110.962 151.905 110.817 151.797 110.684 151.65V152H110.194V148.305H110.699V149.92C110.809 149.79 110.95 149.692 111.124 149.625C111.297 149.558 111.484 149.525 111.684 149.525C111.924 149.525 112.139 149.58 112.329 149.69C112.522 149.797 112.672 149.947 112.779 150.14C112.889 150.333 112.944 150.555 112.944 150.805C112.944 151.058 112.889 151.282 112.779 151.475C112.672 151.665 112.522 151.813 112.329 151.92C112.139 152.023 111.924 152.075 111.684 152.075ZM111.569 151.675C111.732 151.675 111.879 151.64 112.009 151.57C112.142 151.497 112.245 151.393 112.319 151.26C112.395 151.127 112.434 150.975 112.434 150.805C112.434 150.635 112.395 150.483 112.319 150.35C112.245 150.217 112.142 150.113 112.009 150.04C111.879 149.967 111.732 149.93 111.569 149.93C111.365 149.93 111.184 149.985 111.024 150.095C110.864 150.205 110.755 150.352 110.699 150.535V151.075C110.762 151.258 110.87 151.405 111.024 151.515C111.18 151.622 111.362 151.675 111.569 151.675ZM115.714 152.075C115.271 152.075 114.923 151.965 114.669 151.745C114.419 151.522 114.294 151.208 114.294 150.805C114.294 150.412 114.406 150.1 114.629 149.87C114.856 149.64 115.178 149.525 115.594 149.525C115.871 149.525 116.106 149.578 116.299 149.685C116.493 149.788 116.638 149.933 116.734 150.12C116.834 150.303 116.884 150.513 116.884 150.75V151H114.774C114.791 151.227 114.886 151.397 115.059 151.51C115.236 151.62 115.474 151.675 115.774 151.675C115.928 151.675 116.083 151.662 116.239 151.635C116.396 151.605 116.534 151.567 116.654 151.52V151.925C116.548 151.968 116.406 152.003 116.229 152.03C116.056 152.06 115.884 152.075 115.714 152.075ZM116.409 150.645C116.403 150.418 116.328 150.243 116.184 150.12C116.044 149.993 115.844 149.93 115.584 149.93C115.331 149.93 115.134 149.995 114.994 150.125C114.854 150.255 114.781 150.428 114.774 150.645H116.409ZM118.336 149.6H118.826V150.03C118.926 149.883 119.066 149.775 119.246 149.705C119.43 149.635 119.641 149.6 119.881 149.6V149.995C119.625 149.995 119.405 150.037 119.221 150.12C119.038 150.203 118.911 150.335 118.841 150.515V152H118.336V149.6ZM121.209 149.6H121.699V150.03C121.799 149.883 121.939 149.775 122.119 149.705C122.302 149.635 122.514 149.6 122.754 149.6V149.995C122.497 149.995 122.277 150.037 122.094 150.12C121.911 150.203 121.784 150.335 121.714 150.515V152H121.209V149.6ZM124.401 149.13C124.318 149.13 124.248 149.102 124.191 149.045C124.134 148.988 124.106 148.918 124.106 148.835C124.106 148.752 124.134 148.682 124.191 148.625C124.248 148.568 124.318 148.54 124.401 148.54C124.488 148.54 124.559 148.568 124.616 148.625C124.676 148.682 124.706 148.752 124.706 148.835C124.706 148.918 124.676 148.988 124.616 149.045C124.559 149.102 124.488 149.13 124.401 149.13ZM124.146 149.6H124.661V152H124.146V149.6ZM127.576 152.075C127.133 152.075 126.784 151.965 126.531 151.745C126.281 151.522 126.156 151.208 126.156 150.805C126.156 150.412 126.268 150.1 126.491 149.87C126.718 149.64 127.039 149.525 127.456 149.525C127.733 149.525 127.968 149.578 128.161 149.685C128.354 149.788 128.499 149.933 128.596 150.12C128.696 150.303 128.746 150.513 128.746 150.75V151H126.636C126.653 151.227 126.748 151.397 126.921 151.51C127.098 151.62 127.336 151.675 127.636 151.675C127.789 151.675 127.944 151.662 128.101 151.635C128.258 151.605 128.396 151.567 128.516 151.52V151.925C128.409 151.968 128.268 152.003 128.091 152.03C127.918 152.06 127.746 152.075 127.576 152.075ZM128.271 150.645C128.264 150.418 128.189 150.243 128.046 150.12C127.906 149.993 127.706 149.93 127.446 149.93C127.193 149.93 126.996 149.995 126.856 150.125C126.716 150.255 126.643 150.428 126.636 150.645H128.271ZM131.083 152.075C130.916 152.075 130.74 152.053 130.553 152.01C130.366 151.97 130.22 151.915 130.113 151.845V151.415C130.243 151.492 130.393 151.555 130.563 151.605C130.733 151.652 130.898 151.675 131.058 151.675C131.238 151.675 131.37 151.653 131.453 151.61C131.536 151.567 131.578 151.497 131.578 151.4C131.578 151.327 131.558 151.268 131.518 151.225C131.481 151.178 131.416 151.137 131.323 151.1C131.233 151.063 131.096 151.02 130.913 150.97C130.716 150.913 130.56 150.857 130.443 150.8C130.33 150.74 130.243 150.665 130.183 150.575C130.126 150.485 130.098 150.368 130.098 150.225C130.098 149.995 130.188 149.822 130.368 149.705C130.551 149.585 130.796 149.525 131.103 149.525C131.263 149.525 131.42 149.54 131.573 149.57C131.726 149.6 131.85 149.642 131.943 149.695V150.115C131.846 150.058 131.726 150.013 131.583 149.98C131.443 149.947 131.3 149.93 131.153 149.93C130.976 149.93 130.841 149.952 130.748 149.995C130.655 150.038 130.608 150.115 130.608 150.225C130.608 150.295 130.628 150.352 130.668 150.395C130.708 150.438 130.771 150.477 130.858 150.51C130.948 150.54 131.09 150.58 131.283 150.63C131.586 150.713 131.796 150.812 131.913 150.925C132.033 151.038 132.093 151.195 132.093 151.395C132.093 151.602 132.008 151.767 131.838 151.89C131.668 152.013 131.416 152.075 131.083 152.075ZM17.185 160.075C16.895 160.075 16.6617 160.002 16.485 159.855C16.3117 159.705 16.225 159.503 16.225 159.25C16.225 158.983 16.3083 158.778 16.475 158.635C16.645 158.488 16.885 158.415 17.195 158.415C17.525 158.415 17.805 158.482 18.035 158.615V158.49C18.035 158.3 17.9767 158.16 17.86 158.07C17.7467 157.977 17.5667 157.93 17.32 157.93C17.1733 157.93 17.03 157.945 16.89 157.975C16.7533 158.002 16.63 158.04 16.52 158.09V157.68C16.62 157.633 16.75 157.597 16.91 157.57C17.07 157.54 17.225 157.525 17.375 157.525C17.7717 157.525 18.065 157.613 18.255 157.79C18.4483 157.963 18.545 158.205 18.545 158.515V160H18.07V159.73C17.9667 159.843 17.8433 159.93 17.7 159.99C17.56 160.047 17.3883 160.075 17.185 160.075ZM17.31 159.69C17.47 159.69 17.615 159.658 17.745 159.595C17.875 159.532 17.9717 159.443 18.035 159.33V159.005C17.8183 158.865 17.5767 158.795 17.31 158.795C17.1167 158.795 16.9717 158.833 16.875 158.91C16.7817 158.983 16.735 159.097 16.735 159.25C16.735 159.543 16.9267 159.69 17.31 159.69ZM20.8697 160.075C20.6264 160.075 20.4381 160.005 20.3047 159.865C20.1747 159.725 20.1097 159.527 20.1097 159.27V157.99H19.7447V157.6H20.1097V156.88H20.6197V157.6H21.2097V157.99H20.6197V159.235C20.6197 159.395 20.6497 159.508 20.7097 159.575C20.7731 159.642 20.8864 159.675 21.0497 159.675C21.1464 159.675 21.2431 159.653 21.3397 159.61V160.01C21.2131 160.053 21.0564 160.075 20.8697 160.075ZM26.3254 160.075C26.0354 160.075 25.8021 160.002 25.6254 159.855C25.4521 159.705 25.3654 159.503 25.3654 159.25C25.3654 158.983 25.4488 158.778 25.6154 158.635C25.7854 158.488 26.0254 158.415 26.3354 158.415C26.6654 158.415 26.9454 158.482 27.1754 158.615V158.49C27.1754 158.3 27.1171 158.16 27.0004 158.07C26.8871 157.977 26.7071 157.93 26.4604 157.93C26.3138 157.93 26.1704 157.945 26.0304 157.975C25.8938 158.002 25.7704 158.04 25.6604 158.09V157.68C25.7604 157.633 25.8904 157.597 26.0504 157.57C26.2104 157.54 26.3654 157.525 26.5154 157.525C26.9121 157.525 27.2054 157.613 27.3954 157.79C27.5888 157.963 27.6854 158.205 27.6854 158.515V160H27.2104V159.73C27.1071 159.843 26.9838 159.93 26.8404 159.99C26.7004 160.047 26.5288 160.075 26.3254 160.075ZM26.4504 159.69C26.6104 159.69 26.7554 159.658 26.8854 159.595C27.0154 159.532 27.1121 159.443 27.1754 159.33V159.005C26.9588 158.865 26.7171 158.795 26.4504 158.795C26.2571 158.795 26.1121 158.833 26.0154 158.91C25.9221 158.983 25.8754 159.097 25.8754 159.25C25.8754 159.543 26.0671 159.69 26.4504 159.69ZM29.2121 156.305H29.7171V160H29.2121V156.305ZM31.2693 156.305H31.7743V160H31.2693V156.305ZM33.4616 160C33.3949 160 33.3382 159.978 33.2916 159.935C33.2482 159.888 33.2266 159.832 33.2266 159.765C33.2266 159.698 33.2482 159.642 33.2916 159.595C33.3382 159.548 33.3949 159.525 33.4616 159.525C33.5282 159.525 33.5849 159.548 33.6316 159.595C33.6782 159.642 33.7016 159.698 33.7016 159.765C33.7016 159.832 33.6782 159.888 33.6316 159.935C33.5849 159.978 33.5282 160 33.4616 160ZM38.785 156.935H37.7V156.505H40.385V156.935H39.3V160H38.785V156.935ZM41.7346 156.305H42.2396V157.93C42.4696 157.66 42.7762 157.525 43.1596 157.525C43.4796 157.525 43.7179 157.61 43.8746 157.78C44.0312 157.95 44.1096 158.178 44.1096 158.465V160H43.6046V158.515C43.6046 158.125 43.4179 157.93 43.0446 157.93C42.8846 157.93 42.7346 157.968 42.5946 158.045C42.4579 158.118 42.3396 158.232 42.2396 158.385V160H41.7346V156.305ZM46.9526 160.075C46.5093 160.075 46.161 159.965 45.9076 159.745C45.6576 159.522 45.5326 159.208 45.5326 158.805C45.5326 158.412 45.6443 158.1 45.8676 157.87C46.0943 157.64 46.416 157.525 46.8326 157.525C47.1093 157.525 47.3443 157.578 47.5376 157.685C47.731 157.788 47.876 157.933 47.9726 158.12C48.0726 158.303 48.1226 158.513 48.1226 158.75V159H46.0126C46.0293 159.227 46.1243 159.397 46.2976 159.51C46.4743 159.62 46.7126 159.675 47.0126 159.675C47.166 159.675 47.321 159.662 47.4776 159.635C47.6343 159.605 47.7726 159.567 47.8926 159.52V159.925C47.786 159.968 47.6443 160.003 47.4676 160.03C47.2943 160.06 47.1226 160.075 46.9526 160.075ZM47.6476 158.645C47.641 158.418 47.566 158.243 47.4226 158.12C47.2826 157.993 47.0826 157.93 46.8226 157.93C46.5693 157.93 46.3726 157.995 46.2326 158.125C46.0926 158.255 46.0193 158.428 46.0126 158.645H47.6476ZM53.2102 160.075C53.0435 160.075 52.8669 160.053 52.6802 160.01C52.4935 159.97 52.3469 159.915 52.2402 159.845V159.415C52.3702 159.492 52.5202 159.555 52.6902 159.605C52.8602 159.652 53.0252 159.675 53.1852 159.675C53.3652 159.675 53.4969 159.653 53.5802 159.61C53.6635 159.567 53.7052 159.497 53.7052 159.4C53.7052 159.327 53.6852 159.268 53.6452 159.225C53.6085 159.178 53.5435 159.137 53.4502 159.1C53.3602 159.063 53.2235 159.02 53.0402 158.97C52.8435 158.913 52.6869 158.857 52.5702 158.8C52.4569 158.74 52.3702 158.665 52.3102 158.575C52.2535 158.485 52.2252 158.368 52.2252 158.225C52.2252 157.995 52.3152 157.822 52.4952 157.705C52.6785 157.585 52.9235 157.525 53.2302 157.525C53.3902 157.525 53.5469 157.54 53.7002 157.57C53.8535 157.6 53.9769 157.642 54.0702 157.695V158.115C53.9735 158.058 53.8535 158.013 53.7102 157.98C53.5702 157.947 53.4269 157.93 53.2802 157.93C53.1035 157.93 52.9685 157.952 52.8752 157.995C52.7819 158.038 52.7352 158.115 52.7352 158.225C52.7352 158.295 52.7552 158.352 52.7952 158.395C52.8352 158.438 52.8985 158.477 52.9852 158.51C53.0752 158.54 53.2169 158.58 53.4102 158.63C53.7135 158.713 53.9235 158.812 54.0402 158.925C54.1602 159.038 54.2202 159.195 54.2202 159.395C54.2202 159.602 54.1352 159.767 53.9652 159.89C53.7952 160.013 53.5435 160.075 53.2102 160.075ZM56.9915 160.075C56.5482 160.075 56.1998 159.965 55.9465 159.745C55.6965 159.522 55.5715 159.208 55.5715 158.805C55.5715 158.412 55.6832 158.1 55.9065 157.87C56.1332 157.64 56.4548 157.525 56.8715 157.525C57.1482 157.525 57.3832 157.578 57.5765 157.685C57.7698 157.788 57.9148 157.933 58.0115 158.12C58.1115 158.303 58.1615 158.513 58.1615 158.75V159H56.0515C56.0682 159.227 56.1632 159.397 56.3365 159.51C56.5132 159.62 56.7515 159.675 57.0515 159.675C57.2048 159.675 57.3598 159.662 57.5165 159.635C57.6732 159.605 57.8115 159.567 57.9315 159.52V159.925C57.8248 159.968 57.6832 160.003 57.5065 160.03C57.3332 160.06 57.1615 160.075 56.9915 160.075ZM57.6865 158.645C57.6798 158.418 57.6048 158.243 57.4615 158.12C57.3215 157.993 57.1215 157.93 56.8615 157.93C56.6082 157.93 56.4115 157.995 56.2715 158.125C56.1315 158.255 56.0582 158.428 56.0515 158.645H57.6865ZM60.9335 160.075C60.4901 160.075 60.1418 159.965 59.8885 159.745C59.6385 159.522 59.5135 159.208 59.5135 158.805C59.5135 158.412 59.6251 158.1 59.8485 157.87C60.0751 157.64 60.3968 157.525 60.8135 157.525C61.0901 157.525 61.3251 157.578 61.5185 157.685C61.7118 157.788 61.8568 157.933 61.9535 158.12C62.0535 158.303 62.1035 158.513 62.1035 158.75V159H59.9935C60.0101 159.227 60.1051 159.397 60.2785 159.51C60.4551 159.62 60.6935 159.675 60.9935 159.675C61.1468 159.675 61.3018 159.662 61.4585 159.635C61.6151 159.605 61.7535 159.567 61.8735 159.52V159.925C61.7668 159.968 61.6251 160.003 61.4485 160.03C61.2751 160.06 61.1035 160.075 60.9335 160.075ZM61.6285 158.645C61.6218 158.418 61.5468 158.243 61.4035 158.12C61.2635 157.993 61.0635 157.93 60.8035 157.93C60.5501 157.93 60.3535 157.995 60.2135 158.125C60.0735 158.255 60.0001 158.428 59.9935 158.645H61.6285ZM64.7155 160.075C64.4755 160.075 64.2588 160.023 64.0655 159.92C63.8755 159.813 63.7255 159.665 63.6155 159.475C63.5088 159.282 63.4555 159.058 63.4555 158.805C63.4555 158.555 63.5088 158.333 63.6155 158.14C63.7255 157.947 63.8755 157.797 64.0655 157.69C64.2588 157.58 64.4755 157.525 64.7155 157.525C65.1488 157.525 65.4771 157.657 65.7005 157.92V156.305H66.2055V160H65.7155V159.65C65.5821 159.797 65.4355 159.905 65.2755 159.975C65.1188 160.042 64.9321 160.075 64.7155 160.075ZM64.8305 159.675C65.0371 159.675 65.2171 159.622 65.3705 159.515C65.5271 159.405 65.6371 159.258 65.7005 159.075V158.535C65.6438 158.352 65.5355 158.205 65.3755 158.095C65.2188 157.985 65.0371 157.93 64.8305 157.93C64.6671 157.93 64.5188 157.967 64.3855 158.04C64.2555 158.113 64.1521 158.217 64.0755 158.35C64.0021 158.483 63.9655 158.635 63.9655 158.805C63.9655 158.975 64.0021 159.127 64.0755 159.26C64.1521 159.393 64.2555 159.497 64.3855 159.57C64.5188 159.64 64.6671 159.675 64.8305 159.675ZM68.6413 160.075C68.4746 160.075 68.2979 160.053 68.1113 160.01C67.9246 159.97 67.7779 159.915 67.6713 159.845V159.415C67.8013 159.492 67.9513 159.555 68.1213 159.605C68.2913 159.652 68.4563 159.675 68.6163 159.675C68.7963 159.675 68.9279 159.653 69.0113 159.61C69.0946 159.567 69.1363 159.497 69.1363 159.4C69.1363 159.327 69.1163 159.268 69.0763 159.225C69.0396 159.178 68.9746 159.137 68.8813 159.1C68.7913 159.063 68.6546 159.02 68.4713 158.97C68.2746 158.913 68.1179 158.857 68.0013 158.8C67.8879 158.74 67.8013 158.665 67.7413 158.575C67.6846 158.485 67.6563 158.368 67.6563 158.225C67.6563 157.995 67.7463 157.822 67.9263 157.705C68.1096 157.585 68.3546 157.525 68.6613 157.525C68.8213 157.525 68.9779 157.54 69.1313 157.57C69.2846 157.6 69.4079 157.642 69.5013 157.695V158.115C69.4046 158.058 69.2846 158.013 69.1413 157.98C69.0013 157.947 68.8579 157.93 68.7113 157.93C68.5346 157.93 68.3996 157.952 68.3063 157.995C68.2129 158.038 68.1663 158.115 68.1663 158.225C68.1663 158.295 68.1863 158.352 68.2263 158.395C68.2663 158.438 68.3296 158.477 68.4163 158.51C68.5063 158.54 68.6479 158.58 68.8413 158.63C69.1446 158.713 69.3546 158.812 69.4713 158.925C69.5913 159.038 69.6513 159.195 69.6513 159.395C69.6513 159.602 69.5663 159.767 69.3963 159.89C69.2263 160.013 68.9746 160.075 68.6413 160.075ZM74.7131 160.075C74.4231 160.075 74.1898 160.002 74.0131 159.855C73.8398 159.705 73.7531 159.503 73.7531 159.25C73.7531 158.983 73.8365 158.778 74.0031 158.635C74.1731 158.488 74.4131 158.415 74.7231 158.415C75.0531 158.415 75.3331 158.482 75.5631 158.615V158.49C75.5631 158.3 75.5048 158.16 75.3881 158.07C75.2748 157.977 75.0948 157.93 74.8481 157.93C74.7015 157.93 74.5581 157.945 74.4181 157.975C74.2815 158.002 74.1581 158.04 74.0481 158.09V157.68C74.1481 157.633 74.2781 157.597 74.4381 157.57C74.5981 157.54 74.7531 157.525 74.9031 157.525C75.2998 157.525 75.5931 157.613 75.7831 157.79C75.9765 157.963 76.0731 158.205 76.0731 158.515V160H75.5981V159.73C75.4948 159.843 75.3715 159.93 75.2281 159.99C75.0881 160.047 74.9165 160.075 74.7131 160.075ZM74.8381 159.69C74.9981 159.69 75.1431 159.658 75.2731 159.595C75.4031 159.532 75.4998 159.443 75.5631 159.33V159.005C75.3465 158.865 75.1048 158.795 74.8381 158.795C74.6448 158.795 74.4998 158.833 74.4031 158.91C74.3098 158.983 74.2631 159.097 74.2631 159.25C74.2631 159.543 74.4548 159.69 74.8381 159.69ZM77.5998 157.6H78.0898V158.03C78.1898 157.883 78.3298 157.775 78.5098 157.705C78.6931 157.635 78.9048 157.6 79.1448 157.6V157.995C78.8881 157.995 78.6681 158.037 78.4848 158.12C78.3015 158.203 78.1748 158.335 78.1048 158.515V160H77.5998V157.6ZM81.6655 160.075C81.2222 160.075 80.8738 159.965 80.6205 159.745C80.3705 159.522 80.2455 159.208 80.2455 158.805C80.2455 158.412 80.3572 158.1 80.5805 157.87C80.8072 157.64 81.1288 157.525 81.5455 157.525C81.8222 157.525 82.0572 157.578 82.2505 157.685C82.4438 157.788 82.5888 157.933 82.6855 158.12C82.7855 158.303 82.8355 158.513 82.8355 158.75V159H80.7255C80.7422 159.227 80.8372 159.397 81.0105 159.51C81.1872 159.62 81.4255 159.675 81.7255 159.675C81.8788 159.675 82.0338 159.662 82.1905 159.635C82.3472 159.605 82.4855 159.567 82.6055 159.52V159.925C82.4988 159.968 82.3572 160.003 82.1805 160.03C82.0072 160.06 81.8355 160.075 81.6655 160.075ZM82.3605 158.645C82.3538 158.418 82.2788 158.243 82.1355 158.12C81.9955 157.993 81.7955 157.93 81.5355 157.93C81.2822 157.93 81.0855 157.995 80.9455 158.125C80.8055 158.255 80.7322 158.428 80.7255 158.645H82.3605ZM87.8981 160.075C87.6081 160.075 87.3748 160.002 87.1981 159.855C87.0248 159.705 86.9381 159.503 86.9381 159.25C86.9381 158.983 87.0214 158.778 87.1881 158.635C87.3581 158.488 87.5981 158.415 87.9081 158.415C88.2381 158.415 88.5181 158.482 88.7481 158.615V158.49C88.7481 158.3 88.6898 158.16 88.5731 158.07C88.4598 157.977 88.2798 157.93 88.0331 157.93C87.8864 157.93 87.7431 157.945 87.6031 157.975C87.4664 158.002 87.3431 158.04 87.2331 158.09V157.68C87.3331 157.633 87.4631 157.597 87.6231 157.57C87.7831 157.54 87.9381 157.525 88.0881 157.525C88.4848 157.525 88.7781 157.613 88.9681 157.79C89.1614 157.963 89.2581 158.205 89.2581 158.515V160H88.7831V159.73C88.6798 159.843 88.5564 159.93 88.4131 159.99C88.2731 160.047 88.1014 160.075 87.8981 160.075ZM88.0231 159.69C88.1831 159.69 88.3281 159.658 88.4581 159.595C88.5881 159.532 88.6848 159.443 88.7481 159.33V159.005C88.5314 158.865 88.2898 158.795 88.0231 158.795C87.8298 158.795 87.6848 158.833 87.5881 158.91C87.4948 158.983 87.4481 159.097 87.4481 159.25C87.4481 159.543 87.6398 159.69 88.0231 159.69ZM91.9521 160.075C91.6854 160.075 91.4488 160.025 91.2421 159.925C91.0354 159.825 90.8738 159.68 90.7571 159.49C90.6438 159.297 90.5871 159.068 90.5871 158.805C90.5871 158.542 90.6438 158.315 90.7571 158.125C90.8738 157.932 91.0354 157.783 91.2421 157.68C91.4521 157.577 91.6921 157.525 91.9621 157.525C92.3288 157.525 92.6221 157.597 92.8421 157.74V158.155C92.6254 158.005 92.3488 157.93 92.0121 157.93C91.7388 157.93 91.5171 158.005 91.3471 158.155C91.1804 158.302 91.0971 158.518 91.0971 158.805C91.0971 159.092 91.1804 159.308 91.3471 159.455C91.5138 159.602 91.7321 159.675 92.0021 159.675C92.3388 159.675 92.6288 159.595 92.8721 159.435V159.845C92.7554 159.925 92.6221 159.983 92.4721 160.02C92.3254 160.057 92.1521 160.075 91.9521 160.075ZM95.2465 160.075C95.0031 160.075 94.8148 160.005 94.6815 159.865C94.5515 159.725 94.4865 159.527 94.4865 159.27V157.99H94.1215V157.6H94.4865V156.88H94.9965V157.6H95.5865V157.99H94.9965V159.235C94.9965 159.395 95.0265 159.508 95.0865 159.575C95.1498 159.642 95.2631 159.675 95.4265 159.675C95.5231 159.675 95.6198 159.653 95.7165 159.61V160.01C95.5898 160.053 95.4331 160.075 95.2465 160.075ZM98.0222 160.075C97.6989 160.075 97.4539 159.988 97.2872 159.815C97.1239 159.642 97.0422 159.41 97.0422 159.12V157.6H97.5472V159.1C97.5472 159.483 97.7389 159.675 98.1222 159.675C98.4589 159.675 98.7222 159.523 98.9122 159.22V157.6H99.4172V160H98.9272V159.66C98.8139 159.803 98.6789 159.908 98.5222 159.975C98.3689 160.042 98.2022 160.075 98.0222 160.075ZM101.752 160.075C101.462 160.075 101.229 160.002 101.052 159.855C100.879 159.705 100.792 159.503 100.792 159.25C100.792 158.983 100.875 158.778 101.042 158.635C101.212 158.488 101.452 158.415 101.762 158.415C102.092 158.415 102.372 158.482 102.602 158.615V158.49C102.602 158.3 102.544 158.16 102.427 158.07C102.314 157.977 102.134 157.93 101.887 157.93C101.74 157.93 101.597 157.945 101.457 157.975C101.32 158.002 101.197 158.04 101.087 158.09V157.68C101.187 157.633 101.317 157.597 101.477 157.57C101.637 157.54 101.792 157.525 101.942 157.525C102.339 157.525 102.632 157.613 102.822 157.79C103.015 157.963 103.112 158.205 103.112 158.515V160H102.637V159.73C102.534 159.843 102.41 159.93 102.267 159.99C102.127 160.047 101.955 160.075 101.752 160.075ZM101.877 159.69C102.037 159.69 102.182 159.658 102.312 159.595C102.442 159.532 102.539 159.443 102.602 159.33V159.005C102.385 158.865 102.144 158.795 101.877 158.795C101.684 158.795 101.539 158.833 101.442 158.91C101.349 158.983 101.302 159.097 101.302 159.25C101.302 159.543 101.494 159.69 101.877 159.69ZM104.639 156.305H105.144V160H104.639V156.305ZM106.696 156.305H107.201V160H106.696V156.305ZM109.263 160.99C109.083 160.99 108.933 160.972 108.813 160.935V160.54C108.9 160.573 109.006 160.59 109.133 160.59C109.25 160.59 109.341 160.56 109.408 160.5C109.475 160.443 109.535 160.35 109.588 160.22L109.703 159.94L108.653 157.6H109.173L109.973 159.445L110.718 157.6H111.238L110.158 160.27C110.058 160.52 109.938 160.702 109.798 160.815C109.661 160.932 109.483 160.99 109.263 160.99ZM116.263 160.075C116.02 160.075 115.832 160.005 115.698 159.865C115.568 159.725 115.503 159.527 115.503 159.27V157.99H115.138V157.6H115.503V156.88H116.013V157.6H116.603V157.99H116.013V159.235C116.013 159.395 116.043 159.508 116.103 159.575C116.167 159.642 116.28 159.675 116.443 159.675C116.54 159.675 116.637 159.653 116.733 159.61V160.01C116.607 160.053 116.45 160.075 116.263 160.075ZM118.108 156.305H118.613V157.93C118.843 157.66 119.15 157.525 119.533 157.525C119.853 157.525 120.092 157.61 120.248 157.78C120.405 157.95 120.483 158.178 120.483 158.465V160H119.978V158.515C119.978 158.125 119.792 157.93 119.418 157.93C119.258 157.93 119.108 157.968 118.968 158.045C118.832 158.118 118.713 158.232 118.613 158.385V160H118.108V156.305ZM123.326 160.075C122.883 160.075 122.535 159.965 122.281 159.745C122.031 159.522 121.906 159.208 121.906 158.805C121.906 158.412 122.018 158.1 122.241 157.87C122.468 157.64 122.79 157.525 123.206 157.525C123.483 157.525 123.718 157.578 123.911 157.685C124.105 157.788 124.25 157.933 124.346 158.12C124.446 158.303 124.496 158.513 124.496 158.75V159H122.386C122.403 159.227 122.498 159.397 122.671 159.51C122.848 159.62 123.086 159.675 123.386 159.675C123.54 159.675 123.695 159.662 123.851 159.635C124.008 159.605 124.146 159.567 124.266 159.52V159.925C124.16 159.968 124.018 160.003 123.841 160.03C123.668 160.06 123.496 160.075 123.326 160.075ZM124.021 158.645C124.015 158.418 123.94 158.243 123.796 158.12C123.656 157.993 123.456 157.93 123.196 157.93C122.943 157.93 122.746 157.995 122.606 158.125C122.466 158.255 122.393 158.428 122.386 158.645H124.021ZM16.49 165.99H16.125V165.6H16.49V165.13C16.49 164.853 16.5683 164.643 16.725 164.5C16.8817 164.353 17.0917 164.28 17.355 164.28C17.4917 164.28 17.62 164.3 17.74 164.34V164.76C17.6467 164.717 17.55 164.695 17.45 164.695C17.2933 164.695 17.1783 164.733 17.105 164.81C17.0317 164.883 16.995 165 16.995 165.16V165.6H17.595V165.99H16.995V168H16.49V165.99ZM18.9633 165.6H19.4533V166.03C19.5533 165.883 19.6933 165.775 19.8733 165.705C20.0566 165.635 20.2683 165.6 20.5083 165.6V165.995C20.2516 165.995 20.0316 166.037 19.8483 166.12C19.6649 166.203 19.5383 166.335 19.4683 166.515V168H18.9633V165.6ZM22.7909 168.075C22.4676 168.075 22.2226 167.988 22.0559 167.815C21.8926 167.642 21.8109 167.41 21.8109 167.12V165.6H22.3159V167.1C22.3159 167.483 22.5076 167.675 22.8909 167.675C23.2276 167.675 23.4909 167.523 23.6809 167.22V165.6H24.1859V168H23.6959V167.66C23.5826 167.803 23.4476 167.908 23.2909 167.975C23.1376 168.042 22.9709 168.075 22.7909 168.075ZM26.029 165.13C25.9457 165.13 25.8757 165.102 25.819 165.045C25.7623 164.988 25.734 164.918 25.734 164.835C25.734 164.752 25.7623 164.682 25.819 164.625C25.8757 164.568 25.9457 164.54 26.029 164.54C26.1157 164.54 26.1873 164.568 26.244 164.625C26.304 164.682 26.334 164.752 26.334 164.835C26.334 164.918 26.304 164.988 26.244 165.045C26.1873 165.102 26.1157 165.13 26.029 165.13ZM25.774 165.6H26.289V168H25.774V165.6ZM28.809 168.075C28.5657 168.075 28.3773 168.005 28.244 167.865C28.114 167.725 28.049 167.527 28.049 167.27V165.99H27.684V165.6H28.049V164.88H28.559V165.6H29.149V165.99H28.559V167.235C28.559 167.395 28.589 167.508 28.649 167.575C28.7123 167.642 28.8257 167.675 28.989 167.675C29.0857 167.675 29.1823 167.653 29.279 167.61V168.01C29.1523 168.053 28.9957 168.075 28.809 168.075ZM31.4414 168.075C31.2748 168.075 31.0981 168.053 30.9114 168.01C30.7248 167.97 30.5781 167.915 30.4714 167.845V167.415C30.6014 167.492 30.7514 167.555 30.9214 167.605C31.0914 167.652 31.2564 167.675 31.4164 167.675C31.5964 167.675 31.7281 167.653 31.8114 167.61C31.8948 167.567 31.9364 167.497 31.9364 167.4C31.9364 167.327 31.9164 167.268 31.8764 167.225C31.8398 167.178 31.7748 167.137 31.6814 167.1C31.5914 167.063 31.4548 167.02 31.2714 166.97C31.0748 166.913 30.9181 166.857 30.8014 166.8C30.6881 166.74 30.6014 166.665 30.5414 166.575C30.4848 166.485 30.4564 166.368 30.4564 166.225C30.4564 165.995 30.5464 165.822 30.7264 165.705C30.9098 165.585 31.1548 165.525 31.4614 165.525C31.6214 165.525 31.7781 165.54 31.9314 165.57C32.0848 165.6 32.2081 165.642 32.3014 165.695V166.115C32.2048 166.058 32.0848 166.013 31.9414 165.98C31.8014 165.947 31.6581 165.93 31.5114 165.93C31.3348 165.93 31.1998 165.952 31.1064 165.995C31.0131 166.038 30.9664 166.115 30.9664 166.225C30.9664 166.295 30.9864 166.352 31.0264 166.395C31.0664 166.438 31.1298 166.477 31.2164 166.51C31.3064 166.54 31.4481 166.58 31.6414 166.63C31.9448 166.713 32.1548 166.812 32.2714 166.925C32.3914 167.038 32.4514 167.195 32.4514 167.395C32.4514 167.602 32.3664 167.767 32.1964 167.89C32.0264 168.013 31.7748 168.075 31.4414 168.075ZM37.9733 168.075C37.53 168.075 37.1817 167.965 36.9283 167.745C36.6783 167.522 36.5533 167.208 36.5533 166.805C36.5533 166.412 36.665 166.1 36.8883 165.87C37.115 165.64 37.4367 165.525 37.8533 165.525C38.13 165.525 38.365 165.578 38.5583 165.685C38.7517 165.788 38.8967 165.933 38.9933 166.12C39.0933 166.303 39.1433 166.513 39.1433 166.75V167H37.0333C37.05 167.227 37.145 167.397 37.3183 167.51C37.495 167.62 37.7333 167.675 38.0333 167.675C38.1867 167.675 38.3417 167.662 38.4983 167.635C38.655 167.605 38.7933 167.567 38.9133 167.52V167.925C38.8067 167.968 38.665 168.003 38.4883 168.03C38.315 168.06 38.1433 168.075 37.9733 168.075ZM38.6683 166.645C38.6617 166.418 38.5867 166.243 38.4433 166.12C38.3033 165.993 38.1033 165.93 37.8433 165.93C37.59 165.93 37.3933 165.995 37.2533 166.125C37.1133 166.255 37.04 166.428 37.0333 166.645H38.6683ZM40.5953 165.6H41.0853V165.945C41.1986 165.802 41.337 165.697 41.5003 165.63C41.667 165.56 41.8403 165.525 42.0203 165.525C42.3403 165.525 42.5786 165.61 42.7353 165.78C42.892 165.95 42.9703 166.178 42.9703 166.465V168H42.4653V166.515C42.4653 166.125 42.2786 165.93 41.9053 165.93C41.7453 165.93 41.5953 165.968 41.4553 166.045C41.3186 166.118 41.2003 166.232 41.1003 166.385V168H40.5953V165.6ZM45.7584 168.075C45.4917 168.075 45.255 168.025 45.0484 167.925C44.8417 167.825 44.68 167.68 44.5634 167.49C44.45 167.297 44.3934 167.068 44.3934 166.805C44.3934 166.542 44.45 166.315 44.5634 166.125C44.68 165.932 44.8417 165.783 45.0484 165.68C45.2584 165.577 45.4984 165.525 45.7684 165.525C46.135 165.525 46.4284 165.597 46.6484 165.74V166.155C46.4317 166.005 46.155 165.93 45.8184 165.93C45.545 165.93 45.3234 166.005 45.1534 166.155C44.9867 166.302 44.9034 166.518 44.9034 166.805C44.9034 167.092 44.9867 167.308 45.1534 167.455C45.32 167.602 45.5384 167.675 45.8084 167.675C46.145 167.675 46.435 167.595 46.6784 167.435V167.845C46.5617 167.925 46.4284 167.983 46.2784 168.02C46.1317 168.057 45.9584 168.075 45.7584 168.075ZM48.9633 168.075C48.6733 168.075 48.44 168.002 48.2633 167.855C48.09 167.705 48.0033 167.503 48.0033 167.25C48.0033 166.983 48.0867 166.778 48.2533 166.635C48.4233 166.488 48.6633 166.415 48.9733 166.415C49.3033 166.415 49.5833 166.482 49.8133 166.615V166.49C49.8133 166.3 49.755 166.16 49.6383 166.07C49.525 165.977 49.345 165.93 49.0983 165.93C48.9517 165.93 48.8083 165.945 48.6683 165.975C48.5317 166.002 48.4083 166.04 48.2983 166.09V165.68C48.3983 165.633 48.5283 165.597 48.6883 165.57C48.8483 165.54 49.0033 165.525 49.1533 165.525C49.55 165.525 49.8433 165.613 50.0333 165.79C50.2267 165.963 50.3233 166.205 50.3233 166.515V168H49.8483V167.73C49.745 167.843 49.6217 167.93 49.4783 167.99C49.3383 168.047 49.1667 168.075 48.9633 168.075ZM49.0883 167.69C49.2483 167.69 49.3933 167.658 49.5233 167.595C49.6533 167.532 49.75 167.443 49.8133 167.33V167.005C49.5967 166.865 49.355 166.795 49.0883 166.795C48.895 166.795 48.75 166.833 48.6533 166.91C48.56 166.983 48.5133 167.097 48.5133 167.25C48.5133 167.543 48.705 167.69 49.0883 167.69ZM52.6618 168.075C52.4951 168.075 52.3184 168.053 52.1318 168.01C51.9451 167.97 51.7984 167.915 51.6918 167.845V167.415C51.8218 167.492 51.9718 167.555 52.1418 167.605C52.3118 167.652 52.4768 167.675 52.6368 167.675C52.8168 167.675 52.9484 167.653 53.0318 167.61C53.1151 167.567 53.1568 167.497 53.1568 167.4C53.1568 167.327 53.1368 167.268 53.0968 167.225C53.0601 167.178 52.9951 167.137 52.9018 167.1C52.8118 167.063 52.6751 167.02 52.4918 166.97C52.2951 166.913 52.1384 166.857 52.0218 166.8C51.9084 166.74 51.8218 166.665 51.7618 166.575C51.7051 166.485 51.6768 166.368 51.6768 166.225C51.6768 165.995 51.7668 165.822 51.9468 165.705C52.1301 165.585 52.3751 165.525 52.6818 165.525C52.8418 165.525 52.9984 165.54 53.1518 165.57C53.3051 165.6 53.4284 165.642 53.5218 165.695V166.115C53.4251 166.058 53.3051 166.013 53.1618 165.98C53.0218 165.947 52.8784 165.93 52.7318 165.93C52.5551 165.93 52.4201 165.952 52.3268 165.995C52.2334 166.038 52.1868 166.115 52.1868 166.225C52.1868 166.295 52.2068 166.352 52.2468 166.395C52.2868 166.438 52.3501 166.477 52.4368 166.51C52.5268 166.54 52.6684 166.58 52.8618 166.63C53.1651 166.713 53.3751 166.812 53.4918 166.925C53.6118 167.038 53.6718 167.195 53.6718 167.395C53.6718 167.602 53.5868 167.767 53.4168 167.89C53.2468 168.013 52.9951 168.075 52.6618 168.075ZM56.443 168.075C55.9997 168.075 55.6514 167.965 55.398 167.745C55.148 167.522 55.023 167.208 55.023 166.805C55.023 166.412 55.1347 166.1 55.358 165.87C55.5847 165.64 55.9064 165.525 56.323 165.525C56.5997 165.525 56.8347 165.578 57.028 165.685C57.2214 165.788 57.3664 165.933 57.463 166.12C57.563 166.303 57.613 166.513 57.613 166.75V167H55.503C55.5197 167.227 55.6147 167.397 55.788 167.51C55.9647 167.62 56.203 167.675 56.503 167.675C56.6564 167.675 56.8114 167.662 56.968 167.635C57.1247 167.605 57.263 167.567 57.383 167.52V167.925C57.2764 167.968 57.1347 168.003 56.958 168.03C56.7847 168.06 56.613 168.075 56.443 168.075ZM57.138 166.645C57.1314 166.418 57.0564 166.243 56.913 166.12C56.773 165.993 56.573 165.93 56.313 165.93C56.0597 165.93 55.863 165.995 55.723 166.125C55.583 166.255 55.5097 166.428 55.503 166.645H57.138ZM60.225 168.075C59.985 168.075 59.7684 168.023 59.575 167.92C59.385 167.813 59.235 167.665 59.125 167.475C59.0184 167.282 58.965 167.058 58.965 166.805C58.965 166.555 59.0184 166.333 59.125 166.14C59.235 165.947 59.385 165.797 59.575 165.69C59.7684 165.58 59.985 165.525 60.225 165.525C60.6584 165.525 60.9867 165.657 61.21 165.92V164.305H61.715V168H61.225V167.65C61.0917 167.797 60.945 167.905 60.785 167.975C60.6284 168.042 60.4417 168.075 60.225 168.075ZM60.34 167.675C60.5467 167.675 60.7267 167.622 60.88 167.515C61.0367 167.405 61.1467 167.258 61.21 167.075V166.535C61.1534 166.352 61.045 166.205 60.885 166.095C60.7284 165.985 60.5467 165.93 60.34 165.93C60.1767 165.93 60.0284 165.967 59.895 166.04C59.765 166.113 59.6617 166.217 59.585 166.35C59.5117 166.483 59.475 166.635 59.475 166.805C59.475 166.975 59.5117 167.127 59.585 167.26C59.6617 167.393 59.765 167.497 59.895 167.57C60.0284 167.64 60.1767 167.675 60.34 167.675ZM66.3114 165.13C66.2281 165.13 66.1581 165.102 66.1014 165.045C66.0447 164.988 66.0164 164.918 66.0164 164.835C66.0164 164.752 66.0447 164.682 66.1014 164.625C66.1581 164.568 66.2281 164.54 66.3114 164.54C66.3981 164.54 66.4697 164.568 66.5264 164.625C66.5864 164.682 66.6164 164.752 66.6164 164.835C66.6164 164.918 66.5864 164.988 66.5264 165.045C66.4697 165.102 66.3981 165.13 66.3114 165.13ZM66.0564 165.6H66.5714V168H66.0564V165.6ZM68.1664 165.6H68.6564V165.945C68.7697 165.802 68.9081 165.697 69.0714 165.63C69.2381 165.56 69.4114 165.525 69.5914 165.525C69.9114 165.525 70.1497 165.61 70.3064 165.78C70.4631 165.95 70.5414 166.178 70.5414 166.465V168H70.0364V166.515C70.0364 166.125 69.8497 165.93 69.4764 165.93C69.3164 165.93 69.1664 165.968 69.0264 166.045C68.8897 166.118 68.7714 166.232 68.6714 166.385V168H68.1664V165.6ZM75.74 168.075C75.4967 168.075 75.3084 168.005 75.175 167.865C75.045 167.725 74.98 167.527 74.98 167.27V165.99H74.615V165.6H74.98V164.88H75.49V165.6H76.08V165.99H75.49V167.235C75.49 167.395 75.52 167.508 75.58 167.575C75.6434 167.642 75.7567 167.675 75.92 167.675C76.0167 167.675 76.1134 167.653 76.21 167.61V168.01C76.0834 168.053 75.9267 168.075 75.74 168.075ZM77.5852 164.305H78.0902V165.93C78.3202 165.66 78.6268 165.525 79.0102 165.525C79.3302 165.525 79.5685 165.61 79.7252 165.78C79.8818 165.95 79.9602 166.178 79.9602 166.465V168H79.4552V166.515C79.4552 166.125 79.2685 165.93 78.8952 165.93C78.7352 165.93 78.5852 165.968 78.4452 166.045C78.3085 166.118 78.1902 166.232 78.0902 166.385V168H77.5852V164.305ZM82.8032 168.075C82.3599 168.075 82.0115 167.965 81.7582 167.745C81.5082 167.522 81.3832 167.208 81.3832 166.805C81.3832 166.412 81.4949 166.1 81.7182 165.87C81.9449 165.64 82.2665 165.525 82.6832 165.525C82.9599 165.525 83.1949 165.578 83.3882 165.685C83.5815 165.788 83.7265 165.933 83.8232 166.12C83.9232 166.303 83.9732 166.513 83.9732 166.75V167H81.8632C81.8799 167.227 81.9749 167.397 82.1482 167.51C82.3249 167.62 82.5632 167.675 82.8632 167.675C83.0165 167.675 83.1715 167.662 83.3282 167.635C83.4849 167.605 83.6232 167.567 83.7432 167.52V167.925C83.6365 167.968 83.4949 168.003 83.3182 168.03C83.1449 168.06 82.9732 168.075 82.8032 168.075ZM83.4982 166.645C83.4915 166.418 83.4165 166.243 83.2732 166.12C83.1332 165.993 82.9332 165.93 82.6732 165.93C82.4199 165.93 82.2232 165.995 82.0832 166.125C81.9432 166.255 81.8699 166.428 81.8632 166.645H83.4982ZM88.1758 165.6H88.6658V166.03C88.7658 165.883 88.9058 165.775 89.0858 165.705C89.2691 165.635 89.4808 165.6 89.7208 165.6V165.995C89.4641 165.995 89.2441 166.037 89.0608 166.12C88.8775 166.203 88.7508 166.335 88.6808 166.515V168H88.1758V165.6ZM92.2415 168.075C91.7981 168.075 91.4498 167.965 91.1965 167.745C90.9465 167.522 90.8215 167.208 90.8215 166.805C90.8215 166.412 90.9331 166.1 91.1565 165.87C91.3831 165.64 91.7048 165.525 92.1215 165.525C92.3981 165.525 92.6331 165.578 92.8265 165.685C93.0198 165.788 93.1648 165.933 93.2615 166.12C93.3615 166.303 93.4115 166.513 93.4115 166.75V167H91.3015C91.3181 167.227 91.4131 167.397 91.5865 167.51C91.7631 167.62 92.0015 167.675 92.3015 167.675C92.4548 167.675 92.6098 167.662 92.7665 167.635C92.9231 167.605 93.0615 167.567 93.1815 167.52V167.925C93.0748 167.968 92.9331 168.003 92.7565 168.03C92.5831 168.06 92.4115 168.075 92.2415 168.075ZM92.9365 166.645C92.9298 166.418 92.8548 166.243 92.7115 166.12C92.5715 165.993 92.3715 165.93 92.1115 165.93C91.8581 165.93 91.6615 165.995 91.5215 166.125C91.3815 166.255 91.3081 166.428 91.3015 166.645H92.9365ZM96.0235 168.075C95.7835 168.075 95.5668 168.023 95.3735 167.92C95.1835 167.813 95.0335 167.665 94.9235 167.475C94.8168 167.282 94.7635 167.058 94.7635 166.805C94.7635 166.555 94.8168 166.333 94.9235 166.14C95.0335 165.947 95.1835 165.797 95.3735 165.69C95.5668 165.58 95.7835 165.525 96.0235 165.525C96.4568 165.525 96.7851 165.657 97.0085 165.92V164.305H97.5135V168H97.0235V167.65C96.8901 167.797 96.7435 167.905 96.5835 167.975C96.4268 168.042 96.2401 168.075 96.0235 168.075ZM96.1385 167.675C96.3451 167.675 96.5251 167.622 96.6785 167.515C96.8351 167.405 96.9451 167.258 97.0085 167.075V166.535C96.9518 166.352 96.8435 166.205 96.6835 166.095C96.5268 165.985 96.3451 165.93 96.1385 165.93C95.9751 165.93 95.8268 165.967 95.6935 166.04C95.5635 166.113 95.4601 166.217 95.3835 166.35C95.3101 166.483 95.2735 166.635 95.2735 166.805C95.2735 166.975 95.3101 167.127 95.3835 167.26C95.4601 167.393 95.5635 167.497 95.6935 167.57C95.8268 167.64 95.9751 167.675 96.1385 167.675ZM99.3693 167.735H99.8993L99.4243 168.74H98.9643L99.3693 167.735ZM104.267 165.99H103.902V165.6H104.267V165.13C104.267 164.857 104.353 164.647 104.527 164.5C104.703 164.353 104.925 164.28 105.192 164.28C105.325 164.28 105.455 164.3 105.582 164.34V164.75C105.488 164.713 105.393 164.695 105.297 164.695C105.13 164.695 105 164.735 104.907 164.815C104.817 164.892 104.772 165.007 104.772 165.16V165.6H105.892V164.51H106.402V168H105.892V165.99H104.772V168H104.267V165.99ZM109.271 168.075C108.827 168.075 108.479 167.965 108.226 167.745C107.976 167.522 107.851 167.208 107.851 166.805C107.851 166.412 107.962 166.1 108.186 165.87C108.412 165.64 108.734 165.525 109.151 165.525C109.427 165.525 109.662 165.578 109.856 165.685C110.049 165.788 110.194 165.933 110.291 166.12C110.391 166.303 110.441 166.513 110.441 166.75V167H108.331C108.347 167.227 108.442 167.397 108.616 167.51C108.792 167.62 109.031 167.675 109.331 167.675C109.484 167.675 109.639 167.662 109.796 167.635C109.952 167.605 110.091 167.567 110.211 167.52V167.925C110.104 167.968 109.962 168.003 109.786 168.03C109.612 168.06 109.441 168.075 109.271 168.075ZM109.966 166.645C109.959 166.418 109.884 166.243 109.741 166.12C109.601 165.993 109.401 165.93 109.141 165.93C108.887 165.93 108.691 165.995 108.551 166.125C108.411 166.255 108.337 166.428 108.331 166.645H109.966ZM112.778 168.075C112.611 168.075 112.434 168.053 112.248 168.01C112.061 167.97 111.914 167.915 111.808 167.845V167.415C111.938 167.492 112.088 167.555 112.258 167.605C112.428 167.652 112.593 167.675 112.753 167.675C112.933 167.675 113.064 167.653 113.148 167.61C113.231 167.567 113.273 167.497 113.273 167.4C113.273 167.327 113.253 167.268 113.213 167.225C113.176 167.178 113.111 167.137 113.018 167.1C112.928 167.063 112.791 167.02 112.608 166.97C112.411 166.913 112.254 166.857 112.138 166.8C112.024 166.74 111.938 166.665 111.878 166.575C111.821 166.485 111.793 166.368 111.793 166.225C111.793 165.995 111.883 165.822 112.063 165.705C112.246 165.585 112.491 165.525 112.798 165.525C112.958 165.525 113.114 165.54 113.268 165.57C113.421 165.6 113.544 165.642 113.638 165.695V166.115C113.541 166.058 113.421 166.013 113.278 165.98C113.138 165.947 112.994 165.93 112.848 165.93C112.671 165.93 112.536 165.952 112.443 165.995C112.349 166.038 112.303 166.115 112.303 166.225C112.303 166.295 112.323 166.352 112.363 166.395C112.403 166.438 112.466 166.477 112.553 166.51C112.643 166.54 112.784 166.58 112.978 166.63C113.281 166.713 113.491 166.812 113.608 166.925C113.728 167.038 113.788 167.195 113.788 167.395C113.788 167.602 113.703 167.767 113.533 167.89C113.363 168.013 113.111 168.075 112.778 168.075ZM115.239 164.305H115.744V165.93C115.974 165.66 116.281 165.525 116.664 165.525C116.984 165.525 117.222 165.61 117.379 165.78C117.536 165.95 117.614 166.178 117.614 166.465V168H117.109V166.515C117.109 166.125 116.922 165.93 116.549 165.93C116.389 165.93 116.239 165.968 116.099 166.045C115.962 166.118 115.844 166.232 115.744 166.385V168H115.239V164.305ZM119.423 168.99C119.243 168.99 119.093 168.972 118.973 168.935V168.54C119.059 168.573 119.166 168.59 119.293 168.59C119.409 168.59 119.501 168.56 119.568 168.5C119.634 168.443 119.694 168.35 119.748 168.22L119.863 167.94L118.813 165.6H119.333L120.133 167.445L120.878 165.6H121.398L120.318 168.27C120.218 168.52 120.098 168.702 119.958 168.815C119.821 168.932 119.643 168.99 119.423 168.99ZM17.815 176.075C17.5983 176.075 17.41 176.042 17.25 175.975C17.0933 175.905 16.9483 175.797 16.815 175.65V176H16.325V172.305H16.83V173.92C16.94 173.79 17.0817 173.692 17.255 173.625C17.4283 173.558 17.615 173.525 17.815 173.525C18.055 173.525 18.27 173.58 18.46 173.69C18.6533 173.797 18.8033 173.947 18.91 174.14C19.02 174.333 19.075 174.555 19.075 174.805C19.075 175.058 19.02 175.282 18.91 175.475C18.8033 175.665 18.6533 175.813 18.46 175.92C18.27 176.023 18.055 176.075 17.815 176.075ZM17.7 175.675C17.8633 175.675 18.01 175.64 18.14 175.57C18.2733 175.497 18.3767 175.393 18.45 175.26C18.5267 175.127 18.565 174.975 18.565 174.805C18.565 174.635 18.5267 174.483 18.45 174.35C18.3767 174.217 18.2733 174.113 18.14 174.04C18.01 173.967 17.8633 173.93 17.7 173.93C17.4967 173.93 17.315 173.985 17.155 174.095C16.995 174.205 16.8867 174.352 16.83 174.535V175.075C16.8933 175.258 17.0017 175.405 17.155 175.515C17.3117 175.622 17.4933 175.675 17.7 175.675ZM21.6638 176.075C21.3938 176.075 21.1555 176.025 20.9488 175.925C20.7455 175.822 20.5855 175.675 20.4688 175.485C20.3555 175.292 20.2988 175.065 20.2988 174.805C20.2988 174.548 20.3555 174.323 20.4688 174.13C20.5822 173.937 20.7422 173.788 20.9488 173.685C21.1555 173.578 21.3938 173.525 21.6638 173.525C21.9338 173.525 22.1722 173.578 22.3788 173.685C22.5855 173.788 22.7455 173.937 22.8588 174.13C22.9755 174.323 23.0338 174.548 23.0338 174.805C23.0338 175.065 22.9755 175.292 22.8588 175.485C22.7455 175.675 22.5855 175.822 22.3788 175.925C22.1722 176.025 21.9338 176.075 21.6638 176.075ZM21.6638 175.675C21.9238 175.675 22.1305 175.595 22.2838 175.435C22.4372 175.275 22.5138 175.065 22.5138 174.805C22.5138 174.535 22.4372 174.322 22.2838 174.165C22.1305 174.008 21.9238 173.93 21.6638 173.93C21.4038 173.93 21.1972 174.008 21.0438 174.165C20.8905 174.322 20.8138 174.535 20.8138 174.805C20.8138 175.065 20.8905 175.275 21.0438 175.435C21.1972 175.595 21.4038 175.675 21.6638 175.675ZM25.5692 176.075C25.3292 176.075 25.1125 176.023 24.9192 175.92C24.7292 175.813 24.5792 175.665 24.4692 175.475C24.3625 175.282 24.3092 175.058 24.3092 174.805C24.3092 174.555 24.3625 174.333 24.4692 174.14C24.5792 173.947 24.7292 173.797 24.9192 173.69C25.1125 173.58 25.3292 173.525 25.5692 173.525C26.0025 173.525 26.3308 173.657 26.5542 173.92V172.305H27.0592V176H26.5692V175.65C26.4358 175.797 26.2892 175.905 26.1292 175.975C25.9725 176.042 25.7858 176.075 25.5692 176.075ZM25.6842 175.675C25.8908 175.675 26.0708 175.622 26.2242 175.515C26.3808 175.405 26.4908 175.258 26.5542 175.075V174.535C26.4975 174.352 26.3892 174.205 26.2292 174.095C26.0725 173.985 25.8908 173.93 25.6842 173.93C25.5208 173.93 25.3725 173.967 25.2392 174.04C25.1092 174.113 25.0058 174.217 24.9292 174.35C24.8558 174.483 24.8192 174.635 24.8192 174.805C24.8192 174.975 24.8558 175.127 24.9292 175.26C25.0058 175.393 25.1092 175.497 25.2392 175.57C25.3725 175.64 25.5208 175.675 25.6842 175.675ZM28.8954 176.99C28.7154 176.99 28.5654 176.972 28.4454 176.935V176.54C28.532 176.573 28.6387 176.59 28.7654 176.59C28.882 176.59 28.9737 176.56 29.0404 176.5C29.107 176.443 29.167 176.35 29.2204 176.22L29.3354 175.94L28.2854 173.6H28.8054L29.6054 175.445L30.3504 173.6H30.8704L29.7904 176.27C29.6904 176.52 29.5704 176.702 29.4304 176.815C29.2937 176.932 29.1154 176.99 28.8954 176.99ZM32.3549 176C32.2883 176 32.2316 175.978 32.1849 175.935C32.1416 175.888 32.1199 175.832 32.1199 175.765C32.1199 175.698 32.1416 175.642 32.1849 175.595C32.2316 175.548 32.2883 175.525 32.3549 175.525C32.4216 175.525 32.4783 175.548 32.5249 175.595C32.5716 175.642 32.5949 175.698 32.5949 175.765C32.5949 175.832 32.5716 175.888 32.5249 175.935C32.4783 175.978 32.4216 176 32.3549 176ZM37.6784 172.935H36.5934V172.505H39.2784V172.935H38.1934V176H37.6784V172.935ZM40.6279 172.305H41.1329V173.93C41.3629 173.66 41.6696 173.525 42.0529 173.525C42.3729 173.525 42.6113 173.61 42.7679 173.78C42.9246 173.95 43.0029 174.178 43.0029 174.465V176H42.4979V174.515C42.4979 174.125 42.3113 173.93 41.9379 173.93C41.7779 173.93 41.6279 173.968 41.4879 174.045C41.3513 174.118 41.2329 174.232 41.1329 174.385V176H40.6279V172.305ZM44.821 173.13C44.7376 173.13 44.6676 173.102 44.611 173.045C44.5543 172.988 44.526 172.918 44.526 172.835C44.526 172.752 44.5543 172.682 44.611 172.625C44.6676 172.568 44.7376 172.54 44.821 172.54C44.9076 172.54 44.9793 172.568 45.036 172.625C45.096 172.682 45.126 172.752 45.126 172.835C45.126 172.918 45.096 172.988 45.036 173.045C44.9793 173.102 44.9076 173.13 44.821 173.13ZM44.566 173.6H45.081V176H44.566V173.6ZM47.561 176.075C47.3943 176.075 47.2176 176.053 47.031 176.01C46.8443 175.97 46.6976 175.915 46.591 175.845V175.415C46.721 175.492 46.871 175.555 47.041 175.605C47.211 175.652 47.376 175.675 47.536 175.675C47.716 175.675 47.8476 175.653 47.931 175.61C48.0143 175.567 48.056 175.497 48.056 175.4C48.056 175.327 48.036 175.268 47.996 175.225C47.9593 175.178 47.8943 175.137 47.801 175.1C47.711 175.063 47.5743 175.02 47.391 174.97C47.1943 174.913 47.0376 174.857 46.921 174.8C46.8076 174.74 46.721 174.665 46.661 174.575C46.6043 174.485 46.576 174.368 46.576 174.225C46.576 173.995 46.666 173.822 46.846 173.705C47.0293 173.585 47.2743 173.525 47.581 173.525C47.741 173.525 47.8976 173.54 48.051 173.57C48.2043 173.6 48.3276 173.642 48.421 173.695V174.115C48.3243 174.058 48.2043 174.013 48.061 173.98C47.921 173.947 47.7776 173.93 47.631 173.93C47.4543 173.93 47.3193 173.952 47.226 173.995C47.1326 174.038 47.086 174.115 47.086 174.225C47.086 174.295 47.106 174.352 47.146 174.395C47.186 174.438 47.2493 174.477 47.336 174.51C47.426 174.54 47.5676 174.58 47.761 174.63C48.0643 174.713 48.2743 174.812 48.391 174.925C48.511 175.038 48.571 175.195 48.571 175.395C48.571 175.602 48.486 175.767 48.316 175.89C48.146 176.013 47.8943 176.075 47.561 176.075ZM53.9329 176.075C53.6929 176.075 53.4762 176.023 53.2829 175.92C53.0929 175.813 52.9429 175.665 52.8329 175.475C52.7262 175.282 52.6729 175.058 52.6729 174.805C52.6729 174.555 52.7262 174.333 52.8329 174.14C52.9429 173.947 53.0929 173.797 53.2829 173.69C53.4762 173.58 53.6929 173.525 53.9329 173.525C54.3662 173.525 54.6945 173.657 54.9179 173.92V172.305H55.4229V176H54.9329V175.65C54.7995 175.797 54.6529 175.905 54.4929 175.975C54.3362 176.042 54.1495 176.075 53.9329 176.075ZM54.0479 175.675C54.2545 175.675 54.4345 175.622 54.5879 175.515C54.7445 175.405 54.8545 175.258 54.9179 175.075V174.535C54.8612 174.352 54.7529 174.205 54.5929 174.095C54.4362 173.985 54.2545 173.93 54.0479 173.93C53.8845 173.93 53.7362 173.967 53.6029 174.04C53.4729 174.113 53.3695 174.217 53.2929 174.35C53.2195 174.483 53.1829 174.635 53.1829 174.805C53.1829 174.975 53.2195 175.127 53.2929 175.26C53.3695 175.393 53.4729 175.497 53.6029 175.57C53.7362 175.64 53.8845 175.675 54.0479 175.675ZM57.2686 173.13C57.1853 173.13 57.1153 173.102 57.0586 173.045C57.002 172.988 56.9736 172.918 56.9736 172.835C56.9736 172.752 57.002 172.682 57.0586 172.625C57.1153 172.568 57.1853 172.54 57.2686 172.54C57.3553 172.54 57.427 172.568 57.4836 172.625C57.5436 172.682 57.5736 172.752 57.5736 172.835C57.5736 172.918 57.5436 172.988 57.4836 173.045C57.427 173.102 57.3553 173.13 57.2686 173.13ZM57.0136 173.6H57.5286V176H57.0136V173.6ZM60.0086 176.075C59.842 176.075 59.6653 176.053 59.4786 176.01C59.292 175.97 59.1453 175.915 59.0386 175.845V175.415C59.1686 175.492 59.3186 175.555 59.4886 175.605C59.6586 175.652 59.8236 175.675 59.9836 175.675C60.1636 175.675 60.2953 175.653 60.3786 175.61C60.462 175.567 60.5036 175.497 60.5036 175.4C60.5036 175.327 60.4836 175.268 60.4436 175.225C60.407 175.178 60.342 175.137 60.2486 175.1C60.1586 175.063 60.022 175.02 59.8386 174.97C59.642 174.913 59.4853 174.857 59.3686 174.8C59.2553 174.74 59.1686 174.665 59.1086 174.575C59.052 174.485 59.0236 174.368 59.0236 174.225C59.0236 173.995 59.1136 173.822 59.2936 173.705C59.477 173.585 59.722 173.525 60.0286 173.525C60.1886 173.525 60.3453 173.54 60.4986 173.57C60.652 173.6 60.7753 173.642 60.8686 173.695V174.115C60.772 174.058 60.652 174.013 60.5086 173.98C60.3686 173.947 60.2253 173.93 60.0786 173.93C59.902 173.93 59.767 173.952 59.6736 173.995C59.5803 174.038 59.5336 174.115 59.5336 174.225C59.5336 174.295 59.5536 174.352 59.5936 174.395C59.6336 174.438 59.697 174.477 59.7836 174.51C59.8736 174.54 60.0153 174.58 60.2086 174.63C60.512 174.713 60.722 174.812 60.8386 174.925C60.9586 175.038 61.0186 175.195 61.0186 175.395C61.0186 175.602 60.9336 175.767 60.7636 175.89C60.5936 176.013 60.342 176.075 60.0086 176.075ZM63.3217 176.075C63.0783 176.075 62.89 176.005 62.7567 175.865C62.6267 175.725 62.5617 175.527 62.5617 175.27V173.99H62.1967V173.6H62.5617V172.88H63.0717V173.6H63.6617V173.99H63.0717V175.235C63.0717 175.395 63.1017 175.508 63.1617 175.575C63.225 175.642 63.3383 175.675 63.5017 175.675C63.5983 175.675 63.695 175.653 63.7917 175.61V176.01C63.665 176.053 63.5083 176.075 63.3217 176.075ZM66.0974 176.075C65.774 176.075 65.529 175.988 65.3624 175.815C65.199 175.642 65.1174 175.41 65.1174 175.12V173.6H65.6224V175.1C65.6224 175.483 65.814 175.675 66.1974 175.675C66.534 175.675 66.7974 175.523 66.9874 175.22V173.6H67.4924V176H67.0024V175.66C66.889 175.803 66.754 175.908 66.5974 175.975C66.444 176.042 66.2774 176.075 66.0974 176.075ZM69.0404 173.6H69.5304V174.03C69.6304 173.883 69.7704 173.775 69.9504 173.705C70.1338 173.635 70.3454 173.6 70.5854 173.6V173.995C70.3288 173.995 70.1088 174.037 69.9254 174.12C69.7421 174.203 69.6154 174.335 69.5454 174.515V176H69.0404V173.6ZM73.4275 176.075C73.2108 176.075 73.0225 176.042 72.8625 175.975C72.7058 175.905 72.5608 175.797 72.4275 175.65V176H71.9375V172.305H72.4425V173.92C72.5525 173.79 72.6942 173.692 72.8675 173.625C73.0408 173.558 73.2275 173.525 73.4275 173.525C73.6675 173.525 73.8825 173.58 74.0725 173.69C74.2658 173.797 74.4158 173.947 74.5225 174.14C74.6325 174.333 74.6875 174.555 74.6875 174.805C74.6875 175.058 74.6325 175.282 74.5225 175.475C74.4158 175.665 74.2658 175.813 74.0725 175.92C73.8825 176.023 73.6675 176.075 73.4275 176.075ZM73.3125 175.675C73.4758 175.675 73.6225 175.64 73.7525 175.57C73.8858 175.497 73.9892 175.393 74.0625 175.26C74.1392 175.127 74.1775 174.975 74.1775 174.805C74.1775 174.635 74.1392 174.483 74.0625 174.35C73.9892 174.217 73.8858 174.113 73.7525 174.04C73.6225 173.967 73.4758 173.93 73.3125 173.93C73.1092 173.93 72.9275 173.985 72.7675 174.095C72.6075 174.205 72.4992 174.352 72.4425 174.535V175.075C72.5058 175.258 72.6142 175.405 72.7675 175.515C72.9242 175.622 73.1058 175.675 73.3125 175.675ZM76.4333 173.13C76.3499 173.13 76.2799 173.102 76.2233 173.045C76.1666 172.988 76.1383 172.918 76.1383 172.835C76.1383 172.752 76.1666 172.682 76.2233 172.625C76.2799 172.568 76.3499 172.54 76.4333 172.54C76.5199 172.54 76.5916 172.568 76.6483 172.625C76.7083 172.682 76.7383 172.752 76.7383 172.835C76.7383 172.918 76.7083 172.988 76.6483 173.045C76.5916 173.102 76.5199 173.13 76.4333 173.13ZM76.1783 173.6H76.6933V176H76.1783V173.6ZM78.2883 173.6H78.7783V173.945C78.8916 173.802 79.0299 173.697 79.1933 173.63C79.3599 173.56 79.5333 173.525 79.7133 173.525C80.0333 173.525 80.2716 173.61 80.4283 173.78C80.5849 173.95 80.6633 174.178 80.6633 174.465V176H80.1583V174.515C80.1583 174.125 79.9716 173.93 79.5983 173.93C79.4383 173.93 79.2883 173.968 79.1483 174.045C79.0116 174.118 78.8933 174.232 78.7933 174.385V176H78.2883V173.6ZM83.4413 177.15C83.278 177.15 83.118 177.137 82.9613 177.11C82.808 177.083 82.678 177.045 82.5713 176.995V176.58C82.8213 176.693 83.1113 176.75 83.4413 176.75C83.7513 176.75 83.9763 176.682 84.1163 176.545C84.2597 176.412 84.3313 176.208 84.3313 175.935V175.68C84.1113 175.943 83.788 176.075 83.3613 176.075C83.118 176.075 82.8997 176.022 82.7063 175.915C82.513 175.808 82.3613 175.658 82.2513 175.465C82.1413 175.272 82.0863 175.05 82.0863 174.8C82.0863 174.547 82.1397 174.325 82.2463 174.135C82.3563 173.942 82.5063 173.792 82.6963 173.685C82.8897 173.578 83.1063 173.525 83.3463 173.525C83.5697 173.525 83.758 173.558 83.9113 173.625C84.068 173.688 84.213 173.795 84.3463 173.945V173.6H84.8363V175.88C84.8363 176.29 84.7213 176.603 84.4913 176.82C84.2647 177.04 83.9147 177.15 83.4413 177.15ZM83.4613 175.675C83.668 175.675 83.8497 175.62 84.0063 175.51C84.1663 175.4 84.2747 175.253 84.3313 175.07V174.53C84.268 174.343 84.158 174.197 84.0013 174.09C83.848 173.983 83.668 173.93 83.4613 173.93C83.298 173.93 83.1497 173.967 83.0163 174.04C82.8863 174.11 82.783 174.212 82.7063 174.345C82.633 174.478 82.5963 174.63 82.5963 174.8C82.5963 174.973 82.633 175.127 82.7063 175.26C82.783 175.39 82.8863 175.492 83.0163 175.565C83.1497 175.638 83.298 175.675 83.4613 175.675ZM89.3027 173.99H88.9377V173.6H89.3027V173.13C89.3027 172.853 89.381 172.643 89.5377 172.5C89.6944 172.353 89.9044 172.28 90.1677 172.28C90.3044 172.28 90.4327 172.3 90.5527 172.34V172.76C90.4594 172.717 90.3627 172.695 90.2627 172.695C90.106 172.695 89.991 172.733 89.9177 172.81C89.8444 172.883 89.8077 173 89.8077 173.16V173.6H90.4077V173.99H89.8077V176H89.3027V173.99ZM92.3332 176.075C92.0432 176.075 91.8099 176.002 91.6332 175.855C91.4599 175.705 91.3732 175.503 91.3732 175.25C91.3732 174.983 91.4566 174.778 91.6232 174.635C91.7932 174.488 92.0332 174.415 92.3432 174.415C92.6732 174.415 92.9532 174.482 93.1832 174.615V174.49C93.1832 174.3 93.1249 174.16 93.0082 174.07C92.8949 173.977 92.7149 173.93 92.4682 173.93C92.3216 173.93 92.1782 173.945 92.0382 173.975C91.9016 174.002 91.7782 174.04 91.6682 174.09V173.68C91.7682 173.633 91.8982 173.597 92.0582 173.57C92.2182 173.54 92.3732 173.525 92.5232 173.525C92.9199 173.525 93.2132 173.613 93.4032 173.79C93.5966 173.963 93.6932 174.205 93.6932 174.515V176H93.2182V175.73C93.1149 175.843 92.9916 175.93 92.8482 175.99C92.7082 176.047 92.5366 176.075 92.3332 176.075ZM92.4582 175.69C92.6182 175.69 92.7632 175.658 92.8932 175.595C93.0232 175.532 93.1199 175.443 93.1832 175.33V175.005C92.9666 174.865 92.7249 174.795 92.4582 174.795C92.2649 174.795 92.1199 174.833 92.0232 174.91C91.9299 174.983 91.8832 175.097 91.8832 175.25C91.8832 175.543 92.0749 175.69 92.4582 175.69ZM96.3873 176.075C96.1206 176.075 95.8839 176.025 95.6773 175.925C95.4706 175.825 95.3089 175.68 95.1923 175.49C95.0789 175.297 95.0223 175.068 95.0223 174.805C95.0223 174.542 95.0789 174.315 95.1923 174.125C95.3089 173.932 95.4706 173.783 95.6773 173.68C95.8873 173.577 96.1273 173.525 96.3973 173.525C96.7639 173.525 97.0573 173.597 97.2773 173.74V174.155C97.0606 174.005 96.7839 173.93 96.4473 173.93C96.1739 173.93 95.9523 174.005 95.7823 174.155C95.6156 174.302 95.5323 174.518 95.5323 174.805C95.5323 175.092 95.6156 175.308 95.7823 175.455C95.9489 175.602 96.1673 175.675 96.4373 175.675C96.7739 175.675 97.0639 175.595 97.3073 175.435V175.845C97.1906 175.925 97.0573 175.983 96.9073 176.02C96.7606 176.057 96.5873 176.075 96.3873 176.075ZM99.6816 176.075C99.4383 176.075 99.25 176.005 99.1166 175.865C98.9866 175.725 98.9216 175.527 98.9216 175.27V173.99H98.5566V173.6H98.9216V172.88H99.4316V173.6H100.022V173.99H99.4316V175.235C99.4316 175.395 99.4616 175.508 99.5216 175.575C99.585 175.642 99.6983 175.675 99.8616 175.675C99.9583 175.675 100.055 175.653 100.152 175.61V176.01C100.025 176.053 99.8683 176.075 99.6816 176.075ZM104.572 173.13C104.489 173.13 104.419 173.102 104.362 173.045C104.306 172.988 104.277 172.918 104.277 172.835C104.277 172.752 104.306 172.682 104.362 172.625C104.419 172.568 104.489 172.54 104.572 172.54C104.659 172.54 104.731 172.568 104.787 172.625C104.847 172.682 104.877 172.752 104.877 172.835C104.877 172.918 104.847 172.988 104.787 173.045C104.731 173.102 104.659 173.13 104.572 173.13ZM104.317 173.6H104.832V176H104.317V173.6ZM106.427 173.6H106.917V173.945C107.031 173.802 107.169 173.697 107.332 173.63C107.499 173.56 107.672 173.525 107.852 173.525C108.172 173.525 108.411 173.61 108.567 173.78C108.724 173.95 108.802 174.178 108.802 174.465V176H108.297V174.515C108.297 174.125 108.111 173.93 107.737 173.93C107.577 173.93 107.427 173.968 107.287 174.045C107.151 174.118 107.032 174.232 106.932 174.385V176H106.427V173.6ZM111.59 176.075C111.324 176.075 111.087 176.025 110.88 175.925C110.674 175.825 110.512 175.68 110.395 175.49C110.282 175.297 110.225 175.068 110.225 174.805C110.225 174.542 110.282 174.315 110.395 174.125C110.512 173.932 110.674 173.783 110.88 173.68C111.09 173.577 111.33 173.525 111.6 173.525C111.967 173.525 112.26 173.597 112.48 173.74V174.155C112.264 174.005 111.987 173.93 111.65 173.93C111.377 173.93 111.155 174.005 110.985 174.155C110.819 174.302 110.735 174.518 110.735 174.805C110.735 175.092 110.819 175.308 110.985 175.455C111.152 175.602 111.37 175.675 111.64 175.675C111.977 175.675 112.267 175.595 112.51 175.435V175.845C112.394 175.925 112.26 175.983 112.11 176.02C111.964 176.057 111.79 176.075 111.59 176.075ZM113.96 173.6H114.45V174.03C114.55 173.883 114.69 173.775 114.87 173.705C115.053 173.635 115.265 173.6 115.505 173.6V173.995C115.248 173.995 115.028 174.037 114.845 174.12C114.661 174.203 114.535 174.335 114.465 174.515V176H113.96V173.6ZM118.025 176.075C117.582 176.075 117.234 175.965 116.98 175.745C116.73 175.522 116.605 175.208 116.605 174.805C116.605 174.412 116.717 174.1 116.94 173.87C117.167 173.64 117.489 173.525 117.905 173.525C118.182 173.525 118.417 173.578 118.61 173.685C118.804 173.788 118.949 173.933 119.045 174.12C119.145 174.303 119.195 174.513 119.195 174.75V175H117.085C117.102 175.227 117.197 175.397 117.37 175.51C117.547 175.62 117.785 175.675 118.085 175.675C118.239 175.675 118.394 175.662 118.55 175.635C118.707 175.605 118.845 175.567 118.965 175.52V175.925C118.859 175.968 118.717 176.003 118.54 176.03C118.367 176.06 118.195 176.075 118.025 176.075ZM118.72 174.645C118.714 174.418 118.639 174.243 118.495 174.12C118.355 173.993 118.155 173.93 117.895 173.93C117.642 173.93 117.445 173.995 117.305 174.125C117.165 174.255 117.092 174.428 117.085 174.645H118.72ZM121.507 176.075C121.217 176.075 120.984 176.002 120.807 175.855C120.634 175.705 120.547 175.503 120.547 175.25C120.547 174.983 120.631 174.778 120.797 174.635C120.967 174.488 121.207 174.415 121.517 174.415C121.847 174.415 122.127 174.482 122.357 174.615V174.49C122.357 174.3 122.299 174.16 122.182 174.07C122.069 173.977 121.889 173.93 121.642 173.93C121.496 173.93 121.352 173.945 121.212 173.975C121.076 174.002 120.952 174.04 120.842 174.09V173.68C120.942 173.633 121.072 173.597 121.232 173.57C121.392 173.54 121.547 173.525 121.697 173.525C122.094 173.525 122.387 173.613 122.577 173.79C122.771 173.963 122.867 174.205 122.867 174.515V176H122.392V175.73C122.289 175.843 122.166 175.93 122.022 175.99C121.882 176.047 121.711 176.075 121.507 176.075ZM121.632 175.69C121.792 175.69 121.937 175.658 122.067 175.595C122.197 175.532 122.294 175.443 122.357 175.33V175.005C122.141 174.865 121.899 174.795 121.632 174.795C121.439 174.795 121.294 174.833 121.197 174.91C121.104 174.983 121.057 175.097 121.057 175.25C121.057 175.543 121.249 175.69 121.632 175.69ZM125.206 176.075C125.039 176.075 124.863 176.053 124.676 176.01C124.489 175.97 124.343 175.915 124.236 175.845V175.415C124.366 175.492 124.516 175.555 124.686 175.605C124.856 175.652 125.021 175.675 125.181 175.675C125.361 175.675 125.493 175.653 125.576 175.61C125.659 175.567 125.701 175.497 125.701 175.4C125.701 175.327 125.681 175.268 125.641 175.225C125.604 175.178 125.539 175.137 125.446 175.1C125.356 175.063 125.219 175.02 125.036 174.97C124.839 174.913 124.683 174.857 124.566 174.8C124.453 174.74 124.366 174.665 124.306 174.575C124.249 174.485 124.221 174.368 124.221 174.225C124.221 173.995 124.311 173.822 124.491 173.705C124.674 173.585 124.919 173.525 125.226 173.525C125.386 173.525 125.543 173.54 125.696 173.57C125.849 173.6 125.973 173.642 126.066 173.695V174.115C125.969 174.058 125.849 174.013 125.706 173.98C125.566 173.947 125.423 173.93 125.276 173.93C125.099 173.93 124.964 173.952 124.871 173.995C124.778 174.038 124.731 174.115 124.731 174.225C124.731 174.295 124.751 174.352 124.791 174.395C124.831 174.438 124.894 174.477 124.981 174.51C125.071 174.54 125.213 174.58 125.406 174.63C125.709 174.713 125.919 174.812 126.036 174.925C126.156 175.038 126.216 175.195 126.216 175.395C126.216 175.602 126.131 175.767 125.961 175.89C125.791 176.013 125.539 176.075 125.206 176.075ZM128.987 176.075C128.544 176.075 128.196 175.965 127.942 175.745C127.692 175.522 127.567 175.208 127.567 174.805C127.567 174.412 127.679 174.1 127.902 173.87C128.129 173.64 128.451 173.525 128.867 173.525C129.144 173.525 129.379 173.578 129.572 173.685C129.766 173.788 129.911 173.933 130.007 174.12C130.107 174.303 130.157 174.513 130.157 174.75V175H128.047C128.064 175.227 128.159 175.397 128.332 175.51C128.509 175.62 128.747 175.675 129.047 175.675C129.201 175.675 129.356 175.662 129.512 175.635C129.669 175.605 129.807 175.567 129.927 175.52V175.925C129.821 175.968 129.679 176.003 129.502 176.03C129.329 176.06 129.157 176.075 128.987 176.075ZM129.682 174.645C129.676 174.418 129.601 174.243 129.457 174.12C129.317 173.993 129.117 173.93 128.857 173.93C128.604 173.93 128.407 173.995 128.267 174.125C128.127 174.255 128.054 174.428 128.047 174.645H129.682ZM132.494 176.075C132.328 176.075 132.151 176.053 131.964 176.01C131.778 175.97 131.631 175.915 131.524 175.845V175.415C131.654 175.492 131.804 175.555 131.974 175.605C132.144 175.652 132.309 175.675 132.469 175.675C132.649 175.675 132.781 175.653 132.864 175.61C132.948 175.567 132.989 175.497 132.989 175.4C132.989 175.327 132.969 175.268 132.929 175.225C132.893 175.178 132.828 175.137 132.734 175.1C132.644 175.063 132.508 175.02 132.324 174.97C132.128 174.913 131.971 174.857 131.854 174.8C131.741 174.74 131.654 174.665 131.594 174.575C131.538 174.485 131.509 174.368 131.509 174.225C131.509 173.995 131.599 173.822 131.779 173.705C131.963 173.585 132.208 173.525 132.514 173.525C132.674 173.525 132.831 173.54 132.984 173.57C133.138 173.6 133.261 173.642 133.354 173.695V174.115C133.258 174.058 133.138 174.013 132.994 173.98C132.854 173.947 132.711 173.93 132.564 173.93C132.388 173.93 132.253 173.952 132.159 173.995C132.066 174.038 132.019 174.115 132.019 174.225C132.019 174.295 132.039 174.352 132.079 174.395C132.119 174.438 132.183 174.477 132.269 174.51C132.359 174.54 132.501 174.58 132.694 174.63C132.998 174.713 133.208 174.812 133.324 174.925C133.444 175.038 133.504 175.195 133.504 175.395C133.504 175.602 133.419 175.767 133.249 175.89C133.079 176.013 132.828 176.075 132.494 176.075ZM17.62 180.505H18.11L19.505 184H18.985L18.635 183.13H17.09L16.75 184H16.225L17.62 180.505ZM18.495 182.705L17.865 181.07L17.235 182.705H18.495ZM21.2155 180.935H20.1305V180.505H22.8155V180.935H21.7305V184H21.2155V180.935ZM24.165 180.505H24.675V184H24.165V180.505ZM24.7 182.22L26.295 180.505H26.915L25.32 182.22L27.015 184H26.395L24.7 182.22ZM32.6552 184.075C32.4386 184.075 32.2502 184.042 32.0902 183.975C31.9336 183.905 31.7886 183.797 31.6552 183.65V184H31.1652V180.305H31.6702V181.92C31.7802 181.79 31.9219 181.692 32.0952 181.625C32.2686 181.558 32.4552 181.525 32.6552 181.525C32.8952 181.525 33.1102 181.58 33.3002 181.69C33.4936 181.797 33.6436 181.947 33.7502 182.14C33.8602 182.333 33.9152 182.555 33.9152 182.805C33.9152 183.058 33.8602 183.282 33.7502 183.475C33.6436 183.665 33.4936 183.813 33.3002 183.92C33.1102 184.023 32.8952 184.075 32.6552 184.075ZM32.5402 183.675C32.7036 183.675 32.8502 183.64 32.9802 183.57C33.1136 183.497 33.2169 183.393 33.2902 183.26C33.3669 183.127 33.4052 182.975 33.4052 182.805C33.4052 182.635 33.3669 182.483 33.2902 182.35C33.2169 182.217 33.1136 182.113 32.9802 182.04C32.8502 181.967 32.7036 181.93 32.5402 181.93C32.3369 181.93 32.1552 181.985 31.9952 182.095C31.8352 182.205 31.7269 182.352 31.6702 182.535V183.075C31.7336 183.258 31.8419 183.405 31.9952 183.515C32.1519 183.622 32.3336 183.675 32.5402 183.675ZM35.5489 184.99C35.3689 184.99 35.2189 184.972 35.0989 184.935V184.54C35.1855 184.573 35.2922 184.59 35.4189 184.59C35.5355 184.59 35.6272 184.56 35.6939 184.5C35.7605 184.443 35.8205 184.35 35.8739 184.22L35.9889 183.94L34.9389 181.6H35.4589L36.2589 183.445L37.0039 181.6H37.5239L36.4439 184.27C36.3439 184.52 36.2239 184.702 36.0839 184.815C35.9472 184.932 35.7689 184.99 35.5489 184.99ZM48.7348 184C48.6681 184 48.6115 183.978 48.5648 183.935C48.5215 183.888 48.4998 183.832 48.4998 183.765C48.4998 183.698 48.5215 183.642 48.5648 183.595C48.6115 183.548 48.6681 183.525 48.7348 183.525C48.8015 183.525 48.8581 183.548 48.9048 183.595C48.9515 183.642 48.9748 183.698 48.9748 183.765C48.9748 183.832 48.9515 183.888 48.9048 183.935C48.8581 183.978 48.8015 184 48.7348 184ZM54.9132 184.075C54.5666 184.075 54.2532 184 53.9732 183.85C53.6932 183.697 53.4732 183.482 53.3132 183.205C53.1532 182.928 53.0732 182.612 53.0732 182.255C53.0732 181.898 53.1532 181.582 53.3132 181.305C53.4732 181.028 53.6932 180.813 53.9732 180.66C54.2532 180.507 54.5666 180.43 54.9132 180.43C55.2599 180.43 55.5732 180.507 55.8532 180.66C56.1332 180.813 56.3532 181.028 56.5132 181.305C56.6732 181.582 56.7532 181.898 56.7532 182.255C56.7532 182.612 56.6732 182.928 56.5132 183.205C56.3532 183.482 56.1332 183.697 55.8532 183.85C55.5732 184 55.2599 184.075 54.9132 184.075ZM54.9132 183.615C55.1599 183.615 55.3832 183.56 55.5832 183.45C55.7866 183.337 55.9466 183.178 56.0632 182.975C56.1799 182.768 56.2382 182.528 56.2382 182.255C56.2382 181.985 56.1799 181.748 56.0632 181.545C55.9499 181.338 55.7932 181.18 55.5932 181.07C55.3932 180.957 55.1699 180.9 54.9232 180.9C54.6732 180.9 54.4466 180.955 54.2432 181.065C54.0432 181.175 53.8832 181.333 53.7632 181.54C53.6466 181.747 53.5882 181.985 53.5882 182.255C53.5882 182.528 53.6466 182.768 53.7632 182.975C53.8799 183.178 54.0382 183.337 54.2382 183.45C54.4416 183.56 54.6666 183.615 54.9132 183.615ZM58.2041 181.6H58.6941V181.945C58.8074 181.802 58.9458 181.697 59.1091 181.63C59.2758 181.56 59.4491 181.525 59.6291 181.525C59.9491 181.525 60.1874 181.61 60.3441 181.78C60.5008 181.95 60.5791 182.178 60.5791 182.465V184H60.0741V182.515C60.0741 182.125 59.8874 181.93 59.5141 181.93C59.3541 181.93 59.2041 181.968 59.0641 182.045C58.9274 182.118 58.8091 182.232 58.7091 182.385V184H58.2041V181.6ZM63.4221 184.075C62.9788 184.075 62.6305 183.965 62.3771 183.745C62.1271 183.522 62.0021 183.208 62.0021 182.805C62.0021 182.412 62.1138 182.1 62.3371 181.87C62.5638 181.64 62.8855 181.525 63.3021 181.525C63.5788 181.525 63.8138 181.578 64.0071 181.685C64.2005 181.788 64.3455 181.933 64.4421 182.12C64.5421 182.303 64.5921 182.513 64.5921 182.75V183H62.4821C62.4988 183.227 62.5938 183.397 62.7671 183.51C62.9438 183.62 63.1821 183.675 63.4821 183.675C63.6355 183.675 63.7905 183.662 63.9471 183.635C64.1038 183.605 64.2421 183.567 64.3621 183.52V183.925C64.2555 183.968 64.1138 184.003 63.9371 184.03C63.7638 184.06 63.5921 184.075 63.4221 184.075ZM64.1171 182.645C64.1105 182.418 64.0355 182.243 63.8921 182.12C63.7521 181.993 63.5521 181.93 63.2921 181.93C63.0388 181.93 62.8421 181.995 62.7021 182.125C62.5621 182.255 62.4888 182.428 62.4821 182.645H64.1171ZM69.7197 184.075C69.4764 184.075 69.2881 184.005 69.1547 183.865C69.0247 183.725 68.9597 183.527 68.9597 183.27V181.99H68.5947V181.6H68.9597V180.88H69.4697V181.6H70.0597V181.99H69.4697V183.235C69.4697 183.395 69.4997 183.508 69.5597 183.575C69.6231 183.642 69.7364 183.675 69.8997 183.675C69.9964 183.675 70.0931 183.653 70.1897 183.61V184.01C70.0631 184.053 69.9064 184.075 69.7197 184.075ZM72.4954 184.075C72.1721 184.075 71.9271 183.988 71.7604 183.815C71.5971 183.642 71.5154 183.41 71.5154 183.12V181.6H72.0204V183.1C72.0204 183.483 72.2121 183.675 72.5954 183.675C72.9321 183.675 73.1954 183.523 73.3854 183.22V181.6H73.8904V184H73.4004V183.66C73.2871 183.803 73.1521 183.908 72.9954 183.975C72.8421 184.042 72.6754 184.075 72.4954 184.075ZM75.4385 181.6H75.9285V182.03C76.0285 181.883 76.1685 181.775 76.3485 181.705C76.5318 181.635 76.7435 181.6 76.9835 181.6V181.995C76.7268 181.995 76.5068 182.037 76.3235 182.12C76.1401 182.203 76.0135 182.335 75.9435 182.515V184H75.4385V181.6ZM78.3355 181.6H78.8255V181.945C78.9389 181.802 79.0772 181.697 79.2405 181.63C79.4072 181.56 79.5805 181.525 79.7605 181.525C80.0805 181.525 80.3189 181.61 80.4755 181.78C80.6322 181.95 80.7105 182.178 80.7105 182.465V184H80.2055V182.515C80.2055 182.125 80.0189 181.93 79.6455 181.93C79.4855 181.93 79.3355 181.968 79.1955 182.045C79.0589 182.118 78.9405 182.232 78.8405 182.385V184H78.3355V181.6ZM86.2492 184.075C85.9792 184.075 85.7408 184.025 85.5342 183.925C85.3308 183.822 85.1708 183.675 85.0542 183.485C84.9408 183.292 84.8842 183.065 84.8842 182.805C84.8842 182.548 84.9408 182.323 85.0542 182.13C85.1675 181.937 85.3275 181.788 85.5342 181.685C85.7408 181.578 85.9792 181.525 86.2492 181.525C86.5192 181.525 86.7575 181.578 86.9642 181.685C87.1708 181.788 87.3308 181.937 87.4442 182.13C87.5608 182.323 87.6192 182.548 87.6192 182.805C87.6192 183.065 87.5608 183.292 87.4442 183.485C87.3308 183.675 87.1708 183.822 86.9642 183.925C86.7575 184.025 86.5192 184.075 86.2492 184.075ZM86.2492 183.675C86.5092 183.675 86.7158 183.595 86.8692 183.435C87.0225 183.275 87.0992 183.065 87.0992 182.805C87.0992 182.535 87.0225 182.322 86.8692 182.165C86.7158 182.008 86.5092 181.93 86.2492 181.93C85.9892 181.93 85.7825 182.008 85.6292 182.165C85.4758 182.322 85.3992 182.535 85.3992 182.805C85.3992 183.065 85.4758 183.275 85.6292 183.435C85.7825 183.595 85.9892 183.675 86.2492 183.675ZM89.0678 181.6H89.5578V181.945C89.6711 181.802 89.8094 181.697 89.9728 181.63C90.1394 181.56 90.3128 181.525 90.4928 181.525C90.8128 181.525 91.0511 181.61 91.2078 181.78C91.3644 181.95 91.4428 182.178 91.4428 182.465V184H90.9378V182.515C90.9378 182.125 90.7511 181.93 90.3778 181.93C90.2178 181.93 90.0678 181.968 89.9278 182.045C89.7911 182.118 89.6728 182.232 89.5728 182.385V184H89.0678V181.6ZM92.9658 180.305H93.4708V184H92.9658V180.305ZM95.533 184.99C95.353 184.99 95.203 184.972 95.083 184.935V184.54C95.1697 184.573 95.2764 184.59 95.403 184.59C95.5197 184.59 95.6114 184.56 95.678 184.5C95.7447 184.443 95.8047 184.35 95.858 184.22L95.973 183.94L94.923 181.6H95.443L96.243 183.445L96.988 181.6H97.508L96.428 184.27C96.328 184.52 96.208 184.702 96.068 184.815C95.9314 184.932 95.753 184.99 95.533 184.99Z" fill="black"/>
<path d="M42.279 181.055L41.524 181.6V181.115L42.349 180.505H42.789V184H42.279V181.055ZM45.6954 184.075C45.3954 184.075 45.1354 184.002 44.9154 183.855C44.6988 183.708 44.5321 183.498 44.4154 183.225C44.2988 182.952 44.2404 182.628 44.2404 182.255C44.2404 181.882 44.2971 181.558 44.4104 181.285C44.5271 181.008 44.6938 180.797 44.9104 180.65C45.1304 180.503 45.3921 180.43 45.6954 180.43C45.9988 180.43 46.2588 180.503 46.4754 180.65C46.6954 180.797 46.8621 181.008 46.9754 181.285C47.0921 181.558 47.1504 181.882 47.1504 182.255C47.1504 182.628 47.0921 182.952 46.9754 183.225C46.8588 183.498 46.6904 183.708 46.4704 183.855C46.2538 184.002 45.9954 184.075 45.6954 184.075ZM45.6954 183.625C45.9921 183.625 46.2238 183.503 46.3904 183.26C46.5604 183.013 46.6454 182.68 46.6454 182.26C46.6454 181.84 46.5621 181.507 46.3954 181.26C46.2288 181.013 45.9954 180.89 45.6954 180.89C45.3954 180.89 45.1621 181.013 44.9954 181.26C44.8288 181.507 44.7454 181.84 44.7454 182.26C44.7454 182.68 44.8288 183.013 44.9954 183.26C45.1654 183.503 45.3988 183.625 45.6954 183.625Z" fill="#877900"/>
<rect x="12.25" y="143.25" width="125.5" height="46.5" stroke="#6C6C6C" stroke-width="0.5"/>
<path d="M15.63 35.225C15.13 35.225 14.6 35.16 14.04 35.03C13.48 34.91 13.04 34.745 12.72 34.535V33.245C13.11 33.475 13.56 33.665 14.07 33.815C14.58 33.955 15.075 34.025 15.555 34.025C16.095 34.025 16.49 33.96 16.74 33.83C16.99 33.7 17.115 33.49 17.115 33.2C17.115 32.98 17.055 32.805 16.935 32.675C16.825 32.535 16.63 32.41 16.35 32.3C16.08 32.19 15.67 32.06 15.12 31.91C14.53 31.74 14.06 31.57 13.71 31.4C13.37 31.22 13.11 30.995 12.93 30.725C12.76 30.455 12.675 30.105 12.675 29.675C12.675 28.985 12.945 28.465 13.485 28.115C14.035 27.755 14.77 27.575 15.69 27.575C16.17 27.575 16.64 27.62 17.1 27.71C17.56 27.8 17.93 27.925 18.21 28.085V29.345C17.92 29.175 17.56 29.04 17.13 28.94C16.71 28.84 16.28 28.79 15.84 28.79C15.31 28.79 14.905 28.855 14.625 28.985C14.345 29.115 14.205 29.345 14.205 29.675C14.205 29.885 14.265 30.055 14.385 30.185C14.505 30.315 14.695 30.43 14.955 30.53C15.225 30.62 15.65 30.74 16.23 30.89C17.14 31.14 17.77 31.435 18.12 31.775C18.48 32.115 18.66 32.585 18.66 33.185C18.66 33.805 18.405 34.3 17.895 34.67C17.385 35.04 16.63 35.225 15.63 35.225ZM25.8691 35.225C25.1391 35.225 24.5741 35.015 24.1741 34.595C23.7841 34.175 23.5891 33.58 23.5891 32.81V28.97H22.4941V27.8H23.5891V25.64H25.1191V27.8H26.8891V28.97H25.1191V32.705C25.1191 33.185 25.2091 33.525 25.3891 33.725C25.5791 33.925 25.9191 34.025 26.4091 34.025C26.6991 34.025 26.9891 33.96 27.2791 33.83V35.03C26.8991 35.16 26.4291 35.225 25.8691 35.225ZM31.7045 27.8H33.1745V29.09C33.4745 28.65 33.8945 28.325 34.4345 28.115C34.9845 27.905 35.6195 27.8 36.3395 27.8V28.985C35.5695 28.985 34.9095 29.11 34.3595 29.36C33.8095 29.61 33.4295 30.005 33.2195 30.545V35H31.7045V27.8ZM42.6019 35.225C41.7319 35.225 41.0319 35.005 40.5019 34.565C39.9819 34.115 39.7219 33.51 39.7219 32.75C39.7219 31.95 39.9719 31.335 40.4719 30.905C40.9819 30.465 41.7019 30.245 42.6319 30.245C43.6219 30.245 44.4619 30.445 45.1519 30.845V30.47C45.1519 29.9 44.9769 29.48 44.6269 29.21C44.2869 28.93 43.7469 28.79 43.0069 28.79C42.5669 28.79 42.1369 28.835 41.7169 28.925C41.3069 29.005 40.9369 29.12 40.6069 29.27V28.04C40.9069 27.9 41.2969 27.79 41.7769 27.71C42.2569 27.62 42.7219 27.575 43.1719 27.575C44.3619 27.575 45.2419 27.84 45.8119 28.37C46.3919 28.89 46.6819 29.615 46.6819 30.545V35H45.2569V34.19C44.9469 34.53 44.5769 34.79 44.1469 34.97C43.7269 35.14 43.2119 35.225 42.6019 35.225ZM42.9769 34.07C43.4569 34.07 43.8919 33.975 44.2819 33.785C44.6719 33.595 44.9619 33.33 45.1519 32.99V32.015C44.5019 31.595 43.7769 31.385 42.9769 31.385C42.3969 31.385 41.9619 31.5 41.6719 31.73C41.3919 31.95 41.2519 32.29 41.2519 32.75C41.2519 33.63 41.8269 34.07 42.9769 34.07ZM50.4416 27.8H51.9866L53.6066 33.14L55.2116 27.8H56.5766L58.1816 33.14L59.8016 27.8H61.3616L59.0216 35H57.5666L55.9016 29.63L54.2366 35H52.7666L50.4416 27.8ZM70.487 35.225C69.837 35.225 69.272 35.125 68.792 34.925C68.322 34.715 67.887 34.39 67.487 33.95V35H66.017V23.915H67.532V28.76C67.862 28.37 68.287 28.075 68.807 27.875C69.327 27.675 69.887 27.575 70.487 27.575C71.207 27.575 71.852 27.74 72.422 28.07C73.002 28.39 73.452 28.84 73.772 29.42C74.102 30 74.267 30.665 74.267 31.415C74.267 32.175 74.102 32.845 73.772 33.425C73.452 33.995 73.002 34.44 72.422 34.76C71.852 35.07 71.207 35.225 70.487 35.225ZM70.142 34.025C70.632 34.025 71.072 33.92 71.462 33.71C71.862 33.49 72.172 33.18 72.392 32.78C72.622 32.38 72.737 31.925 72.737 31.415C72.737 30.905 72.622 30.45 72.392 30.05C72.172 29.65 71.862 29.34 71.462 29.12C71.072 28.9 70.632 28.79 70.142 28.79C69.532 28.79 68.987 28.955 68.507 29.285C68.027 29.615 67.702 30.055 67.532 30.605V32.225C67.722 32.775 68.047 33.215 68.507 33.545C68.977 33.865 69.522 34.025 70.142 34.025ZM82.8793 35.225C81.5493 35.225 80.5043 34.895 79.7443 34.235C78.9943 33.565 78.6193 32.625 78.6193 31.415C78.6193 30.235 78.9543 29.3 79.6243 28.61C80.3043 27.92 81.2693 27.575 82.5193 27.575C83.3493 27.575 84.0543 27.735 84.6343 28.055C85.2143 28.365 85.6493 28.8 85.9393 29.36C86.2393 29.91 86.3893 30.54 86.3893 31.25V32H80.0593C80.1093 32.68 80.3943 33.19 80.9143 33.53C81.4443 33.86 82.1593 34.025 83.0593 34.025C83.5193 34.025 83.9843 33.985 84.4543 33.905C84.9243 33.815 85.3393 33.7 85.6993 33.56V34.775C85.3793 34.905 84.9543 35.01 84.4243 35.09C83.9043 35.18 83.3893 35.225 82.8793 35.225ZM84.9643 30.935C84.9443 30.255 84.7193 29.73 84.2893 29.36C83.8693 28.98 83.2693 28.79 82.4893 28.79C81.7293 28.79 81.1393 28.985 80.7193 29.375C80.2993 29.765 80.0793 30.285 80.0593 30.935H84.9643ZM91.0453 27.8H92.5153V29.09C92.8153 28.65 93.2353 28.325 93.7753 28.115C94.3253 27.905 94.9603 27.8 95.6803 27.8V28.985C94.9103 28.985 94.2503 29.11 93.7003 29.36C93.1503 29.61 92.7703 30.005 92.5603 30.545V35H91.0453V27.8ZM99.9633 27.8H101.433V29.09C101.733 28.65 102.153 28.325 102.693 28.115C103.243 27.905 103.878 27.8 104.598 27.8V28.985C103.828 28.985 103.168 29.11 102.618 29.36C102.068 29.61 101.688 30.005 101.478 30.545V35H99.9633V27.8ZM110.265 37.97C109.725 37.97 109.275 37.915 108.915 37.805V36.62C109.175 36.72 109.495 36.77 109.875 36.77C110.225 36.77 110.5 36.68 110.7 36.5C110.9 36.33 111.08 36.05 111.24 35.66L111.585 34.82L108.435 27.8H109.995L112.395 33.335L114.63 27.8H116.19L112.95 35.81C112.65 36.56 112.29 37.105 111.87 37.445C111.46 37.795 110.925 37.97 110.265 37.97Z" fill="black"/>
<path d="M12.8691 19.0381L17.1807 17.1875V16.4746L12.8691 14.6289V15.5615L16.0283 16.7334L16.3213 16.8262L16.0283 16.9092L12.8691 18.1006V19.0381ZM20.875 19.0381L25.1865 17.1875V16.4746L20.875 14.6289V15.5615L24.0342 16.7334L24.3271 16.8262L24.0342 16.9092L20.875 18.1006V19.0381ZM38.2148 20H39.123V15.415H41.1592V14.7168H39.123V14.3457C39.123 14.1243 39.1507 13.9307 39.2061 13.7646C39.2646 13.5986 39.3493 13.4635 39.46 13.3594C39.5641 13.2585 39.6943 13.1836 39.8506 13.1348C40.0101 13.0827 40.1924 13.0566 40.3975 13.0566C40.5993 13.0566 40.7881 13.0745 40.9639 13.1104C41.1429 13.1429 41.2992 13.182 41.4326 13.2275L41.54 12.4805C41.4554 12.4577 41.3724 12.4382 41.291 12.4219C41.2096 12.4023 41.1283 12.3844 41.0469 12.3682C40.9232 12.3454 40.7979 12.3275 40.6709 12.3145C40.5439 12.2982 40.4154 12.29 40.2852 12.29C39.9727 12.29 39.6895 12.334 39.4355 12.4219C39.1816 12.5098 38.9652 12.64 38.7861 12.8125C38.6038 12.985 38.4622 13.1999 38.3613 13.457C38.2637 13.7109 38.2148 14.0072 38.2148 14.3457V14.7168H36.7598V15.415H38.2148V20ZM44.6191 17.3096V17.417C44.6191 17.7979 44.6745 18.151 44.7852 18.4766C44.8958 18.8021 45.0553 19.0853 45.2637 19.3262C45.4688 19.5671 45.7194 19.7559 46.0156 19.8926C46.3151 20.0293 46.652 20.0977 47.0264 20.0977C47.3975 20.0977 47.7311 20.0293 48.0273 19.8926C48.3236 19.7559 48.5758 19.5671 48.7842 19.3262C48.9893 19.0853 49.1471 18.8021 49.2578 18.4766C49.3685 18.151 49.4238 17.7979 49.4238 17.417V17.3096C49.4238 16.9287 49.3685 16.5755 49.2578 16.25C49.1471 15.9212 48.9893 15.6364 48.7842 15.3955C48.5758 15.1546 48.3219 14.9658 48.0225 14.8291C47.7262 14.6891 47.391 14.6191 47.0166 14.6191C46.6455 14.6191 46.3118 14.6891 46.0156 14.8291C45.7194 14.9658 45.4688 15.1546 45.2637 15.3955C45.0553 15.6364 44.8958 15.9212 44.7852 16.25C44.6745 16.5755 44.6191 16.9287 44.6191 17.3096ZM45.5225 17.417V17.3096C45.5225 17.0524 45.5534 16.8066 45.6152 16.5723C45.6771 16.3346 45.7715 16.1263 45.8984 15.9473C46.0221 15.7682 46.1768 15.6266 46.3623 15.5225C46.5479 15.415 46.766 15.3613 47.0166 15.3613C47.2673 15.3613 47.4854 15.415 47.6709 15.5225C47.8597 15.6266 48.0176 15.7682 48.1445 15.9473C48.2682 16.1263 48.361 16.3346 48.4229 16.5723C48.488 16.8066 48.5205 17.0524 48.5205 17.3096V17.417C48.5205 17.6774 48.4896 17.9264 48.4277 18.1641C48.3659 18.3984 48.2731 18.6051 48.1494 18.7842C48.0225 18.9632 47.8646 19.1048 47.6758 19.209C47.4902 19.3132 47.2738 19.3652 47.0264 19.3652C46.7757 19.3652 46.556 19.3132 46.3672 19.209C46.1784 19.1048 46.0221 18.9632 45.8984 18.7842C45.7715 18.6051 45.6771 18.3984 45.6152 18.1641C45.5534 17.9264 45.5225 17.6774 45.5225 17.417ZM52.625 17.3096V17.417C52.625 17.7979 52.6803 18.151 52.791 18.4766C52.9017 18.8021 53.0612 19.0853 53.2695 19.3262C53.4746 19.5671 53.7253 19.7559 54.0215 19.8926C54.321 20.0293 54.6579 20.0977 55.0322 20.0977C55.4033 20.0977 55.737 20.0293 56.0332 19.8926C56.3294 19.7559 56.5817 19.5671 56.79 19.3262C56.9951 19.0853 57.153 18.8021 57.2637 18.4766C57.3743 18.151 57.4297 17.7979 57.4297 17.417V17.3096C57.4297 16.9287 57.3743 16.5755 57.2637 16.25C57.153 15.9212 56.9951 15.6364 56.79 15.3955C56.5817 15.1546 56.3278 14.9658 56.0283 14.8291C55.7321 14.6891 55.3968 14.6191 55.0225 14.6191C54.6514 14.6191 54.3177 14.6891 54.0215 14.8291C53.7253 14.9658 53.4746 15.1546 53.2695 15.3955C53.0612 15.6364 52.9017 15.9212 52.791 16.25C52.6803 16.5755 52.625 16.9287 52.625 17.3096ZM53.5283 17.417V17.3096C53.5283 17.0524 53.5592 16.8066 53.6211 16.5723C53.6829 16.3346 53.7773 16.1263 53.9043 15.9473C54.028 15.7682 54.1826 15.6266 54.3682 15.5225C54.5537 15.415 54.7718 15.3613 55.0225 15.3613C55.2731 15.3613 55.4912 15.415 55.6768 15.5225C55.8656 15.6266 56.0234 15.7682 56.1504 15.9473C56.2741 16.1263 56.3669 16.3346 56.4287 16.5723C56.4938 16.8066 56.5264 17.0524 56.5264 17.3096V17.417C56.5264 17.6774 56.4954 17.9264 56.4336 18.1641C56.3717 18.3984 56.279 18.6051 56.1553 18.7842C56.0283 18.9632 55.8704 19.1048 55.6816 19.209C55.4961 19.3132 55.2796 19.3652 55.0322 19.3652C54.7816 19.3652 54.5618 19.3132 54.373 19.209C54.1842 19.1048 54.028 18.9632 53.9043 18.7842C53.7773 18.6051 53.6829 18.3984 53.6211 18.1641C53.5592 17.9264 53.5283 17.6774 53.5283 17.417ZM60.7139 17.3145V17.417C60.7139 17.7946 60.7643 18.1478 60.8652 18.4766C60.9661 18.8021 61.1077 19.0853 61.29 19.3262C61.4723 19.5671 61.6921 19.7559 61.9492 19.8926C62.2096 20.0293 62.4993 20.0977 62.8184 20.0977C63.1439 20.0977 63.4287 20.0423 63.6729 19.9316C63.917 19.821 64.127 19.6582 64.3027 19.4434L64.3418 20H65.1719V12.5H64.2686V15.2393C64.096 15.0374 63.891 14.8844 63.6533 14.7803C63.4189 14.6729 63.1439 14.6191 62.8281 14.6191C62.5059 14.6191 62.2145 14.6859 61.9541 14.8193C61.6937 14.9528 61.4723 15.1383 61.29 15.376C61.1045 15.6136 60.9613 15.8984 60.8604 16.2305C60.7627 16.5592 60.7139 16.9206 60.7139 17.3145ZM61.6172 17.417V17.3145C61.6172 17.0573 61.6449 16.8132 61.7002 16.582C61.7555 16.3477 61.8418 16.141 61.959 15.9619C62.0729 15.7861 62.2194 15.6462 62.3984 15.542C62.5807 15.4378 62.7988 15.3857 63.0527 15.3857C63.349 15.3857 63.5964 15.4557 63.7949 15.5957C63.9935 15.7324 64.1514 15.9082 64.2686 16.123V18.5742C64.1514 18.8053 63.9935 18.9893 63.7949 19.126C63.5964 19.2627 63.3457 19.3311 63.043 19.3311C62.7923 19.3311 62.5775 19.2806 62.3984 19.1797C62.2194 19.0755 62.0729 18.9355 61.959 18.7598C61.8418 18.584 61.7555 18.3805 61.7002 18.1494C61.6449 17.9183 61.6172 17.6742 61.6172 17.417Z" fill="#707070"/>
<path d="M50.2093 67.8476L43 81.5453L57.4186 121.196L76.1628 134.173L87.6977 126.243L105 85.1499L100.674 71.4522L74.7209 62.0801L50.2093 67.8476Z" fill="#ED0000"/>
<path d="M64.5592 97.2017L66.825 93.3968L67.5802 96.4407L64.5592 97.2017Z" fill="white"/>
<path d="M50.2092 92.6358L50.9645 88.8309L52.475 92.6358H50.2092Z" fill="white"/>
<path d="M78.9091 103.29L81.1749 98.7236L80.4196 103.29H78.9091Z" fill="white"/>
<path d="M74.3776 93.3968L75.8881 90.3528V93.3968H74.3776Z" fill="white"/>
<path d="M51.7197 81.982L53.2303 78.9381L54.7408 82.743L51.7197 81.982Z" fill="white"/>
<path d="M63.8039 85.7869L65.3144 81.982L66.825 85.7869H63.8039Z" fill="white"/>
<path d="M77.3986 81.221V75.8942L79.6644 81.221H77.3986Z" fill="white"/>
<path d="M90.238 79.6991L90.9933 78.1771L92.5038 79.6991H90.238Z" fill="white"/>
<path d="M87.217 89.5918L89.4828 85.7869L88.7275 90.3528L87.217 89.5918Z" fill="white"/>
<path d="M97.0354 91.8748L96.2801 88.8309L97.7906 91.1138L97.0354 91.8748Z" fill="white"/>
<path d="M61.6713 67.4169L74.8027 62.3941L88.7549 69.9283H95.3206L91.2171 62.3941L77.2649 57.3713L78.0856 54.0228L79.727 51.5114L76.4442 49L74.8027 51.5114L73.1613 57.3713L60.0298 59.8827L53.4641 65.7426L61.6713 67.4169Z" fill="#026A00"/>
<path d="M129.779 17V9.89062H129.706L127.016 10.9258V11.751L128.876 11.043V17H129.779ZM137.318 14.2803V12.6152C137.318 12.1628 137.266 11.7624 137.162 11.4141C137.058 11.0625 136.908 10.7663 136.713 10.5254C136.514 10.2845 136.272 10.1022 135.985 9.97852C135.702 9.85156 135.378 9.78809 135.014 9.78809C134.652 9.78809 134.328 9.85156 134.042 9.97852C133.759 10.1022 133.519 10.2845 133.324 10.5254C133.126 10.7663 132.974 11.0625 132.87 11.4141C132.766 11.7624 132.714 12.1628 132.714 12.6152V14.2803C132.714 14.7327 132.766 15.1348 132.87 15.4863C132.974 15.8346 133.126 16.1276 133.324 16.3652C133.523 16.6094 133.765 16.7933 134.052 16.917C134.338 17.0374 134.662 17.0977 135.023 17.0977C135.388 17.0977 135.712 17.0358 135.995 16.9121C136.278 16.7884 136.518 16.6061 136.713 16.3652C136.908 16.1276 137.058 15.8346 137.162 15.4863C137.266 15.1348 137.318 14.7327 137.318 14.2803ZM133.622 14.0996C133.622 14.015 133.622 13.932 133.622 13.8506C133.622 13.7692 133.622 13.6878 133.622 13.6064V12.415C133.622 12.083 133.655 11.7917 133.72 11.541C133.788 11.2871 133.891 11.0804 134.027 10.9209C134.141 10.7939 134.28 10.6979 134.442 10.6328C134.608 10.5645 134.799 10.5303 135.014 10.5303C135.225 10.5303 135.411 10.5612 135.57 10.623C135.733 10.6849 135.87 10.7777 135.98 10.9014C136.094 11.0218 136.184 11.1732 136.249 11.3555C136.317 11.5345 136.365 11.7412 136.391 11.9756L133.622 14.0996ZM136.41 14.4707C136.41 14.819 136.374 15.1217 136.303 15.3789C136.234 15.6361 136.125 15.8444 135.976 16.0039C135.865 16.1211 135.73 16.2106 135.57 16.2725C135.411 16.3343 135.228 16.3652 135.023 16.3652C134.828 16.3652 134.652 16.3376 134.496 16.2822C134.34 16.2236 134.206 16.139 134.096 16.0283C133.975 15.9111 133.878 15.763 133.803 15.584C133.728 15.4017 133.676 15.1917 133.646 14.9541L136.41 12.8398C136.41 12.931 136.41 13.0465 136.41 13.1865C136.41 13.3232 136.41 13.416 136.41 13.4648V14.4707Z" fill="#877900"/>
<path d="M120.101 17.1268L120.894 16.5628L119.33 15.1133L122.689 10.9714L122.405 9.08467L120.716 9.14382L117.63 13.5379L115.93 11.9624L115.71 12.8421L117.479 14.4806L114.925 17.7441L116.081 18.8155L118.499 15.4258L120.101 17.1268Z" fill="#FFEC44"/>
</svg>
