<svg width="150" height="200" viewBox="0 0 150 200" fill="none" xmlns="http://www.w3.org/2000/svg">
<rect width="150" height="200" fill="white"/>
<path d="M17.325 148.505H17.835V150.005H19.66V148.505H20.17V152H19.66V150.435H17.835V152H17.325V148.505ZM22.8911 152.075C22.4478 152.075 22.0994 151.965 21.8461 151.745C21.5961 151.522 21.4711 151.208 21.4711 150.805C21.4711 150.412 21.5828 150.1 21.8061 149.87C22.0328 149.64 22.3544 149.525 22.7711 149.525C23.0478 149.525 23.2828 149.578 23.4761 149.685C23.6694 149.788 23.8144 149.933 23.9111 150.12C24.0111 150.303 24.0611 150.513 24.0611 150.75V151H21.9511C21.9678 151.227 22.0628 151.397 22.2361 151.51C22.4128 151.62 22.6511 151.675 22.9511 151.675C23.1044 151.675 23.2594 151.662 23.4161 151.635C23.5728 151.605 23.7111 151.567 23.8311 151.52V151.925C23.7244 151.968 23.5828 152.003 23.4061 152.03C23.2328 152.06 23.0611 152.075 22.8911 152.075ZM23.5861 150.645C23.5794 150.418 23.5044 150.243 23.3611 150.12C23.2211 149.993 23.0211 149.93 22.7611 149.93C22.5078 149.93 22.3111 149.995 22.1711 150.125C22.0311 150.255 21.9578 150.428 21.9511 150.645H23.5861ZM25.3631 149.6H25.8531V150.03C25.9531 149.883 26.0931 149.775 26.2731 149.705C26.4564 149.635 26.6681 149.6 26.9081 149.6V149.995C26.6514 149.995 26.4314 150.037 26.2481 150.12C26.0648 150.203 25.9381 150.335 25.8681 150.515V152H25.3631V149.6ZM29.2788 152.075C28.8355 152.075 28.4871 151.965 28.2338 151.745C27.9838 151.522 27.8588 151.208 27.8588 150.805C27.8588 150.412 27.9705 150.1 28.1938 149.87C28.4205 149.64 28.7421 149.525 29.1588 149.525C29.4355 149.525 29.6705 149.578 29.8638 149.685C30.0571 149.788 30.2021 149.933 30.2988 150.12C30.3988 150.303 30.4488 150.513 30.4488 150.75V151H28.3388C28.3555 151.227 28.4505 151.397 28.6238 151.51C28.8005 151.62 29.0388 151.675 29.3388 151.675C29.4921 151.675 29.6471 151.662 29.8038 151.635C29.9605 151.605 30.0988 151.567 30.2188 151.52V151.925C30.1121 151.968 29.9705 152.003 29.7938 152.03C29.6205 152.06 29.4488 152.075 29.2788 152.075ZM29.9738 150.645C29.9671 150.418 29.8921 150.243 29.7488 150.12C29.6088 149.993 29.4088 149.93 29.1488 149.93C28.8955 149.93 28.6988 149.995 28.5588 150.125C28.4188 150.255 28.3455 150.428 28.3388 150.645H29.9738ZM31.9808 148.43H32.4808L32.0858 149.405H31.6508L31.9808 148.43ZM34.4893 152.075C34.3226 152.075 34.146 152.053 33.9593 152.01C33.7726 151.97 33.626 151.915 33.5193 151.845V151.415C33.6493 151.492 33.7993 151.555 33.9693 151.605C34.1393 151.652 34.3043 151.675 34.4643 151.675C34.6443 151.675 34.776 151.653 34.8593 151.61C34.9426 151.567 34.9843 151.497 34.9843 151.4C34.9843 151.327 34.9643 151.268 34.9243 151.225C34.8876 151.178 34.8226 151.137 34.7293 151.1C34.6393 151.063 34.5026 151.02 34.3193 150.97C34.1226 150.913 33.966 150.857 33.8493 150.8C33.736 150.74 33.6493 150.665 33.5893 150.575C33.5326 150.485 33.5043 150.368 33.5043 150.225C33.5043 149.995 33.5943 149.822 33.7743 149.705C33.9576 149.585 34.2026 149.525 34.5093 149.525C34.6693 149.525 34.826 149.54 34.9793 149.57C35.1326 149.6 35.256 149.642 35.3493 149.695V150.115C35.2526 150.058 35.1326 150.013 34.9893 149.98C34.8493 149.947 34.706 149.93 34.5593 149.93C34.3826 149.93 34.2476 149.952 34.1543 149.995C34.061 150.038 34.0143 150.115 34.0143 150.225C34.0143 150.295 34.0343 150.352 34.0743 150.395C34.1143 150.438 34.1776 150.477 34.2643 150.51C34.3543 150.54 34.496 150.58 34.6893 150.63C34.9926 150.713 35.2026 150.812 35.3193 150.925C35.4393 151.038 35.4993 151.195 35.4993 151.395C35.4993 151.602 35.4143 151.767 35.2443 151.89C35.0743 152.013 34.8226 152.075 34.4893 152.075ZM40.2612 152.075C39.9712 152.075 39.7378 152.002 39.5612 151.855C39.3878 151.705 39.3012 151.503 39.3012 151.25C39.3012 150.983 39.3845 150.778 39.5512 150.635C39.7212 150.488 39.9612 150.415 40.2712 150.415C40.6012 150.415 40.8812 150.482 41.1112 150.615V150.49C41.1112 150.3 41.0528 150.16 40.9362 150.07C40.8228 149.977 40.6428 149.93 40.3962 149.93C40.2495 149.93 40.1062 149.945 39.9662 149.975C39.8295 150.002 39.7062 150.04 39.5962 150.09V149.68C39.6962 149.633 39.8262 149.597 39.9862 149.57C40.1462 149.54 40.3012 149.525 40.4512 149.525C40.8478 149.525 41.1412 149.613 41.3312 149.79C41.5245 149.963 41.6212 150.205 41.6212 150.515V152H41.1462V151.73C41.0428 151.843 40.9195 151.93 40.7762 151.99C40.6362 152.047 40.4645 152.075 40.2612 152.075ZM40.3862 151.69C40.5462 151.69 40.6912 151.658 40.8212 151.595C40.9512 151.532 41.0478 151.443 41.1112 151.33V151.005C40.8945 150.865 40.6528 150.795 40.3862 150.795C40.1928 150.795 40.0478 150.833 39.9512 150.91C39.8578 150.983 39.8112 151.097 39.8112 151.25C39.8112 151.543 40.0028 151.69 40.3862 151.69ZM45.5984 149.6H46.0784V149.945C46.1918 149.805 46.3201 149.7 46.4634 149.63C46.6068 149.56 46.7551 149.525 46.9084 149.525C47.1018 149.525 47.2551 149.558 47.3684 149.625C47.4818 149.688 47.5651 149.787 47.6184 149.92C47.7251 149.79 47.8551 149.692 48.0084 149.625C48.1651 149.558 48.3218 149.525 48.4784 149.525C48.7718 149.525 48.9834 149.6 49.1134 149.75C49.2434 149.897 49.3084 150.115 49.3084 150.405V152H48.8184V150.47C48.8184 150.273 48.7818 150.135 48.7084 150.055C48.6351 149.972 48.5101 149.93 48.3334 149.93C48.0801 149.93 47.8734 150.04 47.7134 150.26C47.7201 150.31 47.7234 150.392 47.7234 150.505V152H47.2334V150.47C47.2334 150.273 47.2001 150.135 47.1334 150.055C47.0668 149.972 46.9468 149.93 46.7734 149.93C46.5201 149.93 46.2934 150.073 46.0934 150.36V152H45.5984V149.6ZM52.0044 152.075C51.561 152.075 51.2127 151.965 50.9594 151.745C50.7094 151.522 50.5844 151.208 50.5844 150.805C50.5844 150.412 50.696 150.1 50.9194 149.87C51.146 149.64 51.4677 149.525 51.8844 149.525C52.161 149.525 52.396 149.578 52.5894 149.685C52.7827 149.788 52.9277 149.933 53.0244 150.12C53.1244 150.303 53.1744 150.513 53.1744 150.75V151H51.0644C51.081 151.227 51.176 151.397 51.3494 151.51C51.526 151.62 51.7644 151.675 52.0644 151.675C52.2177 151.675 52.3727 151.662 52.5294 151.635C52.686 151.605 52.8244 151.567 52.9444 151.52V151.925C52.8377 151.968 52.696 152.003 52.5194 152.03C52.346 152.06 52.1744 152.075 52.0044 152.075ZM52.6994 150.645C52.6927 150.418 52.6177 150.243 52.4744 150.12C52.3344 149.993 52.1344 149.93 51.8744 149.93C51.621 149.93 51.4244 149.995 51.2844 150.125C51.1444 150.255 51.071 150.428 51.0644 150.645H52.6994ZM54.4764 148.305H54.9814V152H54.4764V148.305ZM57.6486 152.075C57.3786 152.075 57.1403 152.025 56.9336 151.925C56.7303 151.822 56.5703 151.675 56.4536 151.485C56.3403 151.292 56.2836 151.065 56.2836 150.805C56.2836 150.548 56.3403 150.323 56.4536 150.13C56.5669 149.937 56.7269 149.788 56.9336 149.685C57.1403 149.578 57.3786 149.525 57.6486 149.525C57.9186 149.525 58.1569 149.578 58.3636 149.685C58.5703 149.788 58.7303 149.937 58.8436 150.13C58.9603 150.323 59.0186 150.548 59.0186 150.805C59.0186 151.065 58.9603 151.292 58.8436 151.485C58.7303 151.675 58.5703 151.822 58.3636 151.925C58.1569 152.025 57.9186 152.075 57.6486 152.075ZM57.6486 151.675C57.9086 151.675 58.1153 151.595 58.2686 151.435C58.4219 151.275 58.4986 151.065 58.4986 150.805C58.4986 150.535 58.4219 150.322 58.2686 150.165C58.1153 150.008 57.9086 149.93 57.6486 149.93C57.3886 149.93 57.1819 150.008 57.0286 150.165C56.8753 150.322 56.7986 150.535 56.7986 150.805C56.7986 151.065 56.8753 151.275 57.0286 151.435C57.1819 151.595 57.3886 151.675 57.6486 151.675ZM60.3172 149.6H60.8072V149.945C60.9205 149.802 61.0589 149.697 61.2222 149.63C61.3889 149.56 61.5622 149.525 61.7422 149.525C62.0622 149.525 62.3005 149.61 62.4572 149.78C62.6139 149.95 62.6922 150.178 62.6922 150.465V152H62.1872V150.515C62.1872 150.125 62.0005 149.93 61.6272 149.93C61.4672 149.93 61.3172 149.968 61.1772 150.045C61.0405 150.118 60.9222 150.232 60.8222 150.385V152H60.3172V149.6ZM66.9658 149.13C66.8792 149.13 66.8075 149.102 66.7508 149.045C66.6942 148.988 66.6658 148.918 66.6658 148.835C66.6658 148.752 66.6942 148.682 66.7508 148.625C66.8108 148.568 66.8825 148.54 66.9658 148.54C67.0492 148.54 67.1192 148.568 67.1758 148.625C67.2358 148.682 67.2658 148.752 67.2658 148.835C67.2658 148.918 67.2358 148.988 67.1758 149.045C67.1192 149.102 67.0492 149.13 66.9658 149.13ZM66.3708 153.155C66.2208 153.155 66.0942 153.137 65.9908 153.1V152.685C66.0775 152.725 66.1775 152.745 66.2908 152.745C66.4408 152.745 66.5475 152.708 66.6108 152.635C66.6775 152.565 66.7108 152.45 66.7108 152.29V149.6H67.2208V152.325C67.2208 152.602 67.1442 152.808 66.9908 152.945C66.8375 153.085 66.6308 153.155 66.3708 153.155ZM69.9308 152.075C69.6608 152.075 69.4225 152.025 69.2158 151.925C69.0125 151.822 68.8525 151.675 68.7358 151.485C68.6225 151.292 68.5658 151.065 68.5658 150.805C68.5658 150.548 68.6225 150.323 68.7358 150.13C68.8492 149.937 69.0092 149.788 69.2158 149.685C69.4225 149.578 69.6608 149.525 69.9308 149.525C70.2008 149.525 70.4392 149.578 70.6458 149.685C70.8525 149.788 71.0125 149.937 71.1258 150.13C71.2425 150.323 71.3008 150.548 71.3008 150.805C71.3008 151.065 71.2425 151.292 71.1258 151.485C71.0125 151.675 70.8525 151.822 70.6458 151.925C70.4392 152.025 70.2008 152.075 69.9308 152.075ZM69.9308 151.675C70.1908 151.675 70.3975 151.595 70.5508 151.435C70.7042 151.275 70.7808 151.065 70.7808 150.805C70.7808 150.535 70.7042 150.322 70.5508 150.165C70.3975 150.008 70.1908 149.93 69.9308 149.93C69.6708 149.93 69.4642 150.008 69.3108 150.165C69.1575 150.322 69.0808 150.535 69.0808 150.805C69.0808 151.065 69.1575 151.275 69.3108 151.435C69.4642 151.595 69.6708 151.675 69.9308 151.675ZM72.5994 148.305H73.1044V152H72.5994V148.305ZM73.1094 150.785L74.2144 149.6H74.8294L73.7194 150.785L74.9444 152H74.3294L73.1094 150.785ZM77.5161 152.075C77.0728 152.075 76.7244 151.965 76.4711 151.745C76.2211 151.522 76.0961 151.208 76.0961 150.805C76.0961 150.412 76.2078 150.1 76.4311 149.87C76.6578 149.64 76.9794 149.525 77.3961 149.525C77.6728 149.525 77.9078 149.578 78.1011 149.685C78.2944 149.788 78.4394 149.933 78.5361 150.12C78.6361 150.303 78.6861 150.513 78.6861 150.75V151H76.5761C76.5928 151.227 76.6878 151.397 76.8611 151.51C77.0378 151.62 77.2761 151.675 77.5761 151.675C77.7294 151.675 77.8844 151.662 78.0411 151.635C78.1978 151.605 78.3361 151.567 78.4561 151.52V151.925C78.3494 151.968 78.2078 152.003 78.0311 152.03C77.8578 152.06 77.6861 152.075 77.5161 152.075ZM78.2111 150.645C78.2044 150.418 78.1294 150.243 77.9861 150.12C77.8461 149.993 77.6461 149.93 77.3861 149.93C77.1328 149.93 76.9361 149.995 76.7961 150.125C76.6561 150.255 76.5828 150.428 76.5761 150.645H78.2111ZM80.1631 150.145C80.0864 150.145 80.0214 150.118 79.9681 150.065C79.9148 150.012 79.8881 149.947 79.8881 149.87C79.8881 149.793 79.9148 149.728 79.9681 149.675C80.0214 149.618 80.0864 149.59 80.1631 149.59C80.2398 149.59 80.3048 149.618 80.3581 149.675C80.4114 149.728 80.4381 149.793 80.4381 149.87C80.4381 149.943 80.4114 150.008 80.3581 150.065C80.3048 150.118 80.2398 150.145 80.1631 150.145ZM80.1631 151.9C80.0864 151.9 80.0214 151.873 79.9681 151.82C79.9148 151.767 79.8881 151.702 79.8881 151.625C79.8881 151.548 79.9148 151.483 79.9681 151.43C80.0214 151.373 80.0864 151.345 80.1631 151.345C80.2398 151.345 80.3048 151.373 80.3581 151.43C80.4114 151.483 80.4381 151.548 80.4381 151.625C80.4381 151.698 80.4114 151.763 80.3581 151.82C80.3048 151.873 80.2398 151.9 80.1631 151.9ZM84.2396 148.505H84.7696L85.5496 151.16L86.3196 148.505H86.7196L87.4846 151.16L88.2646 148.505H88.7946L87.7746 152H87.2896L86.5146 149.36L85.7446 152H85.2596L84.2396 148.505ZM89.9188 148.305H90.4238V149.93C90.6538 149.66 90.9604 149.525 91.3438 149.525C91.6638 149.525 91.9021 149.61 92.0588 149.78C92.2154 149.95 92.2938 150.178 92.2938 150.465V152H91.7888V150.515C91.7888 150.125 91.6021 149.93 91.2288 149.93C91.0688 149.93 90.9188 149.968 90.7788 150.045C90.6421 150.118 90.5238 150.232 90.4238 150.385V152H89.9188V148.305ZM93.9522 152.99C93.7722 152.99 93.6222 152.972 93.5022 152.935V152.54C93.5889 152.573 93.6955 152.59 93.8222 152.59C93.9389 152.59 94.0305 152.56 94.0972 152.5C94.1639 152.443 94.2239 152.35 94.2772 152.22L94.3922 151.94L93.3422 149.6H93.8622L94.6622 151.445L95.4072 149.6H95.9272L94.8472 152.27C94.7472 152.52 94.6272 152.702 94.4872 152.815C94.3505 152.932 94.1722 152.99 93.9522 152.99ZM100.887 152.075C100.647 152.075 100.431 152.023 100.237 151.92C100.047 151.813 99.8973 151.665 99.7873 151.475C99.6807 151.282 99.6273 151.058 99.6273 150.805C99.6273 150.555 99.6807 150.333 99.7873 150.14C99.8973 149.947 100.047 149.797 100.237 149.69C100.431 149.58 100.647 149.525 100.887 149.525C101.321 149.525 101.649 149.657 101.872 149.92V148.305H102.377V152H101.887V151.65C101.754 151.797 101.607 151.905 101.447 151.975C101.291 152.042 101.104 152.075 100.887 152.075ZM101.002 151.675C101.209 151.675 101.389 151.622 101.542 151.515C101.699 151.405 101.809 151.258 101.872 151.075V150.535C101.816 150.352 101.707 150.205 101.547 150.095C101.391 149.985 101.209 149.93 101.002 149.93C100.839 149.93 100.691 149.967 100.557 150.04C100.427 150.113 100.324 150.217 100.247 150.35C100.174 150.483 100.137 150.635 100.137 150.805C100.137 150.975 100.174 151.127 100.247 151.26C100.324 151.393 100.427 151.497 100.557 151.57C100.691 151.64 100.839 151.675 101.002 151.675ZM104.073 149.13C103.99 149.13 103.92 149.102 103.863 149.045C103.806 148.988 103.778 148.918 103.778 148.835C103.778 148.752 103.806 148.682 103.863 148.625C103.92 148.568 103.99 148.54 104.073 148.54C104.16 148.54 104.231 148.568 104.288 148.625C104.348 148.682 104.378 148.752 104.378 148.835C104.378 148.918 104.348 148.988 104.288 149.045C104.231 149.102 104.16 149.13 104.073 149.13ZM103.818 149.6H104.333V152H103.818V149.6ZM106.938 152.075C106.698 152.075 106.481 152.023 106.288 151.92C106.098 151.813 105.948 151.665 105.838 151.475C105.731 151.282 105.678 151.058 105.678 150.805C105.678 150.555 105.731 150.333 105.838 150.14C105.948 149.947 106.098 149.797 106.288 149.69C106.481 149.58 106.698 149.525 106.938 149.525C107.371 149.525 107.7 149.657 107.923 149.92V148.305H108.428V152H107.938V151.65C107.805 151.797 107.658 151.905 107.498 151.975C107.341 152.042 107.155 152.075 106.938 152.075ZM107.053 151.675C107.26 151.675 107.44 151.622 107.593 151.515C107.75 151.405 107.86 151.258 107.923 151.075V150.535C107.866 150.352 107.758 150.205 107.598 150.095C107.441 149.985 107.26 149.93 107.053 149.93C106.89 149.93 106.741 149.967 106.608 150.04C106.478 150.113 106.375 150.217 106.298 150.35C106.225 150.483 106.188 150.635 106.188 150.805C106.188 150.975 106.225 151.127 106.298 151.26C106.375 151.393 106.478 151.497 106.608 151.57C106.741 151.64 106.89 151.675 107.053 151.675ZM109.829 149.6H110.319V149.945C110.432 149.802 110.571 149.697 110.734 149.63C110.901 149.56 111.074 149.525 111.254 149.525C111.574 149.525 111.812 149.61 111.969 149.78C112.126 149.95 112.204 150.178 112.204 150.465V152H111.699V150.515C111.699 150.125 111.512 149.93 111.139 149.93C110.979 149.93 110.829 149.968 110.689 150.045C110.552 150.118 110.434 150.232 110.334 150.385V152H109.829V149.6ZM113.807 148.43H114.307L113.912 149.405H113.477L113.807 148.43ZM116.531 152.075C116.288 152.075 116.1 152.005 115.966 151.865C115.836 151.725 115.771 151.527 115.771 151.27V149.99H115.406V149.6H115.771V148.88H116.281V149.6H116.871V149.99H116.281V151.235C116.281 151.395 116.311 151.508 116.371 151.575C116.435 151.642 116.548 151.675 116.711 151.675C116.808 151.675 116.905 151.653 117.001 151.61V152.01C116.875 152.053 116.718 152.075 116.531 152.075ZM121.752 152.075C121.509 152.075 121.32 152.005 121.187 151.865C121.057 151.725 120.992 151.527 120.992 151.27V149.99H120.627V149.6H120.992V148.88H121.502V149.6H122.092V149.99H121.502V151.235C121.502 151.395 121.532 151.508 121.592 151.575C121.655 151.642 121.769 151.675 121.932 151.675C122.029 151.675 122.125 151.653 122.222 151.61V152.01C122.095 152.053 121.939 152.075 121.752 152.075ZM123.447 148.305H123.952V149.93C124.182 149.66 124.489 149.525 124.872 149.525C125.192 149.525 125.43 149.61 125.587 149.78C125.744 149.95 125.822 150.178 125.822 150.465V152H125.317V150.515C125.317 150.125 125.13 149.93 124.757 149.93C124.597 149.93 124.447 149.968 124.307 150.045C124.17 150.118 124.052 150.232 123.952 150.385V152H123.447V148.305ZM128.515 152.075C128.072 152.075 127.723 151.965 127.47 151.745C127.22 151.522 127.095 151.208 127.095 150.805C127.095 150.412 127.207 150.1 127.43 149.87C127.657 149.64 127.978 149.525 128.395 149.525C128.672 149.525 128.907 149.578 129.1 149.685C129.293 149.788 129.438 149.933 129.535 150.12C129.635 150.303 129.685 150.513 129.685 150.75V151H127.575C127.592 151.227 127.687 151.397 127.86 151.51C128.037 151.62 128.275 151.675 128.575 151.675C128.728 151.675 128.883 151.662 129.04 151.635C129.197 151.605 129.335 151.567 129.455 151.52V151.925C129.348 151.968 129.207 152.003 129.03 152.03C128.857 152.06 128.685 152.075 128.515 152.075ZM129.21 150.645C129.203 150.418 129.128 150.243 128.985 150.12C128.845 149.993 128.645 149.93 128.385 149.93C128.132 149.93 127.935 149.995 127.795 150.125C127.655 150.255 127.582 150.428 127.575 150.645H129.21ZM17.225 157.6H17.74L18.28 159.38L18.815 157.6H19.27L19.805 159.38L20.345 157.6H20.865L20.085 160H19.6L19.045 158.21L18.49 160H18L17.225 157.6ZM22.7534 160.075C22.4634 160.075 22.23 160.002 22.0534 159.855C21.88 159.705 21.7934 159.503 21.7934 159.25C21.7934 158.983 21.8767 158.778 22.0434 158.635C22.2134 158.488 22.4534 158.415 22.7634 158.415C23.0934 158.415 23.3734 158.482 23.6034 158.615V158.49C23.6034 158.3 23.545 158.16 23.4284 158.07C23.315 157.977 23.135 157.93 22.8884 157.93C22.7417 157.93 22.5984 157.945 22.4584 157.975C22.3217 158.002 22.1984 158.04 22.0884 158.09V157.68C22.1884 157.633 22.3184 157.597 22.4784 157.57C22.6384 157.54 22.7934 157.525 22.9434 157.525C23.34 157.525 23.6334 157.613 23.8234 157.79C24.0167 157.963 24.1134 158.205 24.1134 158.515V160H23.6384V159.73C23.535 159.843 23.4117 159.93 23.2684 159.99C23.1284 160.047 22.9567 160.075 22.7534 160.075ZM22.8784 159.69C23.0384 159.69 23.1834 159.658 23.3134 159.595C23.4434 159.532 23.54 159.443 23.6034 159.33V159.005C23.3867 158.865 23.145 158.795 22.8784 158.795C22.685 158.795 22.54 158.833 22.4434 158.91C22.35 158.983 22.3034 159.097 22.3034 159.25C22.3034 159.543 22.495 159.69 22.8784 159.69ZM26.2881 160.075C26.0448 160.075 25.8564 160.005 25.7231 159.865C25.5931 159.725 25.5281 159.527 25.5281 159.27V157.99H25.1631V157.6H25.5281V156.88H26.0381V157.6H26.6281V157.99H26.0381V159.235C26.0381 159.395 26.0681 159.508 26.1281 159.575C26.1914 159.642 26.3048 159.675 26.4681 159.675C26.5648 159.675 26.6614 159.653 26.7581 159.61V160.01C26.6314 160.053 26.4748 160.075 26.2881 160.075ZM29.3032 160.075C28.8599 160.075 28.5115 159.965 28.2582 159.745C28.0082 159.522 27.8832 159.208 27.8832 158.805C27.8832 158.412 27.9949 158.1 28.2182 157.87C28.4449 157.64 28.7665 157.525 29.1832 157.525C29.4599 157.525 29.6949 157.578 29.8882 157.685C30.0815 157.788 30.2265 157.933 30.3232 158.12C30.4232 158.303 30.4732 158.513 30.4732 158.75V159H28.3632C28.3799 159.227 28.4749 159.397 28.6482 159.51C28.8249 159.62 29.0632 159.675 29.3632 159.675C29.5165 159.675 29.6715 159.662 29.8282 159.635C29.9849 159.605 30.1232 159.567 30.2432 159.52V159.925C30.1365 159.968 29.9949 160.003 29.8182 160.03C29.6449 160.06 29.4732 160.075 29.3032 160.075ZM29.9982 158.645C29.9915 158.418 29.9165 158.243 29.7732 158.12C29.6332 157.993 29.4332 157.93 29.1732 157.93C28.9199 157.93 28.7232 157.995 28.5832 158.125C28.4432 158.255 28.3699 158.428 28.3632 158.645H29.9982ZM31.7752 157.6H32.2652V158.03C32.3652 157.883 32.5052 157.775 32.6852 157.705C32.8685 157.635 33.0802 157.6 33.3202 157.6V157.995C33.0635 157.995 32.8435 158.037 32.6602 158.12C32.4769 158.203 32.3502 158.335 32.2802 158.515V160H31.7752V157.6ZM34.5223 157.6H35.0023V157.945C35.1156 157.805 35.2439 157.7 35.3873 157.63C35.5306 157.56 35.6789 157.525 35.8323 157.525C36.0256 157.525 36.1789 157.558 36.2923 157.625C36.4056 157.688 36.4889 157.787 36.5423 157.92C36.6489 157.79 36.7789 157.692 36.9323 157.625C37.0889 157.558 37.2456 157.525 37.4023 157.525C37.6956 157.525 37.9073 157.6 38.0373 157.75C38.1673 157.897 38.2323 158.115 38.2323 158.405V160H37.7423V158.47C37.7423 158.273 37.7056 158.135 37.6323 158.055C37.5589 157.972 37.4339 157.93 37.2573 157.93C37.0039 157.93 36.7973 158.04 36.6373 158.26C36.6439 158.31 36.6473 158.392 36.6473 158.505V160H36.1573V158.47C36.1573 158.273 36.1239 158.135 36.0573 158.055C35.9906 157.972 35.8706 157.93 35.6973 157.93C35.4439 157.93 35.2173 158.073 35.0173 158.36V160H34.5223V157.6ZM40.9282 160.075C40.4849 160.075 40.1365 159.965 39.8832 159.745C39.6332 159.522 39.5082 159.208 39.5082 158.805C39.5082 158.412 39.6199 158.1 39.8432 157.87C40.0699 157.64 40.3915 157.525 40.8082 157.525C41.0849 157.525 41.3199 157.578 41.5132 157.685C41.7065 157.788 41.8515 157.933 41.9482 158.12C42.0482 158.303 42.0982 158.513 42.0982 158.75V159H39.9882C40.0049 159.227 40.0999 159.397 40.2732 159.51C40.4499 159.62 40.6882 159.675 40.9882 159.675C41.1415 159.675 41.2965 159.662 41.4532 159.635C41.6099 159.605 41.7482 159.567 41.8682 159.52V159.925C41.7615 159.968 41.6199 160.003 41.4432 160.03C41.2699 160.06 41.0982 160.075 40.9282 160.075ZM41.6232 158.645C41.6165 158.418 41.5415 158.243 41.3982 158.12C41.2582 157.993 41.0582 157.93 40.7982 157.93C40.5449 157.93 40.3482 157.995 40.2082 158.125C40.0682 158.255 39.9949 158.428 39.9882 158.645H41.6232ZM43.4002 156.305H43.9052V160H43.4002V156.305ZM46.5724 160.075C46.3024 160.075 46.0641 160.025 45.8574 159.925C45.6541 159.822 45.4941 159.675 45.3774 159.485C45.2641 159.292 45.2074 159.065 45.2074 158.805C45.2074 158.548 45.2641 158.323 45.3774 158.13C45.4908 157.937 45.6508 157.788 45.8574 157.685C46.0641 157.578 46.3024 157.525 46.5724 157.525C46.8424 157.525 47.0808 157.578 47.2874 157.685C47.4941 157.788 47.6541 157.937 47.7674 158.13C47.8841 158.323 47.9424 158.548 47.9424 158.805C47.9424 159.065 47.8841 159.292 47.7674 159.485C47.6541 159.675 47.4941 159.822 47.2874 159.925C47.0808 160.025 46.8424 160.075 46.5724 160.075ZM46.5724 159.675C46.8324 159.675 47.0391 159.595 47.1924 159.435C47.3458 159.275 47.4224 159.065 47.4224 158.805C47.4224 158.535 47.3458 158.322 47.1924 158.165C47.0391 158.008 46.8324 157.93 46.5724 157.93C46.3124 157.93 46.1058 158.008 45.9524 158.165C45.7991 158.322 45.7224 158.535 45.7224 158.805C45.7224 159.065 45.7991 159.275 45.9524 159.435C46.1058 159.595 46.3124 159.675 46.5724 159.675ZM49.241 157.6H49.731V157.945C49.8443 157.802 49.9827 157.697 50.146 157.63C50.3127 157.56 50.486 157.525 50.666 157.525C50.986 157.525 51.2243 157.61 51.381 157.78C51.5377 157.95 51.616 158.178 51.616 158.465V160H51.111V158.515C51.111 158.125 50.9243 157.93 50.551 157.93C50.391 157.93 50.241 157.968 50.101 158.045C49.9643 158.118 49.846 158.232 49.746 158.385V160H49.241V157.6ZM56.8446 161.15C56.6813 161.15 56.5213 161.137 56.3646 161.11C56.2113 161.083 56.0813 161.045 55.9746 160.995V160.58C56.2246 160.693 56.5146 160.75 56.8446 160.75C57.1546 160.75 57.3796 160.682 57.5196 160.545C57.663 160.412 57.7346 160.208 57.7346 159.935V159.68C57.5146 159.943 57.1913 160.075 56.7646 160.075C56.5213 160.075 56.303 160.022 56.1096 159.915C55.9163 159.808 55.7646 159.658 55.6546 159.465C55.5446 159.272 55.4896 159.05 55.4896 158.8C55.4896 158.547 55.543 158.325 55.6496 158.135C55.7596 157.942 55.9096 157.792 56.0996 157.685C56.293 157.578 56.5096 157.525 56.7496 157.525C56.973 157.525 57.1613 157.558 57.3146 157.625C57.4713 157.688 57.6163 157.795 57.7496 157.945V157.6H58.2396V159.88C58.2396 160.29 58.1246 160.603 57.8946 160.82C57.668 161.04 57.318 161.15 56.8446 161.15ZM56.8646 159.675C57.0713 159.675 57.253 159.62 57.4096 159.51C57.5696 159.4 57.678 159.253 57.7346 159.07V158.53C57.6713 158.343 57.5613 158.197 57.4046 158.09C57.2513 157.983 57.0713 157.93 56.8646 157.93C56.7013 157.93 56.553 157.967 56.4196 158.04C56.2896 158.11 56.1863 158.212 56.1096 158.345C56.0363 158.478 55.9996 158.63 55.9996 158.8C55.9996 158.973 56.0363 159.127 56.1096 159.26C56.1863 159.39 56.2896 159.492 56.4196 159.565C56.553 159.638 56.7013 159.675 56.8646 159.675ZM60.9604 160.075C60.5171 160.075 60.1688 159.965 59.9154 159.745C59.6654 159.522 59.5404 159.208 59.5404 158.805C59.5404 158.412 59.6521 158.1 59.8754 157.87C60.1021 157.64 60.4238 157.525 60.8404 157.525C61.1171 157.525 61.3521 157.578 61.5454 157.685C61.7388 157.788 61.8838 157.933 61.9804 158.12C62.0804 158.303 62.1304 158.513 62.1304 158.75V159H60.0204C60.0371 159.227 60.1321 159.397 60.3054 159.51C60.4821 159.62 60.7204 159.675 61.0204 159.675C61.1738 159.675 61.3288 159.662 61.4854 159.635C61.6421 159.605 61.7804 159.567 61.9004 159.52V159.925C61.7938 159.968 61.6521 160.003 61.4754 160.03C61.3021 160.06 61.1304 160.075 60.9604 160.075ZM61.6554 158.645C61.6488 158.418 61.5738 158.243 61.4304 158.12C61.2904 157.993 61.0904 157.93 60.8304 157.93C60.5771 157.93 60.3804 157.995 60.2404 158.125C60.1004 158.255 60.0271 158.428 60.0204 158.645H61.6554ZM64.3574 160.075C64.1141 160.075 63.9258 160.005 63.7924 159.865C63.6624 159.725 63.5974 159.527 63.5974 159.27V157.99H63.2324V157.6H63.5974V156.88H64.1074V157.6H64.6974V157.99H64.1074V159.235C64.1074 159.395 64.1374 159.508 64.1974 159.575C64.2608 159.642 64.3741 159.675 64.5374 159.675C64.6341 159.675 64.7308 159.653 64.8274 159.61V160.01C64.7008 160.053 64.5441 160.075 64.3574 160.075ZM68.6531 157.6H69.1331V157.945C69.2465 157.805 69.3748 157.7 69.5181 157.63C69.6615 157.56 69.8098 157.525 69.9631 157.525C70.1565 157.525 70.3098 157.558 70.4231 157.625C70.5365 157.688 70.6198 157.787 70.6731 157.92C70.7798 157.79 70.9098 157.692 71.0631 157.625C71.2198 157.558 71.3765 157.525 71.5331 157.525C71.8265 157.525 72.0381 157.6 72.1681 157.75C72.2981 157.897 72.3631 158.115 72.3631 158.405V160H71.8731V158.47C71.8731 158.273 71.8365 158.135 71.7631 158.055C71.6898 157.972 71.5648 157.93 71.3881 157.93C71.1348 157.93 70.9281 158.04 70.7681 158.26C70.7748 158.31 70.7781 158.392 70.7781 158.505V160H70.2881V158.47C70.2881 158.273 70.2548 158.135 70.1881 158.055C70.1215 157.972 70.0015 157.93 69.8281 157.93C69.5748 157.93 69.3481 158.073 69.1481 158.36V160H68.6531V157.6ZM74.5258 160.075C74.2358 160.075 74.0025 160.002 73.8258 159.855C73.6525 159.705 73.5658 159.503 73.5658 159.25C73.5658 158.983 73.6492 158.778 73.8158 158.635C73.9858 158.488 74.2258 158.415 74.5358 158.415C74.8658 158.415 75.1458 158.482 75.3758 158.615V158.49C75.3758 158.3 75.3175 158.16 75.2008 158.07C75.0875 157.977 74.9075 157.93 74.6608 157.93C74.5142 157.93 74.3708 157.945 74.2308 157.975C74.0942 158.002 73.9708 158.04 73.8608 158.09V157.68C73.9608 157.633 74.0908 157.597 74.2508 157.57C74.4108 157.54 74.5658 157.525 74.7158 157.525C75.1125 157.525 75.4058 157.613 75.5958 157.79C75.7892 157.963 75.8858 158.205 75.8858 158.515V160H75.4108V159.73C75.3075 159.843 75.1842 159.93 75.0408 159.99C74.9008 160.047 74.7292 160.075 74.5258 160.075ZM74.6508 159.69C74.8108 159.69 74.9558 159.658 75.0858 159.595C75.2158 159.532 75.3125 159.443 75.3758 159.33V159.005C75.1592 158.865 74.9175 158.795 74.6508 158.795C74.4575 158.795 74.3125 158.833 74.2158 158.91C74.1225 158.983 74.0758 159.097 74.0758 159.25C74.0758 159.543 74.2675 159.69 74.6508 159.69ZM77.2625 157.6H77.7525V158.03C77.8525 157.883 77.9925 157.775 78.1725 157.705C78.3558 157.635 78.5675 157.6 78.8075 157.6V157.995C78.5508 157.995 78.3308 158.037 78.1475 158.12C77.9642 158.203 77.8375 158.335 77.7675 158.515V160H77.2625V157.6ZM79.9852 157.6H80.4752V158.03C80.5752 157.883 80.7152 157.775 80.8952 157.705C81.0785 157.635 81.2902 157.6 81.5302 157.6V157.995C81.2735 157.995 81.0535 158.037 80.8702 158.12C80.6868 158.203 80.5602 158.335 80.4902 158.515V160H79.9852V157.6ZM83.0272 157.13C82.9439 157.13 82.8739 157.102 82.8172 157.045C82.7606 156.988 82.7322 156.918 82.7322 156.835C82.7322 156.752 82.7606 156.682 82.8172 156.625C82.8739 156.568 82.9439 156.54 83.0272 156.54C83.1139 156.54 83.1856 156.568 83.2422 156.625C83.3022 156.682 83.3322 156.752 83.3322 156.835C83.3322 156.918 83.3022 156.988 83.2422 157.045C83.1856 157.102 83.1139 157.13 83.0272 157.13ZM82.7722 157.6H83.2872V160H82.7722V157.6ZM86.0522 160.075C85.6089 160.075 85.2606 159.965 85.0072 159.745C84.7572 159.522 84.6322 159.208 84.6322 158.805C84.6322 158.412 84.7439 158.1 84.9672 157.87C85.1939 157.64 85.5156 157.525 85.9322 157.525C86.2089 157.525 86.4439 157.578 86.6372 157.685C86.8306 157.788 86.9756 157.933 87.0722 158.12C87.1722 158.303 87.2222 158.513 87.2222 158.75V159H85.1122C85.1289 159.227 85.2239 159.397 85.3972 159.51C85.5739 159.62 85.8122 159.675 86.1122 159.675C86.2656 159.675 86.4206 159.662 86.5772 159.635C86.7339 159.605 86.8722 159.567 86.9922 159.52V159.925C86.8856 159.968 86.7439 160.003 86.5672 160.03C86.3939 160.06 86.2222 160.075 86.0522 160.075ZM86.7472 158.645C86.7406 158.418 86.6656 158.243 86.5222 158.12C86.3822 157.993 86.1822 157.93 85.9222 157.93C85.6689 157.93 85.4722 157.995 85.3322 158.125C85.1922 158.255 85.1189 158.428 85.1122 158.645H86.7472ZM89.6842 160.075C89.4442 160.075 89.2276 160.023 89.0342 159.92C88.8442 159.813 88.6942 159.665 88.5842 159.475C88.4776 159.282 88.4242 159.058 88.4242 158.805C88.4242 158.555 88.4776 158.333 88.5842 158.14C88.6942 157.947 88.8442 157.797 89.0342 157.69C89.2276 157.58 89.4442 157.525 89.6842 157.525C90.1176 157.525 90.4459 157.657 90.6692 157.92V156.305H91.1742V160H90.6842V159.65C90.5509 159.797 90.4042 159.905 90.2442 159.975C90.0876 160.042 89.9009 160.075 89.6842 160.075ZM89.7992 159.675C90.0059 159.675 90.1859 159.622 90.3392 159.515C90.4959 159.405 90.6059 159.258 90.6692 159.075V158.535C90.6126 158.352 90.5042 158.205 90.3442 158.095C90.1876 157.985 90.0059 157.93 89.7992 157.93C89.6359 157.93 89.4876 157.967 89.3542 158.04C89.2242 158.113 89.1209 158.217 89.0442 158.35C88.9709 158.483 88.9342 158.635 88.9342 158.805C88.9342 158.975 88.9709 159.127 89.0442 159.26C89.1209 159.393 89.2242 159.497 89.3542 159.57C89.4876 159.64 89.6359 159.675 89.7992 159.675ZM93.08 158.9C93.08 158.697 93.1183 158.527 93.195 158.39C93.2717 158.253 93.4017 158.122 93.585 157.995C93.7183 157.902 93.8183 157.828 93.885 157.775C93.9517 157.718 94.0033 157.657 94.04 157.59C94.08 157.52 94.1 157.438 94.1 157.345C94.1 157.195 94.04 157.077 93.92 156.99C93.8 156.903 93.6267 156.86 93.4 156.86C93.0667 156.86 92.7583 156.927 92.475 157.06V156.62C92.6083 156.563 92.7533 156.518 92.91 156.485C93.07 156.448 93.2333 156.43 93.4 156.43C93.7667 156.43 94.0583 156.512 94.275 156.675C94.4917 156.838 94.6 157.062 94.6 157.345C94.6 157.518 94.555 157.667 94.465 157.79C94.375 157.913 94.2333 158.045 94.04 158.185C93.9 158.285 93.8 158.365 93.74 158.425C93.68 158.482 93.6367 158.547 93.61 158.62C93.5833 158.69 93.57 158.785 93.57 158.905V159.005H93.08V158.9ZM93.32 160.075C93.2367 160.075 93.1667 160.047 93.11 159.99C93.0533 159.933 93.025 159.863 93.025 159.78C93.025 159.697 93.0533 159.627 93.11 159.57C93.1667 159.513 93.2367 159.485 93.32 159.485C93.4033 159.485 93.4733 159.513 93.53 159.57C93.59 159.627 93.62 159.697 93.62 159.78C93.62 159.863 93.59 159.933 93.53 159.99C93.4733 160.047 93.4033 160.075 93.32 160.075ZM101.099 156.505H101.614V160H101.099V156.505ZM103.941 160.075C103.698 160.075 103.51 160.005 103.376 159.865C103.246 159.725 103.181 159.527 103.181 159.27V157.99H102.816V157.6H103.181V156.88H103.691V157.6H104.281V157.99H103.691V159.235C103.691 159.395 103.721 159.508 103.781 159.575C103.845 159.642 103.958 159.675 104.121 159.675C104.218 159.675 104.315 159.653 104.411 159.61V160.01C104.285 160.053 104.128 160.075 103.941 160.075ZM109.502 160.075C109.235 160.075 108.999 160.025 108.792 159.925C108.585 159.825 108.424 159.68 108.307 159.49C108.194 159.297 108.137 159.068 108.137 158.805C108.137 158.542 108.194 158.315 108.307 158.125C108.424 157.932 108.585 157.783 108.792 157.68C109.002 157.577 109.242 157.525 109.512 157.525C109.879 157.525 110.172 157.597 110.392 157.74V158.155C110.175 158.005 109.899 157.93 109.562 157.93C109.289 157.93 109.067 158.005 108.897 158.155C108.73 158.302 108.647 158.518 108.647 158.805C108.647 159.092 108.73 159.308 108.897 159.455C109.064 159.602 109.282 159.675 109.552 159.675C109.889 159.675 110.179 159.595 110.422 159.435V159.845C110.305 159.925 110.172 159.983 110.022 160.02C109.875 160.057 109.702 160.075 109.502 160.075ZM112.557 160.075C112.267 160.075 112.034 160.002 111.857 159.855C111.684 159.705 111.597 159.503 111.597 159.25C111.597 158.983 111.68 158.778 111.847 158.635C112.017 158.488 112.257 158.415 112.567 158.415C112.897 158.415 113.177 158.482 113.407 158.615V158.49C113.407 158.3 113.349 158.16 113.232 158.07C113.119 157.977 112.939 157.93 112.692 157.93C112.545 157.93 112.402 157.945 112.262 157.975C112.125 158.002 112.002 158.04 111.892 158.09V157.68C111.992 157.633 112.122 157.597 112.282 157.57C112.442 157.54 112.597 157.525 112.747 157.525C113.144 157.525 113.437 157.613 113.627 157.79C113.82 157.963 113.917 158.205 113.917 158.515V160H113.442V159.73C113.339 159.843 113.215 159.93 113.072 159.99C112.932 160.047 112.76 160.075 112.557 160.075ZM112.682 159.69C112.842 159.69 112.987 159.658 113.117 159.595C113.247 159.532 113.344 159.443 113.407 159.33V159.005C113.19 158.865 112.949 158.795 112.682 158.795C112.489 158.795 112.344 158.833 112.247 158.91C112.154 158.983 112.107 159.097 112.107 159.25C112.107 159.543 112.299 159.69 112.682 159.69ZM115.294 157.6H115.784V157.945C115.897 157.802 116.035 157.697 116.199 157.63C116.365 157.56 116.539 157.525 116.719 157.525C117.039 157.525 117.277 157.61 117.434 157.78C117.59 157.95 117.669 158.178 117.669 158.465V160H117.164V158.515C117.164 158.125 116.977 157.93 116.604 157.93C116.444 157.93 116.294 157.968 116.154 158.045C116.017 158.118 115.899 158.232 115.799 158.385V160H115.294V157.6ZM119.272 156.43H119.772L119.377 157.405H118.942L119.272 156.43ZM121.996 160.075C121.753 160.075 121.564 160.005 121.431 159.865C121.301 159.725 121.236 159.527 121.236 159.27V157.99H120.871V157.6H121.236V156.88H121.746V157.6H122.336V157.99H121.746V159.235C121.746 159.395 121.776 159.508 121.836 159.575C121.899 159.642 122.013 159.675 122.176 159.675C122.273 159.675 122.369 159.653 122.466 159.61V160.01C122.339 160.053 122.183 160.075 121.996 160.075ZM18.645 168.075C18.2017 168.075 17.8533 167.965 17.6 167.745C17.35 167.522 17.225 167.208 17.225 166.805C17.225 166.412 17.3367 166.1 17.56 165.87C17.7867 165.64 18.1083 165.525 18.525 165.525C18.8017 165.525 19.0367 165.578 19.23 165.685C19.4233 165.788 19.5683 165.933 19.665 166.12C19.765 166.303 19.815 166.513 19.815 166.75V167H17.705C17.7217 167.227 17.8167 167.397 17.99 167.51C18.1667 167.62 18.405 167.675 18.705 167.675C18.8583 167.675 19.0133 167.662 19.17 167.635C19.3267 167.605 19.465 167.567 19.585 167.52V167.925C19.4783 167.968 19.3367 168.003 19.16 168.03C18.9867 168.06 18.815 168.075 18.645 168.075ZM19.34 166.645C19.3333 166.418 19.2583 166.243 19.115 166.12C18.975 165.993 18.775 165.93 18.515 165.93C18.2617 165.93 18.065 165.995 17.925 166.125C17.785 166.255 17.7117 166.428 17.705 166.645H19.34ZM21.117 164.305H21.622V168H21.117V164.305ZM24.2892 168.075C24.0192 168.075 23.7809 168.025 23.5742 167.925C23.3709 167.822 23.2109 167.675 23.0942 167.485C22.9809 167.292 22.9242 167.065 22.9242 166.805C22.9242 166.548 22.9809 166.323 23.0942 166.13C23.2076 165.937 23.3676 165.788 23.5742 165.685C23.7809 165.578 24.0192 165.525 24.2892 165.525C24.5592 165.525 24.7976 165.578 25.0042 165.685C25.2109 165.788 25.3709 165.937 25.4842 166.13C25.6009 166.323 25.6592 166.548 25.6592 166.805C25.6592 167.065 25.6009 167.292 25.4842 167.485C25.3709 167.675 25.2109 167.822 25.0042 167.925C24.7976 168.025 24.5592 168.075 24.2892 168.075ZM24.2892 167.675C24.5492 167.675 24.7559 167.595 24.9092 167.435C25.0626 167.275 25.1392 167.065 25.1392 166.805C25.1392 166.535 25.0626 166.322 24.9092 166.165C24.7559 166.008 24.5492 165.93 24.2892 165.93C24.0292 165.93 23.8226 166.008 23.6692 166.165C23.5159 166.322 23.4392 166.535 23.4392 166.805C23.4392 167.065 23.5159 167.275 23.6692 167.435C23.8226 167.595 24.0292 167.675 24.2892 167.675ZM26.9578 165.6H27.4478V165.955C27.6945 165.668 28.0278 165.525 28.4478 165.525C28.6878 165.525 28.9028 165.578 29.0928 165.685C29.2861 165.792 29.4361 165.942 29.5428 166.135C29.6528 166.325 29.7078 166.547 29.7078 166.8C29.7078 167.05 29.6528 167.272 29.5428 167.465C29.4361 167.658 29.2878 167.808 29.0978 167.915C28.9078 168.022 28.6911 168.075 28.4478 168.075C28.2478 168.075 28.0611 168.042 27.8878 167.975C27.7145 167.908 27.5728 167.81 27.4628 167.68V169.095H26.9578V165.6ZM28.3328 167.675C28.4961 167.675 28.6428 167.64 28.7728 167.57C28.9061 167.497 29.0095 167.393 29.0828 167.26C29.1595 167.127 29.1978 166.973 29.1978 166.8C29.1978 166.627 29.1595 166.475 29.0828 166.345C29.0095 166.212 28.9061 166.11 28.7728 166.04C28.6428 165.967 28.4961 165.93 28.3328 165.93C28.1295 165.93 27.9495 165.983 27.7928 166.09C27.6395 166.197 27.5295 166.343 27.4628 166.53V167.07C27.5195 167.253 27.6278 167.4 27.7878 167.51C27.9478 167.62 28.1295 167.675 28.3328 167.675ZM32.3286 168.075C31.8853 168.075 31.5369 167.965 31.2836 167.745C31.0336 167.522 30.9086 167.208 30.9086 166.805C30.9086 166.412 31.0203 166.1 31.2436 165.87C31.4703 165.64 31.7919 165.525 32.2086 165.525C32.4853 165.525 32.7203 165.578 32.9136 165.685C33.1069 165.788 33.2519 165.933 33.3486 166.12C33.4486 166.303 33.4986 166.513 33.4986 166.75V167H31.3886C31.4053 167.227 31.5003 167.397 31.6736 167.51C31.8503 167.62 32.0886 167.675 32.3886 167.675C32.5419 167.675 32.6969 167.662 32.8536 167.635C33.0103 167.605 33.1486 167.567 33.2686 167.52V167.925C33.1619 167.968 33.0203 168.003 32.8436 168.03C32.6703 168.06 32.4986 168.075 32.3286 168.075ZM33.0236 166.645C33.0169 166.418 32.9419 166.243 32.7986 166.12C32.6586 165.993 32.4586 165.93 32.1986 165.93C31.9453 165.93 31.7486 165.995 31.6086 166.125C31.4686 166.255 31.3953 166.428 31.3886 166.645H33.0236ZM34.9356 168C34.8689 168 34.8123 167.978 34.7656 167.935C34.7223 167.888 34.7006 167.832 34.7006 167.765C34.7006 167.698 34.7223 167.642 34.7656 167.595C34.8123 167.548 34.8689 167.525 34.9356 167.525C35.0023 167.525 35.0589 167.548 35.1056 167.595C35.1523 167.642 35.1756 167.698 35.1756 167.765C35.1756 167.832 35.1523 167.888 35.1056 167.935C35.0589 167.978 35.0023 168 34.9356 168ZM42.5596 164.935H41.4746V164.505H44.1596V164.935H43.0746V168H42.5596V164.935ZM45.3592 164.305H45.8642V165.93C46.0942 165.66 46.4008 165.525 46.7842 165.525C47.1042 165.525 47.3425 165.61 47.4992 165.78C47.6558 165.95 47.7342 166.178 47.7342 166.465V168H47.2292V166.515C47.2292 166.125 47.0425 165.93 46.6692 165.93C46.5092 165.93 46.3592 165.968 46.2192 166.045C46.0825 166.118 45.9642 166.232 45.8642 166.385V168H45.3592V164.305ZM50.4272 168.075C49.9839 168.075 49.6356 167.965 49.3822 167.745C49.1322 167.522 49.0072 167.208 49.0072 166.805C49.0072 166.412 49.1189 166.1 49.3422 165.87C49.5689 165.64 49.8906 165.525 50.3072 165.525C50.5839 165.525 50.8189 165.578 51.0122 165.685C51.2056 165.788 51.3506 165.933 51.4472 166.12C51.5472 166.303 51.5972 166.513 51.5972 166.75V167H49.4872C49.5039 167.227 49.5989 167.397 49.7722 167.51C49.9489 167.62 50.1872 167.675 50.4872 167.675C50.6406 167.675 50.7956 167.662 50.9522 167.635C51.1089 167.605 51.2472 167.567 51.3672 167.52V167.925C51.2606 167.968 51.1189 168.003 50.9422 168.03C50.7689 168.06 50.5972 168.075 50.4272 168.075ZM51.1222 166.645C51.1156 166.418 51.0406 166.243 50.8972 166.12C50.7572 165.993 50.5572 165.93 50.2972 165.93C50.0439 165.93 49.8472 165.995 49.7072 166.125C49.5672 166.255 49.4939 166.428 49.4872 166.645H51.1222ZM56.3848 168.075C56.2181 168.075 56.0415 168.053 55.8548 168.01C55.6681 167.97 55.5215 167.915 55.4148 167.845V167.415C55.5448 167.492 55.6948 167.555 55.8648 167.605C56.0348 167.652 56.1998 167.675 56.3598 167.675C56.5398 167.675 56.6715 167.653 56.7548 167.61C56.8381 167.567 56.8798 167.497 56.8798 167.4C56.8798 167.327 56.8598 167.268 56.8198 167.225C56.7831 167.178 56.7181 167.137 56.6248 167.1C56.5348 167.063 56.3981 167.02 56.2148 166.97C56.0181 166.913 55.8615 166.857 55.7448 166.8C55.6315 166.74 55.5448 166.665 55.4848 166.575C55.4281 166.485 55.3998 166.368 55.3998 166.225C55.3998 165.995 55.4898 165.822 55.6698 165.705C55.8531 165.585 56.0981 165.525 56.4048 165.525C56.5648 165.525 56.7215 165.54 56.8748 165.57C57.0281 165.6 57.1515 165.642 57.2448 165.695V166.115C57.1481 166.058 57.0281 166.013 56.8848 165.98C56.7448 165.947 56.6015 165.93 56.4548 165.93C56.2781 165.93 56.1431 165.952 56.0498 165.995C55.9565 166.038 55.9098 166.115 55.9098 166.225C55.9098 166.295 55.9298 166.352 55.9698 166.395C56.0098 166.438 56.0731 166.477 56.1598 166.51C56.2498 166.54 56.3915 166.58 56.5848 166.63C56.8881 166.713 57.0981 166.812 57.2148 166.925C57.3348 167.038 57.3948 167.195 57.3948 167.395C57.3948 167.602 57.3098 167.767 57.1398 167.89C56.9698 168.013 56.7181 168.075 56.3848 168.075ZM58.6961 164.305H59.2011V165.93C59.4311 165.66 59.7378 165.525 60.1211 165.525C60.4411 165.525 60.6794 165.61 60.8361 165.78C60.9928 165.95 61.0711 166.178 61.0711 166.465V168H60.5661V166.515C60.5661 166.125 60.3794 165.93 60.0061 165.93C59.8461 165.93 59.6961 165.968 59.5561 166.045C59.4194 166.118 59.3011 166.232 59.2011 166.385V168H58.6961V164.305ZM63.7641 168.075C63.3208 168.075 62.9725 167.965 62.7191 167.745C62.4691 167.522 62.3441 167.208 62.3441 166.805C62.3441 166.412 62.4558 166.1 62.6791 165.87C62.9058 165.64 63.2275 165.525 63.6441 165.525C63.9208 165.525 64.1558 165.578 64.3491 165.685C64.5425 165.788 64.6875 165.933 64.7841 166.12C64.8841 166.303 64.9341 166.513 64.9341 166.75V167H62.8241C62.8408 167.227 62.9358 167.397 63.1091 167.51C63.2858 167.62 63.5241 167.675 63.8241 167.675C63.9775 167.675 64.1325 167.662 64.2891 167.635C64.4458 167.605 64.5841 167.567 64.7041 167.52V167.925C64.5975 167.968 64.4558 168.003 64.2791 168.03C64.1058 168.06 63.9341 168.075 63.7641 168.075ZM64.4591 166.645C64.4525 166.418 64.3775 166.243 64.2341 166.12C64.0941 165.993 63.8941 165.93 63.6341 165.93C63.3808 165.93 63.1841 165.995 63.0441 166.125C62.9041 166.255 62.8308 166.428 62.8241 166.645H64.4591ZM67.5561 168.075C67.1128 168.075 66.7645 167.965 66.5111 167.745C66.2611 167.522 66.1361 167.208 66.1361 166.805C66.1361 166.412 66.2478 166.1 66.4711 165.87C66.6978 165.64 67.0195 165.525 67.4361 165.525C67.7128 165.525 67.9478 165.578 68.1411 165.685C68.3345 165.788 68.4795 165.933 68.5761 166.12C68.6761 166.303 68.7261 166.513 68.7261 166.75V167H66.6161C66.6328 167.227 66.7278 167.397 66.9011 167.51C67.0778 167.62 67.3161 167.675 67.6161 167.675C67.7695 167.675 67.9245 167.662 68.0811 167.635C68.2378 167.605 68.3761 167.567 68.4961 167.52V167.925C68.3895 167.968 68.2478 168.003 68.0711 168.03C67.8978 168.06 67.7261 168.075 67.5561 168.075ZM68.2511 166.645C68.2445 166.418 68.1695 166.243 68.0261 166.12C67.8861 165.993 67.6861 165.93 67.4261 165.93C67.1728 165.93 66.9761 165.995 66.8361 166.125C66.6961 166.255 66.6228 166.428 66.6161 166.645H68.2511ZM70.0281 165.6H70.5181V166.03C70.6181 165.883 70.7581 165.775 70.9381 165.705C71.1215 165.635 71.3331 165.6 71.5731 165.6V165.995C71.3165 165.995 71.0965 166.037 70.9131 166.12C70.7298 166.203 70.6031 166.335 70.5331 166.515V168H70.0281V165.6ZM75.5408 165.99H75.1758V165.6H75.5408V165.13C75.5408 164.853 75.6191 164.643 75.7758 164.5C75.9324 164.353 76.1424 164.28 76.4058 164.28C76.5424 164.28 76.6708 164.3 76.7908 164.34V164.76C76.6974 164.717 76.6008 164.695 76.5008 164.695C76.3441 164.695 76.2291 164.733 76.1558 164.81C76.0824 164.883 76.0458 165 76.0458 165.16V165.6H76.6458V165.99H76.0458V168H75.5408V165.99ZM78.57 168.075C78.2467 168.075 78.0017 167.988 77.835 167.815C77.6717 167.642 77.59 167.41 77.59 167.12V165.6H78.095V167.1C78.095 167.483 78.2867 167.675 78.67 167.675C79.0067 167.675 79.27 167.523 79.46 167.22V165.6H79.965V168H79.475V167.66C79.3617 167.803 79.2267 167.908 79.07 167.975C78.9167 168.042 78.75 168.075 78.57 168.075ZM81.3631 165.6H81.8531V165.945C81.9664 165.802 82.1048 165.697 82.2681 165.63C82.4348 165.56 82.6081 165.525 82.7881 165.525C83.1081 165.525 83.3464 165.61 83.5031 165.78C83.6598 165.95 83.7381 166.178 83.7381 166.465V168H83.2331V166.515C83.2331 166.125 83.0464 165.93 82.6731 165.93C82.5131 165.93 82.3631 165.968 82.2231 166.045C82.0864 166.118 81.9681 166.232 81.8681 166.385V168H81.3631V165.6ZM85.1111 165.6H85.6011V165.945C85.7145 165.802 85.8528 165.697 86.0161 165.63C86.1828 165.56 86.3561 165.525 86.5361 165.525C86.8561 165.525 87.0945 165.61 87.2511 165.78C87.4078 165.95 87.4861 166.178 87.4861 166.465V168H86.9811V166.515C86.9811 166.125 86.7945 165.93 86.4211 165.93C86.2611 165.93 86.1111 165.968 85.9711 166.045C85.8345 166.118 85.7161 166.232 85.6161 166.385V168H85.1111V165.6ZM89.1542 165.13C89.0708 165.13 89.0008 165.102 88.9442 165.045C88.8875 164.988 88.8592 164.918 88.8592 164.835C88.8592 164.752 88.8875 164.682 88.9442 164.625C89.0008 164.568 89.0708 164.54 89.1542 164.54C89.2408 164.54 89.3125 164.568 89.3692 164.625C89.4292 164.682 89.4592 164.752 89.4592 164.835C89.4592 164.918 89.4292 164.988 89.3692 165.045C89.3125 165.102 89.2408 165.13 89.1542 165.13ZM88.8992 165.6H89.4142V168H88.8992V165.6ZM90.8592 165.6H91.3492V165.945C91.4625 165.802 91.6008 165.697 91.7642 165.63C91.9308 165.56 92.1042 165.525 92.2842 165.525C92.6042 165.525 92.8425 165.61 92.9992 165.78C93.1558 165.95 93.2342 166.178 93.2342 166.465V168H92.7292V166.515C92.7292 166.125 92.5425 165.93 92.1692 165.93C92.0092 165.93 91.8592 165.968 91.7192 166.045C91.5825 166.118 91.4642 166.232 91.3642 166.385V168H90.8592V165.6ZM95.9272 168.075C95.4839 168.075 95.1356 167.965 94.8822 167.745C94.6322 167.522 94.5072 167.208 94.5072 166.805C94.5072 166.412 94.6189 166.1 94.8422 165.87C95.0689 165.64 95.3906 165.525 95.8072 165.525C96.0839 165.525 96.3189 165.578 96.5122 165.685C96.7056 165.788 96.8506 165.933 96.9472 166.12C97.0472 166.303 97.0972 166.513 97.0972 166.75V167H94.9872C95.0039 167.227 95.0989 167.397 95.2722 167.51C95.4489 167.62 95.6872 167.675 95.9872 167.675C96.1406 167.675 96.2956 167.662 96.4522 167.635C96.6089 167.605 96.7472 167.567 96.8672 167.52V167.925C96.7606 167.968 96.6189 168.003 96.4422 168.03C96.2689 168.06 96.0972 168.075 95.9272 168.075ZM96.6222 166.645C96.6156 166.418 96.5406 166.243 96.3972 166.12C96.2572 165.993 96.0572 165.93 95.7972 165.93C95.5439 165.93 95.3472 165.995 95.2072 166.125C95.0672 166.255 94.9939 166.428 94.9872 166.645H96.6222ZM99.2842 168.075C99.1176 168.075 98.9409 168.053 98.7542 168.01C98.5676 167.97 98.4209 167.915 98.3142 167.845V167.415C98.4442 167.492 98.5942 167.555 98.7642 167.605C98.9342 167.652 99.0992 167.675 99.2592 167.675C99.4392 167.675 99.5709 167.653 99.6542 167.61C99.7376 167.567 99.7792 167.497 99.7792 167.4C99.7792 167.327 99.7592 167.268 99.7192 167.225C99.6826 167.178 99.6176 167.137 99.5242 167.1C99.4342 167.063 99.2976 167.02 99.1142 166.97C98.9176 166.913 98.7609 166.857 98.6442 166.8C98.5309 166.74 98.4442 166.665 98.3842 166.575C98.3276 166.485 98.2992 166.368 98.2992 166.225C98.2992 165.995 98.3892 165.822 98.5692 165.705C98.7526 165.585 98.9976 165.525 99.3042 165.525C99.4642 165.525 99.6209 165.54 99.7742 165.57C99.9276 165.6 100.051 165.642 100.144 165.695V166.115C100.048 166.058 99.9276 166.013 99.7842 165.98C99.6442 165.947 99.5009 165.93 99.3542 165.93C99.1776 165.93 99.0426 165.952 98.9492 165.995C98.8559 166.038 98.8092 166.115 98.8092 166.225C98.8092 166.295 98.8292 166.352 98.8692 166.395C98.9092 166.438 98.9726 166.477 99.0592 166.51C99.1492 166.54 99.2909 166.58 99.4842 166.63C99.7876 166.713 99.9976 166.812 100.114 166.925C100.234 167.038 100.294 167.195 100.294 167.395C100.294 167.602 100.209 167.767 100.039 167.89C99.8692 168.013 99.6176 168.075 99.2842 168.075ZM102.354 168.075C102.187 168.075 102.01 168.053 101.824 168.01C101.637 167.97 101.49 167.915 101.384 167.845V167.415C101.514 167.492 101.664 167.555 101.834 167.605C102.004 167.652 102.169 167.675 102.329 167.675C102.509 167.675 102.64 167.653 102.724 167.61C102.807 167.567 102.849 167.497 102.849 167.4C102.849 167.327 102.829 167.268 102.789 167.225C102.752 167.178 102.687 167.137 102.594 167.1C102.504 167.063 102.367 167.02 102.184 166.97C101.987 166.913 101.83 166.857 101.714 166.8C101.6 166.74 101.514 166.665 101.454 166.575C101.397 166.485 101.369 166.368 101.369 166.225C101.369 165.995 101.459 165.822 101.639 165.705C101.822 165.585 102.067 165.525 102.374 165.525C102.534 165.525 102.69 165.54 102.844 165.57C102.997 165.6 103.12 165.642 103.214 165.695V166.115C103.117 166.058 102.997 166.013 102.854 165.98C102.714 165.947 102.57 165.93 102.424 165.93C102.247 165.93 102.112 165.952 102.019 165.995C101.925 166.038 101.879 166.115 101.879 166.225C101.879 166.295 101.899 166.352 101.939 166.395C101.979 166.438 102.042 166.477 102.129 166.51C102.219 166.54 102.36 166.58 102.554 166.63C102.857 166.713 103.067 166.812 103.184 166.925C103.304 167.038 103.364 167.195 103.364 167.395C103.364 167.602 103.279 167.767 103.109 167.89C102.939 168.013 102.687 168.075 102.354 168.075ZM108.53 168.075C108.26 168.075 108.022 168.025 107.815 167.925C107.612 167.822 107.452 167.675 107.335 167.485C107.222 167.292 107.165 167.065 107.165 166.805C107.165 166.548 107.222 166.323 107.335 166.13C107.449 165.937 107.609 165.788 107.815 165.685C108.022 165.578 108.26 165.525 108.53 165.525C108.8 165.525 109.039 165.578 109.245 165.685C109.452 165.788 109.612 165.937 109.725 166.13C109.842 166.323 109.9 166.548 109.9 166.805C109.9 167.065 109.842 167.292 109.725 167.485C109.612 167.675 109.452 167.822 109.245 167.925C109.039 168.025 108.8 168.075 108.53 168.075ZM108.53 167.675C108.79 167.675 108.997 167.595 109.15 167.435C109.304 167.275 109.38 167.065 109.38 166.805C109.38 166.535 109.304 166.322 109.15 166.165C108.997 166.008 108.79 165.93 108.53 165.93C108.27 165.93 108.064 166.008 107.91 166.165C107.757 166.322 107.68 166.535 107.68 166.805C107.68 167.065 107.757 167.275 107.91 167.435C108.064 167.595 108.27 167.675 108.53 167.675ZM111.188 165.99H110.823V165.6H111.188V165.13C111.188 164.853 111.267 164.643 111.423 164.5C111.58 164.353 111.79 164.28 112.053 164.28C112.19 164.28 112.318 164.3 112.438 164.34V164.76C112.345 164.717 112.248 164.695 112.148 164.695C111.992 164.695 111.877 164.733 111.803 164.81C111.73 164.883 111.693 165 111.693 165.16V165.6H112.293V165.99H111.693V168H111.188V165.99ZM117.062 168.075C116.818 168.075 116.63 168.005 116.497 167.865C116.367 167.725 116.302 167.527 116.302 167.27V165.99H115.937V165.6H116.302V164.88H116.812V165.6H117.402V165.99H116.812V167.235C116.812 167.395 116.842 167.508 116.902 167.575C116.965 167.642 117.078 167.675 117.242 167.675C117.338 167.675 117.435 167.653 117.532 167.61V168.01C117.405 168.053 117.248 168.075 117.062 168.075ZM118.757 164.305H119.262V165.93C119.492 165.66 119.798 165.525 120.182 165.525C120.502 165.525 120.74 165.61 120.897 165.78C121.053 165.95 121.132 166.178 121.132 166.465V168H120.627V166.515C120.627 166.125 120.44 165.93 120.067 165.93C119.907 165.93 119.757 165.968 119.617 166.045C119.48 166.118 119.362 166.232 119.262 166.385V168H118.757V164.305ZM122.8 165.13C122.716 165.13 122.646 165.102 122.59 165.045C122.533 164.988 122.505 164.918 122.505 164.835C122.505 164.752 122.533 164.682 122.59 164.625C122.646 164.568 122.716 164.54 122.8 164.54C122.886 164.54 122.958 164.568 123.015 164.625C123.075 164.682 123.105 164.752 123.105 164.835C123.105 164.918 123.075 164.988 123.015 165.045C122.958 165.102 122.886 165.13 122.8 165.13ZM122.545 165.6H123.06V168H122.545V165.6ZM125.39 168.075C125.223 168.075 125.046 168.053 124.86 168.01C124.673 167.97 124.526 167.915 124.42 167.845V167.415C124.55 167.492 124.7 167.555 124.87 167.605C125.04 167.652 125.205 167.675 125.365 167.675C125.545 167.675 125.676 167.653 125.76 167.61C125.843 167.567 125.885 167.497 125.885 167.4C125.885 167.327 125.865 167.268 125.825 167.225C125.788 167.178 125.723 167.137 125.63 167.1C125.54 167.063 125.403 167.02 125.22 166.97C125.023 166.913 124.866 166.857 124.75 166.8C124.636 166.74 124.55 166.665 124.49 166.575C124.433 166.485 124.405 166.368 124.405 166.225C124.405 165.995 124.495 165.822 124.675 165.705C124.858 165.585 125.103 165.525 125.41 165.525C125.57 165.525 125.726 165.54 125.88 165.57C126.033 165.6 126.156 165.642 126.25 165.695V166.115C126.153 166.058 126.033 166.013 125.89 165.98C125.75 165.947 125.606 165.93 125.46 165.93C125.283 165.93 125.148 165.952 125.055 165.995C124.961 166.038 124.915 166.115 124.915 166.225C124.915 166.295 124.935 166.352 124.975 166.395C125.015 166.438 125.078 166.477 125.165 166.51C125.255 166.54 125.396 166.58 125.59 166.63C125.893 166.713 126.103 166.812 126.22 166.925C126.34 167.038 126.4 167.195 126.4 167.395C126.4 167.602 126.315 167.767 126.145 167.89C125.975 168.013 125.723 168.075 125.39 168.075ZM17.625 173.13C17.5383 173.13 17.4667 173.102 17.41 173.045C17.3533 172.988 17.325 172.918 17.325 172.835C17.325 172.752 17.3533 172.682 17.41 172.625C17.47 172.568 17.5417 172.54 17.625 172.54C17.7083 172.54 17.7783 172.568 17.835 172.625C17.895 172.682 17.925 172.752 17.925 172.835C17.925 172.918 17.895 172.988 17.835 173.045C17.7783 173.102 17.7083 173.13 17.625 173.13ZM17.03 177.155C16.88 177.155 16.7533 177.137 16.65 177.1V176.685C16.7367 176.725 16.8367 176.745 16.95 176.745C17.1 176.745 17.2067 176.708 17.27 176.635C17.3367 176.565 17.37 176.45 17.37 176.29V173.6H17.88V176.325C17.88 176.602 17.8033 176.808 17.65 176.945C17.4967 177.085 17.29 177.155 17.03 177.155ZM20.59 176.075C20.32 176.075 20.0817 176.025 19.875 175.925C19.6717 175.822 19.5117 175.675 19.395 175.485C19.2817 175.292 19.225 175.065 19.225 174.805C19.225 174.548 19.2817 174.323 19.395 174.13C19.5083 173.937 19.6683 173.788 19.875 173.685C20.0817 173.578 20.32 173.525 20.59 173.525C20.86 173.525 21.0983 173.578 21.305 173.685C21.5117 173.788 21.6717 173.937 21.785 174.13C21.9017 174.323 21.96 174.548 21.96 174.805C21.96 175.065 21.9017 175.292 21.785 175.485C21.6717 175.675 21.5117 175.822 21.305 175.925C21.0983 176.025 20.86 176.075 20.59 176.075ZM20.59 175.675C20.85 175.675 21.0567 175.595 21.21 175.435C21.3633 175.275 21.44 175.065 21.44 174.805C21.44 174.535 21.3633 174.322 21.21 174.165C21.0567 174.008 20.85 173.93 20.59 173.93C20.33 173.93 20.1233 174.008 19.97 174.165C19.8167 174.322 19.74 174.535 19.74 174.805C19.74 175.065 19.8167 175.275 19.97 175.435C20.1233 175.595 20.33 175.675 20.59 175.675ZM23.2586 172.305H23.7636V176H23.2586V172.305ZM23.7686 174.785L24.8736 173.6H25.4886L24.3786 174.785L25.6036 176H24.9886L23.7686 174.785ZM28.1753 176.075C27.7319 176.075 27.3836 175.965 27.1303 175.745C26.8803 175.522 26.7553 175.208 26.7553 174.805C26.7553 174.412 26.8669 174.1 27.0903 173.87C27.3169 173.64 27.6386 173.525 28.0553 173.525C28.3319 173.525 28.5669 173.578 28.7603 173.685C28.9536 173.788 29.0986 173.933 29.1953 174.12C29.2953 174.303 29.3453 174.513 29.3453 174.75V175H27.2353C27.2519 175.227 27.3469 175.397 27.5203 175.51C27.6969 175.62 27.9353 175.675 28.2353 175.675C28.3886 175.675 28.5436 175.662 28.7003 175.635C28.8569 175.605 28.9953 175.567 29.1153 175.52V175.925C29.0086 175.968 28.8669 176.003 28.6903 176.03C28.5169 176.06 28.3453 176.075 28.1753 176.075ZM28.8703 174.645C28.8636 174.418 28.7886 174.243 28.6453 174.12C28.5053 173.993 28.3053 173.93 28.0453 173.93C27.7919 173.93 27.5953 173.995 27.4553 174.125C27.3153 174.255 27.2419 174.428 27.2353 174.645H28.8703ZM33.4129 173.99H33.0479V173.6H33.4129V173.145C33.4129 172.868 33.5012 172.655 33.6779 172.505C33.8545 172.355 34.0745 172.28 34.3379 172.28C34.4712 172.28 34.6012 172.3 34.7279 172.34V172.75C34.6345 172.713 34.5379 172.695 34.4379 172.695C34.2679 172.695 34.1379 172.737 34.0479 172.82C33.9612 172.9 33.9179 173.018 33.9179 173.175V173.6H35.5379V176H35.0329V173.99H33.9179V176H33.4129V173.99ZM35.2829 173.13C35.1962 173.13 35.1245 173.102 35.0679 173.045C35.0112 172.988 34.9829 172.918 34.9829 172.835C34.9829 172.752 35.0112 172.682 35.0679 172.625C35.1279 172.568 35.1995 172.54 35.2829 172.54C35.3662 172.54 35.4362 172.568 35.4929 172.625C35.5529 172.682 35.5829 172.752 35.5829 172.835C35.5829 172.918 35.5529 172.988 35.4929 173.045C35.4362 173.102 35.3662 173.13 35.2829 173.13ZM36.9813 172.305H37.4863V176H36.9813V172.305ZM38.8885 172.305H39.3935V176H38.8885V172.305ZM41.6807 176.075C41.514 176.075 41.3374 176.053 41.1507 176.01C40.964 175.97 40.8174 175.915 40.7107 175.845V175.415C40.8407 175.492 40.9907 175.555 41.1607 175.605C41.3307 175.652 41.4957 175.675 41.6557 175.675C41.8357 175.675 41.9674 175.653 42.0507 175.61C42.134 175.567 42.1757 175.497 42.1757 175.4C42.1757 175.327 42.1557 175.268 42.1157 175.225C42.079 175.178 42.014 175.137 41.9207 175.1C41.8307 175.063 41.694 175.02 41.5107 174.97C41.314 174.913 41.1574 174.857 41.0407 174.8C40.9274 174.74 40.8407 174.665 40.7807 174.575C40.724 174.485 40.6957 174.368 40.6957 174.225C40.6957 173.995 40.7857 173.822 40.9657 173.705C41.149 173.585 41.394 173.525 41.7007 173.525C41.8607 173.525 42.0174 173.54 42.1707 173.57C42.324 173.6 42.4474 173.642 42.5407 173.695V174.115C42.444 174.058 42.324 174.013 42.1807 173.98C42.0407 173.947 41.8974 173.93 41.7507 173.93C41.574 173.93 41.439 173.952 41.3457 173.995C41.2524 174.038 41.2057 174.115 41.2057 174.225C41.2057 174.295 41.2257 174.352 41.2657 174.395C41.3057 174.438 41.369 174.477 41.4557 174.51C41.5457 174.54 41.6874 174.58 41.8807 174.63C42.184 174.713 42.394 174.812 42.5107 174.925C42.6307 175.038 42.6907 175.195 42.6907 175.395C42.6907 175.602 42.6057 175.767 42.4357 175.89C42.2657 176.013 42.014 176.075 41.6807 176.075ZM47.1026 176.99C46.9226 176.99 46.7726 176.972 46.6526 176.935V176.54C46.7392 176.573 46.8459 176.59 46.9726 176.59C47.0892 176.59 47.1809 176.56 47.2476 176.5C47.3142 176.443 47.3742 176.35 47.4276 176.22L47.5426 175.94L46.4926 173.6H47.0126L47.8126 175.445L48.5576 173.6H49.0776L47.9976 176.27C47.8976 176.52 47.7776 176.702 47.6376 176.815C47.5009 176.932 47.3226 176.99 47.1026 176.99ZM51.215 176.075C50.945 176.075 50.7067 176.025 50.5 175.925C50.2967 175.822 50.1367 175.675 50.02 175.485C49.9067 175.292 49.85 175.065 49.85 174.805C49.85 174.548 49.9067 174.323 50.02 174.13C50.1333 173.937 50.2933 173.788 50.5 173.685C50.7067 173.578 50.945 173.525 51.215 173.525C51.485 173.525 51.7233 173.578 51.93 173.685C52.1367 173.788 52.2967 173.937 52.41 174.13C52.5267 174.323 52.585 174.548 52.585 174.805C52.585 175.065 52.5267 175.292 52.41 175.485C52.2967 175.675 52.1367 175.822 51.93 175.925C51.7233 176.025 51.485 176.075 51.215 176.075ZM51.215 175.675C51.475 175.675 51.6817 175.595 51.835 175.435C51.9883 175.275 52.065 175.065 52.065 174.805C52.065 174.535 51.9883 174.322 51.835 174.165C51.6817 174.008 51.475 173.93 51.215 173.93C50.955 173.93 50.7483 174.008 50.595 174.165C50.4417 174.322 50.365 174.535 50.365 174.805C50.365 175.065 50.4417 175.275 50.595 175.435C50.7483 175.595 50.955 175.675 51.215 175.675ZM54.8386 176.075C54.5153 176.075 54.2703 175.988 54.1036 175.815C53.9403 175.642 53.8586 175.41 53.8586 175.12V173.6H54.3636V175.1C54.3636 175.483 54.5553 175.675 54.9386 175.675C55.2753 175.675 55.5386 175.523 55.7286 175.22V173.6H56.2336V176H55.7436V175.66C55.6303 175.803 55.4953 175.908 55.3386 175.975C55.1853 176.042 55.0186 176.075 54.8386 176.075ZM57.6316 173.6H58.1216V174.03C58.2216 173.883 58.3616 173.775 58.5416 173.705C58.725 173.635 58.9366 173.6 59.1766 173.6V173.995C58.92 173.995 58.7 174.037 58.5166 174.12C58.3333 174.203 58.2066 174.335 58.1366 174.515V176H57.6316V173.6ZM63.1443 173.99H62.7793V173.6H63.1443V173.145C63.1443 172.868 63.2326 172.655 63.4093 172.505C63.586 172.355 63.806 172.28 64.0693 172.28C64.2026 172.28 64.3326 172.3 64.4593 172.34V172.75C64.366 172.713 64.2693 172.695 64.1693 172.695C63.9993 172.695 63.8693 172.737 63.7793 172.82C63.6926 172.9 63.6493 173.018 63.6493 173.175V173.6H65.2693V176H64.7643V173.99H63.6493V176H63.1443V173.99ZM65.0143 173.13C64.9276 173.13 64.856 173.102 64.7993 173.045C64.7426 172.988 64.7143 172.918 64.7143 172.835C64.7143 172.752 64.7426 172.682 64.7993 172.625C64.8593 172.568 64.931 172.54 65.0143 172.54C65.0976 172.54 65.1676 172.568 65.2243 172.625C65.2843 172.682 65.3143 172.752 65.3143 172.835C65.3143 172.918 65.2843 172.988 65.2243 173.045C65.1676 173.102 65.0976 173.13 65.0143 173.13ZM67.5977 176.075C67.431 176.075 67.2544 176.053 67.0677 176.01C66.881 175.97 66.7344 175.915 66.6277 175.845V175.415C66.7577 175.492 66.9077 175.555 67.0777 175.605C67.2477 175.652 67.4127 175.675 67.5727 175.675C67.7527 175.675 67.8844 175.653 67.9677 175.61C68.051 175.567 68.0927 175.497 68.0927 175.4C68.0927 175.327 68.0727 175.268 68.0327 175.225C67.996 175.178 67.931 175.137 67.8377 175.1C67.7477 175.063 67.611 175.02 67.4277 174.97C67.231 174.913 67.0744 174.857 66.9577 174.8C66.8444 174.74 66.7577 174.665 66.6977 174.575C66.641 174.485 66.6127 174.368 66.6127 174.225C66.6127 173.995 66.7027 173.822 66.8827 173.705C67.066 173.585 67.311 173.525 67.6177 173.525C67.7777 173.525 67.9344 173.54 68.0877 173.57C68.241 173.6 68.3644 173.642 68.4577 173.695V174.115C68.361 174.058 68.241 174.013 68.0977 173.98C67.9577 173.947 67.8144 173.93 67.6677 173.93C67.491 173.93 67.356 173.952 67.2627 173.995C67.1694 174.038 67.1227 174.115 67.1227 174.225C67.1227 174.295 67.1427 174.352 67.1827 174.395C67.2227 174.438 67.286 174.477 67.3727 174.51C67.4627 174.54 67.6044 174.58 67.7977 174.63C68.101 174.713 68.311 174.812 68.4277 174.925C68.5477 175.038 68.6077 175.195 68.6077 175.395C68.6077 175.602 68.5227 175.767 68.3527 175.89C68.1827 176.013 67.931 176.075 67.5977 176.075ZM69.909 172.305H70.414V173.93C70.644 173.66 70.9507 173.525 71.334 173.525C71.654 173.525 71.8923 173.61 72.049 173.78C72.2057 173.95 72.284 174.178 72.284 174.465V176H71.779V174.515C71.779 174.125 71.5923 173.93 71.219 173.93C71.059 173.93 70.909 173.968 70.769 174.045C70.6323 174.118 70.514 174.232 70.414 174.385V176H69.909V172.305ZM76.1576 173.6H76.6726L77.2126 175.38L77.7476 173.6H78.2026L78.7376 175.38L79.2776 173.6H79.7976L79.0176 176H78.5326L77.9776 174.21L77.4226 176H76.9326L76.1576 173.6ZM81.3944 173.13C81.3111 173.13 81.2411 173.102 81.1844 173.045C81.1277 172.988 81.0994 172.918 81.0994 172.835C81.0994 172.752 81.1277 172.682 81.1844 172.625C81.2411 172.568 81.3111 172.54 81.3944 172.54C81.4811 172.54 81.5527 172.568 81.6094 172.625C81.6694 172.682 81.6994 172.752 81.6994 172.835C81.6994 172.918 81.6694 172.988 81.6094 173.045C81.5527 173.102 81.4811 173.13 81.3944 173.13ZM81.1394 173.6H81.6544V176H81.1394V173.6ZM84.0244 176.075C83.7811 176.075 83.5927 176.005 83.4594 175.865C83.3294 175.725 83.2644 175.527 83.2644 175.27V173.99H82.8994V173.6H83.2644V172.88H83.7744V173.6H84.3644V173.99H83.7744V175.235C83.7744 175.395 83.8044 175.508 83.8644 175.575C83.9277 175.642 84.0411 175.675 84.2044 175.675C84.3011 175.675 84.3977 175.653 84.4944 175.61V176.01C84.3677 176.053 84.2111 176.075 84.0244 176.075ZM85.7195 172.305H86.2245V173.93C86.4545 173.66 86.7612 173.525 87.1445 173.525C87.4645 173.525 87.7029 173.61 87.8595 173.78C88.0162 173.95 88.0945 174.178 88.0945 174.465V176H87.5895V174.515C87.5895 174.125 87.4029 173.93 87.0295 173.93C86.8695 173.93 86.7195 173.968 86.5795 174.045C86.4429 174.118 86.3245 174.232 86.2245 174.385V176H85.7195V172.305ZM92.0682 173.6H92.5582V173.955C92.8048 173.668 93.1382 173.525 93.5582 173.525C93.7982 173.525 94.0132 173.578 94.2032 173.685C94.3965 173.792 94.5465 173.942 94.6532 174.135C94.7632 174.325 94.8182 174.547 94.8182 174.8C94.8182 175.05 94.7632 175.272 94.6532 175.465C94.5465 175.658 94.3982 175.808 94.2082 175.915C94.0182 176.022 93.8015 176.075 93.5582 176.075C93.3582 176.075 93.1715 176.042 92.9982 175.975C92.8248 175.908 92.6832 175.81 92.5732 175.68V177.095H92.0682V173.6ZM93.4432 175.675C93.6065 175.675 93.7532 175.64 93.8832 175.57C94.0165 175.497 94.1198 175.393 94.1932 175.26C94.2698 175.127 94.3082 174.973 94.3082 174.8C94.3082 174.627 94.2698 174.475 94.1932 174.345C94.1198 174.212 94.0165 174.11 93.8832 174.04C93.7532 173.967 93.6065 173.93 93.4432 173.93C93.2398 173.93 93.0598 173.983 92.9032 174.09C92.7498 174.197 92.6398 174.343 92.5732 174.53V175.07C92.6298 175.253 92.7382 175.4 92.8982 175.51C93.0582 175.62 93.2398 175.675 93.4432 175.675ZM97.257 176.075C96.987 176.075 96.7487 176.025 96.542 175.925C96.3387 175.822 96.1787 175.675 96.062 175.485C95.9487 175.292 95.892 175.065 95.892 174.805C95.892 174.548 95.9487 174.323 96.062 174.13C96.1753 173.937 96.3353 173.788 96.542 173.685C96.7487 173.578 96.987 173.525 97.257 173.525C97.527 173.525 97.7653 173.578 97.972 173.685C98.1787 173.788 98.3387 173.937 98.452 174.13C98.5687 174.323 98.627 174.548 98.627 174.805C98.627 175.065 98.5687 175.292 98.452 175.485C98.3387 175.675 98.1787 175.822 97.972 175.925C97.7653 176.025 97.527 176.075 97.257 176.075ZM97.257 175.675C97.517 175.675 97.7237 175.595 97.877 175.435C98.0303 175.275 98.107 175.065 98.107 174.805C98.107 174.535 98.0303 174.322 97.877 174.165C97.7237 174.008 97.517 173.93 97.257 173.93C96.997 173.93 96.7903 174.008 96.637 174.165C96.4837 174.322 96.407 174.535 96.407 174.805C96.407 175.065 96.4837 175.275 96.637 175.435C96.7903 175.595 96.997 175.675 97.257 175.675ZM99.4984 173.6H100.013L100.553 175.38L101.088 173.6H101.543L102.078 175.38L102.618 173.6H103.138L102.358 176H101.873L101.318 174.21L100.763 176H100.273L99.4984 173.6ZM105.609 176.075C105.166 176.075 104.817 175.965 104.564 175.745C104.314 175.522 104.189 175.208 104.189 174.805C104.189 174.412 104.301 174.1 104.524 173.87C104.751 173.64 105.072 173.525 105.489 173.525C105.766 173.525 106.001 173.578 106.194 173.685C106.387 173.788 106.532 173.933 106.629 174.12C106.729 174.303 106.779 174.513 106.779 174.75V175H104.669C104.686 175.227 104.781 175.397 104.954 175.51C105.131 175.62 105.369 175.675 105.669 175.675C105.822 175.675 105.977 175.662 106.134 175.635C106.291 175.605 106.429 175.567 106.549 175.52V175.925C106.442 175.968 106.301 176.003 106.124 176.03C105.951 176.06 105.779 176.075 105.609 176.075ZM106.304 174.645C106.297 174.418 106.222 174.243 106.079 174.12C105.939 173.993 105.739 173.93 105.479 173.93C105.226 173.93 105.029 173.995 104.889 174.125C104.749 174.255 104.676 174.428 104.669 174.645H106.304ZM108.081 173.6H108.571V174.03C108.671 173.883 108.811 173.775 108.991 173.705C109.174 173.635 109.386 173.6 109.626 173.6V173.995C109.369 173.995 109.149 174.037 108.966 174.12C108.783 174.203 108.656 174.335 108.586 174.515V176H108.081V173.6ZM110.963 176C110.896 176 110.84 175.978 110.793 175.935C110.75 175.888 110.728 175.832 110.728 175.765C110.728 175.698 110.75 175.642 110.793 175.595C110.84 175.548 110.896 175.525 110.963 175.525C111.03 175.525 111.086 175.548 111.133 175.595C111.18 175.642 111.203 175.698 111.203 175.765C111.203 175.832 111.18 175.888 111.133 175.935C111.086 175.978 111.03 176 110.963 176ZM116.396 172.505H116.886L118.281 176H117.761L117.411 175.13H115.866L115.526 176H115.001L116.396 172.505ZM117.271 174.705L116.641 173.07L116.011 174.705H117.271ZM119.842 172.935H118.757V172.505H121.442V172.935H120.357V176H119.842V172.935ZM122.641 172.505H123.151V176H122.641V172.505ZM123.176 174.22L124.771 172.505H125.391L123.796 174.22L125.491 176H124.871L123.176 174.22ZM17.62 181.13C17.5367 181.13 17.4667 181.102 17.41 181.045C17.3533 180.988 17.325 180.918 17.325 180.835C17.325 180.752 17.3533 180.682 17.41 180.625C17.4667 180.568 17.5367 180.54 17.62 180.54C17.7067 180.54 17.7783 180.568 17.835 180.625C17.895 180.682 17.925 180.752 17.925 180.835C17.925 180.918 17.895 180.988 17.835 181.045C17.7783 181.102 17.7067 181.13 17.62 181.13ZM17.365 181.6H17.88V184H17.365V181.6ZM19.325 181.6H19.815V181.945C19.9283 181.802 20.0667 181.697 20.23 181.63C20.3967 181.56 20.57 181.525 20.75 181.525C21.07 181.525 21.3083 181.61 21.465 181.78C21.6217 181.95 21.7 182.178 21.7 182.465V184H21.195V182.515C21.195 182.125 21.0083 181.93 20.635 181.93C20.475 181.93 20.325 181.968 20.185 182.045C20.0483 182.118 19.93 182.232 19.83 182.385V184H19.325V181.6ZM24.338 184.075C24.0714 184.075 23.8347 184.025 23.628 183.925C23.4214 183.825 23.2597 183.68 23.143 183.49C23.0297 183.297 22.973 183.068 22.973 182.805C22.973 182.542 23.0297 182.315 23.143 182.125C23.2597 181.932 23.4214 181.783 23.628 181.68C23.838 181.577 24.078 181.525 24.348 181.525C24.7147 181.525 25.008 181.597 25.228 181.74V182.155C25.0114 182.005 24.7347 181.93 24.398 181.93C24.1247 181.93 23.903 182.005 23.733 182.155C23.5664 182.302 23.483 182.518 23.483 182.805C23.483 183.092 23.5664 183.308 23.733 183.455C23.8997 183.602 24.118 183.675 24.388 183.675C24.7247 183.675 25.0147 183.595 25.258 183.435V183.845C25.1414 183.925 25.008 183.983 24.858 184.02C24.7114 184.057 24.538 184.075 24.338 184.075ZM26.5574 181.6H27.0474V182.03C27.1474 181.883 27.2874 181.775 27.4674 181.705C27.6508 181.635 27.8624 181.6 28.1024 181.6V181.995C27.8458 181.995 27.6258 182.037 27.4424 182.12C27.2591 182.203 27.1324 182.335 27.0624 182.515V184H26.5574V181.6ZM30.4731 184.075C30.0298 184.075 29.6815 183.965 29.4281 183.745C29.1781 183.522 29.0531 183.208 29.0531 182.805C29.0531 182.412 29.1648 182.1 29.3881 181.87C29.6148 181.64 29.9365 181.525 30.3531 181.525C30.6298 181.525 30.8648 181.578 31.0581 181.685C31.2515 181.788 31.3965 181.933 31.4931 182.12C31.5931 182.303 31.6431 182.513 31.6431 182.75V183H29.5331C29.5498 183.227 29.6448 183.397 29.8181 183.51C29.9948 183.62 30.2331 183.675 30.5331 183.675C30.6865 183.675 30.8415 183.662 30.9981 183.635C31.1548 183.605 31.2931 183.567 31.4131 183.52V183.925C31.3065 183.968 31.1648 184.003 30.9881 184.03C30.8148 184.06 30.6431 184.075 30.4731 184.075ZM31.1681 182.645C31.1615 182.418 31.0865 182.243 30.9431 182.12C30.8031 181.993 30.6031 181.93 30.3431 181.93C30.0898 181.93 29.8931 181.995 29.7531 182.125C29.6131 182.255 29.5398 182.428 29.5331 182.645H31.1681ZM33.8051 184.075C33.5151 184.075 33.2818 184.002 33.1051 183.855C32.9318 183.705 32.8451 183.503 32.8451 183.25C32.8451 182.983 32.9285 182.778 33.0951 182.635C33.2651 182.488 33.5051 182.415 33.8151 182.415C34.1451 182.415 34.4251 182.482 34.6551 182.615V182.49C34.6551 182.3 34.5968 182.16 34.4801 182.07C34.3668 181.977 34.1868 181.93 33.9401 181.93C33.7935 181.93 33.6501 181.945 33.5101 181.975C33.3735 182.002 33.2501 182.04 33.1401 182.09V181.68C33.2401 181.633 33.3701 181.597 33.5301 181.57C33.6901 181.54 33.8451 181.525 33.9951 181.525C34.3918 181.525 34.6851 181.613 34.8751 181.79C35.0685 181.963 35.1651 182.205 35.1651 182.515V184H34.6901V183.73C34.5868 183.843 34.4635 183.93 34.3201 183.99C34.1801 184.047 34.0085 184.075 33.8051 184.075ZM33.9301 183.69C34.0901 183.69 34.2351 183.658 34.3651 183.595C34.4951 183.532 34.5918 183.443 34.6551 183.33V183.005C34.4385 182.865 34.1968 182.795 33.9301 182.795C33.7368 182.795 33.5918 182.833 33.4951 182.91C33.4018 182.983 33.3551 183.097 33.3551 183.25C33.3551 183.543 33.5468 183.69 33.9301 183.69ZM37.3536 184.075C37.1869 184.075 37.0102 184.053 36.8236 184.01C36.6369 183.97 36.4902 183.915 36.3836 183.845V183.415C36.5136 183.492 36.6636 183.555 36.8336 183.605C37.0036 183.652 37.1686 183.675 37.3286 183.675C37.5086 183.675 37.6402 183.653 37.7236 183.61C37.8069 183.567 37.8486 183.497 37.8486 183.4C37.8486 183.327 37.8286 183.268 37.7886 183.225C37.7519 183.178 37.6869 183.137 37.5936 183.1C37.5036 183.063 37.3669 183.02 37.1836 182.97C36.9869 182.913 36.8302 182.857 36.7136 182.8C36.6002 182.74 36.5136 182.665 36.4536 182.575C36.3969 182.485 36.3686 182.368 36.3686 182.225C36.3686 181.995 36.4586 181.822 36.6386 181.705C36.8219 181.585 37.0669 181.525 37.3736 181.525C37.5336 181.525 37.6902 181.54 37.8436 181.57C37.9969 181.6 38.1202 181.642 38.2136 181.695V182.115C38.1169 182.058 37.9969 182.013 37.8536 181.98C37.7136 181.947 37.5702 181.93 37.4236 181.93C37.2469 181.93 37.1119 181.952 37.0186 181.995C36.9252 182.038 36.8786 182.115 36.8786 182.225C36.8786 182.295 36.8986 182.352 36.9386 182.395C36.9786 182.438 37.0419 182.477 37.1286 182.51C37.2186 182.54 37.3602 182.58 37.5536 182.63C37.8569 182.713 38.0669 182.812 38.1836 182.925C38.3036 183.038 38.3636 183.195 38.3636 183.395C38.3636 183.602 38.2786 183.767 38.1086 183.89C37.9386 184.013 37.6869 184.075 37.3536 184.075ZM40.9848 184.075C40.5415 184.075 40.1932 183.965 39.9398 183.745C39.6898 183.522 39.5648 183.208 39.5648 182.805C39.5648 182.412 39.6765 182.1 39.8998 181.87C40.1265 181.64 40.4482 181.525 40.8648 181.525C41.1415 181.525 41.3765 181.578 41.5698 181.685C41.7632 181.788 41.9082 181.933 42.0048 182.12C42.1048 182.303 42.1548 182.513 42.1548 182.75V183H40.0448C40.0615 183.227 40.1565 183.397 40.3298 183.51C40.5065 183.62 40.7448 183.675 41.0448 183.675C41.1982 183.675 41.3532 183.662 41.5098 183.635C41.6665 183.605 41.8048 183.567 41.9248 183.52V183.925C41.8182 183.968 41.6765 184.003 41.4998 184.03C41.3265 184.06 41.1548 184.075 40.9848 184.075ZM41.6798 182.645C41.6732 182.418 41.5982 182.243 41.4548 182.12C41.3148 181.993 41.1148 181.93 40.8548 181.93C40.6015 181.93 40.4048 181.995 40.2648 182.125C40.1248 182.255 40.0515 182.428 40.0448 182.645H41.6798ZM44.3418 184.075C44.1752 184.075 43.9985 184.053 43.8118 184.01C43.6252 183.97 43.4785 183.915 43.3718 183.845V183.415C43.5018 183.492 43.6518 183.555 43.8218 183.605C43.9918 183.652 44.1568 183.675 44.3168 183.675C44.4968 183.675 44.6285 183.653 44.7118 183.61C44.7952 183.567 44.8368 183.497 44.8368 183.4C44.8368 183.327 44.8168 183.268 44.7768 183.225C44.7402 183.178 44.6752 183.137 44.5818 183.1C44.4918 183.063 44.3552 183.02 44.1718 182.97C43.9752 182.913 43.8185 182.857 43.7018 182.8C43.5885 182.74 43.5018 182.665 43.4418 182.575C43.3852 182.485 43.3568 182.368 43.3568 182.225C43.3568 181.995 43.4468 181.822 43.6268 181.705C43.8102 181.585 44.0552 181.525 44.3618 181.525C44.5218 181.525 44.6785 181.54 44.8318 181.57C44.9852 181.6 45.1085 181.642 45.2018 181.695V182.115C45.1052 182.058 44.9852 182.013 44.8418 181.98C44.7018 181.947 44.5585 181.93 44.4118 181.93C44.2352 181.93 44.1002 181.952 44.0068 181.995C43.9135 182.038 43.8668 182.115 43.8668 182.225C43.8668 182.295 43.8868 182.352 43.9268 182.395C43.9668 182.438 44.0302 182.477 44.1168 182.51C44.2068 182.54 44.3485 182.58 44.5418 182.63C44.8452 182.713 45.0552 182.812 45.1718 182.925C45.2918 183.038 45.3518 183.195 45.3518 183.395C45.3518 183.602 45.2668 183.767 45.0968 183.89C44.9268 184.013 44.6752 184.075 44.3418 184.075ZM50.7437 184.075C50.527 184.075 50.3387 184.042 50.1787 183.975C50.022 183.905 49.877 183.797 49.7437 183.65V184H49.2537V180.305H49.7587V181.92C49.8687 181.79 50.0104 181.692 50.1837 181.625C50.357 181.558 50.5437 181.525 50.7437 181.525C50.9837 181.525 51.1987 181.58 51.3887 181.69C51.582 181.797 51.732 181.947 51.8387 182.14C51.9487 182.333 52.0037 182.555 52.0037 182.805C52.0037 183.058 51.9487 183.282 51.8387 183.475C51.732 183.665 51.582 183.813 51.3887 183.92C51.1987 184.023 50.9837 184.075 50.7437 184.075ZM50.6287 183.675C50.792 183.675 50.9387 183.64 51.0687 183.57C51.202 183.497 51.3054 183.393 51.3787 183.26C51.4554 183.127 51.4937 182.975 51.4937 182.805C51.4937 182.635 51.4554 182.483 51.3787 182.35C51.3054 182.217 51.202 182.113 51.0687 182.04C50.9387 181.967 50.792 181.93 50.6287 181.93C50.4254 181.93 50.2437 181.985 50.0837 182.095C49.9237 182.205 49.8154 182.352 49.7587 182.535V183.075C49.822 183.258 49.9304 183.405 50.0837 183.515C50.2404 183.622 50.422 183.675 50.6287 183.675ZM53.4873 184.99C53.3073 184.99 53.1573 184.972 53.0373 184.935V184.54C53.124 184.573 53.2307 184.59 53.3573 184.59C53.474 184.59 53.5657 184.56 53.6323 184.5C53.699 184.443 53.759 184.35 53.8123 184.22L53.9273 183.94L52.8773 181.6H53.3973L54.1973 183.445L54.9423 181.6H55.4623L54.3823 184.27C54.2823 184.52 54.1623 184.702 54.0223 184.815C53.8857 184.932 53.7073 184.99 53.4873 184.99ZM65.5655 184C65.4988 184 65.4421 183.978 65.3955 183.935C65.3521 183.888 65.3305 183.832 65.3305 183.765C65.3305 183.698 65.3521 183.642 65.3955 183.595C65.4421 183.548 65.4988 183.525 65.5655 183.525C65.6321 183.525 65.6888 183.548 65.7355 183.595C65.7821 183.642 65.8055 183.698 65.8055 183.765C65.8055 183.832 65.7821 183.888 65.7355 183.935C65.6888 183.978 65.6321 184 65.5655 184ZM74.0445 184.075C73.6978 184.075 73.3845 184 73.1045 183.85C72.8245 183.697 72.6045 183.482 72.4445 183.205C72.2845 182.928 72.2045 182.612 72.2045 182.255C72.2045 181.898 72.2845 181.582 72.4445 181.305C72.6045 181.028 72.8245 180.813 73.1045 180.66C73.3845 180.507 73.6978 180.43 74.0445 180.43C74.3912 180.43 74.7045 180.507 74.9845 180.66C75.2645 180.813 75.4845 181.028 75.6445 181.305C75.8045 181.582 75.8845 181.898 75.8845 182.255C75.8845 182.612 75.8045 182.928 75.6445 183.205C75.4845 183.482 75.2645 183.697 74.9845 183.85C74.7045 184 74.3912 184.075 74.0445 184.075ZM74.0445 183.615C74.2912 183.615 74.5145 183.56 74.7145 183.45C74.9178 183.337 75.0778 183.178 75.1945 182.975C75.3112 182.768 75.3695 182.528 75.3695 182.255C75.3695 181.985 75.3112 181.748 75.1945 181.545C75.0812 181.338 74.9245 181.18 74.7245 181.07C74.5245 180.957 74.3012 180.9 74.0545 180.9C73.8045 180.9 73.5778 180.955 73.3745 181.065C73.1745 181.175 73.0145 181.333 72.8945 181.54C72.7778 181.747 72.7195 181.985 72.7195 182.255C72.7195 182.528 72.7778 182.768 72.8945 182.975C73.0112 183.178 73.1695 183.337 73.3695 183.45C73.5728 183.56 73.7978 183.615 74.0445 183.615ZM77.1854 181.6H77.6754V181.945C77.7887 181.802 77.927 181.697 78.0904 181.63C78.257 181.56 78.4304 181.525 78.6104 181.525C78.9304 181.525 79.1687 181.61 79.3254 181.78C79.482 181.95 79.5604 182.178 79.5604 182.465V184H79.0554V182.515C79.0554 182.125 78.8687 181.93 78.4954 181.93C78.3354 181.93 78.1854 181.968 78.0454 182.045C77.9087 182.118 77.7904 182.232 77.6904 182.385V184H77.1854V181.6ZM82.2534 184.075C81.8101 184.075 81.4617 183.965 81.2084 183.745C80.9584 183.522 80.8334 183.208 80.8334 182.805C80.8334 182.412 80.9451 182.1 81.1684 181.87C81.3951 181.64 81.7167 181.525 82.1334 181.525C82.4101 181.525 82.6451 181.578 82.8384 181.685C83.0317 181.788 83.1767 181.933 83.2734 182.12C83.3734 182.303 83.4234 182.513 83.4234 182.75V183H81.3134C81.3301 183.227 81.4251 183.397 81.5984 183.51C81.7751 183.62 82.0134 183.675 82.3134 183.675C82.4667 183.675 82.6217 183.662 82.7784 183.635C82.9351 183.605 83.0734 183.567 83.1934 183.52V183.925C83.0867 183.968 82.9451 184.003 82.7684 184.03C82.5951 184.06 82.4234 184.075 82.2534 184.075ZM82.9484 182.645C82.9417 182.418 82.8667 182.243 82.7234 182.12C82.5834 181.993 82.3834 181.93 82.1234 181.93C81.8701 181.93 81.6734 181.995 81.5334 182.125C81.3934 182.255 81.3201 182.428 81.3134 182.645H82.9484ZM88.251 184.075C88.0076 184.075 87.8193 184.005 87.686 183.865C87.556 183.725 87.491 183.527 87.491 183.27V181.99H87.126V181.6H87.491V180.88H88.001V181.6H88.591V181.99H88.001V183.235C88.001 183.395 88.031 183.508 88.091 183.575C88.1543 183.642 88.2676 183.675 88.431 183.675C88.5276 183.675 88.6243 183.653 88.721 183.61V184.01C88.5943 184.053 88.4376 184.075 88.251 184.075ZM90.8767 184.075C90.5533 184.075 90.3083 183.988 90.1417 183.815C89.9783 183.642 89.8967 183.41 89.8967 183.12V181.6H90.4017V183.1C90.4017 183.483 90.5933 183.675 90.9767 183.675C91.3133 183.675 91.5767 183.523 91.7667 183.22V181.6H92.2717V184H91.7817V183.66C91.6683 183.803 91.5333 183.908 91.3767 183.975C91.2233 184.042 91.0567 184.075 90.8767 184.075ZM93.6697 181.6H94.1597V182.03C94.2597 181.883 94.3997 181.775 94.5797 181.705C94.7631 181.635 94.9747 181.6 95.2147 181.6V181.995C94.9581 181.995 94.7381 182.037 94.5547 182.12C94.3714 182.203 94.2447 182.335 94.1747 182.515V184H93.6697V181.6ZM96.4168 181.6H96.9068V181.945C97.0201 181.802 97.1585 181.697 97.3218 181.63C97.4885 181.56 97.6618 181.525 97.8418 181.525C98.1618 181.525 98.4001 181.61 98.5568 181.78C98.7135 181.95 98.7918 182.178 98.7918 182.465V184H98.2868V182.515C98.2868 182.125 98.1001 181.93 97.7268 181.93C97.5668 181.93 97.4168 181.968 97.2768 182.045C97.1401 182.118 97.0218 182.232 96.9218 182.385V184H96.4168V181.6ZM104.03 184.075C103.76 184.075 103.522 184.025 103.315 183.925C103.112 183.822 102.952 183.675 102.835 183.485C102.722 183.292 102.665 183.065 102.665 182.805C102.665 182.548 102.722 182.323 102.835 182.13C102.949 181.937 103.109 181.788 103.315 181.685C103.522 181.578 103.76 181.525 104.03 181.525C104.3 181.525 104.539 181.578 104.745 181.685C104.952 181.788 105.112 181.937 105.225 182.13C105.342 182.323 105.4 182.548 105.4 182.805C105.4 183.065 105.342 183.292 105.225 183.485C105.112 183.675 104.952 183.822 104.745 183.925C104.539 184.025 104.3 184.075 104.03 184.075ZM104.03 183.675C104.29 183.675 104.497 183.595 104.65 183.435C104.804 183.275 104.88 183.065 104.88 182.805C104.88 182.535 104.804 182.322 104.65 182.165C104.497 182.008 104.29 181.93 104.03 181.93C103.77 181.93 103.564 182.008 103.41 182.165C103.257 182.322 103.18 182.535 103.18 182.805C103.18 183.065 103.257 183.275 103.41 183.435C103.564 183.595 103.77 183.675 104.03 183.675ZM106.699 181.6H107.189V181.945C107.302 181.802 107.441 181.697 107.604 181.63C107.771 181.56 107.944 181.525 108.124 181.525C108.444 181.525 108.682 181.61 108.839 181.78C108.996 181.95 109.074 182.178 109.074 182.465V184H108.569V182.515C108.569 182.125 108.382 181.93 108.009 181.93C107.849 181.93 107.699 181.968 107.559 182.045C107.422 182.118 107.304 182.232 107.204 182.385V184H106.699V181.6ZM110.447 180.305H110.952V184H110.447V180.305ZM112.864 184.99C112.684 184.99 112.534 184.972 112.414 184.935V184.54C112.501 184.573 112.608 184.59 112.734 184.59C112.851 184.59 112.943 184.56 113.009 184.5C113.076 184.443 113.136 184.35 113.189 184.22L113.304 183.94L112.254 181.6H112.774L113.574 183.445L114.319 181.6H114.839L113.759 184.27C113.659 184.52 113.539 184.702 113.399 184.815C113.263 184.932 113.084 184.99 112.864 184.99Z" fill="black"/>
<path d="M59.9175 181.055L59.1625 181.6V181.115L59.9875 180.505H60.4275V184H59.9175V181.055ZM62.7039 184.075C62.5206 184.075 62.3422 184.055 62.1689 184.015C61.9956 183.978 61.8489 183.927 61.7289 183.86V183.405C61.8656 183.488 62.0206 183.553 62.1939 183.6C62.3672 183.643 62.5322 183.665 62.6889 183.665C62.9922 183.665 63.2222 183.602 63.3789 183.475C63.5356 183.345 63.6139 183.155 63.6139 182.905C63.6139 182.668 63.5406 182.488 63.3939 182.365C63.2506 182.238 63.0356 182.175 62.7489 182.175C62.6289 182.175 62.5022 182.187 62.3689 182.21C62.2389 182.233 62.1222 182.265 62.0189 182.305L61.7939 182.175L61.9239 180.505H63.8789V180.935H62.3889L62.3139 181.835C62.5206 181.792 62.7306 181.77 62.9439 181.77C63.3139 181.77 63.6039 181.873 63.8139 182.08C64.0239 182.287 64.1289 182.562 64.1289 182.905C64.1289 183.282 64.0106 183.572 63.7739 183.775C63.5372 183.975 63.1806 184.075 62.7039 184.075Z" fill="#877900"/>
<rect x="12.25" y="143.25" width="125.5" height="46.5" stroke="#6C6C6C" stroke-width="0.5"/>
<path d="M12.675 27.8H14.22L15.84 33.14L17.445 27.8H18.81L20.415 33.14L22.035 27.8H23.595L21.255 35H19.8L18.135 29.63L16.47 35H15L12.675 27.8ZM30.0101 35.225C29.1401 35.225 28.4401 35.005 27.9101 34.565C27.3901 34.115 27.1301 33.51 27.1301 32.75C27.1301 31.95 27.3801 31.335 27.8801 30.905C28.3901 30.465 29.1101 30.245 30.0401 30.245C31.0301 30.245 31.8701 30.445 32.5601 30.845V30.47C32.5601 29.9 32.3851 29.48 32.0351 29.21C31.6951 28.93 31.1551 28.79 30.4151 28.79C29.9751 28.79 29.5451 28.835 29.1251 28.925C28.7151 29.005 28.3451 29.12 28.0151 29.27V28.04C28.3151 27.9 28.7051 27.79 29.1851 27.71C29.6651 27.62 30.1301 27.575 30.5801 27.575C31.7701 27.575 32.6501 27.84 33.2201 28.37C33.8001 28.89 34.0901 29.615 34.0901 30.545V35H32.6651V34.19C32.3551 34.53 31.9851 34.79 31.5551 34.97C31.1351 35.14 30.6201 35.225 30.0101 35.225ZM30.3851 34.07C30.8651 34.07 31.3001 33.975 31.6901 33.785C32.0801 33.595 32.3701 33.33 32.5601 32.99V32.015C31.9101 31.595 31.1851 31.385 30.3851 31.385C29.8051 31.385 29.3701 31.5 29.0801 31.73C28.8001 31.95 28.6601 32.29 28.6601 32.75C28.6601 33.63 29.2351 34.07 30.3851 34.07ZM41.3643 35.225C40.6343 35.225 40.0693 35.015 39.6693 34.595C39.2793 34.175 39.0843 33.58 39.0843 32.81V28.97H37.9893V27.8H39.0843V25.64H40.6143V27.8H42.3843V28.97H40.6143V32.705C40.6143 33.185 40.7043 33.525 40.8843 33.725C41.0743 33.925 41.4143 34.025 41.9043 34.025C42.1943 34.025 42.4843 33.96 42.7743 33.83V35.03C42.3943 35.16 41.9243 35.225 41.3643 35.225ZM51.1596 35.225C49.8296 35.225 48.7846 34.895 48.0246 34.235C47.2746 33.565 46.8996 32.625 46.8996 31.415C46.8996 30.235 47.2346 29.3 47.9046 28.61C48.5846 27.92 49.5496 27.575 50.7996 27.575C51.6296 27.575 52.3346 27.735 52.9146 28.055C53.4946 28.365 53.9296 28.8 54.2196 29.36C54.5196 29.91 54.6696 30.54 54.6696 31.25V32H48.3396C48.3896 32.68 48.6746 33.19 49.1946 33.53C49.7246 33.86 50.4396 34.025 51.3396 34.025C51.7996 34.025 52.2646 33.985 52.7346 33.905C53.2046 33.815 53.6196 33.7 53.9796 33.56V34.775C53.6596 34.905 53.2346 35.01 52.7046 35.09C52.1846 35.18 51.6696 35.225 51.1596 35.225ZM53.2446 30.935C53.2246 30.255 52.9996 29.73 52.5696 29.36C52.1496 28.98 51.5496 28.79 50.7696 28.79C50.0096 28.79 49.4196 28.985 48.9996 29.375C48.5796 29.765 48.3596 30.285 48.3396 30.935H53.2446ZM59.3256 27.8H60.7956V29.09C61.0956 28.65 61.5156 28.325 62.0556 28.115C62.6056 27.905 63.2406 27.8 63.9606 27.8V28.985C63.1906 28.985 62.5306 29.11 61.9806 29.36C61.4306 29.61 61.0506 30.005 60.8406 30.545V35H59.3256V27.8ZM68.3168 27.8H69.7568V28.835C70.0968 28.415 70.4818 28.1 70.9118 27.89C71.3418 27.68 71.7868 27.575 72.2468 27.575C72.8268 27.575 73.2868 27.675 73.6268 27.875C73.9668 28.065 74.2168 28.36 74.3768 28.76C74.6968 28.37 75.0868 28.075 75.5468 27.875C76.0168 27.675 76.4868 27.575 76.9568 27.575C77.8368 27.575 78.4718 27.8 78.8618 28.25C79.2518 28.69 79.4468 29.345 79.4468 30.215V35H77.9768V30.41C77.9768 29.82 77.8668 29.405 77.6468 29.165C77.4268 28.915 77.0518 28.79 76.5218 28.79C75.7618 28.79 75.1418 29.12 74.6618 29.78C74.6818 29.93 74.6918 30.175 74.6918 30.515V35H73.2218V30.41C73.2218 29.82 73.1218 29.405 72.9218 29.165C72.7218 28.915 72.3618 28.79 71.8418 28.79C71.0818 28.79 70.4018 29.22 69.8018 30.08V35H68.3168V27.8ZM88.2846 35.225C86.9546 35.225 85.9096 34.895 85.1496 34.235C84.3996 33.565 84.0246 32.625 84.0246 31.415C84.0246 30.235 84.3596 29.3 85.0296 28.61C85.7096 27.92 86.6746 27.575 87.9246 27.575C88.7546 27.575 89.4596 27.735 90.0396 28.055C90.6196 28.365 91.0546 28.8 91.3446 29.36C91.6446 29.91 91.7946 30.54 91.7946 31.25V32H85.4646C85.5146 32.68 85.7996 33.19 86.3196 33.53C86.8496 33.86 87.5646 34.025 88.4646 34.025C88.9246 34.025 89.3896 33.985 89.8596 33.905C90.3296 33.815 90.7446 33.7 91.1046 33.56V34.775C90.7846 34.905 90.3596 35.01 89.8296 35.09C89.3096 35.18 88.7946 35.225 88.2846 35.225ZM90.3696 30.935C90.3496 30.255 90.1246 29.73 89.6946 29.36C89.2746 28.98 88.6746 28.79 87.8946 28.79C87.1346 28.79 86.5446 28.985 86.1246 29.375C85.7046 29.765 85.4846 30.285 85.4646 30.935H90.3696ZM96.4506 23.915H97.9656V35H96.4506V23.915ZM106.717 35.225C105.907 35.225 105.192 35.075 104.572 34.775C103.962 34.465 103.482 34.025 103.132 33.455C102.792 32.875 102.622 32.195 102.622 31.415C102.622 30.645 102.792 29.97 103.132 29.39C103.472 28.81 103.952 28.365 104.572 28.055C105.192 27.735 105.907 27.575 106.717 27.575C107.527 27.575 108.242 27.735 108.862 28.055C109.482 28.365 109.962 28.81 110.302 29.39C110.652 29.97 110.827 30.645 110.827 31.415C110.827 32.195 110.652 32.875 110.302 33.455C109.962 34.025 109.482 34.465 108.862 34.775C108.242 35.075 107.527 35.225 106.717 35.225ZM106.717 34.025C107.497 34.025 108.117 33.785 108.577 33.305C109.037 32.825 109.267 32.195 109.267 31.415C109.267 30.605 109.037 29.965 108.577 29.495C108.117 29.025 107.497 28.79 106.717 28.79C105.937 28.79 105.317 29.025 104.857 29.495C104.397 29.965 104.167 30.605 104.167 31.415C104.167 32.195 104.397 32.825 104.857 33.305C105.317 33.785 105.937 34.025 106.717 34.025ZM115.473 27.8H116.943V28.835C117.283 28.405 117.698 28.09 118.188 27.89C118.688 27.68 119.208 27.575 119.748 27.575C120.708 27.575 121.423 27.83 121.893 28.34C122.363 28.85 122.598 29.535 122.598 30.395V35H121.083V30.545C121.083 29.375 120.523 28.79 119.403 28.79C118.923 28.79 118.473 28.905 118.053 29.135C117.643 29.355 117.288 29.695 116.988 30.155V35H115.473V27.8Z" fill="black"/>
<path d="M12.8691 19.0381L17.1807 17.1875V16.4746L12.8691 14.6289V15.5615L16.0283 16.7334L16.3213 16.8262L16.0283 16.9092L12.8691 18.1006V19.0381ZM20.875 19.0381L25.1865 17.1875V16.4746L20.875 14.6289V15.5615L24.0342 16.7334L24.3271 16.8262L24.0342 16.9092L20.875 18.1006V19.0381ZM38.2148 20H39.123V15.415H41.1592V14.7168H39.123V14.3457C39.123 14.1243 39.1507 13.9307 39.2061 13.7646C39.2646 13.5986 39.3493 13.4635 39.46 13.3594C39.5641 13.2585 39.6943 13.1836 39.8506 13.1348C40.0101 13.0827 40.1924 13.0566 40.3975 13.0566C40.5993 13.0566 40.7881 13.0745 40.9639 13.1104C41.1429 13.1429 41.2992 13.182 41.4326 13.2275L41.54 12.4805C41.4554 12.4577 41.3724 12.4382 41.291 12.4219C41.2096 12.4023 41.1283 12.3844 41.0469 12.3682C40.9232 12.3454 40.7979 12.3275 40.6709 12.3145C40.5439 12.2982 40.4154 12.29 40.2852 12.29C39.9727 12.29 39.6895 12.334 39.4355 12.4219C39.1816 12.5098 38.9652 12.64 38.7861 12.8125C38.6038 12.985 38.4622 13.1999 38.3613 13.457C38.2637 13.7109 38.2148 14.0072 38.2148 14.3457V14.7168H36.7598V15.415H38.2148V20ZM44.6191 17.3096V17.417C44.6191 17.7979 44.6745 18.151 44.7852 18.4766C44.8958 18.8021 45.0553 19.0853 45.2637 19.3262C45.4688 19.5671 45.7194 19.7559 46.0156 19.8926C46.3151 20.0293 46.652 20.0977 47.0264 20.0977C47.3975 20.0977 47.7311 20.0293 48.0273 19.8926C48.3236 19.7559 48.5758 19.5671 48.7842 19.3262C48.9893 19.0853 49.1471 18.8021 49.2578 18.4766C49.3685 18.151 49.4238 17.7979 49.4238 17.417V17.3096C49.4238 16.9287 49.3685 16.5755 49.2578 16.25C49.1471 15.9212 48.9893 15.6364 48.7842 15.3955C48.5758 15.1546 48.3219 14.9658 48.0225 14.8291C47.7262 14.6891 47.391 14.6191 47.0166 14.6191C46.6455 14.6191 46.3118 14.6891 46.0156 14.8291C45.7194 14.9658 45.4688 15.1546 45.2637 15.3955C45.0553 15.6364 44.8958 15.9212 44.7852 16.25C44.6745 16.5755 44.6191 16.9287 44.6191 17.3096ZM45.5225 17.417V17.3096C45.5225 17.0524 45.5534 16.8066 45.6152 16.5723C45.6771 16.3346 45.7715 16.1263 45.8984 15.9473C46.0221 15.7682 46.1768 15.6266 46.3623 15.5225C46.5479 15.415 46.766 15.3613 47.0166 15.3613C47.2673 15.3613 47.4854 15.415 47.6709 15.5225C47.8597 15.6266 48.0176 15.7682 48.1445 15.9473C48.2682 16.1263 48.361 16.3346 48.4229 16.5723C48.488 16.8066 48.5205 17.0524 48.5205 17.3096V17.417C48.5205 17.6774 48.4896 17.9264 48.4277 18.1641C48.3659 18.3984 48.2731 18.6051 48.1494 18.7842C48.0225 18.9632 47.8646 19.1048 47.6758 19.209C47.4902 19.3132 47.2738 19.3652 47.0264 19.3652C46.7757 19.3652 46.556 19.3132 46.3672 19.209C46.1784 19.1048 46.0221 18.9632 45.8984 18.7842C45.7715 18.6051 45.6771 18.3984 45.6152 18.1641C45.5534 17.9264 45.5225 17.6774 45.5225 17.417ZM52.625 17.3096V17.417C52.625 17.7979 52.6803 18.151 52.791 18.4766C52.9017 18.8021 53.0612 19.0853 53.2695 19.3262C53.4746 19.5671 53.7253 19.7559 54.0215 19.8926C54.321 20.0293 54.6579 20.0977 55.0322 20.0977C55.4033 20.0977 55.737 20.0293 56.0332 19.8926C56.3294 19.7559 56.5817 19.5671 56.79 19.3262C56.9951 19.0853 57.153 18.8021 57.2637 18.4766C57.3743 18.151 57.4297 17.7979 57.4297 17.417V17.3096C57.4297 16.9287 57.3743 16.5755 57.2637 16.25C57.153 15.9212 56.9951 15.6364 56.79 15.3955C56.5817 15.1546 56.3278 14.9658 56.0283 14.8291C55.7321 14.6891 55.3968 14.6191 55.0225 14.6191C54.6514 14.6191 54.3177 14.6891 54.0215 14.8291C53.7253 14.9658 53.4746 15.1546 53.2695 15.3955C53.0612 15.6364 52.9017 15.9212 52.791 16.25C52.6803 16.5755 52.625 16.9287 52.625 17.3096ZM53.5283 17.417V17.3096C53.5283 17.0524 53.5592 16.8066 53.6211 16.5723C53.6829 16.3346 53.7773 16.1263 53.9043 15.9473C54.028 15.7682 54.1826 15.6266 54.3682 15.5225C54.5537 15.415 54.7718 15.3613 55.0225 15.3613C55.2731 15.3613 55.4912 15.415 55.6768 15.5225C55.8656 15.6266 56.0234 15.7682 56.1504 15.9473C56.2741 16.1263 56.3669 16.3346 56.4287 16.5723C56.4938 16.8066 56.5264 17.0524 56.5264 17.3096V17.417C56.5264 17.6774 56.4954 17.9264 56.4336 18.1641C56.3717 18.3984 56.279 18.6051 56.1553 18.7842C56.0283 18.9632 55.8704 19.1048 55.6816 19.209C55.4961 19.3132 55.2796 19.3652 55.0322 19.3652C54.7816 19.3652 54.5618 19.3132 54.373 19.209C54.1842 19.1048 54.028 18.9632 53.9043 18.7842C53.7773 18.6051 53.6829 18.3984 53.6211 18.1641C53.5592 17.9264 53.5283 17.6774 53.5283 17.417ZM60.7139 17.3145V17.417C60.7139 17.7946 60.7643 18.1478 60.8652 18.4766C60.9661 18.8021 61.1077 19.0853 61.29 19.3262C61.4723 19.5671 61.6921 19.7559 61.9492 19.8926C62.2096 20.0293 62.4993 20.0977 62.8184 20.0977C63.1439 20.0977 63.4287 20.0423 63.6729 19.9316C63.917 19.821 64.127 19.6582 64.3027 19.4434L64.3418 20H65.1719V12.5H64.2686V15.2393C64.096 15.0374 63.891 14.8844 63.6533 14.7803C63.4189 14.6729 63.1439 14.6191 62.8281 14.6191C62.5059 14.6191 62.2145 14.6859 61.9541 14.8193C61.6937 14.9528 61.4723 15.1383 61.29 15.376C61.1045 15.6136 60.9613 15.8984 60.8604 16.2305C60.7627 16.5592 60.7139 16.9206 60.7139 17.3145ZM61.6172 17.417V17.3145C61.6172 17.0573 61.6449 16.8132 61.7002 16.582C61.7555 16.3477 61.8418 16.141 61.959 15.9619C62.0729 15.7861 62.2194 15.6462 62.3984 15.542C62.5807 15.4378 62.7988 15.3857 63.0527 15.3857C63.349 15.3857 63.5964 15.4557 63.7949 15.5957C63.9935 15.7324 64.1514 15.9082 64.2686 16.123V18.5742C64.1514 18.8053 63.9935 18.9893 63.7949 19.126C63.5964 19.2627 63.3457 19.3311 63.043 19.3311C62.7923 19.3311 62.5775 19.2806 62.3984 19.1797C62.2194 19.0755 62.0729 18.9355 61.959 18.7598C61.8418 18.584 61.7555 18.3805 61.7002 18.1494C61.6449 17.9183 61.6172 17.6742 61.6172 17.417Z" fill="#707070"/>
<path d="M36.4621 115.782L54.8052 123.344L104.881 113.045L118.241 96.2088L118.387 73.555L104.868 60.801L66.6715 63.2376L35.9437 76.15L26.4587 95.8475L36.4621 115.782Z" fill="#038600"/>
<path fill-rule="evenodd" clip-rule="evenodd" d="M34.3075 111.488L72.9437 112.466L118.257 93.6743L118.291 88.4469L71.2923 103.704L31.9105 106.712L34.3075 111.488ZM28.7288 100.371L68.579 90.9796L118.352 78.9736L118.371 75.9375L67.1527 84.9899L27.3332 97.5902L28.7288 100.371ZM29.5792 89.3673L72.9146 77.0741L116.339 71.6236L111.119 66.6982L64.4496 72.9704L32.0004 84.339L29.5792 89.3673Z" fill="#61C75F"/>
<path d="M129.779 17V9.89062H129.706L127.016 10.9258V11.751L128.876 11.043V17H129.779ZM133.178 13.4355L133.9 13.6211C133.982 13.5495 134.06 13.486 134.135 13.4307C134.213 13.3753 134.296 13.3281 134.384 13.2891C134.472 13.25 134.569 13.2207 134.677 13.2012C134.787 13.1784 134.918 13.167 135.067 13.167C135.295 13.167 135.497 13.2077 135.673 13.2891C135.849 13.3704 135.997 13.4811 136.117 13.6211C136.238 13.7643 136.329 13.932 136.391 14.124C136.456 14.3161 136.488 14.5228 136.488 14.7441C136.488 14.9883 136.459 15.2096 136.4 15.4082C136.345 15.6068 136.262 15.776 136.151 15.916C136.037 16.0592 135.897 16.1699 135.731 16.248C135.565 16.3229 135.375 16.3604 135.16 16.3604C134.779 16.3604 134.467 16.2562 134.223 16.0479C133.982 15.8395 133.834 15.5335 133.778 15.1299H132.919C132.951 15.4587 133.031 15.7467 133.158 15.9941C133.288 16.2415 133.454 16.4466 133.656 16.6094C133.855 16.7721 134.083 16.8942 134.34 16.9756C134.597 17.057 134.87 17.0977 135.16 17.0977C135.538 17.0977 135.866 17.0391 136.146 16.9219C136.426 16.8014 136.659 16.6354 136.845 16.4238C137.027 16.2155 137.164 15.9665 137.255 15.6768C137.346 15.387 137.392 15.0729 137.392 14.7344C137.392 14.3763 137.343 14.0508 137.245 13.7578C137.147 13.4648 137.007 13.2142 136.825 13.0059C136.643 12.8008 136.421 12.6413 136.161 12.5273C135.901 12.4134 135.606 12.3564 135.277 12.3564C135.02 12.3564 134.794 12.3874 134.599 12.4492C134.403 12.5111 134.236 12.5827 134.096 12.6641L134.296 10.7695H137.182V9.89062H133.534L133.178 13.4355Z" fill="#877900"/>
<path d="M120.101 17.1268L120.894 16.5628L119.33 15.1133L122.689 10.9714L122.405 9.08467L120.716 9.14382L117.63 13.5379L115.93 11.9624L115.71 12.8421L117.479 14.4806L114.925 17.7441L116.081 18.8155L118.499 15.4258L120.101 17.1268Z" fill="#FFEC44"/>
</svg>
