<svg width="93" height="87" viewBox="0 0 93 87" fill="none" xmlns="http://www.w3.org/2000/svg">
<path d="M0.210693 64.5914L48.8863 86.6556L92.7302 53.5592L76.0874 0L13.4533 5.87194L0.210693 64.5914Z" fill="#EB5500"/>
<path fill-rule="evenodd" clip-rule="evenodd" d="M16.4995 28.3421L18.7799 35.8349L26.5985 33.2287L33.4397 35.8349L30.8335 45.9338L21.3861 51.472V62.5483L47.1222 58.3132L46.1449 50.1689L33.4397 54.0782L43.5387 41.6988V30.2967L28.8789 24.1071L16.4995 28.3421ZM77.0931 35.4507L65.9147 27.365H57.5467L50.3797 41.638L55.2074 57.622L68.725 59.9422L77.0931 49.8878V35.4507ZM70.5776 40.5787L65.4673 35.835L59.3678 37.7897L56.8951 43.1661L59.3678 49.8503L66.2915 50.8206L70.5776 46.616V40.5787Z" fill="#802E00"/>
</svg>
