<svg width="96" height="96" viewBox="0 0 96 96" fill="none" xmlns="http://www.w3.org/2000/svg">
<path d="M0.127441 65.0064L36.4063 95.7563L86.012 77.9537L95.8838 39.3815L52.6947 0L7.28449 20.4999L0.127441 65.0064Z" fill="#FF007A"/>
<path fill-rule="evenodd" clip-rule="evenodd" d="M66.6871 30.7142L79.9126 40.2807V57.3619L70.012 69.2576L54.0188 66.5124L48.307 47.6012L56.7865 30.7142H66.6871ZM66.1576 40.7355L72.2038 46.3479V53.4909L67.1328 58.4655L58.9411 57.3175L56.0155 49.4092L58.9411 43.0481L66.1576 40.7355Z" fill="#FFB1D7"/>
<path d="M16.837 33.9306L19.2021 28.3053H33.3932L43.9051 34.8681L44.6935 43.0716L36.284 47.7593L42.5911 51.7439V61.5881L31.5536 71.6667L16.8371 66.2465L15.7859 59.9181L27.6116 62.76L34.1816 55.7284L29.1884 51.7439L20.2533 51.1413L19.2021 46.9224L27.3444 46.4511L34.1816 40.4934L30.5024 35.5713L16.837 33.9306Z" fill="#FFB1D7"/>
</svg>
