<svg width="92" height="96" viewBox="0 0 92 96" fill="none" xmlns="http://www.w3.org/2000/svg">
<path d="M3.53874 74.6384L38.9304 95.7773L71.4595 90.0359L91.4974 55.5873L83.9507 14.3535L33.2053 0L0.281006 30.2658L3.53874 74.6384Z" fill="#B000B4"/>
<path fill-rule="evenodd" clip-rule="evenodd" d="M19.3027 32.5773L12.6602 50.7153H28.043L23.4981 67.1092H35.0352V50.7153L41.3282 48.9712L38.5313 43.3903H31.8887L33.6368 32.5773H19.3027ZM25.2568 37.7897L20.4788 44.6309L27.6458 45.6082L25.2568 37.7897Z" fill="#FFCFE6"/>
<path fill-rule="evenodd" clip-rule="evenodd" d="M62.9398 32.5773L75.2087 40.9865V56.0011L66.0243 66.4577L51.1879 64.0446L45.8892 47.4213L53.7554 32.5773H62.9398ZM62.757 41.699L68.4429 47.0614V53.8862L63.6741 58.6392L55.9705 57.5423L53.2193 49.9863L55.9705 43.9086L62.757 41.699Z" fill="#FFCFE6"/>
</svg>
