<svg width="111" height="105" viewBox="0 0 111 105" fill="none" xmlns="http://www.w3.org/2000/svg">
<path d="M12.3934 91.5738L46.1311 105L88.4754 98.1148L110.852 57.4918L97.4262 22.3771L51.6393 0L12.3934 22.3771L0 57.4918L12.3934 91.5738Z" fill="#8F00FF"/>
<path fill-rule="evenodd" clip-rule="evenodd" d="M26.216 39.063L22.2101 50.4022H37.5662L42.2399 59.0733L35.5633 68.0779L25.2145 67.0774L20.8747 61.0743L16.8688 67.0774L25.2145 74.0809L35.5633 76.082L49.918 64.0758V54.0707L43.5752 46.0666H32.5588V42.3981L45.2443 41.064V33.3934L26.216 39.063ZM91.5092 43.3017L78.3304 36.1475H67.7874L56.1148 51.5856L65.4915 72.2951H81.7193L93.7685 61.7521L91.5092 43.3017ZM82.4724 49.7029L77.5139 44.8079L68.4498 47.2636L64.7751 54.0181L71.5528 63.6347H78.7388L85.1081 58.3524L82.4724 49.7029Z" fill="white"/>
</svg>
