<svg width="150" height="200" viewBox="0 0 150 200" fill="none" xmlns="http://www.w3.org/2000/svg">
<rect width="150" height="200" fill="white"/>
<rect width="150" height="200" fill="white"/>
<path d="M18.62 148.505H19.11L20.505 152H19.985L19.635 151.13H18.09L17.75 152H17.225L18.62 148.505ZM19.495 150.705L18.865 149.07L18.235 150.705H19.495ZM24.8061 149.6H25.3211L25.8611 151.38L26.3961 149.6H26.8511L27.3861 151.38L27.9261 149.6H28.4461L27.6661 152H27.1811L26.6261 150.21L26.0711 152H25.5811L24.8061 149.6ZM30.5844 152.075C30.2944 152.075 30.0611 152.002 29.8844 151.855C29.7111 151.705 29.6244 151.503 29.6244 151.25C29.6244 150.983 29.7077 150.778 29.8744 150.635C30.0444 150.488 30.2844 150.415 30.5944 150.415C30.9244 150.415 31.2044 150.482 31.4344 150.615V150.49C31.4344 150.3 31.3761 150.16 31.2594 150.07C31.1461 149.977 30.9661 149.93 30.7194 149.93C30.5727 149.93 30.4294 149.945 30.2894 149.975C30.1527 150.002 30.0294 150.04 29.9194 150.09V149.68C30.0194 149.633 30.1494 149.597 30.3094 149.57C30.4694 149.54 30.6244 149.525 30.7744 149.525C31.1711 149.525 31.4644 149.613 31.6544 149.79C31.8477 149.963 31.9444 150.205 31.9444 150.515V152H31.4694V151.73C31.3661 151.843 31.2427 151.93 31.0994 151.99C30.9594 152.047 30.7877 152.075 30.5844 152.075ZM30.7094 151.69C30.8694 151.69 31.0144 151.658 31.1444 151.595C31.2744 151.532 31.3711 151.443 31.4344 151.33V151.005C31.2177 150.865 30.9761 150.795 30.7094 150.795C30.5161 150.795 30.3711 150.833 30.2744 150.91C30.1811 150.983 30.1344 151.097 30.1344 151.25C30.1344 151.543 30.3261 151.69 30.7094 151.69ZM34.3691 152.075C34.1258 152.075 33.9375 152.005 33.8041 151.865C33.6741 151.725 33.6091 151.527 33.6091 151.27V149.99H33.2441V149.6H33.6091V148.88H34.1191V149.6H34.7091V149.99H34.1191V151.235C34.1191 151.395 34.1491 151.508 34.2091 151.575C34.2725 151.642 34.3858 151.675 34.5491 151.675C34.6458 151.675 34.7425 151.653 34.8391 151.61V152.01C34.7125 152.053 34.5558 152.075 34.3691 152.075ZM37.6343 152.075C37.1909 152.075 36.8426 151.965 36.5893 151.745C36.3393 151.522 36.2143 151.208 36.2143 150.805C36.2143 150.412 36.3259 150.1 36.5493 149.87C36.7759 149.64 37.0976 149.525 37.5143 149.525C37.7909 149.525 38.0259 149.578 38.2193 149.685C38.4126 149.788 38.5576 149.933 38.6543 150.12C38.7543 150.303 38.8043 150.513 38.8043 150.75V151H36.6943C36.7109 151.227 36.8059 151.397 36.9793 151.51C37.1559 151.62 37.3943 151.675 37.6943 151.675C37.8476 151.675 38.0026 151.662 38.1593 151.635C38.3159 151.605 38.4543 151.567 38.5743 151.52V151.925C38.4676 151.968 38.3259 152.003 38.1493 152.03C37.9759 152.06 37.8043 152.075 37.6343 152.075ZM38.3293 150.645C38.3226 150.418 38.2476 150.243 38.1043 150.12C37.9643 149.993 37.7643 149.93 37.5043 149.93C37.2509 149.93 37.0543 149.995 36.9143 150.125C36.7743 150.255 36.7009 150.428 36.6943 150.645H38.3293ZM40.3563 149.6H40.8463V150.03C40.9463 149.883 41.0863 149.775 41.2663 149.705C41.4496 149.635 41.6613 149.6 41.9013 149.6V149.995C41.6446 149.995 41.4246 150.037 41.2413 150.12C41.0579 150.203 40.9313 150.335 40.8613 150.515V152H40.3563V149.6ZM47.6939 152.075C47.4772 152.075 47.2889 152.042 47.1289 151.975C46.9722 151.905 46.8272 151.797 46.6939 151.65V152H46.2039V148.305H46.7089V149.92C46.8189 149.79 46.9606 149.692 47.1339 149.625C47.3072 149.558 47.4939 149.525 47.6939 149.525C47.9339 149.525 48.1489 149.58 48.3389 149.69C48.5322 149.797 48.6822 149.947 48.7889 150.14C48.8989 150.333 48.9539 150.555 48.9539 150.805C48.9539 151.058 48.8989 151.282 48.7889 151.475C48.6822 151.665 48.5322 151.813 48.3389 151.92C48.1489 152.023 47.9339 152.075 47.6939 152.075ZM47.5789 151.675C47.7422 151.675 47.8889 151.64 48.0189 151.57C48.1522 151.497 48.2556 151.393 48.3289 151.26C48.4056 151.127 48.4439 150.975 48.4439 150.805C48.4439 150.635 48.4056 150.483 48.3289 150.35C48.2556 150.217 48.1522 150.113 48.0189 150.04C47.8889 149.967 47.7422 149.93 47.5789 149.93C47.3756 149.93 47.1939 149.985 47.0339 150.095C46.8739 150.205 46.7656 150.352 46.7089 150.535V151.075C46.7722 151.258 46.8806 151.405 47.0339 151.515C47.1906 151.622 47.3722 151.675 47.5789 151.675ZM51.6427 152.075C51.3727 152.075 51.1344 152.025 50.9277 151.925C50.7244 151.822 50.5644 151.675 50.4477 151.485C50.3344 151.292 50.2777 151.065 50.2777 150.805C50.2777 150.548 50.3344 150.323 50.4477 150.13C50.5611 149.937 50.7211 149.788 50.9277 149.685C51.1344 149.578 51.3727 149.525 51.6427 149.525C51.9127 149.525 52.1511 149.578 52.3577 149.685C52.5644 149.788 52.7244 149.937 52.8377 150.13C52.9544 150.323 53.0127 150.548 53.0127 150.805C53.0127 151.065 52.9544 151.292 52.8377 151.485C52.7244 151.675 52.5644 151.822 52.3577 151.925C52.1511 152.025 51.9127 152.075 51.6427 152.075ZM51.6427 151.675C51.9027 151.675 52.1094 151.595 52.2627 151.435C52.4161 151.275 52.4927 151.065 52.4927 150.805C52.4927 150.535 52.4161 150.322 52.2627 150.165C52.1094 150.008 51.9027 149.93 51.6427 149.93C51.3827 149.93 51.1761 150.008 51.0227 150.165C50.8694 150.322 50.7927 150.535 50.7927 150.805C50.7927 151.065 50.8694 151.275 51.0227 151.435C51.1761 151.595 51.3827 151.675 51.6427 151.675ZM55.4131 152.075C55.1698 152.075 54.9814 152.005 54.8481 151.865C54.7181 151.725 54.6531 151.527 54.6531 151.27V149.99H54.2881V149.6H54.6531V148.88H55.1631V149.6H55.7531V149.99H55.1631V151.235C55.1631 151.395 55.1931 151.508 55.2531 151.575C55.3164 151.642 55.4298 151.675 55.5931 151.675C55.6898 151.675 55.7864 151.653 55.8831 151.61V152.01C55.7564 152.053 55.5998 152.075 55.4131 152.075ZM58.1562 152.075C57.9129 152.075 57.7246 152.005 57.5913 151.865C57.4613 151.725 57.3963 151.527 57.3963 151.27V149.99H57.0313V149.6H57.3963V148.88H57.9063V149.6H58.4963V149.99H57.9063V151.235C57.9063 151.395 57.9363 151.508 57.9963 151.575C58.0596 151.642 58.1729 151.675 58.3363 151.675C58.4329 151.675 58.5296 151.653 58.6263 151.61V152.01C58.4996 152.053 58.3429 152.075 58.1562 152.075ZM60.1014 148.305H60.6064V152H60.1014V148.305ZM63.5786 152.075C63.1353 152.075 62.7869 151.965 62.5336 151.745C62.2836 151.522 62.1586 151.208 62.1586 150.805C62.1586 150.412 62.2703 150.1 62.4936 149.87C62.7203 149.64 63.0419 149.525 63.4586 149.525C63.7353 149.525 63.9703 149.578 64.1636 149.685C64.3569 149.788 64.5019 149.933 64.5986 150.12C64.6986 150.303 64.7486 150.513 64.7486 150.75V151H62.6386C62.6553 151.227 62.7503 151.397 62.9236 151.51C63.1003 151.62 63.3386 151.675 63.6386 151.675C63.7919 151.675 63.9469 151.662 64.1036 151.635C64.2603 151.605 64.3986 151.567 64.5186 151.52V151.925C64.4119 151.968 64.2703 152.003 64.0936 152.03C63.9203 152.06 63.7486 152.075 63.5786 152.075ZM64.2736 150.645C64.2669 150.418 64.1919 150.243 64.0486 150.12C63.9086 149.993 63.7086 149.93 63.4486 149.93C63.1953 149.93 62.9986 149.995 62.8586 150.125C62.7186 150.255 62.6453 150.428 62.6386 150.645H64.2736ZM70.4162 152.075C70.1495 152.075 69.9128 152.025 69.7062 151.925C69.4995 151.825 69.3378 151.68 69.2212 151.49C69.1078 151.297 69.0512 151.068 69.0512 150.805C69.0512 150.542 69.1078 150.315 69.2212 150.125C69.3378 149.932 69.4995 149.783 69.7062 149.68C69.9162 149.577 70.1562 149.525 70.4262 149.525C70.7928 149.525 71.0862 149.597 71.3062 149.74V150.155C71.0895 150.005 70.8128 149.93 70.4762 149.93C70.2028 149.93 69.9812 150.005 69.8112 150.155C69.6445 150.302 69.5612 150.518 69.5612 150.805C69.5612 151.092 69.6445 151.308 69.8112 151.455C69.9778 151.602 70.1962 151.675 70.4662 151.675C70.8028 151.675 71.0928 151.595 71.3362 151.435V151.845C71.2195 151.925 71.0862 151.983 70.9362 152.02C70.7895 152.057 70.6162 152.075 70.4162 152.075ZM73.7211 152.075C73.4311 152.075 73.1978 152.002 73.0211 151.855C72.8478 151.705 72.7611 151.503 72.7611 151.25C72.7611 150.983 72.8445 150.778 73.0111 150.635C73.1811 150.488 73.4211 150.415 73.7311 150.415C74.0611 150.415 74.3411 150.482 74.5711 150.615V150.49C74.5711 150.3 74.5128 150.16 74.3961 150.07C74.2828 149.977 74.1028 149.93 73.8561 149.93C73.7095 149.93 73.5661 149.945 73.4261 149.975C73.2895 150.002 73.1661 150.04 73.0561 150.09V149.68C73.1561 149.633 73.2861 149.597 73.4461 149.57C73.6061 149.54 73.7611 149.525 73.9111 149.525C74.3078 149.525 74.6011 149.613 74.7911 149.79C74.9845 149.963 75.0811 150.205 75.0811 150.515V152H74.6061V151.73C74.5028 151.843 74.3795 151.93 74.2361 151.99C74.0961 152.047 73.9245 152.075 73.7211 152.075ZM73.8461 151.69C74.0061 151.69 74.1511 151.658 74.2811 151.595C74.4111 151.532 74.5078 151.443 74.5711 151.33V151.005C74.3545 150.865 74.1128 150.795 73.8461 150.795C73.6528 150.795 73.5078 150.833 73.4111 150.91C73.3178 150.983 73.2711 151.097 73.2711 151.25C73.2711 151.543 73.4628 151.69 73.8461 151.69ZM76.7078 149.6H77.1978V149.945C77.3111 149.802 77.4495 149.697 77.6128 149.63C77.7795 149.56 77.9528 149.525 78.1328 149.525C78.4528 149.525 78.6911 149.61 78.8478 149.78C79.0045 149.95 79.0828 150.178 79.0828 150.465V152H78.5778V150.515C78.5778 150.125 78.3911 149.93 78.0178 149.93C77.8578 149.93 77.7078 149.968 77.5678 150.045C77.4311 150.118 77.3128 150.232 77.2128 150.385V152H76.7078V149.6ZM83.5564 148.305H84.0614V149.93C84.2914 149.66 84.5981 149.525 84.9814 149.525C85.3014 149.525 85.5398 149.61 85.6964 149.78C85.8531 149.95 85.9314 150.178 85.9314 150.465V152H85.4264V150.515C85.4264 150.125 85.2398 149.93 84.8664 149.93C84.7064 149.93 84.5564 149.968 84.4164 150.045C84.2798 150.118 84.1614 150.232 84.0614 150.385V152H83.5564V148.305ZM88.7463 152.075C88.4763 152.075 88.2379 152.025 88.0313 151.925C87.8279 151.822 87.6679 151.675 87.5513 151.485C87.4379 151.292 87.3813 151.065 87.3813 150.805C87.3813 150.548 87.4379 150.323 87.5513 150.13C87.6646 149.937 87.8246 149.788 88.0313 149.685C88.2379 149.578 88.4763 149.525 88.7463 149.525C89.0163 149.525 89.2546 149.578 89.4613 149.685C89.6679 149.788 89.8279 149.937 89.9413 150.13C90.0579 150.323 90.1163 150.548 90.1163 150.805C90.1163 151.065 90.0579 151.292 89.9413 151.485C89.8279 151.675 89.6679 151.822 89.4613 151.925C89.2546 152.025 89.0163 152.075 88.7463 152.075ZM88.7463 151.675C89.0063 151.675 89.2129 151.595 89.3663 151.435C89.5196 151.275 89.5963 151.065 89.5963 150.805C89.5963 150.535 89.5196 150.322 89.3663 150.165C89.2129 150.008 89.0063 149.93 88.7463 149.93C88.4863 149.93 88.2796 150.008 88.1263 150.165C87.9729 150.322 87.8963 150.535 87.8963 150.805C87.8963 151.065 87.9729 151.275 88.1263 151.435C88.2796 151.595 88.4863 151.675 88.7463 151.675ZM91.6648 148.305H92.1698V152H91.6648V148.305ZM94.9821 152.075C94.7421 152.075 94.5254 152.023 94.3321 151.92C94.1421 151.813 93.9921 151.665 93.8821 151.475C93.7754 151.282 93.7221 151.058 93.7221 150.805C93.7221 150.555 93.7754 150.333 93.8821 150.14C93.9921 149.947 94.1421 149.797 94.3321 149.69C94.5254 149.58 94.7421 149.525 94.9821 149.525C95.4154 149.525 95.7437 149.657 95.9671 149.92V148.305H96.4721V152H95.9821V151.65C95.8487 151.797 95.7021 151.905 95.5421 151.975C95.3854 152.042 95.1987 152.075 94.9821 152.075ZM95.0971 151.675C95.3037 151.675 95.4837 151.622 95.6371 151.515C95.7937 151.405 95.9037 151.258 95.9671 151.075V150.535C95.9104 150.352 95.8021 150.205 95.6421 150.095C95.4854 149.985 95.3037 149.93 95.0971 149.93C94.9337 149.93 94.7854 149.967 94.6521 150.04C94.5221 150.113 94.4187 150.217 94.3421 150.35C94.2687 150.483 94.2321 150.635 94.2321 150.805C94.2321 150.975 94.2687 151.127 94.3421 151.26C94.4187 151.393 94.5221 151.497 94.6521 151.57C94.7854 151.64 94.9337 151.675 95.0971 151.675ZM100.973 149.6H101.453V149.945C101.567 149.805 101.695 149.7 101.838 149.63C101.982 149.56 102.13 149.525 102.283 149.525C102.477 149.525 102.63 149.558 102.743 149.625C102.857 149.688 102.94 149.787 102.993 149.92C103.1 149.79 103.23 149.692 103.383 149.625C103.54 149.558 103.697 149.525 103.853 149.525C104.147 149.525 104.358 149.6 104.488 149.75C104.618 149.897 104.683 150.115 104.683 150.405V152H104.193V150.47C104.193 150.273 104.157 150.135 104.083 150.055C104.01 149.972 103.885 149.93 103.708 149.93C103.455 149.93 103.248 150.04 103.088 150.26C103.095 150.31 103.098 150.392 103.098 150.505V152H102.608V150.47C102.608 150.273 102.575 150.135 102.508 150.055C102.442 149.972 102.322 149.93 102.148 149.93C101.895 149.93 101.668 150.073 101.468 150.36V152H100.973V149.6ZM107.264 152.075C106.941 152.075 106.696 151.988 106.529 151.815C106.366 151.642 106.284 151.41 106.284 151.12V149.6H106.789V151.1C106.789 151.483 106.981 151.675 107.364 151.675C107.701 151.675 107.964 151.523 108.154 151.22V149.6H108.659V152H108.169V151.66C108.056 151.803 107.921 151.908 107.764 151.975C107.611 152.042 107.444 152.075 107.264 152.075ZM110.307 148.305H110.812V152H110.307V148.305ZM113.39 152.075C113.146 152.075 112.958 152.005 112.825 151.865C112.695 151.725 112.63 151.527 112.63 151.27V149.99H112.265V149.6H112.63V148.88H113.14V149.6H113.73V149.99H113.14V151.235C113.14 151.395 113.17 151.508 113.23 151.575C113.293 151.642 113.406 151.675 113.57 151.675C113.666 151.675 113.763 151.653 113.86 151.61V152.01C113.733 152.053 113.576 152.075 113.39 152.075ZM115.63 149.13C115.546 149.13 115.476 149.102 115.42 149.045C115.363 148.988 115.335 148.918 115.335 148.835C115.335 148.752 115.363 148.682 115.42 148.625C115.476 148.568 115.546 148.54 115.63 148.54C115.716 148.54 115.788 148.568 115.845 148.625C115.905 148.682 115.935 148.752 115.935 148.835C115.935 148.918 115.905 148.988 115.845 149.045C115.788 149.102 115.716 149.13 115.63 149.13ZM115.375 149.6H115.89V152H115.375V149.6ZM117.585 149.6H118.075V149.955C118.321 149.668 118.655 149.525 119.075 149.525C119.315 149.525 119.53 149.578 119.72 149.685C119.913 149.792 120.063 149.942 120.17 150.135C120.28 150.325 120.335 150.547 120.335 150.8C120.335 151.05 120.28 151.272 120.17 151.465C120.063 151.658 119.915 151.808 119.725 151.915C119.535 152.022 119.318 152.075 119.075 152.075C118.875 152.075 118.688 152.042 118.515 151.975C118.341 151.908 118.2 151.81 118.09 151.68V153.095H117.585V149.6ZM118.96 151.675C119.123 151.675 119.27 151.64 119.4 151.57C119.533 151.497 119.636 151.393 119.71 151.26C119.786 151.127 119.825 150.973 119.825 150.8C119.825 150.627 119.786 150.475 119.71 150.345C119.636 150.212 119.533 150.11 119.4 150.04C119.27 149.967 119.123 149.93 118.96 149.93C118.756 149.93 118.576 149.983 118.42 150.09C118.266 150.197 118.156 150.343 118.09 150.53V151.07C118.146 151.253 118.255 151.4 118.415 151.51C118.575 151.62 118.756 151.675 118.96 151.675ZM121.886 148.305H122.391V152H121.886V148.305ZM125.363 152.075C124.919 152.075 124.571 151.965 124.318 151.745C124.068 151.522 123.943 151.208 123.943 150.805C123.943 150.412 124.054 150.1 124.278 149.87C124.504 149.64 124.826 149.525 125.243 149.525C125.519 149.525 125.754 149.578 125.948 149.685C126.141 149.788 126.286 149.933 126.383 150.12C126.483 150.303 126.533 150.513 126.533 150.75V151H124.423C124.439 151.227 124.534 151.397 124.708 151.51C124.884 151.62 125.123 151.675 125.423 151.675C125.576 151.675 125.731 151.662 125.888 151.635C126.044 151.605 126.183 151.567 126.303 151.52V151.925C126.196 151.968 126.054 152.003 125.878 152.03C125.704 152.06 125.533 152.075 125.363 152.075ZM126.058 150.645C126.051 150.418 125.976 150.243 125.833 150.12C125.693 149.993 125.493 149.93 125.233 149.93C124.979 149.93 124.783 149.995 124.643 150.125C124.503 150.255 124.429 150.428 124.423 150.645H126.058ZM17.225 157.6H17.74L18.28 159.38L18.815 157.6H19.27L19.805 159.38L20.345 157.6H20.865L20.085 160H19.6L19.045 158.21L18.49 160H18L17.225 157.6ZM23.0034 160.075C22.7134 160.075 22.48 160.002 22.3034 159.855C22.13 159.705 22.0434 159.503 22.0434 159.25C22.0434 158.983 22.1267 158.778 22.2934 158.635C22.4634 158.488 22.7034 158.415 23.0134 158.415C23.3434 158.415 23.6234 158.482 23.8534 158.615V158.49C23.8534 158.3 23.795 158.16 23.6784 158.07C23.565 157.977 23.385 157.93 23.1384 157.93C22.9917 157.93 22.8484 157.945 22.7084 157.975C22.5717 158.002 22.4484 158.04 22.3384 158.09V157.68C22.4384 157.633 22.5684 157.597 22.7284 157.57C22.8884 157.54 23.0434 157.525 23.1934 157.525C23.59 157.525 23.8834 157.613 24.0734 157.79C24.2667 157.963 24.3634 158.205 24.3634 158.515V160H23.8884V159.73C23.785 159.843 23.6617 159.93 23.5184 159.99C23.3784 160.047 23.2067 160.075 23.0034 160.075ZM23.1284 159.69C23.2884 159.69 23.4334 159.658 23.5634 159.595C23.6934 159.532 23.79 159.443 23.8534 159.33V159.005C23.6367 158.865 23.395 158.795 23.1284 158.795C22.935 158.795 22.79 158.833 22.6934 158.91C22.6 158.983 22.5534 159.097 22.5534 159.25C22.5534 159.543 22.745 159.69 23.1284 159.69ZM26.7881 160.075C26.5448 160.075 26.3564 160.005 26.2231 159.865C26.0931 159.725 26.0281 159.527 26.0281 159.27V157.99H25.6631V157.6H26.0281V156.88H26.5381V157.6H27.1281V157.99H26.5381V159.235C26.5381 159.395 26.5681 159.508 26.6281 159.575C26.6914 159.642 26.8048 159.675 26.9681 159.675C27.0648 159.675 27.1614 159.653 27.2581 159.61V160.01C27.1314 160.053 26.9748 160.075 26.7881 160.075ZM30.0532 160.075C29.6099 160.075 29.2615 159.965 29.0082 159.745C28.7582 159.522 28.6332 159.208 28.6332 158.805C28.6332 158.412 28.7449 158.1 28.9682 157.87C29.1949 157.64 29.5165 157.525 29.9332 157.525C30.2099 157.525 30.4449 157.578 30.6382 157.685C30.8315 157.788 30.9765 157.933 31.0732 158.12C31.1732 158.303 31.2232 158.513 31.2232 158.75V159H29.1132C29.1299 159.227 29.2249 159.397 29.3982 159.51C29.5749 159.62 29.8132 159.675 30.1132 159.675C30.2665 159.675 30.4215 159.662 30.5782 159.635C30.7349 159.605 30.8732 159.567 30.9932 159.52V159.925C30.8865 159.968 30.7449 160.003 30.5682 160.03C30.3949 160.06 30.2232 160.075 30.0532 160.075ZM30.7482 158.645C30.7415 158.418 30.6665 158.243 30.5232 158.12C30.3832 157.993 30.1832 157.93 29.9232 157.93C29.6699 157.93 29.4732 157.995 29.3332 158.125C29.1932 158.255 29.1199 158.428 29.1132 158.645H30.7482ZM32.7752 157.6H33.2652V158.03C33.3652 157.883 33.5052 157.775 33.6852 157.705C33.8685 157.635 34.0802 157.6 34.3202 157.6V157.995C34.0635 157.995 33.8435 158.037 33.6602 158.12C33.4769 158.203 33.3502 158.335 33.2802 158.515V160H32.7752V157.6ZM36.584 160.075C36.4174 160.075 36.2407 160.053 36.054 160.01C35.8674 159.97 35.7207 159.915 35.614 159.845V159.415C35.744 159.492 35.894 159.555 36.064 159.605C36.234 159.652 36.399 159.675 36.559 159.675C36.739 159.675 36.8707 159.653 36.954 159.61C37.0374 159.567 37.079 159.497 37.079 159.4C37.079 159.327 37.059 159.268 37.019 159.225C36.9824 159.178 36.9174 159.137 36.824 159.1C36.734 159.063 36.5974 159.02 36.414 158.97C36.2174 158.913 36.0607 158.857 35.944 158.8C35.8307 158.74 35.744 158.665 35.684 158.575C35.6274 158.485 35.599 158.368 35.599 158.225C35.599 157.995 35.689 157.822 35.869 157.705C36.0524 157.585 36.2974 157.525 36.604 157.525C36.764 157.525 36.9207 157.54 37.074 157.57C37.2274 157.6 37.3507 157.642 37.444 157.695V158.115C37.3474 158.058 37.2274 158.013 37.084 157.98C36.944 157.947 36.8007 157.93 36.654 157.93C36.4774 157.93 36.3424 157.952 36.249 157.995C36.1557 158.038 36.109 158.115 36.109 158.225C36.109 158.295 36.129 158.352 36.169 158.395C36.209 158.438 36.2724 158.477 36.359 158.51C36.449 158.54 36.5907 158.58 36.784 158.63C37.0874 158.713 37.2974 158.812 37.414 158.925C37.534 159.038 37.594 159.195 37.594 159.395C37.594 159.602 37.509 159.767 37.339 159.89C37.169 160.013 36.9174 160.075 36.584 160.075ZM39.2803 160C39.2136 160 39.157 159.978 39.1103 159.935C39.067 159.888 39.0453 159.832 39.0453 159.765C39.0453 159.698 39.067 159.642 39.1103 159.595C39.157 159.548 39.2136 159.525 39.2803 159.525C39.347 159.525 39.4036 159.548 39.4503 159.595C39.497 159.642 39.5203 159.698 39.5203 159.765C39.5203 159.832 39.497 159.888 39.4503 159.935C39.4036 159.978 39.347 160 39.2803 160ZM48.5193 160.075C48.1593 160.075 47.8393 160 47.5593 159.85C47.2793 159.7 47.061 159.488 46.9043 159.215C46.7477 158.938 46.6693 158.618 46.6693 158.255C46.6693 157.892 46.7477 157.572 46.9043 157.295C47.061 157.018 47.2793 156.805 47.5593 156.655C47.8393 156.505 48.1593 156.43 48.5193 156.43C48.9993 156.43 49.401 156.552 49.7243 156.795V157.285C49.4343 157.028 49.0477 156.9 48.5643 156.9C48.2943 156.9 48.0543 156.955 47.8443 157.065C47.6377 157.175 47.476 157.333 47.3593 157.54C47.2427 157.743 47.1843 157.982 47.1843 158.255C47.1843 158.528 47.2427 158.768 47.3593 158.975C47.4793 159.182 47.6427 159.34 47.8493 159.45C48.0593 159.56 48.2977 159.615 48.5643 159.615C48.811 159.615 49.031 159.583 49.2243 159.52C49.421 159.453 49.6027 159.348 49.7693 159.205V159.7C49.4693 159.95 49.0527 160.075 48.5193 160.075ZM52.4572 160.075C52.1872 160.075 51.9489 160.025 51.7422 159.925C51.5389 159.822 51.3789 159.675 51.2622 159.485C51.1489 159.292 51.0922 159.065 51.0922 158.805C51.0922 158.548 51.1489 158.323 51.2622 158.13C51.3755 157.937 51.5355 157.788 51.7422 157.685C51.9489 157.578 52.1872 157.525 52.4572 157.525C52.7272 157.525 52.9655 157.578 53.1722 157.685C53.3789 157.788 53.5389 157.937 53.6522 158.13C53.7689 158.323 53.8272 158.548 53.8272 158.805C53.8272 159.065 53.7689 159.292 53.6522 159.485C53.5389 159.675 53.3789 159.822 53.1722 159.925C52.9655 160.025 52.7272 160.075 52.4572 160.075ZM52.4572 159.675C52.7172 159.675 52.9239 159.595 53.0772 159.435C53.2305 159.275 53.3072 159.065 53.3072 158.805C53.3072 158.535 53.2305 158.322 53.0772 158.165C52.9239 158.008 52.7172 157.93 52.4572 157.93C52.1972 157.93 51.9905 158.008 51.8372 158.165C51.6839 158.322 51.6072 158.535 51.6072 158.805C51.6072 159.065 51.6839 159.275 51.8372 159.435C51.9905 159.595 52.1972 159.675 52.4572 159.675ZM56.3308 160.075C56.0074 160.075 55.7624 159.988 55.5958 159.815C55.4324 159.642 55.3508 159.41 55.3508 159.12V157.6H55.8558V159.1C55.8558 159.483 56.0474 159.675 56.4308 159.675C56.7674 159.675 57.0308 159.523 57.2208 159.22V157.6H57.7258V160H57.2358V159.66C57.1224 159.803 56.9874 159.908 56.8308 159.975C56.6774 160.042 56.5108 160.075 56.3308 160.075ZM59.3738 157.6H59.8638V157.945C59.9772 157.802 60.1155 157.697 60.2788 157.63C60.4455 157.56 60.6188 157.525 60.7988 157.525C61.1188 157.525 61.3572 157.61 61.5138 157.78C61.6705 157.95 61.7488 158.178 61.7488 158.465V160H61.2438V158.515C61.2438 158.125 61.0572 157.93 60.6838 157.93C60.5238 157.93 60.3738 157.968 60.2338 158.045C60.0972 158.118 59.9788 158.232 59.8788 158.385V160H59.3738V157.6ZM64.2969 160.075C64.0535 160.075 63.8652 160.005 63.7319 159.865C63.6019 159.725 63.5369 159.527 63.5369 159.27V157.99H63.1719V157.6H63.5369V156.88H64.0469V157.6H64.6369V157.99H64.0469V159.235C64.0469 159.395 64.0769 159.508 64.1369 159.575C64.2002 159.642 64.3135 159.675 64.4769 159.675C64.5735 159.675 64.6702 159.653 64.7669 159.61V160.01C64.6402 160.053 64.4835 160.075 64.2969 160.075ZM67.0293 160.075C66.8627 160.075 66.686 160.053 66.4993 160.01C66.3127 159.97 66.166 159.915 66.0593 159.845V159.415C66.1893 159.492 66.3393 159.555 66.5093 159.605C66.6793 159.652 66.8443 159.675 67.0043 159.675C67.1843 159.675 67.316 159.653 67.3993 159.61C67.4827 159.567 67.5243 159.497 67.5243 159.4C67.5243 159.327 67.5043 159.268 67.4643 159.225C67.4277 159.178 67.3627 159.137 67.2693 159.1C67.1793 159.063 67.0427 159.02 66.8593 158.97C66.6627 158.913 66.506 158.857 66.3893 158.8C66.276 158.74 66.1893 158.665 66.1293 158.575C66.0727 158.485 66.0443 158.368 66.0443 158.225C66.0443 157.995 66.1343 157.822 66.3143 157.705C66.4977 157.585 66.7427 157.525 67.0493 157.525C67.2093 157.525 67.366 157.54 67.5193 157.57C67.6727 157.6 67.796 157.642 67.8893 157.695V158.115C67.7927 158.058 67.6727 158.013 67.5293 157.98C67.3893 157.947 67.246 157.93 67.0993 157.93C66.9227 157.93 66.7877 157.952 66.6943 157.995C66.601 158.038 66.5543 158.115 66.5543 158.225C66.5543 158.295 66.5743 158.352 66.6143 158.395C66.6543 158.438 66.7177 158.477 66.8043 158.51C66.8943 158.54 67.036 158.58 67.2293 158.63C67.5327 158.713 67.7427 158.812 67.8593 158.925C67.9793 159.038 68.0393 159.195 68.0393 159.395C68.0393 159.602 67.9543 159.767 67.7843 159.89C67.6143 160.013 67.3627 160.075 67.0293 160.075ZM73.3012 160.075C73.0112 160.075 72.7779 160.002 72.6012 159.855C72.4279 159.705 72.3412 159.503 72.3412 159.25C72.3412 158.983 72.4245 158.778 72.5912 158.635C72.7612 158.488 73.0012 158.415 73.3112 158.415C73.6412 158.415 73.9212 158.482 74.1512 158.615V158.49C74.1512 158.3 74.0929 158.16 73.9762 158.07C73.8629 157.977 73.6829 157.93 73.4362 157.93C73.2895 157.93 73.1462 157.945 73.0062 157.975C72.8695 158.002 72.7462 158.04 72.6362 158.09V157.68C72.7362 157.633 72.8662 157.597 73.0262 157.57C73.1862 157.54 73.3412 157.525 73.4912 157.525C73.8879 157.525 74.1812 157.613 74.3712 157.79C74.5645 157.963 74.6612 158.205 74.6612 158.515V160H74.1862V159.73C74.0829 159.843 73.9595 159.93 73.8162 159.99C73.6762 160.047 73.5045 160.075 73.3012 160.075ZM73.4262 159.69C73.5862 159.69 73.7312 159.658 73.8612 159.595C73.9912 159.532 74.0879 159.443 74.1512 159.33V159.005C73.9345 158.865 73.6929 158.795 73.4262 158.795C73.2329 158.795 73.0879 158.833 72.9912 158.91C72.8979 158.983 72.8512 159.097 72.8512 159.25C72.8512 159.543 73.0429 159.69 73.4262 159.69ZM77.0996 160.075C76.933 160.075 76.7563 160.053 76.5696 160.01C76.383 159.97 76.2363 159.915 76.1296 159.845V159.415C76.2596 159.492 76.4096 159.555 76.5796 159.605C76.7496 159.652 76.9146 159.675 77.0746 159.675C77.2546 159.675 77.3863 159.653 77.4696 159.61C77.553 159.567 77.5946 159.497 77.5946 159.4C77.5946 159.327 77.5746 159.268 77.5346 159.225C77.498 159.178 77.433 159.137 77.3396 159.1C77.2496 159.063 77.113 159.02 76.9296 158.97C76.733 158.913 76.5763 158.857 76.4596 158.8C76.3463 158.74 76.2596 158.665 76.1996 158.575C76.143 158.485 76.1146 158.368 76.1146 158.225C76.1146 157.995 76.2046 157.822 76.3846 157.705C76.568 157.585 76.813 157.525 77.1196 157.525C77.2796 157.525 77.4363 157.54 77.5896 157.57C77.743 157.6 77.8663 157.642 77.9596 157.695V158.115C77.863 158.058 77.743 158.013 77.5996 157.98C77.4596 157.947 77.3163 157.93 77.1696 157.93C76.993 157.93 76.858 157.952 76.7646 157.995C76.6713 158.038 76.6246 158.115 76.6246 158.225C76.6246 158.295 76.6446 158.352 76.6846 158.395C76.7246 158.438 76.788 158.477 76.8746 158.51C76.9646 158.54 77.1063 158.58 77.2996 158.63C77.603 158.713 77.813 158.812 77.9296 158.925C78.0496 159.038 78.1096 159.195 78.1096 159.395C78.1096 159.602 78.0246 159.767 77.8546 159.89C77.6846 160.013 77.433 160.075 77.0996 160.075ZM82.6765 157.99H82.3115V157.6H82.6765V157.145C82.6765 156.868 82.7649 156.655 82.9415 156.505C83.1182 156.355 83.3382 156.28 83.6015 156.28C83.7349 156.28 83.8649 156.3 83.9915 156.34V156.75C83.8982 156.713 83.8015 156.695 83.7015 156.695C83.5315 156.695 83.4015 156.737 83.3115 156.82C83.2249 156.9 83.1815 157.018 83.1815 157.175V157.6H84.8015V160H84.2965V157.99H83.1815V160H82.6765V157.99ZM84.5465 157.13C84.4599 157.13 84.3882 157.102 84.3315 157.045C84.2749 156.988 84.2465 156.918 84.2465 156.835C84.2465 156.752 84.2749 156.682 84.3315 156.625C84.3915 156.568 84.4632 156.54 84.5465 156.54C84.6299 156.54 84.6999 156.568 84.7565 156.625C84.8165 156.682 84.8465 156.752 84.8465 156.835C84.8465 156.918 84.8165 156.988 84.7565 157.045C84.6999 157.102 84.6299 157.13 84.5465 157.13ZM86.3949 157.6H86.9299L87.6349 159.325L88.3399 157.6H88.8749L87.8549 160H87.4149L86.3949 157.6ZM91.5444 160.075C91.1011 160.075 90.7527 159.965 90.4994 159.745C90.2494 159.522 90.1244 159.208 90.1244 158.805C90.1244 158.412 90.2361 158.1 90.4594 157.87C90.6861 157.64 91.0077 157.525 91.4244 157.525C91.7011 157.525 91.9361 157.578 92.1294 157.685C92.3227 157.788 92.4677 157.933 92.5644 158.12C92.6644 158.303 92.7144 158.513 92.7144 158.75V159H90.6044C90.6211 159.227 90.7161 159.397 90.8894 159.51C91.0661 159.62 91.3044 159.675 91.6044 159.675C91.7577 159.675 91.9127 159.662 92.0694 159.635C92.2261 159.605 92.3644 159.567 92.4844 159.52V159.925C92.3777 159.968 92.2361 160.003 92.0594 160.03C91.8861 160.06 91.7144 160.075 91.5444 160.075ZM92.2394 158.645C92.2327 158.418 92.1577 158.243 92.0144 158.12C91.8744 157.993 91.6744 157.93 91.4144 157.93C91.1611 157.93 90.9644 157.995 90.8244 158.125C90.6844 158.255 90.6111 158.428 90.6044 158.645H92.2394ZM97.017 157.6H97.532L98.072 159.38L98.607 157.6H99.062L99.597 159.38L100.137 157.6H100.657L99.877 160H99.392L98.837 158.21L98.282 160H97.792L97.017 157.6ZM102.795 160.075C102.505 160.075 102.272 160.002 102.095 159.855C101.922 159.705 101.835 159.503 101.835 159.25C101.835 158.983 101.919 158.778 102.085 158.635C102.255 158.488 102.495 158.415 102.805 158.415C103.135 158.415 103.415 158.482 103.645 158.615V158.49C103.645 158.3 103.587 158.16 103.47 158.07C103.357 157.977 103.177 157.93 102.93 157.93C102.784 157.93 102.64 157.945 102.5 157.975C102.364 158.002 102.24 158.04 102.13 158.09V157.68C102.23 157.633 102.36 157.597 102.52 157.57C102.68 157.54 102.835 157.525 102.985 157.525C103.382 157.525 103.675 157.613 103.865 157.79C104.059 157.963 104.155 158.205 104.155 158.515V160H103.68V159.73C103.577 159.843 103.454 159.93 103.31 159.99C103.17 160.047 102.999 160.075 102.795 160.075ZM102.92 159.69C103.08 159.69 103.225 159.658 103.355 159.595C103.485 159.532 103.582 159.443 103.645 159.33V159.005C103.429 158.865 103.187 158.795 102.92 158.795C102.727 158.795 102.582 158.833 102.485 158.91C102.392 158.983 102.345 159.097 102.345 159.25C102.345 159.543 102.537 159.69 102.92 159.69ZM106.58 160.075C106.337 160.075 106.148 160.005 106.015 159.865C105.885 159.725 105.82 159.527 105.82 159.27V157.99H105.455V157.6H105.82V156.88H106.33V157.6H106.92V157.99H106.33V159.235C106.33 159.395 106.36 159.508 106.42 159.575C106.483 159.642 106.597 159.675 106.76 159.675C106.857 159.675 106.953 159.653 107.05 159.61V160.01C106.923 160.053 106.767 160.075 106.58 160.075ZM109.845 160.075C109.402 160.075 109.054 159.965 108.8 159.745C108.55 159.522 108.425 159.208 108.425 158.805C108.425 158.412 108.537 158.1 108.76 157.87C108.987 157.64 109.309 157.525 109.725 157.525C110.002 157.525 110.237 157.578 110.43 157.685C110.624 157.788 110.769 157.933 110.865 158.12C110.965 158.303 111.015 158.513 111.015 158.75V159H108.905C108.922 159.227 109.017 159.397 109.19 159.51C109.367 159.62 109.605 159.675 109.905 159.675C110.059 159.675 110.214 159.662 110.37 159.635C110.527 159.605 110.665 159.567 110.785 159.52V159.925C110.679 159.968 110.537 160.003 110.36 160.03C110.187 160.06 110.015 160.075 109.845 160.075ZM110.54 158.645C110.534 158.418 110.459 158.243 110.315 158.12C110.175 157.993 109.975 157.93 109.715 157.93C109.462 157.93 109.265 157.995 109.125 158.125C108.985 158.255 108.912 158.428 108.905 158.645H110.54ZM112.567 157.6H113.057V158.03C113.157 157.883 113.297 157.775 113.477 157.705C113.661 157.635 113.872 157.6 114.112 157.6V157.995C113.856 157.995 113.636 158.037 113.452 158.12C113.269 158.203 113.142 158.335 113.072 158.515V160H112.567V157.6ZM116.376 160.075C116.209 160.075 116.033 160.053 115.846 160.01C115.659 159.97 115.513 159.915 115.406 159.845V159.415C115.536 159.492 115.686 159.555 115.856 159.605C116.026 159.652 116.191 159.675 116.351 159.675C116.531 159.675 116.663 159.653 116.746 159.61C116.829 159.567 116.871 159.497 116.871 159.4C116.871 159.327 116.851 159.268 116.811 159.225C116.774 159.178 116.709 159.137 116.616 159.1C116.526 159.063 116.389 159.02 116.206 158.97C116.009 158.913 115.853 158.857 115.736 158.8C115.623 158.74 115.536 158.665 115.476 158.575C115.419 158.485 115.391 158.368 115.391 158.225C115.391 157.995 115.481 157.822 115.661 157.705C115.844 157.585 116.089 157.525 116.396 157.525C116.556 157.525 116.713 157.54 116.866 157.57C117.019 157.6 117.143 157.642 117.236 157.695V158.115C117.139 158.058 117.019 158.013 116.876 157.98C116.736 157.947 116.593 157.93 116.446 157.93C116.269 157.93 116.134 157.952 116.041 157.995C115.948 158.038 115.901 158.115 115.901 158.225C115.901 158.295 115.921 158.352 115.961 158.395C116.001 158.438 116.064 158.477 116.151 158.51C116.241 158.54 116.383 158.58 116.576 158.63C116.879 158.713 117.089 158.812 117.206 158.925C117.326 159.038 117.386 159.195 117.386 159.395C117.386 159.602 117.301 159.767 117.131 159.89C116.961 160.013 116.709 160.075 116.376 160.075ZM119.072 160C119.006 160 118.949 159.978 118.902 159.935C118.859 159.888 118.837 159.832 118.837 159.765C118.837 159.698 118.859 159.642 118.902 159.595C118.949 159.548 119.006 159.525 119.072 159.525C119.139 159.525 119.196 159.548 119.242 159.595C119.289 159.642 119.312 159.698 119.312 159.765C119.312 159.832 119.289 159.888 119.242 159.935C119.196 159.978 119.139 160 119.072 160Z" fill="black"/>
<rect x="12.25" y="143.25" width="125.5" height="46.5" stroke="#6C6C6C" stroke-width="0.5"/>
<path fill-rule="evenodd" clip-rule="evenodd" d="M68 67.5L68.7419 51.1395L71.0645 51.7209L68.7419 48.814L72.8065 51.1395L71.0645 47.6512L83.2581 43L85 48.814L74.5484 51.7209L75.7097 54.6279L72 52.5L74.1047 54.6279L73.9677 55.7907V67.5H68ZM43.8571 81L43 70L103 69L99.5714 78.5L43.8571 81ZM54 130.57L49 82.9065L97 81L95 132L54 130.57Z" fill="#B4B4B4"/>
<path d="M71.3619 97.9197L69.7614 95.8192L68.1609 92L65.9602 95.0553L63.7595 97.7287V101.357L66.1603 104.03L69.3612 103.648L71.962 101.166L71.3619 97.9197Z" fill="#0068C8"/>
<path d="M66.4937 99.6557L66.7671 97.4683H67.0405V99.6557H66.4937Z" fill="#D9D9D9"/>
<path d="M68.681 99.6557L68.4076 97.4683H68.1342V99.6557H68.681Z" fill="#D9D9D9"/>
<path d="M71.3619 97.9197L69.7614 95.8192L68.1609 92L65.9602 95.0553L63.7595 97.7287V101.357L66.1603 104.03L69.3612 103.648L71.962 101.166L71.3619 97.9197Z" fill="#0068C8"/>
<path d="M66.4937 99.6557L66.7671 97.4683H67.0405V99.6557H66.4937Z" fill="#D9D9D9"/>
<path d="M68.6811 99.6557L68.4077 97.4683H68.1343V99.6557H68.6811Z" fill="#D9D9D9"/>
<path d="M81.6403 97.9197L80.0398 95.8192L78.4393 92L76.2386 95.0553L74.038 97.7287V101.357L76.4387 104.03L79.6397 103.648L82.2405 101.166L81.6403 97.9197Z" fill="#0068C8"/>
<path d="M76.7722 99.6557L77.0456 97.4683H77.319V99.6557H76.7722Z" fill="#D9D9D9"/>
<path d="M78.9595 99.6557L78.6861 97.4683H78.4126V99.6557H78.9595Z" fill="#D9D9D9"/>
<path d="M81.6403 97.9197L80.0398 95.8192L78.4393 92L76.2386 95.0553L74.038 97.7287V101.357L76.4387 104.03L79.6397 103.648L82.2405 101.166L81.6403 97.9197Z" fill="#0068C8"/>
<path d="M76.7722 99.6557L77.0456 97.4683H77.319V99.6557H76.7722Z" fill="#D9D9D9"/>
<path d="M78.9595 99.6557L78.6861 97.4683H78.4126V99.6557H78.9595Z" fill="#D9D9D9"/>
<path d="M66.6023 108.702L65.0018 106.601L63.4014 102.782L61.2007 105.838L59 108.511V112.139L61.4007 114.813L64.6017 114.431L67.2025 111.948L66.6023 108.702Z" fill="#0068C8"/>
<path d="M61.7342 110.438L62.0076 108.251H62.281V110.438H61.7342Z" fill="#D9D9D9"/>
<path d="M63.9215 110.438L63.6481 108.251H63.3747V110.438H63.9215Z" fill="#D9D9D9"/>
<path d="M76.377 115.702L74.7765 113.601L73.176 109.782L70.9753 112.838L68.7747 115.511V119.139L71.1754 121.813L74.3764 121.431L76.9772 118.948L76.377 115.702Z" fill="#0068C8"/>
<path d="M71.5089 117.438L71.7823 115.251H72.0557V117.438H71.5089Z" fill="#D9D9D9"/>
<path d="M73.6962 117.438L73.4227 115.251H73.1493V117.438H73.6962Z" fill="#D9D9D9"/>
<path d="M86.3998 108.702L84.7993 106.601L83.1988 102.782L80.9981 105.838L78.7974 108.511V112.139L81.1982 114.813L84.3991 114.431L86.9999 111.948L86.3998 108.702Z" fill="#0068C8"/>
<path d="M81.5316 110.438L81.805 108.251H82.0785V110.438H81.5316Z" fill="#D9D9D9"/>
<path d="M83.7189 110.438L83.4455 108.251H83.1721V110.438H83.7189Z" fill="#D9D9D9"/>
<path d="M16.356 35.18C15.836 35.18 15.384 35.1 15 34.94C14.624 34.772 14.276 34.512 13.956 34.16V35H12.78V26.132H13.992V30.008C14.256 29.696 14.596 29.46 15.012 29.3C15.428 29.14 15.876 29.06 16.356 29.06C16.932 29.06 17.448 29.192 17.904 29.456C18.368 29.712 18.728 30.072 18.984 30.536C19.248 31 19.38 31.532 19.38 32.132C19.38 32.74 19.248 33.276 18.984 33.74C18.728 34.196 18.368 34.552 17.904 34.808C17.448 35.056 16.932 35.18 16.356 35.18ZM16.08 34.22C16.472 34.22 16.824 34.136 17.136 33.968C17.456 33.792 17.704 33.544 17.88 33.224C18.064 32.904 18.156 32.54 18.156 32.132C18.156 31.724 18.064 31.36 17.88 31.04C17.704 30.72 17.456 30.472 17.136 30.296C16.824 30.12 16.472 30.032 16.08 30.032C15.592 30.032 15.156 30.164 14.772 30.428C14.388 30.692 14.128 31.044 13.992 31.484V32.78C14.144 33.22 14.404 33.572 14.772 33.836C15.148 34.092 15.584 34.22 16.08 34.22ZM22.0099 28.112C21.8099 28.112 21.6419 28.044 21.5059 27.908C21.3699 27.772 21.3019 27.604 21.3019 27.404C21.3019 27.204 21.3699 27.036 21.5059 26.9C21.6419 26.764 21.8099 26.696 22.0099 26.696C22.2179 26.696 22.3899 26.764 22.5259 26.9C22.6699 27.036 22.7419 27.204 22.7419 27.404C22.7419 27.604 22.6699 27.772 22.5259 27.908C22.3899 28.044 22.2179 28.112 22.0099 28.112ZM21.3979 29.24H22.6339V35H21.3979V29.24ZM27.9139 37.76C27.5219 37.76 27.1379 37.728 26.7619 37.664C26.3939 37.6 26.0819 37.508 25.8259 37.388V36.392C26.4259 36.664 27.1219 36.8 27.9139 36.8C28.6579 36.8 29.1979 36.636 29.5339 36.308C29.8779 35.988 30.0499 35.5 30.0499 34.844V34.232C29.5219 34.864 28.7459 35.18 27.7219 35.18C27.1379 35.18 26.6139 35.052 26.1499 34.796C25.6859 34.54 25.3219 34.18 25.0579 33.716C24.7939 33.252 24.6619 32.72 24.6619 32.12C24.6619 31.512 24.7899 30.98 25.0459 30.524C25.3099 30.06 25.6699 29.7 26.1259 29.444C26.5899 29.188 27.1099 29.06 27.6859 29.06C28.2219 29.06 28.6739 29.14 29.0419 29.3C29.4179 29.452 29.7659 29.708 30.0859 30.068V29.24H31.2619V34.712C31.2619 35.696 30.9859 36.448 30.4339 36.968C29.8899 37.496 29.0499 37.76 27.9139 37.76ZM27.9619 34.22C28.4579 34.22 28.8939 34.088 29.2699 33.824C29.6539 33.56 29.9139 33.208 30.0499 32.768V31.472C29.8979 31.024 29.6339 30.672 29.2579 30.416C28.8899 30.16 28.4579 30.032 27.9619 30.032C27.5699 30.032 27.2139 30.12 26.8939 30.296C26.5819 30.464 26.3339 30.708 26.1499 31.028C25.9739 31.348 25.8859 31.712 25.8859 32.12C25.8859 32.536 25.9739 32.904 26.1499 33.224C26.3339 33.536 26.5819 33.78 26.8939 33.956C27.2139 34.132 27.5699 34.22 27.9619 34.22ZM36.4357 37.76C36.0437 37.76 35.6597 37.728 35.2837 37.664C34.9157 37.6 34.6037 37.508 34.3477 37.388V36.392C34.9477 36.664 35.6437 36.8 36.4357 36.8C37.1797 36.8 37.7197 36.636 38.0557 36.308C38.3997 35.988 38.5717 35.5 38.5717 34.844V34.232C38.0437 34.864 37.2677 35.18 36.2437 35.18C35.6597 35.18 35.1357 35.052 34.6717 34.796C34.2077 34.54 33.8437 34.18 33.5797 33.716C33.3157 33.252 33.1837 32.72 33.1837 32.12C33.1837 31.512 33.3117 30.98 33.5677 30.524C33.8317 30.06 34.1917 29.7 34.6477 29.444C35.1117 29.188 35.6317 29.06 36.2077 29.06C36.7437 29.06 37.1957 29.14 37.5637 29.3C37.9397 29.452 38.2877 29.708 38.6077 30.068V29.24H39.7837V34.712C39.7837 35.696 39.5077 36.448 38.9557 36.968C38.4117 37.496 37.5717 37.76 36.4357 37.76ZM36.4837 34.22C36.9797 34.22 37.4157 34.088 37.7917 33.824C38.1757 33.56 38.4357 33.208 38.5717 32.768V31.472C38.4197 31.024 38.1557 30.672 37.7797 30.416C37.4117 30.16 36.9797 30.032 36.4837 30.032C36.0917 30.032 35.7357 30.12 35.4157 30.296C35.1037 30.464 34.8557 30.708 34.6717 31.028C34.4957 31.348 34.4077 31.712 34.4077 32.12C34.4077 32.536 34.4957 32.904 34.6717 33.224C34.8557 33.536 35.1037 33.78 35.4157 33.956C35.7357 34.132 36.0917 34.22 36.4837 34.22ZM45.1136 35.18C44.0496 35.18 43.2136 34.916 42.6056 34.388C42.0056 33.852 41.7056 33.1 41.7056 32.132C41.7056 31.188 41.9736 30.44 42.5096 29.888C43.0536 29.336 43.8256 29.06 44.8256 29.06C45.4896 29.06 46.0536 29.188 46.5176 29.444C46.9816 29.692 47.3296 30.04 47.5616 30.488C47.8016 30.928 47.9216 31.432 47.9216 32V32.6H42.8576C42.8976 33.144 43.1256 33.552 43.5416 33.824C43.9656 34.088 44.5376 34.22 45.2576 34.22C45.6256 34.22 45.9976 34.188 46.3736 34.124C46.7496 34.052 47.0816 33.96 47.3696 33.848V34.82C47.1136 34.924 46.7736 35.008 46.3496 35.072C45.9336 35.144 45.5216 35.18 45.1136 35.18ZM46.7816 31.748C46.7656 31.204 46.5856 30.784 46.2416 30.488C45.9056 30.184 45.4256 30.032 44.8016 30.032C44.1936 30.032 43.7216 30.188 43.3856 30.5C43.0496 30.812 42.8736 31.228 42.8576 31.748H46.7816ZM49.8464 29.24H51.0224V30.272C51.2624 29.92 51.5984 29.66 52.0304 29.492C52.4704 29.324 52.9784 29.24 53.5544 29.24V30.188C52.9384 30.188 52.4104 30.288 51.9704 30.488C51.5304 30.688 51.2264 31.004 51.0584 31.436V35H49.8464V29.24ZM60.0408 29.24H61.2768L62.5728 33.512L63.8568 29.24H64.9488L66.2328 33.512L67.5288 29.24H68.7768L66.9048 35H65.7408L64.4088 30.704L63.0768 35H61.9008L60.0408 29.24ZM72.1088 35.18C71.4128 35.18 70.8528 35.004 70.4288 34.652C70.0128 34.292 69.8048 33.808 69.8048 33.2C69.8048 32.56 70.0048 32.068 70.4048 31.724C70.8128 31.372 71.3888 31.196 72.1328 31.196C72.9248 31.196 73.5968 31.356 74.1488 31.676V31.376C74.1488 30.92 74.0088 30.584 73.7288 30.368C73.4568 30.144 73.0248 30.032 72.4328 30.032C72.0808 30.032 71.7368 30.068 71.4008 30.14C71.0728 30.204 70.7768 30.296 70.5128 30.416V29.432C70.7528 29.32 71.0648 29.232 71.4488 29.168C71.8328 29.096 72.2048 29.06 72.5648 29.06C73.5168 29.06 74.2208 29.272 74.6768 29.696C75.1408 30.112 75.3728 30.692 75.3728 31.436V35H74.2328V34.352C73.9848 34.624 73.6888 34.832 73.3448 34.976C73.0088 35.112 72.5968 35.18 72.1088 35.18ZM72.4088 34.256C72.7928 34.256 73.1408 34.18 73.4528 34.028C73.7648 33.876 73.9968 33.664 74.1488 33.392V32.612C73.6288 32.276 73.0488 32.108 72.4088 32.108C71.9448 32.108 71.5968 32.2 71.3648 32.384C71.1408 32.56 71.0288 32.832 71.0288 33.2C71.0288 33.904 71.4888 34.256 72.4088 34.256ZM79.3922 35.18C78.8082 35.18 78.3562 35.012 78.0362 34.676C77.7242 34.34 77.5682 33.864 77.5682 33.248V30.176H76.6922V29.24H77.5682V27.512H78.7922V29.24H80.2082V30.176H78.7922V33.164C78.7922 33.548 78.8642 33.82 79.0082 33.98C79.1602 34.14 79.4322 34.22 79.8242 34.22C80.0562 34.22 80.2882 34.168 80.5202 34.064V35.024C80.2162 35.128 79.8402 35.18 79.3922 35.18ZM85.4285 35.18C84.3645 35.18 83.5285 34.916 82.9205 34.388C82.3205 33.852 82.0205 33.1 82.0205 32.132C82.0205 31.188 82.2885 30.44 82.8245 29.888C83.3685 29.336 84.1405 29.06 85.1405 29.06C85.8045 29.06 86.3685 29.188 86.8325 29.444C87.2965 29.692 87.6445 30.04 87.8765 30.488C88.1165 30.928 88.2365 31.432 88.2365 32V32.6H83.1725C83.2125 33.144 83.4405 33.552 83.8565 33.824C84.2805 34.088 84.8525 34.22 85.5725 34.22C85.9405 34.22 86.3125 34.188 86.6885 34.124C87.0645 34.052 87.3965 33.96 87.6845 33.848V34.82C87.4285 34.924 87.0885 35.008 86.6645 35.072C86.2485 35.144 85.8365 35.18 85.4285 35.18ZM87.0965 31.748C87.0805 31.204 86.9005 30.784 86.5565 30.488C86.2205 30.184 85.7405 30.032 85.1165 30.032C84.5085 30.032 84.0365 30.188 83.7005 30.5C83.3645 30.812 83.1885 31.228 83.1725 31.748H87.0965ZM90.1612 29.24H91.3372V30.272C91.5772 29.92 91.9132 29.66 92.3452 29.492C92.7852 29.324 93.2932 29.24 93.8692 29.24V30.188C93.2532 30.188 92.7252 30.288 92.2852 30.488C91.8452 30.688 91.5412 31.004 91.3732 31.436V35H90.1612V29.24ZM104.172 35.18C103.652 35.18 103.2 35.1 102.816 34.94C102.44 34.772 102.092 34.512 101.772 34.16V35H100.596V26.132H101.808V30.008C102.072 29.696 102.412 29.46 102.828 29.3C103.244 29.14 103.692 29.06 104.172 29.06C104.748 29.06 105.264 29.192 105.72 29.456C106.184 29.712 106.544 30.072 106.8 30.536C107.064 31 107.196 31.532 107.196 32.132C107.196 32.74 107.064 33.276 106.8 33.74C106.544 34.196 106.184 34.552 105.72 34.808C105.264 35.056 104.748 35.18 104.172 35.18ZM103.896 34.22C104.288 34.22 104.64 34.136 104.952 33.968C105.272 33.792 105.52 33.544 105.696 33.224C105.88 32.904 105.972 32.54 105.972 32.132C105.972 31.724 105.88 31.36 105.696 31.04C105.52 30.72 105.272 30.472 104.952 30.296C104.64 30.12 104.288 30.032 103.896 30.032C103.408 30.032 102.972 30.164 102.588 30.428C102.204 30.692 101.944 31.044 101.808 31.484V32.78C101.96 33.22 102.22 33.572 102.588 33.836C102.964 34.092 103.4 34.22 103.896 34.22ZM111.849 35.18C111.201 35.18 110.629 35.06 110.133 34.82C109.645 34.572 109.261 34.22 108.981 33.764C108.709 33.3 108.573 32.756 108.573 32.132C108.573 31.516 108.709 30.976 108.981 30.512C109.253 30.048 109.637 29.692 110.133 29.444C110.629 29.188 111.201 29.06 111.849 29.06C112.497 29.06 113.069 29.188 113.565 29.444C114.061 29.692 114.445 30.048 114.717 30.512C114.997 30.976 115.137 31.516 115.137 32.132C115.137 32.756 114.997 33.3 114.717 33.764C114.445 34.22 114.061 34.572 113.565 34.82C113.069 35.06 112.497 35.18 111.849 35.18ZM111.849 34.22C112.473 34.22 112.969 34.028 113.337 33.644C113.705 33.26 113.889 32.756 113.889 32.132C113.889 31.484 113.705 30.972 113.337 30.596C112.969 30.22 112.473 30.032 111.849 30.032C111.225 30.032 110.729 30.22 110.361 30.596C109.993 30.972 109.809 31.484 109.809 32.132C109.809 32.756 109.993 33.26 110.361 33.644C110.729 34.028 111.225 34.22 111.849 34.22ZM119.098 35.18C118.514 35.18 118.062 35.012 117.742 34.676C117.43 34.34 117.274 33.864 117.274 33.248V30.176H116.398V29.24H117.274V27.512H118.498V29.24H119.914V30.176H118.498V33.164C118.498 33.548 118.57 33.82 118.714 33.98C118.866 34.14 119.138 34.22 119.53 34.22C119.762 34.22 119.994 34.168 120.226 34.064V35.024C119.922 35.128 119.546 35.18 119.098 35.18ZM123.881 35.18C123.297 35.18 122.845 35.012 122.525 34.676C122.213 34.34 122.057 33.864 122.057 33.248V30.176H121.181V29.24H122.057V27.512H123.281V29.24H124.697V30.176H123.281V33.164C123.281 33.548 123.353 33.82 123.497 33.98C123.649 34.14 123.921 34.22 124.313 34.22C124.545 34.22 124.777 34.168 125.009 34.064V35.024C124.705 35.128 124.329 35.18 123.881 35.18ZM126.75 26.132H127.962V35H126.75V26.132ZM133.295 35.18C132.231 35.18 131.395 34.916 130.787 34.388C130.187 33.852 129.887 33.1 129.887 32.132C129.887 31.188 130.155 30.44 130.691 29.888C131.235 29.336 132.007 29.06 133.007 29.06C133.671 29.06 134.235 29.188 134.699 29.444C135.163 29.692 135.511 30.04 135.743 30.488C135.983 30.928 136.103 31.432 136.103 32V32.6H131.039C131.079 33.144 131.307 33.552 131.723 33.824C132.147 34.088 132.719 34.22 133.439 34.22C133.807 34.22 134.179 34.188 134.555 34.124C134.931 34.052 135.263 33.96 135.551 33.848V34.82C135.295 34.924 134.955 35.008 134.531 35.072C134.115 35.144 133.703 35.18 133.295 35.18ZM134.963 31.748C134.947 31.204 134.767 30.784 134.423 30.488C134.087 30.184 133.607 30.032 132.983 30.032C132.375 30.032 131.903 30.188 131.567 30.5C131.231 30.812 131.055 31.228 131.039 31.748H134.963Z" fill="black"/>
<path d="M12.8691 19.0381L17.1807 17.1875V16.4746L12.8691 14.6289V15.5615L16.0283 16.7334L16.3213 16.8262L16.0283 16.9092L12.8691 18.1006V19.0381ZM20.875 19.0381L25.1865 17.1875V16.4746L20.875 14.6289V15.5615L24.0342 16.7334L24.3271 16.8262L24.0342 16.9092L20.875 18.1006V19.0381ZM37.375 20H38.0879L38.9033 16.7627L39.0352 15.9424L39.1719 16.7627L39.9971 20H40.71L41.833 14.7168H41.0322L40.4463 18.0859L40.3145 18.916L40.1729 18.0859L39.333 14.7168H38.752L37.9072 18.0859L37.7754 18.8428L37.668 18.0859L37.0527 14.7168H36.252L37.375 20ZM48.3447 20H49.2871V19.9219C49.2285 19.7754 49.1829 19.6045 49.1504 19.4092C49.1178 19.2106 49.1016 19.0234 49.1016 18.8477V16.3916C49.1016 16.0954 49.0479 15.8366 48.9404 15.6152C48.833 15.3939 48.6865 15.2083 48.501 15.0586C48.3122 14.9121 48.0892 14.8031 47.832 14.7314C47.5749 14.6566 47.2965 14.6191 46.9971 14.6191C46.6683 14.6191 46.3737 14.6647 46.1133 14.7559C45.8561 14.847 45.638 14.9658 45.459 15.1123C45.2767 15.262 45.1367 15.4297 45.0391 15.6152C44.9447 15.8008 44.8958 15.9896 44.8926 16.1816H45.8008C45.8008 16.071 45.8268 15.9652 45.8789 15.8643C45.9342 15.7601 46.0107 15.6706 46.1084 15.5957C46.2061 15.5208 46.3249 15.4606 46.4648 15.415C46.6081 15.3695 46.7692 15.3467 46.9482 15.3467C47.1403 15.3467 47.3128 15.3711 47.4658 15.4199C47.6221 15.4688 47.7539 15.5371 47.8613 15.625C47.9688 15.7161 48.0518 15.8252 48.1104 15.9521C48.1689 16.0791 48.1982 16.2223 48.1982 16.3818V16.7969H47.2119C46.8441 16.7969 46.5104 16.8327 46.2109 16.9043C45.9147 16.9759 45.6608 17.0833 45.4492 17.2266C45.2376 17.373 45.0732 17.5553 44.9561 17.7734C44.8421 17.9915 44.7852 18.2454 44.7852 18.5352C44.7852 18.7565 44.8275 18.9632 44.9121 19.1553C45 19.3441 45.1237 19.5068 45.2832 19.6436C45.4395 19.7835 45.6299 19.8942 45.8545 19.9756C46.0824 20.057 46.3363 20.0977 46.6162 20.0977C46.7887 20.0977 46.9515 20.0798 47.1045 20.0439C47.2575 20.0081 47.4023 19.9593 47.5391 19.8975C47.6725 19.8356 47.7946 19.764 47.9053 19.6826C48.0192 19.6012 48.1217 19.515 48.2129 19.4238C48.2227 19.5345 48.2373 19.6419 48.2568 19.7461C48.2796 19.847 48.3089 19.9316 48.3447 20ZM46.748 19.3115C46.5723 19.3115 46.4176 19.2887 46.2842 19.2432C46.1507 19.1976 46.04 19.1341 45.9521 19.0527C45.8643 18.9746 45.7975 18.8802 45.752 18.7695C45.7096 18.6589 45.6885 18.5384 45.6885 18.4082C45.6885 18.2715 45.7129 18.1494 45.7617 18.042C45.8138 17.9346 45.8887 17.8418 45.9863 17.7637C46.123 17.653 46.307 17.5716 46.5381 17.5195C46.7725 17.4642 47.0459 17.4365 47.3584 17.4365H48.1982V18.5059C48.1462 18.61 48.0745 18.7109 47.9834 18.8086C47.8923 18.903 47.7848 18.9876 47.6611 19.0625C47.5342 19.1374 47.3942 19.1976 47.2412 19.2432C47.0882 19.2887 46.9238 19.3115 46.748 19.3115ZM55.0176 13.4375H54.1094V14.7168H52.7227V15.415H54.1094V18.2861C54.1094 18.6117 54.1517 18.89 54.2363 19.1211C54.3242 19.349 54.443 19.5345 54.5928 19.6777C54.7425 19.8242 54.9183 19.9316 55.1201 20C55.3252 20.0651 55.5449 20.0977 55.7793 20.0977C55.9193 20.0977 56.0592 20.0911 56.1992 20.0781C56.3424 20.0651 56.4775 20.0456 56.6045 20.0195C56.7314 19.9967 56.8486 19.9691 56.9561 19.9365C57.0635 19.9007 57.1546 19.86 57.2295 19.8145L57.1025 19.1748C57.0472 19.1878 56.9756 19.2041 56.8877 19.2236C56.8031 19.2399 56.7119 19.2562 56.6143 19.2725C56.5133 19.2887 56.4108 19.3034 56.3066 19.3164C56.2025 19.3262 56.1016 19.3311 56.0039 19.3311C55.8704 19.3311 55.7435 19.3148 55.623 19.2822C55.5059 19.2497 55.4017 19.1927 55.3105 19.1113C55.2194 19.0332 55.1478 18.9274 55.0957 18.7939C55.0436 18.6605 55.0176 18.4912 55.0176 18.2861V15.415H57.0293V14.7168H55.0176V13.4375ZM63.2188 20.0977C63.7331 20.0977 64.1644 19.9951 64.5127 19.79C64.8643 19.5817 65.1279 19.3441 65.3037 19.0771L64.752 18.6475C64.5859 18.8623 64.3776 19.0348 64.127 19.165C63.8763 19.2952 63.5898 19.3604 63.2676 19.3604C63.0234 19.3604 62.8005 19.3148 62.5986 19.2236C62.3968 19.1325 62.2243 19.0072 62.0811 18.8477C61.9411 18.6979 61.8304 18.5254 61.749 18.3301C61.6709 18.1348 61.6204 17.9085 61.5977 17.6514V17.6172H65.3721V17.2119C65.3721 16.8441 65.3249 16.5023 65.2305 16.1865C65.1393 15.8708 64.9993 15.5957 64.8105 15.3613C64.6217 15.1302 64.3841 14.9495 64.0977 14.8193C63.8145 14.6859 63.4824 14.6191 63.1016 14.6191C62.7988 14.6191 62.5026 14.681 62.2129 14.8047C61.9264 14.9284 61.6709 15.1058 61.4463 15.3369C61.2184 15.5713 61.0361 15.8577 60.8994 16.1963C60.7627 16.5316 60.6943 16.9124 60.6943 17.3389V17.5439C60.6943 17.9118 60.7562 18.252 60.8799 18.5645C61.0036 18.877 61.1761 19.1471 61.3975 19.375C61.6188 19.6029 61.8841 19.7803 62.1934 19.9072C62.5059 20.0342 62.8477 20.0977 63.2188 20.0977ZM63.1016 15.3613C63.3327 15.3613 63.5312 15.4036 63.6973 15.4883C63.8665 15.5729 64.0065 15.6836 64.1172 15.8203C64.2279 15.957 64.3141 16.1198 64.376 16.3086C64.4378 16.4941 64.4688 16.6683 64.4688 16.8311V16.875H61.627C61.6628 16.6309 61.7246 16.416 61.8125 16.2305C61.9036 16.0417 62.0143 15.8822 62.1445 15.752C62.2747 15.625 62.4212 15.529 62.584 15.4639C62.7467 15.3955 62.9193 15.3613 63.1016 15.3613ZM72.3525 14.6191C71.9684 14.6191 71.625 14.7038 71.3223 14.873C71.0228 15.0391 70.7656 15.2669 70.5508 15.5566L70.5459 15.4248L70.5068 14.7168H69.6475V20H70.5557V16.6113C70.6143 16.4486 70.6875 16.3021 70.7754 16.1719C70.8665 16.0384 70.9723 15.9261 71.0928 15.835C71.2262 15.7308 71.3825 15.6527 71.5615 15.6006C71.7406 15.5452 71.9408 15.5176 72.1621 15.5176C72.3346 15.5176 72.499 15.5273 72.6553 15.5469C72.8148 15.5632 72.9824 15.5908 73.1582 15.6299L73.2803 14.7461C73.1891 14.707 73.0524 14.6761 72.8701 14.6533C72.6911 14.6305 72.5186 14.6191 72.3525 14.6191Z" fill="#707070"/>
</svg>
