<svg width="150" height="200" viewBox="0 0 150 200" fill="none" xmlns="http://www.w3.org/2000/svg">
<rect width="150" height="200" fill="white"/>
<path d="M17.225 148.505H17.755L18.535 151.16L19.305 148.505H19.705L20.47 151.16L21.25 148.505H21.78L20.76 152H20.275L19.5 149.36L18.73 152H18.245L17.225 148.505ZM23.8139 152.075C23.5239 152.075 23.2906 152.002 23.1139 151.855C22.9406 151.705 22.8539 151.503 22.8539 151.25C22.8539 150.983 22.9372 150.778 23.1039 150.635C23.2739 150.488 23.5139 150.415 23.8239 150.415C24.1539 150.415 24.4339 150.482 24.6639 150.615V150.49C24.6639 150.3 24.6056 150.16 24.4889 150.07C24.3756 149.977 24.1956 149.93 23.9489 149.93C23.8022 149.93 23.6589 149.945 23.5189 149.975C23.3822 150.002 23.2589 150.04 23.1489 150.09V149.68C23.2489 149.633 23.3789 149.597 23.5389 149.57C23.6989 149.54 23.8539 149.525 24.0039 149.525C24.4006 149.525 24.6939 149.613 24.8839 149.79C25.0772 149.963 25.1739 150.205 25.1739 150.515V152H24.6989V151.73C24.5956 151.843 24.4722 151.93 24.3289 151.99C24.1889 152.047 24.0172 152.075 23.8139 152.075ZM23.9389 151.69C24.0989 151.69 24.2439 151.658 24.3739 151.595C24.5039 151.532 24.6006 151.443 24.6639 151.33V151.005C24.4472 150.865 24.2056 150.795 23.9389 150.795C23.7456 150.795 23.6006 150.833 23.5039 150.91C23.4106 150.983 23.3639 151.097 23.3639 151.25C23.3639 151.543 23.5556 151.69 23.9389 151.69ZM27.5986 152.075C27.3553 152.075 27.167 152.005 27.0336 151.865C26.9036 151.725 26.8386 151.527 26.8386 151.27V149.99H26.4736V149.6H26.8386V148.88H27.3486V149.6H27.9386V149.99H27.3486V151.235C27.3486 151.395 27.3786 151.508 27.4386 151.575C27.502 151.642 27.6153 151.675 27.7786 151.675C27.8753 151.675 27.972 151.653 28.0686 151.61V152.01C27.942 152.053 27.7853 152.075 27.5986 152.075ZM30.8638 152.075C30.4204 152.075 30.0721 151.965 29.8188 151.745C29.5688 151.522 29.4438 151.208 29.4438 150.805C29.4438 150.412 29.5554 150.1 29.7788 149.87C30.0054 149.64 30.3271 149.525 30.7438 149.525C31.0204 149.525 31.2554 149.578 31.4488 149.685C31.6421 149.788 31.7871 149.933 31.8838 150.12C31.9838 150.303 32.0338 150.513 32.0338 150.75V151H29.9238C29.9404 151.227 30.0354 151.397 30.2088 151.51C30.3854 151.62 30.6238 151.675 30.9238 151.675C31.0771 151.675 31.2321 151.662 31.3888 151.635C31.5454 151.605 31.6838 151.567 31.8038 151.52V151.925C31.6971 151.968 31.5554 152.003 31.3788 152.03C31.2054 152.06 31.0338 152.075 30.8638 152.075ZM31.5588 150.645C31.5521 150.418 31.4771 150.243 31.3338 150.12C31.1938 149.993 30.9938 149.93 30.7338 149.93C30.4804 149.93 30.2838 149.995 30.1438 150.125C30.0038 150.255 29.9304 150.428 29.9238 150.645H31.5588ZM33.5857 149.6H34.0757V150.03C34.1757 149.883 34.3157 149.775 34.4957 149.705C34.6791 149.635 34.8907 149.6 35.1307 149.6V149.995C34.8741 149.995 34.6541 150.037 34.4707 150.12C34.2874 150.203 34.1607 150.335 34.0907 150.515V152H33.5857V149.6ZM40.7534 152.075C40.3101 152.075 39.9617 151.965 39.7084 151.745C39.4584 151.522 39.3334 151.208 39.3334 150.805C39.3334 150.412 39.4451 150.1 39.6684 149.87C39.8951 149.64 40.2167 149.525 40.6334 149.525C40.9101 149.525 41.1451 149.578 41.3384 149.685C41.5317 149.788 41.6767 149.933 41.7734 150.12C41.8734 150.303 41.9234 150.513 41.9234 150.75V151H39.8134C39.8301 151.227 39.9251 151.397 40.0984 151.51C40.2751 151.62 40.5134 151.675 40.8134 151.675C40.9667 151.675 41.1217 151.662 41.2784 151.635C41.4351 151.605 41.5734 151.567 41.6934 151.52V151.925C41.5867 151.968 41.4451 152.003 41.2684 152.03C41.0951 152.06 40.9234 152.075 40.7534 152.075ZM41.4484 150.645C41.4417 150.418 41.3667 150.243 41.2234 150.12C41.0834 149.993 40.8834 149.93 40.6234 149.93C40.3701 149.93 40.1734 149.995 40.0334 150.125C39.8934 150.255 39.8201 150.428 39.8134 150.645H41.4484ZM44.3077 150.745L43.3677 149.6H43.9427L44.5927 150.395L45.2477 149.6H45.8227L44.8827 150.745L45.9127 152H45.3427L44.5927 151.095L43.8477 152H43.2777L44.3077 150.745ZM47.4637 149.6H47.9537V149.955C48.2003 149.668 48.5337 149.525 48.9537 149.525C49.1937 149.525 49.4087 149.578 49.5987 149.685C49.792 149.792 49.942 149.942 50.0487 150.135C50.1587 150.325 50.2137 150.547 50.2137 150.8C50.2137 151.05 50.1587 151.272 50.0487 151.465C49.942 151.658 49.7937 151.808 49.6037 151.915C49.4137 152.022 49.197 152.075 48.9537 152.075C48.7537 152.075 48.567 152.042 48.3937 151.975C48.2203 151.908 48.0787 151.81 47.9687 151.68V153.095H47.4637V149.6ZM48.8387 151.675C49.002 151.675 49.1487 151.64 49.2787 151.57C49.412 151.497 49.5153 151.393 49.5887 151.26C49.6653 151.127 49.7037 150.973 49.7037 150.8C49.7037 150.627 49.6653 150.475 49.5887 150.345C49.5153 150.212 49.412 150.11 49.2787 150.04C49.1487 149.967 49.002 149.93 48.8387 149.93C48.6353 149.93 48.4553 149.983 48.2987 150.09C48.1453 150.197 48.0353 150.343 47.9687 150.53V151.07C48.0253 151.253 48.1337 151.4 48.2937 151.51C48.4537 151.62 48.6353 151.675 48.8387 151.675ZM52.4975 152.075C52.2075 152.075 51.9742 152.002 51.7975 151.855C51.6242 151.705 51.5375 151.503 51.5375 151.25C51.5375 150.983 51.6208 150.778 51.7875 150.635C51.9575 150.488 52.1975 150.415 52.5075 150.415C52.8375 150.415 53.1175 150.482 53.3475 150.615V150.49C53.3475 150.3 53.2892 150.16 53.1725 150.07C53.0592 149.977 52.8792 149.93 52.6325 149.93C52.4858 149.93 52.3425 149.945 52.2025 149.975C52.0658 150.002 51.9425 150.04 51.8325 150.09V149.68C51.9325 149.633 52.0625 149.597 52.2225 149.57C52.3825 149.54 52.5375 149.525 52.6875 149.525C53.0842 149.525 53.3775 149.613 53.5675 149.79C53.7608 149.963 53.8575 150.205 53.8575 150.515V152H53.3825V151.73C53.2792 151.843 53.1558 151.93 53.0125 151.99C52.8725 152.047 52.7008 152.075 52.4975 152.075ZM52.6225 151.69C52.7825 151.69 52.9275 151.658 53.0575 151.595C53.1875 151.532 53.2842 151.443 53.3475 151.33V151.005C53.1308 150.865 52.8892 150.795 52.6225 150.795C52.4292 150.795 52.2842 150.833 52.1875 150.91C52.0942 150.983 52.0475 151.097 52.0475 151.25C52.0475 151.543 52.2392 151.69 52.6225 151.69ZM55.4842 149.6H55.9742V149.945C56.0875 149.802 56.2258 149.697 56.3892 149.63C56.5558 149.56 56.7292 149.525 56.9092 149.525C57.2292 149.525 57.4675 149.61 57.6242 149.78C57.7808 149.95 57.8592 150.178 57.8592 150.465V152H57.3542V150.515C57.3542 150.125 57.1675 149.93 56.7942 149.93C56.6342 149.93 56.4842 149.968 56.3442 150.045C56.2075 150.118 56.0892 150.232 55.9892 150.385V152H55.4842V149.6ZM60.6422 152.075C60.4022 152.075 60.1856 152.023 59.9922 151.92C59.8022 151.813 59.6522 151.665 59.5422 151.475C59.4356 151.282 59.3822 151.058 59.3822 150.805C59.3822 150.555 59.4356 150.333 59.5422 150.14C59.6522 149.947 59.8022 149.797 59.9922 149.69C60.1856 149.58 60.4022 149.525 60.6422 149.525C61.0756 149.525 61.4039 149.657 61.6272 149.92V148.305H62.1322V152H61.6422V151.65C61.5089 151.797 61.3622 151.905 61.2022 151.975C61.0456 152.042 60.8589 152.075 60.6422 152.075ZM60.7572 151.675C60.9639 151.675 61.1439 151.622 61.2972 151.515C61.4539 151.405 61.5639 151.258 61.6272 151.075V150.535C61.5706 150.352 61.4622 150.205 61.3022 150.095C61.1456 149.985 60.9639 149.93 60.7572 149.93C60.5939 149.93 60.4456 149.967 60.3122 150.04C60.1822 150.113 60.0789 150.217 60.0022 150.35C59.9289 150.483 59.8922 150.635 59.8922 150.805C59.8922 150.975 59.9289 151.127 60.0022 151.26C60.0789 151.393 60.1822 151.497 60.3122 151.57C60.4456 151.64 60.5939 151.675 60.7572 151.675ZM64.668 152.075C64.5013 152.075 64.3247 152.053 64.138 152.01C63.9513 151.97 63.8047 151.915 63.698 151.845V151.415C63.828 151.492 63.978 151.555 64.148 151.605C64.318 151.652 64.483 151.675 64.643 151.675C64.823 151.675 64.9547 151.653 65.038 151.61C65.1213 151.567 65.163 151.497 65.163 151.4C65.163 151.327 65.143 151.268 65.103 151.225C65.0663 151.178 65.0013 151.137 64.908 151.1C64.818 151.063 64.6813 151.02 64.498 150.97C64.3013 150.913 64.1447 150.857 64.028 150.8C63.9147 150.74 63.828 150.665 63.768 150.575C63.7113 150.485 63.683 150.368 63.683 150.225C63.683 149.995 63.773 149.822 63.953 149.705C64.1363 149.585 64.3813 149.525 64.688 149.525C64.848 149.525 65.0047 149.54 65.158 149.57C65.3113 149.6 65.4347 149.642 65.528 149.695V150.115C65.4313 150.058 65.3113 150.013 65.168 149.98C65.028 149.947 64.8847 149.93 64.738 149.93C64.5613 149.93 64.4263 149.952 64.333 149.995C64.2397 150.038 64.193 150.115 64.193 150.225C64.193 150.295 64.213 150.352 64.253 150.395C64.293 150.438 64.3563 150.477 64.443 150.51C64.533 150.54 64.6747 150.58 64.868 150.63C65.1713 150.713 65.3813 150.812 65.498 150.925C65.618 151.038 65.678 151.195 65.678 151.395C65.678 151.602 65.593 151.767 65.423 151.89C65.253 152.013 65.0013 152.075 64.668 152.075ZM69.9799 149.6H70.4949L71.0349 151.38L71.5699 149.6H72.0249L72.5599 151.38L73.0999 149.6H73.6199L72.8399 152H72.3549L71.7999 150.21L71.2449 152H70.7549L69.9799 149.6ZM75.1717 148.305H75.6767V149.93C75.9067 149.66 76.2133 149.525 76.5967 149.525C76.9167 149.525 77.155 149.61 77.3117 149.78C77.4683 149.95 77.5467 150.178 77.5467 150.465V152H77.0417V150.515C77.0417 150.125 76.855 149.93 76.4817 149.93C76.3217 149.93 76.1717 149.968 76.0317 150.045C75.895 150.118 75.7767 150.232 75.6767 150.385V152H75.1717V148.305ZM80.4897 152.075C80.0464 152.075 79.6981 151.965 79.4447 151.745C79.1947 151.522 79.0697 151.208 79.0697 150.805C79.0697 150.412 79.1814 150.1 79.4047 149.87C79.6314 149.64 79.9531 149.525 80.3697 149.525C80.6464 149.525 80.8814 149.578 81.0747 149.685C81.2681 149.788 81.4131 149.933 81.5097 150.12C81.6097 150.303 81.6597 150.513 81.6597 150.75V151H79.5497C79.5664 151.227 79.6614 151.397 79.8347 151.51C80.0114 151.62 80.2497 151.675 80.5497 151.675C80.7031 151.675 80.8581 151.662 81.0147 151.635C81.1714 151.605 81.3097 151.567 81.4297 151.52V151.925C81.3231 151.968 81.1814 152.003 81.0047 152.03C80.8314 152.06 80.6597 152.075 80.4897 152.075ZM81.1847 150.645C81.1781 150.418 81.1031 150.243 80.9597 150.12C80.8197 149.993 80.6197 149.93 80.3597 149.93C80.1064 149.93 79.9097 149.995 79.7697 150.125C79.6297 150.255 79.5564 150.428 79.5497 150.645H81.1847ZM83.2117 149.6H83.7017V149.945C83.8151 149.802 83.9534 149.697 84.1167 149.63C84.2834 149.56 84.4567 149.525 84.6367 149.525C84.9567 149.525 85.1951 149.61 85.3517 149.78C85.5084 149.95 85.5867 150.178 85.5867 150.465V152H85.0817V150.515C85.0817 150.125 84.8951 149.93 84.5217 149.93C84.3617 149.93 84.2117 149.968 84.0717 150.045C83.9351 150.118 83.8167 150.232 83.7167 150.385V152H83.2117V149.6ZM90.3554 149.13C90.272 149.13 90.202 149.102 90.1454 149.045C90.0887 148.988 90.0604 148.918 90.0604 148.835C90.0604 148.752 90.0887 148.682 90.1454 148.625C90.202 148.568 90.272 148.54 90.3554 148.54C90.442 148.54 90.5137 148.568 90.5704 148.625C90.6304 148.682 90.6604 148.752 90.6604 148.835C90.6604 148.918 90.6304 148.988 90.5704 149.045C90.5137 149.102 90.442 149.13 90.3554 149.13ZM90.1004 149.6H90.6154V152H90.1004V149.6ZM93.2354 152.075C92.992 152.075 92.8037 152.005 92.6704 151.865C92.5404 151.725 92.4754 151.527 92.4754 151.27V149.99H92.1104V149.6H92.4754V148.88H92.9854V149.6H93.5754V149.99H92.9854V151.235C92.9854 151.395 93.0154 151.508 93.0754 151.575C93.1387 151.642 93.252 151.675 93.4154 151.675C93.512 151.675 93.6087 151.653 93.7054 151.61V152.01C93.5787 152.053 93.422 152.075 93.2354 152.075ZM99.2961 152.075C99.0294 152.075 98.7927 152.025 98.5861 151.925C98.3794 151.825 98.2177 151.68 98.1011 151.49C97.9877 151.297 97.9311 151.068 97.9311 150.805C97.9311 150.542 97.9877 150.315 98.1011 150.125C98.2177 149.932 98.3794 149.783 98.5861 149.68C98.7961 149.577 99.0361 149.525 99.3061 149.525C99.6727 149.525 99.9661 149.597 100.186 149.74V150.155C99.9694 150.005 99.6927 149.93 99.3561 149.93C99.0827 149.93 98.8611 150.005 98.6911 150.155C98.5244 150.302 98.4411 150.518 98.4411 150.805C98.4411 151.092 98.5244 151.308 98.6911 151.455C98.8577 151.602 99.0761 151.675 99.3461 151.675C99.6827 151.675 99.9727 151.595 100.216 151.435V151.845C100.099 151.925 99.9661 151.983 99.8161 152.02C99.6694 152.057 99.4961 152.075 99.2961 152.075ZM102.957 152.075C102.687 152.075 102.449 152.025 102.242 151.925C102.039 151.822 101.879 151.675 101.762 151.485C101.649 151.292 101.592 151.065 101.592 150.805C101.592 150.548 101.649 150.323 101.762 150.13C101.876 149.937 102.036 149.788 102.242 149.685C102.449 149.578 102.687 149.525 102.957 149.525C103.227 149.525 103.466 149.578 103.672 149.685C103.879 149.788 104.039 149.937 104.152 150.13C104.269 150.323 104.327 150.548 104.327 150.805C104.327 151.065 104.269 151.292 104.152 151.485C104.039 151.675 103.879 151.822 103.672 151.925C103.466 152.025 103.227 152.075 102.957 152.075ZM102.957 151.675C103.217 151.675 103.424 151.595 103.577 151.435C103.731 151.275 103.807 151.065 103.807 150.805C103.807 150.535 103.731 150.322 103.577 150.165C103.424 150.008 103.217 149.93 102.957 149.93C102.697 149.93 102.491 150.008 102.337 150.165C102.184 150.322 102.107 150.535 102.107 150.805C102.107 151.065 102.184 151.275 102.337 151.435C102.491 151.595 102.697 151.675 102.957 151.675ZM107.014 152.075C106.744 152.075 106.505 152.025 106.299 151.925C106.095 151.822 105.935 151.675 105.819 151.485C105.705 151.292 105.649 151.065 105.649 150.805C105.649 150.548 105.705 150.323 105.819 150.13C105.932 149.937 106.092 149.788 106.299 149.685C106.505 149.578 106.744 149.525 107.014 149.525C107.284 149.525 107.522 149.578 107.729 149.685C107.935 149.788 108.095 149.937 108.209 150.13C108.325 150.323 108.384 150.548 108.384 150.805C108.384 151.065 108.325 151.292 108.209 151.485C108.095 151.675 107.935 151.822 107.729 151.925C107.522 152.025 107.284 152.075 107.014 152.075ZM107.014 151.675C107.274 151.675 107.48 151.595 107.634 151.435C107.787 151.275 107.864 151.065 107.864 150.805C107.864 150.535 107.787 150.322 107.634 150.165C107.48 150.008 107.274 149.93 107.014 149.93C106.754 149.93 106.547 150.008 106.394 150.165C106.24 150.322 106.164 150.535 106.164 150.805C106.164 151.065 106.24 151.275 106.394 151.435C106.547 151.595 106.754 151.675 107.014 151.675ZM109.932 148.305H110.437V152H109.932V148.305ZM112.975 152.075C112.808 152.075 112.631 152.053 112.445 152.01C112.258 151.97 112.111 151.915 112.005 151.845V151.415C112.135 151.492 112.285 151.555 112.455 151.605C112.625 151.652 112.79 151.675 112.95 151.675C113.13 151.675 113.261 151.653 113.345 151.61C113.428 151.567 113.47 151.497 113.47 151.4C113.47 151.327 113.45 151.268 113.41 151.225C113.373 151.178 113.308 151.137 113.215 151.1C113.125 151.063 112.988 151.02 112.805 150.97C112.608 150.913 112.451 150.857 112.335 150.8C112.221 150.74 112.135 150.665 112.075 150.575C112.018 150.485 111.99 150.368 111.99 150.225C111.99 149.995 112.08 149.822 112.26 149.705C112.443 149.585 112.688 149.525 112.995 149.525C113.155 149.525 113.311 149.54 113.465 149.57C113.618 149.6 113.741 149.642 113.835 149.695V150.115C113.738 150.058 113.618 150.013 113.475 149.98C113.335 149.947 113.191 149.93 113.045 149.93C112.868 149.93 112.733 149.952 112.64 149.995C112.546 150.038 112.5 150.115 112.5 150.225C112.5 150.295 112.52 150.352 112.56 150.395C112.6 150.438 112.663 150.477 112.75 150.51C112.84 150.54 112.981 150.58 113.175 150.63C113.478 150.713 113.688 150.812 113.805 150.925C113.925 151.038 113.985 151.195 113.985 151.395C113.985 151.602 113.9 151.767 113.73 151.89C113.56 152.013 113.308 152.075 112.975 152.075ZM115.671 152C115.604 152 115.548 151.978 115.501 151.935C115.458 151.888 115.436 151.832 115.436 151.765C115.436 151.698 115.458 151.642 115.501 151.595C115.548 151.548 115.604 151.525 115.671 151.525C115.738 151.525 115.794 151.548 115.841 151.595C115.888 151.642 115.911 151.698 115.911 151.765C115.911 151.832 115.888 151.888 115.841 151.935C115.794 151.978 115.738 152 115.671 152ZM18.295 160.075C18.095 160.075 17.8967 160.057 17.7 160.02C17.5067 159.987 17.3483 159.94 17.225 159.88V159.42C17.545 159.57 17.89 159.645 18.26 159.645C18.78 159.645 19.04 159.47 19.04 159.12C19.04 159 19.0117 158.903 18.955 158.83C18.8983 158.757 18.8167 158.693 18.71 158.64C18.6033 158.583 18.43 158.507 18.19 158.41C17.86 158.277 17.6217 158.13 17.475 157.97C17.3283 157.81 17.255 157.608 17.255 157.365C17.255 157.182 17.305 157.02 17.405 156.88C17.505 156.737 17.645 156.627 17.825 156.55C18.005 156.47 18.2117 156.43 18.445 156.43C18.635 156.43 18.8067 156.445 18.96 156.475C19.1133 156.505 19.2633 156.553 19.41 156.62V157.06C19.12 156.93 18.8267 156.865 18.53 156.865C18.29 156.865 18.1067 156.908 17.98 156.995C17.8533 157.082 17.79 157.205 17.79 157.365C17.79 157.475 17.8167 157.568 17.87 157.645C17.9267 157.718 18.0083 157.785 18.115 157.845C18.225 157.902 18.3867 157.973 18.6 158.06C18.8367 158.157 19.0233 158.248 19.16 158.335C19.2967 158.422 19.4 158.528 19.47 158.655C19.5433 158.778 19.58 158.933 19.58 159.12C19.58 159.423 19.4717 159.658 19.255 159.825C19.0383 159.992 18.7183 160.075 18.295 160.075ZM22.3195 160.075C22.0495 160.075 21.8112 160.025 21.6045 159.925C21.4012 159.822 21.2412 159.675 21.1245 159.485C21.0112 159.292 20.9545 159.065 20.9545 158.805C20.9545 158.548 21.0112 158.323 21.1245 158.13C21.2378 157.937 21.3978 157.788 21.6045 157.685C21.8112 157.578 22.0495 157.525 22.3195 157.525C22.5895 157.525 22.8278 157.578 23.0345 157.685C23.2412 157.788 23.4012 157.937 23.5145 158.13C23.6312 158.323 23.6895 158.548 23.6895 158.805C23.6895 159.065 23.6312 159.292 23.5145 159.485C23.4012 159.675 23.2412 159.822 23.0345 159.925C22.8278 160.025 22.5895 160.075 22.3195 160.075ZM22.3195 159.675C22.5795 159.675 22.7862 159.595 22.9395 159.435C23.0928 159.275 23.1695 159.065 23.1695 158.805C23.1695 158.535 23.0928 158.322 22.9395 158.165C22.7862 158.008 22.5795 157.93 22.3195 157.93C22.0595 157.93 21.8528 158.008 21.6995 158.165C21.5462 158.322 21.4695 158.535 21.4695 158.805C21.4695 159.065 21.5462 159.275 21.6995 159.435C21.8528 159.595 22.0595 159.675 22.3195 159.675ZM25.2381 157.6H25.7281V158.03C25.8281 157.883 25.9681 157.775 26.1481 157.705C26.3314 157.635 26.5431 157.6 26.7831 157.6V157.995C26.5264 157.995 26.3064 158.037 26.1231 158.12C25.9398 158.203 25.8131 158.335 25.7431 158.515V160H25.2381V157.6ZM29.1602 160.075C28.9168 160.075 28.7285 160.005 28.5952 159.865C28.4652 159.725 28.4002 159.527 28.4002 159.27V157.99H28.0352V157.6H28.4002V156.88H28.9102V157.6H29.5002V157.99H28.9102V159.235C28.9102 159.395 28.9402 159.508 29.0002 159.575C29.0635 159.642 29.1768 159.675 29.3402 159.675C29.4368 159.675 29.5335 159.653 29.6302 159.61V160.01C29.5035 160.053 29.3468 160.075 29.1602 160.075ZM35.2209 160.075C34.9509 160.075 34.7125 160.025 34.5059 159.925C34.3025 159.822 34.1425 159.675 34.0259 159.485C33.9125 159.292 33.8559 159.065 33.8559 158.805C33.8559 158.548 33.9125 158.323 34.0259 158.13C34.1392 157.937 34.2992 157.788 34.5059 157.685C34.7125 157.578 34.9509 157.525 35.2209 157.525C35.4909 157.525 35.7292 157.578 35.9359 157.685C36.1425 157.788 36.3025 157.937 36.4159 158.13C36.5325 158.323 36.5909 158.548 36.5909 158.805C36.5909 159.065 36.5325 159.292 36.4159 159.485C36.3025 159.675 36.1425 159.822 35.9359 159.925C35.7292 160.025 35.4909 160.075 35.2209 160.075ZM35.2209 159.675C35.4809 159.675 35.6875 159.595 35.8409 159.435C35.9942 159.275 36.0709 159.065 36.0709 158.805C36.0709 158.535 35.9942 158.322 35.8409 158.165C35.6875 158.008 35.4809 157.93 35.2209 157.93C34.9609 157.93 34.7542 158.008 34.6009 158.165C34.4475 158.322 34.3709 158.535 34.3709 158.805C34.3709 159.065 34.4475 159.275 34.6009 159.435C34.7542 159.595 34.9609 159.675 35.2209 159.675ZM38.1287 157.99H37.7637V157.6H38.1287V157.13C38.1287 156.853 38.207 156.643 38.3637 156.5C38.5203 156.353 38.7303 156.28 38.9937 156.28C39.1303 156.28 39.2587 156.3 39.3787 156.34V156.76C39.2853 156.717 39.1887 156.695 39.0887 156.695C38.932 156.695 38.817 156.733 38.7437 156.81C38.6703 156.883 38.6337 157 38.6337 157.16V157.6H39.2337V157.99H38.6337V160H38.1287V157.99ZM43.577 156.305H44.082V160H43.577V156.305ZM46.0292 157.13C45.9458 157.13 45.8758 157.102 45.8192 157.045C45.7625 156.988 45.7342 156.918 45.7342 156.835C45.7342 156.752 45.7625 156.682 45.8192 156.625C45.8758 156.568 45.9458 156.54 46.0292 156.54C46.1158 156.54 46.1875 156.568 46.2442 156.625C46.3042 156.682 46.3342 156.752 46.3342 156.835C46.3342 156.918 46.3042 156.988 46.2442 157.045C46.1875 157.102 46.1158 157.13 46.0292 157.13ZM45.7742 157.6H46.2892V160H45.7742V157.6ZM47.9842 156.305H48.4892V160H47.9842V156.305ZM48.4942 158.785L49.5992 157.6H50.2142L49.1042 158.785L50.3292 160H49.7142L48.4942 158.785ZM53.1509 160.075C52.7075 160.075 52.3592 159.965 52.1059 159.745C51.8559 159.522 51.7309 159.208 51.7309 158.805C51.7309 158.412 51.8425 158.1 52.0659 157.87C52.2925 157.64 52.6142 157.525 53.0309 157.525C53.3075 157.525 53.5425 157.578 53.7359 157.685C53.9292 157.788 54.0742 157.933 54.1709 158.12C54.2709 158.303 54.3209 158.513 54.3209 158.75V159H52.2109C52.2275 159.227 52.3225 159.397 52.4959 159.51C52.6725 159.62 52.9109 159.675 53.2109 159.675C53.3642 159.675 53.5192 159.662 53.6759 159.635C53.8325 159.605 53.9709 159.567 54.0909 159.52V159.925C53.9842 159.968 53.8425 160.003 53.6659 160.03C53.4925 160.06 53.3209 160.075 53.1509 160.075ZM53.8459 158.645C53.8392 158.418 53.7642 158.243 53.6209 158.12C53.4809 157.993 53.2809 157.93 53.0209 157.93C52.7675 157.93 52.5709 157.995 52.4309 158.125C52.2909 158.255 52.2175 158.428 52.2109 158.645H53.8459ZM58.7234 156.305H59.2284V157.93C59.4584 157.66 59.7651 157.525 60.1484 157.525C60.4684 157.525 60.7068 157.61 60.8634 157.78C61.0201 157.95 61.0984 158.178 61.0984 158.465V160H60.5934V158.515C60.5934 158.125 60.4068 157.93 60.0334 157.93C59.8734 157.93 59.7234 157.968 59.5834 158.045C59.4468 158.118 59.3284 158.232 59.2284 158.385V160H58.7234V156.305ZM63.9132 160.075C63.6432 160.075 63.4049 160.025 63.1982 159.925C62.9949 159.822 62.8349 159.675 62.7182 159.485C62.6049 159.292 62.5482 159.065 62.5482 158.805C62.5482 158.548 62.6049 158.323 62.7182 158.13C62.8316 157.937 62.9916 157.788 63.1982 157.685C63.4049 157.578 63.6432 157.525 63.9132 157.525C64.1832 157.525 64.4216 157.578 64.6282 157.685C64.8349 157.788 64.9949 157.937 65.1082 158.13C65.2249 158.323 65.2832 158.548 65.2832 158.805C65.2832 159.065 65.2249 159.292 65.1082 159.485C64.9949 159.675 64.8349 159.822 64.6282 159.925C64.4216 160.025 64.1832 160.075 63.9132 160.075ZM63.9132 159.675C64.1732 159.675 64.3799 159.595 64.5332 159.435C64.6866 159.275 64.7632 159.065 64.7632 158.805C64.7632 158.535 64.6866 158.322 64.5332 158.165C64.3799 158.008 64.1732 157.93 63.9132 157.93C63.6532 157.93 63.4466 158.008 63.2932 158.165C63.1399 158.322 63.0632 158.535 63.0632 158.805C63.0632 159.065 63.1399 159.275 63.2932 159.435C63.4466 159.595 63.6532 159.675 63.9132 159.675ZM66.4047 157.6H66.9197L67.4597 159.38L67.9947 157.6H68.4497L68.9847 159.38L69.5247 157.6H70.0447L69.2647 160H68.7797L68.2247 158.21L67.6697 160H67.1797L66.4047 157.6ZM75.3071 160.075C75.0171 160.075 74.7837 160.002 74.6071 159.855C74.4337 159.705 74.3471 159.503 74.3471 159.25C74.3471 158.983 74.4304 158.778 74.5971 158.635C74.7671 158.488 75.0071 158.415 75.3171 158.415C75.6471 158.415 75.9271 158.482 76.1571 158.615V158.49C76.1571 158.3 76.0987 158.16 75.9821 158.07C75.8687 157.977 75.6887 157.93 75.4421 157.93C75.2954 157.93 75.1521 157.945 75.0121 157.975C74.8754 158.002 74.7521 158.04 74.6421 158.09V157.68C74.7421 157.633 74.8721 157.597 75.0321 157.57C75.1921 157.54 75.3471 157.525 75.4971 157.525C75.8937 157.525 76.1871 157.613 76.3771 157.79C76.5704 157.963 76.6671 158.205 76.6671 158.515V160H76.1921V159.73C76.0887 159.843 75.9654 159.93 75.8221 159.99C75.6821 160.047 75.5104 160.075 75.3071 160.075ZM75.4321 159.69C75.5921 159.69 75.7371 159.658 75.8671 159.595C75.9971 159.532 76.0937 159.443 76.1571 159.33V159.005C75.9404 158.865 75.6987 158.795 75.4321 158.795C75.2387 158.795 75.0937 158.833 74.9971 158.91C74.9037 158.983 74.8571 159.097 74.8571 159.25C74.8571 159.543 75.0487 159.69 75.4321 159.69ZM82.4093 160.075C82.1427 160.075 81.906 160.025 81.6993 159.925C81.4927 159.825 81.331 159.68 81.2143 159.49C81.101 159.297 81.0443 159.068 81.0443 158.805C81.0443 158.542 81.101 158.315 81.2143 158.125C81.331 157.932 81.4927 157.783 81.6993 157.68C81.9093 157.577 82.1493 157.525 82.4193 157.525C82.786 157.525 83.0793 157.597 83.2993 157.74V158.155C83.0827 158.005 82.806 157.93 82.4693 157.93C82.196 157.93 81.9743 158.005 81.8043 158.155C81.6377 158.302 81.5543 158.518 81.5543 158.805C81.5543 159.092 81.6377 159.308 81.8043 159.455C81.971 159.602 82.1893 159.675 82.4593 159.675C82.796 159.675 83.086 159.595 83.3293 159.435V159.845C83.2127 159.925 83.0793 159.983 82.9293 160.02C82.7827 160.057 82.6093 160.075 82.4093 160.075ZM86.0705 160.075C85.8005 160.075 85.5621 160.025 85.3555 159.925C85.1521 159.822 84.9921 159.675 84.8755 159.485C84.7621 159.292 84.7055 159.065 84.7055 158.805C84.7055 158.548 84.7621 158.323 84.8755 158.13C84.9888 157.937 85.1488 157.788 85.3555 157.685C85.5621 157.578 85.8005 157.525 86.0705 157.525C86.3405 157.525 86.5788 157.578 86.7855 157.685C86.9921 157.788 87.1521 157.937 87.2655 158.13C87.3821 158.323 87.4405 158.548 87.4405 158.805C87.4405 159.065 87.3821 159.292 87.2655 159.485C87.1521 159.675 86.9921 159.822 86.7855 159.925C86.5788 160.025 86.3405 160.075 86.0705 160.075ZM86.0705 159.675C86.3305 159.675 86.5371 159.595 86.6905 159.435C86.8438 159.275 86.9205 159.065 86.9205 158.805C86.9205 158.535 86.8438 158.322 86.6905 158.165C86.5371 158.008 86.3305 157.93 86.0705 157.93C85.8105 157.93 85.6038 158.008 85.4505 158.165C85.2971 158.322 85.2205 158.535 85.2205 158.805C85.2205 159.065 85.2971 159.275 85.4505 159.435C85.6038 159.595 85.8105 159.675 86.0705 159.675ZM89.9441 160.075C89.6207 160.075 89.3757 159.988 89.2091 159.815C89.0457 159.642 88.9641 159.41 88.9641 159.12V157.6H89.4691V159.1C89.4691 159.483 89.6607 159.675 90.0441 159.675C90.3807 159.675 90.6441 159.523 90.8341 159.22V157.6H91.3391V160H90.8491V159.66C90.7357 159.803 90.6007 159.908 90.4441 159.975C90.2907 160.042 90.1241 160.075 89.9441 160.075ZM94.2521 160.075C93.9854 160.075 93.7488 160.025 93.5421 159.925C93.3354 159.825 93.1738 159.68 93.0571 159.49C92.9438 159.297 92.8871 159.068 92.8871 158.805C92.8871 158.542 92.9438 158.315 93.0571 158.125C93.1738 157.932 93.3354 157.783 93.5421 157.68C93.7521 157.577 93.9921 157.525 94.2621 157.525C94.6288 157.525 94.9221 157.597 95.1421 157.74V158.155C94.9254 158.005 94.6488 157.93 94.3121 157.93C94.0388 157.93 93.8171 158.005 93.6471 158.155C93.4804 158.302 93.3971 158.518 93.3971 158.805C93.3971 159.092 93.4804 159.308 93.6471 159.455C93.8138 159.602 94.0321 159.675 94.3021 159.675C94.6388 159.675 94.9288 159.595 95.1721 159.435V159.845C95.0554 159.925 94.9221 159.983 94.7721 160.02C94.6254 160.057 94.4521 160.075 94.2521 160.075ZM96.7215 156.305H97.2265V157.93C97.4565 157.66 97.7632 157.525 98.1465 157.525C98.4665 157.525 98.7048 157.61 98.8615 157.78C99.0182 157.95 99.0965 158.178 99.0965 158.465V160H98.5915V158.515C98.5915 158.125 98.4048 157.93 98.0315 157.93C97.8715 157.93 97.7215 157.968 97.5815 158.045C97.4448 158.118 97.3265 158.232 97.2265 158.385V160H96.7215V156.305ZM103.57 157.6H104.06V157.955C104.307 157.668 104.64 157.525 105.06 157.525C105.3 157.525 105.515 157.578 105.705 157.685C105.898 157.792 106.048 157.942 106.155 158.135C106.265 158.325 106.32 158.547 106.32 158.8C106.32 159.05 106.265 159.272 106.155 159.465C106.048 159.658 105.9 159.808 105.71 159.915C105.52 160.022 105.303 160.075 105.06 160.075C104.86 160.075 104.673 160.042 104.5 159.975C104.327 159.908 104.185 159.81 104.075 159.68V161.095H103.57V157.6ZM104.945 159.675C105.108 159.675 105.255 159.64 105.385 159.57C105.518 159.497 105.622 159.393 105.695 159.26C105.772 159.127 105.81 158.973 105.81 158.8C105.81 158.627 105.772 158.475 105.695 158.345C105.622 158.212 105.518 158.11 105.385 158.04C105.255 157.967 105.108 157.93 104.945 157.93C104.742 157.93 104.562 157.983 104.405 158.09C104.252 158.197 104.142 158.343 104.075 158.53V159.07C104.132 159.253 104.24 159.4 104.4 159.51C104.56 159.62 104.742 159.675 104.945 159.675ZM109.009 160.075C108.739 160.075 108.501 160.025 108.294 159.925C108.091 159.822 107.931 159.675 107.814 159.485C107.701 159.292 107.644 159.065 107.644 158.805C107.644 158.548 107.701 158.323 107.814 158.13C107.927 157.937 108.087 157.788 108.294 157.685C108.501 157.578 108.739 157.525 109.009 157.525C109.279 157.525 109.517 157.578 109.724 157.685C109.931 157.788 110.091 157.937 110.204 158.13C110.321 158.323 110.379 158.548 110.379 158.805C110.379 159.065 110.321 159.292 110.204 159.485C110.091 159.675 109.931 159.822 109.724 159.925C109.517 160.025 109.279 160.075 109.009 160.075ZM109.009 159.675C109.269 159.675 109.476 159.595 109.629 159.435C109.782 159.275 109.859 159.065 109.859 158.805C109.859 158.535 109.782 158.322 109.629 158.165C109.476 158.008 109.269 157.93 109.009 157.93C108.749 157.93 108.542 158.008 108.389 158.165C108.236 158.322 108.159 158.535 108.159 158.805C108.159 159.065 108.236 159.275 108.389 159.435C108.542 159.595 108.749 159.675 109.009 159.675ZM112.779 160.075C112.536 160.075 112.348 160.005 112.214 159.865C112.084 159.725 112.019 159.527 112.019 159.27V157.99H111.654V157.6H112.019V156.88H112.529V157.6H113.119V157.99H112.529V159.235C112.529 159.395 112.559 159.508 112.619 159.575C112.683 159.642 112.796 159.675 112.959 159.675C113.056 159.675 113.153 159.653 113.249 159.61V160.01C113.123 160.053 112.966 160.075 112.779 160.075ZM115.511 160.075C115.221 160.075 114.988 160.002 114.811 159.855C114.638 159.705 114.551 159.503 114.551 159.25C114.551 158.983 114.635 158.778 114.801 158.635C114.971 158.488 115.211 158.415 115.521 158.415C115.851 158.415 116.131 158.482 116.361 158.615V158.49C116.361 158.3 116.303 158.16 116.186 158.07C116.073 157.977 115.893 157.93 115.646 157.93C115.5 157.93 115.356 157.945 115.216 157.975C115.08 158.002 114.956 158.04 114.846 158.09V157.68C114.946 157.633 115.076 157.597 115.236 157.57C115.396 157.54 115.551 157.525 115.701 157.525C116.098 157.525 116.391 157.613 116.581 157.79C116.775 157.963 116.871 158.205 116.871 158.515V160H116.396V159.73C116.293 159.843 116.17 159.93 116.026 159.99C115.886 160.047 115.715 160.075 115.511 160.075ZM115.636 159.69C115.796 159.69 115.941 159.658 116.071 159.595C116.201 159.532 116.298 159.443 116.361 159.33V159.005C116.145 158.865 115.903 158.795 115.636 158.795C115.443 158.795 115.298 158.833 115.201 158.91C115.108 158.983 115.061 159.097 115.061 159.25C115.061 159.543 115.253 159.69 115.636 159.69ZM119.296 160.075C119.053 160.075 118.864 160.005 118.731 159.865C118.601 159.725 118.536 159.527 118.536 159.27V157.99H118.171V157.6H118.536V156.88H119.046V157.6H119.636V157.99H119.046V159.235C119.046 159.395 119.076 159.508 119.136 159.575C119.199 159.642 119.313 159.675 119.476 159.675C119.573 159.675 119.669 159.653 119.766 159.61V160.01C119.639 160.053 119.483 160.075 119.296 160.075ZM122.482 160.075C122.212 160.075 121.973 160.025 121.767 159.925C121.563 159.822 121.403 159.675 121.287 159.485C121.173 159.292 121.117 159.065 121.117 158.805C121.117 158.548 121.173 158.323 121.287 158.13C121.4 157.937 121.56 157.788 121.767 157.685C121.973 157.578 122.212 157.525 122.482 157.525C122.752 157.525 122.99 157.578 123.197 157.685C123.403 157.788 123.563 157.937 123.677 158.13C123.793 158.323 123.852 158.548 123.852 158.805C123.852 159.065 123.793 159.292 123.677 159.485C123.563 159.675 123.403 159.822 123.197 159.925C122.99 160.025 122.752 160.075 122.482 160.075ZM122.482 159.675C122.742 159.675 122.948 159.595 123.102 159.435C123.255 159.275 123.332 159.065 123.332 158.805C123.332 158.535 123.255 158.322 123.102 158.165C122.948 158.008 122.742 157.93 122.482 157.93C122.222 157.93 122.015 158.008 121.862 158.165C121.708 158.322 121.632 158.535 121.632 158.805C121.632 159.065 121.708 159.275 121.862 159.435C122.015 159.595 122.222 159.675 122.482 159.675ZM18.645 168.075C18.2017 168.075 17.8533 167.965 17.6 167.745C17.35 167.522 17.225 167.208 17.225 166.805C17.225 166.412 17.3367 166.1 17.56 165.87C17.7867 165.64 18.1083 165.525 18.525 165.525C18.8017 165.525 19.0367 165.578 19.23 165.685C19.4233 165.788 19.5683 165.933 19.665 166.12C19.765 166.303 19.815 166.513 19.815 166.75V167H17.705C17.7217 167.227 17.8167 167.397 17.99 167.51C18.1667 167.62 18.405 167.675 18.705 167.675C18.8583 167.675 19.0133 167.662 19.17 167.635C19.3267 167.605 19.465 167.567 19.585 167.52V167.925C19.4783 167.968 19.3367 168.003 19.16 168.03C18.9867 168.06 18.815 168.075 18.645 168.075ZM19.34 166.645C19.3333 166.418 19.2583 166.243 19.115 166.12C18.975 165.993 18.775 165.93 18.515 165.93C18.2617 165.93 18.065 165.995 17.925 166.125C17.785 166.255 17.7117 166.428 17.705 166.645H19.34ZM22.1993 166.745L21.2593 165.6H21.8343L22.4843 166.395L23.1393 165.6H23.7143L22.7743 166.745L23.8043 168H23.2343L22.4843 167.095L21.7393 168H21.1693L22.1993 166.745ZM25.3553 165.6H25.8453V165.955C26.0919 165.668 26.4253 165.525 26.8453 165.525C27.0853 165.525 27.3003 165.578 27.4903 165.685C27.6836 165.792 27.8336 165.942 27.9403 166.135C28.0503 166.325 28.1053 166.547 28.1053 166.8C28.1053 167.05 28.0503 167.272 27.9403 167.465C27.8336 167.658 27.6853 167.808 27.4953 167.915C27.3053 168.022 27.0886 168.075 26.8453 168.075C26.6453 168.075 26.4586 168.042 26.2853 167.975C26.1119 167.908 25.9703 167.81 25.8603 167.68V169.095H25.3553V165.6ZM26.7303 167.675C26.8936 167.675 27.0403 167.64 27.1703 167.57C27.3036 167.497 27.4069 167.393 27.4803 167.26C27.5569 167.127 27.5953 166.973 27.5953 166.8C27.5953 166.627 27.5569 166.475 27.4803 166.345C27.4069 166.212 27.3036 166.11 27.1703 166.04C27.0403 165.967 26.8936 165.93 26.7303 165.93C26.5269 165.93 26.3469 165.983 26.1903 166.09C26.0369 166.197 25.9269 166.343 25.8603 166.53V167.07C25.9169 167.253 26.0253 167.4 26.1853 167.51C26.3453 167.62 26.5269 167.675 26.7303 167.675ZM30.3891 168.075C30.0991 168.075 29.8658 168.002 29.6891 167.855C29.5158 167.705 29.4291 167.503 29.4291 167.25C29.4291 166.983 29.5124 166.778 29.6791 166.635C29.8491 166.488 30.0891 166.415 30.3991 166.415C30.7291 166.415 31.0091 166.482 31.2391 166.615V166.49C31.2391 166.3 31.1808 166.16 31.0641 166.07C30.9508 165.977 30.7708 165.93 30.5241 165.93C30.3774 165.93 30.2341 165.945 30.0941 165.975C29.9574 166.002 29.8341 166.04 29.7241 166.09V165.68C29.8241 165.633 29.9541 165.597 30.1141 165.57C30.2741 165.54 30.4291 165.525 30.5791 165.525C30.9758 165.525 31.2691 165.613 31.4591 165.79C31.6524 165.963 31.7491 166.205 31.7491 166.515V168H31.2741V167.73C31.1708 167.843 31.0474 167.93 30.9041 167.99C30.7641 168.047 30.5924 168.075 30.3891 168.075ZM30.5141 167.69C30.6741 167.69 30.8191 167.658 30.9491 167.595C31.0791 167.532 31.1758 167.443 31.2391 167.33V167.005C31.0224 166.865 30.7808 166.795 30.5141 166.795C30.3208 166.795 30.1758 166.833 30.0791 166.91C29.9858 166.983 29.9391 167.097 29.9391 167.25C29.9391 167.543 30.1308 167.69 30.5141 167.69ZM33.3758 165.6H33.8658V165.945C33.9791 165.802 34.1174 165.697 34.2808 165.63C34.4474 165.56 34.6208 165.525 34.8008 165.525C35.1208 165.525 35.3591 165.61 35.5158 165.78C35.6724 165.95 35.7508 166.178 35.7508 166.465V168H35.2458V166.515C35.2458 166.125 35.0591 165.93 34.6858 165.93C34.5258 165.93 34.3758 165.968 34.2358 166.045C34.0991 166.118 33.9808 166.232 33.8808 166.385V168H33.3758V165.6ZM38.5338 168.075C38.2938 168.075 38.0772 168.023 37.8838 167.92C37.6938 167.813 37.5438 167.665 37.4338 167.475C37.3272 167.282 37.2738 167.058 37.2738 166.805C37.2738 166.555 37.3272 166.333 37.4338 166.14C37.5438 165.947 37.6938 165.797 37.8838 165.69C38.0772 165.58 38.2938 165.525 38.5338 165.525C38.9672 165.525 39.2955 165.657 39.5188 165.92V164.305H40.0238V168H39.5338V167.65C39.4005 167.797 39.2538 167.905 39.0938 167.975C38.9372 168.042 38.7505 168.075 38.5338 168.075ZM38.6488 167.675C38.8555 167.675 39.0355 167.622 39.1888 167.515C39.3455 167.405 39.4555 167.258 39.5188 167.075V166.535C39.4622 166.352 39.3538 166.205 39.1938 166.095C39.0372 165.985 38.8555 165.93 38.6488 165.93C38.4855 165.93 38.3372 165.967 38.2038 166.04C38.0738 166.113 37.9705 166.217 37.8938 166.35C37.8205 166.483 37.7838 166.635 37.7838 166.805C37.7838 166.975 37.8205 167.127 37.8938 167.26C37.9705 167.393 38.0738 167.497 38.2038 167.57C38.3372 167.64 38.4855 167.675 38.6488 167.675ZM42.5596 168.075C42.3929 168.075 42.2163 168.053 42.0296 168.01C41.8429 167.97 41.6963 167.915 41.5896 167.845V167.415C41.7196 167.492 41.8696 167.555 42.0396 167.605C42.2096 167.652 42.3746 167.675 42.5346 167.675C42.7146 167.675 42.8463 167.653 42.9296 167.61C43.0129 167.567 43.0546 167.497 43.0546 167.4C43.0546 167.327 43.0346 167.268 42.9946 167.225C42.9579 167.178 42.8929 167.137 42.7996 167.1C42.7096 167.063 42.5729 167.02 42.3896 166.97C42.1929 166.913 42.0363 166.857 41.9196 166.8C41.8063 166.74 41.7196 166.665 41.6596 166.575C41.6029 166.485 41.5746 166.368 41.5746 166.225C41.5746 165.995 41.6646 165.822 41.8446 165.705C42.0279 165.585 42.2729 165.525 42.5796 165.525C42.7396 165.525 42.8963 165.54 43.0496 165.57C43.2029 165.6 43.3263 165.642 43.4196 165.695V166.115C43.3229 166.058 43.2029 166.013 43.0596 165.98C42.9196 165.947 42.7763 165.93 42.6296 165.93C42.4529 165.93 42.3179 165.952 42.2246 165.995C42.1313 166.038 42.0846 166.115 42.0846 166.225C42.0846 166.295 42.1046 166.352 42.1446 166.395C42.1846 166.438 42.2479 166.477 42.3346 166.51C42.4246 166.54 42.5663 166.58 42.7596 166.63C43.0629 166.713 43.2729 166.812 43.3896 166.925C43.5096 167.038 43.5696 167.195 43.5696 167.395C43.5696 167.602 43.4846 167.767 43.3146 167.89C43.1446 168.013 42.8929 168.075 42.5596 168.075ZM47.8715 165.6H48.3865L48.9265 167.38L49.4615 165.6H49.9165L50.4515 167.38L50.9915 165.6H51.5115L50.7315 168H50.2465L49.6915 166.21L49.1365 168H48.6465L47.8715 165.6ZM53.0633 164.305H53.5683V165.93C53.7983 165.66 54.1049 165.525 54.4883 165.525C54.8083 165.525 55.0466 165.61 55.2033 165.78C55.3599 165.95 55.4383 166.178 55.4383 166.465V168H54.9333V166.515C54.9333 166.125 54.7466 165.93 54.3733 165.93C54.2133 165.93 54.0633 165.968 53.9233 166.045C53.7866 166.118 53.6683 166.232 53.5683 166.385V168H53.0633V164.305ZM58.3813 168.075C57.938 168.075 57.5897 167.965 57.3363 167.745C57.0863 167.522 56.9613 167.208 56.9613 166.805C56.9613 166.412 57.073 166.1 57.2963 165.87C57.523 165.64 57.8447 165.525 58.2613 165.525C58.538 165.525 58.773 165.578 58.9663 165.685C59.1597 165.788 59.3047 165.933 59.4013 166.12C59.5013 166.303 59.5513 166.513 59.5513 166.75V167H57.4413C57.458 167.227 57.553 167.397 57.7263 167.51C57.903 167.62 58.1413 167.675 58.4413 167.675C58.5947 167.675 58.7497 167.662 58.9063 167.635C59.063 167.605 59.2013 167.567 59.3213 167.52V167.925C59.2147 167.968 59.073 168.003 58.8963 168.03C58.723 168.06 58.5513 168.075 58.3813 168.075ZM59.0763 166.645C59.0697 166.418 58.9947 166.243 58.8513 166.12C58.7113 165.993 58.5113 165.93 58.2513 165.93C57.998 165.93 57.8013 165.995 57.6613 166.125C57.5213 166.255 57.448 166.428 57.4413 166.645H59.0763ZM61.1033 165.6H61.5933V165.945C61.7067 165.802 61.845 165.697 62.0083 165.63C62.175 165.56 62.3483 165.525 62.5283 165.525C62.8483 165.525 63.0867 165.61 63.2433 165.78C63.4 165.95 63.4783 166.178 63.4783 166.465V168H62.9733V166.515C62.9733 166.125 62.7867 165.93 62.4133 165.93C62.2533 165.93 62.1033 165.968 61.9633 166.045C61.8267 166.118 61.7083 166.232 61.6083 166.385V168H61.1033V165.6ZM68.247 165.13C68.1636 165.13 68.0936 165.102 68.037 165.045C67.9803 164.988 67.952 164.918 67.952 164.835C67.952 164.752 67.9803 164.682 68.037 164.625C68.0936 164.568 68.1636 164.54 68.247 164.54C68.3336 164.54 68.4053 164.568 68.462 164.625C68.522 164.682 68.552 164.752 68.552 164.835C68.552 164.918 68.522 164.988 68.462 165.045C68.4053 165.102 68.3336 165.13 68.247 165.13ZM67.992 165.6H68.507V168H67.992V165.6ZM71.127 168.075C70.8836 168.075 70.6953 168.005 70.562 167.865C70.432 167.725 70.367 167.527 70.367 167.27V165.99H70.002V165.6H70.367V164.88H70.877V165.6H71.467V165.99H70.877V167.235C70.877 167.395 70.907 167.508 70.967 167.575C71.0303 167.642 71.1436 167.675 71.307 167.675C71.4036 167.675 71.5003 167.653 71.597 167.61V168.01C71.4703 168.053 71.3136 168.075 71.127 168.075ZM77.1877 168.075C76.921 168.075 76.6843 168.025 76.4777 167.925C76.271 167.825 76.1093 167.68 75.9927 167.49C75.8793 167.297 75.8227 167.068 75.8227 166.805C75.8227 166.542 75.8793 166.315 75.9927 166.125C76.1093 165.932 76.271 165.783 76.4777 165.68C76.6877 165.577 76.9277 165.525 77.1977 165.525C77.5643 165.525 77.8577 165.597 78.0777 165.74V166.155C77.861 166.005 77.5843 165.93 77.2477 165.93C76.9743 165.93 76.7527 166.005 76.5827 166.155C76.416 166.302 76.3327 166.518 76.3327 166.805C76.3327 167.092 76.416 167.308 76.5827 167.455C76.7493 167.602 76.9677 167.675 77.2377 167.675C77.5743 167.675 77.8643 167.595 78.1077 167.435V167.845C77.991 167.925 77.8577 167.983 77.7077 168.02C77.561 168.057 77.3877 168.075 77.1877 168.075ZM80.977 168.075C80.5337 168.075 80.1854 167.965 79.932 167.745C79.682 167.522 79.557 167.208 79.557 166.805C79.557 166.412 79.6687 166.1 79.892 165.87C80.1187 165.64 80.4404 165.525 80.857 165.525C81.1337 165.525 81.3687 165.578 81.562 165.685C81.7554 165.788 81.9004 165.933 81.997 166.12C82.097 166.303 82.147 166.513 82.147 166.75V167H80.037C80.0537 167.227 80.1487 167.397 80.322 167.51C80.4987 167.62 80.737 167.675 81.037 167.675C81.1904 167.675 81.3454 167.662 81.502 167.635C81.6587 167.605 81.797 167.567 81.917 167.52V167.925C81.8104 167.968 81.6687 168.003 81.492 168.03C81.3187 168.06 81.147 168.075 80.977 168.075ZM81.672 166.645C81.6654 166.418 81.5904 166.243 81.447 166.12C81.307 165.993 81.107 165.93 80.847 165.93C80.5937 165.93 80.397 165.995 80.257 166.125C80.117 166.255 80.0437 166.428 80.037 166.645H81.672ZM84.559 168.075C84.269 168.075 84.0357 168.002 83.859 167.855C83.6857 167.705 83.599 167.503 83.599 167.25C83.599 166.983 83.6824 166.778 83.849 166.635C84.019 166.488 84.259 166.415 84.569 166.415C84.899 166.415 85.179 166.482 85.409 166.615V166.49C85.409 166.3 85.3507 166.16 85.234 166.07C85.1207 165.977 84.9407 165.93 84.694 165.93C84.5474 165.93 84.404 165.945 84.264 165.975C84.1274 166.002 84.004 166.04 83.894 166.09V165.68C83.994 165.633 84.124 165.597 84.284 165.57C84.444 165.54 84.599 165.525 84.749 165.525C85.1457 165.525 85.439 165.613 85.629 165.79C85.8224 165.963 85.919 166.205 85.919 166.515V168H85.444V167.73C85.3407 167.843 85.2174 167.93 85.074 167.99C84.934 168.047 84.7624 168.075 84.559 168.075ZM84.684 167.69C84.844 167.69 84.989 167.658 85.119 167.595C85.249 167.532 85.3457 167.443 85.409 167.33V167.005C85.1924 166.865 84.9507 166.795 84.684 166.795C84.4907 166.795 84.3457 166.833 84.249 166.91C84.1557 166.983 84.109 167.097 84.109 167.25C84.109 167.543 84.3007 167.69 84.684 167.69ZM88.3575 168.075C88.1908 168.075 88.0141 168.053 87.8275 168.01C87.6408 167.97 87.4941 167.915 87.3875 167.845V167.415C87.5175 167.492 87.6675 167.555 87.8375 167.605C88.0075 167.652 88.1725 167.675 88.3325 167.675C88.5125 167.675 88.6441 167.653 88.7275 167.61C88.8108 167.567 88.8525 167.497 88.8525 167.4C88.8525 167.327 88.8325 167.268 88.7925 167.225C88.7558 167.178 88.6908 167.137 88.5975 167.1C88.5075 167.063 88.3708 167.02 88.1875 166.97C87.9908 166.913 87.8341 166.857 87.7175 166.8C87.6041 166.74 87.5175 166.665 87.4575 166.575C87.4008 166.485 87.3725 166.368 87.3725 166.225C87.3725 165.995 87.4625 165.822 87.6425 165.705C87.8258 165.585 88.0708 165.525 88.3775 165.525C88.5375 165.525 88.6941 165.54 88.8475 165.57C89.0008 165.6 89.1241 165.642 89.2175 165.695V166.115C89.1208 166.058 89.0008 166.013 88.8575 165.98C88.7175 165.947 88.5741 165.93 88.4275 165.93C88.2508 165.93 88.1158 165.952 88.0225 165.995C87.9291 166.038 87.8825 166.115 87.8825 166.225C87.8825 166.295 87.9025 166.352 87.9425 166.395C87.9825 166.438 88.0458 166.477 88.1325 166.51C88.2225 166.54 88.3641 166.58 88.5575 166.63C88.8608 166.713 89.0708 166.812 89.1875 166.925C89.3075 167.038 89.3675 167.195 89.3675 167.395C89.3675 167.602 89.2825 167.767 89.1125 167.89C88.9425 168.013 88.6908 168.075 88.3575 168.075ZM92.2388 168.075C91.7954 168.075 91.4471 167.965 91.1938 167.745C90.9438 167.522 90.8188 167.208 90.8188 166.805C90.8188 166.412 90.9304 166.1 91.1538 165.87C91.3804 165.64 91.7021 165.525 92.1188 165.525C92.3954 165.525 92.6304 165.578 92.8238 165.685C93.0171 165.788 93.1621 165.933 93.2588 166.12C93.3588 166.303 93.4088 166.513 93.4088 166.75V167H91.2988C91.3154 167.227 91.4104 167.397 91.5838 167.51C91.7604 167.62 91.9988 167.675 92.2988 167.675C92.4521 167.675 92.6071 167.662 92.7638 167.635C92.9204 167.605 93.0588 167.567 93.1788 167.52V167.925C93.0721 167.968 92.9304 168.003 92.7538 168.03C92.5804 168.06 92.4088 168.075 92.2388 168.075ZM92.9338 166.645C92.9271 166.418 92.8521 166.243 92.7088 166.12C92.5688 165.993 92.3688 165.93 92.1088 165.93C91.8554 165.93 91.6588 165.995 91.5188 166.125C91.3788 166.255 91.3054 166.428 91.2988 166.645H92.9338ZM95.8457 168.075C95.6791 168.075 95.5024 168.053 95.3157 168.01C95.1291 167.97 94.9824 167.915 94.8757 167.845V167.415C95.0057 167.492 95.1557 167.555 95.3257 167.605C95.4957 167.652 95.6607 167.675 95.8207 167.675C96.0007 167.675 96.1324 167.653 96.2157 167.61C96.2991 167.567 96.3407 167.497 96.3407 167.4C96.3407 167.327 96.3207 167.268 96.2807 167.225C96.2441 167.178 96.1791 167.137 96.0857 167.1C95.9957 167.063 95.8591 167.02 95.6757 166.97C95.4791 166.913 95.3224 166.857 95.2057 166.8C95.0924 166.74 95.0057 166.665 94.9457 166.575C94.8891 166.485 94.8607 166.368 94.8607 166.225C94.8607 165.995 94.9507 165.822 95.1307 165.705C95.3141 165.585 95.5591 165.525 95.8657 165.525C96.0257 165.525 96.1824 165.54 96.3357 165.57C96.4891 165.6 96.6124 165.642 96.7057 165.695V166.115C96.6091 166.058 96.4891 166.013 96.3457 165.98C96.2057 165.947 96.0624 165.93 95.9157 165.93C95.7391 165.93 95.6041 165.952 95.5107 165.995C95.4174 166.038 95.3707 166.115 95.3707 166.225C95.3707 166.295 95.3907 166.352 95.4307 166.395C95.4707 166.438 95.5341 166.477 95.6207 166.51C95.7107 166.54 95.8524 166.58 96.0457 166.63C96.3491 166.713 96.5591 166.812 96.6757 166.925C96.7957 167.038 96.8557 167.195 96.8557 167.395C96.8557 167.602 96.7707 167.767 96.6007 167.89C96.4307 168.013 96.1791 168.075 95.8457 168.075ZM101.258 165.6H101.738V165.945C101.851 165.805 101.979 165.7 102.123 165.63C102.266 165.56 102.414 165.525 102.568 165.525C102.761 165.525 102.914 165.558 103.028 165.625C103.141 165.688 103.224 165.787 103.278 165.92C103.384 165.79 103.514 165.692 103.668 165.625C103.824 165.558 103.981 165.525 104.138 165.525C104.431 165.525 104.643 165.6 104.773 165.75C104.903 165.897 104.968 166.115 104.968 166.405V168H104.478V166.47C104.478 166.273 104.441 166.135 104.368 166.055C104.294 165.972 104.169 165.93 103.993 165.93C103.739 165.93 103.533 166.04 103.373 166.26C103.379 166.31 103.383 166.392 103.383 166.505V168H102.893V166.47C102.893 166.273 102.859 166.135 102.793 166.055C102.726 165.972 102.606 165.93 102.433 165.93C102.179 165.93 101.953 166.073 101.753 166.36V168H101.258V165.6ZM107.785 168.075C107.515 168.075 107.277 168.025 107.07 167.925C106.867 167.822 106.707 167.675 106.59 167.485C106.477 167.292 106.42 167.065 106.42 166.805C106.42 166.548 106.477 166.323 106.59 166.13C106.704 165.937 106.864 165.788 107.07 165.685C107.277 165.578 107.515 165.525 107.785 165.525C108.055 165.525 108.294 165.578 108.5 165.685C108.707 165.788 108.867 165.937 108.98 166.13C109.097 166.323 109.155 166.548 109.155 166.805C109.155 167.065 109.097 167.292 108.98 167.485C108.867 167.675 108.707 167.822 108.5 167.925C108.294 168.025 108.055 168.075 107.785 168.075ZM107.785 167.675C108.045 167.675 108.252 167.595 108.405 167.435C108.559 167.275 108.635 167.065 108.635 166.805C108.635 166.535 108.559 166.322 108.405 166.165C108.252 166.008 108.045 165.93 107.785 165.93C107.525 165.93 107.319 166.008 107.165 166.165C107.012 166.322 106.935 166.535 106.935 166.805C106.935 167.065 107.012 167.275 107.165 167.435C107.319 167.595 107.525 167.675 107.785 167.675ZM110.277 165.6H110.812L111.517 167.325L112.222 165.6H112.757L111.737 168H111.297L110.277 165.6ZM114.601 165.13C114.518 165.13 114.448 165.102 114.391 165.045C114.335 164.988 114.306 164.918 114.306 164.835C114.306 164.752 114.335 164.682 114.391 164.625C114.448 164.568 114.518 164.54 114.601 164.54C114.688 164.54 114.76 164.568 114.816 164.625C114.876 164.682 114.906 164.752 114.906 164.835C114.906 164.918 114.876 164.988 114.816 165.045C114.76 165.102 114.688 165.13 114.601 165.13ZM114.346 165.6H114.861V168H114.346V165.6ZM116.556 165.6H117.046V165.945C117.16 165.802 117.298 165.697 117.461 165.63C117.628 165.56 117.801 165.525 117.981 165.525C118.301 165.525 118.54 165.61 118.696 165.78C118.853 165.95 118.931 166.178 118.931 166.465V168H118.426V166.515C118.426 166.125 118.24 165.93 117.866 165.93C117.706 165.93 117.556 165.968 117.416 166.045C117.28 166.118 117.161 166.232 117.061 166.385V168H116.556V165.6ZM121.809 169.15C121.646 169.15 121.486 169.137 121.329 169.11C121.176 169.083 121.046 169.045 120.939 168.995V168.58C121.189 168.693 121.479 168.75 121.809 168.75C122.119 168.75 122.344 168.682 122.484 168.545C122.628 168.412 122.699 168.208 122.699 167.935V167.68C122.479 167.943 122.156 168.075 121.729 168.075C121.486 168.075 121.268 168.022 121.074 167.915C120.881 167.808 120.729 167.658 120.619 167.465C120.509 167.272 120.454 167.05 120.454 166.8C120.454 166.547 120.508 166.325 120.614 166.135C120.724 165.942 120.874 165.792 121.064 165.685C121.258 165.578 121.474 165.525 121.714 165.525C121.938 165.525 122.126 165.558 122.279 165.625C122.436 165.688 122.581 165.795 122.714 165.945V165.6H123.204V167.88C123.204 168.29 123.089 168.603 122.859 168.82C122.633 169.04 122.283 169.15 121.809 169.15ZM121.829 167.675C122.036 167.675 122.218 167.62 122.374 167.51C122.534 167.4 122.643 167.253 122.699 167.07V166.53C122.636 166.343 122.526 166.197 122.369 166.09C122.216 165.983 122.036 165.93 121.829 165.93C121.666 165.93 121.518 165.967 121.384 166.04C121.254 166.11 121.151 166.212 121.074 166.345C121.001 166.478 120.964 166.63 120.964 166.8C120.964 166.973 121.001 167.127 121.074 167.26C121.151 167.39 121.254 167.492 121.384 167.565C121.518 167.638 121.666 167.675 121.829 167.675ZM17.49 173.99H17.125V173.6H17.49V173.13C17.49 172.853 17.5683 172.643 17.725 172.5C17.8817 172.353 18.0917 172.28 18.355 172.28C18.4917 172.28 18.62 172.3 18.74 172.34V172.76C18.6467 172.717 18.55 172.695 18.45 172.695C18.2933 172.695 18.1783 172.733 18.105 172.81C18.0317 172.883 17.995 173 17.995 173.16V173.6H18.595V173.99H17.995V176H17.49V173.99ZM21.1769 176.075C20.9069 176.075 20.6686 176.025 20.4619 175.925C20.2586 175.822 20.0986 175.675 19.9819 175.485C19.8686 175.292 19.8119 175.065 19.8119 174.805C19.8119 174.548 19.8686 174.323 19.9819 174.13C20.0952 173.937 20.2552 173.788 20.4619 173.685C20.6686 173.578 20.9069 173.525 21.1769 173.525C21.4469 173.525 21.6852 173.578 21.8919 173.685C22.0986 173.788 22.2586 173.937 22.3719 174.13C22.4886 174.323 22.5469 174.548 22.5469 174.805C22.5469 175.065 22.4886 175.292 22.3719 175.485C22.2586 175.675 22.0986 175.822 21.8919 175.925C21.6852 176.025 21.4469 176.075 21.1769 176.075ZM21.1769 175.675C21.4369 175.675 21.6436 175.595 21.7969 175.435C21.9502 175.275 22.0269 175.065 22.0269 174.805C22.0269 174.535 21.9502 174.322 21.7969 174.165C21.6436 174.008 21.4369 173.93 21.1769 173.93C20.9169 173.93 20.7102 174.008 20.5569 174.165C20.4036 174.322 20.3269 174.535 20.3269 174.805C20.3269 175.065 20.4036 175.275 20.5569 175.435C20.7102 175.595 20.9169 175.675 21.1769 175.675ZM24.0955 173.6H24.5855V174.03C24.6855 173.883 24.8255 173.775 25.0055 173.705C25.1888 173.635 25.4005 173.6 25.6405 173.6V173.995C25.3838 173.995 25.1638 174.037 24.9805 174.12C24.7972 174.203 24.6705 174.335 24.6005 174.515V176H24.0955V173.6ZM30.8032 176.075C30.5132 176.075 30.2798 176.002 30.1032 175.855C29.9298 175.705 29.8432 175.503 29.8432 175.25C29.8432 174.983 29.9265 174.778 30.0932 174.635C30.2632 174.488 30.5032 174.415 30.8132 174.415C31.1432 174.415 31.4232 174.482 31.6532 174.615V174.49C31.6532 174.3 31.5948 174.16 31.4782 174.07C31.3648 173.977 31.1848 173.93 30.9382 173.93C30.7915 173.93 30.6482 173.945 30.5082 173.975C30.3715 174.002 30.2482 174.04 30.1382 174.09V173.68C30.2382 173.633 30.3682 173.597 30.5282 173.57C30.6882 173.54 30.8432 173.525 30.9932 173.525C31.3898 173.525 31.6832 173.613 31.8732 173.79C32.0665 173.963 32.1632 174.205 32.1632 174.515V176H31.6882V175.73C31.5848 175.843 31.4615 175.93 31.3182 175.99C31.1782 176.047 31.0065 176.075 30.8032 176.075ZM30.9282 175.69C31.0882 175.69 31.2332 175.658 31.3632 175.595C31.4932 175.532 31.5898 175.443 31.6532 175.33V175.005C31.4365 174.865 31.1948 174.795 30.9282 174.795C30.7348 174.795 30.5898 174.833 30.4932 174.91C30.3998 174.983 30.3532 175.097 30.3532 175.25C30.3532 175.543 30.5448 175.69 30.9282 175.69ZM36.6404 172.305H37.1454V176H36.6404V172.305ZM40.0627 176.075C39.7927 176.075 39.5543 176.025 39.3477 175.925C39.1443 175.822 38.9843 175.675 38.8677 175.485C38.7543 175.292 38.6977 175.065 38.6977 174.805C38.6977 174.548 38.7543 174.323 38.8677 174.13C38.981 173.937 39.141 173.788 39.3477 173.685C39.5543 173.578 39.7927 173.525 40.0627 173.525C40.3327 173.525 40.571 173.578 40.7777 173.685C40.9843 173.788 41.1443 173.937 41.2577 174.13C41.3743 174.323 41.4327 174.548 41.4327 174.805C41.4327 175.065 41.3743 175.292 41.2577 175.485C41.1443 175.675 40.9843 175.822 40.7777 175.925C40.571 176.025 40.3327 176.075 40.0627 176.075ZM40.0627 175.675C40.3227 175.675 40.5293 175.595 40.6827 175.435C40.836 175.275 40.9127 175.065 40.9127 174.805C40.9127 174.535 40.836 174.322 40.6827 174.165C40.5293 174.008 40.3227 173.93 40.0627 173.93C39.8027 173.93 39.596 174.008 39.4427 174.165C39.2893 174.322 39.2127 174.535 39.2127 174.805C39.2127 175.065 39.2893 175.275 39.4427 175.435C39.596 175.595 39.8027 175.675 40.0627 175.675ZM42.9813 173.6H43.4713V173.945C43.5846 173.802 43.7229 173.697 43.8863 173.63C44.0529 173.56 44.2263 173.525 44.4063 173.525C44.7263 173.525 44.9646 173.61 45.1213 173.78C45.2779 173.95 45.3563 174.178 45.3563 174.465V176H44.8513V174.515C44.8513 174.125 44.6646 173.93 44.2913 173.93C44.1313 173.93 43.9813 173.968 43.8413 174.045C43.7046 174.118 43.5863 174.232 43.4863 174.385V176H42.9813V173.6ZM48.2343 177.15C48.071 177.15 47.911 177.137 47.7543 177.11C47.601 177.083 47.471 177.045 47.3643 176.995V176.58C47.6143 176.693 47.9043 176.75 48.2343 176.75C48.5443 176.75 48.7693 176.682 48.9093 176.545C49.0526 176.412 49.1243 176.208 49.1243 175.935V175.68C48.9043 175.943 48.581 176.075 48.1543 176.075C47.911 176.075 47.6926 176.022 47.4993 175.915C47.306 175.808 47.1543 175.658 47.0443 175.465C46.9343 175.272 46.8793 175.05 46.8793 174.8C46.8793 174.547 46.9326 174.325 47.0393 174.135C47.1493 173.942 47.2993 173.792 47.4893 173.685C47.6826 173.578 47.8993 173.525 48.1393 173.525C48.3626 173.525 48.551 173.558 48.7043 173.625C48.861 173.688 49.006 173.795 49.1393 173.945V173.6H49.6293V175.88C49.6293 176.29 49.5143 176.603 49.2843 176.82C49.0576 177.04 48.7076 177.15 48.2343 177.15ZM48.2543 175.675C48.461 175.675 48.6426 175.62 48.7993 175.51C48.9593 175.4 49.0676 175.253 49.1243 175.07V174.53C49.061 174.343 48.951 174.197 48.7943 174.09C48.641 173.983 48.461 173.93 48.2543 173.93C48.091 173.93 47.9426 173.967 47.8093 174.04C47.6793 174.11 47.576 174.212 47.4993 174.345C47.426 174.478 47.3893 174.63 47.3893 174.8C47.3893 174.973 47.426 175.127 47.4993 175.26C47.576 175.39 47.6793 175.492 47.8093 175.565C47.9426 175.638 48.091 175.675 48.2543 175.675ZM54.1307 173.6H54.6207V173.955C54.8673 173.668 55.2007 173.525 55.6207 173.525C55.8607 173.525 56.0757 173.578 56.2657 173.685C56.459 173.792 56.609 173.942 56.7157 174.135C56.8257 174.325 56.8807 174.547 56.8807 174.8C56.8807 175.05 56.8257 175.272 56.7157 175.465C56.609 175.658 56.4607 175.808 56.2707 175.915C56.0807 176.022 55.864 176.075 55.6207 176.075C55.4207 176.075 55.234 176.042 55.0607 175.975C54.8873 175.908 54.7457 175.81 54.6357 175.68V177.095H54.1307V173.6ZM55.5057 175.675C55.669 175.675 55.8157 175.64 55.9457 175.57C56.079 175.497 56.1823 175.393 56.2557 175.26C56.3323 175.127 56.3707 174.973 56.3707 174.8C56.3707 174.627 56.3323 174.475 56.2557 174.345C56.1823 174.212 56.079 174.11 55.9457 174.04C55.8157 173.967 55.669 173.93 55.5057 173.93C55.3023 173.93 55.1223 173.983 54.9657 174.09C54.8123 174.197 54.7023 174.343 54.6357 174.53V175.07C54.6923 175.253 54.8007 175.4 54.9607 175.51C55.1207 175.62 55.3023 175.675 55.5057 175.675ZM59.7514 176.075C59.3081 176.075 58.9598 175.965 58.7064 175.745C58.4564 175.522 58.3314 175.208 58.3314 174.805C58.3314 174.412 58.4431 174.1 58.6664 173.87C58.8931 173.64 59.2148 173.525 59.6314 173.525C59.9081 173.525 60.1431 173.578 60.3364 173.685C60.5298 173.788 60.6748 173.933 60.7714 174.12C60.8714 174.303 60.9214 174.513 60.9214 174.75V175H58.8114C58.8281 175.227 58.9231 175.397 59.0964 175.51C59.2731 175.62 59.5114 175.675 59.8114 175.675C59.9648 175.675 60.1198 175.662 60.2764 175.635C60.4331 175.605 60.5714 175.567 60.6914 175.52V175.925C60.5848 175.968 60.4431 176.003 60.2664 176.03C60.0931 176.06 59.9214 176.075 59.7514 176.075ZM60.4464 174.645C60.4398 174.418 60.3648 174.243 60.2214 174.12C60.0814 173.993 59.8814 173.93 59.6214 173.93C59.3681 173.93 59.1714 173.995 59.0314 174.125C58.8914 174.255 58.8181 174.428 58.8114 174.645H60.4464ZM62.4734 173.6H62.9634V174.03C63.0634 173.883 63.2034 173.775 63.3834 173.705C63.5668 173.635 63.7784 173.6 64.0184 173.6V173.995C63.7618 173.995 63.5418 174.037 63.3584 174.12C63.1751 174.203 63.0484 174.335 62.9784 174.515V176H62.4734V173.6ZM65.7655 173.13C65.6822 173.13 65.6122 173.102 65.5555 173.045C65.4988 172.988 65.4705 172.918 65.4705 172.835C65.4705 172.752 65.4988 172.682 65.5555 172.625C65.6122 172.568 65.6822 172.54 65.7655 172.54C65.8522 172.54 65.9238 172.568 65.9805 172.625C66.0405 172.682 66.0705 172.752 66.0705 172.835C66.0705 172.918 66.0405 172.988 65.9805 173.045C65.9238 173.102 65.8522 173.13 65.7655 173.13ZM65.5105 173.6H66.0255V176H65.5105V173.6ZM68.9855 176.075C68.7155 176.075 68.4772 176.025 68.2705 175.925C68.0672 175.822 67.9072 175.675 67.7905 175.485C67.6772 175.292 67.6205 175.065 67.6205 174.805C67.6205 174.548 67.6772 174.323 67.7905 174.13C67.9038 173.937 68.0638 173.788 68.2705 173.685C68.4772 173.578 68.7155 173.525 68.9855 173.525C69.2555 173.525 69.4938 173.578 69.7005 173.685C69.9072 173.788 70.0672 173.937 70.1805 174.13C70.2972 174.323 70.3555 174.548 70.3555 174.805C70.3555 175.065 70.2972 175.292 70.1805 175.485C70.0672 175.675 69.9072 175.822 69.7005 175.925C69.4938 176.025 69.2555 176.075 68.9855 176.075ZM68.9855 175.675C69.2455 175.675 69.4522 175.595 69.6055 175.435C69.7588 175.275 69.8355 175.065 69.8355 174.805C69.8355 174.535 69.7588 174.322 69.6055 174.165C69.4522 174.008 69.2455 173.93 68.9855 173.93C68.7255 173.93 68.5188 174.008 68.3655 174.165C68.2122 174.322 68.1355 174.535 68.1355 174.805C68.1355 175.065 68.2122 175.275 68.3655 175.435C68.5188 175.595 68.7255 175.675 68.9855 175.675ZM72.9909 176.075C72.7509 176.075 72.5342 176.023 72.3409 175.92C72.1509 175.813 72.0009 175.665 71.8909 175.475C71.7842 175.282 71.7309 175.058 71.7309 174.805C71.7309 174.555 71.7842 174.333 71.8909 174.14C72.0009 173.947 72.1509 173.797 72.3409 173.69C72.5342 173.58 72.7509 173.525 72.9909 173.525C73.4242 173.525 73.7525 173.657 73.9759 173.92V172.305H74.4809V176H73.9909V175.65C73.8575 175.797 73.7109 175.905 73.5509 175.975C73.3942 176.042 73.2075 176.075 72.9909 176.075ZM73.1059 175.675C73.3125 175.675 73.4925 175.622 73.6459 175.515C73.8025 175.405 73.9125 175.258 73.9759 175.075V174.535C73.9192 174.352 73.8109 174.205 73.6509 174.095C73.4942 173.985 73.3125 173.93 73.1059 173.93C72.9425 173.93 72.7942 173.967 72.6609 174.04C72.5309 174.113 72.4275 174.217 72.3509 174.35C72.2775 174.483 72.2409 174.635 72.2409 174.805C72.2409 174.975 72.2775 175.127 72.3509 175.26C72.4275 175.393 72.5309 175.497 72.6609 175.57C72.7942 175.64 72.9425 175.675 73.1059 175.675ZM80.2472 176.075C79.9772 176.075 79.7389 176.025 79.5322 175.925C79.3289 175.822 79.1689 175.675 79.0522 175.485C78.9389 175.292 78.8822 175.065 78.8822 174.805C78.8822 174.548 78.9389 174.323 79.0522 174.13C79.1656 173.937 79.3256 173.788 79.5322 173.685C79.7389 173.578 79.9772 173.525 80.2472 173.525C80.5172 173.525 80.7556 173.578 80.9622 173.685C81.1689 173.788 81.3289 173.937 81.4422 174.13C81.5589 174.323 81.6172 174.548 81.6172 174.805C81.6172 175.065 81.5589 175.292 81.4422 175.485C81.3289 175.675 81.1689 175.822 80.9622 175.925C80.7556 176.025 80.5172 176.075 80.2472 176.075ZM80.2472 175.675C80.5072 175.675 80.7139 175.595 80.8672 175.435C81.0206 175.275 81.0972 175.065 81.0972 174.805C81.0972 174.535 81.0206 174.322 80.8672 174.165C80.7139 174.008 80.5072 173.93 80.2472 173.93C79.9872 173.93 79.7806 174.008 79.6272 174.165C79.4739 174.322 79.3972 174.535 79.3972 174.805C79.3972 175.065 79.4739 175.275 79.6272 175.435C79.7806 175.595 79.9872 175.675 80.2472 175.675ZM83.155 173.99H82.79V173.6H83.155V173.13C83.155 172.853 83.2334 172.643 83.39 172.5C83.5467 172.353 83.7567 172.28 84.02 172.28C84.1567 172.28 84.285 172.3 84.405 172.34V172.76C84.3117 172.717 84.215 172.695 84.115 172.695C83.9584 172.695 83.8434 172.733 83.77 172.81C83.6967 172.883 83.66 173 83.66 173.16V173.6H84.26V173.99H83.66V176H83.155V173.99ZM89.5283 176.075C89.285 176.075 89.0967 176.005 88.9633 175.865C88.8333 175.725 88.7683 175.527 88.7683 175.27V173.99H88.4033V173.6H88.7683V172.88H89.2783V173.6H89.8683V173.99H89.2783V175.235C89.2783 175.395 89.3083 175.508 89.3683 175.575C89.4317 175.642 89.545 175.675 89.7083 175.675C89.805 175.675 89.9017 175.653 89.9983 175.61V176.01C89.8717 176.053 89.715 176.075 89.5283 176.075ZM91.7684 173.13C91.6851 173.13 91.6151 173.102 91.5584 173.045C91.5018 172.988 91.4734 172.918 91.4734 172.835C91.4734 172.752 91.5018 172.682 91.5584 172.625C91.6151 172.568 91.6851 172.54 91.7684 172.54C91.8551 172.54 91.9268 172.568 91.9834 172.625C92.0434 172.682 92.0734 172.752 92.0734 172.835C92.0734 172.918 92.0434 172.988 91.9834 173.045C91.9268 173.102 91.8551 173.13 91.7684 173.13ZM91.5134 173.6H92.0284V176H91.5134V173.6ZM93.7234 173.6H94.2034V173.945C94.3168 173.805 94.4451 173.7 94.5884 173.63C94.7318 173.56 94.8801 173.525 95.0334 173.525C95.2268 173.525 95.3801 173.558 95.4934 173.625C95.6068 173.688 95.6901 173.787 95.7434 173.92C95.8501 173.79 95.9801 173.692 96.1334 173.625C96.2901 173.558 96.4468 173.525 96.6034 173.525C96.8968 173.525 97.1084 173.6 97.2384 173.75C97.3684 173.897 97.4334 174.115 97.4334 174.405V176H96.9434V174.47C96.9434 174.273 96.9068 174.135 96.8334 174.055C96.7601 173.972 96.6351 173.93 96.4584 173.93C96.2051 173.93 95.9984 174.04 95.8384 174.26C95.8451 174.31 95.8484 174.392 95.8484 174.505V176H95.3584V174.47C95.3584 174.273 95.3251 174.135 95.2584 174.055C95.1918 173.972 95.0718 173.93 94.8984 173.93C94.6451 173.93 94.4184 174.073 94.2184 174.36V176H93.7234V173.6ZM100.379 176.075C99.936 176.075 99.5877 175.965 99.3344 175.745C99.0844 175.522 98.9594 175.208 98.9594 174.805C98.9594 174.412 99.071 174.1 99.2944 173.87C99.521 173.64 99.8427 173.525 100.259 173.525C100.536 173.525 100.771 173.578 100.964 173.685C101.158 173.788 101.303 173.933 101.399 174.12C101.499 174.303 101.549 174.513 101.549 174.75V175H99.4394C99.456 175.227 99.551 175.397 99.7244 175.51C99.901 175.62 100.139 175.675 100.439 175.675C100.593 175.675 100.748 175.662 100.904 175.635C101.061 175.605 101.199 175.567 101.319 175.52V175.925C101.213 175.968 101.071 176.003 100.894 176.03C100.721 176.06 100.549 176.075 100.379 176.075ZM101.074 174.645C101.068 174.418 100.993 174.243 100.849 174.12C100.709 173.993 100.509 173.93 100.249 173.93C99.996 173.93 99.7994 173.995 99.6594 174.125C99.5194 174.255 99.446 174.428 99.4394 174.645H101.074ZM103.236 176C103.17 176 103.113 175.978 103.066 175.935C103.023 175.888 103.001 175.832 103.001 175.765C103.001 175.698 103.023 175.642 103.066 175.595C103.113 175.548 103.17 175.525 103.236 175.525C103.303 175.525 103.36 175.548 103.406 175.595C103.453 175.642 103.476 175.698 103.476 175.765C103.476 175.832 103.453 175.888 103.406 175.935C103.36 175.978 103.303 176 103.236 176Z" fill="black"/>
<rect x="12.25" y="143.25" width="125.5" height="46.5" stroke="#6C6C6C" stroke-width="0.5"/>
<path d="M16.77 35.225C15.97 35.225 15.26 35.075 14.64 34.775C14.02 34.475 13.535 34.04 13.185 33.47C12.845 32.89 12.675 32.205 12.675 31.415C12.675 30.625 12.845 29.945 13.185 29.375C13.535 28.795 14.02 28.35 14.64 28.04C15.27 27.73 15.99 27.575 16.8 27.575C17.9 27.575 18.78 27.79 19.44 28.22V29.465C18.79 29.015 17.96 28.79 16.95 28.79C16.13 28.79 15.465 29.015 14.955 29.465C14.455 29.905 14.205 30.555 14.205 31.415C14.205 32.275 14.455 32.925 14.955 33.365C15.455 33.805 16.11 34.025 16.92 34.025C17.93 34.025 18.8 33.785 19.53 33.305V34.535C19.18 34.775 18.78 34.95 18.33 35.06C17.89 35.17 17.37 35.225 16.77 35.225ZM27.7534 35.225C26.9434 35.225 26.2284 35.075 25.6084 34.775C24.9984 34.465 24.5184 34.025 24.1684 33.455C23.8284 32.875 23.6584 32.195 23.6584 31.415C23.6584 30.645 23.8284 29.97 24.1684 29.39C24.5084 28.81 24.9884 28.365 25.6084 28.055C26.2284 27.735 26.9434 27.575 27.7534 27.575C28.5634 27.575 29.2784 27.735 29.8984 28.055C30.5184 28.365 30.9984 28.81 31.3384 29.39C31.6884 29.97 31.8634 30.645 31.8634 31.415C31.8634 32.195 31.6884 32.875 31.3384 33.455C30.9984 34.025 30.5184 34.465 29.8984 34.775C29.2784 35.075 28.5634 35.225 27.7534 35.225ZM27.7534 34.025C28.5334 34.025 29.1534 33.785 29.6134 33.305C30.0734 32.825 30.3034 32.195 30.3034 31.415C30.3034 30.605 30.0734 29.965 29.6134 29.495C29.1534 29.025 28.5334 28.79 27.7534 28.79C26.9734 28.79 26.3534 29.025 25.8934 29.495C25.4334 29.965 25.2034 30.605 25.2034 31.415C25.2034 32.195 25.4334 32.825 25.8934 33.305C26.3534 33.785 26.9734 34.025 27.7534 34.025ZM36.5092 23.915H38.0242V35H36.5092V23.915ZM46.4609 35.225C45.7409 35.225 45.0909 35.07 44.5109 34.76C43.9409 34.44 43.4909 33.995 43.1609 33.425C42.8409 32.845 42.6809 32.175 42.6809 31.415C42.6809 30.665 42.8409 30 43.1609 29.42C43.4909 28.84 43.9409 28.39 44.5109 28.07C45.0909 27.74 45.7409 27.575 46.4609 27.575C47.7609 27.575 48.7459 27.97 49.4159 28.76V23.915H50.9309V35H49.4609V33.95C49.0609 34.39 48.6209 34.715 48.1409 34.925C47.6709 35.125 47.1109 35.225 46.4609 35.225ZM46.8059 34.025C47.4259 34.025 47.9659 33.865 48.4259 33.545C48.8959 33.215 49.2259 32.775 49.4159 32.225V30.605C49.2459 30.055 48.9209 29.615 48.4409 29.285C47.9709 28.955 47.4259 28.79 46.8059 28.79C46.3159 28.79 45.8709 28.9 45.4709 29.12C45.0809 29.34 44.7709 29.65 44.5409 30.05C44.3209 30.45 44.2109 30.905 44.2109 31.415C44.2109 31.925 44.3209 32.38 44.5409 32.78C44.7709 33.18 45.0809 33.49 45.4709 33.71C45.8709 33.92 46.3159 34.025 46.8059 34.025ZM64.135 27.8H65.68L67.3 33.14L68.905 27.8H70.27L71.875 33.14L73.495 27.8H75.055L72.715 35H71.26L69.595 29.63L67.93 35H66.46L64.135 27.8ZM81.47 35.225C80.6 35.225 79.9 35.005 79.37 34.565C78.85 34.115 78.59 33.51 78.59 32.75C78.59 31.95 78.84 31.335 79.34 30.905C79.85 30.465 80.57 30.245 81.5 30.245C82.49 30.245 83.33 30.445 84.02 30.845V30.47C84.02 29.9 83.845 29.48 83.495 29.21C83.155 28.93 82.615 28.79 81.875 28.79C81.435 28.79 81.005 28.835 80.585 28.925C80.175 29.005 79.805 29.12 79.475 29.27V28.04C79.775 27.9 80.165 27.79 80.645 27.71C81.125 27.62 81.59 27.575 82.04 27.575C83.23 27.575 84.11 27.84 84.68 28.37C85.26 28.89 85.55 29.615 85.55 30.545V35H84.125V34.19C83.815 34.53 83.445 34.79 83.015 34.97C82.595 35.14 82.08 35.225 81.47 35.225ZM81.845 34.07C82.325 34.07 82.76 33.975 83.15 33.785C83.54 33.595 83.83 33.33 84.02 32.99V32.015C83.37 31.595 82.645 31.385 81.845 31.385C81.265 31.385 80.83 31.5 80.54 31.73C80.26 31.95 80.12 32.29 80.12 32.75C80.12 33.63 80.695 34.07 81.845 34.07ZM92.8242 35.225C92.0942 35.225 91.5292 35.015 91.1292 34.595C90.7392 34.175 90.5442 33.58 90.5442 32.81V28.97H89.4492V27.8H90.5442V25.64H92.0742V27.8H93.8442V28.97H92.0742V32.705C92.0742 33.185 92.1642 33.525 92.3442 33.725C92.5342 33.925 92.8742 34.025 93.3642 34.025C93.6542 34.025 93.9442 33.96 94.2342 33.83V35.03C93.8542 35.16 93.3842 35.225 92.8242 35.225ZM102.62 35.225C101.29 35.225 100.245 34.895 99.4846 34.235C98.7346 33.565 98.3596 32.625 98.3596 31.415C98.3596 30.235 98.6946 29.3 99.3646 28.61C100.045 27.92 101.01 27.575 102.26 27.575C103.09 27.575 103.795 27.735 104.375 28.055C104.955 28.365 105.39 28.8 105.68 29.36C105.98 29.91 106.13 30.54 106.13 31.25V32H99.7996C99.8496 32.68 100.135 33.19 100.655 33.53C101.185 33.86 101.9 34.025 102.8 34.025C103.26 34.025 103.725 33.985 104.195 33.905C104.665 33.815 105.08 33.7 105.44 33.56V34.775C105.12 34.905 104.695 35.01 104.165 35.09C103.645 35.18 103.13 35.225 102.62 35.225ZM104.705 30.935C104.685 30.255 104.46 29.73 104.03 29.36C103.61 28.98 103.01 28.79 102.23 28.79C101.47 28.79 100.88 28.985 100.46 29.375C100.04 29.765 99.8196 30.285 99.7996 30.935H104.705ZM110.786 27.8H112.256V29.09C112.556 28.65 112.976 28.325 113.516 28.115C114.066 27.905 114.701 27.8 115.421 27.8V28.985C114.651 28.985 113.991 29.11 113.441 29.36C112.891 29.61 112.511 30.005 112.301 30.545V35H110.786V27.8Z" fill="black"/>
<path d="M12.8691 19.0381L17.1807 17.1875V16.4746L12.8691 14.6289V15.5615L16.0283 16.7334L16.3213 16.8262L16.0283 16.9092L12.8691 18.1006V19.0381ZM20.875 19.0381L25.1865 17.1875V16.4746L20.875 14.6289V15.5615L24.0342 16.7334L24.3271 16.8262L24.0342 16.9092L20.875 18.1006V19.0381ZM37.375 20H38.0879L38.9033 16.7627L39.0352 15.9424L39.1719 16.7627L39.9971 20H40.71L41.833 14.7168H41.0322L40.4463 18.0859L40.3145 18.916L40.1729 18.0859L39.333 14.7168H38.752L37.9072 18.0859L37.7754 18.8428L37.668 18.0859L37.0527 14.7168H36.252L37.375 20ZM48.3447 20H49.2871V19.9219C49.2285 19.7754 49.1829 19.6045 49.1504 19.4092C49.1178 19.2106 49.1016 19.0234 49.1016 18.8477V16.3916C49.1016 16.0954 49.0479 15.8366 48.9404 15.6152C48.833 15.3939 48.6865 15.2083 48.501 15.0586C48.3122 14.9121 48.0892 14.8031 47.832 14.7314C47.5749 14.6566 47.2965 14.6191 46.9971 14.6191C46.6683 14.6191 46.3737 14.6647 46.1133 14.7559C45.8561 14.847 45.638 14.9658 45.459 15.1123C45.2767 15.262 45.1367 15.4297 45.0391 15.6152C44.9447 15.8008 44.8958 15.9896 44.8926 16.1816H45.8008C45.8008 16.071 45.8268 15.9652 45.8789 15.8643C45.9342 15.7601 46.0107 15.6706 46.1084 15.5957C46.2061 15.5208 46.3249 15.4606 46.4648 15.415C46.6081 15.3695 46.7692 15.3467 46.9482 15.3467C47.1403 15.3467 47.3128 15.3711 47.4658 15.4199C47.6221 15.4688 47.7539 15.5371 47.8613 15.625C47.9688 15.7161 48.0518 15.8252 48.1104 15.9521C48.1689 16.0791 48.1982 16.2223 48.1982 16.3818V16.7969H47.2119C46.8441 16.7969 46.5104 16.8327 46.2109 16.9043C45.9147 16.9759 45.6608 17.0833 45.4492 17.2266C45.2376 17.373 45.0732 17.5553 44.9561 17.7734C44.8421 17.9915 44.7852 18.2454 44.7852 18.5352C44.7852 18.7565 44.8275 18.9632 44.9121 19.1553C45 19.3441 45.1237 19.5068 45.2832 19.6436C45.4395 19.7835 45.6299 19.8942 45.8545 19.9756C46.0824 20.057 46.3363 20.0977 46.6162 20.0977C46.7887 20.0977 46.9515 20.0798 47.1045 20.0439C47.2575 20.0081 47.4023 19.9593 47.5391 19.8975C47.6725 19.8356 47.7946 19.764 47.9053 19.6826C48.0192 19.6012 48.1217 19.515 48.2129 19.4238C48.2227 19.5345 48.2373 19.6419 48.2568 19.7461C48.2796 19.847 48.3089 19.9316 48.3447 20ZM46.748 19.3115C46.5723 19.3115 46.4176 19.2887 46.2842 19.2432C46.1507 19.1976 46.04 19.1341 45.9521 19.0527C45.8643 18.9746 45.7975 18.8802 45.752 18.7695C45.7096 18.6589 45.6885 18.5384 45.6885 18.4082C45.6885 18.2715 45.7129 18.1494 45.7617 18.042C45.8138 17.9346 45.8887 17.8418 45.9863 17.7637C46.123 17.653 46.307 17.5716 46.5381 17.5195C46.7725 17.4642 47.0459 17.4365 47.3584 17.4365H48.1982V18.5059C48.1462 18.61 48.0745 18.7109 47.9834 18.8086C47.8923 18.903 47.7848 18.9876 47.6611 19.0625C47.5342 19.1374 47.3942 19.1976 47.2412 19.2432C47.0882 19.2887 46.9238 19.3115 46.748 19.3115ZM55.0176 13.4375H54.1094V14.7168H52.7227V15.415H54.1094V18.2861C54.1094 18.6117 54.1517 18.89 54.2363 19.1211C54.3242 19.349 54.443 19.5345 54.5928 19.6777C54.7425 19.8242 54.9183 19.9316 55.1201 20C55.3252 20.0651 55.5449 20.0977 55.7793 20.0977C55.9193 20.0977 56.0592 20.0911 56.1992 20.0781C56.3424 20.0651 56.4775 20.0456 56.6045 20.0195C56.7314 19.9967 56.8486 19.9691 56.9561 19.9365C57.0635 19.9007 57.1546 19.86 57.2295 19.8145L57.1025 19.1748C57.0472 19.1878 56.9756 19.2041 56.8877 19.2236C56.8031 19.2399 56.7119 19.2562 56.6143 19.2725C56.5133 19.2887 56.4108 19.3034 56.3066 19.3164C56.2025 19.3262 56.1016 19.3311 56.0039 19.3311C55.8704 19.3311 55.7435 19.3148 55.623 19.2822C55.5059 19.2497 55.4017 19.1927 55.3105 19.1113C55.2194 19.0332 55.1478 18.9274 55.0957 18.7939C55.0436 18.6605 55.0176 18.4912 55.0176 18.2861V15.415H57.0293V14.7168H55.0176V13.4375ZM63.2188 20.0977C63.7331 20.0977 64.1644 19.9951 64.5127 19.79C64.8643 19.5817 65.1279 19.3441 65.3037 19.0771L64.752 18.6475C64.5859 18.8623 64.3776 19.0348 64.127 19.165C63.8763 19.2952 63.5898 19.3604 63.2676 19.3604C63.0234 19.3604 62.8005 19.3148 62.5986 19.2236C62.3968 19.1325 62.2243 19.0072 62.0811 18.8477C61.9411 18.6979 61.8304 18.5254 61.749 18.3301C61.6709 18.1348 61.6204 17.9085 61.5977 17.6514V17.6172H65.3721V17.2119C65.3721 16.8441 65.3249 16.5023 65.2305 16.1865C65.1393 15.8708 64.9993 15.5957 64.8105 15.3613C64.6217 15.1302 64.3841 14.9495 64.0977 14.8193C63.8145 14.6859 63.4824 14.6191 63.1016 14.6191C62.7988 14.6191 62.5026 14.681 62.2129 14.8047C61.9264 14.9284 61.6709 15.1058 61.4463 15.3369C61.2184 15.5713 61.0361 15.8577 60.8994 16.1963C60.7627 16.5316 60.6943 16.9124 60.6943 17.3389V17.5439C60.6943 17.9118 60.7562 18.252 60.8799 18.5645C61.0036 18.877 61.1761 19.1471 61.3975 19.375C61.6188 19.6029 61.8841 19.7803 62.1934 19.9072C62.5059 20.0342 62.8477 20.0977 63.2188 20.0977ZM63.1016 15.3613C63.3327 15.3613 63.5312 15.4036 63.6973 15.4883C63.8665 15.5729 64.0065 15.6836 64.1172 15.8203C64.2279 15.957 64.3141 16.1198 64.376 16.3086C64.4378 16.4941 64.4688 16.6683 64.4688 16.8311V16.875H61.627C61.6628 16.6309 61.7246 16.416 61.8125 16.2305C61.9036 16.0417 62.0143 15.8822 62.1445 15.752C62.2747 15.625 62.4212 15.529 62.584 15.4639C62.7467 15.3955 62.9193 15.3613 63.1016 15.3613ZM72.3525 14.6191C71.9684 14.6191 71.625 14.7038 71.3223 14.873C71.0228 15.0391 70.7656 15.2669 70.5508 15.5566L70.5459 15.4248L70.5068 14.7168H69.6475V20H70.5557V16.6113C70.6143 16.4486 70.6875 16.3021 70.7754 16.1719C70.8665 16.0384 70.9723 15.9261 71.0928 15.835C71.2262 15.7308 71.3825 15.6527 71.5615 15.6006C71.7406 15.5452 71.9408 15.5176 72.1621 15.5176C72.3346 15.5176 72.499 15.5273 72.6553 15.5469C72.8148 15.5632 72.9824 15.5908 73.1582 15.6299L73.2803 14.7461C73.1891 14.707 73.0524 14.6761 72.8701 14.6533C72.6911 14.6305 72.5186 14.6191 72.3525 14.6191Z" fill="#707070"/>
<path d="M33.5 117L44 113H102L110 114.5L116.5 123L111 129.5L84 127.5L69 132.5L41 129.5L28 123L33.5 117Z" fill="#65B5FF"/>
<path d="M110.927 85.4444L94.7317 73.2222L78.5366 51L56.2683 68.7778L34 84.3333V105.444L58.2927 121L90.6829 118.778L117 104.333L110.927 85.4444Z" fill="#8FFFFF"/>
<path d="M57 97L58.5 85H60V97H57Z" fill="#333333"/>
<path d="M86 97L84.5 85H83V97H86Z" fill="#333333"/>
</svg>
