<svg width="150" height="201" viewBox="0 0 150 201" fill="none" xmlns="http://www.w3.org/2000/svg">
<rect width="150" height="200.602" fill="white"/>
<path d="M18.21 150.375H17.125V149.945H19.81V150.375H18.725V153.44H18.21V150.375ZM21.2596 149.745H21.7646V151.37C21.9946 151.1 22.3012 150.965 22.6846 150.965C23.0046 150.965 23.2429 151.05 23.3996 151.22C23.5562 151.39 23.6346 151.618 23.6346 151.905V153.44H23.1296V151.955C23.1296 151.565 22.9429 151.37 22.5696 151.37C22.4096 151.37 22.2596 151.408 22.1196 151.485C21.9829 151.558 21.8646 151.671 21.7646 151.825V153.44H21.2596V149.745ZM25.5526 150.57C25.4693 150.57 25.3993 150.541 25.3426 150.485C25.286 150.428 25.2576 150.358 25.2576 150.275C25.2576 150.191 25.286 150.121 25.3426 150.065C25.3993 150.008 25.4693 149.98 25.5526 149.98C25.6393 149.98 25.711 150.008 25.7676 150.065C25.8276 150.121 25.8576 150.191 25.8576 150.275C25.8576 150.358 25.8276 150.428 25.7676 150.485C25.711 150.541 25.6393 150.57 25.5526 150.57ZM25.2976 151.04H25.8126V153.44H25.2976V151.04ZM28.3926 153.515C28.226 153.515 28.0493 153.493 27.8626 153.45C27.676 153.41 27.5293 153.355 27.4226 153.285V152.855C27.5526 152.931 27.7026 152.995 27.8726 153.045C28.0426 153.091 28.2076 153.115 28.3676 153.115C28.5476 153.115 28.6793 153.093 28.7626 153.05C28.846 153.006 28.8876 152.936 28.8876 152.84C28.8876 152.766 28.8676 152.708 28.8276 152.665C28.791 152.618 28.726 152.576 28.6326 152.54C28.5426 152.503 28.406 152.46 28.2226 152.41C28.026 152.353 27.8693 152.296 27.7526 152.24C27.6393 152.18 27.5526 152.105 27.4926 152.015C27.436 151.925 27.4076 151.808 27.4076 151.665C27.4076 151.435 27.4976 151.261 27.6776 151.145C27.861 151.025 28.106 150.965 28.4126 150.965C28.5726 150.965 28.7293 150.98 28.8826 151.01C29.036 151.04 29.1593 151.081 29.2526 151.135V151.555C29.156 151.498 29.036 151.453 28.8926 151.42C28.7526 151.386 28.6093 151.37 28.4626 151.37C28.286 151.37 28.151 151.391 28.0576 151.435C27.9643 151.478 27.9176 151.555 27.9176 151.665C27.9176 151.735 27.9376 151.791 27.9776 151.835C28.0176 151.878 28.081 151.916 28.1676 151.95C28.2576 151.98 28.3993 152.02 28.5926 152.07C28.896 152.153 29.106 152.251 29.2226 152.365C29.3426 152.478 29.4026 152.635 29.4026 152.835C29.4026 153.041 29.3176 153.206 29.1476 153.33C28.9776 153.453 28.726 153.515 28.3926 153.515ZM33.7045 151.04H34.2195L34.7595 152.82L35.2945 151.04H35.7495L36.2845 152.82L36.8245 151.04H37.3445L36.5645 153.44H36.0795L35.5245 151.65L34.9695 153.44H34.4795L33.7045 151.04ZM39.4829 153.515C39.1929 153.515 38.9595 153.441 38.7829 153.295C38.6095 153.145 38.5229 152.943 38.5229 152.69C38.5229 152.423 38.6062 152.218 38.7729 152.075C38.9429 151.928 39.1829 151.855 39.4929 151.855C39.8229 151.855 40.1029 151.921 40.3329 152.055V151.93C40.3329 151.74 40.2745 151.6 40.1579 151.51C40.0445 151.416 39.8645 151.37 39.6179 151.37C39.4712 151.37 39.3279 151.385 39.1879 151.415C39.0512 151.441 38.9279 151.48 38.8179 151.53V151.12C38.9179 151.073 39.0479 151.036 39.2079 151.01C39.3679 150.98 39.5229 150.965 39.6729 150.965C40.0695 150.965 40.3629 151.053 40.5529 151.23C40.7462 151.403 40.8429 151.645 40.8429 151.955V153.44H40.3679V153.17C40.2645 153.283 40.1412 153.37 39.9979 153.43C39.8579 153.486 39.6862 153.515 39.4829 153.515ZM39.6079 153.13C39.7679 153.13 39.9129 153.098 40.0429 153.035C40.1729 152.971 40.2695 152.883 40.3329 152.77V152.445C40.1162 152.305 39.8745 152.235 39.6079 152.235C39.4145 152.235 39.2695 152.273 39.1729 152.35C39.0795 152.423 39.0329 152.536 39.0329 152.69C39.0329 152.983 39.2245 153.13 39.6079 153.13ZM43.2676 153.515C43.0242 153.515 42.8359 153.445 42.7026 153.305C42.5726 153.165 42.5076 152.966 42.5076 152.71V151.43H42.1426V151.04H42.5076V150.32H43.0176V151.04H43.6076V151.43H43.0176V152.675C43.0176 152.835 43.0476 152.948 43.1076 153.015C43.1709 153.081 43.2842 153.115 43.4476 153.115C43.5442 153.115 43.6409 153.093 43.7376 153.05V153.45C43.6109 153.493 43.4542 153.515 43.2676 153.515ZM46.5327 153.515C46.0894 153.515 45.741 153.405 45.4877 153.185C45.2377 152.961 45.1127 152.648 45.1127 152.245C45.1127 151.851 45.2244 151.54 45.4477 151.31C45.6744 151.08 45.996 150.965 46.4127 150.965C46.6894 150.965 46.9244 151.018 47.1177 151.125C47.311 151.228 47.456 151.373 47.5527 151.56C47.6527 151.743 47.7027 151.953 47.7027 152.19V152.44H45.5927C45.6094 152.666 45.7044 152.836 45.8777 152.95C46.0544 153.06 46.2927 153.115 46.5927 153.115C46.746 153.115 46.901 153.101 47.0577 153.075C47.2144 153.045 47.3527 153.006 47.4727 152.96V153.365C47.366 153.408 47.2244 153.443 47.0477 153.47C46.8744 153.5 46.7027 153.515 46.5327 153.515ZM47.2277 152.085C47.221 151.858 47.146 151.683 47.0027 151.56C46.8627 151.433 46.6627 151.37 46.4027 151.37C46.1494 151.37 45.9527 151.435 45.8127 151.565C45.6727 151.695 45.5994 151.868 45.5927 152.085H47.2277ZM49.2547 151.04H49.7447V151.47C49.8447 151.323 49.9847 151.215 50.1647 151.145C50.348 151.075 50.5597 151.04 50.7997 151.04V151.435C50.543 151.435 50.323 151.476 50.1397 151.56C49.9564 151.643 49.8297 151.775 49.7597 151.955V153.44H49.2547V151.04ZM55.1023 151.04H55.5923V151.395C55.839 151.108 56.1723 150.965 56.5923 150.965C56.8323 150.965 57.0473 151.018 57.2373 151.125C57.4307 151.231 57.5807 151.381 57.6873 151.575C57.7973 151.765 57.8523 151.986 57.8523 152.24C57.8523 152.49 57.7973 152.711 57.6873 152.905C57.5807 153.098 57.4323 153.248 57.2423 153.355C57.0523 153.461 56.8357 153.515 56.5923 153.515C56.3923 153.515 56.2057 153.481 56.0323 153.415C55.859 153.348 55.7173 153.25 55.6073 153.12V154.535H55.1023V151.04ZM56.4773 153.115C56.6407 153.115 56.7873 153.08 56.9173 153.01C57.0507 152.936 57.154 152.833 57.2273 152.7C57.304 152.566 57.3423 152.413 57.3423 152.24C57.3423 152.066 57.304 151.915 57.2273 151.785C57.154 151.651 57.0507 151.55 56.9173 151.48C56.7873 151.406 56.6407 151.37 56.4773 151.37C56.274 151.37 56.094 151.423 55.9373 151.53C55.784 151.636 55.674 151.783 55.6073 151.97V152.51C55.664 152.693 55.7723 152.84 55.9323 152.95C56.0923 153.06 56.274 153.115 56.4773 153.115ZM60.1362 153.515C59.8462 153.515 59.6128 153.441 59.4362 153.295C59.2628 153.145 59.1762 152.943 59.1762 152.69C59.1762 152.423 59.2595 152.218 59.4262 152.075C59.5962 151.928 59.8362 151.855 60.1462 151.855C60.4762 151.855 60.7562 151.921 60.9862 152.055V151.93C60.9862 151.74 60.9278 151.6 60.8112 151.51C60.6978 151.416 60.5178 151.37 60.2712 151.37C60.1245 151.37 59.9812 151.385 59.8412 151.415C59.7045 151.441 59.5812 151.48 59.4712 151.53V151.12C59.5712 151.073 59.7012 151.036 59.8612 151.01C60.0212 150.98 60.1762 150.965 60.3262 150.965C60.7228 150.965 61.0162 151.053 61.2062 151.23C61.3995 151.403 61.4962 151.645 61.4962 151.955V153.44H61.0212V153.17C60.9178 153.283 60.7945 153.37 60.6512 153.43C60.5112 153.486 60.3395 153.515 60.1362 153.515ZM60.2612 153.13C60.4212 153.13 60.5662 153.098 60.6962 153.035C60.8262 152.971 60.9228 152.883 60.9862 152.77V152.445C60.7695 152.305 60.5278 152.235 60.2612 152.235C60.0678 152.235 59.9228 152.273 59.8262 152.35C59.7328 152.423 59.6862 152.536 59.6862 152.69C59.6862 152.983 59.8778 153.13 60.2612 153.13ZM63.9346 153.515C63.7679 153.515 63.5913 153.493 63.4046 153.45C63.2179 153.41 63.0713 153.355 62.9646 153.285V152.855C63.0946 152.931 63.2446 152.995 63.4146 153.045C63.5846 153.091 63.7496 153.115 63.9096 153.115C64.0896 153.115 64.2213 153.093 64.3046 153.05C64.3879 153.006 64.4296 152.936 64.4296 152.84C64.4296 152.766 64.4096 152.708 64.3696 152.665C64.3329 152.618 64.2679 152.576 64.1746 152.54C64.0846 152.503 63.9479 152.46 63.7646 152.41C63.5679 152.353 63.4113 152.296 63.2946 152.24C63.1813 152.18 63.0946 152.105 63.0346 152.015C62.9779 151.925 62.9496 151.808 62.9496 151.665C62.9496 151.435 63.0396 151.261 63.2196 151.145C63.4029 151.025 63.6479 150.965 63.9546 150.965C64.1146 150.965 64.2713 150.98 64.4246 151.01C64.5779 151.04 64.7013 151.081 64.7946 151.135V151.555C64.6979 151.498 64.5779 151.453 64.4346 151.42C64.2946 151.386 64.1513 151.37 64.0046 151.37C63.8279 151.37 63.6929 151.391 63.5996 151.435C63.5063 151.478 63.4596 151.555 63.4596 151.665C63.4596 151.735 63.4796 151.791 63.5196 151.835C63.5596 151.878 63.6229 151.916 63.7096 151.95C63.7996 151.98 63.9413 152.02 64.1346 152.07C64.4379 152.153 64.6479 152.251 64.7646 152.365C64.8846 152.478 64.9446 152.635 64.9446 152.835C64.9446 153.041 64.8596 153.206 64.6896 153.33C64.5196 153.453 64.2679 153.515 63.9346 153.515ZM67.2539 153.515C67.0873 153.515 66.9106 153.493 66.7239 153.45C66.5373 153.41 66.3906 153.355 66.2839 153.285V152.855C66.4139 152.931 66.5639 152.995 66.7339 153.045C66.9039 153.091 67.0689 153.115 67.2289 153.115C67.4089 153.115 67.5406 153.093 67.6239 153.05C67.7073 153.006 67.7489 152.936 67.7489 152.84C67.7489 152.766 67.7289 152.708 67.6889 152.665C67.6523 152.618 67.5873 152.576 67.4939 152.54C67.4039 152.503 67.2673 152.46 67.0839 152.41C66.8873 152.353 66.7306 152.296 66.6139 152.24C66.5006 152.18 66.4139 152.105 66.3539 152.015C66.2973 151.925 66.2689 151.808 66.2689 151.665C66.2689 151.435 66.3589 151.261 66.5389 151.145C66.7223 151.025 66.9673 150.965 67.2739 150.965C67.4339 150.965 67.5906 150.98 67.7439 151.01C67.8973 151.04 68.0206 151.081 68.1139 151.135V151.555C68.0173 151.498 67.8973 151.453 67.7539 151.42C67.6139 151.386 67.4706 151.37 67.3239 151.37C67.1473 151.37 67.0123 151.391 66.9189 151.435C66.8256 151.478 66.7789 151.555 66.7789 151.665C66.7789 151.735 66.7989 151.791 66.8389 151.835C66.8789 151.878 66.9423 151.916 67.0289 151.95C67.1189 151.98 67.2606 152.02 67.4539 152.07C67.7573 152.153 67.9673 152.251 68.0839 152.365C68.2039 152.478 68.2639 152.635 68.2639 152.835C68.2639 153.041 68.1789 153.206 68.0089 153.33C67.8389 153.453 67.5873 153.515 67.2539 153.515ZM71.1352 153.515C70.6919 153.515 70.3436 153.405 70.0902 153.185C69.8402 152.961 69.7152 152.648 69.7152 152.245C69.7152 151.851 69.8269 151.54 70.0502 151.31C70.2769 151.08 70.5986 150.965 71.0152 150.965C71.2919 150.965 71.5269 151.018 71.7202 151.125C71.9136 151.228 72.0586 151.373 72.1552 151.56C72.2552 151.743 72.3052 151.953 72.3052 152.19V152.44H70.1952C70.2119 152.666 70.3069 152.836 70.4802 152.95C70.6569 153.06 70.8952 153.115 71.1952 153.115C71.3486 153.115 71.5036 153.101 71.6602 153.075C71.8169 153.045 71.9552 153.006 72.0752 152.96V153.365C71.9686 153.408 71.8269 153.443 71.6502 153.47C71.4769 153.5 71.3052 153.515 71.1352 153.515ZM71.8302 152.085C71.8236 151.858 71.7486 151.683 71.6052 151.56C71.4652 151.433 71.2652 151.37 71.0052 151.37C70.7519 151.37 70.5552 151.435 70.4152 151.565C70.2752 151.695 70.2019 151.868 70.1952 152.085H71.8302ZM75.0172 153.515C74.7772 153.515 74.5606 153.463 74.3672 153.36C74.1772 153.253 74.0272 153.105 73.9172 152.915C73.8106 152.721 73.7572 152.498 73.7572 152.245C73.7572 151.995 73.8106 151.773 73.9172 151.58C74.0272 151.386 74.1772 151.236 74.3672 151.13C74.5606 151.02 74.7772 150.965 75.0172 150.965C75.4506 150.965 75.7789 151.096 76.0022 151.36V149.745H76.5072V153.44H76.0172V153.09C75.8839 153.236 75.7372 153.345 75.5772 153.415C75.4206 153.481 75.2339 153.515 75.0172 153.515ZM75.1322 153.115C75.3389 153.115 75.5189 153.061 75.6722 152.955C75.8289 152.845 75.9389 152.698 76.0022 152.515V151.975C75.9456 151.791 75.8372 151.645 75.6772 151.535C75.5206 151.425 75.3389 151.37 75.1322 151.37C74.9689 151.37 74.8206 151.406 74.6872 151.48C74.5572 151.553 74.4539 151.656 74.3772 151.79C74.3039 151.923 74.2672 152.075 74.2672 152.245C74.2672 152.415 74.3039 152.566 74.3772 152.7C74.4539 152.833 74.5572 152.936 74.6872 153.01C74.8206 153.08 74.9689 153.115 75.1322 153.115ZM81.8686 153.515C81.5786 153.515 81.3453 153.441 81.1686 153.295C80.9953 153.145 80.9086 152.943 80.9086 152.69C80.9086 152.423 80.9919 152.218 81.1586 152.075C81.3286 151.928 81.5686 151.855 81.8786 151.855C82.2086 151.855 82.4886 151.921 82.7186 152.055V151.93C82.7186 151.74 82.6603 151.6 82.5436 151.51C82.4303 151.416 82.2503 151.37 82.0036 151.37C81.8569 151.37 81.7136 151.385 81.5736 151.415C81.4369 151.441 81.3136 151.48 81.2036 151.53V151.12C81.3036 151.073 81.4336 151.036 81.5936 151.01C81.7536 150.98 81.9086 150.965 82.0586 150.965C82.4553 150.965 82.7486 151.053 82.9386 151.23C83.1319 151.403 83.2286 151.645 83.2286 151.955V153.44H82.7536V153.17C82.6503 153.283 82.5269 153.37 82.3836 153.43C82.2436 153.486 82.0719 153.515 81.8686 153.515ZM81.9936 153.13C82.1536 153.13 82.2986 153.098 82.4286 153.035C82.5586 152.971 82.6553 152.883 82.7186 152.77V152.445C82.5019 152.305 82.2603 152.235 81.9936 152.235C81.8003 152.235 81.6553 152.273 81.5586 152.35C81.4653 152.423 81.4186 152.536 81.4186 152.69C81.4186 152.983 81.6103 153.13 81.9936 153.13ZM84.4818 151.04H84.9968L85.5368 152.82L86.0718 151.04H86.5268L87.0618 152.82L87.6018 151.04H88.1218L87.3418 153.44H86.8568L86.3018 151.65L85.7468 153.44H85.2568L84.4818 151.04ZM90.2602 153.515C89.9702 153.515 89.7369 153.441 89.5602 153.295C89.3869 153.145 89.3002 152.943 89.3002 152.69C89.3002 152.423 89.3835 152.218 89.5502 152.075C89.7202 151.928 89.9602 151.855 90.2702 151.855C90.6002 151.855 90.8802 151.921 91.1102 152.055V151.93C91.1102 151.74 91.0519 151.6 90.9352 151.51C90.8219 151.416 90.6419 151.37 90.3952 151.37C90.2485 151.37 90.1052 151.385 89.9652 151.415C89.8285 151.441 89.7052 151.48 89.5952 151.53V151.12C89.6952 151.073 89.8252 151.036 89.9852 151.01C90.1452 150.98 90.3002 150.965 90.4502 150.965C90.8469 150.965 91.1402 151.053 91.3302 151.23C91.5235 151.403 91.6202 151.645 91.6202 151.955V153.44H91.1452V153.17C91.0419 153.283 90.9185 153.37 90.7752 153.43C90.6352 153.486 90.4635 153.515 90.2602 153.515ZM90.3852 153.13C90.5452 153.13 90.6902 153.098 90.8202 153.035C90.9502 152.971 91.0469 152.883 91.1102 152.77V152.445C90.8935 152.305 90.6519 152.235 90.3852 152.235C90.1919 152.235 90.0469 152.273 89.9502 152.35C89.8569 152.423 89.8102 152.536 89.8102 152.69C89.8102 152.983 90.0019 153.13 90.3852 153.13ZM93.5323 154.43C93.3523 154.43 93.2023 154.411 93.0823 154.375V153.98C93.1689 154.013 93.2756 154.03 93.4023 154.03C93.5189 154.03 93.6106 154 93.6773 153.94C93.7439 153.883 93.8039 153.79 93.8573 153.66L93.9723 153.38L92.9223 151.04H93.4423L94.2423 152.885L94.9873 151.04H95.5073L94.4273 153.71C94.3273 153.96 94.2073 154.141 94.0673 154.255C93.9306 154.371 93.7523 154.43 93.5323 154.43ZM100.462 150.495L99.7074 151.04V150.555L100.532 149.945H100.972V153.44H100.462V150.495ZM103.279 150.495L102.524 151.04V150.555L103.349 149.945H103.789V153.44H103.279V150.495ZM106.765 149.87H107.275L105.85 153.44H105.34L106.765 149.87ZM109.788 153.515C109.585 153.515 109.39 153.498 109.203 153.465C109.02 153.435 108.86 153.388 108.723 153.325V152.905C109.033 153.045 109.366 153.115 109.723 153.115C110.03 153.115 110.256 153.06 110.403 152.95C110.553 152.836 110.628 152.676 110.628 152.47C110.628 152.256 110.551 152.105 110.398 152.015C110.245 151.921 110.011 151.875 109.698 151.875H109.288V151.465H109.688C109.938 151.465 110.14 151.415 110.293 151.315C110.446 151.211 110.523 151.061 110.523 150.865C110.523 150.671 110.46 150.525 110.333 150.425C110.206 150.325 110.023 150.275 109.783 150.275C109.596 150.275 109.428 150.296 109.278 150.34C109.128 150.383 108.973 150.455 108.813 150.555V150.135C109.106 149.958 109.45 149.87 109.843 149.87C110.233 149.87 110.53 149.956 110.733 150.13C110.936 150.303 111.038 150.543 111.038 150.85C111.038 151.036 110.988 151.2 110.888 151.34C110.788 151.48 110.638 151.588 110.438 151.665C110.665 151.718 110.838 151.815 110.958 151.955C111.081 152.095 111.143 152.271 111.143 152.485C111.143 152.801 111.035 153.053 110.818 153.24C110.601 153.423 110.258 153.515 109.788 153.515ZM114.019 149.87H114.529L113.104 153.44H112.594L114.019 149.87ZM115.977 153.105L116.732 152.38C116.799 152.313 116.892 152.226 117.012 152.12C117.202 151.946 117.347 151.806 117.447 151.7C117.547 151.593 117.629 151.48 117.692 151.36C117.755 151.236 117.787 151.105 117.787 150.965C117.787 150.758 117.727 150.601 117.607 150.495C117.487 150.385 117.312 150.33 117.082 150.33C116.925 150.33 116.764 150.358 116.597 150.415C116.434 150.471 116.28 150.555 116.137 150.665V150.175C116.417 149.971 116.759 149.87 117.162 149.87C117.522 149.87 117.802 149.966 118.002 150.16C118.202 150.35 118.302 150.61 118.302 150.94C118.302 151.1 118.267 151.253 118.197 151.4C118.13 151.546 118.035 151.691 117.912 151.835C117.789 151.975 117.622 152.146 117.412 152.35L116.732 153.015H118.432V153.44H115.977V153.105ZM121.337 153.515C121.037 153.515 120.777 153.441 120.557 153.295C120.341 153.148 120.174 152.938 120.057 152.665C119.941 152.391 119.882 152.068 119.882 151.695C119.882 151.321 119.939 150.998 120.052 150.725C120.169 150.448 120.336 150.236 120.552 150.09C120.772 149.943 121.034 149.87 121.337 149.87C121.641 149.87 121.901 149.943 122.117 150.09C122.337 150.236 122.504 150.448 122.617 150.725C122.734 150.998 122.792 151.321 122.792 151.695C122.792 152.068 122.734 152.391 122.617 152.665C122.501 152.938 122.332 153.148 122.112 153.295C121.896 153.441 121.637 153.515 121.337 153.515ZM121.337 153.065C121.634 153.065 121.866 152.943 122.032 152.7C122.202 152.453 122.287 152.12 122.287 151.7C122.287 151.28 122.204 150.946 122.037 150.7C121.871 150.453 121.637 150.33 121.337 150.33C121.037 150.33 120.804 150.453 120.637 150.7C120.471 150.946 120.387 151.28 120.387 151.7C120.387 152.12 120.471 152.453 120.637 152.7C120.807 152.943 121.041 153.065 121.337 153.065ZM124.242 153.105L124.997 152.38C125.063 152.313 125.157 152.226 125.277 152.12C125.467 151.946 125.612 151.806 125.712 151.7C125.812 151.593 125.893 151.48 125.957 151.36C126.02 151.236 126.052 151.105 126.052 150.965C126.052 150.758 125.992 150.601 125.872 150.495C125.752 150.385 125.577 150.33 125.347 150.33C125.19 150.33 125.028 150.358 124.862 150.415C124.698 150.471 124.545 150.555 124.402 150.665V150.175C124.682 149.971 125.023 149.87 125.427 149.87C125.787 149.87 126.067 149.966 126.267 150.16C126.467 150.35 126.567 150.61 126.567 150.94C126.567 151.1 126.532 151.253 126.462 151.4C126.395 151.546 126.3 151.691 126.177 151.835C126.053 151.975 125.887 152.146 125.677 152.35L124.997 153.015H126.697V153.44H124.242V153.105ZM128.147 153.105L128.902 152.38C128.969 152.313 129.062 152.226 129.182 152.12C129.372 151.946 129.517 151.806 129.617 151.7C129.717 151.593 129.799 151.48 129.862 151.36C129.925 151.236 129.957 151.105 129.957 150.965C129.957 150.758 129.897 150.601 129.777 150.495C129.657 150.385 129.482 150.33 129.252 150.33C129.095 150.33 128.934 150.358 128.767 150.415C128.604 150.471 128.45 150.555 128.307 150.665V150.175C128.587 149.971 128.929 149.87 129.332 149.87C129.692 149.87 129.972 149.966 130.172 150.16C130.372 150.35 130.472 150.61 130.472 150.94C130.472 151.1 130.437 151.253 130.367 151.4C130.3 151.546 130.205 151.691 130.082 151.835C129.959 151.975 129.792 152.146 129.582 152.35L128.902 153.015H130.602V153.44H128.147V153.105ZM18.185 161.515C17.895 161.515 17.6617 161.441 17.485 161.295C17.3117 161.145 17.225 160.943 17.225 160.69C17.225 160.423 17.3083 160.218 17.475 160.075C17.645 159.928 17.885 159.855 18.195 159.855C18.525 159.855 18.805 159.921 19.035 160.055V159.93C19.035 159.74 18.9767 159.6 18.86 159.51C18.7467 159.416 18.5667 159.37 18.32 159.37C18.1733 159.37 18.03 159.385 17.89 159.415C17.7533 159.441 17.63 159.48 17.52 159.53V159.12C17.62 159.073 17.75 159.036 17.91 159.01C18.07 158.98 18.225 158.965 18.375 158.965C18.7717 158.965 19.065 159.053 19.255 159.23C19.4483 159.403 19.545 159.645 19.545 159.955V161.44H19.07V161.17C18.9667 161.283 18.8433 161.37 18.7 161.43C18.56 161.486 18.3883 161.515 18.185 161.515ZM18.31 161.13C18.47 161.13 18.615 161.098 18.745 161.035C18.875 160.971 18.9717 160.883 19.035 160.77V160.445C18.8183 160.305 18.5767 160.235 18.31 160.235C18.1167 160.235 17.9717 160.273 17.875 160.35C17.7817 160.423 17.735 160.536 17.735 160.69C17.735 160.983 17.9267 161.13 18.31 161.13ZM21.9697 161.515C21.7264 161.515 21.5381 161.445 21.4047 161.305C21.2747 161.165 21.2097 160.966 21.2097 160.71V159.43H20.8447V159.04H21.2097V158.32H21.7197V159.04H22.3097V159.43H21.7197V160.675C21.7197 160.835 21.7497 160.948 21.8097 161.015C21.8731 161.081 21.9864 161.115 22.1497 161.115C22.2464 161.115 22.3431 161.093 22.4397 161.05V161.45C22.3131 161.493 22.1564 161.515 21.9697 161.515ZM27.6054 161.515C27.4221 161.515 27.2588 161.495 27.1154 161.455V161.03C27.2454 161.08 27.3954 161.105 27.5654 161.105C28.2821 161.105 28.6754 160.676 28.7454 159.82C28.6454 159.946 28.5138 160.041 28.3504 160.105C28.1904 160.168 28.0104 160.2 27.8104 160.2C27.5871 160.2 27.3888 160.153 27.2154 160.06C27.0421 159.966 26.9071 159.833 26.8104 159.66C26.7138 159.486 26.6654 159.285 26.6654 159.055C26.6654 158.828 26.7154 158.625 26.8154 158.445C26.9188 158.265 27.0671 158.125 27.2604 158.025C27.4538 157.921 27.6821 157.87 27.9454 157.87C28.1988 157.87 28.4238 157.926 28.6204 158.04C28.8204 158.153 28.9771 158.323 29.0904 158.55C29.2038 158.773 29.2604 159.045 29.2604 159.365C29.2604 160.058 29.1171 160.59 28.8304 160.96C28.5471 161.33 28.1388 161.515 27.6054 161.515ZM27.9454 159.8C28.1654 159.8 28.3488 159.73 28.4954 159.59C28.6454 159.45 28.7204 159.265 28.7204 159.035C28.7204 158.898 28.6871 158.771 28.6204 158.655C28.5571 158.538 28.4671 158.445 28.3504 158.375C28.2338 158.305 28.0988 158.27 27.9454 158.27C27.7121 158.27 27.5238 158.34 27.3804 158.48C27.2404 158.62 27.1704 158.806 27.1704 159.04C27.1704 159.273 27.2404 159.458 27.3804 159.595C27.5238 159.731 27.7121 159.8 27.9454 159.8ZM30.9873 159.585C30.9106 159.585 30.8456 159.558 30.7923 159.505C30.739 159.451 30.7123 159.386 30.7123 159.31C30.7123 159.233 30.739 159.168 30.7923 159.115C30.8456 159.058 30.9106 159.03 30.9873 159.03C31.064 159.03 31.129 159.058 31.1823 159.115C31.2356 159.168 31.2623 159.233 31.2623 159.31C31.2623 159.383 31.2356 159.448 31.1823 159.505C31.129 159.558 31.064 159.585 30.9873 159.585ZM30.9873 161.34C30.9106 161.34 30.8456 161.313 30.7923 161.26C30.739 161.206 30.7123 161.141 30.7123 161.065C30.7123 160.988 30.739 160.923 30.7923 160.87C30.8456 160.813 30.9106 160.785 30.9873 160.785C31.064 160.785 31.129 160.813 31.1823 160.87C31.2356 160.923 31.2623 160.988 31.2623 161.065C31.2623 161.138 31.2356 161.203 31.1823 161.26C31.129 161.313 31.064 161.34 30.9873 161.34ZM33.7783 161.515C33.5749 161.515 33.3799 161.498 33.1933 161.465C33.0099 161.435 32.8499 161.388 32.7133 161.325V160.905C33.0233 161.045 33.3566 161.115 33.7133 161.115C34.0199 161.115 34.2466 161.06 34.3933 160.95C34.5433 160.836 34.6183 160.676 34.6183 160.47C34.6183 160.256 34.5416 160.105 34.3883 160.015C34.2349 159.921 34.0016 159.875 33.6883 159.875H33.2783V159.465H33.6783C33.9283 159.465 34.1299 159.415 34.2833 159.315C34.4366 159.211 34.5133 159.061 34.5133 158.865C34.5133 158.671 34.4499 158.525 34.3233 158.425C34.1966 158.325 34.0133 158.275 33.7733 158.275C33.5866 158.275 33.4183 158.296 33.2683 158.34C33.1183 158.383 32.9633 158.455 32.8033 158.555V158.135C33.0966 157.958 33.4399 157.87 33.8333 157.87C34.2233 157.87 34.5199 157.956 34.7233 158.13C34.9266 158.303 35.0283 158.543 35.0283 158.85C35.0283 159.036 34.9783 159.2 34.8783 159.34C34.7783 159.48 34.6283 159.588 34.4283 159.665C34.6549 159.718 34.8283 159.815 34.9483 159.955C35.0716 160.095 35.1333 160.271 35.1333 160.485C35.1333 160.801 35.0249 161.053 34.8083 161.24C34.5916 161.423 34.2483 161.515 33.7783 161.515ZM37.5244 161.515C37.341 161.515 37.1777 161.495 37.0344 161.455V161.03C37.1644 161.08 37.3144 161.105 37.4844 161.105C38.201 161.105 38.5944 160.676 38.6644 159.82C38.5644 159.946 38.4327 160.041 38.2694 160.105C38.1094 160.168 37.9294 160.2 37.7294 160.2C37.506 160.2 37.3077 160.153 37.1344 160.06C36.961 159.966 36.826 159.833 36.7294 159.66C36.6327 159.486 36.5844 159.285 36.5844 159.055C36.5844 158.828 36.6344 158.625 36.7344 158.445C36.8377 158.265 36.986 158.125 37.1794 158.025C37.3727 157.921 37.601 157.87 37.8644 157.87C38.1177 157.87 38.3427 157.926 38.5394 158.04C38.7394 158.153 38.896 158.323 39.0094 158.55C39.1227 158.773 39.1794 159.045 39.1794 159.365C39.1794 160.058 39.036 160.59 38.7494 160.96C38.466 161.33 38.0577 161.515 37.5244 161.515ZM37.8644 159.8C38.0844 159.8 38.2677 159.73 38.4144 159.59C38.5644 159.45 38.6394 159.265 38.6394 159.035C38.6394 158.898 38.606 158.771 38.5394 158.655C38.476 158.538 38.386 158.445 38.2694 158.375C38.1527 158.305 38.0177 158.27 37.8644 158.27C37.631 158.27 37.4427 158.34 37.2994 158.48C37.1594 158.62 37.0894 158.806 37.0894 159.04C37.0894 159.273 37.1594 159.458 37.2994 159.595C37.4427 159.731 37.631 159.8 37.8644 159.8ZM44.8768 157.945H45.3668L46.7618 161.44H46.2418L45.8918 160.57H44.3468L44.0068 161.44H43.4818L44.8768 157.945ZM45.7518 160.145L45.1218 158.51L44.4918 160.145H45.7518ZM48.1854 157.945H48.6954L49.9404 160.67L51.1854 157.945H51.6954V161.44H51.2004V158.955L50.0654 161.44H49.8154L48.6754 158.955V161.44H48.1854V157.945ZM56.1961 157.945H58.5011V158.375H56.7061V159.48H58.0461V159.905H56.7061V161.015H58.5011V161.44H56.1961V157.945ZM60.8149 161.515C60.5249 161.515 60.2915 161.441 60.1149 161.295C59.9415 161.145 59.8549 160.943 59.8549 160.69C59.8549 160.423 59.9382 160.218 60.1049 160.075C60.2749 159.928 60.5149 159.855 60.8249 159.855C61.1549 159.855 61.4349 159.921 61.6649 160.055V159.93C61.6649 159.74 61.6065 159.6 61.4899 159.51C61.3765 159.416 61.1965 159.37 60.9499 159.37C60.8032 159.37 60.6599 159.385 60.5199 159.415C60.3832 159.441 60.2599 159.48 60.1499 159.53V159.12C60.2499 159.073 60.3799 159.036 60.5399 159.01C60.6999 158.98 60.8549 158.965 61.0049 158.965C61.4015 158.965 61.6949 159.053 61.8849 159.23C62.0782 159.403 62.1749 159.645 62.1749 159.955V161.44H61.6999V161.17C61.5965 161.283 61.4732 161.37 61.3299 161.43C61.1899 161.486 61.0182 161.515 60.8149 161.515ZM60.9399 161.13C61.0999 161.13 61.2449 161.098 61.3749 161.035C61.5049 160.971 61.6015 160.883 61.6649 160.77V160.445C61.4482 160.305 61.2065 160.235 60.9399 160.235C60.7465 160.235 60.6015 160.273 60.5049 160.35C60.4115 160.423 60.3649 160.536 60.3649 160.69C60.3649 160.983 60.5565 161.13 60.9399 161.13ZM64.6133 161.515C64.4467 161.515 64.27 161.493 64.0833 161.45C63.8967 161.41 63.75 161.355 63.6433 161.285V160.855C63.7733 160.931 63.9233 160.995 64.0933 161.045C64.2633 161.091 64.4283 161.115 64.5883 161.115C64.7683 161.115 64.9 161.093 64.9833 161.05C65.0667 161.006 65.1083 160.936 65.1083 160.84C65.1083 160.766 65.0883 160.708 65.0483 160.665C65.0117 160.618 64.9467 160.576 64.8533 160.54C64.7633 160.503 64.6267 160.46 64.4433 160.41C64.2467 160.353 64.09 160.296 63.9733 160.24C63.86 160.18 63.7733 160.105 63.7133 160.015C63.6567 159.925 63.6283 159.808 63.6283 159.665C63.6283 159.435 63.7183 159.261 63.8983 159.145C64.0817 159.025 64.3267 158.965 64.6333 158.965C64.7933 158.965 64.95 158.98 65.1033 159.01C65.2567 159.04 65.38 159.081 65.4733 159.135V159.555C65.3767 159.498 65.2567 159.453 65.1133 159.42C64.9733 159.386 64.83 159.37 64.6833 159.37C64.5067 159.37 64.3717 159.391 64.2783 159.435C64.185 159.478 64.1383 159.555 64.1383 159.665C64.1383 159.735 64.1583 159.791 64.1983 159.835C64.2383 159.878 64.3017 159.916 64.3883 159.95C64.4783 159.98 64.62 160.02 64.8133 160.07C65.1167 160.153 65.3267 160.251 65.4433 160.365C65.5633 160.478 65.6233 160.635 65.6233 160.835C65.6233 161.041 65.5383 161.206 65.3683 161.33C65.1983 161.453 64.9467 161.515 64.6133 161.515ZM68.0264 161.515C67.783 161.515 67.5947 161.445 67.4614 161.305C67.3314 161.165 67.2664 160.966 67.2664 160.71V159.43H66.9014V159.04H67.2664V158.32H67.7764V159.04H68.3664V159.43H67.7764V160.675C67.7764 160.835 67.8064 160.948 67.8664 161.015C67.9297 161.081 68.043 161.115 68.2064 161.115C68.303 161.115 68.3997 161.093 68.4964 161.05V161.45C68.3697 161.493 68.213 161.515 68.0264 161.515ZM71.2915 161.515C70.8482 161.515 70.4998 161.405 70.2465 161.185C69.9965 160.961 69.8715 160.648 69.8715 160.245C69.8715 159.851 69.9832 159.54 70.2065 159.31C70.4332 159.08 70.7548 158.965 71.1715 158.965C71.4482 158.965 71.6832 159.018 71.8765 159.125C72.0698 159.228 72.2148 159.373 72.3115 159.56C72.4115 159.743 72.4615 159.953 72.4615 160.19V160.44H70.3515C70.3682 160.666 70.4632 160.836 70.6365 160.95C70.8132 161.06 71.0515 161.115 71.3515 161.115C71.5048 161.115 71.6598 161.101 71.8165 161.075C71.9732 161.045 72.1115 161.006 72.2315 160.96V161.365C72.1248 161.408 71.9832 161.443 71.8065 161.47C71.6332 161.5 71.4615 161.515 71.2915 161.515ZM71.9865 160.085C71.9798 159.858 71.9048 159.683 71.7615 159.56C71.6215 159.433 71.4215 159.37 71.1615 159.37C70.9082 159.37 70.7115 159.435 70.5715 159.565C70.4315 159.695 70.3582 159.868 70.3515 160.085H71.9865ZM74.0135 159.04H74.5035V159.47C74.6035 159.323 74.7435 159.215 74.9235 159.145C75.1068 159.075 75.3185 159.04 75.5585 159.04V159.435C75.3018 159.435 75.0818 159.476 74.8985 159.56C74.7151 159.643 74.5885 159.775 74.5185 159.955V161.44H74.0135V159.04ZM77.0105 159.04H77.5005V159.385C77.6139 159.241 77.7522 159.136 77.9155 159.07C78.0822 159 78.2555 158.965 78.4355 158.965C78.7555 158.965 78.9939 159.05 79.1505 159.22C79.3072 159.39 79.3855 159.618 79.3855 159.905V161.44H78.8805V159.955C78.8805 159.565 78.6939 159.37 78.3205 159.37C78.1605 159.37 78.0105 159.408 77.8705 159.485C77.7339 159.558 77.6155 159.671 77.5155 159.825V161.44H77.0105V159.04ZM84.7442 158.375H83.6592V157.945H86.3442V158.375H85.2592V161.44H84.7442V158.375ZM87.9618 158.57C87.8785 158.57 87.8085 158.541 87.7518 158.485C87.6951 158.428 87.6668 158.358 87.6668 158.275C87.6668 158.191 87.6951 158.121 87.7518 158.065C87.8085 158.008 87.8785 157.98 87.9618 157.98C88.0485 157.98 88.1201 158.008 88.1768 158.065C88.2368 158.121 88.2668 158.191 88.2668 158.275C88.2668 158.358 88.2368 158.428 88.1768 158.485C88.1201 158.541 88.0485 158.57 87.9618 158.57ZM87.7068 159.04H88.2218V161.44H87.7068V159.04ZM89.9168 159.04H90.3968V159.385C90.5101 159.245 90.6385 159.14 90.7818 159.07C90.9251 159 91.0735 158.965 91.2268 158.965C91.4201 158.965 91.5735 158.998 91.6868 159.065C91.8001 159.128 91.8835 159.226 91.9368 159.36C92.0435 159.23 92.1735 159.131 92.3268 159.065C92.4835 158.998 92.6401 158.965 92.7968 158.965C93.0901 158.965 93.3018 159.04 93.4318 159.19C93.5618 159.336 93.6268 159.555 93.6268 159.845V161.44H93.1368V159.91C93.1368 159.713 93.1001 159.575 93.0268 159.495C92.9535 159.411 92.8285 159.37 92.6518 159.37C92.3985 159.37 92.1918 159.48 92.0318 159.7C92.0385 159.75 92.0418 159.831 92.0418 159.945V161.44H91.5518V159.91C91.5518 159.713 91.5185 159.575 91.4518 159.495C91.3851 159.411 91.2651 159.37 91.0918 159.37C90.8385 159.37 90.6118 159.513 90.4118 159.8V161.44H89.9168V159.04ZM96.5727 161.515C96.1294 161.515 95.7811 161.405 95.5277 161.185C95.2777 160.961 95.1527 160.648 95.1527 160.245C95.1527 159.851 95.2644 159.54 95.4877 159.31C95.7144 159.08 96.0361 158.965 96.4527 158.965C96.7294 158.965 96.9644 159.018 97.1577 159.125C97.3511 159.228 97.4961 159.373 97.5927 159.56C97.6927 159.743 97.7427 159.953 97.7427 160.19V160.44H95.6327C95.6494 160.666 95.7444 160.836 95.9177 160.95C96.0944 161.06 96.3327 161.115 96.6327 161.115C96.7861 161.115 96.9411 161.101 97.0977 161.075C97.2544 161.045 97.3927 161.006 97.5127 160.96V161.365C97.4061 161.408 97.2644 161.443 97.0877 161.47C96.9144 161.5 96.7427 161.515 96.5727 161.515ZM97.2677 160.085C97.2611 159.858 97.1861 159.683 97.0427 159.56C96.9027 159.433 96.7027 159.37 96.4427 159.37C96.1894 159.37 95.9927 159.435 95.8527 159.565C95.7127 159.695 95.6394 159.868 95.6327 160.085H97.2677ZM99.4297 161.44C99.3631 161.44 99.3064 161.418 99.2597 161.375C99.2164 161.328 99.1947 161.271 99.1947 161.205C99.1947 161.138 99.2164 161.081 99.2597 161.035C99.3064 160.988 99.3631 160.965 99.4297 160.965C99.4964 160.965 99.5531 160.988 99.5997 161.035C99.6464 161.081 99.6697 161.138 99.6697 161.205C99.6697 161.271 99.6464 161.328 99.5997 161.375C99.5531 161.418 99.4964 161.44 99.4297 161.44ZM106.819 157.945H107.349L108.129 160.6L108.899 157.945H109.299L110.064 160.6L110.844 157.945H111.374L110.354 161.44H109.869L109.094 158.8L108.324 161.44H107.839L106.819 157.945ZM113.868 161.515C113.424 161.515 113.076 161.405 112.823 161.185C112.573 160.961 112.448 160.648 112.448 160.245C112.448 159.851 112.559 159.54 112.783 159.31C113.009 159.08 113.331 158.965 113.748 158.965C114.024 158.965 114.259 159.018 114.453 159.125C114.646 159.228 114.791 159.373 114.888 159.56C114.988 159.743 115.038 159.953 115.038 160.19V160.44H112.928C112.944 160.666 113.039 160.836 113.213 160.95C113.389 161.06 113.628 161.115 113.928 161.115C114.081 161.115 114.236 161.101 114.393 161.075C114.549 161.045 114.688 161.006 114.808 160.96V161.365C114.701 161.408 114.559 161.443 114.383 161.47C114.209 161.5 114.038 161.515 113.868 161.515ZM114.563 160.085C114.556 159.858 114.481 159.683 114.338 159.56C114.198 159.433 113.998 159.37 113.738 159.37C113.484 159.37 113.288 159.435 113.148 159.565C113.008 159.695 112.934 159.868 112.928 160.085H114.563ZM120.3 161.515C120.01 161.515 119.777 161.441 119.6 161.295C119.427 161.145 119.34 160.943 119.34 160.69C119.34 160.423 119.424 160.218 119.59 160.075C119.76 159.928 120 159.855 120.31 159.855C120.64 159.855 120.92 159.921 121.15 160.055V159.93C121.15 159.74 121.092 159.6 120.975 159.51C120.862 159.416 120.682 159.37 120.435 159.37C120.289 159.37 120.145 159.385 120.005 159.415C119.869 159.441 119.745 159.48 119.635 159.53V159.12C119.735 159.073 119.865 159.036 120.025 159.01C120.185 158.98 120.34 158.965 120.49 158.965C120.887 158.965 121.18 159.053 121.37 159.23C121.564 159.403 121.66 159.645 121.66 159.955V161.44H121.185V161.17C121.082 161.283 120.959 161.37 120.815 161.43C120.675 161.486 120.504 161.515 120.3 161.515ZM120.425 161.13C120.585 161.13 120.73 161.098 120.86 161.035C120.99 160.971 121.087 160.883 121.15 160.77V160.445C120.934 160.305 120.692 160.235 120.425 160.235C120.232 160.235 120.087 160.273 119.99 160.35C119.897 160.423 119.85 160.536 119.85 160.69C119.85 160.983 120.042 161.13 120.425 161.13ZM123.287 157.745H123.792V161.44H123.287V157.745ZM125.444 157.745H125.949V161.44H125.444V157.745ZM17.225 167.04H17.74L18.28 168.82L18.815 167.04H19.27L19.805 168.82L20.345 167.04H20.865L20.085 169.44H19.6L19.045 167.65L18.49 169.44H18L17.225 167.04ZM23.5854 169.515C23.1421 169.515 22.7938 169.405 22.5404 169.185C22.2904 168.961 22.1654 168.648 22.1654 168.245C22.1654 167.851 22.2771 167.54 22.5004 167.31C22.7271 167.08 23.0488 166.965 23.4654 166.965C23.7421 166.965 23.9771 167.018 24.1704 167.125C24.3638 167.228 24.5088 167.373 24.6054 167.56C24.7054 167.743 24.7554 167.953 24.7554 168.19V168.44H22.6454C22.6621 168.666 22.7571 168.836 22.9304 168.95C23.1071 169.06 23.3454 169.115 23.6454 169.115C23.7988 169.115 23.9538 169.101 24.1104 169.075C24.2671 169.045 24.4054 169.006 24.5254 168.96V169.365C24.4188 169.408 24.2771 169.443 24.1004 169.47C23.9271 169.5 23.7554 169.515 23.5854 169.515ZM24.2804 168.085C24.2738 167.858 24.1988 167.683 24.0554 167.56C23.9154 167.433 23.7154 167.37 23.4554 167.37C23.2021 167.37 23.0054 167.435 22.8654 167.565C22.7254 167.695 22.6521 167.868 22.6454 168.085H24.2804ZM27.6274 169.515C27.1841 169.515 26.8358 169.405 26.5824 169.185C26.3324 168.961 26.2074 168.648 26.2074 168.245C26.2074 167.851 26.3191 167.54 26.5424 167.31C26.7691 167.08 27.0908 166.965 27.5074 166.965C27.7841 166.965 28.0191 167.018 28.2124 167.125C28.4058 167.228 28.5508 167.373 28.6474 167.56C28.7474 167.743 28.7974 167.953 28.7974 168.19V168.44H26.6874C26.7041 168.666 26.7991 168.836 26.9724 168.95C27.1491 169.06 27.3874 169.115 27.6874 169.115C27.8408 169.115 27.9958 169.101 28.1524 169.075C28.3091 169.045 28.4474 169.006 28.5674 168.96V169.365C28.4608 169.408 28.3191 169.443 28.1424 169.47C27.9691 169.5 27.7974 169.515 27.6274 169.515ZM28.3224 168.085C28.3158 167.858 28.2408 167.683 28.0974 167.56C27.9574 167.433 27.7574 167.37 27.4974 167.37C27.2441 167.37 27.0474 167.435 26.9074 167.565C26.7674 167.695 26.6941 167.868 26.6874 168.085H28.3224ZM30.3494 167.04H30.8394V167.395C31.0861 167.108 31.4194 166.965 31.8394 166.965C32.0794 166.965 32.2944 167.018 32.4844 167.125C32.6777 167.231 32.8277 167.381 32.9344 167.575C33.0444 167.765 33.0994 167.986 33.0994 168.24C33.0994 168.49 33.0444 168.711 32.9344 168.905C32.8277 169.098 32.6794 169.248 32.4894 169.355C32.2994 169.461 32.0827 169.515 31.8394 169.515C31.6394 169.515 31.4527 169.481 31.2794 169.415C31.1061 169.348 30.9644 169.25 30.8544 169.12V170.535H30.3494V167.04ZM31.7244 169.115C31.8877 169.115 32.0344 169.08 32.1644 169.01C32.2977 168.936 32.4011 168.833 32.4744 168.7C32.5511 168.566 32.5894 168.413 32.5894 168.24C32.5894 168.066 32.5511 167.915 32.4744 167.785C32.4011 167.651 32.2977 167.55 32.1644 167.48C32.0344 167.406 31.8877 167.37 31.7244 167.37C31.5211 167.37 31.3411 167.423 31.1844 167.53C31.0311 167.636 30.9211 167.783 30.8544 167.97V168.51C30.9111 168.693 31.0194 168.84 31.1794 168.95C31.3394 169.06 31.5211 169.115 31.7244 169.115ZM37.5008 167.04H37.9808V167.385C38.0941 167.245 38.2224 167.14 38.3658 167.07C38.5091 167 38.6574 166.965 38.8108 166.965C39.0041 166.965 39.1574 166.998 39.2708 167.065C39.3841 167.128 39.4674 167.226 39.5208 167.36C39.6274 167.23 39.7574 167.131 39.9108 167.065C40.0674 166.998 40.2241 166.965 40.3808 166.965C40.6741 166.965 40.8858 167.04 41.0158 167.19C41.1458 167.336 41.2108 167.555 41.2108 167.845V169.44H40.7208V167.91C40.7208 167.713 40.6841 167.575 40.6108 167.495C40.5374 167.411 40.4124 167.37 40.2358 167.37C39.9824 167.37 39.7758 167.48 39.6158 167.7C39.6224 167.75 39.6258 167.831 39.6258 167.945V169.44H39.1358V167.91C39.1358 167.713 39.1024 167.575 39.0358 167.495C38.9691 167.411 38.8491 167.37 38.6758 167.37C38.4224 167.37 38.1958 167.513 37.9958 167.8V169.44H37.5008V167.04ZM43.6235 169.515C43.3335 169.515 43.1001 169.441 42.9235 169.295C42.7501 169.145 42.6635 168.943 42.6635 168.69C42.6635 168.423 42.7468 168.218 42.9135 168.075C43.0835 167.928 43.3235 167.855 43.6335 167.855C43.9635 167.855 44.2435 167.921 44.4735 168.055V167.93C44.4735 167.74 44.4151 167.6 44.2985 167.51C44.1851 167.416 44.0051 167.37 43.7585 167.37C43.6118 167.37 43.4685 167.385 43.3285 167.415C43.1918 167.441 43.0685 167.48 42.9585 167.53V167.12C43.0585 167.073 43.1885 167.036 43.3485 167.01C43.5085 166.98 43.6635 166.965 43.8135 166.965C44.2101 166.965 44.5035 167.053 44.6935 167.23C44.8868 167.403 44.9835 167.645 44.9835 167.955V169.44H44.5085V169.17C44.4051 169.283 44.2818 169.37 44.1385 169.43C43.9985 169.486 43.8268 169.515 43.6235 169.515ZM43.7485 169.13C43.9085 169.13 44.0535 169.098 44.1835 169.035C44.3135 168.971 44.4101 168.883 44.4735 168.77V168.445C44.2568 168.305 44.0151 168.235 43.7485 168.235C43.5551 168.235 43.4101 168.273 43.3135 168.35C43.2201 168.423 43.1735 168.536 43.1735 168.69C43.1735 168.983 43.3651 169.13 43.7485 169.13ZM46.6102 167.04H47.1002V167.385C47.2135 167.241 47.3518 167.136 47.5152 167.07C47.6818 167 47.8552 166.965 48.0352 166.965C48.3552 166.965 48.5935 167.05 48.7502 167.22C48.9068 167.39 48.9852 167.618 48.9852 167.905V169.44H48.4802V167.955C48.4802 167.565 48.2935 167.37 47.9202 167.37C47.7602 167.37 47.6102 167.408 47.4702 167.485C47.3335 167.558 47.2152 167.671 47.1152 167.825V169.44H46.6102V167.04ZM50.8936 170.43C50.7136 170.43 50.5636 170.411 50.4436 170.375V169.98C50.5303 170.013 50.6369 170.03 50.7636 170.03C50.8803 170.03 50.9719 170 51.0386 169.94C51.1053 169.883 51.1653 169.79 51.2186 169.66L51.3336 169.38L50.2836 167.04H50.8036L51.6036 168.885L52.3486 167.04H52.8686L51.7886 169.71C51.6886 169.96 51.5686 170.141 51.4286 170.255C51.2919 170.371 51.1136 170.43 50.8936 170.43ZM57.0688 167.04H57.5838L58.1238 168.82L58.6588 167.04H59.1138L59.6488 168.82L60.1888 167.04H60.7088L59.9288 169.44H59.4438L58.8888 167.65L58.3338 169.44H57.8438L57.0688 167.04ZM62.8471 169.515C62.5571 169.515 62.3238 169.441 62.1471 169.295C61.9738 169.145 61.8871 168.943 61.8871 168.69C61.8871 168.423 61.9704 168.218 62.1371 168.075C62.3071 167.928 62.5471 167.855 62.8571 167.855C63.1871 167.855 63.4671 167.921 63.6971 168.055V167.93C63.6971 167.74 63.6388 167.6 63.5221 167.51C63.4088 167.416 63.2288 167.37 62.9821 167.37C62.8354 167.37 62.6921 167.385 62.5521 167.415C62.4154 167.441 62.2921 167.48 62.1821 167.53V167.12C62.2821 167.073 62.4121 167.036 62.5721 167.01C62.7321 166.98 62.8871 166.965 63.0371 166.965C63.4338 166.965 63.7271 167.053 63.9171 167.23C64.1104 167.403 64.2071 167.645 64.2071 167.955V169.44H63.7321V169.17C63.6288 169.283 63.5054 169.37 63.3621 169.43C63.2221 169.486 63.0504 169.515 62.8471 169.515ZM62.9721 169.13C63.1321 169.13 63.2771 169.098 63.4071 169.035C63.5371 168.971 63.6338 168.883 63.6971 168.77V168.445C63.4804 168.305 63.2388 168.235 62.9721 168.235C62.7788 168.235 62.6338 168.273 62.5371 168.35C62.4438 168.423 62.3971 168.536 62.3971 168.69C62.3971 168.983 62.5888 169.13 62.9721 169.13ZM66.6318 169.515C66.3885 169.515 66.2002 169.445 66.0668 169.305C65.9368 169.165 65.8718 168.966 65.8718 168.71V167.43H65.5068V167.04H65.8718V166.32H66.3818V167.04H66.9718V167.43H66.3818V168.675C66.3818 168.835 66.4118 168.948 66.4718 169.015C66.5352 169.081 66.6485 169.115 66.8118 169.115C66.9085 169.115 67.0052 169.093 67.1018 169.05V169.45C66.9752 169.493 66.8185 169.515 66.6318 169.515ZM69.897 169.515C69.4536 169.515 69.1053 169.405 68.852 169.185C68.602 168.961 68.477 168.648 68.477 168.245C68.477 167.851 68.5886 167.54 68.812 167.31C69.0386 167.08 69.3603 166.965 69.777 166.965C70.0536 166.965 70.2886 167.018 70.482 167.125C70.6753 167.228 70.8203 167.373 70.917 167.56C71.017 167.743 71.067 167.953 71.067 168.19V168.44H68.957C68.9736 168.666 69.0686 168.836 69.242 168.95C69.4186 169.06 69.657 169.115 69.957 169.115C70.1103 169.115 70.2653 169.101 70.422 169.075C70.5786 169.045 70.717 169.006 70.837 168.96V169.365C70.7303 169.408 70.5886 169.443 70.412 169.47C70.2386 169.5 70.067 169.515 69.897 169.515ZM70.592 168.085C70.5853 167.858 70.5103 167.683 70.367 167.56C70.227 167.433 70.027 167.37 69.767 167.37C69.5136 167.37 69.317 167.435 69.177 167.565C69.037 167.695 68.9636 167.868 68.957 168.085H70.592ZM72.6189 167.04H73.1089V167.47C73.2089 167.323 73.3489 167.215 73.5289 167.145C73.7123 167.075 73.9239 167.04 74.1639 167.04V167.435C73.9073 167.435 73.6873 167.476 73.5039 167.56C73.3206 167.643 73.1939 167.775 73.1239 167.955V169.44H72.6189V167.04ZM76.8078 169.515C76.5378 169.515 76.2994 169.465 76.0928 169.365C75.8894 169.261 75.7294 169.115 75.6128 168.925C75.4994 168.731 75.4428 168.505 75.4428 168.245C75.4428 167.988 75.4994 167.763 75.6128 167.57C75.7261 167.376 75.8861 167.228 76.0928 167.125C76.2994 167.018 76.5378 166.965 76.8078 166.965C77.0778 166.965 77.3161 167.018 77.5228 167.125C77.7294 167.228 77.8894 167.376 78.0028 167.57C78.1194 167.763 78.1778 167.988 78.1778 168.245C78.1778 168.505 78.1194 168.731 78.0028 168.925C77.8894 169.115 77.7294 169.261 77.5228 169.365C77.3161 169.465 77.0778 169.515 76.8078 169.515ZM76.8078 169.115C77.0678 169.115 77.2744 169.035 77.4278 168.875C77.5811 168.715 77.6578 168.505 77.6578 168.245C77.6578 167.975 77.5811 167.761 77.4278 167.605C77.2744 167.448 77.0678 167.37 76.8078 167.37C76.5478 167.37 76.3411 167.448 76.1878 167.605C76.0344 167.761 75.9578 167.975 75.9578 168.245C75.9578 168.505 76.0344 168.715 76.1878 168.875C76.3411 169.035 76.5478 169.115 76.8078 169.115ZM80.6814 169.515C80.358 169.515 80.113 169.428 79.9464 169.255C79.783 169.081 79.7014 168.85 79.7014 168.56V167.04H80.2064V168.54C80.2064 168.923 80.398 169.115 80.7814 169.115C81.118 169.115 81.3814 168.963 81.5714 168.66V167.04H82.0764V169.44H81.5864V169.1C81.473 169.243 81.338 169.348 81.1814 169.415C81.028 169.481 80.8614 169.515 80.6814 169.515ZM84.6094 169.515C84.4427 169.515 84.2661 169.493 84.0794 169.45C83.8927 169.41 83.7461 169.355 83.6394 169.285V168.855C83.7694 168.931 83.9194 168.995 84.0894 169.045C84.2594 169.091 84.4244 169.115 84.5844 169.115C84.7644 169.115 84.8961 169.093 84.9794 169.05C85.0627 169.006 85.1044 168.936 85.1044 168.84C85.1044 168.766 85.0844 168.708 85.0444 168.665C85.0077 168.618 84.9427 168.576 84.8494 168.54C84.7594 168.503 84.6227 168.46 84.4394 168.41C84.2427 168.353 84.0861 168.296 83.9694 168.24C83.8561 168.18 83.7694 168.105 83.7094 168.015C83.6527 167.925 83.6244 167.808 83.6244 167.665C83.6244 167.435 83.7144 167.261 83.8944 167.145C84.0777 167.025 84.3227 166.965 84.6294 166.965C84.7894 166.965 84.9461 166.98 85.0994 167.01C85.2527 167.04 85.3761 167.081 85.4694 167.135V167.555C85.3727 167.498 85.2527 167.453 85.1094 167.42C84.9694 167.386 84.8261 167.37 84.6794 167.37C84.5027 167.37 84.3677 167.391 84.2744 167.435C84.1811 167.478 84.1344 167.555 84.1344 167.665C84.1344 167.735 84.1544 167.791 84.1944 167.835C84.2344 167.878 84.2977 167.916 84.3844 167.95C84.4744 167.98 84.6161 168.02 84.8094 168.07C85.1127 168.153 85.3227 168.251 85.4394 168.365C85.5594 168.478 85.6194 168.635 85.6194 168.835C85.6194 169.041 85.5344 169.206 85.3644 169.33C85.1944 169.453 84.9427 169.515 84.6094 169.515ZM90.9463 169.515C90.703 169.515 90.5146 169.445 90.3813 169.305C90.2513 169.165 90.1863 168.966 90.1863 168.71V167.43H89.8213V167.04H90.1863V166.32H90.6963V167.04H91.2863V167.43H90.6963V168.675C90.6963 168.835 90.7263 168.948 90.7863 169.015C90.8496 169.081 90.963 169.115 91.1263 169.115C91.223 169.115 91.3196 169.093 91.4163 169.05V169.45C91.2896 169.493 91.133 169.515 90.9463 169.515ZM94.2114 169.515C93.7681 169.515 93.4197 169.405 93.1664 169.185C92.9164 168.961 92.7914 168.648 92.7914 168.245C92.7914 167.851 92.9031 167.54 93.1264 167.31C93.3531 167.08 93.6747 166.965 94.0914 166.965C94.3681 166.965 94.6031 167.018 94.7964 167.125C94.9897 167.228 95.1347 167.373 95.2314 167.56C95.3314 167.743 95.3814 167.953 95.3814 168.19V168.44H93.2714C93.2881 168.666 93.3831 168.836 93.5564 168.95C93.7331 169.06 93.9714 169.115 94.2714 169.115C94.4247 169.115 94.5797 169.101 94.7364 169.075C94.8931 169.045 95.0314 169.006 95.1514 168.96V169.365C95.0447 169.408 94.9031 169.443 94.7264 169.47C94.5531 169.5 94.3814 169.515 94.2114 169.515ZM94.9064 168.085C94.8997 167.858 94.8247 167.683 94.6814 167.56C94.5414 167.433 94.3414 167.37 94.0814 167.37C93.8281 167.37 93.6314 167.435 93.4914 167.565C93.3514 167.695 93.2781 167.868 93.2714 168.085H94.9064ZM97.7934 169.515C97.5034 169.515 97.2701 169.441 97.0934 169.295C96.9201 169.145 96.8334 168.943 96.8334 168.69C96.8334 168.423 96.9167 168.218 97.0834 168.075C97.2534 167.928 97.4934 167.855 97.8034 167.855C98.1334 167.855 98.4134 167.921 98.6434 168.055V167.93C98.6434 167.74 98.5851 167.6 98.4684 167.51C98.3551 167.416 98.1751 167.37 97.9284 167.37C97.7817 167.37 97.6384 167.385 97.4984 167.415C97.3617 167.441 97.2384 167.48 97.1284 167.53V167.12C97.2284 167.073 97.3584 167.036 97.5184 167.01C97.6784 166.98 97.8334 166.965 97.9834 166.965C98.3801 166.965 98.6734 167.053 98.8634 167.23C99.0567 167.403 99.1534 167.645 99.1534 167.955V169.44H98.6784V169.17C98.5751 169.283 98.4517 169.37 98.3084 169.43C98.1684 169.486 97.9967 169.515 97.7934 169.515ZM97.9184 169.13C98.0784 169.13 98.2234 169.098 98.3534 169.035C98.4834 168.971 98.5801 168.883 98.6434 168.77V168.445C98.4267 168.305 98.1851 168.235 97.9184 168.235C97.7251 168.235 97.5801 168.273 97.4834 168.35C97.3901 168.423 97.3434 168.536 97.3434 168.69C97.3434 168.983 97.5351 169.13 97.9184 169.13ZM100.78 167.04H101.27V167.47C101.37 167.323 101.51 167.215 101.69 167.145C101.873 167.075 102.085 167.04 102.325 167.04V167.435C102.068 167.435 101.848 167.476 101.665 167.56C101.482 167.643 101.355 167.775 101.285 167.955V169.44H100.78V167.04ZM104.589 169.515C104.422 169.515 104.246 169.493 104.059 169.45C103.872 169.41 103.726 169.355 103.619 169.285V168.855C103.749 168.931 103.899 168.995 104.069 169.045C104.239 169.091 104.404 169.115 104.564 169.115C104.744 169.115 104.876 169.093 104.959 169.05C105.042 169.006 105.084 168.936 105.084 168.84C105.084 168.766 105.064 168.708 105.024 168.665C104.987 168.618 104.922 168.576 104.829 168.54C104.739 168.503 104.602 168.46 104.419 168.41C104.222 168.353 104.066 168.296 103.949 168.24C103.836 168.18 103.749 168.105 103.689 168.015C103.632 167.925 103.604 167.808 103.604 167.665C103.604 167.435 103.694 167.261 103.874 167.145C104.057 167.025 104.302 166.965 104.609 166.965C104.769 166.965 104.926 166.98 105.079 167.01C105.232 167.04 105.356 167.081 105.449 167.135V167.555C105.352 167.498 105.232 167.453 105.089 167.42C104.949 167.386 104.806 167.37 104.659 167.37C104.482 167.37 104.347 167.391 104.254 167.435C104.161 167.478 104.114 167.555 104.114 167.665C104.114 167.735 104.134 167.791 104.174 167.835C104.214 167.878 104.277 167.916 104.364 167.95C104.454 167.98 104.596 168.02 104.789 168.07C105.092 168.153 105.302 168.251 105.419 168.365C105.539 168.478 105.599 168.635 105.599 168.835C105.599 169.041 105.514 169.206 105.344 169.33C105.174 169.453 104.922 169.515 104.589 169.515ZM111.266 169.515C110.996 169.515 110.757 169.465 110.551 169.365C110.347 169.261 110.187 169.115 110.071 168.925C109.957 168.731 109.901 168.505 109.901 168.245C109.901 167.988 109.957 167.763 110.071 167.57C110.184 167.376 110.344 167.228 110.551 167.125C110.757 167.018 110.996 166.965 111.266 166.965C111.536 166.965 111.774 167.018 111.981 167.125C112.187 167.228 112.347 167.376 112.461 167.57C112.577 167.763 112.636 167.988 112.636 168.245C112.636 168.505 112.577 168.731 112.461 168.925C112.347 169.115 112.187 169.261 111.981 169.365C111.774 169.465 111.536 169.515 111.266 169.515ZM111.266 169.115C111.526 169.115 111.732 169.035 111.886 168.875C112.039 168.715 112.116 168.505 112.116 168.245C112.116 167.975 112.039 167.761 111.886 167.605C111.732 167.448 111.526 167.37 111.266 167.37C111.006 167.37 110.799 167.448 110.646 167.605C110.492 167.761 110.416 167.975 110.416 168.245C110.416 168.505 110.492 168.715 110.646 168.875C110.799 169.035 111.006 169.115 111.266 169.115ZM113.757 167.04H114.292L114.997 168.765L115.702 167.04H116.237L115.217 169.44H114.777L113.757 167.04ZM118.907 169.515C118.463 169.515 118.115 169.405 117.862 169.185C117.612 168.961 117.487 168.648 117.487 168.245C117.487 167.851 117.598 167.54 117.822 167.31C118.048 167.08 118.37 166.965 118.787 166.965C119.063 166.965 119.298 167.018 119.492 167.125C119.685 167.228 119.83 167.373 119.927 167.56C120.027 167.743 120.077 167.953 120.077 168.19V168.44H117.967C117.983 168.666 118.078 168.836 118.252 168.95C118.428 169.06 118.667 169.115 118.967 169.115C119.12 169.115 119.275 169.101 119.432 169.075C119.588 169.045 119.727 169.006 119.847 168.96V169.365C119.74 169.408 119.598 169.443 119.422 169.47C119.248 169.5 119.077 169.515 118.907 169.515ZM119.602 168.085C119.595 167.858 119.52 167.683 119.377 167.56C119.237 167.433 119.037 167.37 118.777 167.37C118.523 167.37 118.327 167.435 118.187 167.565C118.047 167.695 117.973 167.868 117.967 168.085H119.602ZM121.629 167.04H122.119V167.47C122.219 167.323 122.359 167.215 122.539 167.145C122.722 167.075 122.934 167.04 123.174 167.04V167.435C122.917 167.435 122.697 167.476 122.514 167.56C122.33 167.643 122.204 167.775 122.134 167.955V169.44H121.629V167.04ZM17.62 174.57C17.5367 174.57 17.4667 174.541 17.41 174.485C17.3533 174.428 17.325 174.358 17.325 174.275C17.325 174.191 17.3533 174.121 17.41 174.065C17.4667 174.008 17.5367 173.98 17.62 173.98C17.7067 173.98 17.7783 174.008 17.835 174.065C17.895 174.121 17.925 174.191 17.925 174.275C17.925 174.358 17.895 174.428 17.835 174.485C17.7783 174.541 17.7067 174.57 17.62 174.57ZM17.365 175.04H17.88V177.44H17.365V175.04ZM20.5 177.515C20.2567 177.515 20.0683 177.445 19.935 177.305C19.805 177.165 19.74 176.966 19.74 176.71V175.43H19.375V175.04H19.74V174.32H20.25V175.04H20.84V175.43H20.25V176.675C20.25 176.835 20.28 176.948 20.34 177.015C20.4033 177.081 20.5167 177.115 20.68 177.115C20.7767 177.115 20.8733 177.093 20.97 177.05V177.45C20.8433 177.493 20.6867 177.515 20.5 177.515ZM23.2325 177.515C23.0658 177.515 22.8891 177.493 22.7025 177.45C22.5158 177.41 22.3691 177.355 22.2625 177.285V176.855C22.3925 176.931 22.5425 176.995 22.7125 177.045C22.8825 177.091 23.0475 177.115 23.2075 177.115C23.3875 177.115 23.5191 177.093 23.6025 177.05C23.6858 177.006 23.7275 176.936 23.7275 176.84C23.7275 176.766 23.7075 176.708 23.6675 176.665C23.6308 176.618 23.5658 176.576 23.4725 176.54C23.3825 176.503 23.2458 176.46 23.0625 176.41C22.8658 176.353 22.7091 176.296 22.5925 176.24C22.4791 176.18 22.3925 176.105 22.3325 176.015C22.2758 175.925 22.2475 175.808 22.2475 175.665C22.2475 175.435 22.3375 175.261 22.5175 175.145C22.7008 175.025 22.9458 174.965 23.2525 174.965C23.4125 174.965 23.5691 174.98 23.7225 175.01C23.8758 175.04 23.9991 175.081 24.0925 175.135V175.555C23.9958 175.498 23.8758 175.453 23.7325 175.42C23.5925 175.386 23.4491 175.37 23.3025 175.37C23.1258 175.37 22.9908 175.391 22.8975 175.435C22.8041 175.478 22.7575 175.555 22.7575 175.665C22.7575 175.735 22.7775 175.791 22.8175 175.835C22.8575 175.878 22.9208 175.916 23.0075 175.95C23.0975 175.98 23.2391 176.02 23.4325 176.07C23.7358 176.153 23.9458 176.251 24.0625 176.365C24.1825 176.478 24.2425 176.635 24.2425 176.835C24.2425 177.041 24.1575 177.206 23.9875 177.33C23.8175 177.453 23.5658 177.515 23.2325 177.515ZM29.8043 177.515C29.5643 177.515 29.3477 177.463 29.1543 177.36C28.9643 177.253 28.8143 177.105 28.7043 176.915C28.5977 176.721 28.5443 176.498 28.5443 176.245C28.5443 175.995 28.5977 175.773 28.7043 175.58C28.8143 175.386 28.9643 175.236 29.1543 175.13C29.3477 175.02 29.5643 174.965 29.8043 174.965C30.2377 174.965 30.566 175.096 30.7893 175.36V173.745H31.2943V177.44H30.8043V177.09C30.671 177.236 30.5243 177.345 30.3643 177.415C30.2077 177.481 30.021 177.515 29.8043 177.515ZM29.9193 177.115C30.126 177.115 30.306 177.061 30.4593 176.955C30.616 176.845 30.726 176.698 30.7893 176.515V175.975C30.7327 175.791 30.6243 175.645 30.4643 175.535C30.3077 175.425 30.126 175.37 29.9193 175.37C29.756 175.37 29.6077 175.406 29.4743 175.48C29.3443 175.553 29.241 175.656 29.1643 175.79C29.091 175.923 29.0543 176.075 29.0543 176.245C29.0543 176.415 29.091 176.566 29.1643 176.7C29.241 176.833 29.3443 176.936 29.4743 177.01C29.6077 177.08 29.756 177.115 29.9193 177.115ZM34.2651 177.515C33.8218 177.515 33.4735 177.405 33.2201 177.185C32.9701 176.961 32.8451 176.648 32.8451 176.245C32.8451 175.851 32.9568 175.54 33.1801 175.31C33.4068 175.08 33.7285 174.965 34.1451 174.965C34.4218 174.965 34.6568 175.018 34.8501 175.125C35.0435 175.228 35.1885 175.373 35.2851 175.56C35.3851 175.743 35.4351 175.953 35.4351 176.19V176.44H33.3251C33.3418 176.666 33.4368 176.836 33.6101 176.95C33.7868 177.06 34.0251 177.115 34.3251 177.115C34.4785 177.115 34.6335 177.101 34.7901 177.075C34.9468 177.045 35.0851 177.006 35.2051 176.96V177.365C35.0985 177.408 34.9568 177.443 34.7801 177.47C34.6068 177.5 34.4351 177.515 34.2651 177.515ZM34.9601 176.085C34.9535 175.858 34.8785 175.683 34.7351 175.56C34.5951 175.433 34.3951 175.37 34.1351 175.37C33.8818 175.37 33.6851 175.435 33.5451 175.565C33.4051 175.695 33.3318 175.868 33.3251 176.085H34.9601ZM37.8471 177.515C37.5571 177.515 37.3238 177.441 37.1471 177.295C36.9738 177.145 36.8871 176.943 36.8871 176.69C36.8871 176.423 36.9704 176.218 37.1371 176.075C37.3071 175.928 37.5471 175.855 37.8571 175.855C38.1871 175.855 38.4671 175.921 38.6971 176.055V175.93C38.6971 175.74 38.6388 175.6 38.5221 175.51C38.4088 175.416 38.2288 175.37 37.9821 175.37C37.8354 175.37 37.6921 175.385 37.5521 175.415C37.4154 175.441 37.2921 175.48 37.1821 175.53V175.12C37.2821 175.073 37.4121 175.036 37.5721 175.01C37.7321 174.98 37.8871 174.965 38.0371 174.965C38.4338 174.965 38.7271 175.053 38.9171 175.23C39.1104 175.403 39.2071 175.645 39.2071 175.955V177.44H38.7321V177.17C38.6288 177.283 38.5054 177.37 38.3621 177.43C38.2221 177.486 38.0504 177.515 37.8471 177.515ZM37.9721 177.13C38.1321 177.13 38.2771 177.098 38.4071 177.035C38.5371 176.971 38.6338 176.883 38.6971 176.77V176.445C38.4804 176.305 38.2388 176.235 37.9721 176.235C37.7788 176.235 37.6338 176.273 37.5371 176.35C37.4438 176.423 37.3971 176.536 37.3971 176.69C37.3971 176.983 37.5888 177.13 37.9721 177.13ZM41.6318 177.515C41.3885 177.515 41.2002 177.445 41.0668 177.305C40.9368 177.165 40.8718 176.966 40.8718 176.71V175.43H40.5068V175.04H40.8718V174.32H41.3818V175.04H41.9718V175.43H41.3818V176.675C41.3818 176.835 41.4118 176.948 41.4718 177.015C41.5352 177.081 41.6485 177.115 41.8118 177.115C41.9085 177.115 42.0052 177.093 42.1018 177.05V177.45C41.9752 177.493 41.8185 177.515 41.6318 177.515ZM43.577 173.745H44.082V175.37C44.312 175.1 44.6186 174.965 45.002 174.965C45.322 174.965 45.5603 175.05 45.717 175.22C45.8736 175.39 45.952 175.618 45.952 175.905V177.44H45.447V175.955C45.447 175.565 45.2603 175.37 44.887 175.37C44.727 175.37 44.577 175.408 44.437 175.485C44.3003 175.558 44.182 175.671 44.082 175.825V177.44H43.577V173.745ZM47.71 177.44C47.6433 177.44 47.5867 177.418 47.54 177.375C47.4967 177.328 47.475 177.271 47.475 177.205C47.475 177.138 47.4967 177.081 47.54 177.035C47.5867 176.988 47.6433 176.965 47.71 176.965C47.7767 176.965 47.8333 176.988 47.88 177.035C47.9267 177.081 47.95 177.138 47.95 177.205C47.95 177.271 47.9267 177.328 47.88 177.375C47.8333 177.418 47.7767 177.44 47.71 177.44Z" fill="black"/>
<rect x="12.25" y="144.681" width="125.5" height="46.6416" stroke="#6C6C6C" stroke-width="0.5"/>
<path d="M16.455 36.2793C15.735 36.2793 15.085 36.1243 14.505 35.8143C13.935 35.4943 13.485 35.0493 13.155 34.4793C12.835 33.8993 12.675 33.2293 12.675 32.4693C12.675 31.7193 12.835 31.0543 13.155 30.4743C13.485 29.8943 13.935 29.4443 14.505 29.1243C15.085 28.7943 15.735 28.6293 16.455 28.6293C17.755 28.6293 18.74 29.0243 19.41 29.8143V24.9693H20.925V36.0543H19.455V35.0043C19.055 35.4443 18.615 35.7693 18.135 35.9793C17.665 36.1793 17.105 36.2793 16.455 36.2793ZM16.8 35.0793C17.42 35.0793 17.96 34.9193 18.42 34.5993C18.89 34.2693 19.22 33.8293 19.41 33.2793V31.6593C19.24 31.1093 18.915 30.6693 18.435 30.3393C17.965 30.0093 17.42 29.8443 16.8 29.8443C16.31 29.8443 15.865 29.9543 15.465 30.1743C15.075 30.3943 14.765 30.7043 14.535 31.1043C14.315 31.5043 14.205 31.9593 14.205 32.4693C14.205 32.9793 14.315 33.4343 14.535 33.8343C14.765 34.2343 15.075 34.5443 15.465 34.7643C15.865 34.9743 16.31 35.0793 16.8 35.0793ZM29.8373 36.2793C28.5073 36.2793 27.4623 35.9493 26.7023 35.2893C25.9523 34.6193 25.5773 33.6793 25.5773 32.4693C25.5773 31.2893 25.9123 30.3543 26.5823 29.6643C27.2623 28.9743 28.2273 28.6293 29.4773 28.6293C30.3073 28.6293 31.0123 28.7893 31.5923 29.1093C32.1723 29.4193 32.6073 29.8543 32.8973 30.4143C33.1973 30.9643 33.3473 31.5943 33.3473 32.3043V33.0543H27.0173C27.0673 33.7343 27.3523 34.2443 27.8723 34.5843C28.4023 34.9143 29.1173 35.0793 30.0173 35.0793C30.4773 35.0793 30.9423 35.0393 31.4123 34.9593C31.8823 34.8693 32.2973 34.7543 32.6573 34.6143V35.8293C32.3373 35.9593 31.9123 36.0643 31.3823 36.1443C30.8623 36.2343 30.3473 36.2793 29.8373 36.2793ZM31.9223 31.9893C31.9023 31.3093 31.6773 30.7843 31.2473 30.4143C30.8273 30.0343 30.2273 29.8443 29.4473 29.8443C28.6873 29.8443 28.0973 30.0393 27.6773 30.4293C27.2573 30.8193 27.0373 31.3393 27.0173 31.9893H31.9223ZM40.5833 36.2793C39.7133 36.2793 39.0133 36.0593 38.4833 35.6193C37.9633 35.1693 37.7033 34.5643 37.7033 33.8043C37.7033 33.0043 37.9533 32.3893 38.4533 31.9593C38.9633 31.5193 39.6833 31.2993 40.6133 31.2993C41.6033 31.2993 42.4433 31.4993 43.1333 31.8993V31.5243C43.1333 30.9543 42.9583 30.5343 42.6083 30.2643C42.2683 29.9843 41.7283 29.8443 40.9883 29.8443C40.5483 29.8443 40.1183 29.8893 39.6983 29.9793C39.2883 30.0593 38.9183 30.1743 38.5883 30.3243V29.0943C38.8883 28.9543 39.2783 28.8443 39.7583 28.7643C40.2383 28.6743 40.7033 28.6293 41.1533 28.6293C42.3433 28.6293 43.2233 28.8943 43.7933 29.4243C44.3733 29.9443 44.6633 30.6693 44.6633 31.5993V36.0543H43.2383V35.2443C42.9283 35.5843 42.5583 35.8443 42.1283 36.0243C41.7083 36.1943 41.1933 36.2793 40.5833 36.2793ZM40.9583 35.1243C41.4383 35.1243 41.8733 35.0293 42.2633 34.8393C42.6533 34.6493 42.9433 34.3843 43.1333 34.0443V33.0693C42.4833 32.6493 41.7583 32.4393 40.9583 32.4393C40.3783 32.4393 39.9433 32.5543 39.6533 32.7843C39.3733 33.0043 39.2333 33.3443 39.2333 33.8043C39.2333 34.6843 39.8083 35.1243 40.9583 35.1243ZM53.0234 36.2793C52.3034 36.2793 51.6534 36.1243 51.0734 35.8143C50.5034 35.4943 50.0534 35.0493 49.7234 34.4793C49.4034 33.8993 49.2434 33.2293 49.2434 32.4693C49.2434 31.7193 49.4034 31.0543 49.7234 30.4743C50.0534 29.8943 50.5034 29.4443 51.0734 29.1243C51.6534 28.7943 52.3034 28.6293 53.0234 28.6293C54.3234 28.6293 55.3084 29.0243 55.9784 29.8143V24.9693H57.4934V36.0543H56.0234V35.0043C55.6234 35.4443 55.1834 35.7693 54.7034 35.9793C54.2334 36.1793 53.6734 36.2793 53.0234 36.2793ZM53.3684 35.0793C53.9884 35.0793 54.5284 34.9193 54.9884 34.5993C55.4584 34.2693 55.7884 33.8293 55.9784 33.2793V31.6593C55.8084 31.1093 55.4834 30.6693 55.0034 30.3393C54.5334 30.0093 53.9884 29.8443 53.3684 29.8443C52.8784 29.8443 52.4334 29.9543 52.0334 30.1743C51.6434 30.3943 51.3334 30.7043 51.1034 31.1043C50.8834 31.5043 50.7734 31.9593 50.7734 32.4693C50.7734 32.9793 50.8834 33.4343 51.1034 33.8343C51.3334 34.2343 51.6434 34.5443 52.0334 34.7643C52.4334 34.9743 52.8784 35.0793 53.3684 35.0793ZM70.6975 28.8543H72.2425L73.8625 34.1943L75.4675 28.8543H76.8325L78.4375 34.1943L80.0575 28.8543H81.6175L79.2775 36.0543H77.8225L76.1575 30.6843L74.4925 36.0543H73.0225L70.6975 28.8543ZM88.0325 36.2793C87.1625 36.2793 86.4625 36.0593 85.9325 35.6193C85.4125 35.1693 85.1525 34.5643 85.1525 33.8043C85.1525 33.0043 85.4025 32.3893 85.9025 31.9593C86.4125 31.5193 87.1325 31.2993 88.0625 31.2993C89.0525 31.2993 89.8925 31.4993 90.5825 31.8993V31.5243C90.5825 30.9543 90.4075 30.5343 90.0575 30.2643C89.7175 29.9843 89.1775 29.8443 88.4375 29.8443C87.9975 29.8443 87.5675 29.8893 87.1475 29.9793C86.7375 30.0593 86.3675 30.1743 86.0375 30.3243V29.0943C86.3375 28.9543 86.7275 28.8443 87.2075 28.7643C87.6875 28.6743 88.1525 28.6293 88.6025 28.6293C89.7925 28.6293 90.6725 28.8943 91.2425 29.4243C91.8225 29.9443 92.1125 30.6693 92.1125 31.5993V36.0543H90.6875V35.2443C90.3775 35.5843 90.0075 35.8443 89.5775 36.0243C89.1575 36.1943 88.6425 36.2793 88.0325 36.2793ZM88.4075 35.1243C88.8875 35.1243 89.3225 35.0293 89.7125 34.8393C90.1025 34.6493 90.3925 34.3843 90.5825 34.0443V33.0693C89.9325 32.6493 89.2075 32.4393 88.4075 32.4393C87.8275 32.4393 87.3925 32.5543 87.1025 32.7843C86.8225 33.0043 86.6825 33.3443 86.6825 33.8043C86.6825 34.6843 87.2575 35.1243 88.4075 35.1243ZM99.3867 36.2793C98.6567 36.2793 98.0917 36.0693 97.6917 35.6493C97.3017 35.2293 97.1067 34.6343 97.1067 33.8643V30.0243H96.0117V28.8543H97.1067V26.6943H98.6367V28.8543H100.407V30.0243H98.6367V33.7593C98.6367 34.2393 98.7267 34.5793 98.9067 34.7793C99.0967 34.9793 99.4367 35.0793 99.9267 35.0793C100.217 35.0793 100.507 35.0143 100.797 34.8843V36.0843C100.417 36.2143 99.9467 36.2793 99.3867 36.2793ZM109.182 36.2793C107.852 36.2793 106.807 35.9493 106.047 35.2893C105.297 34.6193 104.922 33.6793 104.922 32.4693C104.922 31.2893 105.257 30.3543 105.927 29.6643C106.607 28.9743 107.572 28.6293 108.822 28.6293C109.652 28.6293 110.357 28.7893 110.937 29.1093C111.517 29.4193 111.952 29.8543 112.242 30.4143C112.542 30.9643 112.692 31.5943 112.692 32.3043V33.0543H106.362C106.412 33.7343 106.697 34.2443 107.217 34.5843C107.747 34.9143 108.462 35.0793 109.362 35.0793C109.822 35.0793 110.287 35.0393 110.757 34.9593C111.227 34.8693 111.642 34.7543 112.002 34.6143V35.8293C111.682 35.9593 111.257 36.0643 110.727 36.1443C110.207 36.2343 109.692 36.2793 109.182 36.2793ZM111.267 31.9893C111.247 31.3093 111.022 30.7843 110.592 30.4143C110.172 30.0343 109.572 29.8443 108.792 29.8443C108.032 29.8443 107.442 30.0393 107.022 30.4293C106.602 30.8193 106.382 31.3393 106.362 31.9893H111.267ZM117.348 28.8543H118.818V30.1443C119.118 29.7043 119.538 29.3793 120.078 29.1693C120.628 28.9593 121.263 28.8543 121.983 28.8543V30.0393C121.213 30.0393 120.553 30.1643 120.003 30.4143C119.453 30.6643 119.073 31.0593 118.863 31.5993V36.0543H117.348V28.8543Z" fill="black"/>
<path d="M12.8691 20.0682L17.1807 18.2177V17.5048L12.8691 15.6591V16.5917L16.0283 17.7635L16.3213 17.8563L16.0283 17.9393L12.8691 19.1307V20.0682ZM20.875 20.0682L25.1865 18.2177V17.5048L20.875 15.6591V16.5917L24.0342 17.7635L24.3271 17.8563L24.0342 17.9393L20.875 19.1307V20.0682ZM37.375 21.0302H38.0879L38.9033 17.7928L39.0352 16.9725L39.1719 17.7928L39.9971 21.0302H40.71L41.833 15.7469H41.0322L40.4463 19.1161L40.3145 19.9462L40.1729 19.1161L39.333 15.7469H38.752L37.9072 19.1161L37.7754 19.8729L37.668 19.1161L37.0527 15.7469H36.252L37.375 21.0302ZM48.3447 21.0302H49.2871V20.952C49.2285 20.8055 49.1829 20.6346 49.1504 20.4393C49.1178 20.2408 49.1016 20.0536 49.1016 19.8778V17.4218C49.1016 17.1255 49.0479 16.8667 48.9404 16.6454C48.833 16.424 48.6865 16.2385 48.501 16.0887C48.3122 15.9423 48.0892 15.8332 47.832 15.7616C47.5749 15.6867 47.2965 15.6493 46.9971 15.6493C46.6683 15.6493 46.3737 15.6949 46.1133 15.786C45.8561 15.8772 45.638 15.996 45.459 16.1425C45.2767 16.2922 45.1367 16.4598 45.0391 16.6454C44.9447 16.8309 44.8958 17.0197 44.8926 17.2118H45.8008C45.8008 17.1011 45.8268 16.9953 45.8789 16.8944C45.9342 16.7902 46.0107 16.7007 46.1084 16.6259C46.2061 16.551 46.3249 16.4908 46.4648 16.4452C46.6081 16.3996 46.7692 16.3768 46.9482 16.3768C47.1403 16.3768 47.3128 16.4012 47.4658 16.4501C47.6221 16.4989 47.7539 16.5673 47.8613 16.6552C47.9688 16.7463 48.0518 16.8553 48.1104 16.9823C48.1689 17.1093 48.1982 17.2525 48.1982 17.412V17.827H47.2119C46.8441 17.827 46.5104 17.8628 46.2109 17.9344C45.9147 18.0061 45.6608 18.1135 45.4492 18.2567C45.2376 18.4032 45.0732 18.5855 44.9561 18.8036C44.8421 19.0217 44.7852 19.2756 44.7852 19.5653C44.7852 19.7867 44.8275 19.9934 44.9121 20.1854C45 20.3742 45.1237 20.537 45.2832 20.6737C45.4395 20.8137 45.6299 20.9244 45.8545 21.0057C46.0824 21.0871 46.3363 21.1278 46.6162 21.1278C46.7887 21.1278 46.9515 21.1099 47.1045 21.0741C47.2575 21.0383 47.4023 20.9895 47.5391 20.9276C47.6725 20.8658 47.7946 20.7941 47.9053 20.7128C48.0192 20.6314 48.1217 20.5451 48.2129 20.454C48.2227 20.5647 48.2373 20.6721 48.2568 20.7762C48.2796 20.8772 48.3089 20.9618 48.3447 21.0302ZM46.748 20.3417C46.5723 20.3417 46.4176 20.3189 46.2842 20.2733C46.1507 20.2277 46.04 20.1643 45.9521 20.0829C45.8643 20.0048 45.7975 19.9104 45.752 19.7997C45.7096 19.689 45.6885 19.5686 45.6885 19.4384C45.6885 19.3016 45.7129 19.1796 45.7617 19.0721C45.8138 18.9647 45.8887 18.8719 45.9863 18.7938C46.123 18.6831 46.307 18.6018 46.5381 18.5497C46.7725 18.4943 47.0459 18.4667 47.3584 18.4667H48.1982V19.536C48.1462 19.6402 48.0745 19.7411 47.9834 19.8387C47.8923 19.9331 47.7848 20.0178 47.6611 20.0927C47.5342 20.1675 47.3942 20.2277 47.2412 20.2733C47.0882 20.3189 46.9238 20.3417 46.748 20.3417ZM55.0176 14.4677H54.1094V15.7469H52.7227V16.4452H54.1094V19.3163C54.1094 19.6418 54.1517 19.9201 54.2363 20.1512C54.3242 20.3791 54.443 20.5647 54.5928 20.7079C54.7425 20.8544 54.9183 20.9618 55.1201 21.0302C55.3252 21.0953 55.5449 21.1278 55.7793 21.1278C55.9193 21.1278 56.0592 21.1213 56.1992 21.1083C56.3424 21.0953 56.4775 21.0757 56.6045 21.0497C56.7314 21.0269 56.8486 20.9992 56.9561 20.9667C57.0635 20.9309 57.1546 20.8902 57.2295 20.8446L57.1025 20.205C57.0472 20.218 56.9756 20.2343 56.8877 20.2538C56.8031 20.2701 56.7119 20.2863 56.6143 20.3026C56.5133 20.3189 56.4108 20.3335 56.3066 20.3466C56.2025 20.3563 56.1016 20.3612 56.0039 20.3612C55.8704 20.3612 55.7435 20.3449 55.623 20.3124C55.5059 20.2798 55.4017 20.2229 55.3105 20.1415C55.2194 20.0634 55.1478 19.9576 55.0957 19.8241C55.0436 19.6906 55.0176 19.5214 55.0176 19.3163V16.4452H57.0293V15.7469H55.0176V14.4677ZM63.2188 21.1278C63.7331 21.1278 64.1644 21.0253 64.5127 20.8202C64.8643 20.6119 65.1279 20.3742 65.3037 20.1073L64.752 19.6776C64.5859 19.8925 64.3776 20.065 64.127 20.1952C63.8763 20.3254 63.5898 20.3905 63.2676 20.3905C63.0234 20.3905 62.8005 20.3449 62.5986 20.2538C62.3968 20.1626 62.2243 20.0373 62.0811 19.8778C61.9411 19.7281 61.8304 19.5555 61.749 19.3602C61.6709 19.1649 61.6204 18.9387 61.5977 18.6815V18.6473H65.3721V18.2421C65.3721 17.8742 65.3249 17.5324 65.2305 17.2167C65.1393 16.9009 64.9993 16.6259 64.8105 16.3915C64.6217 16.1604 64.3841 15.9797 64.0977 15.8495C63.8145 15.716 63.4824 15.6493 63.1016 15.6493C62.7988 15.6493 62.5026 15.7111 62.2129 15.8348C61.9264 15.9585 61.6709 16.1359 61.4463 16.3671C61.2184 16.6014 61.0361 16.8879 60.8994 17.2264C60.7627 17.5617 60.6943 17.9426 60.6943 18.369V18.5741C60.6943 18.9419 60.7562 19.2821 60.8799 19.5946C61.0036 19.9071 61.1761 20.1773 61.3975 20.4052C61.6188 20.633 61.8841 20.8104 62.1934 20.9374C62.5059 21.0643 62.8477 21.1278 63.2188 21.1278ZM63.1016 16.3915C63.3327 16.3915 63.5312 16.4338 63.6973 16.5184C63.8665 16.6031 64.0065 16.7137 64.1172 16.8505C64.2279 16.9872 64.3141 17.1499 64.376 17.3387C64.4378 17.5243 64.4688 17.6984 64.4688 17.8612V17.9052H61.627C61.6628 17.661 61.7246 17.4462 61.8125 17.2606C61.9036 17.0718 62.0143 16.9123 62.1445 16.7821C62.2747 16.6552 62.4212 16.5591 62.584 16.494C62.7467 16.4257 62.9193 16.3915 63.1016 16.3915ZM72.3525 15.6493C71.9684 15.6493 71.625 15.7339 71.3223 15.9032C71.0228 16.0692 70.7656 16.2971 70.5508 16.5868L70.5459 16.455L70.5068 15.7469H69.6475V21.0302H70.5557V17.6415C70.6143 17.4787 70.6875 17.3322 70.7754 17.202C70.8665 17.0686 70.9723 16.9563 71.0928 16.8651C71.2262 16.7609 71.3825 16.6828 71.5615 16.6307C71.7406 16.5754 71.9408 16.5477 72.1621 16.5477C72.3346 16.5477 72.499 16.5575 72.6553 16.577C72.8148 16.5933 72.9824 16.621 73.1582 16.66L73.2803 15.7762C73.1891 15.7372 73.0524 15.7063 72.8701 15.6835C72.6911 15.6607 72.5186 15.6493 72.3525 15.6493Z" fill="#707070"/>
<g opacity="0.2">
<g filter="url(#filter0_d_85_31)">
<path d="M94.7073 88.7397L85.9268 77.1812L77.1463 56.1657L65.0732 72.9781L53 87.6889V107.654L66.1707 122.365L83.7317 120.263L98 106.603L94.7073 88.7397Z" fill="#0068C8"/>
</g>
<path d="M62.1839 95.4689L71.7554 88.0187L72.8161 89.0794L64.3052 97.5902L62.1839 95.4689Z" fill="#D9D9D9"/>
<path d="M70.6947 97.5902L63.2446 88.0187L64.3052 86.9581L72.8161 95.4689L70.6947 97.5902Z" fill="#D9D9D9"/>
<path d="M78.3053 98.5902L85.7554 89.0187L84.6948 87.9581L76.1839 96.4689L78.3053 98.5902Z" fill="#D9D9D9"/>
<path d="M76.1839 90.0794L85.7554 97.5296L86.8161 96.469L78.3052 87.9581L76.1839 90.0794Z" fill="#D9D9D9"/>
</g>
<defs>
<filter id="filter0_d_85_31" x="49" y="56.1657" width="53" height="74.1988" filterUnits="userSpaceOnUse" color-interpolation-filters="sRGB">
<feFlood flood-opacity="0" result="BackgroundImageFix"/>
<feColorMatrix in="SourceAlpha" type="matrix" values="0 0 0 0 0 0 0 0 0 0 0 0 0 0 0 0 0 0 127 0" result="hardAlpha"/>
<feOffset dy="4"/>
<feGaussianBlur stdDeviation="2"/>
<feComposite in2="hardAlpha" operator="out"/>
<feColorMatrix type="matrix" values="0 0 0 0 0 0 0 0 0 0 0 0 0 0 0 0 0 0 0.25 0"/>
<feBlend mode="normal" in2="BackgroundImageFix" result="effect1_dropShadow_85_31"/>
<feBlend mode="normal" in="SourceGraphic" in2="effect1_dropShadow_85_31" result="shape"/>
</filter>
</defs>
</svg>
