<svg width="150" height="200" viewBox="0 0 150 200" fill="none" xmlns="http://www.w3.org/2000/svg">
<rect width="150" height="200" fill="white"/>
<rect width="150" height="200" fill="white"/>
<path d="M18.62 148.505H19.11L20.505 152H19.985L19.635 151.13H18.09L17.75 152H17.225L18.62 148.505ZM19.495 150.705L18.865 149.07L18.235 150.705H19.495ZM24.8061 149.6H25.3211L25.8611 151.38L26.3961 149.6H26.8511L27.3861 151.38L27.9261 149.6H28.4461L27.6661 152H27.1811L26.6261 150.21L26.0711 152H25.5811L24.8061 149.6ZM30.5844 152.075C30.2944 152.075 30.0611 152.002 29.8844 151.855C29.7111 151.705 29.6244 151.503 29.6244 151.25C29.6244 150.983 29.7077 150.778 29.8744 150.635C30.0444 150.488 30.2844 150.415 30.5944 150.415C30.9244 150.415 31.2044 150.482 31.4344 150.615V150.49C31.4344 150.3 31.3761 150.16 31.2594 150.07C31.1461 149.977 30.9661 149.93 30.7194 149.93C30.5727 149.93 30.4294 149.945 30.2894 149.975C30.1527 150.002 30.0294 150.04 29.9194 150.09V149.68C30.0194 149.633 30.1494 149.597 30.3094 149.57C30.4694 149.54 30.6244 149.525 30.7744 149.525C31.1711 149.525 31.4644 149.613 31.6544 149.79C31.8477 149.963 31.9444 150.205 31.9444 150.515V152H31.4694V151.73C31.3661 151.843 31.2427 151.93 31.0994 151.99C30.9594 152.047 30.7877 152.075 30.5844 152.075ZM30.7094 151.69C30.8694 151.69 31.0144 151.658 31.1444 151.595C31.2744 151.532 31.3711 151.443 31.4344 151.33V151.005C31.2177 150.865 30.9761 150.795 30.7094 150.795C30.5161 150.795 30.3711 150.833 30.2744 150.91C30.1811 150.983 30.1344 151.097 30.1344 151.25C30.1344 151.543 30.3261 151.69 30.7094 151.69ZM34.3691 152.075C34.1258 152.075 33.9375 152.005 33.8041 151.865C33.6741 151.725 33.6091 151.527 33.6091 151.27V149.99H33.2441V149.6H33.6091V148.88H34.1191V149.6H34.7091V149.99H34.1191V151.235C34.1191 151.395 34.1491 151.508 34.2091 151.575C34.2725 151.642 34.3858 151.675 34.5491 151.675C34.6458 151.675 34.7425 151.653 34.8391 151.61V152.01C34.7125 152.053 34.5558 152.075 34.3691 152.075ZM37.6343 152.075C37.1909 152.075 36.8426 151.965 36.5893 151.745C36.3393 151.522 36.2143 151.208 36.2143 150.805C36.2143 150.412 36.3259 150.1 36.5493 149.87C36.7759 149.64 37.0976 149.525 37.5143 149.525C37.7909 149.525 38.0259 149.578 38.2193 149.685C38.4126 149.788 38.5576 149.933 38.6543 150.12C38.7543 150.303 38.8043 150.513 38.8043 150.75V151H36.6943C36.7109 151.227 36.8059 151.397 36.9793 151.51C37.1559 151.62 37.3943 151.675 37.6943 151.675C37.8476 151.675 38.0026 151.662 38.1593 151.635C38.3159 151.605 38.4543 151.567 38.5743 151.52V151.925C38.4676 151.968 38.3259 152.003 38.1493 152.03C37.9759 152.06 37.8043 152.075 37.6343 152.075ZM38.3293 150.645C38.3226 150.418 38.2476 150.243 38.1043 150.12C37.9643 149.993 37.7643 149.93 37.5043 149.93C37.2509 149.93 37.0543 149.995 36.9143 150.125C36.7743 150.255 36.7009 150.428 36.6943 150.645H38.3293ZM40.3563 149.6H40.8463V150.03C40.9463 149.883 41.0863 149.775 41.2663 149.705C41.4496 149.635 41.6613 149.6 41.9013 149.6V149.995C41.6446 149.995 41.4246 150.037 41.2413 150.12C41.0579 150.203 40.9313 150.335 40.8613 150.515V152H40.3563V149.6ZM47.6939 152.075C47.4772 152.075 47.2889 152.042 47.1289 151.975C46.9722 151.905 46.8272 151.797 46.6939 151.65V152H46.2039V148.305H46.7089V149.92C46.8189 149.79 46.9606 149.692 47.1339 149.625C47.3072 149.558 47.4939 149.525 47.6939 149.525C47.9339 149.525 48.1489 149.58 48.3389 149.69C48.5322 149.797 48.6822 149.947 48.7889 150.14C48.8989 150.333 48.9539 150.555 48.9539 150.805C48.9539 151.058 48.8989 151.282 48.7889 151.475C48.6822 151.665 48.5322 151.813 48.3389 151.92C48.1489 152.023 47.9339 152.075 47.6939 152.075ZM47.5789 151.675C47.7422 151.675 47.8889 151.64 48.0189 151.57C48.1522 151.497 48.2556 151.393 48.3289 151.26C48.4056 151.127 48.4439 150.975 48.4439 150.805C48.4439 150.635 48.4056 150.483 48.3289 150.35C48.2556 150.217 48.1522 150.113 48.0189 150.04C47.8889 149.967 47.7422 149.93 47.5789 149.93C47.3756 149.93 47.1939 149.985 47.0339 150.095C46.8739 150.205 46.7656 150.352 46.7089 150.535V151.075C46.7722 151.258 46.8806 151.405 47.0339 151.515C47.1906 151.622 47.3722 151.675 47.5789 151.675ZM51.6427 152.075C51.3727 152.075 51.1344 152.025 50.9277 151.925C50.7244 151.822 50.5644 151.675 50.4477 151.485C50.3344 151.292 50.2777 151.065 50.2777 150.805C50.2777 150.548 50.3344 150.323 50.4477 150.13C50.5611 149.937 50.7211 149.788 50.9277 149.685C51.1344 149.578 51.3727 149.525 51.6427 149.525C51.9127 149.525 52.1511 149.578 52.3577 149.685C52.5644 149.788 52.7244 149.937 52.8377 150.13C52.9544 150.323 53.0127 150.548 53.0127 150.805C53.0127 151.065 52.9544 151.292 52.8377 151.485C52.7244 151.675 52.5644 151.822 52.3577 151.925C52.1511 152.025 51.9127 152.075 51.6427 152.075ZM51.6427 151.675C51.9027 151.675 52.1094 151.595 52.2627 151.435C52.4161 151.275 52.4927 151.065 52.4927 150.805C52.4927 150.535 52.4161 150.322 52.2627 150.165C52.1094 150.008 51.9027 149.93 51.6427 149.93C51.3827 149.93 51.1761 150.008 51.0227 150.165C50.8694 150.322 50.7927 150.535 50.7927 150.805C50.7927 151.065 50.8694 151.275 51.0227 151.435C51.1761 151.595 51.3827 151.675 51.6427 151.675ZM55.4131 152.075C55.1698 152.075 54.9814 152.005 54.8481 151.865C54.7181 151.725 54.6531 151.527 54.6531 151.27V149.99H54.2881V149.6H54.6531V148.88H55.1631V149.6H55.7531V149.99H55.1631V151.235C55.1631 151.395 55.1931 151.508 55.2531 151.575C55.3164 151.642 55.4298 151.675 55.5931 151.675C55.6898 151.675 55.7864 151.653 55.8831 151.61V152.01C55.7564 152.053 55.5998 152.075 55.4131 152.075ZM58.1562 152.075C57.9129 152.075 57.7246 152.005 57.5913 151.865C57.4613 151.725 57.3963 151.527 57.3963 151.27V149.99H57.0313V149.6H57.3963V148.88H57.9063V149.6H58.4963V149.99H57.9063V151.235C57.9063 151.395 57.9363 151.508 57.9963 151.575C58.0596 151.642 58.1729 151.675 58.3363 151.675C58.4329 151.675 58.5296 151.653 58.6263 151.61V152.01C58.4996 152.053 58.3429 152.075 58.1562 152.075ZM60.1014 148.305H60.6064V152H60.1014V148.305ZM63.5786 152.075C63.1353 152.075 62.7869 151.965 62.5336 151.745C62.2836 151.522 62.1586 151.208 62.1586 150.805C62.1586 150.412 62.2703 150.1 62.4936 149.87C62.7203 149.64 63.0419 149.525 63.4586 149.525C63.7353 149.525 63.9703 149.578 64.1636 149.685C64.3569 149.788 64.5019 149.933 64.5986 150.12C64.6986 150.303 64.7486 150.513 64.7486 150.75V151H62.6386C62.6553 151.227 62.7503 151.397 62.9236 151.51C63.1003 151.62 63.3386 151.675 63.6386 151.675C63.7919 151.675 63.9469 151.662 64.1036 151.635C64.2603 151.605 64.3986 151.567 64.5186 151.52V151.925C64.4119 151.968 64.2703 152.003 64.0936 152.03C63.9203 152.06 63.7486 152.075 63.5786 152.075ZM64.2736 150.645C64.2669 150.418 64.1919 150.243 64.0486 150.12C63.9086 149.993 63.7086 149.93 63.4486 149.93C63.1953 149.93 62.9986 149.995 62.8586 150.125C62.7186 150.255 62.6453 150.428 62.6386 150.645H64.2736ZM70.4162 152.075C70.1495 152.075 69.9128 152.025 69.7062 151.925C69.4995 151.825 69.3378 151.68 69.2212 151.49C69.1078 151.297 69.0512 151.068 69.0512 150.805C69.0512 150.542 69.1078 150.315 69.2212 150.125C69.3378 149.932 69.4995 149.783 69.7062 149.68C69.9162 149.577 70.1562 149.525 70.4262 149.525C70.7928 149.525 71.0862 149.597 71.3062 149.74V150.155C71.0895 150.005 70.8128 149.93 70.4762 149.93C70.2028 149.93 69.9812 150.005 69.8112 150.155C69.6445 150.302 69.5612 150.518 69.5612 150.805C69.5612 151.092 69.6445 151.308 69.8112 151.455C69.9778 151.602 70.1962 151.675 70.4662 151.675C70.8028 151.675 71.0928 151.595 71.3362 151.435V151.845C71.2195 151.925 71.0862 151.983 70.9362 152.02C70.7895 152.057 70.6162 152.075 70.4162 152.075ZM73.7211 152.075C73.4311 152.075 73.1978 152.002 73.0211 151.855C72.8478 151.705 72.7611 151.503 72.7611 151.25C72.7611 150.983 72.8445 150.778 73.0111 150.635C73.1811 150.488 73.4211 150.415 73.7311 150.415C74.0611 150.415 74.3411 150.482 74.5711 150.615V150.49C74.5711 150.3 74.5128 150.16 74.3961 150.07C74.2828 149.977 74.1028 149.93 73.8561 149.93C73.7095 149.93 73.5661 149.945 73.4261 149.975C73.2895 150.002 73.1661 150.04 73.0561 150.09V149.68C73.1561 149.633 73.2861 149.597 73.4461 149.57C73.6061 149.54 73.7611 149.525 73.9111 149.525C74.3078 149.525 74.6011 149.613 74.7911 149.79C74.9845 149.963 75.0811 150.205 75.0811 150.515V152H74.6061V151.73C74.5028 151.843 74.3795 151.93 74.2361 151.99C74.0961 152.047 73.9245 152.075 73.7211 152.075ZM73.8461 151.69C74.0061 151.69 74.1511 151.658 74.2811 151.595C74.4111 151.532 74.5078 151.443 74.5711 151.33V151.005C74.3545 150.865 74.1128 150.795 73.8461 150.795C73.6528 150.795 73.5078 150.833 73.4111 150.91C73.3178 150.983 73.2711 151.097 73.2711 151.25C73.2711 151.543 73.4628 151.69 73.8461 151.69ZM76.7078 149.6H77.1978V149.945C77.3111 149.802 77.4495 149.697 77.6128 149.63C77.7795 149.56 77.9528 149.525 78.1328 149.525C78.4528 149.525 78.6911 149.61 78.8478 149.78C79.0045 149.95 79.0828 150.178 79.0828 150.465V152H78.5778V150.515C78.5778 150.125 78.3911 149.93 78.0178 149.93C77.8578 149.93 77.7078 149.968 77.5678 150.045C77.4311 150.118 77.3128 150.232 77.2128 150.385V152H76.7078V149.6ZM83.5564 148.305H84.0614V149.93C84.2914 149.66 84.5981 149.525 84.9814 149.525C85.3014 149.525 85.5398 149.61 85.6964 149.78C85.8531 149.95 85.9314 150.178 85.9314 150.465V152H85.4264V150.515C85.4264 150.125 85.2398 149.93 84.8664 149.93C84.7064 149.93 84.5564 149.968 84.4164 150.045C84.2798 150.118 84.1614 150.232 84.0614 150.385V152H83.5564V148.305ZM88.7463 152.075C88.4763 152.075 88.2379 152.025 88.0313 151.925C87.8279 151.822 87.6679 151.675 87.5513 151.485C87.4379 151.292 87.3813 151.065 87.3813 150.805C87.3813 150.548 87.4379 150.323 87.5513 150.13C87.6646 149.937 87.8246 149.788 88.0313 149.685C88.2379 149.578 88.4763 149.525 88.7463 149.525C89.0163 149.525 89.2546 149.578 89.4613 149.685C89.6679 149.788 89.8279 149.937 89.9413 150.13C90.0579 150.323 90.1163 150.548 90.1163 150.805C90.1163 151.065 90.0579 151.292 89.9413 151.485C89.8279 151.675 89.6679 151.822 89.4613 151.925C89.2546 152.025 89.0163 152.075 88.7463 152.075ZM88.7463 151.675C89.0063 151.675 89.2129 151.595 89.3663 151.435C89.5196 151.275 89.5963 151.065 89.5963 150.805C89.5963 150.535 89.5196 150.322 89.3663 150.165C89.2129 150.008 89.0063 149.93 88.7463 149.93C88.4863 149.93 88.2796 150.008 88.1263 150.165C87.9729 150.322 87.8963 150.535 87.8963 150.805C87.8963 151.065 87.9729 151.275 88.1263 151.435C88.2796 151.595 88.4863 151.675 88.7463 151.675ZM91.6648 148.305H92.1698V152H91.6648V148.305ZM94.9821 152.075C94.7421 152.075 94.5254 152.023 94.3321 151.92C94.1421 151.813 93.9921 151.665 93.8821 151.475C93.7754 151.282 93.7221 151.058 93.7221 150.805C93.7221 150.555 93.7754 150.333 93.8821 150.14C93.9921 149.947 94.1421 149.797 94.3321 149.69C94.5254 149.58 94.7421 149.525 94.9821 149.525C95.4154 149.525 95.7437 149.657 95.9671 149.92V148.305H96.4721V152H95.9821V151.65C95.8487 151.797 95.7021 151.905 95.5421 151.975C95.3854 152.042 95.1987 152.075 94.9821 152.075ZM95.0971 151.675C95.3037 151.675 95.4837 151.622 95.6371 151.515C95.7937 151.405 95.9037 151.258 95.9671 151.075V150.535C95.9104 150.352 95.8021 150.205 95.6421 150.095C95.4854 149.985 95.3037 149.93 95.0971 149.93C94.9337 149.93 94.7854 149.967 94.6521 150.04C94.5221 150.113 94.4187 150.217 94.3421 150.35C94.2687 150.483 94.2321 150.635 94.2321 150.805C94.2321 150.975 94.2687 151.127 94.3421 151.26C94.4187 151.393 94.5221 151.497 94.6521 151.57C94.7854 151.64 94.9337 151.675 95.0971 151.675ZM100.973 149.6H101.453V149.945C101.567 149.805 101.695 149.7 101.838 149.63C101.982 149.56 102.13 149.525 102.283 149.525C102.477 149.525 102.63 149.558 102.743 149.625C102.857 149.688 102.94 149.787 102.993 149.92C103.1 149.79 103.23 149.692 103.383 149.625C103.54 149.558 103.697 149.525 103.853 149.525C104.147 149.525 104.358 149.6 104.488 149.75C104.618 149.897 104.683 150.115 104.683 150.405V152H104.193V150.47C104.193 150.273 104.157 150.135 104.083 150.055C104.01 149.972 103.885 149.93 103.708 149.93C103.455 149.93 103.248 150.04 103.088 150.26C103.095 150.31 103.098 150.392 103.098 150.505V152H102.608V150.47C102.608 150.273 102.575 150.135 102.508 150.055C102.442 149.972 102.322 149.93 102.148 149.93C101.895 149.93 101.668 150.073 101.468 150.36V152H100.973V149.6ZM107.264 152.075C106.941 152.075 106.696 151.988 106.529 151.815C106.366 151.642 106.284 151.41 106.284 151.12V149.6H106.789V151.1C106.789 151.483 106.981 151.675 107.364 151.675C107.701 151.675 107.964 151.523 108.154 151.22V149.6H108.659V152H108.169V151.66C108.056 151.803 107.921 151.908 107.764 151.975C107.611 152.042 107.444 152.075 107.264 152.075ZM110.307 148.305H110.812V152H110.307V148.305ZM113.39 152.075C113.146 152.075 112.958 152.005 112.825 151.865C112.695 151.725 112.63 151.527 112.63 151.27V149.99H112.265V149.6H112.63V148.88H113.14V149.6H113.73V149.99H113.14V151.235C113.14 151.395 113.17 151.508 113.23 151.575C113.293 151.642 113.406 151.675 113.57 151.675C113.666 151.675 113.763 151.653 113.86 151.61V152.01C113.733 152.053 113.576 152.075 113.39 152.075ZM115.63 149.13C115.546 149.13 115.476 149.102 115.42 149.045C115.363 148.988 115.335 148.918 115.335 148.835C115.335 148.752 115.363 148.682 115.42 148.625C115.476 148.568 115.546 148.54 115.63 148.54C115.716 148.54 115.788 148.568 115.845 148.625C115.905 148.682 115.935 148.752 115.935 148.835C115.935 148.918 115.905 148.988 115.845 149.045C115.788 149.102 115.716 149.13 115.63 149.13ZM115.375 149.6H115.89V152H115.375V149.6ZM117.585 149.6H118.075V149.955C118.321 149.668 118.655 149.525 119.075 149.525C119.315 149.525 119.53 149.578 119.72 149.685C119.913 149.792 120.063 149.942 120.17 150.135C120.28 150.325 120.335 150.547 120.335 150.8C120.335 151.05 120.28 151.272 120.17 151.465C120.063 151.658 119.915 151.808 119.725 151.915C119.535 152.022 119.318 152.075 119.075 152.075C118.875 152.075 118.688 152.042 118.515 151.975C118.341 151.908 118.2 151.81 118.09 151.68V153.095H117.585V149.6ZM118.96 151.675C119.123 151.675 119.27 151.64 119.4 151.57C119.533 151.497 119.636 151.393 119.71 151.26C119.786 151.127 119.825 150.973 119.825 150.8C119.825 150.627 119.786 150.475 119.71 150.345C119.636 150.212 119.533 150.11 119.4 150.04C119.27 149.967 119.123 149.93 118.96 149.93C118.756 149.93 118.576 149.983 118.42 150.09C118.266 150.197 118.156 150.343 118.09 150.53V151.07C118.146 151.253 118.255 151.4 118.415 151.51C118.575 151.62 118.756 151.675 118.96 151.675ZM121.886 148.305H122.391V152H121.886V148.305ZM125.363 152.075C124.919 152.075 124.571 151.965 124.318 151.745C124.068 151.522 123.943 151.208 123.943 150.805C123.943 150.412 124.054 150.1 124.278 149.87C124.504 149.64 124.826 149.525 125.243 149.525C125.519 149.525 125.754 149.578 125.948 149.685C126.141 149.788 126.286 149.933 126.383 150.12C126.483 150.303 126.533 150.513 126.533 150.75V151H124.423C124.439 151.227 124.534 151.397 124.708 151.51C124.884 151.62 125.123 151.675 125.423 151.675C125.576 151.675 125.731 151.662 125.888 151.635C126.044 151.605 126.183 151.567 126.303 151.52V151.925C126.196 151.968 126.054 152.003 125.878 152.03C125.704 152.06 125.533 152.075 125.363 152.075ZM126.058 150.645C126.051 150.418 125.976 150.243 125.833 150.12C125.693 149.993 125.493 149.93 125.233 149.93C124.979 149.93 124.783 149.995 124.643 150.125C124.503 150.255 124.429 150.428 124.423 150.645H126.058ZM17.225 157.6H17.74L18.28 159.38L18.815 157.6H19.27L19.805 159.38L20.345 157.6H20.865L20.085 160H19.6L19.045 158.21L18.49 160H18L17.225 157.6ZM23.0034 160.075C22.7134 160.075 22.48 160.002 22.3034 159.855C22.13 159.705 22.0434 159.503 22.0434 159.25C22.0434 158.983 22.1267 158.778 22.2934 158.635C22.4634 158.488 22.7034 158.415 23.0134 158.415C23.3434 158.415 23.6234 158.482 23.8534 158.615V158.49C23.8534 158.3 23.795 158.16 23.6784 158.07C23.565 157.977 23.385 157.93 23.1384 157.93C22.9917 157.93 22.8484 157.945 22.7084 157.975C22.5717 158.002 22.4484 158.04 22.3384 158.09V157.68C22.4384 157.633 22.5684 157.597 22.7284 157.57C22.8884 157.54 23.0434 157.525 23.1934 157.525C23.59 157.525 23.8834 157.613 24.0734 157.79C24.2667 157.963 24.3634 158.205 24.3634 158.515V160H23.8884V159.73C23.785 159.843 23.6617 159.93 23.5184 159.99C23.3784 160.047 23.2067 160.075 23.0034 160.075ZM23.1284 159.69C23.2884 159.69 23.4334 159.658 23.5634 159.595C23.6934 159.532 23.79 159.443 23.8534 159.33V159.005C23.6367 158.865 23.395 158.795 23.1284 158.795C22.935 158.795 22.79 158.833 22.6934 158.91C22.6 158.983 22.5534 159.097 22.5534 159.25C22.5534 159.543 22.745 159.69 23.1284 159.69ZM26.7881 160.075C26.5448 160.075 26.3564 160.005 26.2231 159.865C26.0931 159.725 26.0281 159.527 26.0281 159.27V157.99H25.6631V157.6H26.0281V156.88H26.5381V157.6H27.1281V157.99H26.5381V159.235C26.5381 159.395 26.5681 159.508 26.6281 159.575C26.6914 159.642 26.8048 159.675 26.9681 159.675C27.0648 159.675 27.1614 159.653 27.2581 159.61V160.01C27.1314 160.053 26.9748 160.075 26.7881 160.075ZM30.0532 160.075C29.6099 160.075 29.2615 159.965 29.0082 159.745C28.7582 159.522 28.6332 159.208 28.6332 158.805C28.6332 158.412 28.7449 158.1 28.9682 157.87C29.1949 157.64 29.5165 157.525 29.9332 157.525C30.2099 157.525 30.4449 157.578 30.6382 157.685C30.8315 157.788 30.9765 157.933 31.0732 158.12C31.1732 158.303 31.2232 158.513 31.2232 158.75V159H29.1132C29.1299 159.227 29.2249 159.397 29.3982 159.51C29.5749 159.62 29.8132 159.675 30.1132 159.675C30.2665 159.675 30.4215 159.662 30.5782 159.635C30.7349 159.605 30.8732 159.567 30.9932 159.52V159.925C30.8865 159.968 30.7449 160.003 30.5682 160.03C30.3949 160.06 30.2232 160.075 30.0532 160.075ZM30.7482 158.645C30.7415 158.418 30.6665 158.243 30.5232 158.12C30.3832 157.993 30.1832 157.93 29.9232 157.93C29.6699 157.93 29.4732 157.995 29.3332 158.125C29.1932 158.255 29.1199 158.428 29.1132 158.645H30.7482ZM32.7752 157.6H33.2652V158.03C33.3652 157.883 33.5052 157.775 33.6852 157.705C33.8685 157.635 34.0802 157.6 34.3202 157.6V157.995C34.0635 157.995 33.8435 158.037 33.6602 158.12C33.4769 158.203 33.3502 158.335 33.2802 158.515V160H32.7752V157.6ZM36.584 160.075C36.4174 160.075 36.2407 160.053 36.054 160.01C35.8674 159.97 35.7207 159.915 35.614 159.845V159.415C35.744 159.492 35.894 159.555 36.064 159.605C36.234 159.652 36.399 159.675 36.559 159.675C36.739 159.675 36.8707 159.653 36.954 159.61C37.0374 159.567 37.079 159.497 37.079 159.4C37.079 159.327 37.059 159.268 37.019 159.225C36.9824 159.178 36.9174 159.137 36.824 159.1C36.734 159.063 36.5974 159.02 36.414 158.97C36.2174 158.913 36.0607 158.857 35.944 158.8C35.8307 158.74 35.744 158.665 35.684 158.575C35.6274 158.485 35.599 158.368 35.599 158.225C35.599 157.995 35.689 157.822 35.869 157.705C36.0524 157.585 36.2974 157.525 36.604 157.525C36.764 157.525 36.9207 157.54 37.074 157.57C37.2274 157.6 37.3507 157.642 37.444 157.695V158.115C37.3474 158.058 37.2274 158.013 37.084 157.98C36.944 157.947 36.8007 157.93 36.654 157.93C36.4774 157.93 36.3424 157.952 36.249 157.995C36.1557 158.038 36.109 158.115 36.109 158.225C36.109 158.295 36.129 158.352 36.169 158.395C36.209 158.438 36.2724 158.477 36.359 158.51C36.449 158.54 36.5907 158.58 36.784 158.63C37.0874 158.713 37.2974 158.812 37.414 158.925C37.534 159.038 37.594 159.195 37.594 159.395C37.594 159.602 37.509 159.767 37.339 159.89C37.169 160.013 36.9174 160.075 36.584 160.075ZM39.2803 160C39.2136 160 39.157 159.978 39.1103 159.935C39.067 159.888 39.0453 159.832 39.0453 159.765C39.0453 159.698 39.067 159.642 39.1103 159.595C39.157 159.548 39.2136 159.525 39.2803 159.525C39.347 159.525 39.4036 159.548 39.4503 159.595C39.497 159.642 39.5203 159.698 39.5203 159.765C39.5203 159.832 39.497 159.888 39.4503 159.935C39.4036 159.978 39.347 160 39.2803 160ZM48.5193 160.075C48.1593 160.075 47.8393 160 47.5593 159.85C47.2793 159.7 47.061 159.488 46.9043 159.215C46.7477 158.938 46.6693 158.618 46.6693 158.255C46.6693 157.892 46.7477 157.572 46.9043 157.295C47.061 157.018 47.2793 156.805 47.5593 156.655C47.8393 156.505 48.1593 156.43 48.5193 156.43C48.9993 156.43 49.401 156.552 49.7243 156.795V157.285C49.4343 157.028 49.0477 156.9 48.5643 156.9C48.2943 156.9 48.0543 156.955 47.8443 157.065C47.6377 157.175 47.476 157.333 47.3593 157.54C47.2427 157.743 47.1843 157.982 47.1843 158.255C47.1843 158.528 47.2427 158.768 47.3593 158.975C47.4793 159.182 47.6427 159.34 47.8493 159.45C48.0593 159.56 48.2977 159.615 48.5643 159.615C48.811 159.615 49.031 159.583 49.2243 159.52C49.421 159.453 49.6027 159.348 49.7693 159.205V159.7C49.4693 159.95 49.0527 160.075 48.5193 160.075ZM52.4572 160.075C52.1872 160.075 51.9489 160.025 51.7422 159.925C51.5389 159.822 51.3789 159.675 51.2622 159.485C51.1489 159.292 51.0922 159.065 51.0922 158.805C51.0922 158.548 51.1489 158.323 51.2622 158.13C51.3755 157.937 51.5355 157.788 51.7422 157.685C51.9489 157.578 52.1872 157.525 52.4572 157.525C52.7272 157.525 52.9655 157.578 53.1722 157.685C53.3789 157.788 53.5389 157.937 53.6522 158.13C53.7689 158.323 53.8272 158.548 53.8272 158.805C53.8272 159.065 53.7689 159.292 53.6522 159.485C53.5389 159.675 53.3789 159.822 53.1722 159.925C52.9655 160.025 52.7272 160.075 52.4572 160.075ZM52.4572 159.675C52.7172 159.675 52.9239 159.595 53.0772 159.435C53.2305 159.275 53.3072 159.065 53.3072 158.805C53.3072 158.535 53.2305 158.322 53.0772 158.165C52.9239 158.008 52.7172 157.93 52.4572 157.93C52.1972 157.93 51.9905 158.008 51.8372 158.165C51.6839 158.322 51.6072 158.535 51.6072 158.805C51.6072 159.065 51.6839 159.275 51.8372 159.435C51.9905 159.595 52.1972 159.675 52.4572 159.675ZM56.3308 160.075C56.0074 160.075 55.7624 159.988 55.5958 159.815C55.4324 159.642 55.3508 159.41 55.3508 159.12V157.6H55.8558V159.1C55.8558 159.483 56.0474 159.675 56.4308 159.675C56.7674 159.675 57.0308 159.523 57.2208 159.22V157.6H57.7258V160H57.2358V159.66C57.1224 159.803 56.9874 159.908 56.8308 159.975C56.6774 160.042 56.5108 160.075 56.3308 160.075ZM59.3738 157.6H59.8638V157.945C59.9772 157.802 60.1155 157.697 60.2788 157.63C60.4455 157.56 60.6188 157.525 60.7988 157.525C61.1188 157.525 61.3572 157.61 61.5138 157.78C61.6705 157.95 61.7488 158.178 61.7488 158.465V160H61.2438V158.515C61.2438 158.125 61.0572 157.93 60.6838 157.93C60.5238 157.93 60.3738 157.968 60.2338 158.045C60.0972 158.118 59.9788 158.232 59.8788 158.385V160H59.3738V157.6ZM64.2969 160.075C64.0535 160.075 63.8652 160.005 63.7319 159.865C63.6019 159.725 63.5369 159.527 63.5369 159.27V157.99H63.1719V157.6H63.5369V156.88H64.0469V157.6H64.6369V157.99H64.0469V159.235C64.0469 159.395 64.0769 159.508 64.1369 159.575C64.2002 159.642 64.3135 159.675 64.4769 159.675C64.5735 159.675 64.6702 159.653 64.7669 159.61V160.01C64.6402 160.053 64.4835 160.075 64.2969 160.075ZM67.0293 160.075C66.8627 160.075 66.686 160.053 66.4993 160.01C66.3127 159.97 66.166 159.915 66.0593 159.845V159.415C66.1893 159.492 66.3393 159.555 66.5093 159.605C66.6793 159.652 66.8443 159.675 67.0043 159.675C67.1843 159.675 67.316 159.653 67.3993 159.61C67.4827 159.567 67.5243 159.497 67.5243 159.4C67.5243 159.327 67.5043 159.268 67.4643 159.225C67.4277 159.178 67.3627 159.137 67.2693 159.1C67.1793 159.063 67.0427 159.02 66.8593 158.97C66.6627 158.913 66.506 158.857 66.3893 158.8C66.276 158.74 66.1893 158.665 66.1293 158.575C66.0727 158.485 66.0443 158.368 66.0443 158.225C66.0443 157.995 66.1343 157.822 66.3143 157.705C66.4977 157.585 66.7427 157.525 67.0493 157.525C67.2093 157.525 67.366 157.54 67.5193 157.57C67.6727 157.6 67.796 157.642 67.8893 157.695V158.115C67.7927 158.058 67.6727 158.013 67.5293 157.98C67.3893 157.947 67.246 157.93 67.0993 157.93C66.9227 157.93 66.7877 157.952 66.6943 157.995C66.601 158.038 66.5543 158.115 66.5543 158.225C66.5543 158.295 66.5743 158.352 66.6143 158.395C66.6543 158.438 66.7177 158.477 66.8043 158.51C66.8943 158.54 67.036 158.58 67.2293 158.63C67.5327 158.713 67.7427 158.812 67.8593 158.925C67.9793 159.038 68.0393 159.195 68.0393 159.395C68.0393 159.602 67.9543 159.767 67.7843 159.89C67.6143 160.013 67.3627 160.075 67.0293 160.075ZM73.3012 160.075C73.0112 160.075 72.7779 160.002 72.6012 159.855C72.4279 159.705 72.3412 159.503 72.3412 159.25C72.3412 158.983 72.4245 158.778 72.5912 158.635C72.7612 158.488 73.0012 158.415 73.3112 158.415C73.6412 158.415 73.9212 158.482 74.1512 158.615V158.49C74.1512 158.3 74.0929 158.16 73.9762 158.07C73.8629 157.977 73.6829 157.93 73.4362 157.93C73.2895 157.93 73.1462 157.945 73.0062 157.975C72.8695 158.002 72.7462 158.04 72.6362 158.09V157.68C72.7362 157.633 72.8662 157.597 73.0262 157.57C73.1862 157.54 73.3412 157.525 73.4912 157.525C73.8879 157.525 74.1812 157.613 74.3712 157.79C74.5645 157.963 74.6612 158.205 74.6612 158.515V160H74.1862V159.73C74.0829 159.843 73.9595 159.93 73.8162 159.99C73.6762 160.047 73.5045 160.075 73.3012 160.075ZM73.4262 159.69C73.5862 159.69 73.7312 159.658 73.8612 159.595C73.9912 159.532 74.0879 159.443 74.1512 159.33V159.005C73.9345 158.865 73.6929 158.795 73.4262 158.795C73.2329 158.795 73.0879 158.833 72.9912 158.91C72.8979 158.983 72.8512 159.097 72.8512 159.25C72.8512 159.543 73.0429 159.69 73.4262 159.69ZM77.0996 160.075C76.933 160.075 76.7563 160.053 76.5696 160.01C76.383 159.97 76.2363 159.915 76.1296 159.845V159.415C76.2596 159.492 76.4096 159.555 76.5796 159.605C76.7496 159.652 76.9146 159.675 77.0746 159.675C77.2546 159.675 77.3863 159.653 77.4696 159.61C77.553 159.567 77.5946 159.497 77.5946 159.4C77.5946 159.327 77.5746 159.268 77.5346 159.225C77.498 159.178 77.433 159.137 77.3396 159.1C77.2496 159.063 77.113 159.02 76.9296 158.97C76.733 158.913 76.5763 158.857 76.4596 158.8C76.3463 158.74 76.2596 158.665 76.1996 158.575C76.143 158.485 76.1146 158.368 76.1146 158.225C76.1146 157.995 76.2046 157.822 76.3846 157.705C76.568 157.585 76.813 157.525 77.1196 157.525C77.2796 157.525 77.4363 157.54 77.5896 157.57C77.743 157.6 77.8663 157.642 77.9596 157.695V158.115C77.863 158.058 77.743 158.013 77.5996 157.98C77.4596 157.947 77.3163 157.93 77.1696 157.93C76.993 157.93 76.858 157.952 76.7646 157.995C76.6713 158.038 76.6246 158.115 76.6246 158.225C76.6246 158.295 76.6446 158.352 76.6846 158.395C76.7246 158.438 76.788 158.477 76.8746 158.51C76.9646 158.54 77.1063 158.58 77.2996 158.63C77.603 158.713 77.813 158.812 77.9296 158.925C78.0496 159.038 78.1096 159.195 78.1096 159.395C78.1096 159.602 78.0246 159.767 77.8546 159.89C77.6846 160.013 77.433 160.075 77.0996 160.075ZM82.4115 159.675L83.7765 157.99H82.4415V157.6H84.4065V157.93L83.0415 159.61H84.4565V160H82.4115V159.675ZM87.3266 160.075C86.8833 160.075 86.535 159.965 86.2816 159.745C86.0316 159.522 85.9066 159.208 85.9066 158.805C85.9066 158.412 86.0183 158.1 86.2416 157.87C86.4683 157.64 86.79 157.525 87.2066 157.525C87.4833 157.525 87.7183 157.578 87.9116 157.685C88.105 157.788 88.25 157.933 88.3466 158.12C88.4466 158.303 88.4966 158.513 88.4966 158.75V159H86.3866C86.4033 159.227 86.4983 159.397 86.6716 159.51C86.8483 159.62 87.0866 159.675 87.3866 159.675C87.54 159.675 87.695 159.662 87.8516 159.635C88.0083 159.605 88.1466 159.567 88.2666 159.52V159.925C88.16 159.968 88.0183 160.003 87.8416 160.03C87.6683 160.06 87.4966 160.075 87.3266 160.075ZM88.0216 158.645C88.015 158.418 87.94 158.243 87.7966 158.12C87.6566 157.993 87.4566 157.93 87.1966 157.93C86.9433 157.93 86.7466 157.995 86.6066 158.125C86.4666 158.255 86.3933 158.428 86.3866 158.645H88.0216ZM90.0486 157.6H90.5386V158.03C90.6386 157.883 90.7786 157.775 90.9586 157.705C91.142 157.635 91.3536 157.6 91.5936 157.6V157.995C91.337 157.995 91.117 158.037 90.9336 158.12C90.7503 158.203 90.6236 158.335 90.5536 158.515V160H90.0486V157.6ZM94.2375 160.075C93.9675 160.075 93.7291 160.025 93.5225 159.925C93.3191 159.822 93.1591 159.675 93.0425 159.485C92.9291 159.292 92.8725 159.065 92.8725 158.805C92.8725 158.548 92.9291 158.323 93.0425 158.13C93.1558 157.937 93.3158 157.788 93.5225 157.685C93.7291 157.578 93.9675 157.525 94.2375 157.525C94.5075 157.525 94.7458 157.578 94.9525 157.685C95.1591 157.788 95.3191 157.937 95.4325 158.13C95.5491 158.323 95.6075 158.548 95.6075 158.805C95.6075 159.065 95.5491 159.292 95.4325 159.485C95.3191 159.675 95.1591 159.822 94.9525 159.925C94.7458 160.025 94.5075 160.075 94.2375 160.075ZM94.2375 159.675C94.4975 159.675 94.7041 159.595 94.8575 159.435C95.0108 159.275 95.0875 159.065 95.0875 158.805C95.0875 158.535 95.0108 158.322 94.8575 158.165C94.7041 158.008 94.4975 157.93 94.2375 157.93C93.9775 157.93 93.7708 158.008 93.6175 158.165C93.4641 158.322 93.3875 158.535 93.3875 158.805C93.3875 159.065 93.4641 159.275 93.6175 159.435C93.7708 159.595 93.9775 159.675 94.2375 159.675ZM99.9066 157.6H100.422L100.962 159.38L101.497 157.6H101.952L102.487 159.38L103.027 157.6H103.547L102.767 160H102.282L101.727 158.21L101.172 160H100.682L99.9066 157.6ZM105.685 160.075C105.395 160.075 105.162 160.002 104.985 159.855C104.812 159.705 104.725 159.503 104.725 159.25C104.725 158.983 104.808 158.778 104.975 158.635C105.145 158.488 105.385 158.415 105.695 158.415C106.025 158.415 106.305 158.482 106.535 158.615V158.49C106.535 158.3 106.477 158.16 106.36 158.07C106.247 157.977 106.067 157.93 105.82 157.93C105.673 157.93 105.53 157.945 105.39 157.975C105.253 158.002 105.13 158.04 105.02 158.09V157.68C105.12 157.633 105.25 157.597 105.41 157.57C105.57 157.54 105.725 157.525 105.875 157.525C106.272 157.525 106.565 157.613 106.755 157.79C106.948 157.963 107.045 158.205 107.045 158.515V160H106.57V159.73C106.467 159.843 106.343 159.93 106.2 159.99C106.06 160.047 105.888 160.075 105.685 160.075ZM105.81 159.69C105.97 159.69 106.115 159.658 106.245 159.595C106.375 159.532 106.472 159.443 106.535 159.33V159.005C106.318 158.865 106.077 158.795 105.81 158.795C105.617 158.795 105.472 158.833 105.375 158.91C105.282 158.983 105.235 159.097 105.235 159.25C105.235 159.543 105.427 159.69 105.81 159.69ZM109.47 160.075C109.226 160.075 109.038 160.005 108.905 159.865C108.775 159.725 108.71 159.527 108.71 159.27V157.99H108.345V157.6H108.71V156.88H109.22V157.6H109.81V157.99H109.22V159.235C109.22 159.395 109.25 159.508 109.31 159.575C109.373 159.642 109.486 159.675 109.65 159.675C109.746 159.675 109.843 159.653 109.94 159.61V160.01C109.813 160.053 109.656 160.075 109.47 160.075ZM112.735 160.075C112.292 160.075 111.943 159.965 111.69 159.745C111.44 159.522 111.315 159.208 111.315 158.805C111.315 158.412 111.427 158.1 111.65 157.87C111.877 157.64 112.198 157.525 112.615 157.525C112.892 157.525 113.127 157.578 113.32 157.685C113.513 157.788 113.658 157.933 113.755 158.12C113.855 158.303 113.905 158.513 113.905 158.75V159H111.795C111.812 159.227 111.907 159.397 112.08 159.51C112.257 159.62 112.495 159.675 112.795 159.675C112.948 159.675 113.103 159.662 113.26 159.635C113.417 159.605 113.555 159.567 113.675 159.52V159.925C113.568 159.968 113.427 160.003 113.25 160.03C113.077 160.06 112.905 160.075 112.735 160.075ZM113.43 158.645C113.423 158.418 113.348 158.243 113.205 158.12C113.065 157.993 112.865 157.93 112.605 157.93C112.352 157.93 112.155 157.995 112.015 158.125C111.875 158.255 111.802 158.428 111.795 158.645H113.43ZM115.457 157.6H115.947V158.03C116.047 157.883 116.187 157.775 116.367 157.705C116.55 157.635 116.762 157.6 117.002 157.6V157.995C116.745 157.995 116.525 158.037 116.342 158.12C116.159 158.203 116.032 158.335 115.962 158.515V160H115.457V157.6ZM119.266 160.075C119.099 160.075 118.922 160.053 118.736 160.01C118.549 159.97 118.402 159.915 118.296 159.845V159.415C118.426 159.492 118.576 159.555 118.746 159.605C118.916 159.652 119.081 159.675 119.241 159.675C119.421 159.675 119.552 159.653 119.636 159.61C119.719 159.567 119.761 159.497 119.761 159.4C119.761 159.327 119.741 159.268 119.701 159.225C119.664 159.178 119.599 159.137 119.506 159.1C119.416 159.063 119.279 159.02 119.096 158.97C118.899 158.913 118.742 158.857 118.626 158.8C118.512 158.74 118.426 158.665 118.366 158.575C118.309 158.485 118.281 158.368 118.281 158.225C118.281 157.995 118.371 157.822 118.551 157.705C118.734 157.585 118.979 157.525 119.286 157.525C119.446 157.525 119.602 157.54 119.756 157.57C119.909 157.6 120.032 157.642 120.126 157.695V158.115C120.029 158.058 119.909 158.013 119.766 157.98C119.626 157.947 119.482 157.93 119.336 157.93C119.159 157.93 119.024 157.952 118.931 157.995C118.837 158.038 118.791 158.115 118.791 158.225C118.791 158.295 118.811 158.352 118.851 158.395C118.891 158.438 118.954 158.477 119.041 158.51C119.131 158.54 119.272 158.58 119.466 158.63C119.769 158.713 119.979 158.812 120.096 158.925C120.216 159.038 120.276 159.195 120.276 159.395C120.276 159.602 120.191 159.767 120.021 159.89C119.851 160.013 119.599 160.075 119.266 160.075ZM121.962 160C121.895 160 121.839 159.978 121.792 159.935C121.749 159.888 121.727 159.832 121.727 159.765C121.727 159.698 121.749 159.642 121.792 159.595C121.839 159.548 121.895 159.525 121.962 159.525C122.029 159.525 122.085 159.548 122.132 159.595C122.179 159.642 122.202 159.698 122.202 159.765C122.202 159.832 122.179 159.888 122.132 159.935C122.085 159.978 122.029 160 121.962 160ZM18.21 164.935H17.125V164.505H19.81V164.935H18.725V168H18.21V164.935ZM21.2596 164.305H21.7646V165.93C21.9946 165.66 22.3012 165.525 22.6846 165.525C23.0046 165.525 23.2429 165.61 23.3996 165.78C23.5562 165.95 23.6346 166.178 23.6346 166.465V168H23.1296V166.515C23.1296 166.125 22.9429 165.93 22.5696 165.93C22.4096 165.93 22.2596 165.968 22.1196 166.045C21.9829 166.118 21.8646 166.232 21.7646 166.385V168H21.2596V164.305ZM25.5526 165.13C25.4693 165.13 25.3993 165.102 25.3426 165.045C25.286 164.988 25.2576 164.918 25.2576 164.835C25.2576 164.752 25.286 164.682 25.3426 164.625C25.3993 164.568 25.4693 164.54 25.5526 164.54C25.6393 164.54 25.711 164.568 25.7676 164.625C25.8276 164.682 25.8576 164.752 25.8576 164.835C25.8576 164.918 25.8276 164.988 25.7676 165.045C25.711 165.102 25.6393 165.13 25.5526 165.13ZM25.2976 165.6H25.8126V168H25.2976V165.6ZM28.3926 168.075C28.226 168.075 28.0493 168.053 27.8626 168.01C27.676 167.97 27.5293 167.915 27.4226 167.845V167.415C27.5526 167.492 27.7026 167.555 27.8726 167.605C28.0426 167.652 28.2076 167.675 28.3676 167.675C28.5476 167.675 28.6793 167.653 28.7626 167.61C28.846 167.567 28.8876 167.497 28.8876 167.4C28.8876 167.327 28.8676 167.268 28.8276 167.225C28.791 167.178 28.726 167.137 28.6326 167.1C28.5426 167.063 28.406 167.02 28.2226 166.97C28.026 166.913 27.8693 166.857 27.7526 166.8C27.6393 166.74 27.5526 166.665 27.4926 166.575C27.436 166.485 27.4076 166.368 27.4076 166.225C27.4076 165.995 27.4976 165.822 27.6776 165.705C27.861 165.585 28.106 165.525 28.4126 165.525C28.5726 165.525 28.7293 165.54 28.8826 165.57C29.036 165.6 29.1593 165.642 29.2526 165.695V166.115C29.156 166.058 29.036 166.013 28.8926 165.98C28.7526 165.947 28.6093 165.93 28.4626 165.93C28.286 165.93 28.151 165.952 28.0576 165.995C27.9643 166.038 27.9176 166.115 27.9176 166.225C27.9176 166.295 27.9376 166.352 27.9776 166.395C28.0176 166.438 28.081 166.477 28.1676 166.51C28.2576 166.54 28.3993 166.58 28.5926 166.63C28.896 166.713 29.106 166.812 29.2226 166.925C29.3426 167.038 29.4026 167.195 29.4026 167.395C29.4026 167.602 29.3176 167.767 29.1476 167.89C28.9776 168.013 28.726 168.075 28.3926 168.075ZM35.1245 168.075C34.6812 168.075 34.3328 167.965 34.0795 167.745C33.8295 167.522 33.7045 167.208 33.7045 166.805C33.7045 166.412 33.8162 166.1 34.0395 165.87C34.2662 165.64 34.5878 165.525 35.0045 165.525C35.2812 165.525 35.5162 165.578 35.7095 165.685C35.9028 165.788 36.0478 165.933 36.1445 166.12C36.2445 166.303 36.2945 166.513 36.2945 166.75V167H34.1845C34.2012 167.227 34.2962 167.397 34.4695 167.51C34.6462 167.62 34.8845 167.675 35.1845 167.675C35.3378 167.675 35.4928 167.662 35.6495 167.635C35.8062 167.605 35.9445 167.567 36.0645 167.52V167.925C35.9578 167.968 35.8162 168.003 35.6395 168.03C35.4662 168.06 35.2945 168.075 35.1245 168.075ZM35.8195 166.645C35.8128 166.418 35.7378 166.243 35.5945 166.12C35.4545 165.993 35.2545 165.93 34.9945 165.93C34.7412 165.93 34.5445 165.995 34.4045 166.125C34.2645 166.255 34.1912 166.428 34.1845 166.645H35.8195ZM37.8465 165.6H38.3265V165.945C38.4398 165.805 38.5682 165.7 38.7115 165.63C38.8548 165.56 39.0032 165.525 39.1565 165.525C39.3498 165.525 39.5032 165.558 39.6165 165.625C39.7298 165.688 39.8132 165.787 39.8665 165.92C39.9732 165.79 40.1032 165.692 40.2565 165.625C40.4132 165.558 40.5698 165.525 40.7265 165.525C41.0198 165.525 41.2315 165.6 41.3615 165.75C41.4915 165.897 41.5565 166.115 41.5565 166.405V168H41.0665V166.47C41.0665 166.273 41.0298 166.135 40.9565 166.055C40.8832 165.972 40.7582 165.93 40.5815 165.93C40.3282 165.93 40.1215 166.04 39.9615 166.26C39.9682 166.31 39.9715 166.392 39.9715 166.505V168H39.4815V166.47C39.4815 166.273 39.4482 166.135 39.3815 166.055C39.3148 165.972 39.1948 165.93 39.0215 165.93C38.7682 165.93 38.5415 166.073 38.3415 166.36V168H37.8465V165.6ZM43.1824 165.6H43.6724V165.955C43.9191 165.668 44.2524 165.525 44.6724 165.525C44.9124 165.525 45.1274 165.578 45.3174 165.685C45.5108 165.792 45.6608 165.942 45.7674 166.135C45.8774 166.325 45.9324 166.547 45.9324 166.8C45.9324 167.05 45.8774 167.272 45.7674 167.465C45.6608 167.658 45.5124 167.808 45.3224 167.915C45.1324 168.022 44.9158 168.075 44.6724 168.075C44.4724 168.075 44.2858 168.042 44.1124 167.975C43.9391 167.908 43.7974 167.81 43.6874 167.68V169.095H43.1824V165.6ZM44.5574 167.675C44.7208 167.675 44.8674 167.64 44.9974 167.57C45.1308 167.497 45.2341 167.393 45.3074 167.26C45.3841 167.127 45.4224 166.973 45.4224 166.8C45.4224 166.627 45.3841 166.475 45.3074 166.345C45.2341 166.212 45.1308 166.11 44.9974 166.04C44.8674 165.967 44.7208 165.93 44.5574 165.93C44.3541 165.93 44.1741 165.983 44.0174 166.09C43.8641 166.197 43.7541 166.343 43.6874 166.53V167.07C43.7441 167.253 43.8524 167.4 44.0124 167.51C44.1724 167.62 44.3541 167.675 44.5574 167.675ZM48.2324 168.075C47.9891 168.075 47.8008 168.005 47.6674 167.865C47.5374 167.725 47.4724 167.527 47.4724 167.27V165.99H47.1074V165.6H47.4724V164.88H47.9824V165.6H48.5724V165.99H47.9824V167.235C47.9824 167.395 48.0124 167.508 48.0724 167.575C48.1358 167.642 48.2491 167.675 48.4124 167.675C48.5091 167.675 48.6058 167.653 48.7024 167.61V168.01C48.5758 168.053 48.4191 168.075 48.2324 168.075ZM50.4873 168.99C50.3073 168.99 50.1573 168.972 50.0373 168.935V168.54C50.124 168.573 50.2307 168.59 50.3573 168.59C50.474 168.59 50.5657 168.56 50.6323 168.5C50.699 168.443 50.759 168.35 50.8123 168.22L50.9273 167.94L49.8773 165.6H50.3973L51.1973 167.445L51.9423 165.6H52.4623L51.3823 168.27C51.2823 168.52 51.1623 168.702 51.0223 168.815C50.8857 168.932 50.7073 168.99 50.4873 168.99ZM58.2525 168.075C58.0358 168.075 57.8475 168.042 57.6875 167.975C57.5308 167.905 57.3858 167.797 57.2525 167.65V168H56.7625V164.305H57.2675V165.92C57.3775 165.79 57.5192 165.692 57.6925 165.625C57.8658 165.558 58.0525 165.525 58.2525 165.525C58.4925 165.525 58.7075 165.58 58.8975 165.69C59.0908 165.797 59.2408 165.947 59.3475 166.14C59.4575 166.333 59.5125 166.555 59.5125 166.805C59.5125 167.058 59.4575 167.282 59.3475 167.475C59.2408 167.665 59.0908 167.813 58.8975 167.92C58.7075 168.023 58.4925 168.075 58.2525 168.075ZM58.1375 167.675C58.3008 167.675 58.4475 167.64 58.5775 167.57C58.7108 167.497 58.8142 167.393 58.8875 167.26C58.9642 167.127 59.0025 166.975 59.0025 166.805C59.0025 166.635 58.9642 166.483 58.8875 166.35C58.8142 166.217 58.7108 166.113 58.5775 166.04C58.4475 165.967 58.3008 165.93 58.1375 165.93C57.9342 165.93 57.7525 165.985 57.5925 166.095C57.4325 166.205 57.3242 166.352 57.2675 166.535V167.075C57.3308 167.258 57.4392 167.405 57.5925 167.515C57.7492 167.622 57.9308 167.675 58.1375 167.675ZM62.2013 168.075C61.9313 168.075 61.693 168.025 61.4863 167.925C61.283 167.822 61.123 167.675 61.0063 167.485C60.893 167.292 60.8363 167.065 60.8363 166.805C60.8363 166.548 60.893 166.323 61.0063 166.13C61.1197 165.937 61.2797 165.788 61.4863 165.685C61.693 165.578 61.9313 165.525 62.2013 165.525C62.4713 165.525 62.7097 165.578 62.9163 165.685C63.123 165.788 63.283 165.937 63.3963 166.13C63.513 166.323 63.5713 166.548 63.5713 166.805C63.5713 167.065 63.513 167.292 63.3963 167.485C63.283 167.675 63.123 167.822 62.9163 167.925C62.7097 168.025 62.4713 168.075 62.2013 168.075ZM62.2013 167.675C62.4613 167.675 62.668 167.595 62.8213 167.435C62.9747 167.275 63.0513 167.065 63.0513 166.805C63.0513 166.535 62.9747 166.322 62.8213 166.165C62.668 166.008 62.4613 165.93 62.2013 165.93C61.9413 165.93 61.7347 166.008 61.5813 166.165C61.428 166.322 61.3513 166.535 61.3513 166.805C61.3513 167.065 61.428 167.275 61.5813 167.435C61.7347 167.595 61.9413 167.675 62.2013 167.675ZM65.9717 168.075C65.7283 168.075 65.54 168.005 65.4067 167.865C65.2767 167.725 65.2117 167.527 65.2117 167.27V165.99H64.8467V165.6H65.2117V164.88H65.7217V165.6H66.3117V165.99H65.7217V167.235C65.7217 167.395 65.7517 167.508 65.8117 167.575C65.875 167.642 65.9883 167.675 66.1517 167.675C66.2483 167.675 66.345 167.653 66.4417 167.61V168.01C66.315 168.053 66.1583 168.075 65.9717 168.075ZM68.7148 168.075C68.4715 168.075 68.2832 168.005 68.1498 167.865C68.0198 167.725 67.9548 167.527 67.9548 167.27V165.99H67.5898V165.6H67.9548V164.88H68.4648V165.6H69.0548V165.99H68.4648V167.235C68.4648 167.395 68.4948 167.508 68.5548 167.575C68.6182 167.642 68.7315 167.675 68.8948 167.675C68.9915 167.675 69.0882 167.653 69.1848 167.61V168.01C69.0582 168.053 68.9015 168.075 68.7148 168.075ZM70.66 164.305H71.165V168H70.66V164.305ZM74.1372 168.075C73.6939 168.075 73.3455 167.965 73.0922 167.745C72.8422 167.522 72.7172 167.208 72.7172 166.805C72.7172 166.412 72.8289 166.1 73.0522 165.87C73.2789 165.64 73.6005 165.525 74.0172 165.525C74.2939 165.525 74.5289 165.578 74.7222 165.685C74.9155 165.788 75.0605 165.933 75.1572 166.12C75.2572 166.303 75.3072 166.513 75.3072 166.75V167H73.1972C73.2139 167.227 73.3089 167.397 73.4822 167.51C73.6589 167.62 73.8972 167.675 74.1972 167.675C74.3505 167.675 74.5055 167.662 74.6622 167.635C74.8189 167.605 74.9572 167.567 75.0772 167.52V167.925C74.9705 167.968 74.8289 168.003 74.6522 168.03C74.4789 168.06 74.3072 168.075 74.1372 168.075ZM74.8322 166.645C74.8255 166.418 74.7505 166.243 74.6072 166.12C74.4672 165.993 74.2672 165.93 74.0072 165.93C73.7539 165.93 73.5572 165.995 73.4172 166.125C73.2772 166.255 73.2039 166.428 73.1972 166.645H74.8322ZM80.0048 165.13C79.9214 165.13 79.8514 165.102 79.7948 165.045C79.7381 164.988 79.7098 164.918 79.7098 164.835C79.7098 164.752 79.7381 164.682 79.7948 164.625C79.8514 164.568 79.9214 164.54 80.0048 164.54C80.0914 164.54 80.1631 164.568 80.2198 164.625C80.2798 164.682 80.3098 164.752 80.3098 164.835C80.3098 164.918 80.2798 164.988 80.2198 165.045C80.1631 165.102 80.0914 165.13 80.0048 165.13ZM79.7498 165.6H80.2648V168H79.7498V165.6ZM82.8448 168.075C82.6781 168.075 82.5014 168.053 82.3148 168.01C82.1281 167.97 81.9814 167.915 81.8748 167.845V167.415C82.0048 167.492 82.1548 167.555 82.3248 167.605C82.4948 167.652 82.6598 167.675 82.8198 167.675C82.9998 167.675 83.1314 167.653 83.2148 167.61C83.2981 167.567 83.3398 167.497 83.3398 167.4C83.3398 167.327 83.3198 167.268 83.2798 167.225C83.2431 167.178 83.1781 167.137 83.0848 167.1C82.9948 167.063 82.8581 167.02 82.6748 166.97C82.4781 166.913 82.3214 166.857 82.2048 166.8C82.0914 166.74 82.0048 166.665 81.9448 166.575C81.8881 166.485 81.8598 166.368 81.8598 166.225C81.8598 165.995 81.9498 165.822 82.1298 165.705C82.3131 165.585 82.5581 165.525 82.8648 165.525C83.0248 165.525 83.1814 165.54 83.3348 165.57C83.4881 165.6 83.6114 165.642 83.7048 165.695V166.115C83.6081 166.058 83.4881 166.013 83.3448 165.98C83.2048 165.947 83.0614 165.93 82.9148 165.93C82.7381 165.93 82.6031 165.952 82.5098 165.995C82.4164 166.038 82.3698 166.115 82.3698 166.225C82.3698 166.295 82.3898 166.352 82.4298 166.395C82.4698 166.438 82.5331 166.477 82.6198 166.51C82.7098 166.54 82.8514 166.58 83.0448 166.63C83.3481 166.713 83.5581 166.812 83.6748 166.925C83.7948 167.038 83.8548 167.195 83.8548 167.395C83.8548 167.602 83.7698 167.767 83.5998 167.89C83.4298 168.013 83.1781 168.075 82.8448 168.075ZM89.1816 168.075C88.9383 168.075 88.75 168.005 88.6166 167.865C88.4866 167.725 88.4216 167.527 88.4216 167.27V165.99H88.0566V165.6H88.4216V164.88H88.9316V165.6H89.5216V165.99H88.9316V167.235C88.9316 167.395 88.9616 167.508 89.0216 167.575C89.085 167.642 89.1983 167.675 89.3616 167.675C89.4583 167.675 89.555 167.653 89.6516 167.61V168.01C89.525 168.053 89.3683 168.075 89.1816 168.075ZM91.1268 164.305H91.6318V165.93C91.8618 165.66 92.1684 165.525 92.5518 165.525C92.8718 165.525 93.1101 165.61 93.2668 165.78C93.4234 165.95 93.5018 166.178 93.5018 166.465V168H92.9968V166.515C92.9968 166.125 92.8101 165.93 92.4368 165.93C92.2768 165.93 92.1268 165.968 91.9868 166.045C91.8501 166.118 91.7318 166.232 91.6318 166.385V168H91.1268V164.305ZM96.4448 168.075C96.0015 168.075 95.6531 167.965 95.3998 167.745C95.1498 167.522 95.0248 167.208 95.0248 166.805C95.0248 166.412 95.1365 166.1 95.3598 165.87C95.5865 165.64 95.9081 165.525 96.3248 165.525C96.6015 165.525 96.8365 165.578 97.0298 165.685C97.2231 165.788 97.3681 165.933 97.4648 166.12C97.5648 166.303 97.6148 166.513 97.6148 166.75V167H95.5048C95.5215 167.227 95.6165 167.397 95.7898 167.51C95.9665 167.62 96.2048 167.675 96.5048 167.675C96.6581 167.675 96.8131 167.662 96.9698 167.635C97.1265 167.605 97.2648 167.567 97.3848 167.52V167.925C97.2781 167.968 97.1365 168.003 96.9598 168.03C96.7865 168.06 96.6148 168.075 96.4448 168.075ZM97.1398 166.645C97.1331 166.418 97.0581 166.243 96.9148 166.12C96.7748 165.993 96.5748 165.93 96.3148 165.93C96.0615 165.93 95.8648 165.995 95.7248 166.125C95.5848 166.255 95.5115 166.428 95.5048 166.645H97.1398ZM102.017 165.6H102.507V165.955C102.754 165.668 103.087 165.525 103.507 165.525C103.747 165.525 103.962 165.578 104.152 165.685C104.346 165.792 104.496 165.942 104.602 166.135C104.712 166.325 104.767 166.547 104.767 166.8C104.767 167.05 104.712 167.272 104.602 167.465C104.496 167.658 104.347 167.808 104.157 167.915C103.967 168.022 103.751 168.075 103.507 168.075C103.307 168.075 103.121 168.042 102.947 167.975C102.774 167.908 102.632 167.81 102.522 167.68V169.095H102.017V165.6ZM103.392 167.675C103.556 167.675 103.702 167.64 103.832 167.57C103.966 167.497 104.069 167.393 104.142 167.26C104.219 167.127 104.257 166.973 104.257 166.8C104.257 166.627 104.219 166.475 104.142 166.345C104.069 166.212 103.966 166.11 103.832 166.04C103.702 165.967 103.556 165.93 103.392 165.93C103.189 165.93 103.009 165.983 102.852 166.09C102.699 166.197 102.589 166.343 102.522 166.53V167.07C102.579 167.253 102.687 167.4 102.847 167.51C103.007 167.62 103.189 167.675 103.392 167.675ZM107.638 168.075C107.195 168.075 106.846 167.965 106.593 167.745C106.343 167.522 106.218 167.208 106.218 166.805C106.218 166.412 106.33 166.1 106.553 165.87C106.78 165.64 107.101 165.525 107.518 165.525C107.795 165.525 108.03 165.578 108.223 165.685C108.416 165.788 108.561 165.933 108.658 166.12C108.758 166.303 108.808 166.513 108.808 166.75V167H106.698C106.715 167.227 106.81 167.397 106.983 167.51C107.16 167.62 107.398 167.675 107.698 167.675C107.851 167.675 108.006 167.662 108.163 167.635C108.32 167.605 108.458 167.567 108.578 167.52V167.925C108.471 167.968 108.33 168.003 108.153 168.03C107.98 168.06 107.808 168.075 107.638 168.075ZM108.333 166.645C108.326 166.418 108.251 166.243 108.108 166.12C107.968 165.993 107.768 165.93 107.508 165.93C107.255 165.93 107.058 165.995 106.918 166.125C106.778 166.255 106.705 166.428 106.698 166.645H108.333ZM110.36 165.6H110.85V166.03C110.95 165.883 111.09 165.775 111.27 165.705C111.453 165.635 111.665 165.6 111.905 165.6V165.995C111.648 165.995 111.428 166.037 111.245 166.12C111.062 166.203 110.935 166.335 110.865 166.515V168H110.36V165.6ZM113.498 165.99H113.133V165.6H113.498V165.13C113.498 164.853 113.576 164.643 113.733 164.5C113.889 164.353 114.099 164.28 114.363 164.28C114.499 164.28 114.628 164.3 114.748 164.34V164.76C114.654 164.717 114.558 164.695 114.458 164.695C114.301 164.695 114.186 164.733 114.113 164.81C114.039 164.883 114.003 165 114.003 165.16V165.6H114.603V165.99H114.003V168H113.498V165.99ZM117.416 168.075C116.972 168.075 116.624 167.965 116.371 167.745C116.121 167.522 115.996 167.208 115.996 166.805C115.996 166.412 116.107 166.1 116.331 165.87C116.557 165.64 116.879 165.525 117.296 165.525C117.572 165.525 117.807 165.578 118.001 165.685C118.194 165.788 118.339 165.933 118.436 166.12C118.536 166.303 118.586 166.513 118.586 166.75V167H116.476C116.492 167.227 116.587 167.397 116.761 167.51C116.937 167.62 117.176 167.675 117.476 167.675C117.629 167.675 117.784 167.662 117.941 167.635C118.097 167.605 118.236 167.567 118.356 167.52V167.925C118.249 167.968 118.107 168.003 117.931 168.03C117.757 168.06 117.586 168.075 117.416 168.075ZM118.111 166.645C118.104 166.418 118.029 166.243 117.886 166.12C117.746 165.993 117.546 165.93 117.286 165.93C117.032 165.93 116.836 165.995 116.696 166.125C116.556 166.255 116.482 166.428 116.476 166.645H118.111ZM121.403 168.075C121.136 168.075 120.899 168.025 120.693 167.925C120.486 167.825 120.324 167.68 120.208 167.49C120.094 167.297 120.038 167.068 120.038 166.805C120.038 166.542 120.094 166.315 120.208 166.125C120.324 165.932 120.486 165.783 120.693 165.68C120.903 165.577 121.143 165.525 121.413 165.525C121.779 165.525 122.073 165.597 122.293 165.74V166.155C122.076 166.005 121.799 165.93 121.463 165.93C121.189 165.93 120.968 166.005 120.798 166.155C120.631 166.302 120.547 166.518 120.547 166.805C120.547 167.092 120.631 167.308 120.798 167.455C120.964 167.602 121.183 167.675 121.453 167.675C121.789 167.675 122.079 167.595 122.323 167.435V167.845C122.206 167.925 122.073 167.983 121.923 168.02C121.776 168.057 121.603 168.075 121.403 168.075ZM124.797 168.075C124.554 168.075 124.365 168.005 124.232 167.865C124.102 167.725 124.037 167.527 124.037 167.27V165.99H123.672V165.6H124.037V164.88H124.547V165.6H125.137V165.99H124.547V167.235C124.547 167.395 124.577 167.508 124.637 167.575C124.7 167.642 124.814 167.675 124.977 167.675C125.074 167.675 125.17 167.653 125.267 167.61V168.01C125.14 168.053 124.984 168.075 124.797 168.075ZM18.645 176.075C18.2017 176.075 17.8533 175.965 17.6 175.745C17.35 175.522 17.225 175.208 17.225 174.805C17.225 174.412 17.3367 174.1 17.56 173.87C17.7867 173.64 18.1083 173.525 18.525 173.525C18.8017 173.525 19.0367 173.578 19.23 173.685C19.4233 173.788 19.5683 173.933 19.665 174.12C19.765 174.303 19.815 174.513 19.815 174.75V175H17.705C17.7217 175.227 17.8167 175.397 17.99 175.51C18.1667 175.62 18.405 175.675 18.705 175.675C18.8583 175.675 19.0133 175.662 19.17 175.635C19.3267 175.605 19.465 175.567 19.585 175.52V175.925C19.4783 175.968 19.3367 176.003 19.16 176.03C18.9867 176.06 18.815 176.075 18.645 176.075ZM19.34 174.645C19.3333 174.418 19.2583 174.243 19.115 174.12C18.975 173.993 18.775 173.93 18.515 173.93C18.2617 173.93 18.065 173.995 17.925 174.125C17.785 174.255 17.7117 174.428 17.705 174.645H19.34ZM21.367 173.6H21.857V173.945C21.9703 173.802 22.1087 173.697 22.272 173.63C22.4387 173.56 22.612 173.525 22.792 173.525C23.112 173.525 23.3503 173.61 23.507 173.78C23.6637 173.95 23.742 174.178 23.742 174.465V176H23.237V174.515C23.237 174.125 23.0503 173.93 22.677 173.93C22.517 173.93 22.367 173.968 22.227 174.045C22.0903 174.118 21.972 174.232 21.872 174.385V176H21.367V173.6ZM25.0404 173.6H25.5754L26.2804 175.325L26.9854 173.6H27.5204L26.5004 176H26.0604L25.0404 173.6ZM29.3651 173.13C29.2818 173.13 29.2118 173.102 29.1551 173.045C29.0985 172.988 29.0701 172.918 29.0701 172.835C29.0701 172.752 29.0985 172.682 29.1551 172.625C29.2118 172.568 29.2818 172.54 29.3651 172.54C29.4518 172.54 29.5235 172.568 29.5801 172.625C29.6401 172.682 29.6701 172.752 29.6701 172.835C29.6701 172.918 29.6401 172.988 29.5801 173.045C29.5235 173.102 29.4518 173.13 29.3651 173.13ZM29.1101 173.6H29.6251V176H29.1101V173.6ZM31.3201 173.6H31.8101V174.03C31.9101 173.883 32.0501 173.775 32.2301 173.705C32.4135 173.635 32.6251 173.6 32.8651 173.6V173.995C32.6085 173.995 32.3885 174.037 32.2051 174.12C32.0218 174.203 31.8951 174.335 31.8251 174.515V176H31.3201V173.6ZM35.5089 176.075C35.2389 176.075 35.0006 176.025 34.7939 175.925C34.5906 175.822 34.4306 175.675 34.3139 175.485C34.2006 175.292 34.1439 175.065 34.1439 174.805C34.1439 174.548 34.2006 174.323 34.3139 174.13C34.4273 173.937 34.5873 173.788 34.7939 173.685C35.0006 173.578 35.2389 173.525 35.5089 173.525C35.7789 173.525 36.0173 173.578 36.2239 173.685C36.4306 173.788 36.5906 173.937 36.7039 174.13C36.8206 174.323 36.8789 174.548 36.8789 174.805C36.8789 175.065 36.8206 175.292 36.7039 175.485C36.5906 175.675 36.4306 175.822 36.2239 175.925C36.0173 176.025 35.7789 176.075 35.5089 176.075ZM35.5089 175.675C35.7689 175.675 35.9756 175.595 36.1289 175.435C36.2823 175.275 36.3589 175.065 36.3589 174.805C36.3589 174.535 36.2823 174.322 36.1289 174.165C35.9756 174.008 35.7689 173.93 35.5089 173.93C35.2489 173.93 35.0423 174.008 34.8889 174.165C34.7356 174.322 34.6589 174.535 34.6589 174.805C34.6589 175.065 34.7356 175.275 34.8889 175.435C35.0423 175.595 35.2489 175.675 35.5089 175.675ZM38.4275 173.6H38.9175V173.945C39.0309 173.802 39.1692 173.697 39.3325 173.63C39.4992 173.56 39.6725 173.525 39.8525 173.525C40.1725 173.525 40.4109 173.61 40.5675 173.78C40.7242 173.95 40.8025 174.178 40.8025 174.465V176H40.2975V174.515C40.2975 174.125 40.1109 173.93 39.7375 173.93C39.5775 173.93 39.4275 173.968 39.2875 174.045C39.1509 174.118 39.0325 174.232 38.9325 174.385V176H38.4275V173.6ZM42.4256 173.6H42.9056V173.945C43.0189 173.805 43.1473 173.7 43.2906 173.63C43.4339 173.56 43.5823 173.525 43.7356 173.525C43.9289 173.525 44.0823 173.558 44.1956 173.625C44.3089 173.688 44.3923 173.787 44.4456 173.92C44.5523 173.79 44.6823 173.692 44.8356 173.625C44.9923 173.558 45.1489 173.525 45.3056 173.525C45.5989 173.525 45.8106 173.6 45.9406 173.75C46.0706 173.897 46.1356 174.115 46.1356 174.405V176H45.6456V174.47C45.6456 174.273 45.6089 174.135 45.5356 174.055C45.4623 173.972 45.3373 173.93 45.1606 173.93C44.9073 173.93 44.7006 174.04 44.5406 174.26C44.5473 174.31 44.5506 174.392 44.5506 174.505V176H44.0606V174.47C44.0606 174.273 44.0273 174.135 43.9606 174.055C43.8939 173.972 43.7739 173.93 43.6006 173.93C43.3473 173.93 43.1206 174.073 42.9206 174.36V176H42.4256V173.6ZM49.0815 176.075C48.6382 176.075 48.2899 175.965 48.0365 175.745C47.7865 175.522 47.6615 175.208 47.6615 174.805C47.6615 174.412 47.7732 174.1 47.9965 173.87C48.2232 173.64 48.5449 173.525 48.9615 173.525C49.2382 173.525 49.4732 173.578 49.6665 173.685C49.8599 173.788 50.0049 173.933 50.1015 174.12C50.2015 174.303 50.2515 174.513 50.2515 174.75V175H48.1415C48.1582 175.227 48.2532 175.397 48.4265 175.51C48.6032 175.62 48.8415 175.675 49.1415 175.675C49.2949 175.675 49.4499 175.662 49.6065 175.635C49.7632 175.605 49.9015 175.567 50.0215 175.52V175.925C49.9149 175.968 49.7732 176.003 49.5965 176.03C49.4232 176.06 49.2515 176.075 49.0815 176.075ZM49.7765 174.645C49.7699 174.418 49.6949 174.243 49.5515 174.12C49.4115 173.993 49.2115 173.93 48.9515 173.93C48.6982 173.93 48.5015 173.995 48.3615 174.125C48.2215 174.255 48.1482 174.428 48.1415 174.645H49.7765ZM51.8035 173.6H52.2935V173.945C52.4068 173.802 52.5452 173.697 52.7085 173.63C52.8752 173.56 53.0485 173.525 53.2285 173.525C53.5485 173.525 53.7868 173.61 53.9435 173.78C54.1002 173.95 54.1785 174.178 54.1785 174.465V176H53.6735V174.515C53.6735 174.125 53.4868 173.93 53.1135 173.93C52.9535 173.93 52.8035 173.968 52.6635 174.045C52.5268 174.118 52.4085 174.232 52.3085 174.385V176H51.8035V173.6ZM56.7266 176.075C56.4832 176.075 56.2949 176.005 56.1616 175.865C56.0316 175.725 55.9666 175.527 55.9666 175.27V173.99H55.6016V173.6H55.9666V172.88H56.4766V173.6H57.0666V173.99H56.4766V175.235C56.4766 175.395 56.5066 175.508 56.5666 175.575C56.6299 175.642 56.7432 175.675 56.9066 175.675C57.0032 175.675 57.0999 175.653 57.1966 175.61V176.01C57.0699 176.053 56.9132 176.075 56.7266 176.075ZM62.4473 176.075C62.2039 176.075 62.0156 176.005 61.8823 175.865C61.7523 175.725 61.6873 175.527 61.6873 175.27V173.99H61.3223V173.6H61.6873V172.88H62.1973V173.6H62.7873V173.99H62.1973V175.235C62.1973 175.395 62.2273 175.508 62.2873 175.575C62.3506 175.642 62.4639 175.675 62.6273 175.675C62.7239 175.675 62.8206 175.653 62.9173 175.61V176.01C62.7906 176.053 62.6339 176.075 62.4473 176.075ZM65.633 176.075C65.363 176.075 65.1246 176.025 64.918 175.925C64.7146 175.822 64.5546 175.675 64.438 175.485C64.3246 175.292 64.268 175.065 64.268 174.805C64.268 174.548 64.3246 174.323 64.438 174.13C64.5513 173.937 64.7113 173.788 64.918 173.685C65.1246 173.578 65.363 173.525 65.633 173.525C65.903 173.525 66.1413 173.578 66.348 173.685C66.5546 173.788 66.7146 173.937 66.828 174.13C66.9446 174.323 67.003 174.548 67.003 174.805C67.003 175.065 66.9446 175.292 66.828 175.485C66.7146 175.675 66.5546 175.822 66.348 175.925C66.1413 176.025 65.903 176.075 65.633 176.075ZM65.633 175.675C65.893 175.675 66.0996 175.595 66.253 175.435C66.4063 175.275 66.483 175.065 66.483 174.805C66.483 174.535 66.4063 174.322 66.253 174.165C66.0996 174.008 65.893 173.93 65.633 173.93C65.373 173.93 65.1663 174.008 65.013 174.165C64.8596 174.322 64.783 174.535 64.783 174.805C64.783 175.065 64.8596 175.275 65.013 175.435C65.1663 175.595 65.373 175.675 65.633 175.675Z" fill="black"/>
<path d="M71.4021 173.6H71.8821V173.945C71.9955 173.805 72.1238 173.7 72.2671 173.63C72.4105 173.56 72.5588 173.525 72.7121 173.525C72.9055 173.525 73.0588 173.558 73.1721 173.625C73.2855 173.688 73.3688 173.787 73.4221 173.92C73.5288 173.79 73.6588 173.692 73.8121 173.625C73.9688 173.558 74.1255 173.525 74.2821 173.525C74.5755 173.525 74.7871 173.6 74.9171 173.75C75.0471 173.897 75.1121 174.115 75.1121 174.405V176H74.6221V174.47C74.6221 174.273 74.5855 174.135 74.5121 174.055C74.4388 173.972 74.3138 173.93 74.1371 173.93C73.8838 173.93 73.6771 174.04 73.5171 174.26C73.5238 174.31 73.5271 174.392 73.5271 174.505V176H73.0371V174.47C73.0371 174.273 73.0038 174.135 72.9371 174.055C72.8705 173.972 72.7505 173.93 72.5771 173.93C72.3238 173.93 72.0971 174.073 71.8971 174.36V176H71.4021V173.6ZM77.0331 173.13C76.9498 173.13 76.8798 173.102 76.8231 173.045C76.7664 172.988 76.7381 172.918 76.7381 172.835C76.7381 172.752 76.7664 172.682 76.8231 172.625C76.8798 172.568 76.9498 172.54 77.0331 172.54C77.1198 172.54 77.1914 172.568 77.2481 172.625C77.3081 172.682 77.3381 172.752 77.3381 172.835C77.3381 172.918 77.3081 172.988 77.2481 173.045C77.1914 173.102 77.1198 173.13 77.0331 173.13ZM76.7781 173.6H77.2931V176H76.7781V173.6ZM79.9181 174.745L78.9781 173.6H79.5531L80.2031 174.395L80.8581 173.6H81.4331L80.4931 174.745L81.5231 176H80.9531L80.2031 175.095L79.4581 176H78.8881L79.9181 174.745ZM87.0846 176.075C86.8446 176.075 86.6279 176.023 86.4346 175.92C86.2446 175.813 86.0946 175.665 85.9846 175.475C85.8779 175.282 85.8246 175.058 85.8246 174.805C85.8246 174.555 85.8779 174.333 85.9846 174.14C86.0946 173.947 86.2446 173.797 86.4346 173.69C86.6279 173.58 86.8446 173.525 87.0846 173.525C87.5179 173.525 87.8463 173.657 88.0696 173.92V172.305H88.5746V176H88.0846V175.65C87.9513 175.797 87.8046 175.905 87.6446 175.975C87.4879 176.042 87.3013 176.075 87.0846 176.075ZM87.1996 175.675C87.4063 175.675 87.5863 175.622 87.7396 175.515C87.8963 175.405 88.0063 175.258 88.0696 175.075V174.535C88.0129 174.352 87.9046 174.205 87.7446 174.095C87.5879 173.985 87.4063 173.93 87.1996 173.93C87.0363 173.93 86.8879 173.967 86.7546 174.04C86.6246 174.113 86.5213 174.217 86.4446 174.35C86.3713 174.483 86.3346 174.635 86.3346 174.805C86.3346 174.975 86.3713 175.127 86.4446 175.26C86.5213 175.393 86.6246 175.497 86.7546 175.57C86.8879 175.64 87.0363 175.675 87.1996 175.675ZM90.5204 173.13C90.4371 173.13 90.3671 173.102 90.3104 173.045C90.2537 172.988 90.2254 172.918 90.2254 172.835C90.2254 172.752 90.2537 172.682 90.3104 172.625C90.3671 172.568 90.4371 172.54 90.5204 172.54C90.6071 172.54 90.6787 172.568 90.7354 172.625C90.7954 172.682 90.8254 172.752 90.8254 172.835C90.8254 172.918 90.7954 172.988 90.7354 173.045C90.6787 173.102 90.6071 173.13 90.5204 173.13ZM90.2654 173.6H90.7804V176H90.2654V173.6ZM92.6404 173.99H92.2754V173.6H92.6404V173.13C92.6404 172.853 92.7187 172.643 92.8754 172.5C93.0321 172.353 93.2421 172.28 93.5054 172.28C93.6421 172.28 93.7704 172.3 93.8904 172.34V172.76C93.7971 172.717 93.7004 172.695 93.6004 172.695C93.4437 172.695 93.3287 172.733 93.2554 172.81C93.1821 172.883 93.1454 173 93.1454 173.16V173.6H93.7454V173.99H93.1454V176H92.6404V173.99ZM95.2761 173.99H94.9111V173.6H95.2761V173.13C95.2761 172.853 95.3545 172.643 95.5111 172.5C95.6678 172.353 95.8778 172.28 96.1411 172.28C96.2778 172.28 96.4061 172.3 96.5261 172.34V172.76C96.4328 172.717 96.3361 172.695 96.2361 172.695C96.0795 172.695 95.9645 172.733 95.8911 172.81C95.8178 172.883 95.7811 173 95.7811 173.16V173.6H96.3811V173.99H95.7811V176H95.2761V173.99ZM99.1938 176.075C98.7505 176.075 98.4022 175.965 98.1488 175.745C97.8988 175.522 97.7738 175.208 97.7738 174.805C97.7738 174.412 97.8855 174.1 98.1088 173.87C98.3355 173.64 98.6572 173.525 99.0738 173.525C99.3505 173.525 99.5855 173.578 99.7788 173.685C99.9722 173.788 100.117 173.933 100.214 174.12C100.314 174.303 100.364 174.513 100.364 174.75V175H98.2538C98.2705 175.227 98.3655 175.397 98.5388 175.51C98.7155 175.62 98.9538 175.675 99.2538 175.675C99.4072 175.675 99.5622 175.662 99.7188 175.635C99.8755 175.605 100.014 175.567 100.134 175.52V175.925C100.027 175.968 99.8855 176.003 99.7088 176.03C99.5355 176.06 99.3638 176.075 99.1938 176.075ZM99.8888 174.645C99.8822 174.418 99.8072 174.243 99.6638 174.12C99.5238 173.993 99.3238 173.93 99.0638 173.93C98.8105 173.93 98.6138 173.995 98.4738 174.125C98.3338 174.255 98.2605 174.428 98.2538 174.645H99.8888ZM101.916 173.6H102.406V174.03C102.506 173.883 102.646 173.775 102.826 173.705C103.009 173.635 103.221 173.6 103.461 173.6V173.995C103.204 173.995 102.984 174.037 102.801 174.12C102.617 174.203 102.491 174.335 102.421 174.515V176H101.916V173.6ZM106.082 176.075C105.638 176.075 105.29 175.965 105.037 175.745C104.787 175.522 104.662 175.208 104.662 174.805C104.662 174.412 104.773 174.1 104.997 173.87C105.223 173.64 105.545 173.525 105.962 173.525C106.238 173.525 106.473 173.578 106.667 173.685C106.86 173.788 107.005 173.933 107.102 174.12C107.202 174.303 107.252 174.513 107.252 174.75V175H105.142C105.158 175.227 105.253 175.397 105.427 175.51C105.603 175.62 105.842 175.675 106.142 175.675C106.295 175.675 106.45 175.662 106.607 175.635C106.763 175.605 106.902 175.567 107.022 175.52V175.925C106.915 175.968 106.773 176.003 106.597 176.03C106.423 176.06 106.252 176.075 106.082 176.075ZM106.777 174.645C106.77 174.418 106.695 174.243 106.552 174.12C106.412 173.993 106.212 173.93 105.952 173.93C105.698 173.93 105.502 173.995 105.362 174.125C105.222 174.255 105.148 174.428 105.142 174.645H106.777ZM108.804 173.6H109.294V173.945C109.407 173.802 109.545 173.697 109.709 173.63C109.875 173.56 110.049 173.525 110.229 173.525C110.549 173.525 110.787 173.61 110.944 173.78C111.1 173.95 111.179 174.178 111.179 174.465V176H110.674V174.515C110.674 174.125 110.487 173.93 110.114 173.93C109.954 173.93 109.804 173.968 109.664 174.045C109.527 174.118 109.409 174.232 109.309 174.385V176H108.804V173.6ZM113.727 176.075C113.483 176.075 113.295 176.005 113.162 175.865C113.032 175.725 112.967 175.527 112.967 175.27V173.99H112.602V173.6H112.967V172.88H113.477V173.6H114.067V173.99H113.477V175.235C113.477 175.395 113.507 175.508 113.567 175.575C113.63 175.642 113.743 175.675 113.907 175.675C114.003 175.675 114.1 175.653 114.197 175.61V176.01C114.07 176.053 113.913 176.075 113.727 176.075ZM17.225 181.6H17.74L18.28 183.38L18.815 181.6H19.27L19.805 183.38L20.345 181.6H20.865L20.085 184H19.6L19.045 182.21L18.49 184H18L17.225 181.6ZM23.0034 184.075C22.7134 184.075 22.48 184.002 22.3034 183.855C22.13 183.705 22.0434 183.503 22.0434 183.25C22.0434 182.983 22.1267 182.778 22.2934 182.635C22.4634 182.488 22.7034 182.415 23.0134 182.415C23.3434 182.415 23.6234 182.482 23.8534 182.615V182.49C23.8534 182.3 23.795 182.16 23.6784 182.07C23.565 181.977 23.385 181.93 23.1384 181.93C22.9917 181.93 22.8484 181.945 22.7084 181.975C22.5717 182.002 22.4484 182.04 22.3384 182.09V181.68C22.4384 181.633 22.5684 181.597 22.7284 181.57C22.8884 181.54 23.0434 181.525 23.1934 181.525C23.59 181.525 23.8834 181.613 24.0734 181.79C24.2667 181.963 24.3634 182.205 24.3634 182.515V184H23.8884V183.73C23.785 183.843 23.6617 183.93 23.5184 183.99C23.3784 184.047 23.2067 184.075 23.0034 184.075ZM23.1284 183.69C23.2884 183.69 23.4334 183.658 23.5634 183.595C23.6934 183.532 23.79 183.443 23.8534 183.33V183.005C23.6367 182.865 23.395 182.795 23.1284 182.795C22.935 182.795 22.79 182.833 22.6934 182.91C22.6 182.983 22.5534 183.097 22.5534 183.25C22.5534 183.543 22.745 183.69 23.1284 183.69ZM26.7881 184.075C26.5448 184.075 26.3564 184.005 26.2231 183.865C26.0931 183.725 26.0281 183.527 26.0281 183.27V181.99H25.6631V181.6H26.0281V180.88H26.5381V181.6H27.1281V181.99H26.5381V183.235C26.5381 183.395 26.5681 183.508 26.6281 183.575C26.6914 183.642 26.8048 183.675 26.9681 183.675C27.0648 183.675 27.1614 183.653 27.2581 183.61V184.01C27.1314 184.053 26.9748 184.075 26.7881 184.075ZM30.0532 184.075C29.6099 184.075 29.2615 183.965 29.0082 183.745C28.7582 183.522 28.6332 183.208 28.6332 182.805C28.6332 182.412 28.7449 182.1 28.9682 181.87C29.1949 181.64 29.5165 181.525 29.9332 181.525C30.2099 181.525 30.4449 181.578 30.6382 181.685C30.8315 181.788 30.9765 181.933 31.0732 182.12C31.1732 182.303 31.2232 182.513 31.2232 182.75V183H29.1132C29.1299 183.227 29.2249 183.397 29.3982 183.51C29.5749 183.62 29.8132 183.675 30.1132 183.675C30.2665 183.675 30.4215 183.662 30.5782 183.635C30.7349 183.605 30.8732 183.567 30.9932 183.52V183.925C30.8865 183.968 30.7449 184.003 30.5682 184.03C30.3949 184.06 30.2232 184.075 30.0532 184.075ZM30.7482 182.645C30.7415 182.418 30.6665 182.243 30.5232 182.12C30.3832 181.993 30.1832 181.93 29.9232 181.93C29.6699 181.93 29.4732 181.995 29.3332 182.125C29.1932 182.255 29.1199 182.428 29.1132 182.645H30.7482ZM32.7752 181.6H33.2652V182.03C33.3652 181.883 33.5052 181.775 33.6852 181.705C33.8685 181.635 34.0802 181.6 34.3202 181.6V181.995C34.0635 181.995 33.8435 182.037 33.6602 182.12C33.4769 182.203 33.3502 182.335 33.2802 182.515V184H32.7752V181.6ZM36.584 184.075C36.4174 184.075 36.2407 184.053 36.054 184.01C35.8674 183.97 35.7207 183.915 35.614 183.845V183.415C35.744 183.492 35.894 183.555 36.064 183.605C36.234 183.652 36.399 183.675 36.559 183.675C36.739 183.675 36.8707 183.653 36.954 183.61C37.0374 183.567 37.079 183.497 37.079 183.4C37.079 183.327 37.059 183.268 37.019 183.225C36.9824 183.178 36.9174 183.137 36.824 183.1C36.734 183.063 36.5974 183.02 36.414 182.97C36.2174 182.913 36.0607 182.857 35.944 182.8C35.8307 182.74 35.744 182.665 35.684 182.575C35.6274 182.485 35.599 182.368 35.599 182.225C35.599 181.995 35.689 181.822 35.869 181.705C36.0524 181.585 36.2974 181.525 36.604 181.525C36.764 181.525 36.9207 181.54 37.074 181.57C37.2274 181.6 37.3507 181.642 37.444 181.695V182.115C37.3474 182.058 37.2274 182.013 37.084 181.98C36.944 181.947 36.8007 181.93 36.654 181.93C36.4774 181.93 36.3424 181.952 36.249 181.995C36.1557 182.038 36.109 182.115 36.109 182.225C36.109 182.295 36.129 182.352 36.169 182.395C36.209 182.438 36.2724 182.477 36.359 182.51C36.449 182.54 36.5907 182.58 36.784 182.63C37.0874 182.713 37.2974 182.812 37.414 182.925C37.534 183.038 37.594 183.195 37.594 183.395C37.594 183.602 37.509 183.767 37.339 183.89C37.169 184.013 36.9174 184.075 36.584 184.075ZM39.2803 184C39.2136 184 39.157 183.978 39.1103 183.935C39.067 183.888 39.0453 183.832 39.0453 183.765C39.0453 183.698 39.067 183.642 39.1103 183.595C39.157 183.548 39.2136 183.525 39.2803 183.525C39.347 183.525 39.4036 183.548 39.4503 183.595C39.497 183.642 39.5203 183.698 39.5203 183.765C39.5203 183.832 39.497 183.888 39.4503 183.935C39.4036 183.978 39.347 184 39.2803 184Z" fill="#0068C8"/>
<rect x="12.25" y="143.25" width="125.5" height="46.5" stroke="#6C6C6C" stroke-width="0.5"/>
<path fill-rule="evenodd" clip-rule="evenodd" d="M68 67.5L68.7419 51.1395L71.0645 51.7209L68.7419 48.814L72.8065 51.1395L71.0645 47.6512L83.2581 43L85 48.814L74.5484 51.7209L75.7097 54.6279L72 52.5L74.1047 54.6279L73.9677 55.7907V67.5H68ZM43.8571 81L43 70L103 69L99.5714 78.5L43.8571 81ZM54 130.57L49 82.9065L97 81L95 132L54 130.57Z" fill="#B4B4B4"/>
<path d="M15.948 35.18C14.884 35.18 14.048 34.916 13.44 34.388C12.84 33.852 12.54 33.1 12.54 32.132C12.54 31.188 12.808 30.44 13.344 29.888C13.888 29.336 14.66 29.06 15.66 29.06C16.324 29.06 16.888 29.188 17.352 29.444C17.816 29.692 18.164 30.04 18.396 30.488C18.636 30.928 18.756 31.432 18.756 32V32.6H13.692C13.732 33.144 13.96 33.552 14.376 33.824C14.8 34.088 15.372 34.22 16.092 34.22C16.46 34.22 16.832 34.188 17.208 34.124C17.584 34.052 17.916 33.96 18.204 33.848V34.82C17.948 34.924 17.608 35.008 17.184 35.072C16.768 35.144 16.356 35.18 15.948 35.18ZM17.616 31.748C17.6 31.204 17.42 30.784 17.076 30.488C16.74 30.184 16.26 30.032 15.636 30.032C15.028 30.032 14.556 30.188 14.22 30.5C13.884 30.812 13.708 31.228 13.692 31.748H17.616ZM20.6808 29.24H21.8328V30.068C22.1048 29.732 22.4128 29.48 22.7568 29.312C23.1008 29.144 23.4568 29.06 23.8248 29.06C24.2888 29.06 24.6568 29.14 24.9288 29.3C25.2008 29.452 25.4008 29.688 25.5288 30.008C25.7848 29.696 26.0968 29.46 26.4648 29.3C26.8408 29.14 27.2168 29.06 27.5928 29.06C28.2968 29.06 28.8048 29.24 29.1168 29.6C29.4288 29.952 29.5848 30.476 29.5848 31.172V35H28.4088V31.328C28.4088 30.856 28.3208 30.524 28.1448 30.332C27.9688 30.132 27.6688 30.032 27.2448 30.032C26.6368 30.032 26.1408 30.296 25.7568 30.824C25.7728 30.944 25.7808 31.14 25.7808 31.412V35H24.6048V31.328C24.6048 30.856 24.5248 30.524 24.3648 30.332C24.2048 30.132 23.9168 30.032 23.5008 30.032C22.8928 30.032 22.3488 30.376 21.8688 31.064V35H20.6808V29.24ZM31.687 29.24H32.863V30.092C33.455 29.404 34.255 29.06 35.263 29.06C35.839 29.06 36.355 29.188 36.811 29.444C37.275 29.7 37.635 30.06 37.891 30.524C38.155 30.98 38.287 31.512 38.287 32.12C38.287 32.72 38.155 33.252 37.891 33.716C37.635 34.18 37.279 34.54 36.823 34.796C36.367 35.052 35.847 35.18 35.263 35.18C34.783 35.18 34.335 35.1 33.919 34.94C33.503 34.78 33.163 34.544 32.899 34.232V37.628H31.687V29.24ZM34.987 34.22C35.379 34.22 35.731 34.136 36.043 33.968C36.363 33.792 36.611 33.544 36.787 33.224C36.971 32.904 37.063 32.536 37.063 32.12C37.063 31.704 36.971 31.34 36.787 31.028C36.611 30.708 36.363 30.464 36.043 30.296C35.731 30.12 35.379 30.032 34.987 30.032C34.499 30.032 34.067 30.16 33.691 30.416C33.323 30.672 33.059 31.024 32.899 31.472V32.768C33.035 33.208 33.295 33.56 33.679 33.824C34.063 34.088 34.499 34.22 34.987 34.22ZM42.007 35.18C41.423 35.18 40.971 35.012 40.651 34.676C40.339 34.34 40.183 33.864 40.183 33.248V30.176H39.307V29.24H40.183V27.512H41.407V29.24H42.823V30.176H41.407V33.164C41.407 33.548 41.479 33.82 41.623 33.98C41.775 34.14 42.047 34.22 42.439 34.22C42.671 34.22 42.903 34.168 43.135 34.064V35.024C42.831 35.128 42.455 35.18 42.007 35.18ZM45.6188 37.376C45.1868 37.376 44.8268 37.332 44.5388 37.244V36.296C44.7468 36.376 45.0028 36.416 45.3068 36.416C45.5868 36.416 45.8068 36.344 45.9668 36.2C46.1268 36.064 46.2708 35.84 46.3988 35.528L46.6748 34.856L44.1548 29.24H45.4028L47.3228 33.668L49.1108 29.24H50.3588L47.7668 35.648C47.5268 36.248 47.2388 36.684 46.9028 36.956C46.5748 37.236 46.1468 37.376 45.6188 37.376ZM56.8392 29.24H58.0752L59.3712 33.512L60.6552 29.24H61.7472L63.0312 33.512L64.3272 29.24H65.5752L63.7032 35H62.5392L61.2072 30.704L59.8752 35H58.6992L56.8392 29.24ZM68.9073 35.18C68.2113 35.18 67.6513 35.004 67.2273 34.652C66.8113 34.292 66.6033 33.808 66.6033 33.2C66.6033 32.56 66.8033 32.068 67.2033 31.724C67.6113 31.372 68.1873 31.196 68.9313 31.196C69.7233 31.196 70.3953 31.356 70.9473 31.676V31.376C70.9473 30.92 70.8073 30.584 70.5273 30.368C70.2553 30.144 69.8233 30.032 69.2313 30.032C68.8793 30.032 68.5353 30.068 68.1993 30.14C67.8713 30.204 67.5753 30.296 67.3113 30.416V29.432C67.5513 29.32 67.8633 29.232 68.2473 29.168C68.6313 29.096 69.0033 29.06 69.3633 29.06C70.3153 29.06 71.0193 29.272 71.4753 29.696C71.9393 30.112 72.1713 30.692 72.1713 31.436V35H71.0313V34.352C70.7833 34.624 70.4873 34.832 70.1433 34.976C69.8073 35.112 69.3953 35.18 68.9073 35.18ZM69.2073 34.256C69.5913 34.256 69.9393 34.18 70.2513 34.028C70.5633 33.876 70.7953 33.664 70.9473 33.392V32.612C70.4273 32.276 69.8473 32.108 69.2073 32.108C68.7433 32.108 68.3953 32.2 68.1633 32.384C67.9393 32.56 67.8273 32.832 67.8273 33.2C67.8273 33.904 68.2873 34.256 69.2073 34.256ZM76.1906 35.18C75.6066 35.18 75.1546 35.012 74.8346 34.676C74.5226 34.34 74.3666 33.864 74.3666 33.248V30.176H73.4906V29.24H74.3666V27.512H75.5906V29.24H77.0066V30.176H75.5906V33.164C75.5906 33.548 75.6626 33.82 75.8066 33.98C75.9586 34.14 76.2306 34.22 76.6226 34.22C76.8546 34.22 77.0866 34.168 77.3186 34.064V35.024C77.0146 35.128 76.6386 35.18 76.1906 35.18ZM82.2269 35.18C81.1629 35.18 80.3269 34.916 79.7189 34.388C79.1189 33.852 78.8189 33.1 78.8189 32.132C78.8189 31.188 79.0869 30.44 79.6229 29.888C80.1669 29.336 80.9389 29.06 81.9389 29.06C82.6029 29.06 83.1669 29.188 83.6309 29.444C84.0949 29.692 84.4429 30.04 84.6749 30.488C84.9149 30.928 85.0349 31.432 85.0349 32V32.6H79.9709C80.0109 33.144 80.2389 33.552 80.6549 33.824C81.0789 34.088 81.6509 34.22 82.3709 34.22C82.7389 34.22 83.1109 34.188 83.4869 34.124C83.8629 34.052 84.1949 33.96 84.4829 33.848V34.82C84.2269 34.924 83.8869 35.008 83.4629 35.072C83.0469 35.144 82.6349 35.18 82.2269 35.18ZM83.8949 31.748C83.8789 31.204 83.6989 30.784 83.3549 30.488C83.0189 30.184 82.5389 30.032 81.9149 30.032C81.3069 30.032 80.8349 30.188 80.4989 30.5C80.1629 30.812 79.9869 31.228 79.9709 31.748H83.8949ZM86.9597 29.24H88.1357V30.272C88.3757 29.92 88.7117 29.66 89.1437 29.492C89.5837 29.324 90.0917 29.24 90.6677 29.24V30.188C90.0517 30.188 89.5237 30.288 89.0837 30.488C88.6437 30.688 88.3397 31.004 88.1717 31.436V35H86.9597V29.24ZM100.97 35.18C100.45 35.18 99.9981 35.1 99.6141 34.94C99.2381 34.772 98.8901 34.512 98.5701 34.16V35H97.3941V26.132H98.6061V30.008C98.8701 29.696 99.2101 29.46 99.6261 29.3C100.042 29.14 100.49 29.06 100.97 29.06C101.546 29.06 102.062 29.192 102.518 29.456C102.982 29.712 103.342 30.072 103.598 30.536C103.862 31 103.994 31.532 103.994 32.132C103.994 32.74 103.862 33.276 103.598 33.74C103.342 34.196 102.982 34.552 102.518 34.808C102.062 35.056 101.546 35.18 100.97 35.18ZM100.694 34.22C101.086 34.22 101.438 34.136 101.75 33.968C102.07 33.792 102.318 33.544 102.494 33.224C102.678 32.904 102.77 32.54 102.77 32.132C102.77 31.724 102.678 31.36 102.494 31.04C102.318 30.72 102.07 30.472 101.75 30.296C101.438 30.12 101.086 30.032 100.694 30.032C100.206 30.032 99.7701 30.164 99.3861 30.428C99.0021 30.692 98.7421 31.044 98.6061 31.484V32.78C98.7581 33.22 99.0181 33.572 99.3861 33.836C99.7621 34.092 100.198 34.22 100.694 34.22ZM108.647 35.18C107.999 35.18 107.427 35.06 106.931 34.82C106.443 34.572 106.059 34.22 105.779 33.764C105.507 33.3 105.371 32.756 105.371 32.132C105.371 31.516 105.507 30.976 105.779 30.512C106.051 30.048 106.435 29.692 106.931 29.444C107.427 29.188 107.999 29.06 108.647 29.06C109.295 29.06 109.867 29.188 110.363 29.444C110.859 29.692 111.243 30.048 111.515 30.512C111.795 30.976 111.935 31.516 111.935 32.132C111.935 32.756 111.795 33.3 111.515 33.764C111.243 34.22 110.859 34.572 110.363 34.82C109.867 35.06 109.295 35.18 108.647 35.18ZM108.647 34.22C109.271 34.22 109.767 34.028 110.135 33.644C110.503 33.26 110.687 32.756 110.687 32.132C110.687 31.484 110.503 30.972 110.135 30.596C109.767 30.22 109.271 30.032 108.647 30.032C108.023 30.032 107.527 30.22 107.159 30.596C106.791 30.972 106.607 31.484 106.607 32.132C106.607 32.756 106.791 33.26 107.159 33.644C107.527 34.028 108.023 34.22 108.647 34.22ZM115.896 35.18C115.312 35.18 114.86 35.012 114.54 34.676C114.228 34.34 114.072 33.864 114.072 33.248V30.176H113.196V29.24H114.072V27.512H115.296V29.24H116.712V30.176H115.296V33.164C115.296 33.548 115.368 33.82 115.512 33.98C115.664 34.14 115.936 34.22 116.328 34.22C116.56 34.22 116.792 34.168 117.024 34.064V35.024C116.72 35.128 116.344 35.18 115.896 35.18ZM120.68 35.18C120.096 35.18 119.644 35.012 119.324 34.676C119.012 34.34 118.856 33.864 118.856 33.248V30.176H117.98V29.24H118.856V27.512H120.08V29.24H121.496V30.176H120.08V33.164C120.08 33.548 120.152 33.82 120.296 33.98C120.448 34.14 120.72 34.22 121.112 34.22C121.344 34.22 121.576 34.168 121.808 34.064V35.024C121.504 35.128 121.128 35.18 120.68 35.18ZM123.548 26.132H124.76V35H123.548V26.132ZM130.093 35.18C129.029 35.18 128.193 34.916 127.585 34.388C126.985 33.852 126.685 33.1 126.685 32.132C126.685 31.188 126.953 30.44 127.489 29.888C128.033 29.336 128.805 29.06 129.805 29.06C130.469 29.06 131.033 29.188 131.497 29.444C131.961 29.692 132.309 30.04 132.541 30.488C132.781 30.928 132.901 31.432 132.901 32V32.6H127.837C127.877 33.144 128.105 33.552 128.521 33.824C128.945 34.088 129.517 34.22 130.237 34.22C130.605 34.22 130.977 34.188 131.353 34.124C131.729 34.052 132.061 33.96 132.349 33.848V34.82C132.093 34.924 131.753 35.008 131.329 35.072C130.913 35.144 130.501 35.18 130.093 35.18ZM131.761 31.748C131.745 31.204 131.565 30.784 131.221 30.488C130.885 30.184 130.405 30.032 129.781 30.032C129.173 30.032 128.701 30.188 128.365 30.5C128.029 30.812 127.853 31.228 127.837 31.748H131.761Z" fill="black"/>
<path d="M12.8691 19.0381L17.1807 17.1875V16.4746L12.8691 14.6289V15.5615L16.0283 16.7334L16.3213 16.8262L16.0283 16.9092L12.8691 18.1006V19.0381ZM20.875 19.0381L25.1865 17.1875V16.4746L20.875 14.6289V15.5615L24.0342 16.7334L24.3271 16.8262L24.0342 16.9092L20.875 18.1006V19.0381ZM37.375 20H38.0879L38.9033 16.7627L39.0352 15.9424L39.1719 16.7627L39.9971 20H40.71L41.833 14.7168H41.0322L40.4463 18.0859L40.3145 18.916L40.1729 18.0859L39.333 14.7168H38.752L37.9072 18.0859L37.7754 18.8428L37.668 18.0859L37.0527 14.7168H36.252L37.375 20ZM48.3447 20H49.2871V19.9219C49.2285 19.7754 49.1829 19.6045 49.1504 19.4092C49.1178 19.2106 49.1016 19.0234 49.1016 18.8477V16.3916C49.1016 16.0954 49.0479 15.8366 48.9404 15.6152C48.833 15.3939 48.6865 15.2083 48.501 15.0586C48.3122 14.9121 48.0892 14.8031 47.832 14.7314C47.5749 14.6566 47.2965 14.6191 46.9971 14.6191C46.6683 14.6191 46.3737 14.6647 46.1133 14.7559C45.8561 14.847 45.638 14.9658 45.459 15.1123C45.2767 15.262 45.1367 15.4297 45.0391 15.6152C44.9447 15.8008 44.8958 15.9896 44.8926 16.1816H45.8008C45.8008 16.071 45.8268 15.9652 45.8789 15.8643C45.9342 15.7601 46.0107 15.6706 46.1084 15.5957C46.2061 15.5208 46.3249 15.4606 46.4648 15.415C46.6081 15.3695 46.7692 15.3467 46.9482 15.3467C47.1403 15.3467 47.3128 15.3711 47.4658 15.4199C47.6221 15.4688 47.7539 15.5371 47.8613 15.625C47.9688 15.7161 48.0518 15.8252 48.1104 15.9521C48.1689 16.0791 48.1982 16.2223 48.1982 16.3818V16.7969H47.2119C46.8441 16.7969 46.5104 16.8327 46.2109 16.9043C45.9147 16.9759 45.6608 17.0833 45.4492 17.2266C45.2376 17.373 45.0732 17.5553 44.9561 17.7734C44.8421 17.9915 44.7852 18.2454 44.7852 18.5352C44.7852 18.7565 44.8275 18.9632 44.9121 19.1553C45 19.3441 45.1237 19.5068 45.2832 19.6436C45.4395 19.7835 45.6299 19.8942 45.8545 19.9756C46.0824 20.057 46.3363 20.0977 46.6162 20.0977C46.7887 20.0977 46.9515 20.0798 47.1045 20.0439C47.2575 20.0081 47.4023 19.9593 47.5391 19.8975C47.6725 19.8356 47.7946 19.764 47.9053 19.6826C48.0192 19.6012 48.1217 19.515 48.2129 19.4238C48.2227 19.5345 48.2373 19.6419 48.2568 19.7461C48.2796 19.847 48.3089 19.9316 48.3447 20ZM46.748 19.3115C46.5723 19.3115 46.4176 19.2887 46.2842 19.2432C46.1507 19.1976 46.04 19.1341 45.9521 19.0527C45.8643 18.9746 45.7975 18.8802 45.752 18.7695C45.7096 18.6589 45.6885 18.5384 45.6885 18.4082C45.6885 18.2715 45.7129 18.1494 45.7617 18.042C45.8138 17.9346 45.8887 17.8418 45.9863 17.7637C46.123 17.653 46.307 17.5716 46.5381 17.5195C46.7725 17.4642 47.0459 17.4365 47.3584 17.4365H48.1982V18.5059C48.1462 18.61 48.0745 18.7109 47.9834 18.8086C47.8923 18.903 47.7848 18.9876 47.6611 19.0625C47.5342 19.1374 47.3942 19.1976 47.2412 19.2432C47.0882 19.2887 46.9238 19.3115 46.748 19.3115ZM55.0176 13.4375H54.1094V14.7168H52.7227V15.415H54.1094V18.2861C54.1094 18.6117 54.1517 18.89 54.2363 19.1211C54.3242 19.349 54.443 19.5345 54.5928 19.6777C54.7425 19.8242 54.9183 19.9316 55.1201 20C55.3252 20.0651 55.5449 20.0977 55.7793 20.0977C55.9193 20.0977 56.0592 20.0911 56.1992 20.0781C56.3424 20.0651 56.4775 20.0456 56.6045 20.0195C56.7314 19.9967 56.8486 19.9691 56.9561 19.9365C57.0635 19.9007 57.1546 19.86 57.2295 19.8145L57.1025 19.1748C57.0472 19.1878 56.9756 19.2041 56.8877 19.2236C56.8031 19.2399 56.7119 19.2562 56.6143 19.2725C56.5133 19.2887 56.4108 19.3034 56.3066 19.3164C56.2025 19.3262 56.1016 19.3311 56.0039 19.3311C55.8704 19.3311 55.7435 19.3148 55.623 19.2822C55.5059 19.2497 55.4017 19.1927 55.3105 19.1113C55.2194 19.0332 55.1478 18.9274 55.0957 18.7939C55.0436 18.6605 55.0176 18.4912 55.0176 18.2861V15.415H57.0293V14.7168H55.0176V13.4375ZM63.2188 20.0977C63.7331 20.0977 64.1644 19.9951 64.5127 19.79C64.8643 19.5817 65.1279 19.3441 65.3037 19.0771L64.752 18.6475C64.5859 18.8623 64.3776 19.0348 64.127 19.165C63.8763 19.2952 63.5898 19.3604 63.2676 19.3604C63.0234 19.3604 62.8005 19.3148 62.5986 19.2236C62.3968 19.1325 62.2243 19.0072 62.0811 18.8477C61.9411 18.6979 61.8304 18.5254 61.749 18.3301C61.6709 18.1348 61.6204 17.9085 61.5977 17.6514V17.6172H65.3721V17.2119C65.3721 16.8441 65.3249 16.5023 65.2305 16.1865C65.1393 15.8708 64.9993 15.5957 64.8105 15.3613C64.6217 15.1302 64.3841 14.9495 64.0977 14.8193C63.8145 14.6859 63.4824 14.6191 63.1016 14.6191C62.7988 14.6191 62.5026 14.681 62.2129 14.8047C61.9264 14.9284 61.6709 15.1058 61.4463 15.3369C61.2184 15.5713 61.0361 15.8577 60.8994 16.1963C60.7627 16.5316 60.6943 16.9124 60.6943 17.3389V17.5439C60.6943 17.9118 60.7562 18.252 60.8799 18.5645C61.0036 18.877 61.1761 19.1471 61.3975 19.375C61.6188 19.6029 61.8841 19.7803 62.1934 19.9072C62.5059 20.0342 62.8477 20.0977 63.2188 20.0977ZM63.1016 15.3613C63.3327 15.3613 63.5312 15.4036 63.6973 15.4883C63.8665 15.5729 64.0065 15.6836 64.1172 15.8203C64.2279 15.957 64.3141 16.1198 64.376 16.3086C64.4378 16.4941 64.4688 16.6683 64.4688 16.8311V16.875H61.627C61.6628 16.6309 61.7246 16.416 61.8125 16.2305C61.9036 16.0417 62.0143 15.8822 62.1445 15.752C62.2747 15.625 62.4212 15.529 62.584 15.4639C62.7467 15.3955 62.9193 15.3613 63.1016 15.3613ZM72.3525 14.6191C71.9684 14.6191 71.625 14.7038 71.3223 14.873C71.0228 15.0391 70.7656 15.2669 70.5508 15.5566L70.5459 15.4248L70.5068 14.7168H69.6475V20H70.5557V16.6113C70.6143 16.4486 70.6875 16.3021 70.7754 16.1719C70.8665 16.0384 70.9723 15.9261 71.0928 15.835C71.2262 15.7308 71.3825 15.6527 71.5615 15.6006C71.7406 15.5452 71.9408 15.5176 72.1621 15.5176C72.3346 15.5176 72.499 15.5273 72.6553 15.5469C72.8148 15.5632 72.9824 15.5908 73.1582 15.6299L73.2803 14.7461C73.1891 14.707 73.0524 14.6761 72.8701 14.6533C72.6911 14.6305 72.5186 14.6191 72.3525 14.6191Z" fill="#707070"/>
</svg>
