<svg width="150" height="200" viewBox="0 0 150 200" fill="none" xmlns="http://www.w3.org/2000/svg">
<rect width="150" height="200" fill="white"/>
<path d="M17.815 148.505H18.31L18.975 151.23L20.8 148.505H21.325L20.585 152H20.09L20.615 149.515L18.955 152H18.705L18.09 149.515L17.565 152H17.075L17.815 148.505ZM23.3752 152.075C23.1818 152.075 23.0068 152.035 22.8502 151.955C22.6968 151.875 22.5752 151.762 22.4852 151.615C22.3985 151.468 22.3552 151.297 22.3552 151.1C22.3552 151.007 22.3652 150.908 22.3852 150.805C22.4385 150.555 22.5402 150.333 22.6902 150.14C22.8402 149.947 23.0218 149.797 23.2352 149.69C23.4518 149.58 23.6802 149.525 23.9202 149.525C24.3502 149.525 24.6502 149.657 24.8202 149.92L24.8902 149.6H25.3952L24.8852 152H24.3952L24.4652 151.65C24.3018 151.797 24.1335 151.905 23.9602 151.975C23.7868 152.042 23.5918 152.075 23.3752 152.075ZM23.5752 151.675C23.7818 151.675 23.9735 151.622 24.1502 151.515C24.3302 151.405 24.4718 151.258 24.5752 151.075L24.6902 150.535C24.6735 150.352 24.5968 150.205 24.4602 150.095C24.3235 149.985 24.1518 149.93 23.9452 149.93C23.6985 149.93 23.4752 150.012 23.2752 150.175C23.0785 150.335 22.9518 150.545 22.8952 150.805C22.8718 150.922 22.8602 151.017 22.8602 151.09C22.8602 151.48 23.0985 151.675 23.5752 151.675ZM27.0459 149.6H27.5259L27.4509 149.945C27.5943 149.805 27.7443 149.7 27.9009 149.63C28.0576 149.56 28.2143 149.525 28.3709 149.525C28.7176 149.525 28.9259 149.657 28.9959 149.92C29.1326 149.79 29.2843 149.692 29.4509 149.625C29.6209 149.558 29.7843 149.525 29.9409 149.525C30.1709 149.525 30.3393 149.578 30.4459 149.685C30.5559 149.792 30.6109 149.94 30.6109 150.13C30.6109 150.213 30.6009 150.305 30.5809 150.405L30.2459 152H29.7559L30.0809 150.47C30.1009 150.373 30.1109 150.292 30.1109 150.225C30.1109 150.118 30.0809 150.043 30.0209 150C29.9609 149.953 29.8609 149.93 29.7209 149.93C29.4576 149.93 29.2226 150.04 29.0159 150.26C29.0126 150.303 28.9993 150.385 28.9759 150.505L28.6609 152H28.1709L28.4959 150.47C28.5159 150.373 28.5259 150.292 28.5259 150.225C28.5259 150.118 28.4976 150.043 28.4409 150C28.3876 149.953 28.2993 149.93 28.1759 149.93C28.0459 149.93 27.9126 149.967 27.7759 150.04C27.6393 150.11 27.5059 150.217 27.3759 150.36L27.0309 152H26.5359L27.0459 149.6ZM32.9386 152.075C32.7453 152.075 32.5703 152.035 32.4136 151.955C32.2603 151.875 32.1386 151.762 32.0486 151.615C31.962 151.468 31.9186 151.297 31.9186 151.1C31.9186 151.007 31.9286 150.908 31.9486 150.805C32.002 150.555 32.1036 150.333 32.2536 150.14C32.4036 149.947 32.5853 149.797 32.7986 149.69C33.0153 149.58 33.2436 149.525 33.4836 149.525C33.9136 149.525 34.2136 149.657 34.3836 149.92L34.4536 149.6H34.9586L34.4486 152H33.9586L34.0286 151.65C33.8653 151.797 33.697 151.905 33.5236 151.975C33.3503 152.042 33.1553 152.075 32.9386 152.075ZM33.1386 151.675C33.3453 151.675 33.537 151.622 33.7136 151.515C33.8936 151.405 34.0353 151.258 34.1386 151.075L34.2536 150.535C34.237 150.352 34.1603 150.205 34.0236 150.095C33.887 149.985 33.7153 149.93 33.5086 149.93C33.262 149.93 33.0386 150.012 32.8386 150.175C32.642 150.335 32.5153 150.545 32.4586 150.805C32.4353 150.922 32.4236 151.017 32.4236 151.09C32.4236 151.48 32.662 151.675 33.1386 151.675ZM39.46 149.6H39.94L39.865 149.945C40.0083 149.805 40.1583 149.7 40.315 149.63C40.4717 149.56 40.6283 149.525 40.785 149.525C41.1317 149.525 41.34 149.657 41.41 149.92C41.5467 149.79 41.6983 149.692 41.865 149.625C42.035 149.558 42.1983 149.525 42.355 149.525C42.585 149.525 42.7533 149.578 42.86 149.685C42.97 149.792 43.025 149.94 43.025 150.13C43.025 150.213 43.015 150.305 42.995 150.405L42.66 152H42.17L42.495 150.47C42.515 150.373 42.525 150.292 42.525 150.225C42.525 150.118 42.495 150.043 42.435 150C42.375 149.953 42.275 149.93 42.135 149.93C41.8717 149.93 41.6367 150.04 41.43 150.26C41.4267 150.303 41.4133 150.385 41.39 150.505L41.075 152H40.585L40.91 150.47C40.93 150.373 40.94 150.292 40.94 150.225C40.94 150.118 40.9117 150.043 40.855 150C40.8017 149.953 40.7133 149.93 40.59 149.93C40.46 149.93 40.3267 149.967 40.19 150.04C40.0533 150.11 39.92 150.217 39.79 150.36L39.445 152H38.95L39.46 149.6ZM45.1909 149.13C45.1176 149.13 45.0593 149.108 45.0159 149.065C44.9726 149.022 44.9509 148.967 44.9509 148.9C44.9509 148.803 44.9876 148.72 45.0609 148.65C45.1376 148.577 45.2226 148.54 45.3159 148.54C45.3893 148.54 45.4476 148.562 45.4909 148.605C45.5376 148.648 45.5609 148.705 45.5609 148.775C45.5609 148.872 45.5226 148.955 45.4459 149.025C45.3726 149.095 45.2876 149.13 45.1909 149.13ZM44.8359 149.6H45.3509L44.8409 152H44.3259L44.8359 149.6ZM47.6759 152.075C47.4826 152.075 47.3076 152.035 47.1509 151.955C46.9976 151.875 46.8759 151.762 46.7859 151.615C46.6993 151.468 46.6559 151.297 46.6559 151.1C46.6559 151.007 46.6659 150.908 46.6859 150.805C46.7393 150.555 46.8409 150.333 46.9909 150.14C47.1409 149.947 47.3226 149.797 47.5359 149.69C47.7526 149.58 47.9809 149.525 48.2209 149.525C48.6509 149.525 48.9509 149.657 49.1209 149.92L49.1909 149.6H49.6959L49.1859 152H48.6959L48.7659 151.65C48.6026 151.797 48.4343 151.905 48.2609 151.975C48.0876 152.042 47.8926 152.075 47.6759 152.075ZM47.8759 151.675C48.0826 151.675 48.2743 151.622 48.4509 151.515C48.6309 151.405 48.7726 151.258 48.8759 151.075L48.9909 150.535C48.9743 150.352 48.8976 150.205 48.7609 150.095C48.6243 149.985 48.4526 149.93 48.2459 149.93C47.9993 149.93 47.7759 150.012 47.5759 150.175C47.3793 150.335 47.2526 150.545 47.1959 150.805C47.1726 150.922 47.1609 151.017 47.1609 151.09C47.1609 151.48 47.3993 151.675 47.8759 151.675ZM51.0417 148.505H51.5317V151H51.0417V148.505ZM51.2817 152.075C51.1984 152.075 51.1284 152.047 51.0717 151.99C51.0151 151.933 50.9867 151.863 50.9867 151.78C50.9867 151.697 51.0151 151.627 51.0717 151.57C51.1284 151.513 51.1984 151.485 51.2817 151.485C51.3651 151.485 51.4351 151.513 51.4917 151.57C51.5517 151.627 51.5817 151.697 51.5817 151.78C51.5817 151.863 51.5517 151.933 51.4917 151.99C51.4351 152.047 51.3651 152.075 51.2817 152.075ZM57.7222 152.075C57.3756 152.075 57.0622 152 56.7822 151.85C56.5022 151.697 56.2822 151.482 56.1222 151.205C55.9622 150.928 55.8822 150.612 55.8822 150.255C55.8822 149.898 55.9622 149.582 56.1222 149.305C56.2822 149.028 56.5022 148.813 56.7822 148.66C57.0622 148.507 57.3756 148.43 57.7222 148.43C58.0689 148.43 58.3822 148.507 58.6622 148.66C58.9422 148.813 59.1622 149.028 59.3222 149.305C59.4822 149.582 59.5622 149.898 59.5622 150.255C59.5622 150.612 59.4822 150.928 59.3222 151.205C59.1622 151.482 58.9422 151.697 58.6622 151.85C58.3822 152 58.0689 152.075 57.7222 152.075ZM57.7222 151.615C57.9689 151.615 58.1922 151.56 58.3922 151.45C58.5956 151.337 58.7556 151.178 58.8722 150.975C58.9889 150.768 59.0472 150.528 59.0472 150.255C59.0472 149.985 58.9889 149.748 58.8722 149.545C58.7589 149.338 58.6022 149.18 58.4022 149.07C58.2022 148.957 57.9789 148.9 57.7322 148.9C57.4822 148.9 57.2556 148.955 57.0522 149.065C56.8522 149.175 56.6922 149.333 56.5722 149.54C56.4556 149.747 56.3972 149.985 56.3972 150.255C56.3972 150.528 56.4556 150.768 56.5722 150.975C56.6889 151.178 56.8472 151.337 57.0472 151.45C57.2506 151.56 57.4756 151.615 57.7222 151.615ZM61.1131 149.6H61.6031V150.03C61.7031 149.883 61.8431 149.775 62.0231 149.705C62.2064 149.635 62.4181 149.6 62.6581 149.6V149.995C62.4014 149.995 62.1814 150.037 61.9981 150.12C61.8148 150.203 61.6881 150.335 61.6181 150.515V152H61.1131V149.6ZM67.2557 149.13C67.1724 149.13 67.1024 149.102 67.0457 149.045C66.9891 148.988 66.9607 148.918 66.9607 148.835C66.9607 148.752 66.9891 148.682 67.0457 148.625C67.1024 148.568 67.1724 148.54 67.2557 148.54C67.3424 148.54 67.4141 148.568 67.4707 148.625C67.5307 148.682 67.5607 148.752 67.5607 148.835C67.5607 148.918 67.5307 148.988 67.4707 149.045C67.4141 149.102 67.3424 149.13 67.2557 149.13ZM67.0007 149.6H67.5157V152H67.0007V149.6ZM70.0957 152.075C69.9291 152.075 69.7524 152.053 69.5657 152.01C69.3791 151.97 69.2324 151.915 69.1257 151.845V151.415C69.2557 151.492 69.4057 151.555 69.5757 151.605C69.7457 151.652 69.9107 151.675 70.0707 151.675C70.2507 151.675 70.3824 151.653 70.4657 151.61C70.5491 151.567 70.5907 151.497 70.5907 151.4C70.5907 151.327 70.5707 151.268 70.5307 151.225C70.4941 151.178 70.4291 151.137 70.3357 151.1C70.2457 151.063 70.1091 151.02 69.9257 150.97C69.7291 150.913 69.5724 150.857 69.4557 150.8C69.3424 150.74 69.2557 150.665 69.1957 150.575C69.1391 150.485 69.1107 150.368 69.1107 150.225C69.1107 149.995 69.2007 149.822 69.3807 149.705C69.5641 149.585 69.8091 149.525 70.1157 149.525C70.2757 149.525 70.4324 149.54 70.5857 149.57C70.7391 149.6 70.8624 149.642 70.9557 149.695V150.115C70.8591 150.058 70.7391 150.013 70.5957 149.98C70.4557 149.947 70.3124 149.93 70.1657 149.93C69.9891 149.93 69.8541 149.952 69.7607 149.995C69.6674 150.038 69.6207 150.115 69.6207 150.225C69.6207 150.295 69.6407 150.352 69.6807 150.395C69.7207 150.438 69.7841 150.477 69.8707 150.51C69.9607 150.54 70.1024 150.58 70.2957 150.63C70.5991 150.713 70.8091 150.812 70.9257 150.925C71.0457 151.038 71.1057 151.195 71.1057 151.395C71.1057 151.602 71.0207 151.767 70.8507 151.89C70.6807 152.013 70.4291 152.075 70.0957 152.075ZM75.8026 149.13C75.7193 149.13 75.6493 149.102 75.5926 149.045C75.536 148.988 75.5076 148.918 75.5076 148.835C75.5076 148.752 75.536 148.682 75.5926 148.625C75.6493 148.568 75.7193 148.54 75.8026 148.54C75.8893 148.54 75.961 148.568 76.0176 148.625C76.0776 148.682 76.1076 148.752 76.1076 148.835C76.1076 148.918 76.0776 148.988 76.0176 149.045C75.961 149.102 75.8893 149.13 75.8026 149.13ZM75.5476 149.6H76.0626V152H75.5476V149.6ZM78.6826 152.075C78.4393 152.075 78.251 152.005 78.1176 151.865C77.9876 151.725 77.9226 151.527 77.9226 151.27V149.99H77.5576V149.6H77.9226V148.88H78.4326V149.6H79.0226V149.99H78.4326V151.235C78.4326 151.395 78.4626 151.508 78.5226 151.575C78.586 151.642 78.6993 151.675 78.8626 151.675C78.9593 151.675 79.056 151.653 79.1526 151.61V152.01C79.026 152.053 78.8693 152.075 78.6826 152.075ZM84.4733 152.075C84.1233 152.075 83.8467 151.99 83.6433 151.82C83.4433 151.65 83.3433 151.415 83.3433 151.115C83.3433 151.012 83.355 150.908 83.3783 150.805C83.4317 150.548 83.5333 150.323 83.6833 150.13C83.8367 149.937 84.0267 149.788 84.2533 149.685C84.4833 149.578 84.7383 149.525 85.0183 149.525C85.3683 149.525 85.6433 149.613 85.8433 149.79C86.0467 149.963 86.1483 150.2 86.1483 150.5C86.1483 150.6 86.1367 150.702 86.1133 150.805C86.03 151.198 85.8417 151.508 85.5483 151.735C85.2583 151.962 84.9 152.075 84.4733 152.075ZM84.5583 151.675C84.8183 151.675 85.0417 151.595 85.2283 151.435C85.415 151.275 85.5367 151.065 85.5933 150.805C85.6133 150.705 85.6233 150.612 85.6233 150.525C85.6233 150.128 85.3917 149.93 84.9283 149.93C84.6683 149.93 84.445 150.008 84.2583 150.165C84.0717 150.322 83.95 150.535 83.8933 150.805C83.8733 150.898 83.8633 150.987 83.8633 151.07C83.8633 151.263 83.92 151.413 84.0333 151.52C84.1467 151.623 84.3217 151.675 84.5583 151.675ZM88.3469 152.075C88.0936 152.075 87.8969 152.008 87.7569 151.875C87.6169 151.738 87.5469 151.562 87.5469 151.345C87.5469 151.285 87.5552 151.21 87.5719 151.12L87.8969 149.6H88.4019L88.0819 151.1C88.0652 151.183 88.0569 151.252 88.0569 151.305C88.0569 151.432 88.0936 151.525 88.1669 151.585C88.2436 151.645 88.3652 151.675 88.5319 151.675C88.8686 151.675 89.1652 151.523 89.4219 151.22L89.7669 149.6H90.2719L89.7619 152H89.2719L89.3419 151.66C89.0652 151.937 88.7336 152.075 88.3469 152.075ZM95.5605 152.075C95.1939 152.075 94.9039 151.992 94.6905 151.825C94.4805 151.655 94.3755 151.417 94.3755 151.11C94.3755 151.01 94.3872 150.908 94.4105 150.805C94.4972 150.405 94.6722 150.092 94.9355 149.865C95.2022 149.638 95.5522 149.525 95.9855 149.525C96.2089 149.525 96.4005 149.567 96.5605 149.65C96.7205 149.73 96.8405 149.842 96.9205 149.985C97.0039 150.128 97.0455 150.29 97.0455 150.47C97.0455 150.56 97.0355 150.653 97.0155 150.75L96.9605 151H94.8505C94.8439 151.06 94.8405 151.103 94.8405 151.13C94.8405 151.32 94.9105 151.458 95.0505 151.545C95.1905 151.632 95.4089 151.675 95.7055 151.675C95.8589 151.675 96.0172 151.662 96.1805 151.635C96.3439 151.605 96.4905 151.567 96.6205 151.52L96.5355 151.925C96.4189 151.968 96.2689 152.003 96.0855 152.03C95.9055 152.06 95.7305 152.075 95.5605 152.075ZM96.5605 150.645C96.5739 150.558 96.5805 150.497 96.5805 150.46C96.5805 150.107 96.3489 149.93 95.8855 149.93C95.6322 149.93 95.4205 149.995 95.2505 150.125C95.0839 150.255 94.9755 150.428 94.9255 150.645H96.5605ZM99.1675 152.075C99.0009 152.075 98.8275 152.053 98.6475 152.01C98.4709 151.97 98.3375 151.915 98.2475 151.845L98.3375 151.415C98.4509 151.495 98.5875 151.558 98.7475 151.605C98.9109 151.652 99.0709 151.675 99.2275 151.675C99.4075 151.675 99.5442 151.653 99.6375 151.61C99.7309 151.567 99.7875 151.497 99.8075 151.4C99.8142 151.367 99.8175 151.343 99.8175 151.33C99.8175 151.277 99.7992 151.232 99.7625 151.195C99.7259 151.158 99.6675 151.125 99.5875 151.095C99.5109 151.062 99.3925 151.02 99.2325 150.97C99.0092 150.9 98.8409 150.82 98.7275 150.73C98.6175 150.637 98.5625 150.517 98.5625 150.37C98.5625 150.323 98.5675 150.275 98.5775 150.225C98.6809 149.758 99.0659 149.525 99.7325 149.525C99.8925 149.525 100.044 149.54 100.188 149.57C100.334 149.6 100.449 149.642 100.533 149.695L100.448 150.115C100.364 150.058 100.254 150.013 100.118 149.98C99.9809 149.947 99.8392 149.93 99.6925 149.93C99.5159 149.93 99.3759 149.952 99.2725 149.995C99.1725 150.038 99.1109 150.115 99.0875 150.225C99.0809 150.258 99.0775 150.28 99.0775 150.29C99.0775 150.343 99.0959 150.387 99.1325 150.42C99.1725 150.453 99.2309 150.485 99.3075 150.515C99.3875 150.542 99.5109 150.58 99.6775 150.63C99.9075 150.697 100.076 150.777 100.183 150.87C100.289 150.963 100.343 151.083 100.343 151.23C100.343 151.26 100.336 151.315 100.323 151.395C100.226 151.848 99.8409 152.075 99.1675 152.075ZM102.581 152.075C102.377 152.075 102.224 152.028 102.121 151.935C102.017 151.838 101.966 151.7 101.966 151.52C101.966 151.443 101.976 151.36 101.996 151.27L102.266 149.99H101.901L101.986 149.6H102.351L102.501 148.88H103.011L102.861 149.6H103.451L103.366 149.99H102.776L102.511 151.235C102.494 151.325 102.486 151.392 102.486 151.435C102.486 151.522 102.509 151.583 102.556 151.62C102.606 151.657 102.689 151.675 102.806 151.675C102.856 151.675 102.912 151.67 102.976 151.66C103.042 151.647 103.101 151.63 103.151 151.61L103.066 152.01C102.932 152.053 102.771 152.075 102.581 152.075ZM107.906 149.6H108.386L108.311 149.945C108.455 149.805 108.605 149.7 108.761 149.63C108.918 149.56 109.075 149.525 109.231 149.525C109.578 149.525 109.786 149.657 109.856 149.92C109.993 149.79 110.145 149.692 110.311 149.625C110.481 149.558 110.645 149.525 110.801 149.525C111.031 149.525 111.2 149.578 111.306 149.685C111.416 149.792 111.471 149.94 111.471 150.13C111.471 150.213 111.461 150.305 111.441 150.405L111.106 152H110.616L110.941 150.47C110.961 150.373 110.971 150.292 110.971 150.225C110.971 150.118 110.941 150.043 110.881 150C110.821 149.953 110.721 149.93 110.581 149.93C110.318 149.93 110.083 150.04 109.876 150.26C109.873 150.303 109.86 150.385 109.836 150.505L109.521 152H109.031L109.356 150.47C109.376 150.373 109.386 150.292 109.386 150.225C109.386 150.118 109.358 150.043 109.301 150C109.248 149.953 109.16 149.93 109.036 149.93C108.906 149.93 108.773 149.967 108.636 150.04C108.5 150.11 108.366 150.217 108.236 150.36L107.891 152H107.396L107.906 149.6ZM113.799 152.075C113.606 152.075 113.431 152.035 113.274 151.955C113.121 151.875 112.999 151.762 112.909 151.615C112.822 151.468 112.779 151.297 112.779 151.1C112.779 151.007 112.789 150.908 112.809 150.805C112.862 150.555 112.964 150.333 113.114 150.14C113.264 149.947 113.446 149.797 113.659 149.69C113.876 149.58 114.104 149.525 114.344 149.525C114.774 149.525 115.074 149.657 115.244 149.92L115.314 149.6H115.819L115.309 152H114.819L114.889 151.65C114.726 151.797 114.557 151.905 114.384 151.975C114.211 152.042 114.016 152.075 113.799 152.075ZM113.999 151.675C114.206 151.675 114.397 151.622 114.574 151.515C114.754 151.405 114.896 151.258 114.999 151.075L115.114 150.535C115.097 150.352 115.021 150.205 114.884 150.095C114.747 149.985 114.576 149.93 114.369 149.93C114.122 149.93 113.899 150.012 113.699 150.175C113.502 150.335 113.376 150.545 113.319 150.805C113.296 150.922 113.284 151.017 113.284 151.09C113.284 151.48 113.522 151.675 113.999 151.675ZM18.545 160.075C18.3283 160.075 18.1483 160.042 18.005 159.975C17.8617 159.905 17.7383 159.797 17.635 159.65L17.565 160H17.075L17.86 156.305H18.365L18.02 157.92C18.1567 157.79 18.3183 157.692 18.505 157.625C18.695 157.558 18.89 157.525 19.09 157.525C19.2833 157.525 19.4567 157.567 19.61 157.65C19.7667 157.73 19.8883 157.845 19.975 157.995C20.065 158.145 20.11 158.317 20.11 158.51C20.11 158.583 20.0983 158.682 20.075 158.805C19.9917 159.195 19.8133 159.505 19.54 159.735C19.2667 159.962 18.935 160.075 18.545 160.075ZM18.515 159.675C18.765 159.675 18.9883 159.595 19.185 159.435C19.3817 159.275 19.5083 159.065 19.565 158.805C19.5883 158.708 19.6 158.613 19.6 158.52C19.6 158.127 19.3617 157.93 18.885 157.93C18.6817 157.93 18.4883 157.985 18.305 158.095C18.125 158.205 17.9867 158.352 17.89 158.535L17.775 159.075C17.7983 159.258 17.875 159.405 18.005 159.515C18.1383 159.622 18.3083 159.675 18.515 159.675ZM22.3888 160.075C22.1955 160.075 22.0205 160.035 21.8638 159.955C21.7105 159.875 21.5888 159.762 21.4988 159.615C21.4122 159.468 21.3688 159.297 21.3688 159.1C21.3688 159.007 21.3788 158.908 21.3988 158.805C21.4522 158.555 21.5538 158.333 21.7038 158.14C21.8538 157.947 22.0355 157.797 22.2488 157.69C22.4655 157.58 22.6938 157.525 22.9338 157.525C23.3638 157.525 23.6638 157.657 23.8338 157.92L23.9038 157.6H24.4088L23.8988 160H23.4088L23.4788 159.65C23.3155 159.797 23.1472 159.905 22.9738 159.975C22.8005 160.042 22.6055 160.075 22.3888 160.075ZM22.5888 159.675C22.7955 159.675 22.9872 159.622 23.1638 159.515C23.3438 159.405 23.4855 159.258 23.5888 159.075L23.7038 158.535C23.6872 158.352 23.6105 158.205 23.4738 158.095C23.3372 157.985 23.1655 157.93 22.9588 157.93C22.7122 157.93 22.4888 158.012 22.2888 158.175C22.0922 158.335 21.9655 158.545 21.9088 158.805C21.8855 158.922 21.8738 159.017 21.8738 159.09C21.8738 159.48 22.1122 159.675 22.5888 159.675ZM26.5596 161.15C26.3963 161.15 26.2396 161.137 26.0896 161.11C25.9396 161.083 25.8163 161.045 25.7196 160.995L25.8096 160.58C26.0363 160.693 26.3146 160.75 26.6446 160.75C26.9546 160.75 27.1946 160.682 27.3646 160.545C27.5346 160.408 27.6479 160.205 27.7046 159.935L27.7596 159.68C27.4863 159.943 27.1346 160.075 26.7046 160.075C26.5079 160.075 26.3313 160.035 26.1746 159.955C26.0179 159.872 25.8946 159.757 25.8046 159.61C25.7179 159.46 25.6746 159.287 25.6746 159.09C25.6746 158.997 25.6846 158.9 25.7046 158.8C25.7846 158.41 25.9596 158.1 26.2296 157.87C26.5029 157.64 26.8379 157.525 27.2346 157.525C27.4579 157.525 27.6396 157.558 27.7796 157.625C27.9196 157.688 28.0413 157.795 28.1446 157.945L28.2196 157.6H28.7096L28.2246 159.88C28.1346 160.297 27.9579 160.612 27.6946 160.825C27.4313 161.042 27.0529 161.15 26.5596 161.15ZM26.8896 159.675C27.0963 159.675 27.2896 159.62 27.4696 159.51C27.6529 159.4 27.7929 159.253 27.8896 159.07L28.0046 158.53C27.9813 158.343 27.9029 158.197 27.7696 158.09C27.6363 157.983 27.4663 157.93 27.2596 157.93C26.9963 157.93 26.7696 158.01 26.5796 158.17C26.3929 158.327 26.2713 158.537 26.2146 158.8C26.1946 158.883 26.1846 158.965 26.1846 159.045C26.1846 159.242 26.2446 159.397 26.3646 159.51C26.4879 159.62 26.6629 159.675 26.8896 159.675ZM30.7854 160.075C30.5321 160.075 30.3354 160.008 30.1954 159.875C30.0554 159.738 29.9854 159.562 29.9854 159.345C29.9854 159.285 29.9937 159.21 30.0104 159.12L30.3354 157.6H30.8404L30.5204 159.1C30.5037 159.183 30.4954 159.252 30.4954 159.305C30.4954 159.432 30.5321 159.525 30.6054 159.585C30.6821 159.645 30.8037 159.675 30.9704 159.675C31.3071 159.675 31.6037 159.523 31.8604 159.22L32.2054 157.6H32.7104L32.2004 160H31.7104L31.7804 159.66C31.5037 159.937 31.1721 160.075 30.7854 160.075ZM35.1484 160.075C34.7818 160.075 34.4918 159.992 34.2784 159.825C34.0684 159.655 33.9634 159.417 33.9634 159.11C33.9634 159.01 33.9751 158.908 33.9984 158.805C34.0851 158.405 34.2601 158.092 34.5234 157.865C34.7901 157.638 35.1401 157.525 35.5734 157.525C35.7968 157.525 35.9884 157.567 36.1484 157.65C36.3084 157.73 36.4284 157.842 36.5084 157.985C36.5918 158.128 36.6334 158.29 36.6334 158.47C36.6334 158.56 36.6234 158.653 36.6034 158.75L36.5484 159H34.4384C34.4318 159.06 34.4284 159.103 34.4284 159.13C34.4284 159.32 34.4984 159.458 34.6384 159.545C34.7784 159.632 34.9968 159.675 35.2934 159.675C35.4468 159.675 35.6051 159.662 35.7684 159.635C35.9318 159.605 36.0784 159.567 36.2084 159.52L36.1234 159.925C36.0068 159.968 35.8568 160.003 35.6734 160.03C35.4934 160.06 35.3184 160.075 35.1484 160.075ZM36.1484 158.645C36.1618 158.558 36.1684 158.497 36.1684 158.46C36.1684 158.107 35.9368 157.93 35.4734 157.93C35.2201 157.93 35.0084 157.995 34.8384 158.125C34.6718 158.255 34.5634 158.428 34.5134 158.645H36.1484ZM38.7954 160.075C38.5921 160.075 38.4388 160.028 38.3354 159.935C38.2321 159.838 38.1804 159.7 38.1804 159.52C38.1804 159.443 38.1904 159.36 38.2104 159.27L38.4804 157.99H38.1154L38.2004 157.6H38.5654L38.7154 156.88H39.2254L39.0754 157.6H39.6654L39.5804 157.99H38.9904L38.7254 159.235C38.7088 159.325 38.7004 159.392 38.7004 159.435C38.7004 159.522 38.7238 159.583 38.7704 159.62C38.8204 159.657 38.9038 159.675 39.0204 159.675C39.0704 159.675 39.1271 159.67 39.1904 159.66C39.2571 159.647 39.3154 159.63 39.3654 159.61L39.2804 160.01C39.1471 160.053 38.9854 160.075 38.7954 160.075ZM41.5386 160.075C41.3353 160.075 41.1819 160.028 41.0786 159.935C40.9753 159.838 40.9236 159.7 40.9236 159.52C40.9236 159.443 40.9336 159.36 40.9536 159.27L41.2236 157.99H40.8586L40.9436 157.6H41.3086L41.4586 156.88H41.9686L41.8186 157.6H42.4086L42.3236 157.99H41.7336L41.4686 159.235C41.4519 159.325 41.4436 159.392 41.4436 159.435C41.4436 159.522 41.4669 159.583 41.5136 159.62C41.5636 159.657 41.6469 159.675 41.7636 159.675C41.8136 159.675 41.8703 159.67 41.9336 159.66C42.0003 159.647 42.0586 159.63 42.1086 159.61L42.0236 160.01C41.8903 160.053 41.7286 160.075 41.5386 160.075ZM44.8037 160.075C44.437 160.075 44.147 159.992 43.9337 159.825C43.7237 159.655 43.6187 159.417 43.6187 159.11C43.6187 159.01 43.6304 158.908 43.6537 158.805C43.7404 158.405 43.9154 158.092 44.1787 157.865C44.4454 157.638 44.7954 157.525 45.2287 157.525C45.452 157.525 45.6437 157.567 45.8037 157.65C45.9637 157.73 46.0837 157.842 46.1637 157.985C46.247 158.128 46.2887 158.29 46.2887 158.47C46.2887 158.56 46.2787 158.653 46.2587 158.75L46.2037 159H44.0937C44.087 159.06 44.0837 159.103 44.0837 159.13C44.0837 159.32 44.1537 159.458 44.2937 159.545C44.4337 159.632 44.652 159.675 44.9487 159.675C45.102 159.675 45.2604 159.662 45.4237 159.635C45.587 159.605 45.7337 159.567 45.8637 159.52L45.7787 159.925C45.662 159.968 45.512 160.003 45.3287 160.03C45.1487 160.06 44.9737 160.075 44.8037 160.075ZM45.8037 158.645C45.817 158.558 45.8237 158.497 45.8237 158.46C45.8237 158.107 45.592 157.93 45.1287 157.93C44.8754 157.93 44.6637 157.995 44.4937 158.125C44.327 158.255 44.2187 158.428 44.1687 158.645H45.8037ZM48.3007 158.9C48.3007 158.697 48.339 158.527 48.4157 158.39C48.4924 158.253 48.6224 158.122 48.8057 157.995C48.939 157.902 49.039 157.828 49.1057 157.775C49.1724 157.718 49.224 157.657 49.2607 157.59C49.3007 157.52 49.3207 157.438 49.3207 157.345C49.3207 157.195 49.2607 157.077 49.1407 156.99C49.0207 156.903 48.8474 156.86 48.6207 156.86C48.2874 156.86 47.979 156.927 47.6957 157.06V156.62C47.829 156.563 47.974 156.518 48.1307 156.485C48.2907 156.448 48.454 156.43 48.6207 156.43C48.9874 156.43 49.279 156.512 49.4957 156.675C49.7124 156.838 49.8207 157.062 49.8207 157.345C49.8207 157.518 49.7757 157.667 49.6857 157.79C49.5957 157.913 49.454 158.045 49.2607 158.185C49.1207 158.285 49.0207 158.365 48.9607 158.425C48.9007 158.482 48.8574 158.547 48.8307 158.62C48.804 158.69 48.7907 158.785 48.7907 158.905V159.005H48.3007V158.9ZM48.5407 160.075C48.4574 160.075 48.3874 160.047 48.3307 159.99C48.274 159.933 48.2457 159.863 48.2457 159.78C48.2457 159.697 48.274 159.627 48.3307 159.57C48.3874 159.513 48.4574 159.485 48.5407 159.485C48.624 159.485 48.694 159.513 48.7507 159.57C48.8107 159.627 48.8407 159.697 48.8407 159.78C48.8407 159.863 48.8107 159.933 48.7507 159.99C48.694 160.047 48.624 160.075 48.5407 160.075ZM54.2195 156.505H56.5245V156.935H54.7295V158.04H56.0695V158.465H54.7295V159.575H56.5245V160H54.2195V156.505ZM58.3466 157.13C58.2632 157.13 58.1932 157.102 58.1366 157.045C58.0799 156.988 58.0516 156.918 58.0516 156.835C58.0516 156.752 58.0799 156.682 58.1366 156.625C58.1932 156.568 58.2632 156.54 58.3466 156.54C58.4332 156.54 58.5049 156.568 58.5616 156.625C58.6216 156.682 58.6516 156.752 58.6516 156.835C58.6516 156.918 58.6216 156.988 58.5616 157.045C58.5049 157.102 58.4332 157.13 58.3466 157.13ZM58.0916 157.6H58.6066V160H58.0916V157.6ZM61.2266 160.075C60.9832 160.075 60.7949 160.005 60.6616 159.865C60.5316 159.725 60.4666 159.527 60.4666 159.27V157.99H60.1016V157.6H60.4666V156.88H60.9766V157.6H61.5666V157.99H60.9766V159.235C60.9766 159.395 61.0066 159.508 61.0666 159.575C61.1299 159.642 61.2432 159.675 61.4066 159.675C61.5032 159.675 61.5999 159.653 61.6966 159.61V160.01C61.5699 160.053 61.4132 160.075 61.2266 160.075ZM63.1717 156.305H63.6767V157.93C63.9067 157.66 64.2133 157.525 64.5967 157.525C64.9167 157.525 65.155 157.61 65.3117 157.78C65.4683 157.95 65.5467 158.178 65.5467 158.465V160H65.0417V158.515C65.0417 158.125 64.855 157.93 64.4817 157.93C64.3217 157.93 64.1717 157.968 64.0317 158.045C63.895 158.118 63.7767 158.232 63.6767 158.385V160H63.1717V156.305ZM68.4897 160.075C68.0464 160.075 67.6981 159.965 67.4447 159.745C67.1947 159.522 67.0697 159.208 67.0697 158.805C67.0697 158.412 67.1814 158.1 67.4047 157.87C67.6314 157.64 67.9531 157.525 68.3697 157.525C68.6464 157.525 68.8814 157.578 69.0747 157.685C69.2681 157.788 69.4131 157.933 69.5097 158.12C69.6097 158.303 69.6597 158.513 69.6597 158.75V159H67.5497C67.5664 159.227 67.6614 159.397 67.8347 159.51C68.0114 159.62 68.2497 159.675 68.5497 159.675C68.7031 159.675 68.8581 159.662 69.0147 159.635C69.1714 159.605 69.3097 159.567 69.4297 159.52V159.925C69.3231 159.968 69.1814 160.003 69.0047 160.03C68.8314 160.06 68.6597 160.075 68.4897 160.075ZM69.1847 158.645C69.1781 158.418 69.1031 158.243 68.9597 158.12C68.8197 157.993 68.6197 157.93 68.3597 157.93C68.1064 157.93 67.9097 157.995 67.7697 158.125C67.6297 158.255 67.5564 158.428 67.5497 158.645H69.1847ZM71.2117 157.6H71.7017V158.03C71.8017 157.883 71.9417 157.775 72.1217 157.705C72.3051 157.635 72.5167 157.6 72.7567 157.6V157.995C72.5001 157.995 72.2801 158.037 72.0967 158.12C71.9134 158.203 71.7867 158.335 71.7167 158.515V160H71.2117V157.6ZM76.9594 157.6H77.4744L78.0144 159.38L78.5494 157.6H79.0044L79.5394 159.38L80.0794 157.6H80.5994L79.8194 160H79.3344L78.7794 158.21L78.2244 160H77.7344L76.9594 157.6ZM82.7377 160.075C82.4477 160.075 82.2144 160.002 82.0377 159.855C81.8644 159.705 81.7777 159.503 81.7777 159.25C81.7777 158.983 81.8611 158.778 82.0277 158.635C82.1977 158.488 82.4377 158.415 82.7477 158.415C83.0777 158.415 83.3577 158.482 83.5877 158.615V158.49C83.5877 158.3 83.5294 158.16 83.4127 158.07C83.2994 157.977 83.1194 157.93 82.8727 157.93C82.7261 157.93 82.5827 157.945 82.4427 157.975C82.3061 158.002 82.1827 158.04 82.0727 158.09V157.68C82.1727 157.633 82.3027 157.597 82.4627 157.57C82.6227 157.54 82.7777 157.525 82.9277 157.525C83.3244 157.525 83.6177 157.613 83.8077 157.79C84.0011 157.963 84.0977 158.205 84.0977 158.515V160H83.6227V159.73C83.5194 159.843 83.3961 159.93 83.2527 159.99C83.1127 160.047 82.9411 160.075 82.7377 160.075ZM82.8627 159.69C83.0227 159.69 83.1677 159.658 83.2977 159.595C83.4277 159.532 83.5244 159.443 83.5877 159.33V159.005C83.3711 158.865 83.1294 158.795 82.8627 158.795C82.6694 158.795 82.5244 158.833 82.4277 158.91C82.3344 158.983 82.2877 159.097 82.2877 159.25C82.2877 159.543 82.4794 159.69 82.8627 159.69ZM86.0098 160.99C85.8298 160.99 85.6798 160.972 85.5598 160.935V160.54C85.6465 160.573 85.7531 160.59 85.8798 160.59C85.9965 160.59 86.0881 160.56 86.1548 160.5C86.2215 160.443 86.2815 160.35 86.3348 160.22L86.4498 159.94L85.3998 157.6H85.9198L86.7198 159.445L87.4648 157.6H87.9848L86.9048 160.27C86.8048 160.52 86.6848 160.702 86.5448 160.815C86.4081 160.932 86.2298 160.99 86.0098 160.99ZM89.4122 159.735H89.9422L89.4672 160.74H89.0072L89.4122 159.735ZM95.2695 160.075C95.0262 160.075 94.8379 160.005 94.7045 159.865C94.5745 159.725 94.5095 159.527 94.5095 159.27V157.99H94.1445V157.6H94.5095V156.88H95.0195V157.6H95.6095V157.99H95.0195V159.235C95.0195 159.395 95.0495 159.508 95.1095 159.575C95.1729 159.642 95.2862 159.675 95.4495 159.675C95.5462 159.675 95.6429 159.653 95.7395 159.61V160.01C95.6129 160.053 95.4562 160.075 95.2695 160.075ZM97.2146 156.305H97.7196V157.93C97.9496 157.66 98.2563 157.525 98.6396 157.525C98.9596 157.525 99.198 157.61 99.3546 157.78C99.5113 157.95 99.5896 158.178 99.5896 158.465V160H99.0846V158.515C99.0846 158.125 98.898 157.93 98.5246 157.93C98.3646 157.93 98.2146 157.968 98.0746 158.045C97.938 158.118 97.8196 158.232 97.7196 158.385V160H97.2146V156.305ZM101.508 157.13C101.424 157.13 101.354 157.102 101.298 157.045C101.241 156.988 101.213 156.918 101.213 156.835C101.213 156.752 101.241 156.682 101.298 156.625C101.354 156.568 101.424 156.54 101.508 156.54C101.594 156.54 101.666 156.568 101.723 156.625C101.783 156.682 101.813 156.752 101.813 156.835C101.813 156.918 101.783 156.988 101.723 157.045C101.666 157.102 101.594 157.13 101.508 157.13ZM101.253 157.6H101.768V160H101.253V157.6ZM104.348 160.075C104.181 160.075 104.004 160.053 103.818 160.01C103.631 159.97 103.484 159.915 103.378 159.845V159.415C103.508 159.492 103.658 159.555 103.828 159.605C103.998 159.652 104.163 159.675 104.323 159.675C104.503 159.675 104.634 159.653 104.718 159.61C104.801 159.567 104.843 159.497 104.843 159.4C104.843 159.327 104.823 159.268 104.783 159.225C104.746 159.178 104.681 159.137 104.588 159.1C104.498 159.063 104.361 159.02 104.178 158.97C103.981 158.913 103.824 158.857 103.708 158.8C103.594 158.74 103.508 158.665 103.448 158.575C103.391 158.485 103.363 158.368 103.363 158.225C103.363 157.995 103.453 157.822 103.633 157.705C103.816 157.585 104.061 157.525 104.368 157.525C104.528 157.525 104.684 157.54 104.838 157.57C104.991 157.6 105.114 157.642 105.208 157.695V158.115C105.111 158.058 104.991 158.013 104.848 157.98C104.708 157.947 104.564 157.93 104.418 157.93C104.241 157.93 104.106 157.952 104.013 157.995C103.919 158.038 103.873 158.115 103.873 158.225C103.873 158.295 103.893 158.352 103.933 158.395C103.973 158.438 104.036 158.477 104.123 158.51C104.213 158.54 104.354 158.58 104.548 158.63C104.851 158.713 105.061 158.812 105.178 158.925C105.298 159.038 105.358 159.195 105.358 159.395C105.358 159.602 105.273 159.767 105.103 159.89C104.933 160.013 104.681 160.075 104.348 160.075ZM109.66 157.6H110.175L110.715 159.38L111.25 157.6H111.705L112.24 159.38L112.78 157.6H113.3L112.52 160H112.035L111.48 158.21L110.925 160H110.435L109.66 157.6ZM115.438 160.075C115.148 160.075 114.915 160.002 114.738 159.855C114.565 159.705 114.478 159.503 114.478 159.25C114.478 158.983 114.561 158.778 114.728 158.635C114.898 158.488 115.138 158.415 115.448 158.415C115.778 158.415 116.058 158.482 116.288 158.615V158.49C116.288 158.3 116.23 158.16 116.113 158.07C116 157.977 115.82 157.93 115.573 157.93C115.426 157.93 115.283 157.945 115.143 157.975C115.006 158.002 114.883 158.04 114.773 158.09V157.68C114.873 157.633 115.003 157.597 115.163 157.57C115.323 157.54 115.478 157.525 115.628 157.525C116.025 157.525 116.318 157.613 116.508 157.79C116.701 157.963 116.798 158.205 116.798 158.515V160H116.323V159.73C116.22 159.843 116.096 159.93 115.953 159.99C115.813 160.047 115.641 160.075 115.438 160.075ZM115.563 159.69C115.723 159.69 115.868 159.658 115.998 159.595C116.128 159.532 116.225 159.443 116.288 159.33V159.005C116.071 158.865 115.83 158.795 115.563 158.795C115.37 158.795 115.225 158.833 115.128 158.91C115.035 158.983 114.988 159.097 114.988 159.25C114.988 159.543 115.18 159.69 115.563 159.69ZM119.223 160.075C118.979 160.075 118.791 160.005 118.658 159.865C118.528 159.725 118.463 159.527 118.463 159.27V157.99H118.098V157.6H118.463V156.88H118.973V157.6H119.563V157.99H118.973V159.235C118.973 159.395 119.003 159.508 119.063 159.575C119.126 159.642 119.239 159.675 119.403 159.675C119.499 159.675 119.596 159.653 119.693 159.61V160.01C119.566 160.053 119.409 160.075 119.223 160.075ZM122.488 160.075C122.044 160.075 121.696 159.965 121.443 159.745C121.193 159.522 121.068 159.208 121.068 158.805C121.068 158.412 121.179 158.1 121.403 157.87C121.629 157.64 121.951 157.525 122.368 157.525C122.644 157.525 122.879 157.578 123.073 157.685C123.266 157.788 123.411 157.933 123.508 158.12C123.608 158.303 123.658 158.513 123.658 158.75V159H121.548C121.564 159.227 121.659 159.397 121.833 159.51C122.009 159.62 122.248 159.675 122.548 159.675C122.701 159.675 122.856 159.662 123.013 159.635C123.169 159.605 123.308 159.567 123.428 159.52V159.925C123.321 159.968 123.179 160.003 123.003 160.03C122.829 160.06 122.658 160.075 122.488 160.075ZM123.183 158.645C123.176 158.418 123.101 158.243 122.958 158.12C122.818 157.993 122.618 157.93 122.358 157.93C122.104 157.93 121.908 157.995 121.768 158.125C121.628 158.255 121.554 158.428 121.548 158.645H123.183ZM125.21 157.6H125.7V158.03C125.8 157.883 125.94 157.775 126.12 157.705C126.303 157.635 126.515 157.6 126.755 157.6V157.995C126.498 157.995 126.278 158.037 126.095 158.12C125.911 158.203 125.785 158.335 125.715 158.515V160H125.21V157.6ZM17.225 165.6H17.74L18.28 167.38L18.815 165.6H19.27L19.805 167.38L20.345 165.6H20.865L20.085 168H19.6L19.045 166.21L18.49 168H18L17.225 165.6ZM22.7118 165.13C22.6285 165.13 22.5585 165.102 22.5018 165.045C22.4451 164.988 22.4168 164.918 22.4168 164.835C22.4168 164.752 22.4451 164.682 22.5018 164.625C22.5585 164.568 22.6285 164.54 22.7118 164.54C22.7985 164.54 22.8701 164.568 22.9268 164.625C22.9868 164.682 23.0168 164.752 23.0168 164.835C23.0168 164.918 22.9868 164.988 22.9268 165.045C22.8701 165.102 22.7985 165.13 22.7118 165.13ZM22.4568 165.6H22.9718V168H22.4568V165.6ZM24.6668 164.305H25.1718V168H24.6668V164.305ZM26.824 164.305H27.329V168H26.824V164.305ZM32.7168 168.075C32.5502 168.075 32.3735 168.053 32.1868 168.01C32.0002 167.97 31.8535 167.915 31.7468 167.845V167.415C31.8768 167.492 32.0268 167.555 32.1968 167.605C32.3668 167.652 32.5318 167.675 32.6918 167.675C32.8718 167.675 33.0035 167.653 33.0868 167.61C33.1702 167.567 33.2118 167.497 33.2118 167.4C33.2118 167.327 33.1918 167.268 33.1518 167.225C33.1152 167.178 33.0502 167.137 32.9568 167.1C32.8668 167.063 32.7302 167.02 32.5468 166.97C32.3502 166.913 32.1935 166.857 32.0768 166.8C31.9635 166.74 31.8768 166.665 31.8168 166.575C31.7602 166.485 31.7318 166.368 31.7318 166.225C31.7318 165.995 31.8218 165.822 32.0018 165.705C32.1852 165.585 32.4302 165.525 32.7368 165.525C32.8968 165.525 33.0535 165.54 33.2068 165.57C33.3602 165.6 33.4835 165.642 33.5768 165.695V166.115C33.4802 166.058 33.3602 166.013 33.2168 165.98C33.0768 165.947 32.9335 165.93 32.7868 165.93C32.6102 165.93 32.4752 165.952 32.3818 165.995C32.2885 166.038 32.2418 166.115 32.2418 166.225C32.2418 166.295 32.2618 166.352 32.3018 166.395C32.3418 166.438 32.4052 166.477 32.4918 166.51C32.5818 166.54 32.7235 166.58 32.9168 166.63C33.2202 166.713 33.4302 166.812 33.5468 166.925C33.6668 167.038 33.7268 167.195 33.7268 167.395C33.7268 167.602 33.6418 167.767 33.4718 167.89C33.3018 168.013 33.0502 168.075 32.7168 168.075ZM36.2331 168.075C35.9098 168.075 35.6648 167.988 35.4981 167.815C35.3348 167.642 35.2531 167.41 35.2531 167.12V165.6H35.7581V167.1C35.7581 167.483 35.9498 167.675 36.3331 167.675C36.6698 167.675 36.9331 167.523 37.1231 167.22V165.6H37.6281V168H37.1381V167.66C37.0248 167.803 36.8898 167.908 36.7331 167.975C36.5798 168.042 36.4131 168.075 36.2331 168.075ZM39.2762 165.6H39.7662V166.03C39.8662 165.883 40.0062 165.775 40.1862 165.705C40.3695 165.635 40.5812 165.6 40.8212 165.6V165.995C40.5645 165.995 40.3445 166.037 40.1612 166.12C39.9778 166.203 39.8512 166.335 39.7812 166.515V168H39.2762V165.6ZM43.4419 168.075C42.9985 168.075 42.6502 167.965 42.3969 167.745C42.1469 167.522 42.0219 167.208 42.0219 166.805C42.0219 166.412 42.1335 166.1 42.3569 165.87C42.5835 165.64 42.9052 165.525 43.3219 165.525C43.5985 165.525 43.8335 165.578 44.0269 165.685C44.2202 165.788 44.3652 165.933 44.4619 166.12C44.5619 166.303 44.6119 166.513 44.6119 166.75V167H42.5019C42.5185 167.227 42.6135 167.397 42.7869 167.51C42.9635 167.62 43.2019 167.675 43.5019 167.675C43.6552 167.675 43.8102 167.662 43.9669 167.635C44.1235 167.605 44.2619 167.567 44.3819 167.52V167.925C44.2752 167.968 44.1335 168.003 43.9569 168.03C43.7835 168.06 43.6119 168.075 43.4419 168.075ZM44.1369 166.645C44.1302 166.418 44.0552 166.243 43.9119 166.12C43.7719 165.993 43.5719 165.93 43.3119 165.93C43.0585 165.93 42.8619 165.995 42.7219 166.125C42.5819 166.255 42.5085 166.428 42.5019 166.645H44.1369ZM46.1639 164.305H46.6689V168H46.1639V164.305ZM48.8311 168.99C48.6511 168.99 48.5011 168.972 48.3811 168.935V168.54C48.4678 168.573 48.5744 168.59 48.7011 168.59C48.8178 168.59 48.9094 168.56 48.9761 168.5C49.0428 168.443 49.1028 168.35 49.1561 168.22L49.2711 167.94L48.2211 165.6H48.7411L49.5411 167.445L50.2861 165.6H50.8061L49.7261 168.27C49.6261 168.52 49.5061 168.702 49.3661 168.815C49.2294 168.932 49.0511 168.99 48.8311 168.99ZM55.2713 165.99H54.9063V165.6H55.2713V165.13C55.2713 164.857 55.3579 164.647 55.5313 164.5C55.7079 164.353 55.9296 164.28 56.1963 164.28C56.3296 164.28 56.4596 164.3 56.5863 164.34V164.75C56.4929 164.713 56.3979 164.695 56.3013 164.695C56.1346 164.695 56.0046 164.735 55.9113 164.815C55.8213 164.892 55.7763 165.007 55.7763 165.16V165.6H56.8963V164.51H57.4063V168H56.8963V165.99H55.7763V168H55.2713V165.99ZM59.9155 168.075C59.6255 168.075 59.3921 168.002 59.2155 167.855C59.0421 167.705 58.9555 167.503 58.9555 167.25C58.9555 166.983 59.0388 166.778 59.2055 166.635C59.3755 166.488 59.6155 166.415 59.9255 166.415C60.2555 166.415 60.5355 166.482 60.7655 166.615V166.49C60.7655 166.3 60.7071 166.16 60.5905 166.07C60.4771 165.977 60.2971 165.93 60.0505 165.93C59.9038 165.93 59.7605 165.945 59.6205 165.975C59.4838 166.002 59.3605 166.04 59.2505 166.09V165.68C59.3505 165.633 59.4805 165.597 59.6405 165.57C59.8005 165.54 59.9555 165.525 60.1055 165.525C60.5021 165.525 60.7955 165.613 60.9855 165.79C61.1788 165.963 61.2755 166.205 61.2755 166.515V168H60.8005V167.73C60.6971 167.843 60.5738 167.93 60.4305 167.99C60.2905 168.047 60.1188 168.075 59.9155 168.075ZM60.0405 167.69C60.2005 167.69 60.3455 167.658 60.4755 167.595C60.6055 167.532 60.7021 167.443 60.7655 167.33V167.005C60.5488 166.865 60.3071 166.795 60.0405 166.795C59.8471 166.795 59.7021 166.833 59.6055 166.91C59.5121 166.983 59.4655 167.097 59.4655 167.25C59.4655 167.543 59.6571 167.69 60.0405 167.69ZM63.7002 168.075C63.4569 168.075 63.2685 168.005 63.1352 167.865C63.0052 167.725 62.9402 167.527 62.9402 167.27V165.99H62.5752V165.6H62.9402V164.88H63.4502V165.6H64.0402V165.99H63.4502V167.235C63.4502 167.395 63.4802 167.508 63.5402 167.575C63.6035 167.642 63.7169 167.675 63.8802 167.675C63.9769 167.675 64.0735 167.653 64.1702 167.61V168.01C64.0435 168.053 63.8869 168.075 63.7002 168.075ZM66.4434 168.075C66.2 168.075 66.0117 168.005 65.8784 167.865C65.7484 167.725 65.6834 167.527 65.6834 167.27V165.99H65.3184V165.6H65.6834V164.88H66.1934V165.6H66.7834V165.99H66.1934V167.235C66.1934 167.395 66.2234 167.508 66.2834 167.575C66.3467 167.642 66.46 167.675 66.6234 167.675C66.72 167.675 66.8167 167.653 66.9134 167.61V168.01C66.7867 168.053 66.63 168.075 66.4434 168.075ZM69.7085 168.075C69.2651 168.075 68.9168 167.965 68.6635 167.745C68.4135 167.522 68.2885 167.208 68.2885 166.805C68.2885 166.412 68.4001 166.1 68.6235 165.87C68.8501 165.64 69.1718 165.525 69.5885 165.525C69.8651 165.525 70.1001 165.578 70.2935 165.685C70.4868 165.788 70.6318 165.933 70.7285 166.12C70.8285 166.303 70.8785 166.513 70.8785 166.75V167H68.7685C68.7851 167.227 68.8801 167.397 69.0535 167.51C69.2301 167.62 69.4685 167.675 69.7685 167.675C69.9218 167.675 70.0768 167.662 70.2335 167.635C70.3901 167.605 70.5285 167.567 70.6485 167.52V167.925C70.5418 167.968 70.4001 168.003 70.2235 168.03C70.0501 168.06 69.8785 168.075 69.7085 168.075ZM70.4035 166.645C70.3968 166.418 70.3218 166.243 70.1785 166.12C70.0385 165.993 69.8385 165.93 69.5785 165.93C69.3251 165.93 69.1285 165.995 68.9885 166.125C68.8485 166.255 68.7751 166.428 68.7685 166.645H70.4035ZM72.4305 165.6H72.9205V166.03C73.0205 165.883 73.1605 165.775 73.3405 165.705C73.5238 165.635 73.7355 165.6 73.9755 165.6V165.995C73.7188 165.995 73.4988 166.037 73.3155 166.12C73.1321 166.203 73.0055 166.335 72.9355 166.515V168H72.4305V165.6ZM78.7881 168.99C78.6081 168.99 78.4581 168.972 78.3381 168.935V168.54C78.4248 168.573 78.5315 168.59 78.6581 168.59C78.7748 168.59 78.8665 168.56 78.9331 168.5C78.9998 168.443 79.0598 168.35 79.1131 168.22L79.2281 167.94L78.1781 165.6H78.6981L79.4981 167.445L80.2431 165.6H80.7631L79.6831 168.27C79.5831 168.52 79.4631 168.702 79.3231 168.815C79.1865 168.932 79.0081 168.99 78.7881 168.99ZM83.1505 168.075C82.8805 168.075 82.6422 168.025 82.4355 167.925C82.2322 167.822 82.0722 167.675 81.9555 167.485C81.8422 167.292 81.7855 167.065 81.7855 166.805C81.7855 166.548 81.8422 166.323 81.9555 166.13C82.0689 165.937 82.2289 165.788 82.4355 165.685C82.6422 165.578 82.8805 165.525 83.1505 165.525C83.4205 165.525 83.6589 165.578 83.8655 165.685C84.0722 165.788 84.2322 165.937 84.3455 166.13C84.4622 166.323 84.5205 166.548 84.5205 166.805C84.5205 167.065 84.4622 167.292 84.3455 167.485C84.2322 167.675 84.0722 167.822 83.8655 167.925C83.6589 168.025 83.4205 168.075 83.1505 168.075ZM83.1505 167.675C83.4105 167.675 83.6172 167.595 83.7705 167.435C83.9239 167.275 84.0005 167.065 84.0005 166.805C84.0005 166.535 83.9239 166.322 83.7705 166.165C83.6172 166.008 83.4105 165.93 83.1505 165.93C82.8905 165.93 82.6839 166.008 82.5305 166.165C82.3772 166.322 82.3005 166.535 82.3005 166.805C82.3005 167.065 82.3772 167.275 82.5305 167.435C82.6839 167.595 82.8905 167.675 83.1505 167.675ZM87.0241 168.075C86.7008 168.075 86.4558 167.988 86.2891 167.815C86.1258 167.642 86.0441 167.41 86.0441 167.12V165.6H86.5491V167.1C86.5491 167.483 86.7408 167.675 87.1241 167.675C87.4608 167.675 87.7241 167.523 87.9141 167.22V165.6H88.4191V168H87.9291V167.66C87.8158 167.803 87.6808 167.908 87.5241 167.975C87.3708 168.042 87.2041 168.075 87.0241 168.075ZM92.8178 165.6H93.3328L93.8728 167.38L94.4078 165.6H94.8628L95.3978 167.38L95.9378 165.6H96.4578L95.6778 168H95.1928L94.6378 166.21L94.0828 168H93.5928L92.8178 165.6ZM98.3046 165.13C98.2212 165.13 98.1512 165.102 98.0946 165.045C98.0379 164.988 98.0096 164.918 98.0096 164.835C98.0096 164.752 98.0379 164.682 98.0946 164.625C98.1512 164.568 98.2212 164.54 98.3046 164.54C98.3912 164.54 98.4629 164.568 98.5196 164.625C98.5796 164.682 98.6096 164.752 98.6096 164.835C98.6096 164.918 98.5796 164.988 98.5196 165.045C98.4629 165.102 98.3912 165.13 98.3046 165.13ZM98.0496 165.6H98.5646V168H98.0496V165.6ZM101.185 168.075C100.941 168.075 100.753 168.005 100.62 167.865C100.49 167.725 100.425 167.527 100.425 167.27V165.99H100.06V165.6H100.425V164.88H100.935V165.6H101.525V165.99H100.935V167.235C100.935 167.395 100.965 167.508 101.025 167.575C101.088 167.642 101.201 167.675 101.365 167.675C101.461 167.675 101.558 167.653 101.655 167.61V168.01C101.528 168.053 101.371 168.075 101.185 168.075ZM103.13 164.305H103.635V165.93C103.865 165.66 104.171 165.525 104.555 165.525C104.875 165.525 105.113 165.61 105.27 165.78C105.426 165.95 105.505 166.178 105.505 166.465V168H105V166.515C105 166.125 104.813 165.93 104.44 165.93C104.28 165.93 104.13 165.968 103.99 166.045C103.853 166.118 103.735 166.232 103.635 166.385V168H103.13V164.305ZM110.273 165.13C110.19 165.13 110.12 165.102 110.063 165.045C110.007 164.988 109.978 164.918 109.978 164.835C109.978 164.752 110.007 164.682 110.063 164.625C110.12 164.568 110.19 164.54 110.273 164.54C110.36 164.54 110.432 164.568 110.488 164.625C110.548 164.682 110.578 164.752 110.578 164.835C110.578 164.918 110.548 164.988 110.488 165.045C110.432 165.102 110.36 165.13 110.273 165.13ZM110.018 165.6H110.533V168H110.018V165.6ZM113.153 168.075C112.91 168.075 112.722 168.005 112.588 167.865C112.458 167.725 112.393 167.527 112.393 167.27V165.99H112.028V165.6H112.393V164.88H112.903V165.6H113.493V165.99H112.903V167.235C112.903 167.395 112.933 167.508 112.993 167.575C113.057 167.642 113.17 167.675 113.333 167.675C113.43 167.675 113.527 167.653 113.623 167.61V168.01C113.497 168.053 113.34 168.075 113.153 168.075ZM115.886 168.075C115.719 168.075 115.542 168.053 115.356 168.01C115.169 167.97 115.022 167.915 114.916 167.845V167.415C115.046 167.492 115.196 167.555 115.366 167.605C115.536 167.652 115.701 167.675 115.861 167.675C116.041 167.675 116.172 167.653 116.256 167.61C116.339 167.567 116.381 167.497 116.381 167.4C116.381 167.327 116.361 167.268 116.321 167.225C116.284 167.178 116.219 167.137 116.126 167.1C116.036 167.063 115.899 167.02 115.716 166.97C115.519 166.913 115.362 166.857 115.246 166.8C115.132 166.74 115.046 166.665 114.986 166.575C114.929 166.485 114.901 166.368 114.901 166.225C114.901 165.995 114.991 165.822 115.171 165.705C115.354 165.585 115.599 165.525 115.906 165.525C116.066 165.525 116.222 165.54 116.376 165.57C116.529 165.6 116.652 165.642 116.746 165.695V166.115C116.649 166.058 116.529 166.013 116.386 165.98C116.246 165.947 116.102 165.93 115.956 165.93C115.779 165.93 115.644 165.952 115.551 165.995C115.457 166.038 115.411 166.115 115.411 166.225C115.411 166.295 115.431 166.352 115.471 166.395C115.511 166.438 115.574 166.477 115.661 166.51C115.751 166.54 115.892 166.58 116.086 166.63C116.389 166.713 116.599 166.812 116.716 166.925C116.836 167.038 116.896 167.195 116.896 167.395C116.896 167.602 116.811 167.767 116.641 167.89C116.471 168.013 116.219 168.075 115.886 168.075ZM18.59 176.075C18.3233 176.075 18.0867 176.025 17.88 175.925C17.6733 175.825 17.5117 175.68 17.395 175.49C17.2817 175.297 17.225 175.068 17.225 174.805C17.225 174.542 17.2817 174.315 17.395 174.125C17.5117 173.932 17.6733 173.783 17.88 173.68C18.09 173.577 18.33 173.525 18.6 173.525C18.9667 173.525 19.26 173.597 19.48 173.74V174.155C19.2633 174.005 18.9867 173.93 18.65 173.93C18.3767 173.93 18.155 174.005 17.985 174.155C17.8183 174.302 17.735 174.518 17.735 174.805C17.735 175.092 17.8183 175.308 17.985 175.455C18.1517 175.602 18.37 175.675 18.64 175.675C18.9767 175.675 19.2667 175.595 19.51 175.435V175.845C19.3933 175.925 19.26 175.983 19.11 176.02C18.9633 176.057 18.79 176.075 18.59 176.075ZM22.2511 176.075C21.9811 176.075 21.7428 176.025 21.5361 175.925C21.3328 175.822 21.1728 175.675 21.0561 175.485C20.9428 175.292 20.8861 175.065 20.8861 174.805C20.8861 174.548 20.9428 174.323 21.0561 174.13C21.1695 173.937 21.3295 173.788 21.5361 173.685C21.7428 173.578 21.9811 173.525 22.2511 173.525C22.5211 173.525 22.7595 173.578 22.9661 173.685C23.1728 173.788 23.3328 173.937 23.4461 174.13C23.5628 174.323 23.6211 174.548 23.6211 174.805C23.6211 175.065 23.5628 175.292 23.4461 175.485C23.3328 175.675 23.1728 175.822 22.9661 175.925C22.7595 176.025 22.5211 176.075 22.2511 176.075ZM22.2511 175.675C22.5111 175.675 22.7178 175.595 22.8711 175.435C23.0245 175.275 23.1011 175.065 23.1011 174.805C23.1011 174.535 23.0245 174.322 22.8711 174.165C22.7178 174.008 22.5111 173.93 22.2511 173.93C21.9911 173.93 21.7845 174.008 21.6311 174.165C21.4778 174.322 21.4011 174.535 21.4011 174.805C21.4011 175.065 21.4778 175.275 21.6311 175.435C21.7845 175.595 21.9911 175.675 22.2511 175.675ZM25.1697 173.6H25.6597V173.945C25.7731 173.802 25.9114 173.697 26.0747 173.63C26.2414 173.56 26.4147 173.525 26.5947 173.525C26.9147 173.525 27.1531 173.61 27.3097 173.78C27.4664 173.95 27.5447 174.178 27.5447 174.465V176H27.0397V174.515C27.0397 174.125 26.8531 173.93 26.4797 173.93C26.3197 173.93 26.1697 173.968 26.0297 174.045C25.8931 174.118 25.7747 174.232 25.6747 174.385V176H25.1697V173.6ZM30.0528 176.075C29.8861 176.075 29.7094 176.053 29.5228 176.01C29.3361 175.97 29.1894 175.915 29.0828 175.845V175.415C29.2128 175.492 29.3628 175.555 29.5328 175.605C29.7028 175.652 29.8678 175.675 30.0278 175.675C30.2078 175.675 30.3394 175.653 30.4228 175.61C30.5061 175.567 30.5478 175.497 30.5478 175.4C30.5478 175.327 30.5278 175.268 30.4878 175.225C30.4511 175.178 30.3861 175.137 30.2928 175.1C30.2028 175.063 30.0661 175.02 29.8828 174.97C29.6861 174.913 29.5294 174.857 29.4128 174.8C29.2994 174.74 29.2128 174.665 29.1528 174.575C29.0961 174.485 29.0678 174.368 29.0678 174.225C29.0678 173.995 29.1578 173.822 29.3378 173.705C29.5211 173.585 29.7661 173.525 30.0728 173.525C30.2328 173.525 30.3894 173.54 30.5428 173.57C30.6961 173.6 30.8194 173.642 30.9128 173.695V174.115C30.8161 174.058 30.6961 174.013 30.5528 173.98C30.4128 173.947 30.2694 173.93 30.1228 173.93C29.9461 173.93 29.8111 173.952 29.7178 173.995C29.6244 174.038 29.5778 174.115 29.5778 174.225C29.5778 174.295 29.5978 174.352 29.6378 174.395C29.6778 174.438 29.7411 174.477 29.8278 174.51C29.9178 174.54 30.0594 174.58 30.2528 174.63C30.5561 174.713 30.7661 174.812 30.8828 174.925C31.0028 175.038 31.0628 175.195 31.0628 175.395C31.0628 175.602 30.9778 175.767 30.8078 175.89C30.6378 176.013 30.3861 176.075 30.0528 176.075ZM32.9091 173.13C32.8257 173.13 32.7557 173.102 32.6991 173.045C32.6424 172.988 32.6141 172.918 32.6141 172.835C32.6141 172.752 32.6424 172.682 32.6991 172.625C32.7557 172.568 32.8257 172.54 32.9091 172.54C32.9957 172.54 33.0674 172.568 33.1241 172.625C33.1841 172.682 33.2141 172.752 33.2141 172.835C33.2141 172.918 33.1841 172.988 33.1241 173.045C33.0674 173.102 32.9957 173.13 32.9091 173.13ZM32.6541 173.6H33.1691V176H32.6541V173.6ZM36.0241 176.075C35.7841 176.075 35.5674 176.023 35.3741 175.92C35.1841 175.813 35.0341 175.665 34.9241 175.475C34.8174 175.282 34.7641 175.058 34.7641 174.805C34.7641 174.555 34.8174 174.333 34.9241 174.14C35.0341 173.947 35.1841 173.797 35.3741 173.69C35.5674 173.58 35.7841 173.525 36.0241 173.525C36.4574 173.525 36.7857 173.657 37.0091 173.92V172.305H37.5141V176H37.0241V175.65C36.8907 175.797 36.7441 175.905 36.5841 175.975C36.4274 176.042 36.2407 176.075 36.0241 176.075ZM36.1391 175.675C36.3457 175.675 36.5257 175.622 36.6791 175.515C36.8357 175.405 36.9457 175.258 37.0091 175.075V174.535C36.9524 174.352 36.8441 174.205 36.6841 174.095C36.5274 173.985 36.3457 173.93 36.1391 173.93C35.9757 173.93 35.8274 173.967 35.6941 174.04C35.5641 174.113 35.4607 174.217 35.3841 174.35C35.3107 174.483 35.2741 174.635 35.2741 174.805C35.2741 174.975 35.3107 175.127 35.3841 175.26C35.4607 175.393 35.5641 175.497 35.6941 175.57C35.8274 175.64 35.9757 175.675 36.1391 175.675ZM40.4848 176.075C40.0415 176.075 39.6932 175.965 39.4398 175.745C39.1898 175.522 39.0648 175.208 39.0648 174.805C39.0648 174.412 39.1765 174.1 39.3998 173.87C39.6265 173.64 39.9482 173.525 40.3648 173.525C40.6415 173.525 40.8765 173.578 41.0698 173.685C41.2632 173.788 41.4082 173.933 41.5048 174.12C41.6048 174.303 41.6548 174.513 41.6548 174.75V175H39.5448C39.5615 175.227 39.6565 175.397 39.8298 175.51C40.0065 175.62 40.2448 175.675 40.5448 175.675C40.6982 175.675 40.8532 175.662 41.0098 175.635C41.1665 175.605 41.3048 175.567 41.4248 175.52V175.925C41.3182 175.968 41.1765 176.003 40.9998 176.03C40.8265 176.06 40.6548 176.075 40.4848 176.075ZM41.1798 174.645C41.1732 174.418 41.0982 174.243 40.9548 174.12C40.8148 173.993 40.6148 173.93 40.3548 173.93C40.1015 173.93 39.9048 173.995 39.7648 174.125C39.6248 174.255 39.5515 174.428 39.5448 174.645H41.1798ZM43.2068 173.6H43.6968V174.03C43.7968 173.883 43.9368 173.775 44.1168 173.705C44.3002 173.635 44.5118 173.6 44.7518 173.6V173.995C44.4952 173.995 44.2752 174.037 44.0918 174.12C43.9085 174.203 43.7818 174.335 43.7118 174.515V176H43.2068V173.6ZM46.8393 176.075C46.5493 176.075 46.316 176.002 46.1393 175.855C45.966 175.705 45.8793 175.503 45.8793 175.25C45.8793 174.983 45.9626 174.778 46.1293 174.635C46.2993 174.488 46.5393 174.415 46.8493 174.415C47.1793 174.415 47.4593 174.482 47.6893 174.615V174.49C47.6893 174.3 47.631 174.16 47.5143 174.07C47.401 173.977 47.221 173.93 46.9743 173.93C46.8276 173.93 46.6843 173.945 46.5443 173.975C46.4076 174.002 46.2843 174.04 46.1743 174.09V173.68C46.2743 173.633 46.4043 173.597 46.5643 173.57C46.7243 173.54 46.8793 173.525 47.0293 173.525C47.426 173.525 47.7193 173.613 47.9093 173.79C48.1026 173.963 48.1993 174.205 48.1993 174.515V176H47.7243V175.73C47.621 175.843 47.4976 175.93 47.3543 175.99C47.2143 176.047 47.0426 176.075 46.8393 176.075ZM46.9643 175.69C47.1243 175.69 47.2693 175.658 47.3993 175.595C47.5293 175.532 47.626 175.443 47.6893 175.33V175.005C47.4726 174.865 47.231 174.795 46.9643 174.795C46.771 174.795 46.626 174.833 46.5293 174.91C46.436 174.983 46.3893 175.097 46.3893 175.25C46.3893 175.543 46.581 175.69 46.9643 175.69ZM51.316 176.075C51.0993 176.075 50.911 176.042 50.751 175.975C50.5943 175.905 50.4493 175.797 50.316 175.65V176H49.826V172.305H50.331V173.92C50.441 173.79 50.5826 173.692 50.756 173.625C50.9293 173.558 51.116 173.525 51.316 173.525C51.556 173.525 51.771 173.58 51.961 173.69C52.1543 173.797 52.3043 173.947 52.411 174.14C52.521 174.333 52.576 174.555 52.576 174.805C52.576 175.058 52.521 175.282 52.411 175.475C52.3043 175.665 52.1543 175.813 51.961 175.92C51.771 176.023 51.556 176.075 51.316 176.075ZM51.201 175.675C51.3643 175.675 51.511 175.64 51.641 175.57C51.7743 175.497 51.8776 175.393 51.951 175.26C52.0276 175.127 52.066 174.975 52.066 174.805C52.066 174.635 52.0276 174.483 51.951 174.35C51.8776 174.217 51.7743 174.113 51.641 174.04C51.511 173.967 51.3643 173.93 51.201 173.93C50.9976 173.93 50.816 173.985 50.656 174.095C50.496 174.205 50.3876 174.352 50.331 174.535V175.075C50.3943 175.258 50.5026 175.405 50.656 175.515C50.8126 175.622 50.9943 175.675 51.201 175.675ZM54.1268 172.305H54.6318V176H54.1268V172.305ZM57.604 176.075C57.1607 176.075 56.8123 175.965 56.559 175.745C56.309 175.522 56.184 175.208 56.184 174.805C56.184 174.412 56.2957 174.1 56.519 173.87C56.7457 173.64 57.0673 173.525 57.484 173.525C57.7607 173.525 57.9957 173.578 58.189 173.685C58.3823 173.788 58.5273 173.933 58.624 174.12C58.724 174.303 58.774 174.513 58.774 174.75V175H56.664C56.6807 175.227 56.7757 175.397 56.949 175.51C57.1257 175.62 57.364 175.675 57.664 175.675C57.8173 175.675 57.9723 175.662 58.129 175.635C58.2857 175.605 58.424 175.567 58.544 175.52V175.925C58.4373 175.968 58.2957 176.003 58.119 176.03C57.9457 176.06 57.774 176.075 57.604 176.075ZM58.299 174.645C58.2923 174.418 58.2173 174.243 58.074 174.12C57.934 173.993 57.734 173.93 57.474 173.93C57.2207 173.93 57.024 173.995 56.884 174.125C56.744 174.255 56.6707 174.428 56.664 174.645H58.299ZM63.3416 173.99H62.9766V173.6H63.3416V173.13C63.3416 172.853 63.4199 172.643 63.5766 172.5C63.7332 172.353 63.9432 172.28 64.2066 172.28C64.3432 172.28 64.4716 172.3 64.5916 172.34V172.76C64.4982 172.717 64.4016 172.695 64.3016 172.695C64.1449 172.695 64.0299 172.733 63.9566 172.81C63.8832 172.883 63.8466 173 63.8466 173.16V173.6H64.4466V173.99H63.8466V176H63.3416V173.99ZM66.4721 176.075C66.1821 176.075 65.9488 176.002 65.7721 175.855C65.5988 175.705 65.5121 175.503 65.5121 175.25C65.5121 174.983 65.5954 174.778 65.7621 174.635C65.9321 174.488 66.1721 174.415 66.4821 174.415C66.8121 174.415 67.0921 174.482 67.3221 174.615V174.49C67.3221 174.3 67.2638 174.16 67.1471 174.07C67.0338 173.977 66.8538 173.93 66.6071 173.93C66.4604 173.93 66.3171 173.945 66.1771 173.975C66.0404 174.002 65.9171 174.04 65.8071 174.09V173.68C65.9071 173.633 66.0371 173.597 66.1971 173.57C66.3571 173.54 66.5121 173.525 66.6621 173.525C67.0588 173.525 67.3521 173.613 67.5421 173.79C67.7354 173.963 67.8321 174.205 67.8321 174.515V176H67.3571V175.73C67.2538 175.843 67.1304 175.93 66.9871 175.99C66.8471 176.047 66.6754 176.075 66.4721 176.075ZM66.5971 175.69C66.7571 175.69 66.9021 175.658 67.0321 175.595C67.1621 175.532 67.2588 175.443 67.3221 175.33V175.005C67.1054 174.865 66.8638 174.795 66.5971 174.795C66.4038 174.795 66.2588 174.833 66.1621 174.91C66.0688 174.983 66.0221 175.097 66.0221 175.25C66.0221 175.543 66.2138 175.69 66.5971 175.69ZM70.6261 176.075C70.3595 176.075 70.1228 176.025 69.9161 175.925C69.7095 175.825 69.5478 175.68 69.4311 175.49C69.3178 175.297 69.2611 175.068 69.2611 174.805C69.2611 174.542 69.3178 174.315 69.4311 174.125C69.5478 173.932 69.7095 173.783 69.9161 173.68C70.1261 173.577 70.3661 173.525 70.6361 173.525C71.0028 173.525 71.2961 173.597 71.5161 173.74V174.155C71.2995 174.005 71.0228 173.93 70.6861 173.93C70.4128 173.93 70.1911 174.005 70.0211 174.155C69.8545 174.302 69.7711 174.518 69.7711 174.805C69.7711 175.092 69.8545 175.308 70.0211 175.455C70.1878 175.602 70.4061 175.675 70.6761 175.675C71.0128 175.675 71.3028 175.595 71.5461 175.435V175.845C71.4295 175.925 71.2961 175.983 71.1461 176.02C70.9995 176.057 70.8261 176.075 70.6261 176.075ZM73.3905 173.13C73.3072 173.13 73.2372 173.102 73.1805 173.045C73.1238 172.988 73.0955 172.918 73.0955 172.835C73.0955 172.752 73.1238 172.682 73.1805 172.625C73.2372 172.568 73.3072 172.54 73.3905 172.54C73.4772 172.54 73.5488 172.568 73.6055 172.625C73.6655 172.682 73.6955 172.752 73.6955 172.835C73.6955 172.918 73.6655 172.988 73.6055 173.045C73.5488 173.102 73.4772 173.13 73.3905 173.13ZM73.1355 173.6H73.6505V176H73.1355V173.6ZM76.2055 176.075C75.9155 176.075 75.6822 176.002 75.5055 175.855C75.3322 175.705 75.2455 175.503 75.2455 175.25C75.2455 174.983 75.3288 174.778 75.4955 174.635C75.6655 174.488 75.9055 174.415 76.2155 174.415C76.5455 174.415 76.8255 174.482 77.0555 174.615V174.49C77.0555 174.3 76.9972 174.16 76.8805 174.07C76.7672 173.977 76.5872 173.93 76.3405 173.93C76.1938 173.93 76.0505 173.945 75.9105 173.975C75.7738 174.002 75.6505 174.04 75.5405 174.09V173.68C75.6405 173.633 75.7705 173.597 75.9305 173.57C76.0905 173.54 76.2455 173.525 76.3955 173.525C76.7922 173.525 77.0855 173.613 77.2755 173.79C77.4688 173.963 77.5655 174.205 77.5655 174.515V176H77.0905V175.73C76.9872 175.843 76.8638 175.93 76.7205 175.99C76.5805 176.047 76.4088 176.075 76.2055 176.075ZM76.3305 175.69C76.4905 175.69 76.6355 175.658 76.7655 175.595C76.8955 175.532 76.9922 175.443 77.0555 175.33V175.005C76.8388 174.865 76.5972 174.795 76.3305 174.795C76.1372 174.795 75.9922 174.833 75.8955 174.91C75.8022 174.983 75.7555 175.097 75.7555 175.25C75.7555 175.543 75.9472 175.69 76.3305 175.69ZM79.1922 172.305H79.6972V176H79.1922V172.305ZM84.2 172.305H84.705V173.93C84.935 173.66 85.2417 173.525 85.625 173.525C85.945 173.525 86.1833 173.61 86.34 173.78C86.4967 173.95 86.575 174.178 86.575 174.465V176H86.07V174.515C86.07 174.125 85.8833 173.93 85.51 173.93C85.35 173.93 85.2 173.968 85.06 174.045C84.9233 174.118 84.805 174.232 84.705 174.385V176H84.2V172.305ZM88.9848 176.075C88.6948 176.075 88.4615 176.002 88.2848 175.855C88.1115 175.705 88.0248 175.503 88.0248 175.25C88.0248 174.983 88.1081 174.778 88.2748 174.635C88.4448 174.488 88.6848 174.415 88.9948 174.415C89.3248 174.415 89.6048 174.482 89.8348 174.615V174.49C89.8348 174.3 89.7765 174.16 89.6598 174.07C89.5465 173.977 89.3665 173.93 89.1198 173.93C88.9731 173.93 88.8298 173.945 88.6898 173.975C88.5531 174.002 88.4298 174.04 88.3198 174.09V173.68C88.4198 173.633 88.5498 173.597 88.7098 173.57C88.8698 173.54 89.0248 173.525 89.1748 173.525C89.5715 173.525 89.8648 173.613 90.0548 173.79C90.2481 173.963 90.3448 174.205 90.3448 174.515V176H89.8698V175.73C89.7665 175.843 89.6431 175.93 89.4998 175.99C89.3598 176.047 89.1881 176.075 88.9848 176.075ZM89.1098 175.69C89.2698 175.69 89.4148 175.658 89.5448 175.595C89.6748 175.532 89.7715 175.443 89.8348 175.33V175.005C89.6181 174.865 89.3765 174.795 89.1098 174.795C88.9165 174.795 88.7715 174.833 88.6748 174.91C88.5815 174.983 88.5348 175.097 88.5348 175.25C88.5348 175.543 88.7265 175.69 89.1098 175.69ZM92.2665 173.13C92.1832 173.13 92.1132 173.102 92.0565 173.045C91.9998 172.988 91.9715 172.918 91.9715 172.835C91.9715 172.752 91.9998 172.682 92.0565 172.625C92.1132 172.568 92.1832 172.54 92.2665 172.54C92.3532 172.54 92.4248 172.568 92.4815 172.625C92.5415 172.682 92.5715 172.752 92.5715 172.835C92.5715 172.918 92.5415 172.988 92.4815 173.045C92.4248 173.102 92.3532 173.13 92.2665 173.13ZM92.0115 173.6H92.5265V176H92.0115V173.6ZM94.2215 173.6H94.7115V174.03C94.8115 173.883 94.9515 173.775 95.1315 173.705C95.3148 173.635 95.5265 173.6 95.7665 173.6V173.995C95.5098 173.995 95.2898 174.037 95.1065 174.12C94.9232 174.203 94.7965 174.335 94.7265 174.515V176H94.2215V173.6ZM97.3536 176C97.2869 176 97.2302 175.978 97.1836 175.935C97.1402 175.888 97.1186 175.832 97.1186 175.765C97.1186 175.698 97.1402 175.642 97.1836 175.595C97.2302 175.548 97.2869 175.525 97.3536 175.525C97.4202 175.525 97.4769 175.548 97.5236 175.595C97.5702 175.642 97.5936 175.698 97.5936 175.765C97.5936 175.832 97.5702 175.888 97.5236 175.935C97.4769 175.978 97.4202 176 97.3536 176Z" fill="black"/>
<rect x="12.25" y="143.25" width="125.5" height="46.5" stroke="#6C6C6C" stroke-width="0.5"/>
<path d="M12.975 27.8H14.415V28.835C14.755 28.415 15.14 28.1 15.57 27.89C16 27.68 16.445 27.575 16.905 27.575C17.485 27.575 17.945 27.675 18.285 27.875C18.625 28.065 18.875 28.36 19.035 28.76C19.355 28.37 19.745 28.075 20.205 27.875C20.675 27.675 21.145 27.575 21.615 27.575C22.495 27.575 23.13 27.8 23.52 28.25C23.91 28.69 24.105 29.345 24.105 30.215V35H22.635V30.41C22.635 29.82 22.525 29.405 22.305 29.165C22.085 28.915 21.71 28.79 21.18 28.79C20.42 28.79 19.8 29.12 19.32 29.78C19.34 29.93 19.35 30.175 19.35 30.515V35H17.88V30.41C17.88 29.82 17.78 29.405 17.58 29.165C17.38 28.915 17.02 28.79 16.5 28.79C15.74 28.79 15.06 29.22 14.46 30.08V35H12.975V27.8ZM29.5978 35.225C28.6278 35.225 27.8928 34.965 27.3928 34.445C26.9028 33.925 26.6578 33.23 26.6578 32.36V27.8H28.1728V32.3C28.1728 33.45 28.7478 34.025 29.8978 34.025C30.9078 34.025 31.6978 33.57 32.2678 32.66V27.8H33.7828V35H32.3128V33.98C31.9728 34.41 31.5678 34.725 31.0978 34.925C30.6378 35.125 30.1378 35.225 29.5978 35.225ZM39.132 35.225C38.632 35.225 38.102 35.16 37.542 35.03C36.982 34.91 36.542 34.745 36.222 34.535V33.245C36.612 33.475 37.062 33.665 37.572 33.815C38.082 33.955 38.577 34.025 39.057 34.025C39.597 34.025 39.992 33.96 40.242 33.83C40.492 33.7 40.617 33.49 40.617 33.2C40.617 32.98 40.557 32.805 40.437 32.675C40.327 32.535 40.132 32.41 39.852 32.3C39.582 32.19 39.172 32.06 38.622 31.91C38.032 31.74 37.562 31.57 37.212 31.4C36.872 31.22 36.612 30.995 36.432 30.725C36.262 30.455 36.177 30.105 36.177 29.675C36.177 28.985 36.447 28.465 36.987 28.115C37.537 27.755 38.272 27.575 39.192 27.575C39.672 27.575 40.142 27.62 40.602 27.71C41.062 27.8 41.432 27.925 41.712 28.085V29.345C41.422 29.175 41.062 29.04 40.632 28.94C40.212 28.84 39.782 28.79 39.342 28.79C38.812 28.79 38.407 28.855 38.127 28.985C37.847 29.115 37.707 29.345 37.707 29.675C37.707 29.885 37.767 30.055 37.887 30.185C38.007 30.315 38.197 30.43 38.457 30.53C38.727 30.62 39.152 30.74 39.732 30.89C40.642 31.14 41.272 31.435 41.622 31.775C41.982 32.115 42.162 32.585 42.162 33.185C42.162 33.805 41.907 34.3 41.397 34.67C40.887 35.04 40.132 35.225 39.132 35.225ZM47.1211 35.225C46.3911 35.225 45.8261 35.015 45.4261 34.595C45.0361 34.175 44.8411 33.58 44.8411 32.81V28.97H43.7461V27.8H44.8411V25.64H46.3711V27.8H48.1411V28.97H46.3711V32.705C46.3711 33.185 46.4611 33.525 46.6411 33.725C46.8311 33.925 47.1711 34.025 47.6611 34.025C47.9511 34.025 48.2411 33.96 48.5311 33.83V35.03C48.1511 35.16 47.6811 35.225 47.1211 35.225ZM53.0667 35.225C52.1967 35.225 51.4967 35.005 50.9667 34.565C50.4467 34.115 50.1867 33.51 50.1867 32.75C50.1867 31.95 50.4367 31.335 50.9367 30.905C51.4467 30.465 52.1667 30.245 53.0967 30.245C54.0867 30.245 54.9267 30.445 55.6167 30.845V30.47C55.6167 29.9 55.4417 29.48 55.0917 29.21C54.7517 28.93 54.2117 28.79 53.4717 28.79C53.0317 28.79 52.6017 28.835 52.1817 28.925C51.7717 29.005 51.4017 29.12 51.0717 29.27V28.04C51.3717 27.9 51.7617 27.79 52.2417 27.71C52.7217 27.62 53.1867 27.575 53.6367 27.575C54.8267 27.575 55.7067 27.84 56.2767 28.37C56.8567 28.89 57.1467 29.615 57.1467 30.545V35H55.7217V34.19C55.4117 34.53 55.0417 34.79 54.6117 34.97C54.1917 35.14 53.6767 35.225 53.0667 35.225ZM53.4417 34.07C53.9217 34.07 54.3567 33.975 54.7467 33.785C55.1367 33.595 55.4267 33.33 55.6167 32.99V32.015C54.9667 31.595 54.2417 31.385 53.4417 31.385C52.8617 31.385 52.4267 31.5 52.1367 31.73C51.8567 31.95 51.7167 32.29 51.7167 32.75C51.7167 33.63 52.2917 34.07 53.4417 34.07ZM63.2788 35.225C62.4788 35.225 61.7688 35.075 61.1488 34.775C60.5288 34.475 60.0438 34.04 59.6938 33.47C59.3538 32.89 59.1838 32.205 59.1838 31.415C59.1838 30.625 59.3538 29.945 59.6938 29.375C60.0438 28.795 60.5288 28.35 61.1488 28.04C61.7788 27.73 62.4988 27.575 63.3088 27.575C64.4088 27.575 65.2888 27.79 65.9488 28.22V29.465C65.2988 29.015 64.4688 28.79 63.4588 28.79C62.6388 28.79 61.9738 29.015 61.4638 29.465C60.9638 29.905 60.7138 30.555 60.7138 31.415C60.7138 32.275 60.9638 32.925 61.4638 33.365C61.9638 33.805 62.6188 34.025 63.4288 34.025C64.4388 34.025 65.3088 33.785 66.0388 33.305V34.535C65.6888 34.775 65.2888 34.95 64.8388 35.06C64.3988 35.17 63.8788 35.225 63.2788 35.225ZM68.4369 23.915H69.9519V28.79C70.6419 27.98 71.5619 27.575 72.7119 27.575C73.6719 27.575 74.3869 27.83 74.8569 28.34C75.3269 28.85 75.5619 29.535 75.5619 30.395V35H74.0469V30.545C74.0469 29.375 73.4869 28.79 72.3669 28.79C71.8869 28.79 71.4369 28.905 71.0169 29.135C70.6069 29.355 70.2519 29.695 69.9519 30.155V35H68.4369V23.915ZM82.1411 35.225C80.8111 35.225 79.7661 34.895 79.0061 34.235C78.2561 33.565 77.8811 32.625 77.8811 31.415C77.8811 30.235 78.2161 29.3 78.8861 28.61C79.5661 27.92 80.5311 27.575 81.7811 27.575C82.6111 27.575 83.3161 27.735 83.8961 28.055C84.4761 28.365 84.9111 28.8 85.2011 29.36C85.5011 29.91 85.6511 30.54 85.6511 31.25V32H79.3211C79.3711 32.68 79.6561 33.19 80.1761 33.53C80.7061 33.86 81.4211 34.025 82.3211 34.025C82.7811 34.025 83.2461 33.985 83.7161 33.905C84.1861 33.815 84.6011 33.7 84.9611 33.56V34.775C84.6411 34.905 84.2161 35.01 83.6861 35.09C83.1661 35.18 82.6511 35.225 82.1411 35.225ZM84.2261 30.935C84.2061 30.255 83.9811 29.73 83.5511 29.36C83.1311 28.98 82.5311 28.79 81.7511 28.79C80.9911 28.79 80.4011 28.985 79.9811 29.375C79.5611 29.765 79.3411 30.285 79.3211 30.935H84.2261ZM94.0588 27.8H95.6038L97.2238 33.14L98.8288 27.8H100.194L101.799 33.14L103.419 27.8H104.979L102.639 35H101.184L99.5188 29.63L97.8538 35H96.3838L94.0588 27.8ZM109.144 35.225C108.274 35.225 107.574 35.005 107.044 34.565C106.524 34.115 106.264 33.51 106.264 32.75C106.264 31.95 106.514 31.335 107.014 30.905C107.524 30.465 108.244 30.245 109.174 30.245C110.164 30.245 111.004 30.445 111.694 30.845V30.47C111.694 29.9 111.519 29.48 111.169 29.21C110.829 28.93 110.289 28.79 109.549 28.79C109.109 28.79 108.679 28.835 108.259 28.925C107.849 29.005 107.479 29.12 107.149 29.27V28.04C107.449 27.9 107.839 27.79 108.319 27.71C108.799 27.62 109.264 27.575 109.714 27.575C110.904 27.575 111.784 27.84 112.354 28.37C112.934 28.89 113.224 29.615 113.224 30.545V35H111.799V34.19C111.489 34.53 111.119 34.79 110.689 34.97C110.269 35.14 109.754 35.225 109.144 35.225ZM109.519 34.07C109.999 34.07 110.434 33.975 110.824 33.785C111.214 33.595 111.504 33.33 111.694 32.99V32.015C111.044 31.595 110.319 31.385 109.519 31.385C108.939 31.385 108.504 31.5 108.214 31.73C107.934 31.95 107.794 32.29 107.794 32.75C107.794 33.63 108.369 34.07 109.519 34.07ZM118.248 35.225C117.518 35.225 116.953 35.015 116.553 34.595C116.163 34.175 115.968 33.58 115.968 32.81V28.97H114.873V27.8H115.968V25.64H117.498V27.8H119.268V28.97H117.498V32.705C117.498 33.185 117.588 33.525 117.768 33.725C117.958 33.925 118.298 34.025 118.788 34.025C119.078 34.025 119.368 33.96 119.658 33.83V35.03C119.278 35.16 118.808 35.225 118.248 35.225ZM125.793 35.225C124.463 35.225 123.418 34.895 122.658 34.235C121.908 33.565 121.533 32.625 121.533 31.415C121.533 30.235 121.868 29.3 122.538 28.61C123.218 27.92 124.183 27.575 125.433 27.575C126.263 27.575 126.968 27.735 127.548 28.055C128.128 28.365 128.563 28.8 128.853 29.36C129.153 29.91 129.303 30.54 129.303 31.25V32H122.973C123.023 32.68 123.308 33.19 123.828 33.53C124.358 33.86 125.073 34.025 125.973 34.025C126.433 34.025 126.898 33.985 127.368 33.905C127.838 33.815 128.253 33.7 128.613 33.56V34.775C128.293 34.905 127.868 35.01 127.338 35.09C126.818 35.18 126.303 35.225 125.793 35.225ZM127.878 30.935C127.858 30.255 127.633 29.73 127.203 29.36C126.783 28.98 126.183 28.79 125.403 28.79C124.643 28.79 124.053 28.985 123.633 29.375C123.213 29.765 122.993 30.285 122.973 30.935H127.878ZM131.709 27.8H133.179V29.09C133.479 28.65 133.899 28.325 134.439 28.115C134.989 27.905 135.624 27.8 136.344 27.8V28.985C135.574 28.985 134.914 29.11 134.364 29.36C133.814 29.61 133.434 30.005 133.224 30.545V35H131.709V27.8Z" fill="black"/>
<path d="M12.8691 19.0381L17.1807 17.1875V16.4746L12.8691 14.6289V15.5615L16.0283 16.7334L16.3213 16.8262L16.0283 16.9092L12.8691 18.1006V19.0381ZM20.875 19.0381L25.1865 17.1875V16.4746L20.875 14.6289V15.5615L24.0342 16.7334L24.3271 16.8262L24.0342 16.9092L20.875 18.1006V19.0381ZM37.375 20H38.0879L38.9033 16.7627L39.0352 15.9424L39.1719 16.7627L39.9971 20H40.71L41.833 14.7168H41.0322L40.4463 18.0859L40.3145 18.916L40.1729 18.0859L39.333 14.7168H38.752L37.9072 18.0859L37.7754 18.8428L37.668 18.0859L37.0527 14.7168H36.252L37.375 20ZM48.3447 20H49.2871V19.9219C49.2285 19.7754 49.1829 19.6045 49.1504 19.4092C49.1178 19.2106 49.1016 19.0234 49.1016 18.8477V16.3916C49.1016 16.0954 49.0479 15.8366 48.9404 15.6152C48.833 15.3939 48.6865 15.2083 48.501 15.0586C48.3122 14.9121 48.0892 14.8031 47.832 14.7314C47.5749 14.6566 47.2965 14.6191 46.9971 14.6191C46.6683 14.6191 46.3737 14.6647 46.1133 14.7559C45.8561 14.847 45.638 14.9658 45.459 15.1123C45.2767 15.262 45.1367 15.4297 45.0391 15.6152C44.9447 15.8008 44.8958 15.9896 44.8926 16.1816H45.8008C45.8008 16.071 45.8268 15.9652 45.8789 15.8643C45.9342 15.7601 46.0107 15.6706 46.1084 15.5957C46.2061 15.5208 46.3249 15.4606 46.4648 15.415C46.6081 15.3695 46.7692 15.3467 46.9482 15.3467C47.1403 15.3467 47.3128 15.3711 47.4658 15.4199C47.6221 15.4688 47.7539 15.5371 47.8613 15.625C47.9688 15.7161 48.0518 15.8252 48.1104 15.9521C48.1689 16.0791 48.1982 16.2223 48.1982 16.3818V16.7969H47.2119C46.8441 16.7969 46.5104 16.8327 46.2109 16.9043C45.9147 16.9759 45.6608 17.0833 45.4492 17.2266C45.2376 17.373 45.0732 17.5553 44.9561 17.7734C44.8421 17.9915 44.7852 18.2454 44.7852 18.5352C44.7852 18.7565 44.8275 18.9632 44.9121 19.1553C45 19.3441 45.1237 19.5068 45.2832 19.6436C45.4395 19.7835 45.6299 19.8942 45.8545 19.9756C46.0824 20.057 46.3363 20.0977 46.6162 20.0977C46.7887 20.0977 46.9515 20.0798 47.1045 20.0439C47.2575 20.0081 47.4023 19.9593 47.5391 19.8975C47.6725 19.8356 47.7946 19.764 47.9053 19.6826C48.0192 19.6012 48.1217 19.515 48.2129 19.4238C48.2227 19.5345 48.2373 19.6419 48.2568 19.7461C48.2796 19.847 48.3089 19.9316 48.3447 20ZM46.748 19.3115C46.5723 19.3115 46.4176 19.2887 46.2842 19.2432C46.1507 19.1976 46.04 19.1341 45.9521 19.0527C45.8643 18.9746 45.7975 18.8802 45.752 18.7695C45.7096 18.6589 45.6885 18.5384 45.6885 18.4082C45.6885 18.2715 45.7129 18.1494 45.7617 18.042C45.8138 17.9346 45.8887 17.8418 45.9863 17.7637C46.123 17.653 46.307 17.5716 46.5381 17.5195C46.7725 17.4642 47.0459 17.4365 47.3584 17.4365H48.1982V18.5059C48.1462 18.61 48.0745 18.7109 47.9834 18.8086C47.8923 18.903 47.7848 18.9876 47.6611 19.0625C47.5342 19.1374 47.3942 19.1976 47.2412 19.2432C47.0882 19.2887 46.9238 19.3115 46.748 19.3115ZM55.0176 13.4375H54.1094V14.7168H52.7227V15.415H54.1094V18.2861C54.1094 18.6117 54.1517 18.89 54.2363 19.1211C54.3242 19.349 54.443 19.5345 54.5928 19.6777C54.7425 19.8242 54.9183 19.9316 55.1201 20C55.3252 20.0651 55.5449 20.0977 55.7793 20.0977C55.9193 20.0977 56.0592 20.0911 56.1992 20.0781C56.3424 20.0651 56.4775 20.0456 56.6045 20.0195C56.7314 19.9967 56.8486 19.9691 56.9561 19.9365C57.0635 19.9007 57.1546 19.86 57.2295 19.8145L57.1025 19.1748C57.0472 19.1878 56.9756 19.2041 56.8877 19.2236C56.8031 19.2399 56.7119 19.2562 56.6143 19.2725C56.5133 19.2887 56.4108 19.3034 56.3066 19.3164C56.2025 19.3262 56.1016 19.3311 56.0039 19.3311C55.8704 19.3311 55.7435 19.3148 55.623 19.2822C55.5059 19.2497 55.4017 19.1927 55.3105 19.1113C55.2194 19.0332 55.1478 18.9274 55.0957 18.7939C55.0436 18.6605 55.0176 18.4912 55.0176 18.2861V15.415H57.0293V14.7168H55.0176V13.4375ZM63.2188 20.0977C63.7331 20.0977 64.1644 19.9951 64.5127 19.79C64.8643 19.5817 65.1279 19.3441 65.3037 19.0771L64.752 18.6475C64.5859 18.8623 64.3776 19.0348 64.127 19.165C63.8763 19.2952 63.5898 19.3604 63.2676 19.3604C63.0234 19.3604 62.8005 19.3148 62.5986 19.2236C62.3968 19.1325 62.2243 19.0072 62.0811 18.8477C61.9411 18.6979 61.8304 18.5254 61.749 18.3301C61.6709 18.1348 61.6204 17.9085 61.5977 17.6514V17.6172H65.3721V17.2119C65.3721 16.8441 65.3249 16.5023 65.2305 16.1865C65.1393 15.8708 64.9993 15.5957 64.8105 15.3613C64.6217 15.1302 64.3841 14.9495 64.0977 14.8193C63.8145 14.6859 63.4824 14.6191 63.1016 14.6191C62.7988 14.6191 62.5026 14.681 62.2129 14.8047C61.9264 14.9284 61.6709 15.1058 61.4463 15.3369C61.2184 15.5713 61.0361 15.8577 60.8994 16.1963C60.7627 16.5316 60.6943 16.9124 60.6943 17.3389V17.5439C60.6943 17.9118 60.7562 18.252 60.8799 18.5645C61.0036 18.877 61.1761 19.1471 61.3975 19.375C61.6188 19.6029 61.8841 19.7803 62.1934 19.9072C62.5059 20.0342 62.8477 20.0977 63.2188 20.0977ZM63.1016 15.3613C63.3327 15.3613 63.5312 15.4036 63.6973 15.4883C63.8665 15.5729 64.0065 15.6836 64.1172 15.8203C64.2279 15.957 64.3141 16.1198 64.376 16.3086C64.4378 16.4941 64.4688 16.6683 64.4688 16.8311V16.875H61.627C61.6628 16.6309 61.7246 16.416 61.8125 16.2305C61.9036 16.0417 62.0143 15.8822 62.1445 15.752C62.2747 15.625 62.4212 15.529 62.584 15.4639C62.7467 15.3955 62.9193 15.3613 63.1016 15.3613ZM72.3525 14.6191C71.9684 14.6191 71.625 14.7038 71.3223 14.873C71.0228 15.0391 70.7656 15.2669 70.5508 15.5566L70.5459 15.4248L70.5068 14.7168H69.6475V20H70.5557V16.6113C70.6143 16.4486 70.6875 16.3021 70.7754 16.1719C70.8665 16.0384 70.9723 15.9261 71.0928 15.835C71.2262 15.7308 71.3825 15.6527 71.5615 15.6006C71.7406 15.5452 71.9408 15.5176 72.1621 15.5176C72.3346 15.5176 72.499 15.5273 72.6553 15.5469C72.8148 15.5632 72.9824 15.5908 73.1582 15.6299L73.2803 14.7461C73.1891 14.707 73.0524 14.6761 72.8701 14.6533C72.6911 14.6305 72.5186 14.6191 72.3525 14.6191Z" fill="#707070"/>
<path d="M94.7073 87.4762L85.9268 75.9524L77.1463 55L65.0732 71.7619L53 86.4286V106.333L66.1707 121L83.7317 118.905L98 105.286L94.7073 87.4762Z" fill="#0068C8"/>
<path d="M68 97L69.5 85H71V97H68Z" fill="#D9D9D9"/>
<path d="M80 97L78.5 85H77V97H80Z" fill="#D9D9D9"/>
<path d="M75.75 100.455L74.25 103.364L72.75 100.455L70.5 99.7273H67.5L65.25 100.455L63.75 101.909L62.25 101.182L60.75 99L60 99.7273L60.75 104.091L64.5 107H69L72.75 106.273L74.25 104.091L75.75 106.273H81L86.25 105.545L90 101.909L89.25 101.182L87.75 102.636H86.25L82.5 100.455L78.75 99.7273L75.75 100.455Z" fill="#5F3900"/>
</svg>
