<svg width="150" height="200" viewBox="0 0 150 200" fill="none" xmlns="http://www.w3.org/2000/svg">
<rect width="150" height="200" fill="white"/>
<path d="M18.21 148.935H17.125V148.505H19.81V148.935H18.725V152H18.21V148.935ZM21.2596 148.305H21.7646V149.93C21.9946 149.66 22.3012 149.525 22.6846 149.525C23.0046 149.525 23.2429 149.61 23.3996 149.78C23.5562 149.95 23.6346 150.178 23.6346 150.465V152H23.1296V150.515C23.1296 150.125 22.9429 149.93 22.5696 149.93C22.4096 149.93 22.2596 149.968 22.1196 150.045C21.9829 150.118 21.8646 150.232 21.7646 150.385V152H21.2596V148.305ZM25.5526 149.13C25.4693 149.13 25.3993 149.102 25.3426 149.045C25.286 148.988 25.2576 148.918 25.2576 148.835C25.2576 148.752 25.286 148.682 25.3426 148.625C25.3993 148.568 25.4693 148.54 25.5526 148.54C25.6393 148.54 25.711 148.568 25.7676 148.625C25.8276 148.682 25.8576 148.752 25.8576 148.835C25.8576 148.918 25.8276 148.988 25.7676 149.045C25.711 149.102 25.6393 149.13 25.5526 149.13ZM25.2976 149.6H25.8126V152H25.2976V149.6ZM28.3926 152.075C28.226 152.075 28.0493 152.053 27.8626 152.01C27.676 151.97 27.5293 151.915 27.4226 151.845V151.415C27.5526 151.492 27.7026 151.555 27.8726 151.605C28.0426 151.652 28.2076 151.675 28.3676 151.675C28.5476 151.675 28.6793 151.653 28.7626 151.61C28.846 151.567 28.8876 151.497 28.8876 151.4C28.8876 151.327 28.8676 151.268 28.8276 151.225C28.791 151.178 28.726 151.137 28.6326 151.1C28.5426 151.063 28.406 151.02 28.2226 150.97C28.026 150.913 27.8693 150.857 27.7526 150.8C27.6393 150.74 27.5526 150.665 27.4926 150.575C27.436 150.485 27.4076 150.368 27.4076 150.225C27.4076 149.995 27.4976 149.822 27.6776 149.705C27.861 149.585 28.106 149.525 28.4126 149.525C28.5726 149.525 28.7293 149.54 28.8826 149.57C29.036 149.6 29.1593 149.642 29.2526 149.695V150.115C29.156 150.058 29.036 150.013 28.8926 149.98C28.7526 149.947 28.6093 149.93 28.4626 149.93C28.286 149.93 28.151 149.952 28.0576 149.995C27.9643 150.038 27.9176 150.115 27.9176 150.225C27.9176 150.295 27.9376 150.352 27.9776 150.395C28.0176 150.438 28.081 150.477 28.1676 150.51C28.2576 150.54 28.3993 150.58 28.5926 150.63C28.896 150.713 29.106 150.812 29.2226 150.925C29.3426 151.038 29.4026 151.195 29.4026 151.395C29.4026 151.602 29.3176 151.767 29.1476 151.89C28.9776 152.013 28.726 152.075 28.3926 152.075ZM33.7045 149.6H34.2195L34.7595 151.38L35.2945 149.6H35.7495L36.2845 151.38L36.8245 149.6H37.3445L36.5645 152H36.0795L35.5245 150.21L34.9695 152H34.4795L33.7045 149.6ZM39.4829 152.075C39.1929 152.075 38.9595 152.002 38.7829 151.855C38.6095 151.705 38.5229 151.503 38.5229 151.25C38.5229 150.983 38.6062 150.778 38.7729 150.635C38.9429 150.488 39.1829 150.415 39.4929 150.415C39.8229 150.415 40.1029 150.482 40.3329 150.615V150.49C40.3329 150.3 40.2745 150.16 40.1579 150.07C40.0445 149.977 39.8645 149.93 39.6179 149.93C39.4712 149.93 39.3279 149.945 39.1879 149.975C39.0512 150.002 38.9279 150.04 38.8179 150.09V149.68C38.9179 149.633 39.0479 149.597 39.2079 149.57C39.3679 149.54 39.5229 149.525 39.6729 149.525C40.0695 149.525 40.3629 149.613 40.5529 149.79C40.7462 149.963 40.8429 150.205 40.8429 150.515V152H40.3679V151.73C40.2645 151.843 40.1412 151.93 39.9979 151.99C39.8579 152.047 39.6862 152.075 39.4829 152.075ZM39.6079 151.69C39.7679 151.69 39.9129 151.658 40.0429 151.595C40.1729 151.532 40.2695 151.443 40.3329 151.33V151.005C40.1162 150.865 39.8745 150.795 39.6079 150.795C39.4145 150.795 39.2695 150.833 39.1729 150.91C39.0795 150.983 39.0329 151.097 39.0329 151.25C39.0329 151.543 39.2245 151.69 39.6079 151.69ZM43.2676 152.075C43.0242 152.075 42.8359 152.005 42.7026 151.865C42.5726 151.725 42.5076 151.527 42.5076 151.27V149.99H42.1426V149.6H42.5076V148.88H43.0176V149.6H43.6076V149.99H43.0176V151.235C43.0176 151.395 43.0476 151.508 43.1076 151.575C43.1709 151.642 43.2842 151.675 43.4476 151.675C43.5442 151.675 43.6409 151.653 43.7376 151.61V152.01C43.6109 152.053 43.4542 152.075 43.2676 152.075ZM46.5327 152.075C46.0894 152.075 45.741 151.965 45.4877 151.745C45.2377 151.522 45.1127 151.208 45.1127 150.805C45.1127 150.412 45.2244 150.1 45.4477 149.87C45.6744 149.64 45.996 149.525 46.4127 149.525C46.6894 149.525 46.9244 149.578 47.1177 149.685C47.311 149.788 47.456 149.933 47.5527 150.12C47.6527 150.303 47.7027 150.513 47.7027 150.75V151H45.5927C45.6094 151.227 45.7044 151.397 45.8777 151.51C46.0544 151.62 46.2927 151.675 46.5927 151.675C46.746 151.675 46.901 151.662 47.0577 151.635C47.2144 151.605 47.3527 151.567 47.4727 151.52V151.925C47.366 151.968 47.2244 152.003 47.0477 152.03C46.8744 152.06 46.7027 152.075 46.5327 152.075ZM47.2277 150.645C47.221 150.418 47.146 150.243 47.0027 150.12C46.8627 149.993 46.6627 149.93 46.4027 149.93C46.1494 149.93 45.9527 149.995 45.8127 150.125C45.6727 150.255 45.5994 150.428 45.5927 150.645H47.2277ZM49.2547 149.6H49.7447V150.03C49.8447 149.883 49.9847 149.775 50.1647 149.705C50.348 149.635 50.5597 149.6 50.7997 149.6V149.995C50.543 149.995 50.323 150.037 50.1397 150.12C49.9564 150.203 49.8297 150.335 49.7597 150.515V152H49.2547V149.6ZM55.0023 149.6H55.5173L56.0573 151.38L56.5923 149.6H57.0473L57.5823 151.38L58.1223 149.6H58.6423L57.8623 152H57.3773L56.8223 150.21L56.2673 152H55.7773L55.0023 149.6ZM60.4891 149.13C60.4058 149.13 60.3358 149.102 60.2791 149.045C60.2225 148.988 60.1941 148.918 60.1941 148.835C60.1941 148.752 60.2225 148.682 60.2791 148.625C60.3358 148.568 60.4058 148.54 60.4891 148.54C60.5758 148.54 60.6475 148.568 60.7041 148.625C60.7641 148.682 60.7941 148.752 60.7941 148.835C60.7941 148.918 60.7641 148.988 60.7041 149.045C60.6475 149.102 60.5758 149.13 60.4891 149.13ZM60.2341 149.6H60.7491V152H60.2341V149.6ZM62.4441 148.305H62.9491V152H62.4441V148.305ZM64.6014 148.305H65.1064V152H64.6014V148.305ZM70.8642 153.15C70.7008 153.15 70.5408 153.137 70.3842 153.11C70.2308 153.083 70.1008 153.045 69.9942 152.995V152.58C70.2442 152.693 70.5342 152.75 70.8642 152.75C71.1742 152.75 71.3992 152.682 71.5392 152.545C71.6825 152.412 71.7542 152.208 71.7542 151.935V151.68C71.5342 151.943 71.2108 152.075 70.7842 152.075C70.5408 152.075 70.3225 152.022 70.1292 151.915C69.9358 151.808 69.7842 151.658 69.6742 151.465C69.5642 151.272 69.5092 151.05 69.5092 150.8C69.5092 150.547 69.5625 150.325 69.6692 150.135C69.7792 149.942 69.9292 149.792 70.1192 149.685C70.3125 149.578 70.5292 149.525 70.7692 149.525C70.9925 149.525 71.1808 149.558 71.3342 149.625C71.4908 149.688 71.6358 149.795 71.7692 149.945V149.6H72.2592V151.88C72.2592 152.29 72.1442 152.603 71.9142 152.82C71.6875 153.04 71.3375 153.15 70.8642 153.15ZM70.8842 151.675C71.0908 151.675 71.2725 151.62 71.4292 151.51C71.5892 151.4 71.6975 151.253 71.7542 151.07V150.53C71.6908 150.343 71.5808 150.197 71.4242 150.09C71.2708 149.983 71.0908 149.93 70.8842 149.93C70.7208 149.93 70.5725 149.967 70.4392 150.04C70.3092 150.11 70.2058 150.212 70.1292 150.345C70.0558 150.478 70.0192 150.63 70.0192 150.8C70.0192 150.973 70.0558 151.127 70.1292 151.26C70.2058 151.39 70.3092 151.492 70.4392 151.565C70.5725 151.638 70.7208 151.675 70.8842 151.675ZM74.865 152.075C74.5416 152.075 74.2966 151.988 74.13 151.815C73.9666 151.642 73.885 151.41 73.885 151.12V149.6H74.39V151.1C74.39 151.483 74.5816 151.675 74.965 151.675C75.3016 151.675 75.565 151.523 75.755 151.22V149.6H76.26V152H75.77V151.66C75.6566 151.803 75.5216 151.908 75.365 151.975C75.2116 152.042 75.045 152.075 74.865 152.075ZM78.203 149.13C78.1197 149.13 78.0497 149.102 77.993 149.045C77.9363 148.988 77.908 148.918 77.908 148.835C77.908 148.752 77.9363 148.682 77.993 148.625C78.0497 148.568 78.1197 148.54 78.203 148.54C78.2897 148.54 78.3613 148.568 78.418 148.625C78.478 148.682 78.508 148.752 78.508 148.835C78.508 148.918 78.478 148.988 78.418 149.045C78.3613 149.102 78.2897 149.13 78.203 149.13ZM77.948 149.6H78.463V152H77.948V149.6ZM81.318 152.075C81.078 152.075 80.8613 152.023 80.668 151.92C80.478 151.813 80.328 151.665 80.218 151.475C80.1113 151.282 80.058 151.058 80.058 150.805C80.058 150.555 80.1113 150.333 80.218 150.14C80.328 149.947 80.478 149.797 80.668 149.69C80.8613 149.58 81.078 149.525 81.318 149.525C81.7513 149.525 82.0797 149.657 82.303 149.92V148.305H82.808V152H82.318V151.65C82.1847 151.797 82.038 151.905 81.878 151.975C81.7213 152.042 81.5347 152.075 81.318 152.075ZM81.433 151.675C81.6397 151.675 81.8197 151.622 81.973 151.515C82.1297 151.405 82.2397 151.258 82.303 151.075V150.535C82.2463 150.352 82.138 150.205 81.978 150.095C81.8213 149.985 81.6397 149.93 81.433 149.93C81.2697 149.93 81.1213 149.967 80.988 150.04C80.858 150.113 80.7547 150.217 80.678 150.35C80.6047 150.483 80.568 150.635 80.568 150.805C80.568 150.975 80.6047 151.127 80.678 151.26C80.7547 151.393 80.858 151.497 80.988 151.57C81.1213 151.64 81.2697 151.675 81.433 151.675ZM85.7788 152.075C85.3355 152.075 84.9871 151.965 84.7338 151.745C84.4838 151.522 84.3588 151.208 84.3588 150.805C84.3588 150.412 84.4705 150.1 84.6938 149.87C84.9205 149.64 85.2421 149.525 85.6588 149.525C85.9355 149.525 86.1705 149.578 86.3638 149.685C86.5571 149.788 86.7021 149.933 86.7988 150.12C86.8988 150.303 86.9488 150.513 86.9488 150.75V151H84.8388C84.8555 151.227 84.9505 151.397 85.1238 151.51C85.3005 151.62 85.5388 151.675 85.8388 151.675C85.9921 151.675 86.1471 151.662 86.3038 151.635C86.4605 151.605 86.5988 151.567 86.7188 151.52V151.925C86.6121 151.968 86.4705 152.003 86.2938 152.03C86.1205 152.06 85.9488 152.075 85.7788 152.075ZM86.4738 150.645C86.4671 150.418 86.3921 150.243 86.2488 150.12C86.1088 149.993 85.9088 149.93 85.6488 149.93C85.3955 149.93 85.1988 149.995 85.0588 150.125C84.9188 150.255 84.8455 150.428 84.8388 150.645H86.4738ZM91.8614 152.99C91.6814 152.99 91.5314 152.972 91.4114 152.935V152.54C91.498 152.573 91.6047 152.59 91.7314 152.59C91.848 152.59 91.9397 152.56 92.0064 152.5C92.073 152.443 92.133 152.35 92.1864 152.22L92.3014 151.94L91.2514 149.6H91.7714L92.5714 151.445L93.3164 149.6H93.8364L92.7564 152.27C92.6564 152.52 92.5364 152.702 92.3964 152.815C92.2597 152.932 92.0814 152.99 91.8614 152.99ZM96.2238 152.075C95.9538 152.075 95.7155 152.025 95.5088 151.925C95.3055 151.822 95.1455 151.675 95.0288 151.485C94.9155 151.292 94.8588 151.065 94.8588 150.805C94.8588 150.548 94.9155 150.323 95.0288 150.13C95.1421 149.937 95.3021 149.788 95.5088 149.685C95.7155 149.578 95.9538 149.525 96.2238 149.525C96.4938 149.525 96.7321 149.578 96.9388 149.685C97.1455 149.788 97.3055 149.937 97.4188 150.13C97.5355 150.323 97.5938 150.548 97.5938 150.805C97.5938 151.065 97.5355 151.292 97.4188 151.485C97.3055 151.675 97.1455 151.822 96.9388 151.925C96.7321 152.025 96.4938 152.075 96.2238 152.075ZM96.2238 151.675C96.4838 151.675 96.6905 151.595 96.8438 151.435C96.9971 151.275 97.0738 151.065 97.0738 150.805C97.0738 150.535 96.9971 150.322 96.8438 150.165C96.6905 150.008 96.4838 149.93 96.2238 149.93C95.9638 149.93 95.7571 150.008 95.6038 150.165C95.4505 150.322 95.3738 150.535 95.3738 150.805C95.3738 151.065 95.4505 151.275 95.6038 151.435C95.7571 151.595 95.9638 151.675 96.2238 151.675ZM100.097 152.075C99.774 152.075 99.529 151.988 99.3624 151.815C99.199 151.642 99.1174 151.41 99.1174 151.12V149.6H99.6224V151.1C99.6224 151.483 99.814 151.675 100.197 151.675C100.534 151.675 100.797 151.523 100.987 151.22V149.6H101.492V152H101.002V151.66C100.889 151.803 100.754 151.908 100.597 151.975C100.444 152.042 100.277 152.075 100.097 152.075ZM106.916 152.075C106.673 152.075 106.484 152.005 106.351 151.865C106.221 151.725 106.156 151.527 106.156 151.27V149.99H105.791V149.6H106.156V148.88H106.666V149.6H107.256V149.99H106.666V151.235C106.666 151.395 106.696 151.508 106.756 151.575C106.819 151.642 106.933 151.675 107.096 151.675C107.193 151.675 107.289 151.653 107.386 151.61V152.01C107.259 152.053 107.103 152.075 106.916 152.075ZM108.861 148.305H109.366V149.93C109.596 149.66 109.903 149.525 110.286 149.525C110.606 149.525 110.844 149.61 111.001 149.78C111.158 149.95 111.236 150.178 111.236 150.465V152H110.731V150.515C110.731 150.125 110.544 149.93 110.171 149.93C110.011 149.93 109.861 149.968 109.721 150.045C109.584 150.118 109.466 150.232 109.366 150.385V152H108.861V148.305ZM112.859 149.6H113.349V150.03C113.449 149.883 113.589 149.775 113.769 149.705C113.953 149.635 114.164 149.6 114.404 149.6V149.995C114.148 149.995 113.928 150.037 113.744 150.12C113.561 150.203 113.434 150.335 113.364 150.515V152H112.859V149.6ZM117.048 152.075C116.778 152.075 116.54 152.025 116.333 151.925C116.13 151.822 115.97 151.675 115.853 151.485C115.74 151.292 115.683 151.065 115.683 150.805C115.683 150.548 115.74 150.323 115.853 150.13C115.966 149.937 116.126 149.788 116.333 149.685C116.54 149.578 116.778 149.525 117.048 149.525C117.318 149.525 117.556 149.578 117.763 149.685C117.97 149.788 118.13 149.937 118.243 150.13C118.36 150.323 118.418 150.548 118.418 150.805C118.418 151.065 118.36 151.292 118.243 151.485C118.13 151.675 117.97 151.822 117.763 151.925C117.556 152.025 117.318 152.075 117.048 152.075ZM117.048 151.675C117.308 151.675 117.515 151.595 117.668 151.435C117.821 151.275 117.898 151.065 117.898 150.805C117.898 150.535 117.821 150.322 117.668 150.165C117.515 150.008 117.308 149.93 117.048 149.93C116.788 149.93 116.581 150.008 116.428 150.165C116.275 150.322 116.198 150.535 116.198 150.805C116.198 151.065 116.275 151.275 116.428 151.435C116.581 151.595 116.788 151.675 117.048 151.675ZM120.922 152.075C120.598 152.075 120.353 151.988 120.187 151.815C120.023 151.642 119.942 151.41 119.942 151.12V149.6H120.447V151.1C120.447 151.483 120.638 151.675 121.022 151.675C121.358 151.675 121.622 151.523 121.812 151.22V149.6H122.317V152H121.827V151.66C121.713 151.803 121.578 151.908 121.422 151.975C121.268 152.042 121.102 152.075 120.922 152.075ZM125.22 153.15C125.056 153.15 124.896 153.137 124.74 153.11C124.586 153.083 124.456 153.045 124.35 152.995V152.58C124.6 152.693 124.89 152.75 125.22 152.75C125.53 152.75 125.755 152.682 125.895 152.545C126.038 152.412 126.11 152.208 126.11 151.935V151.68C125.89 151.943 125.566 152.075 125.14 152.075C124.896 152.075 124.678 152.022 124.485 151.915C124.291 151.808 124.14 151.658 124.03 151.465C123.92 151.272 123.865 151.05 123.865 150.8C123.865 150.547 123.918 150.325 124.025 150.135C124.135 149.942 124.285 149.792 124.475 149.685C124.668 149.578 124.885 149.525 125.125 149.525C125.348 149.525 125.536 149.558 125.69 149.625C125.846 149.688 125.991 149.795 126.125 149.945V149.6H126.615V151.88C126.615 152.29 126.5 152.603 126.27 152.82C126.043 153.04 125.693 153.15 125.22 153.15ZM125.24 151.675C125.446 151.675 125.628 151.62 125.785 151.51C125.945 151.4 126.053 151.253 126.11 151.07V150.53C126.046 150.343 125.936 150.197 125.78 150.09C125.626 149.983 125.446 149.93 125.24 149.93C125.076 149.93 124.928 149.967 124.795 150.04C124.665 150.11 124.561 150.212 124.485 150.345C124.411 150.478 124.375 150.63 124.375 150.8C124.375 150.973 124.411 151.127 124.485 151.26C124.561 151.39 124.665 151.492 124.795 151.565C124.928 151.638 125.076 151.675 125.24 151.675ZM128.265 148.305H128.77V149.93C129 149.66 129.307 149.525 129.69 149.525C130.01 149.525 130.249 149.61 130.405 149.78C130.562 149.95 130.64 150.178 130.64 150.465V152H130.135V150.515C130.135 150.125 129.949 149.93 129.575 149.93C129.415 149.93 129.265 149.968 129.125 150.045C128.989 150.118 128.87 150.232 128.77 150.385V152H128.265V148.305ZM18.25 160.075C18.0067 160.075 17.8183 160.005 17.685 159.865C17.555 159.725 17.49 159.527 17.49 159.27V157.99H17.125V157.6H17.49V156.88H18V157.6H18.59V157.99H18V159.235C18 159.395 18.03 159.508 18.09 159.575C18.1533 159.642 18.2667 159.675 18.43 159.675C18.5267 159.675 18.6233 159.653 18.72 159.61V160.01C18.5933 160.053 18.4367 160.075 18.25 160.075ZM20.1951 156.305H20.7001V157.93C20.9301 157.66 21.2368 157.525 21.6201 157.525C21.9401 157.525 22.1785 157.61 22.3351 157.78C22.4918 157.95 22.5701 158.178 22.5701 158.465V160H22.0651V158.515C22.0651 158.125 21.8785 157.93 21.5051 157.93C21.3451 157.93 21.1951 157.968 21.0551 158.045C20.9185 158.118 20.8001 158.232 20.7001 158.385V160H20.1951V156.305ZM25.5132 160.075C25.0698 160.075 24.7215 159.965 24.4682 159.745C24.2182 159.522 24.0932 159.208 24.0932 158.805C24.0932 158.412 24.2048 158.1 24.4282 157.87C24.6548 157.64 24.9765 157.525 25.3932 157.525C25.6698 157.525 25.9048 157.578 26.0982 157.685C26.2915 157.788 26.4365 157.933 26.5332 158.12C26.6332 158.303 26.6832 158.513 26.6832 158.75V159H24.5732C24.5898 159.227 24.6848 159.397 24.8582 159.51C25.0348 159.62 25.2732 159.675 25.5732 159.675C25.7265 159.675 25.8815 159.662 26.0382 159.635C26.1948 159.605 26.3332 159.567 26.4532 159.52V159.925C26.3465 159.968 26.2048 160.003 26.0282 160.03C25.8548 160.06 25.6832 160.075 25.5132 160.075ZM26.2082 158.645C26.2015 158.418 26.1265 158.243 25.9832 158.12C25.8432 157.993 25.6432 157.93 25.3832 157.93C25.1298 157.93 24.9332 157.995 24.7932 158.125C24.6532 158.255 24.5798 158.428 24.5732 158.645H26.2082ZM30.9857 157.6H31.5007L32.0407 159.38L32.5757 157.6H33.0307L33.5657 159.38L34.1057 157.6H34.6257L33.8457 160H33.3607L32.8057 158.21L32.2507 160H31.7607L30.9857 157.6ZM36.4725 157.13C36.3892 157.13 36.3192 157.102 36.2625 157.045C36.2059 156.988 36.1775 156.918 36.1775 156.835C36.1775 156.752 36.2059 156.682 36.2625 156.625C36.3192 156.568 36.3892 156.54 36.4725 156.54C36.5592 156.54 36.6309 156.568 36.6875 156.625C36.7475 156.682 36.7775 156.752 36.7775 156.835C36.7775 156.918 36.7475 156.988 36.6875 157.045C36.6309 157.102 36.5592 157.13 36.4725 157.13ZM36.2175 157.6H36.7325V160H36.2175V157.6ZM38.4275 157.6H38.9175V157.945C39.0309 157.802 39.1692 157.697 39.3325 157.63C39.4992 157.56 39.6725 157.525 39.8525 157.525C40.1725 157.525 40.4109 157.61 40.5675 157.78C40.7242 157.95 40.8025 158.178 40.8025 158.465V160H40.2975V158.515C40.2975 158.125 40.1109 157.93 39.7375 157.93C39.5775 157.93 39.4275 157.968 39.2875 158.045C39.1509 158.118 39.0325 158.232 38.9325 158.385V160H38.4275V157.6ZM43.5856 160.075C43.3456 160.075 43.1289 160.023 42.9356 159.92C42.7456 159.813 42.5956 159.665 42.4856 159.475C42.3789 159.282 42.3256 159.058 42.3256 158.805C42.3256 158.555 42.3789 158.333 42.4856 158.14C42.5956 157.947 42.7456 157.797 42.9356 157.69C43.1289 157.58 43.3456 157.525 43.5856 157.525C44.0189 157.525 44.3473 157.657 44.5706 157.92V156.305H45.0756V160H44.5856V159.65C44.4523 159.797 44.3056 159.905 44.1456 159.975C43.9889 160.042 43.8023 160.075 43.5856 160.075ZM43.7006 159.675C43.9073 159.675 44.0873 159.622 44.2406 159.515C44.3973 159.405 44.5073 159.258 44.5706 159.075V158.535C44.5139 158.352 44.4056 158.205 44.2456 158.095C44.0889 157.985 43.9073 157.93 43.7006 157.93C43.5373 157.93 43.3889 157.967 43.2556 158.04C43.1256 158.113 43.0223 158.217 42.9456 158.35C42.8723 158.483 42.8356 158.635 42.8356 158.805C42.8356 158.975 42.8723 159.127 42.9456 159.26C43.0223 159.393 43.1256 159.497 43.2556 159.57C43.3889 159.64 43.5373 159.675 43.7006 159.675ZM47.0214 157.13C46.938 157.13 46.868 157.102 46.8114 157.045C46.7547 156.988 46.7264 156.918 46.7264 156.835C46.7264 156.752 46.7547 156.682 46.8114 156.625C46.868 156.568 46.938 156.54 47.0214 156.54C47.108 156.54 47.1797 156.568 47.2364 156.625C47.2964 156.682 47.3264 156.752 47.3264 156.835C47.3264 156.918 47.2964 156.988 47.2364 157.045C47.1797 157.102 47.108 157.13 47.0214 157.13ZM46.7664 157.6H47.2814V160H46.7664V157.6ZM48.9764 157.6H49.4664V157.945C49.5797 157.802 49.718 157.697 49.8814 157.63C50.048 157.56 50.2214 157.525 50.4014 157.525C50.7214 157.525 50.9597 157.61 51.1164 157.78C51.273 157.95 51.3514 158.178 51.3514 158.465V160H50.8464V158.515C50.8464 158.125 50.6597 157.93 50.2864 157.93C50.1264 157.93 49.9764 157.968 49.8364 158.045C49.6997 158.118 49.5814 158.232 49.4814 158.385V160H48.9764V157.6ZM54.2294 161.15C54.0661 161.15 53.9061 161.137 53.7494 161.11C53.5961 161.083 53.4661 161.045 53.3594 160.995V160.58C53.6094 160.693 53.8994 160.75 54.2294 160.75C54.5394 160.75 54.7644 160.682 54.9044 160.545C55.0477 160.412 55.1194 160.208 55.1194 159.935V159.68C54.8994 159.943 54.5761 160.075 54.1494 160.075C53.9061 160.075 53.6877 160.022 53.4944 159.915C53.3011 159.808 53.1494 159.658 53.0394 159.465C52.9294 159.272 52.8744 159.05 52.8744 158.8C52.8744 158.547 52.9277 158.325 53.0344 158.135C53.1444 157.942 53.2944 157.792 53.4844 157.685C53.6777 157.578 53.8944 157.525 54.1344 157.525C54.3577 157.525 54.5461 157.558 54.6994 157.625C54.8561 157.688 55.0011 157.795 55.1344 157.945V157.6H55.6244V159.88C55.6244 160.29 55.5094 160.603 55.2794 160.82C55.0527 161.04 54.7027 161.15 54.2294 161.15ZM54.2494 159.675C54.4561 159.675 54.6377 159.62 54.7944 159.51C54.9544 159.4 55.0627 159.253 55.1194 159.07V158.53C55.0561 158.343 54.9461 158.197 54.7894 158.09C54.6361 157.983 54.4561 157.93 54.2494 157.93C54.0861 157.93 53.9377 157.967 53.8044 158.04C53.6744 158.11 53.5711 158.212 53.4944 158.345C53.4211 158.478 53.3844 158.63 53.3844 158.8C53.3844 158.973 53.4211 159.127 53.4944 159.26C53.5711 159.39 53.6744 159.492 53.8044 159.565C53.9377 159.638 54.0861 159.675 54.2494 159.675ZM60.1258 157.6H60.6158V157.955C60.8624 157.668 61.1958 157.525 61.6158 157.525C61.8558 157.525 62.0708 157.578 62.2608 157.685C62.4541 157.792 62.6041 157.942 62.7108 158.135C62.8208 158.325 62.8758 158.547 62.8758 158.8C62.8758 159.05 62.8208 159.272 62.7108 159.465C62.6041 159.658 62.4558 159.808 62.2658 159.915C62.0758 160.022 61.8591 160.075 61.6158 160.075C61.4158 160.075 61.2291 160.042 61.0558 159.975C60.8824 159.908 60.7408 159.81 60.6308 159.68V161.095H60.1258V157.6ZM61.5008 159.675C61.6641 159.675 61.8108 159.64 61.9408 159.57C62.0741 159.497 62.1774 159.393 62.2508 159.26C62.3274 159.127 62.3658 158.973 62.3658 158.8C62.3658 158.627 62.3274 158.475 62.2508 158.345C62.1774 158.212 62.0741 158.11 61.9408 158.04C61.8108 157.967 61.6641 157.93 61.5008 157.93C61.2974 157.93 61.1174 157.983 60.9608 158.09C60.8074 158.197 60.6974 158.343 60.6308 158.53V159.07C60.6874 159.253 60.7958 159.4 60.9558 159.51C61.1158 159.62 61.2974 159.675 61.5008 159.675ZM65.1596 160.075C64.8696 160.075 64.6363 160.002 64.4596 159.855C64.2863 159.705 64.1996 159.503 64.1996 159.25C64.1996 158.983 64.2829 158.778 64.4496 158.635C64.6196 158.488 64.8596 158.415 65.1696 158.415C65.4996 158.415 65.7796 158.482 66.0096 158.615V158.49C66.0096 158.3 65.9513 158.16 65.8346 158.07C65.7213 157.977 65.5413 157.93 65.2946 157.93C65.1479 157.93 65.0046 157.945 64.8646 157.975C64.7279 158.002 64.6046 158.04 64.4946 158.09V157.68C64.5946 157.633 64.7246 157.597 64.8846 157.57C65.0446 157.54 65.1996 157.525 65.3496 157.525C65.7463 157.525 66.0396 157.613 66.2296 157.79C66.4229 157.963 66.5196 158.205 66.5196 158.515V160H66.0446V159.73C65.9413 159.843 65.8179 159.93 65.6746 159.99C65.5346 160.047 65.3629 160.075 65.1596 160.075ZM65.2846 159.69C65.4446 159.69 65.5896 159.658 65.7196 159.595C65.8496 159.532 65.9463 159.443 66.0096 159.33V159.005C65.7929 158.865 65.5513 158.795 65.2846 158.795C65.0913 158.795 64.9463 158.833 64.8496 158.91C64.7563 158.983 64.7096 159.097 64.7096 159.25C64.7096 159.543 64.9013 159.69 65.2846 159.69ZM68.9443 160.075C68.701 160.075 68.5127 160.005 68.3793 159.865C68.2493 159.725 68.1843 159.527 68.1843 159.27V157.99H67.8193V157.6H68.1843V156.88H68.6943V157.6H69.2843V157.99H68.6943V159.235C68.6943 159.395 68.7243 159.508 68.7843 159.575C68.8477 159.642 68.961 159.675 69.1243 159.675C69.221 159.675 69.3177 159.653 69.4143 159.61V160.01C69.2877 160.053 69.131 160.075 68.9443 160.075ZM70.8895 156.305H71.3945V157.93C71.6245 157.66 71.9311 157.525 72.3145 157.525C72.6345 157.525 72.8728 157.61 73.0295 157.78C73.1861 157.95 73.2645 158.178 73.2645 158.465V160H72.7595V158.515C72.7595 158.125 72.5728 157.93 72.1995 157.93C72.0395 157.93 71.8895 157.968 71.7495 158.045C71.6128 158.118 71.4945 158.232 71.3945 158.385V160H70.8895V156.305ZM75.7725 160.075C75.6058 160.075 75.4292 160.053 75.2425 160.01C75.0558 159.97 74.9092 159.915 74.8025 159.845V159.415C74.9325 159.492 75.0825 159.555 75.2525 159.605C75.4225 159.652 75.5875 159.675 75.7475 159.675C75.9275 159.675 76.0592 159.653 76.1425 159.61C76.2258 159.567 76.2675 159.497 76.2675 159.4C76.2675 159.327 76.2475 159.268 76.2075 159.225C76.1708 159.178 76.1058 159.137 76.0125 159.1C75.9225 159.063 75.7858 159.02 75.6025 158.97C75.4058 158.913 75.2492 158.857 75.1325 158.8C75.0192 158.74 74.9325 158.665 74.8725 158.575C74.8158 158.485 74.7875 158.368 74.7875 158.225C74.7875 157.995 74.8775 157.822 75.0575 157.705C75.2408 157.585 75.4858 157.525 75.7925 157.525C75.9525 157.525 76.1092 157.54 76.2625 157.57C76.4158 157.6 76.5392 157.642 76.6325 157.695V158.115C76.5358 158.058 76.4158 158.013 76.2725 157.98C76.1325 157.947 75.9892 157.93 75.8425 157.93C75.6658 157.93 75.5308 157.952 75.4375 157.995C75.3442 158.038 75.2975 158.115 75.2975 158.225C75.2975 158.295 75.3175 158.352 75.3575 158.395C75.3975 158.438 75.4608 158.477 75.5475 158.51C75.6375 158.54 75.7792 158.58 75.9725 158.63C76.2758 158.713 76.4858 158.812 76.6025 158.925C76.7225 159.038 76.7825 159.195 76.7825 159.395C76.7825 159.602 76.6975 159.767 76.5275 159.89C76.3575 160.013 76.1058 160.075 75.7725 160.075ZM82.4494 160.075C82.1794 160.075 81.941 160.025 81.7344 159.925C81.531 159.822 81.371 159.675 81.2544 159.485C81.141 159.292 81.0844 159.065 81.0844 158.805C81.0844 158.548 81.141 158.323 81.2544 158.13C81.3677 157.937 81.5277 157.788 81.7344 157.685C81.941 157.578 82.1794 157.525 82.4494 157.525C82.7194 157.525 82.9577 157.578 83.1644 157.685C83.371 157.788 83.531 157.937 83.6444 158.13C83.761 158.323 83.8194 158.548 83.8194 158.805C83.8194 159.065 83.761 159.292 83.6444 159.485C83.531 159.675 83.371 159.822 83.1644 159.925C82.9577 160.025 82.7194 160.075 82.4494 160.075ZM82.4494 159.675C82.7094 159.675 82.916 159.595 83.0694 159.435C83.2227 159.275 83.2994 159.065 83.2994 158.805C83.2994 158.535 83.2227 158.322 83.0694 158.165C82.916 158.008 82.7094 157.93 82.4494 157.93C82.1894 157.93 81.9827 158.008 81.8294 158.165C81.676 158.322 81.5994 158.535 81.5994 158.805C81.5994 159.065 81.676 159.275 81.8294 159.435C81.9827 159.595 82.1894 159.675 82.4494 159.675ZM85.3572 157.99H84.9922V157.6H85.3572V157.13C85.3572 156.853 85.4355 156.643 85.5922 156.5C85.7489 156.353 85.9589 156.28 86.2222 156.28C86.3589 156.28 86.4872 156.3 86.6072 156.34V156.76C86.5139 156.717 86.4172 156.695 86.3172 156.695C86.1605 156.695 86.0455 156.733 85.9722 156.81C85.8989 156.883 85.8622 157 85.8622 157.16V157.6H86.4622V157.99H85.8622V160H85.3572V157.99ZM90.8055 156.305H91.3105V160H90.8055V156.305ZM93.2577 157.13C93.1744 157.13 93.1044 157.102 93.0477 157.045C92.991 156.988 92.9627 156.918 92.9627 156.835C92.9627 156.752 92.991 156.682 93.0477 156.625C93.1044 156.568 93.1744 156.54 93.2577 156.54C93.3444 156.54 93.416 156.568 93.4727 156.625C93.5327 156.682 93.5627 156.752 93.5627 156.835C93.5627 156.918 93.5327 156.988 93.4727 157.045C93.416 157.102 93.3444 157.13 93.2577 157.13ZM93.0027 157.6H93.5177V160H93.0027V157.6ZM95.3777 157.99H95.0127V157.6H95.3777V157.13C95.3777 156.853 95.456 156.643 95.6127 156.5C95.7694 156.353 95.9794 156.28 96.2427 156.28C96.3794 156.28 96.5077 156.3 96.6277 156.34V156.76C96.5344 156.717 96.4377 156.695 96.3377 156.695C96.181 156.695 96.066 156.733 95.9927 156.81C95.9194 156.883 95.8827 157 95.8827 157.16V157.6H96.4827V157.99H95.8827V160H95.3777V157.99ZM99.2954 160.075C98.8521 160.075 98.5037 159.965 98.2504 159.745C98.0004 159.522 97.8754 159.208 97.8754 158.805C97.8754 158.412 97.9871 158.1 98.2104 157.87C98.4371 157.64 98.7587 157.525 99.1754 157.525C99.4521 157.525 99.6871 157.578 99.8804 157.685C100.074 157.788 100.219 157.933 100.315 158.12C100.415 158.303 100.465 158.513 100.465 158.75V159H98.3554C98.3721 159.227 98.4671 159.397 98.6404 159.51C98.8171 159.62 99.0554 159.675 99.3554 159.675C99.5087 159.675 99.6637 159.662 99.8204 159.635C99.9771 159.605 100.115 159.567 100.235 159.52V159.925C100.129 159.968 99.9871 160.003 99.8104 160.03C99.6371 160.06 99.4654 160.075 99.2954 160.075ZM99.9904 158.645C99.9837 158.418 99.9087 158.243 99.7654 158.12C99.6254 157.993 99.4254 157.93 99.1654 157.93C98.9121 157.93 98.7154 157.995 98.5754 158.125C98.4354 158.255 98.3621 158.428 98.3554 158.645H99.9904ZM102.152 160C102.086 160 102.029 159.978 101.982 159.935C101.939 159.888 101.917 159.832 101.917 159.765C101.917 159.698 101.939 159.642 101.982 159.595C102.029 159.548 102.086 159.525 102.152 159.525C102.219 159.525 102.276 159.548 102.322 159.595C102.369 159.642 102.392 159.698 102.392 159.765C102.392 159.832 102.369 159.888 102.322 159.935C102.276 159.978 102.219 160 102.152 160ZM106.791 156.505H107.301V158.005H109.126V156.505H109.636V160H109.126V158.435H107.301V160H106.791V156.505ZM112.147 160.075C111.857 160.075 111.624 160.002 111.447 159.855C111.274 159.705 111.187 159.503 111.187 159.25C111.187 158.983 111.27 158.778 111.437 158.635C111.607 158.488 111.847 158.415 112.157 158.415C112.487 158.415 112.767 158.482 112.997 158.615V158.49C112.997 158.3 112.939 158.16 112.822 158.07C112.709 157.977 112.529 157.93 112.282 157.93C112.135 157.93 111.992 157.945 111.852 157.975C111.715 158.002 111.592 158.04 111.482 158.09V157.68C111.582 157.633 111.712 157.597 111.872 157.57C112.032 157.54 112.187 157.525 112.337 157.525C112.734 157.525 113.027 157.613 113.217 157.79C113.41 157.963 113.507 158.205 113.507 158.515V160H113.032V159.73C112.929 159.843 112.805 159.93 112.662 159.99C112.522 160.047 112.35 160.075 112.147 160.075ZM112.272 159.69C112.432 159.69 112.577 159.658 112.707 159.595C112.837 159.532 112.934 159.443 112.997 159.33V159.005C112.78 158.865 112.539 158.795 112.272 158.795C112.079 158.795 111.934 158.833 111.837 158.91C111.744 158.983 111.697 159.097 111.697 159.25C111.697 159.543 111.889 159.69 112.272 159.69ZM114.809 157.6H115.344L116.049 159.325L116.754 157.6H117.289L116.269 160H115.829L114.809 157.6ZM119.958 160.075C119.515 160.075 119.167 159.965 118.913 159.745C118.663 159.522 118.538 159.208 118.538 158.805C118.538 158.412 118.65 158.1 118.873 157.87C119.1 157.64 119.422 157.525 119.838 157.525C120.115 157.525 120.35 157.578 120.543 157.685C120.737 157.788 120.882 157.933 120.978 158.12C121.078 158.303 121.128 158.513 121.128 158.75V159H119.018C119.035 159.227 119.13 159.397 119.303 159.51C119.48 159.62 119.718 159.675 120.018 159.675C120.172 159.675 120.327 159.662 120.483 159.635C120.64 159.605 120.778 159.567 120.898 159.52V159.925C120.792 159.968 120.65 160.003 120.473 160.03C120.3 160.06 120.128 160.075 119.958 160.075ZM120.653 158.645C120.647 158.418 120.572 158.243 120.428 158.12C120.288 157.993 120.088 157.93 119.828 157.93C119.575 157.93 119.378 157.995 119.238 158.125C119.098 158.255 119.025 158.428 119.018 158.645H120.653ZM18.185 168.075C17.895 168.075 17.6617 168.002 17.485 167.855C17.3117 167.705 17.225 167.503 17.225 167.25C17.225 166.983 17.3083 166.778 17.475 166.635C17.645 166.488 17.885 166.415 18.195 166.415C18.525 166.415 18.805 166.482 19.035 166.615V166.49C19.035 166.3 18.9767 166.16 18.86 166.07C18.7467 165.977 18.5667 165.93 18.32 165.93C18.1733 165.93 18.03 165.945 17.89 165.975C17.7533 166.002 17.63 166.04 17.52 166.09V165.68C17.62 165.633 17.75 165.597 17.91 165.57C18.07 165.54 18.225 165.525 18.375 165.525C18.7717 165.525 19.065 165.613 19.255 165.79C19.4483 165.963 19.545 166.205 19.545 166.515V168H19.07V167.73C18.9667 167.843 18.8433 167.93 18.7 167.99C18.56 168.047 18.3883 168.075 18.185 168.075ZM18.31 167.69C18.47 167.69 18.615 167.658 18.745 167.595C18.875 167.532 18.9717 167.443 19.035 167.33V167.005C18.8183 166.865 18.5767 166.795 18.31 166.795C18.1167 166.795 17.9717 166.833 17.875 166.91C17.7817 166.983 17.735 167.097 17.735 167.25C17.735 167.543 17.9267 167.69 18.31 167.69ZM21.1717 165.6H21.6617V165.945C21.775 165.802 21.9133 165.697 22.0767 165.63C22.2433 165.56 22.4167 165.525 22.5967 165.525C22.9167 165.525 23.155 165.61 23.3117 165.78C23.4683 165.95 23.5467 166.178 23.5467 166.465V168H23.0417V166.515C23.0417 166.125 22.855 165.93 22.4817 165.93C22.3217 165.93 22.1717 165.968 22.0317 166.045C21.895 166.118 21.7767 166.232 21.6767 166.385V168H21.1717V165.6ZM25.4551 168.99C25.2751 168.99 25.1251 168.972 25.0051 168.935V168.54C25.0918 168.573 25.1985 168.59 25.3251 168.59C25.4418 168.59 25.5335 168.56 25.6001 168.5C25.6668 168.443 25.7268 168.35 25.7801 168.22L25.8951 167.94L24.8451 165.6H25.3651L26.1651 167.445L26.9101 165.6H27.4301L26.3501 168.27C26.2501 168.52 26.1301 168.702 25.9901 168.815C25.8535 168.932 25.6751 168.99 25.4551 168.99ZM33.8753 167.68C33.7653 167.81 33.6236 167.908 33.4503 167.975C33.2769 168.042 33.0903 168.075 32.8903 168.075C32.6469 168.075 32.4303 168.022 32.2403 167.915C32.0503 167.808 31.9003 167.658 31.7903 167.465C31.6836 167.272 31.6303 167.05 31.6303 166.8C31.6303 166.547 31.6836 166.325 31.7903 166.135C31.9003 165.942 32.0503 165.792 32.2403 165.685C32.4336 165.578 32.6503 165.525 32.8903 165.525C33.3103 165.525 33.6436 165.668 33.8903 165.955V165.6H34.3803V169.095H33.8753V167.68ZM33.0053 167.675C33.2086 167.675 33.3903 167.62 33.5503 167.51C33.7103 167.4 33.8186 167.253 33.8753 167.07V166.53C33.8086 166.343 33.6969 166.197 33.5403 166.09C33.3869 165.983 33.2086 165.93 33.0053 165.93C32.8419 165.93 32.6936 165.967 32.5603 166.04C32.4303 166.11 32.3269 166.212 32.2503 166.345C32.1769 166.475 32.1403 166.627 32.1403 166.8C32.1403 166.973 32.1769 167.127 32.2503 167.26C32.3269 167.393 32.4303 167.497 32.5603 167.57C32.6936 167.64 32.8419 167.675 33.0053 167.675ZM36.9861 168.075C36.6627 168.075 36.4177 167.988 36.2511 167.815C36.0877 167.642 36.0061 167.41 36.0061 167.12V165.6H36.5111V167.1C36.5111 167.483 36.7027 167.675 37.0861 167.675C37.4227 167.675 37.6861 167.523 37.8761 167.22V165.6H38.3811V168H37.8911V167.66C37.7777 167.803 37.6427 167.908 37.4861 167.975C37.3327 168.042 37.1661 168.075 36.9861 168.075ZM41.3491 168.075C40.9058 168.075 40.5574 167.965 40.3041 167.745C40.0541 167.522 39.9291 167.208 39.9291 166.805C39.9291 166.412 40.0408 166.1 40.2641 165.87C40.4908 165.64 40.8124 165.525 41.2291 165.525C41.5058 165.525 41.7408 165.578 41.9341 165.685C42.1274 165.788 42.2724 165.933 42.3691 166.12C42.4691 166.303 42.5191 166.513 42.5191 166.75V167H40.4091C40.4258 167.227 40.5208 167.397 40.6941 167.51C40.8708 167.62 41.1091 167.675 41.4091 167.675C41.5624 167.675 41.7174 167.662 41.8741 167.635C42.0308 167.605 42.1691 167.567 42.2891 167.52V167.925C42.1824 167.968 42.0408 168.003 41.8641 168.03C41.6908 168.06 41.5191 168.075 41.3491 168.075ZM42.0441 166.645C42.0374 166.418 41.9624 166.243 41.8191 166.12C41.6791 165.993 41.4791 165.93 41.2191 165.93C40.9658 165.93 40.7691 165.995 40.6291 166.125C40.4891 166.255 40.4158 166.428 40.4091 166.645H42.0441ZM44.9561 168.075C44.7894 168.075 44.6128 168.053 44.4261 168.01C44.2394 167.97 44.0928 167.915 43.9861 167.845V167.415C44.1161 167.492 44.2661 167.555 44.4361 167.605C44.6061 167.652 44.7711 167.675 44.9311 167.675C45.1111 167.675 45.2428 167.653 45.3261 167.61C45.4094 167.567 45.4511 167.497 45.4511 167.4C45.4511 167.327 45.4311 167.268 45.3911 167.225C45.3544 167.178 45.2894 167.137 45.1961 167.1C45.1061 167.063 44.9694 167.02 44.7861 166.97C44.5894 166.913 44.4328 166.857 44.3161 166.8C44.2028 166.74 44.1161 166.665 44.0561 166.575C43.9994 166.485 43.9711 166.368 43.9711 166.225C43.9711 165.995 44.0611 165.822 44.2411 165.705C44.4244 165.585 44.6694 165.525 44.9761 165.525C45.1361 165.525 45.2928 165.54 45.4461 165.57C45.5994 165.6 45.7228 165.642 45.8161 165.695V166.115C45.7194 166.058 45.5994 166.013 45.4561 165.98C45.3161 165.947 45.1728 165.93 45.0261 165.93C44.8494 165.93 44.7144 165.952 44.6211 165.995C44.5278 166.038 44.4811 166.115 44.4811 166.225C44.4811 166.295 44.5011 166.352 44.5411 166.395C44.5811 166.438 44.6444 166.477 44.7311 166.51C44.8211 166.54 44.9628 166.58 45.1561 166.63C45.4594 166.713 45.6694 166.812 45.7861 166.925C45.9061 167.038 45.9661 167.195 45.9661 167.395C45.9661 167.602 45.8811 167.767 45.7111 167.89C45.5411 168.013 45.2894 168.075 44.9561 168.075ZM48.3691 168.075C48.1258 168.075 47.9375 168.005 47.8041 167.865C47.6741 167.725 47.6091 167.527 47.6091 167.27V165.99H47.2441V165.6H47.6091V164.88H48.1191V165.6H48.7091V165.99H48.1191V167.235C48.1191 167.395 48.1491 167.508 48.2091 167.575C48.2725 167.642 48.3858 167.675 48.5491 167.675C48.6458 167.675 48.7425 167.653 48.8391 167.61V168.01C48.7125 168.053 48.5558 168.075 48.3691 168.075ZM50.6093 165.13C50.5259 165.13 50.4559 165.102 50.3993 165.045C50.3426 164.988 50.3143 164.918 50.3143 164.835C50.3143 164.752 50.3426 164.682 50.3993 164.625C50.4559 164.568 50.5259 164.54 50.6093 164.54C50.6959 164.54 50.7676 164.568 50.8243 164.625C50.8843 164.682 50.9143 164.752 50.9143 164.835C50.9143 164.918 50.8843 164.988 50.8243 165.045C50.7676 165.102 50.6959 165.13 50.6093 165.13ZM50.3543 165.6H50.8693V168H50.3543V165.6ZM53.8293 168.075C53.5593 168.075 53.3209 168.025 53.1143 167.925C52.9109 167.822 52.7509 167.675 52.6343 167.485C52.5209 167.292 52.4643 167.065 52.4643 166.805C52.4643 166.548 52.5209 166.323 52.6343 166.13C52.7476 165.937 52.9076 165.788 53.1143 165.685C53.3209 165.578 53.5593 165.525 53.8293 165.525C54.0993 165.525 54.3376 165.578 54.5443 165.685C54.7509 165.788 54.9109 165.937 55.0243 166.13C55.1409 166.323 55.1993 166.548 55.1993 166.805C55.1993 167.065 55.1409 167.292 55.0243 167.485C54.9109 167.675 54.7509 167.822 54.5443 167.925C54.3376 168.025 54.0993 168.075 53.8293 168.075ZM53.8293 167.675C54.0893 167.675 54.2959 167.595 54.4493 167.435C54.6026 167.275 54.6793 167.065 54.6793 166.805C54.6793 166.535 54.6026 166.322 54.4493 166.165C54.2959 166.008 54.0893 165.93 53.8293 165.93C53.5693 165.93 53.3626 166.008 53.2093 166.165C53.0559 166.322 52.9793 166.535 52.9793 166.805C52.9793 167.065 53.0559 167.275 53.2093 167.435C53.3626 167.595 53.5693 167.675 53.8293 167.675ZM56.7479 165.6H57.2379V165.945C57.3512 165.802 57.4895 165.697 57.6529 165.63C57.8195 165.56 57.9929 165.525 58.1729 165.525C58.4929 165.525 58.7312 165.61 58.8879 165.78C59.0445 165.95 59.1229 166.178 59.1229 166.465V168H58.6179V166.515C58.6179 166.125 58.4312 165.93 58.0579 165.93C57.8979 165.93 57.7479 165.968 57.6079 166.045C57.4712 166.118 57.3529 166.232 57.2529 166.385V168H56.7479V165.6ZM61.6309 168.075C61.4642 168.075 61.2876 168.053 61.1009 168.01C60.9142 167.97 60.7676 167.915 60.6609 167.845V167.415C60.7909 167.492 60.9409 167.555 61.1109 167.605C61.2809 167.652 61.4459 167.675 61.6059 167.675C61.7859 167.675 61.9176 167.653 62.0009 167.61C62.0842 167.567 62.1259 167.497 62.1259 167.4C62.1259 167.327 62.1059 167.268 62.0659 167.225C62.0292 167.178 61.9642 167.137 61.8709 167.1C61.7809 167.063 61.6442 167.02 61.4609 166.97C61.2642 166.913 61.1076 166.857 60.9909 166.8C60.8776 166.74 60.7909 166.665 60.7309 166.575C60.6742 166.485 60.6459 166.368 60.6459 166.225C60.6459 165.995 60.7359 165.822 60.9159 165.705C61.0992 165.585 61.3442 165.525 61.6509 165.525C61.8109 165.525 61.9676 165.54 62.1209 165.57C62.2742 165.6 62.3976 165.642 62.4909 165.695V166.115C62.3942 166.058 62.2742 166.013 62.1309 165.98C61.9909 165.947 61.8476 165.93 61.7009 165.93C61.5242 165.93 61.3892 165.952 61.2959 165.995C61.2026 166.038 61.1559 166.115 61.1559 166.225C61.1559 166.295 61.1759 166.352 61.2159 166.395C61.2559 166.438 61.3192 166.477 61.4059 166.51C61.4959 166.54 61.6376 166.58 61.8309 166.63C62.1342 166.713 62.3442 166.812 62.4609 166.925C62.5809 167.038 62.6409 167.195 62.6409 167.395C62.6409 167.602 62.5559 167.767 62.3859 167.89C62.2159 168.013 61.9642 168.075 61.6309 168.075ZM64.6972 166.9C64.6972 166.697 64.7355 166.527 64.8122 166.39C64.8889 166.253 65.0189 166.122 65.2022 165.995C65.3355 165.902 65.4355 165.828 65.5022 165.775C65.5689 165.718 65.6205 165.657 65.6572 165.59C65.6972 165.52 65.7172 165.438 65.7172 165.345C65.7172 165.195 65.6572 165.077 65.5372 164.99C65.4172 164.903 65.2439 164.86 65.0172 164.86C64.6839 164.86 64.3755 164.927 64.0922 165.06V164.62C64.2255 164.563 64.3705 164.518 64.5272 164.485C64.6872 164.448 64.8505 164.43 65.0172 164.43C65.3839 164.43 65.6755 164.512 65.8922 164.675C66.1089 164.838 66.2172 165.062 66.2172 165.345C66.2172 165.518 66.1722 165.667 66.0822 165.79C65.9922 165.913 65.8505 166.045 65.6572 166.185C65.5172 166.285 65.4172 166.365 65.3572 166.425C65.2972 166.482 65.2539 166.547 65.2272 166.62C65.2005 166.69 65.1872 166.785 65.1872 166.905V167.005H64.6972V166.9ZM64.9372 168.075C64.8539 168.075 64.7839 168.047 64.7272 167.99C64.6705 167.933 64.6422 167.863 64.6422 167.78C64.6422 167.697 64.6705 167.627 64.7272 167.57C64.7839 167.513 64.8539 167.485 64.9372 167.485C65.0205 167.485 65.0905 167.513 65.1472 167.57C65.2072 167.627 65.2372 167.697 65.2372 167.78C65.2372 167.863 65.2072 167.933 65.1472 167.99C65.0905 168.047 65.0205 168.075 64.9372 168.075ZM71.501 164.935H70.416V164.505H73.101V164.935H72.016V168H71.501V164.935ZM74.5506 164.305H75.0556V165.93C75.2856 165.66 75.5923 165.525 75.9756 165.525C76.2956 165.525 76.5339 165.61 76.6906 165.78C76.8473 165.95 76.9256 166.178 76.9256 166.465V168H76.4206V166.515C76.4206 166.125 76.2339 165.93 75.8606 165.93C75.7006 165.93 75.5506 165.968 75.4106 166.045C75.2739 166.118 75.1556 166.232 75.0556 166.385V168H74.5506V164.305ZM78.8436 165.13C78.7603 165.13 78.6903 165.102 78.6336 165.045C78.577 164.988 78.5486 164.918 78.5486 164.835C78.5486 164.752 78.577 164.682 78.6336 164.625C78.6903 164.568 78.7603 164.54 78.8436 164.54C78.9303 164.54 79.002 164.568 79.0586 164.625C79.1186 164.682 79.1486 164.752 79.1486 164.835C79.1486 164.918 79.1186 164.988 79.0586 165.045C79.002 165.102 78.9303 165.13 78.8436 165.13ZM78.5886 165.6H79.1036V168H78.5886V165.6ZM81.6836 168.075C81.517 168.075 81.3403 168.053 81.1536 168.01C80.967 167.97 80.8203 167.915 80.7136 167.845V167.415C80.8436 167.492 80.9936 167.555 81.1636 167.605C81.3336 167.652 81.4986 167.675 81.6586 167.675C81.8386 167.675 81.9703 167.653 82.0536 167.61C82.137 167.567 82.1786 167.497 82.1786 167.4C82.1786 167.327 82.1586 167.268 82.1186 167.225C82.082 167.178 82.017 167.137 81.9236 167.1C81.8336 167.063 81.697 167.02 81.5136 166.97C81.317 166.913 81.1603 166.857 81.0436 166.8C80.9303 166.74 80.8436 166.665 80.7836 166.575C80.727 166.485 80.6986 166.368 80.6986 166.225C80.6986 165.995 80.7886 165.822 80.9686 165.705C81.152 165.585 81.397 165.525 81.7036 165.525C81.8636 165.525 82.0203 165.54 82.1736 165.57C82.327 165.6 82.4503 165.642 82.5436 165.695V166.115C82.447 166.058 82.327 166.013 82.1836 165.98C82.0436 165.947 81.9003 165.93 81.7536 165.93C81.577 165.93 81.442 165.952 81.3486 165.995C81.2553 166.038 81.2086 166.115 81.2086 166.225C81.2086 166.295 81.2286 166.352 81.2686 166.395C81.3086 166.438 81.372 166.477 81.4586 166.51C81.5486 166.54 81.6903 166.58 81.8836 166.63C82.187 166.713 82.397 166.812 82.5136 166.925C82.6336 167.038 82.6936 167.195 82.6936 167.395C82.6936 167.602 82.6086 167.767 82.4386 167.89C82.2686 168.013 82.017 168.075 81.6836 168.075ZM86.9955 165.6H87.5105L88.0505 167.38L88.5855 165.6H89.0405L89.5755 167.38L90.1155 165.6H90.6355L89.8555 168H89.3705L88.8155 166.21L88.2605 168H87.7705L86.9955 165.6ZM92.7739 168.075C92.4839 168.075 92.2505 168.002 92.0739 167.855C91.9005 167.705 91.8139 167.503 91.8139 167.25C91.8139 166.983 91.8972 166.778 92.0639 166.635C92.2339 166.488 92.4739 166.415 92.7839 166.415C93.1139 166.415 93.3939 166.482 93.6239 166.615V166.49C93.6239 166.3 93.5655 166.16 93.4489 166.07C93.3355 165.977 93.1555 165.93 92.9089 165.93C92.7622 165.93 92.6189 165.945 92.4789 165.975C92.3422 166.002 92.2189 166.04 92.1089 166.09V165.68C92.2089 165.633 92.3389 165.597 92.4989 165.57C92.6589 165.54 92.8139 165.525 92.9639 165.525C93.3605 165.525 93.6539 165.613 93.8439 165.79C94.0372 165.963 94.1339 166.205 94.1339 166.515V168H93.6589V167.73C93.5555 167.843 93.4322 167.93 93.2889 167.99C93.1489 168.047 92.9772 168.075 92.7739 168.075ZM92.8989 167.69C93.0589 167.69 93.2039 167.658 93.3339 167.595C93.4639 167.532 93.5605 167.443 93.6239 167.33V167.005C93.4072 166.865 93.1655 166.795 92.8989 166.795C92.7055 166.795 92.5605 166.833 92.4639 166.91C92.3705 166.983 92.3239 167.097 92.3239 167.25C92.3239 167.543 92.5155 167.69 92.8989 167.69ZM96.5586 168.075C96.3153 168.075 96.1269 168.005 95.9936 167.865C95.8636 167.725 95.7986 167.527 95.7986 167.27V165.99H95.4336V165.6H95.7986V164.88H96.3086V165.6H96.8986V165.99H96.3086V167.235C96.3086 167.395 96.3386 167.508 96.3986 167.575C96.4619 167.642 96.5753 167.675 96.7386 167.675C96.8353 167.675 96.9319 167.653 97.0286 167.61V168.01C96.9019 168.053 96.7453 168.075 96.5586 168.075ZM99.8237 168.075C99.3804 168.075 99.032 167.965 98.7787 167.745C98.5287 167.522 98.4037 167.208 98.4037 166.805C98.4037 166.412 98.5154 166.1 98.7387 165.87C98.9654 165.64 99.287 165.525 99.7037 165.525C99.9804 165.525 100.215 165.578 100.409 165.685C100.602 165.788 100.747 165.933 100.844 166.12C100.944 166.303 100.994 166.513 100.994 166.75V167H98.8837C98.9004 167.227 98.9954 167.397 99.1687 167.51C99.3454 167.62 99.5837 167.675 99.8837 167.675C100.037 167.675 100.192 167.662 100.349 167.635C100.505 167.605 100.644 167.567 100.764 167.52V167.925C100.657 167.968 100.515 168.003 100.339 168.03C100.165 168.06 99.9937 168.075 99.8237 168.075ZM100.519 166.645C100.512 166.418 100.437 166.243 100.294 166.12C100.154 165.993 99.9537 165.93 99.6937 165.93C99.4404 165.93 99.2437 165.995 99.1037 166.125C98.9637 166.255 98.8904 166.428 98.8837 166.645H100.519ZM102.546 165.6H103.036V166.03C103.136 165.883 103.276 165.775 103.456 165.705C103.639 165.635 103.851 165.6 104.091 165.6V165.995C103.834 165.995 103.614 166.037 103.431 166.12C103.247 166.203 103.121 166.335 103.051 166.515V168H102.546V165.6ZM108.693 165.13C108.607 165.13 108.535 165.102 108.478 165.045C108.422 164.988 108.393 164.918 108.393 164.835C108.393 164.752 108.422 164.682 108.478 164.625C108.538 164.568 108.61 164.54 108.693 164.54C108.777 164.54 108.847 164.568 108.903 164.625C108.963 164.682 108.993 164.752 108.993 164.835C108.993 164.918 108.963 164.988 108.903 165.045C108.847 165.102 108.777 165.13 108.693 165.13ZM108.098 169.155C107.948 169.155 107.822 169.137 107.718 169.1V168.685C107.805 168.725 107.905 168.745 108.018 168.745C108.168 168.745 108.275 168.708 108.338 168.635C108.405 168.565 108.438 168.45 108.438 168.29V165.6H108.948V168.325C108.948 168.602 108.872 168.808 108.718 168.945C108.565 169.085 108.358 169.155 108.098 169.155ZM111.598 168.075C111.275 168.075 111.03 167.988 110.863 167.815C110.7 167.642 110.618 167.41 110.618 167.12V165.6H111.123V167.1C111.123 167.483 111.315 167.675 111.698 167.675C112.035 167.675 112.298 167.523 112.488 167.22V165.6H112.993V168H112.503V167.66C112.39 167.803 112.255 167.908 112.098 167.975C111.945 168.042 111.778 168.075 111.598 168.075ZM115.526 168.075C115.36 168.075 115.183 168.053 114.996 168.01C114.81 167.97 114.663 167.915 114.556 167.845V167.415C114.686 167.492 114.836 167.555 115.006 167.605C115.176 167.652 115.341 167.675 115.501 167.675C115.681 167.675 115.813 167.653 115.896 167.61C115.98 167.567 116.021 167.497 116.021 167.4C116.021 167.327 116.001 167.268 115.961 167.225C115.925 167.178 115.86 167.137 115.766 167.1C115.676 167.063 115.54 167.02 115.356 166.97C115.16 166.913 115.003 166.857 114.886 166.8C114.773 166.74 114.686 166.665 114.626 166.575C114.57 166.485 114.541 166.368 114.541 166.225C114.541 165.995 114.631 165.822 114.811 165.705C114.995 165.585 115.24 165.525 115.546 165.525C115.706 165.525 115.863 165.54 116.016 165.57C116.17 165.6 116.293 165.642 116.386 165.695V166.115C116.29 166.058 116.17 166.013 116.026 165.98C115.886 165.947 115.743 165.93 115.596 165.93C115.42 165.93 115.285 165.952 115.191 165.995C115.098 166.038 115.051 166.115 115.051 166.225C115.051 166.295 115.071 166.352 115.111 166.395C115.151 166.438 115.215 166.477 115.301 166.51C115.391 166.54 115.533 166.58 115.726 166.63C116.03 166.713 116.24 166.812 116.356 166.925C116.476 167.038 116.536 167.195 116.536 167.395C116.536 167.602 116.451 167.767 116.281 167.89C116.111 168.013 115.86 168.075 115.526 168.075ZM118.939 168.075C118.696 168.075 118.508 168.005 118.374 167.865C118.244 167.725 118.179 167.527 118.179 167.27V165.99H117.814V165.6H118.179V164.88H118.689V165.6H119.279V165.99H118.689V167.235C118.689 167.395 118.719 167.508 118.779 167.575C118.843 167.642 118.956 167.675 119.119 167.675C119.216 167.675 119.313 167.653 119.409 167.61V168.01C119.283 168.053 119.126 168.075 118.939 168.075ZM18.21 176.075C18.0433 176.075 17.8667 176.053 17.68 176.01C17.4933 175.97 17.3467 175.915 17.24 175.845V175.415C17.37 175.492 17.52 175.555 17.69 175.605C17.86 175.652 18.025 175.675 18.185 175.675C18.365 175.675 18.4967 175.653 18.58 175.61C18.6633 175.567 18.705 175.497 18.705 175.4C18.705 175.327 18.685 175.268 18.645 175.225C18.6083 175.178 18.5433 175.137 18.45 175.1C18.36 175.063 18.2233 175.02 18.04 174.97C17.8433 174.913 17.6867 174.857 17.57 174.8C17.4567 174.74 17.37 174.665 17.31 174.575C17.2533 174.485 17.225 174.368 17.225 174.225C17.225 173.995 17.315 173.822 17.495 173.705C17.6783 173.585 17.9233 173.525 18.23 173.525C18.39 173.525 18.5467 173.54 18.7 173.57C18.8533 173.6 18.9767 173.642 19.07 173.695V174.115C18.9733 174.058 18.8533 174.013 18.71 173.98C18.57 173.947 18.4267 173.93 18.28 173.93C18.1033 173.93 17.9683 173.952 17.875 173.995C17.7817 174.038 17.735 174.115 17.735 174.225C17.735 174.295 17.755 174.352 17.795 174.395C17.835 174.438 17.8983 174.477 17.985 174.51C18.075 174.54 18.2167 174.58 18.41 174.63C18.7133 174.713 18.9233 174.812 19.04 174.925C19.16 175.038 19.22 175.195 19.22 175.395C19.22 175.602 19.135 175.767 18.965 175.89C18.795 176.013 18.5433 176.075 18.21 176.075ZM21.558 176.075C21.268 176.075 21.0347 176.002 20.858 175.855C20.6847 175.705 20.598 175.503 20.598 175.25C20.598 174.983 20.6814 174.778 20.848 174.635C21.018 174.488 21.258 174.415 21.568 174.415C21.898 174.415 22.178 174.482 22.408 174.615V174.49C22.408 174.3 22.3497 174.16 22.233 174.07C22.1197 173.977 21.9397 173.93 21.693 173.93C21.5464 173.93 21.403 173.945 21.263 173.975C21.1264 174.002 21.003 174.04 20.893 174.09V173.68C20.993 173.633 21.123 173.597 21.283 173.57C21.443 173.54 21.598 173.525 21.748 173.525C22.1447 173.525 22.438 173.613 22.628 173.79C22.8214 173.963 22.918 174.205 22.918 174.515V176H22.443V175.73C22.3397 175.843 22.2164 175.93 22.073 175.99C21.933 176.047 21.7614 176.075 21.558 176.075ZM21.683 175.69C21.843 175.69 21.988 175.658 22.118 175.595C22.248 175.532 22.3447 175.443 22.408 175.33V175.005C22.1914 174.865 21.9497 174.795 21.683 174.795C21.4897 174.795 21.3447 174.833 21.248 174.91C21.1547 174.983 21.108 175.097 21.108 175.25C21.108 175.543 21.2997 175.69 21.683 175.69ZM24.8397 173.13C24.7564 173.13 24.6864 173.102 24.6297 173.045C24.5731 172.988 24.5447 172.918 24.5447 172.835C24.5447 172.752 24.5731 172.682 24.6297 172.625C24.6864 172.568 24.7564 172.54 24.8397 172.54C24.9264 172.54 24.9981 172.568 25.0547 172.625C25.1147 172.682 25.1447 172.752 25.1447 172.835C25.1447 172.918 25.1147 172.988 25.0547 173.045C24.9981 173.102 24.9264 173.13 24.8397 173.13ZM24.5847 173.6H25.0997V176H24.5847V173.6ZM27.9547 176.075C27.7147 176.075 27.4981 176.023 27.3047 175.92C27.1147 175.813 26.9647 175.665 26.8547 175.475C26.7481 175.282 26.6947 175.058 26.6947 174.805C26.6947 174.555 26.7481 174.333 26.8547 174.14C26.9647 173.947 27.1147 173.797 27.3047 173.69C27.4981 173.58 27.7147 173.525 27.9547 173.525C28.3881 173.525 28.7164 173.657 28.9397 173.92V172.305H29.4447V176H28.9547V175.65C28.8214 175.797 28.6747 175.905 28.5147 175.975C28.3581 176.042 28.1714 176.075 27.9547 176.075ZM28.0697 175.675C28.2764 175.675 28.4564 175.622 28.6097 175.515C28.7664 175.405 28.8764 175.258 28.9397 175.075V174.535C28.8831 174.352 28.7747 174.205 28.6147 174.095C28.4581 173.985 28.2764 173.93 28.0697 173.93C27.9064 173.93 27.7581 173.967 27.6247 174.04C27.4947 174.113 27.3914 174.217 27.3147 174.35C27.2414 174.483 27.2047 174.635 27.2047 174.805C27.2047 174.975 27.2414 175.127 27.3147 175.26C27.3914 175.393 27.4947 175.497 27.6247 175.57C27.7581 175.64 27.9064 175.675 28.0697 175.675ZM33.9461 172.305H34.4511V173.93C34.6811 173.66 34.9878 173.525 35.3711 173.525C35.6911 173.525 35.9294 173.61 36.0861 173.78C36.2428 173.95 36.3211 174.178 36.3211 174.465V176H35.8161V174.515C35.8161 174.125 35.6294 173.93 35.2561 173.93C35.0961 173.93 34.9461 173.968 34.8061 174.045C34.6694 174.118 34.5511 174.232 34.4511 174.385V176H33.9461V172.305ZM39.2641 176.075C38.8208 176.075 38.4725 175.965 38.2191 175.745C37.9691 175.522 37.8441 175.208 37.8441 174.805C37.8441 174.412 37.9558 174.1 38.1791 173.87C38.4058 173.64 38.7275 173.525 39.1441 173.525C39.4208 173.525 39.6558 173.578 39.8491 173.685C40.0425 173.788 40.1875 173.933 40.2841 174.12C40.3841 174.303 40.4341 174.513 40.4341 174.75V175H38.3241C38.3408 175.227 38.4358 175.397 38.6091 175.51C38.7858 175.62 39.0241 175.675 39.3241 175.675C39.4775 175.675 39.6325 175.662 39.7891 175.635C39.9458 175.605 40.0841 175.567 40.2041 175.52V175.925C40.0975 175.968 39.9558 176.003 39.7791 176.03C39.6058 176.06 39.4341 176.075 39.2641 176.075ZM39.9591 174.645C39.9525 174.418 39.8775 174.243 39.7341 174.12C39.5941 173.993 39.3941 173.93 39.1341 173.93C38.8808 173.93 38.6841 173.995 38.5441 174.125C38.4041 174.255 38.3308 174.428 38.3241 174.645H39.9591ZM44.7367 173.6H45.2517L45.7917 175.38L46.3267 173.6H46.7817L47.3167 175.38L47.8567 173.6H48.3767L47.5967 176H47.1117L46.5567 174.21L46.0017 176H45.5117L44.7367 173.6ZM50.2235 173.13C50.1402 173.13 50.0702 173.102 50.0135 173.045C49.9568 172.988 49.9285 172.918 49.9285 172.835C49.9285 172.752 49.9568 172.682 50.0135 172.625C50.0702 172.568 50.1402 172.54 50.2235 172.54C50.3102 172.54 50.3818 172.568 50.4385 172.625C50.4985 172.682 50.5285 172.752 50.5285 172.835C50.5285 172.918 50.4985 172.988 50.4385 173.045C50.3818 173.102 50.3102 173.13 50.2235 173.13ZM49.9685 173.6H50.4835V176H49.9685V173.6ZM52.1785 172.305H52.6835V176H52.1785V172.305ZM54.3357 172.305H54.8407V176H54.3357V172.305ZM60.2036 176.075C59.9136 176.075 59.6802 176.002 59.5036 175.855C59.3302 175.705 59.2436 175.503 59.2436 175.25C59.2436 174.983 59.3269 174.778 59.4936 174.635C59.6636 174.488 59.9036 174.415 60.2136 174.415C60.5436 174.415 60.8236 174.482 61.0536 174.615V174.49C61.0536 174.3 60.9952 174.16 60.8786 174.07C60.7652 173.977 60.5852 173.93 60.3386 173.93C60.1919 173.93 60.0486 173.945 59.9086 173.975C59.7719 174.002 59.6486 174.04 59.5386 174.09V173.68C59.6386 173.633 59.7686 173.597 59.9286 173.57C60.0886 173.54 60.2436 173.525 60.3936 173.525C60.7902 173.525 61.0836 173.613 61.2736 173.79C61.4669 173.963 61.5636 174.205 61.5636 174.515V176H61.0886V175.73C60.9852 175.843 60.8619 175.93 60.7186 175.99C60.5786 176.047 60.4069 176.075 60.2036 176.075ZM60.3286 175.69C60.4886 175.69 60.6336 175.658 60.7636 175.595C60.8936 175.532 60.9902 175.443 61.0536 175.33V175.005C60.8369 174.865 60.5952 174.795 60.3286 174.795C60.1352 174.795 59.9902 174.833 59.8936 174.91C59.8002 174.983 59.7536 175.097 59.7536 175.25C59.7536 175.543 59.9452 175.69 60.3286 175.69ZM63.1902 173.6H63.6802V173.945C63.7936 173.802 63.9319 173.697 64.0952 173.63C64.2619 173.56 64.4352 173.525 64.6152 173.525C64.9352 173.525 65.1736 173.61 65.3302 173.78C65.4869 173.95 65.5652 174.178 65.5652 174.465V176H65.0602V174.515C65.0602 174.125 64.8736 173.93 64.5002 173.93C64.3402 173.93 64.1902 173.968 64.0502 174.045C63.9136 174.118 63.7952 174.232 63.6952 174.385V176H63.1902V173.6ZM68.0733 176.075C67.9066 176.075 67.7299 176.053 67.5433 176.01C67.3566 175.97 67.2099 175.915 67.1033 175.845V175.415C67.2333 175.492 67.3833 175.555 67.5533 175.605C67.7233 175.652 67.8883 175.675 68.0483 175.675C68.2283 175.675 68.3599 175.653 68.4433 175.61C68.5266 175.567 68.5683 175.497 68.5683 175.4C68.5683 175.327 68.5483 175.268 68.5083 175.225C68.4716 175.178 68.4066 175.137 68.3133 175.1C68.2233 175.063 68.0866 175.02 67.9033 174.97C67.7066 174.913 67.5499 174.857 67.4333 174.8C67.3199 174.74 67.2333 174.665 67.1733 174.575C67.1166 174.485 67.0883 174.368 67.0883 174.225C67.0883 173.995 67.1783 173.822 67.3583 173.705C67.5416 173.585 67.7866 173.525 68.0933 173.525C68.2533 173.525 68.4099 173.54 68.5633 173.57C68.7166 173.6 68.8399 173.642 68.9333 173.695V174.115C68.8366 174.058 68.7166 174.013 68.5733 173.98C68.4333 173.947 68.2899 173.93 68.1433 173.93C67.9666 173.93 67.8316 173.952 67.7383 173.995C67.6449 174.038 67.5983 174.115 67.5983 174.225C67.5983 174.295 67.6183 174.352 67.6583 174.395C67.6983 174.438 67.7616 174.477 67.8483 174.51C67.9383 174.54 68.0799 174.58 68.2733 174.63C68.5766 174.713 68.7866 174.812 68.9033 174.925C69.0233 175.038 69.0833 175.195 69.0833 175.395C69.0833 175.602 68.9983 175.767 68.8283 175.89C68.6583 176.013 68.4066 176.075 68.0733 176.075ZM70.31 173.6H70.825L71.365 175.38L71.9 173.6H72.355L72.89 175.38L73.43 173.6H73.95L73.17 176H72.685L72.13 174.21L71.575 176H71.085L70.31 173.6ZM76.6704 176.075C76.2271 176.075 75.8787 175.965 75.6254 175.745C75.3754 175.522 75.2504 175.208 75.2504 174.805C75.2504 174.412 75.3621 174.1 75.5854 173.87C75.8121 173.64 76.1337 173.525 76.5504 173.525C76.8271 173.525 77.0621 173.578 77.2554 173.685C77.4487 173.788 77.5937 173.933 77.6904 174.12C77.7904 174.303 77.8404 174.513 77.8404 174.75V175H75.7304C75.7471 175.227 75.8421 175.397 76.0154 175.51C76.1921 175.62 76.4304 175.675 76.7304 175.675C76.8837 175.675 77.0387 175.662 77.1954 175.635C77.3521 175.605 77.4904 175.567 77.6104 175.52V175.925C77.5037 175.968 77.3621 176.003 77.1854 176.03C77.0121 176.06 76.8404 176.075 76.6704 176.075ZM77.3654 174.645C77.3587 174.418 77.2837 174.243 77.1404 174.12C77.0004 173.993 76.8004 173.93 76.5404 173.93C76.2871 173.93 76.0904 173.995 75.9504 174.125C75.8104 174.255 75.7371 174.428 75.7304 174.645H77.3654ZM79.3924 173.6H79.8824V174.03C79.9824 173.883 80.1224 173.775 80.3024 173.705C80.4857 173.635 80.6974 173.6 80.9374 173.6V173.995C80.6807 173.995 80.4607 174.037 80.2774 174.12C80.094 174.203 79.9674 174.335 79.8974 174.515V176H79.3924V173.6ZM86.165 176.075C85.9217 176.075 85.7334 176.005 85.6 175.865C85.47 175.725 85.405 175.527 85.405 175.27V173.99H85.04V173.6H85.405V172.88H85.915V173.6H86.505V173.99H85.915V175.235C85.915 175.395 85.945 175.508 86.005 175.575C86.0684 175.642 86.1817 175.675 86.345 175.675C86.4417 175.675 86.5384 175.653 86.635 175.61V176.01C86.5084 176.053 86.3517 176.075 86.165 176.075ZM88.1102 172.305H88.6152V173.93C88.8452 173.66 89.1518 173.525 89.5352 173.525C89.8552 173.525 90.0935 173.61 90.2502 173.78C90.4068 173.95 90.4852 174.178 90.4852 174.465V176H89.9802V174.515C89.9802 174.125 89.7935 173.93 89.4202 173.93C89.2602 173.93 89.1102 173.968 88.9702 174.045C88.8335 174.118 88.7152 174.232 88.6152 174.385V176H88.1102V172.305ZM93.4282 176.075C92.9849 176.075 92.6365 175.965 92.3832 175.745C92.1332 175.522 92.0082 175.208 92.0082 174.805C92.0082 174.412 92.1199 174.1 92.3432 173.87C92.5699 173.64 92.8915 173.525 93.3082 173.525C93.5849 173.525 93.8199 173.578 94.0132 173.685C94.2065 173.788 94.3515 173.933 94.4482 174.12C94.5482 174.303 94.5982 174.513 94.5982 174.75V175H92.4882C92.5049 175.227 92.5999 175.397 92.7732 175.51C92.9499 175.62 93.1882 175.675 93.4882 175.675C93.6415 175.675 93.7965 175.662 93.9532 175.635C94.1099 175.605 94.2482 175.567 94.3682 175.52V175.925C94.2615 175.968 94.1199 176.003 93.9432 176.03C93.7699 176.06 93.5982 176.075 93.4282 176.075ZM94.1232 174.645C94.1165 174.418 94.0415 174.243 93.8982 174.12C93.7582 173.993 93.5582 173.93 93.2982 173.93C93.0449 173.93 92.8482 173.995 92.7082 174.125C92.5682 174.255 92.4949 174.428 92.4882 174.645H94.1232ZM96.1502 173.6H96.6302V173.945C96.7435 173.805 96.8719 173.7 97.0152 173.63C97.1585 173.56 97.3069 173.525 97.4602 173.525C97.6535 173.525 97.8069 173.558 97.9202 173.625C98.0335 173.688 98.1169 173.787 98.1702 173.92C98.2769 173.79 98.4069 173.692 98.5602 173.625C98.7169 173.558 98.8735 173.525 99.0302 173.525C99.3235 173.525 99.5352 173.6 99.6652 173.75C99.7952 173.897 99.8602 174.115 99.8602 174.405V176H99.3702V174.47C99.3702 174.273 99.3335 174.135 99.2602 174.055C99.1869 173.972 99.0619 173.93 98.8852 173.93C98.6319 173.93 98.4252 174.04 98.2652 174.26C98.2719 174.31 98.2752 174.392 98.2752 174.505V176H97.7852V174.47C97.7852 174.273 97.7519 174.135 97.6852 174.055C97.6185 173.972 97.4985 173.93 97.3252 173.93C97.0719 173.93 96.8452 174.073 96.6452 174.36V176H96.1502V173.6ZM104.632 173.13C104.548 173.13 104.478 173.102 104.422 173.045C104.365 172.988 104.337 172.918 104.337 172.835C104.337 172.752 104.365 172.682 104.422 172.625C104.478 172.568 104.548 172.54 104.632 172.54C104.718 172.54 104.79 172.568 104.847 172.625C104.907 172.682 104.937 172.752 104.937 172.835C104.937 172.918 104.907 172.988 104.847 173.045C104.79 173.102 104.718 173.13 104.632 173.13ZM104.377 173.6H104.892V176H104.377V173.6ZM106.752 173.99H106.387V173.6H106.752V173.13C106.752 172.853 106.83 172.643 106.987 172.5C107.143 172.353 107.353 172.28 107.617 172.28C107.753 172.28 107.882 172.3 108.002 172.34V172.76C107.908 172.717 107.812 172.695 107.712 172.695C107.555 172.695 107.44 172.733 107.367 172.81C107.293 172.883 107.257 173 107.257 173.16V173.6H107.857V173.99H107.257V176H106.752V173.99ZM112.71 176.99C112.53 176.99 112.38 176.972 112.26 176.935V176.54C112.347 176.573 112.453 176.59 112.58 176.59C112.697 176.59 112.788 176.56 112.855 176.5C112.922 176.443 112.982 176.35 113.035 176.22L113.15 175.94L112.1 173.6H112.62L113.42 175.445L114.165 173.6H114.685L113.605 176.27C113.505 176.52 113.385 176.702 113.245 176.815C113.108 176.932 112.93 176.99 112.71 176.99ZM117.072 176.075C116.802 176.075 116.564 176.025 116.357 175.925C116.154 175.822 115.994 175.675 115.877 175.485C115.764 175.292 115.707 175.065 115.707 174.805C115.707 174.548 115.764 174.323 115.877 174.13C115.991 173.937 116.151 173.788 116.357 173.685C116.564 173.578 116.802 173.525 117.072 173.525C117.342 173.525 117.581 173.578 117.787 173.685C117.994 173.788 118.154 173.937 118.267 174.13C118.384 174.323 118.442 174.548 118.442 174.805C118.442 175.065 118.384 175.292 118.267 175.485C118.154 175.675 117.994 175.822 117.787 175.925C117.581 176.025 117.342 176.075 117.072 176.075ZM117.072 175.675C117.332 175.675 117.539 175.595 117.692 175.435C117.846 175.275 117.922 175.065 117.922 174.805C117.922 174.535 117.846 174.322 117.692 174.165C117.539 174.008 117.332 173.93 117.072 173.93C116.812 173.93 116.606 174.008 116.452 174.165C116.299 174.322 116.222 174.535 116.222 174.805C116.222 175.065 116.299 175.275 116.452 175.435C116.606 175.595 116.812 175.675 117.072 175.675ZM120.946 176.075C120.623 176.075 120.378 175.988 120.211 175.815C120.048 175.642 119.966 175.41 119.966 175.12V173.6H120.471V175.1C120.471 175.483 120.663 175.675 121.046 175.675C121.383 175.675 121.646 175.523 121.836 175.22V173.6H122.341V176H121.851V175.66C121.738 175.803 121.603 175.908 121.446 175.975C121.293 176.042 121.126 176.075 120.946 176.075ZM18.485 184.075C18.245 184.075 18.0283 184.023 17.835 183.92C17.645 183.813 17.495 183.665 17.385 183.475C17.2783 183.282 17.225 183.058 17.225 182.805C17.225 182.555 17.2783 182.333 17.385 182.14C17.495 181.947 17.645 181.797 17.835 181.69C18.0283 181.58 18.245 181.525 18.485 181.525C18.9183 181.525 19.2467 181.657 19.47 181.92V180.305H19.975V184H19.485V183.65C19.3517 183.797 19.205 183.905 19.045 183.975C18.8883 184.042 18.7017 184.075 18.485 184.075ZM18.6 183.675C18.8067 183.675 18.9867 183.622 19.14 183.515C19.2967 183.405 19.4067 183.258 19.47 183.075V182.535C19.4133 182.352 19.305 182.205 19.145 182.095C18.9883 181.985 18.8067 181.93 18.6 181.93C18.4367 181.93 18.2883 181.967 18.155 182.04C18.025 182.113 17.9217 182.217 17.845 182.35C17.7717 182.483 17.735 182.635 17.735 182.805C17.735 182.975 17.7717 183.127 17.845 183.26C17.9217 183.393 18.025 183.497 18.155 183.57C18.2883 183.64 18.4367 183.675 18.6 183.675ZM22.8175 184.075C22.5475 184.075 22.3092 184.025 22.1025 183.925C21.8992 183.822 21.7392 183.675 21.6225 183.485C21.5092 183.292 21.4525 183.065 21.4525 182.805C21.4525 182.548 21.5092 182.323 21.6225 182.13C21.7359 181.937 21.8959 181.788 22.1025 181.685C22.3092 181.578 22.5475 181.525 22.8175 181.525C23.0875 181.525 23.3259 181.578 23.5325 181.685C23.7392 181.788 23.8992 181.937 24.0125 182.13C24.1292 182.323 24.1875 182.548 24.1875 182.805C24.1875 183.065 24.1292 183.292 24.0125 183.485C23.8992 183.675 23.7392 183.822 23.5325 183.925C23.3259 184.025 23.0875 184.075 22.8175 184.075ZM22.8175 183.675C23.0775 183.675 23.2842 183.595 23.4375 183.435C23.5909 183.275 23.6675 183.065 23.6675 182.805C23.6675 182.535 23.5909 182.322 23.4375 182.165C23.2842 182.008 23.0775 181.93 22.8175 181.93C22.5575 181.93 22.3509 182.008 22.1975 182.165C22.0442 182.322 21.9675 182.535 21.9675 182.805C21.9675 183.065 22.0442 183.275 22.1975 183.435C22.3509 183.595 22.5575 183.675 22.8175 183.675ZM25.8711 184C25.8045 184 25.7478 183.978 25.7011 183.935C25.6578 183.888 25.6361 183.832 25.6361 183.765C25.6361 183.698 25.6578 183.642 25.7011 183.595C25.7478 183.548 25.8045 183.525 25.8711 183.525C25.9378 183.525 25.9945 183.548 26.0411 183.595C26.0878 183.642 26.1111 183.698 26.1111 183.765C26.1111 183.832 26.0878 183.888 26.0411 183.935C25.9945 183.978 25.9378 184 25.8711 184Z" fill="black"/>
<rect x="12.25" y="143.25" width="125.5" height="46.5" stroke="#6C6C6C" stroke-width="0.5"/>
<path d="M12.675 27.8H14.22L15.84 33.14L17.445 27.8H18.81L20.415 33.14L22.035 27.8H23.595L21.255 35H19.8L18.135 29.63L16.47 35H15L12.675 27.8ZM28.3854 26.39C28.1354 26.39 27.9254 26.305 27.7554 26.135C27.5854 25.965 27.5004 25.755 27.5004 25.505C27.5004 25.255 27.5854 25.045 27.7554 24.875C27.9254 24.705 28.1354 24.62 28.3854 24.62C28.6454 24.62 28.8604 24.705 29.0304 24.875C29.2104 25.045 29.3004 25.255 29.3004 25.505C29.3004 25.755 29.2104 25.965 29.0304 26.135C28.8604 26.305 28.6454 26.39 28.3854 26.39ZM27.6204 27.8H29.1654V35H27.6204V27.8ZM36.1554 35.225C35.6554 35.225 35.1254 35.16 34.5654 35.03C34.0054 34.91 33.5654 34.745 33.2454 34.535V33.245C33.6354 33.475 34.0854 33.665 34.5954 33.815C35.1054 33.955 35.6004 34.025 36.0804 34.025C36.6204 34.025 37.0154 33.96 37.2654 33.83C37.5154 33.7 37.6404 33.49 37.6404 33.2C37.6404 32.98 37.5804 32.805 37.4604 32.675C37.3504 32.535 37.1554 32.41 36.8754 32.3C36.6054 32.19 36.1954 32.06 35.6454 31.91C35.0554 31.74 34.5854 31.57 34.2354 31.4C33.8954 31.22 33.6354 30.995 33.4554 30.725C33.2854 30.455 33.2004 30.105 33.2004 29.675C33.2004 28.985 33.4704 28.465 34.0104 28.115C34.5604 27.755 35.2954 27.575 36.2154 27.575C36.6954 27.575 37.1654 27.62 37.6254 27.71C38.0854 27.8 38.4554 27.925 38.7354 28.085V29.345C38.4454 29.175 38.0854 29.04 37.6554 28.94C37.2354 28.84 36.8054 28.79 36.3654 28.79C35.8354 28.79 35.4304 28.855 35.1504 28.985C34.8704 29.115 34.7304 29.345 34.7304 29.675C34.7304 29.885 34.7904 30.055 34.9104 30.185C35.0304 30.315 35.2204 30.43 35.4804 30.53C35.7504 30.62 36.1754 30.74 36.7554 30.89C37.6654 31.14 38.2954 31.435 38.6454 31.775C39.0054 32.115 39.1854 32.585 39.1854 33.185C39.1854 33.805 38.9304 34.3 38.4204 34.67C37.9104 35.04 37.1554 35.225 36.1554 35.225ZM47.0493 35.225C45.7193 35.225 44.6743 34.895 43.9143 34.235C43.1643 33.565 42.7893 32.625 42.7893 31.415C42.7893 30.235 43.1243 29.3 43.7943 28.61C44.4743 27.92 45.4393 27.575 46.6893 27.575C47.5193 27.575 48.2243 27.735 48.8043 28.055C49.3843 28.365 49.8193 28.8 50.1093 29.36C50.4093 29.91 50.5593 30.54 50.5593 31.25V32H44.2293C44.2793 32.68 44.5643 33.19 45.0843 33.53C45.6143 33.86 46.3293 34.025 47.2293 34.025C47.6893 34.025 48.1543 33.985 48.6243 33.905C49.0943 33.815 49.5093 33.7 49.8693 33.56V34.775C49.5493 34.905 49.1243 35.01 48.5943 35.09C48.0743 35.18 47.5593 35.225 47.0493 35.225ZM49.1343 30.935C49.1143 30.255 48.8893 29.73 48.4593 29.36C48.0393 28.98 47.4393 28.79 46.6593 28.79C45.8993 28.79 45.3093 28.985 44.8893 29.375C44.4693 29.765 44.2493 30.285 44.2293 30.935H49.1343ZM61.967 27.8H63.512L65.132 33.14L66.737 27.8H68.102L69.707 33.14L71.327 27.8H72.887L70.547 35H69.092L67.427 29.63L65.762 35H64.292L61.967 27.8ZM78.5521 35.225C77.6821 35.225 76.9821 35.005 76.4521 34.565C75.9321 34.115 75.6721 33.51 75.6721 32.75C75.6721 31.95 75.9221 31.335 76.4221 30.905C76.9321 30.465 77.6521 30.245 78.5821 30.245C79.5721 30.245 80.4121 30.445 81.1021 30.845V30.47C81.1021 29.9 80.9271 29.48 80.5771 29.21C80.2371 28.93 79.6971 28.79 78.9571 28.79C78.5171 28.79 78.0871 28.835 77.6671 28.925C77.2571 29.005 76.8871 29.12 76.5571 29.27V28.04C76.8571 27.9 77.2471 27.79 77.7271 27.71C78.2071 27.62 78.6721 27.575 79.1221 27.575C80.3121 27.575 81.1921 27.84 81.7621 28.37C82.3421 28.89 82.6321 29.615 82.6321 30.545V35H81.2071V34.19C80.8971 34.53 80.5271 34.79 80.0971 34.97C79.6771 35.14 79.1621 35.225 78.5521 35.225ZM78.9271 34.07C79.4071 34.07 79.8421 33.975 80.2321 33.785C80.6221 33.595 80.9121 33.33 81.1021 32.99V32.015C80.4521 31.595 79.7271 31.385 78.9271 31.385C78.3471 31.385 77.9121 31.5 77.6221 31.73C77.3421 31.95 77.2021 32.29 77.2021 32.75C77.2021 33.63 77.7771 34.07 78.9271 34.07ZM89.1562 35.225C88.4263 35.225 87.8613 35.015 87.4613 34.595C87.0713 34.175 86.8763 33.58 86.8763 32.81V28.97H85.7813V27.8H86.8763V25.64H88.4063V27.8H90.1763V28.97H88.4063V32.705C88.4063 33.185 88.4963 33.525 88.6763 33.725C88.8663 33.925 89.2063 34.025 89.6963 34.025C89.9863 34.025 90.2763 33.96 90.5663 33.83V35.03C90.1863 35.16 89.7163 35.225 89.1562 35.225ZM98.2016 35.225C96.8716 35.225 95.8266 34.895 95.0666 34.235C94.3166 33.565 93.9416 32.625 93.9416 31.415C93.9416 30.235 94.2766 29.3 94.9466 28.61C95.6266 27.92 96.5916 27.575 97.8416 27.575C98.6716 27.575 99.3766 27.735 99.9566 28.055C100.537 28.365 100.972 28.8 101.262 29.36C101.562 29.91 101.712 30.54 101.712 31.25V32H95.3816C95.4316 32.68 95.7166 33.19 96.2366 33.53C96.7666 33.86 97.4816 34.025 98.3816 34.025C98.8416 34.025 99.3066 33.985 99.7766 33.905C100.247 33.815 100.662 33.7 101.022 33.56V34.775C100.702 34.905 100.277 35.01 99.7466 35.09C99.2266 35.18 98.7116 35.225 98.2016 35.225ZM100.287 30.935C100.267 30.255 100.042 29.73 99.6116 29.36C99.1916 28.98 98.5916 28.79 97.8116 28.79C97.0516 28.79 96.4616 28.985 96.0416 29.375C95.6216 29.765 95.4016 30.285 95.3816 30.935H100.287ZM105.618 27.8H107.088V29.09C107.388 28.65 107.808 28.325 108.348 28.115C108.898 27.905 109.533 27.8 110.253 27.8V28.985C109.483 28.985 108.823 29.11 108.273 29.36C107.723 29.61 107.343 30.005 107.133 30.545V35H105.618V27.8Z" fill="black"/>
<path d="M12.8691 19.0381L17.1807 17.1875V16.4746L12.8691 14.6289V15.5615L16.0283 16.7334L16.3213 16.8262L16.0283 16.9092L12.8691 18.1006V19.0381ZM20.875 19.0381L25.1865 17.1875V16.4746L20.875 14.6289V15.5615L24.0342 16.7334L24.3271 16.8262L24.0342 16.9092L20.875 18.1006V19.0381ZM37.375 20H38.0879L38.9033 16.7627L39.0352 15.9424L39.1719 16.7627L39.9971 20H40.71L41.833 14.7168H41.0322L40.4463 18.0859L40.3145 18.916L40.1729 18.0859L39.333 14.7168H38.752L37.9072 18.0859L37.7754 18.8428L37.668 18.0859L37.0527 14.7168H36.252L37.375 20ZM48.3447 20H49.2871V19.9219C49.2285 19.7754 49.1829 19.6045 49.1504 19.4092C49.1178 19.2106 49.1016 19.0234 49.1016 18.8477V16.3916C49.1016 16.0954 49.0479 15.8366 48.9404 15.6152C48.833 15.3939 48.6865 15.2083 48.501 15.0586C48.3122 14.9121 48.0892 14.8031 47.832 14.7314C47.5749 14.6566 47.2965 14.6191 46.9971 14.6191C46.6683 14.6191 46.3737 14.6647 46.1133 14.7559C45.8561 14.847 45.638 14.9658 45.459 15.1123C45.2767 15.262 45.1367 15.4297 45.0391 15.6152C44.9447 15.8008 44.8958 15.9896 44.8926 16.1816H45.8008C45.8008 16.071 45.8268 15.9652 45.8789 15.8643C45.9342 15.7601 46.0107 15.6706 46.1084 15.5957C46.2061 15.5208 46.3249 15.4606 46.4648 15.415C46.6081 15.3695 46.7692 15.3467 46.9482 15.3467C47.1403 15.3467 47.3128 15.3711 47.4658 15.4199C47.6221 15.4688 47.7539 15.5371 47.8613 15.625C47.9688 15.7161 48.0518 15.8252 48.1104 15.9521C48.1689 16.0791 48.1982 16.2223 48.1982 16.3818V16.7969H47.2119C46.8441 16.7969 46.5104 16.8327 46.2109 16.9043C45.9147 16.9759 45.6608 17.0833 45.4492 17.2266C45.2376 17.373 45.0732 17.5553 44.9561 17.7734C44.8421 17.9915 44.7852 18.2454 44.7852 18.5352C44.7852 18.7565 44.8275 18.9632 44.9121 19.1553C45 19.3441 45.1237 19.5068 45.2832 19.6436C45.4395 19.7835 45.6299 19.8942 45.8545 19.9756C46.0824 20.057 46.3363 20.0977 46.6162 20.0977C46.7887 20.0977 46.9515 20.0798 47.1045 20.0439C47.2575 20.0081 47.4023 19.9593 47.5391 19.8975C47.6725 19.8356 47.7946 19.764 47.9053 19.6826C48.0192 19.6012 48.1217 19.515 48.2129 19.4238C48.2227 19.5345 48.2373 19.6419 48.2568 19.7461C48.2796 19.847 48.3089 19.9316 48.3447 20ZM46.748 19.3115C46.5723 19.3115 46.4176 19.2887 46.2842 19.2432C46.1507 19.1976 46.04 19.1341 45.9521 19.0527C45.8643 18.9746 45.7975 18.8802 45.752 18.7695C45.7096 18.6589 45.6885 18.5384 45.6885 18.4082C45.6885 18.2715 45.7129 18.1494 45.7617 18.042C45.8138 17.9346 45.8887 17.8418 45.9863 17.7637C46.123 17.653 46.307 17.5716 46.5381 17.5195C46.7725 17.4642 47.0459 17.4365 47.3584 17.4365H48.1982V18.5059C48.1462 18.61 48.0745 18.7109 47.9834 18.8086C47.8923 18.903 47.7848 18.9876 47.6611 19.0625C47.5342 19.1374 47.3942 19.1976 47.2412 19.2432C47.0882 19.2887 46.9238 19.3115 46.748 19.3115ZM55.0176 13.4375H54.1094V14.7168H52.7227V15.415H54.1094V18.2861C54.1094 18.6117 54.1517 18.89 54.2363 19.1211C54.3242 19.349 54.443 19.5345 54.5928 19.6777C54.7425 19.8242 54.9183 19.9316 55.1201 20C55.3252 20.0651 55.5449 20.0977 55.7793 20.0977C55.9193 20.0977 56.0592 20.0911 56.1992 20.0781C56.3424 20.0651 56.4775 20.0456 56.6045 20.0195C56.7314 19.9967 56.8486 19.9691 56.9561 19.9365C57.0635 19.9007 57.1546 19.86 57.2295 19.8145L57.1025 19.1748C57.0472 19.1878 56.9756 19.2041 56.8877 19.2236C56.8031 19.2399 56.7119 19.2562 56.6143 19.2725C56.5133 19.2887 56.4108 19.3034 56.3066 19.3164C56.2025 19.3262 56.1016 19.3311 56.0039 19.3311C55.8704 19.3311 55.7435 19.3148 55.623 19.2822C55.5059 19.2497 55.4017 19.1927 55.3105 19.1113C55.2194 19.0332 55.1478 18.9274 55.0957 18.7939C55.0436 18.6605 55.0176 18.4912 55.0176 18.2861V15.415H57.0293V14.7168H55.0176V13.4375ZM63.2188 20.0977C63.7331 20.0977 64.1644 19.9951 64.5127 19.79C64.8643 19.5817 65.1279 19.3441 65.3037 19.0771L64.752 18.6475C64.5859 18.8623 64.3776 19.0348 64.127 19.165C63.8763 19.2952 63.5898 19.3604 63.2676 19.3604C63.0234 19.3604 62.8005 19.3148 62.5986 19.2236C62.3968 19.1325 62.2243 19.0072 62.0811 18.8477C61.9411 18.6979 61.8304 18.5254 61.749 18.3301C61.6709 18.1348 61.6204 17.9085 61.5977 17.6514V17.6172H65.3721V17.2119C65.3721 16.8441 65.3249 16.5023 65.2305 16.1865C65.1393 15.8708 64.9993 15.5957 64.8105 15.3613C64.6217 15.1302 64.3841 14.9495 64.0977 14.8193C63.8145 14.6859 63.4824 14.6191 63.1016 14.6191C62.7988 14.6191 62.5026 14.681 62.2129 14.8047C61.9264 14.9284 61.6709 15.1058 61.4463 15.3369C61.2184 15.5713 61.0361 15.8577 60.8994 16.1963C60.7627 16.5316 60.6943 16.9124 60.6943 17.3389V17.5439C60.6943 17.9118 60.7562 18.252 60.8799 18.5645C61.0036 18.877 61.1761 19.1471 61.3975 19.375C61.6188 19.6029 61.8841 19.7803 62.1934 19.9072C62.5059 20.0342 62.8477 20.0977 63.2188 20.0977ZM63.1016 15.3613C63.3327 15.3613 63.5312 15.4036 63.6973 15.4883C63.8665 15.5729 64.0065 15.6836 64.1172 15.8203C64.2279 15.957 64.3141 16.1198 64.376 16.3086C64.4378 16.4941 64.4688 16.6683 64.4688 16.8311V16.875H61.627C61.6628 16.6309 61.7246 16.416 61.8125 16.2305C61.9036 16.0417 62.0143 15.8822 62.1445 15.752C62.2747 15.625 62.4212 15.529 62.584 15.4639C62.7467 15.3955 62.9193 15.3613 63.1016 15.3613ZM72.3525 14.6191C71.9684 14.6191 71.625 14.7038 71.3223 14.873C71.0228 15.0391 70.7656 15.2669 70.5508 15.5566L70.5459 15.4248L70.5068 14.7168H69.6475V20H70.5557V16.6113C70.6143 16.4486 70.6875 16.3021 70.7754 16.1719C70.8665 16.0384 70.9723 15.9261 71.0928 15.835C71.2262 15.7308 71.3825 15.6527 71.5615 15.6006C71.7406 15.5452 71.9408 15.5176 72.1621 15.5176C72.3346 15.5176 72.499 15.5273 72.6553 15.5469C72.8148 15.5632 72.9824 15.5908 73.1582 15.6299L73.2803 14.7461C73.1891 14.707 73.0524 14.6761 72.8701 14.6533C72.6911 14.6305 72.5186 14.6191 72.3525 14.6191Z" fill="#707070"/>
<path d="M94.7073 87.4762L85.9268 75.9524L77.1463 55L65.0732 71.7619L53 86.4286V106.333L66.1707 121L83.7317 118.905L98 105.286L94.7073 87.4762Z" fill="#0068C8"/>
<path d="M68 97L69.5 85H71V97H68Z" fill="#D9D9D9"/>
<path d="M80 97L78.5 85H77V97H80Z" fill="#D9D9D9"/>
<path opacity="0.6" d="M68 99L63.5 96.5L63 92.5L66 90H70.5L73 93L72.8571 94H75V93L77.5 90L82.5 89.5L84.5 92.5L84 97L81 99H78L75 96.5V94.8546H72.7351L72.5 96.5L68 99Z" fill="#D9D9D9"/>
</svg>
