<svg width="150" height="200" viewBox="0 0 150 200" fill="none" xmlns="http://www.w3.org/2000/svg">
<rect width="150" height="200" fill="white"/>
<path d="M17.325 148.505H17.84V152H17.325V148.505ZM20.377 152.075C20.2103 152.075 20.0337 152.053 19.847 152.01C19.6603 151.97 19.5137 151.915 19.407 151.845V151.415C19.537 151.492 19.687 151.555 19.857 151.605C20.027 151.652 20.192 151.675 20.352 151.675C20.532 151.675 20.6637 151.653 20.747 151.61C20.8303 151.567 20.872 151.497 20.872 151.4C20.872 151.327 20.852 151.268 20.812 151.225C20.7753 151.178 20.7103 151.137 20.617 151.1C20.527 151.063 20.3903 151.02 20.207 150.97C20.0103 150.913 19.8537 150.857 19.737 150.8C19.6237 150.74 19.537 150.665 19.477 150.575C19.4203 150.485 19.392 150.368 19.392 150.225C19.392 149.995 19.482 149.822 19.662 149.705C19.8453 149.585 20.0903 149.525 20.397 149.525C20.557 149.525 20.7137 149.54 20.867 149.57C21.0203 149.6 21.1437 149.642 21.237 149.695V150.115C21.1403 150.058 21.0203 150.013 20.877 149.98C20.737 149.947 20.5937 149.93 20.447 149.93C20.2703 149.93 20.1353 149.952 20.042 149.995C19.9487 150.038 19.902 150.115 19.902 150.225C19.902 150.295 19.922 150.352 19.962 150.395C20.002 150.438 20.0653 150.477 20.152 150.51C20.242 150.54 20.3837 150.58 20.577 150.63C20.8803 150.713 21.0903 150.812 21.207 150.925C21.327 151.038 21.387 151.195 21.387 151.395C21.387 151.602 21.302 151.767 21.132 151.89C20.962 152.013 20.7103 152.075 20.377 152.075ZM26.0839 149.13C26.0005 149.13 25.9305 149.102 25.8739 149.045C25.8172 148.988 25.7889 148.918 25.7889 148.835C25.7889 148.752 25.8172 148.682 25.8739 148.625C25.9305 148.568 26.0005 148.54 26.0839 148.54C26.1705 148.54 26.2422 148.568 26.2989 148.625C26.3589 148.682 26.3889 148.752 26.3889 148.835C26.3889 148.918 26.3589 148.988 26.2989 149.045C26.2422 149.102 26.1705 149.13 26.0839 149.13ZM25.8289 149.6H26.3439V152H25.8289V149.6ZM28.9639 152.075C28.7205 152.075 28.5322 152.005 28.3989 151.865C28.2689 151.725 28.2039 151.527 28.2039 151.27V149.99H27.8389V149.6H28.2039V148.88H28.7139V149.6H29.3039V149.99H28.7139V151.235C28.7139 151.395 28.7439 151.508 28.8039 151.575C28.8672 151.642 28.9805 151.675 29.1439 151.675C29.2405 151.675 29.3372 151.653 29.4339 151.61V152.01C29.3072 152.053 29.1505 152.075 28.9639 152.075ZM35.0796 152.075C34.6362 152.075 34.2879 151.965 34.0346 151.745C33.7846 151.522 33.6596 151.208 33.6596 150.805C33.6596 150.412 33.7712 150.1 33.9946 149.87C34.2212 149.64 34.5429 149.525 34.9596 149.525C35.2362 149.525 35.4712 149.578 35.6646 149.685C35.8579 149.788 36.0029 149.933 36.0996 150.12C36.1996 150.303 36.2496 150.513 36.2496 150.75V151H34.1396C34.1562 151.227 34.2512 151.397 34.4246 151.51C34.6012 151.62 34.8396 151.675 35.1396 151.675C35.2929 151.675 35.4479 151.662 35.6046 151.635C35.7612 151.605 35.8996 151.567 36.0196 151.52V151.925C35.9129 151.968 35.7712 152.003 35.5946 152.03C35.4212 152.06 35.2496 152.075 35.0796 152.075ZM35.7746 150.645C35.7679 150.418 35.6929 150.243 35.5496 150.12C35.4096 149.993 35.2096 149.93 34.9496 149.93C34.6962 149.93 34.4996 149.995 34.3596 150.125C34.2196 150.255 34.1462 150.428 34.1396 150.645H35.7746ZM37.5014 149.6H38.0364L38.7414 151.325L39.4464 149.6H39.9814L38.9614 152H38.5214L37.5014 149.6ZM42.6509 152.075C42.2075 152.075 41.8592 151.965 41.6059 151.745C41.3559 151.522 41.2309 151.208 41.2309 150.805C41.2309 150.412 41.3425 150.1 41.5659 149.87C41.7925 149.64 42.1142 149.525 42.5309 149.525C42.8075 149.525 43.0425 149.578 43.2359 149.685C43.4292 149.788 43.5742 149.933 43.6709 150.12C43.7709 150.303 43.8209 150.513 43.8209 150.75V151H41.7109C41.7275 151.227 41.8225 151.397 41.9959 151.51C42.1725 151.62 42.4109 151.675 42.7109 151.675C42.8642 151.675 43.0192 151.662 43.1759 151.635C43.3325 151.605 43.4709 151.567 43.5909 151.52V151.925C43.4842 151.968 43.3425 152.003 43.1659 152.03C42.9925 152.06 42.8209 152.075 42.6509 152.075ZM43.3459 150.645C43.3392 150.418 43.2642 150.243 43.1209 150.12C42.9809 149.993 42.7809 149.93 42.5209 149.93C42.2675 149.93 42.0709 149.995 41.9309 150.125C41.7909 150.255 41.7175 150.428 41.7109 150.645H43.3459ZM45.3729 149.6H45.8629V149.945C45.9762 149.802 46.1145 149.697 46.2779 149.63C46.4445 149.56 46.6179 149.525 46.7979 149.525C47.1179 149.525 47.3562 149.61 47.5129 149.78C47.6695 149.95 47.7479 150.178 47.7479 150.465V152H47.2429V150.515C47.2429 150.125 47.0562 149.93 46.6829 149.93C46.5229 149.93 46.3729 149.968 46.2329 150.045C46.0962 150.118 45.9779 150.232 45.8779 150.385V152H45.3729V149.6ZM52.1215 149.6H52.6365L53.1765 151.38L53.7115 149.6H54.1665L54.7015 151.38L55.2415 149.6H55.7615L54.9815 152H54.4965L53.9415 150.21L53.3865 152H52.8965L52.1215 149.6ZM57.8998 152.075C57.6098 152.075 57.3765 152.002 57.1998 151.855C57.0265 151.705 56.9398 151.503 56.9398 151.25C56.9398 150.983 57.0232 150.778 57.1898 150.635C57.3598 150.488 57.5998 150.415 57.9098 150.415C58.2398 150.415 58.5198 150.482 58.7498 150.615V150.49C58.7498 150.3 58.6915 150.16 58.5748 150.07C58.4615 149.977 58.2815 149.93 58.0348 149.93C57.8882 149.93 57.7448 149.945 57.6048 149.975C57.4682 150.002 57.3448 150.04 57.2348 150.09V149.68C57.3348 149.633 57.4648 149.597 57.6248 149.57C57.7848 149.54 57.9398 149.525 58.0898 149.525C58.4865 149.525 58.7798 149.613 58.9698 149.79C59.1632 149.963 59.2598 150.205 59.2598 150.515V152H58.7848V151.73C58.6815 151.843 58.5582 151.93 58.4148 151.99C58.2748 152.047 58.1032 152.075 57.8998 152.075ZM58.0248 151.69C58.1848 151.69 58.3298 151.658 58.4598 151.595C58.5898 151.532 58.6865 151.443 58.7498 151.33V151.005C58.5332 150.865 58.2915 150.795 58.0248 150.795C57.8315 150.795 57.6865 150.833 57.5898 150.91C57.4965 150.983 57.4498 151.097 57.4498 151.25C57.4498 151.543 57.6415 151.69 58.0248 151.69ZM61.6846 152.075C61.4412 152.075 61.2529 152.005 61.1196 151.865C60.9896 151.725 60.9246 151.527 60.9246 151.27V149.99H60.5596V149.6H60.9246V148.88H61.4346V149.6H62.0246V149.99H61.4346V151.235C61.4346 151.395 61.4646 151.508 61.5246 151.575C61.5879 151.642 61.7012 151.675 61.8646 151.675C61.9612 151.675 62.0579 151.653 62.1546 151.61V152.01C62.0279 152.053 61.8712 152.075 61.6846 152.075ZM64.9497 152.075C64.5064 152.075 64.158 151.965 63.9047 151.745C63.6547 151.522 63.5297 151.208 63.5297 150.805C63.5297 150.412 63.6414 150.1 63.8647 149.87C64.0914 149.64 64.413 149.525 64.8297 149.525C65.1064 149.525 65.3414 149.578 65.5347 149.685C65.728 149.788 65.873 149.933 65.9697 150.12C66.0697 150.303 66.1197 150.513 66.1197 150.75V151H64.0097C64.0264 151.227 64.1214 151.397 64.2947 151.51C64.4714 151.62 64.7097 151.675 65.0097 151.675C65.163 151.675 65.318 151.662 65.4747 151.635C65.6314 151.605 65.7697 151.567 65.8897 151.52V151.925C65.783 151.968 65.6414 152.003 65.4647 152.03C65.2914 152.06 65.1197 152.075 64.9497 152.075ZM65.6447 150.645C65.638 150.418 65.563 150.243 65.4197 150.12C65.2797 149.993 65.0797 149.93 64.8197 149.93C64.5664 149.93 64.3697 149.995 64.2297 150.125C64.0897 150.255 64.0164 150.428 64.0097 150.645H65.6447ZM67.6717 149.6H68.1617V150.03C68.2617 149.883 68.4017 149.775 68.5817 149.705C68.765 149.635 68.9767 149.6 69.2167 149.6V149.995C68.96 149.995 68.74 150.037 68.5567 150.12C68.3733 150.203 68.2467 150.335 68.1767 150.515V152H67.6717V149.6ZM71.1738 150.9C71.1738 150.697 71.2121 150.527 71.2888 150.39C71.3654 150.253 71.4954 150.122 71.6788 149.995C71.8121 149.902 71.9121 149.828 71.9788 149.775C72.0454 149.718 72.0971 149.657 72.1338 149.59C72.1738 149.52 72.1938 149.438 72.1938 149.345C72.1938 149.195 72.1338 149.077 72.0138 148.99C71.8938 148.903 71.7204 148.86 71.4938 148.86C71.1604 148.86 70.8521 148.927 70.5688 149.06V148.62C70.7021 148.563 70.8471 148.518 71.0037 148.485C71.1638 148.448 71.3271 148.43 71.4938 148.43C71.8604 148.43 72.1521 148.512 72.3688 148.675C72.5854 148.838 72.6938 149.062 72.6938 149.345C72.6938 149.518 72.6488 149.667 72.5588 149.79C72.4688 149.913 72.3271 150.045 72.1338 150.185C71.9938 150.285 71.8938 150.365 71.8338 150.425C71.7738 150.482 71.7304 150.547 71.7038 150.62C71.6771 150.69 71.6637 150.785 71.6637 150.905V151.005H71.1738V150.9ZM71.4138 152.075C71.3304 152.075 71.2604 152.047 71.2038 151.99C71.1471 151.933 71.1188 151.863 71.1188 151.78C71.1188 151.697 71.1471 151.627 71.2038 151.57C71.2604 151.513 71.3304 151.485 71.4138 151.485C71.4971 151.485 71.5671 151.513 71.6238 151.57C71.6838 151.627 71.7138 151.697 71.7138 151.78C71.7138 151.863 71.6838 151.933 71.6238 151.99C71.5671 152.047 71.4971 152.075 71.4138 152.075ZM79.9432 148.505H80.4582V152H79.9432V148.505ZM83.0352 152.075C82.7918 152.075 82.6035 152.005 82.4702 151.865C82.3402 151.725 82.2752 151.527 82.2752 151.27V149.99H81.9102V149.6H82.2752V148.88H82.7852V149.6H83.3752V149.99H82.7852V151.235C82.7852 151.395 82.8152 151.508 82.8752 151.575C82.9385 151.642 83.0518 151.675 83.2152 151.675C83.3118 151.675 83.4085 151.653 83.5052 151.61V152.01C83.3785 152.053 83.2218 152.075 83.0352 152.075ZM88.6909 152.075C88.4009 152.075 88.1675 152.002 87.9909 151.855C87.8175 151.705 87.7309 151.503 87.7309 151.25C87.7309 150.983 87.8142 150.778 87.9809 150.635C88.1509 150.488 88.3909 150.415 88.7009 150.415C89.0309 150.415 89.3109 150.482 89.5409 150.615V150.49C89.5409 150.3 89.4825 150.16 89.3659 150.07C89.2525 149.977 89.0725 149.93 88.8259 149.93C88.6792 149.93 88.5359 149.945 88.3959 149.975C88.2592 150.002 88.1359 150.04 88.0259 150.09V149.68C88.1259 149.633 88.2559 149.597 88.4159 149.57C88.5759 149.54 88.7309 149.525 88.8809 149.525C89.2775 149.525 89.5709 149.613 89.7609 149.79C89.9542 149.963 90.0509 150.205 90.0509 150.515V152H89.5759V151.73C89.4725 151.843 89.3492 151.93 89.2059 151.99C89.0659 152.047 88.8942 152.075 88.6909 152.075ZM88.8159 151.69C88.9759 151.69 89.1209 151.658 89.2509 151.595C89.3809 151.532 89.4775 151.443 89.5409 151.33V151.005C89.3242 150.865 89.0825 150.795 88.8159 150.795C88.6225 150.795 88.4775 150.833 88.3809 150.91C88.2875 150.983 88.2409 151.097 88.2409 151.25C88.2409 151.543 88.4325 151.69 88.8159 151.69ZM91.6775 149.6H92.1675V150.03C92.2675 149.883 92.4075 149.775 92.5875 149.705C92.7709 149.635 92.9825 149.6 93.2225 149.6V149.995C92.9659 149.995 92.7459 150.037 92.5625 150.12C92.3792 150.203 92.2525 150.335 92.1825 150.515V152H91.6775V149.6ZM94.6502 149.6H95.1402V150.03C95.2402 149.883 95.3802 149.775 95.5602 149.705C95.7435 149.635 95.9552 149.6 96.1952 149.6V149.995C95.9385 149.995 95.7185 150.037 95.5352 150.12C95.3519 150.203 95.2252 150.335 95.1552 150.515V152H94.6502V149.6ZM97.9423 149.13C97.8589 149.13 97.7889 149.102 97.7323 149.045C97.6756 148.988 97.6473 148.918 97.6473 148.835C97.6473 148.752 97.6756 148.682 97.7323 148.625C97.7889 148.568 97.8589 148.54 97.9423 148.54C98.0289 148.54 98.1006 148.568 98.1573 148.625C98.2173 148.682 98.2473 148.752 98.2473 148.835C98.2473 148.918 98.2173 148.988 98.1573 149.045C98.1006 149.102 98.0289 149.13 97.9423 149.13ZM97.6873 149.6H98.2023V152H97.6873V149.6ZM99.7973 149.6H100.332L101.037 151.325L101.742 149.6H102.277L101.257 152H100.817L99.7973 149.6ZM104.947 152.075C104.503 152.075 104.155 151.965 103.902 151.745C103.652 151.522 103.527 151.208 103.527 150.805C103.527 150.412 103.638 150.1 103.862 149.87C104.088 149.64 104.41 149.525 104.827 149.525C105.103 149.525 105.338 149.578 105.532 149.685C105.725 149.788 105.87 149.933 105.967 150.12C106.067 150.303 106.117 150.513 106.117 150.75V151H104.007C104.023 151.227 104.118 151.397 104.292 151.51C104.468 151.62 104.707 151.675 105.007 151.675C105.16 151.675 105.315 151.662 105.472 151.635C105.628 151.605 105.767 151.567 105.887 151.52V151.925C105.78 151.968 105.638 152.003 105.462 152.03C105.288 152.06 105.117 152.075 104.947 152.075ZM105.642 150.645C105.635 150.418 105.56 150.243 105.417 150.12C105.277 149.993 105.077 149.93 104.817 149.93C104.563 149.93 104.367 149.995 104.227 150.125C104.087 150.255 104.013 150.428 104.007 150.645H105.642ZM108.829 152.075C108.589 152.075 108.372 152.023 108.179 151.92C107.989 151.813 107.839 151.665 107.729 151.475C107.622 151.282 107.569 151.058 107.569 150.805C107.569 150.555 107.622 150.333 107.729 150.14C107.839 149.947 107.989 149.797 108.179 149.69C108.372 149.58 108.589 149.525 108.829 149.525C109.262 149.525 109.59 149.657 109.814 149.92V148.305H110.319V152H109.829V151.65C109.695 151.797 109.549 151.905 109.389 151.975C109.232 152.042 109.045 152.075 108.829 152.075ZM108.944 151.675C109.15 151.675 109.33 151.622 109.484 151.515C109.64 151.405 109.75 151.258 109.814 151.075V150.535C109.757 150.352 109.649 150.205 109.489 150.095C109.332 149.985 109.15 149.93 108.944 149.93C108.78 149.93 108.632 149.967 108.499 150.04C108.369 150.113 108.265 150.217 108.189 150.35C108.115 150.483 108.079 150.635 108.079 150.805C108.079 150.975 108.115 151.127 108.189 151.26C108.265 151.393 108.369 151.497 108.499 151.57C108.632 151.64 108.78 151.675 108.944 151.675ZM116.085 152.075C115.815 152.075 115.577 152.025 115.37 151.925C115.167 151.822 115.007 151.675 114.89 151.485C114.777 151.292 114.72 151.065 114.72 150.805C114.72 150.548 114.777 150.323 114.89 150.13C115.003 149.937 115.163 149.788 115.37 149.685C115.577 149.578 115.815 149.525 116.085 149.525C116.355 149.525 116.593 149.578 116.8 149.685C117.007 149.788 117.167 149.937 117.28 150.13C117.397 150.323 117.455 150.548 117.455 150.805C117.455 151.065 117.397 151.292 117.28 151.485C117.167 151.675 117.007 151.822 116.8 151.925C116.593 152.025 116.355 152.075 116.085 152.075ZM116.085 151.675C116.345 151.675 116.552 151.595 116.705 151.435C116.858 151.275 116.935 151.065 116.935 150.805C116.935 150.535 116.858 150.322 116.705 150.165C116.552 150.008 116.345 149.93 116.085 149.93C115.825 149.93 115.618 150.008 115.465 150.165C115.312 150.322 115.235 150.535 115.235 150.805C115.235 151.065 115.312 151.275 115.465 151.435C115.618 151.595 115.825 151.675 116.085 151.675ZM119.004 149.6H119.494V149.945C119.607 149.802 119.745 149.697 119.909 149.63C120.075 149.56 120.249 149.525 120.429 149.525C120.749 149.525 120.987 149.61 121.144 149.78C121.3 149.95 121.379 150.178 121.379 150.465V152H120.874V150.515C120.874 150.125 120.687 149.93 120.314 149.93C120.154 149.93 120.004 149.968 119.864 150.045C119.727 150.118 119.609 150.232 119.509 150.385V152H119.004V149.6ZM126.712 152.075C126.422 152.075 126.189 152.002 126.012 151.855C125.839 151.705 125.752 151.503 125.752 151.25C125.752 150.983 125.836 150.778 126.002 150.635C126.172 150.488 126.412 150.415 126.722 150.415C127.052 150.415 127.332 150.482 127.562 150.615V150.49C127.562 150.3 127.504 150.16 127.387 150.07C127.274 149.977 127.094 149.93 126.847 149.93C126.701 149.93 126.557 149.945 126.417 149.975C126.281 150.002 126.157 150.04 126.047 150.09V149.68C126.147 149.633 126.277 149.597 126.437 149.57C126.597 149.54 126.752 149.525 126.902 149.525C127.299 149.525 127.592 149.613 127.782 149.79C127.976 149.963 128.072 150.205 128.072 150.515V152H127.597V151.73C127.494 151.843 127.371 151.93 127.227 151.99C127.087 152.047 126.916 152.075 126.712 152.075ZM126.837 151.69C126.997 151.69 127.142 151.658 127.272 151.595C127.402 151.532 127.499 151.443 127.562 151.33V151.005C127.346 150.865 127.104 150.795 126.837 150.795C126.644 150.795 126.499 150.833 126.402 150.91C126.309 150.983 126.262 151.097 126.262 151.25C126.262 151.543 126.454 151.69 126.837 151.69ZM129.699 149.6H130.189V149.945C130.302 149.802 130.441 149.697 130.604 149.63C130.771 149.56 130.944 149.525 131.124 149.525C131.444 149.525 131.682 149.61 131.839 149.78C131.996 149.95 132.074 150.178 132.074 150.465V152H131.569V150.515C131.569 150.125 131.382 149.93 131.009 149.93C130.849 149.93 130.699 149.968 130.559 150.045C130.422 150.118 130.304 150.232 130.204 150.385V152H129.699V149.6ZM18.185 160.075C17.895 160.075 17.6617 160.002 17.485 159.855C17.3117 159.705 17.225 159.503 17.225 159.25C17.225 158.983 17.3083 158.778 17.475 158.635C17.645 158.488 17.885 158.415 18.195 158.415C18.525 158.415 18.805 158.482 19.035 158.615V158.49C19.035 158.3 18.9767 158.16 18.86 158.07C18.7467 157.977 18.5667 157.93 18.32 157.93C18.1733 157.93 18.03 157.945 17.89 157.975C17.7533 158.002 17.63 158.04 17.52 158.09V157.68C17.62 157.633 17.75 157.597 17.91 157.57C18.07 157.54 18.225 157.525 18.375 157.525C18.7717 157.525 19.065 157.613 19.255 157.79C19.4483 157.963 19.545 158.205 19.545 158.515V160H19.07V159.73C18.9667 159.843 18.8433 159.93 18.7 159.99C18.56 160.047 18.3883 160.075 18.185 160.075ZM18.31 159.69C18.47 159.69 18.615 159.658 18.745 159.595C18.875 159.532 18.9717 159.443 19.035 159.33V159.005C18.8183 158.865 18.5767 158.795 18.31 158.795C18.1167 158.795 17.9717 158.833 17.875 158.91C17.7817 158.983 17.735 159.097 17.735 159.25C17.735 159.543 17.9267 159.69 18.31 159.69ZM21.9834 160.075C21.8168 160.075 21.6401 160.053 21.4534 160.01C21.2668 159.97 21.1201 159.915 21.0134 159.845V159.415C21.1434 159.492 21.2934 159.555 21.4634 159.605C21.6334 159.652 21.7984 159.675 21.9584 159.675C22.1384 159.675 22.2701 159.653 22.3534 159.61C22.4368 159.567 22.4784 159.497 22.4784 159.4C22.4784 159.327 22.4584 159.268 22.4184 159.225C22.3818 159.178 22.3168 159.137 22.2234 159.1C22.1334 159.063 21.9968 159.02 21.8134 158.97C21.6168 158.913 21.4601 158.857 21.3434 158.8C21.2301 158.74 21.1434 158.665 21.0834 158.575C21.0268 158.485 20.9984 158.368 20.9984 158.225C20.9984 157.995 21.0884 157.822 21.2684 157.705C21.4518 157.585 21.6968 157.525 22.0034 157.525C22.1634 157.525 22.3201 157.54 22.4734 157.57C22.6268 157.6 22.7501 157.642 22.8434 157.695V158.115C22.7468 158.058 22.6268 158.013 22.4834 157.98C22.3434 157.947 22.2001 157.93 22.0534 157.93C21.8768 157.93 21.7418 157.952 21.6484 157.995C21.5551 158.038 21.5084 158.115 21.5084 158.225C21.5084 158.295 21.5284 158.352 21.5684 158.395C21.6084 158.438 21.6718 158.477 21.7584 158.51C21.8484 158.54 21.9901 158.58 22.1834 158.63C22.4868 158.713 22.6968 158.812 22.8134 158.925C22.9334 159.038 22.9934 159.195 22.9934 159.395C22.9934 159.602 22.9084 159.767 22.7384 159.89C22.5684 160.013 22.3168 160.075 21.9834 160.075ZM25.3965 160.075C25.1532 160.075 24.9648 160.005 24.8315 159.865C24.7015 159.725 24.6365 159.527 24.6365 159.27V157.99H24.2715V157.6H24.6365V156.88H25.1465V157.6H25.7365V157.99H25.1465V159.235C25.1465 159.395 25.1765 159.508 25.2365 159.575C25.2998 159.642 25.4132 159.675 25.5765 159.675C25.6732 159.675 25.7698 159.653 25.8665 159.61V160.01C25.7398 160.053 25.5832 160.075 25.3965 160.075ZM28.6616 160.075C28.2183 160.075 27.8699 159.965 27.6166 159.745C27.3666 159.522 27.2416 159.208 27.2416 158.805C27.2416 158.412 27.3533 158.1 27.5766 157.87C27.8033 157.64 28.1249 157.525 28.5416 157.525C28.8183 157.525 29.0533 157.578 29.2466 157.685C29.4399 157.788 29.5849 157.933 29.6816 158.12C29.7816 158.303 29.8316 158.513 29.8316 158.75V159H27.7216C27.7383 159.227 27.8333 159.397 28.0066 159.51C28.1833 159.62 28.4216 159.675 28.7216 159.675C28.8749 159.675 29.0299 159.662 29.1866 159.635C29.3433 159.605 29.4816 159.567 29.6016 159.52V159.925C29.4949 159.968 29.3533 160.003 29.1766 160.03C29.0033 160.06 28.8316 160.075 28.6616 160.075ZM29.3566 158.645C29.3499 158.418 29.2749 158.243 29.1316 158.12C28.9916 157.993 28.7916 157.93 28.5316 157.93C28.2783 157.93 28.0816 157.995 27.9416 158.125C27.8016 158.255 27.7283 158.428 27.7216 158.645H29.3566ZM31.3836 157.6H31.8736V158.03C31.9736 157.883 32.1136 157.775 32.2936 157.705C32.4769 157.635 32.6886 157.6 32.9286 157.6V157.995C32.6719 157.995 32.4519 158.037 32.2686 158.12C32.0853 158.203 31.9586 158.335 31.8886 158.515V160H31.3836V157.6ZM35.5724 160.075C35.3024 160.075 35.0641 160.025 34.8574 159.925C34.6541 159.822 34.4941 159.675 34.3774 159.485C34.2641 159.292 34.2074 159.065 34.2074 158.805C34.2074 158.548 34.2641 158.323 34.3774 158.13C34.4908 157.937 34.6508 157.788 34.8574 157.685C35.0641 157.578 35.3024 157.525 35.5724 157.525C35.8424 157.525 36.0808 157.578 36.2874 157.685C36.4941 157.788 36.6541 157.937 36.7674 158.13C36.8841 158.323 36.9424 158.548 36.9424 158.805C36.9424 159.065 36.8841 159.292 36.7674 159.485C36.6541 159.675 36.4941 159.822 36.2874 159.925C36.0808 160.025 35.8424 160.075 35.5724 160.075ZM35.5724 159.675C35.8324 159.675 36.0391 159.595 36.1924 159.435C36.3458 159.275 36.4224 159.065 36.4224 158.805C36.4224 158.535 36.3458 158.322 36.1924 158.165C36.0391 158.008 35.8324 157.93 35.5724 157.93C35.3124 157.93 35.1058 158.008 34.9524 158.165C34.7991 158.322 34.7224 158.535 34.7224 158.805C34.7224 159.065 34.7991 159.275 34.9524 159.435C35.1058 159.595 35.3124 159.675 35.5724 159.675ZM38.786 157.13C38.7027 157.13 38.6327 157.102 38.576 157.045C38.5193 156.988 38.491 156.918 38.491 156.835C38.491 156.752 38.5193 156.682 38.576 156.625C38.6327 156.568 38.7027 156.54 38.786 156.54C38.8727 156.54 38.9443 156.568 39.001 156.625C39.061 156.682 39.091 156.752 39.091 156.835C39.091 156.918 39.061 156.988 39.001 157.045C38.9443 157.102 38.8727 157.13 38.786 157.13ZM38.531 157.6H39.046V160H38.531V157.6ZM41.901 160.075C41.661 160.075 41.4443 160.023 41.251 159.92C41.061 159.813 40.911 159.665 40.801 159.475C40.6943 159.282 40.641 159.058 40.641 158.805C40.641 158.555 40.6943 158.333 40.801 158.14C40.911 157.947 41.061 157.797 41.251 157.69C41.4443 157.58 41.661 157.525 41.901 157.525C42.3343 157.525 42.6627 157.657 42.886 157.92V156.305H43.391V160H42.901V159.65C42.7677 159.797 42.621 159.905 42.461 159.975C42.3043 160.042 42.1177 160.075 41.901 160.075ZM42.016 159.675C42.2227 159.675 42.4027 159.622 42.556 159.515C42.7127 159.405 42.8227 159.258 42.886 159.075V158.535C42.8293 158.352 42.721 158.205 42.561 158.095C42.4043 157.985 42.2227 157.93 42.016 157.93C41.8527 157.93 41.7043 157.967 41.571 158.04C41.441 158.113 41.3377 158.217 41.261 158.35C41.1877 158.483 41.151 158.635 41.151 158.805C41.151 158.975 41.1877 159.127 41.261 159.26C41.3377 159.393 41.441 159.497 41.571 159.57C41.7043 159.64 41.8527 159.675 42.016 159.675ZM48.0574 157.99H47.6924V157.6H48.0574V157.13C48.0574 156.853 48.1357 156.643 48.2924 156.5C48.449 156.353 48.659 156.28 48.9224 156.28C49.059 156.28 49.1874 156.3 49.3074 156.34V156.76C49.214 156.717 49.1174 156.695 49.0174 156.695C48.8607 156.695 48.7457 156.733 48.6724 156.81C48.599 156.883 48.5624 157 48.5624 157.16V157.6H49.1624V157.99H48.5624V160H48.0574V157.99ZM50.6307 157.6H51.1207V158.03C51.2207 157.883 51.3607 157.775 51.5407 157.705C51.724 157.635 51.9357 157.6 52.1757 157.6V157.995C51.919 157.995 51.699 158.037 51.5157 158.12C51.3323 158.203 51.2057 158.335 51.1357 158.515V160H50.6307V157.6ZM54.8195 160.075C54.5495 160.075 54.3112 160.025 54.1045 159.925C53.9012 159.822 53.7412 159.675 53.6245 159.485C53.5112 159.292 53.4545 159.065 53.4545 158.805C53.4545 158.548 53.5112 158.323 53.6245 158.13C53.7378 157.937 53.8978 157.788 54.1045 157.685C54.3112 157.578 54.5495 157.525 54.8195 157.525C55.0895 157.525 55.3278 157.578 55.5345 157.685C55.7412 157.788 55.9012 157.937 56.0145 158.13C56.1312 158.323 56.1895 158.548 56.1895 158.805C56.1895 159.065 56.1312 159.292 56.0145 159.485C55.9012 159.675 55.7412 159.822 55.5345 159.925C55.3278 160.025 55.0895 160.075 54.8195 160.075ZM54.8195 159.675C55.0795 159.675 55.2862 159.595 55.4395 159.435C55.5928 159.275 55.6695 159.065 55.6695 158.805C55.6695 158.535 55.5928 158.322 55.4395 158.165C55.2862 158.008 55.0795 157.93 54.8195 157.93C54.5595 157.93 54.3528 158.008 54.1995 158.165C54.0462 158.322 53.9695 158.535 53.9695 158.805C53.9695 159.065 54.0462 159.275 54.1995 159.435C54.3528 159.595 54.5595 159.675 54.8195 159.675ZM57.7381 157.6H58.2181V157.945C58.3314 157.805 58.4598 157.7 58.6031 157.63C58.7464 157.56 58.8948 157.525 59.0481 157.525C59.2414 157.525 59.3948 157.558 59.5081 157.625C59.6214 157.688 59.7048 157.787 59.7581 157.92C59.8648 157.79 59.9948 157.692 60.1481 157.625C60.3048 157.558 60.4614 157.525 60.6181 157.525C60.9114 157.525 61.1231 157.6 61.2531 157.75C61.3831 157.897 61.4481 158.115 61.4481 158.405V160H60.9581V158.47C60.9581 158.273 60.9214 158.135 60.8481 158.055C60.7748 157.972 60.6498 157.93 60.4731 157.93C60.2198 157.93 60.0131 158.04 59.8531 158.26C59.8598 158.31 59.8631 158.392 59.8631 158.505V160H59.3731V158.47C59.3731 158.273 59.3398 158.135 59.2731 158.055C59.2064 157.972 59.0864 157.93 58.9131 157.93C58.6598 157.93 58.4331 158.073 58.2331 158.36V160H57.7381V157.6ZM66.7846 160.075C66.4946 160.075 66.2613 160.002 66.0846 159.855C65.9113 159.705 65.8246 159.503 65.8246 159.25C65.8246 158.983 65.9079 158.778 66.0746 158.635C66.2446 158.488 66.4846 158.415 66.7946 158.415C67.1246 158.415 67.4046 158.482 67.6346 158.615V158.49C67.6346 158.3 67.5763 158.16 67.4596 158.07C67.3463 157.977 67.1663 157.93 66.9196 157.93C66.7729 157.93 66.6296 157.945 66.4896 157.975C66.3529 158.002 66.2296 158.04 66.1196 158.09V157.68C66.2196 157.633 66.3496 157.597 66.5096 157.57C66.6696 157.54 66.8246 157.525 66.9746 157.525C67.3713 157.525 67.6646 157.613 67.8546 157.79C68.0479 157.963 68.1446 158.205 68.1446 158.515V160H67.6696V159.73C67.5663 159.843 67.4429 159.93 67.2996 159.99C67.1596 160.047 66.9879 160.075 66.7846 160.075ZM66.9096 159.69C67.0696 159.69 67.2146 159.658 67.3446 159.595C67.4746 159.532 67.5713 159.443 67.6346 159.33V159.005C67.4179 158.865 67.1763 158.795 66.9096 158.795C66.7163 158.795 66.5713 158.833 66.4746 158.91C66.3813 158.983 66.3346 159.097 66.3346 159.25C66.3346 159.543 66.5263 159.69 66.9096 159.69ZM72.7869 157.99H72.4219V157.6H72.7869V157.13C72.7869 156.853 72.8652 156.643 73.0219 156.5C73.1785 156.353 73.3885 156.28 73.6519 156.28C73.7885 156.28 73.9169 156.3 74.0369 156.34V156.76C73.9435 156.717 73.8469 156.695 73.7469 156.695C73.5902 156.695 73.4752 156.733 73.4019 156.81C73.3285 156.883 73.2919 157 73.2919 157.16V157.6H73.8919V157.99H73.2919V160H72.7869V157.99ZM76.4738 160.075C76.2038 160.075 75.9655 160.025 75.7588 159.925C75.5555 159.822 75.3955 159.675 75.2788 159.485C75.1655 159.292 75.1088 159.065 75.1088 158.805C75.1088 158.548 75.1655 158.323 75.2788 158.13C75.3921 157.937 75.5521 157.788 75.7588 157.685C75.9655 157.578 76.2038 157.525 76.4738 157.525C76.7438 157.525 76.9821 157.578 77.1888 157.685C77.3955 157.788 77.5555 157.937 77.6688 158.13C77.7855 158.323 77.8438 158.548 77.8438 158.805C77.8438 159.065 77.7855 159.292 77.6688 159.485C77.5555 159.675 77.3955 159.822 77.1888 159.925C76.9821 160.025 76.7438 160.075 76.4738 160.075ZM76.4738 159.675C76.7338 159.675 76.9405 159.595 77.0938 159.435C77.2471 159.275 77.3238 159.065 77.3238 158.805C77.3238 158.535 77.2471 158.322 77.0938 158.165C76.9405 158.008 76.7338 157.93 76.4738 157.93C76.2138 157.93 76.0071 158.008 75.8538 158.165C75.7005 158.322 75.6238 158.535 75.6238 158.805C75.6238 159.065 75.7005 159.275 75.8538 159.435C76.0071 159.595 76.2138 159.675 76.4738 159.675ZM79.3924 157.6H79.8824V158.03C79.9824 157.883 80.1224 157.775 80.3024 157.705C80.4857 157.635 80.6974 157.6 80.9374 157.6V157.995C80.6807 157.995 80.4607 158.037 80.2774 158.12C80.094 158.203 79.9674 158.335 79.8974 158.515V160H79.3924V157.6ZM83.5581 160.075C83.1148 160.075 82.7664 159.965 82.5131 159.745C82.2631 159.522 82.1381 159.208 82.1381 158.805C82.1381 158.412 82.2498 158.1 82.4731 157.87C82.6998 157.64 83.0214 157.525 83.4381 157.525C83.7148 157.525 83.9498 157.578 84.1431 157.685C84.3364 157.788 84.4814 157.933 84.5781 158.12C84.6781 158.303 84.7281 158.513 84.7281 158.75V159H82.6181C82.6348 159.227 82.7298 159.397 82.9031 159.51C83.0798 159.62 83.3181 159.675 83.6181 159.675C83.7714 159.675 83.9264 159.662 84.0831 159.635C84.2398 159.605 84.3781 159.567 84.4981 159.52V159.925C84.3914 159.968 84.2498 160.003 84.0731 160.03C83.8998 160.06 83.7281 160.075 83.5581 160.075ZM84.2531 158.645C84.2464 158.418 84.1714 158.243 84.0281 158.12C83.8881 157.993 83.6881 157.93 83.4281 157.93C83.1748 157.93 82.9781 157.995 82.8381 158.125C82.6981 158.255 82.6248 158.428 82.6181 158.645H84.2531ZM86.5751 157.13C86.4917 157.13 86.4217 157.102 86.3651 157.045C86.3084 156.988 86.2801 156.918 86.2801 156.835C86.2801 156.752 86.3084 156.682 86.3651 156.625C86.4217 156.568 86.4917 156.54 86.5751 156.54C86.6617 156.54 86.7334 156.568 86.7901 156.625C86.8501 156.682 86.8801 156.752 86.8801 156.835C86.8801 156.918 86.8501 156.988 86.7901 157.045C86.7334 157.102 86.6617 157.13 86.5751 157.13ZM86.3201 157.6H86.8351V160H86.3201V157.6ZM89.7851 161.15C89.6217 161.15 89.4617 161.137 89.3051 161.11C89.1517 161.083 89.0217 161.045 88.9151 160.995V160.58C89.1651 160.693 89.4551 160.75 89.7851 160.75C90.0951 160.75 90.3201 160.682 90.4601 160.545C90.6034 160.412 90.6751 160.208 90.6751 159.935V159.68C90.4551 159.943 90.1317 160.075 89.7051 160.075C89.4617 160.075 89.2434 160.022 89.0501 159.915C88.8567 159.808 88.7051 159.658 88.5951 159.465C88.4851 159.272 88.4301 159.05 88.4301 158.8C88.4301 158.547 88.4834 158.325 88.5901 158.135C88.7001 157.942 88.8501 157.792 89.0401 157.685C89.2334 157.578 89.4501 157.525 89.6901 157.525C89.9134 157.525 90.1017 157.558 90.2551 157.625C90.4117 157.688 90.5567 157.795 90.6901 157.945V157.6H91.1801V159.88C91.1801 160.29 91.0651 160.603 90.8351 160.82C90.6084 161.04 90.2584 161.15 89.7851 161.15ZM89.8051 159.675C90.0117 159.675 90.1934 159.62 90.3501 159.51C90.5101 159.4 90.6184 159.253 90.6751 159.07V158.53C90.6117 158.343 90.5017 158.197 90.3451 158.09C90.1917 157.983 90.0117 157.93 89.8051 157.93C89.6417 157.93 89.4934 157.967 89.3601 158.04C89.2301 158.11 89.1267 158.212 89.0501 158.345C88.9767 158.478 88.9401 158.63 88.9401 158.8C88.9401 158.973 88.9767 159.127 89.0501 159.26C89.1267 159.39 89.2301 159.492 89.3601 159.565C89.4934 159.638 89.6417 159.675 89.8051 159.675ZM92.8309 157.6H93.3209V157.945C93.4342 157.802 93.5725 157.697 93.7359 157.63C93.9025 157.56 94.0759 157.525 94.2559 157.525C94.5759 157.525 94.8142 157.61 94.9709 157.78C95.1275 157.95 95.2059 158.178 95.2059 158.465V160H94.7009V158.515C94.7009 158.125 94.5142 157.93 94.1409 157.93C93.9809 157.93 93.8309 157.968 93.6909 158.045C93.5542 158.118 93.4359 158.232 93.3359 158.385V160H92.8309V157.6ZM99.6795 157.6H100.169V157.955C100.416 157.668 100.749 157.525 101.169 157.525C101.409 157.525 101.624 157.578 101.814 157.685C102.008 157.792 102.158 157.942 102.264 158.135C102.374 158.325 102.429 158.547 102.429 158.8C102.429 159.05 102.374 159.272 102.264 159.465C102.158 159.658 102.009 159.808 101.819 159.915C101.629 160.022 101.413 160.075 101.169 160.075C100.969 160.075 100.783 160.042 100.609 159.975C100.436 159.908 100.294 159.81 100.184 159.68V161.095H99.6795V157.6ZM101.054 159.675C101.218 159.675 101.364 159.64 101.494 159.57C101.628 159.497 101.731 159.393 101.804 159.26C101.881 159.127 101.919 158.973 101.919 158.8C101.919 158.627 101.881 158.475 101.804 158.345C101.731 158.212 101.628 158.11 101.494 158.04C101.364 157.967 101.218 157.93 101.054 157.93C100.851 157.93 100.671 157.983 100.514 158.09C100.361 158.197 100.251 158.343 100.184 158.53V159.07C100.241 159.253 100.349 159.4 100.509 159.51C100.669 159.62 100.851 159.675 101.054 159.675ZM103.98 156.305H104.485V160H103.98V156.305ZM106.998 160.075C106.708 160.075 106.474 160.002 106.298 159.855C106.124 159.705 106.038 159.503 106.038 159.25C106.038 158.983 106.121 158.778 106.288 158.635C106.458 158.488 106.698 158.415 107.008 158.415C107.338 158.415 107.618 158.482 107.848 158.615V158.49C107.848 158.3 107.789 158.16 107.673 158.07C107.559 157.977 107.379 157.93 107.132 157.93C106.986 157.93 106.843 157.945 106.703 157.975C106.566 158.002 106.443 158.04 106.333 158.09V157.68C106.433 157.633 106.563 157.597 106.723 157.57C106.883 157.54 107.038 157.525 107.188 157.525C107.584 157.525 107.878 157.613 108.068 157.79C108.261 157.963 108.358 158.205 108.358 158.515V160H107.883V159.73C107.779 159.843 107.656 159.93 107.513 159.99C107.373 160.047 107.201 160.075 106.998 160.075ZM107.123 159.69C107.283 159.69 107.428 159.658 107.558 159.595C107.688 159.532 107.784 159.443 107.848 159.33V159.005C107.631 158.865 107.389 158.795 107.123 158.795C106.929 158.795 106.784 158.833 106.688 158.91C106.594 158.983 106.547 159.097 106.547 159.25C106.547 159.543 106.739 159.69 107.123 159.69ZM109.984 157.6H110.474V157.945C110.588 157.802 110.726 157.697 110.889 157.63C111.056 157.56 111.229 157.525 111.409 157.525C111.729 157.525 111.968 157.61 112.124 157.78C112.281 157.95 112.359 158.178 112.359 158.465V160H111.854V158.515C111.854 158.125 111.668 157.93 111.294 157.93C111.134 157.93 110.984 157.968 110.844 158.045C110.708 158.118 110.589 158.232 110.489 158.385V160H109.984V157.6ZM115.302 160.075C114.859 160.075 114.511 159.965 114.257 159.745C114.007 159.522 113.882 159.208 113.882 158.805C113.882 158.412 113.994 158.1 114.217 157.87C114.444 157.64 114.766 157.525 115.182 157.525C115.459 157.525 115.694 157.578 115.887 157.685C116.081 157.788 116.226 157.933 116.322 158.12C116.422 158.303 116.472 158.513 116.472 158.75V159H114.362C114.379 159.227 114.474 159.397 114.647 159.51C114.824 159.62 115.062 159.675 115.362 159.675C115.516 159.675 115.671 159.662 115.827 159.635C115.984 159.605 116.122 159.567 116.242 159.52V159.925C116.136 159.968 115.994 160.003 115.817 160.03C115.644 160.06 115.472 160.075 115.302 160.075ZM115.997 158.645C115.991 158.418 115.916 158.243 115.772 158.12C115.632 157.993 115.432 157.93 115.172 157.93C114.919 157.93 114.722 157.995 114.582 158.125C114.442 158.255 114.369 158.428 114.362 158.645H115.997ZM118.949 160.075C118.706 160.075 118.518 160.005 118.384 159.865C118.254 159.725 118.189 159.527 118.189 159.27V157.99H117.824V157.6H118.189V156.88H118.699V157.6H119.289V157.99H118.699V159.235C118.699 159.395 118.729 159.508 118.789 159.575C118.853 159.642 118.966 159.675 119.129 159.675C119.226 159.675 119.323 159.653 119.419 159.61V160.01C119.293 160.053 119.136 160.075 118.949 160.075ZM121.029 160C120.963 160 120.906 159.978 120.859 159.935C120.816 159.888 120.794 159.832 120.794 159.765C120.794 159.698 120.816 159.642 120.859 159.595C120.906 159.548 120.963 159.525 121.029 159.525C121.096 159.525 121.153 159.548 121.199 159.595C121.246 159.642 121.269 159.698 121.269 159.765C121.269 159.832 121.246 159.888 121.199 159.935C121.153 159.978 121.096 160 121.029 160ZM18.21 164.935H17.125V164.505H19.81V164.935H18.725V168H18.21V164.935ZM21.2596 164.305H21.7646V165.93C21.9946 165.66 22.3012 165.525 22.6846 165.525C23.0046 165.525 23.2429 165.61 23.3996 165.78C23.5562 165.95 23.6346 166.178 23.6346 166.465V168H23.1296V166.515C23.1296 166.125 22.9429 165.93 22.5696 165.93C22.4096 165.93 22.2596 165.968 22.1196 166.045C21.9829 166.118 21.8646 166.232 21.7646 166.385V168H21.2596V164.305ZM25.5526 165.13C25.4693 165.13 25.3993 165.102 25.3426 165.045C25.286 164.988 25.2576 164.918 25.2576 164.835C25.2576 164.752 25.286 164.682 25.3426 164.625C25.3993 164.568 25.4693 164.54 25.5526 164.54C25.6393 164.54 25.711 164.568 25.7676 164.625C25.8276 164.682 25.8576 164.752 25.8576 164.835C25.8576 164.918 25.8276 164.988 25.7676 165.045C25.711 165.102 25.6393 165.13 25.5526 165.13ZM25.2976 165.6H25.8126V168H25.2976V165.6ZM28.3926 168.075C28.226 168.075 28.0493 168.053 27.8626 168.01C27.676 167.97 27.5293 167.915 27.4226 167.845V167.415C27.5526 167.492 27.7026 167.555 27.8726 167.605C28.0426 167.652 28.2076 167.675 28.3676 167.675C28.5476 167.675 28.6793 167.653 28.7626 167.61C28.846 167.567 28.8876 167.497 28.8876 167.4C28.8876 167.327 28.8676 167.268 28.8276 167.225C28.791 167.178 28.726 167.137 28.6326 167.1C28.5426 167.063 28.406 167.02 28.2226 166.97C28.026 166.913 27.8693 166.857 27.7526 166.8C27.6393 166.74 27.5526 166.665 27.4926 166.575C27.436 166.485 27.4076 166.368 27.4076 166.225C27.4076 165.995 27.4976 165.822 27.6776 165.705C27.861 165.585 28.106 165.525 28.4126 165.525C28.5726 165.525 28.7293 165.54 28.8826 165.57C29.036 165.6 29.1593 165.642 29.2526 165.695V166.115C29.156 166.058 29.036 166.013 28.8926 165.98C28.7526 165.947 28.6093 165.93 28.4626 165.93C28.286 165.93 28.151 165.952 28.0576 165.995C27.9643 166.038 27.9176 166.115 27.9176 166.225C27.9176 166.295 27.9376 166.352 27.9776 166.395C28.0176 166.438 28.081 166.477 28.1676 166.51C28.2576 166.54 28.3993 166.58 28.5926 166.63C28.896 166.713 29.106 166.812 29.2226 166.925C29.3426 167.038 29.4026 167.195 29.4026 167.395C29.4026 167.602 29.3176 167.767 29.1476 167.89C28.9776 168.013 28.726 168.075 28.3926 168.075ZM34.0995 164.43H34.5095L34.1745 165.405H33.7045L34.0995 164.43ZM34.8945 164.43H35.3045L34.9745 165.405H34.4995L34.8945 164.43ZM36.7553 165.6H37.2703L37.8103 167.38L38.3453 165.6H38.8003L39.3353 167.38L39.8753 165.6H40.3953L39.6153 168H39.1303L38.5753 166.21L38.0203 168H37.5303L36.7553 165.6ZM42.5336 168.075C42.2436 168.075 42.0103 168.002 41.8336 167.855C41.6603 167.705 41.5736 167.503 41.5736 167.25C41.5736 166.983 41.657 166.778 41.8236 166.635C41.9936 166.488 42.2336 166.415 42.5436 166.415C42.8736 166.415 43.1536 166.482 43.3836 166.615V166.49C43.3836 166.3 43.3253 166.16 43.2086 166.07C43.0953 165.977 42.9153 165.93 42.6686 165.93C42.522 165.93 42.3786 165.945 42.2386 165.975C42.102 166.002 41.9786 166.04 41.8686 166.09V165.68C41.9686 165.633 42.0986 165.597 42.2586 165.57C42.4186 165.54 42.5736 165.525 42.7236 165.525C43.1203 165.525 43.4136 165.613 43.6036 165.79C43.797 165.963 43.8936 166.205 43.8936 166.515V168H43.4186V167.73C43.3153 167.843 43.192 167.93 43.0486 167.99C42.9086 168.047 42.737 168.075 42.5336 168.075ZM42.6586 167.69C42.8186 167.69 42.9636 167.658 43.0936 167.595C43.2236 167.532 43.3203 167.443 43.3836 167.33V167.005C43.167 166.865 42.9253 166.795 42.6586 166.795C42.4653 166.795 42.3203 166.833 42.2236 166.91C42.1303 166.983 42.0836 167.097 42.0836 167.25C42.0836 167.543 42.2753 167.69 42.6586 167.69ZM46.3184 168.075C46.075 168.075 45.8867 168.005 45.7534 167.865C45.6234 167.725 45.5584 167.527 45.5584 167.27V165.99H45.1934V165.6H45.5584V164.88H46.0684V165.6H46.6584V165.99H46.0684V167.235C46.0684 167.395 46.0984 167.508 46.1584 167.575C46.2217 167.642 46.335 167.675 46.4984 167.675C46.595 167.675 46.6917 167.653 46.7884 167.61V168.01C46.6617 168.053 46.505 168.075 46.3184 168.075ZM49.5835 168.075C49.1401 168.075 48.7918 167.965 48.5385 167.745C48.2885 167.522 48.1635 167.208 48.1635 166.805C48.1635 166.412 48.2751 166.1 48.4985 165.87C48.7251 165.64 49.0468 165.525 49.4635 165.525C49.7401 165.525 49.9751 165.578 50.1685 165.685C50.3618 165.788 50.5068 165.933 50.6035 166.12C50.7035 166.303 50.7535 166.513 50.7535 166.75V167H48.6435C48.6601 167.227 48.7551 167.397 48.9285 167.51C49.1051 167.62 49.3435 167.675 49.6435 167.675C49.7968 167.675 49.9518 167.662 50.1085 167.635C50.2651 167.605 50.4035 167.567 50.5235 167.52V167.925C50.4168 167.968 50.2751 168.003 50.0985 168.03C49.9251 168.06 49.7535 168.075 49.5835 168.075ZM50.2785 166.645C50.2718 166.418 50.1968 166.243 50.0535 166.12C49.9135 165.993 49.7135 165.93 49.4535 165.93C49.2001 165.93 49.0035 165.995 48.8635 166.125C48.7235 166.255 48.6501 166.428 48.6435 166.645H50.2785ZM52.3055 165.6H52.7955V166.03C52.8955 165.883 53.0355 165.775 53.2155 165.705C53.3988 165.635 53.6105 165.6 53.8505 165.6V165.995C53.5938 165.995 53.3738 166.037 53.1905 166.12C53.0071 166.203 52.8805 166.335 52.8105 166.515V168H52.3055V165.6ZM55.5325 164.43H56.0075L55.6125 165.405H55.2025L55.5325 164.43ZM56.3275 164.43H56.8025L56.4075 165.405H55.9975L56.3275 164.43ZM62.4689 168.075C62.2022 168.075 61.9656 168.025 61.7589 167.925C61.5522 167.825 61.3906 167.68 61.2739 167.49C61.1606 167.297 61.1039 167.068 61.1039 166.805C61.1039 166.542 61.1606 166.315 61.2739 166.125C61.3906 165.932 61.5522 165.783 61.7589 165.68C61.9689 165.577 62.2089 165.525 62.4789 165.525C62.8456 165.525 63.1389 165.597 63.3589 165.74V166.155C63.1422 166.005 62.8656 165.93 62.5289 165.93C62.2556 165.93 62.0339 166.005 61.8639 166.155C61.6972 166.302 61.6139 166.518 61.6139 166.805C61.6139 167.092 61.6972 167.308 61.8639 167.455C62.0306 167.602 62.2489 167.675 62.5189 167.675C62.8556 167.675 63.1456 167.595 63.3889 167.435V167.845C63.2722 167.925 63.1389 167.983 62.9889 168.02C62.8422 168.057 62.6689 168.075 62.4689 168.075ZM66.13 168.075C65.86 168.075 65.6217 168.025 65.415 167.925C65.2117 167.822 65.0517 167.675 64.935 167.485C64.8217 167.292 64.765 167.065 64.765 166.805C64.765 166.548 64.8217 166.323 64.935 166.13C65.0484 165.937 65.2084 165.788 65.415 165.685C65.6217 165.578 65.86 165.525 66.13 165.525C66.4 165.525 66.6384 165.578 66.845 165.685C67.0517 165.788 67.2117 165.937 67.325 166.13C67.4417 166.323 67.5 166.548 67.5 166.805C67.5 167.065 67.4417 167.292 67.325 167.485C67.2117 167.675 67.0517 167.822 66.845 167.925C66.6384 168.025 66.4 168.075 66.13 168.075ZM66.13 167.675C66.39 167.675 66.5967 167.595 66.75 167.435C66.9034 167.275 66.98 167.065 66.98 166.805C66.98 166.535 66.9034 166.322 66.75 166.165C66.5967 166.008 66.39 165.93 66.13 165.93C65.87 165.93 65.6634 166.008 65.51 166.165C65.3567 166.322 65.28 166.535 65.28 166.805C65.28 167.065 65.3567 167.275 65.51 167.435C65.6634 167.595 65.87 167.675 66.13 167.675ZM69.0486 165.6H69.5286V165.945C69.642 165.805 69.7703 165.7 69.9136 165.63C70.057 165.56 70.2053 165.525 70.3586 165.525C70.552 165.525 70.7053 165.558 70.8186 165.625C70.932 165.688 71.0153 165.787 71.0686 165.92C71.1753 165.79 71.3053 165.692 71.4586 165.625C71.6153 165.558 71.772 165.525 71.9286 165.525C72.222 165.525 72.4336 165.6 72.5636 165.75C72.6936 165.897 72.7586 166.115 72.7586 166.405V168H72.2686V166.47C72.2686 166.273 72.232 166.135 72.1586 166.055C72.0853 165.972 71.9603 165.93 71.7836 165.93C71.5303 165.93 71.3236 166.04 71.1636 166.26C71.1703 166.31 71.1736 166.392 71.1736 166.505V168H70.6836V166.47C70.6836 166.273 70.6503 166.135 70.5836 166.055C70.517 165.972 70.397 165.93 70.2236 165.93C69.9703 165.93 69.7436 166.073 69.5436 166.36V168H69.0486V165.6ZM75.7046 168.075C75.2612 168.075 74.9129 167.965 74.6596 167.745C74.4096 167.522 74.2846 167.208 74.2846 166.805C74.2846 166.412 74.3962 166.1 74.6196 165.87C74.8462 165.64 75.1679 165.525 75.5846 165.525C75.8612 165.525 76.0962 165.578 76.2896 165.685C76.4829 165.788 76.6279 165.933 76.7246 166.12C76.8246 166.303 76.8746 166.513 76.8746 166.75V167H74.7646C74.7812 167.227 74.8762 167.397 75.0496 167.51C75.2262 167.62 75.4646 167.675 75.7646 167.675C75.9179 167.675 76.0729 167.662 76.2296 167.635C76.3862 167.605 76.5246 167.567 76.6446 167.52V167.925C76.5379 167.968 76.3962 168.003 76.2196 168.03C76.0462 168.06 75.8746 168.075 75.7046 168.075ZM76.3996 166.645C76.3929 166.418 76.3179 166.243 76.1746 166.12C76.0346 165.993 75.8346 165.93 75.5746 165.93C75.3212 165.93 75.1246 165.995 74.9846 166.125C74.8446 166.255 74.7712 166.428 74.7646 166.645H76.3996ZM79.3116 168.075C79.1449 168.075 78.9682 168.053 78.7816 168.01C78.5949 167.97 78.4482 167.915 78.3416 167.845V167.415C78.4716 167.492 78.6216 167.555 78.7916 167.605C78.9616 167.652 79.1266 167.675 79.2866 167.675C79.4666 167.675 79.5982 167.653 79.6816 167.61C79.7649 167.567 79.8066 167.497 79.8066 167.4C79.8066 167.327 79.7866 167.268 79.7466 167.225C79.7099 167.178 79.6449 167.137 79.5516 167.1C79.4616 167.063 79.3249 167.02 79.1416 166.97C78.9449 166.913 78.7882 166.857 78.6716 166.8C78.5582 166.74 78.4716 166.665 78.4116 166.575C78.3549 166.485 78.3266 166.368 78.3266 166.225C78.3266 165.995 78.4166 165.822 78.5966 165.705C78.7799 165.585 79.0249 165.525 79.3316 165.525C79.4916 165.525 79.6482 165.54 79.8016 165.57C79.9549 165.6 80.0782 165.642 80.1716 165.695V166.115C80.0749 166.058 79.9549 166.013 79.8116 165.98C79.6716 165.947 79.5282 165.93 79.3816 165.93C79.2049 165.93 79.0699 165.952 78.9766 165.995C78.8832 166.038 78.8366 166.115 78.8366 166.225C78.8366 166.295 78.8566 166.352 78.8966 166.395C78.9366 166.438 78.9999 166.477 79.0866 166.51C79.1766 166.54 79.3182 166.58 79.5116 166.63C79.8149 166.713 80.0249 166.812 80.1416 166.925C80.2616 167.038 80.3216 167.195 80.3216 167.395C80.3216 167.602 80.2366 167.767 80.0666 167.89C79.8966 168.013 79.6449 168.075 79.3116 168.075ZM85.0184 165.13C84.9351 165.13 84.8651 165.102 84.8084 165.045C84.7518 164.988 84.7234 164.918 84.7234 164.835C84.7234 164.752 84.7518 164.682 84.8084 164.625C84.8651 164.568 84.9351 164.54 85.0184 164.54C85.1051 164.54 85.1768 164.568 85.2334 164.625C85.2934 164.682 85.3234 164.752 85.3234 164.835C85.3234 164.918 85.2934 164.988 85.2334 165.045C85.1768 165.102 85.1051 165.13 85.0184 165.13ZM84.7634 165.6H85.2784V168H84.7634V165.6ZM86.9734 165.6H87.4634V165.945C87.5768 165.802 87.7151 165.697 87.8784 165.63C88.0451 165.56 88.2184 165.525 88.3984 165.525C88.7184 165.525 88.9568 165.61 89.1134 165.78C89.2701 165.95 89.3484 166.178 89.3484 166.465V168H88.8434V166.515C88.8434 166.125 88.6568 165.93 88.2834 165.93C88.1234 165.93 87.9734 165.968 87.8334 166.045C87.6968 166.118 87.5784 166.232 87.4784 166.385V168H86.9734V165.6ZM93.8221 165.6H94.3121V165.955C94.5587 165.668 94.8921 165.525 95.3121 165.525C95.5521 165.525 95.7671 165.578 95.9571 165.685C96.1504 165.792 96.3004 165.942 96.4071 166.135C96.5171 166.325 96.5721 166.547 96.5721 166.8C96.5721 167.05 96.5171 167.272 96.4071 167.465C96.3004 167.658 96.1521 167.808 95.9621 167.915C95.7721 168.022 95.5554 168.075 95.3121 168.075C95.1121 168.075 94.9254 168.042 94.7521 167.975C94.5787 167.908 94.4371 167.81 94.3271 167.68V169.095H93.8221V165.6ZM95.1971 167.675C95.3604 167.675 95.5071 167.64 95.6371 167.57C95.7704 167.497 95.8737 167.393 95.9471 167.26C96.0237 167.127 96.0621 166.973 96.0621 166.8C96.0621 166.627 96.0237 166.475 95.9471 166.345C95.8737 166.212 95.7704 166.11 95.6371 166.04C95.5071 165.967 95.3604 165.93 95.1971 165.93C94.9937 165.93 94.8137 165.983 94.6571 166.09C94.5037 166.197 94.3937 166.343 94.3271 166.53V167.07C94.3837 167.253 94.4921 167.4 94.6521 167.51C94.8121 167.62 94.9937 167.675 95.1971 167.675ZM99.4429 168.075C98.9995 168.075 98.6512 167.965 98.3979 167.745C98.1479 167.522 98.0229 167.208 98.0229 166.805C98.0229 166.412 98.1345 166.1 98.3579 165.87C98.5845 165.64 98.9062 165.525 99.3229 165.525C99.5995 165.525 99.8345 165.578 100.028 165.685C100.221 165.788 100.366 165.933 100.463 166.12C100.563 166.303 100.613 166.513 100.613 166.75V167H98.5029C98.5195 167.227 98.6145 167.397 98.7879 167.51C98.9645 167.62 99.2029 167.675 99.5029 167.675C99.6562 167.675 99.8112 167.662 99.9679 167.635C100.125 167.605 100.263 167.567 100.383 167.52V167.925C100.276 167.968 100.135 168.003 99.9579 168.03C99.7845 168.06 99.6129 168.075 99.4429 168.075ZM100.138 166.645C100.131 166.418 100.056 166.243 99.9129 166.12C99.7729 165.993 99.5729 165.93 99.3129 165.93C99.0595 165.93 98.8629 165.995 98.7229 166.125C98.5829 166.255 98.5095 166.428 98.5029 166.645H100.138ZM103.025 168.075C102.735 168.075 102.502 168.002 102.325 167.855C102.152 167.705 102.065 167.503 102.065 167.25C102.065 166.983 102.148 166.778 102.315 166.635C102.485 166.488 102.725 166.415 103.035 166.415C103.365 166.415 103.645 166.482 103.875 166.615V166.49C103.875 166.3 103.817 166.16 103.7 166.07C103.587 165.977 103.407 165.93 103.16 165.93C103.013 165.93 102.87 165.945 102.73 165.975C102.593 166.002 102.47 166.04 102.36 166.09V165.68C102.46 165.633 102.59 165.597 102.75 165.57C102.91 165.54 103.065 165.525 103.215 165.525C103.612 165.525 103.905 165.613 104.095 165.79C104.288 165.963 104.385 166.205 104.385 166.515V168H103.91V167.73C103.807 167.843 103.683 167.93 103.54 167.99C103.4 168.047 103.228 168.075 103.025 168.075ZM103.15 167.69C103.31 167.69 103.455 167.658 103.585 167.595C103.715 167.532 103.812 167.443 103.875 167.33V167.005C103.658 166.865 103.417 166.795 103.15 166.795C102.957 166.795 102.812 166.833 102.715 166.91C102.622 166.983 102.575 167.097 102.575 167.25C102.575 167.543 102.767 167.69 103.15 167.69ZM107.179 168.075C106.912 168.075 106.676 168.025 106.469 167.925C106.262 167.825 106.101 167.68 105.984 167.49C105.871 167.297 105.814 167.068 105.814 166.805C105.814 166.542 105.871 166.315 105.984 166.125C106.101 165.932 106.262 165.783 106.469 165.68C106.679 165.577 106.919 165.525 107.189 165.525C107.556 165.525 107.849 165.597 108.069 165.74V166.155C107.852 166.005 107.576 165.93 107.239 165.93C106.966 165.93 106.744 166.005 106.574 166.155C106.407 166.302 106.324 166.518 106.324 166.805C106.324 167.092 106.407 167.308 106.574 167.455C106.741 167.602 106.959 167.675 107.229 167.675C107.566 167.675 107.856 167.595 108.099 167.435V167.845C107.982 167.925 107.849 167.983 107.699 168.02C107.552 168.057 107.379 168.075 107.179 168.075ZM110.968 168.075C110.525 168.075 110.177 167.965 109.923 167.745C109.673 167.522 109.548 167.208 109.548 166.805C109.548 166.412 109.66 166.1 109.883 165.87C110.11 165.64 110.432 165.525 110.848 165.525C111.125 165.525 111.36 165.578 111.553 165.685C111.747 165.788 111.892 165.933 111.988 166.12C112.088 166.303 112.138 166.513 112.138 166.75V167H110.028C110.045 167.227 110.14 167.397 110.313 167.51C110.49 167.62 110.728 167.675 111.028 167.675C111.182 167.675 111.337 167.662 111.493 167.635C111.65 167.605 111.788 167.567 111.908 167.52V167.925C111.802 167.968 111.66 168.003 111.483 168.03C111.31 168.06 111.138 168.075 110.968 168.075ZM111.663 166.645C111.657 166.418 111.582 166.243 111.438 166.12C111.298 165.993 111.098 165.93 110.838 165.93C110.585 165.93 110.388 165.995 110.248 166.125C110.108 166.255 110.035 166.428 110.028 166.645H111.663ZM113.825 168C113.759 168 113.702 167.978 113.655 167.935C113.612 167.888 113.59 167.832 113.59 167.765C113.59 167.698 113.612 167.642 113.655 167.595C113.702 167.548 113.759 167.525 113.825 167.525C113.892 167.525 113.949 167.548 113.995 167.595C114.042 167.642 114.065 167.698 114.065 167.765C114.065 167.832 114.042 167.888 113.995 167.935C113.949 167.978 113.892 168 113.825 168Z" fill="black"/>
<rect x="12.25" y="143.25" width="125.5" height="46.5" stroke="#6C6C6C" stroke-width="0.5"/>
<path d="M15.555 35.225C14.685 35.225 13.985 35.005 13.455 34.565C12.935 34.115 12.675 33.51 12.675 32.75C12.675 31.95 12.925 31.335 13.425 30.905C13.935 30.465 14.655 30.245 15.585 30.245C16.575 30.245 17.415 30.445 18.105 30.845V30.47C18.105 29.9 17.93 29.48 17.58 29.21C17.24 28.93 16.7 28.79 15.96 28.79C15.52 28.79 15.09 28.835 14.67 28.925C14.26 29.005 13.89 29.12 13.56 29.27V28.04C13.86 27.9 14.25 27.79 14.73 27.71C15.21 27.62 15.675 27.575 16.125 27.575C17.315 27.575 18.195 27.84 18.765 28.37C19.345 28.89 19.635 29.615 19.635 30.545V35H18.21V34.19C17.9 34.53 17.53 34.79 17.1 34.97C16.68 35.14 16.165 35.225 15.555 35.225ZM15.93 34.07C16.41 34.07 16.845 33.975 17.235 33.785C17.625 33.595 17.915 33.33 18.105 32.99V32.015C17.455 31.595 16.73 31.385 15.93 31.385C15.35 31.385 14.915 31.5 14.625 31.73C14.345 31.95 14.205 32.29 14.205 32.75C14.205 33.63 14.78 34.07 15.93 34.07ZM24.515 23.915H26.03V35H24.515V23.915ZM31.8717 26.39C31.6217 26.39 31.4117 26.305 31.2417 26.135C31.0717 25.965 30.9867 25.755 30.9867 25.505C30.9867 25.255 31.0717 25.045 31.2417 24.875C31.4117 24.705 31.6217 24.62 31.8717 24.62C32.1317 24.62 32.3467 24.705 32.5167 24.875C32.6967 25.045 32.7867 25.255 32.7867 25.505C32.7867 25.755 32.6967 25.965 32.5167 26.135C32.3467 26.305 32.1317 26.39 31.8717 26.39ZM31.1067 27.8H32.6517V35H31.1067V27.8ZM41.6967 35.225C40.3667 35.225 39.3217 34.895 38.5617 34.235C37.8117 33.565 37.4367 32.625 37.4367 31.415C37.4367 30.235 37.7717 29.3 38.4417 28.61C39.1217 27.92 40.0867 27.575 41.3367 27.575C42.1667 27.575 42.8717 27.735 43.4517 28.055C44.0317 28.365 44.4667 28.8 44.7567 29.36C45.0567 29.91 45.2067 30.54 45.2067 31.25V32H38.8767C38.9267 32.68 39.2117 33.19 39.7317 33.53C40.2617 33.86 40.9767 34.025 41.8767 34.025C42.3367 34.025 42.8017 33.985 43.2717 33.905C43.7417 33.815 44.1567 33.7 44.5167 33.56V34.775C44.1967 34.905 43.7717 35.01 43.2417 35.09C42.7217 35.18 42.2067 35.225 41.6967 35.225ZM43.7817 30.935C43.7617 30.255 43.5367 29.73 43.1067 29.36C42.6867 28.98 42.0867 28.79 41.3067 28.79C40.5467 28.79 39.9567 28.985 39.5367 29.375C39.1167 29.765 38.8967 30.285 38.8767 30.935H43.7817ZM49.8627 27.8H51.3327V28.835C51.6727 28.405 52.0877 28.09 52.5777 27.89C53.0777 27.68 53.5977 27.575 54.1377 27.575C55.0977 27.575 55.8127 27.83 56.2827 28.34C56.7527 28.85 56.9877 29.535 56.9877 30.395V35H55.4727V30.545C55.4727 29.375 54.9127 28.79 53.7927 28.79C53.3127 28.79 52.8627 28.905 52.4427 29.135C52.0327 29.355 51.6777 29.695 51.3777 30.155V35H49.8627V27.8ZM70.1086 27.8H71.6536L73.2736 33.14L74.8786 27.8H76.2436L77.8486 33.14L79.4686 27.8H81.0286L78.6886 35H77.2336L75.5686 29.63L73.9036 35H72.4336L70.1086 27.8ZM87.4437 35.225C86.5737 35.225 85.8737 35.005 85.3437 34.565C84.8237 34.115 84.5637 33.51 84.5637 32.75C84.5637 31.95 84.8137 31.335 85.3137 30.905C85.8237 30.465 86.5437 30.245 87.4737 30.245C88.4637 30.245 89.3037 30.445 89.9937 30.845V30.47C89.9937 29.9 89.8187 29.48 89.4687 29.21C89.1287 28.93 88.5887 28.79 87.8487 28.79C87.4087 28.79 86.9787 28.835 86.5587 28.925C86.1487 29.005 85.7787 29.12 85.4487 29.27V28.04C85.7487 27.9 86.1387 27.79 86.6187 27.71C87.0987 27.62 87.5637 27.575 88.0137 27.575C89.2037 27.575 90.0837 27.84 90.6537 28.37C91.2337 28.89 91.5237 29.615 91.5237 30.545V35H90.0987V34.19C89.7887 34.53 89.4187 34.79 88.9887 34.97C88.5687 35.14 88.0537 35.225 87.4437 35.225ZM87.8187 34.07C88.2987 34.07 88.7337 33.975 89.1237 33.785C89.5137 33.595 89.8037 33.33 89.9937 32.99V32.015C89.3437 31.595 88.6187 31.385 87.8187 31.385C87.2387 31.385 86.8037 31.5 86.5137 31.73C86.2337 31.95 86.0937 32.29 86.0937 32.75C86.0937 33.63 86.6687 34.07 87.8187 34.07ZM98.7979 35.225C98.0679 35.225 97.5029 35.015 97.1029 34.595C96.7129 34.175 96.5179 33.58 96.5179 32.81V28.97H95.4229V27.8H96.5179V25.64H98.0479V27.8H99.8179V28.97H98.0479V32.705C98.0479 33.185 98.1379 33.525 98.3179 33.725C98.5079 33.925 98.8479 34.025 99.3379 34.025C99.6279 34.025 99.9179 33.96 100.208 33.83V35.03C99.8279 35.16 99.3579 35.225 98.7979 35.225ZM108.593 35.225C107.263 35.225 106.218 34.895 105.458 34.235C104.708 33.565 104.333 32.625 104.333 31.415C104.333 30.235 104.668 29.3 105.338 28.61C106.018 27.92 106.983 27.575 108.233 27.575C109.063 27.575 109.768 27.735 110.348 28.055C110.928 28.365 111.363 28.8 111.653 29.36C111.953 29.91 112.103 30.54 112.103 31.25V32H105.773C105.823 32.68 106.108 33.19 106.628 33.53C107.158 33.86 107.873 34.025 108.773 34.025C109.233 34.025 109.698 33.985 110.168 33.905C110.638 33.815 111.053 33.7 111.413 33.56V34.775C111.093 34.905 110.668 35.01 110.138 35.09C109.618 35.18 109.103 35.225 108.593 35.225ZM110.678 30.935C110.658 30.255 110.433 29.73 110.003 29.36C109.583 28.98 108.983 28.79 108.203 28.79C107.443 28.79 106.853 28.985 106.433 29.375C106.013 29.765 105.793 30.285 105.773 30.935H110.678ZM116.759 27.8H118.229V29.09C118.529 28.65 118.949 28.325 119.489 28.115C120.039 27.905 120.674 27.8 121.394 27.8V28.985C120.624 28.985 119.964 29.11 119.414 29.36C118.864 29.61 118.484 30.005 118.274 30.545V35H116.759V27.8Z" fill="black"/>
<path d="M12.8691 19.0381L17.1807 17.1875V16.4746L12.8691 14.6289V15.5615L16.0283 16.7334L16.3213 16.8262L16.0283 16.9092L12.8691 18.1006V19.0381ZM20.875 19.0381L25.1865 17.1875V16.4746L20.875 14.6289V15.5615L24.0342 16.7334L24.3271 16.8262L24.0342 16.9092L20.875 18.1006V19.0381ZM37.375 20H38.0879L38.9033 16.7627L39.0352 15.9424L39.1719 16.7627L39.9971 20H40.71L41.833 14.7168H41.0322L40.4463 18.0859L40.3145 18.916L40.1729 18.0859L39.333 14.7168H38.752L37.9072 18.0859L37.7754 18.8428L37.668 18.0859L37.0527 14.7168H36.252L37.375 20ZM48.3447 20H49.2871V19.9219C49.2285 19.7754 49.1829 19.6045 49.1504 19.4092C49.1178 19.2106 49.1016 19.0234 49.1016 18.8477V16.3916C49.1016 16.0954 49.0479 15.8366 48.9404 15.6152C48.833 15.3939 48.6865 15.2083 48.501 15.0586C48.3122 14.9121 48.0892 14.8031 47.832 14.7314C47.5749 14.6566 47.2965 14.6191 46.9971 14.6191C46.6683 14.6191 46.3737 14.6647 46.1133 14.7559C45.8561 14.847 45.638 14.9658 45.459 15.1123C45.2767 15.262 45.1367 15.4297 45.0391 15.6152C44.9447 15.8008 44.8958 15.9896 44.8926 16.1816H45.8008C45.8008 16.071 45.8268 15.9652 45.8789 15.8643C45.9342 15.7601 46.0107 15.6706 46.1084 15.5957C46.2061 15.5208 46.3249 15.4606 46.4648 15.415C46.6081 15.3695 46.7692 15.3467 46.9482 15.3467C47.1403 15.3467 47.3128 15.3711 47.4658 15.4199C47.6221 15.4688 47.7539 15.5371 47.8613 15.625C47.9688 15.7161 48.0518 15.8252 48.1104 15.9521C48.1689 16.0791 48.1982 16.2223 48.1982 16.3818V16.7969H47.2119C46.8441 16.7969 46.5104 16.8327 46.2109 16.9043C45.9147 16.9759 45.6608 17.0833 45.4492 17.2266C45.2376 17.373 45.0732 17.5553 44.9561 17.7734C44.8421 17.9915 44.7852 18.2454 44.7852 18.5352C44.7852 18.7565 44.8275 18.9632 44.9121 19.1553C45 19.3441 45.1237 19.5068 45.2832 19.6436C45.4395 19.7835 45.6299 19.8942 45.8545 19.9756C46.0824 20.057 46.3363 20.0977 46.6162 20.0977C46.7887 20.0977 46.9515 20.0798 47.1045 20.0439C47.2575 20.0081 47.4023 19.9593 47.5391 19.8975C47.6725 19.8356 47.7946 19.764 47.9053 19.6826C48.0192 19.6012 48.1217 19.515 48.2129 19.4238C48.2227 19.5345 48.2373 19.6419 48.2568 19.7461C48.2796 19.847 48.3089 19.9316 48.3447 20ZM46.748 19.3115C46.5723 19.3115 46.4176 19.2887 46.2842 19.2432C46.1507 19.1976 46.04 19.1341 45.9521 19.0527C45.8643 18.9746 45.7975 18.8802 45.752 18.7695C45.7096 18.6589 45.6885 18.5384 45.6885 18.4082C45.6885 18.2715 45.7129 18.1494 45.7617 18.042C45.8138 17.9346 45.8887 17.8418 45.9863 17.7637C46.123 17.653 46.307 17.5716 46.5381 17.5195C46.7725 17.4642 47.0459 17.4365 47.3584 17.4365H48.1982V18.5059C48.1462 18.61 48.0745 18.7109 47.9834 18.8086C47.8923 18.903 47.7848 18.9876 47.6611 19.0625C47.5342 19.1374 47.3942 19.1976 47.2412 19.2432C47.0882 19.2887 46.9238 19.3115 46.748 19.3115ZM55.0176 13.4375H54.1094V14.7168H52.7227V15.415H54.1094V18.2861C54.1094 18.6117 54.1517 18.89 54.2363 19.1211C54.3242 19.349 54.443 19.5345 54.5928 19.6777C54.7425 19.8242 54.9183 19.9316 55.1201 20C55.3252 20.0651 55.5449 20.0977 55.7793 20.0977C55.9193 20.0977 56.0592 20.0911 56.1992 20.0781C56.3424 20.0651 56.4775 20.0456 56.6045 20.0195C56.7314 19.9967 56.8486 19.9691 56.9561 19.9365C57.0635 19.9007 57.1546 19.86 57.2295 19.8145L57.1025 19.1748C57.0472 19.1878 56.9756 19.2041 56.8877 19.2236C56.8031 19.2399 56.7119 19.2562 56.6143 19.2725C56.5133 19.2887 56.4108 19.3034 56.3066 19.3164C56.2025 19.3262 56.1016 19.3311 56.0039 19.3311C55.8704 19.3311 55.7435 19.3148 55.623 19.2822C55.5059 19.2497 55.4017 19.1927 55.3105 19.1113C55.2194 19.0332 55.1478 18.9274 55.0957 18.7939C55.0436 18.6605 55.0176 18.4912 55.0176 18.2861V15.415H57.0293V14.7168H55.0176V13.4375ZM63.2188 20.0977C63.7331 20.0977 64.1644 19.9951 64.5127 19.79C64.8643 19.5817 65.1279 19.3441 65.3037 19.0771L64.752 18.6475C64.5859 18.8623 64.3776 19.0348 64.127 19.165C63.8763 19.2952 63.5898 19.3604 63.2676 19.3604C63.0234 19.3604 62.8005 19.3148 62.5986 19.2236C62.3968 19.1325 62.2243 19.0072 62.0811 18.8477C61.9411 18.6979 61.8304 18.5254 61.749 18.3301C61.6709 18.1348 61.6204 17.9085 61.5977 17.6514V17.6172H65.3721V17.2119C65.3721 16.8441 65.3249 16.5023 65.2305 16.1865C65.1393 15.8708 64.9993 15.5957 64.8105 15.3613C64.6217 15.1302 64.3841 14.9495 64.0977 14.8193C63.8145 14.6859 63.4824 14.6191 63.1016 14.6191C62.7988 14.6191 62.5026 14.681 62.2129 14.8047C61.9264 14.9284 61.6709 15.1058 61.4463 15.3369C61.2184 15.5713 61.0361 15.8577 60.8994 16.1963C60.7627 16.5316 60.6943 16.9124 60.6943 17.3389V17.5439C60.6943 17.9118 60.7562 18.252 60.8799 18.5645C61.0036 18.877 61.1761 19.1471 61.3975 19.375C61.6188 19.6029 61.8841 19.7803 62.1934 19.9072C62.5059 20.0342 62.8477 20.0977 63.2188 20.0977ZM63.1016 15.3613C63.3327 15.3613 63.5312 15.4036 63.6973 15.4883C63.8665 15.5729 64.0065 15.6836 64.1172 15.8203C64.2279 15.957 64.3141 16.1198 64.376 16.3086C64.4378 16.4941 64.4688 16.6683 64.4688 16.8311V16.875H61.627C61.6628 16.6309 61.7246 16.416 61.8125 16.2305C61.9036 16.0417 62.0143 15.8822 62.1445 15.752C62.2747 15.625 62.4212 15.529 62.584 15.4639C62.7467 15.3955 62.9193 15.3613 63.1016 15.3613ZM72.3525 14.6191C71.9684 14.6191 71.625 14.7038 71.3223 14.873C71.0228 15.0391 70.7656 15.2669 70.5508 15.5566L70.5459 15.4248L70.5068 14.7168H69.6475V20H70.5557V16.6113C70.6143 16.4486 70.6875 16.3021 70.7754 16.1719C70.8665 16.0384 70.9723 15.9261 71.0928 15.835C71.2262 15.7308 71.3825 15.6527 71.5615 15.6006C71.7406 15.5452 71.9408 15.5176 72.1621 15.5176C72.3346 15.5176 72.499 15.5273 72.6553 15.5469C72.8148 15.5632 72.9824 15.5908 73.1582 15.6299L73.2803 14.7461C73.1891 14.707 73.0524 14.6761 72.8701 14.6533C72.6911 14.6305 72.5186 14.6191 72.3525 14.6191Z" fill="#707070"/>
<path d="M94.7073 87.4762L85.9268 75.9524L77.1463 55L65.0732 71.7619L53 86.4286V106.333L66.1707 121L83.7317 118.905L98 105.286L94.7073 87.4762Z" fill="#1CC800"/>
<path d="M58 100L64 85H70V100H58Z" fill="#EF0000"/>
<path d="M91 100L84 85H77V100H91Z" fill="#EF0000"/>
</svg>
