<svg width="150" height="200" viewBox="0 0 150 200" fill="none" xmlns="http://www.w3.org/2000/svg">
<rect width="150" height="200" fill="white"/>
<path d="M110.073 85.4571L94.2683 64.7143L78.4634 27L56.7317 57.1714L35 83.5714V119.4L58.7073 145.8L90.3171 142.029L116 117.514L110.073 85.4571Z" fill="#0068C8"/>
<path d="M62 102.6L64.7 81H67.4V102.6H62Z" fill="#D9D9D9"/>
<path d="M83.6 102.6L80.9 81H78.2V102.6H83.6Z" fill="#D9D9D9"/>
<path d="M18.21 148.935H17.125V148.505H19.81V148.935H18.725V152H18.21V148.935ZM21.2596 148.305H21.7646V149.93C21.9946 149.66 22.3012 149.525 22.6846 149.525C23.0046 149.525 23.2429 149.61 23.3996 149.78C23.5562 149.95 23.6346 150.178 23.6346 150.465V152H23.1296V150.515C23.1296 150.125 22.9429 149.93 22.5696 149.93C22.4096 149.93 22.2596 149.968 22.1196 150.045C21.9829 150.118 21.8646 150.232 21.7646 150.385V152H21.2596V148.305ZM25.5526 149.13C25.4693 149.13 25.3993 149.102 25.3426 149.045C25.286 148.988 25.2576 148.918 25.2576 148.835C25.2576 148.752 25.286 148.682 25.3426 148.625C25.3993 148.568 25.4693 148.54 25.5526 148.54C25.6393 148.54 25.711 148.568 25.7676 148.625C25.8276 148.682 25.8576 148.752 25.8576 148.835C25.8576 148.918 25.8276 148.988 25.7676 149.045C25.711 149.102 25.6393 149.13 25.5526 149.13ZM25.2976 149.6H25.8126V152H25.2976V149.6ZM28.3926 152.075C28.226 152.075 28.0493 152.053 27.8626 152.01C27.676 151.97 27.5293 151.915 27.4226 151.845V151.415C27.5526 151.492 27.7026 151.555 27.8726 151.605C28.0426 151.652 28.2076 151.675 28.3676 151.675C28.5476 151.675 28.6793 151.653 28.7626 151.61C28.846 151.567 28.8876 151.497 28.8876 151.4C28.8876 151.327 28.8676 151.268 28.8276 151.225C28.791 151.178 28.726 151.137 28.6326 151.1C28.5426 151.063 28.406 151.02 28.2226 150.97C28.026 150.913 27.8693 150.857 27.7526 150.8C27.6393 150.74 27.5526 150.665 27.4926 150.575C27.436 150.485 27.4076 150.368 27.4076 150.225C27.4076 149.995 27.4976 149.822 27.6776 149.705C27.861 149.585 28.106 149.525 28.4126 149.525C28.5726 149.525 28.7293 149.54 28.8826 149.57C29.036 149.6 29.1593 149.642 29.2526 149.695V150.115C29.156 150.058 29.036 150.013 28.8926 149.98C28.7526 149.947 28.6093 149.93 28.4626 149.93C28.286 149.93 28.151 149.952 28.0576 149.995C27.9643 150.038 27.9176 150.115 27.9176 150.225C27.9176 150.295 27.9376 150.352 27.9776 150.395C28.0176 150.438 28.081 150.477 28.1676 150.51C28.2576 150.54 28.3993 150.58 28.5926 150.63C28.896 150.713 29.106 150.812 29.2226 150.925C29.3426 151.038 29.4026 151.195 29.4026 151.395C29.4026 151.602 29.3176 151.767 29.1476 151.89C28.9776 152.013 28.726 152.075 28.3926 152.075ZM33.7045 148.505H34.2345L35.0145 151.16L35.7845 148.505H36.1845L36.9495 151.16L37.7295 148.505H38.2595L37.2395 152H36.7545L35.9795 149.36L35.2095 152H34.7245L33.7045 148.505ZM40.2934 152.075C40.0034 152.075 39.7701 152.002 39.5934 151.855C39.4201 151.705 39.3334 151.503 39.3334 151.25C39.3334 150.983 39.4167 150.778 39.5834 150.635C39.7534 150.488 39.9934 150.415 40.3034 150.415C40.6334 150.415 40.9134 150.482 41.1434 150.615V150.49C41.1434 150.3 41.0851 150.16 40.9684 150.07C40.8551 149.977 40.6751 149.93 40.4284 149.93C40.2817 149.93 40.1384 149.945 39.9984 149.975C39.8617 150.002 39.7384 150.04 39.6284 150.09V149.68C39.7284 149.633 39.8584 149.597 40.0184 149.57C40.1784 149.54 40.3334 149.525 40.4834 149.525C40.8801 149.525 41.1734 149.613 41.3634 149.79C41.5567 149.963 41.6534 150.205 41.6534 150.515V152H41.1784V151.73C41.0751 151.843 40.9517 151.93 40.8084 151.99C40.6684 152.047 40.4967 152.075 40.2934 152.075ZM40.4184 151.69C40.5784 151.69 40.7234 151.658 40.8534 151.595C40.9834 151.532 41.0801 151.443 41.1434 151.33V151.005C40.9267 150.865 40.6851 150.795 40.4184 150.795C40.2251 150.795 40.0801 150.833 39.9834 150.91C39.8901 150.983 39.8434 151.097 39.8434 151.25C39.8434 151.543 40.0351 151.69 40.4184 151.69ZM44.0781 152.075C43.8348 152.075 43.6465 152.005 43.5131 151.865C43.3831 151.725 43.3181 151.527 43.3181 151.27V149.99H42.9531V149.6H43.3181V148.88H43.8281V149.6H44.4181V149.99H43.8281V151.235C43.8281 151.395 43.8581 151.508 43.9181 151.575C43.9815 151.642 44.0948 151.675 44.2581 151.675C44.3548 151.675 44.4515 151.653 44.5481 151.61V152.01C44.4215 152.053 44.2648 152.075 44.0781 152.075ZM47.3432 152.075C46.8999 152.075 46.5516 151.965 46.2982 151.745C46.0482 151.522 45.9232 151.208 45.9232 150.805C45.9232 150.412 46.0349 150.1 46.2582 149.87C46.4849 149.64 46.8066 149.525 47.2232 149.525C47.4999 149.525 47.7349 149.578 47.9282 149.685C48.1216 149.788 48.2666 149.933 48.3632 150.12C48.4632 150.303 48.5132 150.513 48.5132 150.75V151H46.4032C46.4199 151.227 46.5149 151.397 46.6882 151.51C46.8649 151.62 47.1032 151.675 47.4032 151.675C47.5566 151.675 47.7116 151.662 47.8682 151.635C48.0249 151.605 48.1632 151.567 48.2832 151.52V151.925C48.1766 151.968 48.0349 152.003 47.8582 152.03C47.6849 152.06 47.5132 152.075 47.3432 152.075ZM48.0382 150.645C48.0316 150.418 47.9566 150.243 47.8132 150.12C47.6732 149.993 47.4732 149.93 47.2132 149.93C46.9599 149.93 46.7632 149.995 46.6232 150.125C46.4832 150.255 46.4099 150.428 46.4032 150.645H48.0382ZM50.0652 149.6H50.5552V150.03C50.6552 149.883 50.7952 149.775 50.9752 149.705C51.1586 149.635 51.3702 149.6 51.6102 149.6V149.995C51.3536 149.995 51.1336 150.037 50.9502 150.12C50.7669 150.203 50.6402 150.335 50.5702 150.515V152H50.0652V149.6ZM55.9129 148.505H57.2579C57.6346 148.505 57.9312 148.6 58.1479 148.79C58.3679 148.977 58.4779 149.243 58.4779 149.59C58.4779 149.943 58.3696 150.212 58.1529 150.395C57.9362 150.575 57.6379 150.665 57.2579 150.665H56.4229V152H55.9129V148.505ZM57.2029 150.24C57.4362 150.24 57.6212 150.192 57.7579 150.095C57.8946 149.998 57.9629 149.83 57.9629 149.59C57.9629 149.35 57.8946 149.182 57.7579 149.085C57.6212 148.985 57.4362 148.935 57.2029 148.935H56.4229V150.24H57.2029ZM59.9256 149.6H60.4156V150.03C60.5156 149.883 60.6556 149.775 60.8356 149.705C61.0189 149.635 61.2306 149.6 61.4706 149.6V149.995C61.2139 149.995 60.9939 150.037 60.8106 150.12C60.6273 150.203 60.5006 150.335 60.4306 150.515V152H59.9256V149.6ZM64.1144 152.075C63.8444 152.075 63.6061 152.025 63.3994 151.925C63.1961 151.822 63.0361 151.675 62.9194 151.485C62.8061 151.292 62.7494 151.065 62.7494 150.805C62.7494 150.548 62.8061 150.323 62.9194 150.13C63.0327 149.937 63.1927 149.788 63.3994 149.685C63.6061 149.578 63.8444 149.525 64.1144 149.525C64.3844 149.525 64.6227 149.578 64.8294 149.685C65.0361 149.788 65.1961 149.937 65.3094 150.13C65.4261 150.323 65.4844 150.548 65.4844 150.805C65.4844 151.065 65.4261 151.292 65.3094 151.485C65.1961 151.675 65.0361 151.822 64.8294 151.925C64.6227 152.025 64.3844 152.075 64.1144 152.075ZM64.1144 151.675C64.3744 151.675 64.5811 151.595 64.7344 151.435C64.8877 151.275 64.9644 151.065 64.9644 150.805C64.9644 150.535 64.8877 150.322 64.7344 150.165C64.5811 150.008 64.3744 149.93 64.1144 149.93C63.8544 149.93 63.6477 150.008 63.4944 150.165C63.3411 150.322 63.2644 150.535 63.2644 150.805C63.2644 151.065 63.3411 151.275 63.4944 151.435C63.6477 151.595 63.8544 151.675 64.1144 151.675ZM67.033 149.6H67.523V149.955C67.7697 149.668 68.103 149.525 68.523 149.525C68.763 149.525 68.978 149.578 69.168 149.685C69.3613 149.792 69.5113 149.942 69.618 150.135C69.728 150.325 69.783 150.547 69.783 150.8C69.783 151.05 69.728 151.272 69.618 151.465C69.5113 151.658 69.363 151.808 69.173 151.915C68.983 152.022 68.7663 152.075 68.523 152.075C68.323 152.075 68.1363 152.042 67.963 151.975C67.7897 151.908 67.648 151.81 67.538 151.68V153.095H67.033V149.6ZM68.408 151.675C68.5713 151.675 68.718 151.64 68.848 151.57C68.9813 151.497 69.0847 151.393 69.158 151.26C69.2347 151.127 69.273 150.973 69.273 150.8C69.273 150.627 69.2347 150.475 69.158 150.345C69.0847 150.212 68.9813 150.11 68.848 150.04C68.718 149.967 68.5713 149.93 68.408 149.93C68.2047 149.93 68.0247 149.983 67.868 150.09C67.7147 150.197 67.6047 150.343 67.538 150.53V151.07C67.5947 151.253 67.703 151.4 67.863 151.51C68.023 151.62 68.2047 151.675 68.408 151.675ZM72.6538 152.075C72.2105 152.075 71.8621 151.965 71.6088 151.745C71.3588 151.522 71.2338 151.208 71.2338 150.805C71.2338 150.412 71.3455 150.1 71.5688 149.87C71.7955 149.64 72.1171 149.525 72.5338 149.525C72.8105 149.525 73.0455 149.578 73.2388 149.685C73.4321 149.788 73.5771 149.933 73.6738 150.12C73.7738 150.303 73.8238 150.513 73.8238 150.75V151H71.7138C71.7305 151.227 71.8255 151.397 71.9988 151.51C72.1755 151.62 72.4138 151.675 72.7138 151.675C72.8671 151.675 73.0221 151.662 73.1788 151.635C73.3355 151.605 73.4738 151.567 73.5938 151.52V151.925C73.4871 151.968 73.3455 152.003 73.1688 152.03C72.9955 152.06 72.8238 152.075 72.6538 152.075ZM73.3488 150.645C73.3421 150.418 73.2671 150.243 73.1238 150.12C72.9838 149.993 72.7838 149.93 72.5238 149.93C72.2705 149.93 72.0738 149.995 71.9338 150.125C71.7938 150.255 71.7205 150.428 71.7138 150.645H73.3488ZM75.3758 149.6H75.8658V150.03C75.9658 149.883 76.1058 149.775 76.2858 149.705C76.4691 149.635 76.6808 149.6 76.9208 149.6V149.995C76.6641 149.995 76.4441 150.037 76.2608 150.12C76.0774 150.203 75.9508 150.335 75.8808 150.515V152H75.3758V149.6ZM78.3729 148.305H78.8779V152H78.3729V148.305ZM81.0401 152.99C80.8601 152.99 80.7101 152.972 80.5901 152.935V152.54C80.6767 152.573 80.7834 152.59 80.9101 152.59C81.0267 152.59 81.1184 152.56 81.1851 152.5C81.2517 152.443 81.3117 152.35 81.3651 152.22L81.4801 151.94L80.4301 149.6H80.9501L81.7501 151.445L82.4951 149.6H83.0151L81.9351 152.27C81.8351 152.52 81.7151 152.702 81.5751 152.815C81.4384 152.932 81.2601 152.99 81.0401 152.99ZM89.0652 152.075C88.7052 152.075 88.3852 152 88.1052 151.85C87.8252 151.7 87.6069 151.488 87.4502 151.215C87.2936 150.938 87.2152 150.618 87.2152 150.255C87.2152 149.892 87.2936 149.572 87.4502 149.295C87.6069 149.018 87.8252 148.805 88.1052 148.655C88.3852 148.505 88.7052 148.43 89.0652 148.43C89.5452 148.43 89.9469 148.552 90.2702 148.795V149.285C89.9802 149.028 89.5936 148.9 89.1102 148.9C88.8402 148.9 88.6002 148.955 88.3902 149.065C88.1836 149.175 88.0219 149.333 87.9052 149.54C87.7886 149.743 87.7302 149.982 87.7302 150.255C87.7302 150.528 87.7886 150.768 87.9052 150.975C88.0252 151.182 88.1886 151.34 88.3952 151.45C88.6052 151.56 88.8436 151.615 89.1102 151.615C89.3569 151.615 89.5769 151.583 89.7702 151.52C89.9669 151.453 90.1486 151.348 90.3152 151.205V151.7C90.0152 151.95 89.5986 152.075 89.0652 152.075ZM92.6518 152.075C92.3618 152.075 92.1285 152.002 91.9518 151.855C91.7785 151.705 91.6918 151.503 91.6918 151.25C91.6918 150.983 91.7751 150.778 91.9418 150.635C92.1118 150.488 92.3518 150.415 92.6618 150.415C92.9918 150.415 93.2718 150.482 93.5018 150.615V150.49C93.5018 150.3 93.4435 150.16 93.3268 150.07C93.2135 149.977 93.0335 149.93 92.7868 149.93C92.6401 149.93 92.4968 149.945 92.3568 149.975C92.2201 150.002 92.0968 150.04 91.9868 150.09V149.68C92.0868 149.633 92.2168 149.597 92.3768 149.57C92.5368 149.54 92.6918 149.525 92.8418 149.525C93.2385 149.525 93.5318 149.613 93.7218 149.79C93.9151 149.963 94.0118 150.205 94.0118 150.515V152H93.5368V151.73C93.4335 151.843 93.3101 151.93 93.1668 151.99C93.0268 152.047 92.8551 152.075 92.6518 152.075ZM92.7768 151.69C92.9368 151.69 93.0818 151.658 93.2118 151.595C93.3418 151.532 93.4385 151.443 93.5018 151.33V151.005C93.2851 150.865 93.0435 150.795 92.7768 150.795C92.5835 150.795 92.4385 150.833 92.3418 150.91C92.2485 150.983 92.2018 151.097 92.2018 151.25C92.2018 151.543 92.3935 151.69 92.7768 151.69ZM95.6385 149.6H96.1285V149.955C96.3751 149.668 96.7085 149.525 97.1285 149.525C97.3685 149.525 97.5835 149.578 97.7735 149.685C97.9668 149.792 98.1168 149.942 98.2235 150.135C98.3335 150.325 98.3885 150.547 98.3885 150.8C98.3885 151.05 98.3335 151.272 98.2235 151.465C98.1168 151.658 97.9685 151.808 97.7785 151.915C97.5885 152.022 97.3718 152.075 97.1285 152.075C96.9285 152.075 96.7418 152.042 96.5685 151.975C96.3951 151.908 96.2535 151.81 96.1435 151.68V153.095H95.6385V149.6ZM97.0135 151.675C97.1768 151.675 97.3235 151.64 97.4535 151.57C97.5868 151.497 97.6901 151.393 97.7635 151.26C97.8401 151.127 97.8785 150.973 97.8785 150.8C97.8785 150.627 97.8401 150.475 97.7635 150.345C97.6901 150.212 97.5868 150.11 97.4535 150.04C97.3235 149.967 97.1768 149.93 97.0135 149.93C96.8101 149.93 96.6301 149.983 96.4735 150.09C96.3201 150.197 96.2101 150.343 96.1435 150.53V151.07C96.2001 151.253 96.3085 151.4 96.4685 151.51C96.6285 151.62 96.8101 151.675 97.0135 151.675ZM100.234 149.13C100.151 149.13 100.081 149.102 100.024 149.045C99.9676 148.988 99.9393 148.918 99.9393 148.835C99.9393 148.752 99.9676 148.682 100.024 148.625C100.081 148.568 100.151 148.54 100.234 148.54C100.321 148.54 100.393 148.568 100.449 148.625C100.509 148.682 100.539 148.752 100.539 148.835C100.539 148.918 100.509 148.988 100.449 149.045C100.393 149.102 100.321 149.13 100.234 149.13ZM99.9793 149.6H100.494V152H99.9793V149.6ZM103.114 152.075C102.871 152.075 102.683 152.005 102.549 151.865C102.419 151.725 102.354 151.527 102.354 151.27V149.99H101.989V149.6H102.354V148.88H102.864V149.6H103.454V149.99H102.864V151.235C102.864 151.395 102.894 151.508 102.954 151.575C103.018 151.642 103.131 151.675 103.294 151.675C103.391 151.675 103.488 151.653 103.584 151.61V152.01C103.458 152.053 103.301 152.075 103.114 152.075ZM105.846 152.075C105.556 152.075 105.323 152.002 105.146 151.855C104.973 151.705 104.886 151.503 104.886 151.25C104.886 150.983 104.969 150.778 105.136 150.635C105.306 150.488 105.546 150.415 105.856 150.415C106.186 150.415 106.466 150.482 106.696 150.615V150.49C106.696 150.3 106.638 150.16 106.521 150.07C106.408 149.977 106.228 149.93 105.981 149.93C105.834 149.93 105.691 149.945 105.551 149.975C105.414 150.002 105.291 150.04 105.181 150.09V149.68C105.281 149.633 105.411 149.597 105.571 149.57C105.731 149.54 105.886 149.525 106.036 149.525C106.433 149.525 106.726 149.613 106.916 149.79C107.109 149.963 107.206 150.205 107.206 150.515V152H106.731V151.73C106.628 151.843 106.504 151.93 106.361 151.99C106.221 152.047 106.049 152.075 105.846 152.075ZM105.971 151.69C106.131 151.69 106.276 151.658 106.406 151.595C106.536 151.532 106.633 151.443 106.696 151.33V151.005C106.479 150.865 106.238 150.795 105.971 150.795C105.778 150.795 105.633 150.833 105.536 150.91C105.443 150.983 105.396 151.097 105.396 151.25C105.396 151.543 105.588 151.69 105.971 151.69ZM108.833 148.305H109.338V152H108.833V148.305ZM111.285 149.13C111.202 149.13 111.132 149.102 111.075 149.045C111.018 148.988 110.99 148.918 110.99 148.835C110.99 148.752 111.018 148.682 111.075 148.625C111.132 148.568 111.202 148.54 111.285 148.54C111.372 148.54 111.443 148.568 111.5 148.625C111.56 148.682 111.59 148.752 111.59 148.835C111.59 148.918 111.56 148.988 111.5 149.045C111.443 149.102 111.372 149.13 111.285 149.13ZM111.03 149.6H111.545V152H111.03V149.6ZM113.14 151.675L114.505 149.99H113.17V149.6H115.135V149.93L113.77 151.61H115.185V152H113.14V151.675ZM118.055 152.075C117.612 152.075 117.263 151.965 117.01 151.745C116.76 151.522 116.635 151.208 116.635 150.805C116.635 150.412 116.747 150.1 116.97 149.87C117.197 149.64 117.518 149.525 117.935 149.525C118.212 149.525 118.447 149.578 118.64 149.685C118.833 149.788 118.978 149.933 119.075 150.12C119.175 150.303 119.225 150.513 119.225 150.75V151H117.115C117.132 151.227 117.227 151.397 117.4 151.51C117.577 151.62 117.815 151.675 118.115 151.675C118.268 151.675 118.423 151.662 118.58 151.635C118.737 151.605 118.875 151.567 118.995 151.52V151.925C118.888 151.968 118.747 152.003 118.57 152.03C118.397 152.06 118.225 152.075 118.055 152.075ZM118.75 150.645C118.743 150.418 118.668 150.243 118.525 150.12C118.385 149.993 118.185 149.93 117.925 149.93C117.672 149.93 117.475 149.995 117.335 150.125C117.195 150.255 117.122 150.428 117.115 150.645H118.75ZM121.662 152.075C121.495 152.075 121.319 152.053 121.132 152.01C120.945 151.97 120.799 151.915 120.692 151.845V151.415C120.822 151.492 120.972 151.555 121.142 151.605C121.312 151.652 121.477 151.675 121.637 151.675C121.817 151.675 121.949 151.653 122.032 151.61C122.115 151.567 122.157 151.497 122.157 151.4C122.157 151.327 122.137 151.268 122.097 151.225C122.06 151.178 121.995 151.137 121.902 151.1C121.812 151.063 121.675 151.02 121.492 150.97C121.295 150.913 121.139 150.857 121.022 150.8C120.909 150.74 120.822 150.665 120.762 150.575C120.705 150.485 120.677 150.368 120.677 150.225C120.677 149.995 120.767 149.822 120.947 149.705C121.13 149.585 121.375 149.525 121.682 149.525C121.842 149.525 121.999 149.54 122.152 149.57C122.305 149.6 122.429 149.642 122.522 149.695V150.115C122.425 150.058 122.305 150.013 122.162 149.98C122.022 149.947 121.879 149.93 121.732 149.93C121.555 149.93 121.42 149.952 121.327 149.995C121.234 150.038 121.187 150.115 121.187 150.225C121.187 150.295 121.207 150.352 121.247 150.395C121.287 150.438 121.35 150.477 121.437 150.51C121.527 150.54 121.669 150.58 121.862 150.63C122.165 150.713 122.375 150.812 122.492 150.925C122.612 151.038 122.672 151.195 122.672 151.395C122.672 151.602 122.587 151.767 122.417 151.89C122.247 152.013 121.995 152.075 121.662 152.075ZM17.325 156.505H17.84V160H17.325V156.505ZM20.417 160.075C20.1737 160.075 19.9853 160.005 19.852 159.865C19.722 159.725 19.657 159.527 19.657 159.27V157.99H19.292V157.6H19.657V156.88H20.167V157.6H20.757V157.99H20.167V159.235C20.167 159.395 20.197 159.508 20.257 159.575C20.3203 159.642 20.4337 159.675 20.597 159.675C20.6937 159.675 20.7903 159.653 20.887 159.61V160.01C20.7603 160.053 20.6037 160.075 20.417 160.075ZM23.1495 160.075C22.9828 160.075 22.8061 160.053 22.6195 160.01C22.4328 159.97 22.2861 159.915 22.1795 159.845V159.415C22.3095 159.492 22.4595 159.555 22.6295 159.605C22.7995 159.652 22.9645 159.675 23.1245 159.675C23.3045 159.675 23.4361 159.653 23.5195 159.61C23.6028 159.567 23.6445 159.497 23.6445 159.4C23.6445 159.327 23.6245 159.268 23.5845 159.225C23.5478 159.178 23.4828 159.137 23.3895 159.1C23.2995 159.063 23.1628 159.02 22.9795 158.97C22.7828 158.913 22.6261 158.857 22.5095 158.8C22.3961 158.74 22.3095 158.665 22.2495 158.575C22.1928 158.485 22.1645 158.368 22.1645 158.225C22.1645 157.995 22.2545 157.822 22.4345 157.705C22.6178 157.585 22.8628 157.525 23.1695 157.525C23.3295 157.525 23.4861 157.54 23.6395 157.57C23.7928 157.6 23.9161 157.642 24.0095 157.695V158.115C23.9128 158.058 23.7928 158.013 23.6495 157.98C23.5095 157.947 23.3661 157.93 23.2195 157.93C23.0428 157.93 22.9078 157.952 22.8145 157.995C22.7211 158.038 22.6745 158.115 22.6745 158.225C22.6745 158.295 22.6945 158.352 22.7345 158.395C22.7745 158.438 22.8378 158.477 22.9245 158.51C23.0145 158.54 23.1561 158.58 23.3495 158.63C23.6528 158.713 23.8628 158.812 23.9795 158.925C24.0995 159.038 24.1595 159.195 24.1595 159.395C24.1595 159.602 24.0745 159.767 23.9045 159.89C23.7345 160.013 23.4828 160.075 23.1495 160.075ZM28.5613 156.505H29.0463L30.8263 159.14V156.505H31.3413V160H30.8513L29.0713 157.365V160H28.5613V156.505ZM33.8491 160.075C33.5591 160.075 33.3257 160.002 33.1491 159.855C32.9757 159.705 32.8891 159.503 32.8891 159.25C32.8891 158.983 32.9724 158.778 33.1391 158.635C33.3091 158.488 33.5491 158.415 33.8591 158.415C34.1891 158.415 34.4691 158.482 34.6991 158.615V158.49C34.6991 158.3 34.6407 158.16 34.5241 158.07C34.4107 157.977 34.2307 157.93 33.9841 157.93C33.8374 157.93 33.6941 157.945 33.5541 157.975C33.4174 158.002 33.2941 158.04 33.1841 158.09V157.68C33.2841 157.633 33.4141 157.597 33.5741 157.57C33.7341 157.54 33.8891 157.525 34.0391 157.525C34.4357 157.525 34.7291 157.613 34.9191 157.79C35.1124 157.963 35.2091 158.205 35.2091 158.515V160H34.7341V159.73C34.6307 159.843 34.5074 159.93 34.3641 159.99C34.2241 160.047 34.0524 160.075 33.8491 160.075ZM33.9741 159.69C34.1341 159.69 34.2791 159.658 34.4091 159.595C34.5391 159.532 34.6357 159.443 34.6991 159.33V159.005C34.4824 158.865 34.2407 158.795 33.9741 158.795C33.7807 158.795 33.6357 158.833 33.5391 158.91C33.4457 158.983 33.3991 159.097 33.3991 159.25C33.3991 159.543 33.5907 159.69 33.9741 159.69ZM36.8357 157.6H37.3157V157.945C37.4291 157.805 37.5574 157.7 37.7007 157.63C37.8441 157.56 37.9924 157.525 38.1457 157.525C38.3391 157.525 38.4924 157.558 38.6057 157.625C38.7191 157.688 38.8024 157.787 38.8557 157.92C38.9624 157.79 39.0924 157.692 39.2457 157.625C39.4024 157.558 39.5591 157.525 39.7157 157.525C40.0091 157.525 40.2207 157.6 40.3507 157.75C40.4807 157.897 40.5457 158.115 40.5457 158.405V160H40.0557V158.47C40.0557 158.273 40.0191 158.135 39.9457 158.055C39.8724 157.972 39.7474 157.93 39.5707 157.93C39.3174 157.93 39.1107 158.04 38.9507 158.26C38.9574 158.31 38.9607 158.392 38.9607 158.505V160H38.4707V158.47C38.4707 158.273 38.4374 158.135 38.3707 158.055C38.3041 157.972 38.1841 157.93 38.0107 157.93C37.7574 157.93 37.5307 158.073 37.3307 158.36V160H36.8357V157.6ZM43.4917 160.075C43.0483 160.075 42.7 159.965 42.4467 159.745C42.1967 159.522 42.0717 159.208 42.0717 158.805C42.0717 158.412 42.1833 158.1 42.4067 157.87C42.6333 157.64 42.955 157.525 43.3717 157.525C43.6483 157.525 43.8833 157.578 44.0767 157.685C44.27 157.788 44.415 157.933 44.5117 158.12C44.6117 158.303 44.6617 158.513 44.6617 158.75V159H42.5517C42.5683 159.227 42.6633 159.397 42.8367 159.51C43.0133 159.62 43.2517 159.675 43.5517 159.675C43.705 159.675 43.86 159.662 44.0167 159.635C44.1733 159.605 44.3117 159.567 44.4317 159.52V159.925C44.325 159.968 44.1833 160.003 44.0067 160.03C43.8333 160.06 43.6617 160.075 43.4917 160.075ZM44.1867 158.645C44.18 158.418 44.105 158.243 43.9617 158.12C43.8217 157.993 43.6217 157.93 43.3617 157.93C43.1083 157.93 42.9117 157.995 42.7717 158.125C42.6317 158.255 42.5583 158.428 42.5517 158.645H44.1867ZM46.3487 160C46.282 160 46.2253 159.978 46.1787 159.935C46.1353 159.888 46.1137 159.832 46.1137 159.765C46.1137 159.698 46.1353 159.642 46.1787 159.595C46.2253 159.548 46.282 159.525 46.3487 159.525C46.4153 159.525 46.472 159.548 46.5187 159.595C46.5653 159.642 46.5887 159.698 46.5887 159.765C46.5887 159.832 46.5653 159.888 46.5187 159.935C46.472 159.978 46.4153 160 46.3487 160ZM53.8377 156.505H54.3527V160H53.8377V156.505ZM56.9297 160.075C56.6864 160.075 56.498 160.005 56.3647 159.865C56.2347 159.725 56.1697 159.527 56.1697 159.27V157.99H55.8047V157.6H56.1697V156.88H56.6797V157.6H57.2697V157.99H56.6797V159.235C56.6797 159.395 56.7097 159.508 56.7697 159.575C56.833 159.642 56.9464 159.675 57.1097 159.675C57.2064 159.675 57.303 159.653 57.3997 159.61V160.01C57.273 160.053 57.1164 160.075 56.9297 160.075ZM61.7254 156.505H62.2404V160H61.7254V156.505ZM64.7774 160.075C64.6107 160.075 64.434 160.053 64.2474 160.01C64.0607 159.97 63.914 159.915 63.8074 159.845V159.415C63.9374 159.492 64.0874 159.555 64.2574 159.605C64.4274 159.652 64.5924 159.675 64.7524 159.675C64.9324 159.675 65.064 159.653 65.1474 159.61C65.2307 159.567 65.2724 159.497 65.2724 159.4C65.2724 159.327 65.2524 159.268 65.2124 159.225C65.1757 159.178 65.1107 159.137 65.0174 159.1C64.9274 159.063 64.7907 159.02 64.6074 158.97C64.4107 158.913 64.254 158.857 64.1374 158.8C64.024 158.74 63.9374 158.665 63.8774 158.575C63.8207 158.485 63.7924 158.368 63.7924 158.225C63.7924 157.995 63.8824 157.822 64.0624 157.705C64.2457 157.585 64.4907 157.525 64.7974 157.525C64.9574 157.525 65.114 157.54 65.2674 157.57C65.4207 157.6 65.544 157.642 65.6374 157.695V158.115C65.5407 158.058 65.4207 158.013 65.2774 157.98C65.1374 157.947 64.994 157.93 64.8474 157.93C64.6707 157.93 64.5357 157.952 64.4424 157.995C64.349 158.038 64.3024 158.115 64.3024 158.225C64.3024 158.295 64.3224 158.352 64.3624 158.395C64.4024 158.438 64.4657 158.477 64.5524 158.51C64.6424 158.54 64.784 158.58 64.9774 158.63C65.2807 158.713 65.4907 158.812 65.6074 158.925C65.7274 159.038 65.7874 159.195 65.7874 159.395C65.7874 159.602 65.7024 159.767 65.5324 159.89C65.3624 160.013 65.1107 160.075 64.7774 160.075ZM70.5193 160.075C70.4259 160.075 70.3276 160.067 70.2243 160.05C70.1209 160.033 70.0426 160.013 69.9893 159.99V159.555C70.0393 159.575 70.1026 159.592 70.1793 159.605C70.2593 159.618 70.3343 159.625 70.4043 159.625C70.7476 159.625 70.9193 159.458 70.9193 159.125V156.505H71.4293V159.16C71.4293 159.447 71.3476 159.672 71.1843 159.835C71.0209 159.995 70.7993 160.075 70.5193 160.075ZM74.0095 160.075C73.6862 160.075 73.4412 159.988 73.2745 159.815C73.1112 159.642 73.0295 159.41 73.0295 159.12V157.6H73.5345V159.1C73.5345 159.483 73.7262 159.675 74.1095 159.675C74.4462 159.675 74.7095 159.523 74.8995 159.22V157.6H75.4045V160H74.9145V159.66C74.8012 159.803 74.6662 159.908 74.5095 159.975C74.3562 160.042 74.1895 160.075 74.0095 160.075ZM77.9375 160.075C77.7709 160.075 77.5942 160.053 77.4075 160.01C77.2209 159.97 77.0742 159.915 76.9675 159.845V159.415C77.0975 159.492 77.2475 159.555 77.4175 159.605C77.5875 159.652 77.7525 159.675 77.9125 159.675C78.0925 159.675 78.2242 159.653 78.3075 159.61C78.3909 159.567 78.4325 159.497 78.4325 159.4C78.4325 159.327 78.4125 159.268 78.3725 159.225C78.3359 159.178 78.2709 159.137 78.1775 159.1C78.0875 159.063 77.9509 159.02 77.7675 158.97C77.5709 158.913 77.4142 158.857 77.2975 158.8C77.1842 158.74 77.0975 158.665 77.0375 158.575C76.9809 158.485 76.9525 158.368 76.9525 158.225C76.9525 157.995 77.0425 157.822 77.2225 157.705C77.4059 157.585 77.6509 157.525 77.9575 157.525C78.1175 157.525 78.2742 157.54 78.4275 157.57C78.5809 157.6 78.7042 157.642 78.7975 157.695V158.115C78.7009 158.058 78.5809 158.013 78.4375 157.98C78.2975 157.947 78.1542 157.93 78.0075 157.93C77.8309 157.93 77.6959 157.952 77.6025 157.995C77.5092 158.038 77.4625 158.115 77.4625 158.225C77.4625 158.295 77.4825 158.352 77.5225 158.395C77.5625 158.438 77.6259 158.477 77.7125 158.51C77.8025 158.54 77.9442 158.58 78.1375 158.63C78.4409 158.713 78.6509 158.812 78.7675 158.925C78.8875 159.038 78.9475 159.195 78.9475 159.395C78.9475 159.602 78.8625 159.767 78.6925 159.89C78.5225 160.013 78.2709 160.075 77.9375 160.075ZM81.3506 160.075C81.1073 160.075 80.9189 160.005 80.7856 159.865C80.6556 159.725 80.5906 159.527 80.5906 159.27V157.99H80.2256V157.6H80.5906V156.88H81.1006V157.6H81.6906V157.99H81.1006V159.235C81.1006 159.395 81.1306 159.508 81.1906 159.575C81.2539 159.642 81.3673 159.675 81.5306 159.675C81.6273 159.675 81.7239 159.653 81.8206 159.61V160.01C81.6939 160.053 81.5373 160.075 81.3506 160.075ZM87.1163 160.075C86.9163 160.075 86.718 160.057 86.5213 160.02C86.328 159.987 86.1696 159.94 86.0463 159.88V159.42C86.3663 159.57 86.7113 159.645 87.0813 159.645C87.6013 159.645 87.8613 159.47 87.8613 159.12C87.8613 159 87.833 158.903 87.7763 158.83C87.7196 158.757 87.638 158.693 87.5313 158.64C87.4246 158.583 87.2513 158.507 87.0113 158.41C86.6813 158.277 86.443 158.13 86.2963 157.97C86.1496 157.81 86.0763 157.608 86.0763 157.365C86.0763 157.182 86.1263 157.02 86.2263 156.88C86.3263 156.737 86.4663 156.627 86.6463 156.55C86.8263 156.47 87.033 156.43 87.2663 156.43C87.4563 156.43 87.628 156.445 87.7813 156.475C87.9346 156.505 88.0846 156.553 88.2313 156.62V157.06C87.9413 156.93 87.648 156.865 87.3513 156.865C87.1113 156.865 86.928 156.908 86.8013 156.995C86.6746 157.082 86.6113 157.205 86.6113 157.365C86.6113 157.475 86.638 157.568 86.6913 157.645C86.748 157.718 86.8296 157.785 86.9363 157.845C87.0463 157.902 87.208 157.973 87.4213 158.06C87.658 158.157 87.8446 158.248 87.9813 158.335C88.118 158.422 88.2213 158.528 88.2913 158.655C88.3646 158.778 88.4013 158.933 88.4013 159.12C88.4013 159.423 88.293 159.658 88.0763 159.825C87.8596 159.992 87.5396 160.075 87.1163 160.075ZM90.8308 160.075C90.5074 160.075 90.2624 159.988 90.0958 159.815C89.9324 159.642 89.8508 159.41 89.8508 159.12V157.6H90.3558V159.1C90.3558 159.483 90.5474 159.675 90.9308 159.675C91.2674 159.675 91.5308 159.523 91.7208 159.22V157.6H92.2258V160H91.7358V159.66C91.6224 159.803 91.4874 159.908 91.3308 159.975C91.1774 160.042 91.0108 160.075 90.8308 160.075ZM93.8738 157.6H94.3638V157.955C94.6105 157.668 94.9438 157.525 95.3638 157.525C95.6038 157.525 95.8188 157.578 96.0088 157.685C96.2022 157.792 96.3522 157.942 96.4588 158.135C96.5688 158.325 96.6238 158.547 96.6238 158.8C96.6238 159.05 96.5688 159.272 96.4588 159.465C96.3522 159.658 96.2038 159.808 96.0138 159.915C95.8238 160.022 95.6072 160.075 95.3638 160.075C95.1638 160.075 94.9772 160.042 94.8038 159.975C94.6305 159.908 94.4888 159.81 94.3788 159.68V161.095H93.8738V157.6ZM95.2488 159.675C95.4122 159.675 95.5588 159.64 95.6888 159.57C95.8222 159.497 95.9255 159.393 95.9988 159.26C96.0755 159.127 96.1138 158.973 96.1138 158.8C96.1138 158.627 96.0755 158.475 95.9988 158.345C95.9255 158.212 95.8222 158.11 95.6888 158.04C95.5588 157.967 95.4122 157.93 95.2488 157.93C95.0455 157.93 94.8655 157.983 94.7088 158.09C94.5555 158.197 94.4455 158.343 94.3788 158.53V159.07C94.4355 159.253 94.5438 159.4 94.7038 159.51C94.8638 159.62 95.0455 159.675 95.2488 159.675ZM99.4946 160.075C99.0513 160.075 98.7029 159.965 98.4496 159.745C98.1996 159.522 98.0746 159.208 98.0746 158.805C98.0746 158.412 98.1863 158.1 98.4096 157.87C98.6363 157.64 98.9579 157.525 99.3746 157.525C99.6513 157.525 99.8863 157.578 100.08 157.685C100.273 157.788 100.418 157.933 100.515 158.12C100.615 158.303 100.665 158.513 100.665 158.75V159H98.5546C98.5713 159.227 98.6663 159.397 98.8396 159.51C99.0163 159.62 99.2546 159.675 99.5546 159.675C99.7079 159.675 99.8629 159.662 100.02 159.635C100.176 159.605 100.315 159.567 100.435 159.52V159.925C100.328 159.968 100.186 160.003 100.01 160.03C99.8363 160.06 99.6646 160.075 99.4946 160.075ZM100.19 158.645C100.183 158.418 100.108 158.243 99.9646 158.12C99.8246 157.993 99.6246 157.93 99.3646 157.93C99.1113 157.93 98.9146 157.995 98.7746 158.125C98.6346 158.255 98.5613 158.428 98.5546 158.645H100.19ZM102.217 157.6H102.707V158.03C102.807 157.883 102.947 157.775 103.127 157.705C103.31 157.635 103.522 157.6 103.762 157.6V157.995C103.505 157.995 103.285 158.037 103.102 158.12C102.918 158.203 102.792 158.335 102.722 158.515V160H102.217V157.6ZM105.509 157.13C105.425 157.13 105.355 157.102 105.299 157.045C105.242 156.988 105.214 156.918 105.214 156.835C105.214 156.752 105.242 156.682 105.299 156.625C105.355 156.568 105.425 156.54 105.509 156.54C105.595 156.54 105.667 156.568 105.724 156.625C105.784 156.682 105.814 156.752 105.814 156.835C105.814 156.918 105.784 156.988 105.724 157.045C105.667 157.102 105.595 157.13 105.509 157.13ZM105.254 157.6H105.769V160H105.254V157.6ZM108.729 160.075C108.459 160.075 108.22 160.025 108.014 159.925C107.81 159.822 107.65 159.675 107.534 159.485C107.42 159.292 107.364 159.065 107.364 158.805C107.364 158.548 107.42 158.323 107.534 158.13C107.647 157.937 107.807 157.788 108.014 157.685C108.22 157.578 108.459 157.525 108.729 157.525C108.999 157.525 109.237 157.578 109.444 157.685C109.65 157.788 109.81 157.937 109.924 158.13C110.04 158.323 110.099 158.548 110.099 158.805C110.099 159.065 110.04 159.292 109.924 159.485C109.81 159.675 109.65 159.822 109.444 159.925C109.237 160.025 108.999 160.075 108.729 160.075ZM108.729 159.675C108.989 159.675 109.195 159.595 109.349 159.435C109.502 159.275 109.579 159.065 109.579 158.805C109.579 158.535 109.502 158.322 109.349 158.165C109.195 158.008 108.989 157.93 108.729 157.93C108.469 157.93 108.262 158.008 108.109 158.165C107.955 158.322 107.879 158.535 107.879 158.805C107.879 159.065 107.955 159.275 108.109 159.435C108.262 159.595 108.469 159.675 108.729 159.675ZM111.647 157.6H112.137V158.03C112.237 157.883 112.377 157.775 112.557 157.705C112.741 157.635 112.952 157.6 113.192 157.6V157.995C112.936 157.995 112.716 158.037 112.532 158.12C112.349 158.203 112.222 158.335 112.152 158.515V160H111.647V157.6ZM118.38 156.935H117.295V156.505H119.98V156.935H118.895V160H118.38V156.935ZM122.118 160.075C121.848 160.075 121.61 160.025 121.403 159.925C121.2 159.822 121.04 159.675 120.923 159.485C120.81 159.292 120.753 159.065 120.753 158.805C120.753 158.548 120.81 158.323 120.923 158.13C121.037 157.937 121.197 157.788 121.403 157.685C121.61 157.578 121.848 157.525 122.118 157.525C122.388 157.525 122.627 157.578 122.833 157.685C123.04 157.788 123.2 157.937 123.313 158.13C123.43 158.323 123.488 158.548 123.488 158.805C123.488 159.065 123.43 159.292 123.313 159.485C123.2 159.675 123.04 159.822 122.833 159.925C122.627 160.025 122.388 160.075 122.118 160.075ZM122.118 159.675C122.378 159.675 122.585 159.595 122.738 159.435C122.892 159.275 122.968 159.065 122.968 158.805C122.968 158.535 122.892 158.322 122.738 158.165C122.585 158.008 122.378 157.93 122.118 157.93C121.858 157.93 121.652 158.008 121.498 158.165C121.345 158.322 121.268 158.535 121.268 158.805C121.268 159.065 121.345 159.275 121.498 159.435C121.652 159.595 121.858 159.675 122.118 159.675ZM18.21 164.935H17.125V164.505H19.81V164.935H18.725V168H18.21V164.935ZM21.2596 164.305H21.7646V165.93C21.9946 165.66 22.3012 165.525 22.6846 165.525C23.0046 165.525 23.2429 165.61 23.3996 165.78C23.5562 165.95 23.6346 166.178 23.6346 166.465V168H23.1296V166.515C23.1296 166.125 22.9429 165.93 22.5696 165.93C22.4096 165.93 22.2596 165.968 22.1196 166.045C21.9829 166.118 21.8646 166.232 21.7646 166.385V168H21.2596V164.305ZM26.5776 168.075C26.1343 168.075 25.786 167.965 25.5326 167.745C25.2826 167.522 25.1576 167.208 25.1576 166.805C25.1576 166.412 25.2693 166.1 25.4926 165.87C25.7193 165.64 26.041 165.525 26.4576 165.525C26.7343 165.525 26.9693 165.578 27.1626 165.685C27.356 165.788 27.501 165.933 27.5976 166.12C27.6976 166.303 27.7476 166.513 27.7476 166.75V167H25.6376C25.6543 167.227 25.7493 167.397 25.9226 167.51C26.0993 167.62 26.3376 167.675 26.6376 167.675C26.791 167.675 26.946 167.662 27.1026 167.635C27.2593 167.605 27.3976 167.567 27.5176 167.52V167.925C27.411 167.968 27.2693 168.003 27.0926 168.03C26.9193 168.06 26.7476 168.075 26.5776 168.075ZM27.2726 166.645C27.266 166.418 27.191 166.243 27.0476 166.12C26.9076 165.993 26.7076 165.93 26.4476 165.93C26.1943 165.93 25.9976 165.995 25.8576 166.125C25.7176 166.255 25.6443 166.428 25.6376 166.645H27.2726ZM33.8902 168.075C33.5435 168.075 33.2302 168 32.9502 167.85C32.6702 167.697 32.4502 167.482 32.2902 167.205C32.1302 166.928 32.0502 166.612 32.0502 166.255C32.0502 165.898 32.1302 165.582 32.2902 165.305C32.4502 165.028 32.6702 164.813 32.9502 164.66C33.2302 164.507 33.5435 164.43 33.8902 164.43C34.2369 164.43 34.5502 164.507 34.8302 164.66C35.1102 164.813 35.3302 165.028 35.4902 165.305C35.6502 165.582 35.7302 165.898 35.7302 166.255C35.7302 166.612 35.6502 166.928 35.4902 167.205C35.3302 167.482 35.1102 167.697 34.8302 167.85C34.5502 168 34.2369 168.075 33.8902 168.075ZM33.8902 167.615C34.1369 167.615 34.3602 167.56 34.5602 167.45C34.7635 167.337 34.9235 167.178 35.0402 166.975C35.1569 166.768 35.2152 166.528 35.2152 166.255C35.2152 165.985 35.1569 165.748 35.0402 165.545C34.9269 165.338 34.7702 165.18 34.5702 165.07C34.3702 164.957 34.1469 164.9 33.9002 164.9C33.6502 164.9 33.4235 164.955 33.2202 165.065C33.0202 165.175 32.8602 165.333 32.7402 165.54C32.6235 165.747 32.5652 165.985 32.5652 166.255C32.5652 166.528 32.6235 166.768 32.7402 166.975C32.8569 167.178 33.0152 167.337 33.2152 167.45C33.4185 167.56 33.6435 167.615 33.8902 167.615ZM38.0303 168.075C37.7869 168.075 37.5986 168.005 37.4653 167.865C37.3353 167.725 37.2703 167.527 37.2703 167.27V165.99H36.9053V165.6H37.2703V164.88H37.7803V165.6H38.3703V165.99H37.7803V167.235C37.7803 167.395 37.8103 167.508 37.8703 167.575C37.9336 167.642 38.0469 167.675 38.2103 167.675C38.3069 167.675 38.4036 167.653 38.5003 167.61V168.01C38.3736 168.053 38.2169 168.075 38.0303 168.075ZM39.9754 164.305H40.4804V165.93C40.7104 165.66 41.0171 165.525 41.4004 165.525C41.7204 165.525 41.9587 165.61 42.1154 165.78C42.2721 165.95 42.3504 166.178 42.3504 166.465V168H41.8454V166.515C41.8454 166.125 41.6587 165.93 41.2854 165.93C41.1254 165.93 40.9754 165.968 40.8354 166.045C40.6987 166.118 40.5804 166.232 40.4804 166.385V168H39.9754V164.305ZM45.2934 168.075C44.8501 168.075 44.5018 167.965 44.2484 167.745C43.9984 167.522 43.8734 167.208 43.8734 166.805C43.8734 166.412 43.9851 166.1 44.2084 165.87C44.4351 165.64 44.7568 165.525 45.1734 165.525C45.4501 165.525 45.6851 165.578 45.8784 165.685C46.0718 165.788 46.2168 165.933 46.3134 166.12C46.4134 166.303 46.4634 166.513 46.4634 166.75V167H44.3534C44.3701 167.227 44.4651 167.397 44.6384 167.51C44.8151 167.62 45.0534 167.675 45.3534 167.675C45.5068 167.675 45.6618 167.662 45.8184 167.635C45.9751 167.605 46.1134 167.567 46.2334 167.52V167.925C46.1268 167.968 45.9851 168.003 45.8084 168.03C45.6351 168.06 45.4634 168.075 45.2934 168.075ZM45.9884 166.645C45.9818 166.418 45.9068 166.243 45.7634 166.12C45.6234 165.993 45.4234 165.93 45.1634 165.93C44.9101 165.93 44.7134 165.995 44.5734 166.125C44.4334 166.255 44.3601 166.428 44.3534 166.645H45.9884ZM48.0154 165.6H48.5054V166.03C48.6054 165.883 48.7454 165.775 48.9254 165.705C49.1088 165.635 49.3204 165.6 49.5604 165.6V165.995C49.3038 165.995 49.0838 166.037 48.9004 166.12C48.7171 166.203 48.5904 166.335 48.5204 166.515V168H48.0154V165.6ZM53.8631 164.505H54.3731V167.575H56.1431V168H53.8631V164.505ZM58.6574 168.075C58.3874 168.075 58.149 168.025 57.9424 167.925C57.739 167.822 57.579 167.675 57.4624 167.485C57.349 167.292 57.2924 167.065 57.2924 166.805C57.2924 166.548 57.349 166.323 57.4624 166.13C57.5757 165.937 57.7357 165.788 57.9424 165.685C58.149 165.578 58.3874 165.525 58.6574 165.525C58.9274 165.525 59.1657 165.578 59.3724 165.685C59.579 165.788 59.739 165.937 59.8524 166.13C59.969 166.323 60.0274 166.548 60.0274 166.805C60.0274 167.065 59.969 167.292 59.8524 167.485C59.739 167.675 59.579 167.822 59.3724 167.925C59.1657 168.025 58.9274 168.075 58.6574 168.075ZM58.6574 167.675C58.9174 167.675 59.124 167.595 59.2774 167.435C59.4307 167.275 59.5074 167.065 59.5074 166.805C59.5074 166.535 59.4307 166.322 59.2774 166.165C59.124 166.008 58.9174 165.93 58.6574 165.93C58.3974 165.93 58.1907 166.008 58.0374 166.165C57.884 166.322 57.8074 166.535 57.8074 166.805C57.8074 167.065 57.884 167.275 58.0374 167.435C58.1907 167.595 58.3974 167.675 58.6574 167.675ZM61.1488 165.6H61.6638L62.2038 167.38L62.7388 165.6H63.1938L63.7288 167.38L64.2688 165.6H64.7888L64.0088 168H63.5238L62.9688 166.21L62.4138 168H61.9238L61.1488 165.6ZM67.5093 168.075C67.0659 168.075 66.7176 167.965 66.4643 167.745C66.2143 167.522 66.0893 167.208 66.0893 166.805C66.0893 166.412 66.2009 166.1 66.4243 165.87C66.6509 165.64 66.9726 165.525 67.3893 165.525C67.6659 165.525 67.9009 165.578 68.0943 165.685C68.2876 165.788 68.4326 165.933 68.5293 166.12C68.6293 166.303 68.6793 166.513 68.6793 166.75V167H66.5693C66.5859 167.227 66.6809 167.397 66.8543 167.51C67.0309 167.62 67.2693 167.675 67.5693 167.675C67.7226 167.675 67.8776 167.662 68.0343 167.635C68.1909 167.605 68.3293 167.567 68.4493 167.52V167.925C68.3426 167.968 68.2009 168.003 68.0243 168.03C67.8509 168.06 67.6793 168.075 67.5093 168.075ZM68.2043 166.645C68.1976 166.418 68.1226 166.243 67.9793 166.12C67.8393 165.993 67.6393 165.93 67.3793 165.93C67.1259 165.93 66.9293 165.995 66.7893 166.125C66.6493 166.255 66.5759 166.428 66.5693 166.645H68.2043ZM70.2313 165.6H70.7213V166.03C70.8213 165.883 70.9613 165.775 71.1413 165.705C71.3246 165.635 71.5363 165.6 71.7763 165.6V165.995C71.5196 165.995 71.2996 166.037 71.1163 166.12C70.9329 166.203 70.8063 166.335 70.7363 166.515V168H70.2313V165.6ZM74.4689 168.075C74.2022 168.075 73.9656 168.025 73.7589 167.925C73.5522 167.825 73.3906 167.68 73.2739 167.49C73.1606 167.297 73.1039 167.068 73.1039 166.805C73.1039 166.542 73.1606 166.315 73.2739 166.125C73.3906 165.932 73.5522 165.783 73.7589 165.68C73.9689 165.577 74.2089 165.525 74.4789 165.525C74.8456 165.525 75.1389 165.597 75.3589 165.74V166.155C75.1422 166.005 74.8656 165.93 74.5289 165.93C74.2556 165.93 74.0339 166.005 73.8639 166.155C73.6972 166.302 73.6139 166.518 73.6139 166.805C73.6139 167.092 73.6972 167.308 73.8639 167.455C74.0306 167.602 74.2489 167.675 74.5189 167.675C74.8556 167.675 75.1456 167.595 75.3889 167.435V167.845C75.2722 167.925 75.1389 167.983 74.9889 168.02C74.8422 168.057 74.6689 168.075 74.4689 168.075ZM77.7739 168.075C77.4839 168.075 77.2505 168.002 77.0739 167.855C76.9005 167.705 76.8139 167.503 76.8139 167.25C76.8139 166.983 76.8972 166.778 77.0639 166.635C77.2339 166.488 77.4739 166.415 77.7839 166.415C78.1139 166.415 78.3939 166.482 78.6239 166.615V166.49C78.6239 166.3 78.5655 166.16 78.4489 166.07C78.3355 165.977 78.1555 165.93 77.9089 165.93C77.7622 165.93 77.6189 165.945 77.4789 165.975C77.3422 166.002 77.2189 166.04 77.1089 166.09V165.68C77.2089 165.633 77.3389 165.597 77.4989 165.57C77.6589 165.54 77.8139 165.525 77.9639 165.525C78.3605 165.525 78.6539 165.613 78.8439 165.79C79.0372 165.963 79.1339 166.205 79.1339 166.515V168H78.6589V167.73C78.5555 167.843 78.4322 167.93 78.2889 167.99C78.1489 168.047 77.9772 168.075 77.7739 168.075ZM77.8989 167.69C78.0589 167.69 78.2039 167.658 78.3339 167.595C78.4639 167.532 78.5605 167.443 78.6239 167.33V167.005C78.4072 166.865 78.1655 166.795 77.8989 166.795C77.7055 166.795 77.5605 166.833 77.4639 166.91C77.3705 166.983 77.3239 167.097 77.3239 167.25C77.3239 167.543 77.5155 167.69 77.8989 167.69ZM81.5723 168.075C81.4056 168.075 81.229 168.053 81.0423 168.01C80.8556 167.97 80.709 167.915 80.6023 167.845V167.415C80.7323 167.492 80.8823 167.555 81.0523 167.605C81.2223 167.652 81.3873 167.675 81.5473 167.675C81.7273 167.675 81.859 167.653 81.9423 167.61C82.0256 167.567 82.0673 167.497 82.0673 167.4C82.0673 167.327 82.0473 167.268 82.0073 167.225C81.9706 167.178 81.9056 167.137 81.8123 167.1C81.7223 167.063 81.5856 167.02 81.4023 166.97C81.2056 166.913 81.049 166.857 80.9323 166.8C80.819 166.74 80.7323 166.665 80.6723 166.575C80.6156 166.485 80.5873 166.368 80.5873 166.225C80.5873 165.995 80.6773 165.822 80.8573 165.705C81.0406 165.585 81.2856 165.525 81.5923 165.525C81.7523 165.525 81.909 165.54 82.0623 165.57C82.2156 165.6 82.339 165.642 82.4323 165.695V166.115C82.3356 166.058 82.2156 166.013 82.0723 165.98C81.9323 165.947 81.789 165.93 81.6423 165.93C81.4656 165.93 81.3306 165.952 81.2373 165.995C81.144 166.038 81.0973 166.115 81.0973 166.225C81.0973 166.295 81.1173 166.352 81.1573 166.395C81.1973 166.438 81.2606 166.477 81.3473 166.51C81.4373 166.54 81.579 166.58 81.7723 166.63C82.0756 166.713 82.2856 166.812 82.4023 166.925C82.5223 167.038 82.5823 167.195 82.5823 167.395C82.5823 167.602 82.4973 167.767 82.3273 167.89C82.1573 168.013 81.9056 168.075 81.5723 168.075ZM85.4536 168.075C85.0103 168.075 84.6619 167.965 84.4086 167.745C84.1586 167.522 84.0336 167.208 84.0336 166.805C84.0336 166.412 84.1453 166.1 84.3686 165.87C84.5953 165.64 84.9169 165.525 85.3336 165.525C85.6103 165.525 85.8453 165.578 86.0386 165.685C86.2319 165.788 86.3769 165.933 86.4736 166.12C86.5736 166.303 86.6236 166.513 86.6236 166.75V167H84.5136C84.5303 167.227 84.6253 167.397 84.7986 167.51C84.9753 167.62 85.2136 167.675 85.5136 167.675C85.6669 167.675 85.8219 167.662 85.9786 167.635C86.1353 167.605 86.2736 167.567 86.3936 167.52V167.925C86.2869 167.968 86.1453 168.003 85.9686 168.03C85.7953 168.06 85.6236 168.075 85.4536 168.075ZM86.1486 166.645C86.1419 166.418 86.0669 166.243 85.9236 166.12C85.7836 165.993 85.5836 165.93 85.3236 165.93C85.0703 165.93 84.8736 165.995 84.7336 166.125C84.5936 166.255 84.5203 166.428 84.5136 166.645H86.1486ZM90.9262 164.505H91.4562L92.2362 167.16L93.0062 164.505H93.4062L94.1712 167.16L94.9512 164.505H95.4812L94.4612 168H93.9762L93.2012 165.36L92.4312 168H91.9462L90.9262 164.505ZM97.5151 168.075C97.2251 168.075 96.9917 168.002 96.8151 167.855C96.6417 167.705 96.5551 167.503 96.5551 167.25C96.5551 166.983 96.6384 166.778 96.8051 166.635C96.9751 166.488 97.2151 166.415 97.5251 166.415C97.8551 166.415 98.1351 166.482 98.3651 166.615V166.49C98.3651 166.3 98.3067 166.16 98.1901 166.07C98.0767 165.977 97.8967 165.93 97.6501 165.93C97.5034 165.93 97.3601 165.945 97.2201 165.975C97.0834 166.002 96.9601 166.04 96.8501 166.09V165.68C96.9501 165.633 97.0801 165.597 97.2401 165.57C97.4001 165.54 97.5551 165.525 97.7051 165.525C98.1017 165.525 98.3951 165.613 98.5851 165.79C98.7784 165.963 98.8751 166.205 98.8751 166.515V168H98.4001V167.73C98.2967 167.843 98.1734 167.93 98.0301 167.99C97.8901 168.047 97.7184 168.075 97.5151 168.075ZM97.6401 167.69C97.8001 167.69 97.9451 167.658 98.0751 167.595C98.2051 167.532 98.3017 167.443 98.3651 167.33V167.005C98.1484 166.865 97.9067 166.795 97.6401 166.795C97.4467 166.795 97.3017 166.833 97.2051 166.91C97.1117 166.983 97.0651 167.097 97.0651 167.25C97.0651 167.543 97.2567 167.69 97.6401 167.69ZM101.3 168.075C101.056 168.075 100.868 168.005 100.735 167.865C100.605 167.725 100.54 167.527 100.54 167.27V165.99H100.175V165.6H100.54V164.88H101.05V165.6H101.64V165.99H101.05V167.235C101.05 167.395 101.08 167.508 101.14 167.575C101.203 167.642 101.316 167.675 101.48 167.675C101.576 167.675 101.673 167.653 101.77 167.61V168.01C101.643 168.053 101.486 168.075 101.3 168.075ZM104.565 168.075C104.122 168.075 103.773 167.965 103.52 167.745C103.27 167.522 103.145 167.208 103.145 166.805C103.145 166.412 103.257 166.1 103.48 165.87C103.707 165.64 104.028 165.525 104.445 165.525C104.722 165.525 104.957 165.578 105.15 165.685C105.343 165.788 105.488 165.933 105.585 166.12C105.685 166.303 105.735 166.513 105.735 166.75V167H103.625C103.642 167.227 103.737 167.397 103.91 167.51C104.087 167.62 104.325 167.675 104.625 167.675C104.778 167.675 104.933 167.662 105.09 167.635C105.247 167.605 105.385 167.567 105.505 167.52V167.925C105.398 167.968 105.257 168.003 105.08 168.03C104.907 168.06 104.735 168.075 104.565 168.075ZM105.26 166.645C105.253 166.418 105.178 166.243 105.035 166.12C104.895 165.993 104.695 165.93 104.435 165.93C104.182 165.93 103.985 165.995 103.845 166.125C103.705 166.255 103.632 166.428 103.625 166.645H105.26ZM107.287 165.6H107.777V166.03C107.877 165.883 108.017 165.775 108.197 165.705C108.38 165.635 108.592 165.6 108.832 165.6V165.995C108.575 165.995 108.355 166.037 108.172 166.12C107.989 166.203 107.862 166.335 107.792 166.515V168H107.287V165.6ZM111.096 168.075C110.929 168.075 110.752 168.053 110.566 168.01C110.379 167.97 110.232 167.915 110.126 167.845V167.415C110.256 167.492 110.406 167.555 110.576 167.605C110.746 167.652 110.911 167.675 111.071 167.675C111.251 167.675 111.382 167.653 111.466 167.61C111.549 167.567 111.591 167.497 111.591 167.4C111.591 167.327 111.571 167.268 111.531 167.225C111.494 167.178 111.429 167.137 111.336 167.1C111.246 167.063 111.109 167.02 110.926 166.97C110.729 166.913 110.572 166.857 110.456 166.8C110.342 166.74 110.256 166.665 110.196 166.575C110.139 166.485 110.111 166.368 110.111 166.225C110.111 165.995 110.201 165.822 110.381 165.705C110.564 165.585 110.809 165.525 111.116 165.525C111.276 165.525 111.432 165.54 111.586 165.57C111.739 165.6 111.862 165.642 111.956 165.695V166.115C111.859 166.058 111.739 166.013 111.596 165.98C111.456 165.947 111.312 165.93 111.166 165.93C110.989 165.93 110.854 165.952 110.761 165.995C110.667 166.038 110.621 166.115 110.621 166.225C110.621 166.295 110.641 166.352 110.681 166.395C110.721 166.438 110.784 166.477 110.871 166.51C110.961 166.54 111.102 166.58 111.296 166.63C111.599 166.713 111.809 166.812 111.926 166.925C112.046 167.038 112.106 167.195 112.106 167.395C112.106 167.602 112.021 167.767 111.851 167.89C111.681 168.013 111.429 168.075 111.096 168.075ZM113.792 168C113.725 168 113.669 167.978 113.622 167.935C113.579 167.888 113.557 167.832 113.557 167.765C113.557 167.698 113.579 167.642 113.622 167.595C113.669 167.548 113.725 167.525 113.792 167.525C113.859 167.525 113.915 167.548 113.962 167.595C114.009 167.642 114.032 167.698 114.032 167.765C114.032 167.832 114.009 167.888 113.962 167.935C113.915 167.978 113.859 168 113.792 168Z" fill="black"/>
<rect x="12.25" y="143.25" width="125.5" height="46.5" stroke="#6C6C6C" stroke-width="0.5"/>
<path d="M12.675 24.515H14.265L16.605 32.48L18.915 24.515H20.115L22.41 32.48L24.75 24.515H26.34L23.28 35H21.825L19.5 27.08L17.19 35H15.735L12.675 24.515ZM32.4417 35.225C31.5717 35.225 30.8717 35.005 30.3417 34.565C29.8217 34.115 29.5617 33.51 29.5617 32.75C29.5617 31.95 29.8117 31.335 30.3117 30.905C30.8217 30.465 31.5417 30.245 32.4717 30.245C33.4617 30.245 34.3017 30.445 34.9917 30.845V30.47C34.9917 29.9 34.8167 29.48 34.4667 29.21C34.1267 28.93 33.5867 28.79 32.8467 28.79C32.4067 28.79 31.9767 28.835 31.5567 28.925C31.1467 29.005 30.7767 29.12 30.4467 29.27V28.04C30.7467 27.9 31.1367 27.79 31.6167 27.71C32.0967 27.62 32.5617 27.575 33.0117 27.575C34.2017 27.575 35.0817 27.84 35.6517 28.37C36.2317 28.89 36.5217 29.615 36.5217 30.545V35H35.0967V34.19C34.7867 34.53 34.4167 34.79 33.9867 34.97C33.5667 35.14 33.0517 35.225 32.4417 35.225ZM32.8167 34.07C33.2967 34.07 33.7317 33.975 34.1217 33.785C34.5117 33.595 34.8017 33.33 34.9917 32.99V32.015C34.3417 31.595 33.6167 31.385 32.8167 31.385C32.2367 31.385 31.8017 31.5 31.5117 31.73C31.2317 31.95 31.0917 32.29 31.0917 32.75C31.0917 33.63 31.6667 34.07 32.8167 34.07ZM43.7959 35.225C43.0659 35.225 42.5009 35.015 42.1009 34.595C41.7109 34.175 41.5159 33.58 41.5159 32.81V28.97H40.4209V27.8H41.5159V25.64H43.0459V27.8H44.8159V28.97H43.0459V32.705C43.0459 33.185 43.1359 33.525 43.3159 33.725C43.5059 33.925 43.8459 34.025 44.3359 34.025C44.6259 34.025 44.9159 33.96 45.2059 33.83V35.03C44.8259 35.16 44.3559 35.225 43.7959 35.225ZM53.5913 35.225C52.2613 35.225 51.2163 34.895 50.4563 34.235C49.7063 33.565 49.3313 32.625 49.3313 31.415C49.3313 30.235 49.6663 29.3 50.3363 28.61C51.0163 27.92 51.9813 27.575 53.2313 27.575C54.0613 27.575 54.7663 27.735 55.3463 28.055C55.9263 28.365 56.3613 28.8 56.6513 29.36C56.9513 29.91 57.1013 30.54 57.1013 31.25V32H50.7713C50.8213 32.68 51.1063 33.19 51.6263 33.53C52.1563 33.86 52.8713 34.025 53.7713 34.025C54.2313 34.025 54.6963 33.985 55.1663 33.905C55.6363 33.815 56.0513 33.7 56.4113 33.56V34.775C56.0913 34.905 55.6663 35.01 55.1363 35.09C54.6163 35.18 54.1013 35.225 53.5913 35.225ZM55.6763 30.935C55.6563 30.255 55.4313 29.73 55.0013 29.36C54.5813 28.98 53.9813 28.79 53.2013 28.79C52.4413 28.79 51.8513 28.985 51.4313 29.375C51.0113 29.765 50.7913 30.285 50.7713 30.935H55.6763ZM61.7572 27.8H63.2272V29.09C63.5272 28.65 63.9472 28.325 64.4872 28.115C65.0372 27.905 65.6722 27.8 66.3922 27.8V28.985C65.6222 28.985 64.9622 29.11 64.4122 29.36C63.8622 29.61 63.4822 30.005 63.2722 30.545V35H61.7572V27.8Z" fill="black"/>
<path d="M12.8691 19.0381L17.1807 17.1875V16.4746L12.8691 14.6289V15.5615L16.0283 16.7334L16.3213 16.8262L16.0283 16.9092L12.8691 18.1006V19.0381ZM20.875 19.0381L25.1865 17.1875V16.4746L20.875 14.6289V15.5615L24.0342 16.7334L24.3271 16.8262L24.0342 16.9092L20.875 18.1006V19.0381ZM37.375 20H38.0879L38.9033 16.7627L39.0352 15.9424L39.1719 16.7627L39.9971 20H40.71L41.833 14.7168H41.0322L40.4463 18.0859L40.3145 18.916L40.1729 18.0859L39.333 14.7168H38.752L37.9072 18.0859L37.7754 18.8428L37.668 18.0859L37.0527 14.7168H36.252L37.375 20ZM48.3447 20H49.2871V19.9219C49.2285 19.7754 49.1829 19.6045 49.1504 19.4092C49.1178 19.2106 49.1016 19.0234 49.1016 18.8477V16.3916C49.1016 16.0954 49.0479 15.8366 48.9404 15.6152C48.833 15.3939 48.6865 15.2083 48.501 15.0586C48.3122 14.9121 48.0892 14.8031 47.832 14.7314C47.5749 14.6566 47.2965 14.6191 46.9971 14.6191C46.6683 14.6191 46.3737 14.6647 46.1133 14.7559C45.8561 14.847 45.638 14.9658 45.459 15.1123C45.2767 15.262 45.1367 15.4297 45.0391 15.6152C44.9447 15.8008 44.8958 15.9896 44.8926 16.1816H45.8008C45.8008 16.071 45.8268 15.9652 45.8789 15.8643C45.9342 15.7601 46.0107 15.6706 46.1084 15.5957C46.2061 15.5208 46.3249 15.4606 46.4648 15.415C46.6081 15.3695 46.7692 15.3467 46.9482 15.3467C47.1403 15.3467 47.3128 15.3711 47.4658 15.4199C47.6221 15.4688 47.7539 15.5371 47.8613 15.625C47.9688 15.7161 48.0518 15.8252 48.1104 15.9521C48.1689 16.0791 48.1982 16.2223 48.1982 16.3818V16.7969H47.2119C46.8441 16.7969 46.5104 16.8327 46.2109 16.9043C45.9147 16.9759 45.6608 17.0833 45.4492 17.2266C45.2376 17.373 45.0732 17.5553 44.9561 17.7734C44.8421 17.9915 44.7852 18.2454 44.7852 18.5352C44.7852 18.7565 44.8275 18.9632 44.9121 19.1553C45 19.3441 45.1237 19.5068 45.2832 19.6436C45.4395 19.7835 45.6299 19.8942 45.8545 19.9756C46.0824 20.057 46.3363 20.0977 46.6162 20.0977C46.7887 20.0977 46.9515 20.0798 47.1045 20.0439C47.2575 20.0081 47.4023 19.9593 47.5391 19.8975C47.6725 19.8356 47.7946 19.764 47.9053 19.6826C48.0192 19.6012 48.1217 19.515 48.2129 19.4238C48.2227 19.5345 48.2373 19.6419 48.2568 19.7461C48.2796 19.847 48.3089 19.9316 48.3447 20ZM46.748 19.3115C46.5723 19.3115 46.4176 19.2887 46.2842 19.2432C46.1507 19.1976 46.04 19.1341 45.9521 19.0527C45.8643 18.9746 45.7975 18.8802 45.752 18.7695C45.7096 18.6589 45.6885 18.5384 45.6885 18.4082C45.6885 18.2715 45.7129 18.1494 45.7617 18.042C45.8138 17.9346 45.8887 17.8418 45.9863 17.7637C46.123 17.653 46.307 17.5716 46.5381 17.5195C46.7725 17.4642 47.0459 17.4365 47.3584 17.4365H48.1982V18.5059C48.1462 18.61 48.0745 18.7109 47.9834 18.8086C47.8923 18.903 47.7848 18.9876 47.6611 19.0625C47.5342 19.1374 47.3942 19.1976 47.2412 19.2432C47.0882 19.2887 46.9238 19.3115 46.748 19.3115ZM55.0176 13.4375H54.1094V14.7168H52.7227V15.415H54.1094V18.2861C54.1094 18.6117 54.1517 18.89 54.2363 19.1211C54.3242 19.349 54.443 19.5345 54.5928 19.6777C54.7425 19.8242 54.9183 19.9316 55.1201 20C55.3252 20.0651 55.5449 20.0977 55.7793 20.0977C55.9193 20.0977 56.0592 20.0911 56.1992 20.0781C56.3424 20.0651 56.4775 20.0456 56.6045 20.0195C56.7314 19.9967 56.8486 19.9691 56.9561 19.9365C57.0635 19.9007 57.1546 19.86 57.2295 19.8145L57.1025 19.1748C57.0472 19.1878 56.9756 19.2041 56.8877 19.2236C56.8031 19.2399 56.7119 19.2562 56.6143 19.2725C56.5133 19.2887 56.4108 19.3034 56.3066 19.3164C56.2025 19.3262 56.1016 19.3311 56.0039 19.3311C55.8704 19.3311 55.7435 19.3148 55.623 19.2822C55.5059 19.2497 55.4017 19.1927 55.3105 19.1113C55.2194 19.0332 55.1478 18.9274 55.0957 18.7939C55.0436 18.6605 55.0176 18.4912 55.0176 18.2861V15.415H57.0293V14.7168H55.0176V13.4375ZM63.2188 20.0977C63.7331 20.0977 64.1644 19.9951 64.5127 19.79C64.8643 19.5817 65.1279 19.3441 65.3037 19.0771L64.752 18.6475C64.5859 18.8623 64.3776 19.0348 64.127 19.165C63.8763 19.2952 63.5898 19.3604 63.2676 19.3604C63.0234 19.3604 62.8005 19.3148 62.5986 19.2236C62.3968 19.1325 62.2243 19.0072 62.0811 18.8477C61.9411 18.6979 61.8304 18.5254 61.749 18.3301C61.6709 18.1348 61.6204 17.9085 61.5977 17.6514V17.6172H65.3721V17.2119C65.3721 16.8441 65.3249 16.5023 65.2305 16.1865C65.1393 15.8708 64.9993 15.5957 64.8105 15.3613C64.6217 15.1302 64.3841 14.9495 64.0977 14.8193C63.8145 14.6859 63.4824 14.6191 63.1016 14.6191C62.7988 14.6191 62.5026 14.681 62.2129 14.8047C61.9264 14.9284 61.6709 15.1058 61.4463 15.3369C61.2184 15.5713 61.0361 15.8577 60.8994 16.1963C60.7627 16.5316 60.6943 16.9124 60.6943 17.3389V17.5439C60.6943 17.9118 60.7562 18.252 60.8799 18.5645C61.0036 18.877 61.1761 19.1471 61.3975 19.375C61.6188 19.6029 61.8841 19.7803 62.1934 19.9072C62.5059 20.0342 62.8477 20.0977 63.2188 20.0977ZM63.1016 15.3613C63.3327 15.3613 63.5312 15.4036 63.6973 15.4883C63.8665 15.5729 64.0065 15.6836 64.1172 15.8203C64.2279 15.957 64.3141 16.1198 64.376 16.3086C64.4378 16.4941 64.4688 16.6683 64.4688 16.8311V16.875H61.627C61.6628 16.6309 61.7246 16.416 61.8125 16.2305C61.9036 16.0417 62.0143 15.8822 62.1445 15.752C62.2747 15.625 62.4212 15.529 62.584 15.4639C62.7467 15.3955 62.9193 15.3613 63.1016 15.3613ZM72.3525 14.6191C71.9684 14.6191 71.625 14.7038 71.3223 14.873C71.0228 15.0391 70.7656 15.2669 70.5508 15.5566L70.5459 15.4248L70.5068 14.7168H69.6475V20H70.5557V16.6113C70.6143 16.4486 70.6875 16.3021 70.7754 16.1719C70.8665 16.0384 70.9723 15.9261 71.0928 15.835C71.2262 15.7308 71.3825 15.6527 71.5615 15.6006C71.7406 15.5452 71.9408 15.5176 72.1621 15.5176C72.3346 15.5176 72.499 15.5273 72.6553 15.5469C72.8148 15.5632 72.9824 15.5908 73.1582 15.6299L73.2803 14.7461C73.1891 14.707 73.0524 14.6761 72.8701 14.6533C72.6911 14.6305 72.5186 14.6191 72.3525 14.6191Z" fill="#707070"/>
</svg>
