<svg width="150" height="200" viewBox="0 0 150 200" fill="none" xmlns="http://www.w3.org/2000/svg">
<rect width="150" height="200" fill="white"/>
<path d="M18.21 148.935H17.125V148.505H19.81V148.935H18.725V152H18.21V148.935ZM21.2596 148.305H21.7646V149.93C21.9946 149.66 22.3012 149.525 22.6846 149.525C23.0046 149.525 23.2429 149.61 23.3996 149.78C23.5562 149.95 23.6346 150.178 23.6346 150.465V152H23.1296V150.515C23.1296 150.125 22.9429 149.93 22.5696 149.93C22.4096 149.93 22.2596 149.968 22.1196 150.045C21.9829 150.118 21.8646 150.232 21.7646 150.385V152H21.2596V148.305ZM25.5526 149.13C25.4693 149.13 25.3993 149.102 25.3426 149.045C25.286 148.988 25.2576 148.918 25.2576 148.835C25.2576 148.752 25.286 148.682 25.3426 148.625C25.3993 148.568 25.4693 148.54 25.5526 148.54C25.6393 148.54 25.711 148.568 25.7676 148.625C25.8276 148.682 25.8576 148.752 25.8576 148.835C25.8576 148.918 25.8276 148.988 25.7676 149.045C25.711 149.102 25.6393 149.13 25.5526 149.13ZM25.2976 149.6H25.8126V152H25.2976V149.6ZM28.3926 152.075C28.226 152.075 28.0493 152.053 27.8626 152.01C27.676 151.97 27.5293 151.915 27.4226 151.845V151.415C27.5526 151.492 27.7026 151.555 27.8726 151.605C28.0426 151.652 28.2076 151.675 28.3676 151.675C28.5476 151.675 28.6793 151.653 28.7626 151.61C28.846 151.567 28.8876 151.497 28.8876 151.4C28.8876 151.327 28.8676 151.268 28.8276 151.225C28.791 151.178 28.726 151.137 28.6326 151.1C28.5426 151.063 28.406 151.02 28.2226 150.97C28.026 150.913 27.8693 150.857 27.7526 150.8C27.6393 150.74 27.5526 150.665 27.4926 150.575C27.436 150.485 27.4076 150.368 27.4076 150.225C27.4076 149.995 27.4976 149.822 27.6776 149.705C27.861 149.585 28.106 149.525 28.4126 149.525C28.5726 149.525 28.7293 149.54 28.8826 149.57C29.036 149.6 29.1593 149.642 29.2526 149.695V150.115C29.156 150.058 29.036 150.013 28.8926 149.98C28.7526 149.947 28.6093 149.93 28.4626 149.93C28.286 149.93 28.151 149.952 28.0576 149.995C27.9643 150.038 27.9176 150.115 27.9176 150.225C27.9176 150.295 27.9376 150.352 27.9776 150.395C28.0176 150.438 28.081 150.477 28.1676 150.51C28.2576 150.54 28.3993 150.58 28.5926 150.63C28.896 150.713 29.106 150.812 29.2226 150.925C29.3426 151.038 29.4026 151.195 29.4026 151.395C29.4026 151.602 29.3176 151.767 29.1476 151.89C28.9776 152.013 28.726 152.075 28.3926 152.075ZM33.7045 149.6H34.2195L34.7595 151.38L35.2945 149.6H35.7495L36.2845 151.38L36.8245 149.6H37.3445L36.5645 152H36.0795L35.5245 150.21L34.9695 152H34.4795L33.7045 149.6ZM39.4829 152.075C39.1929 152.075 38.9595 152.002 38.7829 151.855C38.6095 151.705 38.5229 151.503 38.5229 151.25C38.5229 150.983 38.6062 150.778 38.7729 150.635C38.9429 150.488 39.1829 150.415 39.4929 150.415C39.8229 150.415 40.1029 150.482 40.3329 150.615V150.49C40.3329 150.3 40.2745 150.16 40.1579 150.07C40.0445 149.977 39.8645 149.93 39.6179 149.93C39.4712 149.93 39.3279 149.945 39.1879 149.975C39.0512 150.002 38.9279 150.04 38.8179 150.09V149.68C38.9179 149.633 39.0479 149.597 39.2079 149.57C39.3679 149.54 39.5229 149.525 39.6729 149.525C40.0695 149.525 40.3629 149.613 40.5529 149.79C40.7462 149.963 40.8429 150.205 40.8429 150.515V152H40.3679V151.73C40.2645 151.843 40.1412 151.93 39.9979 151.99C39.8579 152.047 39.6862 152.075 39.4829 152.075ZM39.6079 151.69C39.7679 151.69 39.9129 151.658 40.0429 151.595C40.1729 151.532 40.2695 151.443 40.3329 151.33V151.005C40.1162 150.865 39.8745 150.795 39.6079 150.795C39.4145 150.795 39.2695 150.833 39.1729 150.91C39.0795 150.983 39.0329 151.097 39.0329 151.25C39.0329 151.543 39.2245 151.69 39.6079 151.69ZM43.2676 152.075C43.0242 152.075 42.8359 152.005 42.7026 151.865C42.5726 151.725 42.5076 151.527 42.5076 151.27V149.99H42.1426V149.6H42.5076V148.88H43.0176V149.6H43.6076V149.99H43.0176V151.235C43.0176 151.395 43.0476 151.508 43.1076 151.575C43.1709 151.642 43.2842 151.675 43.4476 151.675C43.5442 151.675 43.6409 151.653 43.7376 151.61V152.01C43.6109 152.053 43.4542 152.075 43.2676 152.075ZM46.5327 152.075C46.0894 152.075 45.741 151.965 45.4877 151.745C45.2377 151.522 45.1127 151.208 45.1127 150.805C45.1127 150.412 45.2244 150.1 45.4477 149.87C45.6744 149.64 45.996 149.525 46.4127 149.525C46.6894 149.525 46.9244 149.578 47.1177 149.685C47.311 149.788 47.456 149.933 47.5527 150.12C47.6527 150.303 47.7027 150.513 47.7027 150.75V151H45.5927C45.6094 151.227 45.7044 151.397 45.8777 151.51C46.0544 151.62 46.2927 151.675 46.5927 151.675C46.746 151.675 46.901 151.662 47.0577 151.635C47.2144 151.605 47.3527 151.567 47.4727 151.52V151.925C47.366 151.968 47.2244 152.003 47.0477 152.03C46.8744 152.06 46.7027 152.075 46.5327 152.075ZM47.2277 150.645C47.221 150.418 47.146 150.243 47.0027 150.12C46.8627 149.993 46.6627 149.93 46.4027 149.93C46.1494 149.93 45.9527 149.995 45.8127 150.125C45.6727 150.255 45.5994 150.428 45.5927 150.645H47.2277ZM49.2547 149.6H49.7447V150.03C49.8447 149.883 49.9847 149.775 50.1647 149.705C50.348 149.635 50.5597 149.6 50.7997 149.6V149.995C50.543 149.995 50.323 150.037 50.1397 150.12C49.9564 150.203 49.8297 150.335 49.7597 150.515V152H49.2547V149.6ZM56.3673 152.075C56.1007 152.075 55.864 152.025 55.6573 151.925C55.4507 151.825 55.289 151.68 55.1723 151.49C55.059 151.297 55.0023 151.068 55.0023 150.805C55.0023 150.542 55.059 150.315 55.1723 150.125C55.289 149.932 55.4507 149.783 55.6573 149.68C55.8673 149.577 56.1073 149.525 56.3773 149.525C56.744 149.525 57.0373 149.597 57.2573 149.74V150.155C57.0407 150.005 56.764 149.93 56.4273 149.93C56.154 149.93 55.9323 150.005 55.7623 150.155C55.5957 150.302 55.5123 150.518 55.5123 150.805C55.5123 151.092 55.5957 151.308 55.7623 151.455C55.929 151.602 56.1473 151.675 56.4173 151.675C56.754 151.675 57.044 151.595 57.2873 151.435V151.845C57.1707 151.925 57.0373 151.983 56.8873 152.02C56.7407 152.057 56.5673 152.075 56.3673 152.075ZM60.0285 152.075C59.7585 152.075 59.5201 152.025 59.3135 151.925C59.1101 151.822 58.9501 151.675 58.8335 151.485C58.7201 151.292 58.6635 151.065 58.6635 150.805C58.6635 150.548 58.7201 150.323 58.8335 150.13C58.9468 149.937 59.1068 149.788 59.3135 149.685C59.5201 149.578 59.7585 149.525 60.0285 149.525C60.2985 149.525 60.5368 149.578 60.7435 149.685C60.9501 149.788 61.1101 149.937 61.2235 150.13C61.3401 150.323 61.3985 150.548 61.3985 150.805C61.3985 151.065 61.3401 151.292 61.2235 151.485C61.1101 151.675 60.9501 151.822 60.7435 151.925C60.5368 152.025 60.2985 152.075 60.0285 152.075ZM60.0285 151.675C60.2885 151.675 60.4951 151.595 60.6485 151.435C60.8018 151.275 60.8785 151.065 60.8785 150.805C60.8785 150.535 60.8018 150.322 60.6485 150.165C60.4951 150.008 60.2885 149.93 60.0285 149.93C59.7685 149.93 59.5618 150.008 59.4085 150.165C59.2551 150.322 59.1785 150.535 59.1785 150.805C59.1785 151.065 59.2551 151.275 59.4085 151.435C59.5618 151.595 59.7685 151.675 60.0285 151.675ZM64.0851 152.075C63.8151 152.075 63.5768 152.025 63.3701 151.925C63.1668 151.822 63.0068 151.675 62.8901 151.485C62.7768 151.292 62.7201 151.065 62.7201 150.805C62.7201 150.548 62.7768 150.323 62.8901 150.13C63.0035 149.937 63.1635 149.788 63.3701 149.685C63.5768 149.578 63.8151 149.525 64.0851 149.525C64.3551 149.525 64.5935 149.578 64.8001 149.685C65.0068 149.788 65.1668 149.937 65.2801 150.13C65.3968 150.323 65.4551 150.548 65.4551 150.805C65.4551 151.065 65.3968 151.292 65.2801 151.485C65.1668 151.675 65.0068 151.822 64.8001 151.925C64.5935 152.025 64.3551 152.075 64.0851 152.075ZM64.0851 151.675C64.3451 151.675 64.5518 151.595 64.7051 151.435C64.8585 151.275 64.9351 151.065 64.9351 150.805C64.9351 150.535 64.8585 150.322 64.7051 150.165C64.5518 150.008 64.3451 149.93 64.0851 149.93C63.8251 149.93 63.6185 150.008 63.4651 150.165C63.3118 150.322 63.2351 150.535 63.2351 150.805C63.2351 151.065 63.3118 151.275 63.4651 151.435C63.6185 151.595 63.8251 151.675 64.0851 151.675ZM67.0037 148.305H67.5087V152H67.0037V148.305ZM67.5137 150.785L68.6187 149.6H69.2337L68.1237 150.785L69.3487 152H68.7337L67.5137 150.785ZM71.5596 152.075C71.3929 152.075 71.2163 152.053 71.0296 152.01C70.8429 151.97 70.6963 151.915 70.5896 151.845V151.415C70.7196 151.492 70.8696 151.555 71.0396 151.605C71.2096 151.652 71.3746 151.675 71.5346 151.675C71.7146 151.675 71.8463 151.653 71.9296 151.61C72.0129 151.567 72.0546 151.497 72.0546 151.4C72.0546 151.327 72.0346 151.268 71.9946 151.225C71.9579 151.178 71.8929 151.137 71.7996 151.1C71.7096 151.063 71.5729 151.02 71.3896 150.97C71.1929 150.913 71.0363 150.857 70.9196 150.8C70.8063 150.74 70.7196 150.665 70.6596 150.575C70.6029 150.485 70.5746 150.368 70.5746 150.225C70.5746 149.995 70.6646 149.822 70.8446 149.705C71.0279 149.585 71.2729 149.525 71.5796 149.525C71.7396 149.525 71.8963 149.54 72.0496 149.57C72.2029 149.6 72.3263 149.642 72.4196 149.695V150.115C72.3229 150.058 72.2029 150.013 72.0596 149.98C71.9196 149.947 71.7763 149.93 71.6296 149.93C71.4529 149.93 71.3179 149.952 71.2246 149.995C71.1313 150.038 71.0846 150.115 71.0846 150.225C71.0846 150.295 71.1046 150.352 71.1446 150.395C71.1846 150.438 71.2479 150.477 71.3346 150.51C71.4246 150.54 71.5663 150.58 71.7596 150.63C72.0629 150.713 72.2729 150.812 72.3896 150.925C72.5096 151.038 72.5696 151.195 72.5696 151.395C72.5696 151.602 72.4846 151.767 72.3146 151.89C72.1446 152.013 71.8929 152.075 71.5596 152.075ZM78.1315 152.075C77.8915 152.075 77.6748 152.023 77.4815 151.92C77.2915 151.813 77.1415 151.665 77.0315 151.475C76.9248 151.282 76.8715 151.058 76.8715 150.805C76.8715 150.555 76.9248 150.333 77.0315 150.14C77.1415 149.947 77.2915 149.797 77.4815 149.69C77.6748 149.58 77.8915 149.525 78.1315 149.525C78.5648 149.525 78.8932 149.657 79.1165 149.92V148.305H79.6215V152H79.1315V151.65C78.9982 151.797 78.8515 151.905 78.6915 151.975C78.5348 152.042 78.3482 152.075 78.1315 152.075ZM78.2465 151.675C78.4532 151.675 78.6332 151.622 78.7865 151.515C78.9432 151.405 79.0532 151.258 79.1165 151.075V150.535C79.0598 150.352 78.9515 150.205 78.7915 150.095C78.6348 149.985 78.4532 149.93 78.2465 149.93C78.0832 149.93 77.9348 149.967 77.8015 150.04C77.6715 150.113 77.5682 150.217 77.4915 150.35C77.4182 150.483 77.3815 150.635 77.3815 150.805C77.3815 150.975 77.4182 151.127 77.4915 151.26C77.5682 151.393 77.6715 151.497 77.8015 151.57C77.9348 151.64 78.0832 151.675 78.2465 151.675ZM82.5923 152.075C82.1489 152.075 81.8006 151.965 81.5473 151.745C81.2973 151.522 81.1723 151.208 81.1723 150.805C81.1723 150.412 81.2839 150.1 81.5073 149.87C81.7339 149.64 82.0556 149.525 82.4723 149.525C82.7489 149.525 82.9839 149.578 83.1773 149.685C83.3706 149.788 83.5156 149.933 83.6123 150.12C83.7123 150.303 83.7623 150.513 83.7623 150.75V151H81.6523C81.6689 151.227 81.7639 151.397 81.9373 151.51C82.1139 151.62 82.3523 151.675 82.6523 151.675C82.8056 151.675 82.9606 151.662 83.1173 151.635C83.2739 151.605 83.4123 151.567 83.5323 151.52V151.925C83.4256 151.968 83.2839 152.003 83.1073 152.03C82.9339 152.06 82.7623 152.075 82.5923 152.075ZM83.2873 150.645C83.2806 150.418 83.2056 150.243 83.0623 150.12C82.9223 149.993 82.7223 149.93 82.4623 149.93C82.2089 149.93 82.0123 149.995 81.8723 150.125C81.7323 150.255 81.6589 150.428 81.6523 150.645H83.2873ZM85.3143 148.305H85.8193V152H85.3143V148.305ZM87.7665 149.13C87.6832 149.13 87.6132 149.102 87.5565 149.045C87.4998 148.988 87.4715 148.918 87.4715 148.835C87.4715 148.752 87.4998 148.682 87.5565 148.625C87.6132 148.568 87.6832 148.54 87.7665 148.54C87.8532 148.54 87.9248 148.568 87.9815 148.625C88.0415 148.682 88.0715 148.752 88.0715 148.835C88.0715 148.918 88.0415 148.988 87.9815 149.045C87.9248 149.102 87.8532 149.13 87.7665 149.13ZM87.5115 149.6H88.0265V152H87.5115V149.6ZM90.9865 152.075C90.7198 152.075 90.4832 152.025 90.2765 151.925C90.0698 151.825 89.9082 151.68 89.7915 151.49C89.6782 151.297 89.6215 151.068 89.6215 150.805C89.6215 150.542 89.6782 150.315 89.7915 150.125C89.9082 149.932 90.0698 149.783 90.2765 149.68C90.4865 149.577 90.7265 149.525 90.9965 149.525C91.3632 149.525 91.6565 149.597 91.8765 149.74V150.155C91.6598 150.005 91.3832 149.93 91.0465 149.93C90.7732 149.93 90.5515 150.005 90.3815 150.155C90.2148 150.302 90.1315 150.518 90.1315 150.805C90.1315 151.092 90.2148 151.308 90.3815 151.455C90.5482 151.602 90.7665 151.675 91.0365 151.675C91.3732 151.675 91.6632 151.595 91.9065 151.435V151.845C91.7898 151.925 91.6565 151.983 91.5065 152.02C91.3598 152.057 91.1865 152.075 90.9865 152.075ZM93.7509 149.13C93.6675 149.13 93.5975 149.102 93.5409 149.045C93.4842 148.988 93.4559 148.918 93.4559 148.835C93.4559 148.752 93.4842 148.682 93.5409 148.625C93.5975 148.568 93.6675 148.54 93.7509 148.54C93.8375 148.54 93.9092 148.568 93.9659 148.625C94.0259 148.682 94.0559 148.752 94.0559 148.835C94.0559 148.918 94.0259 148.988 93.9659 149.045C93.9092 149.102 93.8375 149.13 93.7509 149.13ZM93.4959 149.6H94.0109V152H93.4959V149.6ZM96.9709 152.075C96.7009 152.075 96.4625 152.025 96.2559 151.925C96.0525 151.822 95.8925 151.675 95.7759 151.485C95.6625 151.292 95.6059 151.065 95.6059 150.805C95.6059 150.548 95.6625 150.323 95.7759 150.13C95.8892 149.937 96.0492 149.788 96.2559 149.685C96.4625 149.578 96.7009 149.525 96.9709 149.525C97.2409 149.525 97.4792 149.578 97.6859 149.685C97.8925 149.788 98.0525 149.937 98.1659 150.13C98.2825 150.323 98.3409 150.548 98.3409 150.805C98.3409 151.065 98.2825 151.292 98.1659 151.485C98.0525 151.675 97.8925 151.822 97.6859 151.925C97.4792 152.025 97.2409 152.075 96.9709 152.075ZM96.9709 151.675C97.2309 151.675 97.4375 151.595 97.5909 151.435C97.7442 151.275 97.8209 151.065 97.8209 150.805C97.8209 150.535 97.7442 150.322 97.5909 150.165C97.4375 150.008 97.2309 149.93 96.9709 149.93C96.7109 149.93 96.5042 150.008 96.3509 150.165C96.1975 150.322 96.1209 150.535 96.1209 150.805C96.1209 151.065 96.1975 151.275 96.3509 151.435C96.5042 151.595 96.7109 151.675 96.9709 151.675ZM100.844 152.075C100.521 152.075 100.276 151.988 100.109 151.815C99.9461 151.642 99.8645 151.41 99.8645 151.12V149.6H100.369V151.1C100.369 151.483 100.561 151.675 100.944 151.675C101.281 151.675 101.544 151.523 101.734 151.22V149.6H102.239V152H101.749V151.66C101.636 151.803 101.501 151.908 101.344 151.975C101.191 152.042 101.024 152.075 100.844 152.075ZM104.773 152.075C104.606 152.075 104.429 152.053 104.243 152.01C104.056 151.97 103.909 151.915 103.803 151.845V151.415C103.933 151.492 104.083 151.555 104.253 151.605C104.423 151.652 104.588 151.675 104.748 151.675C104.928 151.675 105.059 151.653 105.143 151.61C105.226 151.567 105.268 151.497 105.268 151.4C105.268 151.327 105.248 151.268 105.208 151.225C105.171 151.178 105.106 151.137 105.013 151.1C104.923 151.063 104.786 151.02 104.603 150.97C104.406 150.913 104.249 150.857 104.133 150.8C104.019 150.74 103.933 150.665 103.873 150.575C103.816 150.485 103.788 150.368 103.788 150.225C103.788 149.995 103.878 149.822 104.058 149.705C104.241 149.585 104.486 149.525 104.793 149.525C104.953 149.525 105.109 149.54 105.263 149.57C105.416 149.6 105.539 149.642 105.633 149.695V150.115C105.536 150.058 105.416 150.013 105.273 149.98C105.133 149.947 104.989 149.93 104.843 149.93C104.666 149.93 104.531 149.952 104.438 149.995C104.344 150.038 104.297 150.115 104.297 150.225C104.297 150.295 104.318 150.352 104.358 150.395C104.398 150.438 104.461 150.477 104.548 150.51C104.638 150.54 104.779 150.58 104.973 150.63C105.276 150.713 105.486 150.812 105.603 150.925C105.723 151.038 105.783 151.195 105.783 151.395C105.783 151.602 105.698 151.767 105.528 151.89C105.358 152.013 105.106 152.075 104.773 152.075ZM110.184 149.6H110.674V149.955C110.921 149.668 111.254 149.525 111.674 149.525C111.914 149.525 112.129 149.578 112.319 149.685C112.513 149.792 112.663 149.942 112.769 150.135C112.879 150.325 112.934 150.547 112.934 150.8C112.934 151.05 112.879 151.272 112.769 151.465C112.663 151.658 112.514 151.808 112.324 151.915C112.134 152.022 111.918 152.075 111.674 152.075C111.474 152.075 111.288 152.042 111.114 151.975C110.941 151.908 110.799 151.81 110.689 151.68V153.095H110.184V149.6ZM111.559 151.675C111.723 151.675 111.869 151.64 111.999 151.57C112.133 151.497 112.236 151.393 112.309 151.26C112.386 151.127 112.424 150.973 112.424 150.8C112.424 150.627 112.386 150.475 112.309 150.345C112.236 150.212 112.133 150.11 111.999 150.04C111.869 149.967 111.723 149.93 111.559 149.93C111.356 149.93 111.176 149.983 111.019 150.09C110.866 150.197 110.756 150.343 110.689 150.53V151.07C110.746 151.253 110.854 151.4 111.014 151.51C111.174 151.62 111.356 151.675 111.559 151.675ZM114.485 148.305H114.99V152H114.485V148.305ZM117.502 152.075C117.212 152.075 116.979 152.002 116.802 151.855C116.629 151.705 116.542 151.503 116.542 151.25C116.542 150.983 116.626 150.778 116.792 150.635C116.962 150.488 117.202 150.415 117.512 150.415C117.842 150.415 118.122 150.482 118.352 150.615V150.49C118.352 150.3 118.294 150.16 118.177 150.07C118.064 149.977 117.884 149.93 117.637 149.93C117.491 149.93 117.347 149.945 117.207 149.975C117.071 150.002 116.947 150.04 116.837 150.09V149.68C116.937 149.633 117.067 149.597 117.227 149.57C117.387 149.54 117.542 149.525 117.692 149.525C118.089 149.525 118.382 149.613 118.572 149.79C118.766 149.963 118.862 150.205 118.862 150.515V152H118.387V151.73C118.284 151.843 118.161 151.93 118.017 151.99C117.877 152.047 117.706 152.075 117.502 152.075ZM117.627 151.69C117.787 151.69 117.932 151.658 118.062 151.595C118.192 151.532 118.289 151.443 118.352 151.33V151.005C118.136 150.865 117.894 150.795 117.627 150.795C117.434 150.795 117.289 150.833 117.192 150.91C117.099 150.983 117.052 151.097 117.052 151.25C117.052 151.543 117.244 151.69 117.627 151.69ZM121.287 152.075C121.044 152.075 120.855 152.005 120.722 151.865C120.592 151.725 120.527 151.527 120.527 151.27V149.99H120.162V149.6H120.527V148.88H121.037V149.6H121.627V149.99H121.037V151.235C121.037 151.395 121.067 151.508 121.127 151.575C121.19 151.642 121.304 151.675 121.467 151.675C121.564 151.675 121.66 151.653 121.757 151.61V152.01C121.63 152.053 121.474 152.075 121.287 152.075ZM124.552 152.075C124.109 152.075 123.761 151.965 123.507 151.745C123.257 151.522 123.132 151.208 123.132 150.805C123.132 150.412 123.244 150.1 123.467 149.87C123.694 149.64 124.016 149.525 124.432 149.525C124.709 149.525 124.944 149.578 125.137 149.685C125.331 149.788 125.476 149.933 125.572 150.12C125.672 150.303 125.722 150.513 125.722 150.75V151H123.612C123.629 151.227 123.724 151.397 123.897 151.51C124.074 151.62 124.312 151.675 124.612 151.675C124.766 151.675 124.921 151.662 125.077 151.635C125.234 151.605 125.372 151.567 125.492 151.52V151.925C125.386 151.968 125.244 152.003 125.067 152.03C124.894 152.06 124.722 152.075 124.552 152.075ZM125.247 150.645C125.241 150.418 125.166 150.243 125.022 150.12C124.882 149.993 124.682 149.93 124.422 149.93C124.169 149.93 123.972 149.995 123.832 150.125C123.692 150.255 123.619 150.428 123.612 150.645H125.247ZM128.159 152.075C127.993 152.075 127.816 152.053 127.629 152.01C127.443 151.97 127.296 151.915 127.189 151.845V151.415C127.319 151.492 127.469 151.555 127.639 151.605C127.809 151.652 127.974 151.675 128.134 151.675C128.314 151.675 128.446 151.653 128.529 151.61C128.613 151.567 128.654 151.497 128.654 151.4C128.654 151.327 128.634 151.268 128.594 151.225C128.558 151.178 128.493 151.137 128.399 151.1C128.309 151.063 128.173 151.02 127.989 150.97C127.793 150.913 127.636 150.857 127.519 150.8C127.406 150.74 127.319 150.665 127.259 150.575C127.203 150.485 127.174 150.368 127.174 150.225C127.174 149.995 127.264 149.822 127.444 149.705C127.628 149.585 127.873 149.525 128.179 149.525C128.339 149.525 128.496 149.54 128.649 149.57C128.803 149.6 128.926 149.642 129.019 149.695V150.115C128.923 150.058 128.803 150.013 128.659 149.98C128.519 149.947 128.376 149.93 128.229 149.93C128.053 149.93 127.918 149.952 127.824 149.995C127.731 150.038 127.684 150.115 127.684 150.225C127.684 150.295 127.704 150.352 127.744 150.395C127.784 150.438 127.848 150.477 127.934 150.51C128.024 150.54 128.166 150.58 128.359 150.63C128.663 150.713 128.873 150.812 128.989 150.925C129.109 151.038 129.169 151.195 129.169 151.395C129.169 151.602 129.084 151.767 128.914 151.89C128.744 152.013 128.493 152.075 128.159 152.075ZM18.59 160.075C18.32 160.075 18.0817 160.025 17.875 159.925C17.6717 159.822 17.5117 159.675 17.395 159.485C17.2817 159.292 17.225 159.065 17.225 158.805C17.225 158.548 17.2817 158.323 17.395 158.13C17.5083 157.937 17.6683 157.788 17.875 157.685C18.0817 157.578 18.32 157.525 18.59 157.525C18.86 157.525 19.0983 157.578 19.305 157.685C19.5117 157.788 19.6717 157.937 19.785 158.13C19.9017 158.323 19.96 158.548 19.96 158.805C19.96 159.065 19.9017 159.292 19.785 159.485C19.6717 159.675 19.5117 159.822 19.305 159.925C19.0983 160.025 18.86 160.075 18.59 160.075ZM18.59 159.675C18.85 159.675 19.0567 159.595 19.21 159.435C19.3633 159.275 19.44 159.065 19.44 158.805C19.44 158.535 19.3633 158.322 19.21 158.165C19.0567 158.008 18.85 157.93 18.59 157.93C18.33 157.93 18.1233 158.008 17.97 158.165C17.8167 158.322 17.74 158.535 17.74 158.805C17.74 159.065 17.8167 159.275 17.97 159.435C18.1233 159.595 18.33 159.675 18.59 159.675ZM21.4978 157.99H21.1328V157.6H21.4978V157.13C21.4978 156.853 21.5761 156.643 21.7328 156.5C21.8895 156.353 22.0995 156.28 22.3628 156.28C22.4995 156.28 22.6278 156.3 22.7478 156.34V156.76C22.6545 156.717 22.5578 156.695 22.4578 156.695C22.3011 156.695 22.1861 156.733 22.1128 156.81C22.0395 156.883 22.0028 157 22.0028 157.16V157.6H22.6028V157.99H22.0028V160H21.4978V157.99ZM26.9461 157.6H27.4361V158.03C27.5361 157.883 27.6761 157.775 27.8561 157.705C28.0394 157.635 28.2511 157.6 28.4911 157.6V157.995C28.2344 157.995 28.0144 158.037 27.8311 158.12C27.6478 158.203 27.5211 158.335 27.4511 158.515V160H26.9461V157.6ZM31.1349 160.075C30.8649 160.075 30.6266 160.025 30.4199 159.925C30.2166 159.822 30.0566 159.675 29.9399 159.485C29.8266 159.292 29.7699 159.065 29.7699 158.805C29.7699 158.548 29.8266 158.323 29.9399 158.13C30.0533 157.937 30.2133 157.788 30.4199 157.685C30.6266 157.578 30.8649 157.525 31.1349 157.525C31.4049 157.525 31.6433 157.578 31.8499 157.685C32.0566 157.788 32.2166 157.937 32.3299 158.13C32.4466 158.323 32.5049 158.548 32.5049 158.805C32.5049 159.065 32.4466 159.292 32.3299 159.485C32.2166 159.675 32.0566 159.822 31.8499 159.925C31.6433 160.025 31.4049 160.075 31.1349 160.075ZM31.1349 159.675C31.3949 159.675 31.6016 159.595 31.7549 159.435C31.9083 159.275 31.9849 159.065 31.9849 158.805C31.9849 158.535 31.9083 158.322 31.7549 158.165C31.6016 158.008 31.3949 157.93 31.1349 157.93C30.8749 157.93 30.6683 158.008 30.5149 158.165C30.3616 158.322 30.2849 158.535 30.2849 158.805C30.2849 159.065 30.3616 159.275 30.5149 159.435C30.6683 159.595 30.8749 159.675 31.1349 159.675ZM34.7866 160.075C34.4966 160.075 34.2632 160.002 34.0866 159.855C33.9132 159.705 33.8266 159.503 33.8266 159.25C33.8266 158.983 33.9099 158.778 34.0766 158.635C34.2466 158.488 34.4866 158.415 34.7966 158.415C35.1266 158.415 35.4066 158.482 35.6366 158.615V158.49C35.6366 158.3 35.5782 158.16 35.4616 158.07C35.3482 157.977 35.1682 157.93 34.9216 157.93C34.7749 157.93 34.6316 157.945 34.4916 157.975C34.3549 158.002 34.2316 158.04 34.1216 158.09V157.68C34.2216 157.633 34.3516 157.597 34.5116 157.57C34.6716 157.54 34.8266 157.525 34.9766 157.525C35.3732 157.525 35.6666 157.613 35.8566 157.79C36.0499 157.963 36.1466 158.205 36.1466 158.515V160H35.6716V159.73C35.5682 159.843 35.4449 159.93 35.3016 159.99C35.1616 160.047 34.9899 160.075 34.7866 160.075ZM34.9116 159.69C35.0716 159.69 35.2166 159.658 35.3466 159.595C35.4766 159.532 35.5732 159.443 35.6366 159.33V159.005C35.4199 158.865 35.1782 158.795 34.9116 158.795C34.7182 158.795 34.5732 158.833 34.4766 158.91C34.3832 158.983 34.3366 159.097 34.3366 159.25C34.3366 159.543 34.5282 159.69 34.9116 159.69ZM38.585 160.075C38.4183 160.075 38.2417 160.053 38.055 160.01C37.8683 159.97 37.7217 159.915 37.615 159.845V159.415C37.745 159.492 37.895 159.555 38.065 159.605C38.235 159.652 38.4 159.675 38.56 159.675C38.74 159.675 38.8717 159.653 38.955 159.61C39.0383 159.567 39.08 159.497 39.08 159.4C39.08 159.327 39.06 159.268 39.02 159.225C38.9833 159.178 38.9183 159.137 38.825 159.1C38.735 159.063 38.5983 159.02 38.415 158.97C38.2183 158.913 38.0617 158.857 37.945 158.8C37.8317 158.74 37.745 158.665 37.685 158.575C37.6283 158.485 37.6 158.368 37.6 158.225C37.6 157.995 37.69 157.822 37.87 157.705C38.0533 157.585 38.2983 157.525 38.605 157.525C38.765 157.525 38.9217 157.54 39.075 157.57C39.2283 157.6 39.3517 157.642 39.445 157.695V158.115C39.3483 158.058 39.2283 158.013 39.085 157.98C38.945 157.947 38.8017 157.93 38.655 157.93C38.4783 157.93 38.3433 157.952 38.25 157.995C38.1567 158.038 38.11 158.115 38.11 158.225C38.11 158.295 38.13 158.352 38.17 158.395C38.21 158.438 38.2733 158.477 38.36 158.51C38.45 158.54 38.5917 158.58 38.785 158.63C39.0883 158.713 39.2983 158.812 39.415 158.925C39.535 159.038 39.595 159.195 39.595 159.395C39.595 159.602 39.51 159.767 39.34 159.89C39.17 160.013 38.9183 160.075 38.585 160.075ZM41.998 160.075C41.7547 160.075 41.5664 160.005 41.433 159.865C41.303 159.725 41.238 159.527 41.238 159.27V157.99H40.873V157.6H41.238V156.88H41.748V157.6H42.338V157.99H41.748V159.235C41.748 159.395 41.778 159.508 41.838 159.575C41.9014 159.642 42.0147 159.675 42.178 159.675C42.2747 159.675 42.3714 159.653 42.468 159.61V160.01C42.3414 160.053 42.1847 160.075 41.998 160.075ZM47.7188 160.075C47.4754 160.075 47.2871 160.005 47.1538 159.865C47.0238 159.725 46.9588 159.527 46.9588 159.27V157.99H46.5938V157.6H46.9588V156.88H47.4688V157.6H48.0588V157.99H47.4688V159.235C47.4688 159.395 47.4988 159.508 47.5588 159.575C47.6221 159.642 47.7354 159.675 47.8988 159.675C47.9954 159.675 48.0921 159.653 48.1888 159.61V160.01C48.0621 160.053 47.9054 160.075 47.7188 160.075ZM50.5945 160.075C50.2711 160.075 50.0261 159.988 49.8595 159.815C49.6961 159.642 49.6145 159.41 49.6145 159.12V157.6H50.1195V159.1C50.1195 159.483 50.3111 159.675 50.6945 159.675C51.0311 159.675 51.2945 159.523 51.4845 159.22V157.6H51.9895V160H51.4995V159.66C51.3861 159.803 51.2511 159.908 51.0945 159.975C50.9411 160.042 50.7745 160.075 50.5945 160.075ZM53.6375 157.6H54.1275V158.03C54.2275 157.883 54.3675 157.775 54.5475 157.705C54.7308 157.635 54.9425 157.6 55.1825 157.6V157.995C54.9258 157.995 54.7058 158.037 54.5225 158.12C54.3392 158.203 54.2125 158.335 54.1425 158.515V160H53.6375V157.6ZM56.6346 156.305H57.1396V160H56.6346V156.305ZM57.1446 158.785L58.2496 157.6H58.8646L57.7546 158.785L58.9796 160H58.3646L57.1446 158.785ZM61.8013 160.075C61.3579 160.075 61.0096 159.965 60.7563 159.745C60.5063 159.522 60.3813 159.208 60.3813 158.805C60.3813 158.412 60.4929 158.1 60.7163 157.87C60.9429 157.64 61.2646 157.525 61.6813 157.525C61.9579 157.525 62.1929 157.578 62.3863 157.685C62.5796 157.788 62.7246 157.933 62.8213 158.12C62.9213 158.303 62.9713 158.513 62.9713 158.75V159H60.8613C60.8779 159.227 60.9729 159.397 61.1463 159.51C61.3229 159.62 61.5613 159.675 61.8613 159.675C62.0146 159.675 62.1696 159.662 62.3263 159.635C62.4829 159.605 62.6213 159.567 62.7413 159.52V159.925C62.6346 159.968 62.4929 160.003 62.3163 160.03C62.1429 160.06 61.9713 160.075 61.8013 160.075ZM62.4963 158.645C62.4896 158.418 62.4146 158.243 62.2713 158.12C62.1313 157.993 61.9313 157.93 61.6713 157.93C61.4179 157.93 61.2213 157.995 61.0813 158.125C60.9413 158.255 60.8679 158.428 60.8613 158.645H62.4963ZM64.8819 160.99C64.7019 160.99 64.5519 160.972 64.4319 160.935V160.54C64.5185 160.573 64.6252 160.59 64.7519 160.59C64.8685 160.59 64.9602 160.56 65.0269 160.5C65.0935 160.443 65.1535 160.35 65.2069 160.22L65.3219 159.94L64.2719 157.6H64.7919L65.5919 159.445L66.3369 157.6H66.8569L65.7769 160.27C65.6769 160.52 65.5569 160.702 65.4169 160.815C65.2802 160.932 65.1019 160.99 64.8819 160.99ZM72.017 160.075C71.727 160.075 71.4937 160.002 71.317 159.855C71.1437 159.705 71.057 159.503 71.057 159.25C71.057 158.983 71.1404 158.778 71.307 158.635C71.477 158.488 71.717 158.415 72.027 158.415C72.357 158.415 72.637 158.482 72.867 158.615V158.49C72.867 158.3 72.8087 158.16 72.692 158.07C72.5787 157.977 72.3987 157.93 72.152 157.93C72.0054 157.93 71.862 157.945 71.722 157.975C71.5854 158.002 71.462 158.04 71.352 158.09V157.68C71.452 157.633 71.582 157.597 71.742 157.57C71.902 157.54 72.057 157.525 72.207 157.525C72.6037 157.525 72.897 157.613 73.087 157.79C73.2804 157.963 73.377 158.205 73.377 158.515V160H72.902V159.73C72.7987 159.843 72.6754 159.93 72.532 159.99C72.392 160.047 72.2204 160.075 72.017 160.075ZM72.142 159.69C72.302 159.69 72.447 159.658 72.577 159.595C72.707 159.532 72.8037 159.443 72.867 159.33V159.005C72.6504 158.865 72.4087 158.795 72.142 158.795C71.9487 158.795 71.8037 158.833 71.707 158.91C71.6137 158.983 71.567 159.097 71.567 159.25C71.567 159.543 71.7587 159.69 72.142 159.69ZM75.0037 157.6H75.4937V157.945C75.607 157.802 75.7454 157.697 75.9087 157.63C76.0754 157.56 76.2487 157.525 76.4287 157.525C76.7487 157.525 76.987 157.61 77.1437 157.78C77.3004 157.95 77.3787 158.178 77.3787 158.465V160H76.8737V158.515C76.8737 158.125 76.687 157.93 76.3137 157.93C76.1537 157.93 76.0037 157.968 75.8637 158.045C75.727 158.118 75.6087 158.232 75.5087 158.385V160H75.0037V157.6ZM80.1618 160.075C79.9218 160.075 79.7051 160.023 79.5118 159.92C79.3218 159.813 79.1718 159.665 79.0618 159.475C78.9551 159.282 78.9018 159.058 78.9018 158.805C78.9018 158.555 78.9551 158.333 79.0618 158.14C79.1718 157.947 79.3218 157.797 79.5118 157.69C79.7051 157.58 79.9218 157.525 80.1618 157.525C80.5951 157.525 80.9234 157.657 81.1468 157.92V156.305H81.6518V160H81.1618V159.65C81.0284 159.797 80.8818 159.905 80.7218 159.975C80.5651 160.042 80.3784 160.075 80.1618 160.075ZM80.2768 159.675C80.4834 159.675 80.6634 159.622 80.8168 159.515C80.9734 159.405 81.0834 159.258 81.1468 159.075V158.535C81.0901 158.352 80.9818 158.205 80.8218 158.095C80.6651 157.985 80.4834 157.93 80.2768 157.93C80.1134 157.93 79.9651 157.967 79.8318 158.04C79.7018 158.113 79.5984 158.217 79.5218 158.35C79.4484 158.483 79.4118 158.635 79.4118 158.805C79.4118 158.975 79.4484 159.127 79.5218 159.26C79.5984 159.393 79.7018 159.497 79.8318 159.57C79.9651 159.64 80.1134 159.675 80.2768 159.675ZM86.0531 157.6H86.5681L87.1081 159.38L87.6431 157.6H88.0981L88.6331 159.38L89.1731 157.6H89.6931L88.9131 160H88.4281L87.8731 158.21L87.3181 160H86.8281L86.0531 157.6ZM91.2449 156.305H91.7499V157.93C91.9799 157.66 92.2866 157.525 92.6699 157.525C92.9899 157.525 93.2283 157.61 93.3849 157.78C93.5416 157.95 93.6199 158.178 93.6199 158.465V160H93.1149V158.515C93.1149 158.125 92.9283 157.93 92.5549 157.93C92.3949 157.93 92.2449 157.968 92.1049 158.045C91.9683 158.118 91.8499 158.232 91.7499 158.385V160H91.2449V156.305ZM96.0297 160.075C95.7397 160.075 95.5064 160.002 95.3297 159.855C95.1564 159.705 95.0697 159.503 95.0697 159.25C95.0697 158.983 95.1531 158.778 95.3197 158.635C95.4897 158.488 95.7297 158.415 96.0397 158.415C96.3697 158.415 96.6497 158.482 96.8797 158.615V158.49C96.8797 158.3 96.8214 158.16 96.7047 158.07C96.5914 157.977 96.4114 157.93 96.1647 157.93C96.0181 157.93 95.8747 157.945 95.7347 157.975C95.5981 158.002 95.4747 158.04 95.3647 158.09V157.68C95.4647 157.633 95.5947 157.597 95.7547 157.57C95.9147 157.54 96.0697 157.525 96.2197 157.525C96.6164 157.525 96.9097 157.613 97.0997 157.79C97.2931 157.963 97.3897 158.205 97.3897 158.515V160H96.9147V159.73C96.8114 159.843 96.6881 159.93 96.5447 159.99C96.4047 160.047 96.2331 160.075 96.0297 160.075ZM96.1547 159.69C96.3147 159.69 96.4597 159.658 96.5897 159.595C96.7197 159.532 96.8164 159.443 96.8797 159.33V159.005C96.6631 158.865 96.4214 158.795 96.1547 158.795C95.9614 158.795 95.8164 158.833 95.7197 158.91C95.6264 158.983 95.5797 159.097 95.5797 159.25C95.5797 159.543 95.7714 159.69 96.1547 159.69ZM99.8145 160.075C99.5711 160.075 99.3828 160.005 99.2495 159.865C99.1195 159.725 99.0545 159.527 99.0545 159.27V157.99H98.6895V157.6H99.0545V156.88H99.5645V157.6H100.154V157.99H99.5645V159.235C99.5645 159.395 99.5945 159.508 99.6545 159.575C99.7178 159.642 99.8311 159.675 99.9945 159.675C100.091 159.675 100.188 159.653 100.284 159.61V160.01C100.158 160.053 100.001 160.075 99.8145 160.075ZM103.08 160.075C102.636 160.075 102.288 159.965 102.035 159.745C101.785 159.522 101.66 159.208 101.66 158.805C101.66 158.412 101.771 158.1 101.995 157.87C102.221 157.64 102.543 157.525 102.96 157.525C103.236 157.525 103.471 157.578 103.665 157.685C103.858 157.788 104.003 157.933 104.1 158.12C104.2 158.303 104.25 158.513 104.25 158.75V159H102.14C102.156 159.227 102.251 159.397 102.425 159.51C102.601 159.62 102.84 159.675 103.14 159.675C103.293 159.675 103.448 159.662 103.605 159.635C103.761 159.605 103.9 159.567 104.02 159.52V159.925C103.913 159.968 103.771 160.003 103.595 160.03C103.421 160.06 103.25 160.075 103.08 160.075ZM103.775 158.645C103.768 158.418 103.693 158.243 103.55 158.12C103.41 157.993 103.21 157.93 102.95 157.93C102.696 157.93 102.5 157.995 102.36 158.125C102.22 158.255 102.146 158.428 102.14 158.645H103.775ZM105.501 157.6H106.036L106.741 159.325L107.446 157.6H107.981L106.961 160H106.521L105.501 157.6ZM110.651 160.075C110.208 160.075 109.859 159.965 109.606 159.745C109.356 159.522 109.231 159.208 109.231 158.805C109.231 158.412 109.343 158.1 109.566 157.87C109.793 157.64 110.114 157.525 110.531 157.525C110.808 157.525 111.043 157.578 111.236 157.685C111.429 157.788 111.574 157.933 111.671 158.12C111.771 158.303 111.821 158.513 111.821 158.75V159H109.711C109.728 159.227 109.823 159.397 109.996 159.51C110.173 159.62 110.411 159.675 110.711 159.675C110.864 159.675 111.019 159.662 111.176 159.635C111.333 159.605 111.471 159.567 111.591 159.52V159.925C111.484 159.968 111.343 160.003 111.166 160.03C110.993 160.06 110.821 160.075 110.651 160.075ZM111.346 158.645C111.339 158.418 111.264 158.243 111.121 158.12C110.981 157.993 110.781 157.93 110.521 157.93C110.268 157.93 110.071 157.995 109.931 158.125C109.791 158.255 109.718 158.428 109.711 158.645H111.346ZM113.373 157.6H113.863V158.03C113.963 157.883 114.103 157.775 114.283 157.705C114.466 157.635 114.678 157.6 114.918 157.6V157.995C114.661 157.995 114.441 158.037 114.258 158.12C114.075 158.203 113.948 158.335 113.878 158.515V160H113.373V157.6ZM120.541 160.075C120.097 160.075 119.749 159.965 119.496 159.745C119.246 159.522 119.121 159.208 119.121 158.805C119.121 158.412 119.232 158.1 119.456 157.87C119.682 157.64 120.004 157.525 120.421 157.525C120.697 157.525 120.932 157.578 121.126 157.685C121.319 157.788 121.464 157.933 121.561 158.12C121.661 158.303 121.711 158.513 121.711 158.75V159H119.601C119.617 159.227 119.712 159.397 119.886 159.51C120.062 159.62 120.301 159.675 120.601 159.675C120.754 159.675 120.909 159.662 121.066 159.635C121.222 159.605 121.361 159.567 121.481 159.52V159.925C121.374 159.968 121.232 160.003 121.056 160.03C120.882 160.06 120.711 160.075 120.541 160.075ZM121.236 158.645C121.229 158.418 121.154 158.243 121.011 158.12C120.871 157.993 120.671 157.93 120.411 157.93C120.157 157.93 119.961 157.995 119.821 158.125C119.681 158.255 119.607 158.428 119.601 158.645H121.236ZM123.263 156.305H123.768V160H123.263V156.305ZM126.305 160.075C126.138 160.075 125.961 160.053 125.775 160.01C125.588 159.97 125.441 159.915 125.335 159.845V159.415C125.465 159.492 125.615 159.555 125.785 159.605C125.955 159.652 126.12 159.675 126.28 159.675C126.46 159.675 126.591 159.653 126.675 159.61C126.758 159.567 126.8 159.497 126.8 159.4C126.8 159.327 126.78 159.268 126.74 159.225C126.703 159.178 126.638 159.137 126.545 159.1C126.455 159.063 126.318 159.02 126.135 158.97C125.938 158.913 125.781 158.857 125.665 158.8C125.551 158.74 125.465 158.665 125.405 158.575C125.348 158.485 125.32 158.368 125.32 158.225C125.32 157.995 125.41 157.822 125.59 157.705C125.773 157.585 126.018 157.525 126.325 157.525C126.485 157.525 126.641 157.54 126.795 157.57C126.948 157.6 127.071 157.642 127.165 157.695V158.115C127.068 158.058 126.948 158.013 126.805 157.98C126.665 157.947 126.521 157.93 126.375 157.93C126.198 157.93 126.063 157.952 125.97 157.995C125.876 158.038 125.83 158.115 125.83 158.225C125.83 158.295 125.85 158.352 125.89 158.395C125.93 158.438 125.993 158.477 126.08 158.51C126.17 158.54 126.311 158.58 126.505 158.63C126.808 158.713 127.018 158.812 127.135 158.925C127.255 159.038 127.315 159.195 127.315 159.395C127.315 159.602 127.23 159.767 127.06 159.89C126.89 160.013 126.638 160.075 126.305 160.075ZM130.186 160.075C129.743 160.075 129.394 159.965 129.141 159.745C128.891 159.522 128.766 159.208 128.766 158.805C128.766 158.412 128.878 158.1 129.101 157.87C129.328 157.64 129.649 157.525 130.066 157.525C130.343 157.525 130.578 157.578 130.771 157.685C130.964 157.788 131.109 157.933 131.206 158.12C131.306 158.303 131.356 158.513 131.356 158.75V159H129.246C129.263 159.227 129.358 159.397 129.531 159.51C129.708 159.62 129.946 159.675 130.246 159.675C130.399 159.675 130.554 159.662 130.711 159.635C130.868 159.605 131.006 159.567 131.126 159.52V159.925C131.019 159.968 130.878 160.003 130.701 160.03C130.528 160.06 130.356 160.075 130.186 160.075ZM130.881 158.645C130.874 158.418 130.799 158.243 130.656 158.12C130.516 157.993 130.316 157.93 130.056 157.93C129.803 157.93 129.606 157.995 129.466 158.125C129.326 158.255 129.253 158.428 129.246 158.645H130.881ZM17.225 165.6H17.74L18.28 167.38L18.815 165.6H19.27L19.805 167.38L20.345 165.6H20.865L20.085 168H19.6L19.045 166.21L18.49 168H18L17.225 165.6ZM23.0034 168.075C22.7134 168.075 22.48 168.002 22.3034 167.855C22.13 167.705 22.0434 167.503 22.0434 167.25C22.0434 166.983 22.1267 166.778 22.2934 166.635C22.4634 166.488 22.7034 166.415 23.0134 166.415C23.3434 166.415 23.6234 166.482 23.8534 166.615V166.49C23.8534 166.3 23.795 166.16 23.6784 166.07C23.565 165.977 23.385 165.93 23.1384 165.93C22.9917 165.93 22.8484 165.945 22.7084 165.975C22.5717 166.002 22.4484 166.04 22.3384 166.09V165.68C22.4384 165.633 22.5684 165.597 22.7284 165.57C22.8884 165.54 23.0434 165.525 23.1934 165.525C23.59 165.525 23.8834 165.613 24.0734 165.79C24.2667 165.963 24.3634 166.205 24.3634 166.515V168H23.8884V167.73C23.785 167.843 23.6617 167.93 23.5184 167.99C23.3784 168.047 23.2067 168.075 23.0034 168.075ZM23.1284 167.69C23.2884 167.69 23.4334 167.658 23.5634 167.595C23.6934 167.532 23.79 167.443 23.8534 167.33V167.005C23.6367 166.865 23.395 166.795 23.1284 166.795C22.935 166.795 22.79 166.833 22.6934 166.91C22.6 166.983 22.5534 167.097 22.5534 167.25C22.5534 167.543 22.745 167.69 23.1284 167.69ZM26.7881 168.075C26.5448 168.075 26.3564 168.005 26.2231 167.865C26.0931 167.725 26.0281 167.527 26.0281 167.27V165.99H25.6631V165.6H26.0281V164.88H26.5381V165.6H27.1281V165.99H26.5381V167.235C26.5381 167.395 26.5681 167.508 26.6281 167.575C26.6914 167.642 26.8048 167.675 26.9681 167.675C27.0648 167.675 27.1614 167.653 27.2581 167.61V168.01C27.1314 168.053 26.9748 168.075 26.7881 168.075ZM30.0532 168.075C29.6099 168.075 29.2615 167.965 29.0082 167.745C28.7582 167.522 28.6332 167.208 28.6332 166.805C28.6332 166.412 28.7449 166.1 28.9682 165.87C29.1949 165.64 29.5165 165.525 29.9332 165.525C30.2099 165.525 30.4449 165.578 30.6382 165.685C30.8315 165.788 30.9765 165.933 31.0732 166.12C31.1732 166.303 31.2232 166.513 31.2232 166.75V167H29.1132C29.1299 167.227 29.2249 167.397 29.3982 167.51C29.5749 167.62 29.8132 167.675 30.1132 167.675C30.2665 167.675 30.4215 167.662 30.5782 167.635C30.7349 167.605 30.8732 167.567 30.9932 167.52V167.925C30.8865 167.968 30.7449 168.003 30.5682 168.03C30.3949 168.06 30.2232 168.075 30.0532 168.075ZM30.7482 166.645C30.7415 166.418 30.6665 166.243 30.5232 166.12C30.3832 165.993 30.1832 165.93 29.9232 165.93C29.6699 165.93 29.4732 165.995 29.3332 166.125C29.1932 166.255 29.1199 166.428 29.1132 166.645H30.7482ZM32.7752 165.6H33.2652V166.03C33.3652 165.883 33.5052 165.775 33.6852 165.705C33.8685 165.635 34.0802 165.6 34.3202 165.6V165.995C34.0635 165.995 33.8435 166.037 33.6602 166.12C33.4769 166.203 33.3502 166.335 33.2802 166.515V168H32.7752V165.6ZM36.584 168.075C36.4174 168.075 36.2407 168.053 36.054 168.01C35.8674 167.97 35.7207 167.915 35.614 167.845V167.415C35.744 167.492 35.894 167.555 36.064 167.605C36.234 167.652 36.399 167.675 36.559 167.675C36.739 167.675 36.8707 167.653 36.954 167.61C37.0374 167.567 37.079 167.497 37.079 167.4C37.079 167.327 37.059 167.268 37.019 167.225C36.9824 167.178 36.9174 167.137 36.824 167.1C36.734 167.063 36.5974 167.02 36.414 166.97C36.2174 166.913 36.0607 166.857 35.944 166.8C35.8307 166.74 35.744 166.665 35.684 166.575C35.6274 166.485 35.599 166.368 35.599 166.225C35.599 165.995 35.689 165.822 35.869 165.705C36.0524 165.585 36.2974 165.525 36.604 165.525C36.764 165.525 36.9207 165.54 37.074 165.57C37.2274 165.6 37.3507 165.642 37.444 165.695V166.115C37.3474 166.058 37.2274 166.013 37.084 165.98C36.944 165.947 36.8007 165.93 36.654 165.93C36.4774 165.93 36.3424 165.952 36.249 165.995C36.1557 166.038 36.109 166.115 36.109 166.225C36.109 166.295 36.129 166.352 36.169 166.395C36.209 166.438 36.2724 166.477 36.359 166.51C36.449 166.54 36.5907 166.58 36.784 166.63C37.0874 166.713 37.2974 166.812 37.414 166.925C37.534 167.038 37.594 167.195 37.594 167.395C37.594 167.602 37.509 167.767 37.339 167.89C37.169 168.013 36.9174 168.075 36.584 168.075ZM43.3159 168.075C42.8726 168.075 42.5242 167.965 42.2709 167.745C42.0209 167.522 41.8959 167.208 41.8959 166.805C41.8959 166.412 42.0076 166.1 42.2309 165.87C42.4576 165.64 42.7792 165.525 43.1959 165.525C43.4726 165.525 43.7076 165.578 43.9009 165.685C44.0942 165.788 44.2392 165.933 44.3359 166.12C44.4359 166.303 44.4859 166.513 44.4859 166.75V167H42.3759C42.3926 167.227 42.4876 167.397 42.6609 167.51C42.8376 167.62 43.0759 167.675 43.3759 167.675C43.5292 167.675 43.6842 167.662 43.8409 167.635C43.9976 167.605 44.1359 167.567 44.2559 167.52V167.925C44.1492 167.968 44.0076 168.003 43.8309 168.03C43.6576 168.06 43.4859 168.075 43.3159 168.075ZM44.0109 166.645C44.0042 166.418 43.9292 166.243 43.7859 166.12C43.6459 165.993 43.4459 165.93 43.1859 165.93C42.9326 165.93 42.7359 165.995 42.5959 166.125C42.4559 166.255 42.3826 166.428 42.3759 166.645H44.0109ZM46.8979 168.075C46.6079 168.075 46.3746 168.002 46.1979 167.855C46.0246 167.705 45.9379 167.503 45.9379 167.25C45.9379 166.983 46.0212 166.778 46.1879 166.635C46.3579 166.488 46.5979 166.415 46.9079 166.415C47.2379 166.415 47.5179 166.482 47.7479 166.615V166.49C47.7479 166.3 47.6896 166.16 47.5729 166.07C47.4596 165.977 47.2796 165.93 47.0329 165.93C46.8862 165.93 46.7429 165.945 46.6029 165.975C46.4662 166.002 46.3429 166.04 46.2329 166.09V165.68C46.3329 165.633 46.4629 165.597 46.6229 165.57C46.7829 165.54 46.9379 165.525 47.0879 165.525C47.4846 165.525 47.7779 165.613 47.9679 165.79C48.1612 165.963 48.2579 166.205 48.2579 166.515V168H47.7829V167.73C47.6796 167.843 47.5562 167.93 47.4129 167.99C47.2729 168.047 47.1012 168.075 46.8979 168.075ZM47.0229 167.69C47.1829 167.69 47.3279 167.658 47.4579 167.595C47.5879 167.532 47.6846 167.443 47.7479 167.33V167.005C47.5312 166.865 47.2896 166.795 47.0229 166.795C46.8296 166.795 46.6846 166.833 46.5879 166.91C46.4946 166.983 46.4479 167.097 46.4479 167.25C46.4479 167.543 46.6396 167.69 47.0229 167.69ZM50.6826 168.075C50.4393 168.075 50.251 168.005 50.1176 167.865C49.9876 167.725 49.9226 167.527 49.9226 167.27V165.99H49.5576V165.6H49.9226V164.88H50.4326V165.6H51.0226V165.99H50.4326V167.235C50.4326 167.395 50.4626 167.508 50.5226 167.575C50.586 167.642 50.6993 167.675 50.8626 167.675C50.9593 167.675 51.056 167.653 51.1526 167.61V168.01C51.026 168.053 50.8693 168.075 50.6826 168.075ZM56.3633 168.075C56.1967 168.075 56.02 168.053 55.8333 168.01C55.6467 167.97 55.5 167.915 55.3933 167.845V167.415C55.5233 167.492 55.6733 167.555 55.8433 167.605C56.0133 167.652 56.1783 167.675 56.3383 167.675C56.5183 167.675 56.65 167.653 56.7333 167.61C56.8167 167.567 56.8583 167.497 56.8583 167.4C56.8583 167.327 56.8383 167.268 56.7983 167.225C56.7617 167.178 56.6967 167.137 56.6033 167.1C56.5133 167.063 56.3767 167.02 56.1933 166.97C55.9967 166.913 55.84 166.857 55.7233 166.8C55.61 166.74 55.5233 166.665 55.4633 166.575C55.4067 166.485 55.3783 166.368 55.3783 166.225C55.3783 165.995 55.4683 165.822 55.6483 165.705C55.8317 165.585 56.0767 165.525 56.3833 165.525C56.5433 165.525 56.7 165.54 56.8533 165.57C57.0067 165.6 57.13 165.642 57.2233 165.695V166.115C57.1267 166.058 57.0067 166.013 56.8633 165.98C56.7233 165.947 56.58 165.93 56.4333 165.93C56.2567 165.93 56.1217 165.952 56.0283 165.995C55.935 166.038 55.8883 166.115 55.8883 166.225C55.8883 166.295 55.9083 166.352 55.9483 166.395C55.9883 166.438 56.0517 166.477 56.1383 166.51C56.2283 166.54 56.37 166.58 56.5633 166.63C56.8667 166.713 57.0767 166.812 57.1933 166.925C57.3133 167.038 57.3733 167.195 57.3733 167.395C57.3733 167.602 57.2883 167.767 57.1183 167.89C56.9483 168.013 56.6967 168.075 56.3633 168.075ZM60.1164 168.075C59.8464 168.075 59.608 168.025 59.4014 167.925C59.198 167.822 59.038 167.675 58.9214 167.485C58.808 167.292 58.7514 167.065 58.7514 166.805C58.7514 166.548 58.808 166.323 58.9214 166.13C59.0347 165.937 59.1947 165.788 59.4014 165.685C59.608 165.578 59.8464 165.525 60.1164 165.525C60.3864 165.525 60.6247 165.578 60.8314 165.685C61.038 165.788 61.198 165.937 61.3114 166.13C61.428 166.323 61.4864 166.548 61.4864 166.805C61.4864 167.065 61.428 167.292 61.3114 167.485C61.198 167.675 61.038 167.822 60.8314 167.925C60.6247 168.025 60.3864 168.075 60.1164 168.075ZM60.1164 167.675C60.3764 167.675 60.583 167.595 60.7364 167.435C60.8897 167.275 60.9664 167.065 60.9664 166.805C60.9664 166.535 60.8897 166.322 60.7364 166.165C60.583 166.008 60.3764 165.93 60.1164 165.93C59.8564 165.93 59.6497 166.008 59.4964 166.165C59.343 166.322 59.2664 166.535 59.2664 166.805C59.2664 167.065 59.343 167.275 59.4964 167.435C59.6497 167.595 59.8564 167.675 60.1164 167.675ZM66.8105 168.075C66.5672 168.075 66.3789 168.005 66.2455 167.865C66.1155 167.725 66.0505 167.527 66.0505 167.27V165.99H65.6855V165.6H66.0505V164.88H66.5605V165.6H67.1505V165.99H66.5605V167.235C66.5605 167.395 66.5905 167.508 66.6505 167.575C66.7139 167.642 66.8272 167.675 66.9905 167.675C67.0872 167.675 67.1839 167.653 67.2805 167.61V168.01C67.1539 168.053 66.9972 168.075 66.8105 168.075ZM68.7557 164.305H69.2607V165.93C69.4907 165.66 69.7973 165.525 70.1807 165.525C70.5007 165.525 70.739 165.61 70.8957 165.78C71.0523 165.95 71.1307 166.178 71.1307 166.465V168H70.6257V166.515C70.6257 166.125 70.439 165.93 70.0657 165.93C69.9057 165.93 69.7557 165.968 69.6157 166.045C69.479 166.118 69.3607 166.232 69.2607 166.385V168H68.7557V164.305ZM74.0737 168.075C73.6304 168.075 73.282 167.965 73.0287 167.745C72.7787 167.522 72.6537 167.208 72.6537 166.805C72.6537 166.412 72.7654 166.1 72.9887 165.87C73.2154 165.64 73.537 165.525 73.9537 165.525C74.2304 165.525 74.4654 165.578 74.6587 165.685C74.852 165.788 74.997 165.933 75.0937 166.12C75.1937 166.303 75.2437 166.513 75.2437 166.75V167H73.1337C73.1504 167.227 73.2454 167.397 73.4187 167.51C73.5954 167.62 73.8337 167.675 74.1337 167.675C74.287 167.675 74.442 167.662 74.5987 167.635C74.7554 167.605 74.8937 167.567 75.0137 167.52V167.925C74.907 167.968 74.7654 168.003 74.5887 168.03C74.4154 168.06 74.2437 168.075 74.0737 168.075ZM74.7687 166.645C74.762 166.418 74.687 166.243 74.5437 166.12C74.4037 165.993 74.2037 165.93 73.9437 165.93C73.6904 165.93 73.4937 165.995 73.3537 166.125C73.2137 166.255 73.1404 166.428 73.1337 166.645H74.7687ZM79.5463 165.6H80.0613L80.6013 167.38L81.1363 165.6H81.5913L82.1263 167.38L82.6663 165.6H83.1863L82.4063 168H81.9213L81.3663 166.21L80.8113 168H80.3213L79.5463 165.6ZM85.3246 168.075C85.0346 168.075 84.8013 168.002 84.6246 167.855C84.4513 167.705 84.3646 167.503 84.3646 167.25C84.3646 166.983 84.448 166.778 84.6146 166.635C84.7846 166.488 85.0246 166.415 85.3346 166.415C85.6646 166.415 85.9446 166.482 86.1746 166.615V166.49C86.1746 166.3 86.1163 166.16 85.9996 166.07C85.8863 165.977 85.7063 165.93 85.4596 165.93C85.313 165.93 85.1696 165.945 85.0296 165.975C84.893 166.002 84.7696 166.04 84.6596 166.09V165.68C84.7596 165.633 84.8896 165.597 85.0496 165.57C85.2096 165.54 85.3646 165.525 85.5146 165.525C85.9113 165.525 86.2046 165.613 86.3946 165.79C86.588 165.963 86.6846 166.205 86.6846 166.515V168H86.2096V167.73C86.1063 167.843 85.983 167.93 85.8396 167.99C85.6996 168.047 85.528 168.075 85.3246 168.075ZM85.4496 167.69C85.6096 167.69 85.7546 167.658 85.8846 167.595C86.0146 167.532 86.1113 167.443 86.1746 167.33V167.005C85.958 166.865 85.7163 166.795 85.4496 166.795C85.2563 166.795 85.1113 166.833 85.0146 166.91C84.9213 166.983 84.8746 167.097 84.8746 167.25C84.8746 167.543 85.0663 167.69 85.4496 167.69ZM89.1094 168.075C88.866 168.075 88.6777 168.005 88.5444 167.865C88.4144 167.725 88.3494 167.527 88.3494 167.27V165.99H87.9844V165.6H88.3494V164.88H88.8594V165.6H89.4494V165.99H88.8594V167.235C88.8594 167.395 88.8894 167.508 88.9494 167.575C89.0127 167.642 89.126 167.675 89.2894 167.675C89.386 167.675 89.4827 167.653 89.5794 167.61V168.01C89.4527 168.053 89.296 168.075 89.1094 168.075ZM92.3745 168.075C91.9312 168.075 91.5828 167.965 91.3295 167.745C91.0795 167.522 90.9545 167.208 90.9545 166.805C90.9545 166.412 91.0662 166.1 91.2895 165.87C91.5162 165.64 91.8378 165.525 92.2545 165.525C92.5312 165.525 92.7662 165.578 92.9595 165.685C93.1528 165.788 93.2978 165.933 93.3945 166.12C93.4945 166.303 93.5445 166.513 93.5445 166.75V167H91.4345C91.4512 167.227 91.5462 167.397 91.7195 167.51C91.8962 167.62 92.1345 167.675 92.4345 167.675C92.5878 167.675 92.7428 167.662 92.8995 167.635C93.0562 167.605 93.1945 167.567 93.3145 167.52V167.925C93.2078 167.968 93.0662 168.003 92.8895 168.03C92.7162 168.06 92.5445 168.075 92.3745 168.075ZM93.0695 166.645C93.0628 166.418 92.9878 166.243 92.8445 166.12C92.7045 165.993 92.5045 165.93 92.2445 165.93C91.9912 165.93 91.7945 165.995 91.6545 166.125C91.5145 166.255 91.4412 166.428 91.4345 166.645H93.0695ZM95.0965 165.6H95.5865V166.03C95.6865 165.883 95.8265 165.775 96.0065 165.705C96.1898 165.635 96.4015 165.6 96.6415 165.6V165.995C96.3848 165.995 96.1648 166.037 95.9815 166.12C95.7982 166.203 95.6715 166.335 95.6015 166.515V168H95.0965V165.6ZM17.325 173.6H17.815V173.955C18.0617 173.668 18.395 173.525 18.815 173.525C19.055 173.525 19.27 173.578 19.46 173.685C19.6533 173.792 19.8033 173.942 19.91 174.135C20.02 174.325 20.075 174.547 20.075 174.8C20.075 175.05 20.02 175.272 19.91 175.465C19.8033 175.658 19.655 175.808 19.465 175.915C19.275 176.022 19.0583 176.075 18.815 176.075C18.615 176.075 18.4283 176.042 18.255 175.975C18.0817 175.908 17.94 175.81 17.83 175.68V177.095H17.325V173.6ZM18.7 175.675C18.8633 175.675 19.01 175.64 19.14 175.57C19.2733 175.497 19.3767 175.393 19.45 175.26C19.5267 175.127 19.565 174.973 19.565 174.8C19.565 174.627 19.5267 174.475 19.45 174.345C19.3767 174.212 19.2733 174.11 19.14 174.04C19.01 173.967 18.8633 173.93 18.7 173.93C18.4967 173.93 18.3167 173.983 18.16 174.09C18.0067 174.197 17.8967 174.343 17.83 174.53V175.07C17.8867 175.253 17.995 175.4 18.155 175.51C18.315 175.62 18.4967 175.675 18.7 175.675ZM22.7638 176.075C22.4938 176.075 22.2555 176.025 22.0488 175.925C21.8455 175.822 21.6855 175.675 21.5688 175.485C21.4555 175.292 21.3988 175.065 21.3988 174.805C21.3988 174.548 21.4555 174.323 21.5688 174.13C21.6822 173.937 21.8422 173.788 22.0488 173.685C22.2555 173.578 22.4938 173.525 22.7638 173.525C23.0338 173.525 23.2722 173.578 23.4788 173.685C23.6855 173.788 23.8455 173.937 23.9588 174.13C24.0755 174.323 24.1338 174.548 24.1338 174.805C24.1338 175.065 24.0755 175.292 23.9588 175.485C23.8455 175.675 23.6855 175.822 23.4788 175.925C23.2722 176.025 23.0338 176.075 22.7638 176.075ZM22.7638 175.675C23.0238 175.675 23.2305 175.595 23.3838 175.435C23.5372 175.275 23.6138 175.065 23.6138 174.805C23.6138 174.535 23.5372 174.322 23.3838 174.165C23.2305 174.008 23.0238 173.93 22.7638 173.93C22.5038 173.93 22.2972 174.008 22.1438 174.165C21.9905 174.322 21.9138 174.535 21.9138 174.805C21.9138 175.065 21.9905 175.275 22.1438 175.435C22.2972 175.595 22.5038 175.675 22.7638 175.675ZM25.6824 173.6H26.1724V173.955C26.4191 173.668 26.7524 173.525 27.1724 173.525C27.4124 173.525 27.6274 173.578 27.8174 173.685C28.0108 173.792 28.1608 173.942 28.2674 174.135C28.3774 174.325 28.4324 174.547 28.4324 174.8C28.4324 175.05 28.3774 175.272 28.2674 175.465C28.1608 175.658 28.0124 175.808 27.8224 175.915C27.6324 176.022 27.4158 176.075 27.1724 176.075C26.9724 176.075 26.7858 176.042 26.6124 175.975C26.4391 175.908 26.2974 175.81 26.1874 175.68V177.095H25.6824V173.6ZM27.0574 175.675C27.2208 175.675 27.3674 175.64 27.4974 175.57C27.6308 175.497 27.7341 175.393 27.8074 175.26C27.8841 175.127 27.9224 174.973 27.9224 174.8C27.9224 174.627 27.8841 174.475 27.8074 174.345C27.7341 174.212 27.6308 174.11 27.4974 174.04C27.3674 173.967 27.2208 173.93 27.0574 173.93C26.8541 173.93 26.6741 173.983 26.5174 174.09C26.3641 174.197 26.2541 174.343 26.1874 174.53V175.07C26.2441 175.253 26.3524 175.4 26.5124 175.51C26.6724 175.62 26.8541 175.675 27.0574 175.675ZM30.8113 176.075C30.4879 176.075 30.2429 175.988 30.0763 175.815C29.9129 175.642 29.8313 175.41 29.8313 175.12V173.6H30.3363V175.1C30.3363 175.483 30.5279 175.675 30.9113 175.675C31.2479 175.675 31.5113 175.523 31.7013 175.22V173.6H32.2063V176H31.7163V175.66C31.6029 175.803 31.4679 175.908 31.3113 175.975C31.1579 176.042 30.9913 176.075 30.8113 176.075ZM33.8543 172.305H34.3593V176H33.8543V172.305ZM36.8715 176.075C36.5815 176.075 36.3482 176.002 36.1715 175.855C35.9982 175.705 35.9115 175.503 35.9115 175.25C35.9115 174.983 35.9949 174.778 36.1615 174.635C36.3315 174.488 36.5715 174.415 36.8815 174.415C37.2115 174.415 37.4915 174.482 37.7215 174.615V174.49C37.7215 174.3 37.6632 174.16 37.5465 174.07C37.4332 173.977 37.2532 173.93 37.0065 173.93C36.8599 173.93 36.7165 173.945 36.5765 173.975C36.4399 174.002 36.3165 174.04 36.2065 174.09V173.68C36.3065 173.633 36.4365 173.597 36.5965 173.57C36.7565 173.54 36.9115 173.525 37.0615 173.525C37.4582 173.525 37.7515 173.613 37.9415 173.79C38.1349 173.963 38.2315 174.205 38.2315 174.515V176H37.7565V175.73C37.6532 175.843 37.5299 175.93 37.3865 175.99C37.2465 176.047 37.0749 176.075 36.8715 176.075ZM36.9965 175.69C37.1565 175.69 37.3015 175.658 37.4315 175.595C37.5615 175.532 37.6582 175.443 37.7215 175.33V175.005C37.5049 174.865 37.2632 174.795 36.9965 174.795C36.8032 174.795 36.6582 174.833 36.5615 174.91C36.4682 174.983 36.4215 175.097 36.4215 175.25C36.4215 175.543 36.6132 175.69 36.9965 175.69ZM40.6562 176.075C40.4129 176.075 40.2246 176.005 40.0913 175.865C39.9613 175.725 39.8963 175.527 39.8963 175.27V173.99H39.5313V173.6H39.8963V172.88H40.4063V173.6H40.9963V173.99H40.4063V175.235C40.4063 175.395 40.4363 175.508 40.4963 175.575C40.5596 175.642 40.6729 175.675 40.8363 175.675C40.9329 175.675 41.0296 175.653 41.1263 175.61V176.01C40.9996 176.053 40.8429 176.075 40.6562 176.075ZM42.8964 173.13C42.813 173.13 42.743 173.102 42.6864 173.045C42.6297 172.988 42.6014 172.918 42.6014 172.835C42.6014 172.752 42.6297 172.682 42.6864 172.625C42.743 172.568 42.813 172.54 42.8964 172.54C42.983 172.54 43.0547 172.568 43.1114 172.625C43.1714 172.682 43.2014 172.752 43.2014 172.835C43.2014 172.918 43.1714 172.988 43.1114 173.045C43.0547 173.102 42.983 173.13 42.8964 173.13ZM42.6414 173.6H43.1564V176H42.6414V173.6ZM46.1164 176.075C45.8464 176.075 45.608 176.025 45.4014 175.925C45.198 175.822 45.038 175.675 44.9214 175.485C44.808 175.292 44.7514 175.065 44.7514 174.805C44.7514 174.548 44.808 174.323 44.9214 174.13C45.0347 173.937 45.1947 173.788 45.4014 173.685C45.608 173.578 45.8464 173.525 46.1164 173.525C46.3864 173.525 46.6247 173.578 46.8314 173.685C47.038 173.788 47.198 173.937 47.3114 174.13C47.428 174.323 47.4864 174.548 47.4864 174.805C47.4864 175.065 47.428 175.292 47.3114 175.485C47.198 175.675 47.038 175.822 46.8314 175.925C46.6247 176.025 46.3864 176.075 46.1164 176.075ZM46.1164 175.675C46.3764 175.675 46.583 175.595 46.7364 175.435C46.8897 175.275 46.9664 175.065 46.9664 174.805C46.9664 174.535 46.8897 174.322 46.7364 174.165C46.583 174.008 46.3764 173.93 46.1164 173.93C45.8564 173.93 45.6497 174.008 45.4964 174.165C45.343 174.322 45.2664 174.535 45.2664 174.805C45.2664 175.065 45.343 175.275 45.4964 175.435C45.6497 175.595 45.8564 175.675 46.1164 175.675ZM49.035 173.6H49.525V173.945C49.6383 173.802 49.7766 173.697 49.94 173.63C50.1066 173.56 50.28 173.525 50.46 173.525C50.78 173.525 51.0183 173.61 51.175 173.78C51.3316 173.95 51.41 174.178 51.41 174.465V176H50.905V174.515C50.905 174.125 50.7183 173.93 50.345 173.93C50.185 173.93 50.035 173.968 49.895 174.045C49.7583 174.118 49.64 174.232 49.54 174.385V176H49.035V173.6ZM57.0436 176.075C56.8036 176.075 56.5869 176.023 56.3936 175.92C56.2036 175.813 56.0536 175.665 55.9436 175.475C55.8369 175.282 55.7836 175.058 55.7836 174.805C55.7836 174.555 55.8369 174.333 55.9436 174.14C56.0536 173.947 56.2036 173.797 56.3936 173.69C56.5869 173.58 56.8036 173.525 57.0436 173.525C57.4769 173.525 57.8053 173.657 58.0286 173.92V172.305H58.5336V176H58.0436V175.65C57.9103 175.797 57.7636 175.905 57.6036 175.975C57.4469 176.042 57.2603 176.075 57.0436 176.075ZM57.1586 175.675C57.3653 175.675 57.5453 175.622 57.6986 175.515C57.8553 175.405 57.9653 175.258 58.0286 175.075V174.535C57.9719 174.352 57.8636 174.205 57.7036 174.095C57.5469 173.985 57.3653 173.93 57.1586 173.93C56.9953 173.93 56.8469 173.967 56.7136 174.04C56.5836 174.113 56.4803 174.217 56.4036 174.35C56.3303 174.483 56.2936 174.635 56.2936 174.805C56.2936 174.975 56.3303 175.127 56.4036 175.26C56.4803 175.393 56.5836 175.497 56.7136 175.57C56.8469 175.64 56.9953 175.675 57.1586 175.675ZM61.3761 176.075C61.1061 176.075 60.8678 176.025 60.6611 175.925C60.4578 175.822 60.2978 175.675 60.1811 175.485C60.0678 175.292 60.0111 175.065 60.0111 174.805C60.0111 174.548 60.0678 174.323 60.1811 174.13C60.2945 173.937 60.4545 173.788 60.6611 173.685C60.8678 173.578 61.1061 173.525 61.3761 173.525C61.6461 173.525 61.8845 173.578 62.0911 173.685C62.2978 173.788 62.4578 173.937 62.5711 174.13C62.6878 174.323 62.7461 174.548 62.7461 174.805C62.7461 175.065 62.6878 175.292 62.5711 175.485C62.4578 175.675 62.2978 175.822 62.0911 175.925C61.8845 176.025 61.6461 176.075 61.3761 176.075ZM61.3761 175.675C61.6361 175.675 61.8428 175.595 61.9961 175.435C62.1495 175.275 62.2261 175.065 62.2261 174.805C62.2261 174.535 62.1495 174.322 61.9961 174.165C61.8428 174.008 61.6361 173.93 61.3761 173.93C61.1161 173.93 60.9095 174.008 60.7561 174.165C60.6028 174.322 60.5261 174.535 60.5261 174.805C60.5261 175.065 60.6028 175.275 60.7561 175.435C60.9095 175.595 61.1161 175.675 61.3761 175.675ZM65.6147 176.075C65.1714 176.075 64.8231 175.965 64.5697 175.745C64.3197 175.522 64.1947 175.208 64.1947 174.805C64.1947 174.412 64.3064 174.1 64.5297 173.87C64.7564 173.64 65.0781 173.525 65.4947 173.525C65.7714 173.525 66.0064 173.578 66.1997 173.685C66.3931 173.788 66.5381 173.933 66.6347 174.12C66.7347 174.303 66.7847 174.513 66.7847 174.75V175H64.6747C64.6914 175.227 64.7864 175.397 64.9597 175.51C65.1364 175.62 65.3747 175.675 65.6747 175.675C65.8281 175.675 65.9831 175.662 66.1397 175.635C66.2964 175.605 66.4347 175.567 66.5547 175.52V175.925C66.4481 175.968 66.3064 176.003 66.1297 176.03C65.9564 176.06 65.7847 176.075 65.6147 176.075ZM66.3097 174.645C66.3031 174.418 66.2281 174.243 66.0847 174.12C65.9447 173.993 65.7447 173.93 65.4847 173.93C65.2314 173.93 65.0347 173.995 64.8947 174.125C64.7547 174.255 64.6814 174.428 64.6747 174.645H66.3097ZM69.2217 176.075C69.0551 176.075 68.8784 176.053 68.6917 176.01C68.5051 175.97 68.3584 175.915 68.2517 175.845V175.415C68.3817 175.492 68.5317 175.555 68.7017 175.605C68.8717 175.652 69.0367 175.675 69.1967 175.675C69.3767 175.675 69.5084 175.653 69.5917 175.61C69.6751 175.567 69.7167 175.497 69.7167 175.4C69.7167 175.327 69.6967 175.268 69.6567 175.225C69.6201 175.178 69.5551 175.137 69.4617 175.1C69.3717 175.063 69.2351 175.02 69.0517 174.97C68.8551 174.913 68.6984 174.857 68.5817 174.8C68.4684 174.74 68.3817 174.665 68.3217 174.575C68.2651 174.485 68.2367 174.368 68.2367 174.225C68.2367 173.995 68.3267 173.822 68.5067 173.705C68.6901 173.585 68.9351 173.525 69.2417 173.525C69.4017 173.525 69.5584 173.54 69.7117 173.57C69.8651 173.6 69.9884 173.642 70.0817 173.695V174.115C69.9851 174.058 69.8651 174.013 69.7217 173.98C69.5817 173.947 69.4384 173.93 69.2917 173.93C69.1151 173.93 68.9801 173.952 68.8867 173.995C68.7934 174.038 68.7467 174.115 68.7467 174.225C68.7467 174.295 68.7667 174.352 68.8067 174.395C68.8467 174.438 68.9101 174.477 68.9967 174.51C69.0867 174.54 69.2284 174.58 69.4217 174.63C69.7251 174.713 69.9351 174.812 70.0517 174.925C70.1717 175.038 70.2317 175.195 70.2317 175.395C70.2317 175.602 70.1467 175.767 69.9767 175.89C69.8067 176.013 69.5551 176.075 69.2217 176.075ZM71.783 173.6H72.273V173.945C72.3863 173.802 72.5247 173.697 72.688 173.63C72.8547 173.56 73.028 173.525 73.208 173.525C73.528 173.525 73.7663 173.61 73.923 173.78C74.0797 173.95 74.158 174.178 74.158 174.465V176H73.653V174.515C73.653 174.125 73.4663 173.93 73.093 173.93C72.933 173.93 72.783 173.968 72.643 174.045C72.5063 174.118 72.388 174.232 72.288 174.385V176H71.783V173.6ZM76.0111 172.43H76.5111L76.1161 173.405H75.6811L76.0111 172.43ZM78.9854 176.075C78.742 176.075 78.5537 176.005 78.4204 175.865C78.2904 175.725 78.2254 175.527 78.2254 175.27V173.99H77.8604V173.6H78.2254V172.88H78.7354V173.6H79.3254V173.99H78.7354V175.235C78.7354 175.395 78.7654 175.508 78.8254 175.575C78.8887 175.642 79.002 175.675 79.1654 175.675C79.262 175.675 79.3587 175.653 79.4554 175.61V176.01C79.3287 176.053 79.172 176.075 78.9854 176.075ZM85.0361 177.15C84.8727 177.15 84.7127 177.137 84.5561 177.11C84.4027 177.083 84.2727 177.045 84.1661 176.995V176.58C84.4161 176.693 84.7061 176.75 85.0361 176.75C85.3461 176.75 85.5711 176.682 85.7111 176.545C85.8544 176.412 85.9261 176.208 85.9261 175.935V175.68C85.7061 175.943 85.3827 176.075 84.9561 176.075C84.7127 176.075 84.4944 176.022 84.3011 175.915C84.1077 175.808 83.9561 175.658 83.8461 175.465C83.7361 175.272 83.6811 175.05 83.6811 174.8C83.6811 174.547 83.7344 174.325 83.8411 174.135C83.9511 173.942 84.1011 173.792 84.2911 173.685C84.4844 173.578 84.7011 173.525 84.9411 173.525C85.1644 173.525 85.3527 173.558 85.5061 173.625C85.6627 173.688 85.8077 173.795 85.9411 173.945V173.6H86.4311V175.88C86.4311 176.29 86.3161 176.603 86.0861 176.82C85.8594 177.04 85.5094 177.15 85.0361 177.15ZM85.0561 175.675C85.2627 175.675 85.4444 175.62 85.6011 175.51C85.7611 175.4 85.8694 175.253 85.9261 175.07V174.53C85.8627 174.343 85.7527 174.197 85.5961 174.09C85.4427 173.983 85.2627 173.93 85.0561 173.93C84.8927 173.93 84.7444 173.967 84.6111 174.04C84.4811 174.11 84.3777 174.212 84.3011 174.345C84.2277 174.478 84.1911 174.63 84.1911 174.8C84.1911 174.973 84.2277 175.127 84.3011 175.26C84.3777 175.39 84.4811 175.492 84.6111 175.565C84.7444 175.638 84.8927 175.675 85.0561 175.675ZM89.2199 176.075C88.9499 176.075 88.7115 176.025 88.5049 175.925C88.3015 175.822 88.1415 175.675 88.0249 175.485C87.9115 175.292 87.8549 175.065 87.8549 174.805C87.8549 174.548 87.9115 174.323 88.0249 174.13C88.1382 173.937 88.2982 173.788 88.5049 173.685C88.7115 173.578 88.9499 173.525 89.2199 173.525C89.4899 173.525 89.7282 173.578 89.9349 173.685C90.1415 173.788 90.3015 173.937 90.4149 174.13C90.5315 174.323 90.5899 174.548 90.5899 174.805C90.5899 175.065 90.5315 175.292 90.4149 175.485C90.3015 175.675 90.1415 175.822 89.9349 175.925C89.7282 176.025 89.4899 176.075 89.2199 176.075ZM89.2199 175.675C89.4799 175.675 89.6865 175.595 89.8399 175.435C89.9932 175.275 90.0699 175.065 90.0699 174.805C90.0699 174.535 89.9932 174.322 89.8399 174.165C89.6865 174.008 89.4799 173.93 89.2199 173.93C88.9599 173.93 88.7532 174.008 88.5999 174.165C88.4465 174.322 88.3699 174.535 88.3699 174.805C88.3699 175.065 88.4465 175.275 88.5999 175.435C88.7532 175.595 88.9599 175.675 89.2199 175.675ZM95.8491 176.075C95.5591 176.075 95.3257 176.002 95.1491 175.855C94.9757 175.705 94.8891 175.503 94.8891 175.25C94.8891 174.983 94.9724 174.778 95.1391 174.635C95.3091 174.488 95.5491 174.415 95.8591 174.415C96.1891 174.415 96.4691 174.482 96.6991 174.615V174.49C96.6991 174.3 96.6407 174.16 96.5241 174.07C96.4107 173.977 96.2307 173.93 95.9841 173.93C95.8374 173.93 95.6941 173.945 95.5541 173.975C95.4174 174.002 95.2941 174.04 95.1841 174.09V173.68C95.2841 173.633 95.4141 173.597 95.5741 173.57C95.7341 173.54 95.8891 173.525 96.0391 173.525C96.4357 173.525 96.7291 173.613 96.9191 173.79C97.1124 173.963 97.2091 174.205 97.2091 174.515V176H96.7341V175.73C96.6307 175.843 96.5074 175.93 96.3641 175.99C96.2241 176.047 96.0524 176.075 95.8491 176.075ZM95.9741 175.69C96.1341 175.69 96.2791 175.658 96.4091 175.595C96.5391 175.532 96.6357 175.443 96.6991 175.33V175.005C96.4824 174.865 96.2407 174.795 95.9741 174.795C95.7807 174.795 95.6357 174.833 95.5391 174.91C95.4457 174.983 95.3991 175.097 95.3991 175.25C95.3991 175.543 95.5907 175.69 95.9741 175.69ZM100.326 176.075C100.109 176.075 99.9207 176.042 99.7607 175.975C99.6041 175.905 99.4591 175.797 99.3257 175.65V176H98.8357V172.305H99.3407V173.92C99.4507 173.79 99.5924 173.692 99.7657 173.625C99.9391 173.558 100.126 173.525 100.326 173.525C100.566 173.525 100.781 173.58 100.971 173.69C101.164 173.797 101.314 173.947 101.421 174.14C101.531 174.333 101.586 174.555 101.586 174.805C101.586 175.058 101.531 175.282 101.421 175.475C101.314 175.665 101.164 175.813 100.971 175.92C100.781 176.023 100.566 176.075 100.326 176.075ZM100.211 175.675C100.374 175.675 100.521 175.64 100.651 175.57C100.784 175.497 100.887 175.393 100.961 175.26C101.037 175.127 101.076 174.975 101.076 174.805C101.076 174.635 101.037 174.483 100.961 174.35C100.887 174.217 100.784 174.113 100.651 174.04C100.521 173.967 100.374 173.93 100.211 173.93C100.007 173.93 99.8257 173.985 99.6657 174.095C99.5057 174.205 99.3974 174.352 99.3407 174.535V175.075C99.4041 175.258 99.5124 175.405 99.6657 175.515C99.8224 175.622 100.004 175.675 100.211 175.675ZM104.275 176.075C104.005 176.075 103.766 176.025 103.56 175.925C103.356 175.822 103.196 175.675 103.08 175.485C102.966 175.292 102.91 175.065 102.91 174.805C102.91 174.548 102.966 174.323 103.08 174.13C103.193 173.937 103.353 173.788 103.56 173.685C103.766 173.578 104.005 173.525 104.275 173.525C104.545 173.525 104.783 173.578 104.99 173.685C105.196 173.788 105.356 173.937 105.47 174.13C105.586 174.323 105.645 174.548 105.645 174.805C105.645 175.065 105.586 175.292 105.47 175.485C105.356 175.675 105.196 175.822 104.99 175.925C104.783 176.025 104.545 176.075 104.275 176.075ZM104.275 175.675C104.535 175.675 104.741 175.595 104.895 175.435C105.048 175.275 105.125 175.065 105.125 174.805C105.125 174.535 105.048 174.322 104.895 174.165C104.741 174.008 104.535 173.93 104.275 173.93C104.015 173.93 103.808 174.008 103.655 174.165C103.501 174.322 103.425 174.535 103.425 174.805C103.425 175.065 103.501 175.275 103.655 175.435C103.808 175.595 104.015 175.675 104.275 175.675ZM108.148 176.075C107.825 176.075 107.58 175.988 107.413 175.815C107.25 175.642 107.168 175.41 107.168 175.12V173.6H107.673V175.1C107.673 175.483 107.865 175.675 108.248 175.675C108.585 175.675 108.848 175.523 109.038 175.22V173.6H109.543V176H109.053V175.66C108.94 175.803 108.805 175.908 108.648 175.975C108.495 176.042 108.328 176.075 108.148 176.075ZM112.116 176.075C111.873 176.075 111.685 176.005 111.551 175.865C111.421 175.725 111.356 175.527 111.356 175.27V173.99H110.991V173.6H111.356V172.88H111.866V173.6H112.456V173.99H111.866V175.235C111.866 175.395 111.896 175.508 111.956 175.575C112.02 175.642 112.133 175.675 112.296 175.675C112.393 175.675 112.49 175.653 112.586 175.61V176.01C112.46 176.053 112.303 176.075 112.116 176.075ZM116.812 173.6H117.327L117.867 175.38L118.402 173.6H118.857L119.392 175.38L119.932 173.6H120.452L119.672 176H119.187L118.632 174.21L118.077 176H117.587L116.812 173.6ZM122.299 173.13C122.215 173.13 122.145 173.102 122.089 173.045C122.032 172.988 122.004 172.918 122.004 172.835C122.004 172.752 122.032 172.682 122.089 172.625C122.145 172.568 122.215 172.54 122.299 172.54C122.385 172.54 122.457 172.568 122.514 172.625C122.574 172.682 122.604 172.752 122.604 172.835C122.604 172.918 122.574 172.988 122.514 173.045C122.457 173.102 122.385 173.13 122.299 173.13ZM122.044 173.6H122.559V176H122.044V173.6ZM125.179 176.075C124.935 176.075 124.747 176.005 124.614 175.865C124.484 175.725 124.419 175.527 124.419 175.27V173.99H124.054V173.6H124.419V172.88H124.929V173.6H125.519V173.99H124.929V175.235C124.929 175.395 124.959 175.508 125.019 175.575C125.082 175.642 125.195 175.675 125.359 175.675C125.455 175.675 125.552 175.653 125.649 175.61V176.01C125.522 176.053 125.365 176.075 125.179 176.075ZM127.124 172.305H127.629V173.93C127.859 173.66 128.165 173.525 128.549 173.525C128.869 173.525 129.107 173.61 129.264 173.78C129.42 173.95 129.499 174.178 129.499 174.465V176H128.994V174.515C128.994 174.125 128.807 173.93 128.434 173.93C128.274 173.93 128.124 173.968 127.984 174.045C127.847 174.118 127.729 174.232 127.629 174.385V176H127.124V172.305ZM18.645 184.075C18.2017 184.075 17.8533 183.965 17.6 183.745C17.35 183.522 17.225 183.208 17.225 182.805C17.225 182.412 17.3367 182.1 17.56 181.87C17.7867 181.64 18.1083 181.525 18.525 181.525C18.8017 181.525 19.0367 181.578 19.23 181.685C19.4233 181.788 19.5683 181.933 19.665 182.12C19.765 182.303 19.815 182.513 19.815 182.75V183H17.705C17.7217 183.227 17.8167 183.397 17.99 183.51C18.1667 183.62 18.405 183.675 18.705 183.675C18.8583 183.675 19.0133 183.662 19.17 183.635C19.3267 183.605 19.465 183.567 19.585 183.52V183.925C19.4783 183.968 19.3367 184.003 19.16 184.03C18.9867 184.06 18.815 184.075 18.645 184.075ZM19.34 182.645C19.3333 182.418 19.2583 182.243 19.115 182.12C18.975 181.993 18.775 181.93 18.515 181.93C18.2617 181.93 18.065 181.995 17.925 182.125C17.785 182.255 17.7117 182.428 17.705 182.645H19.34ZM21.367 181.6H21.847V181.945C21.9603 181.805 22.0887 181.7 22.232 181.63C22.3753 181.56 22.5237 181.525 22.677 181.525C22.8703 181.525 23.0237 181.558 23.137 181.625C23.2503 181.688 23.3337 181.787 23.387 181.92C23.4937 181.79 23.6237 181.692 23.777 181.625C23.9337 181.558 24.0903 181.525 24.247 181.525C24.5403 181.525 24.752 181.6 24.882 181.75C25.012 181.897 25.077 182.115 25.077 182.405V184H24.587V182.47C24.587 182.273 24.5503 182.135 24.477 182.055C24.4037 181.972 24.2787 181.93 24.102 181.93C23.8487 181.93 23.642 182.04 23.482 182.26C23.4887 182.31 23.492 182.392 23.492 182.505V184H23.002V182.47C23.002 182.273 22.9687 182.135 22.902 182.055C22.8353 181.972 22.7153 181.93 22.542 181.93C22.2887 181.93 22.062 182.073 21.862 182.36V184H21.367V181.6ZM26.7029 181.6H27.1929V181.955C27.4396 181.668 27.7729 181.525 28.1929 181.525C28.4329 181.525 28.6479 181.578 28.8379 181.685C29.0313 181.792 29.1813 181.942 29.2879 182.135C29.3979 182.325 29.4529 182.547 29.4529 182.8C29.4529 183.05 29.3979 183.272 29.2879 183.465C29.1813 183.658 29.0329 183.808 28.8429 183.915C28.6529 184.022 28.4363 184.075 28.1929 184.075C27.9929 184.075 27.8063 184.042 27.6329 183.975C27.4596 183.908 27.3179 183.81 27.2079 183.68V185.095H26.7029V181.6ZM28.0779 183.675C28.2413 183.675 28.3879 183.64 28.5179 183.57C28.6513 183.497 28.7546 183.393 28.8279 183.26C28.9046 183.127 28.9429 182.973 28.9429 182.8C28.9429 182.627 28.9046 182.475 28.8279 182.345C28.7546 182.212 28.6513 182.11 28.5179 182.04C28.3879 181.967 28.2413 181.93 28.0779 181.93C27.8746 181.93 27.6946 181.983 27.5379 182.09C27.3846 182.197 27.2746 182.343 27.2079 182.53V183.07C27.2646 183.253 27.3729 183.4 27.5329 183.51C27.6929 183.62 27.8746 183.675 28.0779 183.675ZM31.7529 184.075C31.5096 184.075 31.3213 184.005 31.1879 183.865C31.0579 183.725 30.9929 183.527 30.9929 183.27V181.99H30.6279V181.6H30.9929V180.88H31.5029V181.6H32.0929V181.99H31.5029V183.235C31.5029 183.395 31.5329 183.508 31.5929 183.575C31.6563 183.642 31.7696 183.675 31.9329 183.675C32.0296 183.675 32.1263 183.653 32.2229 183.61V184.01C32.0963 184.053 31.9396 184.075 31.7529 184.075ZM34.0079 184.99C33.8279 184.99 33.6779 184.972 33.5579 184.935V184.54C33.6445 184.573 33.7512 184.59 33.8779 184.59C33.9945 184.59 34.0862 184.56 34.1529 184.5C34.2195 184.443 34.2795 184.35 34.3329 184.22L34.4479 183.94L33.3979 181.6H33.9179L34.7179 183.445L35.4629 181.6H35.9829L34.9029 184.27C34.8029 184.52 34.6829 184.702 34.5429 184.815C34.4062 184.932 34.2279 184.99 34.0079 184.99ZM41.168 184.075C41.0013 184.075 40.8247 184.053 40.638 184.01C40.4513 183.97 40.3047 183.915 40.198 183.845V183.415C40.328 183.492 40.478 183.555 40.648 183.605C40.818 183.652 40.983 183.675 41.143 183.675C41.323 183.675 41.4547 183.653 41.538 183.61C41.6213 183.567 41.663 183.497 41.663 183.4C41.663 183.327 41.643 183.268 41.603 183.225C41.5663 183.178 41.5013 183.137 41.408 183.1C41.318 183.063 41.1813 183.02 40.998 182.97C40.8013 182.913 40.6447 182.857 40.528 182.8C40.4147 182.74 40.328 182.665 40.268 182.575C40.2113 182.485 40.183 182.368 40.183 182.225C40.183 181.995 40.273 181.822 40.453 181.705C40.6363 181.585 40.8813 181.525 41.188 181.525C41.348 181.525 41.5047 181.54 41.658 181.57C41.8113 181.6 41.9347 181.642 42.028 181.695V182.115C41.9313 182.058 41.8113 182.013 41.668 181.98C41.528 181.947 41.3847 181.93 41.238 181.93C41.0613 181.93 40.9263 181.952 40.833 181.995C40.7397 182.038 40.693 182.115 40.693 182.225C40.693 182.295 40.713 182.352 40.753 182.395C40.793 182.438 40.8563 182.477 40.943 182.51C41.033 182.54 41.1747 182.58 41.368 182.63C41.6713 182.713 41.8813 182.812 41.998 182.925C42.118 183.038 42.178 183.195 42.178 183.395C42.178 183.602 42.093 183.767 41.923 183.89C41.753 184.013 41.5013 184.075 41.168 184.075ZM44.5811 184.075C44.3377 184.075 44.1494 184.005 44.0161 183.865C43.8861 183.725 43.8211 183.527 43.8211 183.27V181.99H43.4561V181.6H43.8211V180.88H44.3311V181.6H44.9211V181.99H44.3311V183.235C44.3311 183.395 44.3611 183.508 44.4211 183.575C44.4844 183.642 44.5977 183.675 44.7611 183.675C44.8577 183.675 44.9544 183.653 45.0511 183.61V184.01C44.9244 184.053 44.7677 184.075 44.5811 184.075ZM47.7668 184.075C47.4968 184.075 47.2584 184.025 47.0518 183.925C46.8484 183.822 46.6884 183.675 46.5718 183.485C46.4584 183.292 46.4018 183.065 46.4018 182.805C46.4018 182.548 46.4584 182.323 46.5718 182.13C46.6851 181.937 46.8451 181.788 47.0518 181.685C47.2584 181.578 47.4968 181.525 47.7668 181.525C48.0368 181.525 48.2751 181.578 48.4818 181.685C48.6884 181.788 48.8484 181.937 48.9618 182.13C49.0784 182.323 49.1368 182.548 49.1368 182.805C49.1368 183.065 49.0784 183.292 48.9618 183.485C48.8484 183.675 48.6884 183.822 48.4818 183.925C48.2751 184.025 48.0368 184.075 47.7668 184.075ZM47.7668 183.675C48.0268 183.675 48.2334 183.595 48.3868 183.435C48.5401 183.275 48.6168 183.065 48.6168 182.805C48.6168 182.535 48.5401 182.322 48.3868 182.165C48.2334 182.008 48.0268 181.93 47.7668 181.93C47.5068 181.93 47.3001 182.008 47.1468 182.165C46.9934 182.322 46.9168 182.535 46.9168 182.805C46.9168 183.065 46.9934 183.275 47.1468 183.435C47.3001 183.595 47.5068 183.675 47.7668 183.675ZM50.6854 181.6H51.1654V181.945C51.2787 181.805 51.407 181.7 51.5504 181.63C51.6937 181.56 51.842 181.525 51.9954 181.525C52.1887 181.525 52.342 181.558 52.4554 181.625C52.5687 181.688 52.652 181.787 52.7054 181.92C52.812 181.79 52.942 181.692 53.0954 181.625C53.252 181.558 53.4087 181.525 53.5654 181.525C53.8587 181.525 54.0704 181.6 54.2004 181.75C54.3304 181.897 54.3954 182.115 54.3954 182.405V184H53.9054V182.47C53.9054 182.273 53.8687 182.135 53.7954 182.055C53.722 181.972 53.597 181.93 53.4204 181.93C53.167 181.93 52.9604 182.04 52.8004 182.26C52.807 182.31 52.8104 182.392 52.8104 182.505V184H52.3204V182.47C52.3204 182.273 52.287 182.135 52.2204 182.055C52.1537 181.972 52.0337 181.93 51.8604 181.93C51.607 181.93 51.3804 182.073 51.1804 182.36V184H50.6854V181.6ZM56.808 184.075C56.518 184.075 56.2847 184.002 56.108 183.855C55.9347 183.705 55.848 183.503 55.848 183.25C55.848 182.983 55.9314 182.778 56.098 182.635C56.268 182.488 56.508 182.415 56.818 182.415C57.148 182.415 57.428 182.482 57.658 182.615V182.49C57.658 182.3 57.5997 182.16 57.483 182.07C57.3697 181.977 57.1897 181.93 56.943 181.93C56.7964 181.93 56.653 181.945 56.513 181.975C56.3764 182.002 56.253 182.04 56.143 182.09V181.68C56.243 181.633 56.373 181.597 56.533 181.57C56.693 181.54 56.848 181.525 56.998 181.525C57.3947 181.525 57.688 181.613 57.878 181.79C58.0714 181.963 58.168 182.205 58.168 182.515V184H57.693V183.73C57.5897 183.843 57.4664 183.93 57.323 183.99C57.183 184.047 57.0114 184.075 56.808 184.075ZM56.933 183.69C57.093 183.69 57.238 183.658 57.368 183.595C57.498 183.532 57.5947 183.443 57.658 183.33V183.005C57.4414 182.865 57.1997 182.795 56.933 182.795C56.7397 182.795 56.5947 182.833 56.498 182.91C56.4047 182.983 56.358 183.097 56.358 183.25C56.358 183.543 56.5497 183.69 56.933 183.69ZM60.9621 184.075C60.6954 184.075 60.4587 184.025 60.2521 183.925C60.0454 183.825 59.8837 183.68 59.7671 183.49C59.6537 183.297 59.5971 183.068 59.5971 182.805C59.5971 182.542 59.6537 182.315 59.7671 182.125C59.8837 181.932 60.0454 181.783 60.2521 181.68C60.4621 181.577 60.7021 181.525 60.9721 181.525C61.3387 181.525 61.6321 181.597 61.8521 181.74V182.155C61.6354 182.005 61.3587 181.93 61.0221 181.93C60.7487 181.93 60.5271 182.005 60.3571 182.155C60.1904 182.302 60.1071 182.518 60.1071 182.805C60.1071 183.092 60.1904 183.308 60.3571 183.455C60.5237 183.602 60.7421 183.675 61.0121 183.675C61.3487 183.675 61.6387 183.595 61.8821 183.435V183.845C61.7654 183.925 61.6321 183.983 61.4821 184.02C61.3354 184.057 61.1621 184.075 60.9621 184.075ZM63.4314 180.305H63.9364V181.93C64.1664 181.66 64.4731 181.525 64.8564 181.525C65.1764 181.525 65.4148 181.61 65.5714 181.78C65.7281 181.95 65.8064 182.178 65.8064 182.465V184H65.3014V182.515C65.3014 182.125 65.1148 181.93 64.7414 181.93C64.5814 181.93 64.4314 181.968 64.2914 182.045C64.1548 182.118 64.0364 182.232 63.9364 182.385V184H63.4314V180.305ZM68.3145 184.075C68.1478 184.075 67.9712 184.053 67.7845 184.01C67.5978 183.97 67.4512 183.915 67.3445 183.845V183.415C67.4745 183.492 67.6245 183.555 67.7945 183.605C67.9645 183.652 68.1295 183.675 68.2895 183.675C68.4695 183.675 68.6012 183.653 68.6845 183.61C68.7678 183.567 68.8095 183.497 68.8095 183.4C68.8095 183.327 68.7895 183.268 68.7495 183.225C68.7128 183.178 68.6478 183.137 68.5545 183.1C68.4645 183.063 68.3278 183.02 68.1445 182.97C67.9478 182.913 67.7912 182.857 67.6745 182.8C67.5612 182.74 67.4745 182.665 67.4145 182.575C67.3578 182.485 67.3295 182.368 67.3295 182.225C67.3295 181.995 67.4195 181.822 67.5995 181.705C67.7828 181.585 68.0278 181.525 68.3345 181.525C68.4945 181.525 68.6512 181.54 68.8045 181.57C68.9578 181.6 69.0812 181.642 69.1745 181.695V182.115C69.0778 182.058 68.9578 182.013 68.8145 181.98C68.6745 181.947 68.5312 181.93 68.3845 181.93C68.2078 181.93 68.0728 181.952 67.9795 181.995C67.8862 182.038 67.8395 182.115 67.8395 182.225C67.8395 182.295 67.8595 182.352 67.8995 182.395C67.9395 182.438 68.0028 182.477 68.0895 182.51C68.1795 182.54 68.3212 182.58 68.5145 182.63C68.8178 182.713 69.0278 182.812 69.1445 182.925C69.2645 183.038 69.3245 183.195 69.3245 183.395C69.3245 183.602 69.2395 183.767 69.0695 183.89C68.8995 184.013 68.6478 184.075 68.3145 184.075ZM71.0108 184C70.9441 184 70.8874 183.978 70.8408 183.935C70.7974 183.888 70.7758 183.832 70.7758 183.765C70.7758 183.698 70.7974 183.642 70.8408 183.595C70.8874 183.548 70.9441 183.525 71.0108 183.525C71.0774 183.525 71.1341 183.548 71.1808 183.595C71.2274 183.642 71.2508 183.698 71.2508 183.765C71.2508 183.832 71.2274 183.888 71.1808 183.935C71.1341 183.978 71.0774 184 71.0108 184Z" fill="black"/>
<rect x="12.25" y="143.25" width="125.5" height="46.5" stroke="#6C6C6C" stroke-width="0.5"/>
<path d="M16.77 35.225C15.97 35.225 15.26 35.075 14.64 34.775C14.02 34.475 13.535 34.04 13.185 33.47C12.845 32.89 12.675 32.205 12.675 31.415C12.675 30.625 12.845 29.945 13.185 29.375C13.535 28.795 14.02 28.35 14.64 28.04C15.27 27.73 15.99 27.575 16.8 27.575C17.9 27.575 18.78 27.79 19.44 28.22V29.465C18.79 29.015 17.96 28.79 16.95 28.79C16.13 28.79 15.465 29.015 14.955 29.465C14.455 29.905 14.205 30.555 14.205 31.415C14.205 32.275 14.455 32.925 14.955 33.365C15.455 33.805 16.11 34.025 16.92 34.025C17.93 34.025 18.8 33.785 19.53 33.305V34.535C19.18 34.775 18.78 34.95 18.33 35.06C17.89 35.17 17.37 35.225 16.77 35.225ZM24.1781 23.915H25.6931V28.79C26.3831 27.98 27.3031 27.575 28.4531 27.575C29.4131 27.575 30.1281 27.83 30.5981 28.34C31.0681 28.85 31.3031 29.535 31.3031 30.395V35H29.7881V30.545C29.7881 29.375 29.2281 28.79 28.1081 28.79C27.6281 28.79 27.1781 28.905 26.7581 29.135C26.3481 29.355 25.9931 29.695 25.6931 30.155V35H24.1781V23.915ZM40.1323 35.225C38.8023 35.225 37.7573 34.895 36.9973 34.235C36.2473 33.565 35.8723 32.625 35.8723 31.415C35.8723 30.235 36.2073 29.3 36.8773 28.61C37.5573 27.92 38.5223 27.575 39.7723 27.575C40.6023 27.575 41.3073 27.735 41.8873 28.055C42.4673 28.365 42.9023 28.8 43.1923 29.36C43.4923 29.91 43.6423 30.54 43.6423 31.25V32H37.3123C37.3623 32.68 37.6473 33.19 38.1673 33.53C38.6973 33.86 39.4123 34.025 40.3123 34.025C40.7723 34.025 41.2373 33.985 41.7073 33.905C42.1773 33.815 42.5923 33.7 42.9523 33.56V34.775C42.6323 34.905 42.2073 35.01 41.6773 35.09C41.1573 35.18 40.6423 35.225 40.1323 35.225ZM42.2173 30.935C42.1973 30.255 41.9723 29.73 41.5423 29.36C41.1223 28.98 40.5223 28.79 39.7423 28.79C38.9823 28.79 38.3923 28.985 37.9723 29.375C37.5523 29.765 37.3323 30.285 37.3123 30.935H42.2173ZM48.7932 28.97H47.6982V27.8H48.7932V26.39C48.7932 25.56 49.0282 24.93 49.4982 24.5C49.9682 24.06 50.5982 23.84 51.3882 23.84C51.7982 23.84 52.1832 23.9 52.5432 24.02V25.28C52.2632 25.15 51.9732 25.085 51.6732 25.085C51.2032 25.085 50.8582 25.2 50.6382 25.43C50.4182 25.65 50.3082 26 50.3082 26.48V27.8H52.1082V28.97H50.3082V35H48.7932V28.97ZM64.8381 27.8H66.3831L68.0031 33.14L69.6081 27.8H70.9731L72.5781 33.14L74.1981 27.8H75.7581L73.4181 35H71.9631L70.2981 29.63L68.6331 35H67.1631L64.8381 27.8ZM82.1732 35.225C81.3032 35.225 80.6032 35.005 80.0732 34.565C79.5532 34.115 79.2932 33.51 79.2932 32.75C79.2932 31.95 79.5432 31.335 80.0432 30.905C80.5532 30.465 81.2732 30.245 82.2032 30.245C83.1932 30.245 84.0332 30.445 84.7232 30.845V30.47C84.7232 29.9 84.5482 29.48 84.1982 29.21C83.8582 28.93 83.3182 28.79 82.5782 28.79C82.1382 28.79 81.7082 28.835 81.2882 28.925C80.8782 29.005 80.5082 29.12 80.1782 29.27V28.04C80.4782 27.9 80.8682 27.79 81.3482 27.71C81.8282 27.62 82.2932 27.575 82.7432 27.575C83.9332 27.575 84.8132 27.84 85.3832 28.37C85.9632 28.89 86.2532 29.615 86.2532 30.545V35H84.8282V34.19C84.5182 34.53 84.1482 34.79 83.7182 34.97C83.2982 35.14 82.7832 35.225 82.1732 35.225ZM82.5482 34.07C83.0282 34.07 83.4632 33.975 83.8532 33.785C84.2432 33.595 84.5332 33.33 84.7232 32.99V32.015C84.0732 31.595 83.3482 31.385 82.5482 31.385C81.9682 31.385 81.5332 31.5 81.2432 31.73C80.9632 31.95 80.8232 32.29 80.8232 32.75C80.8232 33.63 81.3982 34.07 82.5482 34.07ZM93.5273 35.225C92.7973 35.225 92.2323 35.015 91.8323 34.595C91.4423 34.175 91.2473 33.58 91.2473 32.81V28.97H90.1523V27.8H91.2473V25.64H92.7773V27.8H94.5473V28.97H92.7773V32.705C92.7773 33.185 92.8673 33.525 93.0473 33.725C93.2373 33.925 93.5773 34.025 94.0673 34.025C94.3573 34.025 94.6473 33.96 94.9373 33.83V35.03C94.5573 35.16 94.0873 35.225 93.5273 35.225ZM103.323 35.225C101.993 35.225 100.948 34.895 100.188 34.235C99.4377 33.565 99.0627 32.625 99.0627 31.415C99.0627 30.235 99.3977 29.3 100.068 28.61C100.748 27.92 101.713 27.575 102.963 27.575C103.793 27.575 104.498 27.735 105.078 28.055C105.658 28.365 106.093 28.8 106.383 29.36C106.683 29.91 106.833 30.54 106.833 31.25V32H100.503C100.553 32.68 100.838 33.19 101.358 33.53C101.888 33.86 102.603 34.025 103.503 34.025C103.963 34.025 104.428 33.985 104.898 33.905C105.368 33.815 105.783 33.7 106.143 33.56V34.775C105.823 34.905 105.398 35.01 104.868 35.09C104.348 35.18 103.833 35.225 103.323 35.225ZM105.408 30.935C105.388 30.255 105.163 29.73 104.733 29.36C104.313 28.98 103.713 28.79 102.933 28.79C102.173 28.79 101.583 28.985 101.163 29.375C100.743 29.765 100.523 30.285 100.503 30.935H105.408ZM111.489 27.8H112.959V29.09C113.259 28.65 113.679 28.325 114.219 28.115C114.769 27.905 115.404 27.8 116.124 27.8V28.985C115.354 28.985 114.694 29.11 114.144 29.36C113.594 29.61 113.214 30.005 113.004 30.545V35H111.489V27.8Z" fill="black"/>
<path d="M12.8691 19.0381L17.1807 17.1875V16.4746L12.8691 14.6289V15.5615L16.0283 16.7334L16.3213 16.8262L16.0283 16.9092L12.8691 18.1006V19.0381ZM20.875 19.0381L25.1865 17.1875V16.4746L20.875 14.6289V15.5615L24.0342 16.7334L24.3271 16.8262L24.0342 16.9092L20.875 18.1006V19.0381ZM37.375 20H38.0879L38.9033 16.7627L39.0352 15.9424L39.1719 16.7627L39.9971 20H40.71L41.833 14.7168H41.0322L40.4463 18.0859L40.3145 18.916L40.1729 18.0859L39.333 14.7168H38.752L37.9072 18.0859L37.7754 18.8428L37.668 18.0859L37.0527 14.7168H36.252L37.375 20ZM48.3447 20H49.2871V19.9219C49.2285 19.7754 49.1829 19.6045 49.1504 19.4092C49.1178 19.2106 49.1016 19.0234 49.1016 18.8477V16.3916C49.1016 16.0954 49.0479 15.8366 48.9404 15.6152C48.833 15.3939 48.6865 15.2083 48.501 15.0586C48.3122 14.9121 48.0892 14.8031 47.832 14.7314C47.5749 14.6566 47.2965 14.6191 46.9971 14.6191C46.6683 14.6191 46.3737 14.6647 46.1133 14.7559C45.8561 14.847 45.638 14.9658 45.459 15.1123C45.2767 15.262 45.1367 15.4297 45.0391 15.6152C44.9447 15.8008 44.8958 15.9896 44.8926 16.1816H45.8008C45.8008 16.071 45.8268 15.9652 45.8789 15.8643C45.9342 15.7601 46.0107 15.6706 46.1084 15.5957C46.2061 15.5208 46.3249 15.4606 46.4648 15.415C46.6081 15.3695 46.7692 15.3467 46.9482 15.3467C47.1403 15.3467 47.3128 15.3711 47.4658 15.4199C47.6221 15.4688 47.7539 15.5371 47.8613 15.625C47.9688 15.7161 48.0518 15.8252 48.1104 15.9521C48.1689 16.0791 48.1982 16.2223 48.1982 16.3818V16.7969H47.2119C46.8441 16.7969 46.5104 16.8327 46.2109 16.9043C45.9147 16.9759 45.6608 17.0833 45.4492 17.2266C45.2376 17.373 45.0732 17.5553 44.9561 17.7734C44.8421 17.9915 44.7852 18.2454 44.7852 18.5352C44.7852 18.7565 44.8275 18.9632 44.9121 19.1553C45 19.3441 45.1237 19.5068 45.2832 19.6436C45.4395 19.7835 45.6299 19.8942 45.8545 19.9756C46.0824 20.057 46.3363 20.0977 46.6162 20.0977C46.7887 20.0977 46.9515 20.0798 47.1045 20.0439C47.2575 20.0081 47.4023 19.9593 47.5391 19.8975C47.6725 19.8356 47.7946 19.764 47.9053 19.6826C48.0192 19.6012 48.1217 19.515 48.2129 19.4238C48.2227 19.5345 48.2373 19.6419 48.2568 19.7461C48.2796 19.847 48.3089 19.9316 48.3447 20ZM46.748 19.3115C46.5723 19.3115 46.4176 19.2887 46.2842 19.2432C46.1507 19.1976 46.04 19.1341 45.9521 19.0527C45.8643 18.9746 45.7975 18.8802 45.752 18.7695C45.7096 18.6589 45.6885 18.5384 45.6885 18.4082C45.6885 18.2715 45.7129 18.1494 45.7617 18.042C45.8138 17.9346 45.8887 17.8418 45.9863 17.7637C46.123 17.653 46.307 17.5716 46.5381 17.5195C46.7725 17.4642 47.0459 17.4365 47.3584 17.4365H48.1982V18.5059C48.1462 18.61 48.0745 18.7109 47.9834 18.8086C47.8923 18.903 47.7848 18.9876 47.6611 19.0625C47.5342 19.1374 47.3942 19.1976 47.2412 19.2432C47.0882 19.2887 46.9238 19.3115 46.748 19.3115ZM55.0176 13.4375H54.1094V14.7168H52.7227V15.415H54.1094V18.2861C54.1094 18.6117 54.1517 18.89 54.2363 19.1211C54.3242 19.349 54.443 19.5345 54.5928 19.6777C54.7425 19.8242 54.9183 19.9316 55.1201 20C55.3252 20.0651 55.5449 20.0977 55.7793 20.0977C55.9193 20.0977 56.0592 20.0911 56.1992 20.0781C56.3424 20.0651 56.4775 20.0456 56.6045 20.0195C56.7314 19.9967 56.8486 19.9691 56.9561 19.9365C57.0635 19.9007 57.1546 19.86 57.2295 19.8145L57.1025 19.1748C57.0472 19.1878 56.9756 19.2041 56.8877 19.2236C56.8031 19.2399 56.7119 19.2562 56.6143 19.2725C56.5133 19.2887 56.4108 19.3034 56.3066 19.3164C56.2025 19.3262 56.1016 19.3311 56.0039 19.3311C55.8704 19.3311 55.7435 19.3148 55.623 19.2822C55.5059 19.2497 55.4017 19.1927 55.3105 19.1113C55.2194 19.0332 55.1478 18.9274 55.0957 18.7939C55.0436 18.6605 55.0176 18.4912 55.0176 18.2861V15.415H57.0293V14.7168H55.0176V13.4375ZM63.2188 20.0977C63.7331 20.0977 64.1644 19.9951 64.5127 19.79C64.8643 19.5817 65.1279 19.3441 65.3037 19.0771L64.752 18.6475C64.5859 18.8623 64.3776 19.0348 64.127 19.165C63.8763 19.2952 63.5898 19.3604 63.2676 19.3604C63.0234 19.3604 62.8005 19.3148 62.5986 19.2236C62.3968 19.1325 62.2243 19.0072 62.0811 18.8477C61.9411 18.6979 61.8304 18.5254 61.749 18.3301C61.6709 18.1348 61.6204 17.9085 61.5977 17.6514V17.6172H65.3721V17.2119C65.3721 16.8441 65.3249 16.5023 65.2305 16.1865C65.1393 15.8708 64.9993 15.5957 64.8105 15.3613C64.6217 15.1302 64.3841 14.9495 64.0977 14.8193C63.8145 14.6859 63.4824 14.6191 63.1016 14.6191C62.7988 14.6191 62.5026 14.681 62.2129 14.8047C61.9264 14.9284 61.6709 15.1058 61.4463 15.3369C61.2184 15.5713 61.0361 15.8577 60.8994 16.1963C60.7627 16.5316 60.6943 16.9124 60.6943 17.3389V17.5439C60.6943 17.9118 60.7562 18.252 60.8799 18.5645C61.0036 18.877 61.1761 19.1471 61.3975 19.375C61.6188 19.6029 61.8841 19.7803 62.1934 19.9072C62.5059 20.0342 62.8477 20.0977 63.2188 20.0977ZM63.1016 15.3613C63.3327 15.3613 63.5312 15.4036 63.6973 15.4883C63.8665 15.5729 64.0065 15.6836 64.1172 15.8203C64.2279 15.957 64.3141 16.1198 64.376 16.3086C64.4378 16.4941 64.4688 16.6683 64.4688 16.8311V16.875H61.627C61.6628 16.6309 61.7246 16.416 61.8125 16.2305C61.9036 16.0417 62.0143 15.8822 62.1445 15.752C62.2747 15.625 62.4212 15.529 62.584 15.4639C62.7467 15.3955 62.9193 15.3613 63.1016 15.3613ZM72.3525 14.6191C71.9684 14.6191 71.625 14.7038 71.3223 14.873C71.0228 15.0391 70.7656 15.2669 70.5508 15.5566L70.5459 15.4248L70.5068 14.7168H69.6475V20H70.5557V16.6113C70.6143 16.4486 70.6875 16.3021 70.7754 16.1719C70.8665 16.0384 70.9723 15.9261 71.0928 15.835C71.2262 15.7308 71.3825 15.6527 71.5615 15.6006C71.7406 15.5452 71.9408 15.5176 72.1621 15.5176C72.3346 15.5176 72.499 15.5273 72.6553 15.5469C72.8148 15.5632 72.9824 15.5908 73.1582 15.6299L73.2803 14.7461C73.1891 14.707 73.0524 14.6761 72.8701 14.6533C72.6911 14.6305 72.5186 14.6191 72.3525 14.6191Z" fill="#707070"/>
<path d="M94.7073 87.4762L85.9268 75.9524L77.1463 55L65.0732 71.7619L53 86.4286V106.333L66.1707 121L83.7317 118.905L98 105.286L94.7073 87.4762Z" fill="#0068C8"/>
<path d="M68 97L69.5 85H71V97H68Z" fill="#D9D9D9"/>
<path d="M80 97L78.5 85H77V97H80Z" fill="#D9D9D9"/>
<path d="M92.3883 83.3742L56.1679 71.4963L58.4369 66.3873L93.9214 77.0576L92.3883 83.3742Z" fill="#C4C4C4"/>
<path d="M61.4747 49.631L60.3663 64.7975L93.7893 75.4819L98.9169 62.8345L95.959 55.9424L86.3732 55.1595L82.3398 50.5789L74.0938 50.6357L69.9424 46.541L61.4747 49.631Z" fill="#C4C4C4"/>
</svg>
