<svg width="150" height="200" viewBox="0 0 150 200" fill="none" xmlns="http://www.w3.org/2000/svg">
<rect width="150" height="200" fill="white"/>
<path d="M18.21 148.935H17.125V148.505H19.81V148.935H18.725V152H18.21V148.935ZM21.2596 148.305H21.7646V149.93C21.9946 149.66 22.3012 149.525 22.6846 149.525C23.0046 149.525 23.2429 149.61 23.3996 149.78C23.5562 149.95 23.6346 150.178 23.6346 150.465V152H23.1296V150.515C23.1296 150.125 22.9429 149.93 22.5696 149.93C22.4096 149.93 22.2596 149.968 22.1196 150.045C21.9829 150.118 21.8646 150.232 21.7646 150.385V152H21.2596V148.305ZM25.5526 149.13C25.4693 149.13 25.3993 149.102 25.3426 149.045C25.286 148.988 25.2576 148.918 25.2576 148.835C25.2576 148.752 25.286 148.682 25.3426 148.625C25.3993 148.568 25.4693 148.54 25.5526 148.54C25.6393 148.54 25.711 148.568 25.7676 148.625C25.8276 148.682 25.8576 148.752 25.8576 148.835C25.8576 148.918 25.8276 148.988 25.7676 149.045C25.711 149.102 25.6393 149.13 25.5526 149.13ZM25.2976 149.6H25.8126V152H25.2976V149.6ZM28.3926 152.075C28.226 152.075 28.0493 152.053 27.8626 152.01C27.676 151.97 27.5293 151.915 27.4226 151.845V151.415C27.5526 151.492 27.7026 151.555 27.8726 151.605C28.0426 151.652 28.2076 151.675 28.3676 151.675C28.5476 151.675 28.6793 151.653 28.7626 151.61C28.846 151.567 28.8876 151.497 28.8876 151.4C28.8876 151.327 28.8676 151.268 28.8276 151.225C28.791 151.178 28.726 151.137 28.6326 151.1C28.5426 151.063 28.406 151.02 28.2226 150.97C28.026 150.913 27.8693 150.857 27.7526 150.8C27.6393 150.74 27.5526 150.665 27.4926 150.575C27.436 150.485 27.4076 150.368 27.4076 150.225C27.4076 149.995 27.4976 149.822 27.6776 149.705C27.861 149.585 28.106 149.525 28.4126 149.525C28.5726 149.525 28.7293 149.54 28.8826 149.57C29.036 149.6 29.1593 149.642 29.2526 149.695V150.115C29.156 150.058 29.036 150.013 28.8926 149.98C28.7526 149.947 28.6093 149.93 28.4626 149.93C28.286 149.93 28.151 149.952 28.0576 149.995C27.9643 150.038 27.9176 150.115 27.9176 150.225C27.9176 150.295 27.9376 150.352 27.9776 150.395C28.0176 150.438 28.081 150.477 28.1676 150.51C28.2576 150.54 28.3993 150.58 28.5926 150.63C28.896 150.713 29.106 150.812 29.2226 150.925C29.3426 151.038 29.4026 151.195 29.4026 151.395C29.4026 151.602 29.3176 151.767 29.1476 151.89C28.9776 152.013 28.726 152.075 28.3926 152.075ZM33.7045 149.6H34.2195L34.7595 151.38L35.2945 149.6H35.7495L36.2845 151.38L36.8245 149.6H37.3445L36.5645 152H36.0795L35.5245 150.21L34.9695 152H34.4795L33.7045 149.6ZM39.4829 152.075C39.1929 152.075 38.9595 152.002 38.7829 151.855C38.6095 151.705 38.5229 151.503 38.5229 151.25C38.5229 150.983 38.6062 150.778 38.7729 150.635C38.9429 150.488 39.1829 150.415 39.4929 150.415C39.8229 150.415 40.1029 150.482 40.3329 150.615V150.49C40.3329 150.3 40.2745 150.16 40.1579 150.07C40.0445 149.977 39.8645 149.93 39.6179 149.93C39.4712 149.93 39.3279 149.945 39.1879 149.975C39.0512 150.002 38.9279 150.04 38.8179 150.09V149.68C38.9179 149.633 39.0479 149.597 39.2079 149.57C39.3679 149.54 39.5229 149.525 39.6729 149.525C40.0695 149.525 40.3629 149.613 40.5529 149.79C40.7462 149.963 40.8429 150.205 40.8429 150.515V152H40.3679V151.73C40.2645 151.843 40.1412 151.93 39.9979 151.99C39.8579 152.047 39.6862 152.075 39.4829 152.075ZM39.6079 151.69C39.7679 151.69 39.9129 151.658 40.0429 151.595C40.1729 151.532 40.2695 151.443 40.3329 151.33V151.005C40.1162 150.865 39.8745 150.795 39.6079 150.795C39.4145 150.795 39.2695 150.833 39.1729 150.91C39.0795 150.983 39.0329 151.097 39.0329 151.25C39.0329 151.543 39.2245 151.69 39.6079 151.69ZM43.2676 152.075C43.0242 152.075 42.8359 152.005 42.7026 151.865C42.5726 151.725 42.5076 151.527 42.5076 151.27V149.99H42.1426V149.6H42.5076V148.88H43.0176V149.6H43.6076V149.99H43.0176V151.235C43.0176 151.395 43.0476 151.508 43.1076 151.575C43.1709 151.642 43.2842 151.675 43.4476 151.675C43.5442 151.675 43.6409 151.653 43.7376 151.61V152.01C43.6109 152.053 43.4542 152.075 43.2676 152.075ZM46.5327 152.075C46.0894 152.075 45.741 151.965 45.4877 151.745C45.2377 151.522 45.1127 151.208 45.1127 150.805C45.1127 150.412 45.2244 150.1 45.4477 149.87C45.6744 149.64 45.996 149.525 46.4127 149.525C46.6894 149.525 46.9244 149.578 47.1177 149.685C47.311 149.788 47.456 149.933 47.5527 150.12C47.6527 150.303 47.7027 150.513 47.7027 150.75V151H45.5927C45.6094 151.227 45.7044 151.397 45.8777 151.51C46.0544 151.62 46.2927 151.675 46.5927 151.675C46.746 151.675 46.901 151.662 47.0577 151.635C47.2144 151.605 47.3527 151.567 47.4727 151.52V151.925C47.366 151.968 47.2244 152.003 47.0477 152.03C46.8744 152.06 46.7027 152.075 46.5327 152.075ZM47.2277 150.645C47.221 150.418 47.146 150.243 47.0027 150.12C46.8627 149.993 46.6627 149.93 46.4027 149.93C46.1494 149.93 45.9527 149.995 45.8127 150.125C45.6727 150.255 45.5994 150.428 45.5927 150.645H47.2277ZM49.2547 149.6H49.7447V150.03C49.8447 149.883 49.9847 149.775 50.1647 149.705C50.348 149.635 50.5597 149.6 50.7997 149.6V149.995C50.543 149.995 50.323 150.037 50.1397 150.12C49.9564 150.203 49.8297 150.335 49.7597 150.515V152H49.2547V149.6ZM55.9873 152.075C55.8207 152.075 55.644 152.053 55.4573 152.01C55.2707 151.97 55.124 151.915 55.0173 151.845V151.415C55.1473 151.492 55.2973 151.555 55.4673 151.605C55.6373 151.652 55.8023 151.675 55.9623 151.675C56.1423 151.675 56.274 151.653 56.3573 151.61C56.4407 151.567 56.4823 151.497 56.4823 151.4C56.4823 151.327 56.4623 151.268 56.4223 151.225C56.3857 151.178 56.3207 151.137 56.2273 151.1C56.1373 151.063 56.0007 151.02 55.8173 150.97C55.6207 150.913 55.464 150.857 55.3473 150.8C55.234 150.74 55.1473 150.665 55.0873 150.575C55.0307 150.485 55.0023 150.368 55.0023 150.225C55.0023 149.995 55.0923 149.822 55.2723 149.705C55.4557 149.585 55.7007 149.525 56.0073 149.525C56.1673 149.525 56.324 149.54 56.4773 149.57C56.6307 149.6 56.754 149.642 56.8473 149.695V150.115C56.7507 150.058 56.6307 150.013 56.4873 149.98C56.3473 149.947 56.204 149.93 56.0573 149.93C55.8807 149.93 55.7457 149.952 55.6523 149.995C55.559 150.038 55.5123 150.115 55.5123 150.225C55.5123 150.295 55.5323 150.352 55.5723 150.395C55.6123 150.438 55.6757 150.477 55.7623 150.51C55.8523 150.54 55.994 150.58 56.1873 150.63C56.4907 150.713 56.7007 150.812 56.8173 150.925C56.9373 151.038 56.9973 151.195 56.9973 151.395C56.9973 151.602 56.9123 151.767 56.7423 151.89C56.5723 152.013 56.3207 152.075 55.9873 152.075ZM58.5486 149.6H59.0386V149.955C59.2853 149.668 59.6186 149.525 60.0386 149.525C60.2786 149.525 60.4936 149.578 60.6836 149.685C60.877 149.792 61.027 149.942 61.1336 150.135C61.2436 150.325 61.2986 150.547 61.2986 150.8C61.2986 151.05 61.2436 151.272 61.1336 151.465C61.027 151.658 60.8786 151.808 60.6886 151.915C60.4986 152.022 60.282 152.075 60.0386 152.075C59.8386 152.075 59.652 152.042 59.4786 151.975C59.3053 151.908 59.1636 151.81 59.0536 151.68V153.095H58.5486V149.6ZM59.9236 151.675C60.087 151.675 60.2336 151.64 60.3636 151.57C60.497 151.497 60.6003 151.393 60.6736 151.26C60.7503 151.127 60.7886 150.973 60.7886 150.8C60.7886 150.627 60.7503 150.475 60.6736 150.345C60.6003 150.212 60.497 150.11 60.3636 150.04C60.2336 149.967 60.087 149.93 59.9236 149.93C59.7203 149.93 59.5403 149.983 59.3836 150.09C59.2303 150.197 59.1203 150.343 59.0536 150.53V151.07C59.1103 151.253 59.2186 151.4 59.3786 151.51C59.5386 151.62 59.7203 151.675 59.9236 151.675ZM64.1694 152.075C63.7261 152.075 63.3777 151.965 63.1244 151.745C62.8744 151.522 62.7494 151.208 62.7494 150.805C62.7494 150.412 62.8611 150.1 63.0844 149.87C63.3111 149.64 63.6327 149.525 64.0494 149.525C64.3261 149.525 64.5611 149.578 64.7544 149.685C64.9477 149.788 65.0927 149.933 65.1894 150.12C65.2894 150.303 65.3394 150.513 65.3394 150.75V151H63.2294C63.2461 151.227 63.3411 151.397 63.5144 151.51C63.6911 151.62 63.9294 151.675 64.2294 151.675C64.3827 151.675 64.5377 151.662 64.6944 151.635C64.8511 151.605 64.9894 151.567 65.1094 151.52V151.925C65.0027 151.968 64.8611 152.003 64.6844 152.03C64.5111 152.06 64.3394 152.075 64.1694 152.075ZM64.8644 150.645C64.8577 150.418 64.7827 150.243 64.6394 150.12C64.4994 149.993 64.2994 149.93 64.0394 149.93C63.7861 149.93 63.5894 149.995 63.4494 150.125C63.3094 150.255 63.2361 150.428 63.2294 150.645H64.8644ZM67.7514 152.075C67.4614 152.075 67.2281 152.002 67.0514 151.855C66.8781 151.705 66.7914 151.503 66.7914 151.25C66.7914 150.983 66.8747 150.778 67.0414 150.635C67.2114 150.488 67.4514 150.415 67.7614 150.415C68.0914 150.415 68.3714 150.482 68.6014 150.615V150.49C68.6014 150.3 68.5431 150.16 68.4264 150.07C68.3131 149.977 68.1331 149.93 67.8864 149.93C67.7397 149.93 67.5964 149.945 67.4564 149.975C67.3197 150.002 67.1964 150.04 67.0864 150.09V149.68C67.1864 149.633 67.3164 149.597 67.4764 149.57C67.6364 149.54 67.7914 149.525 67.9414 149.525C68.3381 149.525 68.6314 149.613 68.8214 149.79C69.0147 149.963 69.1114 150.205 69.1114 150.515V152H68.6364V151.73C68.5331 151.843 68.4097 151.93 68.2664 151.99C68.1264 152.047 67.9547 152.075 67.7514 152.075ZM67.8764 151.69C68.0364 151.69 68.1814 151.658 68.3114 151.595C68.4414 151.532 68.5381 151.443 68.6014 151.33V151.005C68.3847 150.865 68.1431 150.795 67.8764 150.795C67.6831 150.795 67.5381 150.833 67.4414 150.91C67.3481 150.983 67.3014 151.097 67.3014 151.25C67.3014 151.543 67.4931 151.69 67.8764 151.69ZM70.7381 148.305H71.2431V152H70.7381V148.305ZM71.2481 150.785L72.3531 149.6H72.9681L71.8581 150.785L73.0831 152H72.4681L71.2481 150.785ZM75.294 152.075C75.1273 152.075 74.9507 152.053 74.764 152.01C74.5773 151.97 74.4307 151.915 74.324 151.845V151.415C74.454 151.492 74.604 151.555 74.774 151.605C74.944 151.652 75.109 151.675 75.269 151.675C75.449 151.675 75.5807 151.653 75.664 151.61C75.7473 151.567 75.789 151.497 75.789 151.4C75.789 151.327 75.769 151.268 75.729 151.225C75.6923 151.178 75.6273 151.137 75.534 151.1C75.444 151.063 75.3073 151.02 75.124 150.97C74.9273 150.913 74.7707 150.857 74.654 150.8C74.5407 150.74 74.454 150.665 74.394 150.575C74.3373 150.485 74.309 150.368 74.309 150.225C74.309 149.995 74.399 149.822 74.579 149.705C74.7623 149.585 75.0073 149.525 75.314 149.525C75.474 149.525 75.6307 149.54 75.784 149.57C75.9373 149.6 76.0607 149.642 76.154 149.695V150.115C76.0573 150.058 75.9373 150.013 75.794 149.98C75.654 149.947 75.5107 149.93 75.364 149.93C75.1873 149.93 75.0523 149.952 74.959 149.995C74.8657 150.038 74.819 150.115 74.819 150.225C74.819 150.295 74.839 150.352 74.879 150.395C74.919 150.438 74.9823 150.477 75.069 150.51C75.159 150.54 75.3007 150.58 75.494 150.63C75.7973 150.713 76.0073 150.812 76.124 150.925C76.244 151.038 76.304 151.195 76.304 151.395C76.304 151.602 76.219 151.767 76.049 151.89C75.879 152.013 75.6273 152.075 75.294 152.075ZM81.0009 149.13C80.9175 149.13 80.8475 149.102 80.7909 149.045C80.7342 148.988 80.7059 148.918 80.7059 148.835C80.7059 148.752 80.7342 148.682 80.7909 148.625C80.8475 148.568 80.9175 148.54 81.0009 148.54C81.0875 148.54 81.1592 148.568 81.2159 148.625C81.2759 148.682 81.3059 148.752 81.3059 148.835C81.3059 148.918 81.2759 148.988 81.2159 149.045C81.1592 149.102 81.0875 149.13 81.0009 149.13ZM80.7459 149.6H81.2609V152H80.7459V149.6ZM82.9559 149.6H83.4459V149.945C83.5592 149.802 83.6975 149.697 83.8609 149.63C84.0275 149.56 84.2009 149.525 84.3809 149.525C84.7009 149.525 84.9392 149.61 85.0959 149.78C85.2525 149.95 85.3309 150.178 85.3309 150.465V152H84.8259V150.515C84.8259 150.125 84.6392 149.93 84.2659 149.93C84.1059 149.93 83.9559 149.968 83.8159 150.045C83.6792 150.118 83.5609 150.232 83.4609 150.385V152H82.9559V149.6ZM90.7295 152.075C90.4862 152.075 90.2978 152.005 90.1645 151.865C90.0345 151.725 89.9695 151.527 89.9695 151.27V149.99H89.6045V149.6H89.9695V148.88H90.4795V149.6H91.0695V149.99H90.4795V151.235C90.4795 151.395 90.5095 151.508 90.5695 151.575C90.6328 151.642 90.7462 151.675 90.9095 151.675C91.0062 151.675 91.1028 151.653 91.1995 151.61V152.01C91.0728 152.053 90.9162 152.075 90.7295 152.075ZM92.6746 148.305H93.1796V149.93C93.4096 149.66 93.7163 149.525 94.0996 149.525C94.4196 149.525 94.6579 149.61 94.8146 149.78C94.9713 149.95 95.0496 150.178 95.0496 150.465V152H94.5446V150.515C94.5446 150.125 94.3579 149.93 93.9846 149.93C93.8246 149.93 93.6746 149.968 93.5346 150.045C93.3979 150.118 93.2796 150.232 93.1796 150.385V152H92.6746V148.305ZM97.9927 152.075C97.5493 152.075 97.201 151.965 96.9477 151.745C96.6977 151.522 96.5727 151.208 96.5727 150.805C96.5727 150.412 96.6843 150.1 96.9077 149.87C97.1343 149.64 97.456 149.525 97.8727 149.525C98.1493 149.525 98.3843 149.578 98.5777 149.685C98.771 149.788 98.916 149.933 99.0127 150.12C99.1127 150.303 99.1627 150.513 99.1627 150.75V151H97.0527C97.0693 151.227 97.1643 151.397 97.3377 151.51C97.5143 151.62 97.7527 151.675 98.0527 151.675C98.206 151.675 98.361 151.662 98.5177 151.635C98.6743 151.605 98.8127 151.567 98.9327 151.52V151.925C98.826 151.968 98.6843 152.003 98.5077 152.03C98.3343 152.06 98.1627 152.075 97.9927 152.075ZM98.6877 150.645C98.681 150.418 98.606 150.243 98.4627 150.12C98.3227 149.993 98.1227 149.93 97.8627 149.93C97.6093 149.93 97.4127 149.995 97.2727 150.125C97.1327 150.255 97.0593 150.428 97.0527 150.645H98.6877ZM18.59 160.075C18.3233 160.075 18.0867 160.025 17.88 159.925C17.6733 159.825 17.5117 159.68 17.395 159.49C17.2817 159.297 17.225 159.068 17.225 158.805C17.225 158.542 17.2817 158.315 17.395 158.125C17.5117 157.932 17.6733 157.783 17.88 157.68C18.09 157.577 18.33 157.525 18.6 157.525C18.9667 157.525 19.26 157.597 19.48 157.74V158.155C19.2633 158.005 18.9867 157.93 18.65 157.93C18.3767 157.93 18.155 158.005 17.985 158.155C17.8183 158.302 17.735 158.518 17.735 158.805C17.735 159.092 17.8183 159.308 17.985 159.455C18.1517 159.602 18.37 159.675 18.64 159.675C18.9767 159.675 19.2667 159.595 19.51 159.435V159.845C19.3933 159.925 19.26 159.983 19.11 160.02C18.9633 160.057 18.79 160.075 18.59 160.075ZM22.2511 160.075C21.9811 160.075 21.7428 160.025 21.5361 159.925C21.3328 159.822 21.1728 159.675 21.0561 159.485C20.9428 159.292 20.8861 159.065 20.8861 158.805C20.8861 158.548 20.9428 158.323 21.0561 158.13C21.1695 157.937 21.3295 157.788 21.5361 157.685C21.7428 157.578 21.9811 157.525 22.2511 157.525C22.5211 157.525 22.7595 157.578 22.9661 157.685C23.1728 157.788 23.3328 157.937 23.4461 158.13C23.5628 158.323 23.6211 158.548 23.6211 158.805C23.6211 159.065 23.5628 159.292 23.4461 159.485C23.3328 159.675 23.1728 159.822 22.9661 159.925C22.7595 160.025 22.5211 160.075 22.2511 160.075ZM22.2511 159.675C22.5111 159.675 22.7178 159.595 22.8711 159.435C23.0245 159.275 23.1011 159.065 23.1011 158.805C23.1011 158.535 23.0245 158.322 22.8711 158.165C22.7178 158.008 22.5111 157.93 22.2511 157.93C21.9911 157.93 21.7845 158.008 21.6311 158.165C21.4778 158.322 21.4011 158.535 21.4011 158.805C21.4011 159.065 21.4778 159.275 21.6311 159.435C21.7845 159.595 21.9911 159.675 22.2511 159.675ZM25.1697 157.6H25.6597V157.945C25.7731 157.802 25.9114 157.697 26.0747 157.63C26.2414 157.56 26.4147 157.525 26.5947 157.525C26.9147 157.525 27.1531 157.61 27.3097 157.78C27.4664 157.95 27.5447 158.178 27.5447 158.465V160H27.0397V158.515C27.0397 158.125 26.8531 157.93 26.4797 157.93C26.3197 157.93 26.1697 157.968 26.0297 158.045C25.8931 158.118 25.7747 158.232 25.6747 158.385V160H25.1697V157.6ZM29.3328 157.99H28.9678V157.6H29.3328V157.13C29.3328 156.853 29.4111 156.643 29.5678 156.5C29.7244 156.353 29.9344 156.28 30.1978 156.28C30.3344 156.28 30.4628 156.3 30.5828 156.34V156.76C30.4894 156.717 30.3928 156.695 30.2928 156.695C30.1361 156.695 30.0211 156.733 29.9478 156.81C29.8744 156.883 29.8378 157 29.8378 157.16V157.6H30.4378V157.99H29.8378V160H29.3328V157.99ZM32.612 160.075C32.2887 160.075 32.0437 159.988 31.877 159.815C31.7137 159.642 31.632 159.41 31.632 159.12V157.6H32.137V159.1C32.137 159.483 32.3287 159.675 32.712 159.675C33.0487 159.675 33.312 159.523 33.502 159.22V157.6H34.007V160H33.517V159.66C33.4037 159.803 33.2687 159.908 33.112 159.975C32.9587 160.042 32.792 160.075 32.612 160.075ZM36.5401 160.075C36.3734 160.075 36.1967 160.053 36.0101 160.01C35.8234 159.97 35.6767 159.915 35.5701 159.845V159.415C35.7001 159.492 35.8501 159.555 36.0201 159.605C36.1901 159.652 36.3551 159.675 36.5151 159.675C36.6951 159.675 36.8267 159.653 36.9101 159.61C36.9934 159.567 37.0351 159.497 37.0351 159.4C37.0351 159.327 37.0151 159.268 36.9751 159.225C36.9384 159.178 36.8734 159.137 36.7801 159.1C36.6901 159.063 36.5534 159.02 36.3701 158.97C36.1734 158.913 36.0167 158.857 35.9001 158.8C35.7867 158.74 35.7001 158.665 35.6401 158.575C35.5834 158.485 35.5551 158.368 35.5551 158.225C35.5551 157.995 35.6451 157.822 35.8251 157.705C36.0084 157.585 36.2534 157.525 36.5601 157.525C36.7201 157.525 36.8767 157.54 37.0301 157.57C37.1834 157.6 37.3067 157.642 37.4001 157.695V158.115C37.3034 158.058 37.1834 158.013 37.0401 157.98C36.9001 157.947 36.7567 157.93 36.6101 157.93C36.4334 157.93 36.2984 157.952 36.2051 157.995C36.1117 158.038 36.0651 158.115 36.0651 158.225C36.0651 158.295 36.0851 158.352 36.1251 158.395C36.1651 158.438 36.2284 158.477 36.3151 158.51C36.4051 158.54 36.5467 158.58 36.7401 158.63C37.0434 158.713 37.2534 158.812 37.3701 158.925C37.4901 159.038 37.5501 159.195 37.5501 159.395C37.5501 159.602 37.4651 159.767 37.2951 159.89C37.1251 160.013 36.8734 160.075 36.5401 160.075ZM39.3964 157.13C39.313 157.13 39.243 157.102 39.1864 157.045C39.1297 156.988 39.1014 156.918 39.1014 156.835C39.1014 156.752 39.1297 156.682 39.1864 156.625C39.243 156.568 39.313 156.54 39.3964 156.54C39.483 156.54 39.5547 156.568 39.6114 156.625C39.6714 156.682 39.7014 156.752 39.7014 156.835C39.7014 156.918 39.6714 156.988 39.6114 157.045C39.5547 157.102 39.483 157.13 39.3964 157.13ZM39.1414 157.6H39.6564V160H39.1414V157.6ZM41.3514 157.6H41.8414V157.945C41.9547 157.802 42.093 157.697 42.2564 157.63C42.423 157.56 42.5964 157.525 42.7764 157.525C43.0964 157.525 43.3347 157.61 43.4914 157.78C43.648 157.95 43.7264 158.178 43.7264 158.465V160H43.2214V158.515C43.2214 158.125 43.0347 157.93 42.6614 157.93C42.5014 157.93 42.3514 157.968 42.2114 158.045C42.0747 158.118 41.9564 158.232 41.8564 158.385V160H41.3514V157.6ZM46.6044 161.15C46.4411 161.15 46.2811 161.137 46.1244 161.11C45.9711 161.083 45.8411 161.045 45.7344 160.995V160.58C45.9844 160.693 46.2744 160.75 46.6044 160.75C46.9144 160.75 47.1394 160.682 47.2794 160.545C47.4227 160.412 47.4944 160.208 47.4944 159.935V159.68C47.2744 159.943 46.9511 160.075 46.5244 160.075C46.2811 160.075 46.0627 160.022 45.8694 159.915C45.6761 159.808 45.5244 159.658 45.4144 159.465C45.3044 159.272 45.2494 159.05 45.2494 158.8C45.2494 158.547 45.3027 158.325 45.4094 158.135C45.5194 157.942 45.6694 157.792 45.8594 157.685C46.0527 157.578 46.2694 157.525 46.5094 157.525C46.7327 157.525 46.9211 157.558 47.0744 157.625C47.2311 157.688 47.3761 157.795 47.5094 157.945V157.6H47.9994V159.88C47.9994 160.29 47.8844 160.603 47.6544 160.82C47.4277 161.04 47.0777 161.15 46.6044 161.15ZM46.6244 159.675C46.8311 159.675 47.0127 159.62 47.1694 159.51C47.3294 159.4 47.4377 159.253 47.4944 159.07V158.53C47.4311 158.343 47.3211 158.197 47.1644 158.09C47.0111 157.983 46.8311 157.93 46.6244 157.93C46.4611 157.93 46.3127 157.967 46.1794 158.04C46.0494 158.11 45.9461 158.212 45.8694 158.345C45.7961 158.478 45.7594 158.63 45.7594 158.8C45.7594 158.973 45.7961 159.127 45.8694 159.26C45.9461 159.39 46.0494 159.492 46.1794 159.565C46.3127 159.638 46.4611 159.675 46.6244 159.675ZM52.5008 156.305H53.0058V160H52.5008V156.305ZM55.518 160.075C55.228 160.075 54.9947 160.002 54.818 159.855C54.6447 159.705 54.558 159.503 54.558 159.25C54.558 158.983 54.6413 158.778 54.808 158.635C54.978 158.488 55.218 158.415 55.528 158.415C55.858 158.415 56.138 158.482 56.368 158.615V158.49C56.368 158.3 56.3097 158.16 56.193 158.07C56.0797 157.977 55.8997 157.93 55.653 157.93C55.5063 157.93 55.363 157.945 55.223 157.975C55.0863 158.002 54.963 158.04 54.853 158.09V157.68C54.953 157.633 55.083 157.597 55.243 157.57C55.403 157.54 55.558 157.525 55.708 157.525C56.1047 157.525 56.398 157.613 56.588 157.79C56.7813 157.963 56.878 158.205 56.878 158.515V160H56.403V159.73C56.2997 159.843 56.1763 159.93 56.033 159.99C55.893 160.047 55.7213 160.075 55.518 160.075ZM55.643 159.69C55.803 159.69 55.948 159.658 56.078 159.595C56.208 159.532 56.3047 159.443 56.368 159.33V159.005C56.1513 158.865 55.9097 158.795 55.643 158.795C55.4497 158.795 55.3047 158.833 55.208 158.91C55.1147 158.983 55.068 159.097 55.068 159.25C55.068 159.543 55.2597 159.69 55.643 159.69ZM58.5047 157.6H58.9947V157.945C59.108 157.802 59.2464 157.697 59.4097 157.63C59.5764 157.56 59.7497 157.525 59.9297 157.525C60.2497 157.525 60.488 157.61 60.6447 157.78C60.8014 157.95 60.8797 158.178 60.8797 158.465V160H60.3747V158.515C60.3747 158.125 60.188 157.93 59.8147 157.93C59.6547 157.93 59.5047 157.968 59.3647 158.045C59.228 158.118 59.1097 158.232 59.0097 158.385V160H58.5047V157.6ZM63.7577 161.15C63.5944 161.15 63.4344 161.137 63.2777 161.11C63.1244 161.083 62.9944 161.045 62.8877 160.995V160.58C63.1377 160.693 63.4277 160.75 63.7577 160.75C64.0677 160.75 64.2927 160.682 64.4327 160.545C64.5761 160.412 64.6477 160.208 64.6477 159.935V159.68C64.4277 159.943 64.1044 160.075 63.6777 160.075C63.4344 160.075 63.2161 160.022 63.0227 159.915C62.8294 159.808 62.6777 159.658 62.5677 159.465C62.4577 159.272 62.4027 159.05 62.4027 158.8C62.4027 158.547 62.4561 158.325 62.5627 158.135C62.6727 157.942 62.8227 157.792 63.0127 157.685C63.2061 157.578 63.4227 157.525 63.6627 157.525C63.8861 157.525 64.0744 157.558 64.2277 157.625C64.3844 157.688 64.5294 157.795 64.6627 157.945V157.6H65.1527V159.88C65.1527 160.29 65.0377 160.603 64.8077 160.82C64.5811 161.04 64.2311 161.15 63.7577 161.15ZM63.7777 159.675C63.9844 159.675 64.1661 159.62 64.3227 159.51C64.4827 159.4 64.5911 159.253 64.6477 159.07V158.53C64.5844 158.343 64.4744 158.197 64.3177 158.09C64.1644 157.983 63.9844 157.93 63.7777 157.93C63.6144 157.93 63.4661 157.967 63.3327 158.04C63.2027 158.11 63.0994 158.212 63.0227 158.345C62.9494 158.478 62.9127 158.63 62.9127 158.8C62.9127 158.973 62.9494 159.127 63.0227 159.26C63.0994 159.39 63.2027 159.492 63.3327 159.565C63.4661 159.638 63.6144 159.675 63.7777 159.675ZM67.7585 160.075C67.4352 160.075 67.1902 159.988 67.0235 159.815C66.8602 159.642 66.7785 159.41 66.7785 159.12V157.6H67.2835V159.1C67.2835 159.483 67.4752 159.675 67.8585 159.675C68.1952 159.675 68.4585 159.523 68.6485 159.22V157.6H69.1535V160H68.6635V159.66C68.5502 159.803 68.4152 159.908 68.2585 159.975C68.1052 160.042 67.9385 160.075 67.7585 160.075ZM71.5883 160.075C71.2983 160.075 71.065 160.002 70.8883 159.855C70.715 159.705 70.6283 159.503 70.6283 159.25C70.6283 158.983 70.7117 158.778 70.8783 158.635C71.0483 158.488 71.2883 158.415 71.5983 158.415C71.9283 158.415 72.2083 158.482 72.4383 158.615V158.49C72.4383 158.3 72.38 158.16 72.2633 158.07C72.15 157.977 71.97 157.93 71.7233 157.93C71.5767 157.93 71.4333 157.945 71.2933 157.975C71.1567 158.002 71.0333 158.04 70.9233 158.09V157.68C71.0233 157.633 71.1533 157.597 71.3133 157.57C71.4733 157.54 71.6283 157.525 71.7783 157.525C72.175 157.525 72.4683 157.613 72.6583 157.79C72.8517 157.963 72.9483 158.205 72.9483 158.515V160H72.4733V159.73C72.37 159.843 72.2467 159.93 72.1033 159.99C71.9633 160.047 71.7917 160.075 71.5883 160.075ZM71.7133 159.69C71.8733 159.69 72.0183 159.658 72.1483 159.595C72.2783 159.532 72.375 159.443 72.4383 159.33V159.005C72.2217 158.865 71.98 158.795 71.7133 158.795C71.52 158.795 71.375 158.833 71.2783 158.91C71.185 158.983 71.1383 159.097 71.1383 159.25C71.1383 159.543 71.33 159.69 71.7133 159.69ZM75.83 161.15C75.6667 161.15 75.5067 161.137 75.35 161.11C75.1967 161.083 75.0667 161.045 74.96 160.995V160.58C75.21 160.693 75.5 160.75 75.83 160.75C76.14 160.75 76.365 160.682 76.505 160.545C76.6483 160.412 76.72 160.208 76.72 159.935V159.68C76.5 159.943 76.1767 160.075 75.75 160.075C75.5067 160.075 75.2883 160.022 75.095 159.915C74.9017 159.808 74.75 159.658 74.64 159.465C74.53 159.272 74.475 159.05 74.475 158.8C74.475 158.547 74.5283 158.325 74.635 158.135C74.745 157.942 74.895 157.792 75.085 157.685C75.2783 157.578 75.495 157.525 75.735 157.525C75.9583 157.525 76.1467 157.558 76.3 157.625C76.4567 157.688 76.6017 157.795 76.735 157.945V157.6H77.225V159.88C77.225 160.29 77.11 160.603 76.88 160.82C76.6533 161.04 76.3033 161.15 75.83 161.15ZM75.85 159.675C76.0567 159.675 76.2383 159.62 76.395 159.51C76.555 159.4 76.6633 159.253 76.72 159.07V158.53C76.6567 158.343 76.5467 158.197 76.39 158.09C76.2367 157.983 76.0567 157.93 75.85 157.93C75.6867 157.93 75.5383 157.967 75.405 158.04C75.275 158.11 75.1717 158.212 75.095 158.345C75.0217 158.478 74.985 158.63 74.985 158.8C74.985 158.973 75.0217 159.127 75.095 159.26C75.1717 159.39 75.275 159.492 75.405 159.565C75.5383 159.638 75.6867 159.675 75.85 159.675ZM80.1958 160.075C79.7524 160.075 79.4041 159.965 79.1508 159.745C78.9008 159.522 78.7758 159.208 78.7758 158.805C78.7758 158.412 78.8874 158.1 79.1108 157.87C79.3374 157.64 79.6591 157.525 80.0758 157.525C80.3524 157.525 80.5874 157.578 80.7808 157.685C80.9741 157.788 81.1191 157.933 81.2158 158.12C81.3158 158.303 81.3658 158.513 81.3658 158.75V159H79.2558C79.2724 159.227 79.3674 159.397 79.5408 159.51C79.7174 159.62 79.9558 159.675 80.2558 159.675C80.4091 159.675 80.5641 159.662 80.7208 159.635C80.8774 159.605 81.0158 159.567 81.1358 159.52V159.925C81.0291 159.968 80.8874 160.003 80.7108 160.03C80.5374 160.06 80.3658 160.075 80.1958 160.075ZM80.8908 158.645C80.8841 158.418 80.8091 158.243 80.6658 158.12C80.5258 157.993 80.3258 157.93 80.0658 157.93C79.8124 157.93 79.6158 157.995 79.4758 158.125C79.3358 158.255 79.2624 158.428 79.2558 158.645H80.8908ZM85.7684 156.305H86.2734V160H85.7684V156.305ZM86.2784 158.785L87.3834 157.6H87.9984L86.8884 158.785L88.1134 160H87.4984L86.2784 158.785ZM89.615 157.6H90.105V157.945C90.2184 157.802 90.3567 157.697 90.52 157.63C90.6867 157.56 90.86 157.525 91.04 157.525C91.36 157.525 91.5984 157.61 91.755 157.78C91.9117 157.95 91.99 158.178 91.99 158.465V160H91.485V158.515C91.485 158.125 91.2984 157.93 90.925 157.93C90.765 157.93 90.615 157.968 90.475 158.045C90.3384 158.118 90.22 158.232 90.12 158.385V160H89.615V157.6ZM94.8048 160.075C94.5348 160.075 94.2965 160.025 94.0898 159.925C93.8865 159.822 93.7265 159.675 93.6098 159.485C93.4965 159.292 93.4398 159.065 93.4398 158.805C93.4398 158.548 93.4965 158.323 93.6098 158.13C93.7232 157.937 93.8832 157.788 94.0898 157.685C94.2965 157.578 94.5348 157.525 94.8048 157.525C95.0748 157.525 95.3132 157.578 95.5198 157.685C95.7265 157.788 95.8865 157.937 95.9998 158.13C96.1165 158.323 96.1748 158.548 96.1748 158.805C96.1748 159.065 96.1165 159.292 95.9998 159.485C95.8865 159.675 95.7265 159.822 95.5198 159.925C95.3132 160.025 95.0748 160.075 94.8048 160.075ZM94.8048 159.675C95.0648 159.675 95.2715 159.595 95.4248 159.435C95.5782 159.275 95.6548 159.065 95.6548 158.805C95.6548 158.535 95.5782 158.322 95.4248 158.165C95.2715 158.008 95.0648 157.93 94.8048 157.93C94.5448 157.93 94.3382 158.008 94.1848 158.165C94.0315 158.322 93.9548 158.535 93.9548 158.805C93.9548 159.065 94.0315 159.275 94.1848 159.435C94.3382 159.595 94.5448 159.675 94.8048 159.675ZM97.2963 157.6H97.8113L98.3513 159.38L98.8863 157.6H99.3413L99.8763 159.38L100.416 157.6H100.936L100.156 160H99.6713L99.1163 158.21L98.5613 160H98.0713L97.2963 157.6ZM102.361 157.6H102.851V157.945C102.964 157.802 103.103 157.697 103.266 157.63C103.433 157.56 103.606 157.525 103.786 157.525C104.106 157.525 104.344 157.61 104.501 157.78C104.658 157.95 104.736 158.178 104.736 158.465V160H104.231V158.515C104.231 158.125 104.044 157.93 103.671 157.93C103.511 157.93 103.361 157.968 103.221 158.045C103.084 158.118 102.966 158.232 102.866 158.385V160H102.361V157.6ZM110.07 160.075C109.78 160.075 109.546 160.002 109.37 159.855C109.196 159.705 109.11 159.503 109.11 159.25C109.11 158.983 109.193 158.778 109.36 158.635C109.53 158.488 109.77 158.415 110.08 158.415C110.41 158.415 110.69 158.482 110.92 158.615V158.49C110.92 158.3 110.861 158.16 110.745 158.07C110.631 157.977 110.451 157.93 110.205 157.93C110.058 157.93 109.915 157.945 109.775 157.975C109.638 158.002 109.515 158.04 109.405 158.09V157.68C109.505 157.633 109.635 157.597 109.795 157.57C109.955 157.54 110.11 157.525 110.26 157.525C110.656 157.525 110.95 157.613 111.14 157.79C111.333 157.963 111.43 158.205 111.43 158.515V160H110.955V159.73C110.851 159.843 110.728 159.93 110.585 159.99C110.445 160.047 110.273 160.075 110.07 160.075ZM110.195 159.69C110.355 159.69 110.5 159.658 110.63 159.595C110.76 159.532 110.856 159.443 110.92 159.33V159.005C110.703 158.865 110.461 158.795 110.195 158.795C110.001 158.795 109.856 158.833 109.76 158.91C109.666 158.983 109.62 159.097 109.62 159.25C109.62 159.543 109.811 159.69 110.195 159.69ZM113.868 160.075C113.702 160.075 113.525 160.053 113.338 160.01C113.152 159.97 113.005 159.915 112.898 159.845V159.415C113.028 159.492 113.178 159.555 113.348 159.605C113.518 159.652 113.683 159.675 113.843 159.675C114.023 159.675 114.155 159.653 114.238 159.61C114.322 159.567 114.363 159.497 114.363 159.4C114.363 159.327 114.343 159.268 114.303 159.225C114.267 159.178 114.202 159.137 114.108 159.1C114.018 159.063 113.882 159.02 113.698 158.97C113.502 158.913 113.345 158.857 113.228 158.8C113.115 158.74 113.028 158.665 112.968 158.575C112.912 158.485 112.883 158.368 112.883 158.225C112.883 157.995 112.973 157.822 113.153 157.705C113.337 157.585 113.582 157.525 113.888 157.525C114.048 157.525 114.205 157.54 114.358 157.57C114.512 157.6 114.635 157.642 114.728 157.695V158.115C114.632 158.058 114.512 158.013 114.368 157.98C114.228 157.947 114.085 157.93 113.938 157.93C113.762 157.93 113.627 157.952 113.533 157.995C113.44 158.038 113.393 158.115 113.393 158.225C113.393 158.295 113.413 158.352 113.453 158.395C113.493 158.438 113.557 158.477 113.643 158.51C113.733 158.54 113.875 158.58 114.068 158.63C114.372 158.713 114.582 158.812 114.698 158.925C114.818 159.038 114.878 159.195 114.878 159.395C114.878 159.602 114.793 159.767 114.623 159.89C114.453 160.013 114.202 160.075 113.868 160.075ZM18.59 168.075C18.3233 168.075 18.0867 168.025 17.88 167.925C17.6733 167.825 17.5117 167.68 17.395 167.49C17.2817 167.297 17.225 167.068 17.225 166.805C17.225 166.542 17.2817 166.315 17.395 166.125C17.5117 165.932 17.6733 165.783 17.88 165.68C18.09 165.577 18.33 165.525 18.6 165.525C18.9667 165.525 19.26 165.597 19.48 165.74V166.155C19.2633 166.005 18.9867 165.93 18.65 165.93C18.3767 165.93 18.155 166.005 17.985 166.155C17.8183 166.302 17.735 166.518 17.735 166.805C17.735 167.092 17.8183 167.308 17.985 167.455C18.1517 167.602 18.37 167.675 18.64 167.675C18.9767 167.675 19.2667 167.595 19.51 167.435V167.845C19.3933 167.925 19.26 167.983 19.11 168.02C18.9633 168.057 18.79 168.075 18.59 168.075ZM22.2511 168.075C21.9811 168.075 21.7428 168.025 21.5361 167.925C21.3328 167.822 21.1728 167.675 21.0561 167.485C20.9428 167.292 20.8861 167.065 20.8861 166.805C20.8861 166.548 20.9428 166.323 21.0561 166.13C21.1695 165.937 21.3295 165.788 21.5361 165.685C21.7428 165.578 21.9811 165.525 22.2511 165.525C22.5211 165.525 22.7595 165.578 22.9661 165.685C23.1728 165.788 23.3328 165.937 23.4461 166.13C23.5628 166.323 23.6211 166.548 23.6211 166.805C23.6211 167.065 23.5628 167.292 23.4461 167.485C23.3328 167.675 23.1728 167.822 22.9661 167.925C22.7595 168.025 22.5211 168.075 22.2511 168.075ZM22.2511 167.675C22.5111 167.675 22.7178 167.595 22.8711 167.435C23.0245 167.275 23.1011 167.065 23.1011 166.805C23.1011 166.535 23.0245 166.322 22.8711 166.165C22.7178 166.008 22.5111 165.93 22.2511 165.93C21.9911 165.93 21.7845 166.008 21.6311 166.165C21.4778 166.322 21.4011 166.535 21.4011 166.805C21.4011 167.065 21.4778 167.275 21.6311 167.435C21.7845 167.595 21.9911 167.675 22.2511 167.675ZM26.3078 168.075C26.0378 168.075 25.7994 168.025 25.5928 167.925C25.3894 167.822 25.2294 167.675 25.1128 167.485C24.9994 167.292 24.9428 167.065 24.9428 166.805C24.9428 166.548 24.9994 166.323 25.1128 166.13C25.2261 165.937 25.3861 165.788 25.5928 165.685C25.7994 165.578 26.0378 165.525 26.3078 165.525C26.5778 165.525 26.8161 165.578 27.0228 165.685C27.2294 165.788 27.3894 165.937 27.5028 166.13C27.6194 166.323 27.6778 166.548 27.6778 166.805C27.6778 167.065 27.6194 167.292 27.5028 167.485C27.3894 167.675 27.2294 167.822 27.0228 167.925C26.8161 168.025 26.5778 168.075 26.3078 168.075ZM26.3078 167.675C26.5678 167.675 26.7744 167.595 26.9278 167.435C27.0811 167.275 27.1578 167.065 27.1578 166.805C27.1578 166.535 27.0811 166.322 26.9278 166.165C26.7744 166.008 26.5678 165.93 26.3078 165.93C26.0478 165.93 25.8411 166.008 25.6878 166.165C25.5344 166.322 25.4578 166.535 25.4578 166.805C25.4578 167.065 25.5344 167.275 25.6878 167.435C25.8411 167.595 26.0478 167.675 26.3078 167.675ZM29.2264 164.305H29.7314V168H29.2264V164.305ZM32.6386 169.15C32.4753 169.15 32.3153 169.137 32.1586 169.11C32.0053 169.083 31.8753 169.045 31.7686 168.995V168.58C32.0186 168.693 32.3086 168.75 32.6386 168.75C32.9486 168.75 33.1736 168.682 33.3136 168.545C33.4569 168.412 33.5286 168.208 33.5286 167.935V167.68C33.3086 167.943 32.9853 168.075 32.5586 168.075C32.3153 168.075 32.0969 168.022 31.9036 167.915C31.7103 167.808 31.5586 167.658 31.4486 167.465C31.3386 167.272 31.2836 167.05 31.2836 166.8C31.2836 166.547 31.3369 166.325 31.4436 166.135C31.5536 165.942 31.7036 165.792 31.8936 165.685C32.0869 165.578 32.3036 165.525 32.5436 165.525C32.7669 165.525 32.9553 165.558 33.1086 165.625C33.2653 165.688 33.4103 165.795 33.5436 165.945V165.6H34.0336V167.88C34.0336 168.29 33.9186 168.603 33.6886 168.82C33.4619 169.04 33.1119 169.15 32.6386 169.15ZM32.6586 167.675C32.8653 167.675 33.0469 167.62 33.2036 167.51C33.3636 167.4 33.4719 167.253 33.5286 167.07V166.53C33.4653 166.343 33.3553 166.197 33.1986 166.09C33.0453 165.983 32.8653 165.93 32.6586 165.93C32.4953 165.93 32.3469 165.967 32.2136 166.04C32.0836 166.11 31.9803 166.212 31.9036 166.345C31.8303 166.478 31.7936 166.63 31.7936 166.8C31.7936 166.973 31.8303 167.127 31.9036 167.26C31.9803 167.39 32.0836 167.492 32.2136 167.565C32.3469 167.638 32.4953 167.675 32.6586 167.675ZM36.6394 168.075C36.316 168.075 36.071 167.988 35.9044 167.815C35.741 167.642 35.6594 167.41 35.6594 167.12V165.6H36.1644V167.1C36.1644 167.483 36.356 167.675 36.7394 167.675C37.076 167.675 37.3394 167.523 37.5294 167.22V165.6H38.0344V168H37.5444V167.66C37.431 167.803 37.296 167.908 37.1394 167.975C36.986 168.042 36.8194 168.075 36.6394 168.075ZM40.0166 168.99C39.8366 168.99 39.6866 168.972 39.5666 168.935V168.54C39.6533 168.573 39.76 168.59 39.8866 168.59C40.0033 168.59 40.095 168.56 40.1616 168.5C40.2283 168.443 40.2883 168.35 40.3416 168.22L40.4566 167.94L39.4066 165.6H39.9266L40.7266 167.445L41.4716 165.6H41.9916L40.9116 168.27C40.8116 168.52 40.6916 168.702 40.5516 168.815C40.415 168.932 40.2366 168.99 40.0166 168.99ZM44.1016 168.075C43.9349 168.075 43.7583 168.053 43.5716 168.01C43.3849 167.97 43.2383 167.915 43.1316 167.845V167.415C43.2616 167.492 43.4116 167.555 43.5816 167.605C43.7516 167.652 43.9166 167.675 44.0766 167.675C44.2566 167.675 44.3883 167.653 44.4716 167.61C44.5549 167.567 44.5966 167.497 44.5966 167.4C44.5966 167.327 44.5766 167.268 44.5366 167.225C44.4999 167.178 44.4349 167.137 44.3416 167.1C44.2516 167.063 44.1149 167.02 43.9316 166.97C43.7349 166.913 43.5783 166.857 43.4616 166.8C43.3483 166.74 43.2616 166.665 43.2016 166.575C43.1449 166.485 43.1166 166.368 43.1166 166.225C43.1166 165.995 43.2066 165.822 43.3866 165.705C43.5699 165.585 43.8149 165.525 44.1216 165.525C44.2816 165.525 44.4383 165.54 44.5916 165.57C44.7449 165.6 44.8683 165.642 44.9616 165.695V166.115C44.8649 166.058 44.7449 166.013 44.6016 165.98C44.4616 165.947 44.3183 165.93 44.1716 165.93C43.9949 165.93 43.8599 165.952 43.7666 165.995C43.6733 166.038 43.6266 166.115 43.6266 166.225C43.6266 166.295 43.6466 166.352 43.6866 166.395C43.7266 166.438 43.7899 166.477 43.8766 166.51C43.9666 166.54 44.1083 166.58 44.3016 166.63C44.6049 166.713 44.8149 166.812 44.9316 166.925C45.0516 167.038 45.1116 167.195 45.1116 167.395C45.1116 167.602 45.0266 167.767 44.8566 167.89C44.6866 168.013 44.4349 168.075 44.1016 168.075ZM46.6629 165.6H47.1529V165.955C47.3996 165.668 47.7329 165.525 48.1529 165.525C48.3929 165.525 48.6079 165.578 48.7979 165.685C48.9912 165.792 49.1412 165.942 49.2479 166.135C49.3579 166.325 49.4129 166.547 49.4129 166.8C49.4129 167.05 49.3579 167.272 49.2479 167.465C49.1412 167.658 48.9929 167.808 48.8029 167.915C48.6129 168.022 48.3962 168.075 48.1529 168.075C47.9529 168.075 47.7662 168.042 47.5929 167.975C47.4196 167.908 47.2779 167.81 47.1679 167.68V169.095H46.6629V165.6ZM48.0379 167.675C48.2012 167.675 48.3479 167.64 48.4779 167.57C48.6112 167.497 48.7146 167.393 48.7879 167.26C48.8646 167.127 48.9029 166.973 48.9029 166.8C48.9029 166.627 48.8646 166.475 48.7879 166.345C48.7146 166.212 48.6112 166.11 48.4779 166.04C48.3479 165.967 48.2012 165.93 48.0379 165.93C47.8346 165.93 47.6546 165.983 47.4979 166.09C47.3446 166.197 47.2346 166.343 47.1679 166.53V167.07C47.2246 167.253 47.3329 167.4 47.4929 167.51C47.6529 167.62 47.8346 167.675 48.0379 167.675ZM52.2837 168.075C51.8403 168.075 51.492 167.965 51.2387 167.745C50.9887 167.522 50.8637 167.208 50.8637 166.805C50.8637 166.412 50.9753 166.1 51.1987 165.87C51.4253 165.64 51.747 165.525 52.1637 165.525C52.4403 165.525 52.6753 165.578 52.8687 165.685C53.062 165.788 53.207 165.933 53.3037 166.12C53.4037 166.303 53.4537 166.513 53.4537 166.75V167H51.3437C51.3603 167.227 51.4553 167.397 51.6287 167.51C51.8053 167.62 52.0437 167.675 52.3437 167.675C52.497 167.675 52.652 167.662 52.8087 167.635C52.9653 167.605 53.1037 167.567 53.2237 167.52V167.925C53.117 167.968 52.9753 168.003 52.7987 168.03C52.6253 168.06 52.4537 168.075 52.2837 168.075ZM52.9787 166.645C52.972 166.418 52.897 166.243 52.7537 166.12C52.6137 165.993 52.4137 165.93 52.1537 165.93C51.9003 165.93 51.7037 165.995 51.5637 166.125C51.4237 166.255 51.3503 166.428 51.3437 166.645H52.9787ZM55.8657 168.075C55.5757 168.075 55.3423 168.002 55.1657 167.855C54.9923 167.705 54.9057 167.503 54.9057 167.25C54.9057 166.983 54.989 166.778 55.1557 166.635C55.3257 166.488 55.5657 166.415 55.8757 166.415C56.2057 166.415 56.4857 166.482 56.7157 166.615V166.49C56.7157 166.3 56.6573 166.16 56.5407 166.07C56.4273 165.977 56.2473 165.93 56.0007 165.93C55.854 165.93 55.7107 165.945 55.5707 165.975C55.434 166.002 55.3107 166.04 55.2007 166.09V165.68C55.3007 165.633 55.4307 165.597 55.5907 165.57C55.7507 165.54 55.9057 165.525 56.0557 165.525C56.4523 165.525 56.7457 165.613 56.9357 165.79C57.129 165.963 57.2257 166.205 57.2257 166.515V168H56.7507V167.73C56.6473 167.843 56.524 167.93 56.3807 167.99C56.2407 168.047 56.069 168.075 55.8657 168.075ZM55.9907 167.69C56.1507 167.69 56.2957 167.658 56.4257 167.595C56.5557 167.532 56.6523 167.443 56.7157 167.33V167.005C56.499 166.865 56.2573 166.795 55.9907 166.795C55.7973 166.795 55.6523 166.833 55.5557 166.91C55.4623 166.983 55.4157 167.097 55.4157 167.25C55.4157 167.543 55.6073 167.69 55.9907 167.69ZM58.8523 164.305H59.3573V168H58.8523V164.305ZM59.3623 166.785L60.4673 165.6H61.0823L59.9723 166.785L61.1973 168H60.5823L59.3623 166.785ZM65.4496 165.6H65.9646L66.5046 167.38L67.0396 165.6H67.4946L68.0296 167.38L68.5696 165.6H69.0896L68.3096 168H67.8246L67.2696 166.21L66.7146 168H66.2246L65.4496 165.6ZM70.9364 165.13C70.8531 165.13 70.7831 165.102 70.7264 165.045C70.6697 164.988 70.6414 164.918 70.6414 164.835C70.6414 164.752 70.6697 164.682 70.7264 164.625C70.7831 164.568 70.8531 164.54 70.9364 164.54C71.0231 164.54 71.0947 164.568 71.1514 164.625C71.2114 164.682 71.2414 164.752 71.2414 164.835C71.2414 164.918 71.2114 164.988 71.1514 165.045C71.0947 165.102 71.0231 165.13 70.9364 165.13ZM70.6814 165.6H71.1964V168H70.6814V165.6ZM73.8164 168.075C73.5731 168.075 73.3847 168.005 73.2514 167.865C73.1214 167.725 73.0564 167.527 73.0564 167.27V165.99H72.6914V165.6H73.0564V164.88H73.5664V165.6H74.1564V165.99H73.5664V167.235C73.5664 167.395 73.5964 167.508 73.6564 167.575C73.7197 167.642 73.8331 167.675 73.9964 167.675C74.0931 167.675 74.1897 167.653 74.2864 167.61V168.01C74.1597 168.053 74.0031 168.075 73.8164 168.075ZM75.7615 164.305H76.2665V165.93C76.4965 165.66 76.8032 165.525 77.1865 165.525C77.5065 165.525 77.7449 165.61 77.9015 165.78C78.0582 165.95 78.1365 166.178 78.1365 166.465V168H77.6315V166.515C77.6315 166.125 77.4449 165.93 77.0715 165.93C76.9115 165.93 76.7615 165.968 76.6215 166.045C76.4849 166.118 76.3665 166.232 76.2665 166.385V168H75.7615V164.305ZM82.5102 165.6H83.0252L83.5652 167.38L84.1002 165.6H84.5552L85.0902 167.38L85.6302 165.6H86.1502L85.3702 168H84.8852L84.3302 166.21L83.7752 168H83.2852L82.5102 165.6ZM88.6398 168.075C88.3698 168.075 88.1315 168.025 87.9248 167.925C87.7215 167.822 87.5615 167.675 87.4448 167.485C87.3315 167.292 87.2748 167.065 87.2748 166.805C87.2748 166.548 87.3315 166.323 87.4448 166.13C87.5581 165.937 87.7181 165.788 87.9248 165.685C88.1315 165.578 88.3698 165.525 88.6398 165.525C88.9098 165.525 89.1481 165.578 89.3548 165.685C89.5615 165.788 89.7215 165.937 89.8348 166.13C89.9515 166.323 90.0098 166.548 90.0098 166.805C90.0098 167.065 89.9515 167.292 89.8348 167.485C89.7215 167.675 89.5615 167.822 89.3548 167.925C89.1481 168.025 88.9098 168.075 88.6398 168.075ZM88.6398 167.675C88.8998 167.675 89.1065 167.595 89.2598 167.435C89.4131 167.275 89.4898 167.065 89.4898 166.805C89.4898 166.535 89.4131 166.322 89.2598 166.165C89.1065 166.008 88.8998 165.93 88.6398 165.93C88.3798 165.93 88.1731 166.008 88.0198 166.165C87.8665 166.322 87.7898 166.535 87.7898 166.805C87.7898 167.065 87.8665 167.275 88.0198 167.435C88.1731 167.595 88.3798 167.675 88.6398 167.675ZM91.5584 165.6H92.0484V166.03C92.1484 165.883 92.2884 165.775 92.4684 165.705C92.6517 165.635 92.8634 165.6 93.1034 165.6V165.995C92.8467 165.995 92.6267 166.037 92.4434 166.12C92.2601 166.203 92.1334 166.335 92.0634 166.515V168H91.5584V165.6ZM95.6422 168.075C95.4022 168.075 95.1856 168.023 94.9922 167.92C94.8022 167.813 94.6522 167.665 94.5422 167.475C94.4356 167.282 94.3822 167.058 94.3822 166.805C94.3822 166.555 94.4356 166.333 94.5422 166.14C94.6522 165.947 94.8022 165.797 94.9922 165.69C95.1856 165.58 95.4022 165.525 95.6422 165.525C96.0756 165.525 96.4039 165.657 96.6272 165.92V164.305H97.1322V168H96.6422V167.65C96.5089 167.797 96.3622 167.905 96.2022 167.975C96.0456 168.042 95.8589 168.075 95.6422 168.075ZM95.7572 167.675C95.9639 167.675 96.1439 167.622 96.2972 167.515C96.4539 167.405 96.5639 167.258 96.6272 167.075V166.535C96.5706 166.352 96.4622 166.205 96.3022 166.095C96.1456 165.985 95.9639 165.93 95.7572 165.93C95.5939 165.93 95.4456 165.967 95.3122 166.04C95.1822 166.113 95.0789 166.217 95.0022 166.35C94.9289 166.483 94.8922 166.635 94.8922 166.805C94.8922 166.975 94.9289 167.127 95.0022 167.26C95.0789 167.393 95.1822 167.497 95.3122 167.57C95.4456 167.64 95.5939 167.675 95.7572 167.675ZM99.668 168.075C99.5013 168.075 99.3247 168.053 99.138 168.01C98.9513 167.97 98.8047 167.915 98.698 167.845V167.415C98.828 167.492 98.978 167.555 99.148 167.605C99.318 167.652 99.483 167.675 99.643 167.675C99.823 167.675 99.9547 167.653 100.038 167.61C100.121 167.567 100.163 167.497 100.163 167.4C100.163 167.327 100.143 167.268 100.103 167.225C100.066 167.178 100.001 167.137 99.908 167.1C99.818 167.063 99.6813 167.02 99.498 166.97C99.3013 166.913 99.1447 166.857 99.028 166.8C98.9147 166.74 98.828 166.665 98.768 166.575C98.7113 166.485 98.683 166.368 98.683 166.225C98.683 165.995 98.773 165.822 98.953 165.705C99.1363 165.585 99.3813 165.525 99.688 165.525C99.848 165.525 100.005 165.54 100.158 165.57C100.311 165.6 100.435 165.642 100.528 165.695V166.115C100.431 166.058 100.311 166.013 100.168 165.98C100.028 165.947 99.8847 165.93 99.738 165.93C99.5613 165.93 99.4263 165.952 99.333 165.995C99.2397 166.038 99.193 166.115 99.193 166.225C99.193 166.295 99.213 166.352 99.253 166.395C99.293 166.438 99.3563 166.477 99.443 166.51C99.533 166.54 99.6747 166.58 99.868 166.63C100.171 166.713 100.381 166.812 100.498 166.925C100.618 167.038 100.678 167.195 100.678 167.395C100.678 167.602 100.593 167.767 100.423 167.89C100.253 168.013 100.001 168.075 99.668 168.075ZM105.08 164.305H105.585V168H105.08V164.305ZM107.532 165.13C107.449 165.13 107.379 165.102 107.322 165.045C107.265 164.988 107.237 164.918 107.237 164.835C107.237 164.752 107.265 164.682 107.322 164.625C107.379 164.568 107.449 164.54 107.532 164.54C107.619 164.54 107.69 164.568 107.747 164.625C107.807 164.682 107.837 164.752 107.837 164.835C107.837 164.918 107.807 164.988 107.747 165.045C107.69 165.102 107.619 165.13 107.532 165.13ZM107.277 165.6H107.792V168H107.277V165.6ZM109.487 164.305H109.992V168H109.487V164.305ZM109.997 166.785L111.102 165.6H111.717L110.607 166.785L111.832 168H111.217L109.997 166.785ZM114.654 168.075C114.21 168.075 113.862 167.965 113.609 167.745C113.359 167.522 113.234 167.208 113.234 166.805C113.234 166.412 113.345 166.1 113.569 165.87C113.795 165.64 114.117 165.525 114.534 165.525C114.81 165.525 115.045 165.578 115.239 165.685C115.432 165.788 115.577 165.933 115.674 166.12C115.774 166.303 115.824 166.513 115.824 166.75V167H113.714C113.73 167.227 113.825 167.397 113.999 167.51C114.175 167.62 114.414 167.675 114.714 167.675C114.867 167.675 115.022 167.662 115.179 167.635C115.335 167.605 115.474 167.567 115.594 167.52V167.925C115.487 167.968 115.345 168.003 115.169 168.03C114.995 168.06 114.824 168.075 114.654 168.075ZM115.349 166.645C115.342 166.418 115.267 166.243 115.124 166.12C114.984 165.993 114.784 165.93 114.524 165.93C114.27 165.93 114.074 165.995 113.934 166.125C113.794 166.255 113.72 166.428 113.714 166.645H115.349ZM17.62 172.43H18.03L17.695 173.405H17.225L17.62 172.43ZM18.415 172.43H18.825L18.495 173.405H18.02L18.415 172.43ZM21.8658 176.075C21.6491 176.075 21.4608 176.042 21.3008 175.975C21.1441 175.905 20.9991 175.797 20.8658 175.65V176H20.3758V172.305H20.8808V173.92C20.9908 173.79 21.1324 173.692 21.3058 173.625C21.4791 173.558 21.6658 173.525 21.8658 173.525C22.1058 173.525 22.3208 173.58 22.5108 173.69C22.7041 173.797 22.8541 173.947 22.9608 174.14C23.0708 174.333 23.1258 174.555 23.1258 174.805C23.1258 175.058 23.0708 175.282 22.9608 175.475C22.8541 175.665 22.7041 175.813 22.5108 175.92C22.3208 176.023 22.1058 176.075 21.8658 176.075ZM21.7508 175.675C21.9141 175.675 22.0608 175.64 22.1908 175.57C22.3241 175.497 22.4274 175.393 22.5008 175.26C22.5774 175.127 22.6158 174.975 22.6158 174.805C22.6158 174.635 22.5774 174.483 22.5008 174.35C22.4274 174.217 22.3241 174.113 22.1908 174.04C22.0608 173.967 21.9141 173.93 21.7508 173.93C21.5474 173.93 21.3658 173.985 21.2058 174.095C21.0458 174.205 20.9374 174.352 20.8808 174.535V175.075C20.9441 175.258 21.0524 175.405 21.2058 175.515C21.3624 175.622 21.5441 175.675 21.7508 175.675ZM24.6766 173.6H25.1666V174.03C25.2666 173.883 25.4066 173.775 25.5866 173.705C25.7699 173.635 25.9816 173.6 26.2216 173.6V173.995C25.9649 173.995 25.7449 174.037 25.5616 174.12C25.3782 174.203 25.2516 174.335 25.1816 174.515V176H24.6766V173.6ZM28.6042 176.075C28.2809 176.075 28.0359 175.988 27.8692 175.815C27.7059 175.642 27.6242 175.41 27.6242 175.12V173.6H28.1292V175.1C28.1292 175.483 28.3209 175.675 28.7042 175.675C29.0409 175.675 29.3042 175.523 29.4942 175.22V173.6H29.9992V176H29.5092V175.66C29.3959 175.803 29.2609 175.908 29.1042 175.975C28.9509 176.042 28.7842 176.075 28.6042 176.075ZM31.6473 172.305H32.1523V173.93C32.3823 173.66 32.6889 173.525 33.0723 173.525C33.3923 173.525 33.6306 173.61 33.7873 173.78C33.9439 173.95 34.0223 174.178 34.0223 174.465V176H33.5173V174.515C33.5173 174.125 33.3306 173.93 32.9573 173.93C32.7973 173.93 32.6473 173.968 32.5073 174.045C32.3706 174.118 32.2523 174.232 32.1523 174.385V176H31.6473V172.305ZM35.9503 175.735H36.4803L36.0053 176.74H35.5453L35.9503 175.735ZM38.262 172.43H38.737L38.342 173.405H37.932L38.262 172.43ZM39.057 172.43H39.532L39.137 173.405H38.727L39.057 172.43ZM44.2284 172.43H44.6384L44.3034 173.405H43.8334L44.2284 172.43ZM45.0234 172.43H45.4334L45.1034 173.405H44.6284L45.0234 172.43ZM48.1442 176.075C47.9042 176.075 47.6875 176.023 47.4942 175.92C47.3042 175.813 47.1542 175.665 47.0442 175.475C46.9375 175.282 46.8842 175.058 46.8842 174.805C46.8842 174.555 46.9375 174.333 47.0442 174.14C47.1542 173.947 47.3042 173.797 47.4942 173.69C47.6875 173.58 47.9042 173.525 48.1442 173.525C48.5775 173.525 48.9058 173.657 49.1292 173.92V172.305H49.6342V176H49.1442V175.65C49.0108 175.797 48.8642 175.905 48.7042 175.975C48.5475 176.042 48.3608 176.075 48.1442 176.075ZM48.2592 175.675C48.4658 175.675 48.6458 175.622 48.7992 175.515C48.9558 175.405 49.0658 175.258 49.1292 175.075V174.535C49.0725 174.352 48.9642 174.205 48.8042 174.095C48.6475 173.985 48.4658 173.93 48.2592 173.93C48.0958 173.93 47.9475 173.967 47.8142 174.04C47.6842 174.113 47.5808 174.217 47.5042 174.35C47.4308 174.483 47.3942 174.635 47.3942 174.805C47.3942 174.975 47.4308 175.127 47.5042 175.26C47.5808 175.393 47.6842 175.497 47.8142 175.57C47.9475 175.64 48.0958 175.675 48.2592 175.675ZM52.0717 176.075C51.7817 176.075 51.5484 176.002 51.3717 175.855C51.1984 175.705 51.1117 175.503 51.1117 175.25C51.1117 174.983 51.1951 174.778 51.3617 174.635C51.5317 174.488 51.7717 174.415 52.0817 174.415C52.4117 174.415 52.6917 174.482 52.9217 174.615V174.49C52.9217 174.3 52.8634 174.16 52.7467 174.07C52.6334 173.977 52.4534 173.93 52.2067 173.93C52.0601 173.93 51.9167 173.945 51.7767 173.975C51.6401 174.002 51.5167 174.04 51.4067 174.09V173.68C51.5067 173.633 51.6367 173.597 51.7967 173.57C51.9567 173.54 52.1117 173.525 52.2617 173.525C52.6584 173.525 52.9517 173.613 53.1417 173.79C53.3351 173.963 53.4317 174.205 53.4317 174.515V176H52.9567V175.73C52.8534 175.843 52.7301 175.93 52.5867 175.99C52.4467 176.047 52.2751 176.075 52.0717 176.075ZM52.1967 175.69C52.3567 175.69 52.5017 175.658 52.6317 175.595C52.7617 175.532 52.8584 175.443 52.9217 175.33V175.005C52.7051 174.865 52.4634 174.795 52.1967 174.795C52.0034 174.795 51.8584 174.833 51.7617 174.91C51.6684 174.983 51.6217 175.097 51.6217 175.25C51.6217 175.543 51.8134 175.69 52.1967 175.69ZM54.685 173.6H55.2L55.74 175.38L56.275 173.6H56.73L57.265 175.38L57.805 173.6H58.325L57.545 176H57.06L56.505 174.21L55.95 176H55.46L54.685 173.6ZM60.9316 177.15C60.7682 177.15 60.6082 177.137 60.4516 177.11C60.2982 177.083 60.1682 177.045 60.0616 176.995V176.58C60.3116 176.693 60.6016 176.75 60.9316 176.75C61.2416 176.75 61.4666 176.682 61.6066 176.545C61.7499 176.412 61.8216 176.208 61.8216 175.935V175.68C61.6016 175.943 61.2782 176.075 60.8516 176.075C60.6082 176.075 60.3899 176.022 60.1966 175.915C60.0032 175.808 59.8516 175.658 59.7416 175.465C59.6316 175.272 59.5766 175.05 59.5766 174.8C59.5766 174.547 59.6299 174.325 59.7366 174.135C59.8466 173.942 59.9966 173.792 60.1866 173.685C60.3799 173.578 60.5966 173.525 60.8366 173.525C61.0599 173.525 61.2482 173.558 61.4016 173.625C61.5582 173.688 61.7032 173.795 61.8366 173.945V173.6H62.3266V175.88C62.3266 176.29 62.2116 176.603 61.9816 176.82C61.7549 177.04 61.4049 177.15 60.9316 177.15ZM60.9516 175.675C61.1582 175.675 61.3399 175.62 61.4966 175.51C61.6566 175.4 61.7649 175.253 61.8216 175.07V174.53C61.7582 174.343 61.6482 174.197 61.4916 174.09C61.3382 173.983 61.1582 173.93 60.9516 173.93C60.7882 173.93 60.6399 173.967 60.5066 174.04C60.3766 174.11 60.2732 174.212 60.1966 174.345C60.1232 174.478 60.0866 174.63 60.0866 174.8C60.0866 174.973 60.1232 175.127 60.1966 175.26C60.2732 175.39 60.3766 175.492 60.5066 175.565C60.6399 175.638 60.7882 175.675 60.9516 175.675ZM64.2073 172.43H64.6823L64.2873 173.405H63.8773L64.2073 172.43ZM65.0023 172.43H65.4773L65.0823 173.405H64.6723L65.0023 172.43ZM70.7387 176.075C70.4487 176.075 70.2154 176.002 70.0387 175.855C69.8654 175.705 69.7787 175.503 69.7787 175.25C69.7787 174.983 69.862 174.778 70.0287 174.635C70.1987 174.488 70.4387 174.415 70.7487 174.415C71.0787 174.415 71.3587 174.482 71.5887 174.615V174.49C71.5887 174.3 71.5304 174.16 71.4137 174.07C71.3004 173.977 71.1204 173.93 70.8737 173.93C70.727 173.93 70.5837 173.945 70.4437 173.975C70.307 174.002 70.1837 174.04 70.0737 174.09V173.68C70.1737 173.633 70.3037 173.597 70.4637 173.57C70.6237 173.54 70.7787 173.525 70.9287 173.525C71.3254 173.525 71.6187 173.613 71.8087 173.79C72.002 173.963 72.0987 174.205 72.0987 174.515V176H71.6237V175.73C71.5204 175.843 71.397 175.93 71.2537 175.99C71.1137 176.047 70.942 176.075 70.7387 176.075ZM70.8637 175.69C71.0237 175.69 71.1687 175.658 71.2987 175.595C71.4287 175.532 71.5254 175.443 71.5887 175.33V175.005C71.372 174.865 71.1304 174.795 70.8637 174.795C70.6704 174.795 70.5254 174.833 70.4287 174.91C70.3354 174.983 70.2887 175.097 70.2887 175.25C70.2887 175.543 70.4804 175.69 70.8637 175.69ZM73.7254 173.6H74.2154V173.945C74.3287 173.802 74.4671 173.697 74.6304 173.63C74.7971 173.56 74.9704 173.525 75.1504 173.525C75.4704 173.525 75.7087 173.61 75.8654 173.78C76.0221 173.95 76.1004 174.178 76.1004 174.465V176H75.5954V174.515C75.5954 174.125 75.4087 173.93 75.0354 173.93C74.8754 173.93 74.7254 173.968 74.5854 174.045C74.4487 174.118 74.3304 174.232 74.2304 174.385V176H73.7254V173.6ZM78.8834 176.075C78.6434 176.075 78.4268 176.023 78.2334 175.92C78.0434 175.813 77.8934 175.665 77.7834 175.475C77.6768 175.282 77.6234 175.058 77.6234 174.805C77.6234 174.555 77.6768 174.333 77.7834 174.14C77.8934 173.947 78.0434 173.797 78.2334 173.69C78.4268 173.58 78.6434 173.525 78.8834 173.525C79.3168 173.525 79.6451 173.657 79.8684 173.92V172.305H80.3734V176H79.8834V175.65C79.7501 175.797 79.6034 175.905 79.4434 175.975C79.2868 176.042 79.1001 176.075 78.8834 176.075ZM78.9984 175.675C79.2051 175.675 79.3851 175.622 79.5384 175.515C79.6951 175.405 79.8051 175.258 79.8684 175.075V174.535C79.8118 174.352 79.7034 174.205 79.5434 174.095C79.3868 173.985 79.2051 173.93 78.9984 173.93C78.8351 173.93 78.6868 173.967 78.5534 174.04C78.4234 174.113 78.3201 174.217 78.2434 174.35C78.1701 174.483 78.1334 174.635 78.1334 174.805C78.1334 174.975 78.1701 175.127 78.2434 175.26C78.3201 175.393 78.4234 175.497 78.5534 175.57C78.6868 175.64 78.8351 175.675 78.9984 175.675ZM85.1698 172.43H85.5798L85.2448 173.405H84.7748L85.1698 172.43ZM85.9648 172.43H86.3748L86.0448 173.405H85.5698L85.9648 172.43ZM89.1906 176.075C88.9239 176.075 88.6873 176.025 88.4806 175.925C88.2739 175.825 88.1123 175.68 87.9956 175.49C87.8823 175.297 87.8256 175.068 87.8256 174.805C87.8256 174.542 87.8823 174.315 87.9956 174.125C88.1123 173.932 88.2739 173.783 88.4806 173.68C88.6906 173.577 88.9306 173.525 89.2006 173.525C89.5673 173.525 89.8606 173.597 90.0806 173.74V174.155C89.8639 174.005 89.5873 173.93 89.2506 173.93C88.9773 173.93 88.7556 174.005 88.5856 174.155C88.4189 174.302 88.3356 174.518 88.3356 174.805C88.3356 175.092 88.4189 175.308 88.5856 175.455C88.7523 175.602 88.9706 175.675 89.2406 175.675C89.5773 175.675 89.8673 175.595 90.1106 175.435V175.845C89.9939 175.925 89.8606 175.983 89.7106 176.02C89.5639 176.057 89.3906 176.075 89.1906 176.075ZM92.4955 176.075C92.2055 176.075 91.9722 176.002 91.7955 175.855C91.6222 175.705 91.5355 175.503 91.5355 175.25C91.5355 174.983 91.6189 174.778 91.7855 174.635C91.9555 174.488 92.1955 174.415 92.5055 174.415C92.8355 174.415 93.1155 174.482 93.3455 174.615V174.49C93.3455 174.3 93.2872 174.16 93.1705 174.07C93.0572 173.977 92.8772 173.93 92.6305 173.93C92.4839 173.93 92.3405 173.945 92.2005 173.975C92.0639 174.002 91.9405 174.04 91.8305 174.09V173.68C91.9305 173.633 92.0605 173.597 92.2205 173.57C92.3805 173.54 92.5355 173.525 92.6855 173.525C93.0822 173.525 93.3755 173.613 93.5655 173.79C93.7589 173.963 93.8555 174.205 93.8555 174.515V176H93.3805V175.73C93.2772 175.843 93.1539 175.93 93.0105 175.99C92.8705 176.047 92.6989 176.075 92.4955 176.075ZM92.6205 175.69C92.7805 175.69 92.9255 175.658 93.0555 175.595C93.1855 175.532 93.2822 175.443 93.3455 175.33V175.005C93.1289 174.865 92.8872 174.795 92.6205 174.795C92.4272 174.795 92.2822 174.833 92.1855 174.91C92.0922 174.983 92.0455 175.097 92.0455 175.25C92.0455 175.543 92.2372 175.69 92.6205 175.69ZM95.4822 173.6H95.9722V173.955C96.2189 173.668 96.5522 173.525 96.9722 173.525C97.2122 173.525 97.4272 173.578 97.6172 173.685C97.8106 173.792 97.9606 173.942 98.0672 174.135C98.1772 174.325 98.2322 174.547 98.2322 174.8C98.2322 175.05 98.1772 175.272 98.0672 175.465C97.9606 175.658 97.8122 175.808 97.6222 175.915C97.4322 176.022 97.2156 176.075 96.9722 176.075C96.7722 176.075 96.5856 176.042 96.4122 175.975C96.2389 175.908 96.0972 175.81 95.9872 175.68V177.095H95.4822V173.6ZM96.8572 175.675C97.0206 175.675 97.1672 175.64 97.2972 175.57C97.4306 175.497 97.5339 175.393 97.6072 175.26C97.6839 175.127 97.7222 174.973 97.7222 174.8C97.7222 174.627 97.6839 174.475 97.6072 174.345C97.5339 174.212 97.4306 174.11 97.2972 174.04C97.1672 173.967 97.0206 173.93 96.8572 173.93C96.6539 173.93 96.4739 173.983 96.3172 174.09C96.1639 174.197 96.0539 174.343 95.9872 174.53V175.07C96.0439 175.253 96.1522 175.4 96.3122 175.51C96.4722 175.62 96.6539 175.675 96.8572 175.675ZM99.918 176C99.8513 176 99.7947 175.978 99.748 175.935C99.7047 175.888 99.683 175.832 99.683 175.765C99.683 175.698 99.7047 175.642 99.748 175.595C99.7947 175.548 99.8513 175.525 99.918 175.525C99.9847 175.525 100.041 175.548 100.088 175.595C100.135 175.642 100.158 175.698 100.158 175.765C100.158 175.832 100.135 175.888 100.088 175.935C100.041 175.978 99.9847 176 99.918 176ZM101.936 172.43H102.411L102.016 173.405H101.606L101.936 172.43ZM102.731 172.43H103.206L102.811 173.405H102.401L102.731 172.43Z" fill="black"/>
<rect x="12.25" y="143.25" width="125.5" height="46.5" stroke="#6C6C6C" stroke-width="0.5"/>
<path d="M16.77 35.225C15.97 35.225 15.26 35.075 14.64 34.775C14.02 34.475 13.535 34.04 13.185 33.47C12.845 32.89 12.675 32.205 12.675 31.415C12.675 30.625 12.845 29.945 13.185 29.375C13.535 28.795 14.02 28.35 14.64 28.04C15.27 27.73 15.99 27.575 16.8 27.575C17.9 27.575 18.78 27.79 19.44 28.22V29.465C18.79 29.015 17.96 28.79 16.95 28.79C16.13 28.79 15.465 29.015 14.955 29.465C14.455 29.905 14.205 30.555 14.205 31.415C14.205 32.275 14.455 32.925 14.955 33.365C15.455 33.805 16.11 34.025 16.92 34.025C17.93 34.025 18.8 33.785 19.53 33.305V34.535C19.18 34.775 18.78 34.95 18.33 35.06C17.89 35.17 17.37 35.225 16.77 35.225ZM27.7534 35.225C26.9434 35.225 26.2284 35.075 25.6084 34.775C24.9984 34.465 24.5184 34.025 24.1684 33.455C23.8284 32.875 23.6584 32.195 23.6584 31.415C23.6584 30.645 23.8284 29.97 24.1684 29.39C24.5084 28.81 24.9884 28.365 25.6084 28.055C26.2284 27.735 26.9434 27.575 27.7534 27.575C28.5634 27.575 29.2784 27.735 29.8984 28.055C30.5184 28.365 30.9984 28.81 31.3384 29.39C31.6884 29.97 31.8634 30.645 31.8634 31.415C31.8634 32.195 31.6884 32.875 31.3384 33.455C30.9984 34.025 30.5184 34.465 29.8984 34.775C29.2784 35.075 28.5634 35.225 27.7534 35.225ZM27.7534 34.025C28.5334 34.025 29.1534 33.785 29.6134 33.305C30.0734 32.825 30.3034 32.195 30.3034 31.415C30.3034 30.605 30.0734 29.965 29.6134 29.495C29.1534 29.025 28.5334 28.79 27.7534 28.79C26.9734 28.79 26.3534 29.025 25.8934 29.495C25.4334 29.965 25.2034 30.605 25.2034 31.415C25.2034 32.195 25.4334 32.825 25.8934 33.305C26.3534 33.785 26.9734 34.025 27.7534 34.025ZM39.9233 35.225C39.1133 35.225 38.3983 35.075 37.7783 34.775C37.1683 34.465 36.6883 34.025 36.3383 33.455C35.9983 32.875 35.8283 32.195 35.8283 31.415C35.8283 30.645 35.9983 29.97 36.3383 29.39C36.6783 28.81 37.1583 28.365 37.7783 28.055C38.3983 27.735 39.1133 27.575 39.9233 27.575C40.7333 27.575 41.4483 27.735 42.0683 28.055C42.6883 28.365 43.1683 28.81 43.5083 29.39C43.8583 29.97 44.0333 30.645 44.0333 31.415C44.0333 32.195 43.8583 32.875 43.5083 33.455C43.1683 34.025 42.6883 34.465 42.0683 34.775C41.4483 35.075 40.7333 35.225 39.9233 35.225ZM39.9233 34.025C40.7033 34.025 41.3233 33.785 41.7833 33.305C42.2433 32.825 42.4733 32.195 42.4733 31.415C42.4733 30.605 42.2433 29.965 41.7833 29.495C41.3233 29.025 40.7033 28.79 39.9233 28.79C39.1433 28.79 38.5233 29.025 38.0633 29.495C37.6033 29.965 37.3733 30.605 37.3733 31.415C37.3733 32.195 37.6033 32.825 38.0633 33.305C38.5233 33.785 39.1433 34.025 39.9233 34.025ZM48.6791 23.915H50.1941V35H48.6791V23.915ZM63.4025 27.8H64.9475L66.5675 33.14L68.1725 27.8H69.5375L71.1425 33.14L72.7625 27.8H74.3225L71.9825 35H70.5275L68.8625 29.63L67.1975 35H65.7275L63.4025 27.8ZM80.7376 35.225C79.8676 35.225 79.1676 35.005 78.6376 34.565C78.1176 34.115 77.8576 33.51 77.8576 32.75C77.8576 31.95 78.1076 31.335 78.6076 30.905C79.1176 30.465 79.8376 30.245 80.7676 30.245C81.7576 30.245 82.5976 30.445 83.2876 30.845V30.47C83.2876 29.9 83.1126 29.48 82.7626 29.21C82.4226 28.93 81.8826 28.79 81.1426 28.79C80.7026 28.79 80.2726 28.835 79.8526 28.925C79.4426 29.005 79.0726 29.12 78.7426 29.27V28.04C79.0426 27.9 79.4326 27.79 79.9126 27.71C80.3926 27.62 80.8576 27.575 81.3076 27.575C82.4976 27.575 83.3776 27.84 83.9476 28.37C84.5276 28.89 84.8176 29.615 84.8176 30.545V35H83.3926V34.19C83.0826 34.53 82.7126 34.79 82.2826 34.97C81.8626 35.14 81.3476 35.225 80.7376 35.225ZM81.1126 34.07C81.5926 34.07 82.0276 33.975 82.4176 33.785C82.8076 33.595 83.0976 33.33 83.2876 32.99V32.015C82.6376 31.595 81.9126 31.385 81.1126 31.385C80.5326 31.385 80.0976 31.5 79.8076 31.73C79.5276 31.95 79.3876 32.29 79.3876 32.75C79.3876 33.63 79.9626 34.07 81.1126 34.07ZM92.0918 35.225C91.3618 35.225 90.7968 35.015 90.3968 34.595C90.0068 34.175 89.8118 33.58 89.8118 32.81V28.97H88.7168V27.8H89.8118V25.64H91.3418V27.8H93.1118V28.97H91.3418V32.705C91.3418 33.185 91.4318 33.525 91.6118 33.725C91.8018 33.925 92.1418 34.025 92.6318 34.025C92.9218 34.025 93.2118 33.96 93.5018 33.83V35.03C93.1218 35.16 92.6518 35.225 92.0918 35.225ZM101.887 35.225C100.557 35.225 99.5121 34.895 98.7521 34.235C98.0021 33.565 97.6271 32.625 97.6271 31.415C97.6271 30.235 97.9621 29.3 98.6321 28.61C99.3121 27.92 100.277 27.575 101.527 27.575C102.357 27.575 103.062 27.735 103.642 28.055C104.222 28.365 104.657 28.8 104.947 29.36C105.247 29.91 105.397 30.54 105.397 31.25V32H99.0671C99.1171 32.68 99.4021 33.19 99.9221 33.53C100.452 33.86 101.167 34.025 102.067 34.025C102.527 34.025 102.992 33.985 103.462 33.905C103.932 33.815 104.347 33.7 104.707 33.56V34.775C104.387 34.905 103.962 35.01 103.432 35.09C102.912 35.18 102.397 35.225 101.887 35.225ZM103.972 30.935C103.952 30.255 103.727 29.73 103.297 29.36C102.877 28.98 102.277 28.79 101.497 28.79C100.737 28.79 100.147 28.985 99.7271 29.375C99.3071 29.765 99.0871 30.285 99.0671 30.935H103.972ZM110.053 27.8H111.523V29.09C111.823 28.65 112.243 28.325 112.783 28.115C113.333 27.905 113.968 27.8 114.688 27.8V28.985C113.918 28.985 113.258 29.11 112.708 29.36C112.158 29.61 111.778 30.005 111.568 30.545V35H110.053V27.8Z" fill="black"/>
<path d="M12.8691 19.0381L17.1807 17.1875V16.4746L12.8691 14.6289V15.5615L16.0283 16.7334L16.3213 16.8262L16.0283 16.9092L12.8691 18.1006V19.0381ZM20.875 19.0381L25.1865 17.1875V16.4746L20.875 14.6289V15.5615L24.0342 16.7334L24.3271 16.8262L24.0342 16.9092L20.875 18.1006V19.0381ZM37.375 20H38.0879L38.9033 16.7627L39.0352 15.9424L39.1719 16.7627L39.9971 20H40.71L41.833 14.7168H41.0322L40.4463 18.0859L40.3145 18.916L40.1729 18.0859L39.333 14.7168H38.752L37.9072 18.0859L37.7754 18.8428L37.668 18.0859L37.0527 14.7168H36.252L37.375 20ZM48.3447 20H49.2871V19.9219C49.2285 19.7754 49.1829 19.6045 49.1504 19.4092C49.1178 19.2106 49.1016 19.0234 49.1016 18.8477V16.3916C49.1016 16.0954 49.0479 15.8366 48.9404 15.6152C48.833 15.3939 48.6865 15.2083 48.501 15.0586C48.3122 14.9121 48.0892 14.8031 47.832 14.7314C47.5749 14.6566 47.2965 14.6191 46.9971 14.6191C46.6683 14.6191 46.3737 14.6647 46.1133 14.7559C45.8561 14.847 45.638 14.9658 45.459 15.1123C45.2767 15.262 45.1367 15.4297 45.0391 15.6152C44.9447 15.8008 44.8958 15.9896 44.8926 16.1816H45.8008C45.8008 16.071 45.8268 15.9652 45.8789 15.8643C45.9342 15.7601 46.0107 15.6706 46.1084 15.5957C46.2061 15.5208 46.3249 15.4606 46.4648 15.415C46.6081 15.3695 46.7692 15.3467 46.9482 15.3467C47.1403 15.3467 47.3128 15.3711 47.4658 15.4199C47.6221 15.4688 47.7539 15.5371 47.8613 15.625C47.9688 15.7161 48.0518 15.8252 48.1104 15.9521C48.1689 16.0791 48.1982 16.2223 48.1982 16.3818V16.7969H47.2119C46.8441 16.7969 46.5104 16.8327 46.2109 16.9043C45.9147 16.9759 45.6608 17.0833 45.4492 17.2266C45.2376 17.373 45.0732 17.5553 44.9561 17.7734C44.8421 17.9915 44.7852 18.2454 44.7852 18.5352C44.7852 18.7565 44.8275 18.9632 44.9121 19.1553C45 19.3441 45.1237 19.5068 45.2832 19.6436C45.4395 19.7835 45.6299 19.8942 45.8545 19.9756C46.0824 20.057 46.3363 20.0977 46.6162 20.0977C46.7887 20.0977 46.9515 20.0798 47.1045 20.0439C47.2575 20.0081 47.4023 19.9593 47.5391 19.8975C47.6725 19.8356 47.7946 19.764 47.9053 19.6826C48.0192 19.6012 48.1217 19.515 48.2129 19.4238C48.2227 19.5345 48.2373 19.6419 48.2568 19.7461C48.2796 19.847 48.3089 19.9316 48.3447 20ZM46.748 19.3115C46.5723 19.3115 46.4176 19.2887 46.2842 19.2432C46.1507 19.1976 46.04 19.1341 45.9521 19.0527C45.8643 18.9746 45.7975 18.8802 45.752 18.7695C45.7096 18.6589 45.6885 18.5384 45.6885 18.4082C45.6885 18.2715 45.7129 18.1494 45.7617 18.042C45.8138 17.9346 45.8887 17.8418 45.9863 17.7637C46.123 17.653 46.307 17.5716 46.5381 17.5195C46.7725 17.4642 47.0459 17.4365 47.3584 17.4365H48.1982V18.5059C48.1462 18.61 48.0745 18.7109 47.9834 18.8086C47.8923 18.903 47.7848 18.9876 47.6611 19.0625C47.5342 19.1374 47.3942 19.1976 47.2412 19.2432C47.0882 19.2887 46.9238 19.3115 46.748 19.3115ZM55.0176 13.4375H54.1094V14.7168H52.7227V15.415H54.1094V18.2861C54.1094 18.6117 54.1517 18.89 54.2363 19.1211C54.3242 19.349 54.443 19.5345 54.5928 19.6777C54.7425 19.8242 54.9183 19.9316 55.1201 20C55.3252 20.0651 55.5449 20.0977 55.7793 20.0977C55.9193 20.0977 56.0592 20.0911 56.1992 20.0781C56.3424 20.0651 56.4775 20.0456 56.6045 20.0195C56.7314 19.9967 56.8486 19.9691 56.9561 19.9365C57.0635 19.9007 57.1546 19.86 57.2295 19.8145L57.1025 19.1748C57.0472 19.1878 56.9756 19.2041 56.8877 19.2236C56.8031 19.2399 56.7119 19.2562 56.6143 19.2725C56.5133 19.2887 56.4108 19.3034 56.3066 19.3164C56.2025 19.3262 56.1016 19.3311 56.0039 19.3311C55.8704 19.3311 55.7435 19.3148 55.623 19.2822C55.5059 19.2497 55.4017 19.1927 55.3105 19.1113C55.2194 19.0332 55.1478 18.9274 55.0957 18.7939C55.0436 18.6605 55.0176 18.4912 55.0176 18.2861V15.415H57.0293V14.7168H55.0176V13.4375ZM63.2188 20.0977C63.7331 20.0977 64.1644 19.9951 64.5127 19.79C64.8643 19.5817 65.1279 19.3441 65.3037 19.0771L64.752 18.6475C64.5859 18.8623 64.3776 19.0348 64.127 19.165C63.8763 19.2952 63.5898 19.3604 63.2676 19.3604C63.0234 19.3604 62.8005 19.3148 62.5986 19.2236C62.3968 19.1325 62.2243 19.0072 62.0811 18.8477C61.9411 18.6979 61.8304 18.5254 61.749 18.3301C61.6709 18.1348 61.6204 17.9085 61.5977 17.6514V17.6172H65.3721V17.2119C65.3721 16.8441 65.3249 16.5023 65.2305 16.1865C65.1393 15.8708 64.9993 15.5957 64.8105 15.3613C64.6217 15.1302 64.3841 14.9495 64.0977 14.8193C63.8145 14.6859 63.4824 14.6191 63.1016 14.6191C62.7988 14.6191 62.5026 14.681 62.2129 14.8047C61.9264 14.9284 61.6709 15.1058 61.4463 15.3369C61.2184 15.5713 61.0361 15.8577 60.8994 16.1963C60.7627 16.5316 60.6943 16.9124 60.6943 17.3389V17.5439C60.6943 17.9118 60.7562 18.252 60.8799 18.5645C61.0036 18.877 61.1761 19.1471 61.3975 19.375C61.6188 19.6029 61.8841 19.7803 62.1934 19.9072C62.5059 20.0342 62.8477 20.0977 63.2188 20.0977ZM63.1016 15.3613C63.3327 15.3613 63.5312 15.4036 63.6973 15.4883C63.8665 15.5729 64.0065 15.6836 64.1172 15.8203C64.2279 15.957 64.3141 16.1198 64.376 16.3086C64.4378 16.4941 64.4688 16.6683 64.4688 16.8311V16.875H61.627C61.6628 16.6309 61.7246 16.416 61.8125 16.2305C61.9036 16.0417 62.0143 15.8822 62.1445 15.752C62.2747 15.625 62.4212 15.529 62.584 15.4639C62.7467 15.3955 62.9193 15.3613 63.1016 15.3613ZM72.3525 14.6191C71.9684 14.6191 71.625 14.7038 71.3223 14.873C71.0228 15.0391 70.7656 15.2669 70.5508 15.5566L70.5459 15.4248L70.5068 14.7168H69.6475V20H70.5557V16.6113C70.6143 16.4486 70.6875 16.3021 70.7754 16.1719C70.8665 16.0384 70.9723 15.9261 71.0928 15.835C71.2262 15.7308 71.3825 15.6527 71.5615 15.6006C71.7406 15.5452 71.9408 15.5176 72.1621 15.5176C72.3346 15.5176 72.499 15.5273 72.6553 15.5469C72.8148 15.5632 72.9824 15.5908 73.1582 15.6299L73.2803 14.7461C73.1891 14.707 73.0524 14.6761 72.8701 14.6533C72.6911 14.6305 72.5186 14.6191 72.3525 14.6191Z" fill="#707070"/>
<path d="M94.7073 87.4762L85.9268 75.9524L76.5 61L65.0732 71.7619L53 86.4286V106.333L66.1707 121L83.7317 118.905L98 105.286L94.7073 87.4762Z" fill="#0068C8"/>
<path d="M68 97L69.5 85H71V97H68Z" fill="#D9D9D9"/>
<path d="M80 97L78.5 85H77V97H80Z" fill="#D9D9D9"/>
<path d="M60 63.5L53.5 76L73 74L90.5 76L105.5 81V78L92 74V66L75.5 57.5L60 63.5Z" fill="#EB8D00"/>
</svg>
