<svg width="150" height="200" viewBox="0 0 150 200" fill="none" xmlns="http://www.w3.org/2000/svg">
<rect width="150" height="200" fill="white"/>
<path d="M17.225 148.505H17.755L18.535 151.16L19.305 148.505H19.705L20.47 151.16L21.25 148.505H21.78L20.76 152H20.275L19.5 149.36L18.73 152H18.245L17.225 148.505ZM23.1541 148.305H23.6591V149.93C23.8891 149.66 24.1958 149.525 24.5791 149.525C24.8991 149.525 25.1374 149.61 25.2941 149.78C25.4508 149.95 25.5291 150.178 25.5291 150.465V152H25.0241V150.515C25.0241 150.125 24.8374 149.93 24.4641 149.93C24.3041 149.93 24.1541 149.968 24.0141 150.045C23.8774 150.118 23.7591 150.232 23.6591 150.385V152H23.1541V148.305ZM27.9389 152.075C27.6489 152.075 27.4156 152.002 27.2389 151.855C27.0656 151.705 26.9789 151.503 26.9789 151.25C26.9789 150.983 27.0622 150.778 27.2289 150.635C27.3989 150.488 27.6389 150.415 27.9489 150.415C28.2789 150.415 28.5589 150.482 28.7889 150.615V150.49C28.7889 150.3 28.7306 150.16 28.6139 150.07C28.5006 149.977 28.3206 149.93 28.0739 149.93C27.9272 149.93 27.7839 149.945 27.6439 149.975C27.5072 150.002 27.3839 150.04 27.2739 150.09V149.68C27.3739 149.633 27.5039 149.597 27.6639 149.57C27.8239 149.54 27.9789 149.525 28.1289 149.525C28.5256 149.525 28.8189 149.613 29.0089 149.79C29.2022 149.963 29.2989 150.205 29.2989 150.515V152H28.8239V151.73C28.7206 151.843 28.5972 151.93 28.4539 151.99C28.3139 152.047 28.1422 152.075 27.9389 152.075ZM28.0639 151.69C28.2239 151.69 28.3689 151.658 28.4989 151.595C28.6289 151.532 28.7256 151.443 28.7889 151.33V151.005C28.5722 150.865 28.3306 150.795 28.0639 150.795C27.8706 150.795 27.7256 150.833 27.6289 150.91C27.5356 150.983 27.4889 151.097 27.4889 151.25C27.4889 151.543 27.6806 151.69 28.0639 151.69ZM31.7236 152.075C31.4803 152.075 31.292 152.005 31.1586 151.865C31.0286 151.725 30.9636 151.527 30.9636 151.27V149.99H30.5986V149.6H30.9636V148.88H31.4736V149.6H32.0636V149.99H31.4736V151.235C31.4736 151.395 31.5036 151.508 31.5636 151.575C31.627 151.642 31.7403 151.675 31.9036 151.675C32.0003 151.675 32.097 151.653 32.1936 151.61V152.01C32.067 152.053 31.9103 152.075 31.7236 152.075ZM37.3793 152.075C37.0893 152.075 36.856 152.002 36.6793 151.855C36.506 151.705 36.4193 151.503 36.4193 151.25C36.4193 150.983 36.5027 150.778 36.6693 150.635C36.8393 150.488 37.0793 150.415 37.3893 150.415C37.7193 150.415 37.9993 150.482 38.2293 150.615V150.49C38.2293 150.3 38.171 150.16 38.0543 150.07C37.941 149.977 37.761 149.93 37.5143 149.93C37.3677 149.93 37.2243 149.945 37.0843 149.975C36.9477 150.002 36.8243 150.04 36.7143 150.09V149.68C36.8143 149.633 36.9443 149.597 37.1043 149.57C37.2643 149.54 37.4193 149.525 37.5693 149.525C37.966 149.525 38.2593 149.613 38.4493 149.79C38.6427 149.963 38.7393 150.205 38.7393 150.515V152H38.2643V151.73C38.161 151.843 38.0377 151.93 37.8943 151.99C37.7543 152.047 37.5827 152.075 37.3793 152.075ZM37.5043 151.69C37.6643 151.69 37.8093 151.658 37.9393 151.595C38.0693 151.532 38.166 151.443 38.2293 151.33V151.005C38.0127 150.865 37.771 150.795 37.5043 150.795C37.311 150.795 37.166 150.833 37.0693 150.91C36.976 150.983 36.9293 151.097 36.9293 151.25C36.9293 151.543 37.121 151.69 37.5043 151.69ZM44.4716 153.15C44.3083 153.15 44.1483 153.137 43.9916 153.11C43.8383 153.083 43.7083 153.045 43.6016 152.995V152.58C43.8516 152.693 44.1416 152.75 44.4716 152.75C44.7816 152.75 45.0066 152.682 45.1466 152.545C45.2899 152.412 45.3616 152.208 45.3616 151.935V151.68C45.1416 151.943 44.8183 152.075 44.3916 152.075C44.1483 152.075 43.9299 152.022 43.7366 151.915C43.5433 151.808 43.3916 151.658 43.2816 151.465C43.1716 151.272 43.1166 151.05 43.1166 150.8C43.1166 150.547 43.1699 150.325 43.2766 150.135C43.3866 149.942 43.5366 149.792 43.7266 149.685C43.9199 149.578 44.1366 149.525 44.3766 149.525C44.5999 149.525 44.7883 149.558 44.9416 149.625C45.0983 149.688 45.2433 149.795 45.3766 149.945V149.6H45.8666V151.88C45.8666 152.29 45.7516 152.603 45.5216 152.82C45.2949 153.04 44.9449 153.15 44.4716 153.15ZM44.4916 151.675C44.6983 151.675 44.8799 151.62 45.0366 151.51C45.1966 151.4 45.3049 151.253 45.3616 151.07V150.53C45.2983 150.343 45.1883 150.197 45.0316 150.09C44.8783 149.983 44.6983 149.93 44.4916 149.93C44.3283 149.93 44.1799 149.967 44.0466 150.04C43.9166 150.11 43.8133 150.212 43.7366 150.345C43.6633 150.478 43.6266 150.63 43.6266 150.8C43.6266 150.973 43.6633 151.127 43.7366 151.26C43.8133 151.39 43.9166 151.492 44.0466 151.565C44.1799 151.638 44.3283 151.675 44.4916 151.675ZM48.8374 152.075C48.394 152.075 48.0457 151.965 47.7924 151.745C47.5424 151.522 47.4174 151.208 47.4174 150.805C47.4174 150.412 47.529 150.1 47.7524 149.87C47.979 149.64 48.3007 149.525 48.7174 149.525C48.994 149.525 49.229 149.578 49.4224 149.685C49.6157 149.788 49.7607 149.933 49.8574 150.12C49.9574 150.303 50.0074 150.513 50.0074 150.75V151H47.8974C47.914 151.227 48.009 151.397 48.1824 151.51C48.359 151.62 48.5974 151.675 48.8974 151.675C49.0507 151.675 49.2057 151.662 49.3624 151.635C49.519 151.605 49.6574 151.567 49.7774 151.52V151.925C49.6707 151.968 49.529 152.003 49.3524 152.03C49.179 152.06 49.0074 152.075 48.8374 152.075ZM49.5324 150.645C49.5257 150.418 49.4507 150.243 49.3074 150.12C49.1674 149.993 48.9674 149.93 48.7074 149.93C48.454 149.93 48.2574 149.995 48.1174 150.125C47.9774 150.255 47.904 150.428 47.8974 150.645H49.5324ZM51.5594 149.6H52.0494V149.945C52.1627 149.802 52.301 149.697 52.4644 149.63C52.631 149.56 52.8044 149.525 52.9844 149.525C53.3044 149.525 53.5427 149.61 53.6994 149.78C53.856 149.95 53.9344 150.178 53.9344 150.465V152H53.4294V150.515C53.4294 150.125 53.2427 149.93 52.8694 149.93C52.7094 149.93 52.5594 149.968 52.4194 150.045C52.2827 150.118 52.1644 150.232 52.0644 150.385V152H51.5594V149.6ZM56.4824 152.075C56.2391 152.075 56.0508 152.005 55.9174 151.865C55.7874 151.725 55.7224 151.527 55.7224 151.27V149.99H55.3574V149.6H55.7224V148.88H56.2324V149.6H56.8224V149.99H56.2324V151.235C56.2324 151.395 56.2624 151.508 56.3224 151.575C56.3858 151.642 56.4991 151.675 56.6624 151.675C56.7591 151.675 56.8558 151.653 56.9524 151.61V152.01C56.8258 152.053 56.6691 152.075 56.4824 152.075ZM58.4275 148.305H58.9325V152H58.4275V148.305ZM61.9048 152.075C61.4614 152.075 61.1131 151.965 60.8598 151.745C60.6098 151.522 60.4848 151.208 60.4848 150.805C60.4848 150.412 60.5964 150.1 60.8198 149.87C61.0464 149.64 61.3681 149.525 61.7848 149.525C62.0614 149.525 62.2964 149.578 62.4898 149.685C62.6831 149.788 62.8281 149.933 62.9248 150.12C63.0248 150.303 63.0748 150.513 63.0748 150.75V151H60.9648C60.9814 151.227 61.0764 151.397 61.2498 151.51C61.4264 151.62 61.6648 151.675 61.9648 151.675C62.1181 151.675 62.2731 151.662 62.4298 151.635C62.5864 151.605 62.7248 151.567 62.8448 151.52V151.925C62.7381 151.968 62.5964 152.003 62.4198 152.03C62.2464 152.06 62.0748 152.075 61.9048 152.075ZM62.5998 150.645C62.5931 150.418 62.5181 150.243 62.3748 150.12C62.2348 149.993 62.0348 149.93 61.7748 149.93C61.5214 149.93 61.3248 149.995 61.1848 150.125C61.0448 150.255 60.9714 150.428 60.9648 150.645H62.5998ZM64.6268 149.6H65.1068V149.945C65.2201 149.805 65.3484 149.7 65.4918 149.63C65.6351 149.56 65.7834 149.525 65.9368 149.525C66.1301 149.525 66.2834 149.558 66.3968 149.625C66.5101 149.688 66.5934 149.787 66.6468 149.92C66.7534 149.79 66.8834 149.692 67.0368 149.625C67.1934 149.558 67.3501 149.525 67.5068 149.525C67.8001 149.525 68.0118 149.6 68.1418 149.75C68.2718 149.897 68.3368 150.115 68.3368 150.405V152H67.8468V150.47C67.8468 150.273 67.8101 150.135 67.7368 150.055C67.6634 149.972 67.5384 149.93 67.3618 149.93C67.1084 149.93 66.9018 150.04 66.7418 150.26C66.7484 150.31 66.7518 150.392 66.7518 150.505V152H66.2618V150.47C66.2618 150.273 66.2284 150.135 66.1618 150.055C66.0951 149.972 65.9751 149.93 65.8018 149.93C65.5484 149.93 65.3218 150.073 65.1218 150.36V152H64.6268V149.6ZM70.7495 152.075C70.4595 152.075 70.2261 152.002 70.0495 151.855C69.8761 151.705 69.7895 151.503 69.7895 151.25C69.7895 150.983 69.8728 150.778 70.0395 150.635C70.2095 150.488 70.4495 150.415 70.7595 150.415C71.0895 150.415 71.3695 150.482 71.5995 150.615V150.49C71.5995 150.3 71.5411 150.16 71.4245 150.07C71.3111 149.977 71.1311 149.93 70.8845 149.93C70.7378 149.93 70.5945 149.945 70.4545 149.975C70.3178 150.002 70.1945 150.04 70.0845 150.09V149.68C70.1845 149.633 70.3145 149.597 70.4745 149.57C70.6345 149.54 70.7895 149.525 70.9395 149.525C71.3361 149.525 71.6295 149.613 71.8195 149.79C72.0128 149.963 72.1095 150.205 72.1095 150.515V152H71.6345V151.73C71.5311 151.843 71.4078 151.93 71.2645 151.99C71.1245 152.047 70.9528 152.075 70.7495 152.075ZM70.8745 151.69C71.0345 151.69 71.1795 151.658 71.3095 151.595C71.4395 151.532 71.5361 151.443 71.5995 151.33V151.005C71.3828 150.865 71.1411 150.795 70.8745 150.795C70.6811 150.795 70.5361 150.833 70.4395 150.91C70.3461 150.983 70.2995 151.097 70.2995 151.25C70.2995 151.543 70.4911 151.69 70.8745 151.69ZM73.7361 149.6H74.2261V149.945C74.3395 149.802 74.4778 149.697 74.6411 149.63C74.8078 149.56 74.9811 149.525 75.1611 149.525C75.4811 149.525 75.7195 149.61 75.8761 149.78C76.0328 149.95 76.1111 150.178 76.1111 150.465V152H75.6061V150.515C75.6061 150.125 75.4195 149.93 75.0461 149.93C74.8861 149.93 74.7361 149.968 74.5961 150.045C74.4595 150.118 74.3411 150.232 74.2411 150.385V152H73.7361V149.6ZM77.6892 148.505H78.1792V151H77.6892V148.505ZM77.9292 152.075C77.8458 152.075 77.7758 152.047 77.7192 151.99C77.6625 151.933 77.6342 151.863 77.6342 151.78C77.6342 151.697 77.6625 151.627 77.7192 151.57C77.7758 151.513 77.8458 151.485 77.9292 151.485C78.0125 151.485 78.0825 151.513 78.1392 151.57C78.1992 151.627 78.2292 151.697 78.2292 151.78C78.2292 151.863 78.1992 151.933 78.1392 151.99C78.0825 152.047 78.0125 152.075 77.9292 152.075ZM82.5297 148.505H83.0597L83.8397 151.16L84.6097 148.505H85.0097L85.7747 151.16L86.5547 148.505H87.0847L86.0647 152H85.5797L84.8047 149.36L84.0347 152H83.5497L82.5297 148.505ZM88.7538 149.13C88.6705 149.13 88.6005 149.102 88.5438 149.045C88.4871 148.988 88.4588 148.918 88.4588 148.835C88.4588 148.752 88.4871 148.682 88.5438 148.625C88.6005 148.568 88.6705 148.54 88.7538 148.54C88.8405 148.54 88.9121 148.568 88.9688 148.625C89.0288 148.682 89.0588 148.752 89.0588 148.835C89.0588 148.918 89.0288 148.988 88.9688 149.045C88.9121 149.102 88.8405 149.13 88.7538 149.13ZM88.4988 149.6H89.0138V152H88.4988V149.6ZM91.6338 152.075C91.3905 152.075 91.2021 152.005 91.0688 151.865C90.9388 151.725 90.8738 151.527 90.8738 151.27V149.99H90.5088V149.6H90.8738V148.88H91.3838V149.6H91.9738V149.99H91.3838V151.235C91.3838 151.395 91.4138 151.508 91.4738 151.575C91.5371 151.642 91.6505 151.675 91.8138 151.675C91.9105 151.675 92.0071 151.653 92.1038 151.61V152.01C91.9771 152.053 91.8205 152.075 91.6338 152.075ZM93.5789 148.305H94.0839V149.93C94.3139 149.66 94.6206 149.525 95.0039 149.525C95.3239 149.525 95.5622 149.61 95.7189 149.78C95.8756 149.95 95.9539 150.178 95.9539 150.465V152H95.4489V150.515C95.4489 150.125 95.2622 149.93 94.8889 149.93C94.7289 149.93 94.5789 149.968 94.4389 150.045C94.3022 150.118 94.1839 150.232 94.0839 150.385V152H93.5789V148.305ZM100.428 149.6H100.918V149.955C101.164 149.668 101.498 149.525 101.918 149.525C102.158 149.525 102.373 149.578 102.563 149.685C102.756 149.792 102.906 149.942 103.013 150.135C103.123 150.325 103.178 150.547 103.178 150.8C103.178 151.05 103.123 151.272 103.013 151.465C102.906 151.658 102.758 151.808 102.568 151.915C102.378 152.022 102.161 152.075 101.918 152.075C101.718 152.075 101.531 152.042 101.358 151.975C101.184 151.908 101.043 151.81 100.933 151.68V153.095H100.428V149.6ZM101.803 151.675C101.966 151.675 102.113 151.64 102.243 151.57C102.376 151.497 102.479 151.393 102.553 151.26C102.629 151.127 102.668 150.973 102.668 150.8C102.668 150.627 102.629 150.475 102.553 150.345C102.479 150.212 102.376 150.11 102.243 150.04C102.113 149.967 101.966 149.93 101.803 149.93C101.599 149.93 101.419 149.983 101.263 150.09C101.109 150.197 100.999 150.343 100.933 150.53V151.07C100.989 151.253 101.098 151.4 101.258 151.51C101.418 151.62 101.599 151.675 101.803 151.675ZM104.728 149.6H105.218V150.03C105.318 149.883 105.458 149.775 105.638 149.705C105.822 149.635 106.033 149.6 106.273 149.6V149.995C106.017 149.995 105.797 150.037 105.613 150.12C105.43 150.203 105.303 150.335 105.233 150.515V152H104.728V149.6ZM108.917 152.075C108.647 152.075 108.409 152.025 108.202 151.925C107.999 151.822 107.839 151.675 107.722 151.485C107.609 151.292 107.552 151.065 107.552 150.805C107.552 150.548 107.609 150.323 107.722 150.13C107.835 149.937 107.995 149.788 108.202 149.685C108.409 149.578 108.647 149.525 108.917 149.525C109.187 149.525 109.425 149.578 109.632 149.685C109.839 149.788 109.999 149.937 110.112 150.13C110.229 150.323 110.287 150.548 110.287 150.805C110.287 151.065 110.229 151.292 110.112 151.485C109.999 151.675 109.839 151.822 109.632 151.925C109.425 152.025 109.187 152.075 108.917 152.075ZM108.917 151.675C109.177 151.675 109.384 151.595 109.537 151.435C109.69 151.275 109.767 151.065 109.767 150.805C109.767 150.535 109.69 150.322 109.537 150.165C109.384 150.008 109.177 149.93 108.917 149.93C108.657 149.93 108.45 150.008 108.297 150.165C108.144 150.322 108.067 150.535 108.067 150.805C108.067 151.065 108.144 151.275 108.297 151.435C108.45 151.595 108.657 151.675 108.917 151.675ZM111.836 149.6H112.326V149.955C112.572 149.668 112.906 149.525 113.326 149.525C113.566 149.525 113.781 149.578 113.971 149.685C114.164 149.792 114.314 149.942 114.421 150.135C114.531 150.325 114.586 150.547 114.586 150.8C114.586 151.05 114.531 151.272 114.421 151.465C114.314 151.658 114.166 151.808 113.976 151.915C113.786 152.022 113.569 152.075 113.326 152.075C113.126 152.075 112.939 152.042 112.766 151.975C112.592 151.908 112.451 151.81 112.341 151.68V153.095H111.836V149.6ZM113.211 151.675C113.374 151.675 113.521 151.64 113.651 151.57C113.784 151.497 113.887 151.393 113.961 151.26C114.037 151.127 114.076 150.973 114.076 150.8C114.076 150.627 114.037 150.475 113.961 150.345C113.887 150.212 113.784 150.11 113.651 150.04C113.521 149.967 113.374 149.93 113.211 149.93C113.007 149.93 112.827 149.983 112.671 150.09C112.517 150.197 112.407 150.343 112.341 150.53V151.07C112.397 151.253 112.506 151.4 112.666 151.51C112.826 151.62 113.007 151.675 113.211 151.675ZM117.457 152.075C117.013 152.075 116.665 151.965 116.412 151.745C116.162 151.522 116.037 151.208 116.037 150.805C116.037 150.412 116.148 150.1 116.372 149.87C116.598 149.64 116.92 149.525 117.337 149.525C117.613 149.525 117.848 149.578 118.042 149.685C118.235 149.788 118.38 149.933 118.477 150.12C118.577 150.303 118.627 150.513 118.627 150.75V151H116.517C116.533 151.227 116.628 151.397 116.802 151.51C116.978 151.62 117.217 151.675 117.517 151.675C117.67 151.675 117.825 151.662 117.982 151.635C118.138 151.605 118.277 151.567 118.397 151.52V151.925C118.29 151.968 118.148 152.003 117.972 152.03C117.798 152.06 117.627 152.075 117.457 152.075ZM118.152 150.645C118.145 150.418 118.07 150.243 117.927 150.12C117.787 149.993 117.587 149.93 117.327 149.93C117.073 149.93 116.877 149.995 116.737 150.125C116.597 150.255 116.523 150.428 116.517 150.645H118.152ZM120.179 149.6H120.669V150.03C120.769 149.883 120.909 149.775 121.089 149.705C121.272 149.635 121.484 149.6 121.724 149.6V149.995C121.467 149.995 121.247 150.037 121.064 150.12C120.88 150.203 120.754 150.335 120.684 150.515V152H120.179V149.6ZM18.185 160.075C17.895 160.075 17.6617 160.002 17.485 159.855C17.3117 159.705 17.225 159.503 17.225 159.25C17.225 158.983 17.3083 158.778 17.475 158.635C17.645 158.488 17.885 158.415 18.195 158.415C18.525 158.415 18.805 158.482 19.035 158.615V158.49C19.035 158.3 18.9767 158.16 18.86 158.07C18.7467 157.977 18.5667 157.93 18.32 157.93C18.1733 157.93 18.03 157.945 17.89 157.975C17.7533 158.002 17.63 158.04 17.52 158.09V157.68C17.62 157.633 17.75 157.597 17.91 157.57C18.07 157.54 18.225 157.525 18.375 157.525C18.7717 157.525 19.065 157.613 19.255 157.79C19.4483 157.963 19.545 158.205 19.545 158.515V160H19.07V159.73C18.9667 159.843 18.8433 159.93 18.7 159.99C18.56 160.047 18.3883 160.075 18.185 160.075ZM18.31 159.69C18.47 159.69 18.615 159.658 18.745 159.595C18.875 159.532 18.9717 159.443 19.035 159.33V159.005C18.8183 158.865 18.5767 158.795 18.31 158.795C18.1167 158.795 17.9717 158.833 17.875 158.91C17.7817 158.983 17.735 159.097 17.735 159.25C17.735 159.543 17.9267 159.69 18.31 159.69ZM21.9697 160.075C21.7264 160.075 21.5381 160.005 21.4047 159.865C21.2747 159.725 21.2097 159.527 21.2097 159.27V157.99H20.8447V157.6H21.2097V156.88H21.7197V157.6H22.3097V157.99H21.7197V159.235C21.7197 159.395 21.7497 159.508 21.8097 159.575C21.8731 159.642 21.9864 159.675 22.1497 159.675C22.2464 159.675 22.3431 159.653 22.4397 159.61V160.01C22.3131 160.053 22.1564 160.075 21.9697 160.075ZM24.7129 160.075C24.4696 160.075 24.2812 160.005 24.1479 159.865C24.0179 159.725 23.9529 159.527 23.9529 159.27V157.99H23.5879V157.6H23.9529V156.88H24.4629V157.6H25.0529V157.99H24.4629V159.235C24.4629 159.395 24.4929 159.508 24.5529 159.575C24.6162 159.642 24.7296 159.675 24.8929 159.675C24.9896 159.675 25.0862 159.653 25.1829 159.61V160.01C25.0562 160.053 24.8996 160.075 24.7129 160.075ZM26.953 157.13C26.8697 157.13 26.7997 157.102 26.743 157.045C26.6863 156.988 26.658 156.918 26.658 156.835C26.658 156.752 26.6863 156.682 26.743 156.625C26.7997 156.568 26.8697 156.54 26.953 156.54C27.0397 156.54 27.1113 156.568 27.168 156.625C27.228 156.682 27.258 156.752 27.258 156.835C27.258 156.918 27.228 156.988 27.168 157.045C27.1113 157.102 27.0397 157.13 26.953 157.13ZM26.698 157.6H27.213V160H26.698V157.6ZM28.908 157.6H29.398V158.03C29.498 157.883 29.638 157.775 29.818 157.705C30.0013 157.635 30.213 157.6 30.453 157.6V157.995C30.1963 157.995 29.9763 158.037 29.793 158.12C29.6097 158.203 29.483 158.335 29.413 158.515V160H28.908V157.6ZM33.0737 160.075C32.6304 160.075 32.282 159.965 32.0287 159.745C31.7787 159.522 31.6537 159.208 31.6537 158.805C31.6537 158.412 31.7654 158.1 31.9887 157.87C32.2154 157.64 32.537 157.525 32.9537 157.525C33.2304 157.525 33.4654 157.578 33.6587 157.685C33.852 157.788 33.997 157.933 34.0937 158.12C34.1937 158.303 34.2437 158.513 34.2437 158.75V159H32.1337C32.1504 159.227 32.2454 159.397 32.4187 159.51C32.5954 159.62 32.8337 159.675 33.1337 159.675C33.287 159.675 33.442 159.662 33.5987 159.635C33.7554 159.605 33.8937 159.567 34.0137 159.52V159.925C33.907 159.968 33.7654 160.003 33.5887 160.03C33.4154 160.06 33.2437 160.075 33.0737 160.075ZM33.7687 158.645C33.762 158.418 33.687 158.243 33.5437 158.12C33.4037 157.993 33.2037 157.93 32.9437 157.93C32.6904 157.93 32.4937 157.995 32.3537 158.125C32.2137 158.255 32.1404 158.428 32.1337 158.645H33.7687ZM36.1007 159.735H36.6307L36.1557 160.74H35.6957L36.1007 159.735ZM41.958 160.075C41.7147 160.075 41.5263 160.005 41.393 159.865C41.263 159.725 41.198 159.527 41.198 159.27V157.99H40.833V157.6H41.198V156.88H41.708V157.6H42.298V157.99H41.708V159.235C41.708 159.395 41.738 159.508 41.798 159.575C41.8613 159.642 41.9747 159.675 42.138 159.675C42.2347 159.675 42.3313 159.653 42.428 159.61V160.01C42.3013 160.053 42.1447 160.075 41.958 160.075ZM43.9031 156.305H44.4081V157.93C44.6381 157.66 44.9448 157.525 45.3281 157.525C45.6481 157.525 45.8865 157.61 46.0431 157.78C46.1998 157.95 46.2781 158.178 46.2781 158.465V160H45.7731V158.515C45.7731 158.125 45.5865 157.93 45.2131 157.93C45.0531 157.93 44.9031 157.968 44.7631 158.045C44.6265 158.118 44.5081 158.232 44.4081 158.385V160H43.9031V156.305ZM48.1962 157.13C48.1128 157.13 48.0428 157.102 47.9862 157.045C47.9295 156.988 47.9012 156.918 47.9012 156.835C47.9012 156.752 47.9295 156.682 47.9862 156.625C48.0428 156.568 48.1128 156.54 48.1962 156.54C48.2828 156.54 48.3545 156.568 48.4112 156.625C48.4712 156.682 48.5012 156.752 48.5012 156.835C48.5012 156.918 48.4712 156.988 48.4112 157.045C48.3545 157.102 48.2828 157.13 48.1962 157.13ZM47.9412 157.6H48.4562V160H47.9412V157.6ZM51.0362 160.075C50.8695 160.075 50.6928 160.053 50.5062 160.01C50.3195 159.97 50.1728 159.915 50.0662 159.845V159.415C50.1962 159.492 50.3462 159.555 50.5162 159.605C50.6862 159.652 50.8512 159.675 51.0112 159.675C51.1912 159.675 51.3228 159.653 51.4062 159.61C51.4895 159.567 51.5312 159.497 51.5312 159.4C51.5312 159.327 51.5112 159.268 51.4712 159.225C51.4345 159.178 51.3695 159.137 51.2762 159.1C51.1862 159.063 51.0495 159.02 50.8662 158.97C50.6695 158.913 50.5128 158.857 50.3962 158.8C50.2828 158.74 50.1962 158.665 50.1362 158.575C50.0795 158.485 50.0512 158.368 50.0512 158.225C50.0512 157.995 50.1412 157.822 50.3212 157.705C50.5045 157.585 50.7495 157.525 51.0562 157.525C51.2162 157.525 51.3728 157.54 51.5262 157.57C51.6795 157.6 51.8028 157.642 51.8962 157.695V158.115C51.7995 158.058 51.6795 158.013 51.5362 157.98C51.3962 157.947 51.2528 157.93 51.1062 157.93C50.9295 157.93 50.7945 157.952 50.7012 157.995C50.6078 158.038 50.5612 158.115 50.5612 158.225C50.5612 158.295 50.5812 158.352 50.6212 158.395C50.6612 158.438 50.7245 158.477 50.8112 158.51C50.9012 158.54 51.0428 158.58 51.2362 158.63C51.5395 158.713 51.7495 158.812 51.8662 158.925C51.9862 159.038 52.0462 159.195 52.0462 159.395C52.0462 159.602 51.9612 159.767 51.7912 159.89C51.6212 160.013 51.3695 160.075 51.0362 160.075ZM56.348 157.6H56.863L57.403 159.38L57.938 157.6H58.393L58.928 159.38L59.468 157.6H59.988L59.208 160H58.723L58.168 158.21L57.613 160H57.123L56.348 157.6ZM62.1264 160.075C61.8364 160.075 61.6031 160.002 61.4264 159.855C61.2531 159.705 61.1664 159.503 61.1664 159.25C61.1664 158.983 61.2497 158.778 61.4164 158.635C61.5864 158.488 61.8264 158.415 62.1364 158.415C62.4664 158.415 62.7464 158.482 62.9764 158.615V158.49C62.9764 158.3 62.9181 158.16 62.8014 158.07C62.6881 157.977 62.5081 157.93 62.2614 157.93C62.1147 157.93 61.9714 157.945 61.8314 157.975C61.6947 158.002 61.5714 158.04 61.4614 158.09V157.68C61.5614 157.633 61.6914 157.597 61.8514 157.57C62.0114 157.54 62.1664 157.525 62.3164 157.525C62.7131 157.525 63.0064 157.613 63.1964 157.79C63.3897 157.963 63.4864 158.205 63.4864 158.515V160H63.0114V159.73C62.9081 159.843 62.7847 159.93 62.6414 159.99C62.5014 160.047 62.3297 160.075 62.1264 160.075ZM62.2514 159.69C62.4114 159.69 62.5564 159.658 62.6864 159.595C62.8164 159.532 62.9131 159.443 62.9764 159.33V159.005C62.7597 158.865 62.5181 158.795 62.2514 158.795C62.0581 158.795 61.9131 158.833 61.8164 158.91C61.7231 158.983 61.6764 159.097 61.6764 159.25C61.6764 159.543 61.8681 159.69 62.2514 159.69ZM65.9111 160.075C65.6678 160.075 65.4795 160.005 65.3461 159.865C65.2161 159.725 65.1511 159.527 65.1511 159.27V157.99H64.7861V157.6H65.1511V156.88H65.6611V157.6H66.2511V157.99H65.6611V159.235C65.6611 159.395 65.6911 159.508 65.7511 159.575C65.8145 159.642 65.9278 159.675 66.0911 159.675C66.1878 159.675 66.2845 159.653 66.3811 159.61V160.01C66.2545 160.053 66.0978 160.075 65.9111 160.075ZM69.1763 160.075C68.7329 160.075 68.3846 159.965 68.1313 159.745C67.8813 159.522 67.7563 159.208 67.7563 158.805C67.7563 158.412 67.8679 158.1 68.0913 157.87C68.3179 157.64 68.6396 157.525 69.0563 157.525C69.3329 157.525 69.5679 157.578 69.7613 157.685C69.9546 157.788 70.0996 157.933 70.1963 158.12C70.2963 158.303 70.3463 158.513 70.3463 158.75V159H68.2363C68.2529 159.227 68.3479 159.397 68.5213 159.51C68.6979 159.62 68.9363 159.675 69.2363 159.675C69.3896 159.675 69.5446 159.662 69.7013 159.635C69.8579 159.605 69.9963 159.567 70.1163 159.52V159.925C70.0096 159.968 69.8679 160.003 69.6913 160.03C69.5179 160.06 69.3463 160.075 69.1763 160.075ZM69.8713 158.645C69.8646 158.418 69.7896 158.243 69.6463 158.12C69.5063 157.993 69.3063 157.93 69.0463 157.93C68.7929 157.93 68.5963 157.995 68.4563 158.125C68.3163 158.255 68.2429 158.428 68.2363 158.645H69.8713ZM71.8982 157.6H72.3882V158.03C72.4882 157.883 72.6282 157.775 72.8082 157.705C72.9916 157.635 73.2032 157.6 73.4432 157.6V157.995C73.1866 157.995 72.9666 158.037 72.7832 158.12C72.5999 158.203 72.4732 158.335 72.4032 158.515V160H71.8982V157.6ZM78.0409 157.13C77.9576 157.13 77.8876 157.102 77.8309 157.045C77.7742 156.988 77.7459 156.918 77.7459 156.835C77.7459 156.752 77.7742 156.682 77.8309 156.625C77.8876 156.568 77.9576 156.54 78.0409 156.54C78.1276 156.54 78.1992 156.568 78.2559 156.625C78.3159 156.682 78.3459 156.752 78.3459 156.835C78.3459 156.918 78.3159 156.988 78.2559 157.045C78.1992 157.102 78.1276 157.13 78.0409 157.13ZM77.7859 157.6H78.3009V160H77.7859V157.6ZM80.8809 160.075C80.7142 160.075 80.5376 160.053 80.3509 160.01C80.1642 159.97 80.0176 159.915 79.9109 159.845V159.415C80.0409 159.492 80.1909 159.555 80.3609 159.605C80.5309 159.652 80.6959 159.675 80.8559 159.675C81.0359 159.675 81.1676 159.653 81.2509 159.61C81.3342 159.567 81.3759 159.497 81.3759 159.4C81.3759 159.327 81.3559 159.268 81.3159 159.225C81.2792 159.178 81.2142 159.137 81.1209 159.1C81.0309 159.063 80.8942 159.02 80.7109 158.97C80.5142 158.913 80.3576 158.857 80.2409 158.8C80.1276 158.74 80.0409 158.665 79.9809 158.575C79.9242 158.485 79.8959 158.368 79.8959 158.225C79.8959 157.995 79.9859 157.822 80.1659 157.705C80.3492 157.585 80.5942 157.525 80.9009 157.525C81.0609 157.525 81.2176 157.54 81.3709 157.57C81.5242 157.6 81.6476 157.642 81.7409 157.695V158.115C81.6442 158.058 81.5242 158.013 81.3809 157.98C81.2409 157.947 81.0976 157.93 80.9509 157.93C80.7742 157.93 80.6392 157.952 80.5459 157.995C80.4526 158.038 80.4059 158.115 80.4059 158.225C80.4059 158.295 80.4259 158.352 80.4659 158.395C80.5059 158.438 80.5692 158.477 80.6559 158.51C80.7459 158.54 80.8876 158.58 81.0809 158.63C81.3842 158.713 81.5942 158.812 81.7109 158.925C81.8309 159.038 81.8909 159.195 81.8909 159.395C81.8909 159.602 81.8059 159.767 81.6359 159.89C81.4659 160.013 81.2142 160.075 80.8809 160.075ZM87.1778 160.075C87.0111 160.075 86.8344 160.053 86.6478 160.01C86.4611 159.97 86.3144 159.915 86.2078 159.845V159.415C86.3378 159.492 86.4878 159.555 86.6578 159.605C86.8278 159.652 86.9928 159.675 87.1528 159.675C87.3328 159.675 87.4644 159.653 87.5478 159.61C87.6311 159.567 87.6728 159.497 87.6728 159.4C87.6728 159.327 87.6528 159.268 87.6128 159.225C87.5761 159.178 87.5111 159.137 87.4178 159.1C87.3278 159.063 87.1911 159.02 87.0078 158.97C86.8111 158.913 86.6544 158.857 86.5378 158.8C86.4244 158.74 86.3378 158.665 86.2778 158.575C86.2211 158.485 86.1928 158.368 86.1928 158.225C86.1928 157.995 86.2828 157.822 86.4628 157.705C86.6461 157.585 86.8911 157.525 87.1978 157.525C87.3578 157.525 87.5144 157.54 87.6678 157.57C87.8211 157.6 87.9444 157.642 88.0378 157.695V158.115C87.9411 158.058 87.8211 158.013 87.6778 157.98C87.5378 157.947 87.3944 157.93 87.2478 157.93C87.0711 157.93 86.9361 157.952 86.8428 157.995C86.7494 158.038 86.7028 158.115 86.7028 158.225C86.7028 158.295 86.7228 158.352 86.7628 158.395C86.8028 158.438 86.8661 158.477 86.9528 158.51C87.0428 158.54 87.1844 158.58 87.3778 158.63C87.6811 158.713 87.8911 158.812 88.0078 158.925C88.1278 159.038 88.1878 159.195 88.1878 159.395C88.1878 159.602 88.1028 159.767 87.9328 159.89C87.7628 160.013 87.5111 160.075 87.1778 160.075ZM90.6941 160.075C90.3707 160.075 90.1257 159.988 89.9591 159.815C89.7957 159.642 89.7141 159.41 89.7141 159.12V157.6H90.2191V159.1C90.2191 159.483 90.4107 159.675 90.7941 159.675C91.1307 159.675 91.3941 159.523 91.5841 159.22V157.6H92.0891V160H91.5991V159.66C91.4857 159.803 91.3507 159.908 91.1941 159.975C91.0407 160.042 90.8741 160.075 90.6941 160.075ZM93.7371 157.6H94.2271V158.03C94.3271 157.883 94.4671 157.775 94.6471 157.705C94.8304 157.635 95.0421 157.6 95.2821 157.6V157.995C95.0254 157.995 94.8054 158.037 94.6221 158.12C94.4388 158.203 94.3121 158.335 94.2421 158.515V160H93.7371V157.6ZM97.9028 160.075C97.4595 160.075 97.1111 159.965 96.8578 159.745C96.6078 159.522 96.4828 159.208 96.4828 158.805C96.4828 158.412 96.5945 158.1 96.8178 157.87C97.0445 157.64 97.3661 157.525 97.7828 157.525C98.0595 157.525 98.2945 157.578 98.4878 157.685C98.6811 157.788 98.8261 157.933 98.9228 158.12C99.0228 158.303 99.0728 158.513 99.0728 158.75V159H96.9628C96.9795 159.227 97.0745 159.397 97.2478 159.51C97.4245 159.62 97.6628 159.675 97.9628 159.675C98.1161 159.675 98.2711 159.662 98.4278 159.635C98.5845 159.605 98.7228 159.567 98.8428 159.52V159.925C98.7361 159.968 98.5945 160.003 98.4178 160.03C98.2445 160.06 98.0728 160.075 97.9028 160.075ZM98.5978 158.645C98.5911 158.418 98.5161 158.243 98.3728 158.12C98.2328 157.993 98.0328 157.93 97.7728 157.93C97.5195 157.93 97.3228 157.995 97.1828 158.125C97.0428 158.255 96.9695 158.428 96.9628 158.645H98.5978ZM104.4 160.075C104.157 160.075 103.969 160.005 103.835 159.865C103.705 159.725 103.64 159.527 103.64 159.27V157.99H103.275V157.6H103.64V156.88H104.15V157.6H104.74V157.99H104.15V159.235C104.15 159.395 104.18 159.508 104.24 159.575C104.304 159.642 104.417 159.675 104.58 159.675C104.677 159.675 104.774 159.653 104.87 159.61V160.01C104.744 160.053 104.587 160.075 104.4 160.075ZM107.586 160.075C107.316 160.075 107.078 160.025 106.871 159.925C106.668 159.822 106.508 159.675 106.391 159.485C106.278 159.292 106.221 159.065 106.221 158.805C106.221 158.548 106.278 158.323 106.391 158.13C106.504 157.937 106.664 157.788 106.871 157.685C107.078 157.578 107.316 157.525 107.586 157.525C107.856 157.525 108.094 157.578 108.301 157.685C108.508 157.788 108.668 157.937 108.781 158.13C108.898 158.323 108.956 158.548 108.956 158.805C108.956 159.065 108.898 159.292 108.781 159.485C108.668 159.675 108.508 159.822 108.301 159.925C108.094 160.025 107.856 160.075 107.586 160.075ZM107.586 159.675C107.846 159.675 108.053 159.595 108.206 159.435C108.359 159.275 108.436 159.065 108.436 158.805C108.436 158.535 108.359 158.322 108.206 158.165C108.053 158.008 107.846 157.93 107.586 157.93C107.326 157.93 107.119 158.008 106.966 158.165C106.813 158.322 106.736 158.535 106.736 158.805C106.736 159.065 106.813 159.275 106.966 159.435C107.119 159.595 107.326 159.675 107.586 159.675ZM114.845 160.075C114.629 160.075 114.44 160.042 114.28 159.975C114.124 159.905 113.979 159.797 113.845 159.65V160H113.355V156.305H113.86V157.92C113.97 157.79 114.112 157.692 114.285 157.625C114.459 157.558 114.645 157.525 114.845 157.525C115.085 157.525 115.3 157.58 115.49 157.69C115.684 157.797 115.834 157.947 115.94 158.14C116.05 158.333 116.105 158.555 116.105 158.805C116.105 159.058 116.05 159.282 115.94 159.475C115.834 159.665 115.684 159.813 115.49 159.92C115.3 160.023 115.085 160.075 114.845 160.075ZM114.73 159.675C114.894 159.675 115.04 159.64 115.17 159.57C115.304 159.497 115.407 159.393 115.48 159.26C115.557 159.127 115.595 158.975 115.595 158.805C115.595 158.635 115.557 158.483 115.48 158.35C115.407 158.217 115.304 158.113 115.17 158.04C115.04 157.967 114.894 157.93 114.73 157.93C114.527 157.93 114.345 157.985 114.185 158.095C114.025 158.205 113.917 158.352 113.86 158.535V159.075C113.924 159.258 114.032 159.405 114.185 159.515C114.342 159.622 114.524 159.675 114.73 159.675ZM118.976 160.075C118.533 160.075 118.184 159.965 117.931 159.745C117.681 159.522 117.556 159.208 117.556 158.805C117.556 158.412 117.668 158.1 117.891 157.87C118.118 157.64 118.439 157.525 118.856 157.525C119.133 157.525 119.368 157.578 119.561 157.685C119.754 157.788 119.899 157.933 119.996 158.12C120.096 158.303 120.146 158.513 120.146 158.75V159H118.036C118.053 159.227 118.148 159.397 118.321 159.51C118.498 159.62 118.736 159.675 119.036 159.675C119.189 159.675 119.344 159.662 119.501 159.635C119.658 159.605 119.796 159.567 119.916 159.52V159.925C119.809 159.968 119.668 160.003 119.491 160.03C119.318 160.06 119.146 160.075 118.976 160.075ZM119.671 158.645C119.664 158.418 119.589 158.243 119.446 158.12C119.306 157.993 119.106 157.93 118.846 157.93C118.593 157.93 118.396 157.995 118.256 158.125C118.116 158.255 118.043 158.428 118.036 158.645H119.671ZM18.185 168.075C17.895 168.075 17.6617 168.002 17.485 167.855C17.3117 167.705 17.225 167.503 17.225 167.25C17.225 166.983 17.3083 166.778 17.475 166.635C17.645 166.488 17.885 166.415 18.195 166.415C18.525 166.415 18.805 166.482 19.035 166.615V166.49C19.035 166.3 18.9767 166.16 18.86 166.07C18.7467 165.977 18.5667 165.93 18.32 165.93C18.1733 165.93 18.03 165.945 17.89 165.975C17.7533 166.002 17.63 166.04 17.52 166.09V165.68C17.62 165.633 17.75 165.597 17.91 165.57C18.07 165.54 18.225 165.525 18.375 165.525C18.7717 165.525 19.065 165.613 19.255 165.79C19.4483 165.963 19.545 166.205 19.545 166.515V168H19.07V167.73C18.9667 167.843 18.8433 167.93 18.7 167.99C18.56 168.047 18.3883 168.075 18.185 168.075ZM18.31 167.69C18.47 167.69 18.615 167.658 18.745 167.595C18.875 167.532 18.9717 167.443 19.035 167.33V167.005C18.8183 166.865 18.5767 166.795 18.31 166.795C18.1167 166.795 17.9717 166.833 17.875 166.91C17.7817 166.983 17.735 167.097 17.735 167.25C17.735 167.543 17.9267 167.69 18.31 167.69ZM22.6617 168.075C22.445 168.075 22.2567 168.042 22.0967 167.975C21.94 167.905 21.795 167.797 21.6617 167.65V168H21.1717V164.305H21.6767V165.92C21.7867 165.79 21.9283 165.692 22.1017 165.625C22.275 165.558 22.4617 165.525 22.6617 165.525C22.9017 165.525 23.1167 165.58 23.3067 165.69C23.5 165.797 23.65 165.947 23.7567 166.14C23.8667 166.333 23.9217 166.555 23.9217 166.805C23.9217 167.058 23.8667 167.282 23.7567 167.475C23.65 167.665 23.5 167.813 23.3067 167.92C23.1167 168.023 22.9017 168.075 22.6617 168.075ZM22.5467 167.675C22.71 167.675 22.8567 167.64 22.9867 167.57C23.12 167.497 23.2233 167.393 23.2967 167.26C23.3733 167.127 23.4117 166.975 23.4117 166.805C23.4117 166.635 23.3733 166.483 23.2967 166.35C23.2233 166.217 23.12 166.113 22.9867 166.04C22.8567 165.967 22.71 165.93 22.5467 165.93C22.3433 165.93 22.1617 165.985 22.0017 166.095C21.8417 166.205 21.7333 166.352 21.6767 166.535V167.075C21.74 167.258 21.8483 167.405 22.0017 167.515C22.1583 167.622 22.34 167.675 22.5467 167.675ZM25.4725 164.305H25.9775V168H25.4725V164.305ZM28.9497 168.075C28.5064 168.075 28.158 167.965 27.9047 167.745C27.6547 167.522 27.5297 167.208 27.5297 166.805C27.5297 166.412 27.6414 166.1 27.8647 165.87C28.0914 165.64 28.413 165.525 28.8297 165.525C29.1064 165.525 29.3414 165.578 29.5347 165.685C29.728 165.788 29.873 165.933 29.9697 166.12C30.0697 166.303 30.1197 166.513 30.1197 166.75V167H28.0097C28.0264 167.227 28.1214 167.397 28.2947 167.51C28.4714 167.62 28.7097 167.675 29.0097 167.675C29.163 167.675 29.318 167.662 29.4747 167.635C29.6314 167.605 29.7697 167.567 29.8897 167.52V167.925C29.783 167.968 29.6414 168.003 29.4647 168.03C29.2914 168.06 29.1197 168.075 28.9497 168.075ZM29.6447 166.645C29.638 166.418 29.563 166.243 29.4197 166.12C29.2797 165.993 29.0797 165.93 28.8197 165.93C28.5664 165.93 28.3697 165.995 28.2297 166.125C28.0897 166.255 28.0164 166.428 28.0097 166.645H29.6447ZM35.4473 168.075C35.2039 168.075 35.0156 168.005 34.8823 167.865C34.7523 167.725 34.6873 167.527 34.6873 167.27V165.99H34.3223V165.6H34.6873V164.88H35.1973V165.6H35.7873V165.99H35.1973V167.235C35.1973 167.395 35.2273 167.508 35.2873 167.575C35.3506 167.642 35.4639 167.675 35.6273 167.675C35.7239 167.675 35.8206 167.653 35.9173 167.61V168.01C35.7906 168.053 35.6339 168.075 35.4473 168.075ZM38.633 168.075C38.363 168.075 38.1246 168.025 37.918 167.925C37.7146 167.822 37.5546 167.675 37.438 167.485C37.3246 167.292 37.268 167.065 37.268 166.805C37.268 166.548 37.3246 166.323 37.438 166.13C37.5513 165.937 37.7113 165.788 37.918 165.685C38.1246 165.578 38.363 165.525 38.633 165.525C38.903 165.525 39.1413 165.578 39.348 165.685C39.5546 165.788 39.7146 165.937 39.828 166.13C39.9446 166.323 40.003 166.548 40.003 166.805C40.003 167.065 39.9446 167.292 39.828 167.485C39.7146 167.675 39.5546 167.822 39.348 167.925C39.1413 168.025 38.903 168.075 38.633 168.075ZM38.633 167.675C38.893 167.675 39.0996 167.595 39.253 167.435C39.4063 167.275 39.483 167.065 39.483 166.805C39.483 166.535 39.4063 166.322 39.253 166.165C39.0996 166.008 38.893 165.93 38.633 165.93C38.373 165.93 38.1663 166.008 38.013 166.165C37.8596 166.322 37.783 166.535 37.783 166.805C37.783 167.065 37.8596 167.275 38.013 167.435C38.1663 167.595 38.373 167.675 38.633 167.675ZM44.5671 165.99H44.2021V165.6H44.5671V165.145C44.5671 164.868 44.6555 164.655 44.8321 164.505C45.0088 164.355 45.2288 164.28 45.4921 164.28C45.6255 164.28 45.7555 164.3 45.8821 164.34V164.75C45.7888 164.713 45.6921 164.695 45.5921 164.695C45.4221 164.695 45.2921 164.737 45.2021 164.82C45.1155 164.9 45.0721 165.018 45.0721 165.175V165.6H46.6921V168H46.1871V165.99H45.0721V168H44.5671V165.99ZM46.4371 165.13C46.3505 165.13 46.2788 165.102 46.2221 165.045C46.1655 164.988 46.1371 164.918 46.1371 164.835C46.1371 164.752 46.1655 164.682 46.2221 164.625C46.2821 164.568 46.3538 164.54 46.4371 164.54C46.5205 164.54 46.5905 164.568 46.6471 164.625C46.7071 164.682 46.7371 164.752 46.7371 164.835C46.7371 164.918 46.7071 164.988 46.6471 165.045C46.5905 165.102 46.5205 165.13 46.4371 165.13ZM49.3105 168.075C49.0672 168.075 48.8789 168.005 48.7455 167.865C48.6155 167.725 48.5505 167.527 48.5505 167.27V165.99H48.1855V165.6H48.5505V164.88H49.0605V165.6H49.6505V165.99H49.0605V167.235C49.0605 167.395 49.0905 167.508 49.1505 167.575C49.2139 167.642 49.3272 167.675 49.4905 167.675C49.5872 167.675 49.6839 167.653 49.7805 167.61V168.01C49.6539 168.053 49.4972 168.075 49.3105 168.075ZM54.9663 168.075C54.6763 168.075 54.4429 168.002 54.2663 167.855C54.0929 167.705 54.0063 167.503 54.0063 167.25C54.0063 166.983 54.0896 166.778 54.2563 166.635C54.4263 166.488 54.6663 166.415 54.9763 166.415C55.3063 166.415 55.5863 166.482 55.8163 166.615V166.49C55.8163 166.3 55.7579 166.16 55.6413 166.07C55.5279 165.977 55.3479 165.93 55.1012 165.93C54.9546 165.93 54.8113 165.945 54.6713 165.975C54.5346 166.002 54.4113 166.04 54.3013 166.09V165.68C54.4013 165.633 54.5313 165.597 54.6913 165.57C54.8513 165.54 55.0063 165.525 55.1563 165.525C55.5529 165.525 55.8463 165.613 56.0363 165.79C56.2296 165.963 56.3263 166.205 56.3263 166.515V168H55.8513V167.73C55.7479 167.843 55.6246 167.93 55.4813 167.99C55.3413 168.047 55.1696 168.075 54.9663 168.075ZM55.0913 167.69C55.2513 167.69 55.3963 167.658 55.5263 167.595C55.6563 167.532 55.7529 167.443 55.8163 167.33V167.005C55.5996 166.865 55.3579 166.795 55.0913 166.795C54.8979 166.795 54.7529 166.833 54.6563 166.91C54.5629 166.983 54.5162 167.097 54.5162 167.25C54.5162 167.543 54.7079 167.69 55.0913 167.69ZM57.9529 164.305H58.4579V168H57.9529V164.305ZM60.1102 164.305H60.6152V168H60.1102V164.305ZM65.628 168.99C65.448 168.99 65.298 168.972 65.178 168.935V168.54C65.2646 168.573 65.3713 168.59 65.498 168.59C65.6146 168.59 65.7063 168.56 65.773 168.5C65.8396 168.443 65.8996 168.35 65.953 168.22L66.068 167.94L65.018 165.6H65.538L66.338 167.445L67.083 165.6H67.603L66.523 168.27C66.423 168.52 66.303 168.702 66.163 168.815C66.0263 168.932 65.848 168.99 65.628 168.99ZM69.9904 168.075C69.7204 168.075 69.4821 168.025 69.2754 167.925C69.0721 167.822 68.9121 167.675 68.7954 167.485C68.6821 167.292 68.6254 167.065 68.6254 166.805C68.6254 166.548 68.6821 166.323 68.7954 166.13C68.9087 165.937 69.0687 165.788 69.2754 165.685C69.4821 165.578 69.7204 165.525 69.9904 165.525C70.2604 165.525 70.4987 165.578 70.7054 165.685C70.9121 165.788 71.0721 165.937 71.1854 166.13C71.3021 166.323 71.3604 166.548 71.3604 166.805C71.3604 167.065 71.3021 167.292 71.1854 167.485C71.0721 167.675 70.9121 167.822 70.7054 167.925C70.4987 168.025 70.2604 168.075 69.9904 168.075ZM69.9904 167.675C70.2504 167.675 70.4571 167.595 70.6104 167.435C70.7637 167.275 70.8404 167.065 70.8404 166.805C70.8404 166.535 70.7637 166.322 70.6104 166.165C70.4571 166.008 70.2504 165.93 69.9904 165.93C69.7304 165.93 69.5237 166.008 69.3704 166.165C69.2171 166.322 69.1404 166.535 69.1404 166.805C69.1404 167.065 69.2171 167.275 69.3704 167.435C69.5237 167.595 69.7304 167.675 69.9904 167.675ZM73.864 168.075C73.5407 168.075 73.2957 167.988 73.129 167.815C72.9657 167.642 72.884 167.41 72.884 167.12V165.6H73.389V167.1C73.389 167.483 73.5807 167.675 73.964 167.675C74.3007 167.675 74.564 167.523 74.754 167.22V165.6H75.259V168H74.769V167.66C74.6557 167.803 74.5207 167.908 74.364 167.975C74.2107 168.042 74.044 168.075 73.864 168.075ZM76.907 165.6H77.397V166.03C77.497 165.883 77.637 165.775 77.817 165.705C78.0004 165.635 78.212 165.6 78.452 165.6V165.995C78.1954 165.995 77.9754 166.037 77.792 166.12C77.6087 166.203 77.482 166.335 77.412 166.515V168H76.907V165.6ZM82.9197 165.99H82.5547V165.6H82.9197V165.145C82.9197 164.868 83.008 164.655 83.1847 164.505C83.3614 164.355 83.5814 164.28 83.8447 164.28C83.978 164.28 84.108 164.3 84.2347 164.34V164.75C84.1414 164.713 84.0447 164.695 83.9447 164.695C83.7747 164.695 83.6447 164.737 83.5547 164.82C83.468 164.9 83.4247 165.018 83.4247 165.175V165.6H85.0447V168H84.5397V165.99H83.4247V168H82.9197V165.99ZM84.7897 165.13C84.703 165.13 84.6314 165.102 84.5747 165.045C84.518 164.988 84.4897 164.918 84.4897 164.835C84.4897 164.752 84.518 164.682 84.5747 164.625C84.6347 164.568 84.7064 164.54 84.7897 164.54C84.873 164.54 84.943 164.568 84.9997 164.625C85.0597 164.682 85.0897 164.752 85.0897 164.835C85.0897 164.918 85.0597 164.988 84.9997 165.045C84.943 165.102 84.873 165.13 84.7897 165.13ZM87.6231 168.075C87.4564 168.075 87.2798 168.053 87.0931 168.01C86.9064 167.97 86.7598 167.915 86.6531 167.845V167.415C86.7831 167.492 86.9331 167.555 87.1031 167.605C87.2731 167.652 87.4381 167.675 87.5981 167.675C87.7781 167.675 87.9098 167.653 87.9931 167.61C88.0764 167.567 88.1181 167.497 88.1181 167.4C88.1181 167.327 88.0981 167.268 88.0581 167.225C88.0214 167.178 87.9564 167.137 87.8631 167.1C87.7731 167.063 87.6364 167.02 87.4531 166.97C87.2564 166.913 87.0998 166.857 86.9831 166.8C86.8698 166.74 86.7831 166.665 86.7231 166.575C86.6664 166.485 86.6381 166.368 86.6381 166.225C86.6381 165.995 86.7281 165.822 86.9081 165.705C87.0914 165.585 87.3364 165.525 87.6431 165.525C87.8031 165.525 87.9598 165.54 88.1131 165.57C88.2664 165.6 88.3898 165.642 88.4831 165.695V166.115C88.3864 166.058 88.2664 166.013 88.1231 165.98C87.9831 165.947 87.8398 165.93 87.6931 165.93C87.5164 165.93 87.3814 165.952 87.2881 165.995C87.1948 166.038 87.1481 166.115 87.1481 166.225C87.1481 166.295 87.1681 166.352 87.2081 166.395C87.2481 166.438 87.3114 166.477 87.3981 166.51C87.4881 166.54 87.6298 166.58 87.8231 166.63C88.1264 166.713 88.3364 166.812 88.4531 166.925C88.5731 167.038 88.6331 167.195 88.6331 167.395C88.6331 167.602 88.5481 167.767 88.3781 167.89C88.2081 168.013 87.9564 168.075 87.6231 168.075ZM90.1844 164.305H90.6894V165.93C90.9194 165.66 91.226 165.525 91.6094 165.525C91.9294 165.525 92.1677 165.61 92.3244 165.78C92.481 165.95 92.5594 166.178 92.5594 166.465V168H92.0544V166.515C92.0544 166.125 91.8677 165.93 91.4944 165.93C91.3344 165.93 91.1844 165.968 91.0444 166.045C90.9077 166.118 90.7894 166.232 90.6894 166.385V168H90.1844V164.305ZM94.4678 168.99C94.2878 168.99 94.1378 168.972 94.0178 168.935V168.54C94.1045 168.573 94.2111 168.59 94.3378 168.59C94.4545 168.59 94.5461 168.56 94.6128 168.5C94.6795 168.443 94.7395 168.35 94.7928 168.22L94.9078 167.94L93.8578 165.6H94.3778L95.1778 167.445L95.9228 165.6H96.4428L95.3628 168.27C95.2628 168.52 95.1428 168.702 95.0028 168.815C94.8661 168.932 94.6878 168.99 94.4678 168.99ZM100.743 165.6H101.233V165.945C101.346 165.802 101.485 165.697 101.648 165.63C101.815 165.56 101.988 165.525 102.168 165.525C102.488 165.525 102.726 165.61 102.883 165.78C103.04 165.95 103.118 166.178 103.118 166.465V168H102.613V166.515C102.613 166.125 102.426 165.93 102.053 165.93C101.893 165.93 101.743 165.968 101.603 166.045C101.466 166.118 101.348 166.232 101.248 166.385V168H100.743V165.6ZM106.061 168.075C105.618 168.075 105.269 167.965 105.016 167.745C104.766 167.522 104.641 167.208 104.641 166.805C104.641 166.412 104.753 166.1 104.976 165.87C105.203 165.64 105.524 165.525 105.941 165.525C106.218 165.525 106.453 165.578 106.646 165.685C106.839 165.788 106.984 165.933 107.081 166.12C107.181 166.303 107.231 166.513 107.231 166.75V167H105.121C105.138 167.227 105.233 167.397 105.406 167.51C105.583 167.62 105.821 167.675 106.121 167.675C106.274 167.675 106.429 167.662 106.586 167.635C106.743 167.605 106.881 167.567 107.001 167.52V167.925C106.894 167.968 106.753 168.003 106.576 168.03C106.403 168.06 106.231 168.075 106.061 168.075ZM106.756 166.645C106.749 166.418 106.674 166.243 106.531 166.12C106.391 165.993 106.191 165.93 105.931 165.93C105.678 165.93 105.481 165.995 105.341 166.125C105.201 166.255 105.128 166.428 105.121 166.645H106.756ZM110.103 168.075C109.66 168.075 109.311 167.965 109.058 167.745C108.808 167.522 108.683 167.208 108.683 166.805C108.683 166.412 108.795 166.1 109.018 165.87C109.245 165.64 109.566 165.525 109.983 165.525C110.26 165.525 110.495 165.578 110.688 165.685C110.881 165.788 111.026 165.933 111.123 166.12C111.223 166.303 111.273 166.513 111.273 166.75V167H109.163C109.18 167.227 109.275 167.397 109.448 167.51C109.625 167.62 109.863 167.675 110.163 167.675C110.316 167.675 110.471 167.662 110.628 167.635C110.785 167.605 110.923 167.567 111.043 167.52V167.925C110.936 167.968 110.795 168.003 110.618 168.03C110.445 168.06 110.273 168.075 110.103 168.075ZM110.798 166.645C110.791 166.418 110.716 166.243 110.573 166.12C110.433 165.993 110.233 165.93 109.973 165.93C109.72 165.93 109.523 165.995 109.383 166.125C109.243 166.255 109.17 166.428 109.163 166.645H110.798ZM113.985 168.075C113.745 168.075 113.528 168.023 113.335 167.92C113.145 167.813 112.995 167.665 112.885 167.475C112.778 167.282 112.725 167.058 112.725 166.805C112.725 166.555 112.778 166.333 112.885 166.14C112.995 165.947 113.145 165.797 113.335 165.69C113.528 165.58 113.745 165.525 113.985 165.525C114.418 165.525 114.747 165.657 114.97 165.92V164.305H115.475V168H114.985V167.65C114.852 167.797 114.705 167.905 114.545 167.975C114.388 168.042 114.202 168.075 113.985 168.075ZM114.1 167.675C114.307 167.675 114.487 167.622 114.64 167.515C114.797 167.405 114.907 167.258 114.97 167.075V166.535C114.913 166.352 114.805 166.205 114.645 166.095C114.488 165.985 114.307 165.93 114.1 165.93C113.937 165.93 113.788 165.967 113.655 166.04C113.525 166.113 113.422 166.217 113.345 166.35C113.272 166.483 113.235 166.635 113.235 166.805C113.235 166.975 113.272 167.127 113.345 167.26C113.422 167.393 113.525 167.497 113.655 167.57C113.788 167.64 113.937 167.675 114.1 167.675ZM118.011 168.075C117.844 168.075 117.667 168.053 117.481 168.01C117.294 167.97 117.147 167.915 117.041 167.845V167.415C117.171 167.492 117.321 167.555 117.491 167.605C117.661 167.652 117.826 167.675 117.986 167.675C118.166 167.675 118.297 167.653 118.381 167.61C118.464 167.567 118.506 167.497 118.506 167.4C118.506 167.327 118.486 167.268 118.446 167.225C118.409 167.178 118.344 167.137 118.251 167.1C118.161 167.063 118.024 167.02 117.841 166.97C117.644 166.913 117.487 166.857 117.371 166.8C117.257 166.74 117.171 166.665 117.111 166.575C117.054 166.485 117.026 166.368 117.026 166.225C117.026 165.995 117.116 165.822 117.296 165.705C117.479 165.585 117.724 165.525 118.031 165.525C118.191 165.525 118.347 165.54 118.501 165.57C118.654 165.6 118.777 165.642 118.871 165.695V166.115C118.774 166.058 118.654 166.013 118.511 165.98C118.371 165.947 118.227 165.93 118.081 165.93C117.904 165.93 117.769 165.952 117.676 165.995C117.582 166.038 117.536 166.115 117.536 166.225C117.536 166.295 117.556 166.352 117.596 166.395C117.636 166.438 117.699 166.477 117.786 166.51C117.876 166.54 118.017 166.58 118.211 166.63C118.514 166.713 118.724 166.812 118.841 166.925C118.961 167.038 119.021 167.195 119.021 167.395C119.021 167.602 118.936 167.767 118.766 167.89C118.596 168.013 118.344 168.075 118.011 168.075ZM120.707 168C120.64 168 120.584 167.978 120.537 167.935C120.494 167.888 120.472 167.832 120.472 167.765C120.472 167.698 120.494 167.642 120.537 167.595C120.584 167.548 120.64 167.525 120.707 167.525C120.774 167.525 120.83 167.548 120.877 167.595C120.924 167.642 120.947 167.698 120.947 167.765C120.947 167.832 120.924 167.888 120.877 167.935C120.83 167.978 120.774 168 120.707 168Z" fill="black"/>
<rect x="12.25" y="143.25" width="125.5" height="46.5" stroke="#6C6C6C" stroke-width="0.5"/>
<path d="M13.47 28.97H12.375V27.8H13.47V26.39C13.47 25.56 13.705 24.93 14.175 24.5C14.645 24.06 15.275 23.84 16.065 23.84C16.475 23.84 16.86 23.9 17.22 24.02V25.28C16.94 25.15 16.65 25.085 16.35 25.085C15.88 25.085 15.535 25.2 15.315 25.43C15.095 25.65 14.985 26 14.985 26.48V27.8H16.785V28.97H14.985V35H13.47V28.97ZM22.8616 35.225C21.9916 35.225 21.2916 35.005 20.7616 34.565C20.2416 34.115 19.9816 33.51 19.9816 32.75C19.9816 31.95 20.2316 31.335 20.7316 30.905C21.2416 30.465 21.9616 30.245 22.8916 30.245C23.8816 30.245 24.7216 30.445 25.4116 30.845V30.47C25.4116 29.9 25.2366 29.48 24.8866 29.21C24.5466 28.93 24.0066 28.79 23.2666 28.79C22.8266 28.79 22.3966 28.835 21.9766 28.925C21.5666 29.005 21.1966 29.12 20.8666 29.27V28.04C21.1666 27.9 21.5566 27.79 22.0366 27.71C22.5166 27.62 22.9816 27.575 23.4316 27.575C24.6216 27.575 25.5016 27.84 26.0716 28.37C26.6516 28.89 26.9416 29.615 26.9416 30.545V35H25.5166V34.19C25.2066 34.53 24.8366 34.79 24.4066 34.97C23.9866 35.14 23.4716 35.225 22.8616 35.225ZM23.2366 34.07C23.7166 34.07 24.1516 33.975 24.5416 33.785C24.9316 33.595 25.2216 33.33 25.4116 32.99V32.015C24.7616 31.595 24.0366 31.385 23.2366 31.385C22.6566 31.385 22.2216 31.5 21.9316 31.73C21.6516 31.95 21.5116 32.29 21.5116 32.75C21.5116 33.63 22.0866 34.07 23.2366 34.07ZM31.8217 27.8H33.2917V28.835C33.6317 28.405 34.0467 28.09 34.5367 27.89C35.0367 27.68 35.5567 27.575 36.0967 27.575C37.0567 27.575 37.7717 27.83 38.2417 28.34C38.7117 28.85 38.9467 29.535 38.9467 30.395V35H37.4317V30.545C37.4317 29.375 36.8717 28.79 35.7517 28.79C35.2717 28.79 34.8217 28.905 34.4017 29.135C33.9917 29.355 33.6367 29.695 33.3367 30.155V35H31.8217V27.8ZM47.6108 35.225C46.8108 35.225 46.1008 35.075 45.4808 34.775C44.8608 34.475 44.3758 34.04 44.0258 33.47C43.6858 32.89 43.5158 32.205 43.5158 31.415C43.5158 30.625 43.6858 29.945 44.0258 29.375C44.3758 28.795 44.8608 28.35 45.4808 28.04C46.1108 27.73 46.8308 27.575 47.6408 27.575C48.7408 27.575 49.6208 27.79 50.2808 28.22V29.465C49.6308 29.015 48.8008 28.79 47.7908 28.79C46.9708 28.79 46.3058 29.015 45.7958 29.465C45.2958 29.905 45.0458 30.555 45.0458 31.415C45.0458 32.275 45.2958 32.925 45.7958 33.365C46.2958 33.805 46.9508 34.025 47.7608 34.025C48.7708 34.025 49.6408 33.785 50.3708 33.305V34.535C50.0208 34.775 49.6208 34.95 49.1708 35.06C48.7308 35.17 48.2108 35.225 47.6108 35.225ZM56.1681 37.97C55.6281 37.97 55.1781 37.915 54.8181 37.805V36.62C55.0781 36.72 55.3981 36.77 55.7781 36.77C56.1281 36.77 56.4031 36.68 56.6031 36.5C56.8031 36.33 56.9831 36.05 57.1431 35.66L57.4881 34.82L54.3381 27.8H55.8981L58.2981 33.335L60.5331 27.8H62.0931L58.8531 35.81C58.5531 36.56 58.1931 37.105 57.7731 37.445C57.3631 37.795 56.8281 37.97 56.1681 37.97ZM74.6936 27.8H76.2386L77.8586 33.14L79.4636 27.8H80.8286L82.4336 33.14L84.0536 27.8H85.6136L83.2736 35H81.8186L80.1536 29.63L78.4886 35H77.0186L74.6936 27.8ZM92.0286 35.225C91.1586 35.225 90.4586 35.005 89.9286 34.565C89.4086 34.115 89.1486 33.51 89.1486 32.75C89.1486 31.95 89.3986 31.335 89.8986 30.905C90.4086 30.465 91.1286 30.245 92.0586 30.245C93.0486 30.245 93.8886 30.445 94.5786 30.845V30.47C94.5786 29.9 94.4036 29.48 94.0536 29.21C93.7136 28.93 93.1736 28.79 92.4336 28.79C91.9936 28.79 91.5636 28.835 91.1436 28.925C90.7336 29.005 90.3636 29.12 90.0336 29.27V28.04C90.3336 27.9 90.7236 27.79 91.2036 27.71C91.6836 27.62 92.1486 27.575 92.5986 27.575C93.7886 27.575 94.6686 27.84 95.2386 28.37C95.8186 28.89 96.1086 29.615 96.1086 30.545V35H94.6836V34.19C94.3736 34.53 94.0036 34.79 93.5736 34.97C93.1536 35.14 92.6386 35.225 92.0286 35.225ZM92.4036 34.07C92.8836 34.07 93.3186 33.975 93.7086 33.785C94.0986 33.595 94.3886 33.33 94.5786 32.99V32.015C93.9286 31.595 93.2036 31.385 92.4036 31.385C91.8236 31.385 91.3886 31.5 91.0986 31.73C90.8186 31.95 90.6786 32.29 90.6786 32.75C90.6786 33.63 91.2536 34.07 92.4036 34.07ZM103.383 35.225C102.653 35.225 102.088 35.015 101.688 34.595C101.298 34.175 101.103 33.58 101.103 32.81V28.97H100.008V27.8H101.103V25.64H102.633V27.8H104.403V28.97H102.633V32.705C102.633 33.185 102.723 33.525 102.903 33.725C103.093 33.925 103.433 34.025 103.923 34.025C104.213 34.025 104.503 33.96 104.793 33.83V35.03C104.413 35.16 103.943 35.225 103.383 35.225ZM113.178 35.225C111.848 35.225 110.803 34.895 110.043 34.235C109.293 33.565 108.918 32.625 108.918 31.415C108.918 30.235 109.253 29.3 109.923 28.61C110.603 27.92 111.568 27.575 112.818 27.575C113.648 27.575 114.353 27.735 114.933 28.055C115.513 28.365 115.948 28.8 116.238 29.36C116.538 29.91 116.688 30.54 116.688 31.25V32H110.358C110.408 32.68 110.693 33.19 111.213 33.53C111.743 33.86 112.458 34.025 113.358 34.025C113.818 34.025 114.283 33.985 114.753 33.905C115.223 33.815 115.638 33.7 115.998 33.56V34.775C115.678 34.905 115.253 35.01 114.723 35.09C114.203 35.18 113.688 35.225 113.178 35.225ZM115.263 30.935C115.243 30.255 115.018 29.73 114.588 29.36C114.168 28.98 113.568 28.79 112.788 28.79C112.028 28.79 111.438 28.985 111.018 29.375C110.598 29.765 110.378 30.285 110.358 30.935H115.263ZM121.344 27.8H122.814V29.09C123.114 28.65 123.534 28.325 124.074 28.115C124.624 27.905 125.259 27.8 125.979 27.8V28.985C125.209 28.985 124.549 29.11 123.999 29.36C123.449 29.61 123.069 30.005 122.859 30.545V35H121.344V27.8Z" fill="black"/>
<path d="M12.8691 19.0381L17.1807 17.1875V16.4746L12.8691 14.6289V15.5615L16.0283 16.7334L16.3213 16.8262L16.0283 16.9092L12.8691 18.1006V19.0381ZM20.875 19.0381L25.1865 17.1875V16.4746L20.875 14.6289V15.5615L24.0342 16.7334L24.3271 16.8262L24.0342 16.9092L20.875 18.1006V19.0381ZM37.375 20H38.0879L38.9033 16.7627L39.0352 15.9424L39.1719 16.7627L39.9971 20H40.71L41.833 14.7168H41.0322L40.4463 18.0859L40.3145 18.916L40.1729 18.0859L39.333 14.7168H38.752L37.9072 18.0859L37.7754 18.8428L37.668 18.0859L37.0527 14.7168H36.252L37.375 20ZM48.3447 20H49.2871V19.9219C49.2285 19.7754 49.1829 19.6045 49.1504 19.4092C49.1178 19.2106 49.1016 19.0234 49.1016 18.8477V16.3916C49.1016 16.0954 49.0479 15.8366 48.9404 15.6152C48.833 15.3939 48.6865 15.2083 48.501 15.0586C48.3122 14.9121 48.0892 14.8031 47.832 14.7314C47.5749 14.6566 47.2965 14.6191 46.9971 14.6191C46.6683 14.6191 46.3737 14.6647 46.1133 14.7559C45.8561 14.847 45.638 14.9658 45.459 15.1123C45.2767 15.262 45.1367 15.4297 45.0391 15.6152C44.9447 15.8008 44.8958 15.9896 44.8926 16.1816H45.8008C45.8008 16.071 45.8268 15.9652 45.8789 15.8643C45.9342 15.7601 46.0107 15.6706 46.1084 15.5957C46.2061 15.5208 46.3249 15.4606 46.4648 15.415C46.6081 15.3695 46.7692 15.3467 46.9482 15.3467C47.1403 15.3467 47.3128 15.3711 47.4658 15.4199C47.6221 15.4688 47.7539 15.5371 47.8613 15.625C47.9688 15.7161 48.0518 15.8252 48.1104 15.9521C48.1689 16.0791 48.1982 16.2223 48.1982 16.3818V16.7969H47.2119C46.8441 16.7969 46.5104 16.8327 46.2109 16.9043C45.9147 16.9759 45.6608 17.0833 45.4492 17.2266C45.2376 17.373 45.0732 17.5553 44.9561 17.7734C44.8421 17.9915 44.7852 18.2454 44.7852 18.5352C44.7852 18.7565 44.8275 18.9632 44.9121 19.1553C45 19.3441 45.1237 19.5068 45.2832 19.6436C45.4395 19.7835 45.6299 19.8942 45.8545 19.9756C46.0824 20.057 46.3363 20.0977 46.6162 20.0977C46.7887 20.0977 46.9515 20.0798 47.1045 20.0439C47.2575 20.0081 47.4023 19.9593 47.5391 19.8975C47.6725 19.8356 47.7946 19.764 47.9053 19.6826C48.0192 19.6012 48.1217 19.515 48.2129 19.4238C48.2227 19.5345 48.2373 19.6419 48.2568 19.7461C48.2796 19.847 48.3089 19.9316 48.3447 20ZM46.748 19.3115C46.5723 19.3115 46.4176 19.2887 46.2842 19.2432C46.1507 19.1976 46.04 19.1341 45.9521 19.0527C45.8643 18.9746 45.7975 18.8802 45.752 18.7695C45.7096 18.6589 45.6885 18.5384 45.6885 18.4082C45.6885 18.2715 45.7129 18.1494 45.7617 18.042C45.8138 17.9346 45.8887 17.8418 45.9863 17.7637C46.123 17.653 46.307 17.5716 46.5381 17.5195C46.7725 17.4642 47.0459 17.4365 47.3584 17.4365H48.1982V18.5059C48.1462 18.61 48.0745 18.7109 47.9834 18.8086C47.8923 18.903 47.7848 18.9876 47.6611 19.0625C47.5342 19.1374 47.3942 19.1976 47.2412 19.2432C47.0882 19.2887 46.9238 19.3115 46.748 19.3115ZM55.0176 13.4375H54.1094V14.7168H52.7227V15.415H54.1094V18.2861C54.1094 18.6117 54.1517 18.89 54.2363 19.1211C54.3242 19.349 54.443 19.5345 54.5928 19.6777C54.7425 19.8242 54.9183 19.9316 55.1201 20C55.3252 20.0651 55.5449 20.0977 55.7793 20.0977C55.9193 20.0977 56.0592 20.0911 56.1992 20.0781C56.3424 20.0651 56.4775 20.0456 56.6045 20.0195C56.7314 19.9967 56.8486 19.9691 56.9561 19.9365C57.0635 19.9007 57.1546 19.86 57.2295 19.8145L57.1025 19.1748C57.0472 19.1878 56.9756 19.2041 56.8877 19.2236C56.8031 19.2399 56.7119 19.2562 56.6143 19.2725C56.5133 19.2887 56.4108 19.3034 56.3066 19.3164C56.2025 19.3262 56.1016 19.3311 56.0039 19.3311C55.8704 19.3311 55.7435 19.3148 55.623 19.2822C55.5059 19.2497 55.4017 19.1927 55.3105 19.1113C55.2194 19.0332 55.1478 18.9274 55.0957 18.7939C55.0436 18.6605 55.0176 18.4912 55.0176 18.2861V15.415H57.0293V14.7168H55.0176V13.4375ZM63.2188 20.0977C63.7331 20.0977 64.1644 19.9951 64.5127 19.79C64.8643 19.5817 65.1279 19.3441 65.3037 19.0771L64.752 18.6475C64.5859 18.8623 64.3776 19.0348 64.127 19.165C63.8763 19.2952 63.5898 19.3604 63.2676 19.3604C63.0234 19.3604 62.8005 19.3148 62.5986 19.2236C62.3968 19.1325 62.2243 19.0072 62.0811 18.8477C61.9411 18.6979 61.8304 18.5254 61.749 18.3301C61.6709 18.1348 61.6204 17.9085 61.5977 17.6514V17.6172H65.3721V17.2119C65.3721 16.8441 65.3249 16.5023 65.2305 16.1865C65.1393 15.8708 64.9993 15.5957 64.8105 15.3613C64.6217 15.1302 64.3841 14.9495 64.0977 14.8193C63.8145 14.6859 63.4824 14.6191 63.1016 14.6191C62.7988 14.6191 62.5026 14.681 62.2129 14.8047C61.9264 14.9284 61.6709 15.1058 61.4463 15.3369C61.2184 15.5713 61.0361 15.8577 60.8994 16.1963C60.7627 16.5316 60.6943 16.9124 60.6943 17.3389V17.5439C60.6943 17.9118 60.7562 18.252 60.8799 18.5645C61.0036 18.877 61.1761 19.1471 61.3975 19.375C61.6188 19.6029 61.8841 19.7803 62.1934 19.9072C62.5059 20.0342 62.8477 20.0977 63.2188 20.0977ZM63.1016 15.3613C63.3327 15.3613 63.5312 15.4036 63.6973 15.4883C63.8665 15.5729 64.0065 15.6836 64.1172 15.8203C64.2279 15.957 64.3141 16.1198 64.376 16.3086C64.4378 16.4941 64.4688 16.6683 64.4688 16.8311V16.875H61.627C61.6628 16.6309 61.7246 16.416 61.8125 16.2305C61.9036 16.0417 62.0143 15.8822 62.1445 15.752C62.2747 15.625 62.4212 15.529 62.584 15.4639C62.7467 15.3955 62.9193 15.3613 63.1016 15.3613ZM72.3525 14.6191C71.9684 14.6191 71.625 14.7038 71.3223 14.873C71.0228 15.0391 70.7656 15.2669 70.5508 15.5566L70.5459 15.4248L70.5068 14.7168H69.6475V20H70.5557V16.6113C70.6143 16.4486 70.6875 16.3021 70.7754 16.1719C70.8665 16.0384 70.9723 15.9261 71.0928 15.835C71.2262 15.7308 71.3825 15.6527 71.5615 15.6006C71.7406 15.5452 71.9408 15.5176 72.1621 15.5176C72.3346 15.5176 72.499 15.5273 72.6553 15.5469C72.8148 15.5632 72.9824 15.5908 73.1582 15.6299L73.2803 14.7461C73.1891 14.707 73.0524 14.6761 72.8701 14.6533C72.6911 14.6305 72.5186 14.6191 72.3525 14.6191Z" fill="#707070"/>
<path d="M94.7073 87.4762L85.9268 75.9524L77.1463 55L65.0732 71.7619L53 86.4286V106.333L66.1707 121L83.7317 118.905L98 105.286L94.7073 87.4762Z" fill="#0068C8"/>
<path d="M68 97L69.5 85H71V97H68Z" fill="#D9D9D9"/>
<path d="M80 97L78.5 85H77V97H80Z" fill="#D9D9D9"/>
<path d="M48 70.5H58H90.5L91.1176 66H57.5L56.5 45H94L91.1176 66L90.5 70.5H99L100 76L49.4545 74.5L48 70.5Z" fill="black"/>
<path d="M91.1133 66H57.5L58 70.5H90.5L91.1133 66Z" fill="#FFE70C"/>
<path d="M90.5 113L74 117L58 115L57.5 127L74 121.5L90.5 127V113Z" fill="#750000"/>
</svg>
