<svg width="150" height="200" viewBox="0 0 150 200" fill="none" xmlns="http://www.w3.org/2000/svg">
<rect width="150" height="200" fill="white"/>
<path d="M17.225 149.6H17.74L18.28 151.38L18.815 149.6H19.27L19.805 151.38L20.345 149.6H20.865L20.085 152H19.6L19.045 150.21L18.49 152H18L17.225 149.6ZM23.0034 152.075C22.7134 152.075 22.48 152.002 22.3034 151.855C22.13 151.705 22.0434 151.503 22.0434 151.25C22.0434 150.983 22.1267 150.778 22.2934 150.635C22.4634 150.488 22.7034 150.415 23.0134 150.415C23.3434 150.415 23.6234 150.482 23.8534 150.615V150.49C23.8534 150.3 23.795 150.16 23.6784 150.07C23.565 149.977 23.385 149.93 23.1384 149.93C22.9917 149.93 22.8484 149.945 22.7084 149.975C22.5717 150.002 22.4484 150.04 22.3384 150.09V149.68C22.4384 149.633 22.5684 149.597 22.7284 149.57C22.8884 149.54 23.0434 149.525 23.1934 149.525C23.59 149.525 23.8834 149.613 24.0734 149.79C24.2667 149.963 24.3634 150.205 24.3634 150.515V152H23.8884V151.73C23.785 151.843 23.6617 151.93 23.5184 151.99C23.3784 152.047 23.2067 152.075 23.0034 152.075ZM23.1284 151.69C23.2884 151.69 23.4334 151.658 23.5634 151.595C23.6934 151.532 23.79 151.443 23.8534 151.33V151.005C23.6367 150.865 23.395 150.795 23.1284 150.795C22.935 150.795 22.79 150.833 22.6934 150.91C22.6 150.983 22.5534 151.097 22.5534 151.25C22.5534 151.543 22.745 151.69 23.1284 151.69ZM26.285 149.13C26.2017 149.13 26.1317 149.102 26.075 149.045C26.0184 148.988 25.99 148.918 25.99 148.835C25.99 148.752 26.0184 148.682 26.075 148.625C26.1317 148.568 26.2017 148.54 26.285 148.54C26.3717 148.54 26.4434 148.568 26.5 148.625C26.56 148.682 26.59 148.752 26.59 148.835C26.59 148.918 26.56 148.988 26.5 149.045C26.4434 149.102 26.3717 149.13 26.285 149.13ZM26.03 149.6H26.545V152H26.03V149.6ZM29.165 152.075C28.9217 152.075 28.7334 152.005 28.6 151.865C28.47 151.725 28.405 151.527 28.405 151.27V149.99H28.04V149.6H28.405V148.88H28.915V149.6H29.505V149.99H28.915V151.235C28.915 151.395 28.945 151.508 29.005 151.575C29.0684 151.642 29.1817 151.675 29.345 151.675C29.4417 151.675 29.5384 151.653 29.635 151.61V152.01C29.5084 152.053 29.3517 152.075 29.165 152.075ZM31.2452 152C31.1785 152 31.1218 151.978 31.0752 151.935C31.0318 151.888 31.0102 151.832 31.0102 151.765C31.0102 151.698 31.0318 151.642 31.0752 151.595C31.1218 151.548 31.1785 151.525 31.2452 151.525C31.3118 151.525 31.3685 151.548 31.4152 151.595C31.4618 151.642 31.4852 151.698 31.4852 151.765C31.4852 151.832 31.4618 151.888 31.4152 151.935C31.3685 151.978 31.3118 152 31.2452 152ZM33.168 152C33.1013 152 33.0447 151.978 32.998 151.935C32.9547 151.888 32.933 151.832 32.933 151.765C32.933 151.698 32.9547 151.642 32.998 151.595C33.0447 151.548 33.1013 151.525 33.168 151.525C33.2347 151.525 33.2913 151.548 33.338 151.595C33.3847 151.642 33.408 151.698 33.408 151.765C33.408 151.832 33.3847 151.888 33.338 151.935C33.2913 151.978 33.2347 152 33.168 152ZM35.0909 152C35.0242 152 34.9675 151.978 34.9209 151.935C34.8775 151.888 34.8559 151.832 34.8559 151.765C34.8559 151.698 34.8775 151.642 34.9209 151.595C34.9675 151.548 35.0242 151.525 35.0909 151.525C35.1575 151.525 35.2142 151.548 35.2609 151.595C35.3075 151.642 35.3309 151.698 35.3309 151.765C35.3309 151.832 35.3075 151.888 35.2609 151.935C35.2142 151.978 35.1575 152 35.0909 152ZM39.6293 149.6H40.1443L40.6843 151.38L41.2193 149.6H41.6743L42.2093 151.38L42.7493 149.6H43.2693L42.4893 152H42.0043L41.4493 150.21L40.8943 152H40.4043L39.6293 149.6ZM44.8211 148.305H45.3261V149.93C45.5561 149.66 45.8628 149.525 46.2461 149.525C46.5661 149.525 46.8044 149.61 46.9611 149.78C47.1178 149.95 47.1961 150.178 47.1961 150.465V152H46.6911V150.515C46.6911 150.125 46.5044 149.93 46.1311 149.93C45.9711 149.93 45.8211 149.968 45.6811 150.045C45.5444 150.118 45.4261 150.232 45.3261 150.385V152H44.8211V148.305ZM49.6059 152.075C49.3159 152.075 49.0826 152.002 48.9059 151.855C48.7326 151.705 48.6459 151.503 48.6459 151.25C48.6459 150.983 48.7292 150.778 48.8959 150.635C49.0659 150.488 49.3059 150.415 49.6159 150.415C49.9459 150.415 50.2259 150.482 50.4559 150.615V150.49C50.4559 150.3 50.3976 150.16 50.2809 150.07C50.1676 149.977 49.9876 149.93 49.7409 149.93C49.5942 149.93 49.4509 149.945 49.3109 149.975C49.1742 150.002 49.0509 150.04 48.9409 150.09V149.68C49.0409 149.633 49.1709 149.597 49.3309 149.57C49.4909 149.54 49.6459 149.525 49.7959 149.525C50.1926 149.525 50.4859 149.613 50.6759 149.79C50.8692 149.963 50.9659 150.205 50.9659 150.515V152H50.4909V151.73C50.3876 151.843 50.2642 151.93 50.1209 151.99C49.9809 152.047 49.8092 152.075 49.6059 152.075ZM49.7309 151.69C49.8909 151.69 50.0359 151.658 50.1659 151.595C50.2959 151.532 50.3926 151.443 50.4559 151.33V151.005C50.2392 150.865 49.9976 150.795 49.7309 150.795C49.5376 150.795 49.3926 150.833 49.2959 150.91C49.2026 150.983 49.1559 151.097 49.1559 151.25C49.1559 151.543 49.3476 151.69 49.7309 151.69ZM53.3906 152.075C53.1473 152.075 52.959 152.005 52.8256 151.865C52.6956 151.725 52.6306 151.527 52.6306 151.27V149.99H52.2656V149.6H52.6306V148.88H53.1406V149.6H53.7306V149.99H53.1406V151.235C53.1406 151.395 53.1706 151.508 53.2306 151.575C53.294 151.642 53.4073 151.675 53.5706 151.675C53.6673 151.675 53.764 151.653 53.8606 151.61V152.01C53.734 152.053 53.5773 152.075 53.3906 152.075ZM55.8407 150.9C55.8407 150.697 55.8791 150.527 55.9557 150.39C56.0324 150.253 56.1624 150.122 56.3457 149.995C56.4791 149.902 56.5791 149.828 56.6457 149.775C56.7124 149.718 56.7641 149.657 56.8007 149.59C56.8407 149.52 56.8607 149.438 56.8607 149.345C56.8607 149.195 56.8007 149.077 56.6807 148.99C56.5607 148.903 56.3874 148.86 56.1607 148.86C55.8274 148.86 55.5191 148.927 55.2357 149.06V148.62C55.3691 148.563 55.5141 148.518 55.6707 148.485C55.8307 148.448 55.9941 148.43 56.1607 148.43C56.5274 148.43 56.8191 148.512 57.0357 148.675C57.2524 148.838 57.3607 149.062 57.3607 149.345C57.3607 149.518 57.3157 149.667 57.2257 149.79C57.1357 149.913 56.9941 150.045 56.8007 150.185C56.6607 150.285 56.5607 150.365 56.5007 150.425C56.4407 150.482 56.3974 150.547 56.3707 150.62C56.3441 150.69 56.3307 150.785 56.3307 150.905V151.005H55.8407V150.9ZM56.0807 152.075C55.9974 152.075 55.9274 152.047 55.8707 151.99C55.8141 151.933 55.7857 151.863 55.7857 151.78C55.7857 151.697 55.8141 151.627 55.8707 151.57C55.9274 151.513 55.9974 151.485 56.0807 151.485C56.1641 151.485 56.2341 151.513 56.2907 151.57C56.3507 151.627 56.3807 151.697 56.3807 151.78C56.3807 151.863 56.3507 151.933 56.2907 151.99C56.2341 152.047 56.1641 152.075 56.0807 152.075Z" fill="black"/>
<rect x="12.25" y="143.25" width="125.5" height="46.5" stroke="#6C6C6C" stroke-width="0.5"/>
<path d="M13.47 28.97H12.375V27.8H13.47V26.435C13.47 25.605 13.735 24.965 14.265 24.515C14.795 24.065 15.455 23.84 16.245 23.84C16.645 23.84 17.035 23.9 17.415 24.02V25.25C17.135 25.14 16.845 25.085 16.545 25.085C16.035 25.085 15.645 25.21 15.375 25.46C15.115 25.7 14.985 26.055 14.985 26.525V27.8H19.845V35H18.33V28.97H14.985V35H13.47V28.97ZM19.08 26.39C18.82 26.39 18.605 26.305 18.435 26.135C18.265 25.965 18.18 25.755 18.18 25.505C18.18 25.255 18.265 25.045 18.435 24.875C18.615 24.705 18.83 24.62 19.08 24.62C19.33 24.62 19.54 24.705 19.71 24.875C19.89 25.045 19.98 25.255 19.98 25.505C19.98 25.755 19.89 25.965 19.71 26.135C19.54 26.305 19.33 26.39 19.08 26.39ZM24.9252 27.8H26.3952V29.09C26.6952 28.65 27.1152 28.325 27.6552 28.115C28.2052 27.905 28.8402 27.8 29.5602 27.8V28.985C28.7902 28.985 28.1302 29.11 27.5802 29.36C27.0302 29.61 26.6502 30.005 26.4402 30.545V35H24.9252V27.8ZM37.4223 35.225C36.0923 35.225 35.0473 34.895 34.2873 34.235C33.5373 33.565 33.1623 32.625 33.1623 31.415C33.1623 30.235 33.4973 29.3 34.1673 28.61C34.8473 27.92 35.8123 27.575 37.0623 27.575C37.8923 27.575 38.5973 27.735 39.1773 28.055C39.7573 28.365 40.1923 28.8 40.4823 29.36C40.7823 29.91 40.9323 30.54 40.9323 31.25V32H34.6023C34.6523 32.68 34.9373 33.19 35.4573 33.53C35.9873 33.86 36.7023 34.025 37.6023 34.025C38.0623 34.025 38.5273 33.985 38.9973 33.905C39.4673 33.815 39.8823 33.7 40.2423 33.56V34.775C39.9223 34.905 39.4973 35.01 38.9673 35.09C38.4473 35.18 37.9323 35.225 37.4223 35.225ZM39.5073 30.935C39.4873 30.255 39.2623 29.73 38.8323 29.36C38.4123 28.98 37.8123 28.79 37.0323 28.79C36.2723 28.79 35.6823 28.985 35.2623 29.375C34.8423 29.765 34.6223 30.285 34.6023 30.935H39.5073ZM53.84 27.8H55.385L57.005 33.14L58.61 27.8H59.975L61.58 33.14L63.2 27.8H64.76L62.42 35H60.965L59.3 29.63L57.635 35H56.165L53.84 27.8ZM71.1751 35.225C70.3051 35.225 69.6051 35.005 69.0751 34.565C68.5551 34.115 68.2951 33.51 68.2951 32.75C68.2951 31.95 68.5451 31.335 69.0451 30.905C69.5551 30.465 70.2751 30.245 71.2051 30.245C72.1951 30.245 73.0351 30.445 73.7251 30.845V30.47C73.7251 29.9 73.5501 29.48 73.2001 29.21C72.8601 28.93 72.3201 28.79 71.5801 28.79C71.1401 28.79 70.7101 28.835 70.2901 28.925C69.8801 29.005 69.5101 29.12 69.1801 29.27V28.04C69.4801 27.9 69.8701 27.79 70.3501 27.71C70.8301 27.62 71.2951 27.575 71.7451 27.575C72.9351 27.575 73.8151 27.84 74.3851 28.37C74.9651 28.89 75.2551 29.615 75.2551 30.545V35H73.8301V34.19C73.5201 34.53 73.1501 34.79 72.7201 34.97C72.3001 35.14 71.7851 35.225 71.1751 35.225ZM71.5501 34.07C72.0301 34.07 72.4651 33.975 72.8551 33.785C73.2451 33.595 73.5351 33.33 73.7251 32.99V32.015C73.0751 31.595 72.3501 31.385 71.5501 31.385C70.9701 31.385 70.5351 31.5 70.2451 31.73C69.9651 31.95 69.8251 32.29 69.8251 32.75C69.8251 33.63 70.4001 34.07 71.5501 34.07ZM82.5293 35.225C81.7993 35.225 81.2343 35.015 80.8343 34.595C80.4443 34.175 80.2493 33.58 80.2493 32.81V28.97H79.1543V27.8H80.2493V25.64H81.7793V27.8H83.5493V28.97H81.7793V32.705C81.7793 33.185 81.8693 33.525 82.0493 33.725C82.2393 33.925 82.5793 34.025 83.0693 34.025C83.3593 34.025 83.6493 33.96 83.9393 33.83V35.03C83.5593 35.16 83.0893 35.225 82.5293 35.225ZM92.3246 35.225C90.9946 35.225 89.9496 34.895 89.1896 34.235C88.4396 33.565 88.0646 32.625 88.0646 31.415C88.0646 30.235 88.3996 29.3 89.0696 28.61C89.7496 27.92 90.7146 27.575 91.9646 27.575C92.7946 27.575 93.4996 27.735 94.0796 28.055C94.6596 28.365 95.0946 28.8 95.3846 29.36C95.6846 29.91 95.8346 30.54 95.8346 31.25V32H89.5046C89.5546 32.68 89.8396 33.19 90.3596 33.53C90.8896 33.86 91.6046 34.025 92.5046 34.025C92.9646 34.025 93.4296 33.985 93.8996 33.905C94.3696 33.815 94.7846 33.7 95.1446 33.56V34.775C94.8246 34.905 94.3996 35.01 93.8696 35.09C93.3496 35.18 92.8346 35.225 92.3246 35.225ZM94.4096 30.935C94.3896 30.255 94.1646 29.73 93.7346 29.36C93.3146 28.98 92.7146 28.79 91.9346 28.79C91.1746 28.79 90.5846 28.985 90.1646 29.375C89.7446 29.765 89.5246 30.285 89.5046 30.935H94.4096ZM100.491 27.8H101.961V29.09C102.261 28.65 102.681 28.325 103.221 28.115C103.771 27.905 104.406 27.8 105.126 27.8V28.985C104.356 28.985 103.696 29.11 103.146 29.36C102.596 29.61 102.216 30.005 102.006 30.545V35H100.491V27.8Z" fill="black"/>
<path d="M12.8691 19.0381L17.1807 17.1875V16.4746L12.8691 14.6289V15.5615L16.0283 16.7334L16.3213 16.8262L16.0283 16.9092L12.8691 18.1006V19.0381ZM20.875 19.0381L25.1865 17.1875V16.4746L20.875 14.6289V15.5615L24.0342 16.7334L24.3271 16.8262L24.0342 16.9092L20.875 18.1006V19.0381ZM37.375 20H38.0879L38.9033 16.7627L39.0352 15.9424L39.1719 16.7627L39.9971 20H40.71L41.833 14.7168H41.0322L40.4463 18.0859L40.3145 18.916L40.1729 18.0859L39.333 14.7168H38.752L37.9072 18.0859L37.7754 18.8428L37.668 18.0859L37.0527 14.7168H36.252L37.375 20ZM48.3447 20H49.2871V19.9219C49.2285 19.7754 49.1829 19.6045 49.1504 19.4092C49.1178 19.2106 49.1016 19.0234 49.1016 18.8477V16.3916C49.1016 16.0954 49.0479 15.8366 48.9404 15.6152C48.833 15.3939 48.6865 15.2083 48.501 15.0586C48.3122 14.9121 48.0892 14.8031 47.832 14.7314C47.5749 14.6566 47.2965 14.6191 46.9971 14.6191C46.6683 14.6191 46.3737 14.6647 46.1133 14.7559C45.8561 14.847 45.638 14.9658 45.459 15.1123C45.2767 15.262 45.1367 15.4297 45.0391 15.6152C44.9447 15.8008 44.8958 15.9896 44.8926 16.1816H45.8008C45.8008 16.071 45.8268 15.9652 45.8789 15.8643C45.9342 15.7601 46.0107 15.6706 46.1084 15.5957C46.2061 15.5208 46.3249 15.4606 46.4648 15.415C46.6081 15.3695 46.7692 15.3467 46.9482 15.3467C47.1403 15.3467 47.3128 15.3711 47.4658 15.4199C47.6221 15.4688 47.7539 15.5371 47.8613 15.625C47.9688 15.7161 48.0518 15.8252 48.1104 15.9521C48.1689 16.0791 48.1982 16.2223 48.1982 16.3818V16.7969H47.2119C46.8441 16.7969 46.5104 16.8327 46.2109 16.9043C45.9147 16.9759 45.6608 17.0833 45.4492 17.2266C45.2376 17.373 45.0732 17.5553 44.9561 17.7734C44.8421 17.9915 44.7852 18.2454 44.7852 18.5352C44.7852 18.7565 44.8275 18.9632 44.9121 19.1553C45 19.3441 45.1237 19.5068 45.2832 19.6436C45.4395 19.7835 45.6299 19.8942 45.8545 19.9756C46.0824 20.057 46.3363 20.0977 46.6162 20.0977C46.7887 20.0977 46.9515 20.0798 47.1045 20.0439C47.2575 20.0081 47.4023 19.9593 47.5391 19.8975C47.6725 19.8356 47.7946 19.764 47.9053 19.6826C48.0192 19.6012 48.1217 19.515 48.2129 19.4238C48.2227 19.5345 48.2373 19.6419 48.2568 19.7461C48.2796 19.847 48.3089 19.9316 48.3447 20ZM46.748 19.3115C46.5723 19.3115 46.4176 19.2887 46.2842 19.2432C46.1507 19.1976 46.04 19.1341 45.9521 19.0527C45.8643 18.9746 45.7975 18.8802 45.752 18.7695C45.7096 18.6589 45.6885 18.5384 45.6885 18.4082C45.6885 18.2715 45.7129 18.1494 45.7617 18.042C45.8138 17.9346 45.8887 17.8418 45.9863 17.7637C46.123 17.653 46.307 17.5716 46.5381 17.5195C46.7725 17.4642 47.0459 17.4365 47.3584 17.4365H48.1982V18.5059C48.1462 18.61 48.0745 18.7109 47.9834 18.8086C47.8923 18.903 47.7848 18.9876 47.6611 19.0625C47.5342 19.1374 47.3942 19.1976 47.2412 19.2432C47.0882 19.2887 46.9238 19.3115 46.748 19.3115ZM55.0176 13.4375H54.1094V14.7168H52.7227V15.415H54.1094V18.2861C54.1094 18.6117 54.1517 18.89 54.2363 19.1211C54.3242 19.349 54.443 19.5345 54.5928 19.6777C54.7425 19.8242 54.9183 19.9316 55.1201 20C55.3252 20.0651 55.5449 20.0977 55.7793 20.0977C55.9193 20.0977 56.0592 20.0911 56.1992 20.0781C56.3424 20.0651 56.4775 20.0456 56.6045 20.0195C56.7314 19.9967 56.8486 19.9691 56.9561 19.9365C57.0635 19.9007 57.1546 19.86 57.2295 19.8145L57.1025 19.1748C57.0472 19.1878 56.9756 19.2041 56.8877 19.2236C56.8031 19.2399 56.7119 19.2562 56.6143 19.2725C56.5133 19.2887 56.4108 19.3034 56.3066 19.3164C56.2025 19.3262 56.1016 19.3311 56.0039 19.3311C55.8704 19.3311 55.7435 19.3148 55.623 19.2822C55.5059 19.2497 55.4017 19.1927 55.3105 19.1113C55.2194 19.0332 55.1478 18.9274 55.0957 18.7939C55.0436 18.6605 55.0176 18.4912 55.0176 18.2861V15.415H57.0293V14.7168H55.0176V13.4375ZM63.2188 20.0977C63.7331 20.0977 64.1644 19.9951 64.5127 19.79C64.8643 19.5817 65.1279 19.3441 65.3037 19.0771L64.752 18.6475C64.5859 18.8623 64.3776 19.0348 64.127 19.165C63.8763 19.2952 63.5898 19.3604 63.2676 19.3604C63.0234 19.3604 62.8005 19.3148 62.5986 19.2236C62.3968 19.1325 62.2243 19.0072 62.0811 18.8477C61.9411 18.6979 61.8304 18.5254 61.749 18.3301C61.6709 18.1348 61.6204 17.9085 61.5977 17.6514V17.6172H65.3721V17.2119C65.3721 16.8441 65.3249 16.5023 65.2305 16.1865C65.1393 15.8708 64.9993 15.5957 64.8105 15.3613C64.6217 15.1302 64.3841 14.9495 64.0977 14.8193C63.8145 14.6859 63.4824 14.6191 63.1016 14.6191C62.7988 14.6191 62.5026 14.681 62.2129 14.8047C61.9264 14.9284 61.6709 15.1058 61.4463 15.3369C61.2184 15.5713 61.0361 15.8577 60.8994 16.1963C60.7627 16.5316 60.6943 16.9124 60.6943 17.3389V17.5439C60.6943 17.9118 60.7562 18.252 60.8799 18.5645C61.0036 18.877 61.1761 19.1471 61.3975 19.375C61.6188 19.6029 61.8841 19.7803 62.1934 19.9072C62.5059 20.0342 62.8477 20.0977 63.2188 20.0977ZM63.1016 15.3613C63.3327 15.3613 63.5312 15.4036 63.6973 15.4883C63.8665 15.5729 64.0065 15.6836 64.1172 15.8203C64.2279 15.957 64.3141 16.1198 64.376 16.3086C64.4378 16.4941 64.4688 16.6683 64.4688 16.8311V16.875H61.627C61.6628 16.6309 61.7246 16.416 61.8125 16.2305C61.9036 16.0417 62.0143 15.8822 62.1445 15.752C62.2747 15.625 62.4212 15.529 62.584 15.4639C62.7467 15.3955 62.9193 15.3613 63.1016 15.3613ZM72.3525 14.6191C71.9684 14.6191 71.625 14.7038 71.3223 14.873C71.0228 15.0391 70.7656 15.2669 70.5508 15.5566L70.5459 15.4248L70.5068 14.7168H69.6475V20H70.5557V16.6113C70.6143 16.4486 70.6875 16.3021 70.7754 16.1719C70.8665 16.0384 70.9723 15.9261 71.0928 15.835C71.2262 15.7308 71.3825 15.6527 71.5615 15.6006C71.7406 15.5452 71.9408 15.5176 72.1621 15.5176C72.3346 15.5176 72.499 15.5273 72.6553 15.5469C72.8148 15.5632 72.9824 15.5908 73.1582 15.6299L73.2803 14.7461C73.1891 14.707 73.0524 14.6761 72.8701 14.6533C72.6911 14.6305 72.5186 14.6191 72.3525 14.6191Z" fill="#707070"/>
<path d="M92 71.7619L98 86.4286V105.286L83.7317 118.905L66.1707 118L53 107.5L51.5 87.5L54.5 76L60.5 64.5L63.5 76L79 55L92 71.7619Z" fill="#FFA825"/>
<path d="M69 97L70.5 85H72V97H69Z" fill="#653D00"/>
<path d="M81 97L79.5 85H78V97H81Z" fill="#653D00"/>
<path d="M44.8571 127.158L68.5889 121.064L43 113.842L44.8571 109L77.6888 118.727L106.143 111.421L108 116.263L87.3061 121.577L106.143 127.158L103.048 130.789L78.4569 123.849L46.7143 132L44.8571 127.158Z" fill="#6A4000"/>
</svg>
