<svg width="150" height="200" viewBox="0 0 150 200" fill="none" xmlns="http://www.w3.org/2000/svg">
<rect width="150" height="200" fill="white"/>
<path d="M18.21 148.935H17.125V148.505H19.81V148.935H18.725V152H18.21V148.935ZM21.2596 148.305H21.7646V149.93C21.9946 149.66 22.3012 149.525 22.6846 149.525C23.0046 149.525 23.2429 149.61 23.3996 149.78C23.5562 149.95 23.6346 150.178 23.6346 150.465V152H23.1296V150.515C23.1296 150.125 22.9429 149.93 22.5696 149.93C22.4096 149.93 22.2596 149.968 22.1196 150.045C21.9829 150.118 21.8646 150.232 21.7646 150.385V152H21.2596V148.305ZM25.5526 149.13C25.4693 149.13 25.3993 149.102 25.3426 149.045C25.286 148.988 25.2576 148.918 25.2576 148.835C25.2576 148.752 25.286 148.682 25.3426 148.625C25.3993 148.568 25.4693 148.54 25.5526 148.54C25.6393 148.54 25.711 148.568 25.7676 148.625C25.8276 148.682 25.8576 148.752 25.8576 148.835C25.8576 148.918 25.8276 148.988 25.7676 149.045C25.711 149.102 25.6393 149.13 25.5526 149.13ZM25.2976 149.6H25.8126V152H25.2976V149.6ZM28.3926 152.075C28.226 152.075 28.0493 152.053 27.8626 152.01C27.676 151.97 27.5293 151.915 27.4226 151.845V151.415C27.5526 151.492 27.7026 151.555 27.8726 151.605C28.0426 151.652 28.2076 151.675 28.3676 151.675C28.5476 151.675 28.6793 151.653 28.7626 151.61C28.846 151.567 28.8876 151.497 28.8876 151.4C28.8876 151.327 28.8676 151.268 28.8276 151.225C28.791 151.178 28.726 151.137 28.6326 151.1C28.5426 151.063 28.406 151.02 28.2226 150.97C28.026 150.913 27.8693 150.857 27.7526 150.8C27.6393 150.74 27.5526 150.665 27.4926 150.575C27.436 150.485 27.4076 150.368 27.4076 150.225C27.4076 149.995 27.4976 149.822 27.6776 149.705C27.861 149.585 28.106 149.525 28.4126 149.525C28.5726 149.525 28.7293 149.54 28.8826 149.57C29.036 149.6 29.1593 149.642 29.2526 149.695V150.115C29.156 150.058 29.036 150.013 28.8926 149.98C28.7526 149.947 28.6093 149.93 28.4626 149.93C28.286 149.93 28.151 149.952 28.0576 149.995C27.9643 150.038 27.9176 150.115 27.9176 150.225C27.9176 150.295 27.9376 150.352 27.9776 150.395C28.0176 150.438 28.081 150.477 28.1676 150.51C28.2576 150.54 28.3993 150.58 28.5926 150.63C28.896 150.713 29.106 150.812 29.2226 150.925C29.3426 151.038 29.4026 151.195 29.4026 151.395C29.4026 151.602 29.3176 151.767 29.1476 151.89C28.9776 152.013 28.726 152.075 28.3926 152.075ZM33.7045 149.6H34.2195L34.7595 151.38L35.2945 149.6H35.7495L36.2845 151.38L36.8245 149.6H37.3445L36.5645 152H36.0795L35.5245 150.21L34.9695 152H34.4795L33.7045 149.6ZM39.4829 152.075C39.1929 152.075 38.9595 152.002 38.7829 151.855C38.6095 151.705 38.5229 151.503 38.5229 151.25C38.5229 150.983 38.6062 150.778 38.7729 150.635C38.9429 150.488 39.1829 150.415 39.4929 150.415C39.8229 150.415 40.1029 150.482 40.3329 150.615V150.49C40.3329 150.3 40.2745 150.16 40.1579 150.07C40.0445 149.977 39.8645 149.93 39.6179 149.93C39.4712 149.93 39.3279 149.945 39.1879 149.975C39.0512 150.002 38.9279 150.04 38.8179 150.09V149.68C38.9179 149.633 39.0479 149.597 39.2079 149.57C39.3679 149.54 39.5229 149.525 39.6729 149.525C40.0695 149.525 40.3629 149.613 40.5529 149.79C40.7462 149.963 40.8429 150.205 40.8429 150.515V152H40.3679V151.73C40.2645 151.843 40.1412 151.93 39.9979 151.99C39.8579 152.047 39.6862 152.075 39.4829 152.075ZM39.6079 151.69C39.7679 151.69 39.9129 151.658 40.0429 151.595C40.1729 151.532 40.2695 151.443 40.3329 151.33V151.005C40.1162 150.865 39.8745 150.795 39.6079 150.795C39.4145 150.795 39.2695 150.833 39.1729 150.91C39.0795 150.983 39.0329 151.097 39.0329 151.25C39.0329 151.543 39.2245 151.69 39.6079 151.69ZM43.2676 152.075C43.0242 152.075 42.8359 152.005 42.7026 151.865C42.5726 151.725 42.5076 151.527 42.5076 151.27V149.99H42.1426V149.6H42.5076V148.88H43.0176V149.6H43.6076V149.99H43.0176V151.235C43.0176 151.395 43.0476 151.508 43.1076 151.575C43.1709 151.642 43.2842 151.675 43.4476 151.675C43.5442 151.675 43.6409 151.653 43.7376 151.61V152.01C43.6109 152.053 43.4542 152.075 43.2676 152.075ZM46.5327 152.075C46.0894 152.075 45.741 151.965 45.4877 151.745C45.2377 151.522 45.1127 151.208 45.1127 150.805C45.1127 150.412 45.2244 150.1 45.4477 149.87C45.6744 149.64 45.996 149.525 46.4127 149.525C46.6894 149.525 46.9244 149.578 47.1177 149.685C47.311 149.788 47.456 149.933 47.5527 150.12C47.6527 150.303 47.7027 150.513 47.7027 150.75V151H45.5927C45.6094 151.227 45.7044 151.397 45.8777 151.51C46.0544 151.62 46.2927 151.675 46.5927 151.675C46.746 151.675 46.901 151.662 47.0577 151.635C47.2144 151.605 47.3527 151.567 47.4727 151.52V151.925C47.366 151.968 47.2244 152.003 47.0477 152.03C46.8744 152.06 46.7027 152.075 46.5327 152.075ZM47.2277 150.645C47.221 150.418 47.146 150.243 47.0027 150.12C46.8627 149.993 46.6627 149.93 46.4027 149.93C46.1494 149.93 45.9527 149.995 45.8127 150.125C45.6727 150.255 45.5994 150.428 45.5927 150.645H47.2277ZM49.2547 149.6H49.7447V150.03C49.8447 149.883 49.9847 149.775 50.1647 149.705C50.348 149.635 50.5597 149.6 50.7997 149.6V149.995C50.543 149.995 50.323 150.037 50.1397 150.12C49.9564 150.203 49.8297 150.335 49.7597 150.515V152H49.2547V149.6ZM56.0273 152.075C55.784 152.075 55.5957 152.005 55.4623 151.865C55.3323 151.725 55.2673 151.527 55.2673 151.27V149.99H54.9023V149.6H55.2673V148.88H55.7773V149.6H56.3673V149.99H55.7773V151.235C55.7773 151.395 55.8073 151.508 55.8673 151.575C55.9307 151.642 56.044 151.675 56.2073 151.675C56.304 151.675 56.4007 151.653 56.4973 151.61V152.01C56.3707 152.053 56.214 152.075 56.0273 152.075ZM57.9725 148.305H58.4775V149.93C58.7075 149.66 59.0141 149.525 59.3975 149.525C59.7175 149.525 59.9558 149.61 60.1125 149.78C60.2691 149.95 60.3475 150.178 60.3475 150.465V152H59.8425V150.515C59.8425 150.125 59.6558 149.93 59.2825 149.93C59.1225 149.93 58.9725 149.968 58.8325 150.045C58.6958 150.118 58.5775 150.232 58.4775 150.385V152H57.9725V148.305ZM62.2655 149.13C62.1822 149.13 62.1122 149.102 62.0555 149.045C61.9988 148.988 61.9705 148.918 61.9705 148.835C61.9705 148.752 61.9988 148.682 62.0555 148.625C62.1122 148.568 62.1822 148.54 62.2655 148.54C62.3522 148.54 62.4238 148.568 62.4805 148.625C62.5405 148.682 62.5705 148.752 62.5705 148.835C62.5705 148.918 62.5405 148.988 62.4805 149.045C62.4238 149.102 62.3522 149.13 62.2655 149.13ZM62.0105 149.6H62.5255V152H62.0105V149.6ZM64.2205 149.6H64.7105V149.945C64.8238 149.802 64.9622 149.697 65.1255 149.63C65.2922 149.56 65.4655 149.525 65.6455 149.525C65.9655 149.525 66.2038 149.61 66.3605 149.78C66.5172 149.95 66.5955 150.178 66.5955 150.465V152H66.0905V150.515C66.0905 150.125 65.9038 149.93 65.5305 149.93C65.3705 149.93 65.2205 149.968 65.0805 150.045C64.9438 150.118 64.8255 150.232 64.7255 150.385V152H64.2205V149.6ZM68.2186 148.305H68.7236V152H68.2186V148.305ZM68.7286 150.785L69.8336 149.6H70.4486L69.3386 150.785L70.5636 152H69.9486L68.7286 150.785ZM72.7745 152.075C72.6078 152.075 72.4311 152.053 72.2445 152.01C72.0578 151.97 71.9111 151.915 71.8045 151.845V151.415C71.9345 151.492 72.0845 151.555 72.2545 151.605C72.4245 151.652 72.5895 151.675 72.7495 151.675C72.9295 151.675 73.0611 151.653 73.1445 151.61C73.2278 151.567 73.2695 151.497 73.2695 151.4C73.2695 151.327 73.2495 151.268 73.2095 151.225C73.1728 151.178 73.1078 151.137 73.0145 151.1C72.9245 151.063 72.7878 151.02 72.6045 150.97C72.4078 150.913 72.2511 150.857 72.1345 150.8C72.0211 150.74 71.9345 150.665 71.8745 150.575C71.8178 150.485 71.7895 150.368 71.7895 150.225C71.7895 149.995 71.8795 149.822 72.0595 149.705C72.2428 149.585 72.4878 149.525 72.7945 149.525C72.9545 149.525 73.1111 149.54 73.2645 149.57C73.4178 149.6 73.5411 149.642 73.6345 149.695V150.115C73.5378 150.058 73.4178 150.013 73.2745 149.98C73.1345 149.947 72.9911 149.93 72.8445 149.93C72.6678 149.93 72.5328 149.952 72.4395 149.995C72.3461 150.038 72.2995 150.115 72.2995 150.225C72.2995 150.295 72.3195 150.352 72.3595 150.395C72.3995 150.438 72.4628 150.477 72.5495 150.51C72.6395 150.54 72.7811 150.58 72.9745 150.63C73.2778 150.713 73.4878 150.812 73.6045 150.925C73.7245 151.038 73.7845 151.195 73.7845 151.395C73.7845 151.602 73.6995 151.767 73.5295 151.89C73.3595 152.013 73.1078 152.075 72.7745 152.075ZM78.1863 148.305H78.6913V152H78.1863V148.305ZM80.6386 149.13C80.5552 149.13 80.4852 149.102 80.4286 149.045C80.3719 148.988 80.3436 148.918 80.3436 148.835C80.3436 148.752 80.3719 148.682 80.4286 148.625C80.4852 148.568 80.5552 148.54 80.6386 148.54C80.7252 148.54 80.7969 148.568 80.8536 148.625C80.9136 148.682 80.9436 148.752 80.9436 148.835C80.9436 148.918 80.9136 148.988 80.8536 149.045C80.7969 149.102 80.7252 149.13 80.6386 149.13ZM80.3836 149.6H80.8986V152H80.3836V149.6ZM82.7586 149.99H82.3936V149.6H82.7586V149.13C82.7586 148.853 82.8369 148.643 82.9936 148.5C83.1502 148.353 83.3602 148.28 83.6236 148.28C83.7602 148.28 83.8886 148.3 84.0086 148.34V148.76C83.9152 148.717 83.8186 148.695 83.7186 148.695C83.5619 148.695 83.4469 148.733 83.3736 148.81C83.3002 148.883 83.2636 149 83.2636 149.16V149.6H83.8636V149.99H83.2636V152H82.7586V149.99ZM86.6763 152.075C86.2329 152.075 85.8846 151.965 85.6313 151.745C85.3813 151.522 85.2563 151.208 85.2563 150.805C85.2563 150.412 85.3679 150.1 85.5913 149.87C85.8179 149.64 86.1396 149.525 86.5563 149.525C86.8329 149.525 87.0679 149.578 87.2613 149.685C87.4546 149.788 87.5996 149.933 87.6963 150.12C87.7963 150.303 87.8463 150.513 87.8463 150.75V151H85.7363C85.7529 151.227 85.8479 151.397 86.0213 151.51C86.1979 151.62 86.4363 151.675 86.7363 151.675C86.8896 151.675 87.0446 151.662 87.2013 151.635C87.3579 151.605 87.4963 151.567 87.6163 151.52V151.925C87.5096 151.968 87.3679 152.003 87.1913 152.03C87.0179 152.06 86.8463 152.075 86.6763 152.075ZM87.3713 150.645C87.3646 150.418 87.2896 150.243 87.1463 150.12C87.0063 149.993 86.8063 149.93 86.5463 149.93C86.2929 149.93 86.0963 149.995 85.9563 150.125C85.8163 150.255 85.7429 150.428 85.7363 150.645H87.3713ZM92.5438 149.13C92.4605 149.13 92.3905 149.102 92.3338 149.045C92.2772 148.988 92.2488 148.918 92.2488 148.835C92.2488 148.752 92.2772 148.682 92.3338 148.625C92.3905 148.568 92.4605 148.54 92.5438 148.54C92.6305 148.54 92.7022 148.568 92.7588 148.625C92.8188 148.682 92.8488 148.752 92.8488 148.835C92.8488 148.918 92.8188 148.988 92.7588 149.045C92.7022 149.102 92.6305 149.13 92.5438 149.13ZM92.2888 149.6H92.8038V152H92.2888V149.6ZM95.3838 152.075C95.2172 152.075 95.0405 152.053 94.8538 152.01C94.6672 151.97 94.5205 151.915 94.4138 151.845V151.415C94.5438 151.492 94.6938 151.555 94.8638 151.605C95.0338 151.652 95.1988 151.675 95.3588 151.675C95.5388 151.675 95.6705 151.653 95.7538 151.61C95.8372 151.567 95.8788 151.497 95.8788 151.4C95.8788 151.327 95.8588 151.268 95.8188 151.225C95.7822 151.178 95.7172 151.137 95.6238 151.1C95.5338 151.063 95.3972 151.02 95.2138 150.97C95.0172 150.913 94.8605 150.857 94.7438 150.8C94.6305 150.74 94.5438 150.665 94.4838 150.575C94.4272 150.485 94.3988 150.368 94.3988 150.225C94.3988 149.995 94.4888 149.822 94.6688 149.705C94.8522 149.585 95.0972 149.525 95.4038 149.525C95.5638 149.525 95.7205 149.54 95.8738 149.57C96.0272 149.6 96.1505 149.642 96.2438 149.695V150.115C96.1472 150.058 96.0272 150.013 95.8838 149.98C95.7438 149.947 95.6005 149.93 95.4538 149.93C95.2772 149.93 95.1422 149.952 95.0488 149.995C94.9555 150.038 94.9088 150.115 94.9088 150.225C94.9088 150.295 94.9288 150.352 94.9688 150.395C95.0088 150.438 95.0722 150.477 95.1588 150.51C95.2488 150.54 95.3905 150.58 95.5838 150.63C95.8872 150.713 96.0972 150.812 96.2138 150.925C96.3338 151.038 96.3938 151.195 96.3938 151.395C96.3938 151.602 96.3088 151.767 96.1388 151.89C95.9688 152.013 95.7172 152.075 95.3838 152.075ZM101.656 152.075C101.366 152.075 101.132 152.002 100.956 151.855C100.782 151.705 100.696 151.503 100.696 151.25C100.696 150.983 100.779 150.778 100.946 150.635C101.116 150.488 101.356 150.415 101.666 150.415C101.996 150.415 102.276 150.482 102.506 150.615V150.49C102.506 150.3 102.447 150.16 102.331 150.07C102.217 149.977 102.037 149.93 101.791 149.93C101.644 149.93 101.501 149.945 101.361 149.975C101.224 150.002 101.101 150.04 100.991 150.09V149.68C101.091 149.633 101.221 149.597 101.381 149.57C101.541 149.54 101.696 149.525 101.846 149.525C102.242 149.525 102.536 149.613 102.726 149.79C102.919 149.963 103.016 150.205 103.016 150.515V152H102.541V151.73C102.437 151.843 102.314 151.93 102.171 151.99C102.031 152.047 101.859 152.075 101.656 152.075ZM101.781 151.69C101.941 151.69 102.086 151.658 102.216 151.595C102.346 151.532 102.442 151.443 102.506 151.33V151.005C102.289 150.865 102.047 150.795 101.781 150.795C101.587 150.795 101.442 150.833 101.346 150.91C101.252 150.983 101.206 151.097 101.206 151.25C101.206 151.543 101.397 151.69 101.781 151.69ZM107.793 149.13C107.706 149.13 107.635 149.102 107.578 149.045C107.521 148.988 107.493 148.918 107.493 148.835C107.493 148.752 107.521 148.682 107.578 148.625C107.638 148.568 107.71 148.54 107.793 148.54C107.876 148.54 107.946 148.568 108.003 148.625C108.063 148.682 108.093 148.752 108.093 148.835C108.093 148.918 108.063 148.988 108.003 149.045C107.946 149.102 107.876 149.13 107.793 149.13ZM107.198 153.155C107.048 153.155 106.921 153.137 106.818 153.1V152.685C106.905 152.725 107.005 152.745 107.118 152.745C107.268 152.745 107.375 152.708 107.438 152.635C107.505 152.565 107.538 152.45 107.538 152.29V149.6H108.048V152.325C108.048 152.602 107.971 152.808 107.818 152.945C107.665 153.085 107.458 153.155 107.198 153.155ZM111.008 152.075C110.738 152.075 110.5 152.025 110.293 151.925C110.09 151.822 109.93 151.675 109.813 151.485C109.7 151.292 109.643 151.065 109.643 150.805C109.643 150.548 109.7 150.323 109.813 150.13C109.926 149.937 110.086 149.788 110.293 149.685C110.5 149.578 110.738 149.525 111.008 149.525C111.278 149.525 111.516 149.578 111.723 149.685C111.93 149.788 112.09 149.937 112.203 150.13C112.32 150.323 112.378 150.548 112.378 150.805C112.378 151.065 112.32 151.292 112.203 151.485C112.09 151.675 111.93 151.822 111.723 151.925C111.516 152.025 111.278 152.075 111.008 152.075ZM111.008 151.675C111.268 151.675 111.475 151.595 111.628 151.435C111.781 151.275 111.858 151.065 111.858 150.805C111.858 150.535 111.781 150.322 111.628 150.165C111.475 150.008 111.268 149.93 111.008 149.93C110.748 149.93 110.541 150.008 110.388 150.165C110.235 150.322 110.158 150.535 110.158 150.805C110.158 151.065 110.235 151.275 110.388 151.435C110.541 151.595 110.748 151.675 111.008 151.675ZM113.927 148.305H114.432V152H113.927V148.305ZM114.437 150.785L115.542 149.6H116.157L115.047 150.785L116.272 152H115.657L114.437 150.785ZM119.093 152.075C118.65 152.075 118.302 151.965 118.048 151.745C117.798 151.522 117.673 151.208 117.673 150.805C117.673 150.412 117.785 150.1 118.008 149.87C118.235 149.64 118.557 149.525 118.973 149.525C119.25 149.525 119.485 149.578 119.678 149.685C119.872 149.788 120.017 149.933 120.113 150.12C120.213 150.303 120.263 150.513 120.263 150.75V151H118.153C118.17 151.227 118.265 151.397 118.438 151.51C118.615 151.62 118.853 151.675 119.153 151.675C119.307 151.675 119.462 151.662 119.618 151.635C119.775 151.605 119.913 151.567 120.033 151.52V151.925C119.927 151.968 119.785 152.003 119.608 152.03C119.435 152.06 119.263 152.075 119.093 152.075ZM119.788 150.645C119.782 150.418 119.707 150.243 119.563 150.12C119.423 149.993 119.223 149.93 118.963 149.93C118.71 149.93 118.513 149.995 118.373 150.125C118.233 150.255 118.16 150.428 118.153 150.645H119.788ZM121.95 152C121.884 152 121.827 151.978 121.78 151.935C121.737 151.888 121.715 151.832 121.715 151.765C121.715 151.698 121.737 151.642 121.78 151.595C121.827 151.548 121.884 151.525 121.95 151.525C122.017 151.525 122.074 151.548 122.12 151.595C122.167 151.642 122.19 151.698 122.19 151.765C122.19 151.832 122.167 151.888 122.12 151.935C122.074 151.978 122.017 152 121.95 152ZM18.62 156.505H19.11L20.505 160H19.985L19.635 159.13H18.09L17.75 160H17.225L18.62 156.505ZM19.495 158.705L18.865 157.07L18.235 158.705H19.495ZM22.0555 156.305H22.5605V160H22.0555V156.305ZM24.2127 156.305H24.7177V160H24.2127V156.305ZM29.5155 157.13C29.4322 157.13 29.3622 157.102 29.3055 157.045C29.2488 156.988 29.2205 156.918 29.2205 156.835C29.2205 156.752 29.2488 156.682 29.3055 156.625C29.3622 156.568 29.4322 156.54 29.5155 156.54C29.6022 156.54 29.6738 156.568 29.7305 156.625C29.7905 156.682 29.8205 156.752 29.8205 156.835C29.8205 156.918 29.7905 156.988 29.7305 157.045C29.6738 157.102 29.6022 157.13 29.5155 157.13ZM29.2605 157.6H29.7755V160H29.2605V157.6ZM32.3955 160.075C32.1522 160.075 31.9638 160.005 31.8305 159.865C31.7005 159.725 31.6355 159.527 31.6355 159.27V157.99H31.2705V157.6H31.6355V156.88H32.1455V157.6H32.7355V157.99H32.1455V159.235C32.1455 159.395 32.1755 159.508 32.2355 159.575C32.2988 159.642 32.4122 159.675 32.5755 159.675C32.6722 159.675 32.7688 159.653 32.8655 159.61V160.01C32.7388 160.053 32.5822 160.075 32.3955 160.075ZM37.0912 157.6H37.6062L38.1462 159.38L38.6812 157.6H39.1362L39.6712 159.38L40.2112 157.6H40.7312L39.9512 160H39.4662L38.9112 158.21L38.3562 160H37.8662L37.0912 157.6ZM42.8696 160.075C42.5796 160.075 42.3462 160.002 42.1696 159.855C41.9962 159.705 41.9096 159.503 41.9096 159.25C41.9096 158.983 41.9929 158.778 42.1596 158.635C42.3296 158.488 42.5696 158.415 42.8796 158.415C43.2096 158.415 43.4896 158.482 43.7196 158.615V158.49C43.7196 158.3 43.6612 158.16 43.5446 158.07C43.4312 157.977 43.2512 157.93 43.0046 157.93C42.8579 157.93 42.7146 157.945 42.5746 157.975C42.4379 158.002 42.3146 158.04 42.2046 158.09V157.68C42.3046 157.633 42.4346 157.597 42.5946 157.57C42.7546 157.54 42.9096 157.525 43.0596 157.525C43.4562 157.525 43.7496 157.613 43.9396 157.79C44.1329 157.963 44.2296 158.205 44.2296 158.515V160H43.7546V159.73C43.6512 159.843 43.5279 159.93 43.3846 159.99C43.2446 160.047 43.0729 160.075 42.8696 160.075ZM42.9946 159.69C43.1546 159.69 43.2996 159.658 43.4296 159.595C43.5596 159.532 43.6562 159.443 43.7196 159.33V159.005C43.5029 158.865 43.2612 158.795 42.9946 158.795C42.8012 158.795 42.6562 158.833 42.5596 158.91C42.4662 158.983 42.4196 159.097 42.4196 159.25C42.4196 159.543 42.6112 159.69 42.9946 159.69ZM45.8563 157.6H46.3463V157.945C46.4596 157.802 46.5979 157.697 46.7613 157.63C46.9279 157.56 47.1013 157.525 47.2813 157.525C47.6013 157.525 47.8396 157.61 47.9963 157.78C48.1529 157.95 48.2313 158.178 48.2313 158.465V160H47.7263V158.515C47.7263 158.125 47.5396 157.93 47.1663 157.93C47.0063 157.93 46.8563 157.968 46.7163 158.045C46.5796 158.118 46.4613 158.232 46.3613 158.385V160H45.8563V157.6ZM50.7793 160.075C50.536 160.075 50.3476 160.005 50.2143 159.865C50.0843 159.725 50.0193 159.527 50.0193 159.27V157.99H49.6543V157.6H50.0193V156.88H50.5293V157.6H51.1193V157.99H50.5293V159.235C50.5293 159.395 50.5593 159.508 50.6193 159.575C50.6826 159.642 50.796 159.675 50.9593 159.675C51.056 159.675 51.1526 159.653 51.2493 159.61V160.01C51.1226 160.053 50.966 160.075 50.7793 160.075ZM53.5118 160.075C53.3451 160.075 53.1684 160.053 52.9818 160.01C52.7951 159.97 52.6484 159.915 52.5418 159.845V159.415C52.6718 159.492 52.8218 159.555 52.9918 159.605C53.1618 159.652 53.3268 159.675 53.4868 159.675C53.6668 159.675 53.7984 159.653 53.8818 159.61C53.9651 159.567 54.0068 159.497 54.0068 159.4C54.0068 159.327 53.9868 159.268 53.9468 159.225C53.9101 159.178 53.8451 159.137 53.7518 159.1C53.6618 159.063 53.5251 159.02 53.3418 158.97C53.1451 158.913 52.9884 158.857 52.8718 158.8C52.7584 158.74 52.6718 158.665 52.6118 158.575C52.5551 158.485 52.5268 158.368 52.5268 158.225C52.5268 157.995 52.6168 157.822 52.7968 157.705C52.9801 157.585 53.2251 157.525 53.5318 157.525C53.6918 157.525 53.8484 157.54 54.0018 157.57C54.1551 157.6 54.2784 157.642 54.3718 157.695V158.115C54.2751 158.058 54.1551 158.013 54.0118 157.98C53.8718 157.947 53.7284 157.93 53.5818 157.93C53.4051 157.93 53.2701 157.952 53.1768 157.995C53.0834 158.038 53.0368 158.115 53.0368 158.225C53.0368 158.295 53.0568 158.352 53.0968 158.395C53.1368 158.438 53.2001 158.477 53.2868 158.51C53.3768 158.54 53.5184 158.58 53.7118 158.63C54.0151 158.713 54.2251 158.812 54.3418 158.925C54.4618 159.038 54.5218 159.195 54.5218 159.395C54.5218 159.602 54.4368 159.767 54.2668 159.89C54.0968 160.013 53.8451 160.075 53.5118 160.075ZM59.8486 160.075C59.6053 160.075 59.417 160.005 59.2836 159.865C59.1536 159.725 59.0886 159.527 59.0886 159.27V157.99H58.7236V157.6H59.0886V156.88H59.5986V157.6H60.1886V157.99H59.5986V159.235C59.5986 159.395 59.6286 159.508 59.6886 159.575C59.752 159.642 59.8653 159.675 60.0286 159.675C60.1253 159.675 60.222 159.653 60.3186 159.61V160.01C60.192 160.053 60.0353 160.075 59.8486 160.075ZM63.0343 160.075C62.7643 160.075 62.526 160.025 62.3193 159.925C62.116 159.822 61.956 159.675 61.8393 159.485C61.726 159.292 61.6693 159.065 61.6693 158.805C61.6693 158.548 61.726 158.323 61.8393 158.13C61.9527 157.937 62.1127 157.788 62.3193 157.685C62.526 157.578 62.7643 157.525 63.0343 157.525C63.3043 157.525 63.5427 157.578 63.7493 157.685C63.956 157.788 64.116 157.937 64.2293 158.13C64.346 158.323 64.4043 158.548 64.4043 158.805C64.4043 159.065 64.346 159.292 64.2293 159.485C64.116 159.675 63.956 159.822 63.7493 159.925C63.5427 160.025 63.3043 160.075 63.0343 160.075ZM63.0343 159.675C63.2943 159.675 63.501 159.595 63.6543 159.435C63.8077 159.275 63.8843 159.065 63.8843 158.805C63.8843 158.535 63.8077 158.322 63.6543 158.165C63.501 158.008 63.2943 157.93 63.0343 157.93C62.7743 157.93 62.5677 158.008 62.4143 158.165C62.261 158.322 62.1843 158.535 62.1843 158.805C62.1843 159.065 62.261 159.275 62.4143 159.435C62.5677 159.595 62.7743 159.675 63.0343 159.675ZM69.9635 160.075C69.7235 160.075 69.5068 160.023 69.3135 159.92C69.1235 159.813 68.9735 159.665 68.8635 159.475C68.7568 159.282 68.7035 159.058 68.7035 158.805C68.7035 158.555 68.7568 158.333 68.8635 158.14C68.9735 157.947 69.1235 157.797 69.3135 157.69C69.5068 157.58 69.7235 157.525 69.9635 157.525C70.3968 157.525 70.7252 157.657 70.9485 157.92V156.305H71.4535V160H70.9635V159.65C70.8302 159.797 70.6835 159.905 70.5235 159.975C70.3668 160.042 70.1802 160.075 69.9635 160.075ZM70.0785 159.675C70.2852 159.675 70.4652 159.622 70.6185 159.515C70.7752 159.405 70.8852 159.258 70.9485 159.075V158.535C70.8918 158.352 70.7835 158.205 70.6235 158.095C70.4668 157.985 70.2852 157.93 70.0785 157.93C69.9152 157.93 69.7668 157.967 69.6335 158.04C69.5035 158.113 69.4002 158.217 69.3235 158.35C69.2502 158.483 69.2135 158.635 69.2135 158.805C69.2135 158.975 69.2502 159.127 69.3235 159.26C69.4002 159.393 69.5035 159.497 69.6335 159.57C69.7668 159.64 69.9152 159.675 70.0785 159.675ZM74.2961 160.075C74.0261 160.075 73.7877 160.025 73.5811 159.925C73.3777 159.822 73.2177 159.675 73.1011 159.485C72.9877 159.292 72.9311 159.065 72.9311 158.805C72.9311 158.548 72.9877 158.323 73.1011 158.13C73.2144 157.937 73.3744 157.788 73.5811 157.685C73.7877 157.578 74.0261 157.525 74.2961 157.525C74.5661 157.525 74.8044 157.578 75.0111 157.685C75.2177 157.788 75.3777 157.937 75.4911 158.13C75.6077 158.323 75.6661 158.548 75.6661 158.805C75.6661 159.065 75.6077 159.292 75.4911 159.485C75.3777 159.675 75.2177 159.822 75.0111 159.925C74.8044 160.025 74.5661 160.075 74.2961 160.075ZM74.2961 159.675C74.5561 159.675 74.7627 159.595 74.9161 159.435C75.0694 159.275 75.1461 159.065 75.1461 158.805C75.1461 158.535 75.0694 158.322 74.9161 158.165C74.7627 158.008 74.5561 157.93 74.2961 157.93C74.0361 157.93 73.8294 158.008 73.6761 158.165C73.5227 158.322 73.4461 158.535 73.4461 158.805C73.4461 159.065 73.5227 159.275 73.6761 159.435C73.8294 159.595 74.0361 159.675 74.2961 159.675ZM80.3602 157.13C80.2769 157.13 80.2069 157.102 80.1502 157.045C80.0936 156.988 80.0652 156.918 80.0652 156.835C80.0652 156.752 80.0936 156.682 80.1502 156.625C80.2069 156.568 80.2769 156.54 80.3602 156.54C80.4469 156.54 80.5186 156.568 80.5752 156.625C80.6352 156.682 80.6652 156.752 80.6652 156.835C80.6652 156.918 80.6352 156.988 80.5752 157.045C80.5186 157.102 80.4469 157.13 80.3602 157.13ZM80.1052 157.6H80.6202V160H80.1052V157.6ZM83.2002 160.075C83.0336 160.075 82.8569 160.053 82.6702 160.01C82.4836 159.97 82.3369 159.915 82.2302 159.845V159.415C82.3602 159.492 82.5102 159.555 82.6802 159.605C82.8502 159.652 83.0152 159.675 83.1752 159.675C83.3552 159.675 83.4869 159.653 83.5702 159.61C83.6536 159.567 83.6952 159.497 83.6952 159.4C83.6952 159.327 83.6752 159.268 83.6352 159.225C83.5986 159.178 83.5336 159.137 83.4402 159.1C83.3502 159.063 83.2136 159.02 83.0302 158.97C82.8336 158.913 82.6769 158.857 82.5602 158.8C82.4469 158.74 82.3602 158.665 82.3002 158.575C82.2436 158.485 82.2152 158.368 82.2152 158.225C82.2152 157.995 82.3052 157.822 82.4852 157.705C82.6686 157.585 82.9136 157.525 83.2202 157.525C83.3802 157.525 83.5369 157.54 83.6902 157.57C83.8436 157.6 83.9669 157.642 84.0602 157.695V158.115C83.9636 158.058 83.8436 158.013 83.7002 157.98C83.5602 157.947 83.4169 157.93 83.2702 157.93C83.0936 157.93 82.9586 157.952 82.8652 157.995C82.7719 158.038 82.7252 158.115 82.7252 158.225C82.7252 158.295 82.7452 158.352 82.7852 158.395C82.8252 158.438 82.8886 158.477 82.9752 158.51C83.0652 158.54 83.2069 158.58 83.4002 158.63C83.7036 158.713 83.9136 158.812 84.0302 158.925C84.1502 159.038 84.2102 159.195 84.2102 159.395C84.2102 159.602 84.1252 159.767 83.9552 159.89C83.7852 160.013 83.5336 160.075 83.2002 160.075ZM89.9321 160.075C89.4888 160.075 89.1404 159.965 88.8871 159.745C88.6371 159.522 88.5121 159.208 88.5121 158.805C88.5121 158.412 88.6238 158.1 88.8471 157.87C89.0738 157.64 89.3954 157.525 89.8121 157.525C90.0888 157.525 90.3238 157.578 90.5171 157.685C90.7104 157.788 90.8554 157.933 90.9521 158.12C91.0521 158.303 91.1021 158.513 91.1021 158.75V159H88.9921C89.0088 159.227 89.1038 159.397 89.2771 159.51C89.4538 159.62 89.6921 159.675 89.9921 159.675C90.1454 159.675 90.3004 159.662 90.4571 159.635C90.6138 159.605 90.7521 159.567 90.8721 159.52V159.925C90.7654 159.968 90.6238 160.003 90.4471 160.03C90.2738 160.06 90.1021 160.075 89.9321 160.075ZM90.6271 158.645C90.6204 158.418 90.5454 158.243 90.4021 158.12C90.2621 157.993 90.0621 157.93 89.8021 157.93C89.5488 157.93 89.3521 157.995 89.2121 158.125C89.0721 158.255 88.9988 158.428 88.9921 158.645H90.6271ZM93.5141 160.075C93.2241 160.075 92.9908 160.002 92.8141 159.855C92.6408 159.705 92.5541 159.503 92.5541 159.25C92.5541 158.983 92.6374 158.778 92.8041 158.635C92.9741 158.488 93.2141 158.415 93.5241 158.415C93.8541 158.415 94.1341 158.482 94.3641 158.615V158.49C94.3641 158.3 94.3058 158.16 94.1891 158.07C94.0758 157.977 93.8958 157.93 93.6491 157.93C93.5024 157.93 93.3591 157.945 93.2191 157.975C93.0824 158.002 92.9591 158.04 92.8491 158.09V157.68C92.9491 157.633 93.0791 157.597 93.2391 157.57C93.3991 157.54 93.5541 157.525 93.7041 157.525C94.1008 157.525 94.3941 157.613 94.5841 157.79C94.7774 157.963 94.8741 158.205 94.8741 158.515V160H94.3991V159.73C94.2958 159.843 94.1724 159.93 94.0291 159.99C93.8891 160.047 93.7174 160.075 93.5141 160.075ZM93.6391 159.69C93.7991 159.69 93.9441 159.658 94.0741 159.595C94.2041 159.532 94.3008 159.443 94.3641 159.33V159.005C94.1474 158.865 93.9058 158.795 93.6391 158.795C93.4458 158.795 93.3008 158.833 93.2041 158.91C93.1108 158.983 93.0641 159.097 93.0641 159.25C93.0641 159.543 93.2558 159.69 93.6391 159.69ZM97.2988 160.075C97.0555 160.075 96.8672 160.005 96.7338 159.865C96.6038 159.725 96.5388 159.527 96.5388 159.27V157.99H96.1738V157.6H96.5388V156.88H97.0488V157.6H97.6388V157.99H97.0488V159.235C97.0488 159.395 97.0788 159.508 97.1388 159.575C97.2022 159.642 97.3155 159.675 97.4788 159.675C97.5755 159.675 97.6722 159.653 97.7688 159.61V160.01C97.6422 160.053 97.4855 160.075 97.2988 160.075ZM99.5489 159.735H100.079L99.6039 160.74H99.1439L99.5489 159.735ZM105.641 160.075C105.401 160.075 105.185 160.023 104.991 159.92C104.801 159.813 104.651 159.665 104.541 159.475C104.435 159.282 104.381 159.058 104.381 158.805C104.381 158.555 104.435 158.333 104.541 158.14C104.651 157.947 104.801 157.797 104.991 157.69C105.185 157.58 105.401 157.525 105.641 157.525C106.075 157.525 106.403 157.657 106.626 157.92V156.305H107.131V160H106.641V159.65C106.508 159.797 106.361 159.905 106.201 159.975C106.045 160.042 105.858 160.075 105.641 160.075ZM105.756 159.675C105.963 159.675 106.143 159.622 106.296 159.515C106.453 159.405 106.563 159.258 106.626 159.075V158.535C106.57 158.352 106.461 158.205 106.301 158.095C106.145 157.985 105.963 157.93 105.756 157.93C105.593 157.93 105.445 157.967 105.311 158.04C105.181 158.113 105.078 158.217 105.001 158.35C104.928 158.483 104.891 158.635 104.891 158.805C104.891 158.975 104.928 159.127 105.001 159.26C105.078 159.393 105.181 159.497 105.311 159.57C105.445 159.64 105.593 159.675 105.756 159.675ZM108.782 157.6H109.272V158.03C109.372 157.883 109.512 157.775 109.692 157.705C109.875 157.635 110.087 157.6 110.327 157.6V157.995C110.07 157.995 109.85 158.037 109.667 158.12C109.484 158.203 109.357 158.335 109.287 158.515V160H108.782V157.6ZM112.074 157.13C111.991 157.13 111.921 157.102 111.864 157.045C111.807 156.988 111.779 156.918 111.779 156.835C111.779 156.752 111.807 156.682 111.864 156.625C111.921 156.568 111.991 156.54 112.074 156.54C112.161 156.54 112.232 156.568 112.289 156.625C112.349 156.682 112.379 156.752 112.379 156.835C112.379 156.918 112.349 156.988 112.289 157.045C112.232 157.102 112.161 157.13 112.074 157.13ZM111.819 157.6H112.334V160H111.819V157.6ZM114.029 157.6H114.519V157.945C114.632 157.802 114.771 157.697 114.934 157.63C115.101 157.56 115.274 157.525 115.454 157.525C115.774 157.525 116.012 157.61 116.169 157.78C116.326 157.95 116.404 158.178 116.404 158.465V160H115.899V158.515C115.899 158.125 115.712 157.93 115.339 157.93C115.179 157.93 115.029 157.968 114.889 158.045C114.752 158.118 114.634 158.232 114.534 158.385V160H114.029V157.6ZM118.027 156.305H118.532V160H118.027V156.305ZM118.537 158.785L119.642 157.6H120.257L119.147 158.785L120.372 160H119.757L118.537 158.785ZM18.185 168.075C17.895 168.075 17.6617 168.002 17.485 167.855C17.3117 167.705 17.225 167.503 17.225 167.25C17.225 166.983 17.3083 166.778 17.475 166.635C17.645 166.488 17.885 166.415 18.195 166.415C18.525 166.415 18.805 166.482 19.035 166.615V166.49C19.035 166.3 18.9767 166.16 18.86 166.07C18.7467 165.977 18.5667 165.93 18.32 165.93C18.1733 165.93 18.03 165.945 17.89 165.975C17.7533 166.002 17.63 166.04 17.52 166.09V165.68C17.62 165.633 17.75 165.597 17.91 165.57C18.07 165.54 18.225 165.525 18.375 165.525C18.7717 165.525 19.065 165.613 19.255 165.79C19.4483 165.963 19.545 166.205 19.545 166.515V168H19.07V167.73C18.9667 167.843 18.8433 167.93 18.7 167.99C18.56 168.047 18.3883 168.075 18.185 168.075ZM18.31 167.69C18.47 167.69 18.615 167.658 18.745 167.595C18.875 167.532 18.9717 167.443 19.035 167.33V167.005C18.8183 166.865 18.5767 166.795 18.31 166.795C18.1167 166.795 17.9717 166.833 17.875 166.91C17.7817 166.983 17.735 167.097 17.735 167.25C17.735 167.543 17.9267 167.69 18.31 167.69ZM21.1717 165.6H21.6617V165.945C21.775 165.802 21.9133 165.697 22.0767 165.63C22.2433 165.56 22.4167 165.525 22.5967 165.525C22.9167 165.525 23.155 165.61 23.3117 165.78C23.4683 165.95 23.5467 166.178 23.5467 166.465V168H23.0417V166.515C23.0417 166.125 22.855 165.93 22.4817 165.93C22.3217 165.93 22.1717 165.968 22.0317 166.045C21.895 166.118 21.7767 166.232 21.6767 166.385V168H21.1717V165.6ZM26.3297 168.075C26.0897 168.075 25.8731 168.023 25.6797 167.92C25.4897 167.813 25.3397 167.665 25.2297 167.475C25.1231 167.282 25.0697 167.058 25.0697 166.805C25.0697 166.555 25.1231 166.333 25.2297 166.14C25.3397 165.947 25.4897 165.797 25.6797 165.69C25.8731 165.58 26.0897 165.525 26.3297 165.525C26.7631 165.525 27.0914 165.657 27.3147 165.92V164.305H27.8197V168H27.3297V167.65C27.1964 167.797 27.0497 167.905 26.8897 167.975C26.7331 168.042 26.5464 168.075 26.3297 168.075ZM26.4447 167.675C26.6514 167.675 26.8314 167.622 26.9847 167.515C27.1414 167.405 27.2514 167.258 27.3147 167.075V166.535C27.2581 166.352 27.1497 166.205 26.9897 166.095C26.8331 165.985 26.6514 165.93 26.4447 165.93C26.2814 165.93 26.1331 165.967 25.9997 166.04C25.8697 166.113 25.7664 166.217 25.6897 166.35C25.6164 166.483 25.5797 166.635 25.5797 166.805C25.5797 166.975 25.6164 167.127 25.6897 167.26C25.7664 167.393 25.8697 167.497 25.9997 167.57C26.1331 167.64 26.2814 167.675 26.4447 167.675ZM33.8111 168.075C33.5944 168.075 33.4061 168.042 33.2461 167.975C33.0894 167.905 32.9444 167.797 32.8111 167.65V168H32.3211V164.305H32.8261V165.92C32.9361 165.79 33.0778 165.692 33.2511 165.625C33.4244 165.558 33.6111 165.525 33.8111 165.525C34.0511 165.525 34.2661 165.58 34.4561 165.69C34.6494 165.797 34.7994 165.947 34.9061 166.14C35.0161 166.333 35.0711 166.555 35.0711 166.805C35.0711 167.058 35.0161 167.282 34.9061 167.475C34.7994 167.665 34.6494 167.813 34.4561 167.92C34.2661 168.023 34.0511 168.075 33.8111 168.075ZM33.6961 167.675C33.8594 167.675 34.0061 167.64 34.1361 167.57C34.2694 167.497 34.3728 167.393 34.4461 167.26C34.5228 167.127 34.5611 166.975 34.5611 166.805C34.5611 166.635 34.5228 166.483 34.4461 166.35C34.3728 166.217 34.2694 166.113 34.1361 166.04C34.0061 165.967 33.8594 165.93 33.6961 165.93C33.4928 165.93 33.3111 165.985 33.1511 166.095C32.9911 166.205 32.8828 166.352 32.8261 166.535V167.075C32.8894 167.258 32.9978 167.405 33.1511 167.515C33.3078 167.622 33.4894 167.675 33.6961 167.675ZM37.9419 168.075C37.4985 168.075 37.1502 167.965 36.8969 167.745C36.6469 167.522 36.5219 167.208 36.5219 166.805C36.5219 166.412 36.6335 166.1 36.8569 165.87C37.0835 165.64 37.4052 165.525 37.8219 165.525C38.0985 165.525 38.3335 165.578 38.5269 165.685C38.7202 165.788 38.8652 165.933 38.9619 166.12C39.0619 166.303 39.1119 166.513 39.1119 166.75V167H37.0019C37.0185 167.227 37.1135 167.397 37.2869 167.51C37.4635 167.62 37.7019 167.675 38.0019 167.675C38.1552 167.675 38.3102 167.662 38.4669 167.635C38.6235 167.605 38.7619 167.567 38.8819 167.52V167.925C38.7752 167.968 38.6335 168.003 38.4569 168.03C38.2835 168.06 38.1119 168.075 37.9419 168.075ZM38.6369 166.645C38.6302 166.418 38.5552 166.243 38.4119 166.12C38.2719 165.993 38.0719 165.93 37.8119 165.93C37.5585 165.93 37.3619 165.995 37.2219 166.125C37.0819 166.255 37.0085 166.428 37.0019 166.645H38.6369ZM43.5145 165.6H43.9945V165.945C44.1078 165.805 44.2361 165.7 44.3795 165.63C44.5228 165.56 44.6711 165.525 44.8245 165.525C45.0178 165.525 45.1711 165.558 45.2845 165.625C45.3978 165.688 45.4811 165.787 45.5345 165.92C45.6411 165.79 45.7711 165.692 45.9245 165.625C46.0811 165.558 46.2378 165.525 46.3945 165.525C46.6878 165.525 46.8995 165.6 47.0295 165.75C47.1595 165.897 47.2245 166.115 47.2245 166.405V168H46.7345V166.47C46.7345 166.273 46.6978 166.135 46.6245 166.055C46.5511 165.972 46.4261 165.93 46.2495 165.93C45.9961 165.93 45.7895 166.04 45.6295 166.26C45.6361 166.31 45.6395 166.392 45.6395 166.505V168H45.1495V166.47C45.1495 166.273 45.1161 166.135 45.0495 166.055C44.9828 165.972 44.8628 165.93 44.6895 165.93C44.4361 165.93 44.2095 166.073 44.0095 166.36V168H43.5145V165.6ZM50.1704 168.075C49.7271 168.075 49.3787 167.965 49.1254 167.745C48.8754 167.522 48.7504 167.208 48.7504 166.805C48.7504 166.412 48.8621 166.1 49.0854 165.87C49.3121 165.64 49.6337 165.525 50.0504 165.525C50.3271 165.525 50.5621 165.578 50.7554 165.685C50.9487 165.788 51.0937 165.933 51.1904 166.12C51.2904 166.303 51.3404 166.513 51.3404 166.75V167H49.2304C49.2471 167.227 49.3421 167.397 49.5154 167.51C49.6921 167.62 49.9304 167.675 50.2304 167.675C50.3837 167.675 50.5387 167.662 50.6954 167.635C50.8521 167.605 50.9904 167.567 51.1104 167.52V167.925C51.0037 167.968 50.8621 168.003 50.6854 168.03C50.5121 168.06 50.3404 168.075 50.1704 168.075ZM50.8654 166.645C50.8587 166.418 50.7837 166.243 50.6404 166.12C50.5004 165.993 50.3004 165.93 50.0404 165.93C49.7871 165.93 49.5904 165.995 49.4504 166.125C49.3104 166.255 49.2371 166.428 49.2304 166.645H50.8654ZM52.8924 165.6H53.3824V166.03C53.4824 165.883 53.6224 165.775 53.8024 165.705C53.9857 165.635 54.1974 165.6 54.4374 165.6V165.995C54.1807 165.995 53.9607 166.037 53.7774 166.12C53.594 166.203 53.4674 166.335 53.3974 166.515V168H52.8924V165.6ZM55.865 165.6H56.355V166.03C56.455 165.883 56.595 165.775 56.775 165.705C56.9584 165.635 57.17 165.6 57.41 165.6V165.995C57.1534 165.995 56.9334 166.037 56.75 166.12C56.5667 166.203 56.44 166.335 56.37 166.515V168H55.865V165.6ZM59.2989 168.99C59.1189 168.99 58.9689 168.972 58.8489 168.935V168.54C58.9355 168.573 59.0422 168.59 59.1689 168.59C59.2855 168.59 59.3772 168.56 59.4439 168.5C59.5105 168.443 59.5705 168.35 59.6239 168.22L59.7389 167.94L58.6889 165.6H59.2089L60.0089 167.445L60.7539 165.6H61.2739L60.1939 168.27C60.0939 168.52 59.9739 168.702 59.8339 168.815C59.6972 168.932 59.5189 168.99 59.2989 168.99ZM62.8584 168C62.7918 168 62.7351 167.978 62.6884 167.935C62.6451 167.888 62.6234 167.832 62.6234 167.765C62.6234 167.698 62.6451 167.642 62.6884 167.595C62.7351 167.548 62.7918 167.525 62.8584 167.525C62.9251 167.525 62.9818 167.548 63.0284 167.595C63.0751 167.642 63.0984 167.698 63.0984 167.765C63.0984 167.832 63.0751 167.888 63.0284 167.935C62.9818 167.978 62.9251 168 62.8584 168ZM70.2475 164.505H70.7775L71.5575 167.16L72.3275 164.505H72.7275L73.4925 167.16L74.2725 164.505H74.8025L73.7825 168H73.2975L72.5225 165.36L71.7525 168H71.2675L70.2475 164.505ZM76.4716 165.13C76.3882 165.13 76.3182 165.102 76.2616 165.045C76.2049 164.988 76.1766 164.918 76.1766 164.835C76.1766 164.752 76.2049 164.682 76.2616 164.625C76.3182 164.568 76.3882 164.54 76.4716 164.54C76.5582 164.54 76.6299 164.568 76.6866 164.625C76.7466 164.682 76.7766 164.752 76.7766 164.835C76.7766 164.918 76.7466 164.988 76.6866 165.045C76.6299 165.102 76.5582 165.13 76.4716 165.13ZM76.2166 165.6H76.7316V168H76.2166V165.6ZM78.4266 164.305H78.9316V168H78.4266V164.305ZM80.5838 164.305H81.0888V168H80.5838V164.305ZM85.5916 165.6H86.0816V165.955C86.3283 165.668 86.6616 165.525 87.0816 165.525C87.3216 165.525 87.5366 165.578 87.7266 165.685C87.9199 165.792 88.0699 165.942 88.1766 166.135C88.2866 166.325 88.3416 166.547 88.3416 166.8C88.3416 167.05 88.2866 167.272 88.1766 167.465C88.0699 167.658 87.9216 167.808 87.7316 167.915C87.5416 168.022 87.3249 168.075 87.0816 168.075C86.8816 168.075 86.6949 168.042 86.5216 167.975C86.3483 167.908 86.2066 167.81 86.0966 167.68V169.095H85.5916V165.6ZM86.9666 167.675C87.1299 167.675 87.2766 167.64 87.4066 167.57C87.5399 167.497 87.6433 167.393 87.7166 167.26C87.7933 167.127 87.8316 166.973 87.8316 166.8C87.8316 166.627 87.7933 166.475 87.7166 166.345C87.6433 166.212 87.5399 166.11 87.4066 166.04C87.2766 165.967 87.1299 165.93 86.9666 165.93C86.7633 165.93 86.5833 165.983 86.4266 166.09C86.2733 166.197 86.1633 166.343 86.0966 166.53V167.07C86.1533 167.253 86.2616 167.4 86.4216 167.51C86.5816 167.62 86.7633 167.675 86.9666 167.675ZM89.8924 165.6H90.3824V166.03C90.4824 165.883 90.6224 165.775 90.8024 165.705C90.9857 165.635 91.1974 165.6 91.4374 165.6V165.995C91.1807 165.995 90.9607 166.037 90.7774 166.12C90.594 166.203 90.4674 166.335 90.3974 166.515V168H89.8924V165.6ZM94.0812 168.075C93.8112 168.075 93.5729 168.025 93.3662 167.925C93.1629 167.822 93.0029 167.675 92.8862 167.485C92.7729 167.292 92.7162 167.065 92.7162 166.805C92.7162 166.548 92.7729 166.323 92.8862 166.13C92.9995 165.937 93.1595 165.788 93.3662 165.685C93.5729 165.578 93.8112 165.525 94.0812 165.525C94.3512 165.525 94.5895 165.578 94.7962 165.685C95.0029 165.788 95.1629 165.937 95.2762 166.13C95.3929 166.323 95.4512 166.548 95.4512 166.805C95.4512 167.065 95.3929 167.292 95.2762 167.485C95.1629 167.675 95.0029 167.822 94.7962 167.925C94.5895 168.025 94.3512 168.075 94.0812 168.075ZM94.0812 167.675C94.3412 167.675 94.5479 167.595 94.7012 167.435C94.8545 167.275 94.9312 167.065 94.9312 166.805C94.9312 166.535 94.8545 166.322 94.7012 166.165C94.5479 166.008 94.3412 165.93 94.0812 165.93C93.8212 165.93 93.6145 166.008 93.4612 166.165C93.3079 166.322 93.2312 166.535 93.2312 166.805C93.2312 167.065 93.3079 167.275 93.4612 167.435C93.6145 167.595 93.8212 167.675 94.0812 167.675ZM98.4166 168.075C98.1999 168.075 98.0116 168.042 97.8516 167.975C97.6949 167.905 97.5499 167.797 97.4166 167.65V168H96.9266V164.305H97.4316V165.92C97.5416 165.79 97.6832 165.692 97.8566 165.625C98.0299 165.558 98.2166 165.525 98.4166 165.525C98.6566 165.525 98.8716 165.58 99.0616 165.69C99.2549 165.797 99.4049 165.947 99.5116 166.14C99.6216 166.333 99.6766 166.555 99.6766 166.805C99.6766 167.058 99.6216 167.282 99.5116 167.475C99.4049 167.665 99.2549 167.813 99.0616 167.92C98.8716 168.023 98.6566 168.075 98.4166 168.075ZM98.3016 167.675C98.4649 167.675 98.6116 167.64 98.7416 167.57C98.8749 167.497 98.9782 167.393 99.0516 167.26C99.1282 167.127 99.1666 166.975 99.1666 166.805C99.1666 166.635 99.1282 166.483 99.0516 166.35C98.9782 166.217 98.8749 166.113 98.7416 166.04C98.6116 165.967 98.4649 165.93 98.3016 165.93C98.0982 165.93 97.9166 165.985 97.7566 166.095C97.5966 166.205 97.4882 166.352 97.4316 166.535V167.075C97.4949 167.258 97.6032 167.405 97.7566 167.515C97.9132 167.622 98.0949 167.675 98.3016 167.675ZM101.96 168.075C101.67 168.075 101.437 168.002 101.26 167.855C101.087 167.705 101 167.503 101 167.25C101 166.983 101.084 166.778 101.25 166.635C101.42 166.488 101.66 166.415 101.97 166.415C102.3 166.415 102.58 166.482 102.81 166.615V166.49C102.81 166.3 102.752 166.16 102.635 166.07C102.522 165.977 102.342 165.93 102.095 165.93C101.949 165.93 101.805 165.945 101.665 165.975C101.529 166.002 101.405 166.04 101.295 166.09V165.68C101.395 165.633 101.525 165.597 101.685 165.57C101.845 165.54 102 165.525 102.15 165.525C102.547 165.525 102.84 165.613 103.03 165.79C103.224 165.963 103.32 166.205 103.32 166.515V168H102.845V167.73C102.742 167.843 102.619 167.93 102.475 167.99C102.335 168.047 102.164 168.075 101.96 168.075ZM102.085 167.69C102.245 167.69 102.39 167.658 102.52 167.595C102.65 167.532 102.747 167.443 102.81 167.33V167.005C102.594 166.865 102.352 166.795 102.085 166.795C101.892 166.795 101.747 166.833 101.65 166.91C101.557 166.983 101.51 167.097 101.51 167.25C101.51 167.543 101.702 167.69 102.085 167.69ZM106.437 168.075C106.22 168.075 106.032 168.042 105.872 167.975C105.715 167.905 105.57 167.797 105.437 167.65V168H104.947V164.305H105.452V165.92C105.562 165.79 105.704 165.692 105.877 165.625C106.05 165.558 106.237 165.525 106.437 165.525C106.677 165.525 106.892 165.58 107.082 165.69C107.275 165.797 107.425 165.947 107.532 166.14C107.642 166.333 107.697 166.555 107.697 166.805C107.697 167.058 107.642 167.282 107.532 167.475C107.425 167.665 107.275 167.813 107.082 167.92C106.892 168.023 106.677 168.075 106.437 168.075ZM106.322 167.675C106.485 167.675 106.632 167.64 106.762 167.57C106.895 167.497 106.999 167.393 107.072 167.26C107.149 167.127 107.187 166.975 107.187 166.805C107.187 166.635 107.149 166.483 107.072 166.35C106.999 166.217 106.895 166.113 106.762 166.04C106.632 165.967 106.485 165.93 106.322 165.93C106.119 165.93 105.937 165.985 105.777 166.095C105.617 166.205 105.509 166.352 105.452 166.535V167.075C105.515 167.258 105.624 167.405 105.777 167.515C105.934 167.622 106.115 167.675 106.322 167.675ZM109.248 164.305H109.753V168H109.248V164.305ZM111.915 168.99C111.735 168.99 111.585 168.972 111.465 168.935V168.54C111.552 168.573 111.658 168.59 111.785 168.59C111.902 168.59 111.993 168.56 112.06 168.5C112.127 168.443 112.187 168.35 112.24 168.22L112.355 167.94L111.305 165.6H111.825L112.625 167.445L113.37 165.6H113.89L112.81 168.27C112.71 168.52 112.59 168.702 112.45 168.815C112.313 168.932 112.135 168.99 111.915 168.99ZM118.19 164.305H118.695V165.93C118.925 165.66 119.232 165.525 119.615 165.525C119.935 165.525 120.174 165.61 120.33 165.78C120.487 165.95 120.565 166.178 120.565 166.465V168H120.06V166.515C120.06 166.125 119.874 165.93 119.5 165.93C119.34 165.93 119.19 165.968 119.05 166.045C118.914 166.118 118.795 166.232 118.695 166.385V168H118.19V164.305ZM122.483 165.13C122.4 165.13 122.33 165.102 122.273 165.045C122.217 164.988 122.188 164.918 122.188 164.835C122.188 164.752 122.217 164.682 122.273 164.625C122.33 164.568 122.4 164.54 122.483 164.54C122.57 164.54 122.642 164.568 122.698 164.625C122.758 164.682 122.788 164.752 122.788 164.835C122.788 164.918 122.758 164.988 122.698 165.045C122.642 165.102 122.57 165.13 122.483 165.13ZM122.228 165.6H122.743V168H122.228V165.6ZM125.363 168.075C125.12 168.075 124.932 168.005 124.798 167.865C124.668 167.725 124.603 167.527 124.603 167.27V165.99H124.238V165.6H124.603V164.88H125.113V165.6H125.703V165.99H125.113V167.235C125.113 167.395 125.143 167.508 125.203 167.575C125.267 167.642 125.38 167.675 125.543 167.675C125.64 167.675 125.737 167.653 125.833 167.61V168.01C125.707 168.053 125.55 168.075 125.363 168.075ZM17.835 176.99C17.655 176.99 17.505 176.972 17.385 176.935V176.54C17.4717 176.573 17.5783 176.59 17.705 176.59C17.8217 176.59 17.9133 176.56 17.98 176.5C18.0467 176.443 18.1067 176.35 18.16 176.22L18.275 175.94L17.225 173.6H17.745L18.545 175.445L19.29 173.6H19.81L18.73 176.27C18.63 176.52 18.51 176.702 18.37 176.815C18.2333 176.932 18.055 176.99 17.835 176.99ZM22.1974 176.075C21.9274 176.075 21.6891 176.025 21.4824 175.925C21.2791 175.822 21.1191 175.675 21.0024 175.485C20.8891 175.292 20.8324 175.065 20.8324 174.805C20.8324 174.548 20.8891 174.323 21.0024 174.13C21.1158 173.937 21.2758 173.788 21.4824 173.685C21.6891 173.578 21.9274 173.525 22.1974 173.525C22.4674 173.525 22.7058 173.578 22.9124 173.685C23.1191 173.788 23.2791 173.937 23.3924 174.13C23.5091 174.323 23.5674 174.548 23.5674 174.805C23.5674 175.065 23.5091 175.292 23.3924 175.485C23.2791 175.675 23.1191 175.822 22.9124 175.925C22.7058 176.025 22.4674 176.075 22.1974 176.075ZM22.1974 175.675C22.4574 175.675 22.6641 175.595 22.8174 175.435C22.9708 175.275 23.0474 175.065 23.0474 174.805C23.0474 174.535 22.9708 174.322 22.8174 174.165C22.6641 174.008 22.4574 173.93 22.1974 173.93C21.9374 173.93 21.7308 174.008 21.5774 174.165C21.4241 174.322 21.3474 174.535 21.3474 174.805C21.3474 175.065 21.4241 175.275 21.5774 175.435C21.7308 175.595 21.9374 175.675 22.1974 175.675ZM26.071 176.075C25.7477 176.075 25.5027 175.988 25.336 175.815C25.1727 175.642 25.091 175.41 25.091 175.12V173.6H25.596V175.1C25.596 175.483 25.7877 175.675 26.171 175.675C26.5077 175.675 26.771 175.523 26.961 175.22V173.6H27.466V176H26.976V175.66C26.8627 175.803 26.7277 175.908 26.571 175.975C26.4177 176.042 26.251 176.075 26.071 176.075ZM32.2596 173.13C32.1763 173.13 32.1063 173.102 32.0496 173.045C31.993 172.988 31.9646 172.918 31.9646 172.835C31.9646 172.752 31.993 172.682 32.0496 172.625C32.1063 172.568 32.1763 172.54 32.2596 172.54C32.3463 172.54 32.418 172.568 32.4746 172.625C32.5346 172.682 32.5646 172.752 32.5646 172.835C32.5646 172.918 32.5346 172.988 32.4746 173.045C32.418 173.102 32.3463 173.13 32.2596 173.13ZM32.0046 173.6H32.5196V176H32.0046V173.6ZM34.2146 173.6H34.7046V173.945C34.818 173.802 34.9563 173.697 35.1196 173.63C35.2863 173.56 35.4596 173.525 35.6396 173.525C35.9596 173.525 36.198 173.61 36.3546 173.78C36.5113 173.95 36.5896 174.178 36.5896 174.465V176H36.0846V174.515C36.0846 174.125 35.898 173.93 35.5246 173.93C35.3646 173.93 35.2146 173.968 35.0746 174.045C34.938 174.118 34.8196 174.232 34.7196 174.385V176H34.2146V173.6ZM41.9883 176.075C41.7449 176.075 41.5566 176.005 41.4233 175.865C41.2933 175.725 41.2283 175.527 41.2283 175.27V173.99H40.8633V173.6H41.2283V172.88H41.7383V173.6H42.3283V173.99H41.7383V175.235C41.7383 175.395 41.7683 175.508 41.8283 175.575C41.8916 175.642 42.0049 175.675 42.1683 175.675C42.2649 175.675 42.3616 175.653 42.4583 175.61V176.01C42.3316 176.053 42.1749 176.075 41.9883 176.075ZM43.9334 172.305H44.4384V173.93C44.6684 173.66 44.9751 173.525 45.3584 173.525C45.6784 173.525 45.9167 173.61 46.0734 173.78C46.2301 173.95 46.3084 174.178 46.3084 174.465V176H45.8034V174.515C45.8034 174.125 45.6167 173.93 45.2434 173.93C45.0834 173.93 44.9334 173.968 44.7934 174.045C44.6567 174.118 44.5384 174.232 44.4384 174.385V176H43.9334V172.305ZM49.2514 176.075C48.8081 176.075 48.4598 175.965 48.2064 175.745C47.9564 175.522 47.8314 175.208 47.8314 174.805C47.8314 174.412 47.9431 174.1 48.1664 173.87C48.3931 173.64 48.7148 173.525 49.1314 173.525C49.4081 173.525 49.6431 173.578 49.8364 173.685C50.0298 173.788 50.1748 173.933 50.2714 174.12C50.3714 174.303 50.4214 174.513 50.4214 174.75V175H48.3114C48.3281 175.227 48.4231 175.397 48.5964 175.51C48.7731 175.62 49.0114 175.675 49.3114 175.675C49.4648 175.675 49.6198 175.662 49.7764 175.635C49.9331 175.605 50.0714 175.567 50.1914 175.52V175.925C50.0848 175.968 49.9431 176.003 49.7664 176.03C49.5931 176.06 49.4214 176.075 49.2514 176.075ZM49.9464 174.645C49.9398 174.418 49.8648 174.243 49.7214 174.12C49.5814 173.993 49.3814 173.93 49.1214 173.93C48.8681 173.93 48.6714 173.995 48.5314 174.125C48.3914 174.255 48.3181 174.428 48.3114 174.645H49.9464ZM54.989 173.99H54.624V173.6H54.989V173.13C54.989 172.853 55.0674 172.643 55.224 172.5C55.3807 172.353 55.5907 172.28 55.854 172.28C55.9907 172.28 56.119 172.3 56.239 172.34V172.76C56.1457 172.717 56.049 172.695 55.949 172.695C55.7924 172.695 55.6774 172.733 55.604 172.81C55.5307 172.883 55.494 173 55.494 173.16V173.6H56.094V173.99H55.494V176H54.989V173.99ZM58.1196 176.075C57.8296 176.075 57.5962 176.002 57.4196 175.855C57.2462 175.705 57.1596 175.503 57.1596 175.25C57.1596 174.983 57.2429 174.778 57.4096 174.635C57.5796 174.488 57.8196 174.415 58.1296 174.415C58.4596 174.415 58.7396 174.482 58.9696 174.615V174.49C58.9696 174.3 58.9112 174.16 58.7946 174.07C58.6812 173.977 58.5012 173.93 58.2546 173.93C58.1079 173.93 57.9646 173.945 57.8246 173.975C57.6879 174.002 57.5646 174.04 57.4546 174.09V173.68C57.5546 173.633 57.6846 173.597 57.8446 173.57C58.0046 173.54 58.1596 173.525 58.3096 173.525C58.7062 173.525 58.9996 173.613 59.1896 173.79C59.3829 173.963 59.4796 174.205 59.4796 174.515V176H59.0046V175.73C58.9012 175.843 58.7779 175.93 58.6346 175.99C58.4946 176.047 58.3229 176.075 58.1196 176.075ZM58.2446 175.69C58.4046 175.69 58.5496 175.658 58.6796 175.595C58.8096 175.532 58.9062 175.443 58.9696 175.33V175.005C58.7529 174.865 58.5112 174.795 58.2446 174.795C58.0512 174.795 57.9062 174.833 57.8096 174.91C57.7162 174.983 57.6696 175.097 57.6696 175.25C57.6696 175.543 57.8612 175.69 58.2446 175.69ZM62.2736 176.075C62.0069 176.075 61.7703 176.025 61.5636 175.925C61.3569 175.825 61.1953 175.68 61.0786 175.49C60.9653 175.297 60.9086 175.068 60.9086 174.805C60.9086 174.542 60.9653 174.315 61.0786 174.125C61.1953 173.932 61.3569 173.783 61.5636 173.68C61.7736 173.577 62.0136 173.525 62.2836 173.525C62.6503 173.525 62.9436 173.597 63.1636 173.74V174.155C62.9469 174.005 62.6703 173.93 62.3336 173.93C62.0603 173.93 61.8386 174.005 61.6686 174.155C61.5019 174.302 61.4186 174.518 61.4186 174.805C61.4186 175.092 61.5019 175.308 61.6686 175.455C61.8353 175.602 62.0536 175.675 62.3236 175.675C62.6603 175.675 62.9503 175.595 63.1936 175.435V175.845C63.0769 175.925 62.9436 175.983 62.7936 176.02C62.6469 176.057 62.4736 176.075 62.2736 176.075ZM66.063 176.075C65.6196 176.075 65.2713 175.965 65.018 175.745C64.768 175.522 64.643 175.208 64.643 174.805C64.643 174.412 64.7546 174.1 64.978 173.87C65.2046 173.64 65.5263 173.525 65.943 173.525C66.2196 173.525 66.4546 173.578 66.648 173.685C66.8413 173.788 66.9863 173.933 67.083 174.12C67.183 174.303 67.233 174.513 67.233 174.75V175H65.123C65.1396 175.227 65.2346 175.397 65.408 175.51C65.5846 175.62 65.823 175.675 66.123 175.675C66.2763 175.675 66.4313 175.662 66.588 175.635C66.7446 175.605 66.883 175.567 67.003 175.52V175.925C66.8963 175.968 66.7546 176.003 66.578 176.03C66.4046 176.06 66.233 176.075 66.063 176.075ZM66.758 174.645C66.7513 174.418 66.6763 174.243 66.533 174.12C66.393 173.993 66.193 173.93 65.933 173.93C65.6796 173.93 65.483 173.995 65.343 174.125C65.203 174.255 65.1296 174.428 65.123 174.645H66.758ZM72.9005 176.075C72.6305 176.075 72.3922 176.025 72.1855 175.925C71.9822 175.822 71.8222 175.675 71.7055 175.485C71.5922 175.292 71.5355 175.065 71.5355 174.805C71.5355 174.548 71.5922 174.323 71.7055 174.13C71.8189 173.937 71.9789 173.788 72.1855 173.685C72.3922 173.578 72.6305 173.525 72.9005 173.525C73.1705 173.525 73.4089 173.578 73.6155 173.685C73.8222 173.788 73.9822 173.937 74.0955 174.13C74.2122 174.323 74.2705 174.548 74.2705 174.805C74.2705 175.065 74.2122 175.292 74.0955 175.485C73.9822 175.675 73.8222 175.822 73.6155 175.925C73.4089 176.025 73.1705 176.075 72.9005 176.075ZM72.9005 175.675C73.1605 175.675 73.3672 175.595 73.5205 175.435C73.6739 175.275 73.7505 175.065 73.7505 174.805C73.7505 174.535 73.6739 174.322 73.5205 174.165C73.3672 174.008 73.1605 173.93 72.9005 173.93C72.6405 173.93 72.4339 174.008 72.2805 174.165C72.1272 174.322 72.0505 174.535 72.0505 174.805C72.0505 175.065 72.1272 175.275 72.2805 175.435C72.4339 175.595 72.6405 175.675 72.9005 175.675ZM75.8191 173.6H76.3091V173.945C76.4225 173.802 76.5608 173.697 76.7241 173.63C76.8908 173.56 77.0641 173.525 77.2441 173.525C77.5641 173.525 77.8025 173.61 77.9591 173.78C78.1158 173.95 78.1941 174.178 78.1941 174.465V176H77.6891V174.515C77.6891 174.125 77.5025 173.93 77.1291 173.93C76.9691 173.93 76.8191 173.968 76.6791 174.045C76.5425 174.118 76.4241 174.232 76.3241 174.385V176H75.8191V173.6ZM83.5278 176.075C83.2378 176.075 83.0044 176.002 82.8278 175.855C82.6544 175.705 82.5678 175.503 82.5678 175.25C82.5678 174.983 82.6511 174.778 82.8178 174.635C82.9878 174.488 83.2278 174.415 83.5378 174.415C83.8678 174.415 84.1478 174.482 84.3778 174.615V174.49C84.3778 174.3 84.3194 174.16 84.2028 174.07C84.0894 173.977 83.9094 173.93 83.6628 173.93C83.5161 173.93 83.3728 173.945 83.2328 173.975C83.0961 174.002 82.9728 174.04 82.8628 174.09V173.68C82.9628 173.633 83.0928 173.597 83.2528 173.57C83.4128 173.54 83.5678 173.525 83.7178 173.525C84.1144 173.525 84.4078 173.613 84.5978 173.79C84.7911 173.963 84.8878 174.205 84.8878 174.515V176H84.4128V175.73C84.3094 175.843 84.1861 175.93 84.0428 175.99C83.9028 176.047 83.7311 176.075 83.5278 176.075ZM83.6528 175.69C83.8128 175.69 83.9578 175.658 84.0878 175.595C84.2178 175.532 84.3144 175.443 84.3778 175.33V175.005C84.1611 174.865 83.9194 174.795 83.6528 174.795C83.4594 174.795 83.3144 174.833 83.2178 174.91C83.1244 174.983 83.0778 175.097 83.0778 175.25C83.0778 175.543 83.2694 175.69 83.6528 175.69ZM87.6818 176.075C87.4151 176.075 87.1785 176.025 86.9718 175.925C86.7651 175.825 86.6035 175.68 86.4868 175.49C86.3735 175.297 86.3168 175.068 86.3168 174.805C86.3168 174.542 86.3735 174.315 86.4868 174.125C86.6035 173.932 86.7651 173.783 86.9718 173.68C87.1818 173.577 87.4218 173.525 87.6918 173.525C88.0585 173.525 88.3518 173.597 88.5718 173.74V174.155C88.3551 174.005 88.0785 173.93 87.7418 173.93C87.4685 173.93 87.2468 174.005 87.0768 174.155C86.9101 174.302 86.8268 174.518 86.8268 174.805C86.8268 175.092 86.9101 175.308 87.0768 175.455C87.2435 175.602 87.4618 175.675 87.7318 175.675C88.0685 175.675 88.3585 175.595 88.6018 175.435V175.845C88.4851 175.925 88.3518 175.983 88.2018 176.02C88.0551 176.057 87.8818 176.075 87.6818 176.075ZM91.3429 176.075C91.0763 176.075 90.8396 176.025 90.6329 175.925C90.4263 175.825 90.2646 175.68 90.1479 175.49C90.0346 175.297 89.9779 175.068 89.9779 174.805C89.9779 174.542 90.0346 174.315 90.1479 174.125C90.2646 173.932 90.4263 173.783 90.6329 173.68C90.8429 173.577 91.0829 173.525 91.3529 173.525C91.7196 173.525 92.0129 173.597 92.2329 173.74V174.155C92.0163 174.005 91.7396 173.93 91.4029 173.93C91.1296 173.93 90.9079 174.005 90.7379 174.155C90.5713 174.302 90.4879 174.518 90.4879 174.805C90.4879 175.092 90.5713 175.308 90.7379 175.455C90.9046 175.602 91.1229 175.675 91.3929 175.675C91.7296 175.675 92.0196 175.595 92.2629 175.435V175.845C92.1463 175.925 92.0129 175.983 91.8629 176.02C91.7163 176.057 91.5429 176.075 91.3429 176.075ZM94.1073 173.13C94.024 173.13 93.954 173.102 93.8973 173.045C93.8406 172.988 93.8123 172.918 93.8123 172.835C93.8123 172.752 93.8406 172.682 93.8973 172.625C93.954 172.568 94.024 172.54 94.1073 172.54C94.194 172.54 94.2656 172.568 94.3223 172.625C94.3823 172.682 94.4123 172.752 94.4123 172.835C94.4123 172.918 94.3823 172.988 94.3223 173.045C94.2656 173.102 94.194 173.13 94.1073 173.13ZM93.8523 173.6H94.3673V176H93.8523V173.6ZM97.2223 176.075C96.9823 176.075 96.7656 176.023 96.5723 175.92C96.3823 175.813 96.2323 175.665 96.1223 175.475C96.0156 175.282 95.9623 175.058 95.9623 174.805C95.9623 174.555 96.0156 174.333 96.1223 174.14C96.2323 173.947 96.3823 173.797 96.5723 173.69C96.7656 173.58 96.9823 173.525 97.2223 173.525C97.6556 173.525 97.984 173.657 98.2073 173.92V172.305H98.7123V176H98.2223V175.65C98.089 175.797 97.9423 175.905 97.7823 175.975C97.6256 176.042 97.439 176.075 97.2223 176.075ZM97.3373 175.675C97.544 175.675 97.724 175.622 97.8773 175.515C98.034 175.405 98.144 175.258 98.2073 175.075V174.535C98.1506 174.352 98.0423 174.205 97.8823 174.095C97.7256 173.985 97.544 173.93 97.3373 173.93C97.174 173.93 97.0256 173.967 96.8923 174.04C96.7623 174.113 96.659 174.217 96.5823 174.35C96.509 174.483 96.4723 174.635 96.4723 174.805C96.4723 174.975 96.509 175.127 96.5823 175.26C96.659 175.393 96.7623 175.497 96.8923 175.57C97.0256 175.64 97.174 175.675 97.3373 175.675ZM101.683 176.075C101.24 176.075 100.891 175.965 100.638 175.745C100.388 175.522 100.263 175.208 100.263 174.805C100.263 174.412 100.375 174.1 100.598 173.87C100.825 173.64 101.146 173.525 101.563 173.525C101.84 173.525 102.075 173.578 102.268 173.685C102.461 173.788 102.606 173.933 102.703 174.12C102.803 174.303 102.853 174.513 102.853 174.75V175H100.743C100.76 175.227 100.855 175.397 101.028 175.51C101.205 175.62 101.443 175.675 101.743 175.675C101.896 175.675 102.051 175.662 102.208 175.635C102.365 175.605 102.503 175.567 102.623 175.52V175.925C102.516 175.968 102.375 176.003 102.198 176.03C102.025 176.06 101.853 176.075 101.683 176.075ZM102.378 174.645C102.371 174.418 102.296 174.243 102.153 174.12C102.013 173.993 101.813 173.93 101.553 173.93C101.3 173.93 101.103 173.995 100.963 174.125C100.823 174.255 100.75 174.428 100.743 174.645H102.378ZM104.405 173.6H104.895V173.945C105.008 173.802 105.147 173.697 105.31 173.63C105.477 173.56 105.65 173.525 105.83 173.525C106.15 173.525 106.388 173.61 106.545 173.78C106.702 173.95 106.78 174.178 106.78 174.465V176H106.275V174.515C106.275 174.125 106.088 173.93 105.715 173.93C105.555 173.93 105.405 173.968 105.265 174.045C105.128 174.118 105.01 174.232 104.91 174.385V176H104.405V173.6ZM109.328 176.075C109.085 176.075 108.896 176.005 108.763 175.865C108.633 175.725 108.568 175.527 108.568 175.27V173.99H108.203V173.6H108.568V172.88H109.078V173.6H109.668V173.99H109.078V175.235C109.078 175.395 109.108 175.508 109.168 175.575C109.231 175.642 109.345 175.675 109.508 175.675C109.605 175.675 109.701 175.653 109.798 175.61V176.01C109.671 176.053 109.515 176.075 109.328 176.075ZM111.408 176C111.342 176 111.285 175.978 111.238 175.935C111.195 175.888 111.173 175.832 111.173 175.765C111.173 175.698 111.195 175.642 111.238 175.595C111.285 175.548 111.342 175.525 111.408 175.525C111.475 175.525 111.532 175.548 111.578 175.595C111.625 175.642 111.648 175.698 111.648 175.765C111.648 175.832 111.625 175.888 111.578 175.935C111.532 175.978 111.475 176 111.408 176Z" fill="black"/>
<rect x="12.25" y="143.25" width="125.5" height="46.5" stroke="#6C6C6C" stroke-width="0.5"/>
<path d="M13.47 28.97H12.375V27.8H13.47V26.39C13.47 25.56 13.705 24.93 14.175 24.5C14.645 24.06 15.275 23.84 16.065 23.84C16.475 23.84 16.86 23.9 17.22 24.02V25.28C16.94 25.15 16.65 25.085 16.35 25.085C15.88 25.085 15.535 25.2 15.315 25.43C15.095 25.65 14.985 26 14.985 26.48V27.8H16.785V28.97H14.985V35H13.47V28.97ZM23.3078 35.225C22.3378 35.225 21.6028 34.965 21.1028 34.445C20.6128 33.925 20.3678 33.23 20.3678 32.36V27.8H21.8828V32.3C21.8828 33.45 22.4578 34.025 23.6078 34.025C24.6178 34.025 25.4078 33.57 25.9778 32.66V27.8H27.4928V35H26.0228V33.98C25.6828 34.41 25.2778 34.725 24.8078 34.925C24.3478 35.125 23.8478 35.225 23.3078 35.225ZM32.4369 27.8H33.9069V28.835C34.2469 28.405 34.6619 28.09 35.1519 27.89C35.6519 27.68 36.1719 27.575 36.7119 27.575C37.6719 27.575 38.3869 27.83 38.8569 28.34C39.3269 28.85 39.5619 29.535 39.5619 30.395V35H38.0469V30.545C38.0469 29.375 37.4869 28.79 36.3669 28.79C35.8869 28.79 35.4369 28.905 35.0169 29.135C34.6069 29.355 34.2519 29.695 33.9519 30.155V35H32.4369V27.8ZM44.4311 27.8H45.9011V28.835C46.2411 28.405 46.6561 28.09 47.1461 27.89C47.6461 27.68 48.1661 27.575 48.7061 27.575C49.6661 27.575 50.3811 27.83 50.8511 28.34C51.3211 28.85 51.5561 29.535 51.5561 30.395V35H50.0411V30.545C50.0411 29.375 49.4811 28.79 48.3611 28.79C47.8811 28.79 47.4311 28.905 47.0111 29.135C46.6011 29.355 46.2461 29.695 45.9461 30.155V35H44.4311V27.8ZM57.2814 37.97C56.7414 37.97 56.2914 37.915 55.9314 37.805V36.62C56.1914 36.72 56.5114 36.77 56.8914 36.77C57.2414 36.77 57.5164 36.68 57.7164 36.5C57.9164 36.33 58.0964 36.05 58.2564 35.66L58.6014 34.82L55.4514 27.8H57.0114L59.4114 33.335L61.6464 27.8H63.2064L59.9664 35.81C59.6664 36.56 59.3064 37.105 58.8864 37.445C58.4764 37.795 57.9414 37.97 57.2814 37.97ZM75.8068 27.8H77.3518L78.9718 33.14L80.5768 27.8H81.9418L83.5468 33.14L85.1668 27.8H86.7268L84.3868 35H82.9318L81.2668 29.63L79.6018 35H78.1318L75.8068 27.8ZM93.1419 35.225C92.2719 35.225 91.5719 35.005 91.0419 34.565C90.5219 34.115 90.2619 33.51 90.2619 32.75C90.2619 31.95 90.5119 31.335 91.0119 30.905C91.5219 30.465 92.2419 30.245 93.1719 30.245C94.1619 30.245 95.0019 30.445 95.6919 30.845V30.47C95.6919 29.9 95.5169 29.48 95.1669 29.21C94.8269 28.93 94.2869 28.79 93.5469 28.79C93.1069 28.79 92.6769 28.835 92.2569 28.925C91.8469 29.005 91.4769 29.12 91.1469 29.27V28.04C91.4469 27.9 91.8369 27.79 92.3169 27.71C92.7969 27.62 93.2619 27.575 93.7119 27.575C94.9019 27.575 95.7819 27.84 96.3519 28.37C96.9319 28.89 97.2219 29.615 97.2219 30.545V35H95.7969V34.19C95.4869 34.53 95.1169 34.79 94.6869 34.97C94.2669 35.14 93.7519 35.225 93.1419 35.225ZM93.5169 34.07C93.9969 34.07 94.4319 33.975 94.8219 33.785C95.2119 33.595 95.5019 33.33 95.6919 32.99V32.015C95.0419 31.595 94.3169 31.385 93.5169 31.385C92.9369 31.385 92.5019 31.5 92.2119 31.73C91.9319 31.95 91.7919 32.29 91.7919 32.75C91.7919 33.63 92.3669 34.07 93.5169 34.07ZM104.496 35.225C103.766 35.225 103.201 35.015 102.801 34.595C102.411 34.175 102.216 33.58 102.216 32.81V28.97H101.121V27.8H102.216V25.64H103.746V27.8H105.516V28.97H103.746V32.705C103.746 33.185 103.836 33.525 104.016 33.725C104.206 33.925 104.546 34.025 105.036 34.025C105.326 34.025 105.616 33.96 105.906 33.83V35.03C105.526 35.16 105.056 35.225 104.496 35.225ZM114.291 35.225C112.961 35.225 111.916 34.895 111.156 34.235C110.406 33.565 110.031 32.625 110.031 31.415C110.031 30.235 110.366 29.3 111.036 28.61C111.716 27.92 112.681 27.575 113.931 27.575C114.761 27.575 115.466 27.735 116.046 28.055C116.626 28.365 117.061 28.8 117.351 29.36C117.651 29.91 117.801 30.54 117.801 31.25V32H111.471C111.521 32.68 111.806 33.19 112.326 33.53C112.856 33.86 113.571 34.025 114.471 34.025C114.931 34.025 115.396 33.985 115.866 33.905C116.336 33.815 116.751 33.7 117.111 33.56V34.775C116.791 34.905 116.366 35.01 115.836 35.09C115.316 35.18 114.801 35.225 114.291 35.225ZM116.376 30.935C116.356 30.255 116.131 29.73 115.701 29.36C115.281 28.98 114.681 28.79 113.901 28.79C113.141 28.79 112.551 28.985 112.131 29.375C111.711 29.765 111.491 30.285 111.471 30.935H116.376ZM122.457 27.8H123.927V29.09C124.227 28.65 124.647 28.325 125.187 28.115C125.737 27.905 126.372 27.8 127.092 27.8V28.985C126.322 28.985 125.662 29.11 125.112 29.36C124.562 29.61 124.182 30.005 123.972 30.545V35H122.457V27.8Z" fill="black"/>
<path d="M12.8691 19.0381L17.1807 17.1875V16.4746L12.8691 14.6289V15.5615L16.0283 16.7334L16.3213 16.8262L16.0283 16.9092L12.8691 18.1006V19.0381ZM20.875 19.0381L25.1865 17.1875V16.4746L20.875 14.6289V15.5615L24.0342 16.7334L24.3271 16.8262L24.0342 16.9092L20.875 18.1006V19.0381ZM37.375 20H38.0879L38.9033 16.7627L39.0352 15.9424L39.1719 16.7627L39.9971 20H40.71L41.833 14.7168H41.0322L40.4463 18.0859L40.3145 18.916L40.1729 18.0859L39.333 14.7168H38.752L37.9072 18.0859L37.7754 18.8428L37.668 18.0859L37.0527 14.7168H36.252L37.375 20ZM48.3447 20H49.2871V19.9219C49.2285 19.7754 49.1829 19.6045 49.1504 19.4092C49.1178 19.2106 49.1016 19.0234 49.1016 18.8477V16.3916C49.1016 16.0954 49.0479 15.8366 48.9404 15.6152C48.833 15.3939 48.6865 15.2083 48.501 15.0586C48.3122 14.9121 48.0892 14.8031 47.832 14.7314C47.5749 14.6566 47.2965 14.6191 46.9971 14.6191C46.6683 14.6191 46.3737 14.6647 46.1133 14.7559C45.8561 14.847 45.638 14.9658 45.459 15.1123C45.2767 15.262 45.1367 15.4297 45.0391 15.6152C44.9447 15.8008 44.8958 15.9896 44.8926 16.1816H45.8008C45.8008 16.071 45.8268 15.9652 45.8789 15.8643C45.9342 15.7601 46.0107 15.6706 46.1084 15.5957C46.2061 15.5208 46.3249 15.4606 46.4648 15.415C46.6081 15.3695 46.7692 15.3467 46.9482 15.3467C47.1403 15.3467 47.3128 15.3711 47.4658 15.4199C47.6221 15.4688 47.7539 15.5371 47.8613 15.625C47.9688 15.7161 48.0518 15.8252 48.1104 15.9521C48.1689 16.0791 48.1982 16.2223 48.1982 16.3818V16.7969H47.2119C46.8441 16.7969 46.5104 16.8327 46.2109 16.9043C45.9147 16.9759 45.6608 17.0833 45.4492 17.2266C45.2376 17.373 45.0732 17.5553 44.9561 17.7734C44.8421 17.9915 44.7852 18.2454 44.7852 18.5352C44.7852 18.7565 44.8275 18.9632 44.9121 19.1553C45 19.3441 45.1237 19.5068 45.2832 19.6436C45.4395 19.7835 45.6299 19.8942 45.8545 19.9756C46.0824 20.057 46.3363 20.0977 46.6162 20.0977C46.7887 20.0977 46.9515 20.0798 47.1045 20.0439C47.2575 20.0081 47.4023 19.9593 47.5391 19.8975C47.6725 19.8356 47.7946 19.764 47.9053 19.6826C48.0192 19.6012 48.1217 19.515 48.2129 19.4238C48.2227 19.5345 48.2373 19.6419 48.2568 19.7461C48.2796 19.847 48.3089 19.9316 48.3447 20ZM46.748 19.3115C46.5723 19.3115 46.4176 19.2887 46.2842 19.2432C46.1507 19.1976 46.04 19.1341 45.9521 19.0527C45.8643 18.9746 45.7975 18.8802 45.752 18.7695C45.7096 18.6589 45.6885 18.5384 45.6885 18.4082C45.6885 18.2715 45.7129 18.1494 45.7617 18.042C45.8138 17.9346 45.8887 17.8418 45.9863 17.7637C46.123 17.653 46.307 17.5716 46.5381 17.5195C46.7725 17.4642 47.0459 17.4365 47.3584 17.4365H48.1982V18.5059C48.1462 18.61 48.0745 18.7109 47.9834 18.8086C47.8923 18.903 47.7848 18.9876 47.6611 19.0625C47.5342 19.1374 47.3942 19.1976 47.2412 19.2432C47.0882 19.2887 46.9238 19.3115 46.748 19.3115ZM55.0176 13.4375H54.1094V14.7168H52.7227V15.415H54.1094V18.2861C54.1094 18.6117 54.1517 18.89 54.2363 19.1211C54.3242 19.349 54.443 19.5345 54.5928 19.6777C54.7425 19.8242 54.9183 19.9316 55.1201 20C55.3252 20.0651 55.5449 20.0977 55.7793 20.0977C55.9193 20.0977 56.0592 20.0911 56.1992 20.0781C56.3424 20.0651 56.4775 20.0456 56.6045 20.0195C56.7314 19.9967 56.8486 19.9691 56.9561 19.9365C57.0635 19.9007 57.1546 19.86 57.2295 19.8145L57.1025 19.1748C57.0472 19.1878 56.9756 19.2041 56.8877 19.2236C56.8031 19.2399 56.7119 19.2562 56.6143 19.2725C56.5133 19.2887 56.4108 19.3034 56.3066 19.3164C56.2025 19.3262 56.1016 19.3311 56.0039 19.3311C55.8704 19.3311 55.7435 19.3148 55.623 19.2822C55.5059 19.2497 55.4017 19.1927 55.3105 19.1113C55.2194 19.0332 55.1478 18.9274 55.0957 18.7939C55.0436 18.6605 55.0176 18.4912 55.0176 18.2861V15.415H57.0293V14.7168H55.0176V13.4375ZM63.2188 20.0977C63.7331 20.0977 64.1644 19.9951 64.5127 19.79C64.8643 19.5817 65.1279 19.3441 65.3037 19.0771L64.752 18.6475C64.5859 18.8623 64.3776 19.0348 64.127 19.165C63.8763 19.2952 63.5898 19.3604 63.2676 19.3604C63.0234 19.3604 62.8005 19.3148 62.5986 19.2236C62.3968 19.1325 62.2243 19.0072 62.0811 18.8477C61.9411 18.6979 61.8304 18.5254 61.749 18.3301C61.6709 18.1348 61.6204 17.9085 61.5977 17.6514V17.6172H65.3721V17.2119C65.3721 16.8441 65.3249 16.5023 65.2305 16.1865C65.1393 15.8708 64.9993 15.5957 64.8105 15.3613C64.6217 15.1302 64.3841 14.9495 64.0977 14.8193C63.8145 14.6859 63.4824 14.6191 63.1016 14.6191C62.7988 14.6191 62.5026 14.681 62.2129 14.8047C61.9264 14.9284 61.6709 15.1058 61.4463 15.3369C61.2184 15.5713 61.0361 15.8577 60.8994 16.1963C60.7627 16.5316 60.6943 16.9124 60.6943 17.3389V17.5439C60.6943 17.9118 60.7562 18.252 60.8799 18.5645C61.0036 18.877 61.1761 19.1471 61.3975 19.375C61.6188 19.6029 61.8841 19.7803 62.1934 19.9072C62.5059 20.0342 62.8477 20.0977 63.2188 20.0977ZM63.1016 15.3613C63.3327 15.3613 63.5312 15.4036 63.6973 15.4883C63.8665 15.5729 64.0065 15.6836 64.1172 15.8203C64.2279 15.957 64.3141 16.1198 64.376 16.3086C64.4378 16.4941 64.4688 16.6683 64.4688 16.8311V16.875H61.627C61.6628 16.6309 61.7246 16.416 61.8125 16.2305C61.9036 16.0417 62.0143 15.8822 62.1445 15.752C62.2747 15.625 62.4212 15.529 62.584 15.4639C62.7467 15.3955 62.9193 15.3613 63.1016 15.3613ZM72.3525 14.6191C71.9684 14.6191 71.625 14.7038 71.3223 14.873C71.0228 15.0391 70.7656 15.2669 70.5508 15.5566L70.5459 15.4248L70.5068 14.7168H69.6475V20H70.5557V16.6113C70.6143 16.4486 70.6875 16.3021 70.7754 16.1719C70.8665 16.0384 70.9723 15.9261 71.0928 15.835C71.2262 15.7308 71.3825 15.6527 71.5615 15.6006C71.7406 15.5452 71.9408 15.5176 72.1621 15.5176C72.3346 15.5176 72.499 15.5273 72.6553 15.5469C72.8148 15.5632 72.9824 15.5908 73.1582 15.6299L73.2803 14.7461C73.1891 14.707 73.0524 14.6761 72.8701 14.6533C72.6911 14.6305 72.5186 14.6191 72.3525 14.6191Z" fill="#707070"/>
<path d="M94.7073 87.4762L85.9268 75.9524L77 57.5L65.0732 71.7619L53 86.4286V106.333L66.1707 121L83.7317 118.905L98 105.286L94.7073 87.4762Z" fill="#0068C8"/>
<path d="M68 97L69.5 85H71V97H68Z" fill="#D9D9D9"/>
<path d="M80 97L78.5 85H77V97H80Z" fill="#D9D9D9"/>
<circle cx="74" cy="105" r="6" fill="#C70000"/>
<path d="M89.375 77L60.625 73.5714L52 54.7143L57.75 53L61.775 58.1429L66.5 63.5L72.125 62.7143V56.4286L75 45L82.475 46.7143L80.175 56.4286L82.475 65L84.775 59.8571L91.675 54.7143L98 59.8571L91.675 65L89.375 77Z" fill="#B377FF"/>
<path d="M91.675 65L89.375 77L73.5 75.1068L72.125 62.7143V56.4286L75 45L82.475 46.7143L80.175 56.4286L82.475 65L84.775 59.8571L91.675 54.7143L98 59.8571L91.675 65Z" fill="#46FFA6"/>
<path d="M91.675 65L89.375 77L82.475 76.1772V65L84.775 59.8572L91.675 54.7143L98 59.8572L91.675 65Z" fill="#FF7E46"/>
<path d="M55.5 53L52 53.5L51.5 51V49L54 48L56.5 48.5L57 51L55.5 53Z" fill="#EDD819"/>
<path d="M75 41.5L75.5 44.5L81.5 45.5L83 43.5L82 41.5L80 39.5H77L75 41.5Z" fill="#EDD819"/>
<path d="M97.5 58L93 54.5L95 52.5L97.5 51L101 53.5V57L97.5 58Z" fill="#EDD819"/>
</svg>
