<svg width="150" height="200" viewBox="0 0 150 200" fill="none" xmlns="http://www.w3.org/2000/svg">
<rect width="150" height="200" fill="white"/>
<path d="M17.62 148.43H18.03L17.695 149.405H17.225L17.62 148.43ZM18.415 148.43H18.825L18.495 149.405H18.02L18.415 148.43ZM20.2758 148.505H20.8058L21.5858 151.16L22.3558 148.505H22.7558L23.5208 151.16L24.3008 148.505H24.8308L23.8108 152H23.3258L22.5508 149.36L21.7808 152H21.2958L20.2758 148.505ZM26.4999 149.13C26.4165 149.13 26.3465 149.102 26.2899 149.045C26.2332 148.988 26.2049 148.918 26.2049 148.835C26.2049 148.752 26.2332 148.682 26.2899 148.625C26.3465 148.568 26.4165 148.54 26.4999 148.54C26.5865 148.54 26.6582 148.568 26.7149 148.625C26.7749 148.682 26.8049 148.752 26.8049 148.835C26.8049 148.918 26.7749 148.988 26.7149 149.045C26.6582 149.102 26.5865 149.13 26.4999 149.13ZM26.2449 149.6H26.7599V152H26.2449V149.6ZM29.3799 152.075C29.1365 152.075 28.9482 152.005 28.8149 151.865C28.6849 151.725 28.6199 151.527 28.6199 151.27V149.99H28.2549V149.6H28.6199V148.88H29.1299V149.6H29.7199V149.99H29.1299V151.235C29.1299 151.395 29.1599 151.508 29.2199 151.575C29.2832 151.642 29.3965 151.675 29.5599 151.675C29.6565 151.675 29.7532 151.653 29.8499 151.61V152.01C29.7232 152.053 29.5665 152.075 29.3799 152.075ZM31.325 148.305H31.83V149.93C32.06 149.66 32.3667 149.525 32.75 149.525C33.07 149.525 33.3083 149.61 33.465 149.78C33.6217 149.95 33.7 150.178 33.7 150.465V152H33.195V150.515C33.195 150.125 33.0083 149.93 32.635 149.93C32.475 149.93 32.325 149.968 32.185 150.045C32.0483 150.118 31.93 150.232 31.83 150.385V152H31.325V148.305ZM38.4736 149.13C38.387 149.13 38.3153 149.102 38.2586 149.045C38.202 148.988 38.1736 148.918 38.1736 148.835C38.1736 148.752 38.202 148.682 38.2586 148.625C38.3186 148.568 38.3903 148.54 38.4736 148.54C38.557 148.54 38.627 148.568 38.6836 148.625C38.7436 148.682 38.7736 148.752 38.7736 148.835C38.7736 148.918 38.7436 148.988 38.6836 149.045C38.627 149.102 38.557 149.13 38.4736 149.13ZM37.8786 153.155C37.7286 153.155 37.602 153.137 37.4986 153.1V152.685C37.5853 152.725 37.6853 152.745 37.7986 152.745C37.9486 152.745 38.0553 152.708 38.1186 152.635C38.1853 152.565 38.2186 152.45 38.2186 152.29V149.6H38.7286V152.325C38.7286 152.602 38.652 152.808 38.4986 152.945C38.3453 153.085 38.1386 153.155 37.8786 153.155ZM41.6886 152.075C41.4186 152.075 41.1803 152.025 40.9736 151.925C40.7703 151.822 40.6103 151.675 40.4936 151.485C40.3803 151.292 40.3236 151.065 40.3236 150.805C40.3236 150.548 40.3803 150.323 40.4936 150.13C40.607 149.937 40.767 149.788 40.9736 149.685C41.1803 149.578 41.4186 149.525 41.6886 149.525C41.9586 149.525 42.197 149.578 42.4036 149.685C42.6103 149.788 42.7703 149.937 42.8836 150.13C43.0003 150.323 43.0586 150.548 43.0586 150.805C43.0586 151.065 43.0003 151.292 42.8836 151.485C42.7703 151.675 42.6103 151.822 42.4036 151.925C42.197 152.025 41.9586 152.075 41.6886 152.075ZM41.6886 151.675C41.9486 151.675 42.1553 151.595 42.3086 151.435C42.462 151.275 42.5386 151.065 42.5386 150.805C42.5386 150.535 42.462 150.322 42.3086 150.165C42.1553 150.008 41.9486 149.93 41.6886 149.93C41.4286 149.93 41.222 150.008 41.0686 150.165C40.9153 150.322 40.8386 150.535 40.8386 150.805C40.8386 151.065 40.9153 151.275 41.0686 151.435C41.222 151.595 41.4286 151.675 41.6886 151.675ZM44.7901 152.99C44.6101 152.99 44.4601 152.972 44.3401 152.935V152.54C44.4267 152.573 44.5334 152.59 44.6601 152.59C44.7767 152.59 44.8684 152.56 44.9351 152.5C45.0017 152.443 45.0617 152.35 45.1151 152.22L45.2301 151.94L44.1801 149.6H44.7001L45.5001 151.445L46.2451 149.6H46.7651L45.6851 152.27C45.5851 152.52 45.4651 152.702 45.3251 152.815C45.1884 152.932 45.0101 152.99 44.7901 152.99ZM51.5752 152.99C51.3952 152.99 51.2452 152.972 51.1252 152.935V152.54C51.2119 152.573 51.3186 152.59 51.4452 152.59C51.5619 152.59 51.6536 152.56 51.7202 152.5C51.7869 152.443 51.8469 152.35 51.9002 152.22L52.0152 151.94L50.9652 149.6H51.4852L52.2852 151.445L53.0302 149.6H53.5502L52.4702 152.27C52.3702 152.52 52.2502 152.702 52.1102 152.815C51.9736 152.932 51.7952 152.99 51.5752 152.99ZM55.9377 152.075C55.6677 152.075 55.4293 152.025 55.2227 151.925C55.0193 151.822 54.8593 151.675 54.7427 151.485C54.6293 151.292 54.5727 151.065 54.5727 150.805C54.5727 150.548 54.6293 150.323 54.7427 150.13C54.856 149.937 55.016 149.788 55.2227 149.685C55.4293 149.578 55.6677 149.525 55.9377 149.525C56.2077 149.525 56.446 149.578 56.6527 149.685C56.8593 149.788 57.0193 149.937 57.1327 150.13C57.2493 150.323 57.3077 150.548 57.3077 150.805C57.3077 151.065 57.2493 151.292 57.1327 151.485C57.0193 151.675 56.8593 151.822 56.6527 151.925C56.446 152.025 56.2077 152.075 55.9377 152.075ZM55.9377 151.675C56.1977 151.675 56.4043 151.595 56.5577 151.435C56.711 151.275 56.7877 151.065 56.7877 150.805C56.7877 150.535 56.711 150.322 56.5577 150.165C56.4043 150.008 56.1977 149.93 55.9377 149.93C55.6777 149.93 55.471 150.008 55.3177 150.165C55.1643 150.322 55.0877 150.535 55.0877 150.805C55.0877 151.065 55.1643 151.275 55.3177 151.435C55.471 151.595 55.6777 151.675 55.9377 151.675ZM59.8113 152.075C59.4879 152.075 59.2429 151.988 59.0763 151.815C58.9129 151.642 58.8313 151.41 58.8313 151.12V149.6H59.3363V151.1C59.3363 151.483 59.5279 151.675 59.9113 151.675C60.2479 151.675 60.5113 151.523 60.7013 151.22V149.6H61.2063V152H60.7163V151.66C60.6029 151.803 60.4679 151.908 60.3113 151.975C60.1579 152.042 59.9913 152.075 59.8113 152.075ZM65.6049 149.6H66.1199L66.6599 151.38L67.1949 149.6H67.6499L68.1849 151.38L68.7249 149.6H69.2449L68.4649 152H67.9799L67.4249 150.21L66.8699 152H66.3799L65.6049 149.6ZM71.0917 149.13C71.0083 149.13 70.9383 149.102 70.8817 149.045C70.825 148.988 70.7967 148.918 70.7967 148.835C70.7967 148.752 70.825 148.682 70.8817 148.625C70.9383 148.568 71.0083 148.54 71.0917 148.54C71.1783 148.54 71.25 148.568 71.3067 148.625C71.3667 148.682 71.3967 148.752 71.3967 148.835C71.3967 148.918 71.3667 148.988 71.3067 149.045C71.25 149.102 71.1783 149.13 71.0917 149.13ZM70.8367 149.6H71.3517V152H70.8367V149.6ZM73.0467 148.305H73.5517V152H73.0467V148.305ZM75.2039 148.305H75.7089V152H75.2039V148.305ZM81.3717 152.075C81.1317 152.075 80.9151 152.023 80.7217 151.92C80.5317 151.813 80.3817 151.665 80.2717 151.475C80.1651 151.282 80.1117 151.058 80.1117 150.805C80.1117 150.555 80.1651 150.333 80.2717 150.14C80.3817 149.947 80.5317 149.797 80.7217 149.69C80.9151 149.58 81.1317 149.525 81.3717 149.525C81.8051 149.525 82.1334 149.657 82.3567 149.92V148.305H82.8617V152H82.3717V151.65C82.2384 151.797 82.0917 151.905 81.9317 151.975C81.7751 152.042 81.5884 152.075 81.3717 152.075ZM81.4867 151.675C81.6934 151.675 81.8734 151.622 82.0267 151.515C82.1834 151.405 82.2934 151.258 82.3567 151.075V150.535C82.3001 150.352 82.1917 150.205 82.0317 150.095C81.8751 149.985 81.6934 149.93 81.4867 149.93C81.3234 149.93 81.1751 149.967 81.0417 150.04C80.9117 150.113 80.8084 150.217 80.7317 150.35C80.6584 150.483 80.6217 150.635 80.6217 150.805C80.6217 150.975 80.6584 151.127 80.7317 151.26C80.8084 151.393 80.9117 151.497 81.0417 151.57C81.1751 151.64 81.3234 151.675 81.4867 151.675ZM84.5125 149.6H85.0025V150.03C85.1025 149.883 85.2425 149.775 85.4225 149.705C85.6058 149.635 85.8175 149.6 86.0575 149.6V149.995C85.8008 149.995 85.5808 150.037 85.3975 150.12C85.2142 150.203 85.0875 150.335 85.0175 150.515V152H84.5125V149.6ZM88.145 152.075C87.855 152.075 87.6216 152.002 87.445 151.855C87.2716 151.705 87.185 151.503 87.185 151.25C87.185 150.983 87.2683 150.778 87.435 150.635C87.605 150.488 87.845 150.415 88.155 150.415C88.485 150.415 88.765 150.482 88.995 150.615V150.49C88.995 150.3 88.9366 150.16 88.82 150.07C88.7066 149.977 88.5266 149.93 88.28 149.93C88.1333 149.93 87.99 149.945 87.85 149.975C87.7133 150.002 87.59 150.04 87.48 150.09V149.68C87.58 149.633 87.71 149.597 87.87 149.57C88.03 149.54 88.185 149.525 88.335 149.525C88.7316 149.525 89.025 149.613 89.215 149.79C89.4083 149.963 89.505 150.205 89.505 150.515V152H89.03V151.73C88.9266 151.843 88.8033 151.93 88.66 151.99C88.52 152.047 88.3483 152.075 88.145 152.075ZM88.27 151.69C88.43 151.69 88.575 151.658 88.705 151.595C88.835 151.532 88.9316 151.443 88.995 151.33V151.005C88.7783 150.865 88.5366 150.795 88.27 150.795C88.0766 150.795 87.9316 150.833 87.835 150.91C87.7416 150.983 87.695 151.097 87.695 151.25C87.695 151.543 87.8866 151.69 88.27 151.69ZM90.7582 149.6H91.2732L91.8132 151.38L92.3482 149.6H92.8032L93.3382 151.38L93.8782 149.6H94.3982L93.6182 152H93.1332L92.5782 150.21L92.0232 152H91.5332L90.7582 149.6ZM98.7006 149.6H99.2156L99.7556 151.38L100.291 149.6H100.746L101.281 151.38L101.821 149.6H102.341L101.561 152H101.076L100.521 150.21L99.9656 152H99.4756L98.7006 149.6ZM104.479 152.075C104.189 152.075 103.956 152.002 103.779 151.855C103.606 151.705 103.519 151.503 103.519 151.25C103.519 150.983 103.602 150.778 103.769 150.635C103.939 150.488 104.179 150.415 104.489 150.415C104.819 150.415 105.099 150.482 105.329 150.615V150.49C105.329 150.3 105.271 150.16 105.154 150.07C105.041 149.977 104.861 149.93 104.614 149.93C104.467 149.93 104.324 149.945 104.184 149.975C104.047 150.002 103.924 150.04 103.814 150.09V149.68C103.914 149.633 104.044 149.597 104.204 149.57C104.364 149.54 104.519 149.525 104.669 149.525C105.066 149.525 105.359 149.613 105.549 149.79C105.742 149.963 105.839 150.205 105.839 150.515V152H105.364V151.73C105.261 151.843 105.137 151.93 104.994 151.99C104.854 152.047 104.682 152.075 104.479 152.075ZM104.604 151.69C104.764 151.69 104.909 151.658 105.039 151.595C105.169 151.532 105.266 151.443 105.329 151.33V151.005C105.112 150.865 104.871 150.795 104.604 150.795C104.411 150.795 104.266 150.833 104.169 150.91C104.076 150.983 104.029 151.097 104.029 151.25C104.029 151.543 104.221 151.69 104.604 151.69ZM108.264 152.075C108.02 152.075 107.832 152.005 107.699 151.865C107.569 151.725 107.504 151.527 107.504 151.27V149.99H107.139V149.6H107.504V148.88H108.014V149.6H108.604V149.99H108.014V151.235C108.014 151.395 108.044 151.508 108.104 151.575C108.167 151.642 108.28 151.675 108.444 151.675C108.54 151.675 108.637 151.653 108.734 151.61V152.01C108.607 152.053 108.45 152.075 108.264 152.075ZM111.529 152.075C111.085 152.075 110.737 151.965 110.484 151.745C110.234 151.522 110.109 151.208 110.109 150.805C110.109 150.412 110.22 150.1 110.444 149.87C110.67 149.64 110.992 149.525 111.409 149.525C111.685 149.525 111.92 149.578 112.114 149.685C112.307 149.788 112.452 149.933 112.549 150.12C112.649 150.303 112.699 150.513 112.699 150.75V151H110.589C110.605 151.227 110.7 151.397 110.874 151.51C111.05 151.62 111.289 151.675 111.589 151.675C111.742 151.675 111.897 151.662 112.054 151.635C112.21 151.605 112.349 151.567 112.469 151.52V151.925C112.362 151.968 112.22 152.003 112.044 152.03C111.87 152.06 111.699 152.075 111.529 152.075ZM112.224 150.645C112.217 150.418 112.142 150.243 111.999 150.12C111.859 149.993 111.659 149.93 111.399 149.93C111.145 149.93 110.949 149.995 110.809 150.125C110.669 150.255 110.595 150.428 110.589 150.645H112.224ZM114.251 149.6H114.741V150.03C114.841 149.883 114.981 149.775 115.161 149.705C115.344 149.635 115.556 149.6 115.796 149.6V149.995C115.539 149.995 115.319 150.037 115.136 150.12C114.952 150.203 114.826 150.335 114.756 150.515V152H114.251V149.6ZM120.263 149.99H119.898V149.6H120.263V149.13C120.263 148.853 120.342 148.643 120.498 148.5C120.655 148.353 120.865 148.28 121.128 148.28C121.265 148.28 121.393 148.3 121.513 148.34V148.76C121.42 148.717 121.323 148.695 121.223 148.695C121.067 148.695 120.952 148.733 120.878 148.81C120.805 148.883 120.768 149 120.768 149.16V149.6H121.368V149.99H120.768V152H120.263V149.99ZM122.837 149.6H123.327V150.03C123.427 149.883 123.567 149.775 123.747 149.705C123.93 149.635 124.142 149.6 124.382 149.6V149.995C124.125 149.995 123.905 150.037 123.722 150.12C123.538 150.203 123.412 150.335 123.342 150.515V152H122.837V149.6ZM127.026 152.075C126.756 152.075 126.517 152.025 126.311 151.925C126.107 151.822 125.947 151.675 125.831 151.485C125.717 151.292 125.661 151.065 125.661 150.805C125.661 150.548 125.717 150.323 125.831 150.13C125.944 149.937 126.104 149.788 126.311 149.685C126.517 149.578 126.756 149.525 127.026 149.525C127.296 149.525 127.534 149.578 127.741 149.685C127.947 149.788 128.107 149.937 128.221 150.13C128.337 150.323 128.396 150.548 128.396 150.805C128.396 151.065 128.337 151.292 128.221 151.485C128.107 151.675 127.947 151.822 127.741 151.925C127.534 152.025 127.296 152.075 127.026 152.075ZM127.026 151.675C127.286 151.675 127.492 151.595 127.646 151.435C127.799 151.275 127.876 151.065 127.876 150.805C127.876 150.535 127.799 150.322 127.646 150.165C127.492 150.008 127.286 149.93 127.026 149.93C126.766 149.93 126.559 150.008 126.406 150.165C126.252 150.322 126.176 150.535 126.176 150.805C126.176 151.065 126.252 151.275 126.406 151.435C126.559 151.595 126.766 151.675 127.026 151.675ZM129.944 149.6H130.424V149.945C130.537 149.805 130.666 149.7 130.809 149.63C130.952 149.56 131.101 149.525 131.254 149.525C131.447 149.525 131.601 149.558 131.714 149.625C131.827 149.688 131.911 149.787 131.964 149.92C132.071 149.79 132.201 149.692 132.354 149.625C132.511 149.558 132.667 149.525 132.824 149.525C133.117 149.525 133.329 149.6 133.459 149.75C133.589 149.897 133.654 150.115 133.654 150.405V152H133.164V150.47C133.164 150.273 133.127 150.135 133.054 150.055C132.981 149.972 132.856 149.93 132.679 149.93C132.426 149.93 132.219 150.04 132.059 150.26C132.066 150.31 132.069 150.392 132.069 150.505V152H131.579V150.47C131.579 150.273 131.546 150.135 131.479 150.055C131.412 149.972 131.292 149.93 131.119 149.93C130.866 149.93 130.639 150.073 130.439 150.36V152H129.944V149.6ZM18.25 160.075C18.0067 160.075 17.8183 160.005 17.685 159.865C17.555 159.725 17.49 159.527 17.49 159.27V157.99H17.125V157.6H17.49V156.88H18V157.6H18.59V157.99H18V159.235C18 159.395 18.03 159.508 18.09 159.575C18.1533 159.642 18.2667 159.675 18.43 159.675C18.5267 159.675 18.6233 159.653 18.72 159.61V160.01C18.5933 160.053 18.4367 160.075 18.25 160.075ZM20.1951 156.305H20.7001V157.93C20.9301 157.66 21.2368 157.525 21.6201 157.525C21.9401 157.525 22.1785 157.61 22.3351 157.78C22.4918 157.95 22.5701 158.178 22.5701 158.465V160H22.0651V158.515C22.0651 158.125 21.8785 157.93 21.5051 157.93C21.3451 157.93 21.1951 157.968 21.0551 158.045C20.9185 158.118 20.8001 158.232 20.7001 158.385V160H20.1951V156.305ZM25.5132 160.075C25.0698 160.075 24.7215 159.965 24.4682 159.745C24.2182 159.522 24.0932 159.208 24.0932 158.805C24.0932 158.412 24.2048 158.1 24.4282 157.87C24.6548 157.64 24.9765 157.525 25.3932 157.525C25.6698 157.525 25.9048 157.578 26.0982 157.685C26.2915 157.788 26.4365 157.933 26.5332 158.12C26.6332 158.303 26.6832 158.513 26.6832 158.75V159H24.5732C24.5898 159.227 24.6848 159.397 24.8582 159.51C25.0348 159.62 25.2732 159.675 25.5732 159.675C25.7265 159.675 25.8815 159.662 26.0382 159.635C26.1948 159.605 26.3332 159.567 26.4532 159.52V159.925C26.3465 159.968 26.2048 160.003 26.0282 160.03C25.8548 160.06 25.6832 160.075 25.5132 160.075ZM26.2082 158.645C26.2015 158.418 26.1265 158.243 25.9832 158.12C25.8432 157.993 25.6432 157.93 25.3832 157.93C25.1298 157.93 24.9332 157.995 24.7932 158.125C24.6532 158.255 24.5798 158.428 24.5732 158.645H26.2082ZM30.9857 157.6H31.5007L32.0407 159.38L32.5757 157.6H33.0307L33.5657 159.38L34.1057 157.6H34.6257L33.8457 160H33.3607L32.8057 158.21L32.2507 160H31.7607L30.9857 157.6ZM37.3462 160.075C36.9028 160.075 36.5545 159.965 36.3012 159.745C36.0512 159.522 35.9262 159.208 35.9262 158.805C35.9262 158.412 36.0378 158.1 36.2612 157.87C36.4878 157.64 36.8095 157.525 37.2262 157.525C37.5028 157.525 37.7378 157.578 37.9312 157.685C38.1245 157.788 38.2695 157.933 38.3662 158.12C38.4662 158.303 38.5162 158.513 38.5162 158.75V159H36.4062C36.4228 159.227 36.5178 159.397 36.6912 159.51C36.8678 159.62 37.1062 159.675 37.4062 159.675C37.5595 159.675 37.7145 159.662 37.8712 159.635C38.0278 159.605 38.1662 159.567 38.2862 159.52V159.925C38.1795 159.968 38.0378 160.003 37.8612 160.03C37.6878 160.06 37.5162 160.075 37.3462 160.075ZM38.0412 158.645C38.0345 158.418 37.9595 158.243 37.8162 158.12C37.6762 157.993 37.4762 157.93 37.2162 157.93C36.9628 157.93 36.7662 157.995 36.6262 158.125C36.4862 158.255 36.4128 158.428 36.4062 158.645H38.0412ZM40.0682 156.305H40.5732V160H40.0682V156.305ZM42.2254 156.305H42.7304V160H42.2254V156.305ZM45.2676 160.075C45.101 160.075 44.9243 160.053 44.7376 160.01C44.551 159.97 44.4043 159.915 44.2976 159.845V159.415C44.4276 159.492 44.5776 159.555 44.7476 159.605C44.9176 159.652 45.0826 159.675 45.2426 159.675C45.4226 159.675 45.5543 159.653 45.6376 159.61C45.721 159.567 45.7626 159.497 45.7626 159.4C45.7626 159.327 45.7426 159.268 45.7026 159.225C45.666 159.178 45.601 159.137 45.5076 159.1C45.4176 159.063 45.281 159.02 45.0976 158.97C44.901 158.913 44.7443 158.857 44.6276 158.8C44.5143 158.74 44.4276 158.665 44.3676 158.575C44.311 158.485 44.2826 158.368 44.2826 158.225C44.2826 157.995 44.3726 157.822 44.5526 157.705C44.736 157.585 44.981 157.525 45.2876 157.525C45.4476 157.525 45.6043 157.54 45.7576 157.57C45.911 157.6 46.0343 157.642 46.1276 157.695V158.115C46.031 158.058 45.911 158.013 45.7676 157.98C45.6276 157.947 45.4843 157.93 45.3376 157.93C45.161 157.93 45.026 157.952 44.9326 157.995C44.8393 158.038 44.7926 158.115 44.7926 158.225C44.7926 158.295 44.8126 158.352 44.8526 158.395C44.8926 158.438 44.956 158.477 45.0426 158.51C45.1326 158.54 45.2743 158.58 45.4676 158.63C45.771 158.713 45.981 158.812 46.0976 158.925C46.2176 159.038 46.2776 159.195 46.2776 159.395C46.2776 159.602 46.1926 159.767 46.0226 159.89C45.8526 160.013 45.601 160.075 45.2676 160.075ZM51.9445 160.075C51.6745 160.075 51.4362 160.025 51.2295 159.925C51.0262 159.822 50.8662 159.675 50.7495 159.485C50.6362 159.292 50.5795 159.065 50.5795 158.805C50.5795 158.548 50.6362 158.323 50.7495 158.13C50.8628 157.937 51.0228 157.788 51.2295 157.685C51.4362 157.578 51.6745 157.525 51.9445 157.525C52.2145 157.525 52.4528 157.578 52.6595 157.685C52.8662 157.788 53.0262 157.937 53.1395 158.13C53.2562 158.323 53.3145 158.548 53.3145 158.805C53.3145 159.065 53.2562 159.292 53.1395 159.485C53.0262 159.675 52.8662 159.822 52.6595 159.925C52.4528 160.025 52.2145 160.075 51.9445 160.075ZM51.9445 159.675C52.2045 159.675 52.4112 159.595 52.5645 159.435C52.7178 159.275 52.7945 159.065 52.7945 158.805C52.7945 158.535 52.7178 158.322 52.5645 158.165C52.4112 158.008 52.2045 157.93 51.9445 157.93C51.6845 157.93 51.4778 158.008 51.3245 158.165C51.1712 158.322 51.0945 158.535 51.0945 158.805C51.0945 159.065 51.1712 159.275 51.3245 159.435C51.4778 159.595 51.6845 159.675 51.9445 159.675ZM54.8523 157.99H54.4873V157.6H54.8523V157.13C54.8523 156.853 54.9306 156.643 55.0873 156.5C55.244 156.353 55.454 156.28 55.7173 156.28C55.854 156.28 55.9823 156.3 56.1023 156.34V156.76C56.009 156.717 55.9123 156.695 55.8123 156.695C55.6556 156.695 55.5406 156.733 55.4673 156.81C55.394 156.883 55.3573 157 55.3573 157.16V157.6H55.9573V157.99H55.3573V160H54.8523V157.99ZM61.1856 160.075C61.0189 160.075 60.8423 160.053 60.6556 160.01C60.4689 159.97 60.3223 159.915 60.2156 159.845V159.415C60.3456 159.492 60.4956 159.555 60.6656 159.605C60.8356 159.652 61.0006 159.675 61.1606 159.675C61.3406 159.675 61.4723 159.653 61.5556 159.61C61.6389 159.567 61.6806 159.497 61.6806 159.4C61.6806 159.327 61.6606 159.268 61.6206 159.225C61.5839 159.178 61.5189 159.137 61.4256 159.1C61.3356 159.063 61.1989 159.02 61.0156 158.97C60.8189 158.913 60.6623 158.857 60.5456 158.8C60.4323 158.74 60.3456 158.665 60.2856 158.575C60.2289 158.485 60.2006 158.368 60.2006 158.225C60.2006 157.995 60.2906 157.822 60.4706 157.705C60.6539 157.585 60.8989 157.525 61.2056 157.525C61.3656 157.525 61.5223 157.54 61.6756 157.57C61.8289 157.6 61.9523 157.642 62.0456 157.695V158.115C61.9489 158.058 61.8289 158.013 61.6856 157.98C61.5456 157.947 61.4023 157.93 61.2556 157.93C61.0789 157.93 60.9439 157.952 60.8506 157.995C60.7573 158.038 60.7106 158.115 60.7106 158.225C60.7106 158.295 60.7306 158.352 60.7706 158.395C60.8106 158.438 60.8739 158.477 60.9606 158.51C61.0506 158.54 61.1923 158.58 61.3856 158.63C61.6889 158.713 61.8989 158.812 62.0156 158.925C62.1356 159.038 62.1956 159.195 62.1956 159.395C62.1956 159.602 62.1106 159.767 61.9406 159.89C61.7706 160.013 61.5189 160.075 61.1856 160.075ZM64.5336 160.075C64.2436 160.075 64.0103 160.002 63.8336 159.855C63.6603 159.705 63.5736 159.503 63.5736 159.25C63.5736 158.983 63.657 158.778 63.8236 158.635C63.9936 158.488 64.2336 158.415 64.5436 158.415C64.8736 158.415 65.1536 158.482 65.3836 158.615V158.49C65.3836 158.3 65.3253 158.16 65.2086 158.07C65.0953 157.977 64.9153 157.93 64.6686 157.93C64.522 157.93 64.3786 157.945 64.2386 157.975C64.102 158.002 63.9786 158.04 63.8686 158.09V157.68C63.9686 157.633 64.0986 157.597 64.2586 157.57C64.4186 157.54 64.5736 157.525 64.7236 157.525C65.1203 157.525 65.4136 157.613 65.6036 157.79C65.797 157.963 65.8936 158.205 65.8936 158.515V160H65.4186V159.73C65.3153 159.843 65.192 159.93 65.0486 159.99C64.9086 160.047 64.737 160.075 64.5336 160.075ZM64.6586 159.69C64.8186 159.69 64.9636 159.658 65.0936 159.595C65.2236 159.532 65.3203 159.443 65.3836 159.33V159.005C65.167 158.865 64.9253 158.795 64.6586 158.795C64.4653 158.795 64.3203 158.833 64.2236 158.91C64.1303 158.983 64.0836 159.097 64.0836 159.25C64.0836 159.543 64.2753 159.69 64.6586 159.69ZM67.5203 156.305H68.0253V160H67.5203V156.305ZM69.5775 157.6H70.1125L70.8175 159.325L71.5225 157.6H72.0575L71.0375 160H70.5975L69.5775 157.6ZM74.2426 160.075C73.9526 160.075 73.7193 160.002 73.5426 159.855C73.3693 159.705 73.2826 159.503 73.2826 159.25C73.2826 158.983 73.366 158.778 73.5326 158.635C73.7026 158.488 73.9426 158.415 74.2526 158.415C74.5826 158.415 74.8626 158.482 75.0926 158.615V158.49C75.0926 158.3 75.0343 158.16 74.9176 158.07C74.8043 157.977 74.6243 157.93 74.3776 157.93C74.231 157.93 74.0876 157.945 73.9476 157.975C73.811 158.002 73.6876 158.04 73.5776 158.09V157.68C73.6776 157.633 73.8076 157.597 73.9676 157.57C74.1276 157.54 74.2826 157.525 74.4326 157.525C74.8293 157.525 75.1226 157.613 75.3126 157.79C75.506 157.963 75.6026 158.205 75.6026 158.515V160H75.1276V159.73C75.0243 159.843 74.901 159.93 74.7576 159.99C74.6176 160.047 74.446 160.075 74.2426 160.075ZM74.3676 159.69C74.5276 159.69 74.6726 159.658 74.8026 159.595C74.9326 159.532 75.0293 159.443 75.0926 159.33V159.005C74.876 158.865 74.6343 158.795 74.3676 158.795C74.1743 158.795 74.0293 158.833 73.9326 158.91C73.8393 158.983 73.7926 159.097 73.7926 159.25C73.7926 159.543 73.9843 159.69 74.3676 159.69ZM78.0273 160.075C77.784 160.075 77.5957 160.005 77.4623 159.865C77.3323 159.725 77.2673 159.527 77.2673 159.27V157.99H76.9023V157.6H77.2673V156.88H77.7773V157.6H78.3673V157.99H77.7773V159.235C77.7773 159.395 77.8073 159.508 77.8673 159.575C77.9307 159.642 78.044 159.675 78.2073 159.675C78.304 159.675 78.4007 159.653 78.4973 159.61V160.01C78.3707 160.053 78.214 160.075 78.0273 160.075ZM80.2675 157.13C80.1841 157.13 80.1141 157.102 80.0575 157.045C80.0008 156.988 79.9725 156.918 79.9725 156.835C79.9725 156.752 80.0008 156.682 80.0575 156.625C80.1141 156.568 80.1841 156.54 80.2675 156.54C80.3541 156.54 80.4258 156.568 80.4825 156.625C80.5425 156.682 80.5725 156.752 80.5725 156.835C80.5725 156.918 80.5425 156.988 80.4825 157.045C80.4258 157.102 80.3541 157.13 80.2675 157.13ZM80.0125 157.6H80.5275V160H80.0125V157.6ZM83.4875 160.075C83.2175 160.075 82.9791 160.025 82.7725 159.925C82.5691 159.822 82.4091 159.675 82.2925 159.485C82.1791 159.292 82.1225 159.065 82.1225 158.805C82.1225 158.548 82.1791 158.323 82.2925 158.13C82.4058 157.937 82.5658 157.788 82.7725 157.685C82.9791 157.578 83.2175 157.525 83.4875 157.525C83.7575 157.525 83.9958 157.578 84.2025 157.685C84.4091 157.788 84.5691 157.937 84.6825 158.13C84.7991 158.323 84.8575 158.548 84.8575 158.805C84.8575 159.065 84.7991 159.292 84.6825 159.485C84.5691 159.675 84.4091 159.822 84.2025 159.925C83.9958 160.025 83.7575 160.075 83.4875 160.075ZM83.4875 159.675C83.7475 159.675 83.9541 159.595 84.1075 159.435C84.2608 159.275 84.3375 159.065 84.3375 158.805C84.3375 158.535 84.2608 158.322 84.1075 158.165C83.9541 158.008 83.7475 157.93 83.4875 157.93C83.2275 157.93 83.0208 158.008 82.8675 158.165C82.7141 158.322 82.6375 158.535 82.6375 158.805C82.6375 159.065 82.7141 159.275 82.8675 159.435C83.0208 159.595 83.2275 159.675 83.4875 159.675ZM86.4061 157.6H86.8961V157.945C87.0094 157.802 87.1477 157.697 87.3111 157.63C87.4777 157.56 87.6511 157.525 87.8311 157.525C88.1511 157.525 88.3894 157.61 88.5461 157.78C88.7027 157.95 88.7811 158.178 88.7811 158.465V160H88.2761V158.515C88.2761 158.125 88.0894 157.93 87.7161 157.93C87.5561 157.93 87.4061 157.968 87.2661 158.045C87.1294 158.118 87.0111 158.232 86.9111 158.385V160H86.4061V157.6ZM90.5391 160C90.4724 160 90.4158 159.978 90.3691 159.935C90.3258 159.888 90.3041 159.832 90.3041 159.765C90.3041 159.698 90.3258 159.642 90.3691 159.595C90.4158 159.548 90.4724 159.525 90.5391 159.525C90.6058 159.525 90.6624 159.548 90.7091 159.595C90.7558 159.642 90.7791 159.698 90.7791 159.765C90.7791 159.832 90.7558 159.888 90.7091 159.935C90.6624 159.978 90.6058 160 90.5391 160ZM92.557 156.43H93.032L92.637 157.405H92.227L92.557 156.43ZM93.352 156.43H93.827L93.432 157.405H93.022L93.352 156.43ZM17.225 166.305H18.82V166.72H17.225V166.305ZM20.3709 164.505H20.8859V168H20.3709V164.505ZM23.4229 168.075C23.2562 168.075 23.0796 168.053 22.8929 168.01C22.7062 167.97 22.5596 167.915 22.4529 167.845V167.415C22.5829 167.492 22.7329 167.555 22.9029 167.605C23.0729 167.652 23.2379 167.675 23.3979 167.675C23.5779 167.675 23.7096 167.653 23.7929 167.61C23.8762 167.567 23.9179 167.497 23.9179 167.4C23.9179 167.327 23.8979 167.268 23.8579 167.225C23.8212 167.178 23.7562 167.137 23.6629 167.1C23.5729 167.063 23.4362 167.02 23.2529 166.97C23.0562 166.913 22.8996 166.857 22.7829 166.8C22.6696 166.74 22.5829 166.665 22.5229 166.575C22.4662 166.485 22.4379 166.368 22.4379 166.225C22.4379 165.995 22.5279 165.822 22.7079 165.705C22.8912 165.585 23.1362 165.525 23.4429 165.525C23.6029 165.525 23.7596 165.54 23.9129 165.57C24.0662 165.6 24.1896 165.642 24.2829 165.695V166.115C24.1862 166.058 24.0662 166.013 23.9229 165.98C23.7829 165.947 23.6396 165.93 23.4929 165.93C23.3162 165.93 23.1812 165.952 23.0879 165.995C22.9946 166.038 22.9479 166.115 22.9479 166.225C22.9479 166.295 22.9679 166.352 23.0079 166.395C23.0479 166.438 23.1112 166.477 23.1979 166.51C23.2879 166.54 23.4296 166.58 23.6229 166.63C23.9262 166.713 24.1362 166.812 24.2529 166.925C24.3729 167.038 24.4329 167.195 24.4329 167.395C24.4329 167.602 24.3479 167.767 24.1779 167.89C24.0079 168.013 23.7562 168.075 23.4229 168.075ZM26.7709 168.075C26.4809 168.075 26.2476 168.002 26.0709 167.855C25.8976 167.705 25.8109 167.503 25.8109 167.25C25.8109 166.983 25.8943 166.778 26.0609 166.635C26.2309 166.488 26.4709 166.415 26.7809 166.415C27.1109 166.415 27.3909 166.482 27.6209 166.615V166.49C27.6209 166.3 27.5626 166.16 27.4459 166.07C27.3326 165.977 27.1526 165.93 26.9059 165.93C26.7593 165.93 26.6159 165.945 26.4759 165.975C26.3393 166.002 26.2159 166.04 26.1059 166.09V165.68C26.2059 165.633 26.3359 165.597 26.4959 165.57C26.6559 165.54 26.8109 165.525 26.9609 165.525C27.3576 165.525 27.6509 165.613 27.8409 165.79C28.0343 165.963 28.1309 166.205 28.1309 166.515V168H27.6559V167.73C27.5526 167.843 27.4293 167.93 27.2859 167.99C27.1459 168.047 26.9743 168.075 26.7709 168.075ZM26.8959 167.69C27.0559 167.69 27.2009 167.658 27.3309 167.595C27.4609 167.532 27.5576 167.443 27.6209 167.33V167.005C27.4043 166.865 27.1626 166.795 26.8959 166.795C26.7026 166.795 26.5576 166.833 26.4609 166.91C26.3676 166.983 26.3209 167.097 26.3209 167.25C26.3209 167.543 26.5126 167.69 26.8959 167.69ZM30.0526 165.13C29.9693 165.13 29.8993 165.102 29.8426 165.045C29.786 164.988 29.7576 164.918 29.7576 164.835C29.7576 164.752 29.786 164.682 29.8426 164.625C29.8993 164.568 29.9693 164.54 30.0526 164.54C30.1393 164.54 30.211 164.568 30.2676 164.625C30.3276 164.682 30.3576 164.752 30.3576 164.835C30.3576 164.918 30.3276 164.988 30.2676 165.045C30.211 165.102 30.1393 165.13 30.0526 165.13ZM29.7976 165.6H30.3126V168H29.7976V165.6ZM32.8676 168.075C32.5776 168.075 32.3443 168.002 32.1676 167.855C31.9943 167.705 31.9076 167.503 31.9076 167.25C31.9076 166.983 31.991 166.778 32.1576 166.635C32.3276 166.488 32.5676 166.415 32.8776 166.415C33.2076 166.415 33.4876 166.482 33.7176 166.615V166.49C33.7176 166.3 33.6593 166.16 33.5426 166.07C33.4293 165.977 33.2493 165.93 33.0026 165.93C32.856 165.93 32.7126 165.945 32.5726 165.975C32.436 166.002 32.3126 166.04 32.2026 166.09V165.68C32.3026 165.633 32.4326 165.597 32.5926 165.57C32.7526 165.54 32.9076 165.525 33.0576 165.525C33.4543 165.525 33.7476 165.613 33.9376 165.79C34.131 165.963 34.2276 166.205 34.2276 166.515V168H33.7526V167.73C33.6493 167.843 33.526 167.93 33.3826 167.99C33.2426 168.047 33.071 168.075 32.8676 168.075ZM32.9926 167.69C33.1526 167.69 33.2976 167.658 33.4276 167.595C33.5576 167.532 33.6543 167.443 33.7176 167.33V167.005C33.501 166.865 33.2593 166.795 32.9926 166.795C32.7993 166.795 32.6543 166.833 32.5576 166.91C32.4643 166.983 32.4176 167.097 32.4176 167.25C32.4176 167.543 32.6093 167.69 32.9926 167.69ZM35.8543 164.305H36.3593V165.93C36.5893 165.66 36.896 165.525 37.2793 165.525C37.5993 165.525 37.8376 165.61 37.9943 165.78C38.151 165.95 38.2293 166.178 38.2293 166.465V168H37.7243V166.515C37.7243 166.125 37.5376 165.93 37.1643 165.93C37.0043 165.93 36.8543 165.968 36.7143 166.045C36.5776 166.118 36.4593 166.232 36.3593 166.385V168H35.8543V164.305ZM43.3579 165.055L42.6029 165.6V165.115L43.4279 164.505H43.8679V168H43.3579V165.055ZM45.4193 167.665L46.1743 166.94C46.241 166.873 46.3343 166.787 46.4543 166.68C46.6443 166.507 46.7893 166.367 46.8893 166.26C46.9893 166.153 47.071 166.04 47.1343 165.92C47.1977 165.797 47.2293 165.665 47.2293 165.525C47.2293 165.318 47.1693 165.162 47.0493 165.055C46.9293 164.945 46.7543 164.89 46.5243 164.89C46.3677 164.89 46.206 164.918 46.0393 164.975C45.876 165.032 45.7227 165.115 45.5793 165.225V164.735C45.8593 164.532 46.201 164.43 46.6043 164.43C46.9643 164.43 47.2443 164.527 47.4443 164.72C47.6443 164.91 47.7443 165.17 47.7443 165.5C47.7443 165.66 47.7093 165.813 47.6393 165.96C47.5727 166.107 47.4777 166.252 47.3543 166.395C47.231 166.535 47.0643 166.707 46.8543 166.91L46.1743 167.575H47.8743V168H45.4193V167.665ZM49.5996 166.145C49.5229 166.145 49.4579 166.118 49.4046 166.065C49.3513 166.012 49.3246 165.947 49.3246 165.87C49.3246 165.793 49.3513 165.728 49.4046 165.675C49.4579 165.618 49.5229 165.59 49.5996 165.59C49.6763 165.59 49.7413 165.618 49.7946 165.675C49.8479 165.728 49.8746 165.793 49.8746 165.87C49.8746 165.943 49.8479 166.008 49.7946 166.065C49.7413 166.118 49.6763 166.145 49.5996 166.145ZM49.5996 167.9C49.5229 167.9 49.4579 167.873 49.4046 167.82C49.3513 167.767 49.3246 167.702 49.3246 167.625C49.3246 167.548 49.3513 167.483 49.4046 167.43C49.4579 167.373 49.5229 167.345 49.5996 167.345C49.6763 167.345 49.7413 167.373 49.7946 167.43C49.8479 167.483 49.8746 167.548 49.8746 167.625C49.8746 167.698 49.8479 167.763 49.7946 167.82C49.7413 167.873 49.6763 167.9 49.5996 167.9ZM52.3906 168.075C52.1873 168.075 51.9923 168.058 51.8056 168.025C51.6223 167.995 51.4623 167.948 51.3256 167.885V167.465C51.6356 167.605 51.9689 167.675 52.3256 167.675C52.6323 167.675 52.8589 167.62 53.0056 167.51C53.1556 167.397 53.2306 167.237 53.2306 167.03C53.2306 166.817 53.1539 166.665 53.0006 166.575C52.8473 166.482 52.6139 166.435 52.3006 166.435H51.8906V166.025H52.2906C52.5406 166.025 52.7423 165.975 52.8956 165.875C53.0489 165.772 53.1256 165.622 53.1256 165.425C53.1256 165.232 53.0623 165.085 52.9356 164.985C52.8089 164.885 52.6256 164.835 52.3856 164.835C52.1989 164.835 52.0306 164.857 51.8806 164.9C51.7306 164.943 51.5756 165.015 51.4156 165.115V164.695C51.7089 164.518 52.0523 164.43 52.4456 164.43C52.8356 164.43 53.1323 164.517 53.3356 164.69C53.5389 164.863 53.6406 165.103 53.6406 165.41C53.6406 165.597 53.5906 165.76 53.4906 165.9C53.3906 166.04 53.2406 166.148 53.0406 166.225C53.2673 166.278 53.4406 166.375 53.5606 166.515C53.6839 166.655 53.7456 166.832 53.7456 167.045C53.7456 167.362 53.6373 167.613 53.4206 167.8C53.2039 167.983 52.8606 168.075 52.3906 168.075Z" fill="black"/>
<rect x="12.25" y="143.25" width="125.5" height="46.5" stroke="#6C6C6C" stroke-width="0.5"/>
<path d="M12.975 23.915H14.49V28.79C15.18 27.98 16.1 27.575 17.25 27.575C18.21 27.575 18.925 27.83 19.395 28.34C19.865 28.85 20.1 29.535 20.1 30.395V35H18.585V30.545C18.585 29.375 18.025 28.79 16.905 28.79C16.425 28.79 15.975 28.905 15.555 29.135C15.145 29.355 14.79 29.695 14.49 30.155V35H12.975V23.915ZM28.5444 35.225C27.7344 35.225 27.0194 35.075 26.3994 34.775C25.7894 34.465 25.3094 34.025 24.9594 33.455C24.6194 32.875 24.4494 32.195 24.4494 31.415C24.4494 30.645 24.6194 29.97 24.9594 29.39C25.2994 28.81 25.7794 28.365 26.3994 28.055C27.0194 27.735 27.7344 27.575 28.5444 27.575C29.3544 27.575 30.0694 27.735 30.6894 28.055C31.3094 28.365 31.7894 28.81 32.1294 29.39C32.4794 29.97 32.6544 30.645 32.6544 31.415C32.6544 32.195 32.4794 32.875 32.1294 33.455C31.7894 34.025 31.3094 34.465 30.6894 34.775C30.0694 35.075 29.3544 35.225 28.5444 35.225ZM28.5444 34.025C29.3244 34.025 29.9444 33.785 30.4044 33.305C30.8644 32.825 31.0944 32.195 31.0944 31.415C31.0944 30.605 30.8644 29.965 30.4044 29.495C29.9444 29.025 29.3244 28.79 28.5444 28.79C27.7644 28.79 27.1444 29.025 26.6844 29.495C26.2244 29.965 25.9944 30.605 25.9944 31.415C25.9944 32.195 26.2244 32.825 26.6844 33.305C27.1444 33.785 27.7644 34.025 28.5444 34.025ZM37.3002 23.915H38.8152V35H37.3002V23.915ZM45.3019 37.97C44.7619 37.97 44.3119 37.915 43.9519 37.805V36.62C44.2119 36.72 44.5319 36.77 44.9119 36.77C45.2619 36.77 45.5369 36.68 45.7369 36.5C45.9369 36.33 46.1169 36.05 46.2769 35.66L46.6219 34.82L43.4719 27.8H45.0319L47.4319 33.335L49.6669 27.8H51.2269L47.9869 35.81C47.6869 36.56 47.3269 37.105 46.9069 37.445C46.4969 37.795 45.9619 37.97 45.3019 37.97ZM63.8273 27.8H65.3723L66.9923 33.14L68.5973 27.8H69.9623L71.5673 33.14L73.1873 27.8H74.7473L72.4073 35H70.9523L69.2873 29.63L67.6223 35H66.1523L63.8273 27.8ZM81.1624 35.225C80.2924 35.225 79.5924 35.005 79.0624 34.565C78.5424 34.115 78.2824 33.51 78.2824 32.75C78.2824 31.95 78.5324 31.335 79.0324 30.905C79.5424 30.465 80.2624 30.245 81.1924 30.245C82.1824 30.245 83.0224 30.445 83.7124 30.845V30.47C83.7124 29.9 83.5374 29.48 83.1874 29.21C82.8474 28.93 82.3074 28.79 81.5674 28.79C81.1274 28.79 80.6974 28.835 80.2774 28.925C79.8674 29.005 79.4974 29.12 79.1674 29.27V28.04C79.4674 27.9 79.8574 27.79 80.3374 27.71C80.8174 27.62 81.2824 27.575 81.7324 27.575C82.9224 27.575 83.8024 27.84 84.3724 28.37C84.9524 28.89 85.2424 29.615 85.2424 30.545V35H83.8174V34.19C83.5074 34.53 83.1374 34.79 82.7074 34.97C82.2874 35.14 81.7724 35.225 81.1624 35.225ZM81.5374 34.07C82.0174 34.07 82.4524 33.975 82.8424 33.785C83.2324 33.595 83.5224 33.33 83.7124 32.99V32.015C83.0624 31.595 82.3374 31.385 81.5374 31.385C80.9574 31.385 80.5224 31.5 80.2324 31.73C79.9524 31.95 79.8124 32.29 79.8124 32.75C79.8124 33.63 80.3874 34.07 81.5374 34.07ZM92.5166 35.225C91.7866 35.225 91.2216 35.015 90.8216 34.595C90.4316 34.175 90.2366 33.58 90.2366 32.81V28.97H89.1416V27.8H90.2366V25.64H91.7666V27.8H93.5366V28.97H91.7666V32.705C91.7666 33.185 91.8566 33.525 92.0366 33.725C92.2266 33.925 92.5666 34.025 93.0566 34.025C93.3466 34.025 93.6366 33.96 93.9266 33.83V35.03C93.5466 35.16 93.0766 35.225 92.5166 35.225ZM102.312 35.225C100.982 35.225 99.937 34.895 99.177 34.235C98.427 33.565 98.052 32.625 98.052 31.415C98.052 30.235 98.387 29.3 99.057 28.61C99.737 27.92 100.702 27.575 101.952 27.575C102.782 27.575 103.487 27.735 104.067 28.055C104.647 28.365 105.082 28.8 105.372 29.36C105.672 29.91 105.822 30.54 105.822 31.25V32H99.492C99.542 32.68 99.827 33.19 100.347 33.53C100.877 33.86 101.592 34.025 102.492 34.025C102.952 34.025 103.417 33.985 103.887 33.905C104.357 33.815 104.772 33.7 105.132 33.56V34.775C104.812 34.905 104.387 35.01 103.857 35.09C103.337 35.18 102.822 35.225 102.312 35.225ZM104.397 30.935C104.377 30.255 104.152 29.73 103.722 29.36C103.302 28.98 102.702 28.79 101.922 28.79C101.162 28.79 100.572 28.985 100.152 29.375C99.732 29.765 99.512 30.285 99.492 30.935H104.397ZM110.478 27.8H111.948V29.09C112.248 28.65 112.668 28.325 113.208 28.115C113.758 27.905 114.393 27.8 115.113 27.8V28.985C114.343 28.985 113.683 29.11 113.133 29.36C112.583 29.61 112.203 30.005 111.993 30.545V35H110.478V27.8Z" fill="black"/>
<path d="M12.8691 19.0381L17.1807 17.1875V16.4746L12.8691 14.6289V15.5615L16.0283 16.7334L16.3213 16.8262L16.0283 16.9092L12.8691 18.1006V19.0381ZM20.875 19.0381L25.1865 17.1875V16.4746L20.875 14.6289V15.5615L24.0342 16.7334L24.3271 16.8262L24.0342 16.9092L20.875 18.1006V19.0381ZM37.375 20H38.0879L38.9033 16.7627L39.0352 15.9424L39.1719 16.7627L39.9971 20H40.71L41.833 14.7168H41.0322L40.4463 18.0859L40.3145 18.916L40.1729 18.0859L39.333 14.7168H38.752L37.9072 18.0859L37.7754 18.8428L37.668 18.0859L37.0527 14.7168H36.252L37.375 20ZM48.3447 20H49.2871V19.9219C49.2285 19.7754 49.1829 19.6045 49.1504 19.4092C49.1178 19.2106 49.1016 19.0234 49.1016 18.8477V16.3916C49.1016 16.0954 49.0479 15.8366 48.9404 15.6152C48.833 15.3939 48.6865 15.2083 48.501 15.0586C48.3122 14.9121 48.0892 14.8031 47.832 14.7314C47.5749 14.6566 47.2965 14.6191 46.9971 14.6191C46.6683 14.6191 46.3737 14.6647 46.1133 14.7559C45.8561 14.847 45.638 14.9658 45.459 15.1123C45.2767 15.262 45.1367 15.4297 45.0391 15.6152C44.9447 15.8008 44.8958 15.9896 44.8926 16.1816H45.8008C45.8008 16.071 45.8268 15.9652 45.8789 15.8643C45.9342 15.7601 46.0107 15.6706 46.1084 15.5957C46.2061 15.5208 46.3249 15.4606 46.4648 15.415C46.6081 15.3695 46.7692 15.3467 46.9482 15.3467C47.1403 15.3467 47.3128 15.3711 47.4658 15.4199C47.6221 15.4688 47.7539 15.5371 47.8613 15.625C47.9688 15.7161 48.0518 15.8252 48.1104 15.9521C48.1689 16.0791 48.1982 16.2223 48.1982 16.3818V16.7969H47.2119C46.8441 16.7969 46.5104 16.8327 46.2109 16.9043C45.9147 16.9759 45.6608 17.0833 45.4492 17.2266C45.2376 17.373 45.0732 17.5553 44.9561 17.7734C44.8421 17.9915 44.7852 18.2454 44.7852 18.5352C44.7852 18.7565 44.8275 18.9632 44.9121 19.1553C45 19.3441 45.1237 19.5068 45.2832 19.6436C45.4395 19.7835 45.6299 19.8942 45.8545 19.9756C46.0824 20.057 46.3363 20.0977 46.6162 20.0977C46.7887 20.0977 46.9515 20.0798 47.1045 20.0439C47.2575 20.0081 47.4023 19.9593 47.5391 19.8975C47.6725 19.8356 47.7946 19.764 47.9053 19.6826C48.0192 19.6012 48.1217 19.515 48.2129 19.4238C48.2227 19.5345 48.2373 19.6419 48.2568 19.7461C48.2796 19.847 48.3089 19.9316 48.3447 20ZM46.748 19.3115C46.5723 19.3115 46.4176 19.2887 46.2842 19.2432C46.1507 19.1976 46.04 19.1341 45.9521 19.0527C45.8643 18.9746 45.7975 18.8802 45.752 18.7695C45.7096 18.6589 45.6885 18.5384 45.6885 18.4082C45.6885 18.2715 45.7129 18.1494 45.7617 18.042C45.8138 17.9346 45.8887 17.8418 45.9863 17.7637C46.123 17.653 46.307 17.5716 46.5381 17.5195C46.7725 17.4642 47.0459 17.4365 47.3584 17.4365H48.1982V18.5059C48.1462 18.61 48.0745 18.7109 47.9834 18.8086C47.8923 18.903 47.7848 18.9876 47.6611 19.0625C47.5342 19.1374 47.3942 19.1976 47.2412 19.2432C47.0882 19.2887 46.9238 19.3115 46.748 19.3115ZM55.0176 13.4375H54.1094V14.7168H52.7227V15.415H54.1094V18.2861C54.1094 18.6117 54.1517 18.89 54.2363 19.1211C54.3242 19.349 54.443 19.5345 54.5928 19.6777C54.7425 19.8242 54.9183 19.9316 55.1201 20C55.3252 20.0651 55.5449 20.0977 55.7793 20.0977C55.9193 20.0977 56.0592 20.0911 56.1992 20.0781C56.3424 20.0651 56.4775 20.0456 56.6045 20.0195C56.7314 19.9967 56.8486 19.9691 56.9561 19.9365C57.0635 19.9007 57.1546 19.86 57.2295 19.8145L57.1025 19.1748C57.0472 19.1878 56.9756 19.2041 56.8877 19.2236C56.8031 19.2399 56.7119 19.2562 56.6143 19.2725C56.5133 19.2887 56.4108 19.3034 56.3066 19.3164C56.2025 19.3262 56.1016 19.3311 56.0039 19.3311C55.8704 19.3311 55.7435 19.3148 55.623 19.2822C55.5059 19.2497 55.4017 19.1927 55.3105 19.1113C55.2194 19.0332 55.1478 18.9274 55.0957 18.7939C55.0436 18.6605 55.0176 18.4912 55.0176 18.2861V15.415H57.0293V14.7168H55.0176V13.4375ZM63.2188 20.0977C63.7331 20.0977 64.1644 19.9951 64.5127 19.79C64.8643 19.5817 65.1279 19.3441 65.3037 19.0771L64.752 18.6475C64.5859 18.8623 64.3776 19.0348 64.127 19.165C63.8763 19.2952 63.5898 19.3604 63.2676 19.3604C63.0234 19.3604 62.8005 19.3148 62.5986 19.2236C62.3968 19.1325 62.2243 19.0072 62.0811 18.8477C61.9411 18.6979 61.8304 18.5254 61.749 18.3301C61.6709 18.1348 61.6204 17.9085 61.5977 17.6514V17.6172H65.3721V17.2119C65.3721 16.8441 65.3249 16.5023 65.2305 16.1865C65.1393 15.8708 64.9993 15.5957 64.8105 15.3613C64.6217 15.1302 64.3841 14.9495 64.0977 14.8193C63.8145 14.6859 63.4824 14.6191 63.1016 14.6191C62.7988 14.6191 62.5026 14.681 62.2129 14.8047C61.9264 14.9284 61.6709 15.1058 61.4463 15.3369C61.2184 15.5713 61.0361 15.8577 60.8994 16.1963C60.7627 16.5316 60.6943 16.9124 60.6943 17.3389V17.5439C60.6943 17.9118 60.7562 18.252 60.8799 18.5645C61.0036 18.877 61.1761 19.1471 61.3975 19.375C61.6188 19.6029 61.8841 19.7803 62.1934 19.9072C62.5059 20.0342 62.8477 20.0977 63.2188 20.0977ZM63.1016 15.3613C63.3327 15.3613 63.5312 15.4036 63.6973 15.4883C63.8665 15.5729 64.0065 15.6836 64.1172 15.8203C64.2279 15.957 64.3141 16.1198 64.376 16.3086C64.4378 16.4941 64.4688 16.6683 64.4688 16.8311V16.875H61.627C61.6628 16.6309 61.7246 16.416 61.8125 16.2305C61.9036 16.0417 62.0143 15.8822 62.1445 15.752C62.2747 15.625 62.4212 15.529 62.584 15.4639C62.7467 15.3955 62.9193 15.3613 63.1016 15.3613ZM72.3525 14.6191C71.9684 14.6191 71.625 14.7038 71.3223 14.873C71.0228 15.0391 70.7656 15.2669 70.5508 15.5566L70.5459 15.4248L70.5068 14.7168H69.6475V20H70.5557V16.6113C70.6143 16.4486 70.6875 16.3021 70.7754 16.1719C70.8665 16.0384 70.9723 15.9261 71.0928 15.835C71.2262 15.7308 71.3825 15.6527 71.5615 15.6006C71.7406 15.5452 71.9408 15.5176 72.1621 15.5176C72.3346 15.5176 72.499 15.5273 72.6553 15.5469C72.8148 15.5632 72.9824 15.5908 73.1582 15.6299L73.2803 14.7461C73.1891 14.707 73.0524 14.6761 72.8701 14.6533C72.6911 14.6305 72.5186 14.6191 72.3525 14.6191Z" fill="#707070"/>
<path d="M106.5 83L87 84V103L93.5 101.5L97 96L104 103L107.5 101.5L110 96L114 99L119.5 100L122.5 96L126 77.5L122 75L106.5 83Z" fill="#FFFACC"/>
<path d="M46.5 81L66 82V101L59.5 99.5L56 94L49 101L45.5 99.5L43 94L39 97L33.5 98L30.5 94L27 75.5L31 73L46.5 81Z" fill="#FFFACC"/>
<path d="M94.7073 87.4762L85.9268 75.9524L77.1463 55L65.0732 71.7619L53 86.4286V106.333L66.1707 121L83.7317 118.905L98 105.286L94.7073 87.4762Z" fill="#0068C8"/>
<path d="M68 97L69.5 85H71V97H68Z" fill="#D9D9D9"/>
<path d="M80 97L78.5 85H77V97H80Z" fill="#D9D9D9"/>
<path fill-rule="evenodd" clip-rule="evenodd" d="M70.5714 64H70.5L60.5 66L56.5 68L55.5 71L58 74.5L63.5 76.5L76 77.5L89 75L92 70.5L89.5 65.5L84 64.5L81 64H80.8571L82.0722 66.8351L89 69L88 71.5L78.5 74H74L64 73L61 71L61.5 69.5L68.4041 67.0342L70.5714 64Z" fill="#FFF7AC"/>
</svg>
