<svg width="150" height="200" viewBox="0 0 150 200" fill="none" xmlns="http://www.w3.org/2000/svg">
<rect width="150" height="200" fill="white"/>
<path d="M17.62 148.43H18.03L17.695 149.405H17.225L17.62 148.43ZM18.415 148.43H18.825L18.495 149.405H18.02L18.415 148.43ZM20.2758 148.505H20.8058L21.5858 151.16L22.3558 148.505H22.7558L23.5208 151.16L24.3008 148.505H24.8308L23.8108 152H23.3258L22.5508 149.36L21.7808 152H21.2958L20.2758 148.505ZM26.2049 148.305H26.7099V149.93C26.9399 149.66 27.2465 149.525 27.6299 149.525C27.9499 149.525 28.1882 149.61 28.3449 149.78C28.5015 149.95 28.5799 150.178 28.5799 150.465V152H28.0749V150.515C28.0749 150.125 27.8882 149.93 27.5149 149.93C27.3549 149.93 27.2049 149.968 27.0649 150.045C26.9282 150.118 26.8099 150.232 26.7099 150.385V152H26.2049V148.305ZM30.9897 152.075C30.6997 152.075 30.4664 152.002 30.2897 151.855C30.1164 151.705 30.0297 151.503 30.0297 151.25C30.0297 150.983 30.113 150.778 30.2797 150.635C30.4497 150.488 30.6897 150.415 30.9997 150.415C31.3297 150.415 31.6097 150.482 31.8397 150.615V150.49C31.8397 150.3 31.7814 150.16 31.6647 150.07C31.5514 149.977 31.3714 149.93 31.1247 149.93C30.978 149.93 30.8347 149.945 30.6947 149.975C30.558 150.002 30.4347 150.04 30.3247 150.09V149.68C30.4247 149.633 30.5547 149.597 30.7147 149.57C30.8747 149.54 31.0297 149.525 31.1797 149.525C31.5764 149.525 31.8697 149.613 32.0597 149.79C32.253 149.963 32.3497 150.205 32.3497 150.515V152H31.8747V151.73C31.7714 151.843 31.648 151.93 31.5047 151.99C31.3647 152.047 31.193 152.075 30.9897 152.075ZM31.1147 151.69C31.2747 151.69 31.4197 151.658 31.5497 151.595C31.6797 151.532 31.7764 151.443 31.8397 151.33V151.005C31.623 150.865 31.3814 150.795 31.1147 150.795C30.9214 150.795 30.7764 150.833 30.6797 150.91C30.5864 150.983 30.5397 151.097 30.5397 151.25C30.5397 151.543 30.7314 151.69 31.1147 151.69ZM34.7744 152.075C34.5311 152.075 34.3427 152.005 34.2094 151.865C34.0794 151.725 34.0144 151.527 34.0144 151.27V149.99H33.6494V149.6H34.0144V148.88H34.5244V149.6H35.1144V149.99H34.5244V151.235C34.5244 151.395 34.5544 151.508 34.6144 151.575C34.6777 151.642 34.7911 151.675 34.9544 151.675C35.0511 151.675 35.1477 151.653 35.2444 151.61V152.01C35.1177 152.053 34.9611 152.075 34.7744 152.075ZM40.7301 152.075C40.4901 152.075 40.2735 152.023 40.0801 151.92C39.8901 151.813 39.7401 151.665 39.6301 151.475C39.5235 151.282 39.4701 151.058 39.4701 150.805C39.4701 150.555 39.5235 150.333 39.6301 150.14C39.7401 149.947 39.8901 149.797 40.0801 149.69C40.2735 149.58 40.4901 149.525 40.7301 149.525C41.1635 149.525 41.4918 149.657 41.7151 149.92V148.305H42.2201V152H41.7301V151.65C41.5968 151.797 41.4501 151.905 41.2901 151.975C41.1335 152.042 40.9468 152.075 40.7301 152.075ZM40.8451 151.675C41.0518 151.675 41.2318 151.622 41.3851 151.515C41.5418 151.405 41.6518 151.258 41.7151 151.075V150.535C41.6585 150.352 41.5501 150.205 41.3901 150.095C41.2335 149.985 41.0518 149.93 40.8451 149.93C40.6818 149.93 40.5335 149.967 40.4001 150.04C40.2701 150.113 40.1668 150.217 40.0901 150.35C40.0168 150.483 39.9801 150.635 39.9801 150.805C39.9801 150.975 40.0168 151.127 40.0901 151.26C40.1668 151.393 40.2701 151.497 40.4001 151.57C40.5335 151.64 40.6818 151.675 40.8451 151.675ZM45.0627 152.075C44.7927 152.075 44.5543 152.025 44.3477 151.925C44.1443 151.822 43.9843 151.675 43.8677 151.485C43.7543 151.292 43.6977 151.065 43.6977 150.805C43.6977 150.548 43.7543 150.323 43.8677 150.13C43.981 149.937 44.141 149.788 44.3477 149.685C44.5543 149.578 44.7927 149.525 45.0627 149.525C45.3327 149.525 45.571 149.578 45.7777 149.685C45.9843 149.788 46.1443 149.937 46.2577 150.13C46.3743 150.323 46.4327 150.548 46.4327 150.805C46.4327 151.065 46.3743 151.292 46.2577 151.485C46.1443 151.675 45.9843 151.822 45.7777 151.925C45.571 152.025 45.3327 152.075 45.0627 152.075ZM45.0627 151.675C45.3227 151.675 45.5293 151.595 45.6827 151.435C45.836 151.275 45.9127 151.065 45.9127 150.805C45.9127 150.535 45.836 150.322 45.6827 150.165C45.5293 150.008 45.3227 149.93 45.0627 149.93C44.8027 149.93 44.596 150.008 44.4427 150.165C44.2893 150.322 44.2127 150.535 44.2127 150.805C44.2127 151.065 44.2893 151.275 44.4427 151.435C44.596 151.595 44.8027 151.675 45.0627 151.675ZM51.3418 152.99C51.1618 152.99 51.0118 152.972 50.8918 152.935V152.54C50.9785 152.573 51.0852 152.59 51.2118 152.59C51.3285 152.59 51.4202 152.56 51.4868 152.5C51.5535 152.443 51.6135 152.35 51.6668 152.22L51.7818 151.94L50.7318 149.6H51.2518L52.0518 151.445L52.7968 149.6H53.3168L52.2368 152.27C52.1368 152.52 52.0168 152.702 51.8768 152.815C51.7402 152.932 51.5618 152.99 51.3418 152.99ZM55.7043 152.075C55.4343 152.075 55.1959 152.025 54.9893 151.925C54.7859 151.822 54.6259 151.675 54.5093 151.485C54.3959 151.292 54.3393 151.065 54.3393 150.805C54.3393 150.548 54.3959 150.323 54.5093 150.13C54.6226 149.937 54.7826 149.788 54.9893 149.685C55.1959 149.578 55.4343 149.525 55.7043 149.525C55.9743 149.525 56.2126 149.578 56.4193 149.685C56.6259 149.788 56.7859 149.937 56.8993 150.13C57.0159 150.323 57.0743 150.548 57.0743 150.805C57.0743 151.065 57.0159 151.292 56.8993 151.485C56.7859 151.675 56.6259 151.822 56.4193 151.925C56.2126 152.025 55.9743 152.075 55.7043 152.075ZM55.7043 151.675C55.9643 151.675 56.1709 151.595 56.3243 151.435C56.4776 151.275 56.5543 151.065 56.5543 150.805C56.5543 150.535 56.4776 150.322 56.3243 150.165C56.1709 150.008 55.9643 149.93 55.7043 149.93C55.4443 149.93 55.2376 150.008 55.0843 150.165C54.9309 150.322 54.8543 150.535 54.8543 150.805C54.8543 151.065 54.9309 151.275 55.0843 151.435C55.2376 151.595 55.4443 151.675 55.7043 151.675ZM59.5779 152.075C59.2545 152.075 59.0095 151.988 58.8429 151.815C58.6795 151.642 58.5979 151.41 58.5979 151.12V149.6H59.1029V151.1C59.1029 151.483 59.2945 151.675 59.6779 151.675C60.0145 151.675 60.2779 151.523 60.4679 151.22V149.6H60.9729V152H60.4829V151.66C60.3695 151.803 60.2345 151.908 60.0779 151.975C59.9245 152.042 59.7579 152.075 59.5779 152.075ZM65.4715 149.6H65.9515V149.945C66.0648 149.805 66.1932 149.7 66.3365 149.63C66.4798 149.56 66.6282 149.525 66.7815 149.525C66.9748 149.525 67.1282 149.558 67.2415 149.625C67.3548 149.688 67.4382 149.787 67.4915 149.92C67.5982 149.79 67.7282 149.692 67.8815 149.625C68.0382 149.558 68.1948 149.525 68.3515 149.525C68.6448 149.525 68.8565 149.6 68.9865 149.75C69.1165 149.897 69.1815 150.115 69.1815 150.405V152H68.6915V150.47C68.6915 150.273 68.6548 150.135 68.5815 150.055C68.5082 149.972 68.3832 149.93 68.2065 149.93C67.9532 149.93 67.7465 150.04 67.5865 150.26C67.5932 150.31 67.5965 150.392 67.5965 150.505V152H67.1065V150.47C67.1065 150.273 67.0732 150.135 67.0065 150.055C66.9398 149.972 66.8198 149.93 66.6465 149.93C66.3932 149.93 66.1665 150.073 65.9665 150.36V152H65.4715V149.6ZM72.1274 152.075C71.6841 152.075 71.3358 151.965 71.0824 151.745C70.8324 151.522 70.7074 151.208 70.7074 150.805C70.7074 150.412 70.8191 150.1 71.0424 149.87C71.2691 149.64 71.5908 149.525 72.0074 149.525C72.2841 149.525 72.5191 149.578 72.7124 149.685C72.9058 149.788 73.0508 149.933 73.1474 150.12C73.2474 150.303 73.2974 150.513 73.2974 150.75V151H71.1874C71.2041 151.227 71.2991 151.397 71.4724 151.51C71.6491 151.62 71.8874 151.675 72.1874 151.675C72.3408 151.675 72.4958 151.662 72.6524 151.635C72.8091 151.605 72.9474 151.567 73.0674 151.52V151.925C72.9608 151.968 72.8191 152.003 72.6424 152.03C72.4691 152.06 72.2974 152.075 72.1274 152.075ZM72.8224 150.645C72.8158 150.418 72.7408 150.243 72.5974 150.12C72.4574 149.993 72.2574 149.93 71.9974 149.93C71.7441 149.93 71.5474 149.995 71.4074 150.125C71.2674 150.255 71.1941 150.428 71.1874 150.645H72.8224ZM75.7094 152.075C75.4194 152.075 75.1861 152.002 75.0094 151.855C74.8361 151.705 74.7494 151.503 74.7494 151.25C74.7494 150.983 74.8327 150.778 74.9994 150.635C75.1694 150.488 75.4094 150.415 75.7194 150.415C76.0494 150.415 76.3294 150.482 76.5594 150.615V150.49C76.5594 150.3 76.5011 150.16 76.3844 150.07C76.2711 149.977 76.0911 149.93 75.8444 149.93C75.6977 149.93 75.5544 149.945 75.4144 149.975C75.2777 150.002 75.1544 150.04 75.0444 150.09V149.68C75.1444 149.633 75.2744 149.597 75.4344 149.57C75.5944 149.54 75.7494 149.525 75.8994 149.525C76.2961 149.525 76.5894 149.613 76.7794 149.79C76.9727 149.963 77.0694 150.205 77.0694 150.515V152H76.5944V151.73C76.4911 151.843 76.3677 151.93 76.2244 151.99C76.0844 152.047 75.9127 152.075 75.7094 152.075ZM75.8344 151.69C75.9944 151.69 76.1394 151.658 76.2694 151.595C76.3994 151.532 76.4961 151.443 76.5594 151.33V151.005C76.3427 150.865 76.1011 150.795 75.8344 150.795C75.6411 150.795 75.4961 150.833 75.3994 150.91C75.3061 150.983 75.2594 151.097 75.2594 151.25C75.2594 151.543 75.4511 151.69 75.8344 151.69ZM78.6961 149.6H79.1861V149.945C79.2994 149.802 79.4378 149.697 79.6011 149.63C79.7678 149.56 79.9411 149.525 80.1211 149.525C80.4411 149.525 80.6794 149.61 80.8361 149.78C80.9928 149.95 81.0711 150.178 81.0711 150.465V152H80.5661V150.515C80.5661 150.125 80.3794 149.93 80.0061 149.93C79.8461 149.93 79.6961 149.968 79.5561 150.045C79.4194 150.118 79.3011 150.232 79.2011 150.385V152H78.6961V149.6ZM82.9991 151.735H83.5291L83.0541 152.74H82.5941L82.9991 151.735ZM87.9314 148.505H88.4464V152H87.9314V148.505ZM90.3284 148.43H90.8284L90.4334 149.405H89.9984L90.3284 148.43ZM92.3777 149.6H92.8577V149.945C92.9711 149.805 93.0994 149.7 93.2427 149.63C93.3861 149.56 93.5344 149.525 93.6877 149.525C93.8811 149.525 94.0344 149.558 94.1477 149.625C94.2611 149.688 94.3444 149.787 94.3977 149.92C94.5044 149.79 94.6344 149.692 94.7877 149.625C94.9444 149.558 95.1011 149.525 95.2577 149.525C95.5511 149.525 95.7627 149.6 95.8927 149.75C96.0227 149.897 96.0877 150.115 96.0877 150.405V152H95.5977V150.47C95.5977 150.273 95.5611 150.135 95.4877 150.055C95.4144 149.972 95.2894 149.93 95.1127 149.93C94.8594 149.93 94.6527 150.04 94.4927 150.26C94.4994 150.31 94.5027 150.392 94.5027 150.505V152H94.0127V150.47C94.0127 150.273 93.9794 150.135 93.9127 150.055C93.8461 149.972 93.7261 149.93 93.5527 149.93C93.2994 149.93 93.0727 150.073 92.8727 150.36V152H92.3777V149.6ZM101.424 152.075C101.134 152.075 100.901 152.002 100.724 151.855C100.551 151.705 100.464 151.503 100.464 151.25C100.464 150.983 100.548 150.778 100.714 150.635C100.884 150.488 101.124 150.415 101.434 150.415C101.764 150.415 102.044 150.482 102.274 150.615V150.49C102.274 150.3 102.216 150.16 102.099 150.07C101.986 149.977 101.806 149.93 101.559 149.93C101.413 149.93 101.269 149.945 101.129 149.975C100.993 150.002 100.869 150.04 100.759 150.09V149.68C100.859 149.633 100.989 149.597 101.149 149.57C101.309 149.54 101.464 149.525 101.614 149.525C102.011 149.525 102.304 149.613 102.494 149.79C102.688 149.963 102.784 150.205 102.784 150.515V152H102.309V151.73C102.206 151.843 102.083 151.93 101.939 151.99C101.799 152.047 101.628 152.075 101.424 152.075ZM101.549 151.69C101.709 151.69 101.854 151.658 101.984 151.595C102.114 151.532 102.211 151.443 102.274 151.33V151.005C102.058 150.865 101.816 150.795 101.549 150.795C101.356 150.795 101.211 150.833 101.114 150.91C101.021 150.983 100.974 151.097 100.974 151.25C100.974 151.543 101.166 151.69 101.549 151.69ZM108.187 152.075C107.943 152.075 107.755 152.005 107.622 151.865C107.492 151.725 107.427 151.527 107.427 151.27V149.99H107.062V149.6H107.427V148.88H107.937V149.6H108.527V149.99H107.937V151.235C107.937 151.395 107.967 151.508 108.027 151.575C108.09 151.642 108.203 151.675 108.367 151.675C108.463 151.675 108.56 151.653 108.657 151.61V152.01C108.53 152.053 108.373 152.075 108.187 152.075ZM110.918 152.075C110.628 152.075 110.395 152.002 110.218 151.855C110.045 151.705 109.958 151.503 109.958 151.25C109.958 150.983 110.042 150.778 110.208 150.635C110.378 150.488 110.618 150.415 110.928 150.415C111.258 150.415 111.538 150.482 111.768 150.615V150.49C111.768 150.3 111.71 150.16 111.593 150.07C111.48 149.977 111.3 149.93 111.053 149.93C110.907 149.93 110.763 149.945 110.623 149.975C110.487 150.002 110.363 150.04 110.253 150.09V149.68C110.353 149.633 110.483 149.597 110.643 149.57C110.803 149.54 110.958 149.525 111.108 149.525C111.505 149.525 111.798 149.613 111.988 149.79C112.182 149.963 112.278 150.205 112.278 150.515V152H111.803V151.73C111.7 151.843 111.577 151.93 111.433 151.99C111.293 152.047 111.122 152.075 110.918 152.075ZM111.043 151.69C111.203 151.69 111.348 151.658 111.478 151.595C111.608 151.532 111.705 151.443 111.768 151.33V151.005C111.552 150.865 111.31 150.795 111.043 150.795C110.85 150.795 110.705 150.833 110.608 150.91C110.515 150.983 110.468 151.097 110.468 151.25C110.468 151.543 110.66 151.69 111.043 151.69ZM113.905 148.305H114.41V152H113.905V148.305ZM116.062 148.305H116.567V152H116.062V148.305ZM116.572 150.785L117.677 149.6H118.292L117.182 150.785L118.407 152H117.792L116.572 150.785ZM120.204 149.13C120.121 149.13 120.051 149.102 119.994 149.045C119.937 148.988 119.909 148.918 119.909 148.835C119.909 148.752 119.937 148.682 119.994 148.625C120.051 148.568 120.121 148.54 120.204 148.54C120.291 148.54 120.362 148.568 120.419 148.625C120.479 148.682 120.509 148.752 120.509 148.835C120.509 148.918 120.479 148.988 120.419 149.045C120.362 149.102 120.291 149.13 120.204 149.13ZM119.949 149.6H120.464V152H119.949V149.6ZM122.159 149.6H122.649V149.945C122.762 149.802 122.901 149.697 123.064 149.63C123.231 149.56 123.404 149.525 123.584 149.525C123.904 149.525 124.142 149.61 124.299 149.78C124.456 149.95 124.534 150.178 124.534 150.465V152H124.029V150.515C124.029 150.125 123.842 149.93 123.469 149.93C123.309 149.93 123.159 149.968 123.019 150.045C122.882 150.118 122.764 150.232 122.664 150.385V152H122.159V149.6ZM127.412 153.15C127.249 153.15 127.089 153.137 126.932 153.11C126.779 153.083 126.649 153.045 126.542 152.995V152.58C126.792 152.693 127.082 152.75 127.412 152.75C127.722 152.75 127.947 152.682 128.087 152.545C128.23 152.412 128.302 152.208 128.302 151.935V151.68C128.082 151.943 127.759 152.075 127.332 152.075C127.089 152.075 126.87 152.022 126.677 151.915C126.484 151.808 126.332 151.658 126.222 151.465C126.112 151.272 126.057 151.05 126.057 150.8C126.057 150.547 126.11 150.325 126.217 150.135C126.327 149.942 126.477 149.792 126.667 149.685C126.86 149.578 127.077 149.525 127.317 149.525C127.54 149.525 127.729 149.558 127.882 149.625C128.039 149.688 128.184 149.795 128.317 149.945V149.6H128.807V151.88C128.807 152.29 128.692 152.603 128.462 152.82C128.235 153.04 127.885 153.15 127.412 153.15ZM127.432 151.675C127.639 151.675 127.82 151.62 127.977 151.51C128.137 151.4 128.245 151.253 128.302 151.07V150.53C128.239 150.343 128.129 150.197 127.972 150.09C127.819 149.983 127.639 149.93 127.432 149.93C127.269 149.93 127.12 149.967 126.987 150.04C126.857 150.11 126.754 150.212 126.677 150.345C126.604 150.478 126.567 150.63 126.567 150.8C126.567 150.973 126.604 151.127 126.677 151.26C126.754 151.39 126.857 151.492 126.987 151.565C127.12 151.638 127.269 151.675 127.432 151.675ZM17.225 157.6H17.74L18.28 159.38L18.815 157.6H19.27L19.805 159.38L20.345 157.6H20.865L20.085 160H19.6L19.045 158.21L18.49 160H18L17.225 157.6ZM23.0034 160.075C22.7134 160.075 22.48 160.002 22.3034 159.855C22.13 159.705 22.0434 159.503 22.0434 159.25C22.0434 158.983 22.1267 158.778 22.2934 158.635C22.4634 158.488 22.7034 158.415 23.0134 158.415C23.3434 158.415 23.6234 158.482 23.8534 158.615V158.49C23.8534 158.3 23.795 158.16 23.6784 158.07C23.565 157.977 23.385 157.93 23.1384 157.93C22.9917 157.93 22.8484 157.945 22.7084 157.975C22.5717 158.002 22.4484 158.04 22.3384 158.09V157.68C22.4384 157.633 22.5684 157.597 22.7284 157.57C22.8884 157.54 23.0434 157.525 23.1934 157.525C23.59 157.525 23.8834 157.613 24.0734 157.79C24.2667 157.963 24.3634 158.205 24.3634 158.515V160H23.8884V159.73C23.785 159.843 23.6617 159.93 23.5184 159.99C23.3784 160.047 23.2067 160.075 23.0034 160.075ZM23.1284 159.69C23.2884 159.69 23.4334 159.658 23.5634 159.595C23.6934 159.532 23.79 159.443 23.8534 159.33V159.005C23.6367 158.865 23.395 158.795 23.1284 158.795C22.935 158.795 22.79 158.833 22.6934 158.91C22.6 158.983 22.5534 159.097 22.5534 159.25C22.5534 159.543 22.745 159.69 23.1284 159.69ZM26.7881 160.075C26.5448 160.075 26.3564 160.005 26.2231 159.865C26.0931 159.725 26.0281 159.527 26.0281 159.27V157.99H25.6631V157.6H26.0281V156.88H26.5381V157.6H27.1281V157.99H26.5381V159.235C26.5381 159.395 26.5681 159.508 26.6281 159.575C26.6914 159.642 26.8048 159.675 26.9681 159.675C27.0648 159.675 27.1614 159.653 27.2581 159.61V160.01C27.1314 160.053 26.9748 160.075 26.7881 160.075ZM30.0532 160.075C29.6099 160.075 29.2615 159.965 29.0082 159.745C28.7582 159.522 28.6332 159.208 28.6332 158.805C28.6332 158.412 28.7449 158.1 28.9682 157.87C29.1949 157.64 29.5165 157.525 29.9332 157.525C30.2099 157.525 30.4449 157.578 30.6382 157.685C30.8315 157.788 30.9765 157.933 31.0732 158.12C31.1732 158.303 31.2232 158.513 31.2232 158.75V159H29.1132C29.1299 159.227 29.2249 159.397 29.3982 159.51C29.5749 159.62 29.8132 159.675 30.1132 159.675C30.2665 159.675 30.4215 159.662 30.5782 159.635C30.7349 159.605 30.8732 159.567 30.9932 159.52V159.925C30.8865 159.968 30.7449 160.003 30.5682 160.03C30.3949 160.06 30.2232 160.075 30.0532 160.075ZM30.7482 158.645C30.7415 158.418 30.6665 158.243 30.5232 158.12C30.3832 157.993 30.1832 157.93 29.9232 157.93C29.6699 157.93 29.4732 157.995 29.3332 158.125C29.1932 158.255 29.1199 158.428 29.1132 158.645H30.7482ZM32.7752 157.6H33.2652V158.03C33.3652 157.883 33.5052 157.775 33.6852 157.705C33.8685 157.635 34.0802 157.6 34.3202 157.6V157.995C34.0635 157.995 33.8435 158.037 33.6602 158.12C33.4769 158.203 33.3502 158.335 33.2802 158.515V160H32.7752V157.6ZM36.2773 158.9C36.2773 158.697 36.3156 158.527 36.3923 158.39C36.4689 158.253 36.5989 158.122 36.7823 157.995C36.9156 157.902 37.0156 157.828 37.0823 157.775C37.1489 157.718 37.2006 157.657 37.2373 157.59C37.2773 157.52 37.2973 157.438 37.2973 157.345C37.2973 157.195 37.2373 157.077 37.1173 156.99C36.9973 156.903 36.8239 156.86 36.5973 156.86C36.2639 156.86 35.9556 156.927 35.6723 157.06V156.62C35.8056 156.563 35.9506 156.518 36.1073 156.485C36.2673 156.448 36.4306 156.43 36.5973 156.43C36.9639 156.43 37.2556 156.512 37.4723 156.675C37.6889 156.838 37.7973 157.062 37.7973 157.345C37.7973 157.518 37.7523 157.667 37.6623 157.79C37.5723 157.913 37.4306 158.045 37.2373 158.185C37.0973 158.285 36.9973 158.365 36.9373 158.425C36.8773 158.482 36.8339 158.547 36.8073 158.62C36.7806 158.69 36.7673 158.785 36.7673 158.905V159.005H36.2773V158.9ZM36.5173 160.075C36.4339 160.075 36.3639 160.047 36.3073 159.99C36.2506 159.933 36.2223 159.863 36.2223 159.78C36.2223 159.697 36.2506 159.627 36.3073 159.57C36.3639 159.513 36.4339 159.485 36.5173 159.485C36.6006 159.485 36.6706 159.513 36.7273 159.57C36.7873 159.627 36.8173 159.697 36.8173 159.78C36.8173 159.863 36.7873 159.933 36.7273 159.99C36.6706 160.047 36.6006 160.075 36.5173 160.075ZM44.9467 156.505H45.4767L46.2567 159.16L47.0267 156.505H47.4267L48.1917 159.16L48.9717 156.505H49.5017L48.4817 160H47.9967L47.2217 157.36L46.4517 160H45.9667L44.9467 156.505ZM51.5356 160.075C51.2456 160.075 51.0123 160.002 50.8356 159.855C50.6623 159.705 50.5756 159.503 50.5756 159.25C50.5756 158.983 50.6589 158.778 50.8256 158.635C50.9956 158.488 51.2356 158.415 51.5456 158.415C51.8756 158.415 52.1556 158.482 52.3856 158.615V158.49C52.3856 158.3 52.3273 158.16 52.2106 158.07C52.0973 157.977 51.9173 157.93 51.6706 157.93C51.5239 157.93 51.3806 157.945 51.2406 157.975C51.1039 158.002 50.9806 158.04 50.8706 158.09V157.68C50.9706 157.633 51.1006 157.597 51.2606 157.57C51.4206 157.54 51.5756 157.525 51.7256 157.525C52.1223 157.525 52.4156 157.613 52.6056 157.79C52.7989 157.963 52.8956 158.205 52.8956 158.515V160H52.4206V159.73C52.3173 159.843 52.1939 159.93 52.0506 159.99C51.9106 160.047 51.7389 160.075 51.5356 160.075ZM51.6606 159.69C51.8206 159.69 51.9656 159.658 52.0956 159.595C52.2256 159.532 52.3223 159.443 52.3856 159.33V159.005C52.1689 158.865 51.9273 158.795 51.6606 158.795C51.4673 158.795 51.3223 158.833 51.2256 158.91C51.1323 158.983 51.0856 159.097 51.0856 159.25C51.0856 159.543 51.2773 159.69 51.6606 159.69ZM55.3203 160.075C55.077 160.075 54.8886 160.005 54.7553 159.865C54.6253 159.725 54.5603 159.527 54.5603 159.27V157.99H54.1953V157.6H54.5603V156.88H55.0703V157.6H55.6603V157.99H55.0703V159.235C55.0703 159.395 55.1003 159.508 55.1603 159.575C55.2236 159.642 55.337 159.675 55.5003 159.675C55.597 159.675 55.6936 159.653 55.7903 159.61V160.01C55.6636 160.053 55.507 160.075 55.3203 160.075ZM58.5854 160.075C58.1421 160.075 57.7938 159.965 57.5404 159.745C57.2904 159.522 57.1654 159.208 57.1654 158.805C57.1654 158.412 57.2771 158.1 57.5004 157.87C57.7271 157.64 58.0488 157.525 58.4654 157.525C58.7421 157.525 58.9771 157.578 59.1704 157.685C59.3638 157.788 59.5088 157.933 59.6054 158.12C59.7054 158.303 59.7554 158.513 59.7554 158.75V159H57.6454C57.6621 159.227 57.7571 159.397 57.9304 159.51C58.1071 159.62 58.3454 159.675 58.6454 159.675C58.7988 159.675 58.9538 159.662 59.1104 159.635C59.2671 159.605 59.4054 159.567 59.5254 159.52V159.925C59.4188 159.968 59.2771 160.003 59.1004 160.03C58.9271 160.06 58.7554 160.075 58.5854 160.075ZM59.2804 158.645C59.2738 158.418 59.1988 158.243 59.0554 158.12C58.9154 157.993 58.7154 157.93 58.4554 157.93C58.2021 157.93 58.0054 157.995 57.8654 158.125C57.7254 158.255 57.6521 158.428 57.6454 158.645H59.2804ZM61.3074 157.6H61.7974V158.03C61.8974 157.883 62.0374 157.775 62.2174 157.705C62.4008 157.635 62.6124 157.6 62.8524 157.6V157.995C62.5958 157.995 62.3758 158.037 62.1924 158.12C62.0091 158.203 61.8824 158.335 61.8124 158.515V160H61.3074V157.6ZM68.3151 160.075C68.0751 160.075 67.8584 160.023 67.6651 159.92C67.4751 159.813 67.3251 159.665 67.2151 159.475C67.1084 159.282 67.0551 159.058 67.0551 158.805C67.0551 158.555 67.1084 158.333 67.2151 158.14C67.3251 157.947 67.4751 157.797 67.6651 157.69C67.8584 157.58 68.0751 157.525 68.3151 157.525C68.7484 157.525 69.0767 157.657 69.3001 157.92V156.305H69.8051V160H69.3151V159.65C69.1817 159.797 69.0351 159.905 68.8751 159.975C68.7184 160.042 68.5317 160.075 68.3151 160.075ZM68.4301 159.675C68.6367 159.675 68.8167 159.622 68.9701 159.515C69.1267 159.405 69.2367 159.258 69.3001 159.075V158.535C69.2434 158.352 69.1351 158.205 68.9751 158.095C68.8184 157.985 68.6367 157.93 68.4301 157.93C68.2667 157.93 68.1184 157.967 67.9851 158.04C67.8551 158.113 67.7517 158.217 67.6751 158.35C67.6017 158.483 67.5651 158.635 67.5651 158.805C67.5651 158.975 67.6017 159.127 67.6751 159.26C67.7517 159.393 67.8551 159.497 67.9851 159.57C68.1184 159.64 68.2667 159.675 68.4301 159.675ZM72.6476 160.075C72.3776 160.075 72.1393 160.025 71.9326 159.925C71.7293 159.822 71.5693 159.675 71.4526 159.485C71.3393 159.292 71.2826 159.065 71.2826 158.805C71.2826 158.548 71.3393 158.323 71.4526 158.13C71.566 157.937 71.726 157.788 71.9326 157.685C72.1393 157.578 72.3776 157.525 72.6476 157.525C72.9176 157.525 73.156 157.578 73.3626 157.685C73.5693 157.788 73.7293 157.937 73.8426 158.13C73.9593 158.323 74.0176 158.548 74.0176 158.805C74.0176 159.065 73.9593 159.292 73.8426 159.485C73.7293 159.675 73.5693 159.822 73.3626 159.925C73.156 160.025 72.9176 160.075 72.6476 160.075ZM72.6476 159.675C72.9076 159.675 73.1143 159.595 73.2676 159.435C73.421 159.275 73.4976 159.065 73.4976 158.805C73.4976 158.535 73.421 158.322 73.2676 158.165C73.1143 158.008 72.9076 157.93 72.6476 157.93C72.3876 157.93 72.181 158.008 72.0276 158.165C71.8743 158.322 71.7976 158.535 71.7976 158.805C71.7976 159.065 71.8743 159.275 72.0276 159.435C72.181 159.595 72.3876 159.675 72.6476 159.675ZM76.8862 160.075C76.4429 160.075 76.0945 159.965 75.8412 159.745C75.5912 159.522 75.4662 159.208 75.4662 158.805C75.4662 158.412 75.5779 158.1 75.8012 157.87C76.0279 157.64 76.3495 157.525 76.7662 157.525C77.0429 157.525 77.2779 157.578 77.4712 157.685C77.6645 157.788 77.8095 157.933 77.9062 158.12C78.0062 158.303 78.0562 158.513 78.0562 158.75V159H75.9462C75.9629 159.227 76.0579 159.397 76.2312 159.51C76.4079 159.62 76.6462 159.675 76.9462 159.675C77.0995 159.675 77.2545 159.662 77.4112 159.635C77.5679 159.605 77.7062 159.567 77.8262 159.52V159.925C77.7195 159.968 77.5779 160.003 77.4012 160.03C77.2279 160.06 77.0562 160.075 76.8862 160.075ZM77.5812 158.645C77.5745 158.418 77.4995 158.243 77.3562 158.12C77.2162 157.993 77.0162 157.93 76.7562 157.93C76.5029 157.93 76.3062 157.995 76.1662 158.125C76.0262 158.255 75.9529 158.428 75.9462 158.645H77.5812ZM80.4932 160.075C80.3265 160.075 80.1499 160.053 79.9632 160.01C79.7765 159.97 79.6299 159.915 79.5232 159.845V159.415C79.6532 159.492 79.8032 159.555 79.9732 159.605C80.1432 159.652 80.3082 159.675 80.4682 159.675C80.6482 159.675 80.7799 159.653 80.8632 159.61C80.9465 159.567 80.9882 159.497 80.9882 159.4C80.9882 159.327 80.9682 159.268 80.9282 159.225C80.8915 159.178 80.8265 159.137 80.7332 159.1C80.6432 159.063 80.5065 159.02 80.3232 158.97C80.1265 158.913 79.9699 158.857 79.8532 158.8C79.7399 158.74 79.6532 158.665 79.5932 158.575C79.5365 158.485 79.5082 158.368 79.5082 158.225C79.5082 157.995 79.5982 157.822 79.7782 157.705C79.9615 157.585 80.2065 157.525 80.5132 157.525C80.6732 157.525 80.8299 157.54 80.9832 157.57C81.1365 157.6 81.2599 157.642 81.3532 157.695V158.115C81.2565 158.058 81.1365 158.013 80.9932 157.98C80.8532 157.947 80.7099 157.93 80.5632 157.93C80.3865 157.93 80.2515 157.952 80.1582 157.995C80.0649 158.038 80.0182 158.115 80.0182 158.225C80.0182 158.295 80.0382 158.352 80.0782 158.395C80.1182 158.438 80.1815 158.477 80.2682 158.51C80.3582 158.54 80.4999 158.58 80.6932 158.63C80.9965 158.713 81.2065 158.812 81.3232 158.925C81.4432 159.038 81.5032 159.195 81.5032 159.395C81.5032 159.602 81.4182 159.767 81.2482 159.89C81.0782 160.013 80.8265 160.075 80.4932 160.075ZM83.0545 157.6H83.5445V157.945C83.6578 157.802 83.7962 157.697 83.9595 157.63C84.1262 157.56 84.2995 157.525 84.4795 157.525C84.7995 157.525 85.0378 157.61 85.1945 157.78C85.3512 157.95 85.4295 158.178 85.4295 158.465V160H84.9245V158.515C84.9245 158.125 84.7378 157.93 84.3645 157.93C84.2045 157.93 84.0545 157.968 83.9145 158.045C83.7778 158.118 83.6595 158.232 83.5595 158.385V160H83.0545V157.6ZM87.2825 156.43H87.7825L87.3875 157.405H86.9525L87.2825 156.43ZM90.2568 160.075C90.0135 160.075 89.8252 160.005 89.6918 159.865C89.5618 159.725 89.4968 159.527 89.4968 159.27V157.99H89.1318V157.6H89.4968V156.88H90.0068V157.6H90.5968V157.99H90.0068V159.235C90.0068 159.395 90.0368 159.508 90.0968 159.575C90.1602 159.642 90.2735 159.675 90.4368 159.675C90.5335 159.675 90.6302 159.653 90.7268 159.61V160.01C90.6002 160.053 90.4435 160.075 90.2568 160.075ZM95.9775 160.075C95.7342 160.075 95.5459 160.005 95.4125 159.865C95.2825 159.725 95.2175 159.527 95.2175 159.27V157.99H94.8525V157.6H95.2175V156.88H95.7275V157.6H96.3175V157.99H95.7275V159.235C95.7275 159.395 95.7575 159.508 95.8175 159.575C95.8809 159.642 95.9942 159.675 96.1575 159.675C96.2542 159.675 96.3509 159.653 96.4475 159.61V160.01C96.3209 160.053 96.1642 160.075 95.9775 160.075ZM98.7094 160.075C98.4194 160.075 98.1861 160.002 98.0094 159.855C97.8361 159.705 97.7494 159.503 97.7494 159.25C97.7494 158.983 97.8327 158.778 97.9994 158.635C98.1694 158.488 98.4094 158.415 98.7194 158.415C99.0494 158.415 99.3294 158.482 99.5594 158.615V158.49C99.5594 158.3 99.5011 158.16 99.3844 158.07C99.2711 157.977 99.0911 157.93 98.8444 157.93C98.6977 157.93 98.5544 157.945 98.4144 157.975C98.2777 158.002 98.1544 158.04 98.0444 158.09V157.68C98.1444 157.633 98.2744 157.597 98.4344 157.57C98.5944 157.54 98.7494 157.525 98.8994 157.525C99.2961 157.525 99.5894 157.613 99.7794 157.79C99.9727 157.963 100.069 158.205 100.069 158.515V160H99.5944V159.73C99.4911 159.843 99.3677 159.93 99.2244 159.99C99.0844 160.047 98.9127 160.075 98.7094 160.075ZM98.8344 159.69C98.9944 159.69 99.1394 159.658 99.2694 159.595C99.3994 159.532 99.4961 159.443 99.5594 159.33V159.005C99.3427 158.865 99.1011 158.795 98.8344 158.795C98.6411 158.795 98.4961 158.833 98.3994 158.91C98.3061 158.983 98.2594 159.097 98.2594 159.25C98.2594 159.543 98.4511 159.69 98.8344 159.69ZM101.696 156.305H102.201V160H101.696V156.305ZM103.853 156.305H104.358V160H103.853V156.305ZM104.363 158.785L105.468 157.6H106.083L104.973 158.785L106.198 160H105.583L104.363 158.785ZM107.78 159.735H108.31L107.835 160.74H107.375L107.78 159.735ZM113.598 160.075C113.431 160.075 113.254 160.053 113.068 160.01C112.881 159.97 112.734 159.915 112.628 159.845V159.415C112.758 159.492 112.908 159.555 113.078 159.605C113.248 159.652 113.413 159.675 113.573 159.675C113.753 159.675 113.884 159.653 113.968 159.61C114.051 159.567 114.093 159.497 114.093 159.4C114.093 159.327 114.073 159.268 114.033 159.225C113.996 159.178 113.931 159.137 113.838 159.1C113.748 159.063 113.611 159.02 113.428 158.97C113.231 158.913 113.074 158.857 112.958 158.8C112.844 158.74 112.758 158.665 112.698 158.575C112.641 158.485 112.613 158.368 112.613 158.225C112.613 157.995 112.703 157.822 112.883 157.705C113.066 157.585 113.311 157.525 113.618 157.525C113.778 157.525 113.934 157.54 114.088 157.57C114.241 157.6 114.364 157.642 114.458 157.695V158.115C114.361 158.058 114.241 158.013 114.098 157.98C113.958 157.947 113.814 157.93 113.668 157.93C113.491 157.93 113.356 157.952 113.263 157.995C113.169 158.038 113.123 158.115 113.123 158.225C113.123 158.295 113.143 158.352 113.183 158.395C113.223 158.438 113.286 158.477 113.373 158.51C113.463 158.54 113.604 158.58 113.798 158.63C114.101 158.713 114.311 158.812 114.428 158.925C114.548 159.038 114.608 159.195 114.608 159.395C114.608 159.602 114.523 159.767 114.353 159.89C114.183 160.013 113.931 160.075 113.598 160.075ZM116.454 157.13C116.371 157.13 116.301 157.102 116.244 157.045C116.187 156.988 116.159 156.918 116.159 156.835C116.159 156.752 116.187 156.682 116.244 156.625C116.301 156.568 116.371 156.54 116.454 156.54C116.541 156.54 116.612 156.568 116.669 156.625C116.729 156.682 116.759 156.752 116.759 156.835C116.759 156.918 116.729 156.988 116.669 157.045C116.612 157.102 116.541 157.13 116.454 157.13ZM116.199 157.6H116.714V160H116.199V157.6ZM118.409 156.305H118.914V160H118.409V156.305ZM120.566 156.305H121.071V160H120.566V156.305ZM123.233 160.99C123.053 160.99 122.903 160.972 122.783 160.935V160.54C122.87 160.573 122.977 160.59 123.103 160.59C123.22 160.59 123.312 160.56 123.378 160.5C123.445 160.443 123.505 160.35 123.558 160.22L123.673 159.94L122.623 157.6H123.143L123.943 159.445L124.688 157.6H125.208L124.128 160.27C124.028 160.52 123.908 160.702 123.768 160.815C123.632 160.932 123.453 160.99 123.233 160.99ZM126.793 160C126.726 160 126.67 159.978 126.623 159.935C126.58 159.888 126.558 159.832 126.558 159.765C126.558 159.698 126.58 159.642 126.623 159.595C126.67 159.548 126.726 159.525 126.793 159.525C126.86 159.525 126.916 159.548 126.963 159.595C127.01 159.642 127.033 159.698 127.033 159.765C127.033 159.832 127.01 159.888 126.963 159.935C126.916 159.978 126.86 160 126.793 160ZM128.811 156.43H129.286L128.891 157.405H128.481L128.811 156.43ZM129.606 156.43H130.081L129.686 157.405H129.276L129.606 156.43Z" fill="black"/>
<rect x="12.25" y="143.25" width="125.5" height="46.5" stroke="#6C6C6C" stroke-width="0.5"/>
<path d="M15.75 35.225C15.02 35.225 14.455 35.015 14.055 34.595C13.665 34.175 13.47 33.58 13.47 32.81V28.97H12.375V27.8H13.47V25.64H15V27.8H16.77V28.97H15V32.705C15 33.185 15.09 33.525 15.27 33.725C15.46 33.925 15.8 34.025 16.29 34.025C16.58 34.025 16.87 33.96 17.16 33.83V35.03C16.78 35.16 16.31 35.225 15.75 35.225ZM23.1956 35.225C22.3256 35.225 21.6256 35.005 21.0956 34.565C20.5756 34.115 20.3156 33.51 20.3156 32.75C20.3156 31.95 20.5656 31.335 21.0656 30.905C21.5756 30.465 22.2956 30.245 23.2256 30.245C24.2156 30.245 25.0556 30.445 25.7456 30.845V30.47C25.7456 29.9 25.5706 29.48 25.2206 29.21C24.8806 28.93 24.3406 28.79 23.6006 28.79C23.1606 28.79 22.7306 28.835 22.3106 28.925C21.9006 29.005 21.5306 29.12 21.2006 29.27V28.04C21.5006 27.9 21.8906 27.79 22.3706 27.71C22.8506 27.62 23.3156 27.575 23.7656 27.575C24.9556 27.575 25.8356 27.84 26.4056 28.37C26.9856 28.89 27.2756 29.615 27.2756 30.545V35H25.8506V34.19C25.5406 34.53 25.1706 34.79 24.7406 34.97C24.3206 35.14 23.8056 35.225 23.1956 35.225ZM23.5706 34.07C24.0506 34.07 24.4856 33.975 24.8756 33.785C25.2656 33.595 25.5556 33.33 25.7456 32.99V32.015C25.0956 31.595 24.3706 31.385 23.5706 31.385C22.9906 31.385 22.5556 31.5 22.2656 31.73C21.9856 31.95 21.8456 32.29 21.8456 32.75C21.8456 33.63 22.4206 34.07 23.5706 34.07ZM31.4057 23.915H32.9207V35H31.4057V23.915ZM37.1273 23.915H38.6423V35H37.1273V23.915ZM38.6573 31.355L41.9723 27.8H43.8173L40.4873 31.355L44.1623 35H42.3173L38.6573 31.355ZM48.8024 26.39C48.5524 26.39 48.3424 26.305 48.1724 26.135C48.0024 25.965 47.9174 25.755 47.9174 25.505C47.9174 25.255 48.0024 25.045 48.1724 24.875C48.3424 24.705 48.5524 24.62 48.8024 24.62C49.0624 24.62 49.2774 24.705 49.4474 24.875C49.6274 25.045 49.7174 25.255 49.7174 25.505C49.7174 25.755 49.6274 25.965 49.4474 26.135C49.2774 26.305 49.0624 26.39 48.8024 26.39ZM48.0374 27.8H49.5824V35H48.0374V27.8ZM53.9174 27.8H55.3874V28.835C55.7274 28.405 56.1424 28.09 56.6324 27.89C57.1324 27.68 57.6524 27.575 58.1924 27.575C59.1524 27.575 59.8674 27.83 60.3374 28.34C60.8074 28.85 61.0424 29.535 61.0424 30.395V35H59.5274V30.545C59.5274 29.375 58.9674 28.79 57.8474 28.79C57.3674 28.79 56.9174 28.905 56.4974 29.135C56.0874 29.355 55.7324 29.695 55.4324 30.155V35H53.9174V27.8ZM68.9265 38.45C68.4365 38.45 67.9565 38.41 67.4865 38.33C67.0265 38.25 66.6365 38.135 66.3165 37.985V36.74C67.0665 37.08 67.9365 37.25 68.9265 37.25C69.8565 37.25 70.5315 37.045 70.9515 36.635C71.3815 36.235 71.5965 35.625 71.5965 34.805V34.04C70.9365 34.83 69.9665 35.225 68.6865 35.225C67.9565 35.225 67.3015 35.065 66.7215 34.745C66.1415 34.425 65.6865 33.975 65.3565 33.395C65.0265 32.815 64.8615 32.15 64.8615 31.4C64.8615 30.64 65.0215 29.975 65.3415 29.405C65.6715 28.825 66.1215 28.375 66.6915 28.055C67.2715 27.735 67.9215 27.575 68.6415 27.575C69.3115 27.575 69.8765 27.675 70.3365 27.875C70.8065 28.065 71.2415 28.385 71.6415 28.835V27.8H73.1115V34.64C73.1115 35.87 72.7665 36.81 72.0765 37.46C71.3965 38.12 70.3465 38.45 68.9265 38.45ZM68.9865 34.025C69.6065 34.025 70.1515 33.86 70.6215 33.53C71.1015 33.2 71.4265 32.76 71.5965 32.21V30.59C71.4065 30.03 71.0765 29.59 70.6065 29.27C70.1465 28.95 69.6065 28.79 68.9865 28.79C68.4965 28.79 68.0515 28.9 67.6515 29.12C67.2615 29.33 66.9515 29.635 66.7215 30.035C66.5015 30.435 66.3915 30.89 66.3915 31.4C66.3915 31.92 66.5015 32.38 66.7215 32.78C66.9515 33.17 67.2615 33.475 67.6515 33.695C68.0515 33.915 68.4965 34.025 68.9865 34.025ZM84.8156 27.8H86.3606L87.9806 33.14L89.5856 27.8H90.9506L92.5556 33.14L94.1756 27.8H95.7356L93.3956 35H91.9406L90.2756 29.63L88.6106 35H87.1406L84.8156 27.8ZM101.401 35.225C100.531 35.225 99.8307 35.005 99.3007 34.565C98.7807 34.115 98.5207 33.51 98.5207 32.75C98.5207 31.95 98.7707 31.335 99.2707 30.905C99.7807 30.465 100.501 30.245 101.431 30.245C102.421 30.245 103.261 30.445 103.951 30.845V30.47C103.951 29.9 103.776 29.48 103.426 29.21C103.086 28.93 102.546 28.79 101.806 28.79C101.366 28.79 100.936 28.835 100.516 28.925C100.106 29.005 99.7357 29.12 99.4057 29.27V28.04C99.7057 27.9 100.096 27.79 100.576 27.71C101.056 27.62 101.521 27.575 101.971 27.575C103.161 27.575 104.041 27.84 104.611 28.37C105.191 28.89 105.481 29.615 105.481 30.545V35H104.056V34.19C103.746 34.53 103.376 34.79 102.946 34.97C102.526 35.14 102.011 35.225 101.401 35.225ZM101.776 34.07C102.256 34.07 102.691 33.975 103.081 33.785C103.471 33.595 103.761 33.33 103.951 32.99V32.015C103.301 31.595 102.576 31.385 101.776 31.385C101.196 31.385 100.761 31.5 100.471 31.73C100.191 31.95 100.051 32.29 100.051 32.75C100.051 33.63 100.626 34.07 101.776 34.07ZM112.005 35.225C111.275 35.225 110.71 35.015 110.31 34.595C109.92 34.175 109.725 33.58 109.725 32.81V28.97H108.63V27.8H109.725V25.64H111.255V27.8H113.025V28.97H111.255V32.705C111.255 33.185 111.345 33.525 111.525 33.725C111.715 33.925 112.055 34.025 112.545 34.025C112.835 34.025 113.125 33.96 113.415 33.83V35.03C113.035 35.16 112.565 35.225 112.005 35.225ZM121.05 35.225C119.72 35.225 118.675 34.895 117.915 34.235C117.165 33.565 116.79 32.625 116.79 31.415C116.79 30.235 117.125 29.3 117.795 28.61C118.475 27.92 119.44 27.575 120.69 27.575C121.52 27.575 122.225 27.735 122.805 28.055C123.385 28.365 123.82 28.8 124.11 29.36C124.41 29.91 124.56 30.54 124.56 31.25V32H118.23C118.28 32.68 118.565 33.19 119.085 33.53C119.615 33.86 120.33 34.025 121.23 34.025C121.69 34.025 122.155 33.985 122.625 33.905C123.095 33.815 123.51 33.7 123.87 33.56V34.775C123.55 34.905 123.125 35.01 122.595 35.09C122.075 35.18 121.56 35.225 121.05 35.225ZM123.135 30.935C123.115 30.255 122.89 29.73 122.46 29.36C122.04 28.98 121.44 28.79 120.66 28.79C119.9 28.79 119.31 28.985 118.89 29.375C118.47 29.765 118.25 30.285 118.23 30.935H123.135ZM128.466 27.8H129.936V29.09C130.236 28.65 130.656 28.325 131.196 28.115C131.746 27.905 132.381 27.8 133.101 27.8V28.985C132.331 28.985 131.671 29.11 131.121 29.36C130.571 29.61 130.191 30.005 129.981 30.545V35H128.466V27.8Z" fill="black"/>
<path d="M12.8691 19.0381L17.1807 17.1875V16.4746L12.8691 14.6289V15.5615L16.0283 16.7334L16.3213 16.8262L16.0283 16.9092L12.8691 18.1006V19.0381ZM20.875 19.0381L25.1865 17.1875V16.4746L20.875 14.6289V15.5615L24.0342 16.7334L24.3271 16.8262L24.0342 16.9092L20.875 18.1006V19.0381ZM37.375 20H38.0879L38.9033 16.7627L39.0352 15.9424L39.1719 16.7627L39.9971 20H40.71L41.833 14.7168H41.0322L40.4463 18.0859L40.3145 18.916L40.1729 18.0859L39.333 14.7168H38.752L37.9072 18.0859L37.7754 18.8428L37.668 18.0859L37.0527 14.7168H36.252L37.375 20ZM48.3447 20H49.2871V19.9219C49.2285 19.7754 49.1829 19.6045 49.1504 19.4092C49.1178 19.2106 49.1016 19.0234 49.1016 18.8477V16.3916C49.1016 16.0954 49.0479 15.8366 48.9404 15.6152C48.833 15.3939 48.6865 15.2083 48.501 15.0586C48.3122 14.9121 48.0892 14.8031 47.832 14.7314C47.5749 14.6566 47.2965 14.6191 46.9971 14.6191C46.6683 14.6191 46.3737 14.6647 46.1133 14.7559C45.8561 14.847 45.638 14.9658 45.459 15.1123C45.2767 15.262 45.1367 15.4297 45.0391 15.6152C44.9447 15.8008 44.8958 15.9896 44.8926 16.1816H45.8008C45.8008 16.071 45.8268 15.9652 45.8789 15.8643C45.9342 15.7601 46.0107 15.6706 46.1084 15.5957C46.2061 15.5208 46.3249 15.4606 46.4648 15.415C46.6081 15.3695 46.7692 15.3467 46.9482 15.3467C47.1403 15.3467 47.3128 15.3711 47.4658 15.4199C47.6221 15.4688 47.7539 15.5371 47.8613 15.625C47.9688 15.7161 48.0518 15.8252 48.1104 15.9521C48.1689 16.0791 48.1982 16.2223 48.1982 16.3818V16.7969H47.2119C46.8441 16.7969 46.5104 16.8327 46.2109 16.9043C45.9147 16.9759 45.6608 17.0833 45.4492 17.2266C45.2376 17.373 45.0732 17.5553 44.9561 17.7734C44.8421 17.9915 44.7852 18.2454 44.7852 18.5352C44.7852 18.7565 44.8275 18.9632 44.9121 19.1553C45 19.3441 45.1237 19.5068 45.2832 19.6436C45.4395 19.7835 45.6299 19.8942 45.8545 19.9756C46.0824 20.057 46.3363 20.0977 46.6162 20.0977C46.7887 20.0977 46.9515 20.0798 47.1045 20.0439C47.2575 20.0081 47.4023 19.9593 47.5391 19.8975C47.6725 19.8356 47.7946 19.764 47.9053 19.6826C48.0192 19.6012 48.1217 19.515 48.2129 19.4238C48.2227 19.5345 48.2373 19.6419 48.2568 19.7461C48.2796 19.847 48.3089 19.9316 48.3447 20ZM46.748 19.3115C46.5723 19.3115 46.4176 19.2887 46.2842 19.2432C46.1507 19.1976 46.04 19.1341 45.9521 19.0527C45.8643 18.9746 45.7975 18.8802 45.752 18.7695C45.7096 18.6589 45.6885 18.5384 45.6885 18.4082C45.6885 18.2715 45.7129 18.1494 45.7617 18.042C45.8138 17.9346 45.8887 17.8418 45.9863 17.7637C46.123 17.653 46.307 17.5716 46.5381 17.5195C46.7725 17.4642 47.0459 17.4365 47.3584 17.4365H48.1982V18.5059C48.1462 18.61 48.0745 18.7109 47.9834 18.8086C47.8923 18.903 47.7848 18.9876 47.6611 19.0625C47.5342 19.1374 47.3942 19.1976 47.2412 19.2432C47.0882 19.2887 46.9238 19.3115 46.748 19.3115ZM55.0176 13.4375H54.1094V14.7168H52.7227V15.415H54.1094V18.2861C54.1094 18.6117 54.1517 18.89 54.2363 19.1211C54.3242 19.349 54.443 19.5345 54.5928 19.6777C54.7425 19.8242 54.9183 19.9316 55.1201 20C55.3252 20.0651 55.5449 20.0977 55.7793 20.0977C55.9193 20.0977 56.0592 20.0911 56.1992 20.0781C56.3424 20.0651 56.4775 20.0456 56.6045 20.0195C56.7314 19.9967 56.8486 19.9691 56.9561 19.9365C57.0635 19.9007 57.1546 19.86 57.2295 19.8145L57.1025 19.1748C57.0472 19.1878 56.9756 19.2041 56.8877 19.2236C56.8031 19.2399 56.7119 19.2562 56.6143 19.2725C56.5133 19.2887 56.4108 19.3034 56.3066 19.3164C56.2025 19.3262 56.1016 19.3311 56.0039 19.3311C55.8704 19.3311 55.7435 19.3148 55.623 19.2822C55.5059 19.2497 55.4017 19.1927 55.3105 19.1113C55.2194 19.0332 55.1478 18.9274 55.0957 18.7939C55.0436 18.6605 55.0176 18.4912 55.0176 18.2861V15.415H57.0293V14.7168H55.0176V13.4375ZM63.2188 20.0977C63.7331 20.0977 64.1644 19.9951 64.5127 19.79C64.8643 19.5817 65.1279 19.3441 65.3037 19.0771L64.752 18.6475C64.5859 18.8623 64.3776 19.0348 64.127 19.165C63.8763 19.2952 63.5898 19.3604 63.2676 19.3604C63.0234 19.3604 62.8005 19.3148 62.5986 19.2236C62.3968 19.1325 62.2243 19.0072 62.0811 18.8477C61.9411 18.6979 61.8304 18.5254 61.749 18.3301C61.6709 18.1348 61.6204 17.9085 61.5977 17.6514V17.6172H65.3721V17.2119C65.3721 16.8441 65.3249 16.5023 65.2305 16.1865C65.1393 15.8708 64.9993 15.5957 64.8105 15.3613C64.6217 15.1302 64.3841 14.9495 64.0977 14.8193C63.8145 14.6859 63.4824 14.6191 63.1016 14.6191C62.7988 14.6191 62.5026 14.681 62.2129 14.8047C61.9264 14.9284 61.6709 15.1058 61.4463 15.3369C61.2184 15.5713 61.0361 15.8577 60.8994 16.1963C60.7627 16.5316 60.6943 16.9124 60.6943 17.3389V17.5439C60.6943 17.9118 60.7562 18.252 60.8799 18.5645C61.0036 18.877 61.1761 19.1471 61.3975 19.375C61.6188 19.6029 61.8841 19.7803 62.1934 19.9072C62.5059 20.0342 62.8477 20.0977 63.2188 20.0977ZM63.1016 15.3613C63.3327 15.3613 63.5312 15.4036 63.6973 15.4883C63.8665 15.5729 64.0065 15.6836 64.1172 15.8203C64.2279 15.957 64.3141 16.1198 64.376 16.3086C64.4378 16.4941 64.4688 16.6683 64.4688 16.8311V16.875H61.627C61.6628 16.6309 61.7246 16.416 61.8125 16.2305C61.9036 16.0417 62.0143 15.8822 62.1445 15.752C62.2747 15.625 62.4212 15.529 62.584 15.4639C62.7467 15.3955 62.9193 15.3613 63.1016 15.3613ZM72.3525 14.6191C71.9684 14.6191 71.625 14.7038 71.3223 14.873C71.0228 15.0391 70.7656 15.2669 70.5508 15.5566L70.5459 15.4248L70.5068 14.7168H69.6475V20H70.5557V16.6113C70.6143 16.4486 70.6875 16.3021 70.7754 16.1719C70.8665 16.0384 70.9723 15.9261 71.0928 15.835C71.2262 15.7308 71.3825 15.6527 71.5615 15.6006C71.7406 15.5452 71.9408 15.5176 72.1621 15.5176C72.3346 15.5176 72.499 15.5273 72.6553 15.5469C72.8148 15.5632 72.9824 15.5908 73.1582 15.6299L73.2803 14.7461C73.1891 14.707 73.0524 14.6761 72.8701 14.6533C72.6911 14.6305 72.5186 14.6191 72.3525 14.6191Z" fill="#707070"/>
<path d="M94.7073 87.4762L85.9268 75.9524L77.1463 55L65.0732 71.7619L53 86.4286V106.333L66.1707 121L83.7317 118.905L98 105.286L94.7073 87.4762Z" fill="#0068C8"/>
<path d="M73.5 103L66 102V106.5L73.5 111.5L85 106.5L83.5 100.5L73.5 103Z" fill="#D9D9D9"/>
<path d="M68 97L69.5 85H71V97H68Z" fill="#D9D9D9"/>
<path d="M80 97L78.5 85H77V97H80Z" fill="#D9D9D9"/>
<path d="M76.0234 109.529L77.7703 115.045L88.822 110.196L87.8515 107.132L84.8806 104.027L78.6655 105.321L76.0234 109.529Z" fill="black"/>
<path d="M88.2569 111.724L79.0938 115.912L90.0684 131.08L93.248 129.43L88.2569 111.724Z" fill="#898989"/>
</svg>
