<svg width="150" height="200" viewBox="0 0 150 200" fill="none" xmlns="http://www.w3.org/2000/svg">
<rect width="150" height="200" fill="white"/>
<path d="M18.21 148.935H17.125V148.505H19.81V148.935H18.725V152H18.21V148.935ZM21.2596 148.305H21.7646V149.93C21.9946 149.66 22.3012 149.525 22.6846 149.525C23.0046 149.525 23.2429 149.61 23.3996 149.78C23.5562 149.95 23.6346 150.178 23.6346 150.465V152H23.1296V150.515C23.1296 150.125 22.9429 149.93 22.5696 149.93C22.4096 149.93 22.2596 149.968 22.1196 150.045C21.9829 150.118 21.8646 150.232 21.7646 150.385V152H21.2596V148.305ZM25.5526 149.13C25.4693 149.13 25.3993 149.102 25.3426 149.045C25.286 148.988 25.2576 148.918 25.2576 148.835C25.2576 148.752 25.286 148.682 25.3426 148.625C25.3993 148.568 25.4693 148.54 25.5526 148.54C25.6393 148.54 25.711 148.568 25.7676 148.625C25.8276 148.682 25.8576 148.752 25.8576 148.835C25.8576 148.918 25.8276 148.988 25.7676 149.045C25.711 149.102 25.6393 149.13 25.5526 149.13ZM25.2976 149.6H25.8126V152H25.2976V149.6ZM28.3926 152.075C28.226 152.075 28.0493 152.053 27.8626 152.01C27.676 151.97 27.5293 151.915 27.4226 151.845V151.415C27.5526 151.492 27.7026 151.555 27.8726 151.605C28.0426 151.652 28.2076 151.675 28.3676 151.675C28.5476 151.675 28.6793 151.653 28.7626 151.61C28.846 151.567 28.8876 151.497 28.8876 151.4C28.8876 151.327 28.8676 151.268 28.8276 151.225C28.791 151.178 28.726 151.137 28.6326 151.1C28.5426 151.063 28.406 151.02 28.2226 150.97C28.026 150.913 27.8693 150.857 27.7526 150.8C27.6393 150.74 27.5526 150.665 27.4926 150.575C27.436 150.485 27.4076 150.368 27.4076 150.225C27.4076 149.995 27.4976 149.822 27.6776 149.705C27.861 149.585 28.106 149.525 28.4126 149.525C28.5726 149.525 28.7293 149.54 28.8826 149.57C29.036 149.6 29.1593 149.642 29.2526 149.695V150.115C29.156 150.058 29.036 150.013 28.8926 149.98C28.7526 149.947 28.6093 149.93 28.4626 149.93C28.286 149.93 28.151 149.952 28.0576 149.995C27.9643 150.038 27.9176 150.115 27.9176 150.225C27.9176 150.295 27.9376 150.352 27.9776 150.395C28.0176 150.438 28.081 150.477 28.1676 150.51C28.2576 150.54 28.3993 150.58 28.5926 150.63C28.896 150.713 29.106 150.812 29.2226 150.925C29.3426 151.038 29.4026 151.195 29.4026 151.395C29.4026 151.602 29.3176 151.767 29.1476 151.89C28.9776 152.013 28.726 152.075 28.3926 152.075ZM33.7045 149.6H34.2195L34.7595 151.38L35.2945 149.6H35.7495L36.2845 151.38L36.8245 149.6H37.3445L36.5645 152H36.0795L35.5245 150.21L34.9695 152H34.4795L33.7045 149.6ZM39.4829 152.075C39.1929 152.075 38.9595 152.002 38.7829 151.855C38.6095 151.705 38.5229 151.503 38.5229 151.25C38.5229 150.983 38.6062 150.778 38.7729 150.635C38.9429 150.488 39.1829 150.415 39.4929 150.415C39.8229 150.415 40.1029 150.482 40.3329 150.615V150.49C40.3329 150.3 40.2745 150.16 40.1579 150.07C40.0445 149.977 39.8645 149.93 39.6179 149.93C39.4712 149.93 39.3279 149.945 39.1879 149.975C39.0512 150.002 38.9279 150.04 38.8179 150.09V149.68C38.9179 149.633 39.0479 149.597 39.2079 149.57C39.3679 149.54 39.5229 149.525 39.6729 149.525C40.0695 149.525 40.3629 149.613 40.5529 149.79C40.7462 149.963 40.8429 150.205 40.8429 150.515V152H40.3679V151.73C40.2645 151.843 40.1412 151.93 39.9979 151.99C39.8579 152.047 39.6862 152.075 39.4829 152.075ZM39.6079 151.69C39.7679 151.69 39.9129 151.658 40.0429 151.595C40.1729 151.532 40.2695 151.443 40.3329 151.33V151.005C40.1162 150.865 39.8745 150.795 39.6079 150.795C39.4145 150.795 39.2695 150.833 39.1729 150.91C39.0795 150.983 39.0329 151.097 39.0329 151.25C39.0329 151.543 39.2245 151.69 39.6079 151.69ZM43.2676 152.075C43.0242 152.075 42.8359 152.005 42.7026 151.865C42.5726 151.725 42.5076 151.527 42.5076 151.27V149.99H42.1426V149.6H42.5076V148.88H43.0176V149.6H43.6076V149.99H43.0176V151.235C43.0176 151.395 43.0476 151.508 43.1076 151.575C43.1709 151.642 43.2842 151.675 43.4476 151.675C43.5442 151.675 43.6409 151.653 43.7376 151.61V152.01C43.6109 152.053 43.4542 152.075 43.2676 152.075ZM46.5327 152.075C46.0894 152.075 45.741 151.965 45.4877 151.745C45.2377 151.522 45.1127 151.208 45.1127 150.805C45.1127 150.412 45.2244 150.1 45.4477 149.87C45.6744 149.64 45.996 149.525 46.4127 149.525C46.6894 149.525 46.9244 149.578 47.1177 149.685C47.311 149.788 47.456 149.933 47.5527 150.12C47.6527 150.303 47.7027 150.513 47.7027 150.75V151H45.5927C45.6094 151.227 45.7044 151.397 45.8777 151.51C46.0544 151.62 46.2927 151.675 46.5927 151.675C46.746 151.675 46.901 151.662 47.0577 151.635C47.2144 151.605 47.3527 151.567 47.4727 151.52V151.925C47.366 151.968 47.2244 152.003 47.0477 152.03C46.8744 152.06 46.7027 152.075 46.5327 152.075ZM47.2277 150.645C47.221 150.418 47.146 150.243 47.0027 150.12C46.8627 149.993 46.6627 149.93 46.4027 149.93C46.1494 149.93 45.9527 149.995 45.8127 150.125C45.6727 150.255 45.5994 150.428 45.5927 150.645H47.2277ZM49.2547 149.6H49.7447V150.03C49.8447 149.883 49.9847 149.775 50.1647 149.705C50.348 149.635 50.5597 149.6 50.7997 149.6V149.995C50.543 149.995 50.323 150.037 50.1397 150.12C49.9564 150.203 49.8297 150.335 49.7597 150.515V152H49.2547V149.6ZM55.3973 149.13C55.314 149.13 55.244 149.102 55.1873 149.045C55.1307 148.988 55.1023 148.918 55.1023 148.835C55.1023 148.752 55.1307 148.682 55.1873 148.625C55.244 148.568 55.314 148.54 55.3973 148.54C55.484 148.54 55.5557 148.568 55.6123 148.625C55.6723 148.682 55.7023 148.752 55.7023 148.835C55.7023 148.918 55.6723 148.988 55.6123 149.045C55.5557 149.102 55.484 149.13 55.3973 149.13ZM55.1423 149.6H55.6573V152H55.1423V149.6ZM58.2373 152.075C58.0707 152.075 57.894 152.053 57.7073 152.01C57.5207 151.97 57.374 151.915 57.2673 151.845V151.415C57.3973 151.492 57.5473 151.555 57.7173 151.605C57.8873 151.652 58.0523 151.675 58.2123 151.675C58.3923 151.675 58.524 151.653 58.6073 151.61C58.6907 151.567 58.7323 151.497 58.7323 151.4C58.7323 151.327 58.7123 151.268 58.6723 151.225C58.6357 151.178 58.5707 151.137 58.4773 151.1C58.3873 151.063 58.2507 151.02 58.0673 150.97C57.8707 150.913 57.714 150.857 57.5973 150.8C57.484 150.74 57.3973 150.665 57.3373 150.575C57.2807 150.485 57.2523 150.368 57.2523 150.225C57.2523 149.995 57.3423 149.822 57.5223 149.705C57.7057 149.585 57.9507 149.525 58.2573 149.525C58.4173 149.525 58.574 149.54 58.7273 149.57C58.8807 149.6 59.004 149.642 59.0973 149.695V150.115C59.0007 150.058 58.8807 150.013 58.7373 149.98C58.5973 149.947 58.454 149.93 58.3073 149.93C58.1307 149.93 57.9957 149.952 57.9023 149.995C57.809 150.038 57.7623 150.115 57.7623 150.225C57.7623 150.295 57.7823 150.352 57.8223 150.395C57.8623 150.438 57.9257 150.477 58.0123 150.51C58.1023 150.54 58.244 150.58 58.4373 150.63C58.7407 150.713 58.9507 150.812 59.0673 150.925C59.1873 151.038 59.2473 151.195 59.2473 151.395C59.2473 151.602 59.1623 151.767 58.9923 151.89C58.8223 152.013 58.5707 152.075 58.2373 152.075ZM64.9692 152.075C64.5259 152.075 64.1776 151.965 63.9242 151.745C63.6742 151.522 63.5492 151.208 63.5492 150.805C63.5492 150.412 63.6609 150.1 63.8842 149.87C64.1109 149.64 64.4326 149.525 64.8492 149.525C65.1259 149.525 65.3609 149.578 65.5542 149.685C65.7476 149.788 65.8926 149.933 65.9892 150.12C66.0892 150.303 66.1392 150.513 66.1392 150.75V151H64.0292C64.0459 151.227 64.1409 151.397 64.3142 151.51C64.4909 151.62 64.7292 151.675 65.0292 151.675C65.1826 151.675 65.3376 151.662 65.4942 151.635C65.6509 151.605 65.7892 151.567 65.9092 151.52V151.925C65.8026 151.968 65.6609 152.003 65.4842 152.03C65.3109 152.06 65.1392 152.075 64.9692 152.075ZM65.6642 150.645C65.6576 150.418 65.5826 150.243 65.4392 150.12C65.2992 149.993 65.0992 149.93 64.8392 149.93C64.5859 149.93 64.3892 149.995 64.2492 150.125C64.1092 150.255 64.0359 150.428 64.0292 150.645H65.6642ZM67.6912 149.6H68.1812V149.945C68.2945 149.802 68.4329 149.697 68.5962 149.63C68.7629 149.56 68.9362 149.525 69.1162 149.525C69.4362 149.525 69.6745 149.61 69.8312 149.78C69.9879 149.95 70.0662 150.178 70.0662 150.465V152H69.5612V150.515C69.5612 150.125 69.3745 149.93 69.0012 149.93C68.8412 149.93 68.6912 149.968 68.5512 150.045C68.4145 150.118 68.2962 150.232 68.1962 150.385V152H67.6912V149.6ZM71.9893 149.13C71.9026 149.13 71.8309 149.102 71.7743 149.045C71.7176 148.988 71.6893 148.918 71.6893 148.835C71.6893 148.752 71.7176 148.682 71.7743 148.625C71.8343 148.568 71.9059 148.54 71.9893 148.54C72.0726 148.54 72.1426 148.568 72.1993 148.625C72.2593 148.682 72.2893 148.752 72.2893 148.835C72.2893 148.918 72.2593 148.988 72.1993 149.045C72.1426 149.102 72.0726 149.13 71.9893 149.13ZM71.3943 153.155C71.2443 153.155 71.1176 153.137 71.0143 153.1V152.685C71.1009 152.725 71.2009 152.745 71.3143 152.745C71.4643 152.745 71.5709 152.708 71.6343 152.635C71.7009 152.565 71.7343 152.45 71.7343 152.29V149.6H72.2443V152.325C72.2443 152.602 72.1676 152.808 72.0143 152.945C71.8609 153.085 71.6543 153.155 71.3943 153.155ZM75.2043 152.075C74.9343 152.075 74.6959 152.025 74.4893 151.925C74.2859 151.822 74.1259 151.675 74.0093 151.485C73.8959 151.292 73.8393 151.065 73.8393 150.805C73.8393 150.548 73.8959 150.323 74.0093 150.13C74.1226 149.937 74.2826 149.788 74.4893 149.685C74.6959 149.578 74.9343 149.525 75.2043 149.525C75.4743 149.525 75.7126 149.578 75.9193 149.685C76.1259 149.788 76.2859 149.937 76.3993 150.13C76.5159 150.323 76.5743 150.548 76.5743 150.805C76.5743 151.065 76.5159 151.292 76.3993 151.485C76.2859 151.675 76.1259 151.822 75.9193 151.925C75.7126 152.025 75.4743 152.075 75.2043 152.075ZM75.2043 151.675C75.4643 151.675 75.6709 151.595 75.8243 151.435C75.9776 151.275 76.0543 151.065 76.0543 150.805C76.0543 150.535 75.9776 150.322 75.8243 150.165C75.6709 150.008 75.4643 149.93 75.2043 149.93C74.9443 149.93 74.7376 150.008 74.5843 150.165C74.4309 150.322 74.3543 150.535 74.3543 150.805C74.3543 151.065 74.4309 151.275 74.5843 151.435C74.7376 151.595 74.9443 151.675 75.2043 151.675ZM78.3057 152.99C78.1257 152.99 77.9757 152.972 77.8557 152.935V152.54C77.9424 152.573 78.049 152.59 78.1757 152.59C78.2924 152.59 78.384 152.56 78.4507 152.5C78.5174 152.443 78.5774 152.35 78.6307 152.22L78.7457 151.94L77.6957 149.6H78.2157L79.0157 151.445L79.7607 149.6H80.2807L79.2007 152.27C79.1007 152.52 78.9807 152.702 78.8407 152.815C78.704 152.932 78.5257 152.99 78.3057 152.99ZM82.0253 149.13C81.9419 149.13 81.8719 149.102 81.8153 149.045C81.7586 148.988 81.7303 148.918 81.7303 148.835C81.7303 148.752 81.7586 148.682 81.8153 148.625C81.8719 148.568 81.9419 148.54 82.0253 148.54C82.1119 148.54 82.1836 148.568 82.2403 148.625C82.3003 148.682 82.3303 148.752 82.3303 148.835C82.3303 148.918 82.3003 148.988 82.2403 149.045C82.1836 149.102 82.1119 149.13 82.0253 149.13ZM81.7703 149.6H82.2853V152H81.7703V149.6ZM83.9803 149.6H84.4703V149.945C84.5836 149.802 84.7219 149.697 84.8853 149.63C85.0519 149.56 85.2253 149.525 85.4053 149.525C85.7253 149.525 85.9636 149.61 86.1203 149.78C86.2769 149.95 86.3553 150.178 86.3553 150.465V152H85.8503V150.515C85.8503 150.125 85.6636 149.93 85.2903 149.93C85.1303 149.93 84.9803 149.968 84.8403 150.045C84.7036 150.118 84.5853 150.232 84.4853 150.385V152H83.9803V149.6ZM89.2333 153.15C89.07 153.15 88.91 153.137 88.7533 153.11C88.6 153.083 88.47 153.045 88.3633 152.995V152.58C88.6133 152.693 88.9033 152.75 89.2333 152.75C89.5433 152.75 89.7683 152.682 89.9083 152.545C90.0517 152.412 90.1233 152.208 90.1233 151.935V151.68C89.9033 151.943 89.58 152.075 89.1533 152.075C88.91 152.075 88.6917 152.022 88.4983 151.915C88.305 151.808 88.1533 151.658 88.0433 151.465C87.9333 151.272 87.8783 151.05 87.8783 150.8C87.8783 150.547 87.9317 150.325 88.0383 150.135C88.1483 149.942 88.2983 149.792 88.4883 149.685C88.6817 149.578 88.8983 149.525 89.1383 149.525C89.3617 149.525 89.55 149.558 89.7033 149.625C89.86 149.688 90.005 149.795 90.1383 149.945V149.6H90.6283V151.88C90.6283 152.29 90.5133 152.603 90.2833 152.82C90.0567 153.04 89.7067 153.15 89.2333 153.15ZM89.2533 151.675C89.46 151.675 89.6417 151.62 89.7983 151.51C89.9583 151.4 90.0667 151.253 90.1233 151.07V150.53C90.06 150.343 89.95 150.197 89.7933 150.09C89.64 149.983 89.46 149.93 89.2533 149.93C89.09 149.93 88.9417 149.967 88.8083 150.04C88.6783 150.11 88.575 150.212 88.4983 150.345C88.425 150.478 88.3883 150.63 88.3883 150.8C88.3883 150.973 88.425 151.127 88.4983 151.26C88.575 151.39 88.6783 151.492 88.8083 151.565C88.9417 151.638 89.09 151.675 89.2533 151.675ZM96.0547 152.075C95.8114 152.075 95.623 152.005 95.4897 151.865C95.3597 151.725 95.2947 151.527 95.2947 151.27V149.99H94.9297V149.6H95.2947V148.88H95.8047V149.6H96.3947V149.99H95.8047V151.235C95.8047 151.395 95.8347 151.508 95.8947 151.575C95.958 151.642 96.0714 151.675 96.2347 151.675C96.3314 151.675 96.428 151.653 96.5247 151.61V152.01C96.398 152.053 96.2414 152.075 96.0547 152.075ZM97.9998 148.305H98.5048V149.93C98.7348 149.66 99.0415 149.525 99.4248 149.525C99.7448 149.525 99.9831 149.61 100.14 149.78C100.296 149.95 100.375 150.178 100.375 150.465V152H99.8698V150.515C99.8698 150.125 99.6831 149.93 99.3098 149.93C99.1498 149.93 98.9998 149.968 98.8598 150.045C98.7231 150.118 98.6048 150.232 98.5048 150.385V152H97.9998V148.305ZM103.318 152.075C102.875 152.075 102.526 151.965 102.273 151.745C102.023 151.522 101.898 151.208 101.898 150.805C101.898 150.412 102.01 150.1 102.233 149.87C102.46 149.64 102.781 149.525 103.198 149.525C103.475 149.525 103.71 149.578 103.903 149.685C104.096 149.788 104.241 149.933 104.338 150.12C104.438 150.303 104.488 150.513 104.488 150.75V151H102.378C102.395 151.227 102.49 151.397 102.663 151.51C102.84 151.62 103.078 151.675 103.378 151.675C103.531 151.675 103.686 151.662 103.843 151.635C104 151.605 104.138 151.567 104.258 151.52V151.925C104.151 151.968 104.01 152.003 103.833 152.03C103.66 152.06 103.488 152.075 103.318 152.075ZM104.013 150.645C104.006 150.418 103.931 150.243 103.788 150.12C103.648 149.993 103.448 149.93 103.188 149.93C102.935 149.93 102.738 149.995 102.598 150.125C102.458 150.255 102.385 150.428 102.378 150.645H104.013ZM18.59 160.075C18.32 160.075 18.0817 160.025 17.875 159.925C17.6717 159.822 17.5117 159.675 17.395 159.485C17.2817 159.292 17.225 159.065 17.225 158.805C17.225 158.548 17.2817 158.323 17.395 158.13C17.5083 157.937 17.6683 157.788 17.875 157.685C18.0817 157.578 18.32 157.525 18.59 157.525C18.86 157.525 19.0983 157.578 19.305 157.685C19.5117 157.788 19.6717 157.937 19.785 158.13C19.9017 158.323 19.96 158.548 19.96 158.805C19.96 159.065 19.9017 159.292 19.785 159.485C19.6717 159.675 19.5117 159.822 19.305 159.925C19.0983 160.025 18.86 160.075 18.59 160.075ZM18.59 159.675C18.85 159.675 19.0567 159.595 19.21 159.435C19.3633 159.275 19.44 159.065 19.44 158.805C19.44 158.535 19.3633 158.322 19.21 158.165C19.0567 158.008 18.85 157.93 18.59 157.93C18.33 157.93 18.1233 158.008 17.97 158.165C17.8167 158.322 17.74 158.535 17.74 158.805C17.74 159.065 17.8167 159.275 17.97 159.435C18.1233 159.595 18.33 159.675 18.59 159.675ZM22.4636 160.075C22.1403 160.075 21.8953 159.988 21.7286 159.815C21.5653 159.642 21.4836 159.41 21.4836 159.12V157.6H21.9886V159.1C21.9886 159.483 22.1803 159.675 22.5636 159.675C22.9003 159.675 23.1636 159.523 23.3536 159.22V157.6H23.8586V160H23.3686V159.66C23.2553 159.803 23.1203 159.908 22.9636 159.975C22.8103 160.042 22.6436 160.075 22.4636 160.075ZM26.4316 160.075C26.1883 160.075 26 160.005 25.8666 159.865C25.7366 159.725 25.6716 159.527 25.6716 159.27V157.99H25.3066V157.6H25.6716V156.88H26.1816V157.6H26.7716V157.99H26.1816V159.235C26.1816 159.395 26.2116 159.508 26.2716 159.575C26.335 159.642 26.4483 159.675 26.6116 159.675C26.7083 159.675 26.805 159.653 26.9016 159.61V160.01C26.775 160.053 26.6183 160.075 26.4316 160.075ZM29.4098 160.075C29.1698 160.075 28.9531 160.023 28.7598 159.92C28.5698 159.813 28.4198 159.665 28.3098 159.475C28.2031 159.282 28.1498 159.058 28.1498 158.805C28.1498 158.555 28.2031 158.333 28.3098 158.14C28.4198 157.947 28.5698 157.797 28.7598 157.69C28.9531 157.58 29.1698 157.525 29.4098 157.525C29.8431 157.525 30.1715 157.657 30.3948 157.92V156.305H30.8998V160H30.4098V159.65C30.2765 159.797 30.1298 159.905 29.9698 159.975C29.8131 160.042 29.6265 160.075 29.4098 160.075ZM29.5248 159.675C29.7315 159.675 29.9115 159.622 30.0648 159.515C30.2215 159.405 30.3315 159.258 30.3948 159.075V158.535C30.3381 158.352 30.2298 158.205 30.0698 158.095C29.9131 157.985 29.7315 157.93 29.5248 157.93C29.3615 157.93 29.2131 157.967 29.0798 158.04C28.9498 158.113 28.8465 158.217 28.7698 158.35C28.6965 158.483 28.6598 158.635 28.6598 158.805C28.6598 158.975 28.6965 159.127 28.7698 159.26C28.8465 159.393 28.9498 159.497 29.0798 159.57C29.2131 159.64 29.3615 159.675 29.5248 159.675ZM33.7423 160.075C33.4723 160.075 33.234 160.025 33.0273 159.925C32.824 159.822 32.664 159.675 32.5473 159.485C32.434 159.292 32.3773 159.065 32.3773 158.805C32.3773 158.548 32.434 158.323 32.5473 158.13C32.6607 157.937 32.8207 157.788 33.0273 157.685C33.234 157.578 33.4723 157.525 33.7423 157.525C34.0123 157.525 34.2507 157.578 34.4573 157.685C34.664 157.788 34.824 157.937 34.9373 158.13C35.054 158.323 35.1123 158.548 35.1123 158.805C35.1123 159.065 35.054 159.292 34.9373 159.485C34.824 159.675 34.664 159.822 34.4573 159.925C34.2507 160.025 34.0123 160.075 33.7423 160.075ZM33.7423 159.675C34.0023 159.675 34.209 159.595 34.3623 159.435C34.5157 159.275 34.5923 159.065 34.5923 158.805C34.5923 158.535 34.5157 158.322 34.3623 158.165C34.209 158.008 34.0023 157.93 33.7423 157.93C33.4823 157.93 33.2757 158.008 33.1223 158.165C32.969 158.322 32.8923 158.535 32.8923 158.805C32.8923 159.065 32.969 159.275 33.1223 159.435C33.2757 159.595 33.4823 159.675 33.7423 159.675ZM37.799 160.075C37.529 160.075 37.2907 160.025 37.084 159.925C36.8807 159.822 36.7207 159.675 36.604 159.485C36.4907 159.292 36.434 159.065 36.434 158.805C36.434 158.548 36.4907 158.323 36.604 158.13C36.7173 157.937 36.8773 157.788 37.084 157.685C37.2907 157.578 37.529 157.525 37.799 157.525C38.069 157.525 38.3073 157.578 38.514 157.685C38.7207 157.788 38.8807 157.937 38.994 158.13C39.1107 158.323 39.169 158.548 39.169 158.805C39.169 159.065 39.1107 159.292 38.994 159.485C38.8807 159.675 38.7207 159.822 38.514 159.925C38.3073 160.025 38.069 160.075 37.799 160.075ZM37.799 159.675C38.059 159.675 38.2657 159.595 38.419 159.435C38.5723 159.275 38.649 159.065 38.649 158.805C38.649 158.535 38.5723 158.322 38.419 158.165C38.2657 158.008 38.059 157.93 37.799 157.93C37.539 157.93 37.3323 158.008 37.179 158.165C37.0257 158.322 36.949 158.535 36.949 158.805C36.949 159.065 37.0257 159.275 37.179 159.435C37.3323 159.595 37.539 159.675 37.799 159.675ZM40.7176 157.6H41.2076V158.03C41.3076 157.883 41.4476 157.775 41.6276 157.705C41.8109 157.635 42.0226 157.6 42.2626 157.6V157.995C42.0059 157.995 41.7859 158.037 41.6026 158.12C41.4192 158.203 41.2926 158.335 41.2226 158.515V160H40.7176V157.6ZM44.5264 160.075C44.3597 160.075 44.1831 160.053 43.9964 160.01C43.8097 159.97 43.6631 159.915 43.5564 159.845V159.415C43.6864 159.492 43.8364 159.555 44.0064 159.605C44.1764 159.652 44.3414 159.675 44.5014 159.675C44.6814 159.675 44.8131 159.653 44.8964 159.61C44.9797 159.567 45.0214 159.497 45.0214 159.4C45.0214 159.327 45.0014 159.268 44.9614 159.225C44.9247 159.178 44.8597 159.137 44.7664 159.1C44.6764 159.063 44.5397 159.02 44.3564 158.97C44.1597 158.913 44.0031 158.857 43.8864 158.8C43.7731 158.74 43.6864 158.665 43.6264 158.575C43.5697 158.485 43.5414 158.368 43.5414 158.225C43.5414 157.995 43.6314 157.822 43.8114 157.705C43.9947 157.585 44.2397 157.525 44.5464 157.525C44.7064 157.525 44.8631 157.54 45.0164 157.57C45.1697 157.6 45.2931 157.642 45.3864 157.695V158.115C45.2897 158.058 45.1697 158.013 45.0264 157.98C44.8864 157.947 44.7431 157.93 44.5964 157.93C44.4197 157.93 44.2847 157.952 44.1914 157.995C44.0981 158.038 44.0514 158.115 44.0514 158.225C44.0514 158.295 44.0714 158.352 44.1114 158.395C44.1514 158.438 44.2147 158.477 44.3014 158.51C44.3914 158.54 44.5331 158.58 44.7264 158.63C45.0297 158.713 45.2397 158.812 45.3564 158.925C45.4764 159.038 45.5364 159.195 45.5364 159.395C45.5364 159.602 45.4514 159.767 45.2814 159.89C45.1114 160.013 44.8597 160.075 44.5264 160.075ZM47.2227 160C47.156 160 47.0994 159.978 47.0527 159.935C47.0094 159.888 46.9877 159.832 46.9877 159.765C46.9877 159.698 47.0094 159.642 47.0527 159.595C47.0994 159.548 47.156 159.525 47.2227 159.525C47.2894 159.525 47.346 159.548 47.3927 159.595C47.4394 159.642 47.4627 159.698 47.4627 159.765C47.4627 159.832 47.4394 159.888 47.3927 159.935C47.346 159.978 47.2894 160 47.2227 160ZM51.8611 156.505H53.4661C53.7761 156.505 54.0161 156.585 54.1861 156.745C54.3561 156.905 54.4411 157.138 54.4411 157.445C54.4411 157.618 54.3995 157.772 54.3161 157.905C54.2361 158.035 54.1295 158.132 53.9961 158.195C54.3695 158.305 54.5561 158.577 54.5561 159.01C54.5561 159.213 54.5111 159.39 54.4211 159.54C54.3345 159.687 54.2145 159.8 54.0611 159.88C53.9078 159.96 53.7378 160 53.5511 160H51.8611V156.505ZM53.4011 158.005C53.5645 158.005 53.6928 157.96 53.7861 157.87C53.8795 157.78 53.9261 157.647 53.9261 157.47C53.9261 157.267 53.8795 157.125 53.7861 157.045C53.6961 156.962 53.5561 156.92 53.3661 156.92H52.3711V158.005H53.4011ZM53.4361 159.585C53.6328 159.585 53.7828 159.542 53.8861 159.455C53.9895 159.368 54.0411 159.22 54.0411 159.01C54.0411 158.8 53.9861 158.65 53.8761 158.56C53.7695 158.47 53.6078 158.425 53.3911 158.425H52.3711V159.585H53.4361ZM57.0632 160.075C56.7399 160.075 56.4949 159.988 56.3282 159.815C56.1649 159.642 56.0832 159.41 56.0832 159.12V157.6H56.5882V159.1C56.5882 159.483 56.7799 159.675 57.1632 159.675C57.4999 159.675 57.7632 159.523 57.9532 159.22V157.6H58.4582V160H57.9682V159.66C57.8549 159.803 57.7199 159.908 57.5632 159.975C57.4099 160.042 57.2432 160.075 57.0632 160.075ZM61.0312 160.075C60.7879 160.075 60.5996 160.005 60.4663 159.865C60.3363 159.725 60.2713 159.527 60.2713 159.27V157.99H59.9063V157.6H60.2713V156.88H60.7813V157.6H61.3713V157.99H60.7813V159.235C60.7813 159.395 60.8113 159.508 60.8713 159.575C60.9346 159.642 61.0479 159.675 61.2113 159.675C61.3079 159.675 61.4046 159.653 61.5013 159.61V160.01C61.3746 160.053 61.2179 160.075 61.0312 160.075ZM65.727 157.6H66.242L66.782 159.38L67.317 157.6H67.772L68.307 159.38L68.847 157.6H69.367L68.587 160H68.102L67.547 158.21L66.992 160H66.502L65.727 157.6ZM71.5053 160.075C71.2153 160.075 70.982 160.002 70.8053 159.855C70.632 159.705 70.5453 159.503 70.5453 159.25C70.5453 158.983 70.6286 158.778 70.7953 158.635C70.9653 158.488 71.2053 158.415 71.5153 158.415C71.8453 158.415 72.1253 158.482 72.3553 158.615V158.49C72.3553 158.3 72.297 158.16 72.1803 158.07C72.067 157.977 71.887 157.93 71.6403 157.93C71.4936 157.93 71.3503 157.945 71.2103 157.975C71.0736 158.002 70.9503 158.04 70.8403 158.09V157.68C70.9403 157.633 71.0703 157.597 71.2303 157.57C71.3903 157.54 71.5453 157.525 71.6953 157.525C72.092 157.525 72.3853 157.613 72.5753 157.79C72.7686 157.963 72.8653 158.205 72.8653 158.515V160H72.3903V159.73C72.287 159.843 72.1636 159.93 72.0203 159.99C71.8803 160.047 71.7086 160.075 71.5053 160.075ZM71.6303 159.69C71.7903 159.69 71.9353 159.658 72.0653 159.595C72.1953 159.532 72.292 159.443 72.3553 159.33V159.005C72.1386 158.865 71.897 158.795 71.6303 158.795C71.437 158.795 71.292 158.833 71.1953 158.91C71.102 158.983 71.0553 159.097 71.0553 159.25C71.0553 159.543 71.247 159.69 71.6303 159.69ZM74.787 157.13C74.7037 157.13 74.6337 157.102 74.577 157.045C74.5203 156.988 74.492 156.918 74.492 156.835C74.492 156.752 74.5203 156.682 74.577 156.625C74.6337 156.568 74.7037 156.54 74.787 156.54C74.8737 156.54 74.9453 156.568 75.002 156.625C75.062 156.682 75.092 156.752 75.092 156.835C75.092 156.918 75.062 156.988 75.002 157.045C74.9453 157.102 74.8737 157.13 74.787 157.13ZM74.532 157.6H75.047V160H74.532V157.6ZM77.667 160.075C77.4237 160.075 77.2353 160.005 77.102 159.865C76.972 159.725 76.907 159.527 76.907 159.27V157.99H76.542V157.6H76.907V156.88H77.417V157.6H78.007V157.99H77.417V159.235C77.417 159.395 77.447 159.508 77.507 159.575C77.5703 159.642 77.6837 159.675 77.847 159.675C77.9437 159.675 78.0403 159.653 78.137 159.61V160.01C78.0103 160.053 77.8537 160.075 77.667 160.075ZM79.7471 160C79.6804 160 79.6238 159.978 79.5771 159.935C79.5338 159.888 79.5121 159.832 79.5121 159.765C79.5121 159.698 79.5338 159.642 79.5771 159.595C79.6238 159.548 79.6804 159.525 79.7471 159.525C79.8138 159.525 79.8704 159.548 79.9171 159.595C79.9638 159.642 79.9871 159.698 79.9871 159.765C79.9871 159.832 79.9638 159.888 79.9171 159.935C79.8704 159.978 79.8138 160 79.7471 160ZM81.67 160C81.6033 160 81.5466 159.978 81.5 159.935C81.4566 159.888 81.435 159.832 81.435 159.765C81.435 159.698 81.4566 159.642 81.5 159.595C81.5466 159.548 81.6033 159.525 81.67 159.525C81.7366 159.525 81.7933 159.548 81.84 159.595C81.8866 159.642 81.91 159.698 81.91 159.765C81.91 159.832 81.8866 159.888 81.84 159.935C81.7933 159.978 81.7366 160 81.67 160ZM83.5928 160C83.5261 160 83.4695 159.978 83.4228 159.935C83.3795 159.888 83.3578 159.832 83.3578 159.765C83.3578 159.698 83.3795 159.642 83.4228 159.595C83.4695 159.548 83.5261 159.525 83.5928 159.525C83.6595 159.525 83.7161 159.548 83.7628 159.595C83.8095 159.642 83.8328 159.698 83.8328 159.765C83.8328 159.832 83.8095 159.888 83.7628 159.935C83.7161 159.978 83.6595 160 83.5928 160ZM88.5263 157.13C88.4429 157.13 88.3729 157.102 88.3163 157.045C88.2596 156.988 88.2313 156.918 88.2313 156.835C88.2313 156.752 88.2596 156.682 88.3163 156.625C88.3729 156.568 88.4429 156.54 88.5263 156.54C88.6129 156.54 88.6846 156.568 88.7413 156.625C88.8013 156.682 88.8313 156.752 88.8313 156.835C88.8313 156.918 88.8013 156.988 88.7413 157.045C88.6846 157.102 88.6129 157.13 88.5263 157.13ZM88.2713 157.6H88.7863V160H88.2713V157.6ZM91.3663 160.075C91.1996 160.075 91.0229 160.053 90.8363 160.01C90.6496 159.97 90.5029 159.915 90.3963 159.845V159.415C90.5263 159.492 90.6763 159.555 90.8463 159.605C91.0163 159.652 91.1813 159.675 91.3413 159.675C91.5213 159.675 91.6529 159.653 91.7363 159.61C91.8196 159.567 91.8613 159.497 91.8613 159.4C91.8613 159.327 91.8413 159.268 91.8013 159.225C91.7646 159.178 91.6996 159.137 91.6063 159.1C91.5163 159.063 91.3796 159.02 91.1963 158.97C90.9996 158.913 90.8429 158.857 90.7263 158.8C90.6129 158.74 90.5263 158.665 90.4663 158.575C90.4096 158.485 90.3813 158.368 90.3813 158.225C90.3813 157.995 90.4713 157.822 90.6513 157.705C90.8346 157.585 91.0796 157.525 91.3863 157.525C91.5463 157.525 91.7029 157.54 91.8563 157.57C92.0096 157.6 92.1329 157.642 92.2263 157.695V158.115C92.1296 158.058 92.0096 158.013 91.8663 157.98C91.7263 157.947 91.5829 157.93 91.4363 157.93C91.2596 157.93 91.1246 157.952 91.0313 157.995C90.9379 158.038 90.8912 158.115 90.8912 158.225C90.8912 158.295 90.9113 158.352 90.9513 158.395C90.9913 158.438 91.0546 158.477 91.1413 158.51C91.2313 158.54 91.3729 158.58 91.5663 158.63C91.8696 158.713 92.0796 158.812 92.1963 158.925C92.3163 159.038 92.3763 159.195 92.3763 159.395C92.3763 159.602 92.2913 159.767 92.1213 159.89C91.9513 160.013 91.6996 160.075 91.3663 160.075ZM97.0731 157.13C96.9898 157.13 96.9198 157.102 96.8631 157.045C96.8065 156.988 96.7781 156.918 96.7781 156.835C96.7781 156.752 96.8065 156.682 96.8631 156.625C96.9198 156.568 96.9898 156.54 97.0731 156.54C97.1598 156.54 97.2315 156.568 97.2881 156.625C97.3481 156.682 97.3781 156.752 97.3781 156.835C97.3781 156.918 97.3481 156.988 97.2881 157.045C97.2315 157.102 97.1598 157.13 97.0731 157.13ZM96.8181 157.6H97.3331V160H96.8181V157.6ZM99.9531 160.075C99.7098 160.075 99.5215 160.005 99.3881 159.865C99.2581 159.725 99.1931 159.527 99.1931 159.27V157.99H98.8281V157.6H99.1931V156.88H99.7031V157.6H100.293V157.99H99.7031V159.235C99.7031 159.395 99.7331 159.508 99.7931 159.575C99.8565 159.642 99.9698 159.675 100.133 159.675C100.23 159.675 100.326 159.653 100.423 159.61V160.01C100.296 160.053 100.14 160.075 99.9531 160.075ZM18.21 168.075C18.0433 168.075 17.8667 168.053 17.68 168.01C17.4933 167.97 17.3467 167.915 17.24 167.845V167.415C17.37 167.492 17.52 167.555 17.69 167.605C17.86 167.652 18.025 167.675 18.185 167.675C18.365 167.675 18.4967 167.653 18.58 167.61C18.6633 167.567 18.705 167.497 18.705 167.4C18.705 167.327 18.685 167.268 18.645 167.225C18.6083 167.178 18.5433 167.137 18.45 167.1C18.36 167.063 18.2233 167.02 18.04 166.97C17.8433 166.913 17.6867 166.857 17.57 166.8C17.4567 166.74 17.37 166.665 17.31 166.575C17.2533 166.485 17.225 166.368 17.225 166.225C17.225 165.995 17.315 165.822 17.495 165.705C17.6783 165.585 17.9233 165.525 18.23 165.525C18.39 165.525 18.5467 165.54 18.7 165.57C18.8533 165.6 18.9767 165.642 19.07 165.695V166.115C18.9733 166.058 18.8533 166.013 18.71 165.98C18.57 165.947 18.4267 165.93 18.28 165.93C18.1033 165.93 17.9683 165.952 17.875 165.995C17.7817 166.038 17.735 166.115 17.735 166.225C17.735 166.295 17.755 166.352 17.795 166.395C17.835 166.438 17.8983 166.477 17.985 166.51C18.075 166.54 18.2167 166.58 18.41 166.63C18.7133 166.713 18.9233 166.812 19.04 166.925C19.16 167.038 19.22 167.195 19.22 167.395C19.22 167.602 19.135 167.767 18.965 167.89C18.795 168.013 18.5433 168.075 18.21 168.075ZM20.4467 165.6H20.9617L21.5017 167.38L22.0367 165.6H22.4917L23.0267 167.38L23.5667 165.6H24.0867L23.3067 168H22.8217L22.2667 166.21L21.7117 168H21.2217L20.4467 165.6ZM26.8071 168.075C26.3638 168.075 26.0154 167.965 25.7621 167.745C25.5121 167.522 25.3871 167.208 25.3871 166.805C25.3871 166.412 25.4988 166.1 25.7221 165.87C25.9488 165.64 26.2704 165.525 26.6871 165.525C26.9638 165.525 27.1988 165.578 27.3921 165.685C27.5854 165.788 27.7304 165.933 27.8271 166.12C27.9271 166.303 27.9771 166.513 27.9771 166.75V167H25.8671C25.8838 167.227 25.9788 167.397 26.1521 167.51C26.3288 167.62 26.5671 167.675 26.8671 167.675C27.0204 167.675 27.1754 167.662 27.3321 167.635C27.4888 167.605 27.6271 167.567 27.7471 167.52V167.925C27.6404 167.968 27.4988 168.003 27.3221 168.03C27.1488 168.06 26.9771 168.075 26.8071 168.075ZM27.5021 166.645C27.4954 166.418 27.4204 166.243 27.2771 166.12C27.1371 165.993 26.9371 165.93 26.6771 165.93C26.4238 165.93 26.2271 165.995 26.0871 166.125C25.9471 166.255 25.8738 166.428 25.8671 166.645H27.5021ZM30.3891 168.075C30.0991 168.075 29.8658 168.002 29.6891 167.855C29.5158 167.705 29.4291 167.503 29.4291 167.25C29.4291 166.983 29.5124 166.778 29.6791 166.635C29.8491 166.488 30.0891 166.415 30.3991 166.415C30.7291 166.415 31.0091 166.482 31.2391 166.615V166.49C31.2391 166.3 31.1808 166.16 31.0641 166.07C30.9508 165.977 30.7708 165.93 30.5241 165.93C30.3774 165.93 30.2341 165.945 30.0941 165.975C29.9574 166.002 29.8341 166.04 29.7241 166.09V165.68C29.8241 165.633 29.9541 165.597 30.1141 165.57C30.2741 165.54 30.4291 165.525 30.5791 165.525C30.9758 165.525 31.2691 165.613 31.4591 165.79C31.6524 165.963 31.7491 166.205 31.7491 166.515V168H31.2741V167.73C31.1708 167.843 31.0474 167.93 30.9041 167.99C30.7641 168.047 30.5924 168.075 30.3891 168.075ZM30.5141 167.69C30.6741 167.69 30.8191 167.658 30.9491 167.595C31.0791 167.532 31.1758 167.443 31.2391 167.33V167.005C31.0224 166.865 30.7808 166.795 30.5141 166.795C30.3208 166.795 30.1758 166.833 30.0791 166.91C29.9858 166.983 29.9391 167.097 29.9391 167.25C29.9391 167.543 30.1308 167.69 30.5141 167.69ZM34.1738 168.075C33.9305 168.075 33.7422 168.005 33.6088 167.865C33.4788 167.725 33.4138 167.527 33.4138 167.27V165.99H33.0488V165.6H33.4138V164.88H33.9238V165.6H34.5138V165.99H33.9238V167.235C33.9238 167.395 33.9538 167.508 34.0138 167.575C34.0772 167.642 34.1905 167.675 34.3538 167.675C34.4505 167.675 34.5472 167.653 34.6438 167.61V168.01C34.5172 168.053 34.3605 168.075 34.1738 168.075ZM36.4139 165.13C36.3306 165.13 36.2606 165.102 36.2039 165.045C36.1473 164.988 36.1189 164.918 36.1189 164.835C36.1189 164.752 36.1473 164.682 36.2039 164.625C36.2606 164.568 36.3306 164.54 36.4139 164.54C36.5006 164.54 36.5723 164.568 36.6289 164.625C36.6889 164.682 36.7189 164.752 36.7189 164.835C36.7189 164.918 36.6889 164.988 36.6289 165.045C36.5723 165.102 36.5006 165.13 36.4139 165.13ZM36.1589 165.6H36.6739V168H36.1589V165.6ZM38.3689 165.6H38.8589V165.945C38.9723 165.802 39.1106 165.697 39.2739 165.63C39.4406 165.56 39.6139 165.525 39.7939 165.525C40.1139 165.525 40.3523 165.61 40.5089 165.78C40.6656 165.95 40.7439 166.178 40.7439 166.465V168H40.2389V166.515C40.2389 166.125 40.0523 165.93 39.6789 165.93C39.5189 165.93 39.3689 165.968 39.2289 166.045C39.0923 166.118 38.9739 166.232 38.8739 166.385V168H38.3689V165.6ZM43.622 169.15C43.4587 169.15 43.2987 169.137 43.142 169.11C42.9887 169.083 42.8587 169.045 42.752 168.995V168.58C43.002 168.693 43.292 168.75 43.622 168.75C43.932 168.75 44.157 168.682 44.297 168.545C44.4403 168.412 44.512 168.208 44.512 167.935V167.68C44.292 167.943 43.9687 168.075 43.542 168.075C43.2987 168.075 43.0803 168.022 42.887 167.915C42.6937 167.808 42.542 167.658 42.432 167.465C42.322 167.272 42.267 167.05 42.267 166.8C42.267 166.547 42.3203 166.325 42.427 166.135C42.537 165.942 42.687 165.792 42.877 165.685C43.0703 165.578 43.287 165.525 43.527 165.525C43.7503 165.525 43.9387 165.558 44.092 165.625C44.2487 165.688 44.3937 165.795 44.527 165.945V165.6H45.017V167.88C45.017 168.29 44.902 168.603 44.672 168.82C44.4453 169.04 44.0953 169.15 43.622 169.15ZM43.642 167.675C43.8487 167.675 44.0303 167.62 44.187 167.51C44.347 167.4 44.4553 167.253 44.512 167.07V166.53C44.4487 166.343 44.3387 166.197 44.182 166.09C44.0287 165.983 43.8487 165.93 43.642 165.93C43.4787 165.93 43.3303 165.967 43.197 166.04C43.067 166.11 42.9637 166.212 42.887 166.345C42.8137 166.478 42.777 166.63 42.777 166.8C42.777 166.973 42.8137 167.127 42.887 167.26C42.9637 167.39 43.067 167.492 43.197 167.565C43.3303 167.638 43.4787 167.675 43.642 167.675ZM47.1728 166.9C47.1728 166.697 47.2111 166.527 47.2878 166.39C47.3644 166.253 47.4944 166.122 47.6778 165.995C47.8111 165.902 47.9111 165.828 47.9778 165.775C48.0444 165.718 48.0961 165.657 48.1328 165.59C48.1728 165.52 48.1928 165.438 48.1928 165.345C48.1928 165.195 48.1328 165.077 48.0128 164.99C47.8928 164.903 47.7194 164.86 47.4928 164.86C47.1594 164.86 46.8511 164.927 46.5678 165.06V164.62C46.7011 164.563 46.8461 164.518 47.0028 164.485C47.1628 164.448 47.3261 164.43 47.4928 164.43C47.8594 164.43 48.1511 164.512 48.3678 164.675C48.5844 164.838 48.6928 165.062 48.6928 165.345C48.6928 165.518 48.6478 165.667 48.5578 165.79C48.4678 165.913 48.3261 166.045 48.1328 166.185C47.9928 166.285 47.8928 166.365 47.8328 166.425C47.7728 166.482 47.7294 166.547 47.7028 166.62C47.6761 166.69 47.6628 166.785 47.6628 166.905V167.005H47.1728V166.9ZM47.4128 168.075C47.3294 168.075 47.2594 168.047 47.2028 167.99C47.1461 167.933 47.1178 167.863 47.1178 167.78C47.1178 167.697 47.1461 167.627 47.2028 167.57C47.2594 167.513 47.3294 167.485 47.4128 167.485C47.4961 167.485 47.5661 167.513 47.6228 167.57C47.6828 167.627 47.7128 167.697 47.7128 167.78C47.7128 167.863 47.6828 167.933 47.6228 167.99C47.5661 168.047 47.4961 168.075 47.4128 168.075ZM53.0916 164.505H53.6016V167.575H55.3716V168H53.0916V164.505ZM57.9409 168.075C57.4976 168.075 57.1492 167.965 56.8959 167.745C56.6459 167.522 56.5209 167.208 56.5209 166.805C56.5209 166.412 56.6326 166.1 56.8559 165.87C57.0826 165.64 57.4042 165.525 57.8209 165.525C58.0976 165.525 58.3326 165.578 58.5259 165.685C58.7192 165.788 58.8642 165.933 58.9609 166.12C59.0609 166.303 59.1109 166.513 59.1109 166.75V167H57.0009C57.0176 167.227 57.1126 167.397 57.2859 167.51C57.4626 167.62 57.7009 167.675 58.0009 167.675C58.1542 167.675 58.3092 167.662 58.4659 167.635C58.6226 167.605 58.7609 167.567 58.8809 167.52V167.925C58.7742 167.968 58.6326 168.003 58.4559 168.03C58.2826 168.06 58.1109 168.075 57.9409 168.075ZM58.6359 166.645C58.6292 166.418 58.5542 166.243 58.4109 166.12C58.2709 165.993 58.0709 165.93 57.8109 165.93C57.5576 165.93 57.3609 165.995 57.2209 166.125C57.0809 166.255 57.0076 166.428 57.0009 166.645H58.6359ZM61.5879 168.075C61.3446 168.075 61.1562 168.005 61.0229 167.865C60.8929 167.725 60.8279 167.527 60.8279 167.27V165.99H60.4629V165.6H60.8279V164.88H61.3379V165.6H61.9279V165.99H61.3379V167.235C61.3379 167.395 61.3679 167.508 61.4279 167.575C61.4912 167.642 61.6046 167.675 61.7679 167.675C61.8646 167.675 61.9612 167.653 62.0579 167.61V168.01C61.9312 168.053 61.7746 168.075 61.5879 168.075ZM63.6361 164.43H64.1361L63.7411 165.405H63.3061L63.6361 164.43ZM66.3946 168.075C66.2279 168.075 66.0512 168.053 65.8646 168.01C65.6779 167.97 65.5312 167.915 65.4246 167.845V167.415C65.5546 167.492 65.7046 167.555 65.8746 167.605C66.0446 167.652 66.2096 167.675 66.3696 167.675C66.5496 167.675 66.6812 167.653 66.7646 167.61C66.8479 167.567 66.8896 167.497 66.8896 167.4C66.8896 167.327 66.8696 167.268 66.8296 167.225C66.7929 167.178 66.7279 167.137 66.6346 167.1C66.5446 167.063 66.4079 167.02 66.2246 166.97C66.0279 166.913 65.8712 166.857 65.7546 166.8C65.6412 166.74 65.5546 166.665 65.4946 166.575C65.4379 166.485 65.4096 166.368 65.4096 166.225C65.4096 165.995 65.4996 165.822 65.6796 165.705C65.8629 165.585 66.1079 165.525 66.4146 165.525C66.5746 165.525 66.7312 165.54 66.8846 165.57C67.0379 165.6 67.1612 165.642 67.2546 165.695V166.115C67.1579 166.058 67.0379 166.013 66.8946 165.98C66.7546 165.947 66.6112 165.93 66.4646 165.93C66.2879 165.93 66.1529 165.952 66.0596 165.995C65.9662 166.038 65.9196 166.115 65.9196 166.225C65.9196 166.295 65.9396 166.352 65.9796 166.395C66.0196 166.438 66.0829 166.477 66.1696 166.51C66.2596 166.54 66.4012 166.58 66.5946 166.63C66.8979 166.713 67.1079 166.812 67.2246 166.925C67.3446 167.038 67.4046 167.195 67.4046 167.395C67.4046 167.602 67.3196 167.767 67.1496 167.89C66.9796 168.013 66.7279 168.075 66.3946 168.075ZM71.8064 165.6H72.2964V165.945C72.4098 165.802 72.5481 165.697 72.7114 165.63C72.8781 165.56 73.0514 165.525 73.2314 165.525C73.5514 165.525 73.7898 165.61 73.9464 165.78C74.1031 165.95 74.1814 166.178 74.1814 166.465V168H73.6764V166.515C73.6764 166.125 73.4898 165.93 73.1164 165.93C72.9564 165.93 72.8064 165.968 72.6664 166.045C72.5298 166.118 72.4114 166.232 72.3114 166.385V168H71.8064V165.6ZM76.9963 168.075C76.7263 168.075 76.4879 168.025 76.2813 167.925C76.0779 167.822 75.9179 167.675 75.8013 167.485C75.6879 167.292 75.6313 167.065 75.6313 166.805C75.6313 166.548 75.6879 166.323 75.8013 166.13C75.9146 165.937 76.0746 165.788 76.2813 165.685C76.4879 165.578 76.7263 165.525 76.9963 165.525C77.2663 165.525 77.5046 165.578 77.7113 165.685C77.9179 165.788 78.0779 165.937 78.1913 166.13C78.3079 166.323 78.3663 166.548 78.3663 166.805C78.3663 167.065 78.3079 167.292 78.1913 167.485C78.0779 167.675 77.9179 167.822 77.7113 167.925C77.5046 168.025 77.2663 168.075 76.9963 168.075ZM76.9963 167.675C77.2563 167.675 77.4629 167.595 77.6163 167.435C77.7696 167.275 77.8463 167.065 77.8463 166.805C77.8463 166.535 77.7696 166.322 77.6163 166.165C77.4629 166.008 77.2563 165.93 76.9963 165.93C76.7363 165.93 76.5296 166.008 76.3763 166.165C76.2229 166.322 76.1463 166.535 76.1463 166.805C76.1463 167.065 76.2229 167.275 76.3763 167.435C76.5296 167.595 76.7363 167.675 76.9963 167.675ZM80.7666 168.075C80.5233 168.075 80.3349 168.005 80.2016 167.865C80.0716 167.725 80.0066 167.527 80.0066 167.27V165.99H79.6416V165.6H80.0066V164.88H80.5166V165.6H81.1066V165.99H80.5166V167.235C80.5166 167.395 80.5466 167.508 80.6066 167.575C80.6699 167.642 80.7833 167.675 80.9466 167.675C81.0433 167.675 81.1399 167.653 81.2366 167.61V168.01C81.1099 168.053 80.9533 168.075 80.7666 168.075ZM87.7073 167.68C87.5973 167.81 87.4556 167.908 87.2823 167.975C87.109 168.042 86.9223 168.075 86.7223 168.075C86.479 168.075 86.2623 168.022 86.0723 167.915C85.8823 167.808 85.7323 167.658 85.6223 167.465C85.5156 167.272 85.4623 167.05 85.4623 166.8C85.4623 166.547 85.5156 166.325 85.6223 166.135C85.7323 165.942 85.8823 165.792 86.0723 165.685C86.2656 165.578 86.4823 165.525 86.7223 165.525C87.1423 165.525 87.4756 165.668 87.7223 165.955V165.6H88.2123V169.095H87.7073V167.68ZM86.8373 167.675C87.0406 167.675 87.2223 167.62 87.3823 167.51C87.5423 167.4 87.6506 167.253 87.7073 167.07V166.53C87.6406 166.343 87.529 166.197 87.3723 166.09C87.219 165.983 87.0406 165.93 86.8373 165.93C86.674 165.93 86.5256 165.967 86.3923 166.04C86.2623 166.11 86.159 166.212 86.0823 166.345C86.009 166.475 85.9723 166.627 85.9723 166.8C85.9723 166.973 86.009 167.127 86.0823 167.26C86.159 167.393 86.2623 167.497 86.3923 167.57C86.5256 167.64 86.674 167.675 86.8373 167.675ZM90.8181 168.075C90.4948 168.075 90.2498 167.988 90.0831 167.815C89.9198 167.642 89.8381 167.41 89.8381 167.12V165.6H90.3431V167.1C90.3431 167.483 90.5348 167.675 90.9181 167.675C91.2548 167.675 91.5181 167.523 91.7081 167.22V165.6H92.2131V168H91.7231V167.66C91.6098 167.803 91.4748 167.908 91.3181 167.975C91.1648 168.042 90.9981 168.075 90.8181 168.075ZM95.1811 168.075C94.7378 168.075 94.3895 167.965 94.1361 167.745C93.8861 167.522 93.7611 167.208 93.7611 166.805C93.7611 166.412 93.8728 166.1 94.0961 165.87C94.3228 165.64 94.6445 165.525 95.0611 165.525C95.3378 165.525 95.5728 165.578 95.7661 165.685C95.9595 165.788 96.1045 165.933 96.2011 166.12C96.3011 166.303 96.3511 166.513 96.3511 166.75V167H94.2411C94.2578 167.227 94.3528 167.397 94.5261 167.51C94.7028 167.62 94.9411 167.675 95.2411 167.675C95.3945 167.675 95.5495 167.662 95.7061 167.635C95.8628 167.605 96.0011 167.567 96.1211 167.52V167.925C96.0145 167.968 95.8728 168.003 95.6961 168.03C95.5228 168.06 95.3511 168.075 95.1811 168.075ZM95.8761 166.645C95.8695 166.418 95.7945 166.243 95.6511 166.12C95.5111 165.993 95.3111 165.93 95.0511 165.93C94.7978 165.93 94.6011 165.995 94.4611 166.125C94.3211 166.255 94.2478 166.428 94.2411 166.645H95.8761ZM98.7881 168.075C98.6215 168.075 98.4448 168.053 98.2581 168.01C98.0715 167.97 97.9248 167.915 97.8181 167.845V167.415C97.9481 167.492 98.0981 167.555 98.2681 167.605C98.4381 167.652 98.6031 167.675 98.7631 167.675C98.9431 167.675 99.0748 167.653 99.1581 167.61C99.2415 167.567 99.2831 167.497 99.2831 167.4C99.2831 167.327 99.2631 167.268 99.2231 167.225C99.1865 167.178 99.1215 167.137 99.0281 167.1C98.9381 167.063 98.8015 167.02 98.6181 166.97C98.4215 166.913 98.2648 166.857 98.1481 166.8C98.0348 166.74 97.9481 166.665 97.8881 166.575C97.8315 166.485 97.8031 166.368 97.8031 166.225C97.8031 165.995 97.8931 165.822 98.0731 165.705C98.2565 165.585 98.5015 165.525 98.8081 165.525C98.9681 165.525 99.1248 165.54 99.2781 165.57C99.4315 165.6 99.5548 165.642 99.6481 165.695V166.115C99.5515 166.058 99.4315 166.013 99.2881 165.98C99.1481 165.947 99.0048 165.93 98.8581 165.93C98.6815 165.93 98.5465 165.952 98.4531 165.995C98.3598 166.038 98.3131 166.115 98.3131 166.225C98.3131 166.295 98.3331 166.352 98.3731 166.395C98.4131 166.438 98.4765 166.477 98.5631 166.51C98.6531 166.54 98.7948 166.58 98.9881 166.63C99.2915 166.713 99.5015 166.812 99.6181 166.925C99.7381 167.038 99.7981 167.195 99.7981 167.395C99.7981 167.602 99.7131 167.767 99.5431 167.89C99.3731 168.013 99.1215 168.075 98.7881 168.075ZM102.201 168.075C101.958 168.075 101.77 168.005 101.636 167.865C101.506 167.725 101.441 167.527 101.441 167.27V165.99H101.076V165.6H101.441V164.88H101.951V165.6H102.541V165.99H101.951V167.235C101.951 167.395 101.981 167.508 102.041 167.575C102.105 167.642 102.218 167.675 102.381 167.675C102.478 167.675 102.575 167.653 102.671 167.61V168.01C102.545 168.053 102.388 168.075 102.201 168.075ZM104.441 165.13C104.358 165.13 104.288 165.102 104.231 165.045C104.175 164.988 104.146 164.918 104.146 164.835C104.146 164.752 104.175 164.682 104.231 164.625C104.288 164.568 104.358 164.54 104.441 164.54C104.528 164.54 104.6 164.568 104.656 164.625C104.716 164.682 104.746 164.752 104.746 164.835C104.746 164.918 104.716 164.988 104.656 165.045C104.6 165.102 104.528 165.13 104.441 165.13ZM104.186 165.6H104.701V168H104.186V165.6ZM107.661 168.075C107.391 168.075 107.153 168.025 106.946 167.925C106.743 167.822 106.583 167.675 106.466 167.485C106.353 167.292 106.296 167.065 106.296 166.805C106.296 166.548 106.353 166.323 106.466 166.13C106.58 165.937 106.74 165.788 106.946 165.685C107.153 165.578 107.391 165.525 107.661 165.525C107.931 165.525 108.17 165.578 108.376 165.685C108.583 165.788 108.743 165.937 108.856 166.13C108.973 166.323 109.031 166.548 109.031 166.805C109.031 167.065 108.973 167.292 108.856 167.485C108.743 167.675 108.583 167.822 108.376 167.925C108.17 168.025 107.931 168.075 107.661 168.075ZM107.661 167.675C107.921 167.675 108.128 167.595 108.281 167.435C108.435 167.275 108.511 167.065 108.511 166.805C108.511 166.535 108.435 166.322 108.281 166.165C108.128 166.008 107.921 165.93 107.661 165.93C107.401 165.93 107.195 166.008 107.041 166.165C106.888 166.322 106.811 166.535 106.811 166.805C106.811 167.065 106.888 167.275 107.041 167.435C107.195 167.595 107.401 167.675 107.661 167.675ZM110.58 165.6H111.07V165.945C111.183 165.802 111.322 165.697 111.485 165.63C111.652 165.56 111.825 165.525 112.005 165.525C112.325 165.525 112.563 165.61 112.72 165.78C112.877 165.95 112.955 166.178 112.955 166.465V168H112.45V166.515C112.45 166.125 112.263 165.93 111.89 165.93C111.73 165.93 111.58 165.968 111.44 166.045C111.303 166.118 111.185 166.232 111.085 166.385V168H110.58V165.6ZM117.724 165.13C117.64 165.13 117.57 165.102 117.514 165.045C117.457 164.988 117.429 164.918 117.429 164.835C117.429 164.752 117.457 164.682 117.514 164.625C117.57 164.568 117.64 164.54 117.724 164.54C117.81 164.54 117.882 164.568 117.939 164.625C117.999 164.682 118.029 164.752 118.029 164.835C118.029 164.918 117.999 164.988 117.939 165.045C117.882 165.102 117.81 165.13 117.724 165.13ZM117.469 165.6H117.984V168H117.469V165.6ZM120.604 168.075C120.36 168.075 120.172 168.005 120.039 167.865C119.909 167.725 119.844 167.527 119.844 167.27V165.99H119.479V165.6H119.844V164.88H120.354V165.6H120.944V165.99H120.354V167.235C120.354 167.395 120.384 167.508 120.444 167.575C120.507 167.642 120.62 167.675 120.784 167.675C120.88 167.675 120.977 167.653 121.074 167.61V168.01C120.947 168.053 120.79 168.075 120.604 168.075ZM122.684 168C122.617 168 122.56 167.978 122.514 167.935C122.47 167.888 122.449 167.832 122.449 167.765C122.449 167.698 122.47 167.642 122.514 167.595C122.56 167.548 122.617 167.525 122.684 167.525C122.75 167.525 122.807 167.548 122.854 167.595C122.9 167.642 122.924 167.698 122.924 167.765C122.924 167.832 122.9 167.888 122.854 167.935C122.807 167.978 122.75 168 122.684 168Z" fill="black"/>
<rect x="12.25" y="143.25" width="125.5" height="46.5" stroke="#6C6C6C" stroke-width="0.5"/>
<path d="M12.675 27.8H14.22L15.84 33.14L17.445 27.8H18.81L20.415 33.14L22.035 27.8H23.595L21.255 35H19.8L18.135 29.63L16.47 35H15L12.675 27.8ZM29.1101 35.225C28.2401 35.225 27.5401 35.005 27.0101 34.565C26.4901 34.115 26.2301 33.51 26.2301 32.75C26.2301 31.95 26.4801 31.335 26.9801 30.905C27.4901 30.465 28.2101 30.245 29.1401 30.245C30.1301 30.245 30.9701 30.445 31.6601 30.845V30.47C31.6601 29.9 31.4851 29.48 31.1351 29.21C30.7951 28.93 30.2551 28.79 29.5151 28.79C29.0751 28.79 28.6451 28.835 28.2251 28.925C27.8151 29.005 27.4451 29.12 27.1151 29.27V28.04C27.4151 27.9 27.8051 27.79 28.2851 27.71C28.7651 27.62 29.2301 27.575 29.6801 27.575C30.8701 27.575 31.7501 27.84 32.3201 28.37C32.9001 28.89 33.1901 29.615 33.1901 30.545V35H31.7651V34.19C31.4551 34.53 31.0851 34.79 30.6551 34.97C30.2351 35.14 29.7201 35.225 29.1101 35.225ZM29.4851 34.07C29.9651 34.07 30.4001 33.975 30.7901 33.785C31.1801 33.595 31.4701 33.33 31.6601 32.99V32.015C31.0101 31.595 30.2851 31.385 29.4851 31.385C28.9051 31.385 28.4701 31.5 28.1801 31.73C27.9001 31.95 27.7601 32.29 27.7601 32.75C27.7601 33.63 28.3351 34.07 29.4851 34.07ZM37.1701 23.915H38.6851V35H37.1701V23.915ZM42.7418 23.915H44.2568V35H42.7418V23.915ZM44.2718 31.355L47.5868 27.8H49.4318L46.1018 31.355L49.7768 35H47.9318L44.2718 31.355ZM54.2668 26.39C54.0168 26.39 53.8068 26.305 53.6368 26.135C53.4668 25.965 53.3818 25.755 53.3818 25.505C53.3818 25.255 53.4668 25.045 53.6368 24.875C53.8068 24.705 54.0168 24.62 54.2668 24.62C54.5268 24.62 54.7418 24.705 54.9118 24.875C55.0918 25.045 55.1818 25.255 55.1818 25.505C55.1818 25.755 55.0918 25.965 54.9118 26.135C54.7418 26.305 54.5268 26.39 54.2668 26.39ZM53.5018 27.8H55.0468V35H53.5018V27.8ZM59.2318 27.8H60.7018V28.835C61.0418 28.405 61.4568 28.09 61.9468 27.89C62.4468 27.68 62.9668 27.575 63.5068 27.575C64.4668 27.575 65.1818 27.83 65.6518 28.34C66.1218 28.85 66.3568 29.535 66.3568 30.395V35H64.8418V30.545C64.8418 29.375 64.2818 28.79 63.1618 28.79C62.6818 28.79 62.2318 28.905 61.8118 29.135C61.4018 29.355 61.0468 29.695 60.7468 30.155V35H59.2318V27.8ZM74.091 38.45C73.601 38.45 73.121 38.41 72.651 38.33C72.191 38.25 71.801 38.135 71.481 37.985V36.74C72.231 37.08 73.101 37.25 74.091 37.25C75.021 37.25 75.696 37.045 76.116 36.635C76.546 36.235 76.761 35.625 76.761 34.805V34.04C76.101 34.83 75.131 35.225 73.851 35.225C73.121 35.225 72.466 35.065 71.886 34.745C71.306 34.425 70.851 33.975 70.521 33.395C70.191 32.815 70.026 32.15 70.026 31.4C70.026 30.64 70.186 29.975 70.506 29.405C70.836 28.825 71.286 28.375 71.856 28.055C72.436 27.735 73.086 27.575 73.806 27.575C74.476 27.575 75.041 27.675 75.501 27.875C75.971 28.065 76.406 28.385 76.806 28.835V27.8H78.276V34.64C78.276 35.87 77.931 36.81 77.241 37.46C76.561 38.12 75.511 38.45 74.091 38.45ZM74.151 34.025C74.771 34.025 75.316 33.86 75.786 33.53C76.266 33.2 76.591 32.76 76.761 32.21V30.59C76.571 30.03 76.241 29.59 75.771 29.27C75.311 28.95 74.771 28.79 74.151 28.79C73.661 28.79 73.216 28.9 72.816 29.12C72.426 29.33 72.116 29.635 71.886 30.035C71.666 30.435 71.556 30.89 71.556 31.4C71.556 31.92 71.666 32.38 71.886 32.78C72.116 33.17 72.426 33.475 72.816 33.695C73.216 33.915 73.661 34.025 74.151 34.025ZM89.6801 27.8H91.2251L92.8451 33.14L94.4501 27.8H95.8151L97.4201 33.14L99.0401 27.8H100.6L98.2601 35H96.8051L95.1401 29.63L93.4751 35H92.0051L89.6801 27.8ZM106.115 35.225C105.245 35.225 104.545 35.005 104.015 34.565C103.495 34.115 103.235 33.51 103.235 32.75C103.235 31.95 103.485 31.335 103.985 30.905C104.495 30.465 105.215 30.245 106.145 30.245C107.135 30.245 107.975 30.445 108.665 30.845V30.47C108.665 29.9 108.49 29.48 108.14 29.21C107.8 28.93 107.26 28.79 106.52 28.79C106.08 28.79 105.65 28.835 105.23 28.925C104.82 29.005 104.45 29.12 104.12 29.27V28.04C104.42 27.9 104.81 27.79 105.29 27.71C105.77 27.62 106.235 27.575 106.685 27.575C107.875 27.575 108.755 27.84 109.325 28.37C109.905 28.89 110.195 29.615 110.195 30.545V35H108.77V34.19C108.46 34.53 108.09 34.79 107.66 34.97C107.24 35.14 106.725 35.225 106.115 35.225ZM106.49 34.07C106.97 34.07 107.405 33.975 107.795 33.785C108.185 33.595 108.475 33.33 108.665 32.99V32.015C108.015 31.595 107.29 31.385 106.49 31.385C105.91 31.385 105.475 31.5 105.185 31.73C104.905 31.95 104.765 32.29 104.765 32.75C104.765 33.63 105.34 34.07 106.49 34.07ZM116.569 35.225C115.839 35.225 115.274 35.015 114.874 34.595C114.484 34.175 114.289 33.58 114.289 32.81V28.97H113.194V27.8H114.289V25.64H115.819V27.8H117.589V28.97H115.819V32.705C115.819 33.185 115.909 33.525 116.089 33.725C116.279 33.925 116.619 34.025 117.109 34.025C117.399 34.025 117.689 33.96 117.979 33.83V35.03C117.599 35.16 117.129 35.225 116.569 35.225ZM125.465 35.225C124.135 35.225 123.09 34.895 122.33 34.235C121.58 33.565 121.205 32.625 121.205 31.415C121.205 30.235 121.54 29.3 122.21 28.61C122.89 27.92 123.855 27.575 125.105 27.575C125.935 27.575 126.64 27.735 127.22 28.055C127.8 28.365 128.235 28.8 128.525 29.36C128.825 29.91 128.975 30.54 128.975 31.25V32H122.645C122.695 32.68 122.98 33.19 123.5 33.53C124.03 33.86 124.745 34.025 125.645 34.025C126.105 34.025 126.57 33.985 127.04 33.905C127.51 33.815 127.925 33.7 128.285 33.56V34.775C127.965 34.905 127.54 35.01 127.01 35.09C126.49 35.18 125.975 35.225 125.465 35.225ZM127.55 30.935C127.53 30.255 127.305 29.73 126.875 29.36C126.455 28.98 125.855 28.79 125.075 28.79C124.315 28.79 123.725 28.985 123.305 29.375C122.885 29.765 122.665 30.285 122.645 30.935H127.55ZM132.731 27.8H134.201V29.09C134.501 28.65 134.921 28.325 135.461 28.115C136.011 27.905 136.646 27.8 137.366 27.8V28.985C136.596 28.985 135.936 29.11 135.386 29.36C134.836 29.61 134.456 30.005 134.246 30.545V35H132.731V27.8Z" fill="black"/>
<path d="M12.8691 19.0381L17.1807 17.1875V16.4746L12.8691 14.6289V15.5615L16.0283 16.7334L16.3213 16.8262L16.0283 16.9092L12.8691 18.1006V19.0381ZM20.875 19.0381L25.1865 17.1875V16.4746L20.875 14.6289V15.5615L24.0342 16.7334L24.3271 16.8262L24.0342 16.9092L20.875 18.1006V19.0381ZM37.375 20H38.0879L38.9033 16.7627L39.0352 15.9424L39.1719 16.7627L39.9971 20H40.71L41.833 14.7168H41.0322L40.4463 18.0859L40.3145 18.916L40.1729 18.0859L39.333 14.7168H38.752L37.9072 18.0859L37.7754 18.8428L37.668 18.0859L37.0527 14.7168H36.252L37.375 20ZM48.3447 20H49.2871V19.9219C49.2285 19.7754 49.1829 19.6045 49.1504 19.4092C49.1178 19.2106 49.1016 19.0234 49.1016 18.8477V16.3916C49.1016 16.0954 49.0479 15.8366 48.9404 15.6152C48.833 15.3939 48.6865 15.2083 48.501 15.0586C48.3122 14.9121 48.0892 14.8031 47.832 14.7314C47.5749 14.6566 47.2965 14.6191 46.9971 14.6191C46.6683 14.6191 46.3737 14.6647 46.1133 14.7559C45.8561 14.847 45.638 14.9658 45.459 15.1123C45.2767 15.262 45.1367 15.4297 45.0391 15.6152C44.9447 15.8008 44.8958 15.9896 44.8926 16.1816H45.8008C45.8008 16.071 45.8268 15.9652 45.8789 15.8643C45.9342 15.7601 46.0107 15.6706 46.1084 15.5957C46.2061 15.5208 46.3249 15.4606 46.4648 15.415C46.6081 15.3695 46.7692 15.3467 46.9482 15.3467C47.1403 15.3467 47.3128 15.3711 47.4658 15.4199C47.6221 15.4688 47.7539 15.5371 47.8613 15.625C47.9688 15.7161 48.0518 15.8252 48.1104 15.9521C48.1689 16.0791 48.1982 16.2223 48.1982 16.3818V16.7969H47.2119C46.8441 16.7969 46.5104 16.8327 46.2109 16.9043C45.9147 16.9759 45.6608 17.0833 45.4492 17.2266C45.2376 17.373 45.0732 17.5553 44.9561 17.7734C44.8421 17.9915 44.7852 18.2454 44.7852 18.5352C44.7852 18.7565 44.8275 18.9632 44.9121 19.1553C45 19.3441 45.1237 19.5068 45.2832 19.6436C45.4395 19.7835 45.6299 19.8942 45.8545 19.9756C46.0824 20.057 46.3363 20.0977 46.6162 20.0977C46.7887 20.0977 46.9515 20.0798 47.1045 20.0439C47.2575 20.0081 47.4023 19.9593 47.5391 19.8975C47.6725 19.8356 47.7946 19.764 47.9053 19.6826C48.0192 19.6012 48.1217 19.515 48.2129 19.4238C48.2227 19.5345 48.2373 19.6419 48.2568 19.7461C48.2796 19.847 48.3089 19.9316 48.3447 20ZM46.748 19.3115C46.5723 19.3115 46.4176 19.2887 46.2842 19.2432C46.1507 19.1976 46.04 19.1341 45.9521 19.0527C45.8643 18.9746 45.7975 18.8802 45.752 18.7695C45.7096 18.6589 45.6885 18.5384 45.6885 18.4082C45.6885 18.2715 45.7129 18.1494 45.7617 18.042C45.8138 17.9346 45.8887 17.8418 45.9863 17.7637C46.123 17.653 46.307 17.5716 46.5381 17.5195C46.7725 17.4642 47.0459 17.4365 47.3584 17.4365H48.1982V18.5059C48.1462 18.61 48.0745 18.7109 47.9834 18.8086C47.8923 18.903 47.7848 18.9876 47.6611 19.0625C47.5342 19.1374 47.3942 19.1976 47.2412 19.2432C47.0882 19.2887 46.9238 19.3115 46.748 19.3115ZM55.0176 13.4375H54.1094V14.7168H52.7227V15.415H54.1094V18.2861C54.1094 18.6117 54.1517 18.89 54.2363 19.1211C54.3242 19.349 54.443 19.5345 54.5928 19.6777C54.7425 19.8242 54.9183 19.9316 55.1201 20C55.3252 20.0651 55.5449 20.0977 55.7793 20.0977C55.9193 20.0977 56.0592 20.0911 56.1992 20.0781C56.3424 20.0651 56.4775 20.0456 56.6045 20.0195C56.7314 19.9967 56.8486 19.9691 56.9561 19.9365C57.0635 19.9007 57.1546 19.86 57.2295 19.8145L57.1025 19.1748C57.0472 19.1878 56.9756 19.2041 56.8877 19.2236C56.8031 19.2399 56.7119 19.2562 56.6143 19.2725C56.5133 19.2887 56.4108 19.3034 56.3066 19.3164C56.2025 19.3262 56.1016 19.3311 56.0039 19.3311C55.8704 19.3311 55.7435 19.3148 55.623 19.2822C55.5059 19.2497 55.4017 19.1927 55.3105 19.1113C55.2194 19.0332 55.1478 18.9274 55.0957 18.7939C55.0436 18.6605 55.0176 18.4912 55.0176 18.2861V15.415H57.0293V14.7168H55.0176V13.4375ZM63.2188 20.0977C63.7331 20.0977 64.1644 19.9951 64.5127 19.79C64.8643 19.5817 65.1279 19.3441 65.3037 19.0771L64.752 18.6475C64.5859 18.8623 64.3776 19.0348 64.127 19.165C63.8763 19.2952 63.5898 19.3604 63.2676 19.3604C63.0234 19.3604 62.8005 19.3148 62.5986 19.2236C62.3968 19.1325 62.2243 19.0072 62.0811 18.8477C61.9411 18.6979 61.8304 18.5254 61.749 18.3301C61.6709 18.1348 61.6204 17.9085 61.5977 17.6514V17.6172H65.3721V17.2119C65.3721 16.8441 65.3249 16.5023 65.2305 16.1865C65.1393 15.8708 64.9993 15.5957 64.8105 15.3613C64.6217 15.1302 64.3841 14.9495 64.0977 14.8193C63.8145 14.6859 63.4824 14.6191 63.1016 14.6191C62.7988 14.6191 62.5026 14.681 62.2129 14.8047C61.9264 14.9284 61.6709 15.1058 61.4463 15.3369C61.2184 15.5713 61.0361 15.8577 60.8994 16.1963C60.7627 16.5316 60.6943 16.9124 60.6943 17.3389V17.5439C60.6943 17.9118 60.7562 18.252 60.8799 18.5645C61.0036 18.877 61.1761 19.1471 61.3975 19.375C61.6188 19.6029 61.8841 19.7803 62.1934 19.9072C62.5059 20.0342 62.8477 20.0977 63.2188 20.0977ZM63.1016 15.3613C63.3327 15.3613 63.5312 15.4036 63.6973 15.4883C63.8665 15.5729 64.0065 15.6836 64.1172 15.8203C64.2279 15.957 64.3141 16.1198 64.376 16.3086C64.4378 16.4941 64.4688 16.6683 64.4688 16.8311V16.875H61.627C61.6628 16.6309 61.7246 16.416 61.8125 16.2305C61.9036 16.0417 62.0143 15.8822 62.1445 15.752C62.2747 15.625 62.4212 15.529 62.584 15.4639C62.7467 15.3955 62.9193 15.3613 63.1016 15.3613ZM72.3525 14.6191C71.9684 14.6191 71.625 14.7038 71.3223 14.873C71.0228 15.0391 70.7656 15.2669 70.5508 15.5566L70.5459 15.4248L70.5068 14.7168H69.6475V20H70.5557V16.6113C70.6143 16.4486 70.6875 16.3021 70.7754 16.1719C70.8665 16.0384 70.9723 15.9261 71.0928 15.835C71.2262 15.7308 71.3825 15.6527 71.5615 15.6006C71.7406 15.5452 71.9408 15.5176 72.1621 15.5176C72.3346 15.5176 72.499 15.5273 72.6553 15.5469C72.8148 15.5632 72.9824 15.5908 73.1582 15.6299L73.2803 14.7461C73.1891 14.707 73.0524 14.6761 72.8701 14.6533C72.6911 14.6305 72.5186 14.6191 72.3525 14.6191Z" fill="#707070"/>
<path d="M50 69.486L51.4118 120.009L56 121L53.8824 68L50 69.486Z" fill="#7A4900"/>
<path d="M94.7073 87.4762L85.9268 75.9524L77.1463 55L65.0732 71.7619L53 86.4286V106.333L66.1707 121L83.7317 118.905L98 105.286L94.7073 87.4762Z" fill="#0068C8"/>
<path d="M64 97L65.5 85H67V97H64Z" fill="#D9D9D9"/>
<path d="M74 97L72.5 85H71V97H74Z" fill="#D9D9D9"/>
<path d="M95 75.5L88 79L90.2941 82L94.5 87.5L97 100L97.5 102.5L102 99.5L99.5 80L95 75.5Z" fill="#04BF00"/>
<path d="M83 85.5L88 79L90.2941 82L87 86L87.5 93L90 98L97 100L97.5 102.5L88 101.5L83 94.5V85.5Z" fill="#04BF00"/>
<path d="M89.5 59L88.5 62L92.5 60L91.5 58L89.5 59Z" fill="#339DFF"/>
<path d="M93 65.5L89.5 67L91.5 68.5H95V66L93 65.5Z" fill="#339DFF"/>
<path d="M83.5 54.5L83 58L85 57L87.5 55L86.5 52.5H85L83.5 54.5Z" fill="#339DFF"/>
<path d="M91.5 51.5L91 54.5L94 52.5L93.5 51L91.5 51.5Z" fill="#339DFF"/>
</svg>
