<svg width="150" height="200" viewBox="0 0 150 200" fill="none" xmlns="http://www.w3.org/2000/svg">
<rect width="150" height="200" fill="white"/>
<path d="M18.21 148.935H17.125V148.505H19.81V148.935H18.725V152H18.21V148.935ZM21.2596 148.305H21.7646V149.93C21.9946 149.66 22.3012 149.525 22.6846 149.525C23.0046 149.525 23.2429 149.61 23.3996 149.78C23.5562 149.95 23.6346 150.178 23.6346 150.465V152H23.1296V150.515C23.1296 150.125 22.9429 149.93 22.5696 149.93C22.4096 149.93 22.2596 149.968 22.1196 150.045C21.9829 150.118 21.8646 150.232 21.7646 150.385V152H21.2596V148.305ZM25.5526 149.13C25.4693 149.13 25.3993 149.102 25.3426 149.045C25.286 148.988 25.2576 148.918 25.2576 148.835C25.2576 148.752 25.286 148.682 25.3426 148.625C25.3993 148.568 25.4693 148.54 25.5526 148.54C25.6393 148.54 25.711 148.568 25.7676 148.625C25.8276 148.682 25.8576 148.752 25.8576 148.835C25.8576 148.918 25.8276 148.988 25.7676 149.045C25.711 149.102 25.6393 149.13 25.5526 149.13ZM25.2976 149.6H25.8126V152H25.2976V149.6ZM28.3926 152.075C28.226 152.075 28.0493 152.053 27.8626 152.01C27.676 151.97 27.5293 151.915 27.4226 151.845V151.415C27.5526 151.492 27.7026 151.555 27.8726 151.605C28.0426 151.652 28.2076 151.675 28.3676 151.675C28.5476 151.675 28.6793 151.653 28.7626 151.61C28.846 151.567 28.8876 151.497 28.8876 151.4C28.8876 151.327 28.8676 151.268 28.8276 151.225C28.791 151.178 28.726 151.137 28.6326 151.1C28.5426 151.063 28.406 151.02 28.2226 150.97C28.026 150.913 27.8693 150.857 27.7526 150.8C27.6393 150.74 27.5526 150.665 27.4926 150.575C27.436 150.485 27.4076 150.368 27.4076 150.225C27.4076 149.995 27.4976 149.822 27.6776 149.705C27.861 149.585 28.106 149.525 28.4126 149.525C28.5726 149.525 28.7293 149.54 28.8826 149.57C29.036 149.6 29.1593 149.642 29.2526 149.695V150.115C29.156 150.058 29.036 150.013 28.8926 149.98C28.7526 149.947 28.6093 149.93 28.4626 149.93C28.286 149.93 28.151 149.952 28.0576 149.995C27.9643 150.038 27.9176 150.115 27.9176 150.225C27.9176 150.295 27.9376 150.352 27.9776 150.395C28.0176 150.438 28.081 150.477 28.1676 150.51C28.2576 150.54 28.3993 150.58 28.5926 150.63C28.896 150.713 29.106 150.812 29.2226 150.925C29.3426 151.038 29.4026 151.195 29.4026 151.395C29.4026 151.602 29.3176 151.767 29.1476 151.89C28.9776 152.013 28.726 152.075 28.3926 152.075ZM33.7045 149.6H34.2195L34.7595 151.38L35.2945 149.6H35.7495L36.2845 151.38L36.8245 149.6H37.3445L36.5645 152H36.0795L35.5245 150.21L34.9695 152H34.4795L33.7045 149.6ZM39.4829 152.075C39.1929 152.075 38.9595 152.002 38.7829 151.855C38.6095 151.705 38.5229 151.503 38.5229 151.25C38.5229 150.983 38.6062 150.778 38.7729 150.635C38.9429 150.488 39.1829 150.415 39.4929 150.415C39.8229 150.415 40.1029 150.482 40.3329 150.615V150.49C40.3329 150.3 40.2745 150.16 40.1579 150.07C40.0445 149.977 39.8645 149.93 39.6179 149.93C39.4712 149.93 39.3279 149.945 39.1879 149.975C39.0512 150.002 38.9279 150.04 38.8179 150.09V149.68C38.9179 149.633 39.0479 149.597 39.2079 149.57C39.3679 149.54 39.5229 149.525 39.6729 149.525C40.0695 149.525 40.3629 149.613 40.5529 149.79C40.7462 149.963 40.8429 150.205 40.8429 150.515V152H40.3679V151.73C40.2645 151.843 40.1412 151.93 39.9979 151.99C39.8579 152.047 39.6862 152.075 39.4829 152.075ZM39.6079 151.69C39.7679 151.69 39.9129 151.658 40.0429 151.595C40.1729 151.532 40.2695 151.443 40.3329 151.33V151.005C40.1162 150.865 39.8745 150.795 39.6079 150.795C39.4145 150.795 39.2695 150.833 39.1729 150.91C39.0795 150.983 39.0329 151.097 39.0329 151.25C39.0329 151.543 39.2245 151.69 39.6079 151.69ZM43.2676 152.075C43.0242 152.075 42.8359 152.005 42.7026 151.865C42.5726 151.725 42.5076 151.527 42.5076 151.27V149.99H42.1426V149.6H42.5076V148.88H43.0176V149.6H43.6076V149.99H43.0176V151.235C43.0176 151.395 43.0476 151.508 43.1076 151.575C43.1709 151.642 43.2842 151.675 43.4476 151.675C43.5442 151.675 43.6409 151.653 43.7376 151.61V152.01C43.6109 152.053 43.4542 152.075 43.2676 152.075ZM46.5327 152.075C46.0894 152.075 45.741 151.965 45.4877 151.745C45.2377 151.522 45.1127 151.208 45.1127 150.805C45.1127 150.412 45.2244 150.1 45.4477 149.87C45.6744 149.64 45.996 149.525 46.4127 149.525C46.6894 149.525 46.9244 149.578 47.1177 149.685C47.311 149.788 47.456 149.933 47.5527 150.12C47.6527 150.303 47.7027 150.513 47.7027 150.75V151H45.5927C45.6094 151.227 45.7044 151.397 45.8777 151.51C46.0544 151.62 46.2927 151.675 46.5927 151.675C46.746 151.675 46.901 151.662 47.0577 151.635C47.2144 151.605 47.3527 151.567 47.4727 151.52V151.925C47.366 151.968 47.2244 152.003 47.0477 152.03C46.8744 152.06 46.7027 152.075 46.5327 152.075ZM47.2277 150.645C47.221 150.418 47.146 150.243 47.0027 150.12C46.8627 149.993 46.6627 149.93 46.4027 149.93C46.1494 149.93 45.9527 149.995 45.8127 150.125C45.6727 150.255 45.5994 150.428 45.5927 150.645H47.2277ZM49.2547 149.6H49.7447V150.03C49.8447 149.883 49.9847 149.775 50.1647 149.705C50.348 149.635 50.5597 149.6 50.7997 149.6V149.995C50.543 149.995 50.323 150.037 50.1397 150.12C49.9564 150.203 49.8297 150.335 49.7597 150.515V152H49.2547V149.6ZM55.3973 149.13C55.314 149.13 55.244 149.102 55.1873 149.045C55.1307 148.988 55.1023 148.918 55.1023 148.835C55.1023 148.752 55.1307 148.682 55.1873 148.625C55.244 148.568 55.314 148.54 55.3973 148.54C55.484 148.54 55.5557 148.568 55.6123 148.625C55.6723 148.682 55.7023 148.752 55.7023 148.835C55.7023 148.918 55.6723 148.988 55.6123 149.045C55.5557 149.102 55.484 149.13 55.3973 149.13ZM55.1423 149.6H55.6573V152H55.1423V149.6ZM58.2373 152.075C58.0707 152.075 57.894 152.053 57.7073 152.01C57.5207 151.97 57.374 151.915 57.2673 151.845V151.415C57.3973 151.492 57.5473 151.555 57.7173 151.605C57.8873 151.652 58.0523 151.675 58.2123 151.675C58.3923 151.675 58.524 151.653 58.6073 151.61C58.6907 151.567 58.7323 151.497 58.7323 151.4C58.7323 151.327 58.7123 151.268 58.6723 151.225C58.6357 151.178 58.5707 151.137 58.4773 151.1C58.3873 151.063 58.2507 151.02 58.0673 150.97C57.8707 150.913 57.714 150.857 57.5973 150.8C57.484 150.74 57.3973 150.665 57.3373 150.575C57.2807 150.485 57.2523 150.368 57.2523 150.225C57.2523 149.995 57.3423 149.822 57.5223 149.705C57.7057 149.585 57.9507 149.525 58.2573 149.525C58.4173 149.525 58.574 149.54 58.7273 149.57C58.8807 149.6 59.004 149.642 59.0973 149.695V150.115C59.0007 150.058 58.8807 150.013 58.7373 149.98C58.5973 149.947 58.454 149.93 58.3073 149.93C58.1307 149.93 57.9957 149.952 57.9023 149.995C57.809 150.038 57.7623 150.115 57.7623 150.225C57.7623 150.295 57.7823 150.352 57.8223 150.395C57.8623 150.438 57.9257 150.477 58.0123 150.51C58.1023 150.54 58.244 150.58 58.4373 150.63C58.7407 150.713 58.9507 150.812 59.0673 150.925C59.1873 151.038 59.2473 151.195 59.2473 151.395C59.2473 151.602 59.1623 151.767 58.9923 151.89C58.8223 152.013 58.5707 152.075 58.2373 152.075ZM64.9142 152.075C64.6476 152.075 64.4109 152.025 64.2042 151.925C63.9976 151.825 63.8359 151.68 63.7192 151.49C63.6059 151.297 63.5492 151.068 63.5492 150.805C63.5492 150.542 63.6059 150.315 63.7192 150.125C63.8359 149.932 63.9976 149.783 64.2042 149.68C64.4142 149.577 64.6542 149.525 64.9242 149.525C65.2909 149.525 65.5842 149.597 65.8042 149.74V150.155C65.5876 150.005 65.3109 149.93 64.9742 149.93C64.7009 149.93 64.4792 150.005 64.3092 150.155C64.1426 150.302 64.0592 150.518 64.0592 150.805C64.0592 151.092 64.1426 151.308 64.3092 151.455C64.4759 151.602 64.6942 151.675 64.9642 151.675C65.3009 151.675 65.5909 151.595 65.8342 151.435V151.845C65.7176 151.925 65.5842 151.983 65.4342 152.02C65.2876 152.057 65.1142 152.075 64.9142 152.075ZM68.5754 152.075C68.3054 152.075 68.067 152.025 67.8604 151.925C67.657 151.822 67.497 151.675 67.3804 151.485C67.267 151.292 67.2104 151.065 67.2104 150.805C67.2104 150.548 67.267 150.323 67.3804 150.13C67.4937 149.937 67.6537 149.788 67.8604 149.685C68.067 149.578 68.3054 149.525 68.5754 149.525C68.8454 149.525 69.0837 149.578 69.2904 149.685C69.497 149.788 69.657 149.937 69.7704 150.13C69.887 150.323 69.9454 150.548 69.9454 150.805C69.9454 151.065 69.887 151.292 69.7704 151.485C69.657 151.675 69.497 151.822 69.2904 151.925C69.0837 152.025 68.8454 152.075 68.5754 152.075ZM68.5754 151.675C68.8354 151.675 69.042 151.595 69.1954 151.435C69.3487 151.275 69.4254 151.065 69.4254 150.805C69.4254 150.535 69.3487 150.322 69.1954 150.165C69.042 150.008 68.8354 149.93 68.5754 149.93C68.3154 149.93 68.1087 150.008 67.9554 150.165C67.802 150.322 67.7254 150.535 67.7254 150.805C67.7254 151.065 67.802 151.275 67.9554 151.435C68.1087 151.595 68.3154 151.675 68.5754 151.675ZM71.4939 149.6H71.9739V149.945C72.0873 149.805 72.2156 149.7 72.3589 149.63C72.5023 149.56 72.6506 149.525 72.8039 149.525C72.9973 149.525 73.1506 149.558 73.2639 149.625C73.3773 149.688 73.4606 149.787 73.5139 149.92C73.6206 149.79 73.7506 149.692 73.9039 149.625C74.0606 149.558 74.2173 149.525 74.3739 149.525C74.6673 149.525 74.8789 149.6 75.0089 149.75C75.1389 149.897 75.2039 150.115 75.2039 150.405V152H74.7139V150.47C74.7139 150.273 74.6773 150.135 74.6039 150.055C74.5306 149.972 74.4056 149.93 74.2289 149.93C73.9756 149.93 73.7689 150.04 73.6089 150.26C73.6156 150.31 73.6189 150.392 73.6189 150.505V152H73.1289V150.47C73.1289 150.273 73.0956 150.135 73.0289 150.055C72.9623 149.972 72.8423 149.93 72.6689 149.93C72.4156 149.93 72.1889 150.073 71.9889 150.36V152H71.4939V149.6ZM76.8299 149.6H77.3199V149.955C77.5665 149.668 77.8999 149.525 78.3199 149.525C78.5599 149.525 78.7749 149.578 78.9649 149.685C79.1582 149.792 79.3082 149.942 79.4149 150.135C79.5249 150.325 79.5799 150.547 79.5799 150.8C79.5799 151.05 79.5249 151.272 79.4149 151.465C79.3082 151.658 79.1599 151.808 78.9699 151.915C78.7799 152.022 78.5632 152.075 78.3199 152.075C78.1199 152.075 77.9332 152.042 77.7599 151.975C77.5865 151.908 77.4449 151.81 77.3349 151.68V153.095H76.8299V149.6ZM78.2049 151.675C78.3682 151.675 78.5149 151.64 78.6449 151.57C78.7782 151.497 78.8815 151.393 78.9549 151.26C79.0315 151.127 79.0699 150.973 79.0699 150.8C79.0699 150.627 79.0315 150.475 78.9549 150.345C78.8815 150.212 78.7782 150.11 78.6449 150.04C78.5149 149.967 78.3682 149.93 78.2049 149.93C78.0015 149.93 77.8215 149.983 77.6649 150.09C77.5115 150.197 77.4015 150.343 77.3349 150.53V151.07C77.3915 151.253 77.4999 151.4 77.6599 151.51C77.8199 151.62 78.0015 151.675 78.2049 151.675ZM81.1307 148.305H81.6357V152H81.1307V148.305ZM84.6079 152.075C84.1646 152.075 83.8162 151.965 83.5629 151.745C83.3129 151.522 83.1879 151.208 83.1879 150.805C83.1879 150.412 83.2996 150.1 83.5229 149.87C83.7496 149.64 84.0712 149.525 84.4879 149.525C84.7646 149.525 84.9996 149.578 85.1929 149.685C85.3862 149.788 85.5312 149.933 85.6279 150.12C85.7279 150.303 85.7779 150.513 85.7779 150.75V151H83.6679C83.6846 151.227 83.7796 151.397 83.9529 151.51C84.1296 151.62 84.3679 151.675 84.6679 151.675C84.8212 151.675 84.9762 151.662 85.1329 151.635C85.2896 151.605 85.4279 151.567 85.5479 151.52V151.925C85.4412 151.968 85.2996 152.003 85.1229 152.03C84.9496 152.06 84.7779 152.075 84.6079 152.075ZM85.3029 150.645C85.2962 150.418 85.2212 150.243 85.0779 150.12C84.9379 149.993 84.7379 149.93 84.4779 149.93C84.2246 149.93 84.0279 149.995 83.8879 150.125C83.7479 150.255 83.6746 150.428 83.6679 150.645H85.3029ZM88.2549 152.075C88.0115 152.075 87.8232 152.005 87.6899 151.865C87.5599 151.725 87.4949 151.527 87.4949 151.27V149.99H87.1299V149.6H87.4949V148.88H88.0049V149.6H88.5949V149.99H88.0049V151.235C88.0049 151.395 88.0349 151.508 88.0949 151.575C88.1582 151.642 88.2715 151.675 88.4349 151.675C88.5315 151.675 88.6282 151.653 88.7249 151.61V152.01C88.5982 152.053 88.4415 152.075 88.2549 152.075ZM91.52 152.075C91.0767 152.075 90.7283 151.965 90.475 151.745C90.225 151.522 90.1 151.208 90.1 150.805C90.1 150.412 90.2117 150.1 90.435 149.87C90.6617 149.64 90.9833 149.525 91.4 149.525C91.6767 149.525 91.9117 149.578 92.105 149.685C92.2983 149.788 92.4433 149.933 92.54 150.12C92.64 150.303 92.69 150.513 92.69 150.75V151H90.58C90.5967 151.227 90.6917 151.397 90.865 151.51C91.0417 151.62 91.28 151.675 91.58 151.675C91.7333 151.675 91.8883 151.662 92.045 151.635C92.2017 151.605 92.34 151.567 92.46 151.52V151.925C92.3533 151.968 92.2117 152.003 92.035 152.03C91.8617 152.06 91.69 152.075 91.52 152.075ZM92.215 150.645C92.2083 150.418 92.1333 150.243 91.99 150.12C91.85 149.993 91.65 149.93 91.39 149.93C91.1367 149.93 90.94 149.995 90.8 150.125C90.66 150.255 90.5867 150.428 90.58 150.645H92.215ZM94.242 148.305H94.747V152H94.242V148.305ZM96.9092 152.99C96.7292 152.99 96.5792 152.972 96.4592 152.935V152.54C96.5459 152.573 96.6526 152.59 96.7792 152.59C96.8959 152.59 96.9876 152.56 97.0542 152.5C97.1209 152.443 97.1809 152.35 97.2342 152.22L97.3492 151.94L96.2992 149.6H96.8192L97.6192 151.445L98.3642 149.6H98.8842L97.8042 152.27C97.7042 152.52 97.5842 152.702 97.4442 152.815C97.3076 152.932 97.1292 152.99 96.9092 152.99ZM103.184 149.6H103.674V149.945C103.788 149.802 103.926 149.697 104.089 149.63C104.256 149.56 104.429 149.525 104.609 149.525C104.929 149.525 105.168 149.61 105.324 149.78C105.481 149.95 105.559 150.178 105.559 150.465V152H105.054V150.515C105.054 150.125 104.868 149.93 104.494 149.93C104.334 149.93 104.184 149.968 104.044 150.045C103.908 150.118 103.789 150.232 103.689 150.385V152H103.184V149.6ZM108.374 152.075C108.104 152.075 107.866 152.025 107.659 151.925C107.456 151.822 107.296 151.675 107.179 151.485C107.066 151.292 107.009 151.065 107.009 150.805C107.009 150.548 107.066 150.323 107.179 150.13C107.293 149.937 107.453 149.788 107.659 149.685C107.866 149.578 108.104 149.525 108.374 149.525C108.644 149.525 108.883 149.578 109.089 149.685C109.296 149.788 109.456 149.937 109.569 150.13C109.686 150.323 109.744 150.548 109.744 150.805C109.744 151.065 109.686 151.292 109.569 151.485C109.456 151.675 109.296 151.822 109.089 151.925C108.883 152.025 108.644 152.075 108.374 152.075ZM108.374 151.675C108.634 151.675 108.841 151.595 108.994 151.435C109.148 151.275 109.224 151.065 109.224 150.805C109.224 150.535 109.148 150.322 108.994 150.165C108.841 150.008 108.634 149.93 108.374 149.93C108.114 149.93 107.908 150.008 107.754 150.165C107.601 150.322 107.524 150.535 107.524 150.805C107.524 151.065 107.601 151.275 107.754 151.435C107.908 151.595 108.114 151.675 108.374 151.675ZM111.293 149.6H111.783V150.03C111.883 149.883 112.023 149.775 112.203 149.705C112.386 149.635 112.598 149.6 112.838 149.6V149.995C112.581 149.995 112.361 150.037 112.178 150.12C111.994 150.203 111.868 150.335 111.798 150.515V152H111.293V149.6ZM114.29 149.6H114.77V149.945C114.883 149.805 115.012 149.7 115.155 149.63C115.298 149.56 115.447 149.525 115.6 149.525C115.793 149.525 115.947 149.558 116.06 149.625C116.173 149.688 116.257 149.787 116.31 149.92C116.417 149.79 116.547 149.692 116.7 149.625C116.857 149.558 117.013 149.525 117.17 149.525C117.463 149.525 117.675 149.6 117.805 149.75C117.935 149.897 118 150.115 118 150.405V152H117.51V150.47C117.51 150.273 117.473 150.135 117.4 150.055C117.327 149.972 117.202 149.93 117.025 149.93C116.772 149.93 116.565 150.04 116.405 150.26C116.412 150.31 116.415 150.392 116.415 150.505V152H115.925V150.47C115.925 150.273 115.892 150.135 115.825 150.055C115.758 149.972 115.638 149.93 115.465 149.93C115.212 149.93 114.985 150.073 114.785 150.36V152H114.29V149.6ZM120.413 152.075C120.123 152.075 119.889 152.002 119.713 151.855C119.539 151.705 119.453 151.503 119.453 151.25C119.453 150.983 119.536 150.778 119.703 150.635C119.873 150.488 120.113 150.415 120.423 150.415C120.753 150.415 121.033 150.482 121.263 150.615V150.49C121.263 150.3 121.204 150.16 121.088 150.07C120.974 149.977 120.794 149.93 120.548 149.93C120.401 149.93 120.258 149.945 120.118 149.975C119.981 150.002 119.858 150.04 119.748 150.09V149.68C119.848 149.633 119.978 149.597 120.138 149.57C120.298 149.54 120.453 149.525 120.603 149.525C120.999 149.525 121.293 149.613 121.483 149.79C121.676 149.963 121.773 150.205 121.773 150.515V152H121.298V151.73C121.194 151.843 121.071 151.93 120.928 151.99C120.788 152.047 120.616 152.075 120.413 152.075ZM120.538 151.69C120.698 151.69 120.843 151.658 120.973 151.595C121.103 151.532 121.199 151.443 121.263 151.33V151.005C121.046 150.865 120.804 150.795 120.538 150.795C120.344 150.795 120.199 150.833 120.103 150.91C120.009 150.983 119.963 151.097 119.963 151.25C119.963 151.543 120.154 151.69 120.538 151.69ZM123.399 148.305H123.904V152H123.399V148.305ZM125.691 152C125.625 152 125.568 151.978 125.521 151.935C125.478 151.888 125.456 151.832 125.456 151.765C125.456 151.698 125.478 151.642 125.521 151.595C125.568 151.548 125.625 151.525 125.691 151.525C125.758 151.525 125.815 151.548 125.861 151.595C125.908 151.642 125.931 151.698 125.931 151.765C125.931 151.832 125.908 151.888 125.861 151.935C125.815 151.978 125.758 152 125.691 152ZM18.21 156.935H17.125V156.505H19.81V156.935H18.725V160H18.21V156.935ZM21.2596 156.305H21.7646V157.93C21.9946 157.66 22.3012 157.525 22.6846 157.525C23.0046 157.525 23.2429 157.61 23.3996 157.78C23.5562 157.95 23.6346 158.178 23.6346 158.465V160H23.1296V158.515C23.1296 158.125 22.9429 157.93 22.5696 157.93C22.4096 157.93 22.2596 157.968 22.1196 158.045C21.9829 158.118 21.8646 158.232 21.7646 158.385V160H21.2596V156.305ZM26.5776 160.075C26.1343 160.075 25.786 159.965 25.5326 159.745C25.2826 159.522 25.1576 159.208 25.1576 158.805C25.1576 158.412 25.2693 158.1 25.4926 157.87C25.7193 157.64 26.041 157.525 26.4576 157.525C26.7343 157.525 26.9693 157.578 27.1626 157.685C27.356 157.788 27.501 157.933 27.5976 158.12C27.6976 158.303 27.7476 158.513 27.7476 158.75V159H25.6376C25.6543 159.227 25.7493 159.397 25.9226 159.51C26.0993 159.62 26.3376 159.675 26.6376 159.675C26.791 159.675 26.946 159.662 27.1026 159.635C27.2593 159.605 27.3976 159.567 27.5176 159.52V159.925C27.411 159.968 27.2693 160.003 27.0926 160.03C26.9193 160.06 26.7476 160.075 26.5776 160.075ZM27.2726 158.645C27.266 158.418 27.191 158.243 27.0476 158.12C26.9076 157.993 26.7076 157.93 26.4476 157.93C26.1943 157.93 25.9976 157.995 25.8576 158.125C25.7176 158.255 25.6443 158.428 25.6376 158.645H27.2726ZM29.2996 157.6H29.7896V158.03C29.8896 157.883 30.0296 157.775 30.2096 157.705C30.3929 157.635 30.6046 157.6 30.8446 157.6V157.995C30.5879 157.995 30.3679 158.037 30.1846 158.12C30.0013 158.203 29.8746 158.335 29.8046 158.515V160H29.2996V157.6ZM33.4653 160.075C33.022 160.075 32.6736 159.965 32.4203 159.745C32.1703 159.522 32.0453 159.208 32.0453 158.805C32.0453 158.412 32.157 158.1 32.3803 157.87C32.607 157.64 32.9286 157.525 33.3453 157.525C33.622 157.525 33.857 157.578 34.0503 157.685C34.2436 157.788 34.3886 157.933 34.4853 158.12C34.5853 158.303 34.6353 158.513 34.6353 158.75V159H32.5253C32.542 159.227 32.637 159.397 32.8103 159.51C32.987 159.62 33.2253 159.675 33.5253 159.675C33.6786 159.675 33.8336 159.662 33.9903 159.635C34.147 159.605 34.2853 159.567 34.4053 159.52V159.925C34.2986 159.968 34.157 160.003 33.9803 160.03C33.807 160.06 33.6353 160.075 33.4653 160.075ZM34.1603 158.645C34.1536 158.418 34.0786 158.243 33.9353 158.12C33.7953 157.993 33.5953 157.93 33.3353 157.93C33.082 157.93 32.8853 157.995 32.7453 158.125C32.6053 158.255 32.532 158.428 32.5253 158.645H34.1603ZM39.3329 157.13C39.2496 157.13 39.1796 157.102 39.1229 157.045C39.0662 156.988 39.0379 156.918 39.0379 156.835C39.0379 156.752 39.0662 156.682 39.1229 156.625C39.1796 156.568 39.2496 156.54 39.3329 156.54C39.4196 156.54 39.4912 156.568 39.5479 156.625C39.6079 156.682 39.6379 156.752 39.6379 156.835C39.6379 156.918 39.6079 156.988 39.5479 157.045C39.4912 157.102 39.4196 157.13 39.3329 157.13ZM39.0779 157.6H39.5929V160H39.0779V157.6ZM42.1729 160.075C42.0062 160.075 41.8296 160.053 41.6429 160.01C41.4562 159.97 41.3096 159.915 41.2029 159.845V159.415C41.3329 159.492 41.4829 159.555 41.6529 159.605C41.8229 159.652 41.9879 159.675 42.1479 159.675C42.3279 159.675 42.4596 159.653 42.5429 159.61C42.6262 159.567 42.6679 159.497 42.6679 159.4C42.6679 159.327 42.6479 159.268 42.6079 159.225C42.5712 159.178 42.5062 159.137 42.4129 159.1C42.3229 159.063 42.1862 159.02 42.0029 158.97C41.8062 158.913 41.6496 158.857 41.5329 158.8C41.4196 158.74 41.3329 158.665 41.2729 158.575C41.2162 158.485 41.1879 158.368 41.1879 158.225C41.1879 157.995 41.2779 157.822 41.4579 157.705C41.6412 157.585 41.8862 157.525 42.1929 157.525C42.3529 157.525 42.5096 157.54 42.6629 157.57C42.8162 157.6 42.9396 157.642 43.0329 157.695V158.115C42.9362 158.058 42.8162 158.013 42.6729 157.98C42.5329 157.947 42.3896 157.93 42.2429 157.93C42.0662 157.93 41.9312 157.952 41.8379 157.995C41.7446 158.038 41.6979 158.115 41.6979 158.225C41.6979 158.295 41.7179 158.352 41.7579 158.395C41.7979 158.438 41.8612 158.477 41.9479 158.51C42.0379 158.54 42.1796 158.58 42.3729 158.63C42.6762 158.713 42.8862 158.812 43.0029 158.925C43.1229 159.038 43.1829 159.195 43.1829 159.395C43.1829 159.602 43.0979 159.767 42.9279 159.89C42.7579 160.013 42.5062 160.075 42.1729 160.075ZM47.5848 157.6H48.0748V157.945C48.1881 157.802 48.3264 157.697 48.4898 157.63C48.6564 157.56 48.8298 157.525 49.0098 157.525C49.3298 157.525 49.5681 157.61 49.7248 157.78C49.8814 157.95 49.9598 158.178 49.9598 158.465V160H49.4548V158.515C49.4548 158.125 49.2681 157.93 48.8948 157.93C48.7348 157.93 48.5848 157.968 48.4448 158.045C48.3081 158.118 48.1898 158.232 48.0898 158.385V160H47.5848V157.6ZM52.7746 160.075C52.5046 160.075 52.2662 160.025 52.0596 159.925C51.8562 159.822 51.6962 159.675 51.5796 159.485C51.4662 159.292 51.4096 159.065 51.4096 158.805C51.4096 158.548 51.4662 158.323 51.5796 158.13C51.6929 157.937 51.8529 157.788 52.0596 157.685C52.2662 157.578 52.5046 157.525 52.7746 157.525C53.0446 157.525 53.2829 157.578 53.4896 157.685C53.6962 157.788 53.8562 157.937 53.9696 158.13C54.0862 158.323 54.1446 158.548 54.1446 158.805C54.1446 159.065 54.0862 159.292 53.9696 159.485C53.8562 159.675 53.6962 159.822 53.4896 159.925C53.2829 160.025 53.0446 160.075 52.7746 160.075ZM52.7746 159.675C53.0346 159.675 53.2412 159.595 53.3946 159.435C53.5479 159.275 53.6246 159.065 53.6246 158.805C53.6246 158.535 53.5479 158.322 53.3946 158.165C53.2412 158.008 53.0346 157.93 52.7746 157.93C52.5146 157.93 52.3079 158.008 52.1546 158.165C52.0012 158.322 51.9246 158.535 51.9246 158.805C51.9246 159.065 52.0012 159.275 52.1546 159.435C52.3079 159.595 52.5146 159.675 52.7746 159.675ZM56.5449 160.075C56.3016 160.075 56.1133 160.005 55.9799 159.865C55.8499 159.725 55.7849 159.527 55.7849 159.27V157.99H55.4199V157.6H55.7849V156.88H56.2949V157.6H56.8849V157.99H56.2949V159.235C56.2949 159.395 56.3249 159.508 56.3849 159.575C56.4483 159.642 56.5616 159.675 56.7249 159.675C56.8216 159.675 56.9183 159.653 57.0149 159.61V160.01C56.8883 160.053 56.7316 160.075 56.5449 160.075ZM58.49 156.305H58.995V157.93C59.225 157.66 59.5317 157.525 59.915 157.525C60.235 157.525 60.4734 157.61 60.63 157.78C60.7867 157.95 60.865 158.178 60.865 158.465V160H60.36V158.515C60.36 158.125 60.1734 157.93 59.8 157.93C59.64 157.93 59.49 157.968 59.35 158.045C59.2134 158.118 59.095 158.232 58.995 158.385V160H58.49V156.305ZM62.7831 157.13C62.6998 157.13 62.6298 157.102 62.5731 157.045C62.5164 156.988 62.4881 156.918 62.4881 156.835C62.4881 156.752 62.5164 156.682 62.5731 156.625C62.6298 156.568 62.6998 156.54 62.7831 156.54C62.8698 156.54 62.9414 156.568 62.9981 156.625C63.0581 156.682 63.0881 156.752 63.0881 156.835C63.0881 156.918 63.0581 156.988 62.9981 157.045C62.9414 157.102 62.8698 157.13 62.7831 157.13ZM62.5281 157.6H63.0431V160H62.5281V157.6ZM64.7381 157.6H65.2281V157.945C65.3414 157.802 65.4798 157.697 65.6431 157.63C65.8098 157.56 65.9831 157.525 66.1631 157.525C66.4831 157.525 66.7214 157.61 66.8781 157.78C67.0348 157.95 67.1131 158.178 67.1131 158.465V160H66.6081V158.515C66.6081 158.125 66.4214 157.93 66.0481 157.93C65.8881 157.93 65.7381 157.968 65.5981 158.045C65.4614 158.118 65.3431 158.232 65.2431 158.385V160H64.7381V157.6ZM69.9911 161.15C69.8278 161.15 69.6678 161.137 69.5111 161.11C69.3578 161.083 69.2278 161.045 69.1211 160.995V160.58C69.3711 160.693 69.6611 160.75 69.9911 160.75C70.3011 160.75 70.5261 160.682 70.6661 160.545C70.8095 160.412 70.8811 160.208 70.8811 159.935V159.68C70.6611 159.943 70.3378 160.075 69.9111 160.075C69.6678 160.075 69.4495 160.022 69.2561 159.915C69.0628 159.808 68.9111 159.658 68.8011 159.465C68.6911 159.272 68.6361 159.05 68.6361 158.8C68.6361 158.547 68.6895 158.325 68.7961 158.135C68.9061 157.942 69.0561 157.792 69.2461 157.685C69.4395 157.578 69.6561 157.525 69.8961 157.525C70.1195 157.525 70.3078 157.558 70.4611 157.625C70.6178 157.688 70.7628 157.795 70.8961 157.945V157.6H71.3861V159.88C71.3861 160.29 71.2711 160.603 71.0411 160.82C70.8145 161.04 70.4645 161.15 69.9911 161.15ZM70.0111 159.675C70.2178 159.675 70.3995 159.62 70.5561 159.51C70.7161 159.4 70.8245 159.253 70.8811 159.07V158.53C70.8178 158.343 70.7078 158.197 70.5511 158.09C70.3978 157.983 70.2178 157.93 70.0111 157.93C69.8478 157.93 69.6995 157.967 69.5661 158.04C69.4361 158.11 69.3328 158.212 69.2561 158.345C69.1828 158.478 69.1461 158.63 69.1461 158.8C69.1461 158.973 69.1828 159.127 69.2561 159.26C69.3328 159.39 69.4361 159.492 69.5661 159.565C69.6995 159.638 69.8478 159.675 70.0111 159.675ZM75.7875 157.6H76.3025L76.8425 159.38L77.3775 157.6H77.8325L78.3675 159.38L78.9075 157.6H79.4275L78.6475 160H78.1625L77.6075 158.21L77.0525 160H76.5625L75.7875 157.6ZM80.9061 157.6H81.3961V158.03C81.4961 157.883 81.6361 157.775 81.8161 157.705C81.9994 157.635 82.2111 157.6 82.4511 157.6V157.995C82.1944 157.995 81.9744 158.037 81.7911 158.12C81.6077 158.203 81.4811 158.335 81.4111 158.515V160H80.9061V157.6ZM85.0949 160.075C84.8249 160.075 84.5865 160.025 84.3799 159.925C84.1765 159.822 84.0165 159.675 83.8999 159.485C83.7865 159.292 83.7299 159.065 83.7299 158.805C83.7299 158.548 83.7865 158.323 83.8999 158.13C84.0132 157.937 84.1732 157.788 84.3799 157.685C84.5865 157.578 84.8249 157.525 85.0949 157.525C85.3649 157.525 85.6032 157.578 85.8099 157.685C86.0165 157.788 86.1765 157.937 86.2899 158.13C86.4065 158.323 86.4649 158.548 86.4649 158.805C86.4649 159.065 86.4065 159.292 86.2899 159.485C86.1765 159.675 86.0165 159.822 85.8099 159.925C85.6032 160.025 85.3649 160.075 85.0949 160.075ZM85.0949 159.675C85.3549 159.675 85.5615 159.595 85.7149 159.435C85.8682 159.275 85.9449 159.065 85.9449 158.805C85.9449 158.535 85.8682 158.322 85.7149 158.165C85.5615 158.008 85.3549 157.93 85.0949 157.93C84.8349 157.93 84.6282 158.008 84.4749 158.165C84.3215 158.322 84.2449 158.535 84.2449 158.805C84.2449 159.065 84.3215 159.275 84.4749 159.435C84.6282 159.595 84.8349 159.675 85.0949 159.675ZM88.0135 157.6H88.5035V157.945C88.6168 157.802 88.7551 157.697 88.9185 157.63C89.0851 157.56 89.2585 157.525 89.4385 157.525C89.7585 157.525 89.9968 157.61 90.1535 157.78C90.3101 157.95 90.3885 158.178 90.3885 158.465V160H89.8835V158.515C89.8835 158.125 89.6968 157.93 89.3235 157.93C89.1635 157.93 89.0135 157.968 88.8735 158.045C88.7368 158.118 88.6185 158.232 88.5185 158.385V160H88.0135V157.6ZM93.2665 161.15C93.1032 161.15 92.9432 161.137 92.7865 161.11C92.6332 161.083 92.5032 161.045 92.3965 160.995V160.58C92.6465 160.693 92.9365 160.75 93.2665 160.75C93.5765 160.75 93.8015 160.682 93.9415 160.545C94.0849 160.412 94.1565 160.208 94.1565 159.935V159.68C93.9365 159.943 93.6132 160.075 93.1865 160.075C92.9432 160.075 92.7249 160.022 92.5315 159.915C92.3382 159.808 92.1865 159.658 92.0765 159.465C91.9665 159.272 91.9115 159.05 91.9115 158.8C91.9115 158.547 91.9649 158.325 92.0715 158.135C92.1815 157.942 92.3315 157.792 92.5215 157.685C92.7149 157.578 92.9315 157.525 93.1715 157.525C93.3949 157.525 93.5832 157.558 93.7365 157.625C93.8932 157.688 94.0382 157.795 94.1715 157.945V157.6H94.6615V159.88C94.6615 160.29 94.5465 160.603 94.3165 160.82C94.0899 161.04 93.7399 161.15 93.2665 161.15ZM93.2865 159.675C93.4932 159.675 93.6749 159.62 93.8315 159.51C93.9915 159.4 94.0999 159.253 94.1565 159.07V158.53C94.0932 158.343 93.9832 158.197 93.8265 158.09C93.6732 157.983 93.4932 157.93 93.2865 157.93C93.1232 157.93 92.9749 157.967 92.8415 158.04C92.7115 158.11 92.6082 158.212 92.5315 158.345C92.4582 158.478 92.4215 158.63 92.4215 158.8C92.4215 158.973 92.4582 159.127 92.5315 159.26C92.6082 159.39 92.7115 159.492 92.8415 159.565C92.9749 159.638 93.1232 159.675 93.2865 159.675ZM99.1629 157.6H99.6529V157.945C99.7662 157.802 99.9046 157.697 100.068 157.63C100.235 157.56 100.408 157.525 100.588 157.525C100.908 157.525 101.146 157.61 101.303 157.78C101.46 157.95 101.538 158.178 101.538 158.465V160H101.033V158.515C101.033 158.125 100.846 157.93 100.473 157.93C100.313 157.93 100.163 157.968 100.023 158.045C99.8862 158.118 99.7679 158.232 99.6679 158.385V160H99.1629V157.6ZM104.353 160.075C104.083 160.075 103.844 160.025 103.638 159.925C103.434 159.822 103.274 159.675 103.158 159.485C103.044 159.292 102.988 159.065 102.988 158.805C102.988 158.548 103.044 158.323 103.158 158.13C103.271 157.937 103.431 157.788 103.638 157.685C103.844 157.578 104.083 157.525 104.353 157.525C104.623 157.525 104.861 157.578 105.068 157.685C105.274 157.788 105.434 157.937 105.548 158.13C105.664 158.323 105.723 158.548 105.723 158.805C105.723 159.065 105.664 159.292 105.548 159.485C105.434 159.675 105.274 159.822 105.068 159.925C104.861 160.025 104.623 160.075 104.353 160.075ZM104.353 159.675C104.613 159.675 104.819 159.595 104.973 159.435C105.126 159.275 105.203 159.065 105.203 158.805C105.203 158.535 105.126 158.322 104.973 158.165C104.819 158.008 104.613 157.93 104.353 157.93C104.093 157.93 103.886 158.008 103.733 158.165C103.579 158.322 103.503 158.535 103.503 158.805C103.503 159.065 103.579 159.275 103.733 159.435C103.886 159.595 104.093 159.675 104.353 159.675ZM107.271 157.6H107.761V158.03C107.861 157.883 108.001 157.775 108.181 157.705C108.365 157.635 108.576 157.6 108.816 157.6V157.995C108.56 157.995 108.34 158.037 108.156 158.12C107.973 158.203 107.846 158.335 107.776 158.515V160H107.271V157.6ZM113.019 157.6H113.534L114.074 159.38L114.609 157.6H115.064L115.599 159.38L116.139 157.6H116.659L115.879 160H115.394L114.839 158.21L114.284 160H113.794L113.019 157.6ZM119.379 160.075C118.936 160.075 118.588 159.965 118.334 159.745C118.084 159.522 117.959 159.208 117.959 158.805C117.959 158.412 118.071 158.1 118.294 157.87C118.521 157.64 118.843 157.525 119.259 157.525C119.536 157.525 119.771 157.578 119.964 157.685C120.158 157.788 120.303 157.933 120.399 158.12C120.499 158.303 120.549 158.513 120.549 158.75V159H118.439C118.456 159.227 118.551 159.397 118.724 159.51C118.901 159.62 119.139 159.675 119.439 159.675C119.593 159.675 119.748 159.662 119.904 159.635C120.061 159.605 120.199 159.567 120.319 159.52V159.925C120.213 159.968 120.071 160.003 119.894 160.03C119.721 160.06 119.549 160.075 119.379 160.075ZM120.074 158.645C120.068 158.418 119.993 158.243 119.849 158.12C119.709 157.993 119.509 157.93 119.249 157.93C118.996 157.93 118.799 157.995 118.659 158.125C118.519 158.255 118.446 158.428 118.439 158.645H120.074ZM122.396 157.13C122.313 157.13 122.243 157.102 122.186 157.045C122.13 156.988 122.101 156.918 122.101 156.835C122.101 156.752 122.13 156.682 122.186 156.625C122.243 156.568 122.313 156.54 122.396 156.54C122.483 156.54 122.555 156.568 122.611 156.625C122.671 156.682 122.701 156.752 122.701 156.835C122.701 156.918 122.671 156.988 122.611 157.045C122.555 157.102 122.483 157.13 122.396 157.13ZM122.141 157.6H122.656V160H122.141V157.6ZM124.351 157.6H124.841V158.03C124.941 157.883 125.081 157.775 125.261 157.705C125.445 157.635 125.656 157.6 125.896 157.6V157.995C125.64 157.995 125.42 158.037 125.236 158.12C125.053 158.203 124.926 158.335 124.856 158.515V160H124.351V157.6ZM128.435 160.075C128.195 160.075 127.979 160.023 127.785 159.92C127.595 159.813 127.445 159.665 127.335 159.475C127.229 159.282 127.175 159.058 127.175 158.805C127.175 158.555 127.229 158.333 127.335 158.14C127.445 157.947 127.595 157.797 127.785 157.69C127.979 157.58 128.195 157.525 128.435 157.525C128.869 157.525 129.197 157.657 129.42 157.92V156.305H129.925V160H129.435V159.65C129.302 159.797 129.155 159.905 128.995 159.975C128.839 160.042 128.652 160.075 128.435 160.075ZM128.55 159.675C128.757 159.675 128.937 159.622 129.09 159.515C129.247 159.405 129.357 159.258 129.42 159.075V158.535C129.364 158.352 129.255 158.205 129.095 158.095C128.939 157.985 128.757 157.93 128.55 157.93C128.387 157.93 128.239 157.967 128.105 158.04C127.975 158.113 127.872 158.217 127.795 158.35C127.722 158.483 127.685 158.635 127.685 158.805C127.685 158.975 127.722 159.127 127.795 159.26C127.872 159.393 127.975 159.497 128.105 159.57C128.239 159.64 128.387 159.675 128.55 159.675ZM18.185 168.075C17.895 168.075 17.6617 168.002 17.485 167.855C17.3117 167.705 17.225 167.503 17.225 167.25C17.225 166.983 17.3083 166.778 17.475 166.635C17.645 166.488 17.885 166.415 18.195 166.415C18.525 166.415 18.805 166.482 19.035 166.615V166.49C19.035 166.3 18.9767 166.16 18.86 166.07C18.7467 165.977 18.5667 165.93 18.32 165.93C18.1733 165.93 18.03 165.945 17.89 165.975C17.7533 166.002 17.63 166.04 17.52 166.09V165.68C17.62 165.633 17.75 165.597 17.91 165.57C18.07 165.54 18.225 165.525 18.375 165.525C18.7717 165.525 19.065 165.613 19.255 165.79C19.4483 165.963 19.545 166.205 19.545 166.515V168H19.07V167.73C18.9667 167.843 18.8433 167.93 18.7 167.99C18.56 168.047 18.3883 168.075 18.185 168.075ZM18.31 167.69C18.47 167.69 18.615 167.658 18.745 167.595C18.875 167.532 18.9717 167.443 19.035 167.33V167.005C18.8183 166.865 18.5767 166.795 18.31 166.795C18.1167 166.795 17.9717 166.833 17.875 166.91C17.7817 166.983 17.735 167.097 17.735 167.25C17.735 167.543 17.9267 167.69 18.31 167.69ZM22.6617 168.075C22.445 168.075 22.2567 168.042 22.0967 167.975C21.94 167.905 21.795 167.797 21.6617 167.65V168H21.1717V164.305H21.6767V165.92C21.7867 165.79 21.9283 165.692 22.1017 165.625C22.275 165.558 22.4617 165.525 22.6617 165.525C22.9017 165.525 23.1167 165.58 23.3067 165.69C23.5 165.797 23.65 165.947 23.7567 166.14C23.8667 166.333 23.9217 166.555 23.9217 166.805C23.9217 167.058 23.8667 167.282 23.7567 167.475C23.65 167.665 23.5 167.813 23.3067 167.92C23.1167 168.023 22.9017 168.075 22.6617 168.075ZM22.5467 167.675C22.71 167.675 22.8567 167.64 22.9867 167.57C23.12 167.497 23.2233 167.393 23.2967 167.26C23.3733 167.127 23.4117 166.975 23.4117 166.805C23.4117 166.635 23.3733 166.483 23.2967 166.35C23.2233 166.217 23.12 166.113 22.9867 166.04C22.8567 165.967 22.71 165.93 22.5467 165.93C22.3433 165.93 22.1617 165.985 22.0017 166.095C21.8417 166.205 21.7333 166.352 21.6767 166.535V167.075C21.74 167.258 21.8483 167.405 22.0017 167.515C22.1583 167.622 22.34 167.675 22.5467 167.675ZM26.6105 168.075C26.3405 168.075 26.1022 168.025 25.8955 167.925C25.6922 167.822 25.5322 167.675 25.4155 167.485C25.3022 167.292 25.2455 167.065 25.2455 166.805C25.2455 166.548 25.3022 166.323 25.4155 166.13C25.5288 165.937 25.6888 165.788 25.8955 165.685C26.1022 165.578 26.3405 165.525 26.6105 165.525C26.8805 165.525 27.1188 165.578 27.3255 165.685C27.5322 165.788 27.6922 165.937 27.8055 166.13C27.9222 166.323 27.9805 166.548 27.9805 166.805C27.9805 167.065 27.9222 167.292 27.8055 167.485C27.6922 167.675 27.5322 167.822 27.3255 167.925C27.1188 168.025 26.8805 168.075 26.6105 168.075ZM26.6105 167.675C26.8705 167.675 27.0772 167.595 27.2305 167.435C27.3838 167.275 27.4605 167.065 27.4605 166.805C27.4605 166.535 27.3838 166.322 27.2305 166.165C27.0772 166.008 26.8705 165.93 26.6105 165.93C26.3505 165.93 26.1438 166.008 25.9905 166.165C25.8372 166.322 25.7605 166.535 25.7605 166.805C25.7605 167.065 25.8372 167.275 25.9905 167.435C26.1438 167.595 26.3505 167.675 26.6105 167.675ZM30.4841 168.075C30.1608 168.075 29.9158 167.988 29.7491 167.815C29.5858 167.642 29.5041 167.41 29.5041 167.12V165.6H30.0091V167.1C30.0091 167.483 30.2008 167.675 30.5841 167.675C30.9208 167.675 31.1841 167.523 31.3741 167.22V165.6H31.8791V168H31.3891V167.66C31.2758 167.803 31.1408 167.908 30.9841 167.975C30.8308 168.042 30.6641 168.075 30.4841 168.075ZM34.4521 168.075C34.2088 168.075 34.0205 168.005 33.8871 167.865C33.7571 167.725 33.6921 167.527 33.6921 167.27V165.99H33.3271V165.6H33.6921V164.88H34.2021V165.6H34.7921V165.99H34.2021V167.235C34.2021 167.395 34.2321 167.508 34.2921 167.575C34.3555 167.642 34.4688 167.675 34.6321 167.675C34.7288 167.675 34.8255 167.653 34.9221 167.61V168.01C34.7955 168.053 34.6388 168.075 34.4521 168.075ZM40.1729 168.075C39.9295 168.075 39.7412 168.005 39.6079 167.865C39.4779 167.725 39.4129 167.527 39.4129 167.27V165.99H39.0479V165.6H39.4129V164.88H39.9229V165.6H40.5129V165.99H39.9229V167.235C39.9229 167.395 39.9529 167.508 40.0129 167.575C40.0762 167.642 40.1895 167.675 40.3529 167.675C40.4495 167.675 40.5462 167.653 40.6429 167.61V168.01C40.5162 168.053 40.3595 168.075 40.1729 168.075ZM42.118 164.305H42.623V165.93C42.853 165.66 43.1596 165.525 43.543 165.525C43.863 165.525 44.1013 165.61 44.258 165.78C44.4146 165.95 44.493 166.178 44.493 166.465V168H43.988V166.515C43.988 166.125 43.8013 165.93 43.428 165.93C43.268 165.93 43.118 165.968 42.978 166.045C42.8413 166.118 42.723 166.232 42.623 166.385V168H42.118V164.305ZM46.411 165.13C46.3277 165.13 46.2577 165.102 46.201 165.045C46.1443 164.988 46.116 164.918 46.116 164.835C46.116 164.752 46.1443 164.682 46.201 164.625C46.2577 164.568 46.3277 164.54 46.411 164.54C46.4977 164.54 46.5693 164.568 46.626 164.625C46.686 164.682 46.716 164.752 46.716 164.835C46.716 164.918 46.686 164.988 46.626 165.045C46.5693 165.102 46.4977 165.13 46.411 165.13ZM46.156 165.6H46.671V168H46.156V165.6ZM49.251 168.075C49.0843 168.075 48.9077 168.053 48.721 168.01C48.5343 167.97 48.3877 167.915 48.281 167.845V167.415C48.411 167.492 48.561 167.555 48.731 167.605C48.901 167.652 49.066 167.675 49.226 167.675C49.406 167.675 49.5377 167.653 49.621 167.61C49.7043 167.567 49.746 167.497 49.746 167.4C49.746 167.327 49.726 167.268 49.686 167.225C49.6493 167.178 49.5843 167.137 49.491 167.1C49.401 167.063 49.2643 167.02 49.081 166.97C48.8843 166.913 48.7277 166.857 48.611 166.8C48.4977 166.74 48.411 166.665 48.351 166.575C48.2943 166.485 48.266 166.368 48.266 166.225C48.266 165.995 48.356 165.822 48.536 165.705C48.7193 165.585 48.9643 165.525 49.271 165.525C49.431 165.525 49.5877 165.54 49.741 165.57C49.8943 165.6 50.0177 165.642 50.111 165.695V166.115C50.0143 166.058 49.8943 166.013 49.751 165.98C49.611 165.947 49.4677 165.93 49.321 165.93C49.1443 165.93 49.0093 165.952 48.916 165.995C48.8227 166.038 48.776 166.115 48.776 166.225C48.776 166.295 48.796 166.352 48.836 166.395C48.876 166.438 48.9393 166.477 49.026 166.51C49.116 166.54 49.2577 166.58 49.451 166.63C49.7543 166.713 49.9643 166.812 50.081 166.925C50.201 167.038 50.261 167.195 50.261 167.395C50.261 167.602 50.176 167.767 50.006 167.89C49.836 168.013 49.5843 168.075 49.251 168.075ZM54.5629 165.6H55.0779L55.6179 167.38L56.1529 165.6H56.6079L57.1429 167.38L57.6829 165.6H58.2029L57.4229 168H56.9379L56.3829 166.21L55.8279 168H55.3379L54.5629 165.6ZM60.3413 168.075C60.0513 168.075 59.8179 168.002 59.6413 167.855C59.4679 167.705 59.3813 167.503 59.3813 167.25C59.3813 166.983 59.4646 166.778 59.6313 166.635C59.8013 166.488 60.0413 166.415 60.3513 166.415C60.6813 166.415 60.9613 166.482 61.1913 166.615V166.49C61.1913 166.3 61.1329 166.16 61.0163 166.07C60.9029 165.977 60.7229 165.93 60.4762 165.93C60.3296 165.93 60.1863 165.945 60.0463 165.975C59.9096 166.002 59.7863 166.04 59.6763 166.09V165.68C59.7763 165.633 59.9063 165.597 60.0663 165.57C60.2263 165.54 60.3813 165.525 60.5313 165.525C60.9279 165.525 61.2213 165.613 61.4113 165.79C61.6046 165.963 61.7013 166.205 61.7013 166.515V168H61.2263V167.73C61.1229 167.843 60.9996 167.93 60.8563 167.99C60.7163 168.047 60.5446 168.075 60.3413 168.075ZM60.4663 167.69C60.6263 167.69 60.7713 167.658 60.9013 167.595C61.0313 167.532 61.1279 167.443 61.1913 167.33V167.005C60.9746 166.865 60.7329 166.795 60.4663 166.795C60.2729 166.795 60.1279 166.833 60.0313 166.91C59.9379 166.983 59.8912 167.097 59.8912 167.25C59.8912 167.543 60.0829 167.69 60.4663 167.69ZM64.126 168.075C63.8826 168.075 63.6943 168.005 63.561 167.865C63.431 167.725 63.366 167.527 63.366 167.27V165.99H63.001V165.6H63.366V164.88H63.876V165.6H64.466V165.99H63.876V167.235C63.876 167.395 63.906 167.508 63.966 167.575C64.0293 167.642 64.1426 167.675 64.306 167.675C64.4026 167.675 64.4993 167.653 64.596 167.61V168.01C64.4693 168.053 64.3126 168.075 64.126 168.075ZM67.3911 168.075C66.9478 168.075 66.5994 167.965 66.3461 167.745C66.0961 167.522 65.9711 167.208 65.9711 166.805C65.9711 166.412 66.0828 166.1 66.3061 165.87C66.5328 165.64 66.8544 165.525 67.2711 165.525C67.5478 165.525 67.7828 165.578 67.9761 165.685C68.1694 165.788 68.3144 165.933 68.4111 166.12C68.5111 166.303 68.5611 166.513 68.5611 166.75V167H66.4511C66.4678 167.227 66.5628 167.397 66.7361 167.51C66.9128 167.62 67.1511 167.675 67.4511 167.675C67.6044 167.675 67.7594 167.662 67.9161 167.635C68.0728 167.605 68.2111 167.567 68.3311 167.52V167.925C68.2244 167.968 68.0828 168.003 67.9061 168.03C67.7328 168.06 67.5611 168.075 67.3911 168.075ZM68.0861 166.645C68.0794 166.418 68.0044 166.243 67.8611 166.12C67.7211 165.993 67.5211 165.93 67.2611 165.93C67.0078 165.93 66.8111 165.995 66.6711 166.125C66.5311 166.255 66.4578 166.428 66.4511 166.645H68.0861ZM70.1131 165.6H70.6031V166.03C70.7031 165.883 70.8431 165.775 71.0231 165.705C71.2064 165.635 71.4181 165.6 71.6581 165.6V165.995C71.4014 165.995 71.1814 166.037 70.9981 166.12C70.8148 166.203 70.6881 166.335 70.6181 166.515V168H70.1131V165.6ZM73.2452 168C73.1785 168 73.1218 167.978 73.0752 167.935C73.0318 167.888 73.0102 167.832 73.0102 167.765C73.0102 167.698 73.0318 167.642 73.0752 167.595C73.1218 167.548 73.1785 167.525 73.2452 167.525C73.3118 167.525 73.3685 167.548 73.4152 167.595C73.4618 167.642 73.4852 167.698 73.4852 167.765C73.4852 167.832 73.4618 167.888 73.4152 167.935C73.3685 167.978 73.3118 168 73.2452 168ZM79.0536 166.675L77.7836 164.505H78.3286L79.3036 166.19L80.2936 164.505H80.8336L79.5486 166.675V168H79.0536V166.675ZM82.9269 168.075C82.6569 168.075 82.4186 168.025 82.2119 167.925C82.0086 167.822 81.8486 167.675 81.7319 167.485C81.6186 167.292 81.5619 167.065 81.5619 166.805C81.5619 166.548 81.6186 166.323 81.7319 166.13C81.8452 165.937 82.0052 165.788 82.2119 165.685C82.4186 165.578 82.6569 165.525 82.9269 165.525C83.1969 165.525 83.4352 165.578 83.6419 165.685C83.8486 165.788 84.0086 165.937 84.1219 166.13C84.2386 166.323 84.2969 166.548 84.2969 166.805C84.2969 167.065 84.2386 167.292 84.1219 167.485C84.0086 167.675 83.8486 167.822 83.6419 167.925C83.4352 168.025 83.1969 168.075 82.9269 168.075ZM82.9269 167.675C83.1869 167.675 83.3936 167.595 83.5469 167.435C83.7002 167.275 83.7769 167.065 83.7769 166.805C83.7769 166.535 83.7002 166.322 83.5469 166.165C83.3936 166.008 83.1869 165.93 82.9269 165.93C82.6669 165.93 82.4602 166.008 82.3069 166.165C82.1536 166.322 82.0769 166.535 82.0769 166.805C82.0769 167.065 82.1536 167.275 82.3069 167.435C82.4602 167.595 82.6669 167.675 82.9269 167.675ZM86.8005 168.075C86.4772 168.075 86.2322 167.988 86.0655 167.815C85.9022 167.642 85.8205 167.41 85.8205 167.12V165.6H86.3255V167.1C86.3255 167.483 86.5172 167.675 86.9005 167.675C87.2372 167.675 87.5005 167.523 87.6905 167.22V165.6H88.1955V168H87.7055V167.66C87.5922 167.803 87.4572 167.908 87.3005 167.975C87.1472 168.042 86.9805 168.075 86.8005 168.075ZM93.9591 168.075C93.6925 168.075 93.4558 168.025 93.2491 167.925C93.0425 167.825 92.8808 167.68 92.7641 167.49C92.6508 167.297 92.5941 167.068 92.5941 166.805C92.5941 166.542 92.6508 166.315 92.7641 166.125C92.8808 165.932 93.0425 165.783 93.2491 165.68C93.4591 165.577 93.6991 165.525 93.9691 165.525C94.3358 165.525 94.6291 165.597 94.8491 165.74V166.155C94.6325 166.005 94.3558 165.93 94.0191 165.93C93.7458 165.93 93.5241 166.005 93.3541 166.155C93.1875 166.302 93.1041 166.518 93.1041 166.805C93.1041 167.092 93.1875 167.308 93.3541 167.455C93.5208 167.602 93.7391 167.675 94.0091 167.675C94.3458 167.675 94.6358 167.595 94.8791 167.435V167.845C94.7625 167.925 94.6291 167.983 94.4791 168.02C94.3325 168.057 94.1591 168.075 93.9591 168.075ZM97.2641 168.075C96.9741 168.075 96.7408 168.002 96.5641 167.855C96.3908 167.705 96.3041 167.503 96.3041 167.25C96.3041 166.983 96.3874 166.778 96.5541 166.635C96.7241 166.488 96.9641 166.415 97.2741 166.415C97.6041 166.415 97.8841 166.482 98.1141 166.615V166.49C98.1141 166.3 98.0558 166.16 97.9391 166.07C97.8258 165.977 97.6458 165.93 97.3991 165.93C97.2524 165.93 97.1091 165.945 96.9691 165.975C96.8324 166.002 96.7091 166.04 96.5991 166.09V165.68C96.6991 165.633 96.8291 165.597 96.9891 165.57C97.1491 165.54 97.3041 165.525 97.4541 165.525C97.8508 165.525 98.1441 165.613 98.3341 165.79C98.5274 165.963 98.6241 166.205 98.6241 166.515V168H98.1491V167.73C98.0458 167.843 97.9224 167.93 97.7791 167.99C97.6391 168.047 97.4674 168.075 97.2641 168.075ZM97.3891 167.69C97.5491 167.69 97.6941 167.658 97.8241 167.595C97.9541 167.532 98.0508 167.443 98.1141 167.33V167.005C97.8974 166.865 97.6558 166.795 97.3891 166.795C97.1958 166.795 97.0508 166.833 96.9541 166.91C96.8608 166.983 96.8141 167.097 96.8141 167.25C96.8141 167.543 97.0058 167.69 97.3891 167.69ZM100.251 165.6H100.741V165.945C100.854 165.802 100.992 165.697 101.156 165.63C101.322 165.56 101.496 165.525 101.676 165.525C101.996 165.525 102.234 165.61 102.391 165.78C102.547 165.95 102.626 166.178 102.626 166.465V168H102.121V166.515C102.121 166.125 101.934 165.93 101.561 165.93C101.401 165.93 101.251 165.968 101.111 166.045C100.974 166.118 100.856 166.232 100.756 166.385V168H100.251V165.6ZM108.589 168.075C108.373 168.075 108.184 168.042 108.024 167.975C107.868 167.905 107.723 167.797 107.589 167.65V168H107.099V164.305H107.604V165.92C107.714 165.79 107.856 165.692 108.029 165.625C108.203 165.558 108.389 165.525 108.589 165.525C108.829 165.525 109.044 165.58 109.234 165.69C109.428 165.797 109.578 165.947 109.684 166.14C109.794 166.333 109.849 166.555 109.849 166.805C109.849 167.058 109.794 167.282 109.684 167.475C109.578 167.665 109.428 167.813 109.234 167.92C109.044 168.023 108.829 168.075 108.589 168.075ZM108.474 167.675C108.638 167.675 108.784 167.64 108.914 167.57C109.048 167.497 109.151 167.393 109.224 167.26C109.301 167.127 109.339 166.975 109.339 166.805C109.339 166.635 109.301 166.483 109.224 166.35C109.151 166.217 109.048 166.113 108.914 166.04C108.784 165.967 108.638 165.93 108.474 165.93C108.271 165.93 108.089 165.985 107.929 166.095C107.769 166.205 107.661 166.352 107.604 166.535V167.075C107.668 167.258 107.776 167.405 107.929 167.515C108.086 167.622 108.268 167.675 108.474 167.675ZM112.72 168.075C112.277 168.075 111.929 167.965 111.675 167.745C111.425 167.522 111.3 167.208 111.3 166.805C111.3 166.412 111.412 166.1 111.635 165.87C111.862 165.64 112.184 165.525 112.6 165.525C112.877 165.525 113.112 165.578 113.305 165.685C113.499 165.788 113.644 165.933 113.74 166.12C113.84 166.303 113.89 166.513 113.89 166.75V167H111.78C111.797 167.227 111.892 167.397 112.065 167.51C112.242 167.62 112.48 167.675 112.78 167.675C112.934 167.675 113.089 167.662 113.245 167.635C113.402 167.605 113.54 167.567 113.66 167.52V167.925C113.554 167.968 113.412 168.003 113.235 168.03C113.062 168.06 112.89 168.075 112.72 168.075ZM113.415 166.645C113.409 166.418 113.334 166.243 113.19 166.12C113.05 165.993 112.85 165.93 112.59 165.93C112.337 165.93 112.14 165.995 112 166.125C111.86 166.255 111.787 166.428 111.78 166.645H113.415ZM118.293 165.6H118.783V166.03C118.883 165.883 119.023 165.775 119.203 165.705C119.386 165.635 119.598 165.6 119.838 165.6V165.995C119.581 165.995 119.361 166.037 119.178 166.12C118.994 166.203 118.868 166.335 118.798 166.515V168H118.293V165.6ZM122.458 168.075C122.015 168.075 121.667 167.965 121.413 167.745C121.163 167.522 121.038 167.208 121.038 166.805C121.038 166.412 121.15 166.1 121.373 165.87C121.6 165.64 121.922 165.525 122.338 165.525C122.615 165.525 122.85 165.578 123.043 165.685C123.237 165.788 123.382 165.933 123.478 166.12C123.578 166.303 123.628 166.513 123.628 166.75V167H121.518C121.535 167.227 121.63 167.397 121.803 167.51C121.98 167.62 122.218 167.675 122.518 167.675C122.672 167.675 122.827 167.662 122.983 167.635C123.14 167.605 123.278 167.567 123.398 167.52V167.925C123.292 167.968 123.15 168.003 122.973 168.03C122.8 168.06 122.628 168.075 122.458 168.075ZM123.153 166.645C123.147 166.418 123.072 166.243 122.928 166.12C122.788 165.993 122.588 165.93 122.328 165.93C122.075 165.93 121.878 165.995 121.738 166.125C121.598 166.255 121.525 166.428 121.518 166.645H123.153ZM126.065 168.075C125.899 168.075 125.722 168.053 125.535 168.01C125.349 167.97 125.202 167.915 125.095 167.845V167.415C125.225 167.492 125.375 167.555 125.545 167.605C125.715 167.652 125.88 167.675 126.04 167.675C126.22 167.675 126.352 167.653 126.435 167.61C126.519 167.567 126.56 167.497 126.56 167.4C126.56 167.327 126.54 167.268 126.5 167.225C126.464 167.178 126.399 167.137 126.305 167.1C126.215 167.063 126.079 167.02 125.895 166.97C125.699 166.913 125.542 166.857 125.425 166.8C125.312 166.74 125.225 166.665 125.165 166.575C125.109 166.485 125.08 166.368 125.08 166.225C125.08 165.995 125.17 165.822 125.35 165.705C125.534 165.585 125.779 165.525 126.085 165.525C126.245 165.525 126.402 165.54 126.555 165.57C126.709 165.6 126.832 165.642 126.925 165.695V166.115C126.829 166.058 126.709 166.013 126.565 165.98C126.425 165.947 126.282 165.93 126.135 165.93C125.959 165.93 125.824 165.952 125.73 165.995C125.637 166.038 125.59 166.115 125.59 166.225C125.59 166.295 125.61 166.352 125.65 166.395C125.69 166.438 125.754 166.477 125.84 166.51C125.93 166.54 126.072 166.58 126.265 166.63C126.569 166.713 126.779 166.812 126.895 166.925C127.015 167.038 127.075 167.195 127.075 167.395C127.075 167.602 126.99 167.767 126.82 167.89C126.65 168.013 126.399 168.075 126.065 168.075ZM129.479 168.075C129.235 168.075 129.047 168.005 128.914 167.865C128.784 167.725 128.719 167.527 128.719 167.27V165.99H128.354V165.6H128.719V164.88H129.229V165.6H129.819V165.99H129.229V167.235C129.229 167.395 129.259 167.508 129.319 167.575C129.382 167.642 129.495 167.675 129.659 167.675C129.755 167.675 129.852 167.653 129.949 167.61V168.01C129.822 168.053 129.665 168.075 129.479 168.075ZM18.185 176.075C17.895 176.075 17.6617 176.002 17.485 175.855C17.3117 175.705 17.225 175.503 17.225 175.25C17.225 174.983 17.3083 174.778 17.475 174.635C17.645 174.488 17.885 174.415 18.195 174.415C18.525 174.415 18.805 174.482 19.035 174.615V174.49C19.035 174.3 18.9767 174.16 18.86 174.07C18.7467 173.977 18.5667 173.93 18.32 173.93C18.1733 173.93 18.03 173.945 17.89 173.975C17.7533 174.002 17.63 174.04 17.52 174.09V173.68C17.62 173.633 17.75 173.597 17.91 173.57C18.07 173.54 18.225 173.525 18.375 173.525C18.7717 173.525 19.065 173.613 19.255 173.79C19.4483 173.963 19.545 174.205 19.545 174.515V176H19.07V175.73C18.9667 175.843 18.8433 175.93 18.7 175.99C18.56 176.047 18.3883 176.075 18.185 176.075ZM18.31 175.69C18.47 175.69 18.615 175.658 18.745 175.595C18.875 175.532 18.9717 175.443 19.035 175.33V175.005C18.8183 174.865 18.5767 174.795 18.31 174.795C18.1167 174.795 17.9717 174.833 17.875 174.91C17.7817 174.983 17.735 175.097 17.735 175.25C17.735 175.543 17.9267 175.69 18.31 175.69ZM21.9834 176.075C21.8168 176.075 21.6401 176.053 21.4534 176.01C21.2668 175.97 21.1201 175.915 21.0134 175.845V175.415C21.1434 175.492 21.2934 175.555 21.4634 175.605C21.6334 175.652 21.7984 175.675 21.9584 175.675C22.1384 175.675 22.2701 175.653 22.3534 175.61C22.4368 175.567 22.4784 175.497 22.4784 175.4C22.4784 175.327 22.4584 175.268 22.4184 175.225C22.3818 175.178 22.3168 175.137 22.2234 175.1C22.1334 175.063 21.9968 175.02 21.8134 174.97C21.6168 174.913 21.4601 174.857 21.3434 174.8C21.2301 174.74 21.1434 174.665 21.0834 174.575C21.0268 174.485 20.9984 174.368 20.9984 174.225C20.9984 173.995 21.0884 173.822 21.2684 173.705C21.4518 173.585 21.6968 173.525 22.0034 173.525C22.1634 173.525 22.3201 173.54 22.4734 173.57C22.6268 173.6 22.7501 173.642 22.8434 173.695V174.115C22.7468 174.058 22.6268 174.013 22.4834 173.98C22.3434 173.947 22.2001 173.93 22.0534 173.93C21.8768 173.93 21.7418 173.952 21.6484 173.995C21.5551 174.038 21.5084 174.115 21.5084 174.225C21.5084 174.295 21.5284 174.352 21.5684 174.395C21.6084 174.438 21.6718 174.477 21.7584 174.51C21.8484 174.54 21.9901 174.58 22.1834 174.63C22.4868 174.713 22.6968 174.812 22.8134 174.925C22.9334 175.038 22.9934 175.195 22.9934 175.395C22.9934 175.602 22.9084 175.767 22.7384 175.89C22.5684 176.013 22.3168 176.075 21.9834 176.075ZM25.3028 176.075C25.1361 176.075 24.9594 176.053 24.7728 176.01C24.5861 175.97 24.4394 175.915 24.3328 175.845V175.415C24.4628 175.492 24.6128 175.555 24.7828 175.605C24.9528 175.652 25.1178 175.675 25.2778 175.675C25.4578 175.675 25.5894 175.653 25.6728 175.61C25.7561 175.567 25.7978 175.497 25.7978 175.4C25.7978 175.327 25.7778 175.268 25.7378 175.225C25.7011 175.178 25.6361 175.137 25.5428 175.1C25.4528 175.063 25.3161 175.02 25.1328 174.97C24.9361 174.913 24.7794 174.857 24.6628 174.8C24.5494 174.74 24.4628 174.665 24.4028 174.575C24.3461 174.485 24.3178 174.368 24.3178 174.225C24.3178 173.995 24.4078 173.822 24.5878 173.705C24.7711 173.585 25.0161 173.525 25.3228 173.525C25.4828 173.525 25.6394 173.54 25.7928 173.57C25.9461 173.6 26.0694 173.642 26.1628 173.695V174.115C26.0661 174.058 25.9461 174.013 25.8028 173.98C25.6628 173.947 25.5194 173.93 25.3728 173.93C25.1961 173.93 25.0611 173.952 24.9678 173.995C24.8744 174.038 24.8278 174.115 24.8278 174.225C24.8278 174.295 24.8478 174.352 24.8878 174.395C24.9278 174.438 24.9911 174.477 25.0778 174.51C25.1678 174.54 25.3094 174.58 25.5028 174.63C25.8061 174.713 26.0161 174.812 26.1328 174.925C26.2528 175.038 26.3128 175.195 26.3128 175.395C26.3128 175.602 26.2278 175.767 26.0578 175.89C25.8878 176.013 25.6361 176.075 25.3028 176.075ZM28.8191 176.075C28.4957 176.075 28.2507 175.988 28.0841 175.815C27.9207 175.642 27.8391 175.41 27.8391 175.12V173.6H28.3441V175.1C28.3441 175.483 28.5357 175.675 28.9191 175.675C29.2557 175.675 29.5191 175.523 29.7091 175.22V173.6H30.2141V176H29.7241V175.66C29.6107 175.803 29.4757 175.908 29.3191 175.975C29.1657 176.042 28.9991 176.075 28.8191 176.075ZM31.8621 173.6H32.3521V174.03C32.4521 173.883 32.5921 173.775 32.7721 173.705C32.9554 173.635 33.1671 173.6 33.4071 173.6V173.995C33.1504 173.995 32.9304 174.037 32.7471 174.12C32.5638 174.203 32.4371 174.335 32.3671 174.515V176H31.8621V173.6ZM36.0278 176.075C35.5845 176.075 35.2361 175.965 34.9828 175.745C34.7328 175.522 34.6078 175.208 34.6078 174.805C34.6078 174.412 34.7195 174.1 34.9428 173.87C35.1695 173.64 35.4911 173.525 35.9078 173.525C36.1845 173.525 36.4195 173.578 36.6128 173.685C36.8061 173.788 36.9511 173.933 37.0478 174.12C37.1478 174.303 37.1978 174.513 37.1978 174.75V175H35.0878C35.1045 175.227 35.1995 175.397 35.3728 175.51C35.5495 175.62 35.7878 175.675 36.0878 175.675C36.2411 175.675 36.3961 175.662 36.5528 175.635C36.7095 175.605 36.8478 175.567 36.9678 175.52V175.925C36.8611 175.968 36.7195 176.003 36.5428 176.03C36.3695 176.06 36.1978 176.075 36.0278 176.075ZM36.7228 174.645C36.7161 174.418 36.6411 174.243 36.4978 174.12C36.3578 173.993 36.1578 173.93 35.8978 173.93C35.6445 173.93 35.4478 173.995 35.3078 174.125C35.1678 174.255 35.0945 174.428 35.0878 174.645H36.7228ZM39.9098 176.075C39.6698 176.075 39.4531 176.023 39.2598 175.92C39.0698 175.813 38.9198 175.665 38.8098 175.475C38.7031 175.282 38.6498 175.058 38.6498 174.805C38.6498 174.555 38.7031 174.333 38.8098 174.14C38.9198 173.947 39.0698 173.797 39.2598 173.69C39.4531 173.58 39.6698 173.525 39.9098 173.525C40.3431 173.525 40.6715 173.657 40.8948 173.92V172.305H41.3998V176H40.9098V175.65C40.7765 175.797 40.6298 175.905 40.4698 175.975C40.3131 176.042 40.1265 176.075 39.9098 176.075ZM40.0248 175.675C40.2315 175.675 40.4115 175.622 40.5648 175.515C40.7215 175.405 40.8315 175.258 40.8948 175.075V174.535C40.8381 174.352 40.7298 174.205 40.5698 174.095C40.4131 173.985 40.2315 173.93 40.0248 173.93C39.8615 173.93 39.7131 173.967 39.5798 174.04C39.4498 174.113 39.3465 174.217 39.2698 174.35C39.1965 174.483 39.1598 174.635 39.1598 174.805C39.1598 174.975 39.1965 175.127 39.2698 175.26C39.3465 175.393 39.4498 175.497 39.5798 175.57C39.7131 175.64 39.8615 175.675 40.0248 175.675ZM46.8262 176.075C46.5828 176.075 46.3945 176.005 46.2612 175.865C46.1312 175.725 46.0662 175.527 46.0662 175.27V173.99H45.7012V173.6H46.0662V172.88H46.5762V173.6H47.1662V173.99H46.5762V175.235C46.5762 175.395 46.6062 175.508 46.6662 175.575C46.7295 175.642 46.8428 175.675 47.0062 175.675C47.1028 175.675 47.1995 175.653 47.2962 175.61V176.01C47.1695 176.053 47.0128 176.075 46.8262 176.075ZM48.7713 172.305H49.2763V173.93C49.5063 173.66 49.813 173.525 50.1963 173.525C50.5163 173.525 50.7546 173.61 50.9113 173.78C51.068 173.95 51.1463 174.178 51.1463 174.465V176H50.6413V174.515C50.6413 174.125 50.4546 173.93 50.0813 173.93C49.9213 173.93 49.7713 173.968 49.6313 174.045C49.4946 174.118 49.3763 174.232 49.2763 174.385V176H48.7713V172.305ZM53.0643 173.13C52.981 173.13 52.911 173.102 52.8543 173.045C52.7977 172.988 52.7693 172.918 52.7693 172.835C52.7693 172.752 52.7977 172.682 52.8543 172.625C52.911 172.568 52.981 172.54 53.0643 172.54C53.151 172.54 53.2227 172.568 53.2793 172.625C53.3393 172.682 53.3693 172.752 53.3693 172.835C53.3693 172.918 53.3393 172.988 53.2793 173.045C53.2227 173.102 53.151 173.13 53.0643 173.13ZM52.8093 173.6H53.3243V176H52.8093V173.6ZM55.9043 176.075C55.7377 176.075 55.561 176.053 55.3743 176.01C55.1877 175.97 55.041 175.915 54.9343 175.845V175.415C55.0643 175.492 55.2143 175.555 55.3843 175.605C55.5543 175.652 55.7193 175.675 55.8793 175.675C56.0593 175.675 56.191 175.653 56.2743 175.61C56.3577 175.567 56.3993 175.497 56.3993 175.4C56.3993 175.327 56.3793 175.268 56.3393 175.225C56.3027 175.178 56.2377 175.137 56.1443 175.1C56.0543 175.063 55.9177 175.02 55.7343 174.97C55.5377 174.913 55.381 174.857 55.2643 174.8C55.151 174.74 55.0643 174.665 55.0043 174.575C54.9477 174.485 54.9193 174.368 54.9193 174.225C54.9193 173.995 55.0093 173.822 55.1893 173.705C55.3727 173.585 55.6177 173.525 55.9243 173.525C56.0843 173.525 56.241 173.54 56.3943 173.57C56.5477 173.6 56.671 173.642 56.7643 173.695V174.115C56.6677 174.058 56.5477 174.013 56.4043 173.98C56.2643 173.947 56.121 173.93 55.9743 173.93C55.7977 173.93 55.6627 173.952 55.5693 173.995C55.476 174.038 55.4293 174.115 55.4293 174.225C55.4293 174.295 55.4493 174.352 55.4893 174.395C55.5293 174.438 55.5927 174.477 55.6793 174.51C55.7693 174.54 55.911 174.58 56.1043 174.63C56.4077 174.713 56.6177 174.812 56.7343 174.925C56.8543 175.038 56.9143 175.195 56.9143 175.395C56.9143 175.602 56.8293 175.767 56.6593 175.89C56.4893 176.013 56.2377 176.075 55.9043 176.075ZM61.2162 173.6H61.7312L62.2712 175.38L62.8062 173.6H63.2612L63.7962 175.38L64.3362 173.6H64.8562L64.0762 176H63.5912L63.0362 174.21L62.4812 176H61.9912L61.2162 173.6ZM66.9946 176.075C66.7046 176.075 66.4712 176.002 66.2946 175.855C66.1212 175.705 66.0346 175.503 66.0346 175.25C66.0346 174.983 66.1179 174.778 66.2846 174.635C66.4546 174.488 66.6946 174.415 67.0046 174.415C67.3346 174.415 67.6146 174.482 67.8446 174.615V174.49C67.8446 174.3 67.7862 174.16 67.6696 174.07C67.5562 173.977 67.3762 173.93 67.1296 173.93C66.9829 173.93 66.8396 173.945 66.6996 173.975C66.5629 174.002 66.4396 174.04 66.3296 174.09V173.68C66.4296 173.633 66.5596 173.597 66.7196 173.57C66.8796 173.54 67.0346 173.525 67.1846 173.525C67.5812 173.525 67.8746 173.613 68.0646 173.79C68.2579 173.963 68.3546 174.205 68.3546 174.515V176H67.8796V175.73C67.7762 175.843 67.6529 175.93 67.5096 175.99C67.3696 176.047 67.1979 176.075 66.9946 176.075ZM67.1196 175.69C67.2796 175.69 67.4246 175.658 67.5546 175.595C67.6846 175.532 67.7812 175.443 67.8446 175.33V175.005C67.6279 174.865 67.3862 174.795 67.1196 174.795C66.9262 174.795 66.7812 174.833 66.6846 174.91C66.5912 174.983 66.5446 175.097 66.5446 175.25C66.5446 175.543 66.7362 175.69 67.1196 175.69ZM70.7793 176.075C70.536 176.075 70.3476 176.005 70.2143 175.865C70.0843 175.725 70.0193 175.527 70.0193 175.27V173.99H69.6543V173.6H70.0193V172.88H70.5293V173.6H71.1193V173.99H70.5293V175.235C70.5293 175.395 70.5593 175.508 70.6193 175.575C70.6826 175.642 70.796 175.675 70.9593 175.675C71.056 175.675 71.1526 175.653 71.2493 175.61V176.01C71.1226 176.053 70.966 176.075 70.7793 176.075ZM74.0444 176.075C73.6011 176.075 73.2527 175.965 72.9994 175.745C72.7494 175.522 72.6244 175.208 72.6244 174.805C72.6244 174.412 72.7361 174.1 72.9594 173.87C73.1861 173.64 73.5077 173.525 73.9244 173.525C74.2011 173.525 74.4361 173.578 74.6294 173.685C74.8227 173.788 74.9677 173.933 75.0644 174.12C75.1644 174.303 75.2144 174.513 75.2144 174.75V175H73.1044C73.1211 175.227 73.2161 175.397 73.3894 175.51C73.5661 175.62 73.8044 175.675 74.1044 175.675C74.2577 175.675 74.4127 175.662 74.5694 175.635C74.7261 175.605 74.8644 175.567 74.9844 175.52V175.925C74.8777 175.968 74.7361 176.003 74.5594 176.03C74.3861 176.06 74.2144 176.075 74.0444 176.075ZM74.7394 174.645C74.7327 174.418 74.6577 174.243 74.5144 174.12C74.3744 173.993 74.1744 173.93 73.9144 173.93C73.6611 173.93 73.4644 173.995 73.3244 174.125C73.1844 174.255 73.1111 174.428 73.1044 174.645H74.7394ZM76.7664 173.6H77.2564V174.03C77.3564 173.883 77.4964 173.775 77.6764 173.705C77.8597 173.635 78.0714 173.6 78.3114 173.6V173.995C78.0547 173.995 77.8347 174.037 77.6514 174.12C77.4681 174.203 77.3414 174.335 77.2714 174.515V176H76.7664V173.6ZM82.5141 173.6H83.0291L83.5691 175.38L84.1041 173.6H84.5591L85.0941 175.38L85.6341 173.6H86.1541L85.3741 176H84.8891L84.3341 174.21L83.7791 176H83.2891L82.5141 173.6ZM88.0009 173.13C87.9175 173.13 87.8475 173.102 87.7909 173.045C87.7342 172.988 87.7059 172.918 87.7059 172.835C87.7059 172.752 87.7342 172.682 87.7909 172.625C87.8475 172.568 87.9175 172.54 88.0009 172.54C88.0875 172.54 88.1592 172.568 88.2159 172.625C88.2759 172.682 88.3059 172.752 88.3059 172.835C88.3059 172.918 88.2759 172.988 88.2159 173.045C88.1592 173.102 88.0875 173.13 88.0009 173.13ZM87.7459 173.6H88.2609V176H87.7459V173.6ZM89.9559 172.305H90.4609V176H89.9559V172.305ZM92.1131 172.305H92.6181V176H92.1131V172.305ZM97.1209 173.6H97.6109V173.945C97.7242 173.802 97.8626 173.697 98.0259 173.63C98.1926 173.56 98.3659 173.525 98.5459 173.525C98.8659 173.525 99.1042 173.61 99.2609 173.78C99.4176 173.95 99.4959 174.178 99.4959 174.465V176H98.9909V174.515C98.9909 174.125 98.8042 173.93 98.4309 173.93C98.2709 173.93 98.1209 173.968 97.9809 174.045C97.8442 174.118 97.7259 174.232 97.6259 174.385V176H97.1209V173.6ZM102.311 176.075C102.041 176.075 101.802 176.025 101.596 175.925C101.392 175.822 101.232 175.675 101.116 175.485C101.002 175.292 100.946 175.065 100.946 174.805C100.946 174.548 101.002 174.323 101.116 174.13C101.229 173.937 101.389 173.788 101.596 173.685C101.802 173.578 102.041 173.525 102.311 173.525C102.581 173.525 102.819 173.578 103.026 173.685C103.232 173.788 103.392 173.937 103.506 174.13C103.622 174.323 103.681 174.548 103.681 174.805C103.681 175.065 103.622 175.292 103.506 175.485C103.392 175.675 103.232 175.822 103.026 175.925C102.819 176.025 102.581 176.075 102.311 176.075ZM102.311 175.675C102.571 175.675 102.777 175.595 102.931 175.435C103.084 175.275 103.161 175.065 103.161 174.805C103.161 174.535 103.084 174.322 102.931 174.165C102.777 174.008 102.571 173.93 102.311 173.93C102.051 173.93 101.844 174.008 101.691 174.165C101.537 174.322 101.461 174.535 101.461 174.805C101.461 175.065 101.537 175.275 101.691 175.435C101.844 175.595 102.051 175.675 102.311 175.675ZM106.081 176.075C105.838 176.075 105.649 176.005 105.516 175.865C105.386 175.725 105.321 175.527 105.321 175.27V173.99H104.956V173.6H105.321V172.88H105.831V173.6H106.421V173.99H105.831V175.235C105.831 175.395 105.861 175.508 105.921 175.575C105.984 175.642 106.098 175.675 106.261 175.675C106.358 175.675 106.454 175.653 106.551 175.61V176.01C106.424 176.053 106.268 176.075 106.081 176.075ZM112.037 176.075C111.797 176.075 111.58 176.023 111.387 175.92C111.197 175.813 111.047 175.665 110.937 175.475C110.83 175.282 110.777 175.058 110.777 174.805C110.777 174.555 110.83 174.333 110.937 174.14C111.047 173.947 111.197 173.797 111.387 173.69C111.58 173.58 111.797 173.525 112.037 173.525C112.47 173.525 112.798 173.657 113.022 173.92V172.305H113.527V176H113.037V175.65C112.903 175.797 112.757 175.905 112.597 175.975C112.44 176.042 112.253 176.075 112.037 176.075ZM112.152 175.675C112.358 175.675 112.538 175.622 112.692 175.515C112.848 175.405 112.958 175.258 113.022 175.075V174.535C112.965 174.352 112.857 174.205 112.697 174.095C112.54 173.985 112.358 173.93 112.152 173.93C111.988 173.93 111.84 173.967 111.707 174.04C111.577 174.113 111.473 174.217 111.397 174.35C111.323 174.483 111.287 174.635 111.287 174.805C111.287 174.975 111.323 175.127 111.397 175.26C111.473 175.393 111.577 175.497 111.707 175.57C111.84 175.64 111.988 175.675 112.152 175.675ZM116.369 176.075C116.099 176.075 115.861 176.025 115.654 175.925C115.451 175.822 115.291 175.675 115.174 175.485C115.061 175.292 115.004 175.065 115.004 174.805C115.004 174.548 115.061 174.323 115.174 174.13C115.288 173.937 115.448 173.788 115.654 173.685C115.861 173.578 116.099 173.525 116.369 173.525C116.639 173.525 116.878 173.578 117.084 173.685C117.291 173.788 117.451 173.937 117.564 174.13C117.681 174.323 117.739 174.548 117.739 174.805C117.739 175.065 117.681 175.292 117.564 175.485C117.451 175.675 117.291 175.822 117.084 175.925C116.878 176.025 116.639 176.075 116.369 176.075ZM116.369 175.675C116.629 175.675 116.836 175.595 116.989 175.435C117.143 175.275 117.219 175.065 117.219 174.805C117.219 174.535 117.143 174.322 116.989 174.165C116.836 174.008 116.629 173.93 116.369 173.93C116.109 173.93 115.903 174.008 115.749 174.165C115.596 174.322 115.519 174.535 115.519 174.805C115.519 175.065 115.596 175.275 115.749 175.435C115.903 175.595 116.109 175.675 116.369 175.675ZM18.185 184.075C17.895 184.075 17.6617 184.002 17.485 183.855C17.3117 183.705 17.225 183.503 17.225 183.25C17.225 182.983 17.3083 182.778 17.475 182.635C17.645 182.488 17.885 182.415 18.195 182.415C18.525 182.415 18.805 182.482 19.035 182.615V182.49C19.035 182.3 18.9767 182.16 18.86 182.07C18.7467 181.977 18.5667 181.93 18.32 181.93C18.1733 181.93 18.03 181.945 17.89 181.975C17.7533 182.002 17.63 182.04 17.52 182.09V181.68C17.62 181.633 17.75 181.597 17.91 181.57C18.07 181.54 18.225 181.525 18.375 181.525C18.7717 181.525 19.065 181.613 19.255 181.79C19.4483 181.963 19.545 182.205 19.545 182.515V184H19.07V183.73C18.9667 183.843 18.8433 183.93 18.7 183.99C18.56 184.047 18.3883 184.075 18.185 184.075ZM18.31 183.69C18.47 183.69 18.615 183.658 18.745 183.595C18.875 183.532 18.9717 183.443 19.035 183.33V183.005C18.8183 182.865 18.5767 182.795 18.31 182.795C18.1167 182.795 17.9717 182.833 17.875 182.91C17.7817 182.983 17.735 183.097 17.735 183.25C17.735 183.543 17.9267 183.69 18.31 183.69ZM21.1717 181.6H21.6617V181.945C21.775 181.802 21.9133 181.697 22.0767 181.63C22.2433 181.56 22.4167 181.525 22.5967 181.525C22.9167 181.525 23.155 181.61 23.3117 181.78C23.4683 181.95 23.5467 182.178 23.5467 182.465V184H23.0417V182.515C23.0417 182.125 22.855 181.93 22.4817 181.93C22.3217 181.93 22.1717 181.968 22.0317 182.045C21.895 182.118 21.7767 182.232 21.6767 182.385V184H21.1717V181.6ZM25.4551 184.99C25.2751 184.99 25.1251 184.972 25.0051 184.935V184.54C25.0918 184.573 25.1985 184.59 25.3251 184.59C25.4418 184.59 25.5335 184.56 25.6001 184.5C25.6668 184.443 25.7268 184.35 25.7801 184.22L25.8951 183.94L24.8451 181.6H25.3651L26.1651 183.445L26.9101 181.6H27.4301L26.3501 184.27C26.2501 184.52 26.1301 184.702 25.9901 184.815C25.8535 184.932 25.6751 184.99 25.4551 184.99ZM29.8047 184.075C29.5614 184.075 29.373 184.005 29.2397 183.865C29.1097 183.725 29.0447 183.527 29.0447 183.27V181.99H28.6797V181.6H29.0447V180.88H29.5547V181.6H30.1447V181.99H29.5547V183.235C29.5547 183.395 29.5847 183.508 29.6447 183.575C29.708 183.642 29.8214 183.675 29.9847 183.675C30.0814 183.675 30.178 183.653 30.2747 183.61V184.01C30.148 184.053 29.9914 184.075 29.8047 184.075ZM31.7498 180.305H32.2548V181.93C32.4848 181.66 32.7915 181.525 33.1748 181.525C33.4948 181.525 33.7331 181.61 33.8898 181.78C34.0465 181.95 34.1248 182.178 34.1248 182.465V184H33.6198V182.515C33.6198 182.125 33.4331 181.93 33.0598 181.93C32.8998 181.93 32.7498 181.968 32.6098 182.045C32.4731 182.118 32.3548 182.232 32.2548 182.385V184H31.7498V180.305ZM36.0429 181.13C35.9595 181.13 35.8895 181.102 35.8329 181.045C35.7762 180.988 35.7479 180.918 35.7479 180.835C35.7479 180.752 35.7762 180.682 35.8329 180.625C35.8895 180.568 35.9595 180.54 36.0429 180.54C36.1295 180.54 36.2012 180.568 36.2579 180.625C36.3179 180.682 36.3479 180.752 36.3479 180.835C36.3479 180.918 36.3179 180.988 36.2579 181.045C36.2012 181.102 36.1295 181.13 36.0429 181.13ZM35.7879 181.6H36.3029V184H35.7879V181.6ZM37.9979 181.6H38.4879V181.945C38.6012 181.802 38.7395 181.697 38.9029 181.63C39.0695 181.56 39.2429 181.525 39.4229 181.525C39.7429 181.525 39.9812 181.61 40.1379 181.78C40.2945 181.95 40.3729 182.178 40.3729 182.465V184H39.8679V182.515C39.8679 182.125 39.6812 181.93 39.3079 181.93C39.1479 181.93 38.9979 181.968 38.8579 182.045C38.7212 182.118 38.6029 182.232 38.5029 182.385V184H37.9979V181.6ZM43.2509 185.15C43.0876 185.15 42.9276 185.137 42.7709 185.11C42.6176 185.083 42.4876 185.045 42.3809 184.995V184.58C42.6309 184.693 42.9209 184.75 43.2509 184.75C43.5609 184.75 43.7859 184.682 43.9259 184.545C44.0692 184.412 44.1409 184.208 44.1409 183.935V183.68C43.9209 183.943 43.5976 184.075 43.1709 184.075C42.9276 184.075 42.7092 184.022 42.5159 183.915C42.3226 183.808 42.1709 183.658 42.0609 183.465C41.9509 183.272 41.8959 183.05 41.8959 182.8C41.8959 182.547 41.9492 182.325 42.0559 182.135C42.1659 181.942 42.3159 181.792 42.5059 181.685C42.6992 181.578 42.9159 181.525 43.1559 181.525C43.3792 181.525 43.5676 181.558 43.7209 181.625C43.8776 181.688 44.0226 181.795 44.1559 181.945V181.6H44.6459V183.88C44.6459 184.29 44.5309 184.603 44.3009 184.82C44.0742 185.04 43.7242 185.15 43.2509 185.15ZM43.2709 183.675C43.4776 183.675 43.6592 183.62 43.8159 183.51C43.9759 183.4 44.0842 183.253 44.1409 183.07V182.53C44.0776 182.343 43.9676 182.197 43.8109 182.09C43.6576 181.983 43.4776 181.93 43.2709 181.93C43.1076 181.93 42.9592 181.967 42.8259 182.04C42.6959 182.11 42.5926 182.212 42.5159 182.345C42.4426 182.478 42.4059 182.63 42.4059 182.8C42.4059 182.973 42.4426 183.127 42.5159 183.26C42.5926 183.39 42.6959 183.492 42.8259 183.565C42.9592 183.638 43.1076 183.675 43.2709 183.675ZM50.1023 184.075C49.7789 184.075 49.5339 183.988 49.3673 183.815C49.2039 183.642 49.1223 183.41 49.1223 183.12V181.6H49.6273V183.1C49.6273 183.483 49.8189 183.675 50.2023 183.675C50.5389 183.675 50.8023 183.523 50.9923 183.22V181.6H51.4973V184H51.0073V183.66C50.8939 183.803 50.7589 183.908 50.6023 183.975C50.4489 184.042 50.2823 184.075 50.1023 184.075ZM53.1453 181.6H53.6353V181.945C53.7486 181.802 53.887 181.697 54.0503 181.63C54.217 181.56 54.3903 181.525 54.5703 181.525C54.8903 181.525 55.1286 181.61 55.2853 181.78C55.442 181.95 55.5203 182.178 55.5203 182.465V184H55.0153V182.515C55.0153 182.125 54.8286 181.93 54.4553 181.93C54.2953 181.93 54.1453 181.968 54.0053 182.045C53.8686 182.118 53.7503 182.232 53.6503 182.385V184H53.1453V181.6ZM58.3034 184.075C58.0634 184.075 57.8467 184.023 57.6534 183.92C57.4634 183.813 57.3134 183.665 57.2034 183.475C57.0967 183.282 57.0434 183.058 57.0434 182.805C57.0434 182.555 57.0967 182.333 57.2034 182.14C57.3134 181.947 57.4634 181.797 57.6534 181.69C57.8467 181.58 58.0634 181.525 58.3034 181.525C58.7367 181.525 59.065 181.657 59.2884 181.92V180.305H59.7934V184H59.3034V183.65C59.17 183.797 59.0234 183.905 58.8634 183.975C58.7067 184.042 58.52 184.075 58.3034 184.075ZM58.4184 183.675C58.625 183.675 58.805 183.622 58.9584 183.515C59.115 183.405 59.225 183.258 59.2884 183.075V182.535C59.2317 182.352 59.1234 182.205 58.9634 182.095C58.8067 181.985 58.625 181.93 58.4184 181.93C58.255 181.93 58.1067 181.967 57.9734 182.04C57.8434 182.113 57.74 182.217 57.6634 182.35C57.59 182.483 57.5534 182.635 57.5534 182.805C57.5534 182.975 57.59 183.127 57.6634 183.26C57.74 183.393 57.8434 183.497 57.9734 183.57C58.1067 183.64 58.255 183.675 58.4184 183.675ZM62.7641 184.075C62.3208 184.075 61.9725 183.965 61.7191 183.745C61.4691 183.522 61.3441 183.208 61.3441 182.805C61.3441 182.412 61.4558 182.1 61.6791 181.87C61.9058 181.64 62.2275 181.525 62.6441 181.525C62.9208 181.525 63.1558 181.578 63.3491 181.685C63.5425 181.788 63.6875 181.933 63.7841 182.12C63.8841 182.303 63.9341 182.513 63.9341 182.75V183H61.8241C61.8408 183.227 61.9358 183.397 62.1091 183.51C62.2858 183.62 62.5241 183.675 62.8241 183.675C62.9775 183.675 63.1325 183.662 63.2891 183.635C63.4458 183.605 63.5841 183.567 63.7041 183.52V183.925C63.5975 183.968 63.4558 184.003 63.2791 184.03C63.1058 184.06 62.9341 184.075 62.7641 184.075ZM63.4591 182.645C63.4525 182.418 63.3775 182.243 63.2341 182.12C63.0941 181.993 62.8941 181.93 62.6341 181.93C62.3808 181.93 62.1841 181.995 62.0441 182.125C61.9041 182.255 61.8308 182.428 61.8241 182.645H63.4591ZM66.3711 184.075C66.2045 184.075 66.0278 184.053 65.8411 184.01C65.6545 183.97 65.5078 183.915 65.4011 183.845V183.415C65.5311 183.492 65.6811 183.555 65.8511 183.605C66.0211 183.652 66.1861 183.675 66.3461 183.675C66.5261 183.675 66.6578 183.653 66.7411 183.61C66.8245 183.567 66.8661 183.497 66.8661 183.4C66.8661 183.327 66.8461 183.268 66.8061 183.225C66.7695 183.178 66.7045 183.137 66.6111 183.1C66.5211 183.063 66.3845 183.02 66.2011 182.97C66.0045 182.913 65.8478 182.857 65.7311 182.8C65.6178 182.74 65.5311 182.665 65.4711 182.575C65.4145 182.485 65.3861 182.368 65.3861 182.225C65.3861 181.995 65.4761 181.822 65.6561 181.705C65.8395 181.585 66.0845 181.525 66.3911 181.525C66.5511 181.525 66.7078 181.54 66.8611 181.57C67.0145 181.6 67.1378 181.642 67.2311 181.695V182.115C67.1345 182.058 67.0145 182.013 66.8711 181.98C66.7311 181.947 66.5878 181.93 66.4411 181.93C66.2645 181.93 66.1295 181.952 66.0361 181.995C65.9428 182.038 65.8961 182.115 65.8961 182.225C65.8961 182.295 65.9161 182.352 65.9561 182.395C65.9961 182.438 66.0595 182.477 66.1461 182.51C66.2361 182.54 66.3778 182.58 66.5711 182.63C66.8745 182.713 67.0845 182.812 67.2011 182.925C67.3211 183.038 67.3811 183.195 67.3811 183.395C67.3811 183.602 67.2961 183.767 67.1261 183.89C66.9561 184.013 66.7045 184.075 66.3711 184.075ZM69.2274 181.13C69.1441 181.13 69.0741 181.102 69.0174 181.045C68.9608 180.988 68.9324 180.918 68.9324 180.835C68.9324 180.752 68.9608 180.682 69.0174 180.625C69.0741 180.568 69.1441 180.54 69.2274 180.54C69.3141 180.54 69.3858 180.568 69.4424 180.625C69.5024 180.682 69.5324 180.752 69.5324 180.835C69.5324 180.918 69.5024 180.988 69.4424 181.045C69.3858 181.102 69.3141 181.13 69.2274 181.13ZM68.9724 181.6H69.4874V184H68.9724V181.6ZM71.1824 181.6H71.6724V182.03C71.7724 181.883 71.9124 181.775 72.0924 181.705C72.2758 181.635 72.4874 181.6 72.7274 181.6V181.995C72.4708 181.995 72.2508 182.037 72.0674 182.12C71.8841 182.203 71.7574 182.335 71.6874 182.515V184H71.1824V181.6ZM74.8149 184.075C74.5249 184.075 74.2915 184.002 74.1149 183.855C73.9415 183.705 73.8549 183.503 73.8549 183.25C73.8549 182.983 73.9382 182.778 74.1049 182.635C74.2749 182.488 74.5149 182.415 74.8249 182.415C75.1549 182.415 75.4349 182.482 75.6649 182.615V182.49C75.6649 182.3 75.6065 182.16 75.4899 182.07C75.3765 181.977 75.1965 181.93 74.9499 181.93C74.8032 181.93 74.6599 181.945 74.5199 181.975C74.3832 182.002 74.2599 182.04 74.1499 182.09V181.68C74.2499 181.633 74.3799 181.597 74.5399 181.57C74.6999 181.54 74.8549 181.525 75.0049 181.525C75.4015 181.525 75.6949 181.613 75.8849 181.79C76.0782 181.963 76.1749 182.205 76.1749 182.515V184H75.6999V183.73C75.5965 183.843 75.4732 183.93 75.3299 183.99C75.1899 184.047 75.0182 184.075 74.8149 184.075ZM74.9399 183.69C75.0999 183.69 75.2449 183.658 75.3749 183.595C75.5049 183.532 75.6015 183.443 75.6649 183.33V183.005C75.4482 182.865 75.2065 182.795 74.9399 182.795C74.7465 182.795 74.6015 182.833 74.5049 182.91C74.4115 182.983 74.3649 183.097 74.3649 183.25C74.3649 183.543 74.5565 183.69 74.9399 183.69ZM79.2916 184.075C79.0749 184.075 78.8866 184.042 78.7266 183.975C78.5699 183.905 78.4249 183.797 78.2916 183.65V184H77.8016V180.305H78.3066V181.92C78.4166 181.79 78.5582 181.692 78.7316 181.625C78.9049 181.558 79.0916 181.525 79.2916 181.525C79.5316 181.525 79.7466 181.58 79.9366 181.69C80.1299 181.797 80.2799 181.947 80.3866 182.14C80.4966 182.333 80.5516 182.555 80.5516 182.805C80.5516 183.058 80.4966 183.282 80.3866 183.475C80.2799 183.665 80.1299 183.813 79.9366 183.92C79.7466 184.023 79.5316 184.075 79.2916 184.075ZM79.1766 183.675C79.3399 183.675 79.4866 183.64 79.6166 183.57C79.7499 183.497 79.8532 183.393 79.9266 183.26C80.0032 183.127 80.0416 182.975 80.0416 182.805C80.0416 182.635 80.0032 182.483 79.9266 182.35C79.8532 182.217 79.7499 182.113 79.6166 182.04C79.4866 181.967 79.3399 181.93 79.1766 181.93C78.9732 181.93 78.7916 181.985 78.6316 182.095C78.4716 182.205 78.3632 182.352 78.3066 182.535V183.075C78.3699 183.258 78.4782 183.405 78.6316 183.515C78.7882 183.622 78.9699 183.675 79.1766 183.675ZM82.1023 180.305H82.6073V184H82.1023V180.305ZM85.5796 184.075C85.1362 184.075 84.7879 183.965 84.5346 183.745C84.2846 183.522 84.1596 183.208 84.1596 182.805C84.1596 182.412 84.2712 182.1 84.4946 181.87C84.7212 181.64 85.0429 181.525 85.4596 181.525C85.7362 181.525 85.9712 181.578 86.1646 181.685C86.3579 181.788 86.5029 181.933 86.5996 182.12C86.6996 182.303 86.7496 182.513 86.7496 182.75V183H84.6396C84.6562 183.227 84.7512 183.397 84.9246 183.51C85.1012 183.62 85.3396 183.675 85.6396 183.675C85.7929 183.675 85.9479 183.662 86.1046 183.635C86.2612 183.605 86.3996 183.567 86.5196 183.52V183.925C86.4129 183.968 86.2712 184.003 86.0946 184.03C85.9212 184.06 85.7496 184.075 85.5796 184.075ZM86.2746 182.645C86.2679 182.418 86.1929 182.243 86.0496 182.12C85.9096 181.993 85.7096 181.93 85.4496 181.93C85.1962 181.93 84.9996 181.995 84.8596 182.125C84.7196 182.255 84.6462 182.428 84.6396 182.645H86.2746ZM88.4366 184C88.3699 184 88.3132 183.978 88.2666 183.935C88.2232 183.888 88.2016 183.832 88.2016 183.765C88.2016 183.698 88.2232 183.642 88.2666 183.595C88.3132 183.548 88.3699 183.525 88.4366 183.525C88.5032 183.525 88.5599 183.548 88.6066 183.595C88.6532 183.642 88.6766 183.698 88.6766 183.765C88.6766 183.832 88.6532 183.888 88.6066 183.935C88.5599 183.978 88.5032 184 88.4366 184ZM94.815 184.075C94.4683 184.075 94.155 184 93.875 183.85C93.595 183.697 93.375 183.482 93.215 183.205C93.055 182.928 92.975 182.612 92.975 182.255C92.975 181.898 93.055 181.582 93.215 181.305C93.375 181.028 93.595 180.813 93.875 180.66C94.155 180.507 94.4683 180.43 94.815 180.43C95.1617 180.43 95.475 180.507 95.755 180.66C96.035 180.813 96.255 181.028 96.415 181.305C96.575 181.582 96.655 181.898 96.655 182.255C96.655 182.612 96.575 182.928 96.415 183.205C96.255 183.482 96.035 183.697 95.755 183.85C95.475 184 95.1617 184.075 94.815 184.075ZM94.815 183.615C95.0617 183.615 95.285 183.56 95.485 183.45C95.6883 183.337 95.8483 183.178 95.965 182.975C96.0817 182.768 96.14 182.528 96.14 182.255C96.14 181.985 96.0817 181.748 95.965 181.545C95.8517 181.338 95.695 181.18 95.495 181.07C95.295 180.957 95.0717 180.9 94.825 180.9C94.575 180.9 94.3483 180.955 94.145 181.065C93.945 181.175 93.785 181.333 93.665 181.54C93.5483 181.747 93.49 181.985 93.49 182.255C93.49 182.528 93.5483 182.768 93.665 182.975C93.7817 183.178 93.94 183.337 94.14 183.45C94.3433 183.56 94.5683 183.615 94.815 183.615ZM98.2059 181.6H98.6959V182.03C98.7959 181.883 98.9359 181.775 99.1159 181.705C99.2992 181.635 99.5109 181.6 99.7509 181.6V181.995C99.4942 181.995 99.2742 182.037 99.0909 182.12C98.9075 182.203 98.7809 182.335 98.7109 182.515V184H98.2059V181.6ZM103.954 181.6H104.469L105.009 183.38L105.544 181.6H105.999L106.534 183.38L107.074 181.6H107.594L106.814 184H106.329L105.774 182.21L105.219 184H104.729L103.954 181.6ZM109.44 181.13C109.357 181.13 109.287 181.102 109.23 181.045C109.174 180.988 109.145 180.918 109.145 180.835C109.145 180.752 109.174 180.682 109.23 180.625C109.287 180.568 109.357 180.54 109.44 180.54C109.527 180.54 109.599 180.568 109.655 180.625C109.715 180.682 109.745 180.752 109.745 180.835C109.745 180.918 109.715 180.988 109.655 181.045C109.599 181.102 109.527 181.13 109.44 181.13ZM109.185 181.6H109.7V184H109.185V181.6ZM111.395 180.305H111.9V184H111.395V180.305ZM113.553 180.305H114.058V184H113.553V180.305ZM118.855 181.13C118.772 181.13 118.702 181.102 118.645 181.045C118.589 180.988 118.56 180.918 118.56 180.835C118.56 180.752 118.589 180.682 118.645 180.625C118.702 180.568 118.772 180.54 118.855 180.54C118.942 180.54 119.014 180.568 119.07 180.625C119.13 180.682 119.16 180.752 119.16 180.835C119.16 180.918 119.13 180.988 119.07 181.045C119.014 181.102 118.942 181.13 118.855 181.13ZM118.6 181.6H119.115V184H118.6V181.6ZM121.735 184.075C121.492 184.075 121.304 184.005 121.17 183.865C121.04 183.725 120.975 183.527 120.975 183.27V181.99H120.61V181.6H120.975V180.88H121.485V181.6H122.075V181.99H121.485V183.235C121.485 183.395 121.515 183.508 121.575 183.575C121.639 183.642 121.752 183.675 121.915 183.675C122.012 183.675 122.109 183.653 122.205 183.61V184.01C122.079 184.053 121.922 184.075 121.735 184.075ZM124.185 182.9C124.185 182.697 124.224 182.527 124.3 182.39C124.377 182.253 124.507 182.122 124.69 181.995C124.824 181.902 124.924 181.828 124.99 181.775C125.057 181.718 125.109 181.657 125.145 181.59C125.185 181.52 125.205 181.438 125.205 181.345C125.205 181.195 125.145 181.077 125.025 180.99C124.905 180.903 124.732 180.86 124.505 180.86C124.172 180.86 123.864 180.927 123.58 181.06V180.62C123.714 180.563 123.859 180.518 124.015 180.485C124.175 180.448 124.339 180.43 124.505 180.43C124.872 180.43 125.164 180.512 125.38 180.675C125.597 180.838 125.705 181.062 125.705 181.345C125.705 181.518 125.66 181.667 125.57 181.79C125.48 181.913 125.339 182.045 125.145 182.185C125.005 182.285 124.905 182.365 124.845 182.425C124.785 182.482 124.742 182.547 124.715 182.62C124.689 182.69 124.675 182.785 124.675 182.905V183.005H124.185V182.9ZM124.425 184.075C124.342 184.075 124.272 184.047 124.215 183.99C124.159 183.933 124.13 183.863 124.13 183.78C124.13 183.697 124.159 183.627 124.215 183.57C124.272 183.513 124.342 183.485 124.425 183.485C124.509 183.485 124.579 183.513 124.635 183.57C124.695 183.627 124.725 183.697 124.725 183.78C124.725 183.863 124.695 183.933 124.635 183.99C124.579 184.047 124.509 184.075 124.425 184.075Z" fill="black"/>
<rect x="12.25" y="143.25" width="125.5" height="46.5" stroke="#6C6C6C" stroke-width="0.5"/>
<path d="M12.675 27.8H14.22L15.84 33.14L17.445 27.8H18.81L20.415 33.14L22.035 27.8H23.595L21.255 35H19.8L18.135 29.63L16.47 35H15L12.675 27.8ZM30.0101 35.225C29.1401 35.225 28.4401 35.005 27.9101 34.565C27.3901 34.115 27.1301 33.51 27.1301 32.75C27.1301 31.95 27.3801 31.335 27.8801 30.905C28.3901 30.465 29.1101 30.245 30.0401 30.245C31.0301 30.245 31.8701 30.445 32.5601 30.845V30.47C32.5601 29.9 32.3851 29.48 32.0351 29.21C31.6951 28.93 31.1551 28.79 30.4151 28.79C29.9751 28.79 29.5451 28.835 29.1251 28.925C28.7151 29.005 28.3451 29.12 28.0151 29.27V28.04C28.3151 27.9 28.7051 27.79 29.1851 27.71C29.6651 27.62 30.1301 27.575 30.5801 27.575C31.7701 27.575 32.6501 27.84 33.2201 28.37C33.8001 28.89 34.0901 29.615 34.0901 30.545V35H32.6651V34.19C32.3551 34.53 31.9851 34.79 31.5551 34.97C31.1351 35.14 30.6201 35.225 30.0101 35.225ZM30.3851 34.07C30.8651 34.07 31.3001 33.975 31.6901 33.785C32.0801 33.595 32.3701 33.33 32.5601 32.99V32.015C31.9101 31.595 31.1851 31.385 30.3851 31.385C29.8051 31.385 29.3701 31.5 29.0801 31.73C28.8001 31.95 28.6601 32.29 28.6601 32.75C28.6601 33.63 29.2351 34.07 30.3851 34.07ZM41.3643 35.225C40.6343 35.225 40.0693 35.015 39.6693 34.595C39.2793 34.175 39.0843 33.58 39.0843 32.81V28.97H37.9893V27.8H39.0843V25.64H40.6143V27.8H42.3843V28.97H40.6143V32.705C40.6143 33.185 40.7043 33.525 40.8843 33.725C41.0743 33.925 41.4143 34.025 41.9043 34.025C42.1943 34.025 42.4843 33.96 42.7743 33.83V35.03C42.3943 35.16 41.9243 35.225 41.3643 35.225ZM51.1596 35.225C49.8296 35.225 48.7846 34.895 48.0246 34.235C47.2746 33.565 46.8996 32.625 46.8996 31.415C46.8996 30.235 47.2346 29.3 47.9046 28.61C48.5846 27.92 49.5496 27.575 50.7996 27.575C51.6296 27.575 52.3346 27.735 52.9146 28.055C53.4946 28.365 53.9296 28.8 54.2196 29.36C54.5196 29.91 54.6696 30.54 54.6696 31.25V32H48.3396C48.3896 32.68 48.6746 33.19 49.1946 33.53C49.7246 33.86 50.4396 34.025 51.3396 34.025C51.7996 34.025 52.2646 33.985 52.7346 33.905C53.2046 33.815 53.6196 33.7 53.9796 33.56V34.775C53.6596 34.905 53.2346 35.01 52.7046 35.09C52.1846 35.18 51.6696 35.225 51.1596 35.225ZM53.2446 30.935C53.2246 30.255 52.9996 29.73 52.5696 29.36C52.1496 28.98 51.5496 28.79 50.7696 28.79C50.0096 28.79 49.4196 28.985 48.9996 29.375C48.5796 29.765 48.3596 30.285 48.3396 30.935H53.2446ZM59.3256 27.8H60.7956V29.09C61.0956 28.65 61.5156 28.325 62.0556 28.115C62.6056 27.905 63.2406 27.8 63.9606 27.8V28.985C63.1906 28.985 62.5306 29.11 61.9806 29.36C61.4306 29.61 61.0506 30.005 60.8406 30.545V35H59.3256V27.8Z" fill="black"/>
<path d="M12.8691 19.0381L17.1807 17.1875V16.4746L12.8691 14.6289V15.5615L16.0283 16.7334L16.3213 16.8262L16.0283 16.9092L12.8691 18.1006V19.0381ZM20.875 19.0381L25.1865 17.1875V16.4746L20.875 14.6289V15.5615L24.0342 16.7334L24.3271 16.8262L24.0342 16.9092L20.875 18.1006V19.0381ZM37.375 20H38.0879L38.9033 16.7627L39.0352 15.9424L39.1719 16.7627L39.9971 20H40.71L41.833 14.7168H41.0322L40.4463 18.0859L40.3145 18.916L40.1729 18.0859L39.333 14.7168H38.752L37.9072 18.0859L37.7754 18.8428L37.668 18.0859L37.0527 14.7168H36.252L37.375 20ZM48.3447 20H49.2871V19.9219C49.2285 19.7754 49.1829 19.6045 49.1504 19.4092C49.1178 19.2106 49.1016 19.0234 49.1016 18.8477V16.3916C49.1016 16.0954 49.0479 15.8366 48.9404 15.6152C48.833 15.3939 48.6865 15.2083 48.501 15.0586C48.3122 14.9121 48.0892 14.8031 47.832 14.7314C47.5749 14.6566 47.2965 14.6191 46.9971 14.6191C46.6683 14.6191 46.3737 14.6647 46.1133 14.7559C45.8561 14.847 45.638 14.9658 45.459 15.1123C45.2767 15.262 45.1367 15.4297 45.0391 15.6152C44.9447 15.8008 44.8958 15.9896 44.8926 16.1816H45.8008C45.8008 16.071 45.8268 15.9652 45.8789 15.8643C45.9342 15.7601 46.0107 15.6706 46.1084 15.5957C46.2061 15.5208 46.3249 15.4606 46.4648 15.415C46.6081 15.3695 46.7692 15.3467 46.9482 15.3467C47.1403 15.3467 47.3128 15.3711 47.4658 15.4199C47.6221 15.4688 47.7539 15.5371 47.8613 15.625C47.9688 15.7161 48.0518 15.8252 48.1104 15.9521C48.1689 16.0791 48.1982 16.2223 48.1982 16.3818V16.7969H47.2119C46.8441 16.7969 46.5104 16.8327 46.2109 16.9043C45.9147 16.9759 45.6608 17.0833 45.4492 17.2266C45.2376 17.373 45.0732 17.5553 44.9561 17.7734C44.8421 17.9915 44.7852 18.2454 44.7852 18.5352C44.7852 18.7565 44.8275 18.9632 44.9121 19.1553C45 19.3441 45.1237 19.5068 45.2832 19.6436C45.4395 19.7835 45.6299 19.8942 45.8545 19.9756C46.0824 20.057 46.3363 20.0977 46.6162 20.0977C46.7887 20.0977 46.9515 20.0798 47.1045 20.0439C47.2575 20.0081 47.4023 19.9593 47.5391 19.8975C47.6725 19.8356 47.7946 19.764 47.9053 19.6826C48.0192 19.6012 48.1217 19.515 48.2129 19.4238C48.2227 19.5345 48.2373 19.6419 48.2568 19.7461C48.2796 19.847 48.3089 19.9316 48.3447 20ZM46.748 19.3115C46.5723 19.3115 46.4176 19.2887 46.2842 19.2432C46.1507 19.1976 46.04 19.1341 45.9521 19.0527C45.8643 18.9746 45.7975 18.8802 45.752 18.7695C45.7096 18.6589 45.6885 18.5384 45.6885 18.4082C45.6885 18.2715 45.7129 18.1494 45.7617 18.042C45.8138 17.9346 45.8887 17.8418 45.9863 17.7637C46.123 17.653 46.307 17.5716 46.5381 17.5195C46.7725 17.4642 47.0459 17.4365 47.3584 17.4365H48.1982V18.5059C48.1462 18.61 48.0745 18.7109 47.9834 18.8086C47.8923 18.903 47.7848 18.9876 47.6611 19.0625C47.5342 19.1374 47.3942 19.1976 47.2412 19.2432C47.0882 19.2887 46.9238 19.3115 46.748 19.3115ZM55.0176 13.4375H54.1094V14.7168H52.7227V15.415H54.1094V18.2861C54.1094 18.6117 54.1517 18.89 54.2363 19.1211C54.3242 19.349 54.443 19.5345 54.5928 19.6777C54.7425 19.8242 54.9183 19.9316 55.1201 20C55.3252 20.0651 55.5449 20.0977 55.7793 20.0977C55.9193 20.0977 56.0592 20.0911 56.1992 20.0781C56.3424 20.0651 56.4775 20.0456 56.6045 20.0195C56.7314 19.9967 56.8486 19.9691 56.9561 19.9365C57.0635 19.9007 57.1546 19.86 57.2295 19.8145L57.1025 19.1748C57.0472 19.1878 56.9756 19.2041 56.8877 19.2236C56.8031 19.2399 56.7119 19.2562 56.6143 19.2725C56.5133 19.2887 56.4108 19.3034 56.3066 19.3164C56.2025 19.3262 56.1016 19.3311 56.0039 19.3311C55.8704 19.3311 55.7435 19.3148 55.623 19.2822C55.5059 19.2497 55.4017 19.1927 55.3105 19.1113C55.2194 19.0332 55.1478 18.9274 55.0957 18.7939C55.0436 18.6605 55.0176 18.4912 55.0176 18.2861V15.415H57.0293V14.7168H55.0176V13.4375ZM63.2188 20.0977C63.7331 20.0977 64.1644 19.9951 64.5127 19.79C64.8643 19.5817 65.1279 19.3441 65.3037 19.0771L64.752 18.6475C64.5859 18.8623 64.3776 19.0348 64.127 19.165C63.8763 19.2952 63.5898 19.3604 63.2676 19.3604C63.0234 19.3604 62.8005 19.3148 62.5986 19.2236C62.3968 19.1325 62.2243 19.0072 62.0811 18.8477C61.9411 18.6979 61.8304 18.5254 61.749 18.3301C61.6709 18.1348 61.6204 17.9085 61.5977 17.6514V17.6172H65.3721V17.2119C65.3721 16.8441 65.3249 16.5023 65.2305 16.1865C65.1393 15.8708 64.9993 15.5957 64.8105 15.3613C64.6217 15.1302 64.3841 14.9495 64.0977 14.8193C63.8145 14.6859 63.4824 14.6191 63.1016 14.6191C62.7988 14.6191 62.5026 14.681 62.2129 14.8047C61.9264 14.9284 61.6709 15.1058 61.4463 15.3369C61.2184 15.5713 61.0361 15.8577 60.8994 16.1963C60.7627 16.5316 60.6943 16.9124 60.6943 17.3389V17.5439C60.6943 17.9118 60.7562 18.252 60.8799 18.5645C61.0036 18.877 61.1761 19.1471 61.3975 19.375C61.6188 19.6029 61.8841 19.7803 62.1934 19.9072C62.5059 20.0342 62.8477 20.0977 63.2188 20.0977ZM63.1016 15.3613C63.3327 15.3613 63.5312 15.4036 63.6973 15.4883C63.8665 15.5729 64.0065 15.6836 64.1172 15.8203C64.2279 15.957 64.3141 16.1198 64.376 16.3086C64.4378 16.4941 64.4688 16.6683 64.4688 16.8311V16.875H61.627C61.6628 16.6309 61.7246 16.416 61.8125 16.2305C61.9036 16.0417 62.0143 15.8822 62.1445 15.752C62.2747 15.625 62.4212 15.529 62.584 15.4639C62.7467 15.3955 62.9193 15.3613 63.1016 15.3613ZM72.3525 14.6191C71.9684 14.6191 71.625 14.7038 71.3223 14.873C71.0228 15.0391 70.7656 15.2669 70.5508 15.5566L70.5459 15.4248L70.5068 14.7168H69.6475V20H70.5557V16.6113C70.6143 16.4486 70.6875 16.3021 70.7754 16.1719C70.8665 16.0384 70.9723 15.9261 71.0928 15.835C71.2262 15.7308 71.3825 15.6527 71.5615 15.6006C71.7406 15.5452 71.9408 15.5176 72.1621 15.5176C72.3346 15.5176 72.499 15.5273 72.6553 15.5469C72.8148 15.5632 72.9824 15.5908 73.1582 15.6299L73.2803 14.7461C73.1891 14.707 73.0524 14.6761 72.8701 14.6533C72.6911 14.6305 72.5186 14.6191 72.3525 14.6191Z" fill="#707070"/>
<path d="M94.7073 87.4762L85.9268 75.9524L77.1463 55L65.0732 71.7619L53 86.4286V106.333L66.1707 121L83.7317 118.905L98 105.286L94.7073 87.4762Z" fill="#0068C8"/>
<path d="M68 97L69.5 85H71V97H68Z" fill="#D9D9D9"/>
<path d="M80 97L78.5 85H77V97H80Z" fill="#D9D9D9"/>
</svg>
