<svg width="150" height="200" viewBox="0 0 150 200" fill="none" xmlns="http://www.w3.org/2000/svg">
<rect width="150" height="200" fill="white"/>
<path d="M17.225 148.505H17.755L18.535 151.16L19.305 148.505H19.705L20.47 151.16L21.25 148.505H21.78L20.76 152H20.275L19.5 149.36L18.73 152H18.245L17.225 148.505ZM23.1541 148.305H23.6591V149.93C23.8891 149.66 24.1958 149.525 24.5791 149.525C24.8991 149.525 25.1374 149.61 25.2941 149.78C25.4508 149.95 25.5291 150.178 25.5291 150.465V152H25.0241V150.515C25.0241 150.125 24.8374 149.93 24.4641 149.93C24.3041 149.93 24.1541 149.968 24.0141 150.045C23.8774 150.118 23.7591 150.232 23.6591 150.385V152H23.1541V148.305ZM27.9389 152.075C27.6489 152.075 27.4156 152.002 27.2389 151.855C27.0656 151.705 26.9789 151.503 26.9789 151.25C26.9789 150.983 27.0622 150.778 27.2289 150.635C27.3989 150.488 27.6389 150.415 27.9489 150.415C28.2789 150.415 28.5589 150.482 28.7889 150.615V150.49C28.7889 150.3 28.7306 150.16 28.6139 150.07C28.5006 149.977 28.3206 149.93 28.0739 149.93C27.9272 149.93 27.7839 149.945 27.6439 149.975C27.5072 150.002 27.3839 150.04 27.2739 150.09V149.68C27.3739 149.633 27.5039 149.597 27.6639 149.57C27.8239 149.54 27.9789 149.525 28.1289 149.525C28.5256 149.525 28.8189 149.613 29.0089 149.79C29.2022 149.963 29.2989 150.205 29.2989 150.515V152H28.8239V151.73C28.7206 151.843 28.5972 151.93 28.4539 151.99C28.3139 152.047 28.1422 152.075 27.9389 152.075ZM28.0639 151.69C28.2239 151.69 28.3689 151.658 28.4989 151.595C28.6289 151.532 28.7256 151.443 28.7889 151.33V151.005C28.5722 150.865 28.3306 150.795 28.0639 150.795C27.8706 150.795 27.7256 150.833 27.6289 150.91C27.5356 150.983 27.4889 151.097 27.4889 151.25C27.4889 151.543 27.6806 151.69 28.0639 151.69ZM31.7236 152.075C31.4803 152.075 31.292 152.005 31.1586 151.865C31.0286 151.725 30.9636 151.527 30.9636 151.27V149.99H30.5986V149.6H30.9636V148.88H31.4736V149.6H32.0636V149.99H31.4736V151.235C31.4736 151.395 31.5036 151.508 31.5636 151.575C31.627 151.642 31.7403 151.675 31.9036 151.675C32.0003 151.675 32.097 151.653 32.1936 151.61V152.01C32.067 152.053 31.9103 152.075 31.7236 152.075ZM37.4743 152.075C37.151 152.075 36.906 151.988 36.7393 151.815C36.576 151.642 36.4943 151.41 36.4943 151.12V149.6H36.9993V151.1C36.9993 151.483 37.191 151.675 37.5743 151.675C37.911 151.675 38.1743 151.523 38.3643 151.22V149.6H38.8693V152H38.3793V151.66C38.266 151.803 38.131 151.908 37.9743 151.975C37.821 152.042 37.6543 152.075 37.4743 152.075ZM41.4024 152.075C41.2357 152.075 41.059 152.053 40.8724 152.01C40.6857 151.97 40.539 151.915 40.4324 151.845V151.415C40.5624 151.492 40.7124 151.555 40.8824 151.605C41.0524 151.652 41.2174 151.675 41.3774 151.675C41.5574 151.675 41.689 151.653 41.7724 151.61C41.8557 151.567 41.8974 151.497 41.8974 151.4C41.8974 151.327 41.8774 151.268 41.8374 151.225C41.8007 151.178 41.7357 151.137 41.6424 151.1C41.5524 151.063 41.4157 151.02 41.2324 150.97C41.0357 150.913 40.879 150.857 40.7624 150.8C40.649 150.74 40.5624 150.665 40.5024 150.575C40.4457 150.485 40.4174 150.368 40.4174 150.225C40.4174 149.995 40.5074 149.822 40.6874 149.705C40.8707 149.585 41.1157 149.525 41.4224 149.525C41.5824 149.525 41.739 149.54 41.8924 149.57C42.0457 149.6 42.169 149.642 42.2624 149.695V150.115C42.1657 150.058 42.0457 150.013 41.9024 149.98C41.7624 149.947 41.619 149.93 41.4724 149.93C41.2957 149.93 41.1607 149.952 41.0674 149.995C40.974 150.038 40.9274 150.115 40.9274 150.225C40.9274 150.295 40.9474 150.352 40.9874 150.395C41.0274 150.438 41.0907 150.477 41.1774 150.51C41.2674 150.54 41.409 150.58 41.6024 150.63C41.9057 150.713 42.1157 150.812 42.2324 150.925C42.3524 151.038 42.4124 151.195 42.4124 151.395C42.4124 151.602 42.3274 151.767 42.1574 151.89C41.9874 152.013 41.7357 152.075 41.4024 152.075ZM45.2837 152.075C44.8403 152.075 44.492 151.965 44.2387 151.745C43.9887 151.522 43.8637 151.208 43.8637 150.805C43.8637 150.412 43.9753 150.1 44.1987 149.87C44.4253 149.64 44.747 149.525 45.1637 149.525C45.4403 149.525 45.6753 149.578 45.8687 149.685C46.062 149.788 46.207 149.933 46.3037 150.12C46.4037 150.303 46.4537 150.513 46.4537 150.75V151H44.3437C44.3603 151.227 44.4553 151.397 44.6287 151.51C44.8053 151.62 45.0437 151.675 45.3437 151.675C45.497 151.675 45.652 151.662 45.8087 151.635C45.9653 151.605 46.1037 151.567 46.2237 151.52V151.925C46.117 151.968 45.9753 152.003 45.7987 152.03C45.6253 152.06 45.4537 152.075 45.2837 152.075ZM45.9787 150.645C45.972 150.418 45.897 150.243 45.7537 150.12C45.6137 149.993 45.4137 149.93 45.1537 149.93C44.9003 149.93 44.7037 149.995 44.5637 150.125C44.4237 150.255 44.3503 150.428 44.3437 150.645H45.9787ZM51.1513 149.13C51.0679 149.13 50.9979 149.102 50.9413 149.045C50.8846 148.988 50.8563 148.918 50.8563 148.835C50.8563 148.752 50.8846 148.682 50.9413 148.625C50.9979 148.568 51.0679 148.54 51.1513 148.54C51.2379 148.54 51.3096 148.568 51.3663 148.625C51.4263 148.682 51.4563 148.752 51.4563 148.835C51.4563 148.918 51.4263 148.988 51.3663 149.045C51.3096 149.102 51.2379 149.13 51.1513 149.13ZM50.8963 149.6H51.4113V152H50.8963V149.6ZM53.9913 152.075C53.8246 152.075 53.6479 152.053 53.4613 152.01C53.2746 151.97 53.1279 151.915 53.0213 151.845V151.415C53.1513 151.492 53.3013 151.555 53.4713 151.605C53.6413 151.652 53.8063 151.675 53.9663 151.675C54.1463 151.675 54.2779 151.653 54.3613 151.61C54.4446 151.567 54.4863 151.497 54.4863 151.4C54.4863 151.327 54.4663 151.268 54.4263 151.225C54.3896 151.178 54.3246 151.137 54.2313 151.1C54.1413 151.063 54.0046 151.02 53.8213 150.97C53.6246 150.913 53.4679 150.857 53.3513 150.8C53.2379 150.74 53.1513 150.665 53.0913 150.575C53.0346 150.485 53.0063 150.368 53.0063 150.225C53.0063 149.995 53.0963 149.822 53.2763 149.705C53.4596 149.585 53.7046 149.525 54.0113 149.525C54.1713 149.525 54.3279 149.54 54.4813 149.57C54.6346 149.6 54.7579 149.642 54.8513 149.695V150.115C54.7546 150.058 54.6346 150.013 54.4913 149.98C54.3513 149.947 54.2079 149.93 54.0613 149.93C53.8846 149.93 53.7496 149.952 53.6563 149.995C53.5629 150.038 53.5162 150.115 53.5162 150.225C53.5162 150.295 53.5363 150.352 53.5763 150.395C53.6163 150.438 53.6796 150.477 53.7663 150.51C53.8563 150.54 53.9979 150.58 54.1913 150.63C54.4946 150.713 54.7046 150.812 54.8213 150.925C54.9413 151.038 55.0013 151.195 55.0013 151.395C55.0013 151.602 54.9163 151.767 54.7463 151.89C54.5763 152.013 54.3246 152.075 53.9913 152.075ZM60.2631 152.075C59.9731 152.075 59.7398 152.002 59.5631 151.855C59.3898 151.705 59.3031 151.503 59.3031 151.25C59.3031 150.983 59.3865 150.778 59.5531 150.635C59.7231 150.488 59.9631 150.415 60.2731 150.415C60.6031 150.415 60.8831 150.482 61.1131 150.615V150.49C61.1131 150.3 61.0548 150.16 60.9381 150.07C60.8248 149.977 60.6448 149.93 60.3981 149.93C60.2515 149.93 60.1081 149.945 59.9681 149.975C59.8315 150.002 59.7081 150.04 59.5981 150.09V149.68C59.6981 149.633 59.8281 149.597 59.9881 149.57C60.1481 149.54 60.3031 149.525 60.4531 149.525C60.8498 149.525 61.1431 149.613 61.3331 149.79C61.5265 149.963 61.6231 150.205 61.6231 150.515V152H61.1481V151.73C61.0448 151.843 60.9215 151.93 60.7781 151.99C60.6381 152.047 60.4665 152.075 60.2631 152.075ZM60.3881 151.69C60.5481 151.69 60.6931 151.658 60.8231 151.595C60.9531 151.532 61.0498 151.443 61.1131 151.33V151.005C60.8965 150.865 60.6548 150.795 60.3881 150.795C60.1948 150.795 60.0498 150.833 59.9531 150.91C59.8598 150.983 59.8131 151.097 59.8131 151.25C59.8131 151.543 60.0048 151.69 60.3881 151.69ZM63.2498 149.6H63.7398V149.945C63.8531 149.802 63.9915 149.697 64.1548 149.63C64.3215 149.56 64.4948 149.525 64.6748 149.525C64.9948 149.525 65.2331 149.61 65.3898 149.78C65.5465 149.95 65.6248 150.178 65.6248 150.465V152H65.1198V150.515C65.1198 150.125 64.9331 149.93 64.5598 149.93C64.3998 149.93 64.2498 149.968 64.1098 150.045C63.9731 150.118 63.8548 150.232 63.7548 150.385V152H63.2498V149.6ZM70.9584 152.075C70.6684 152.075 70.4351 152.002 70.2584 151.855C70.0851 151.705 69.9984 151.503 69.9984 151.25C69.9984 150.983 70.0818 150.778 70.2484 150.635C70.4184 150.488 70.6584 150.415 70.9684 150.415C71.2984 150.415 71.5784 150.482 71.8084 150.615V150.49C71.8084 150.3 71.7501 150.16 71.6334 150.07C71.5201 149.977 71.3401 149.93 71.0934 149.93C70.9468 149.93 70.8034 149.945 70.6634 149.975C70.5268 150.002 70.4034 150.04 70.2934 150.09V149.68C70.3934 149.633 70.5234 149.597 70.6834 149.57C70.8434 149.54 70.9984 149.525 71.1484 149.525C71.5451 149.525 71.8384 149.613 72.0284 149.79C72.2218 149.963 72.3184 150.205 72.3184 150.515V152H71.8434V151.73C71.7401 151.843 71.6168 151.93 71.4734 151.99C71.3334 152.047 71.1618 152.075 70.9584 152.075ZM71.0834 151.69C71.2434 151.69 71.3884 151.658 71.5184 151.595C71.6484 151.532 71.7451 151.443 71.8084 151.33V151.005C71.5918 150.865 71.3501 150.795 71.0834 150.795C70.8901 150.795 70.7451 150.833 70.6484 150.91C70.5551 150.983 70.5084 151.097 70.5084 151.25C70.5084 151.543 70.7001 151.69 71.0834 151.69ZM73.9451 149.6H74.4351V149.945C74.5485 149.802 74.6868 149.697 74.8501 149.63C75.0168 149.56 75.1901 149.525 75.3701 149.525C75.6901 149.525 75.9285 149.61 76.0851 149.78C76.2418 149.95 76.3201 150.178 76.3201 150.465V152H75.8151V150.515C75.8151 150.125 75.6285 149.93 75.2551 149.93C75.0951 149.93 74.9451 149.968 74.8051 150.045C74.6685 150.118 74.5501 150.232 74.4501 150.385V152H73.9451V149.6ZM79.2082 152.075C78.9415 152.075 78.7048 152.025 78.4982 151.925C78.2915 151.825 78.1298 151.68 78.0132 151.49C77.8998 151.297 77.8432 151.068 77.8432 150.805C77.8432 150.542 77.8998 150.315 78.0132 150.125C78.1298 149.932 78.2915 149.783 78.4982 149.68C78.7082 149.577 78.9482 149.525 79.2182 149.525C79.5848 149.525 79.8782 149.597 80.0982 149.74V150.155C79.8815 150.005 79.6048 149.93 79.2682 149.93C78.9948 149.93 78.7732 150.005 78.6032 150.155C78.4365 150.302 78.3532 150.518 78.3532 150.805C78.3532 151.092 78.4365 151.308 78.6032 151.455C78.7698 151.602 78.9882 151.675 79.2582 151.675C79.5948 151.675 79.8848 151.595 80.1282 151.435V151.845C80.0115 151.925 79.8782 151.983 79.7282 152.02C79.5815 152.057 79.4082 152.075 79.2082 152.075ZM81.6775 148.305H82.1825V149.93C82.4125 149.66 82.7192 149.525 83.1025 149.525C83.4225 149.525 83.6609 149.61 83.8175 149.78C83.9742 149.95 84.0525 150.178 84.0525 150.465V152H83.5475V150.515C83.5475 150.125 83.3609 149.93 82.9875 149.93C82.8275 149.93 82.6775 149.968 82.5375 150.045C82.4009 150.118 82.2825 150.232 82.1825 150.385V152H81.6775V148.305ZM86.8673 152.075C86.5973 152.075 86.359 152.025 86.1523 151.925C85.949 151.822 85.789 151.675 85.6723 151.485C85.559 151.292 85.5023 151.065 85.5023 150.805C85.5023 150.548 85.559 150.323 85.6723 150.13C85.7857 149.937 85.9457 149.788 86.1523 149.685C86.359 149.578 86.5973 149.525 86.8673 149.525C87.1373 149.525 87.3757 149.578 87.5823 149.685C87.789 149.788 87.949 149.937 88.0623 150.13C88.179 150.323 88.2373 150.548 88.2373 150.805C88.2373 151.065 88.179 151.292 88.0623 151.485C87.949 151.675 87.789 151.822 87.5823 151.925C87.3757 152.025 87.1373 152.075 86.8673 152.075ZM86.8673 151.675C87.1273 151.675 87.334 151.595 87.4873 151.435C87.6407 151.275 87.7173 151.065 87.7173 150.805C87.7173 150.535 87.6407 150.322 87.4873 150.165C87.334 150.008 87.1273 149.93 86.8673 149.93C86.6073 149.93 86.4007 150.008 86.2473 150.165C86.094 150.322 86.0173 150.535 86.0173 150.805C86.0173 151.065 86.094 151.275 86.2473 151.435C86.4007 151.595 86.6073 151.675 86.8673 151.675ZM89.7859 149.6H90.2759V150.03C90.3759 149.883 90.5159 149.775 90.6959 149.705C90.8793 149.635 91.0909 149.6 91.3309 149.6V149.995C91.0743 149.995 90.8543 150.037 90.6709 150.12C90.4876 150.203 90.3609 150.335 90.2909 150.515V152H89.7859V149.6ZM96.5586 152.075C96.3153 152.075 96.1269 152.005 95.9936 151.865C95.8636 151.725 95.7986 151.527 95.7986 151.27V149.99H95.4336V149.6H95.7986V148.88H96.3086V149.6H96.8986V149.99H96.3086V151.235C96.3086 151.395 96.3386 151.508 96.3986 151.575C96.4619 151.642 96.5753 151.675 96.7386 151.675C96.8353 151.675 96.9319 151.653 97.0286 151.61V152.01C96.9019 152.053 96.7453 152.075 96.5586 152.075ZM99.7443 152.075C99.4743 152.075 99.236 152.025 99.0293 151.925C98.826 151.822 98.666 151.675 98.5493 151.485C98.436 151.292 98.3793 151.065 98.3793 150.805C98.3793 150.548 98.436 150.323 98.5493 150.13C98.6626 149.937 98.8226 149.788 99.0293 149.685C99.236 149.578 99.4743 149.525 99.7443 149.525C100.014 149.525 100.253 149.578 100.459 149.685C100.666 149.788 100.826 149.937 100.939 150.13C101.056 150.323 101.114 150.548 101.114 150.805C101.114 151.065 101.056 151.292 100.939 151.485C100.826 151.675 100.666 151.822 100.459 151.925C100.253 152.025 100.014 152.075 99.7443 152.075ZM99.7443 151.675C100.004 151.675 100.211 151.595 100.364 151.435C100.518 151.275 100.594 151.065 100.594 150.805C100.594 150.535 100.518 150.322 100.364 150.165C100.211 150.008 100.004 149.93 99.7443 149.93C99.4843 149.93 99.2776 150.008 99.1243 150.165C98.971 150.322 98.8943 150.535 98.8943 150.805C98.8943 151.065 98.971 151.275 99.1243 151.435C99.2776 151.595 99.4843 151.675 99.7443 151.675ZM106.373 152.075C106.083 152.075 105.85 152.002 105.673 151.855C105.5 151.705 105.413 151.503 105.413 151.25C105.413 150.983 105.497 150.778 105.663 150.635C105.833 150.488 106.073 150.415 106.383 150.415C106.713 150.415 106.993 150.482 107.223 150.615V150.49C107.223 150.3 107.165 150.16 107.048 150.07C106.935 149.977 106.755 149.93 106.508 149.93C106.362 149.93 106.218 149.945 106.078 149.975C105.942 150.002 105.818 150.04 105.708 150.09V149.68C105.808 149.633 105.938 149.597 106.098 149.57C106.258 149.54 106.413 149.525 106.563 149.525C106.96 149.525 107.253 149.613 107.443 149.79C107.637 149.963 107.733 150.205 107.733 150.515V152H107.258V151.73C107.155 151.843 107.032 151.93 106.888 151.99C106.748 152.047 106.577 152.075 106.373 152.075ZM106.498 151.69C106.658 151.69 106.803 151.658 106.933 151.595C107.063 151.532 107.16 151.443 107.223 151.33V151.005C107.007 150.865 106.765 150.795 106.498 150.795C106.305 150.795 106.16 150.833 106.063 150.91C105.97 150.983 105.923 151.097 105.923 151.25C105.923 151.543 106.115 151.69 106.498 151.69ZM112.376 149.99H112.011V149.6H112.376V149.145C112.376 148.868 112.464 148.655 112.641 148.505C112.817 148.355 113.037 148.28 113.301 148.28C113.434 148.28 113.564 148.3 113.691 148.34V148.75C113.597 148.713 113.501 148.695 113.401 148.695C113.231 148.695 113.101 148.737 113.011 148.82C112.924 148.9 112.881 149.018 112.881 149.175V149.6H114.501V152H113.996V149.99H112.881V152H112.376V149.99ZM114.246 149.13C114.159 149.13 114.087 149.102 114.031 149.045C113.974 148.988 113.946 148.918 113.946 148.835C113.946 148.752 113.974 148.682 114.031 148.625C114.091 148.568 114.162 148.54 114.246 148.54C114.329 148.54 114.399 148.568 114.456 148.625C114.516 148.682 114.546 148.752 114.546 148.835C114.546 148.918 114.516 148.988 114.456 149.045C114.399 149.102 114.329 149.13 114.246 149.13ZM117.079 152.075C116.912 152.075 116.736 152.053 116.549 152.01C116.362 151.97 116.216 151.915 116.109 151.845V151.415C116.239 151.492 116.389 151.555 116.559 151.605C116.729 151.652 116.894 151.675 117.054 151.675C117.234 151.675 117.366 151.653 117.449 151.61C117.532 151.567 117.574 151.497 117.574 151.4C117.574 151.327 117.554 151.268 117.514 151.225C117.477 151.178 117.412 151.137 117.319 151.1C117.229 151.063 117.092 151.02 116.909 150.97C116.712 150.913 116.556 150.857 116.439 150.8C116.326 150.74 116.239 150.665 116.179 150.575C116.122 150.485 116.094 150.368 116.094 150.225C116.094 149.995 116.184 149.822 116.364 149.705C116.547 149.585 116.792 149.525 117.099 149.525C117.259 149.525 117.416 149.54 117.569 149.57C117.722 149.6 117.846 149.642 117.939 149.695V150.115C117.842 150.058 117.722 150.013 117.579 149.98C117.439 149.947 117.296 149.93 117.149 149.93C116.972 149.93 116.837 149.952 116.744 149.995C116.651 150.038 116.604 150.115 116.604 150.225C116.604 150.295 116.624 150.352 116.664 150.395C116.704 150.438 116.767 150.477 116.854 150.51C116.944 150.54 117.086 150.58 117.279 150.63C117.582 150.713 117.792 150.812 117.909 150.925C118.029 151.038 118.089 151.195 118.089 151.395C118.089 151.602 118.004 151.767 117.834 151.89C117.664 152.013 117.412 152.075 117.079 152.075ZM119.64 148.305H120.145V149.93C120.375 149.66 120.682 149.525 121.065 149.525C121.385 149.525 121.624 149.61 121.78 149.78C121.937 149.95 122.015 150.178 122.015 150.465V152H121.51V150.515C121.51 150.125 121.324 149.93 120.95 149.93C120.79 149.93 120.64 149.968 120.5 150.045C120.364 150.118 120.245 150.232 120.145 150.385V152H119.64V148.305ZM124.143 150.9C124.143 150.697 124.182 150.527 124.258 150.39C124.335 150.253 124.465 150.122 124.648 149.995C124.782 149.902 124.882 149.828 124.948 149.775C125.015 149.718 125.067 149.657 125.103 149.59C125.143 149.52 125.163 149.438 125.163 149.345C125.163 149.195 125.103 149.077 124.983 148.99C124.863 148.903 124.69 148.86 124.463 148.86C124.13 148.86 123.822 148.927 123.538 149.06V148.62C123.672 148.563 123.817 148.518 123.973 148.485C124.133 148.448 124.297 148.43 124.463 148.43C124.83 148.43 125.122 148.512 125.338 148.675C125.555 148.838 125.663 149.062 125.663 149.345C125.663 149.518 125.618 149.667 125.528 149.79C125.438 149.913 125.297 150.045 125.103 150.185C124.963 150.285 124.863 150.365 124.803 150.425C124.743 150.482 124.7 150.547 124.673 150.62C124.647 150.69 124.633 150.785 124.633 150.905V151.005H124.143V150.9ZM124.383 152.075C124.3 152.075 124.23 152.047 124.173 151.99C124.117 151.933 124.088 151.863 124.088 151.78C124.088 151.697 124.117 151.627 124.173 151.57C124.23 151.513 124.3 151.485 124.383 151.485C124.467 151.485 124.537 151.513 124.593 151.57C124.653 151.627 124.683 151.697 124.683 151.78C124.683 151.863 124.653 151.933 124.593 151.99C124.537 152.047 124.467 152.075 124.383 152.075ZM18.745 160.075C18.2683 160.075 17.9083 159.953 17.665 159.71C17.4217 159.463 17.3 159.125 17.3 158.695V156.505H17.81V158.715C17.81 159.012 17.8933 159.237 18.06 159.39C18.2267 159.54 18.455 159.615 18.745 159.615C19.0317 159.615 19.2583 159.54 19.425 159.39C19.5917 159.237 19.675 159.012 19.675 158.715V156.505H20.185V158.695C20.185 159.122 20.0633 159.458 19.82 159.705C19.5767 159.952 19.2183 160.075 18.745 160.075ZM22.5205 160.075C22.3539 160.075 22.1772 160.053 21.9905 160.01C21.8039 159.97 21.6572 159.915 21.5505 159.845V159.415C21.6805 159.492 21.8305 159.555 22.0005 159.605C22.1705 159.652 22.3355 159.675 22.4955 159.675C22.6755 159.675 22.8072 159.653 22.8905 159.61C22.9739 159.567 23.0155 159.497 23.0155 159.4C23.0155 159.327 22.9955 159.268 22.9555 159.225C22.9189 159.178 22.8539 159.137 22.7605 159.1C22.6705 159.063 22.5339 159.02 22.3505 158.97C22.1539 158.913 21.9972 158.857 21.8805 158.8C21.7672 158.74 21.6805 158.665 21.6205 158.575C21.5639 158.485 21.5355 158.368 21.5355 158.225C21.5355 157.995 21.6255 157.822 21.8055 157.705C21.9889 157.585 22.2339 157.525 22.5405 157.525C22.7005 157.525 22.8572 157.54 23.0105 157.57C23.1639 157.6 23.2872 157.642 23.3805 157.695V158.115C23.2839 158.058 23.1639 158.013 23.0205 157.98C22.8805 157.947 22.7372 157.93 22.5905 157.93C22.4139 157.93 22.2789 157.952 22.1855 157.995C22.0922 158.038 22.0455 158.115 22.0455 158.225C22.0455 158.295 22.0655 158.352 22.1055 158.395C22.1455 158.438 22.2089 158.477 22.2955 158.51C22.3855 158.54 22.5272 158.58 22.7205 158.63C23.0239 158.713 23.2339 158.812 23.3505 158.925C23.4705 159.038 23.5305 159.195 23.5305 159.395C23.5305 159.602 23.4455 159.767 23.2755 159.89C23.1055 160.013 22.8539 160.075 22.5205 160.075ZM26.4018 160.075C25.9585 160.075 25.6102 159.965 25.3568 159.745C25.1068 159.522 24.9818 159.208 24.9818 158.805C24.9818 158.412 25.0935 158.1 25.3168 157.87C25.5435 157.64 25.8652 157.525 26.2818 157.525C26.5585 157.525 26.7935 157.578 26.9868 157.685C27.1802 157.788 27.3252 157.933 27.4218 158.12C27.5218 158.303 27.5718 158.513 27.5718 158.75V159H25.4618C25.4785 159.227 25.5735 159.397 25.7468 159.51C25.9235 159.62 26.1618 159.675 26.4618 159.675C26.6152 159.675 26.7702 159.662 26.9268 159.635C27.0835 159.605 27.2218 159.567 27.3418 159.52V159.925C27.2352 159.968 27.0935 160.003 26.9168 160.03C26.7435 160.06 26.5718 160.075 26.4018 160.075ZM27.0968 158.645C27.0902 158.418 27.0152 158.243 26.8718 158.12C26.7318 157.993 26.5318 157.93 26.2718 157.93C26.0185 157.93 25.8218 157.995 25.6818 158.125C25.5418 158.255 25.4685 158.428 25.4618 158.645H27.0968ZM32.2694 157.13C32.1861 157.13 32.1161 157.102 32.0594 157.045C32.0027 156.988 31.9744 156.918 31.9744 156.835C31.9744 156.752 32.0027 156.682 32.0594 156.625C32.1161 156.568 32.1861 156.54 32.2694 156.54C32.3561 156.54 32.4277 156.568 32.4844 156.625C32.5444 156.682 32.5744 156.752 32.5744 156.835C32.5744 156.918 32.5444 156.988 32.4844 157.045C32.4277 157.102 32.3561 157.13 32.2694 157.13ZM32.0144 157.6H32.5294V160H32.0144V157.6ZM35.1494 160.075C34.9061 160.075 34.7177 160.005 34.5844 159.865C34.4544 159.725 34.3894 159.527 34.3894 159.27V157.99H34.0244V157.6H34.3894V156.88H34.8994V157.6H35.4894V157.99H34.8994V159.235C34.8994 159.395 34.9294 159.508 34.9894 159.575C35.0527 159.642 35.1661 159.675 35.3294 159.675C35.4261 159.675 35.5227 159.653 35.6194 159.61V160.01C35.4927 160.053 35.3361 160.075 35.1494 160.075ZM40.8701 160.075C40.6268 160.075 40.4385 160.005 40.3051 159.865C40.1751 159.725 40.1101 159.527 40.1101 159.27V157.99H39.7451V157.6H40.1101V156.88H40.6201V157.6H41.2101V157.99H40.6201V159.235C40.6201 159.395 40.6501 159.508 40.7101 159.575C40.7735 159.642 40.8868 159.675 41.0501 159.675C41.1468 159.675 41.2435 159.653 41.3401 159.61V160.01C41.2135 160.053 41.0568 160.075 40.8701 160.075ZM44.0558 160.075C43.7858 160.075 43.5475 160.025 43.3408 159.925C43.1375 159.822 42.9775 159.675 42.8608 159.485C42.7475 159.292 42.6908 159.065 42.6908 158.805C42.6908 158.548 42.7475 158.323 42.8608 158.13C42.9742 157.937 43.1342 157.788 43.3408 157.685C43.5475 157.578 43.7858 157.525 44.0558 157.525C44.3258 157.525 44.5642 157.578 44.7708 157.685C44.9775 157.788 45.1375 157.937 45.2508 158.13C45.3675 158.323 45.4258 158.548 45.4258 158.805C45.4258 159.065 45.3675 159.292 45.2508 159.485C45.1375 159.675 44.9775 159.822 44.7708 159.925C44.5642 160.025 44.3258 160.075 44.0558 160.075ZM44.0558 159.675C44.3158 159.675 44.5225 159.595 44.6758 159.435C44.8292 159.275 44.9058 159.065 44.9058 158.805C44.9058 158.535 44.8292 158.322 44.6758 158.165C44.5225 158.008 44.3158 157.93 44.0558 157.93C43.7958 157.93 43.5892 158.008 43.4358 158.165C43.2825 158.322 43.2058 158.535 43.2058 158.805C43.2058 159.065 43.2825 159.275 43.4358 159.435C43.5892 159.595 43.7958 159.675 44.0558 159.675ZM50.985 160.075C50.745 160.075 50.5283 160.023 50.335 159.92C50.145 159.813 49.995 159.665 49.885 159.475C49.7783 159.282 49.725 159.058 49.725 158.805C49.725 158.555 49.7783 158.333 49.885 158.14C49.995 157.947 50.145 157.797 50.335 157.69C50.5283 157.58 50.745 157.525 50.985 157.525C51.4183 157.525 51.7467 157.657 51.97 157.92V156.305H52.475V160H51.985V159.65C51.8517 159.797 51.705 159.905 51.545 159.975C51.3883 160.042 51.2017 160.075 50.985 160.075ZM51.1 159.675C51.3067 159.675 51.4867 159.622 51.64 159.515C51.7967 159.405 51.9067 159.258 51.97 159.075V158.535C51.9133 158.352 51.805 158.205 51.645 158.095C51.4883 157.985 51.3067 157.93 51.1 157.93C50.9367 157.93 50.7883 157.967 50.655 158.04C50.525 158.113 50.4217 158.217 50.345 158.35C50.2717 158.483 50.235 158.635 50.235 158.805C50.235 158.975 50.2717 159.127 50.345 159.26C50.4217 159.393 50.525 159.497 50.655 159.57C50.7883 159.64 50.9367 159.675 51.1 159.675ZM55.4458 160.075C55.0024 160.075 54.6541 159.965 54.4008 159.745C54.1508 159.522 54.0258 159.208 54.0258 158.805C54.0258 158.412 54.1374 158.1 54.3608 157.87C54.5874 157.64 54.9091 157.525 55.3258 157.525C55.6024 157.525 55.8374 157.578 56.0308 157.685C56.2241 157.788 56.3691 157.933 56.4658 158.12C56.5658 158.303 56.6158 158.513 56.6158 158.75V159H54.5058C54.5224 159.227 54.6174 159.397 54.7908 159.51C54.9674 159.62 55.2058 159.675 55.5058 159.675C55.6591 159.675 55.8141 159.662 55.9708 159.635C56.1274 159.605 56.2658 159.567 56.3858 159.52V159.925C56.2791 159.968 56.1374 160.003 55.9608 160.03C55.7874 160.06 55.6158 160.075 55.4458 160.075ZM56.1408 158.645C56.1341 158.418 56.0591 158.243 55.9158 158.12C55.7758 157.993 55.5758 157.93 55.3158 157.93C55.0624 157.93 54.8658 157.995 54.7258 158.125C54.5858 158.255 54.5124 158.428 54.5058 158.645H56.1408ZM59.0528 160.075C58.8861 160.075 58.7094 160.053 58.5228 160.01C58.3361 159.97 58.1894 159.915 58.0828 159.845V159.415C58.2128 159.492 58.3628 159.555 58.5328 159.605C58.7028 159.652 58.8678 159.675 59.0278 159.675C59.2078 159.675 59.3394 159.653 59.4228 159.61C59.5061 159.567 59.5478 159.497 59.5478 159.4C59.5478 159.327 59.5278 159.268 59.4878 159.225C59.4511 159.178 59.3861 159.137 59.2928 159.1C59.2028 159.063 59.0661 159.02 58.8828 158.97C58.6861 158.913 58.5294 158.857 58.4128 158.8C58.2994 158.74 58.2128 158.665 58.1528 158.575C58.0961 158.485 58.0678 158.368 58.0678 158.225C58.0678 157.995 58.1578 157.822 58.3378 157.705C58.5211 157.585 58.7661 157.525 59.0728 157.525C59.2328 157.525 59.3894 157.54 59.5428 157.57C59.6961 157.6 59.8194 157.642 59.9128 157.695V158.115C59.8161 158.058 59.6961 158.013 59.5528 157.98C59.4128 157.947 59.2694 157.93 59.1228 157.93C58.9461 157.93 58.8111 157.952 58.7178 157.995C58.6244 158.038 58.5778 158.115 58.5778 158.225C58.5778 158.295 58.5978 158.352 58.6378 158.395C58.6778 158.438 58.7411 158.477 58.8278 158.51C58.9178 158.54 59.0594 158.58 59.2528 158.63C59.5561 158.713 59.7661 158.812 59.8828 158.925C60.0028 159.038 60.0628 159.195 60.0628 159.395C60.0628 159.602 59.9778 159.767 59.8078 159.89C59.6378 160.013 59.3861 160.075 59.0528 160.075ZM62.4658 160.075C62.2225 160.075 62.0342 160.005 61.9008 159.865C61.7708 159.725 61.7058 159.527 61.7058 159.27V157.99H61.3408V157.6H61.7058V156.88H62.2158V157.6H62.8058V157.99H62.2158V159.235C62.2158 159.395 62.2458 159.508 62.3058 159.575C62.3692 159.642 62.4825 159.675 62.6458 159.675C62.7425 159.675 62.8392 159.653 62.9358 159.61V160.01C62.8092 160.053 62.6525 160.075 62.4658 160.075ZM64.4109 157.6H64.9009V158.03C65.0009 157.883 65.1409 157.775 65.3209 157.705C65.5043 157.635 65.7159 157.6 65.9559 157.6V157.995C65.6993 157.995 65.4793 158.037 65.2959 158.12C65.1126 158.203 64.9859 158.335 64.9159 158.515V160H64.4109V157.6ZM68.5998 160.075C68.3298 160.075 68.0914 160.025 67.8848 159.925C67.6814 159.822 67.5214 159.675 67.4048 159.485C67.2914 159.292 67.2348 159.065 67.2348 158.805C67.2348 158.548 67.2914 158.323 67.4048 158.13C67.5181 157.937 67.6781 157.788 67.8848 157.685C68.0914 157.578 68.3298 157.525 68.5998 157.525C68.8698 157.525 69.1081 157.578 69.3148 157.685C69.5214 157.788 69.6814 157.937 69.7948 158.13C69.9114 158.323 69.9698 158.548 69.9698 158.805C69.9698 159.065 69.9114 159.292 69.7948 159.485C69.6814 159.675 69.5214 159.822 69.3148 159.925C69.1081 160.025 68.8698 160.075 68.5998 160.075ZM68.5998 159.675C68.8598 159.675 69.0664 159.595 69.2198 159.435C69.3731 159.275 69.4498 159.065 69.4498 158.805C69.4498 158.535 69.3731 158.322 69.2198 158.165C69.0664 158.008 68.8598 157.93 68.5998 157.93C68.3398 157.93 68.1331 158.008 67.9798 158.165C67.8264 158.322 67.7498 158.535 67.7498 158.805C67.7498 159.065 67.8264 159.275 67.9798 159.435C68.1331 159.595 68.3398 159.675 68.5998 159.675ZM71.7012 160.99C71.5212 160.99 71.3712 160.972 71.2512 160.935V160.54C71.3379 160.573 71.4445 160.59 71.5712 160.59C71.6879 160.59 71.7795 160.56 71.8462 160.5C71.9129 160.443 71.9729 160.35 72.0262 160.22L72.1412 159.94L71.0912 157.6H71.6112L72.4112 159.445L73.1562 157.6H73.6762L72.5962 160.27C72.4962 160.52 72.3762 160.702 72.2362 160.815C72.0995 160.932 71.9212 160.99 71.7012 160.99ZM78.8364 160.075C78.5464 160.075 78.313 160.002 78.1364 159.855C77.963 159.705 77.8764 159.503 77.8764 159.25C77.8764 158.983 77.9597 158.778 78.1264 158.635C78.2964 158.488 78.5364 158.415 78.8464 158.415C79.1764 158.415 79.4564 158.482 79.6864 158.615V158.49C79.6864 158.3 79.628 158.16 79.5114 158.07C79.398 157.977 79.218 157.93 78.9714 157.93C78.8247 157.93 78.6814 157.945 78.5414 157.975C78.4047 158.002 78.2814 158.04 78.1714 158.09V157.68C78.2714 157.633 78.4014 157.597 78.5614 157.57C78.7214 157.54 78.8764 157.525 79.0264 157.525C79.423 157.525 79.7164 157.613 79.9064 157.79C80.0997 157.963 80.1964 158.205 80.1964 158.515V160H79.7214V159.73C79.618 159.843 79.4947 159.93 79.3514 159.99C79.2114 160.047 79.0397 160.075 78.8364 160.075ZM78.9614 159.69C79.1214 159.69 79.2664 159.658 79.3964 159.595C79.5264 159.532 79.623 159.443 79.6864 159.33V159.005C79.4697 158.865 79.228 158.795 78.9614 158.795C78.768 158.795 78.623 158.833 78.5264 158.91C78.433 158.983 78.3864 159.097 78.3864 159.25C78.3864 159.543 78.578 159.69 78.9614 159.69ZM81.823 157.6H82.313V157.945C82.4264 157.802 82.5647 157.697 82.728 157.63C82.8947 157.56 83.068 157.525 83.248 157.525C83.568 157.525 83.8064 157.61 83.963 157.78C84.1197 157.95 84.198 158.178 84.198 158.465V160H83.693V158.515C83.693 158.125 83.5064 157.93 83.133 157.93C82.973 157.93 82.823 157.968 82.683 158.045C82.5464 158.118 82.428 158.232 82.328 158.385V160H81.823V157.6ZM86.1065 160.99C85.9265 160.99 85.7765 160.972 85.6565 160.935V160.54C85.7432 160.573 85.8498 160.59 85.9765 160.59C86.0932 160.59 86.1848 160.56 86.2515 160.5C86.3182 160.443 86.3782 160.35 86.4315 160.22L86.5465 159.94L85.4965 157.6H86.0165L86.8165 159.445L87.5615 157.6H88.0815L87.0015 160.27C86.9015 160.52 86.7815 160.702 86.6415 160.815C86.5048 160.932 86.3265 160.99 86.1065 160.99ZM93.2416 160.075C92.9516 160.075 92.7183 160.002 92.5416 159.855C92.3683 159.705 92.2816 159.503 92.2816 159.25C92.2816 158.983 92.365 158.778 92.5316 158.635C92.7016 158.488 92.9416 158.415 93.2516 158.415C93.5816 158.415 93.8616 158.482 94.0916 158.615V158.49C94.0916 158.3 94.0333 158.16 93.9166 158.07C93.8033 157.977 93.6233 157.93 93.3766 157.93C93.23 157.93 93.0866 157.945 92.9466 157.975C92.81 158.002 92.6866 158.04 92.5766 158.09V157.68C92.6766 157.633 92.8066 157.597 92.9666 157.57C93.1266 157.54 93.2816 157.525 93.4316 157.525C93.8283 157.525 94.1216 157.613 94.3116 157.79C94.505 157.963 94.6016 158.205 94.6016 158.515V160H94.1266V159.73C94.0233 159.843 93.9 159.93 93.7566 159.99C93.6166 160.047 93.445 160.075 93.2416 160.075ZM93.3666 159.69C93.5266 159.69 93.6716 159.658 93.8016 159.595C93.9316 159.532 94.0283 159.443 94.0916 159.33V159.005C93.875 158.865 93.6333 158.795 93.3666 158.795C93.1733 158.795 93.0283 158.833 92.9316 158.91C92.8383 158.983 92.7916 159.097 92.7916 159.25C92.7916 159.543 92.9833 159.69 93.3666 159.69ZM96.2283 157.6H96.7183V158.03C96.8183 157.883 96.9583 157.775 97.1383 157.705C97.3217 157.635 97.5333 157.6 97.7733 157.6V157.995C97.5167 157.995 97.2967 158.037 97.1133 158.12C96.93 158.203 96.8033 158.335 96.7333 158.515V160H96.2283V157.6ZM99.2254 157.6H99.7054V157.945C99.8187 157.805 99.9471 157.7 100.09 157.63C100.234 157.56 100.382 157.525 100.535 157.525C100.729 157.525 100.882 157.558 100.995 157.625C101.109 157.688 101.192 157.787 101.245 157.92C101.352 157.79 101.482 157.692 101.635 157.625C101.792 157.558 101.949 157.525 102.105 157.525C102.399 157.525 102.61 157.6 102.74 157.75C102.87 157.897 102.935 158.115 102.935 158.405V160H102.445V158.47C102.445 158.273 102.409 158.135 102.335 158.055C102.262 157.972 102.137 157.93 101.96 157.93C101.707 157.93 101.5 158.04 101.34 158.26C101.347 158.31 101.35 158.392 101.35 158.505V160H100.86V158.47C100.86 158.273 100.827 158.135 100.76 158.055C100.694 157.972 100.574 157.93 100.4 157.93C100.147 157.93 99.9204 158.073 99.7204 158.36V160H99.2254V157.6ZM105.753 160.075C105.483 160.075 105.245 160.025 105.038 159.925C104.835 159.822 104.675 159.675 104.558 159.485C104.445 159.292 104.388 159.065 104.388 158.805C104.388 158.548 104.445 158.323 104.558 158.13C104.671 157.937 104.831 157.788 105.038 157.685C105.245 157.578 105.483 157.525 105.753 157.525C106.023 157.525 106.261 157.578 106.468 157.685C106.675 157.788 106.835 157.937 106.948 158.13C107.065 158.323 107.123 158.548 107.123 158.805C107.123 159.065 107.065 159.292 106.948 159.485C106.835 159.675 106.675 159.822 106.468 159.925C106.261 160.025 106.023 160.075 105.753 160.075ZM105.753 159.675C106.013 159.675 106.22 159.595 106.373 159.435C106.526 159.275 106.603 159.065 106.603 158.805C106.603 158.535 106.526 158.322 106.373 158.165C106.22 158.008 106.013 157.93 105.753 157.93C105.493 157.93 105.286 158.008 105.133 158.165C104.98 158.322 104.903 158.535 104.903 158.805C104.903 159.065 104.98 159.275 105.133 159.435C105.286 159.595 105.493 159.675 105.753 159.675ZM108.672 157.6H109.162V158.03C109.262 157.883 109.402 157.775 109.582 157.705C109.765 157.635 109.977 157.6 110.217 157.6V157.995C109.96 157.995 109.74 158.037 109.557 158.12C109.373 158.203 109.247 158.335 109.177 158.515V160H108.672V157.6ZM115.784 160.075C115.514 160.075 115.276 160.025 115.069 159.925C114.866 159.822 114.706 159.675 114.589 159.485C114.476 159.292 114.419 159.065 114.419 158.805C114.419 158.548 114.476 158.323 114.589 158.13C114.703 157.937 114.863 157.788 115.069 157.685C115.276 157.578 115.514 157.525 115.784 157.525C116.054 157.525 116.293 157.578 116.499 157.685C116.706 157.788 116.866 157.937 116.979 158.13C117.096 158.323 117.154 158.548 117.154 158.805C117.154 159.065 117.096 159.292 116.979 159.485C116.866 159.675 116.706 159.822 116.499 159.925C116.293 160.025 116.054 160.075 115.784 160.075ZM115.784 159.675C116.044 159.675 116.251 159.595 116.404 159.435C116.558 159.275 116.634 159.065 116.634 158.805C116.634 158.535 116.558 158.322 116.404 158.165C116.251 158.008 116.044 157.93 115.784 157.93C115.524 157.93 115.318 158.008 115.164 158.165C115.011 158.322 114.934 158.535 114.934 158.805C114.934 159.065 115.011 159.275 115.164 159.435C115.318 159.595 115.524 159.675 115.784 159.675ZM118.703 157.6H119.193V158.03C119.293 157.883 119.433 157.775 119.613 157.705C119.796 157.635 120.008 157.6 120.248 157.6V157.995C119.991 157.995 119.771 158.037 119.588 158.12C119.405 158.203 119.278 158.335 119.208 158.515V160H118.703V157.6ZM18.58 169.15C18.4167 169.15 18.2567 169.137 18.1 169.11C17.9467 169.083 17.8167 169.045 17.71 168.995V168.58C17.96 168.693 18.25 168.75 18.58 168.75C18.89 168.75 19.115 168.682 19.255 168.545C19.3983 168.412 19.47 168.208 19.47 167.935V167.68C19.25 167.943 18.9267 168.075 18.5 168.075C18.2567 168.075 18.0383 168.022 17.845 167.915C17.6517 167.808 17.5 167.658 17.39 167.465C17.28 167.272 17.225 167.05 17.225 166.8C17.225 166.547 17.2783 166.325 17.385 166.135C17.495 165.942 17.645 165.792 17.835 165.685C18.0283 165.578 18.245 165.525 18.485 165.525C18.7083 165.525 18.8967 165.558 19.05 165.625C19.2067 165.688 19.3517 165.795 19.485 165.945V165.6H19.975V167.88C19.975 168.29 19.86 168.603 19.63 168.82C19.4033 169.04 19.0533 169.15 18.58 169.15ZM18.6 167.675C18.8067 167.675 18.9883 167.62 19.145 167.51C19.305 167.4 19.4133 167.253 19.47 167.07V166.53C19.4067 166.343 19.2967 166.197 19.14 166.09C18.9867 165.983 18.8067 165.93 18.6 165.93C18.4367 165.93 18.2883 165.967 18.155 166.04C18.025 166.11 17.9217 166.212 17.845 166.345C17.7717 166.478 17.735 166.63 17.735 166.8C17.735 166.973 17.7717 167.127 17.845 167.26C17.9217 167.39 18.025 167.492 18.155 167.565C18.2883 167.638 18.4367 167.675 18.6 167.675ZM22.9458 168.075C22.5024 168.075 22.1541 167.965 21.9008 167.745C21.6508 167.522 21.5258 167.208 21.5258 166.805C21.5258 166.412 21.6374 166.1 21.8608 165.87C22.0874 165.64 22.4091 165.525 22.8258 165.525C23.1024 165.525 23.3374 165.578 23.5308 165.685C23.7241 165.788 23.8691 165.933 23.9658 166.12C24.0658 166.303 24.1158 166.513 24.1158 166.75V167H22.0058C22.0224 167.227 22.1174 167.397 22.2908 167.51C22.4674 167.62 22.7058 167.675 23.0058 167.675C23.1591 167.675 23.3141 167.662 23.4708 167.635C23.6274 167.605 23.7658 167.567 23.8858 167.52V167.925C23.7791 167.968 23.6374 168.003 23.4608 168.03C23.2874 168.06 23.1158 168.075 22.9458 168.075ZM23.6408 166.645C23.6341 166.418 23.5591 166.243 23.4158 166.12C23.2758 165.993 23.0758 165.93 22.8158 165.93C22.5624 165.93 22.3658 165.995 22.2258 166.125C22.0858 166.255 22.0124 166.428 22.0058 166.645H23.6408ZM26.5278 168.075C26.2378 168.075 26.0044 168.002 25.8278 167.855C25.6544 167.705 25.5678 167.503 25.5678 167.25C25.5678 166.983 25.6511 166.778 25.8178 166.635C25.9878 166.488 26.2278 166.415 26.5378 166.415C26.8678 166.415 27.1478 166.482 27.3778 166.615V166.49C27.3778 166.3 27.3194 166.16 27.2028 166.07C27.0894 165.977 26.9094 165.93 26.6628 165.93C26.5161 165.93 26.3728 165.945 26.2328 165.975C26.0961 166.002 25.9728 166.04 25.8628 166.09V165.68C25.9628 165.633 26.0928 165.597 26.2528 165.57C26.4128 165.54 26.5678 165.525 26.7178 165.525C27.1144 165.525 27.4078 165.613 27.5978 165.79C27.7911 165.963 27.8878 166.205 27.8878 166.515V168H27.4128V167.73C27.3094 167.843 27.1861 167.93 27.0428 167.99C26.9028 168.047 26.7311 168.075 26.5278 168.075ZM26.6528 167.69C26.8128 167.69 26.9578 167.658 27.0878 167.595C27.2178 167.532 27.3144 167.443 27.3778 167.33V167.005C27.1611 166.865 26.9194 166.795 26.6528 166.795C26.4594 166.795 26.3144 166.833 26.2178 166.91C26.1244 166.983 26.0778 167.097 26.0778 167.25C26.0778 167.543 26.2694 167.69 26.6528 167.69ZM29.5145 165.6H30.0045V166.03C30.1045 165.883 30.2445 165.775 30.4245 165.705C30.6078 165.635 30.8195 165.6 31.0595 165.6V165.995C30.8028 165.995 30.5828 166.037 30.3995 166.12C30.2161 166.203 30.0895 166.335 30.0195 166.515V168H29.5145V165.6ZM36.6271 168.075C36.3604 168.075 36.1238 168.025 35.9171 167.925C35.7104 167.825 35.5488 167.68 35.4321 167.49C35.3188 167.297 35.2621 167.068 35.2621 166.805C35.2621 166.542 35.3188 166.315 35.4321 166.125C35.5488 165.932 35.7104 165.783 35.9171 165.68C36.1271 165.577 36.3671 165.525 36.6371 165.525C37.0038 165.525 37.2971 165.597 37.5171 165.74V166.155C37.3004 166.005 37.0238 165.93 36.6871 165.93C36.4138 165.93 36.1921 166.005 36.0221 166.155C35.8554 166.302 35.7721 166.518 35.7721 166.805C35.7721 167.092 35.8554 167.308 36.0221 167.455C36.1888 167.602 36.4071 167.675 36.6771 167.675C37.0138 167.675 37.3038 167.595 37.5471 167.435V167.845C37.4304 167.925 37.2971 167.983 37.1471 168.02C37.0004 168.057 36.8271 168.075 36.6271 168.075ZM39.9321 168.075C39.6421 168.075 39.4087 168.002 39.2321 167.855C39.0587 167.705 38.9721 167.503 38.9721 167.25C38.9721 166.983 39.0554 166.778 39.2221 166.635C39.3921 166.488 39.6321 166.415 39.9421 166.415C40.2721 166.415 40.5521 166.482 40.7821 166.615V166.49C40.7821 166.3 40.7237 166.16 40.6071 166.07C40.4937 165.977 40.3137 165.93 40.0671 165.93C39.9204 165.93 39.7771 165.945 39.6371 165.975C39.5004 166.002 39.3771 166.04 39.2671 166.09V165.68C39.3671 165.633 39.4971 165.597 39.6571 165.57C39.8171 165.54 39.9721 165.525 40.1221 165.525C40.5187 165.525 40.8121 165.613 41.0021 165.79C41.1954 165.963 41.2921 166.205 41.2921 166.515V168H40.8171V167.73C40.7137 167.843 40.5904 167.93 40.4471 167.99C40.3071 168.047 40.1354 168.075 39.9321 168.075ZM40.0571 167.69C40.2171 167.69 40.3621 167.658 40.4921 167.595C40.6221 167.532 40.7187 167.443 40.7821 167.33V167.005C40.5654 166.865 40.3237 166.795 40.0571 166.795C39.8637 166.795 39.7187 166.833 39.6221 166.91C39.5287 166.983 39.4821 167.097 39.4821 167.25C39.4821 167.543 39.6737 167.69 40.0571 167.69ZM42.9188 165.6H43.4088V166.03C43.5088 165.883 43.6488 165.775 43.8288 165.705C44.0121 165.635 44.2238 165.6 44.4638 165.6V165.995C44.2071 165.995 43.9871 166.037 43.8038 166.12C43.6204 166.203 43.4938 166.335 43.4238 166.515V168H42.9188V165.6ZM47.0026 168.075C46.7626 168.075 46.5459 168.023 46.3526 167.92C46.1626 167.813 46.0126 167.665 45.9026 167.475C45.7959 167.282 45.7426 167.058 45.7426 166.805C45.7426 166.555 45.7959 166.333 45.9026 166.14C46.0126 165.947 46.1626 165.797 46.3526 165.69C46.5459 165.58 46.7626 165.525 47.0026 165.525C47.4359 165.525 47.7642 165.657 47.9876 165.92V164.305H48.4926V168H48.0026V167.65C47.8692 167.797 47.7226 167.905 47.5626 167.975C47.4059 168.042 47.2192 168.075 47.0026 168.075ZM47.1176 167.675C47.3242 167.675 47.5042 167.622 47.6576 167.515C47.8142 167.405 47.9242 167.258 47.9876 167.075V166.535C47.9309 166.352 47.8226 166.205 47.6626 166.095C47.5059 165.985 47.3242 165.93 47.1176 165.93C46.9542 165.93 46.8059 165.967 46.6726 166.04C46.5426 166.113 46.4392 166.217 46.3626 166.35C46.2892 166.483 46.2526 166.635 46.2526 166.805C46.2526 166.975 46.2892 167.127 46.3626 167.26C46.4392 167.393 46.5426 167.497 46.6726 167.57C46.8059 167.64 46.9542 167.675 47.1176 167.675ZM50.2784 168C50.2117 168 50.155 167.978 50.1084 167.935C50.065 167.888 50.0434 167.832 50.0434 167.765C50.0434 167.698 50.065 167.642 50.1084 167.595C50.155 167.548 50.2117 167.525 50.2784 167.525C50.345 167.525 50.4017 167.548 50.4484 167.595C50.495 167.642 50.5184 167.698 50.5184 167.765C50.5184 167.832 50.495 167.888 50.4484 167.935C50.4017 167.978 50.345 168 50.2784 168ZM57.7674 164.505H58.2824V168H57.7674V164.505ZM60.8594 168.075C60.616 168.075 60.4277 168.005 60.2944 167.865C60.1644 167.725 60.0994 167.527 60.0994 167.27V165.99H59.7344V165.6H60.0994V164.88H60.6094V165.6H61.1994V165.99H60.6094V167.235C60.6094 167.395 60.6394 167.508 60.6994 167.575C60.7627 167.642 60.876 167.675 61.0394 167.675C61.136 167.675 61.2327 167.653 61.3294 167.61V168.01C61.2027 168.053 61.046 168.075 60.8594 168.075ZM65.9501 165.13C65.8667 165.13 65.7967 165.102 65.7401 165.045C65.6834 164.988 65.6551 164.918 65.6551 164.835C65.6551 164.752 65.6834 164.682 65.7401 164.625C65.7967 164.568 65.8667 164.54 65.9501 164.54C66.0367 164.54 66.1084 164.568 66.1651 164.625C66.2251 164.682 66.2551 164.752 66.2551 164.835C66.2551 164.918 66.2251 164.988 66.1651 165.045C66.1084 165.102 66.0367 165.13 65.9501 165.13ZM65.6951 165.6H66.2101V168H65.6951V165.6ZM68.7901 168.075C68.6234 168.075 68.4467 168.053 68.2601 168.01C68.0734 167.97 67.9267 167.915 67.8201 167.845V167.415C67.9501 167.492 68.1001 167.555 68.2701 167.605C68.4401 167.652 68.6051 167.675 68.7651 167.675C68.9451 167.675 69.0767 167.653 69.1601 167.61C69.2434 167.567 69.2851 167.497 69.2851 167.4C69.2851 167.327 69.2651 167.268 69.2251 167.225C69.1884 167.178 69.1234 167.137 69.0301 167.1C68.9401 167.063 68.8034 167.02 68.6201 166.97C68.4234 166.913 68.2667 166.857 68.1501 166.8C68.0367 166.74 67.9501 166.665 67.8901 166.575C67.8334 166.485 67.8051 166.368 67.8051 166.225C67.8051 165.995 67.8951 165.822 68.0751 165.705C68.2584 165.585 68.5034 165.525 68.8101 165.525C68.9701 165.525 69.1267 165.54 69.2801 165.57C69.4334 165.6 69.5567 165.642 69.6501 165.695V166.115C69.5534 166.058 69.4334 166.013 69.2901 165.98C69.1501 165.947 69.0067 165.93 68.8601 165.93C68.6834 165.93 68.5484 165.952 68.4551 165.995C68.3617 166.038 68.3151 166.115 68.3151 166.225C68.3151 166.295 68.3351 166.352 68.3751 166.395C68.4151 166.438 68.4784 166.477 68.5651 166.51C68.6551 166.54 68.7967 166.58 68.9901 166.63C69.2934 166.713 69.5034 166.812 69.6201 166.925C69.7401 167.038 69.8001 167.195 69.8001 167.395C69.8001 167.602 69.7151 167.767 69.5451 167.89C69.3751 168.013 69.1234 168.075 68.7901 168.075ZM75.062 168.075C74.772 168.075 74.5386 168.002 74.362 167.855C74.1886 167.705 74.102 167.503 74.102 167.25C74.102 166.983 74.1853 166.778 74.352 166.635C74.522 166.488 74.762 166.415 75.072 166.415C75.402 166.415 75.682 166.482 75.912 166.615V166.49C75.912 166.3 75.8536 166.16 75.737 166.07C75.6236 165.977 75.4436 165.93 75.197 165.93C75.0503 165.93 74.907 165.945 74.767 165.975C74.6303 166.002 74.507 166.04 74.397 166.09V165.68C74.497 165.633 74.627 165.597 74.787 165.57C74.947 165.54 75.102 165.525 75.252 165.525C75.6486 165.525 75.942 165.613 76.132 165.79C76.3253 165.963 76.422 166.205 76.422 166.515V168H75.947V167.73C75.8436 167.843 75.7203 167.93 75.577 167.99C75.437 168.047 75.2653 168.075 75.062 168.075ZM75.187 167.69C75.347 167.69 75.492 167.658 75.622 167.595C75.752 167.532 75.8486 167.443 75.912 167.33V167.005C75.6953 166.865 75.4536 166.795 75.187 166.795C74.9936 166.795 74.8486 166.833 74.752 166.91C74.6586 166.983 74.612 167.097 74.612 167.25C74.612 167.543 74.8036 167.69 75.187 167.69ZM80.7992 165.6H81.3342L82.0392 167.325L82.7442 165.6H83.2792L82.2592 168H81.8192L80.7992 165.6ZM85.9487 168.075C85.5054 168.075 85.157 167.965 84.9037 167.745C84.6537 167.522 84.5287 167.208 84.5287 166.805C84.5287 166.412 84.6404 166.1 84.8637 165.87C85.0904 165.64 85.412 165.525 85.8287 165.525C86.1054 165.525 86.3404 165.578 86.5337 165.685C86.727 165.788 86.872 165.933 86.9687 166.12C87.0687 166.303 87.1187 166.513 87.1187 166.75V167H85.0087C85.0254 167.227 85.1204 167.397 85.2937 167.51C85.4704 167.62 85.7087 167.675 86.0087 167.675C86.162 167.675 86.317 167.662 86.4737 167.635C86.6304 167.605 86.7687 167.567 86.8887 167.52V167.925C86.782 167.968 86.6404 168.003 86.4637 168.03C86.2904 168.06 86.1187 168.075 85.9487 168.075ZM86.6437 166.645C86.637 166.418 86.562 166.243 86.4187 166.12C86.2787 165.993 86.0787 165.93 85.8187 165.93C85.5654 165.93 85.3687 165.995 85.2287 166.125C85.0887 166.255 85.0154 166.428 85.0087 166.645H86.6437ZM88.6707 165.6H89.1607V166.03C89.2607 165.883 89.4007 165.775 89.5807 165.705C89.764 165.635 89.9757 165.6 90.2157 165.6V165.995C89.959 165.995 89.739 166.037 89.5557 166.12C89.3724 166.203 89.2457 166.335 89.1757 166.515V168H88.6707V165.6ZM92.1045 168.99C91.9245 168.99 91.7745 168.972 91.6545 168.935V168.54C91.7412 168.573 91.8479 168.59 91.9745 168.59C92.0912 168.59 92.1829 168.56 92.2495 168.5C92.3162 168.443 92.3762 168.35 92.4295 168.22L92.5445 167.94L91.4945 165.6H92.0145L92.8145 167.445L93.5595 165.6H94.0795L92.9995 168.27C92.8995 168.52 92.7795 168.702 92.6395 168.815C92.5029 168.932 92.3245 168.99 92.1045 168.99ZM99.6447 168.075C99.3747 168.075 99.1364 168.025 98.9297 167.925C98.7264 167.822 98.5664 167.675 98.4497 167.485C98.3364 167.292 98.2797 167.065 98.2797 166.805C98.2797 166.548 98.3364 166.323 98.4497 166.13C98.563 165.937 98.723 165.788 98.9297 165.685C99.1364 165.578 99.3747 165.525 99.6447 165.525C99.9147 165.525 100.153 165.578 100.36 165.685C100.566 165.788 100.726 165.937 100.84 166.13C100.956 166.323 101.015 166.548 101.015 166.805C101.015 167.065 100.956 167.292 100.84 167.485C100.726 167.675 100.566 167.822 100.36 167.925C100.153 168.025 99.9147 168.075 99.6447 168.075ZM99.6447 167.675C99.9047 167.675 100.111 167.595 100.265 167.435C100.418 167.275 100.495 167.065 100.495 166.805C100.495 166.535 100.418 166.322 100.265 166.165C100.111 166.008 99.9047 165.93 99.6447 165.93C99.3847 165.93 99.178 166.008 99.0247 166.165C98.8714 166.322 98.7947 166.535 98.7947 166.805C98.7947 167.065 98.8714 167.275 99.0247 167.435C99.178 167.595 99.3847 167.675 99.6447 167.675ZM102.563 164.305H103.068V168H102.563V164.305ZM105.881 168.075C105.641 168.075 105.424 168.023 105.231 167.92C105.041 167.813 104.891 167.665 104.781 167.475C104.674 167.282 104.621 167.058 104.621 166.805C104.621 166.555 104.674 166.333 104.781 166.14C104.891 165.947 105.041 165.797 105.231 165.69C105.424 165.58 105.641 165.525 105.881 165.525C106.314 165.525 106.642 165.657 106.866 165.92V164.305H107.371V168H106.881V167.65C106.747 167.797 106.601 167.905 106.441 167.975C106.284 168.042 106.097 168.075 105.881 168.075ZM105.996 167.675C106.202 167.675 106.382 167.622 106.536 167.515C106.692 167.405 106.802 167.258 106.866 167.075V166.535C106.809 166.352 106.701 166.205 106.541 166.095C106.384 165.985 106.202 165.93 105.996 165.93C105.832 165.93 105.684 165.967 105.551 166.04C105.421 166.113 105.317 166.217 105.241 166.35C105.167 166.483 105.131 166.635 105.131 166.805C105.131 166.975 105.167 167.127 105.241 167.26C105.317 167.393 105.421 167.497 105.551 167.57C105.684 167.64 105.832 167.675 105.996 167.675ZM112.732 168.075C112.442 168.075 112.209 168.002 112.032 167.855C111.859 167.705 111.772 167.503 111.772 167.25C111.772 166.983 111.855 166.778 112.022 166.635C112.192 166.488 112.432 166.415 112.742 166.415C113.072 166.415 113.352 166.482 113.582 166.615V166.49C113.582 166.3 113.524 166.16 113.407 166.07C113.294 165.977 113.114 165.93 112.867 165.93C112.72 165.93 112.577 165.945 112.437 165.975C112.3 166.002 112.177 166.04 112.067 166.09V165.68C112.167 165.633 112.297 165.597 112.457 165.57C112.617 165.54 112.772 165.525 112.922 165.525C113.319 165.525 113.612 165.613 113.802 165.79C113.995 165.963 114.092 166.205 114.092 166.515V168H113.617V167.73C113.514 167.843 113.39 167.93 113.247 167.99C113.107 168.047 112.935 168.075 112.732 168.075ZM112.857 167.69C113.017 167.69 113.162 167.658 113.292 167.595C113.422 167.532 113.519 167.443 113.582 167.33V167.005C113.365 166.865 113.124 166.795 112.857 166.795C112.664 166.795 112.519 166.833 112.422 166.91C112.329 166.983 112.282 167.097 112.282 167.25C112.282 167.543 112.474 167.69 112.857 167.69ZM115.719 165.6H116.209V165.945C116.322 165.802 116.46 165.697 116.624 165.63C116.79 165.56 116.964 165.525 117.144 165.525C117.464 165.525 117.702 165.61 117.859 165.78C118.015 165.95 118.094 166.178 118.094 166.465V168H117.589V166.515C117.589 166.125 117.402 165.93 117.029 165.93C116.869 165.93 116.719 165.968 116.579 166.045C116.442 166.118 116.324 166.232 116.224 166.385V168H115.719V165.6ZM120.877 168.075C120.637 168.075 120.42 168.023 120.227 167.92C120.037 167.813 119.887 167.665 119.777 167.475C119.67 167.282 119.617 167.058 119.617 166.805C119.617 166.555 119.67 166.333 119.777 166.14C119.887 165.947 120.037 165.797 120.227 165.69C120.42 165.58 120.637 165.525 120.877 165.525C121.31 165.525 121.638 165.657 121.862 165.92V164.305H122.367V168H121.877V167.65C121.743 167.797 121.597 167.905 121.437 167.975C121.28 168.042 121.093 168.075 120.877 168.075ZM120.992 167.675C121.198 167.675 121.378 167.622 121.532 167.515C121.688 167.405 121.798 167.258 121.862 167.075V166.535C121.805 166.352 121.697 166.205 121.537 166.095C121.38 165.985 121.198 165.93 120.992 165.93C120.828 165.93 120.68 165.967 120.547 166.04C120.417 166.113 120.313 166.217 120.237 166.35C120.163 166.483 120.127 166.635 120.127 166.805C120.127 166.975 120.163 167.127 120.237 167.26C120.313 167.393 120.417 167.497 120.547 167.57C120.68 167.64 120.828 167.675 120.992 167.675ZM18.815 176.075C18.5983 176.075 18.41 176.042 18.25 175.975C18.0933 175.905 17.9483 175.797 17.815 175.65V176H17.325V172.305H17.83V173.92C17.94 173.79 18.0817 173.692 18.255 173.625C18.4283 173.558 18.615 173.525 18.815 173.525C19.055 173.525 19.27 173.58 19.46 173.69C19.6533 173.797 19.8033 173.947 19.91 174.14C20.02 174.333 20.075 174.555 20.075 174.805C20.075 175.058 20.02 175.282 19.91 175.475C19.8033 175.665 19.6533 175.813 19.46 175.92C19.27 176.023 19.055 176.075 18.815 176.075ZM18.7 175.675C18.8633 175.675 19.01 175.64 19.14 175.57C19.2733 175.497 19.3767 175.393 19.45 175.26C19.5267 175.127 19.565 174.975 19.565 174.805C19.565 174.635 19.5267 174.483 19.45 174.35C19.3767 174.217 19.2733 174.113 19.14 174.04C19.01 173.967 18.8633 173.93 18.7 173.93C18.4967 173.93 18.315 173.985 18.155 174.095C17.995 174.205 17.8867 174.352 17.83 174.535V175.075C17.8933 175.258 18.0017 175.405 18.155 175.515C18.3117 175.622 18.4933 175.675 18.7 175.675ZM21.6258 173.6H22.1158V174.03C22.2158 173.883 22.3558 173.775 22.5358 173.705C22.7191 173.635 22.9308 173.6 23.1708 173.6V173.995C22.9141 173.995 22.6941 174.037 22.5108 174.12C22.3274 174.203 22.2008 174.335 22.1308 174.515V176H21.6258V173.6ZM24.9179 173.13C24.8345 173.13 24.7645 173.102 24.7079 173.045C24.6512 172.988 24.6229 172.918 24.6229 172.835C24.6229 172.752 24.6512 172.682 24.7079 172.625C24.7645 172.568 24.8345 172.54 24.9179 172.54C25.0045 172.54 25.0762 172.568 25.1329 172.625C25.1929 172.682 25.2229 172.752 25.2229 172.835C25.2229 172.918 25.1929 172.988 25.1329 173.045C25.0762 173.102 25.0045 173.13 24.9179 173.13ZM24.6629 173.6H25.1779V176H24.6629V173.6ZM27.7979 176.075C27.5545 176.075 27.3662 176.005 27.2329 175.865C27.1029 175.725 27.0379 175.527 27.0379 175.27V173.99H26.6729V173.6H27.0379V172.88H27.5479V173.6H28.1379V173.99H27.5479V175.235C27.5479 175.395 27.5779 175.508 27.6379 175.575C27.7012 175.642 27.8145 175.675 27.9779 175.675C28.0745 175.675 28.1712 175.653 28.2679 175.61V176.01C28.1412 176.053 27.9845 176.075 27.7979 176.075ZM30.541 176.075C30.2977 176.075 30.1093 176.005 29.976 175.865C29.846 175.725 29.781 175.527 29.781 175.27V173.99H29.416V173.6H29.781V172.88H30.291V173.6H30.881V173.99H30.291V175.235C30.291 175.395 30.321 175.508 30.381 175.575C30.4443 175.642 30.5577 175.675 30.721 175.675C30.8177 175.675 30.9143 175.653 31.011 175.61V176.01C30.8843 176.053 30.7277 176.075 30.541 176.075ZM32.4861 172.305H32.9911V176H32.4861V172.305ZM35.9634 176.075C35.52 176.075 35.1717 175.965 34.9184 175.745C34.6684 175.522 34.5434 175.208 34.5434 174.805C34.5434 174.412 34.655 174.1 34.8784 173.87C35.105 173.64 35.4267 173.525 35.8434 173.525C36.12 173.525 36.355 173.578 36.5484 173.685C36.7417 173.788 36.8867 173.933 36.9834 174.12C37.0834 174.303 37.1334 174.513 37.1334 174.75V175H35.0234C35.04 175.227 35.135 175.397 35.3084 175.51C35.485 175.62 35.7234 175.675 36.0234 175.675C36.1767 175.675 36.3317 175.662 36.4884 175.635C36.645 175.605 36.7834 175.567 36.9034 175.52V175.925C36.7967 175.968 36.655 176.003 36.4784 176.03C36.305 176.06 36.1334 176.075 35.9634 176.075ZM36.6584 174.645C36.6517 174.418 36.5767 174.243 36.4334 174.12C36.2934 173.993 36.0934 173.93 35.8334 173.93C35.58 173.93 35.3834 173.995 35.2434 174.125C35.1034 174.255 35.03 174.428 35.0234 174.645H36.6584ZM42.3959 176.075C42.1059 176.075 41.8726 176.002 41.6959 175.855C41.5226 175.705 41.4359 175.503 41.4359 175.25C41.4359 174.983 41.5193 174.778 41.6859 174.635C41.8559 174.488 42.0959 174.415 42.4059 174.415C42.7359 174.415 43.0159 174.482 43.2459 174.615V174.49C43.2459 174.3 43.1876 174.16 43.0709 174.07C42.9576 173.977 42.7776 173.93 42.5309 173.93C42.3843 173.93 42.2409 173.945 42.1009 173.975C41.9643 174.002 41.8409 174.04 41.7309 174.09V173.68C41.8309 173.633 41.9609 173.597 42.1209 173.57C42.2809 173.54 42.4359 173.525 42.5859 173.525C42.9826 173.525 43.2759 173.613 43.4659 173.79C43.6593 173.963 43.7559 174.205 43.7559 174.515V176H43.2809V175.73C43.1776 175.843 43.0543 175.93 42.9109 175.99C42.7709 176.047 42.5993 176.075 42.3959 176.075ZM42.5209 175.69C42.6809 175.69 42.8259 175.658 42.9559 175.595C43.0859 175.532 43.1826 175.443 43.2459 175.33V175.005C43.0293 174.865 42.7876 174.795 42.5209 174.795C42.3276 174.795 42.1826 174.833 42.0859 174.91C41.9926 174.983 41.9459 175.097 41.9459 175.25C41.9459 175.543 42.1376 175.69 42.5209 175.69ZM45.3826 173.6H45.8726V173.945C45.986 173.802 46.1243 173.697 46.2876 173.63C46.4543 173.56 46.6276 173.525 46.8076 173.525C47.1276 173.525 47.366 173.61 47.5226 173.78C47.6793 173.95 47.7576 174.178 47.7576 174.465V176H47.2526V174.515C47.2526 174.125 47.066 173.93 46.6926 173.93C46.5326 173.93 46.3826 173.968 46.2426 174.045C46.106 174.118 45.9876 174.232 45.8876 174.385V176H45.3826V173.6ZM50.6457 176.075C50.379 176.075 50.1423 176.025 49.9357 175.925C49.729 175.825 49.5673 175.68 49.4507 175.49C49.3373 175.297 49.2807 175.068 49.2807 174.805C49.2807 174.542 49.3373 174.315 49.4507 174.125C49.5673 173.932 49.729 173.783 49.9357 173.68C50.1457 173.577 50.3857 173.525 50.6557 173.525C51.0223 173.525 51.3157 173.597 51.5357 173.74V174.155C51.319 174.005 51.0423 173.93 50.7057 173.93C50.4323 173.93 50.2107 174.005 50.0407 174.155C49.874 174.302 49.7907 174.518 49.7907 174.805C49.7907 175.092 49.874 175.308 50.0407 175.455C50.2073 175.602 50.4257 175.675 50.6957 175.675C51.0323 175.675 51.3223 175.595 51.5657 175.435V175.845C51.449 175.925 51.3157 175.983 51.1657 176.02C51.019 176.057 50.8457 176.075 50.6457 176.075ZM53.115 172.305H53.62V173.93C53.85 173.66 54.1567 173.525 54.54 173.525C54.86 173.525 55.0984 173.61 55.255 173.78C55.4117 173.95 55.49 174.178 55.49 174.465V176H54.985V174.515C54.985 174.125 54.7984 173.93 54.425 173.93C54.265 173.93 54.115 173.968 53.975 174.045C53.8384 174.118 53.72 174.232 53.62 174.385V176H53.115V172.305ZM58.3048 176.075C58.0348 176.075 57.7965 176.025 57.5898 175.925C57.3865 175.822 57.2265 175.675 57.1098 175.485C56.9965 175.292 56.9398 175.065 56.9398 174.805C56.9398 174.548 56.9965 174.323 57.1098 174.13C57.2232 173.937 57.3832 173.788 57.5898 173.685C57.7965 173.578 58.0348 173.525 58.3048 173.525C58.5748 173.525 58.8132 173.578 59.0198 173.685C59.2265 173.788 59.3865 173.937 59.4998 174.13C59.6165 174.323 59.6748 174.548 59.6748 174.805C59.6748 175.065 59.6165 175.292 59.4998 175.485C59.3865 175.675 59.2265 175.822 59.0198 175.925C58.8132 176.025 58.5748 176.075 58.3048 176.075ZM58.3048 175.675C58.5648 175.675 58.7715 175.595 58.9248 175.435C59.0782 175.275 59.1548 175.065 59.1548 174.805C59.1548 174.535 59.0782 174.322 58.9248 174.165C58.7715 174.008 58.5648 173.93 58.3048 173.93C58.0448 173.93 57.8382 174.008 57.6848 174.165C57.5315 174.322 57.4548 174.535 57.4548 174.805C57.4548 175.065 57.5315 175.275 57.6848 175.435C57.8382 175.595 58.0448 175.675 58.3048 175.675ZM61.2234 173.6H61.7134V174.03C61.8134 173.883 61.9534 173.775 62.1334 173.705C62.3168 173.635 62.5284 173.6 62.7684 173.6V173.995C62.5118 173.995 62.2918 174.037 62.1084 174.12C61.9251 174.203 61.7984 174.335 61.7284 174.515V176H61.2234V173.6ZM64.0519 175.735H64.5819L64.1069 176.74H63.6469L64.0519 175.735ZM69.8692 176.075C69.7025 176.075 69.5258 176.053 69.3392 176.01C69.1525 175.97 69.0058 175.915 68.8992 175.845V175.415C69.0292 175.492 69.1792 175.555 69.3492 175.605C69.5192 175.652 69.6842 175.675 69.8442 175.675C70.0242 175.675 70.1558 175.653 70.2392 175.61C70.3225 175.567 70.3642 175.497 70.3642 175.4C70.3642 175.327 70.3442 175.268 70.3042 175.225C70.2675 175.178 70.2025 175.137 70.1092 175.1C70.0192 175.063 69.8825 175.02 69.6992 174.97C69.5025 174.913 69.3458 174.857 69.2292 174.8C69.1158 174.74 69.0292 174.665 68.9692 174.575C68.9125 174.485 68.8842 174.368 68.8842 174.225C68.8842 173.995 68.9742 173.822 69.1542 173.705C69.3375 173.585 69.5825 173.525 69.8892 173.525C70.0492 173.525 70.2058 173.54 70.3592 173.57C70.5125 173.6 70.6358 173.642 70.7292 173.695V174.115C70.6325 174.058 70.5125 174.013 70.3692 173.98C70.2292 173.947 70.0858 173.93 69.9392 173.93C69.7625 173.93 69.6275 173.952 69.5342 173.995C69.4408 174.038 69.3942 174.115 69.3942 174.225C69.3942 174.295 69.4142 174.352 69.4542 174.395C69.4942 174.438 69.5575 174.477 69.6442 174.51C69.7342 174.54 69.8758 174.58 70.0692 174.63C70.3725 174.713 70.5825 174.812 70.6992 174.925C70.8192 175.038 70.8792 175.195 70.8792 175.395C70.8792 175.602 70.7942 175.767 70.6242 175.89C70.4542 176.013 70.2025 176.075 69.8692 176.075ZM73.6222 176.075C73.3522 176.075 73.1139 176.025 72.9072 175.925C72.7039 175.822 72.5439 175.675 72.4272 175.485C72.3139 175.292 72.2572 175.065 72.2572 174.805C72.2572 174.548 72.3139 174.323 72.4272 174.13C72.5406 173.937 72.7006 173.788 72.9072 173.685C73.1139 173.578 73.3522 173.525 73.6222 173.525C73.8922 173.525 74.1306 173.578 74.3372 173.685C74.5439 173.788 74.7039 173.937 74.8172 174.13C74.9339 174.323 74.9922 174.548 74.9922 174.805C74.9922 175.065 74.9339 175.292 74.8172 175.485C74.7039 175.675 74.5439 175.822 74.3372 175.925C74.1306 176.025 73.8922 176.075 73.6222 176.075ZM73.6222 175.675C73.8822 175.675 74.0889 175.595 74.2422 175.435C74.3956 175.275 74.4722 175.065 74.4722 174.805C74.4722 174.535 74.3956 174.322 74.2422 174.165C74.0889 174.008 73.8822 173.93 73.6222 173.93C73.3622 173.93 73.1556 174.008 73.0022 174.165C72.8489 174.322 72.7722 174.535 72.7722 174.805C72.7722 175.065 72.8489 175.275 73.0022 175.435C73.1556 175.595 73.3622 175.675 73.6222 175.675ZM79.6864 173.13C79.6031 173.13 79.5331 173.102 79.4764 173.045C79.4197 172.988 79.3914 172.918 79.3914 172.835C79.3914 172.752 79.4197 172.682 79.4764 172.625C79.5331 172.568 79.6031 172.54 79.6864 172.54C79.7731 172.54 79.8447 172.568 79.9014 172.625C79.9614 172.682 79.9914 172.752 79.9914 172.835C79.9914 172.918 79.9614 172.988 79.9014 173.045C79.8447 173.102 79.7731 173.13 79.6864 173.13ZM79.4314 173.6H79.9464V176H79.4314V173.6ZM82.5664 176.075C82.3231 176.075 82.1347 176.005 82.0014 175.865C81.8714 175.725 81.8064 175.527 81.8064 175.27V173.99H81.4414V173.6H81.8064V172.88H82.3164V173.6H82.9064V173.99H82.3164V175.235C82.3164 175.395 82.3464 175.508 82.4064 175.575C82.4697 175.642 82.5831 175.675 82.7464 175.675C82.8431 175.675 82.9397 175.653 83.0364 175.61V176.01C82.9097 176.053 82.7531 176.075 82.5664 176.075ZM88.6271 176.075C88.3604 176.075 88.1238 176.025 87.9171 175.925C87.7104 175.825 87.5488 175.68 87.4321 175.49C87.3188 175.297 87.2621 175.068 87.2621 174.805C87.2621 174.542 87.3188 174.315 87.4321 174.125C87.5488 173.932 87.7104 173.783 87.9171 173.68C88.1271 173.577 88.3671 173.525 88.6371 173.525C89.0038 173.525 89.2971 173.597 89.5171 173.74V174.155C89.3004 174.005 89.0238 173.93 88.6871 173.93C88.4138 173.93 88.1921 174.005 88.0221 174.155C87.8554 174.302 87.7721 174.518 87.7721 174.805C87.7721 175.092 87.8554 175.308 88.0221 175.455C88.1888 175.602 88.4071 175.675 88.6771 175.675C89.0138 175.675 89.3038 175.595 89.5471 175.435V175.845C89.4304 175.925 89.2971 175.983 89.1471 176.02C89.0004 176.057 88.8271 176.075 88.6271 176.075ZM91.9321 176.075C91.6421 176.075 91.4087 176.002 91.2321 175.855C91.0587 175.705 90.9721 175.503 90.9721 175.25C90.9721 174.983 91.0554 174.778 91.2221 174.635C91.3921 174.488 91.6321 174.415 91.9421 174.415C92.2721 174.415 92.5521 174.482 92.7821 174.615V174.49C92.7821 174.3 92.7237 174.16 92.6071 174.07C92.4937 173.977 92.3137 173.93 92.0671 173.93C91.9204 173.93 91.7771 173.945 91.6371 173.975C91.5004 174.002 91.3771 174.04 91.2671 174.09V173.68C91.3671 173.633 91.4971 173.597 91.6571 173.57C91.8171 173.54 91.9721 173.525 92.1221 173.525C92.5187 173.525 92.8121 173.613 93.0021 173.79C93.1954 173.963 93.2921 174.205 93.2921 174.515V176H92.8171V175.73C92.7137 175.843 92.5904 175.93 92.4471 175.99C92.3071 176.047 92.1354 176.075 91.9321 176.075ZM92.0571 175.69C92.2171 175.69 92.3621 175.658 92.4921 175.595C92.6221 175.532 92.7187 175.443 92.7821 175.33V175.005C92.5654 174.865 92.3237 174.795 92.0571 174.795C91.8637 174.795 91.7187 174.833 91.6221 174.91C91.5287 174.983 91.4821 175.097 91.4821 175.25C91.4821 175.543 91.6737 175.69 92.0571 175.69ZM94.9188 173.6H95.4088V173.945C95.5221 173.802 95.6604 173.697 95.8238 173.63C95.9904 173.56 96.1638 173.525 96.3438 173.525C96.6638 173.525 96.9021 173.61 97.0588 173.78C97.2154 173.95 97.2938 174.178 97.2938 174.465V176H96.7888V174.515C96.7888 174.125 96.6021 173.93 96.2288 173.93C96.0688 173.93 95.9188 173.968 95.7788 174.045C95.6421 174.118 95.5238 174.232 95.4238 174.385V176H94.9188V173.6ZM103.032 176.075C102.762 176.075 102.524 176.025 102.317 175.925C102.114 175.822 101.954 175.675 101.837 175.485C101.724 175.292 101.667 175.065 101.667 174.805C101.667 174.548 101.724 174.323 101.837 174.13C101.951 173.937 102.111 173.788 102.317 173.685C102.524 173.578 102.762 173.525 103.032 173.525C103.302 173.525 103.541 173.578 103.747 173.685C103.954 173.788 104.114 173.937 104.227 174.13C104.344 174.323 104.402 174.548 104.402 174.805C104.402 175.065 104.344 175.292 104.227 175.485C104.114 175.675 103.954 175.822 103.747 175.925C103.541 176.025 103.302 176.075 103.032 176.075ZM103.032 175.675C103.292 175.675 103.499 175.595 103.652 175.435C103.806 175.275 103.882 175.065 103.882 174.805C103.882 174.535 103.806 174.322 103.652 174.165C103.499 174.008 103.292 173.93 103.032 173.93C102.772 173.93 102.566 174.008 102.412 174.165C102.259 174.322 102.182 174.535 102.182 174.805C102.182 175.065 102.259 175.275 102.412 175.435C102.566 175.595 102.772 175.675 103.032 175.675ZM105.951 173.6H106.441V173.945C106.554 173.802 106.693 173.697 106.856 173.63C107.023 173.56 107.196 173.525 107.376 173.525C107.696 173.525 107.934 173.61 108.091 173.78C108.248 173.95 108.326 174.178 108.326 174.465V176H107.821V174.515C107.821 174.125 107.634 173.93 107.261 173.93C107.101 173.93 106.951 173.968 106.811 174.045C106.674 174.118 106.556 174.232 106.456 174.385V176H105.951V173.6ZM109.949 172.305H110.454V176H109.949V172.305ZM112.616 176.99C112.436 176.99 112.286 176.972 112.166 176.935V176.54C112.253 176.573 112.36 176.59 112.486 176.59C112.603 176.59 112.695 176.56 112.761 176.5C112.828 176.443 112.888 176.35 112.941 176.22L113.056 175.94L112.006 173.6H112.526L113.326 175.445L114.071 173.6H114.591L113.511 176.27C113.411 176.52 113.291 176.702 113.151 176.815C113.015 176.932 112.836 176.99 112.616 176.99ZM120.381 176.075C120.165 176.075 119.976 176.042 119.816 175.975C119.66 175.905 119.515 175.797 119.381 175.65V176H118.891V172.305H119.396V173.92C119.506 173.79 119.648 173.692 119.821 173.625C119.995 173.558 120.181 173.525 120.381 173.525C120.621 173.525 120.836 173.58 121.026 173.69C121.22 173.797 121.37 173.947 121.476 174.14C121.586 174.333 121.641 174.555 121.641 174.805C121.641 175.058 121.586 175.282 121.476 175.475C121.37 175.665 121.22 175.813 121.026 175.92C120.836 176.023 120.621 176.075 120.381 176.075ZM120.266 175.675C120.43 175.675 120.576 175.64 120.706 175.57C120.84 175.497 120.943 175.393 121.016 175.26C121.093 175.127 121.131 174.975 121.131 174.805C121.131 174.635 121.093 174.483 121.016 174.35C120.943 174.217 120.84 174.113 120.706 174.04C120.576 173.967 120.43 173.93 120.266 173.93C120.063 173.93 119.881 173.985 119.721 174.095C119.561 174.205 119.453 174.352 119.396 174.535V175.075C119.46 175.258 119.568 175.405 119.721 175.515C119.878 175.622 120.06 175.675 120.266 175.675ZM124.512 176.075C124.069 176.075 123.721 175.965 123.467 175.745C123.217 175.522 123.092 175.208 123.092 174.805C123.092 174.412 123.204 174.1 123.427 173.87C123.654 173.64 123.976 173.525 124.392 173.525C124.669 173.525 124.904 173.578 125.097 173.685C125.291 173.788 125.436 173.933 125.532 174.12C125.632 174.303 125.682 174.513 125.682 174.75V175H123.572C123.589 175.227 123.684 175.397 123.857 175.51C124.034 175.62 124.272 175.675 124.572 175.675C124.726 175.675 124.881 175.662 125.037 175.635C125.194 175.605 125.332 175.567 125.452 175.52V175.925C125.346 175.968 125.204 176.003 125.027 176.03C124.854 176.06 124.682 176.075 124.512 176.075ZM125.207 174.645C125.201 174.418 125.126 174.243 124.982 174.12C124.842 173.993 124.642 173.93 124.382 173.93C124.129 173.93 123.932 173.995 123.792 174.125C123.652 174.255 123.579 174.428 123.572 174.645H125.207ZM18.28 184.075C17.9567 184.075 17.7117 183.988 17.545 183.815C17.3817 183.642 17.3 183.41 17.3 183.12V181.6H17.805V183.1C17.805 183.483 17.9967 183.675 18.38 183.675C18.7167 183.675 18.98 183.523 19.17 183.22V181.6H19.675V184H19.185V183.66C19.0717 183.803 18.9367 183.908 18.78 183.975C18.6267 184.042 18.46 184.075 18.28 184.075ZM22.208 184.075C22.0414 184.075 21.8647 184.053 21.678 184.01C21.4914 183.97 21.3447 183.915 21.238 183.845V183.415C21.368 183.492 21.518 183.555 21.688 183.605C21.858 183.652 22.023 183.675 22.183 183.675C22.363 183.675 22.4947 183.653 22.578 183.61C22.6614 183.567 22.703 183.497 22.703 183.4C22.703 183.327 22.683 183.268 22.643 183.225C22.6064 183.178 22.5414 183.137 22.448 183.1C22.358 183.063 22.2214 183.02 22.038 182.97C21.8414 182.913 21.6847 182.857 21.568 182.8C21.4547 182.74 21.368 182.665 21.308 182.575C21.2514 182.485 21.223 182.368 21.223 182.225C21.223 181.995 21.313 181.822 21.493 181.705C21.6764 181.585 21.9214 181.525 22.228 181.525C22.388 181.525 22.5447 181.54 22.698 181.57C22.8514 181.6 22.9747 181.642 23.068 181.695V182.115C22.9714 182.058 22.8514 182.013 22.708 181.98C22.568 181.947 22.4247 181.93 22.278 181.93C22.1014 181.93 21.9664 181.952 21.873 181.995C21.7797 182.038 21.733 182.115 21.733 182.225C21.733 182.295 21.753 182.352 21.793 182.395C21.833 182.438 21.8964 182.477 21.983 182.51C22.073 182.54 22.2147 182.58 22.408 182.63C22.7114 182.713 22.9214 182.812 23.038 182.925C23.158 183.038 23.218 183.195 23.218 183.395C23.218 183.602 23.133 183.767 22.963 183.89C22.793 184.013 22.5414 184.075 22.208 184.075ZM26.0893 184.075C25.646 184.075 25.2977 183.965 25.0443 183.745C24.7943 183.522 24.6693 183.208 24.6693 182.805C24.6693 182.412 24.781 182.1 25.0043 181.87C25.231 181.64 25.5527 181.525 25.9693 181.525C26.246 181.525 26.481 181.578 26.6743 181.685C26.8677 181.788 27.0127 181.933 27.1093 182.12C27.2093 182.303 27.2593 182.513 27.2593 182.75V183H25.1493C25.166 183.227 25.261 183.397 25.4343 183.51C25.611 183.62 25.8493 183.675 26.1493 183.675C26.3027 183.675 26.4577 183.662 26.6143 183.635C26.771 183.605 26.9093 183.567 27.0293 183.52V183.925C26.9227 183.968 26.781 184.003 26.6043 184.03C26.431 184.06 26.2593 184.075 26.0893 184.075ZM26.7843 182.645C26.7777 182.418 26.7027 182.243 26.5593 182.12C26.4193 181.993 26.2193 181.93 25.9593 181.93C25.706 181.93 25.5093 181.995 25.3693 182.125C25.2293 182.255 25.156 182.428 25.1493 182.645H26.7843ZM29.9713 184.075C29.7313 184.075 29.5147 184.023 29.3213 183.92C29.1313 183.813 28.9813 183.665 28.8713 183.475C28.7647 183.282 28.7113 183.058 28.7113 182.805C28.7113 182.555 28.7647 182.333 28.8713 182.14C28.9813 181.947 29.1313 181.797 29.3213 181.69C29.5147 181.58 29.7313 181.525 29.9713 181.525C30.4047 181.525 30.733 181.657 30.9563 181.92V180.305H31.4613V184H30.9713V183.65C30.838 183.797 30.6913 183.905 30.5313 183.975C30.3747 184.042 30.188 184.075 29.9713 184.075ZM30.0863 183.675C30.293 183.675 30.473 183.622 30.6263 183.515C30.783 183.405 30.893 183.258 30.9563 183.075V182.535C30.8997 182.352 30.7913 182.205 30.6313 182.095C30.4747 181.985 30.293 181.93 30.0863 181.93C29.923 181.93 29.7747 181.967 29.6413 182.04C29.5113 182.113 29.408 182.217 29.3313 182.35C29.258 182.483 29.2213 182.635 29.2213 182.805C29.2213 182.975 29.258 183.127 29.3313 183.26C29.408 183.393 29.5113 183.497 29.6413 183.57C29.7747 183.64 29.923 183.675 30.0863 183.675ZM36.8877 184.075C36.6444 184.075 36.456 184.005 36.3227 183.865C36.1927 183.725 36.1277 183.527 36.1277 183.27V181.99H35.7627V181.6H36.1277V180.88H36.6377V181.6H37.2277V181.99H36.6377V183.235C36.6377 183.395 36.6677 183.508 36.7277 183.575C36.791 183.642 36.9044 183.675 37.0677 183.675C37.1644 183.675 37.261 183.653 37.3577 183.61V184.01C37.231 184.053 37.0744 184.075 36.8877 184.075ZM38.6059 181.6H39.1209L39.6609 183.38L40.1959 181.6H40.6509L41.1859 183.38L41.7259 181.6H42.2459L41.4659 184H40.9809L40.4259 182.21L39.8709 184H39.3809L38.6059 181.6ZM44.0927 181.13C44.0093 181.13 43.9393 181.102 43.8827 181.045C43.826 180.988 43.7977 180.918 43.7977 180.835C43.7977 180.752 43.826 180.682 43.8827 180.625C43.9393 180.568 44.0093 180.54 44.0927 180.54C44.1793 180.54 44.251 180.568 44.3077 180.625C44.3677 180.682 44.3977 180.752 44.3977 180.835C44.3977 180.918 44.3677 180.988 44.3077 181.045C44.251 181.102 44.1793 181.13 44.0927 181.13ZM43.8377 181.6H44.3527V184H43.8377V181.6ZM47.3127 184.075C47.046 184.075 46.8093 184.025 46.6027 183.925C46.396 183.825 46.2343 183.68 46.1177 183.49C46.0043 183.297 45.9477 183.068 45.9477 182.805C45.9477 182.542 46.0043 182.315 46.1177 182.125C46.2343 181.932 46.396 181.783 46.6027 181.68C46.8127 181.577 47.0527 181.525 47.3227 181.525C47.6893 181.525 47.9827 181.597 48.2027 181.74V182.155C47.986 182.005 47.7093 181.93 47.3727 181.93C47.0993 181.93 46.8777 182.005 46.7077 182.155C46.541 182.302 46.4577 182.518 46.4577 182.805C46.4577 183.092 46.541 183.308 46.7077 183.455C46.8743 183.602 47.0927 183.675 47.3627 183.675C47.6993 183.675 47.9893 183.595 48.2327 183.435V183.845C48.116 183.925 47.9827 183.983 47.8327 184.02C47.686 184.057 47.5127 184.075 47.3127 184.075ZM51.102 184.075C50.6587 184.075 50.3104 183.965 50.057 183.745C49.807 183.522 49.682 183.208 49.682 182.805C49.682 182.412 49.7937 182.1 50.017 181.87C50.2437 181.64 50.5654 181.525 50.982 181.525C51.2587 181.525 51.4937 181.578 51.687 181.685C51.8804 181.788 52.0254 181.933 52.122 182.12C52.222 182.303 52.272 182.513 52.272 182.75V183H50.162C50.1787 183.227 50.2737 183.397 50.447 183.51C50.6237 183.62 50.862 183.675 51.162 183.675C51.3154 183.675 51.4704 183.662 51.627 183.635C51.7837 183.605 51.922 183.567 52.042 183.52V183.925C51.9354 183.968 51.7937 184.003 51.617 184.03C51.4437 184.06 51.272 184.075 51.102 184.075ZM51.797 182.645C51.7904 182.418 51.7154 182.243 51.572 182.12C51.432 181.993 51.232 181.93 50.972 181.93C50.7187 181.93 50.522 181.995 50.382 182.125C50.242 182.255 50.1687 182.428 50.162 182.645H51.797ZM58.1646 184.075C57.9479 184.075 57.7596 184.042 57.5996 183.975C57.4429 183.905 57.2979 183.797 57.1646 183.65V184H56.6746V180.305H57.1796V181.92C57.2896 181.79 57.4313 181.692 57.6046 181.625C57.7779 181.558 57.9646 181.525 58.1646 181.525C58.4046 181.525 58.6196 181.58 58.8096 181.69C59.0029 181.797 59.1529 181.947 59.2596 182.14C59.3696 182.333 59.4246 182.555 59.4246 182.805C59.4246 183.058 59.3696 183.282 59.2596 183.475C59.1529 183.665 59.0029 183.813 58.8096 183.92C58.6196 184.023 58.4046 184.075 58.1646 184.075ZM58.0496 183.675C58.2129 183.675 58.3596 183.64 58.4896 183.57C58.6229 183.497 58.7263 183.393 58.7996 183.26C58.8763 183.127 58.9146 182.975 58.9146 182.805C58.9146 182.635 58.8763 182.483 58.7996 182.35C58.7263 182.217 58.6229 182.113 58.4896 182.04C58.3596 181.967 58.2129 181.93 58.0496 181.93C57.8463 181.93 57.6646 181.985 57.5046 182.095C57.3446 182.205 57.2363 182.352 57.1796 182.535V183.075C57.2429 183.258 57.3513 183.405 57.5046 183.515C57.6613 183.622 57.8429 183.675 58.0496 183.675ZM62.2954 184.075C61.8521 184.075 61.5037 183.965 61.2504 183.745C61.0004 183.522 60.8754 183.208 60.8754 182.805C60.8754 182.412 60.9871 182.1 61.2104 181.87C61.4371 181.64 61.7587 181.525 62.1754 181.525C62.4521 181.525 62.6871 181.578 62.8804 181.685C63.0737 181.788 63.2187 181.933 63.3154 182.12C63.4154 182.303 63.4654 182.513 63.4654 182.75V183H61.3554C61.3721 183.227 61.4671 183.397 61.6404 183.51C61.8171 183.62 62.0554 183.675 62.3554 183.675C62.5087 183.675 62.6637 183.662 62.8204 183.635C62.9771 183.605 63.1154 183.567 63.2354 183.52V183.925C63.1287 183.968 62.9871 184.003 62.8104 184.03C62.6371 184.06 62.4654 184.075 62.2954 184.075ZM62.9904 182.645C62.9837 182.418 62.9087 182.243 62.7654 182.12C62.6254 181.993 62.4254 181.93 62.1654 181.93C61.9121 181.93 61.7154 181.995 61.5754 182.125C61.4354 182.255 61.3621 182.428 61.3554 182.645H62.9904ZM65.1824 181.99H64.8174V181.6H65.1824V181.13C65.1824 180.853 65.2607 180.643 65.4174 180.5C65.574 180.353 65.784 180.28 66.0474 180.28C66.184 180.28 66.3124 180.3 66.4324 180.34V180.76C66.339 180.717 66.2424 180.695 66.1424 180.695C65.9857 180.695 65.8707 180.733 65.7974 180.81C65.724 180.883 65.6874 181 65.6874 181.16V181.6H66.2874V181.99H65.6874V184H65.1824V181.99ZM68.8693 184.075C68.5993 184.075 68.361 184.025 68.1543 183.925C67.951 183.822 67.791 183.675 67.6743 183.485C67.561 183.292 67.5043 183.065 67.5043 182.805C67.5043 182.548 67.561 182.323 67.6743 182.13C67.7876 181.937 67.9476 181.788 68.1543 181.685C68.361 181.578 68.5993 181.525 68.8693 181.525C69.1393 181.525 69.3776 181.578 69.5843 181.685C69.791 181.788 69.951 181.937 70.0643 182.13C70.181 182.323 70.2393 182.548 70.2393 182.805C70.2393 183.065 70.181 183.292 70.0643 183.485C69.951 183.675 69.791 183.822 69.5843 183.925C69.3776 184.025 69.1393 184.075 68.8693 184.075ZM68.8693 183.675C69.1293 183.675 69.336 183.595 69.4893 183.435C69.6426 183.275 69.7193 183.065 69.7193 182.805C69.7193 182.535 69.6426 182.322 69.4893 182.165C69.336 182.008 69.1293 181.93 68.8693 181.93C68.6093 181.93 68.4026 182.008 68.2493 182.165C68.096 182.322 68.0193 182.535 68.0193 182.805C68.0193 183.065 68.096 183.275 68.2493 183.435C68.4026 183.595 68.6093 183.675 68.8693 183.675ZM71.7879 181.6H72.2779V182.03C72.3779 181.883 72.5179 181.775 72.6979 181.705C72.8812 181.635 73.0929 181.6 73.3329 181.6V181.995C73.0762 181.995 72.8562 182.037 72.6729 182.12C72.4896 182.203 72.3629 182.335 72.2929 182.515V184H71.7879V181.6ZM75.9536 184.075C75.5103 184.075 75.1619 183.965 74.9086 183.745C74.6586 183.522 74.5336 183.208 74.5336 182.805C74.5336 182.412 74.6453 182.1 74.8686 181.87C75.0953 181.64 75.4169 181.525 75.8336 181.525C76.1103 181.525 76.3453 181.578 76.5386 181.685C76.7319 181.788 76.8769 181.933 76.9736 182.12C77.0736 182.303 77.1236 182.513 77.1236 182.75V183H75.0136C75.0303 183.227 75.1253 183.397 75.2986 183.51C75.4753 183.62 75.7136 183.675 76.0136 183.675C76.1669 183.675 76.3219 183.662 76.4786 183.635C76.6353 183.605 76.7736 183.567 76.8936 183.52V183.925C76.7869 183.968 76.6453 184.003 76.4686 184.03C76.2953 184.06 76.1236 184.075 75.9536 184.075ZM76.6486 182.645C76.6419 182.418 76.5669 182.243 76.4236 182.12C76.2836 181.993 76.0836 181.93 75.8236 181.93C75.5703 181.93 75.3736 181.995 75.2336 182.125C75.0936 182.255 75.0203 182.428 75.0136 182.645H76.6486ZM83.0162 184.075C82.7995 184.075 82.6112 184.042 82.4512 183.975C82.2945 183.905 82.1495 183.797 82.0162 183.65V184H81.5262V180.305H82.0312V181.92C82.1412 181.79 82.2828 181.692 82.4562 181.625C82.6295 181.558 82.8162 181.525 83.0162 181.525C83.2562 181.525 83.4712 181.58 83.6612 181.69C83.8545 181.797 84.0045 181.947 84.1112 182.14C84.2212 182.333 84.2762 182.555 84.2762 182.805C84.2762 183.058 84.2212 183.282 84.1112 183.475C84.0045 183.665 83.8545 183.813 83.6612 183.92C83.4712 184.023 83.2562 184.075 83.0162 184.075ZM82.9012 183.675C83.0645 183.675 83.2112 183.64 83.3412 183.57C83.4745 183.497 83.5778 183.393 83.6512 183.26C83.7278 183.127 83.7662 182.975 83.7662 182.805C83.7662 182.635 83.7278 182.483 83.6512 182.35C83.5778 182.217 83.4745 182.113 83.3412 182.04C83.2112 181.967 83.0645 181.93 82.9012 181.93C82.6978 181.93 82.5162 181.985 82.3562 182.095C82.1962 182.205 82.0878 182.352 82.0312 182.535V183.075C82.0945 183.258 82.2028 183.405 82.3562 183.515C82.5128 183.622 82.6945 183.675 82.9012 183.675ZM85.827 181.6H86.317V182.03C86.417 181.883 86.557 181.775 86.737 181.705C86.9203 181.635 87.132 181.6 87.372 181.6V181.995C87.1153 181.995 86.8953 182.037 86.712 182.12C86.5286 182.203 86.402 182.335 86.332 182.515V184H85.827V181.6ZM89.9927 184.075C89.5493 184.075 89.201 183.965 88.9477 183.745C88.6977 183.522 88.5727 183.208 88.5727 182.805C88.5727 182.412 88.6843 182.1 88.9077 181.87C89.1343 181.64 89.456 181.525 89.8727 181.525C90.1493 181.525 90.3843 181.578 90.5777 181.685C90.771 181.788 90.916 181.933 91.0127 182.12C91.1127 182.303 91.1627 182.513 91.1627 182.75V183H89.0527C89.0693 183.227 89.1643 183.397 89.3377 183.51C89.5143 183.62 89.7527 183.675 90.0527 183.675C90.206 183.675 90.361 183.662 90.5177 183.635C90.6743 183.605 90.8127 183.567 90.9327 183.52V183.925C90.826 183.968 90.6843 184.003 90.5077 184.03C90.3343 184.06 90.1627 184.075 89.9927 184.075ZM90.6877 182.645C90.681 182.418 90.606 182.243 90.4627 182.12C90.3227 181.993 90.1227 181.93 89.8627 181.93C89.6093 181.93 89.4127 181.995 89.2727 182.125C89.1327 182.255 89.0593 182.428 89.0527 182.645H90.6877ZM93.5746 184.075C93.2846 184.075 93.0513 184.002 92.8746 183.855C92.7013 183.705 92.6146 183.503 92.6146 183.25C92.6146 182.983 92.698 182.778 92.8646 182.635C93.0346 182.488 93.2746 182.415 93.5846 182.415C93.9146 182.415 94.1946 182.482 94.4246 182.615V182.49C94.4246 182.3 94.3663 182.16 94.2496 182.07C94.1363 181.977 93.9563 181.93 93.7096 181.93C93.563 181.93 93.4196 181.945 93.2796 181.975C93.143 182.002 93.0196 182.04 92.9096 182.09V181.68C93.0096 181.633 93.1396 181.597 93.2996 181.57C93.4596 181.54 93.6146 181.525 93.7646 181.525C94.1613 181.525 94.4546 181.613 94.6446 181.79C94.838 181.963 94.9346 182.205 94.9346 182.515V184H94.4596V183.73C94.3563 183.843 94.233 183.93 94.0896 183.99C93.9496 184.047 93.778 184.075 93.5746 184.075ZM93.6996 183.69C93.8596 183.69 94.0046 183.658 94.1346 183.595C94.2646 183.532 94.3613 183.443 94.4246 183.33V183.005C94.208 182.865 93.9663 182.795 93.6996 182.795C93.5063 182.795 93.3613 182.833 93.2646 182.91C93.1713 182.983 93.1246 183.097 93.1246 183.25C93.1246 183.543 93.3163 183.69 93.6996 183.69ZM96.5613 180.305H97.0663V184H96.5613V180.305ZM97.0713 182.785L98.1763 181.6H98.7913L97.6813 182.785L98.9063 184H98.2913L97.0713 182.785ZM100.703 181.13C100.62 181.13 100.55 181.102 100.493 181.045C100.436 180.988 100.408 180.918 100.408 180.835C100.408 180.752 100.436 180.682 100.493 180.625C100.55 180.568 100.62 180.54 100.703 180.54C100.79 180.54 100.861 180.568 100.918 180.625C100.978 180.682 101.008 180.752 101.008 180.835C101.008 180.918 100.978 180.988 100.918 181.045C100.861 181.102 100.79 181.13 100.703 181.13ZM100.448 181.6H100.963V184H100.448V181.6ZM102.658 181.6H103.148V181.945C103.261 181.802 103.4 181.697 103.563 181.63C103.73 181.56 103.903 181.525 104.083 181.525C104.403 181.525 104.641 181.61 104.798 181.78C104.955 181.95 105.033 182.178 105.033 182.465V184H104.528V182.515C104.528 182.125 104.341 181.93 103.968 181.93C103.808 181.93 103.658 181.968 103.518 182.045C103.381 182.118 103.263 182.232 103.163 182.385V184H102.658V181.6ZM107.911 185.15C107.748 185.15 107.588 185.137 107.431 185.11C107.278 185.083 107.148 185.045 107.041 184.995V184.58C107.291 184.693 107.581 184.75 107.911 184.75C108.221 184.75 108.446 184.682 108.586 184.545C108.729 184.412 108.801 184.208 108.801 183.935V183.68C108.581 183.943 108.258 184.075 107.831 184.075C107.588 184.075 107.369 184.022 107.176 183.915C106.983 183.808 106.831 183.658 106.721 183.465C106.611 183.272 106.556 183.05 106.556 182.8C106.556 182.547 106.609 182.325 106.716 182.135C106.826 181.942 106.976 181.792 107.166 181.685C107.359 181.578 107.576 181.525 107.816 181.525C108.039 181.525 108.228 181.558 108.381 181.625C108.538 181.688 108.683 181.795 108.816 181.945V181.6H109.306V183.88C109.306 184.29 109.191 184.603 108.961 184.82C108.734 185.04 108.384 185.15 107.911 185.15ZM107.931 183.675C108.138 183.675 108.319 183.62 108.476 183.51C108.636 183.4 108.744 183.253 108.801 183.07V182.53C108.738 182.343 108.628 182.197 108.471 182.09C108.318 181.983 108.138 181.93 107.931 181.93C107.768 181.93 107.619 181.967 107.486 182.04C107.356 182.11 107.253 182.212 107.176 182.345C107.103 182.478 107.066 182.63 107.066 182.8C107.066 182.973 107.103 183.127 107.176 183.26C107.253 183.39 107.356 183.492 107.486 183.565C107.619 183.638 107.768 183.675 107.931 183.675ZM111.092 184C111.025 184 110.969 183.978 110.922 183.935C110.879 183.888 110.857 183.832 110.857 183.765C110.857 183.698 110.879 183.642 110.922 183.595C110.969 183.548 111.025 183.525 111.092 183.525C111.159 183.525 111.215 183.548 111.262 183.595C111.309 183.642 111.332 183.698 111.332 183.765C111.332 183.832 111.309 183.888 111.262 183.935C111.215 183.978 111.159 184 111.092 184Z" fill="black"/>
<rect x="12.25" y="143.25" width="125.5" height="46.5" stroke="#6C6C6C" stroke-width="0.5"/>
<path d="M15.555 35.225C14.685 35.225 13.985 35.005 13.455 34.565C12.935 34.115 12.675 33.51 12.675 32.75C12.675 31.95 12.925 31.335 13.425 30.905C13.935 30.465 14.655 30.245 15.585 30.245C16.575 30.245 17.415 30.445 18.105 30.845V30.47C18.105 29.9 17.93 29.48 17.58 29.21C17.24 28.93 16.7 28.79 15.96 28.79C15.52 28.79 15.09 28.835 14.67 28.925C14.26 29.005 13.89 29.12 13.56 29.27V28.04C13.86 27.9 14.25 27.79 14.73 27.71C15.21 27.62 15.675 27.575 16.125 27.575C17.315 27.575 18.195 27.84 18.765 28.37C19.345 28.89 19.635 29.615 19.635 30.545V35H18.21V34.19C17.9 34.53 17.53 34.79 17.1 34.97C16.68 35.14 16.165 35.225 15.555 35.225ZM15.93 34.07C16.41 34.07 16.845 33.975 17.235 33.785C17.625 33.595 17.915 33.33 18.105 32.99V32.015C17.455 31.595 16.73 31.385 15.93 31.385C15.35 31.385 14.915 31.5 14.625 31.73C14.345 31.95 14.205 32.29 14.205 32.75C14.205 33.63 14.78 34.07 15.93 34.07ZM24.515 27.8H25.985V28.835C26.325 28.405 26.74 28.09 27.23 27.89C27.73 27.68 28.25 27.575 28.79 27.575C29.75 27.575 30.465 27.83 30.935 28.34C31.405 28.85 31.64 29.535 31.64 30.395V35H30.125V30.545C30.125 29.375 29.565 28.79 28.445 28.79C27.965 28.79 27.515 28.905 27.095 29.135C26.685 29.355 26.33 29.695 26.03 30.155V35H24.515V27.8ZM40.3042 35.225C39.5042 35.225 38.7942 35.075 38.1742 34.775C37.5542 34.475 37.0692 34.04 36.7192 33.47C36.3792 32.89 36.2092 32.205 36.2092 31.415C36.2092 30.625 36.3792 29.945 36.7192 29.375C37.0692 28.795 37.5542 28.35 38.1742 28.04C38.8042 27.73 39.5242 27.575 40.3342 27.575C41.4342 27.575 42.3142 27.79 42.9742 28.22V29.465C42.3242 29.015 41.4942 28.79 40.4842 28.79C39.6642 28.79 38.9992 29.015 38.4892 29.465C37.9892 29.905 37.7392 30.555 37.7392 31.415C37.7392 32.275 37.9892 32.925 38.4892 33.365C38.9892 33.805 39.6442 34.025 40.4542 34.025C41.4642 34.025 42.3342 33.785 43.0642 33.305V34.535C42.7142 34.775 42.3142 34.95 41.8642 35.06C41.4242 35.17 40.9042 35.225 40.3042 35.225ZM47.7123 23.915H49.2273V28.79C49.9173 27.98 50.8373 27.575 51.9873 27.575C52.9473 27.575 53.6623 27.83 54.1323 28.34C54.6023 28.85 54.8373 29.535 54.8373 30.395V35H53.3223V30.545C53.3223 29.375 52.7623 28.79 51.6423 28.79C51.1623 28.79 50.7123 28.905 50.2923 29.135C49.8823 29.355 49.5273 29.695 49.2273 30.155V35H47.7123V23.915ZM63.2817 35.225C62.4717 35.225 61.7567 35.075 61.1367 34.775C60.5267 34.465 60.0467 34.025 59.6967 33.455C59.3567 32.875 59.1867 32.195 59.1867 31.415C59.1867 30.645 59.3567 29.97 59.6967 29.39C60.0367 28.81 60.5167 28.365 61.1367 28.055C61.7567 27.735 62.4717 27.575 63.2817 27.575C64.0917 27.575 64.8067 27.735 65.4267 28.055C66.0467 28.365 66.5267 28.81 66.8667 29.39C67.2167 29.97 67.3917 30.645 67.3917 31.415C67.3917 32.195 67.2167 32.875 66.8667 33.455C66.5267 34.025 66.0467 34.465 65.4267 34.775C64.8067 35.075 64.0917 35.225 63.2817 35.225ZM63.2817 34.025C64.0617 34.025 64.6817 33.785 65.1417 33.305C65.6017 32.825 65.8317 32.195 65.8317 31.415C65.8317 30.605 65.6017 29.965 65.1417 29.495C64.6817 29.025 64.0617 28.79 63.2817 28.79C62.5017 28.79 61.8817 29.025 61.4217 29.495C60.9617 29.965 60.7317 30.605 60.7317 31.415C60.7317 32.195 60.9617 32.825 61.4217 33.305C61.8817 33.785 62.5017 34.025 63.2817 34.025ZM72.0375 27.8H73.5075V29.09C73.8075 28.65 74.2275 28.325 74.7675 28.115C75.3175 27.905 75.9525 27.8 76.6725 27.8V28.985C75.9025 28.985 75.2425 29.11 74.6925 29.36C74.1425 29.61 73.7625 30.005 73.5525 30.545V35H72.0375V27.8Z" fill="black"/>
<path d="M12.8691 19.0381L17.1807 17.1875V16.4746L12.8691 14.6289V15.5615L16.0283 16.7334L16.3213 16.8262L16.0283 16.9092L12.8691 18.1006V19.0381ZM20.875 19.0381L25.1865 17.1875V16.4746L20.875 14.6289V15.5615L24.0342 16.7334L24.3271 16.8262L24.0342 16.9092L20.875 18.1006V19.0381ZM36.7012 17.3145V17.417C36.7012 17.7946 36.75 18.1478 36.8477 18.4766C36.9453 18.8021 37.0853 19.0853 37.2676 19.3262C37.4466 19.5671 37.6663 19.7559 37.9268 19.8926C38.1872 20.0293 38.4785 20.0977 38.8008 20.0977C38.9928 20.0977 39.1719 20.0765 39.3379 20.0342C39.5039 19.9951 39.6553 19.9382 39.792 19.8633C39.8799 19.8145 39.9613 19.7575 40.0361 19.6924C40.1143 19.6273 40.1875 19.5557 40.2559 19.4775V19.9316C40.2559 20.1595 40.2233 20.3613 40.1582 20.5371C40.0931 20.7129 40.0003 20.8594 39.8799 20.9766C39.7562 21.097 39.6081 21.1882 39.4355 21.25C39.263 21.3118 39.0693 21.3428 38.8545 21.3428C38.734 21.3428 38.6136 21.3298 38.4932 21.3037C38.3727 21.2809 38.2523 21.2419 38.1318 21.1865C38.0114 21.1312 37.8926 21.0563 37.7754 20.9619C37.6582 20.8708 37.5443 20.7585 37.4336 20.625L36.9648 21.167C37.0853 21.3395 37.2285 21.4844 37.3945 21.6016C37.5638 21.7188 37.7396 21.8115 37.9219 21.8799C38.1009 21.9515 38.2783 22.002 38.4541 22.0312C38.6299 22.0638 38.7861 22.0801 38.9229 22.0801C39.2549 22.0801 39.5576 22.0312 39.8311 21.9336C40.1045 21.8359 40.3405 21.6927 40.5391 21.5039C40.7344 21.3151 40.8857 21.0856 40.9932 20.8154C41.1038 20.5452 41.1592 20.236 41.1592 19.8877V14.7168H40.3389L40.2949 15.293C40.2331 15.2148 40.1663 15.1432 40.0947 15.0781C40.0264 15.013 39.9531 14.9561 39.875 14.9072C39.7318 14.8128 39.5706 14.7412 39.3916 14.6924C39.2158 14.6436 39.0221 14.6191 38.8105 14.6191C38.4818 14.6191 38.1872 14.6859 37.9268 14.8193C37.6663 14.9528 37.445 15.1383 37.2627 15.376C37.0804 15.6136 36.9404 15.8984 36.8428 16.2305C36.7484 16.5592 36.7012 16.9206 36.7012 17.3145ZM37.6045 17.417V17.3145C37.6045 17.0573 37.6305 16.8132 37.6826 16.582C37.738 16.3477 37.8242 16.141 37.9414 15.9619C38.0553 15.7861 38.2018 15.6462 38.3809 15.542C38.5632 15.4378 38.7812 15.3857 39.0352 15.3857C39.1849 15.3857 39.3216 15.4053 39.4453 15.4443C39.569 15.4801 39.6813 15.5306 39.7822 15.5957C39.8831 15.6641 39.9727 15.7438 40.0508 15.835C40.1289 15.9261 40.1973 16.027 40.2559 16.1377V18.5596C40.1973 18.6735 40.1289 18.7777 40.0508 18.8721C39.9727 18.9665 39.8848 19.0479 39.7871 19.1162C39.6862 19.1846 39.5723 19.2383 39.4453 19.2773C39.3216 19.3132 39.1816 19.3311 39.0254 19.3311C38.7747 19.3311 38.5599 19.2806 38.3809 19.1797C38.2018 19.0755 38.0553 18.9355 37.9414 18.7598C37.8242 18.584 37.738 18.3805 37.6826 18.1494C37.6305 17.9183 37.6045 17.6742 37.6045 17.417ZM47.207 20.0977C47.7214 20.0977 48.1527 19.9951 48.501 19.79C48.8525 19.5817 49.1162 19.3441 49.292 19.0771L48.7402 18.6475C48.5742 18.8623 48.3659 19.0348 48.1152 19.165C47.8646 19.2952 47.5781 19.3604 47.2559 19.3604C47.0117 19.3604 46.7887 19.3148 46.5869 19.2236C46.3851 19.1325 46.2126 19.0072 46.0693 18.8477C45.9294 18.6979 45.8187 18.5254 45.7373 18.3301C45.6592 18.1348 45.6087 17.9085 45.5859 17.6514V17.6172H49.3604V17.2119C49.3604 16.8441 49.3132 16.5023 49.2188 16.1865C49.1276 15.8708 48.9876 15.5957 48.7988 15.3613C48.61 15.1302 48.3724 14.9495 48.0859 14.8193C47.8027 14.6859 47.4707 14.6191 47.0898 14.6191C46.7871 14.6191 46.4909 14.681 46.2012 14.8047C45.9147 14.9284 45.6592 15.1058 45.4346 15.3369C45.2067 15.5713 45.0244 15.8577 44.8877 16.1963C44.751 16.5316 44.6826 16.9124 44.6826 17.3389V17.5439C44.6826 17.9118 44.7445 18.252 44.8682 18.5645C44.9919 18.877 45.1644 19.1471 45.3857 19.375C45.6071 19.6029 45.8724 19.7803 46.1816 19.9072C46.4941 20.0342 46.8359 20.0977 47.207 20.0977ZM47.0898 15.3613C47.321 15.3613 47.5195 15.4036 47.6855 15.4883C47.8548 15.5729 47.9948 15.6836 48.1055 15.8203C48.2161 15.957 48.3024 16.1198 48.3643 16.3086C48.4261 16.4941 48.457 16.6683 48.457 16.8311V16.875H45.6152C45.651 16.6309 45.7129 16.416 45.8008 16.2305C45.8919 16.0417 46.0026 15.8822 46.1328 15.752C46.263 15.625 46.4095 15.529 46.5723 15.4639C46.735 15.3955 46.9076 15.3613 47.0898 15.3613ZM56.3506 20H57.293V19.9219C57.2344 19.7754 57.1888 19.6045 57.1562 19.4092C57.1237 19.2106 57.1074 19.0234 57.1074 18.8477V16.3916C57.1074 16.0954 57.0537 15.8366 56.9463 15.6152C56.8389 15.3939 56.6924 15.2083 56.5068 15.0586C56.318 14.9121 56.0951 14.8031 55.8379 14.7314C55.5807 14.6566 55.3024 14.6191 55.0029 14.6191C54.6742 14.6191 54.3796 14.6647 54.1191 14.7559C53.862 14.847 53.6439 14.9658 53.4648 15.1123C53.2826 15.262 53.1426 15.4297 53.0449 15.6152C52.9505 15.8008 52.9017 15.9896 52.8984 16.1816H53.8066C53.8066 16.071 53.8327 15.9652 53.8848 15.8643C53.9401 15.7601 54.0166 15.6706 54.1143 15.5957C54.2119 15.5208 54.3307 15.4606 54.4707 15.415C54.6139 15.3695 54.7751 15.3467 54.9541 15.3467C55.1462 15.3467 55.3187 15.3711 55.4717 15.4199C55.6279 15.4688 55.7598 15.5371 55.8672 15.625C55.9746 15.7161 56.0576 15.8252 56.1162 15.9521C56.1748 16.0791 56.2041 16.2223 56.2041 16.3818V16.7969H55.2178C54.8499 16.7969 54.5163 16.8327 54.2168 16.9043C53.9206 16.9759 53.6667 17.0833 53.4551 17.2266C53.2435 17.373 53.0791 17.5553 52.9619 17.7734C52.848 17.9915 52.791 18.2454 52.791 18.5352C52.791 18.7565 52.8333 18.9632 52.918 19.1553C53.0059 19.3441 53.1296 19.5068 53.2891 19.6436C53.4453 19.7835 53.6357 19.8942 53.8604 19.9756C54.0882 20.057 54.3421 20.0977 54.6221 20.0977C54.7946 20.0977 54.9574 20.0798 55.1104 20.0439C55.2633 20.0081 55.4082 19.9593 55.5449 19.8975C55.6784 19.8356 55.8005 19.764 55.9111 19.6826C56.0251 19.6012 56.1276 19.515 56.2188 19.4238C56.2285 19.5345 56.2432 19.6419 56.2627 19.7461C56.2855 19.847 56.3148 19.9316 56.3506 20ZM54.7539 19.3115C54.5781 19.3115 54.4235 19.2887 54.29 19.2432C54.1566 19.1976 54.0459 19.1341 53.958 19.0527C53.8701 18.9746 53.8034 18.8802 53.7578 18.7695C53.7155 18.6589 53.6943 18.5384 53.6943 18.4082C53.6943 18.2715 53.7188 18.1494 53.7676 18.042C53.8197 17.9346 53.8945 17.8418 53.9922 17.7637C54.1289 17.653 54.3128 17.5716 54.5439 17.5195C54.7783 17.4642 55.0518 17.4365 55.3643 17.4365H56.2041V18.5059C56.152 18.61 56.0804 18.7109 55.9893 18.8086C55.8981 18.903 55.7907 18.9876 55.667 19.0625C55.54 19.1374 55.4001 19.1976 55.2471 19.2432C55.0941 19.2887 54.9297 19.3115 54.7539 19.3115ZM64.3467 14.6191C63.9626 14.6191 63.6191 14.7038 63.3164 14.873C63.0169 15.0391 62.7598 15.2669 62.5449 15.5566L62.54 15.4248L62.501 14.7168H61.6416V20H62.5498V16.6113C62.6084 16.4486 62.6816 16.3021 62.7695 16.1719C62.8607 16.0384 62.9665 15.9261 63.0869 15.835C63.2204 15.7308 63.3766 15.6527 63.5557 15.6006C63.7347 15.5452 63.9349 15.5176 64.1562 15.5176C64.3288 15.5176 64.4932 15.5273 64.6494 15.5469C64.8089 15.5632 64.9766 15.5908 65.1523 15.6299L65.2744 14.7461C65.1833 14.707 65.0465 14.6761 64.8643 14.6533C64.6852 14.6305 64.5127 14.6191 64.3467 14.6191Z" fill="#707070"/>
<path d="M74 73L75.5 68L81 56L80 46L82.5 40.5L85.5 40L82.5 44.5V56L76.5 67L76 74L74 73Z" fill="#4E4E4E"/>
<path fill-rule="evenodd" clip-rule="evenodd" d="M75 65L67.8 73.5135L73.2 78.6216V88.8378H57.4L54.2 85.4324L51 90.5405L54.2 93.9459L57.4 92.2432H73.4L71.8 116.932L58.2 118.635L53.4 108.419L55.8 107.568L51.8 104.162L47 110.122H50.2L54.2 123.743L67 128L87 127.149L96.6 118.635L99.8 110.973L103 113.527L100.6 104.162L95 107.568L98.2 110.122L91.8 116.081L79.8 117.784L77.4 92.2432H92.6L95 94.7973L98.2 90.5405L95 86.2838L92.6 88.8378H77.4V77.7703L82.2 72.6622L75 65ZM75.2845 68.15L71.3019 72.875L75.8534 77.6L78.6981 73.55L75.2845 68.15Z" fill="#454545"/>
<path d="M57.6421 122.667L32 129.382L57.6421 128L89.4737 131L116 116L89.4737 126L57.6421 122.667Z" fill="#FFDF6D"/>
</svg>
