<svg width="150" height="200" viewBox="0 0 150 200" fill="none" xmlns="http://www.w3.org/2000/svg">
<rect width="150" height="200" fill="white"/>
<path d="M17.325 148.505H18.73C19.1033 148.505 19.39 148.595 19.59 148.775C19.79 148.955 19.89 149.218 19.89 149.565C19.89 149.822 19.8217 150.04 19.685 150.22C19.5483 150.397 19.355 150.517 19.105 150.58L19.875 152H19.345L18.6 150.62H17.835V152H17.325V148.505ZM18.645 150.19C18.8683 150.19 19.045 150.138 19.175 150.035C19.3083 149.928 19.375 149.772 19.375 149.565C19.375 149.338 19.31 149.177 19.18 149.08C19.0533 148.983 18.875 148.935 18.645 148.935H17.835V150.19H18.645ZM22.56 152.075C22.1167 152.075 21.7684 151.965 21.515 151.745C21.265 151.522 21.14 151.208 21.14 150.805C21.14 150.412 21.2517 150.1 21.475 149.87C21.7017 149.64 22.0234 149.525 22.44 149.525C22.7167 149.525 22.9517 149.578 23.145 149.685C23.3384 149.788 23.4834 149.933 23.58 150.12C23.68 150.303 23.73 150.513 23.73 150.75V151H21.62C21.6367 151.227 21.7317 151.397 21.905 151.51C22.0817 151.62 22.32 151.675 22.62 151.675C22.7734 151.675 22.9284 151.662 23.085 151.635C23.2417 151.605 23.38 151.567 23.5 151.52V151.925C23.3934 151.968 23.2517 152.003 23.075 152.03C22.9017 152.06 22.73 152.075 22.56 152.075ZM23.255 150.645C23.2484 150.418 23.1734 150.243 23.03 150.12C22.89 149.993 22.69 149.93 22.43 149.93C22.1767 149.93 21.98 149.995 21.84 150.125C21.7 150.255 21.6267 150.428 21.62 150.645H23.255ZM26.772 152.075C26.5554 152.075 26.367 152.042 26.207 151.975C26.0504 151.905 25.9054 151.797 25.772 151.65V152H25.282V148.305H25.787V149.92C25.897 149.79 26.0387 149.692 26.212 149.625C26.3854 149.558 26.572 149.525 26.772 149.525C27.012 149.525 27.227 149.58 27.417 149.69C27.6104 149.797 27.7604 149.947 27.867 150.14C27.977 150.333 28.032 150.555 28.032 150.805C28.032 151.058 27.977 151.282 27.867 151.475C27.7604 151.665 27.6104 151.813 27.417 151.92C27.227 152.023 27.012 152.075 26.772 152.075ZM26.657 151.675C26.8204 151.675 26.967 151.64 27.097 151.57C27.2304 151.497 27.3337 151.393 27.407 151.26C27.4837 151.127 27.522 150.975 27.522 150.805C27.522 150.635 27.4837 150.483 27.407 150.35C27.3337 150.217 27.2304 150.113 27.097 150.04C26.967 149.967 26.8204 149.93 26.657 149.93C26.4537 149.93 26.272 149.985 26.112 150.095C25.952 150.205 25.8437 150.352 25.787 150.535V151.075C25.8504 151.258 25.9587 151.405 26.112 151.515C26.2687 151.622 26.4504 151.675 26.657 151.675ZM29.8778 149.13C29.7945 149.13 29.7245 149.102 29.6678 149.045C29.6111 148.988 29.5828 148.918 29.5828 148.835C29.5828 148.752 29.6111 148.682 29.6678 148.625C29.7245 148.568 29.7945 148.54 29.8778 148.54C29.9645 148.54 30.0361 148.568 30.0928 148.625C30.1528 148.682 30.1828 148.752 30.1828 148.835C30.1828 148.918 30.1528 148.988 30.0928 149.045C30.0361 149.102 29.9645 149.13 29.8778 149.13ZM29.6228 149.6H30.1378V152H29.6228V149.6ZM31.8328 149.6H32.3228V150.03C32.4228 149.883 32.5628 149.775 32.7428 149.705C32.9261 149.635 33.1378 149.6 33.3778 149.6V149.995C33.1211 149.995 32.9011 150.037 32.7178 150.12C32.5345 150.203 32.4078 150.335 32.3378 150.515V152H31.8328V149.6ZM35.7549 152.075C35.5115 152.075 35.3232 152.005 35.1899 151.865C35.0599 151.725 34.9949 151.527 34.9949 151.27V149.99H34.6299V149.6H34.9949V148.88H35.5049V149.6H36.0949V149.99H35.5049V151.235C35.5049 151.395 35.5349 151.508 35.5949 151.575C35.6582 151.642 35.7715 151.675 35.9349 151.675C36.0315 151.675 36.1282 151.653 36.2249 151.61V152.01C36.0982 152.053 35.9415 152.075 35.7549 152.075ZM37.7 148.305H38.205V149.93C38.435 149.66 38.7417 149.525 39.125 149.525C39.445 149.525 39.6833 149.61 39.84 149.78C39.9967 149.95 40.075 150.178 40.075 150.465V152H39.57V150.515C39.57 150.125 39.3833 149.93 39.01 149.93C38.85 149.93 38.7 149.968 38.56 150.045C38.4233 150.118 38.305 150.232 38.205 150.385V152H37.7V148.305ZM45.4086 152.075C45.1186 152.075 44.8853 152.002 44.7086 151.855C44.5353 151.705 44.4486 151.503 44.4486 151.25C44.4486 150.983 44.532 150.778 44.6986 150.635C44.8686 150.488 45.1086 150.415 45.4186 150.415C45.7486 150.415 46.0286 150.482 46.2586 150.615V150.49C46.2586 150.3 46.2003 150.16 46.0836 150.07C45.9703 149.977 45.7903 149.93 45.5436 149.93C45.397 149.93 45.2536 149.945 45.1136 149.975C44.977 150.002 44.8536 150.04 44.7436 150.09V149.68C44.8436 149.633 44.9736 149.597 45.1336 149.57C45.2936 149.54 45.4486 149.525 45.5986 149.525C45.9953 149.525 46.2886 149.613 46.4786 149.79C46.672 149.963 46.7686 150.205 46.7686 150.515V152H46.2936V151.73C46.1903 151.843 46.067 151.93 45.9236 151.99C45.7836 152.047 45.612 152.075 45.4086 152.075ZM45.5336 151.69C45.6936 151.69 45.8386 151.658 45.9686 151.595C46.0986 151.532 46.1953 151.443 46.2586 151.33V151.005C46.042 150.865 45.8003 150.795 45.5336 150.795C45.3403 150.795 45.1953 150.833 45.0986 150.91C45.0053 150.983 44.9586 151.097 44.9586 151.25C44.9586 151.543 45.1503 151.69 45.5336 151.69ZM51.4109 149.99H51.0459V149.6H51.4109V149.145C51.4109 148.868 51.4992 148.655 51.6759 148.505C51.8526 148.355 52.0726 148.28 52.3359 148.28C52.4692 148.28 52.5992 148.3 52.7259 148.34V148.75C52.6326 148.713 52.5359 148.695 52.4359 148.695C52.2659 148.695 52.1359 148.737 52.0459 148.82C51.9592 148.9 51.9159 149.018 51.9159 149.175V149.6H53.5359V152H53.0309V149.99H51.9159V152H51.4109V149.99ZM53.2809 149.13C53.1942 149.13 53.1226 149.102 53.0659 149.045C53.0092 148.988 52.9809 148.918 52.9809 148.835C52.9809 148.752 53.0092 148.682 53.0659 148.625C53.1259 148.568 53.1976 148.54 53.2809 148.54C53.3642 148.54 53.4342 148.568 53.4909 148.625C53.5509 148.682 53.5809 148.752 53.5809 148.835C53.5809 148.918 53.5509 148.988 53.4909 149.045C53.4342 149.102 53.3642 149.13 53.2809 149.13ZM56.1143 152.075C55.9476 152.075 55.771 152.053 55.5843 152.01C55.3976 151.97 55.251 151.915 55.1443 151.845V151.415C55.2743 151.492 55.4243 151.555 55.5943 151.605C55.7643 151.652 55.9293 151.675 56.0893 151.675C56.2693 151.675 56.401 151.653 56.4843 151.61C56.5676 151.567 56.6093 151.497 56.6093 151.4C56.6093 151.327 56.5893 151.268 56.5493 151.225C56.5126 151.178 56.4476 151.137 56.3543 151.1C56.2643 151.063 56.1276 151.02 55.9443 150.97C55.7476 150.913 55.591 150.857 55.4743 150.8C55.361 150.74 55.2743 150.665 55.2143 150.575C55.1576 150.485 55.1293 150.368 55.1293 150.225C55.1293 149.995 55.2193 149.822 55.3993 149.705C55.5826 149.585 55.8276 149.525 56.1343 149.525C56.2943 149.525 56.451 149.54 56.6043 149.57C56.7576 149.6 56.881 149.642 56.9743 149.695V150.115C56.8776 150.058 56.7576 150.013 56.6143 149.98C56.4743 149.947 56.331 149.93 56.1843 149.93C56.0076 149.93 55.8726 149.952 55.7793 149.995C55.686 150.038 55.6393 150.115 55.6393 150.225C55.6393 150.295 55.6593 150.352 55.6993 150.395C55.7393 150.438 55.8026 150.477 55.8893 150.51C55.9793 150.54 56.121 150.58 56.3143 150.63C56.6176 150.713 56.8276 150.812 56.9443 150.925C57.0643 151.038 57.1243 151.195 57.1243 151.395C57.1243 151.602 57.0393 151.767 56.8693 151.89C56.6993 152.013 56.4476 152.075 56.1143 152.075ZM58.6756 148.305H59.1806V149.93C59.4106 149.66 59.7173 149.525 60.1006 149.525C60.4206 149.525 60.6589 149.61 60.8156 149.78C60.9723 149.95 61.0506 150.178 61.0506 150.465V152H60.5456V150.515C60.5456 150.125 60.3589 149.93 59.9856 149.93C59.8256 149.93 59.6756 149.968 59.5356 150.045C59.3989 150.118 59.2806 150.232 59.1806 150.385V152H58.6756V148.305ZM65.6892 149.99H65.3242V149.6H65.6892V149.13C65.6892 148.853 65.7676 148.643 65.9242 148.5C66.0809 148.353 66.2909 148.28 66.5542 148.28C66.6909 148.28 66.8192 148.3 66.9392 148.34V148.76C66.8459 148.717 66.7492 148.695 66.6492 148.695C66.4926 148.695 66.3776 148.733 66.3042 148.81C66.2309 148.883 66.1942 149 66.1942 149.16V149.6H66.7942V149.99H66.1942V152H65.6892V149.99ZM68.2625 149.6H68.7525V150.03C68.8525 149.883 68.9925 149.775 69.1725 149.705C69.3558 149.635 69.5675 149.6 69.8075 149.6V149.995C69.5508 149.995 69.3308 150.037 69.1475 150.12C68.9642 150.203 68.8375 150.335 68.7675 150.515V152H68.2625V149.6ZM72.4513 152.075C72.1813 152.075 71.943 152.025 71.7363 151.925C71.533 151.822 71.373 151.675 71.2563 151.485C71.143 151.292 71.0863 151.065 71.0863 150.805C71.0863 150.548 71.143 150.323 71.2563 150.13C71.3697 149.937 71.5297 149.788 71.7363 149.685C71.943 149.578 72.1813 149.525 72.4513 149.525C72.7213 149.525 72.9597 149.578 73.1663 149.685C73.373 149.788 73.533 149.937 73.6463 150.13C73.763 150.323 73.8213 150.548 73.8213 150.805C73.8213 151.065 73.763 151.292 73.6463 151.485C73.533 151.675 73.373 151.822 73.1663 151.925C72.9597 152.025 72.7213 152.075 72.4513 152.075ZM72.4513 151.675C72.7113 151.675 72.918 151.595 73.0713 151.435C73.2247 151.275 73.3013 151.065 73.3013 150.805C73.3013 150.535 73.2247 150.322 73.0713 150.165C72.918 150.008 72.7113 149.93 72.4513 149.93C72.1913 149.93 71.9847 150.008 71.8313 150.165C71.678 150.322 71.6013 150.535 71.6013 150.805C71.6013 151.065 71.678 151.275 71.8313 151.435C71.9847 151.595 72.1913 151.675 72.4513 151.675ZM75.3699 149.6H75.8499V149.945C75.9633 149.805 76.0916 149.7 76.2349 149.63C76.3783 149.56 76.5266 149.525 76.6799 149.525C76.8733 149.525 77.0266 149.558 77.1399 149.625C77.2533 149.688 77.3366 149.787 77.3899 149.92C77.4966 149.79 77.6266 149.692 77.7799 149.625C77.9366 149.558 78.0933 149.525 78.2499 149.525C78.5433 149.525 78.7549 149.6 78.8849 149.75C79.0149 149.897 79.0799 150.115 79.0799 150.405V152H78.5899V150.47C78.5899 150.273 78.5533 150.135 78.4799 150.055C78.4066 149.972 78.2816 149.93 78.1049 149.93C77.8516 149.93 77.6449 150.04 77.4849 150.26C77.4916 150.31 77.4949 150.392 77.4949 150.505V152H77.0049V150.47C77.0049 150.273 76.9716 150.135 76.9049 150.055C76.8383 149.972 76.7183 149.93 76.5449 149.93C76.2916 149.93 76.0649 150.073 75.8649 150.36V152H75.3699V149.6ZM84.4814 152.075C84.2381 152.075 84.0498 152.005 83.9164 151.865C83.7864 151.725 83.7214 151.527 83.7214 151.27V149.99H83.3564V149.6H83.7214V148.88H84.2314V149.6H84.8214V149.99H84.2314V151.235C84.2314 151.395 84.2614 151.508 84.3214 151.575C84.3848 151.642 84.4981 151.675 84.6614 151.675C84.7581 151.675 84.8548 151.653 84.9514 151.61V152.01C84.8248 152.053 84.6681 152.075 84.4814 152.075ZM86.4266 148.305H86.9316V149.93C87.1616 149.66 87.4682 149.525 87.8516 149.525C88.1716 149.525 88.4099 149.61 88.5666 149.78C88.7232 149.95 88.8016 150.178 88.8016 150.465V152H88.2966V150.515C88.2966 150.125 88.1099 149.93 87.7366 149.93C87.5766 149.93 87.4266 149.968 87.2866 150.045C87.1499 150.118 87.0316 150.232 86.9316 150.385V152H86.4266V148.305ZM91.7446 152.075C91.3013 152.075 90.9529 151.965 90.6996 151.745C90.4496 151.522 90.3246 151.208 90.3246 150.805C90.3246 150.412 90.4363 150.1 90.6596 149.87C90.8863 149.64 91.2079 149.525 91.6246 149.525C91.9013 149.525 92.1363 149.578 92.3296 149.685C92.5229 149.788 92.6679 149.933 92.7646 150.12C92.8646 150.303 92.9146 150.513 92.9146 150.75V151H90.8046C90.8213 151.227 90.9163 151.397 91.0896 151.51C91.2663 151.62 91.5046 151.675 91.8046 151.675C91.9579 151.675 92.1129 151.662 92.2696 151.635C92.4263 151.605 92.5646 151.567 92.6846 151.52V151.925C92.5779 151.968 92.4363 152.003 92.2596 152.03C92.0863 152.06 91.9146 152.075 91.7446 152.075ZM92.4396 150.645C92.4329 150.418 92.3579 150.243 92.2146 150.12C92.0746 149.993 91.8746 149.93 91.6146 149.93C91.3613 149.93 91.1646 149.995 91.0246 150.125C90.8846 150.255 90.8113 150.428 90.8046 150.645H92.4396ZM97.3172 148.505H98.4422C98.8189 148.505 99.1455 148.575 99.4222 148.715C99.6989 148.855 99.9105 149.055 100.057 149.315C100.207 149.575 100.282 149.882 100.282 150.235C100.282 150.815 100.114 151.255 99.7772 151.555C99.4439 151.852 98.9755 152 98.3722 152H97.3172V148.505ZM98.3672 151.575C98.8339 151.575 99.1839 151.46 99.4172 151.23C99.6505 151 99.7672 150.668 99.7672 150.235C99.7672 149.835 99.6522 149.518 99.4222 149.285C99.1955 149.052 98.8705 148.935 98.4472 148.935H97.8272V151.575H98.3672ZM103.153 152.075C102.709 152.075 102.361 151.965 102.108 151.745C101.858 151.522 101.733 151.208 101.733 150.805C101.733 150.412 101.844 150.1 102.068 149.87C102.294 149.64 102.616 149.525 103.033 149.525C103.309 149.525 103.544 149.578 103.738 149.685C103.931 149.788 104.076 149.933 104.173 150.12C104.273 150.303 104.323 150.513 104.323 150.75V151H102.213C102.229 151.227 102.324 151.397 102.498 151.51C102.674 151.62 102.913 151.675 103.213 151.675C103.366 151.675 103.521 151.662 103.678 151.635C103.834 151.605 103.973 151.567 104.093 151.52V151.925C103.986 151.968 103.844 152.003 103.668 152.03C103.494 152.06 103.323 152.075 103.153 152.075ZM103.848 150.645C103.841 150.418 103.766 150.243 103.623 150.12C103.483 149.993 103.283 149.93 103.023 149.93C102.769 149.93 102.573 149.995 102.433 150.125C102.293 150.255 102.219 150.428 102.213 150.645H103.848ZM106.735 152.075C106.445 152.075 106.211 152.002 106.035 151.855C105.861 151.705 105.775 151.503 105.775 151.25C105.775 150.983 105.858 150.778 106.025 150.635C106.195 150.488 106.435 150.415 106.745 150.415C107.075 150.415 107.355 150.482 107.585 150.615V150.49C107.585 150.3 107.526 150.16 107.41 150.07C107.296 149.977 107.116 149.93 106.87 149.93C106.723 149.93 106.58 149.945 106.44 149.975C106.303 150.002 106.18 150.04 106.07 150.09V149.68C106.17 149.633 106.3 149.597 106.46 149.57C106.62 149.54 106.775 149.525 106.925 149.525C107.321 149.525 107.615 149.613 107.805 149.79C107.998 149.963 108.095 150.205 108.095 150.515V152H107.62V151.73C107.516 151.843 107.393 151.93 107.25 151.99C107.11 152.047 106.938 152.075 106.735 152.075ZM106.86 151.69C107.02 151.69 107.165 151.658 107.295 151.595C107.425 151.532 107.521 151.443 107.585 151.33V151.005C107.368 150.865 107.126 150.795 106.86 150.795C106.666 150.795 106.521 150.833 106.425 150.91C106.331 150.983 106.285 151.097 106.285 151.25C106.285 151.543 106.476 151.69 106.86 151.69ZM110.52 152.075C110.276 152.075 110.088 152.005 109.955 151.865C109.825 151.725 109.76 151.527 109.76 151.27V149.99H109.395V149.6H109.76V148.88H110.27V149.6H110.86V149.99H110.27V151.235C110.27 151.395 110.3 151.508 110.36 151.575C110.423 151.642 110.536 151.675 110.7 151.675C110.796 151.675 110.893 151.653 110.99 151.61V152.01C110.863 152.053 110.706 152.075 110.52 152.075ZM112.465 148.305H112.97V149.93C113.2 149.66 113.506 149.525 113.89 149.525C114.21 149.525 114.448 149.61 114.605 149.78C114.761 149.95 114.84 150.178 114.84 150.465V152H114.335V150.515C114.335 150.125 114.148 149.93 113.775 149.93C113.615 149.93 113.465 149.968 113.325 150.045C113.188 150.118 113.07 150.232 112.97 150.385V152H112.465V148.305ZM119.313 148.505H120.658C121.035 148.505 121.332 148.6 121.548 148.79C121.768 148.977 121.878 149.243 121.878 149.59C121.878 149.943 121.77 150.212 121.553 150.395C121.337 150.575 121.038 150.665 120.658 150.665H119.823V152H119.313V148.505ZM120.603 150.24C120.837 150.24 121.022 150.192 121.158 150.095C121.295 149.998 121.363 149.83 121.363 149.59C121.363 149.35 121.295 149.182 121.158 149.085C121.022 148.985 120.837 148.935 120.603 148.935H119.823V150.24H120.603ZM123.621 149.13C123.538 149.13 123.468 149.102 123.411 149.045C123.354 148.988 123.326 148.918 123.326 148.835C123.326 148.752 123.354 148.682 123.411 148.625C123.468 148.568 123.538 148.54 123.621 148.54C123.708 148.54 123.779 148.568 123.836 148.625C123.896 148.682 123.926 148.752 123.926 148.835C123.926 148.918 123.896 148.988 123.836 149.045C123.779 149.102 123.708 149.13 123.621 149.13ZM123.366 149.6H123.881V152H123.366V149.6ZM125.576 148.305H126.081V152H125.576V148.305ZM129.053 152.075C128.61 152.075 128.262 151.965 128.008 151.745C127.758 151.522 127.633 151.208 127.633 150.805C127.633 150.412 127.745 150.1 127.968 149.87C128.195 149.64 128.517 149.525 128.933 149.525C129.21 149.525 129.445 149.578 129.638 149.685C129.832 149.788 129.977 149.933 130.073 150.12C130.173 150.303 130.223 150.513 130.223 150.75V151H128.113C128.13 151.227 128.225 151.397 128.398 151.51C128.575 151.62 128.813 151.675 129.113 151.675C129.267 151.675 129.422 151.662 129.578 151.635C129.735 151.605 129.873 151.567 129.993 151.52V151.925C129.887 151.968 129.745 152.003 129.568 152.03C129.395 152.06 129.223 152.075 129.053 152.075ZM129.748 150.645C129.742 150.418 129.667 150.243 129.523 150.12C129.383 149.993 129.183 149.93 128.923 149.93C128.67 149.93 128.473 149.995 128.333 150.125C128.193 150.255 128.12 150.428 128.113 150.645H129.748ZM131.91 152C131.844 152 131.787 151.978 131.74 151.935C131.697 151.888 131.675 151.832 131.675 151.765C131.675 151.698 131.697 151.642 131.74 151.595C131.787 151.548 131.844 151.525 131.91 151.525C131.977 151.525 132.034 151.548 132.08 151.595C132.127 151.642 132.15 151.698 132.15 151.765C132.15 151.832 132.127 151.888 132.08 151.935C132.034 151.978 131.977 152 131.91 152ZM19.065 160.075C18.7183 160.075 18.405 160 18.125 159.85C17.845 159.697 17.625 159.482 17.465 159.205C17.305 158.928 17.225 158.612 17.225 158.255C17.225 157.898 17.305 157.582 17.465 157.305C17.625 157.028 17.845 156.813 18.125 156.66C18.405 156.507 18.7183 156.43 19.065 156.43C19.4117 156.43 19.725 156.507 20.005 156.66C20.285 156.813 20.505 157.028 20.665 157.305C20.825 157.582 20.905 157.898 20.905 158.255C20.905 158.612 20.825 158.928 20.665 159.205C20.505 159.482 20.285 159.697 20.005 159.85C19.725 160 19.4117 160.075 19.065 160.075ZM19.065 159.615C19.3117 159.615 19.535 159.56 19.735 159.45C19.9383 159.337 20.0983 159.178 20.215 158.975C20.3317 158.768 20.39 158.528 20.39 158.255C20.39 157.985 20.3317 157.748 20.215 157.545C20.1017 157.338 19.945 157.18 19.745 157.07C19.545 156.957 19.3217 156.9 19.075 156.9C18.825 156.9 18.5983 156.955 18.395 157.065C18.195 157.175 18.035 157.333 17.915 157.54C17.7983 157.747 17.74 157.985 17.74 158.255C17.74 158.528 17.7983 158.768 17.915 158.975C18.0317 159.178 18.19 159.337 18.39 159.45C18.5933 159.56 18.8183 159.615 19.065 159.615ZM22.4559 157.6H22.9459V157.945C23.0592 157.802 23.1975 157.697 23.3609 157.63C23.5275 157.56 23.7009 157.525 23.8809 157.525C24.2009 157.525 24.4392 157.61 24.5959 157.78C24.7525 157.95 24.8309 158.178 24.8309 158.465V160H24.3259V158.515C24.3259 158.125 24.1392 157.93 23.7659 157.93C23.6059 157.93 23.4559 157.968 23.3159 158.045C23.1792 158.118 23.0609 158.232 22.9609 158.385V160H22.4559V157.6ZM27.7739 160.075C27.3306 160.075 26.9822 159.965 26.7289 159.745C26.4789 159.522 26.3539 159.208 26.3539 158.805C26.3539 158.412 26.4656 158.1 26.6889 157.87C26.9156 157.64 27.2372 157.525 27.6539 157.525C27.9306 157.525 28.1656 157.578 28.3589 157.685C28.5522 157.788 28.6972 157.933 28.7939 158.12C28.8939 158.303 28.9439 158.513 28.9439 158.75V159H26.8339C26.8506 159.227 26.9456 159.397 27.1189 159.51C27.2956 159.62 27.5339 159.675 27.8339 159.675C27.9872 159.675 28.1422 159.662 28.2989 159.635C28.4556 159.605 28.5939 159.567 28.7139 159.52V159.925C28.6072 159.968 28.4656 160.003 28.2889 160.03C28.1156 160.06 27.9439 160.075 27.7739 160.075ZM28.4689 158.645C28.4622 158.418 28.3872 158.243 28.2439 158.12C28.1039 157.993 27.9039 157.93 27.6439 157.93C27.3906 157.93 27.1939 157.995 27.0539 158.125C26.9139 158.255 26.8406 158.428 26.8339 158.645H28.4689ZM34.2715 160.075C34.0282 160.075 33.8398 160.005 33.7065 159.865C33.5765 159.725 33.5115 159.527 33.5115 159.27V157.99H33.1465V157.6H33.5115V156.88H34.0215V157.6H34.6115V157.99H34.0215V159.235C34.0215 159.395 34.0515 159.508 34.1115 159.575C34.1748 159.642 34.2882 159.675 34.4515 159.675C34.5482 159.675 34.6448 159.653 34.7415 159.61V160.01C34.6148 160.053 34.4582 160.075 34.2715 160.075ZM36.5116 157.13C36.4283 157.13 36.3583 157.102 36.3016 157.045C36.2449 156.988 36.2166 156.918 36.2166 156.835C36.2166 156.752 36.2449 156.682 36.3016 156.625C36.3583 156.568 36.4283 156.54 36.5116 156.54C36.5983 156.54 36.6699 156.568 36.7266 156.625C36.7866 156.682 36.8166 156.752 36.8166 156.835C36.8166 156.918 36.7866 156.988 36.7266 157.045C36.6699 157.102 36.5983 157.13 36.5116 157.13ZM36.2566 157.6H36.7716V160H36.2566V157.6ZM38.4666 157.6H38.9466V157.945C39.0599 157.805 39.1883 157.7 39.3316 157.63C39.4749 157.56 39.6233 157.525 39.7766 157.525C39.9699 157.525 40.1233 157.558 40.2366 157.625C40.3499 157.688 40.4333 157.787 40.4866 157.92C40.5933 157.79 40.7233 157.692 40.8766 157.625C41.0333 157.558 41.1899 157.525 41.3466 157.525C41.6399 157.525 41.8516 157.6 41.9816 157.75C42.1116 157.897 42.1766 158.115 42.1766 158.405V160H41.6866V158.47C41.6866 158.273 41.6499 158.135 41.5766 158.055C41.5033 157.972 41.3783 157.93 41.2016 157.93C40.9483 157.93 40.7416 158.04 40.5816 158.26C40.5883 158.31 40.5916 158.392 40.5916 158.505V160H40.1016V158.47C40.1016 158.273 40.0683 158.135 40.0016 158.055C39.9349 157.972 39.8149 157.93 39.6416 157.93C39.3883 157.93 39.1616 158.073 38.9616 158.36V160H38.4666V157.6ZM45.1225 160.075C44.6792 160.075 44.3309 159.965 44.0775 159.745C43.8275 159.522 43.7025 159.208 43.7025 158.805C43.7025 158.412 43.8142 158.1 44.0375 157.87C44.2642 157.64 44.5859 157.525 45.0025 157.525C45.2792 157.525 45.5142 157.578 45.7075 157.685C45.9009 157.788 46.0459 157.933 46.1425 158.12C46.2425 158.303 46.2925 158.513 46.2925 158.75V159H44.1825C44.1992 159.227 44.2942 159.397 44.4675 159.51C44.6442 159.62 44.8825 159.675 45.1825 159.675C45.3359 159.675 45.4909 159.662 45.6475 159.635C45.8042 159.605 45.9425 159.567 46.0625 159.52V159.925C45.9559 159.968 45.8142 160.003 45.6375 160.03C45.4642 160.06 45.2925 160.075 45.1225 160.075ZM45.8175 158.645C45.8109 158.418 45.7359 158.243 45.5925 158.12C45.4525 157.993 45.2525 157.93 44.9925 157.93C44.7392 157.93 44.5425 157.995 44.4025 158.125C44.2625 158.255 44.1892 158.428 44.1825 158.645H45.8175ZM51.6501 160.075C51.3268 160.075 51.0818 159.988 50.9151 159.815C50.7518 159.642 50.6701 159.41 50.6701 159.12V157.6H51.1751V159.1C51.1751 159.483 51.3668 159.675 51.7501 159.675C52.0868 159.675 52.3501 159.523 52.5401 159.22V157.6H53.0451V160H52.5551V159.66C52.4418 159.803 52.3068 159.908 52.1501 159.975C51.9968 160.042 51.8301 160.075 51.6501 160.075ZM55.5782 160.075C55.4115 160.075 55.2348 160.053 55.0482 160.01C54.8615 159.97 54.7148 159.915 54.6082 159.845V159.415C54.7382 159.492 54.8882 159.555 55.0582 159.605C55.2282 159.652 55.3932 159.675 55.5532 159.675C55.7332 159.675 55.8648 159.653 55.9482 159.61C56.0315 159.567 56.0732 159.497 56.0732 159.4C56.0732 159.327 56.0532 159.268 56.0132 159.225C55.9765 159.178 55.9115 159.137 55.8182 159.1C55.7282 159.063 55.5915 159.02 55.4082 158.97C55.2115 158.913 55.0548 158.857 54.9382 158.8C54.8248 158.74 54.7382 158.665 54.6782 158.575C54.6215 158.485 54.5932 158.368 54.5932 158.225C54.5932 157.995 54.6832 157.822 54.8632 157.705C55.0465 157.585 55.2915 157.525 55.5982 157.525C55.7582 157.525 55.9148 157.54 56.0682 157.57C56.2215 157.6 56.3448 157.642 56.4382 157.695V158.115C56.3415 158.058 56.2215 158.013 56.0782 157.98C55.9382 157.947 55.7948 157.93 55.6482 157.93C55.4715 157.93 55.3365 157.952 55.2432 157.995C55.1498 158.038 55.1032 158.115 55.1032 158.225C55.1032 158.295 55.1232 158.352 55.1632 158.395C55.2032 158.438 55.2665 158.477 55.3532 158.51C55.4432 158.54 55.5848 158.58 55.7782 158.63C56.0815 158.713 56.2915 158.812 56.4082 158.925C56.5282 159.038 56.5882 159.195 56.5882 159.395C56.5882 159.602 56.5032 159.767 56.3332 159.89C56.1632 160.013 55.9115 160.075 55.5782 160.075ZM59.4595 160.075C59.0161 160.075 58.6678 159.965 58.4145 159.745C58.1645 159.522 58.0395 159.208 58.0395 158.805C58.0395 158.412 58.1511 158.1 58.3745 157.87C58.6011 157.64 58.9228 157.525 59.3395 157.525C59.6161 157.525 59.8511 157.578 60.0445 157.685C60.2378 157.788 60.3828 157.933 60.4795 158.12C60.5795 158.303 60.6295 158.513 60.6295 158.75V159H58.5195C58.5361 159.227 58.6311 159.397 58.8045 159.51C58.9811 159.62 59.2195 159.675 59.5195 159.675C59.6728 159.675 59.8278 159.662 59.9845 159.635C60.1411 159.605 60.2795 159.567 60.3995 159.52V159.925C60.2928 159.968 60.1511 160.003 59.9745 160.03C59.8011 160.06 59.6295 160.075 59.4595 160.075ZM60.1545 158.645C60.1478 158.418 60.0728 158.243 59.9295 158.12C59.7895 157.993 59.5895 157.93 59.3295 157.93C59.0761 157.93 58.8795 157.995 58.7395 158.125C58.5995 158.255 58.5261 158.428 58.5195 158.645H60.1545ZM66.297 160.075C66.027 160.075 65.7887 160.025 65.582 159.925C65.3787 159.822 65.2187 159.675 65.102 159.485C64.9887 159.292 64.932 159.065 64.932 158.805C64.932 158.548 64.9887 158.323 65.102 158.13C65.2154 157.937 65.3754 157.788 65.582 157.685C65.7887 157.578 66.027 157.525 66.297 157.525C66.567 157.525 66.8054 157.578 67.012 157.685C67.2187 157.788 67.3787 157.937 67.492 158.13C67.6087 158.323 67.667 158.548 67.667 158.805C67.667 159.065 67.6087 159.292 67.492 159.485C67.3787 159.675 67.2187 159.822 67.012 159.925C66.8054 160.025 66.567 160.075 66.297 160.075ZM66.297 159.675C66.557 159.675 66.7637 159.595 66.917 159.435C67.0704 159.275 67.147 159.065 67.147 158.805C67.147 158.535 67.0704 158.322 66.917 158.165C66.7637 158.008 66.557 157.93 66.297 157.93C66.037 157.93 65.8304 158.008 65.677 158.165C65.5237 158.322 65.447 158.535 65.447 158.805C65.447 159.065 65.5237 159.275 65.677 159.435C65.8304 159.595 66.037 159.675 66.297 159.675ZM69.2156 157.6H69.7056V157.945C69.819 157.802 69.9573 157.697 70.1206 157.63C70.2873 157.56 70.4606 157.525 70.6406 157.525C70.9606 157.525 71.199 157.61 71.3556 157.78C71.5123 157.95 71.5906 158.178 71.5906 158.465V160H71.0856V158.515C71.0856 158.125 70.899 157.93 70.5256 157.93C70.3656 157.93 70.2156 157.968 70.0756 158.045C69.939 158.118 69.8206 158.232 69.7206 158.385V160H69.2156V157.6ZM73.2137 156.305H73.7187V160H73.2137V156.305ZM75.8809 160.99C75.7009 160.99 75.5509 160.972 75.4309 160.935V160.54C75.5176 160.573 75.6242 160.59 75.7509 160.59C75.8676 160.59 75.9592 160.56 76.0259 160.5C76.0926 160.443 76.1526 160.35 76.2059 160.22L76.3209 159.94L75.2709 157.6H75.7909L76.5909 159.445L77.3359 157.6H77.8559L76.7759 160.27C76.6759 160.52 76.5559 160.702 76.4159 160.815C76.2792 160.932 76.1009 160.99 75.8809 160.99ZM79.4405 160C79.3738 160 79.3171 159.978 79.2705 159.935C79.2271 159.888 79.2055 159.832 79.2055 159.765C79.2055 159.698 79.2271 159.642 79.2705 159.595C79.3171 159.548 79.3738 159.525 79.4405 159.525C79.5071 159.525 79.5638 159.548 79.6105 159.595C79.6571 159.642 79.6805 159.698 79.6805 159.765C79.6805 159.832 79.6571 159.888 79.6105 159.935C79.5638 159.978 79.5071 160 79.4405 160Z" fill="black"/>
<rect x="12.25" y="143.25" width="125.5" height="46.5" stroke="#6C6C6C" stroke-width="0.5"/>
<path d="M16.935 35.225C15.605 35.225 14.56 34.895 13.8 34.235C13.05 33.565 12.675 32.625 12.675 31.415C12.675 30.235 13.01 29.3 13.68 28.61C14.36 27.92 15.325 27.575 16.575 27.575C17.405 27.575 18.11 27.735 18.69 28.055C19.27 28.365 19.705 28.8 19.995 29.36C20.295 29.91 20.445 30.54 20.445 31.25V32H14.115C14.165 32.68 14.45 33.19 14.97 33.53C15.5 33.86 16.215 34.025 17.115 34.025C17.575 34.025 18.04 33.985 18.51 33.905C18.98 33.815 19.395 33.7 19.755 33.56V34.775C19.435 34.905 19.01 35.01 18.48 35.09C17.96 35.18 17.445 35.225 16.935 35.225ZM19.02 30.935C19 30.255 18.775 29.73 18.345 29.36C17.925 28.98 17.325 28.79 16.545 28.79C15.785 28.79 15.195 28.985 14.775 29.375C14.355 29.765 14.135 30.285 14.115 30.935H19.02ZM28.866 38.45C28.376 38.45 27.896 38.41 27.426 38.33C26.966 38.25 26.576 38.135 26.256 37.985V36.74C27.006 37.08 27.876 37.25 28.866 37.25C29.796 37.25 30.471 37.045 30.891 36.635C31.321 36.235 31.536 35.625 31.536 34.805V34.04C30.876 34.83 29.906 35.225 28.626 35.225C27.896 35.225 27.241 35.065 26.661 34.745C26.081 34.425 25.626 33.975 25.296 33.395C24.966 32.815 24.801 32.15 24.801 31.4C24.801 30.64 24.961 29.975 25.281 29.405C25.611 28.825 26.061 28.375 26.631 28.055C27.211 27.735 27.861 27.575 28.581 27.575C29.251 27.575 29.816 27.675 30.276 27.875C30.746 28.065 31.181 28.385 31.581 28.835V27.8H33.051V34.64C33.051 35.87 32.706 36.81 32.016 37.46C31.336 38.12 30.286 38.45 28.866 38.45ZM28.926 34.025C29.546 34.025 30.091 33.86 30.561 33.53C31.041 33.2 31.366 32.76 31.536 32.21V30.59C31.346 30.03 31.016 29.59 30.546 29.27C30.086 28.95 29.546 28.79 28.926 28.79C28.436 28.79 27.991 28.9 27.591 29.12C27.201 29.33 26.891 29.635 26.661 30.035C26.441 30.435 26.331 30.89 26.331 31.4C26.331 31.92 26.441 32.38 26.661 32.78C26.891 33.17 27.201 33.475 27.591 33.695C27.991 33.915 28.436 34.025 28.926 34.025ZM41.7683 38.45C41.2783 38.45 40.7983 38.41 40.3283 38.33C39.8683 38.25 39.4783 38.135 39.1583 37.985V36.74C39.9083 37.08 40.7783 37.25 41.7683 37.25C42.6983 37.25 43.3733 37.045 43.7933 36.635C44.2233 36.235 44.4383 35.625 44.4383 34.805V34.04C43.7783 34.83 42.8083 35.225 41.5283 35.225C40.7983 35.225 40.1433 35.065 39.5633 34.745C38.9833 34.425 38.5283 33.975 38.1983 33.395C37.8683 32.815 37.7033 32.15 37.7033 31.4C37.7033 30.64 37.8633 29.975 38.1833 29.405C38.5133 28.825 38.9633 28.375 39.5333 28.055C40.1133 27.735 40.7633 27.575 41.4833 27.575C42.1533 27.575 42.7183 27.675 43.1783 27.875C43.6483 28.065 44.0833 28.385 44.4833 28.835V27.8H45.9533V34.64C45.9533 35.87 45.6083 36.81 44.9183 37.46C44.2383 38.12 43.1883 38.45 41.7683 38.45ZM41.8283 34.025C42.4483 34.025 42.9933 33.86 43.4633 33.53C43.9433 33.2 44.2683 32.76 44.4383 32.21V30.59C44.2483 30.03 43.9183 29.59 43.4483 29.27C42.9883 28.95 42.4483 28.79 41.8283 28.79C41.3383 28.79 40.8933 28.9 40.4933 29.12C40.1033 29.33 39.7933 29.635 39.5633 30.035C39.3433 30.435 39.2333 30.89 39.2333 31.4C39.2333 31.92 39.3433 32.38 39.5633 32.78C39.7933 33.17 40.1033 33.475 40.4933 33.695C40.8933 33.915 41.3383 34.025 41.8283 34.025Z" fill="black"/>
<path d="M12.8691 19.0381L17.1807 17.1875V16.4746L12.8691 14.6289V15.5615L16.0283 16.7334L16.3213 16.8262L16.0283 16.9092L12.8691 18.1006V19.0381ZM20.875 19.0381L25.1865 17.1875V16.4746L20.875 14.6289V15.5615L24.0342 16.7334L24.3271 16.8262L24.0342 16.9092L20.875 18.1006V19.0381ZM36.7012 17.3145V17.417C36.7012 17.7946 36.75 18.1478 36.8477 18.4766C36.9453 18.8021 37.0853 19.0853 37.2676 19.3262C37.4466 19.5671 37.6663 19.7559 37.9268 19.8926C38.1872 20.0293 38.4785 20.0977 38.8008 20.0977C38.9928 20.0977 39.1719 20.0765 39.3379 20.0342C39.5039 19.9951 39.6553 19.9382 39.792 19.8633C39.8799 19.8145 39.9613 19.7575 40.0361 19.6924C40.1143 19.6273 40.1875 19.5557 40.2559 19.4775V19.9316C40.2559 20.1595 40.2233 20.3613 40.1582 20.5371C40.0931 20.7129 40.0003 20.8594 39.8799 20.9766C39.7562 21.097 39.6081 21.1882 39.4355 21.25C39.263 21.3118 39.0693 21.3428 38.8545 21.3428C38.734 21.3428 38.6136 21.3298 38.4932 21.3037C38.3727 21.2809 38.2523 21.2419 38.1318 21.1865C38.0114 21.1312 37.8926 21.0563 37.7754 20.9619C37.6582 20.8708 37.5443 20.7585 37.4336 20.625L36.9648 21.167C37.0853 21.3395 37.2285 21.4844 37.3945 21.6016C37.5638 21.7188 37.7396 21.8115 37.9219 21.8799C38.1009 21.9515 38.2783 22.002 38.4541 22.0312C38.6299 22.0638 38.7861 22.0801 38.9229 22.0801C39.2549 22.0801 39.5576 22.0312 39.8311 21.9336C40.1045 21.8359 40.3405 21.6927 40.5391 21.5039C40.7344 21.3151 40.8857 21.0856 40.9932 20.8154C41.1038 20.5452 41.1592 20.236 41.1592 19.8877V14.7168H40.3389L40.2949 15.293C40.2331 15.2148 40.1663 15.1432 40.0947 15.0781C40.0264 15.013 39.9531 14.9561 39.875 14.9072C39.7318 14.8128 39.5706 14.7412 39.3916 14.6924C39.2158 14.6436 39.0221 14.6191 38.8105 14.6191C38.4818 14.6191 38.1872 14.6859 37.9268 14.8193C37.6663 14.9528 37.445 15.1383 37.2627 15.376C37.0804 15.6136 36.9404 15.8984 36.8428 16.2305C36.7484 16.5592 36.7012 16.9206 36.7012 17.3145ZM37.6045 17.417V17.3145C37.6045 17.0573 37.6305 16.8132 37.6826 16.582C37.738 16.3477 37.8242 16.141 37.9414 15.9619C38.0553 15.7861 38.2018 15.6462 38.3809 15.542C38.5632 15.4378 38.7812 15.3857 39.0352 15.3857C39.1849 15.3857 39.3216 15.4053 39.4453 15.4443C39.569 15.4801 39.6813 15.5306 39.7822 15.5957C39.8831 15.6641 39.9727 15.7438 40.0508 15.835C40.1289 15.9261 40.1973 16.027 40.2559 16.1377V18.5596C40.1973 18.6735 40.1289 18.7777 40.0508 18.8721C39.9727 18.9665 39.8848 19.0479 39.7871 19.1162C39.6862 19.1846 39.5723 19.2383 39.4453 19.2773C39.3216 19.3132 39.1816 19.3311 39.0254 19.3311C38.7747 19.3311 38.5599 19.2806 38.3809 19.1797C38.2018 19.0755 38.0553 18.9355 37.9414 18.7598C37.8242 18.584 37.738 18.3805 37.6826 18.1494C37.6305 17.9183 37.6045 17.6742 37.6045 17.417ZM47.207 20.0977C47.7214 20.0977 48.1527 19.9951 48.501 19.79C48.8525 19.5817 49.1162 19.3441 49.292 19.0771L48.7402 18.6475C48.5742 18.8623 48.3659 19.0348 48.1152 19.165C47.8646 19.2952 47.5781 19.3604 47.2559 19.3604C47.0117 19.3604 46.7887 19.3148 46.5869 19.2236C46.3851 19.1325 46.2126 19.0072 46.0693 18.8477C45.9294 18.6979 45.8187 18.5254 45.7373 18.3301C45.6592 18.1348 45.6087 17.9085 45.5859 17.6514V17.6172H49.3604V17.2119C49.3604 16.8441 49.3132 16.5023 49.2188 16.1865C49.1276 15.8708 48.9876 15.5957 48.7988 15.3613C48.61 15.1302 48.3724 14.9495 48.0859 14.8193C47.8027 14.6859 47.4707 14.6191 47.0898 14.6191C46.7871 14.6191 46.4909 14.681 46.2012 14.8047C45.9147 14.9284 45.6592 15.1058 45.4346 15.3369C45.2067 15.5713 45.0244 15.8577 44.8877 16.1963C44.751 16.5316 44.6826 16.9124 44.6826 17.3389V17.5439C44.6826 17.9118 44.7445 18.252 44.8682 18.5645C44.9919 18.877 45.1644 19.1471 45.3857 19.375C45.6071 19.6029 45.8724 19.7803 46.1816 19.9072C46.4941 20.0342 46.8359 20.0977 47.207 20.0977ZM47.0898 15.3613C47.321 15.3613 47.5195 15.4036 47.6855 15.4883C47.8548 15.5729 47.9948 15.6836 48.1055 15.8203C48.2161 15.957 48.3024 16.1198 48.3643 16.3086C48.4261 16.4941 48.457 16.6683 48.457 16.8311V16.875H45.6152C45.651 16.6309 45.7129 16.416 45.8008 16.2305C45.8919 16.0417 46.0026 15.8822 46.1328 15.752C46.263 15.625 46.4095 15.529 46.5723 15.4639C46.735 15.3955 46.9076 15.3613 47.0898 15.3613ZM56.3506 20H57.293V19.9219C57.2344 19.7754 57.1888 19.6045 57.1562 19.4092C57.1237 19.2106 57.1074 19.0234 57.1074 18.8477V16.3916C57.1074 16.0954 57.0537 15.8366 56.9463 15.6152C56.8389 15.3939 56.6924 15.2083 56.5068 15.0586C56.318 14.9121 56.0951 14.8031 55.8379 14.7314C55.5807 14.6566 55.3024 14.6191 55.0029 14.6191C54.6742 14.6191 54.3796 14.6647 54.1191 14.7559C53.862 14.847 53.6439 14.9658 53.4648 15.1123C53.2826 15.262 53.1426 15.4297 53.0449 15.6152C52.9505 15.8008 52.9017 15.9896 52.8984 16.1816H53.8066C53.8066 16.071 53.8327 15.9652 53.8848 15.8643C53.9401 15.7601 54.0166 15.6706 54.1143 15.5957C54.2119 15.5208 54.3307 15.4606 54.4707 15.415C54.6139 15.3695 54.7751 15.3467 54.9541 15.3467C55.1462 15.3467 55.3187 15.3711 55.4717 15.4199C55.6279 15.4688 55.7598 15.5371 55.8672 15.625C55.9746 15.7161 56.0576 15.8252 56.1162 15.9521C56.1748 16.0791 56.2041 16.2223 56.2041 16.3818V16.7969H55.2178C54.8499 16.7969 54.5163 16.8327 54.2168 16.9043C53.9206 16.9759 53.6667 17.0833 53.4551 17.2266C53.2435 17.373 53.0791 17.5553 52.9619 17.7734C52.848 17.9915 52.791 18.2454 52.791 18.5352C52.791 18.7565 52.8333 18.9632 52.918 19.1553C53.0059 19.3441 53.1296 19.5068 53.2891 19.6436C53.4453 19.7835 53.6357 19.8942 53.8604 19.9756C54.0882 20.057 54.3421 20.0977 54.6221 20.0977C54.7946 20.0977 54.9574 20.0798 55.1104 20.0439C55.2633 20.0081 55.4082 19.9593 55.5449 19.8975C55.6784 19.8356 55.8005 19.764 55.9111 19.6826C56.0251 19.6012 56.1276 19.515 56.2188 19.4238C56.2285 19.5345 56.2432 19.6419 56.2627 19.7461C56.2855 19.847 56.3148 19.9316 56.3506 20ZM54.7539 19.3115C54.5781 19.3115 54.4235 19.2887 54.29 19.2432C54.1566 19.1976 54.0459 19.1341 53.958 19.0527C53.8701 18.9746 53.8034 18.8802 53.7578 18.7695C53.7155 18.6589 53.6943 18.5384 53.6943 18.4082C53.6943 18.2715 53.7188 18.1494 53.7676 18.042C53.8197 17.9346 53.8945 17.8418 53.9922 17.7637C54.1289 17.653 54.3128 17.5716 54.5439 17.5195C54.7783 17.4642 55.0518 17.4365 55.3643 17.4365H56.2041V18.5059C56.152 18.61 56.0804 18.7109 55.9893 18.8086C55.8981 18.903 55.7907 18.9876 55.667 19.0625C55.54 19.1374 55.4001 19.1976 55.2471 19.2432C55.0941 19.2887 54.9297 19.3115 54.7539 19.3115ZM64.3467 14.6191C63.9626 14.6191 63.6191 14.7038 63.3164 14.873C63.0169 15.0391 62.7598 15.2669 62.5449 15.5566L62.54 15.4248L62.501 14.7168H61.6416V20H62.5498V16.6113C62.6084 16.4486 62.6816 16.3021 62.7695 16.1719C62.8607 16.0384 62.9665 15.9261 63.0869 15.835C63.2204 15.7308 63.3766 15.6527 63.5557 15.6006C63.7347 15.5452 63.9349 15.5176 64.1562 15.5176C64.3288 15.5176 64.4932 15.5273 64.6494 15.5469C64.8089 15.5632 64.9766 15.5908 65.1523 15.6299L65.2744 14.7461C65.1833 14.707 65.0465 14.6761 64.8643 14.6533C64.6852 14.6305 64.5127 14.6191 64.3467 14.6191Z" fill="#707070"/>
<path d="M84.6875 63.0909L69.375 59L53.2969 76.7273L51 99.2273L60.9531 119H86.2188L100 104L95.4062 80.1364L84.6875 63.0909Z" fill="#F9E6B6"/>
<path d="M67.5556 82.6977L66.6667 81.7674V83.1628L67.5556 82.6977Z" fill="#28BBFB"/>
<path d="M69.3333 92L70.2222 90.1395L70.6667 91.5349L69.3333 92Z" fill="#28BBFB"/>
<path d="M76.8889 81.7674L78.2222 79.4419V81.7674H76.8889Z" fill="#28BBFB"/>
<path d="M75.5556 72.4651L76.8889 72L76.4444 74.3256L75.5556 72.4651Z" fill="#28BBFB"/>
<path d="M82.2222 92L83.1111 90.1395V92H82.2222Z" fill="#28BBFB"/>
<path d="M76 88.7442L76.8889 87.814V88.7442H76Z" fill="#28BBFB"/>
<path d="M60 90.6047L60.8889 88.7442L61.7778 91.5349L60 90.6047Z" fill="#28BBFB"/>
<path d="M86.2222 85.4884V84.093L88 85.4884H86.2222Z" fill="#28BBFB"/>
<path d="M68.4444 74.7907L68.8889 72.4651L69.7778 74.3256L68.4444 74.7907Z" fill="#28BBFB"/>
</svg>
