<svg width="150" height="200" viewBox="0 0 150 200" fill="none" xmlns="http://www.w3.org/2000/svg">
<rect width="150" height="200" fill="white"/>
<path d="M19.075 152.075C18.715 152.075 18.395 152 18.115 151.85C17.835 151.7 17.6167 151.488 17.46 151.215C17.3033 150.938 17.225 150.618 17.225 150.255C17.225 149.892 17.3033 149.572 17.46 149.295C17.6167 149.018 17.835 148.805 18.115 148.655C18.395 148.505 18.715 148.43 19.075 148.43C19.5583 148.43 19.96 148.55 20.28 148.79V149.28C19.99 149.027 19.6033 148.9 19.12 148.9C18.8567 148.9 18.62 148.955 18.41 149.065C18.2 149.175 18.035 149.333 17.915 149.54C17.7983 149.743 17.74 149.982 17.74 150.255C17.74 150.528 17.7983 150.768 17.915 150.975C18.0317 151.182 18.1933 151.34 18.4 151.45C18.6067 151.56 18.84 151.615 19.1 151.615C19.4033 151.615 19.6517 151.553 19.845 151.43V150.515H19.18V150.1H20.355V151.7C20.1983 151.83 20.0133 151.925 19.8 151.985C19.59 152.045 19.3483 152.075 19.075 152.075ZM23.1691 152.075C22.8991 152.075 22.6608 152.025 22.4541 151.925C22.2508 151.822 22.0908 151.675 21.9741 151.485C21.8608 151.292 21.8041 151.065 21.8041 150.805C21.8041 150.548 21.8608 150.323 21.9741 150.13C22.0874 149.937 22.2474 149.788 22.4541 149.685C22.6608 149.578 22.8991 149.525 23.1691 149.525C23.4391 149.525 23.6774 149.578 23.8841 149.685C24.0908 149.788 24.2508 149.937 24.3641 150.13C24.4808 150.323 24.5391 150.548 24.5391 150.805C24.5391 151.065 24.4808 151.292 24.3641 151.485C24.2508 151.675 24.0908 151.822 23.8841 151.925C23.6774 152.025 23.4391 152.075 23.1691 152.075ZM23.1691 151.675C23.4291 151.675 23.6358 151.595 23.7891 151.435C23.9424 151.275 24.0191 151.065 24.0191 150.805C24.0191 150.535 23.9424 150.322 23.7891 150.165C23.6358 150.008 23.4291 149.93 23.1691 149.93C22.9091 149.93 22.7024 150.008 22.5491 150.165C22.3958 150.322 22.3191 150.535 22.3191 150.805C22.3191 151.065 22.3958 151.275 22.5491 151.435C22.7024 151.595 22.9091 151.675 23.1691 151.675ZM29.8633 152.075C29.6199 152.075 29.4316 152.005 29.2983 151.865C29.1683 151.725 29.1033 151.527 29.1033 151.27V149.99H28.7383V149.6H29.1033V148.88H29.6133V149.6H30.2033V149.99H29.6133V151.235C29.6133 151.395 29.6433 151.508 29.7033 151.575C29.7666 151.642 29.8799 151.675 30.0433 151.675C30.1399 151.675 30.2366 151.653 30.3333 151.61V152.01C30.2066 152.053 30.0499 152.075 29.8633 152.075ZM31.8084 148.305H32.3134V149.93C32.5434 149.66 32.8501 149.525 33.2334 149.525C33.5534 149.525 33.7917 149.61 33.9484 149.78C34.1051 149.95 34.1834 150.178 34.1834 150.465V152H33.6784V150.515C33.6784 150.125 33.4917 149.93 33.1184 149.93C32.9584 149.93 32.8084 149.968 32.6684 150.045C32.5317 150.118 32.4134 150.232 32.3134 150.385V152H31.8084V148.305ZM35.8064 149.6H36.2964V150.03C36.3964 149.883 36.5364 149.775 36.7164 149.705C36.8998 149.635 37.1114 149.6 37.3514 149.6V149.995C37.0948 149.995 36.8748 150.037 36.6914 150.12C36.5081 150.203 36.3814 150.335 36.3114 150.515V152H35.8064V149.6ZM39.9953 152.075C39.7253 152.075 39.4869 152.025 39.2803 151.925C39.0769 151.822 38.9169 151.675 38.8003 151.485C38.6869 151.292 38.6303 151.065 38.6303 150.805C38.6303 150.548 38.6869 150.323 38.8003 150.13C38.9136 149.937 39.0736 149.788 39.2803 149.685C39.4869 149.578 39.7253 149.525 39.9953 149.525C40.2653 149.525 40.5036 149.578 40.7103 149.685C40.9169 149.788 41.0769 149.937 41.1903 150.13C41.3069 150.323 41.3653 150.548 41.3653 150.805C41.3653 151.065 41.3069 151.292 41.1903 151.485C41.0769 151.675 40.9169 151.822 40.7103 151.925C40.5036 152.025 40.2653 152.075 39.9953 152.075ZM39.9953 151.675C40.2553 151.675 40.4619 151.595 40.6153 151.435C40.7686 151.275 40.8453 151.065 40.8453 150.805C40.8453 150.535 40.7686 150.322 40.6153 150.165C40.4619 150.008 40.2553 149.93 39.9953 149.93C39.7353 149.93 39.5286 150.008 39.3753 150.165C39.2219 150.322 39.1453 150.535 39.1453 150.805C39.1453 151.065 39.2219 151.275 39.3753 151.435C39.5286 151.595 39.7353 151.675 39.9953 151.675ZM43.8689 152.075C43.5455 152.075 43.3005 151.988 43.1339 151.815C42.9705 151.642 42.8889 151.41 42.8889 151.12V149.6H43.3939V151.1C43.3939 151.483 43.5855 151.675 43.9689 151.675C44.3055 151.675 44.5689 151.523 44.7589 151.22V149.6H45.2639V152H44.7739V151.66C44.6605 151.803 44.5255 151.908 44.3689 151.975C44.2155 152.042 44.0489 152.075 43.8689 152.075ZM48.1669 153.15C48.0036 153.15 47.8436 153.137 47.6869 153.11C47.5336 153.083 47.4036 153.045 47.2969 152.995V152.58C47.5469 152.693 47.8369 152.75 48.1669 152.75C48.4769 152.75 48.7019 152.682 48.8419 152.545C48.9852 152.412 49.0569 152.208 49.0569 151.935V151.68C48.8369 151.943 48.5136 152.075 48.0869 152.075C47.8436 152.075 47.6252 152.022 47.4319 151.915C47.2386 151.808 47.0869 151.658 46.9769 151.465C46.8669 151.272 46.8119 151.05 46.8119 150.8C46.8119 150.547 46.8652 150.325 46.9719 150.135C47.0819 149.942 47.2319 149.792 47.4219 149.685C47.6152 149.578 47.8319 149.525 48.0719 149.525C48.2952 149.525 48.4836 149.558 48.6369 149.625C48.7936 149.688 48.9386 149.795 49.0719 149.945V149.6H49.5619V151.88C49.5619 152.29 49.4469 152.603 49.2169 152.82C48.9902 153.04 48.6402 153.15 48.1669 153.15ZM48.1869 151.675C48.3936 151.675 48.5752 151.62 48.7319 151.51C48.8919 151.4 49.0002 151.253 49.0569 151.07V150.53C48.9936 150.343 48.8836 150.197 48.7269 150.09C48.5736 149.983 48.3936 149.93 48.1869 149.93C48.0236 149.93 47.8752 149.967 47.7419 150.04C47.6119 150.11 47.5086 150.212 47.4319 150.345C47.3586 150.478 47.3219 150.63 47.3219 150.8C47.3219 150.973 47.3586 151.127 47.4319 151.26C47.5086 151.39 47.6119 151.492 47.7419 151.565C47.8752 151.638 48.0236 151.675 48.1869 151.675ZM51.2127 148.305H51.7177V149.93C51.9477 149.66 52.2544 149.525 52.6377 149.525C52.9577 149.525 53.196 149.61 53.3527 149.78C53.5094 149.95 53.5877 150.178 53.5877 150.465V152H53.0827V150.515C53.0827 150.125 52.896 149.93 52.5227 149.93C52.3627 149.93 52.2127 149.968 52.0727 150.045C51.936 150.118 51.8177 150.232 51.7177 150.385V152H51.2127V148.305ZM58.9863 152.075C58.743 152.075 58.5547 152.005 58.4213 151.865C58.2913 151.725 58.2263 151.527 58.2263 151.27V149.99H57.8613V149.6H58.2263V148.88H58.7363V149.6H59.3263V149.99H58.7363V151.235C58.7363 151.395 58.7663 151.508 58.8263 151.575C58.8897 151.642 59.003 151.675 59.1663 151.675C59.263 151.675 59.3597 151.653 59.4563 151.61V152.01C59.3297 152.053 59.173 152.075 58.9863 152.075ZM60.9314 148.305H61.4364V149.93C61.6664 149.66 61.9731 149.525 62.3564 149.525C62.6764 149.525 62.9148 149.61 63.0714 149.78C63.2281 149.95 63.3064 150.178 63.3064 150.465V152H62.8014V150.515C62.8014 150.125 62.6148 149.93 62.2414 149.93C62.0814 149.93 61.9314 149.968 61.7914 150.045C61.6548 150.118 61.5364 150.232 61.4364 150.385V152H60.9314V148.305ZM66.2495 152.075C65.8062 152.075 65.4578 151.965 65.2045 151.745C64.9545 151.522 64.8295 151.208 64.8295 150.805C64.8295 150.412 64.9412 150.1 65.1645 149.87C65.3912 149.64 65.7128 149.525 66.1295 149.525C66.4062 149.525 66.6412 149.578 66.8345 149.685C67.0278 149.788 67.1728 149.933 67.2695 150.12C67.3695 150.303 67.4195 150.513 67.4195 150.75V151H65.3095C65.3262 151.227 65.4212 151.397 65.5945 151.51C65.7712 151.62 66.0095 151.675 66.3095 151.675C66.4628 151.675 66.6178 151.662 66.7745 151.635C66.9312 151.605 67.0695 151.567 67.1895 151.52V151.925C67.0828 151.968 66.9412 152.003 66.7645 152.03C66.5912 152.06 66.4195 152.075 66.2495 152.075ZM66.9445 150.645C66.9378 150.418 66.8628 150.243 66.7195 150.12C66.5795 149.993 66.3795 149.93 66.1195 149.93C65.8662 149.93 65.6695 149.995 65.5295 150.125C65.3895 150.255 65.3162 150.428 65.3095 150.645H66.9445ZM71.8221 148.505H72.9471C73.3237 148.505 73.6504 148.575 73.9271 148.715C74.2037 148.855 74.4154 149.055 74.5621 149.315C74.7121 149.575 74.7871 149.882 74.7871 150.235C74.7871 150.815 74.6187 151.255 74.2821 151.555C73.9487 151.852 73.4804 152 72.8771 152H71.8221V148.505ZM72.8721 151.575C73.3387 151.575 73.6887 151.46 73.9221 151.23C74.1554 151 74.2721 150.668 74.2721 150.235C74.2721 149.835 74.1571 149.518 73.9271 149.285C73.7004 149.052 73.3754 148.935 72.9521 148.935H72.3321V151.575H72.8721ZM76.3377 149.6H76.8277V150.03C76.9277 149.883 77.0677 149.775 77.2477 149.705C77.431 149.635 77.6427 149.6 77.8827 149.6V149.995C77.626 149.995 77.406 150.037 77.2227 150.12C77.0394 150.203 76.9127 150.335 76.8427 150.515V152H76.3377V149.6ZM79.9702 152.075C79.6802 152.075 79.4468 152.002 79.2702 151.855C79.0968 151.705 79.0102 151.503 79.0102 151.25C79.0102 150.983 79.0935 150.778 79.2602 150.635C79.4302 150.488 79.6702 150.415 79.9802 150.415C80.3102 150.415 80.5902 150.482 80.8202 150.615V150.49C80.8202 150.3 80.7618 150.16 80.6452 150.07C80.5318 149.977 80.3518 149.93 80.1052 149.93C79.9585 149.93 79.8152 149.945 79.6752 149.975C79.5385 150.002 79.4152 150.04 79.3052 150.09V149.68C79.4052 149.633 79.5352 149.597 79.6952 149.57C79.8552 149.54 80.0102 149.525 80.1602 149.525C80.5568 149.525 80.8502 149.613 81.0402 149.79C81.2335 149.963 81.3302 150.205 81.3302 150.515V152H80.8552V151.73C80.7518 151.843 80.6285 151.93 80.4852 151.99C80.3452 152.047 80.1735 152.075 79.9702 152.075ZM80.0952 151.69C80.2552 151.69 80.4002 151.658 80.5302 151.595C80.6602 151.532 80.7568 151.443 80.8202 151.33V151.005C80.6035 150.865 80.3618 150.795 80.0952 150.795C79.9018 150.795 79.7568 150.833 79.6602 150.91C79.5668 150.983 79.5202 151.097 79.5202 151.25C79.5202 151.543 79.7118 151.69 80.0952 151.69ZM82.5834 149.6H83.0984L83.6384 151.38L84.1734 149.6H84.6284L85.1634 151.38L85.7034 149.6H86.2234L85.4434 152H84.9584L84.4034 150.21L83.8484 152H83.3584L82.5834 149.6ZM90.6258 148.505H91.9708C92.3474 148.505 92.6441 148.6 92.8608 148.79C93.0808 148.977 93.1908 149.243 93.1908 149.59C93.1908 149.943 93.0824 150.212 92.8658 150.395C92.6491 150.575 92.3508 150.665 91.9708 150.665H91.1358V152H90.6258V148.505ZM91.9158 150.24C92.1491 150.24 92.3341 150.192 92.4708 150.095C92.6074 149.998 92.6758 149.83 92.6758 149.59C92.6758 149.35 92.6074 149.182 92.4708 149.085C92.3341 148.985 92.1491 148.935 91.9158 148.935H91.1358V150.24H91.9158ZM94.9335 149.13C94.8501 149.13 94.7801 149.102 94.7235 149.045C94.6668 148.988 94.6385 148.918 94.6385 148.835C94.6385 148.752 94.6668 148.682 94.7235 148.625C94.7801 148.568 94.8501 148.54 94.9335 148.54C95.0201 148.54 95.0918 148.568 95.1485 148.625C95.2085 148.682 95.2385 148.752 95.2385 148.835C95.2385 148.918 95.2085 148.988 95.1485 149.045C95.0918 149.102 95.0201 149.13 94.9335 149.13ZM94.6785 149.6H95.1935V152H94.6785V149.6ZM96.8885 148.305H97.3935V152H96.8885V148.305ZM100.366 152.075C99.9224 152.075 99.574 151.965 99.3207 151.745C99.0707 151.522 98.9457 151.208 98.9457 150.805C98.9457 150.412 99.0574 150.1 99.2807 149.87C99.5074 149.64 99.829 149.525 100.246 149.525C100.522 149.525 100.757 149.578 100.951 149.685C101.144 149.788 101.289 149.933 101.386 150.12C101.486 150.303 101.536 150.513 101.536 150.75V151H99.4257C99.4424 151.227 99.5374 151.397 99.7107 151.51C99.8874 151.62 100.126 151.675 100.426 151.675C100.579 151.675 100.734 151.662 100.891 151.635C101.047 151.605 101.186 151.567 101.306 151.52V151.925C101.199 151.968 101.057 152.003 100.881 152.03C100.707 152.06 100.536 152.075 100.366 152.075ZM101.061 150.645C101.054 150.418 100.979 150.243 100.836 150.12C100.696 149.993 100.496 149.93 100.236 149.93C99.9824 149.93 99.7857 149.995 99.6457 150.125C99.5057 150.255 99.4324 150.428 99.4257 150.645H101.061ZM106.578 152.87C106.338 152.577 106.155 152.243 106.028 151.87C105.902 151.497 105.838 151.09 105.838 150.65C105.838 150.213 105.902 149.808 106.028 149.435C106.155 149.058 106.338 148.723 106.578 148.43H107.113C106.86 148.753 106.67 149.097 106.543 149.46C106.417 149.823 106.353 150.22 106.353 150.65C106.353 151.08 106.417 151.477 106.543 151.84C106.67 152.203 106.86 152.547 107.113 152.87H106.578ZM109.474 152.075C109.307 152.075 109.13 152.053 108.944 152.01C108.757 151.97 108.61 151.915 108.504 151.845V151.415C108.634 151.492 108.784 151.555 108.954 151.605C109.124 151.652 109.289 151.675 109.449 151.675C109.629 151.675 109.76 151.653 109.844 151.61C109.927 151.567 109.969 151.497 109.969 151.4C109.969 151.327 109.949 151.268 109.909 151.225C109.872 151.178 109.807 151.137 109.714 151.1C109.624 151.063 109.487 151.02 109.304 150.97C109.107 150.913 108.95 150.857 108.834 150.8C108.72 150.74 108.634 150.665 108.574 150.575C108.517 150.485 108.489 150.368 108.489 150.225C108.489 149.995 108.579 149.822 108.759 149.705C108.942 149.585 109.187 149.525 109.494 149.525C109.654 149.525 109.81 149.54 109.964 149.57C110.117 149.6 110.24 149.642 110.334 149.695V150.115C110.237 150.058 110.117 150.013 109.974 149.98C109.834 149.947 109.69 149.93 109.544 149.93C109.367 149.93 109.232 149.952 109.139 149.995C109.045 150.038 108.999 150.115 108.999 150.225C108.999 150.295 109.019 150.352 109.059 150.395C109.099 150.438 109.162 150.477 109.249 150.51C109.339 150.54 109.48 150.58 109.674 150.63C109.977 150.713 110.187 150.812 110.304 150.925C110.424 151.038 110.484 151.195 110.484 151.395C110.484 151.602 110.399 151.767 110.229 151.89C110.059 152.013 109.807 152.075 109.474 152.075ZM112.035 148.305H112.54V149.93C112.77 149.66 113.077 149.525 113.46 149.525C113.78 149.525 114.018 149.61 114.175 149.78C114.332 149.95 114.41 150.178 114.41 150.465V152H113.905V150.515C113.905 150.125 113.718 149.93 113.345 149.93C113.185 149.93 113.035 149.968 112.895 150.045C112.758 150.118 112.64 150.232 112.54 150.385V152H112.035V148.305ZM116.988 152.075C116.665 152.075 116.42 151.988 116.253 151.815C116.09 151.642 116.008 151.41 116.008 151.12V149.6H116.513V151.1C116.513 151.483 116.705 151.675 117.088 151.675C117.425 151.675 117.688 151.523 117.878 151.22V149.6H118.383V152H117.893V151.66C117.78 151.803 117.645 151.908 117.488 151.975C117.335 152.042 117.168 152.075 116.988 152.075ZM120.196 149.99H119.831V149.6H120.196V149.13C120.196 148.853 120.274 148.643 120.431 148.5C120.588 148.353 120.798 148.28 121.061 148.28C121.198 148.28 121.326 148.3 121.446 148.34V148.76C121.353 148.717 121.256 148.695 121.156 148.695C120.999 148.695 120.884 148.733 120.811 148.81C120.738 148.883 120.701 149 120.701 149.16V149.6H121.301V149.99H120.701V152H120.196V149.99ZM122.832 149.99H122.467V149.6H122.832V149.13C122.832 148.857 122.918 148.647 123.092 148.5C123.268 148.353 123.49 148.28 123.757 148.28C123.89 148.28 124.02 148.3 124.147 148.34V148.75C124.053 148.713 123.958 148.695 123.862 148.695C123.695 148.695 123.565 148.735 123.472 148.815C123.382 148.892 123.337 149.007 123.337 149.16V149.6H124.457V148.51H124.967V152H124.457V149.99H123.337V152H122.832V149.99ZM127.936 152.075C127.493 152.075 127.144 151.965 126.891 151.745C126.641 151.522 126.516 151.208 126.516 150.805C126.516 150.412 126.628 150.1 126.851 149.87C127.078 149.64 127.399 149.525 127.816 149.525C128.093 149.525 128.328 149.578 128.521 149.685C128.714 149.788 128.859 149.933 128.956 150.12C129.056 150.303 129.106 150.513 129.106 150.75V151H126.996C127.013 151.227 127.108 151.397 127.281 151.51C127.458 151.62 127.696 151.675 127.996 151.675C128.149 151.675 128.304 151.662 128.461 151.635C128.618 151.605 128.756 151.567 128.876 151.52V151.925C128.769 151.968 128.628 152.003 128.451 152.03C128.278 152.06 128.106 152.075 127.936 152.075ZM128.631 150.645C128.624 150.418 128.549 150.243 128.406 150.12C128.266 149.993 128.066 149.93 127.806 149.93C127.553 149.93 127.356 149.995 127.216 150.125C127.076 150.255 127.003 150.428 126.996 150.645H128.631ZM18.185 160.075C17.895 160.075 17.6617 160.002 17.485 159.855C17.3117 159.705 17.225 159.503 17.225 159.25C17.225 158.983 17.3083 158.778 17.475 158.635C17.645 158.488 17.885 158.415 18.195 158.415C18.525 158.415 18.805 158.482 19.035 158.615V158.49C19.035 158.3 18.9767 158.16 18.86 158.07C18.7467 157.977 18.5667 157.93 18.32 157.93C18.1733 157.93 18.03 157.945 17.89 157.975C17.7533 158.002 17.63 158.04 17.52 158.09V157.68C17.62 157.633 17.75 157.597 17.91 157.57C18.07 157.54 18.225 157.525 18.375 157.525C18.7717 157.525 19.065 157.613 19.255 157.79C19.4483 157.963 19.545 158.205 19.545 158.515V160H19.07V159.73C18.9667 159.843 18.8433 159.93 18.7 159.99C18.56 160.047 18.3883 160.075 18.185 160.075ZM18.31 159.69C18.47 159.69 18.615 159.658 18.745 159.595C18.875 159.532 18.9717 159.443 19.035 159.33V159.005C18.8183 158.865 18.5767 158.795 18.31 158.795C18.1167 158.795 17.9717 158.833 17.875 158.91C17.7817 158.983 17.735 159.097 17.735 159.25C17.735 159.543 17.9267 159.69 18.31 159.69ZM21.3367 157.99H20.9717V157.6H21.3367V157.13C21.3367 156.853 21.415 156.643 21.5717 156.5C21.7283 156.353 21.9383 156.28 22.2017 156.28C22.3383 156.28 22.4667 156.3 22.5867 156.34V156.76C22.4933 156.717 22.3967 156.695 22.2967 156.695C22.14 156.695 22.025 156.733 21.9517 156.81C21.8783 156.883 21.8417 157 21.8417 157.16V157.6H22.4417V157.99H21.8417V160H21.3367V157.99ZM24.6836 160.075C24.4403 160.075 24.2519 160.005 24.1186 159.865C23.9886 159.725 23.9236 159.527 23.9236 159.27V157.99H23.5586V157.6H23.9236V156.88H24.4336V157.6H25.0236V157.99H24.4336V159.235C24.4336 159.395 24.4636 159.508 24.5236 159.575C24.5869 159.642 24.7003 159.675 24.8636 159.675C24.9603 159.675 25.0569 159.653 25.1536 159.61V160.01C25.0269 160.053 24.8703 160.075 24.6836 160.075ZM27.9487 160.075C27.5054 160.075 27.157 159.965 26.9037 159.745C26.6537 159.522 26.5287 159.208 26.5287 158.805C26.5287 158.412 26.6404 158.1 26.8637 157.87C27.0904 157.64 27.412 157.525 27.8287 157.525C28.1054 157.525 28.3404 157.578 28.5337 157.685C28.727 157.788 28.872 157.933 28.9687 158.12C29.0687 158.303 29.1187 158.513 29.1187 158.75V159H27.0087C27.0254 159.227 27.1204 159.397 27.2937 159.51C27.4704 159.62 27.7087 159.675 28.0087 159.675C28.162 159.675 28.317 159.662 28.4737 159.635C28.6304 159.605 28.7687 159.567 28.8887 159.52V159.925C28.782 159.968 28.6404 160.003 28.4637 160.03C28.2904 160.06 28.1187 160.075 27.9487 160.075ZM28.6437 158.645C28.637 158.418 28.562 158.243 28.4187 158.12C28.2787 157.993 28.0787 157.93 27.8187 157.93C27.5654 157.93 27.3687 157.995 27.2287 158.125C27.0887 158.255 27.0154 158.428 27.0087 158.645H28.6437ZM30.6707 157.6H31.1607V158.03C31.2607 157.883 31.4007 157.775 31.5807 157.705C31.764 157.635 31.9757 157.6 32.2157 157.6V157.995C31.959 157.995 31.739 158.037 31.5557 158.12C31.3724 158.203 31.2457 158.335 31.1757 158.515V160H30.6707V157.6ZM33.4928 160.87C33.7461 160.547 33.9361 160.203 34.0628 159.84C34.1894 159.477 34.2528 159.08 34.2528 158.65C34.2528 158.22 34.1894 157.823 34.0628 157.46C33.9361 157.097 33.7461 156.753 33.4928 156.43H34.0278C34.2678 156.723 34.4511 157.058 34.5778 157.435C34.7044 157.808 34.7678 158.213 34.7678 158.65C34.7678 159.09 34.7044 159.497 34.5778 159.87C34.4511 160.243 34.2678 160.577 34.0278 160.87H33.4928ZM40.0288 160.075C39.7388 160.075 39.5054 160.002 39.3288 159.855C39.1554 159.705 39.0688 159.503 39.0688 159.25C39.0688 158.983 39.1521 158.778 39.3188 158.635C39.4888 158.488 39.7288 158.415 40.0388 158.415C40.3688 158.415 40.6488 158.482 40.8788 158.615V158.49C40.8788 158.3 40.8204 158.16 40.7038 158.07C40.5904 157.977 40.4104 157.93 40.1637 157.93C40.0171 157.93 39.8738 157.945 39.7338 157.975C39.5971 158.002 39.4738 158.04 39.3638 158.09V157.68C39.4638 157.633 39.5938 157.597 39.7538 157.57C39.9138 157.54 40.0688 157.525 40.2188 157.525C40.6154 157.525 40.9088 157.613 41.0988 157.79C41.2921 157.963 41.3888 158.205 41.3888 158.515V160H40.9138V159.73C40.8104 159.843 40.6871 159.93 40.5438 159.99C40.4038 160.047 40.2321 160.075 40.0288 160.075ZM40.1538 159.69C40.3138 159.69 40.4588 159.658 40.5888 159.595C40.7188 159.532 40.8154 159.443 40.8788 159.33V159.005C40.6621 158.865 40.4204 158.795 40.1538 158.795C39.9604 158.795 39.8154 158.833 39.7188 158.91C39.6254 158.983 39.5787 159.097 39.5787 159.25C39.5787 159.543 39.7704 159.69 40.1538 159.69ZM43.0154 157.6H43.5054V157.945C43.6188 157.802 43.7571 157.697 43.9204 157.63C44.0871 157.56 44.2604 157.525 44.4404 157.525C44.7604 157.525 44.9988 157.61 45.1554 157.78C45.3121 157.95 45.3904 158.178 45.3904 158.465V160H44.8854V158.515C44.8854 158.125 44.6988 157.93 44.3254 157.93C44.1654 157.93 44.0154 157.968 43.8754 158.045C43.7388 158.118 43.6204 158.232 43.5204 158.385V160H43.0154V157.6ZM48.1735 160.075C47.9335 160.075 47.7168 160.023 47.5235 159.92C47.3335 159.813 47.1835 159.665 47.0735 159.475C46.9668 159.282 46.9135 159.058 46.9135 158.805C46.9135 158.555 46.9668 158.333 47.0735 158.14C47.1835 157.947 47.3335 157.797 47.5235 157.69C47.7168 157.58 47.9335 157.525 48.1735 157.525C48.6068 157.525 48.9351 157.657 49.1585 157.92V156.305H49.6635V160H49.1735V159.65C49.0401 159.797 48.8935 159.905 48.7335 159.975C48.5768 160.042 48.3901 160.075 48.1735 160.075ZM48.2885 159.675C48.4951 159.675 48.6751 159.622 48.8285 159.515C48.9851 159.405 49.0951 159.258 49.1585 159.075V158.535C49.1018 158.352 48.9935 158.205 48.8335 158.095C48.6768 157.985 48.4951 157.93 48.2885 157.93C48.1251 157.93 47.9768 157.967 47.8435 158.04C47.7135 158.113 47.6101 158.217 47.5335 158.35C47.4601 158.483 47.4235 158.635 47.4235 158.805C47.4235 158.975 47.4601 159.127 47.5335 159.26C47.6101 159.393 47.7135 159.497 47.8435 159.57C47.9768 159.64 48.1251 159.675 48.2885 159.675ZM54.1648 157.6H54.6548V157.955C54.9015 157.668 55.2348 157.525 55.6548 157.525C55.8948 157.525 56.1098 157.578 56.2998 157.685C56.4932 157.792 56.6432 157.942 56.7498 158.135C56.8598 158.325 56.9148 158.547 56.9148 158.8C56.9148 159.05 56.8598 159.272 56.7498 159.465C56.6432 159.658 56.4948 159.808 56.3048 159.915C56.1148 160.022 55.8982 160.075 55.6548 160.075C55.4548 160.075 55.2682 160.042 55.0948 159.975C54.9215 159.908 54.7798 159.81 54.6698 159.68V161.095H54.1648V157.6ZM55.5398 159.675C55.7032 159.675 55.8498 159.64 55.9798 159.57C56.1132 159.497 56.2165 159.393 56.2898 159.26C56.3665 159.127 56.4048 158.973 56.4048 158.8C56.4048 158.627 56.3665 158.475 56.2898 158.345C56.2165 158.212 56.1132 158.11 55.9798 158.04C55.8498 157.967 55.7032 157.93 55.5398 157.93C55.3365 157.93 55.1565 157.983 54.9998 158.09C54.8465 158.197 54.7365 158.343 54.6698 158.53V159.07C54.7265 159.253 54.8348 159.4 54.9948 159.51C55.1548 159.62 55.3365 159.675 55.5398 159.675ZM59.2937 160.075C58.9703 160.075 58.7253 159.988 58.5587 159.815C58.3953 159.642 58.3137 159.41 58.3137 159.12V157.6H58.8187V159.1C58.8187 159.483 59.0103 159.675 59.3937 159.675C59.7303 159.675 59.9937 159.523 60.1837 159.22V157.6H60.6887V160H60.1987V159.66C60.0853 159.803 59.9503 159.908 59.7937 159.975C59.6403 160.042 59.4737 160.075 59.2937 160.075ZM63.2617 160.075C63.0184 160.075 62.8301 160.005 62.6967 159.865C62.5667 159.725 62.5017 159.527 62.5017 159.27V157.99H62.1367V157.6H62.5017V156.88H63.0117V157.6H63.6017V157.99H63.0117V159.235C63.0117 159.395 63.0417 159.508 63.1017 159.575C63.1651 159.642 63.2784 159.675 63.4417 159.675C63.5384 159.675 63.6351 159.653 63.7317 159.61V160.01C63.6051 160.053 63.4484 160.075 63.2617 160.075ZM68.9174 160.075C68.6274 160.075 68.3941 160.002 68.2174 159.855C68.0441 159.705 67.9574 159.503 67.9574 159.25C67.9574 158.983 68.0408 158.778 68.2074 158.635C68.3774 158.488 68.6174 158.415 68.9274 158.415C69.2574 158.415 69.5374 158.482 69.7674 158.615V158.49C69.7674 158.3 69.7091 158.16 69.5924 158.07C69.4791 157.977 69.2991 157.93 69.0524 157.93C68.9058 157.93 68.7624 157.945 68.6224 157.975C68.4858 158.002 68.3624 158.04 68.2524 158.09V157.68C68.3524 157.633 68.4824 157.597 68.6424 157.57C68.8024 157.54 68.9574 157.525 69.1074 157.525C69.5041 157.525 69.7974 157.613 69.9874 157.79C70.1808 157.963 70.2774 158.205 70.2774 158.515V160H69.8024V159.73C69.6991 159.843 69.5758 159.93 69.4324 159.99C69.2924 160.047 69.1208 160.075 68.9174 160.075ZM69.0424 159.69C69.2024 159.69 69.3474 159.658 69.4774 159.595C69.6074 159.532 69.7041 159.443 69.7674 159.33V159.005C69.5508 158.865 69.3091 158.795 69.0424 158.795C68.8491 158.795 68.7041 158.833 68.6074 158.91C68.5141 158.983 68.4674 159.097 68.4674 159.25C68.4674 159.543 68.6591 159.69 69.0424 159.69ZM74.9197 157.99H74.5547V157.6H74.9197V157.145C74.9197 156.868 75.008 156.655 75.1847 156.505C75.3614 156.355 75.5814 156.28 75.8447 156.28C75.978 156.28 76.108 156.3 76.2347 156.34V156.75C76.1414 156.713 76.0447 156.695 75.9447 156.695C75.7747 156.695 75.6447 156.737 75.5547 156.82C75.468 156.9 75.4247 157.018 75.4247 157.175V157.6H77.0447V160H76.5397V157.99H75.4247V160H74.9197V157.99ZM76.7897 157.13C76.703 157.13 76.6314 157.102 76.5747 157.045C76.518 156.988 76.4897 156.918 76.4897 156.835C76.4897 156.752 76.518 156.682 76.5747 156.625C76.6347 156.568 76.7064 156.54 76.7897 156.54C76.873 156.54 76.943 156.568 76.9997 156.625C77.0597 156.682 77.0897 156.752 77.0897 156.835C77.0897 156.918 77.0597 156.988 76.9997 157.045C76.943 157.102 76.873 157.13 76.7897 157.13ZM79.6231 160.075C79.4564 160.075 79.2798 160.053 79.0931 160.01C78.9064 159.97 78.7598 159.915 78.6531 159.845V159.415C78.7831 159.492 78.9331 159.555 79.1031 159.605C79.2731 159.652 79.4381 159.675 79.5981 159.675C79.7781 159.675 79.9098 159.653 79.9931 159.61C80.0764 159.567 80.1181 159.497 80.1181 159.4C80.1181 159.327 80.0981 159.268 80.0581 159.225C80.0214 159.178 79.9564 159.137 79.8631 159.1C79.7731 159.063 79.6364 159.02 79.4531 158.97C79.2564 158.913 79.0998 158.857 78.9831 158.8C78.8698 158.74 78.7831 158.665 78.7231 158.575C78.6664 158.485 78.6381 158.368 78.6381 158.225C78.6381 157.995 78.7281 157.822 78.9081 157.705C79.0914 157.585 79.3364 157.525 79.6431 157.525C79.8031 157.525 79.9598 157.54 80.1131 157.57C80.2664 157.6 80.3898 157.642 80.4831 157.695V158.115C80.3864 158.058 80.2664 158.013 80.1231 157.98C79.9831 157.947 79.8398 157.93 79.6931 157.93C79.5164 157.93 79.3814 157.952 79.2881 157.995C79.1948 158.038 79.1481 158.115 79.1481 158.225C79.1481 158.295 79.1681 158.352 79.2081 158.395C79.2481 158.438 79.3114 158.477 79.3981 158.51C79.4881 158.54 79.6298 158.58 79.8231 158.63C80.1264 158.713 80.3364 158.812 80.4531 158.925C80.5731 159.038 80.6331 159.195 80.6331 159.395C80.6331 159.602 80.5481 159.767 80.3781 159.89C80.2081 160.013 79.9564 160.075 79.6231 160.075ZM82.1844 156.305H82.6894V157.93C82.9194 157.66 83.226 157.525 83.6094 157.525C83.9294 157.525 84.1677 157.61 84.3244 157.78C84.481 157.95 84.5594 158.178 84.5594 158.465V160H84.0544V158.515C84.0544 158.125 83.8677 157.93 83.4944 157.93C83.3344 157.93 83.1844 157.968 83.0444 158.045C82.9077 158.118 82.7894 158.232 82.6894 158.385V160H82.1844V156.305ZM89.328 157.13C89.2447 157.13 89.1747 157.102 89.118 157.045C89.0613 156.988 89.033 156.918 89.033 156.835C89.033 156.752 89.0613 156.682 89.118 156.625C89.1747 156.568 89.2447 156.54 89.328 156.54C89.4147 156.54 89.4863 156.568 89.543 156.625C89.603 156.682 89.633 156.752 89.633 156.835C89.633 156.918 89.603 156.988 89.543 157.045C89.4863 157.102 89.4147 157.13 89.328 157.13ZM89.073 157.6H89.588V160H89.073V157.6ZM91.283 157.6H91.773V157.945C91.8863 157.802 92.0247 157.697 92.188 157.63C92.3547 157.56 92.528 157.525 92.708 157.525C93.028 157.525 93.2663 157.61 93.423 157.78C93.5797 157.95 93.658 158.178 93.658 158.465V160H93.153V158.515C93.153 158.125 92.9663 157.93 92.593 157.93C92.433 157.93 92.283 157.968 92.143 158.045C92.0063 158.118 91.888 158.232 91.788 158.385V160H91.283V157.6ZM96.2061 160.075C95.9627 160.075 95.7744 160.005 95.6411 159.865C95.5111 159.725 95.4461 159.527 95.4461 159.27V157.99H95.0811V157.6H95.4461V156.88H95.9561V157.6H96.5461V157.99H95.9561V159.235C95.9561 159.395 95.9861 159.508 96.0461 159.575C96.1094 159.642 96.2227 159.675 96.3861 159.675C96.4827 159.675 96.5794 159.653 96.6761 159.61V160.01C96.5494 160.053 96.3927 160.075 96.2061 160.075ZM99.3918 160.075C99.1218 160.075 98.8834 160.025 98.6768 159.925C98.4734 159.822 98.3134 159.675 98.1968 159.485C98.0834 159.292 98.0268 159.065 98.0268 158.805C98.0268 158.548 98.0834 158.323 98.1968 158.13C98.3101 157.937 98.4701 157.788 98.6768 157.685C98.8834 157.578 99.1218 157.525 99.3918 157.525C99.6618 157.525 99.9001 157.578 100.107 157.685C100.313 157.788 100.473 157.937 100.587 158.13C100.703 158.323 100.762 158.548 100.762 158.805C100.762 159.065 100.703 159.292 100.587 159.485C100.473 159.675 100.313 159.822 100.107 159.925C99.9001 160.025 99.6618 160.075 99.3918 160.075ZM99.3918 159.675C99.6518 159.675 99.8584 159.595 100.012 159.435C100.165 159.275 100.242 159.065 100.242 158.805C100.242 158.535 100.165 158.322 100.012 158.165C99.8584 158.008 99.6518 157.93 99.3918 157.93C99.1318 157.93 98.9251 158.008 98.7718 158.165C98.6184 158.322 98.5418 158.535 98.5418 158.805C98.5418 159.065 98.6184 159.275 98.7718 159.435C98.9251 159.595 99.1318 159.675 99.3918 159.675ZM105.671 160.99C105.491 160.99 105.341 160.972 105.221 160.935V160.54C105.308 160.573 105.414 160.59 105.541 160.59C105.658 160.59 105.749 160.56 105.816 160.5C105.883 160.443 105.943 160.35 105.996 160.22L106.111 159.94L105.061 157.6H105.581L106.381 159.445L107.126 157.6H107.646L106.566 160.27C106.466 160.52 106.346 160.702 106.206 160.815C106.069 160.932 105.891 160.99 105.671 160.99ZM110.033 160.075C109.763 160.075 109.525 160.025 109.318 159.925C109.115 159.822 108.955 159.675 108.838 159.485C108.725 159.292 108.668 159.065 108.668 158.805C108.668 158.548 108.725 158.323 108.838 158.13C108.952 157.937 109.112 157.788 109.318 157.685C109.525 157.578 109.763 157.525 110.033 157.525C110.303 157.525 110.542 157.578 110.748 157.685C110.955 157.788 111.115 157.937 111.228 158.13C111.345 158.323 111.403 158.548 111.403 158.805C111.403 159.065 111.345 159.292 111.228 159.485C111.115 159.675 110.955 159.822 110.748 159.925C110.542 160.025 110.303 160.075 110.033 160.075ZM110.033 159.675C110.293 159.675 110.5 159.595 110.653 159.435C110.807 159.275 110.883 159.065 110.883 158.805C110.883 158.535 110.807 158.322 110.653 158.165C110.5 158.008 110.293 157.93 110.033 157.93C109.773 157.93 109.567 158.008 109.413 158.165C109.26 158.322 109.183 158.535 109.183 158.805C109.183 159.065 109.26 159.275 109.413 159.435C109.567 159.595 109.773 159.675 110.033 159.675ZM113.907 160.075C113.584 160.075 113.339 159.988 113.172 159.815C113.009 159.642 112.927 159.41 112.927 159.12V157.6H113.432V159.1C113.432 159.483 113.624 159.675 114.007 159.675C114.344 159.675 114.607 159.523 114.797 159.22V157.6H115.302V160H114.812V159.66C114.699 159.803 114.564 159.908 114.407 159.975C114.254 160.042 114.087 160.075 113.907 160.075ZM116.95 157.6H117.44V158.03C117.54 157.883 117.68 157.775 117.86 157.705C118.043 157.635 118.255 157.6 118.495 157.6V157.995C118.238 157.995 118.018 158.037 117.835 158.12C117.652 158.203 117.525 158.335 117.455 158.515V160H116.95V157.6ZM17.325 164.305H17.83V165.93C18.06 165.66 18.3667 165.525 18.75 165.525C19.07 165.525 19.3083 165.61 19.465 165.78C19.6217 165.95 19.7 166.178 19.7 166.465V168H19.195V166.515C19.195 166.125 19.0083 165.93 18.635 165.93C18.475 165.93 18.325 165.968 18.185 166.045C18.0483 166.118 17.93 166.232 17.83 166.385V168H17.325V164.305ZM22.1098 168.075C21.8198 168.075 21.5865 168.002 21.4098 167.855C21.2365 167.705 21.1498 167.503 21.1498 167.25C21.1498 166.983 21.2331 166.778 21.3998 166.635C21.5698 166.488 21.8098 166.415 22.1198 166.415C22.4498 166.415 22.7298 166.482 22.9598 166.615V166.49C22.9598 166.3 22.9015 166.16 22.7848 166.07C22.6715 165.977 22.4915 165.93 22.2448 165.93C22.0981 165.93 21.9548 165.945 21.8148 165.975C21.6781 166.002 21.5548 166.04 21.4448 166.09V165.68C21.5448 165.633 21.6748 165.597 21.8348 165.57C21.9948 165.54 22.1498 165.525 22.2998 165.525C22.6965 165.525 22.9898 165.613 23.1798 165.79C23.3731 165.963 23.4698 166.205 23.4698 166.515V168H22.9948V167.73C22.8915 167.843 22.7681 167.93 22.6248 167.99C22.4848 168.047 22.3131 168.075 22.1098 168.075ZM22.2348 167.69C22.3948 167.69 22.5398 167.658 22.6698 167.595C22.7998 167.532 22.8965 167.443 22.9598 167.33V167.005C22.7431 166.865 22.5015 166.795 22.2348 166.795C22.0415 166.795 21.8965 166.833 21.7998 166.91C21.7065 166.983 21.6598 167.097 21.6598 167.25C21.6598 167.543 21.8515 167.69 22.2348 167.69ZM25.0965 165.6H25.5865V165.945C25.6998 165.802 25.8382 165.697 26.0015 165.63C26.1682 165.56 26.3415 165.525 26.5215 165.525C26.8415 165.525 27.0798 165.61 27.2365 165.78C27.3932 165.95 27.4715 166.178 27.4715 166.465V168H26.9665V166.515C26.9665 166.125 26.7798 165.93 26.4065 165.93C26.2465 165.93 26.0965 165.968 25.9565 166.045C25.8198 166.118 25.7015 166.232 25.6015 166.385V168H25.0965V165.6ZM30.2545 168.075C30.0145 168.075 29.7979 168.023 29.6045 167.92C29.4145 167.813 29.2645 167.665 29.1545 167.475C29.0479 167.282 28.9945 167.058 28.9945 166.805C28.9945 166.555 29.0479 166.333 29.1545 166.14C29.2645 165.947 29.4145 165.797 29.6045 165.69C29.7979 165.58 30.0145 165.525 30.2545 165.525C30.6879 165.525 31.0162 165.657 31.2395 165.92V164.305H31.7445V168H31.2545V167.65C31.1212 167.797 30.9745 167.905 30.8145 167.975C30.6579 168.042 30.4712 168.075 30.2545 168.075ZM30.3695 167.675C30.5762 167.675 30.7562 167.622 30.9095 167.515C31.0662 167.405 31.1762 167.258 31.2395 167.075V166.535C31.1829 166.352 31.0745 166.205 30.9145 166.095C30.7579 165.985 30.5762 165.93 30.3695 165.93C30.2062 165.93 30.0579 165.967 29.9245 166.04C29.7945 166.113 29.6912 166.217 29.6145 166.35C29.5412 166.483 29.5045 166.635 29.5045 166.805C29.5045 166.975 29.5412 167.127 29.6145 167.26C29.6912 167.393 29.7945 167.497 29.9245 167.57C30.0579 167.64 30.2062 167.675 30.3695 167.675ZM33.5303 168C33.4636 168 33.407 167.978 33.3603 167.935C33.317 167.888 33.2953 167.832 33.2953 167.765C33.2953 167.698 33.317 167.642 33.3603 167.595C33.407 167.548 33.4636 167.525 33.5303 167.525C33.597 167.525 33.6536 167.548 33.7003 167.595C33.747 167.642 33.7703 167.698 33.7703 167.765C33.7703 167.832 33.747 167.888 33.7003 167.935C33.6536 167.978 33.597 168 33.5303 168ZM42.1893 166.675L40.9193 164.505H41.4643L42.4393 166.19L43.4293 164.505H43.9693L42.6843 166.675V168H42.1893V166.675ZM46.0627 168.075C45.7927 168.075 45.5543 168.025 45.3477 167.925C45.1443 167.822 44.9843 167.675 44.8677 167.485C44.7543 167.292 44.6977 167.065 44.6977 166.805C44.6977 166.548 44.7543 166.323 44.8677 166.13C44.981 165.937 45.141 165.788 45.3477 165.685C45.5543 165.578 45.7927 165.525 46.0627 165.525C46.3327 165.525 46.571 165.578 46.7777 165.685C46.9843 165.788 47.1443 165.937 47.2577 166.13C47.3743 166.323 47.4327 166.548 47.4327 166.805C47.4327 167.065 47.3743 167.292 47.2577 167.485C47.1443 167.675 46.9843 167.822 46.7777 167.925C46.571 168.025 46.3327 168.075 46.0627 168.075ZM46.0627 167.675C46.3227 167.675 46.5293 167.595 46.6827 167.435C46.836 167.275 46.9127 167.065 46.9127 166.805C46.9127 166.535 46.836 166.322 46.6827 166.165C46.5293 166.008 46.3227 165.93 46.0627 165.93C45.8027 165.93 45.596 166.008 45.4427 166.165C45.2893 166.322 45.2127 166.535 45.2127 166.805C45.2127 167.065 45.2893 167.275 45.4427 167.435C45.596 167.595 45.8027 167.675 46.0627 167.675ZM49.9363 168.075C49.6129 168.075 49.3679 167.988 49.2013 167.815C49.0379 167.642 48.9563 167.41 48.9563 167.12V165.6H49.4613V167.1C49.4613 167.483 49.6529 167.675 50.0363 167.675C50.3729 167.675 50.6363 167.523 50.8263 167.22V165.6H51.3313V168H50.8413V167.66C50.7279 167.803 50.5929 167.908 50.4363 167.975C50.2829 168.042 50.1163 168.075 49.9363 168.075ZM56.7149 168.075C56.5482 168.075 56.3715 168.053 56.1849 168.01C55.9982 167.97 55.8515 167.915 55.7449 167.845V167.415C55.8749 167.492 56.0249 167.555 56.1949 167.605C56.3649 167.652 56.5299 167.675 56.6899 167.675C56.8699 167.675 57.0015 167.653 57.0849 167.61C57.1682 167.567 57.2099 167.497 57.2099 167.4C57.2099 167.327 57.1899 167.268 57.1499 167.225C57.1132 167.178 57.0482 167.137 56.9549 167.1C56.8649 167.063 56.7282 167.02 56.5449 166.97C56.3482 166.913 56.1915 166.857 56.0749 166.8C55.9615 166.74 55.8749 166.665 55.8149 166.575C55.7582 166.485 55.7299 166.368 55.7299 166.225C55.7299 165.995 55.8199 165.822 55.9999 165.705C56.1832 165.585 56.4282 165.525 56.7349 165.525C56.8949 165.525 57.0515 165.54 57.2049 165.57C57.3582 165.6 57.4815 165.642 57.5749 165.695V166.115C57.4782 166.058 57.3582 166.013 57.2149 165.98C57.0749 165.947 56.9315 165.93 56.7849 165.93C56.6082 165.93 56.4732 165.952 56.3799 165.995C56.2865 166.038 56.2399 166.115 56.2399 166.225C56.2399 166.295 56.2599 166.352 56.2999 166.395C56.3399 166.438 56.4032 166.477 56.4899 166.51C56.5799 166.54 56.7215 166.58 56.9149 166.63C57.2182 166.713 57.4282 166.812 57.5449 166.925C57.6649 167.038 57.7249 167.195 57.7249 167.395C57.7249 167.602 57.6399 167.767 57.4699 167.89C57.2999 168.013 57.0482 168.075 56.7149 168.075ZM60.1279 168.075C59.8846 168.075 59.6963 168.005 59.5629 167.865C59.4329 167.725 59.3679 167.527 59.3679 167.27V165.99H59.0029V165.6H59.3679V164.88H59.8779V165.6H60.4679V165.99H59.8779V167.235C59.8779 167.395 59.9079 167.508 59.9679 167.575C60.0313 167.642 60.1446 167.675 60.3079 167.675C60.4046 167.675 60.5013 167.653 60.5979 167.61V168.01C60.4713 168.053 60.3146 168.075 60.1279 168.075ZM62.368 165.13C62.2847 165.13 62.2147 165.102 62.158 165.045C62.1014 164.988 62.073 164.918 62.073 164.835C62.073 164.752 62.1014 164.682 62.158 164.625C62.2147 164.568 62.2847 164.54 62.368 164.54C62.4547 164.54 62.5264 164.568 62.583 164.625C62.643 164.682 62.673 164.752 62.673 164.835C62.673 164.918 62.643 164.988 62.583 165.045C62.5264 165.102 62.4547 165.13 62.368 165.13ZM62.113 165.6H62.628V168H62.113V165.6ZM64.323 164.305H64.828V168H64.323V164.305ZM66.4803 164.305H66.9853V168H66.4803V164.305ZM71.4881 164.305H71.9931V165.93C72.2231 165.66 72.5298 165.525 72.9131 165.525C73.2331 165.525 73.4714 165.61 73.6281 165.78C73.7848 165.95 73.8631 166.178 73.8631 166.465V168H73.3581V166.515C73.3581 166.125 73.1714 165.93 72.7981 165.93C72.6381 165.93 72.4881 165.968 72.3481 166.045C72.2114 166.118 72.0931 166.232 71.9931 166.385V168H71.4881V164.305ZM76.2729 168.075C75.9829 168.075 75.7496 168.002 75.5729 167.855C75.3996 167.705 75.3129 167.503 75.3129 167.25C75.3129 166.983 75.3962 166.778 75.5629 166.635C75.7329 166.488 75.9729 166.415 76.2829 166.415C76.6129 166.415 76.8929 166.482 77.1229 166.615V166.49C77.1229 166.3 77.0646 166.16 76.9479 166.07C76.8346 165.977 76.6546 165.93 76.4079 165.93C76.2612 165.93 76.1179 165.945 75.9779 165.975C75.8412 166.002 75.7179 166.04 75.6079 166.09V165.68C75.7079 165.633 75.8379 165.597 75.9979 165.57C76.1579 165.54 76.3129 165.525 76.4629 165.525C76.8596 165.525 77.1529 165.613 77.3429 165.79C77.5362 165.963 77.6329 166.205 77.6329 166.515V168H77.1579V167.73C77.0546 167.843 76.9312 167.93 76.7879 167.99C76.6479 168.047 76.4762 168.075 76.2729 168.075ZM76.3979 167.69C76.5579 167.69 76.7029 167.658 76.8329 167.595C76.9629 167.532 77.0596 167.443 77.1229 167.33V167.005C76.9062 166.865 76.6646 166.795 76.3979 166.795C76.2046 166.795 76.0596 166.833 75.9629 166.91C75.8696 166.983 75.8229 167.097 75.8229 167.25C75.8229 167.543 76.0146 167.69 76.3979 167.69ZM78.935 165.6H79.47L80.175 167.325L80.88 165.6H81.415L80.395 168H79.955L78.935 165.6ZM84.0845 168.075C83.6411 168.075 83.2928 167.965 83.0395 167.745C82.7895 167.522 82.6645 167.208 82.6645 166.805C82.6645 166.412 82.7761 166.1 82.9995 165.87C83.2261 165.64 83.5478 165.525 83.9645 165.525C84.2411 165.525 84.4761 165.578 84.6695 165.685C84.8628 165.788 85.0078 165.933 85.1045 166.12C85.2045 166.303 85.2545 166.513 85.2545 166.75V167H83.1445C83.1611 167.227 83.2561 167.397 83.4295 167.51C83.6061 167.62 83.8445 167.675 84.1445 167.675C84.2978 167.675 84.4528 167.662 84.6095 167.635C84.7661 167.605 84.9045 167.567 85.0245 167.52V167.925C84.9178 167.968 84.7761 168.003 84.5995 168.03C84.4261 168.06 84.2545 168.075 84.0845 168.075ZM84.7795 166.645C84.7728 166.418 84.6978 166.243 84.5545 166.12C84.4145 165.993 84.2145 165.93 83.9545 165.93C83.7011 165.93 83.5045 165.995 83.3645 166.125C83.2245 166.255 83.1511 166.428 83.1445 166.645H84.7795ZM90.582 168.075C90.3387 168.075 90.1504 168.005 90.017 167.865C89.887 167.725 89.822 167.527 89.822 167.27V165.99H89.457V165.6H89.822V164.88H90.332V165.6H90.922V165.99H90.332V167.235C90.332 167.395 90.362 167.508 90.422 167.575C90.4854 167.642 90.5987 167.675 90.762 167.675C90.8587 167.675 90.9554 167.653 91.052 167.61V168.01C90.9254 168.053 90.7687 168.075 90.582 168.075ZM93.7677 168.075C93.4977 168.075 93.2594 168.025 93.0527 167.925C92.8494 167.822 92.6894 167.675 92.5727 167.485C92.4594 167.292 92.4027 167.065 92.4027 166.805C92.4027 166.548 92.4594 166.323 92.5727 166.13C92.6861 165.937 92.8461 165.788 93.0527 165.685C93.2594 165.578 93.4977 165.525 93.7677 165.525C94.0377 165.525 94.2761 165.578 94.4827 165.685C94.6894 165.788 94.8494 165.937 94.9627 166.13C95.0794 166.323 95.1377 166.548 95.1377 166.805C95.1377 167.065 95.0794 167.292 94.9627 167.485C94.8494 167.675 94.6894 167.822 94.4827 167.925C94.2761 168.025 94.0377 168.075 93.7677 168.075ZM93.7677 167.675C94.0277 167.675 94.2344 167.595 94.3877 167.435C94.5411 167.275 94.6177 167.065 94.6177 166.805C94.6177 166.535 94.5411 166.322 94.3877 166.165C94.2344 166.008 94.0277 165.93 93.7677 165.93C93.5077 165.93 93.3011 166.008 93.1477 166.165C92.9944 166.322 92.9177 166.535 92.9177 166.805C92.9177 167.065 92.9944 167.275 93.1477 167.435C93.3011 167.595 93.5077 167.675 93.7677 167.675ZM99.5369 165.6H100.027V165.955C100.274 165.668 100.607 165.525 101.027 165.525C101.267 165.525 101.482 165.578 101.672 165.685C101.865 165.792 102.015 165.942 102.122 166.135C102.232 166.325 102.287 166.547 102.287 166.8C102.287 167.05 102.232 167.272 102.122 167.465C102.015 167.658 101.867 167.808 101.677 167.915C101.487 168.022 101.27 168.075 101.027 168.075C100.827 168.075 100.64 168.042 100.467 167.975C100.294 167.908 100.152 167.81 100.042 167.68V169.095H99.5369V165.6ZM100.912 167.675C101.075 167.675 101.222 167.64 101.352 167.57C101.485 167.497 101.589 167.393 101.662 167.26C101.739 167.127 101.777 166.973 101.777 166.8C101.777 166.627 101.739 166.475 101.662 166.345C101.589 166.212 101.485 166.11 101.352 166.04C101.222 165.967 101.075 165.93 100.912 165.93C100.709 165.93 100.529 165.983 100.372 166.09C100.219 166.197 100.109 166.343 100.042 166.53V167.07C100.099 167.253 100.207 167.4 100.367 167.51C100.527 167.62 100.709 167.675 100.912 167.675ZM104.571 168.075C104.281 168.075 104.047 168.002 103.871 167.855C103.697 167.705 103.611 167.503 103.611 167.25C103.611 166.983 103.694 166.778 103.861 166.635C104.031 166.488 104.271 166.415 104.581 166.415C104.911 166.415 105.191 166.482 105.421 166.615V166.49C105.421 166.3 105.362 166.16 105.246 166.07C105.132 165.977 104.952 165.93 104.706 165.93C104.559 165.93 104.416 165.945 104.276 165.975C104.139 166.002 104.016 166.04 103.906 166.09V165.68C104.006 165.633 104.136 165.597 104.296 165.57C104.456 165.54 104.611 165.525 104.761 165.525C105.157 165.525 105.451 165.613 105.641 165.79C105.834 165.963 105.931 166.205 105.931 166.515V168H105.456V167.73C105.352 167.843 105.229 167.93 105.086 167.99C104.946 168.047 104.774 168.075 104.571 168.075ZM104.696 167.69C104.856 167.69 105.001 167.658 105.131 167.595C105.261 167.532 105.357 167.443 105.421 167.33V167.005C105.204 166.865 104.962 166.795 104.696 166.795C104.502 166.795 104.357 166.833 104.261 166.91C104.167 166.983 104.121 167.097 104.121 167.25C104.121 167.543 104.312 167.69 104.696 167.69ZM107.843 168.99C107.663 168.99 107.513 168.972 107.393 168.935V168.54C107.479 168.573 107.586 168.59 107.713 168.59C107.829 168.59 107.921 168.56 107.988 168.5C108.054 168.443 108.114 168.35 108.168 168.22L108.283 167.94L107.233 165.6H107.753L108.553 167.445L109.298 165.6H109.818L108.738 168.27C108.638 168.52 108.518 168.702 108.378 168.815C108.241 168.932 108.063 168.99 107.843 168.99ZM115.043 168.075C114.8 168.075 114.611 168.005 114.478 167.865C114.348 167.725 114.283 167.527 114.283 167.27V165.99H113.918V165.6H114.283V164.88H114.793V165.6H115.383V165.99H114.793V167.235C114.793 167.395 114.823 167.508 114.883 167.575C114.946 167.642 115.06 167.675 115.223 167.675C115.32 167.675 115.416 167.653 115.513 167.61V168.01C115.386 168.053 115.23 168.075 115.043 168.075ZM116.988 164.305H117.493V165.93C117.723 165.66 118.03 165.525 118.413 165.525C118.733 165.525 118.971 165.61 119.128 165.78C119.285 165.95 119.363 166.178 119.363 166.465V168H118.858V166.515C118.858 166.125 118.671 165.93 118.298 165.93C118.138 165.93 117.988 165.968 117.848 166.045C117.711 166.118 117.593 166.232 117.493 166.385V168H116.988V164.305ZM122.306 168.075C121.863 168.075 121.514 167.965 121.261 167.745C121.011 167.522 120.886 167.208 120.886 166.805C120.886 166.412 120.998 166.1 121.221 165.87C121.448 165.64 121.769 165.525 122.186 165.525C122.463 165.525 122.698 165.578 122.891 165.685C123.084 165.788 123.229 165.933 123.326 166.12C123.426 166.303 123.476 166.513 123.476 166.75V167H121.366C121.383 167.227 121.478 167.397 121.651 167.51C121.828 167.62 122.066 167.675 122.366 167.675C122.519 167.675 122.674 167.662 122.831 167.635C122.988 167.605 123.126 167.567 123.246 167.52V167.925C123.139 167.968 122.998 168.003 122.821 168.03C122.648 168.06 122.476 168.075 122.306 168.075ZM123.001 166.645C122.994 166.418 122.919 166.243 122.776 166.12C122.636 165.993 122.436 165.93 122.176 165.93C121.923 165.93 121.726 165.995 121.586 166.125C121.446 166.255 121.373 166.428 121.366 166.645H123.001ZM17.225 173.6H17.74L18.28 175.38L18.815 173.6H19.27L19.805 175.38L20.345 173.6H20.865L20.085 176H19.6L19.045 174.21L18.49 176H18L17.225 173.6ZM23.0034 176.075C22.7134 176.075 22.48 176.002 22.3034 175.855C22.13 175.705 22.0434 175.503 22.0434 175.25C22.0434 174.983 22.1267 174.778 22.2934 174.635C22.4634 174.488 22.7034 174.415 23.0134 174.415C23.3434 174.415 23.6234 174.482 23.8534 174.615V174.49C23.8534 174.3 23.795 174.16 23.6784 174.07C23.565 173.977 23.385 173.93 23.1384 173.93C22.9917 173.93 22.8484 173.945 22.7084 173.975C22.5717 174.002 22.4484 174.04 22.3384 174.09V173.68C22.4384 173.633 22.5684 173.597 22.7284 173.57C22.8884 173.54 23.0434 173.525 23.1934 173.525C23.59 173.525 23.8834 173.613 24.0734 173.79C24.2667 173.963 24.3634 174.205 24.3634 174.515V176H23.8884V175.73C23.785 175.843 23.6617 175.93 23.5184 175.99C23.3784 176.047 23.2067 176.075 23.0034 176.075ZM23.1284 175.69C23.2884 175.69 23.4334 175.658 23.5634 175.595C23.6934 175.532 23.79 175.443 23.8534 175.33V175.005C23.6367 174.865 23.395 174.795 23.1284 174.795C22.935 174.795 22.79 174.833 22.6934 174.91C22.6 174.983 22.5534 175.097 22.5534 175.25C22.5534 175.543 22.745 175.69 23.1284 175.69ZM26.7881 176.075C26.5448 176.075 26.3564 176.005 26.2231 175.865C26.0931 175.725 26.0281 175.527 26.0281 175.27V173.99H25.6631V173.6H26.0281V172.88H26.5381V173.6H27.1281V173.99H26.5381V175.235C26.5381 175.395 26.5681 175.508 26.6281 175.575C26.6914 175.642 26.8048 175.675 26.9681 175.675C27.0648 175.675 27.1614 175.653 27.2581 175.61V176.01C27.1314 176.053 26.9748 176.075 26.7881 176.075ZM30.0532 176.075C29.6099 176.075 29.2615 175.965 29.0082 175.745C28.7582 175.522 28.6332 175.208 28.6332 174.805C28.6332 174.412 28.7449 174.1 28.9682 173.87C29.1949 173.64 29.5165 173.525 29.9332 173.525C30.2099 173.525 30.4449 173.578 30.6382 173.685C30.8315 173.788 30.9765 173.933 31.0732 174.12C31.1732 174.303 31.2232 174.513 31.2232 174.75V175H29.1132C29.1299 175.227 29.2249 175.397 29.3982 175.51C29.5749 175.62 29.8132 175.675 30.1132 175.675C30.2665 175.675 30.4215 175.662 30.5782 175.635C30.7349 175.605 30.8732 175.567 30.9932 175.52V175.925C30.8865 175.968 30.7449 176.003 30.5682 176.03C30.3949 176.06 30.2232 176.075 30.0532 176.075ZM30.7482 174.645C30.7415 174.418 30.6665 174.243 30.5232 174.12C30.3832 173.993 30.1832 173.93 29.9232 173.93C29.6699 173.93 29.4732 173.995 29.3332 174.125C29.1932 174.255 29.1199 174.428 29.1132 174.645H30.7482ZM32.7752 173.6H33.2652V174.03C33.3652 173.883 33.5052 173.775 33.6852 173.705C33.8685 173.635 34.0802 173.6 34.3202 173.6V173.995C34.0635 173.995 33.8435 174.037 33.6602 174.12C33.4769 174.203 33.3502 174.335 33.2802 174.515V176H32.7752V173.6ZM39.8879 176.075C39.6212 176.075 39.3845 176.025 39.1779 175.925C38.9712 175.825 38.8095 175.68 38.6929 175.49C38.5795 175.297 38.5229 175.068 38.5229 174.805C38.5229 174.542 38.5795 174.315 38.6929 174.125C38.8095 173.932 38.9712 173.783 39.1779 173.68C39.3879 173.577 39.6279 173.525 39.8979 173.525C40.2645 173.525 40.5579 173.597 40.7779 173.74V174.155C40.5612 174.005 40.2845 173.93 39.9479 173.93C39.6745 173.93 39.4529 174.005 39.2829 174.155C39.1162 174.302 39.0329 174.518 39.0329 174.805C39.0329 175.092 39.1162 175.308 39.2829 175.455C39.4495 175.602 39.6679 175.675 39.9379 175.675C40.2745 175.675 40.5645 175.595 40.8079 175.435V175.845C40.6912 175.925 40.5579 175.983 40.4079 176.02C40.2612 176.057 40.0879 176.075 39.8879 176.075ZM43.549 176.075C43.279 176.075 43.0407 176.025 42.834 175.925C42.6307 175.822 42.4707 175.675 42.354 175.485C42.2407 175.292 42.184 175.065 42.184 174.805C42.184 174.548 42.2407 174.323 42.354 174.13C42.4673 173.937 42.6273 173.788 42.834 173.685C43.0407 173.578 43.279 173.525 43.549 173.525C43.819 173.525 44.0573 173.578 44.264 173.685C44.4707 173.788 44.6307 173.937 44.744 174.13C44.8607 174.323 44.919 174.548 44.919 174.805C44.919 175.065 44.8607 175.292 44.744 175.485C44.6307 175.675 44.4707 175.822 44.264 175.925C44.0573 176.025 43.819 176.075 43.549 176.075ZM43.549 175.675C43.809 175.675 44.0157 175.595 44.169 175.435C44.3223 175.275 44.399 175.065 44.399 174.805C44.399 174.535 44.3223 174.322 44.169 174.165C44.0157 174.008 43.809 173.93 43.549 173.93C43.289 173.93 43.0823 174.008 42.929 174.165C42.7757 174.322 42.699 174.535 42.699 174.805C42.699 175.065 42.7757 175.275 42.929 175.435C43.0823 175.595 43.289 175.675 43.549 175.675ZM47.2256 176.075C47.059 176.075 46.8823 176.053 46.6956 176.01C46.509 175.97 46.3623 175.915 46.2556 175.845V175.415C46.3856 175.492 46.5356 175.555 46.7056 175.605C46.8756 175.652 47.0406 175.675 47.2006 175.675C47.3806 175.675 47.5123 175.653 47.5956 175.61C47.679 175.567 47.7206 175.497 47.7206 175.4C47.7206 175.327 47.7006 175.268 47.6606 175.225C47.624 175.178 47.559 175.137 47.4656 175.1C47.3756 175.063 47.239 175.02 47.0556 174.97C46.859 174.913 46.7023 174.857 46.5856 174.8C46.4723 174.74 46.3856 174.665 46.3256 174.575C46.269 174.485 46.2406 174.368 46.2406 174.225C46.2406 173.995 46.3306 173.822 46.5106 173.705C46.694 173.585 46.939 173.525 47.2456 173.525C47.4056 173.525 47.5623 173.54 47.7156 173.57C47.869 173.6 47.9923 173.642 48.0856 173.695V174.115C47.989 174.058 47.869 174.013 47.7256 173.98C47.5856 173.947 47.4423 173.93 47.2956 173.93C47.119 173.93 46.984 173.952 46.8906 173.995C46.7973 174.038 46.7506 174.115 46.7506 174.225C46.7506 174.295 46.7706 174.352 46.8106 174.395C46.8506 174.438 46.914 174.477 47.0006 174.51C47.0906 174.54 47.2323 174.58 47.4256 174.63C47.729 174.713 47.939 174.812 48.0556 174.925C48.1756 175.038 48.2356 175.195 48.2356 175.395C48.2356 175.602 48.1506 175.767 47.9806 175.89C47.8106 176.013 47.559 176.075 47.2256 176.075ZM50.6387 176.075C50.3953 176.075 50.207 176.005 50.0737 175.865C49.9437 175.725 49.8787 175.527 49.8787 175.27V173.99H49.5137V173.6H49.8787V172.88H50.3887V173.6H50.9787V173.99H50.3887V175.235C50.3887 175.395 50.4187 175.508 50.4787 175.575C50.542 175.642 50.6553 175.675 50.8187 175.675C50.9153 175.675 51.012 175.653 51.1087 175.61V176.01C50.982 176.053 50.8253 176.075 50.6387 176.075ZM56.3594 176.075C56.116 176.075 55.9277 176.005 55.7944 175.865C55.6644 175.725 55.5994 175.527 55.5994 175.27V173.99H55.2344V173.6H55.5994V172.88H56.1094V173.6H56.6994V173.99H56.1094V175.235C56.1094 175.395 56.1394 175.508 56.1994 175.575C56.2627 175.642 56.376 175.675 56.5394 175.675C56.636 175.675 56.7327 175.653 56.8294 175.61V176.01C56.7027 176.053 56.546 176.075 56.3594 176.075ZM59.5451 176.075C59.2751 176.075 59.0367 176.025 58.8301 175.925C58.6267 175.822 58.4667 175.675 58.3501 175.485C58.2367 175.292 58.1801 175.065 58.1801 174.805C58.1801 174.548 58.2367 174.323 58.3501 174.13C58.4634 173.937 58.6234 173.788 58.8301 173.685C59.0367 173.578 59.2751 173.525 59.5451 173.525C59.8151 173.525 60.0534 173.578 60.2601 173.685C60.4667 173.788 60.6267 173.937 60.7401 174.13C60.8567 174.323 60.9151 174.548 60.9151 174.805C60.9151 175.065 60.8567 175.292 60.7401 175.485C60.6267 175.675 60.4667 175.822 60.2601 175.925C60.0534 176.025 59.8151 176.075 59.5451 176.075ZM59.5451 175.675C59.8051 175.675 60.0117 175.595 60.1651 175.435C60.3184 175.275 60.3951 175.065 60.3951 174.805C60.3951 174.535 60.3184 174.322 60.1651 174.165C60.0117 174.008 59.8051 173.93 59.5451 173.93C59.2851 173.93 59.0784 174.008 58.9251 174.165C58.7717 174.322 58.6951 174.535 58.6951 174.805C58.6951 175.065 58.7717 175.275 58.9251 175.435C59.0784 175.595 59.2851 175.675 59.5451 175.675ZM65.3143 173.6H65.8043V173.955C66.0509 173.668 66.3843 173.525 66.8043 173.525C67.0443 173.525 67.2593 173.578 67.4493 173.685C67.6426 173.792 67.7926 173.942 67.8993 174.135C68.0093 174.325 68.0643 174.547 68.0643 174.8C68.0643 175.05 68.0093 175.272 67.8993 175.465C67.7926 175.658 67.6443 175.808 67.4543 175.915C67.2643 176.022 67.0476 176.075 66.8043 176.075C66.6043 176.075 66.4176 176.042 66.2443 175.975C66.0709 175.908 65.9293 175.81 65.8193 175.68V177.095H65.3143V173.6ZM66.6893 175.675C66.8526 175.675 66.9993 175.64 67.1293 175.57C67.2626 175.497 67.3659 175.393 67.4393 175.26C67.5159 175.127 67.5543 174.973 67.5543 174.8C67.5543 174.627 67.5159 174.475 67.4393 174.345C67.3659 174.212 67.2626 174.11 67.1293 174.04C66.9993 173.967 66.8526 173.93 66.6893 173.93C66.4859 173.93 66.3059 173.983 66.1493 174.09C65.9959 174.197 65.8859 174.343 65.8193 174.53V175.07C65.8759 175.253 65.9843 175.4 66.1443 175.51C66.3043 175.62 66.4859 175.675 66.6893 175.675ZM69.615 172.305H70.12V176H69.615V172.305ZM72.6323 176.075C72.3423 176.075 72.1089 176.002 71.9323 175.855C71.7589 175.705 71.6723 175.503 71.6723 175.25C71.6723 174.983 71.7556 174.778 71.9223 174.635C72.0923 174.488 72.3323 174.415 72.6423 174.415C72.9723 174.415 73.2523 174.482 73.4823 174.615V174.49C73.4823 174.3 73.4239 174.16 73.3073 174.07C73.1939 173.977 73.0139 173.93 72.7673 173.93C72.6206 173.93 72.4773 173.945 72.3373 173.975C72.2006 174.002 72.0773 174.04 71.9673 174.09V173.68C72.0673 173.633 72.1973 173.597 72.3573 173.57C72.5173 173.54 72.6723 173.525 72.8223 173.525C73.2189 173.525 73.5123 173.613 73.7023 173.79C73.8956 173.963 73.9923 174.205 73.9923 174.515V176H73.5173V175.73C73.4139 175.843 73.2906 175.93 73.1473 175.99C73.0073 176.047 72.8356 176.075 72.6323 176.075ZM72.7573 175.69C72.9173 175.69 73.0623 175.658 73.1923 175.595C73.3223 175.532 73.4189 175.443 73.4823 175.33V175.005C73.2656 174.865 73.0239 174.795 72.7573 174.795C72.5639 174.795 72.4189 174.833 72.3223 174.91C72.2289 174.983 72.1823 175.097 72.1823 175.25C72.1823 175.543 72.3739 175.69 72.7573 175.69ZM75.9043 176.99C75.7243 176.99 75.5743 176.972 75.4543 176.935V176.54C75.541 176.573 75.6477 176.59 75.7743 176.59C75.891 176.59 75.9827 176.56 76.0493 176.5C76.116 176.443 76.176 176.35 76.2293 176.22L76.3443 175.94L75.2943 173.6H75.8143L76.6143 175.445L77.3593 173.6H77.8793L76.7993 176.27C76.6993 176.52 76.5793 176.702 76.4393 176.815C76.3027 176.932 76.1243 176.99 75.9043 176.99ZM82.4745 173.13C82.3912 173.13 82.3212 173.102 82.2645 173.045C82.2078 172.988 82.1795 172.918 82.1795 172.835C82.1795 172.752 82.2078 172.682 82.2645 172.625C82.3212 172.568 82.3912 172.54 82.4745 172.54C82.5612 172.54 82.6328 172.568 82.6895 172.625C82.7495 172.682 82.7795 172.752 82.7795 172.835C82.7795 172.918 82.7495 172.988 82.6895 173.045C82.6328 173.102 82.5612 173.13 82.4745 173.13ZM82.2195 173.6H82.7345V176H82.2195V173.6ZM85.3545 176.075C85.1112 176.075 84.9228 176.005 84.7895 175.865C84.6595 175.725 84.5945 175.527 84.5945 175.27V173.99H84.2295V173.6H84.5945V172.88H85.1045V173.6H85.6945V173.99H85.1045V175.235C85.1045 175.395 85.1345 175.508 85.1945 175.575C85.2578 175.642 85.3712 175.675 85.5345 175.675C85.6312 175.675 85.7278 175.653 85.8245 175.61V176.01C85.6978 176.053 85.5412 176.075 85.3545 176.075ZM87.4346 176C87.3679 176 87.3113 175.978 87.2646 175.935C87.2213 175.888 87.1996 175.832 87.1996 175.765C87.1996 175.698 87.2213 175.642 87.2646 175.595C87.3113 175.548 87.3679 175.525 87.4346 175.525C87.5013 175.525 87.5579 175.548 87.6046 175.595C87.6513 175.642 87.6746 175.698 87.6746 175.765C87.6746 175.832 87.6513 175.888 87.6046 175.935C87.5579 175.978 87.5013 176 87.4346 176ZM95.8086 172.935H94.7236V172.505H97.4086V172.935H96.3236V176H95.8086V172.935ZM98.8582 172.305H99.3632V173.93C99.5932 173.66 99.8999 173.525 100.283 173.525C100.603 173.525 100.842 173.61 100.998 173.78C101.155 173.95 101.233 174.178 101.233 174.465V176H100.728V174.515C100.728 174.125 100.542 173.93 100.168 173.93C100.008 173.93 99.8582 173.968 99.7182 174.045C99.5815 174.118 99.4632 174.232 99.3632 174.385V176H98.8582V172.305ZM104.176 176.075C103.733 176.075 103.385 175.965 103.131 175.745C102.881 175.522 102.756 175.208 102.756 174.805C102.756 174.412 102.868 174.1 103.091 173.87C103.318 173.64 103.64 173.525 104.056 173.525C104.333 173.525 104.568 173.578 104.761 173.685C104.955 173.788 105.1 173.933 105.196 174.12C105.296 174.303 105.346 174.513 105.346 174.75V175H103.236C103.253 175.227 103.348 175.397 103.521 175.51C103.698 175.62 103.936 175.675 104.236 175.675C104.39 175.675 104.545 175.662 104.701 175.635C104.858 175.605 104.996 175.567 105.116 175.52V175.925C105.01 175.968 104.868 176.003 104.691 176.03C104.518 176.06 104.346 176.075 104.176 176.075ZM104.871 174.645C104.865 174.418 104.79 174.243 104.646 174.12C104.506 173.993 104.306 173.93 104.046 173.93C103.793 173.93 103.596 173.995 103.456 174.125C103.316 174.255 103.243 174.428 103.236 174.645H104.871ZM109.649 173.6H110.164L110.704 175.38L111.239 173.6H111.694L112.229 175.38L112.769 173.6H113.289L112.509 176H112.024L111.469 174.21L110.914 176H110.424L109.649 173.6ZM115.778 176.075C115.508 176.075 115.27 176.025 115.063 175.925C114.86 175.822 114.7 175.675 114.583 175.485C114.47 175.292 114.413 175.065 114.413 174.805C114.413 174.548 114.47 174.323 114.583 174.13C114.697 173.937 114.857 173.788 115.063 173.685C115.27 173.578 115.508 173.525 115.778 173.525C116.048 173.525 116.287 173.578 116.493 173.685C116.7 173.788 116.86 173.937 116.973 174.13C117.09 174.323 117.148 174.548 117.148 174.805C117.148 175.065 117.09 175.292 116.973 175.485C116.86 175.675 116.7 175.822 116.493 175.925C116.287 176.025 116.048 176.075 115.778 176.075ZM115.778 175.675C116.038 175.675 116.245 175.595 116.398 175.435C116.552 175.275 116.628 175.065 116.628 174.805C116.628 174.535 116.552 174.322 116.398 174.165C116.245 174.008 116.038 173.93 115.778 173.93C115.518 173.93 115.312 174.008 115.158 174.165C115.005 174.322 114.928 174.535 114.928 174.805C114.928 175.065 115.005 175.275 115.158 175.435C115.312 175.595 115.518 175.675 115.778 175.675ZM118.697 173.6H119.187V174.03C119.287 173.883 119.427 173.775 119.607 173.705C119.79 173.635 120.002 173.6 120.242 173.6V173.995C119.985 173.995 119.765 174.037 119.582 174.12C119.399 174.203 119.272 174.335 119.202 174.515V176H118.697V173.6ZM121.694 173.6H122.174V173.945C122.287 173.805 122.416 173.7 122.559 173.63C122.702 173.56 122.851 173.525 123.004 173.525C123.197 173.525 123.351 173.558 123.464 173.625C123.577 173.688 123.661 173.787 123.714 173.92C123.821 173.79 123.951 173.692 124.104 173.625C124.261 173.558 124.417 173.525 124.574 173.525C124.867 173.525 125.079 173.6 125.209 173.75C125.339 173.897 125.404 174.115 125.404 174.405V176H124.914V174.47C124.914 174.273 124.877 174.135 124.804 174.055C124.731 173.972 124.606 173.93 124.429 173.93C124.176 173.93 123.969 174.04 123.809 174.26C123.816 174.31 123.819 174.392 123.819 174.505V176H123.329V174.47C123.329 174.273 123.296 174.135 123.229 174.055C123.162 173.972 123.042 173.93 122.869 173.93C122.616 173.93 122.389 174.073 122.189 174.36V176H121.694V173.6ZM18.58 185.15C18.4167 185.15 18.2567 185.137 18.1 185.11C17.9467 185.083 17.8167 185.045 17.71 184.995V184.58C17.96 184.693 18.25 184.75 18.58 184.75C18.89 184.75 19.115 184.682 19.255 184.545C19.3983 184.412 19.47 184.208 19.47 183.935V183.68C19.25 183.943 18.9267 184.075 18.5 184.075C18.2567 184.075 18.0383 184.022 17.845 183.915C17.6517 183.808 17.5 183.658 17.39 183.465C17.28 183.272 17.225 183.05 17.225 182.8C17.225 182.547 17.2783 182.325 17.385 182.135C17.495 181.942 17.645 181.792 17.835 181.685C18.0283 181.578 18.245 181.525 18.485 181.525C18.7083 181.525 18.8967 181.558 19.05 181.625C19.2067 181.688 19.3517 181.795 19.485 181.945V181.6H19.975V183.88C19.975 184.29 19.86 184.603 19.63 184.82C19.4033 185.04 19.0533 185.15 18.58 185.15ZM18.6 183.675C18.8067 183.675 18.9883 183.62 19.145 183.51C19.305 183.4 19.4133 183.253 19.47 183.07V182.53C19.4067 182.343 19.2967 182.197 19.14 182.09C18.9867 181.983 18.8067 181.93 18.6 181.93C18.4367 181.93 18.2883 181.967 18.155 182.04C18.025 182.11 17.9217 182.212 17.845 182.345C17.7717 182.478 17.735 182.63 17.735 182.8C17.735 182.973 17.7717 183.127 17.845 183.26C17.9217 183.39 18.025 183.492 18.155 183.565C18.2883 183.638 18.4367 183.675 18.6 183.675ZM22.9458 184.075C22.5024 184.075 22.1541 183.965 21.9008 183.745C21.6508 183.522 21.5258 183.208 21.5258 182.805C21.5258 182.412 21.6374 182.1 21.8608 181.87C22.0874 181.64 22.4091 181.525 22.8258 181.525C23.1024 181.525 23.3374 181.578 23.5308 181.685C23.7241 181.788 23.8691 181.933 23.9658 182.12C24.0658 182.303 24.1158 182.513 24.1158 182.75V183H22.0058C22.0224 183.227 22.1174 183.397 22.2908 183.51C22.4674 183.62 22.7058 183.675 23.0058 183.675C23.1591 183.675 23.3141 183.662 23.4708 183.635C23.6274 183.605 23.7658 183.567 23.8858 183.52V183.925C23.7791 183.968 23.6374 184.003 23.4608 184.03C23.2874 184.06 23.1158 184.075 22.9458 184.075ZM23.6408 182.645C23.6341 182.418 23.5591 182.243 23.4158 182.12C23.2758 181.993 23.0758 181.93 22.8158 181.93C22.5624 181.93 22.3658 181.995 22.2258 182.125C22.0858 182.255 22.0124 182.428 22.0058 182.645H23.6408ZM26.5928 184.075C26.3494 184.075 26.1611 184.005 26.0278 183.865C25.8978 183.725 25.8328 183.527 25.8328 183.27V181.99H25.4678V181.6H25.8328V180.88H26.3428V181.6H26.9328V181.99H26.3428V183.235C26.3428 183.395 26.3728 183.508 26.4328 183.575C26.4961 183.642 26.6094 183.675 26.7728 183.675C26.8694 183.675 26.9661 183.653 27.0628 183.61V184.01C26.9361 184.053 26.7794 184.075 26.5928 184.075ZM29.3252 184.075C29.1586 184.075 28.9819 184.053 28.7952 184.01C28.6086 183.97 28.4619 183.915 28.3552 183.845V183.415C28.4852 183.492 28.6352 183.555 28.8052 183.605C28.9752 183.652 29.1402 183.675 29.3002 183.675C29.4802 183.675 29.6119 183.653 29.6952 183.61C29.7786 183.567 29.8202 183.497 29.8202 183.4C29.8202 183.327 29.8002 183.268 29.7602 183.225C29.7236 183.178 29.6586 183.137 29.5652 183.1C29.4752 183.063 29.3386 183.02 29.1552 182.97C28.9586 182.913 28.8019 182.857 28.6852 182.8C28.5719 182.74 28.4852 182.665 28.4252 182.575C28.3686 182.485 28.3402 182.368 28.3402 182.225C28.3402 181.995 28.4302 181.822 28.6102 181.705C28.7936 181.585 29.0386 181.525 29.3452 181.525C29.5052 181.525 29.6619 181.54 29.8152 181.57C29.9686 181.6 30.0919 181.642 30.1852 181.695V182.115C30.0886 182.058 29.9686 182.013 29.8252 181.98C29.6852 181.947 29.5419 181.93 29.3952 181.93C29.2186 181.93 29.0836 181.952 28.9902 181.995C28.8969 182.038 28.8502 182.115 28.8502 182.225C28.8502 182.295 28.8702 182.352 28.9102 182.395C28.9502 182.438 29.0136 182.477 29.1002 182.51C29.1902 182.54 29.3319 182.58 29.5252 182.63C29.8286 182.713 30.0386 182.812 30.1552 182.925C30.2752 183.038 30.3352 183.195 30.3352 183.395C30.3352 183.602 30.2502 183.767 30.0802 183.89C29.9102 184.013 29.6586 184.075 29.3252 184.075ZM36.0571 184.075C35.6138 184.075 35.2654 183.965 35.0121 183.745C34.7621 183.522 34.6371 183.208 34.6371 182.805C34.6371 182.412 34.7488 182.1 34.9721 181.87C35.1988 181.64 35.5204 181.525 35.9371 181.525C36.2138 181.525 36.4488 181.578 36.6421 181.685C36.8354 181.788 36.9804 181.933 37.0771 182.12C37.1771 182.303 37.2271 182.513 37.2271 182.75V183H35.1171C35.1338 183.227 35.2288 183.397 35.4021 183.51C35.5788 183.62 35.8171 183.675 36.1171 183.675C36.2704 183.675 36.4254 183.662 36.5821 183.635C36.7388 183.605 36.8771 183.567 36.9971 183.52V183.925C36.8904 183.968 36.7488 184.003 36.5721 184.03C36.3988 184.06 36.2271 184.075 36.0571 184.075ZM36.7521 182.645C36.7454 182.418 36.6704 182.243 36.5271 182.12C36.3871 181.993 36.1871 181.93 35.9271 181.93C35.6738 181.93 35.4771 181.995 35.3371 182.125C35.1971 182.255 35.1238 182.428 35.1171 182.645H36.7521ZM39.6391 184.075C39.3491 184.075 39.1158 184.002 38.9391 183.855C38.7658 183.705 38.6791 183.503 38.6791 183.25C38.6791 182.983 38.7624 182.778 38.9291 182.635C39.0991 182.488 39.3391 182.415 39.6491 182.415C39.9791 182.415 40.2591 182.482 40.4891 182.615V182.49C40.4891 182.3 40.4308 182.16 40.3141 182.07C40.2008 181.977 40.0208 181.93 39.7741 181.93C39.6274 181.93 39.4841 181.945 39.3441 181.975C39.2074 182.002 39.0841 182.04 38.9741 182.09V181.68C39.0741 181.633 39.2041 181.597 39.3641 181.57C39.5241 181.54 39.6791 181.525 39.8291 181.525C40.2258 181.525 40.5191 181.613 40.7091 181.79C40.9024 181.963 40.9991 182.205 40.9991 182.515V184H40.5241V183.73C40.4208 183.843 40.2974 183.93 40.1541 183.99C40.0141 184.047 39.8424 184.075 39.6391 184.075ZM39.7641 183.69C39.9241 183.69 40.0691 183.658 40.1991 183.595C40.3291 183.532 40.4258 183.443 40.4891 183.33V183.005C40.2724 182.865 40.0308 182.795 39.7641 182.795C39.5708 182.795 39.4258 182.833 39.3291 182.91C39.2358 182.983 39.1891 183.097 39.1891 183.25C39.1891 183.543 39.3808 183.69 39.7641 183.69ZM43.4238 184.075C43.1805 184.075 42.9922 184.005 42.8588 183.865C42.7288 183.725 42.6638 183.527 42.6638 183.27V181.99H42.2988V181.6H42.6638V180.88H43.1738V181.6H43.7638V181.99H43.1738V183.235C43.1738 183.395 43.2038 183.508 43.2638 183.575C43.3272 183.642 43.4405 183.675 43.6038 183.675C43.7005 183.675 43.7972 183.653 43.8938 183.61V184.01C43.7672 184.053 43.6105 184.075 43.4238 184.075ZM46.6889 184.075C46.2456 184.075 45.8973 183.965 45.6439 183.745C45.3939 183.522 45.2689 183.208 45.2689 182.805C45.2689 182.412 45.3806 182.1 45.6039 181.87C45.8306 181.64 46.1523 181.525 46.5689 181.525C46.8456 181.525 47.0806 181.578 47.2739 181.685C47.4673 181.788 47.6123 181.933 47.7089 182.12C47.8089 182.303 47.8589 182.513 47.8589 182.75V183H45.7489C45.7656 183.227 45.8606 183.397 46.0339 183.51C46.2106 183.62 46.4489 183.675 46.7489 183.675C46.9023 183.675 47.0573 183.662 47.2139 183.635C47.3706 183.605 47.5089 183.567 47.6289 183.52V183.925C47.5223 183.968 47.3806 184.003 47.2039 184.03C47.0306 184.06 46.8589 184.075 46.6889 184.075ZM47.3839 182.645C47.3773 182.418 47.3023 182.243 47.1589 182.12C47.0189 181.993 46.8189 181.93 46.5589 181.93C46.3056 181.93 46.1089 181.995 45.9689 182.125C45.8289 182.255 45.7556 182.428 45.7489 182.645H47.3839ZM49.4109 181.6H49.9009V181.945C50.0143 181.802 50.1526 181.697 50.3159 181.63C50.4826 181.56 50.6559 181.525 50.8359 181.525C51.1559 181.525 51.3943 181.61 51.5509 181.78C51.7076 181.95 51.7859 182.178 51.7859 182.465V184H51.2809V182.515C51.2809 182.125 51.0943 181.93 50.7209 181.93C50.5609 181.93 50.4109 181.968 50.2709 182.045C50.1343 182.118 50.0159 182.232 49.9159 182.385V184H49.4109V181.6ZM53.714 183.735H54.244L53.769 184.74H53.309L53.714 183.735ZM59.9663 184.075C59.523 184.075 59.1746 183.965 58.9213 183.745C58.6713 183.522 58.5463 183.208 58.5463 182.805C58.5463 182.412 58.658 182.1 58.8813 181.87C59.108 181.64 59.4296 181.525 59.8463 181.525C60.123 181.525 60.358 181.578 60.5513 181.685C60.7446 181.788 60.8896 181.933 60.9863 182.12C61.0863 182.303 61.1363 182.513 61.1363 182.75V183H59.0263C59.043 183.227 59.138 183.397 59.3113 183.51C59.488 183.62 59.7263 183.675 60.0263 183.675C60.1796 183.675 60.3346 183.662 60.4913 183.635C60.648 183.605 60.7863 183.567 60.9063 183.52V183.925C60.7996 183.968 60.658 184.003 60.4813 184.03C60.308 184.06 60.1363 184.075 59.9663 184.075ZM60.6613 182.645C60.6546 182.418 60.5796 182.243 60.4363 182.12C60.2963 181.993 60.0963 181.93 59.8363 181.93C59.583 181.93 59.3863 181.995 59.2463 182.125C59.1063 182.255 59.033 182.428 59.0263 182.645H60.6613ZM62.3881 181.6H62.9231L63.6281 183.325L64.3331 181.6H64.8681L63.8481 184H63.4081L62.3881 181.6ZM67.5376 184.075C67.0942 184.075 66.7459 183.965 66.4926 183.745C66.2426 183.522 66.1176 183.208 66.1176 182.805C66.1176 182.412 66.2292 182.1 66.4526 181.87C66.6792 181.64 67.0009 181.525 67.4176 181.525C67.6942 181.525 67.9292 181.578 68.1226 181.685C68.3159 181.788 68.4609 181.933 68.5576 182.12C68.6576 182.303 68.7076 182.513 68.7076 182.75V183H66.5976C66.6142 183.227 66.7092 183.397 66.8826 183.51C67.0592 183.62 67.2976 183.675 67.5976 183.675C67.7509 183.675 67.9059 183.662 68.0626 183.635C68.2192 183.605 68.3576 183.567 68.4776 183.52V183.925C68.3709 183.968 68.2292 184.003 68.0526 184.03C67.8792 184.06 67.7076 184.075 67.5376 184.075ZM68.2326 182.645C68.2259 182.418 68.1509 182.243 68.0076 182.12C67.8676 181.993 67.6676 181.93 67.4076 181.93C67.1542 181.93 66.9576 181.995 66.8176 182.125C66.6776 182.255 66.6042 182.428 66.5976 182.645H68.2326ZM70.2596 181.6H70.7496V181.945C70.8629 181.802 71.0012 181.697 71.1646 181.63C71.3312 181.56 71.5046 181.525 71.6846 181.525C72.0046 181.525 72.2429 181.61 72.3996 181.78C72.5562 181.95 72.6346 182.178 72.6346 182.465V184H72.1296V182.515C72.1296 182.125 71.9429 181.93 71.5696 181.93C71.4096 181.93 71.2596 181.968 71.1196 182.045C70.9829 182.118 70.8646 182.232 70.7646 182.385V184H70.2596V181.6ZM78.0332 184.075C77.7899 184.075 77.6015 184.005 77.4682 183.865C77.3382 183.725 77.2732 183.527 77.2732 183.27V181.99H76.9082V181.6H77.2732V180.88H77.7832V181.6H78.3732V181.99H77.7832V183.235C77.7832 183.395 77.8132 183.508 77.8732 183.575C77.9365 183.642 78.0499 183.675 78.2132 183.675C78.3099 183.675 78.4065 183.653 78.5032 183.61V184.01C78.3765 184.053 78.2199 184.075 78.0332 184.075ZM79.9783 180.305H80.4833V181.93C80.7133 181.66 81.02 181.525 81.4033 181.525C81.7233 181.525 81.9617 181.61 82.1183 181.78C82.275 181.95 82.3533 182.178 82.3533 182.465V184H81.8483V182.515C81.8483 182.125 81.6617 181.93 81.2883 181.93C81.1283 181.93 80.9783 181.968 80.8383 182.045C80.7017 182.118 80.5833 182.232 80.4833 182.385V184H79.9783V180.305ZM85.1681 184.075C84.8981 184.075 84.6598 184.025 84.4531 183.925C84.2498 183.822 84.0898 183.675 83.9731 183.485C83.8598 183.292 83.8031 183.065 83.8031 182.805C83.8031 182.548 83.8598 182.323 83.9731 182.13C84.0865 181.937 84.2465 181.788 84.4531 181.685C84.6598 181.578 84.8981 181.525 85.1681 181.525C85.4381 181.525 85.6765 181.578 85.8831 181.685C86.0898 181.788 86.2498 181.937 86.3631 182.13C86.4798 182.323 86.5381 182.548 86.5381 182.805C86.5381 183.065 86.4798 183.292 86.3631 183.485C86.2498 183.675 86.0898 183.822 85.8831 183.925C85.6765 184.025 85.4381 184.075 85.1681 184.075ZM85.1681 183.675C85.4281 183.675 85.6348 183.595 85.7881 183.435C85.9415 183.275 86.0181 183.065 86.0181 182.805C86.0181 182.535 85.9415 182.322 85.7881 182.165C85.6348 182.008 85.4281 181.93 85.1681 181.93C84.9081 181.93 84.7015 182.008 84.5481 182.165C84.3948 182.322 84.3181 182.535 84.3181 182.805C84.3181 183.065 84.3948 183.275 84.5481 183.435C84.7015 183.595 84.9081 183.675 85.1681 183.675ZM89.0417 184.075C88.7184 184.075 88.4734 183.988 88.3067 183.815C88.1434 183.642 88.0617 183.41 88.0617 183.12V181.6H88.5667V183.1C88.5667 183.483 88.7584 183.675 89.1417 183.675C89.4784 183.675 89.7417 183.523 89.9317 183.22V181.6H90.4367V184H89.9467V183.66C89.8334 183.803 89.6984 183.908 89.5417 183.975C89.3884 184.042 89.2217 184.075 89.0417 184.075ZM93.3398 185.15C93.1764 185.15 93.0164 185.137 92.8598 185.11C92.7064 185.083 92.5764 185.045 92.4698 184.995V184.58C92.7198 184.693 93.0098 184.75 93.3398 184.75C93.6498 184.75 93.8748 184.682 94.0148 184.545C94.1581 184.412 94.2298 184.208 94.2298 183.935V183.68C94.0098 183.943 93.6864 184.075 93.2598 184.075C93.0164 184.075 92.7981 184.022 92.6048 183.915C92.4114 183.808 92.2598 183.658 92.1498 183.465C92.0398 183.272 91.9848 183.05 91.9848 182.8C91.9848 182.547 92.0381 182.325 92.1448 182.135C92.2548 181.942 92.4048 181.792 92.5948 181.685C92.7881 181.578 93.0048 181.525 93.2448 181.525C93.4681 181.525 93.6564 181.558 93.8098 181.625C93.9664 181.688 94.1114 181.795 94.2448 181.945V181.6H94.7348V183.88C94.7348 184.29 94.6198 184.603 94.3898 184.82C94.1631 185.04 93.8131 185.15 93.3398 185.15ZM93.3598 183.675C93.5664 183.675 93.7481 183.62 93.9048 183.51C94.0648 183.4 94.1731 183.253 94.2298 183.07V182.53C94.1664 182.343 94.0564 182.197 93.8998 182.09C93.7464 181.983 93.5664 181.93 93.3598 181.93C93.1964 181.93 93.0481 181.967 92.9148 182.04C92.7848 182.11 92.6814 182.212 92.6048 182.345C92.5314 182.478 92.4948 182.63 92.4948 182.8C92.4948 182.973 92.5314 183.127 92.6048 183.26C92.6814 183.39 92.7848 183.492 92.9148 183.565C93.0481 183.638 93.1964 183.675 93.3598 183.675ZM96.3855 180.305H96.8905V181.93C97.1205 181.66 97.4272 181.525 97.8105 181.525C98.1305 181.525 98.3689 181.61 98.5255 181.78C98.6822 181.95 98.7605 182.178 98.7605 182.465V184H98.2555V182.515C98.2555 182.125 98.0689 181.93 97.6955 181.93C97.5355 181.93 97.3855 181.968 97.2455 182.045C97.1089 182.118 96.9905 182.232 96.8905 182.385V184H96.3855V180.305ZM103.529 181.13C103.446 181.13 103.376 181.102 103.319 181.045C103.263 180.988 103.234 180.918 103.234 180.835C103.234 180.752 103.263 180.682 103.319 180.625C103.376 180.568 103.446 180.54 103.529 180.54C103.616 180.54 103.688 180.568 103.744 180.625C103.804 180.682 103.834 180.752 103.834 180.835C103.834 180.918 103.804 180.988 103.744 181.045C103.688 181.102 103.616 181.13 103.529 181.13ZM103.274 181.6H103.789V184H103.274V181.6ZM106.409 184.075C106.166 184.075 105.978 184.005 105.844 183.865C105.714 183.725 105.649 183.527 105.649 183.27V181.99H105.284V181.6H105.649V180.88H106.159V181.6H106.749V181.99H106.159V183.235C106.159 183.395 106.189 183.508 106.249 183.575C106.313 183.642 106.426 183.675 106.589 183.675C106.686 183.675 106.783 183.653 106.879 183.61V184.01C106.753 184.053 106.596 184.075 106.409 184.075ZM108.457 180.43H108.957L108.562 181.405H108.127L108.457 180.43ZM111.216 184.075C111.049 184.075 110.873 184.053 110.686 184.01C110.499 183.97 110.353 183.915 110.246 183.845V183.415C110.376 183.492 110.526 183.555 110.696 183.605C110.866 183.652 111.031 183.675 111.191 183.675C111.371 183.675 111.503 183.653 111.586 183.61C111.669 183.567 111.711 183.497 111.711 183.4C111.711 183.327 111.691 183.268 111.651 183.225C111.614 183.178 111.549 183.137 111.456 183.1C111.366 183.063 111.229 183.02 111.046 182.97C110.849 182.913 110.693 182.857 110.576 182.8C110.463 182.74 110.376 182.665 110.316 182.575C110.259 182.485 110.231 182.368 110.231 182.225C110.231 181.995 110.321 181.822 110.501 181.705C110.684 181.585 110.929 181.525 111.236 181.525C111.396 181.525 111.553 181.54 111.706 181.57C111.859 181.6 111.983 181.642 112.076 181.695V182.115C111.979 182.058 111.859 182.013 111.716 181.98C111.576 181.947 111.433 181.93 111.286 181.93C111.109 181.93 110.974 181.952 110.881 181.995C110.788 182.038 110.741 182.115 110.741 182.225C110.741 182.295 110.761 182.352 110.801 182.395C110.841 182.438 110.904 182.477 110.991 182.51C111.081 182.54 111.223 182.58 111.416 182.63C111.719 182.713 111.929 182.812 112.046 182.925C112.166 183.038 112.226 183.195 112.226 183.395C112.226 183.602 112.141 183.767 111.971 183.89C111.801 184.013 111.549 184.075 111.216 184.075ZM116.793 181.99H116.428V181.6H116.793V181.13C116.793 180.853 116.871 180.643 117.028 180.5C117.184 180.353 117.394 180.28 117.658 180.28C117.794 180.28 117.923 180.3 118.043 180.34V180.76C117.949 180.717 117.853 180.695 117.753 180.695C117.596 180.695 117.481 180.733 117.408 180.81C117.334 180.883 117.298 181 117.298 181.16V181.6H117.898V181.99H117.298V184H116.793V181.99ZM119.923 184.075C119.633 184.075 119.4 184.002 119.223 183.855C119.05 183.705 118.963 183.503 118.963 183.25C118.963 182.983 119.047 182.778 119.213 182.635C119.383 182.488 119.623 182.415 119.933 182.415C120.263 182.415 120.543 182.482 120.773 182.615V182.49C120.773 182.3 120.715 182.16 120.598 182.07C120.485 181.977 120.305 181.93 120.058 181.93C119.912 181.93 119.768 181.945 119.628 181.975C119.492 182.002 119.368 182.04 119.258 182.09V181.68C119.358 181.633 119.488 181.597 119.648 181.57C119.808 181.54 119.963 181.525 120.113 181.525C120.51 181.525 120.803 181.613 120.993 181.79C121.187 181.963 121.283 182.205 121.283 182.515V184H120.808V183.73C120.705 183.843 120.582 183.93 120.438 183.99C120.298 184.047 120.127 184.075 119.923 184.075ZM120.048 183.69C120.208 183.69 120.353 183.658 120.483 183.595C120.613 183.532 120.71 183.443 120.773 183.33V183.005C120.557 182.865 120.315 182.795 120.048 182.795C119.855 182.795 119.71 182.833 119.613 182.91C119.52 182.983 119.473 183.097 119.473 183.25C119.473 183.543 119.665 183.69 120.048 183.69ZM122.91 180.305H123.415V184H122.91V180.305ZM123.42 182.785L124.525 181.6H125.14L124.03 182.785L125.255 184H124.64L123.42 182.785ZM128.077 184.075C127.633 184.075 127.285 183.965 127.032 183.745C126.782 183.522 126.657 183.208 126.657 182.805C126.657 182.412 126.768 182.1 126.992 181.87C127.218 181.64 127.54 181.525 127.957 181.525C128.233 181.525 128.468 181.578 128.662 181.685C128.855 181.788 129 181.933 129.097 182.12C129.197 182.303 129.247 182.513 129.247 182.75V183H127.137C127.153 183.227 127.248 183.397 127.422 183.51C127.598 183.62 127.837 183.675 128.137 183.675C128.29 183.675 128.445 183.662 128.602 183.635C128.758 183.605 128.897 183.567 129.017 183.52V183.925C128.91 183.968 128.768 184.003 128.592 184.03C128.418 184.06 128.247 184.075 128.077 184.075ZM128.772 182.645C128.765 182.418 128.69 182.243 128.547 182.12C128.407 181.993 128.207 181.93 127.947 181.93C127.693 181.93 127.497 181.995 127.357 182.125C127.217 182.255 127.143 182.428 127.137 182.645H128.772ZM130.934 184C130.867 184 130.81 183.978 130.764 183.935C130.72 183.888 130.699 183.832 130.699 183.765C130.699 183.698 130.72 183.642 130.764 183.595C130.81 183.548 130.867 183.525 130.934 183.525C131 183.525 131.057 183.548 131.104 183.595C131.15 183.642 131.174 183.698 131.174 183.765C131.174 183.832 131.15 183.888 131.104 183.935C131.057 183.978 131 184 130.934 184Z" fill="black"/>
<rect x="12.25" y="143.25" width="125.5" height="46.5" stroke="#6C6C6C" stroke-width="0.5"/>
<path d="M13.47 28.97H12.375V27.8H13.47V26.39C13.47 25.56 13.705 24.93 14.175 24.5C14.645 24.06 15.275 23.84 16.065 23.84C16.475 23.84 16.86 23.9 17.22 24.02V25.28C16.94 25.15 16.65 25.085 16.35 25.085C15.88 25.085 15.535 25.2 15.315 25.43C15.095 25.65 14.985 26 14.985 26.48V27.8H16.785V28.97H14.985V35H13.47V28.97ZM22.8616 35.225C21.9916 35.225 21.2916 35.005 20.7616 34.565C20.2416 34.115 19.9816 33.51 19.9816 32.75C19.9816 31.95 20.2316 31.335 20.7316 30.905C21.2416 30.465 21.9616 30.245 22.8916 30.245C23.8816 30.245 24.7216 30.445 25.4116 30.845V30.47C25.4116 29.9 25.2366 29.48 24.8866 29.21C24.5466 28.93 24.0066 28.79 23.2666 28.79C22.8266 28.79 22.3966 28.835 21.9766 28.925C21.5666 29.005 21.1966 29.12 20.8666 29.27V28.04C21.1666 27.9 21.5566 27.79 22.0366 27.71C22.5166 27.62 22.9816 27.575 23.4316 27.575C24.6216 27.575 25.5016 27.84 26.0716 28.37C26.6516 28.89 26.9416 29.615 26.9416 30.545V35H25.5166V34.19C25.2066 34.53 24.8366 34.79 24.4066 34.97C23.9866 35.14 23.4716 35.225 22.8616 35.225ZM23.2366 34.07C23.7166 34.07 24.1516 33.975 24.5416 33.785C24.9316 33.595 25.2216 33.33 25.4116 32.99V32.015C24.7616 31.595 24.0366 31.385 23.2366 31.385C22.6566 31.385 22.2216 31.5 21.9316 31.73C21.6516 31.95 21.5116 32.29 21.5116 32.75C21.5116 33.63 22.0866 34.07 23.2366 34.07ZM31.8217 23.915H33.3367V35H31.8217V23.915ZM33.3517 31.355L36.6667 27.8H38.5117L35.1817 31.355L38.8567 35H37.0117L33.3517 31.355ZM47.3217 35.225C45.9917 35.225 44.9467 34.895 44.1867 34.235C43.4367 33.565 43.0617 32.625 43.0617 31.415C43.0617 30.235 43.3967 29.3 44.0667 28.61C44.7467 27.92 45.7117 27.575 46.9617 27.575C47.7917 27.575 48.4967 27.735 49.0767 28.055C49.6567 28.365 50.0917 28.8 50.3817 29.36C50.6817 29.91 50.8317 30.54 50.8317 31.25V32H44.5017C44.5517 32.68 44.8367 33.19 45.3567 33.53C45.8867 33.86 46.6017 34.025 47.5017 34.025C47.9617 34.025 48.4267 33.985 48.8967 33.905C49.3667 33.815 49.7817 33.7 50.1417 33.56V34.775C49.8217 34.905 49.3967 35.01 48.8667 35.09C48.3467 35.18 47.8317 35.225 47.3217 35.225ZM49.4067 30.935C49.3867 30.255 49.1617 29.73 48.7317 29.36C48.3117 28.98 47.7117 28.79 46.9317 28.79C46.1717 28.79 45.5817 28.985 45.1617 29.375C44.7417 29.765 44.5217 30.285 44.5017 30.935H49.4067ZM63.7395 27.8H65.2845L66.9045 33.14L68.5095 27.8H69.8745L71.4795 33.14L73.0995 27.8H74.6595L72.3195 35H70.8645L69.1995 29.63L67.5345 35H66.0645L63.7395 27.8ZM82.1284 35.225C81.3184 35.225 80.6034 35.075 79.9834 34.775C79.3734 34.465 78.8934 34.025 78.5434 33.455C78.2034 32.875 78.0334 32.195 78.0334 31.415C78.0334 30.645 78.2034 29.97 78.5434 29.39C78.8834 28.81 79.3634 28.365 79.9834 28.055C80.6034 27.735 81.3184 27.575 82.1284 27.575C82.9384 27.575 83.6534 27.735 84.2734 28.055C84.8934 28.365 85.3734 28.81 85.7134 29.39C86.0634 29.97 86.2384 30.645 86.2384 31.415C86.2384 32.195 86.0634 32.875 85.7134 33.455C85.3734 34.025 84.8934 34.465 84.2734 34.775C83.6534 35.075 82.9384 35.225 82.1284 35.225ZM82.1284 34.025C82.9084 34.025 83.5284 33.785 83.9884 33.305C84.4484 32.825 84.6784 32.195 84.6784 31.415C84.6784 30.605 84.4484 29.965 83.9884 29.495C83.5284 29.025 82.9084 28.79 82.1284 28.79C81.3484 28.79 80.7284 29.025 80.2684 29.495C79.8084 29.965 79.5784 30.605 79.5784 31.415C79.5784 32.195 79.8084 32.825 80.2684 33.305C80.7284 33.785 81.3484 34.025 82.1284 34.025ZM90.8842 27.8H92.3542V29.09C92.6542 28.65 93.0742 28.325 93.6142 28.115C94.1642 27.905 94.7992 27.8 95.5192 27.8V28.985C94.7492 28.985 94.0892 29.11 93.5392 29.36C92.9892 29.61 92.6092 30.005 92.3992 30.545V35H90.8842V27.8ZM99.8754 27.8H101.315V28.835C101.655 28.415 102.04 28.1 102.47 27.89C102.9 27.68 103.345 27.575 103.805 27.575C104.385 27.575 104.845 27.675 105.185 27.875C105.525 28.065 105.775 28.36 105.935 28.76C106.255 28.37 106.645 28.075 107.105 27.875C107.575 27.675 108.045 27.575 108.515 27.575C109.395 27.575 110.03 27.8 110.42 28.25C110.81 28.69 111.005 29.345 111.005 30.215V35H109.535V30.41C109.535 29.82 109.425 29.405 109.205 29.165C108.985 28.915 108.61 28.79 108.08 28.79C107.32 28.79 106.7 29.12 106.22 29.78C106.24 29.93 106.25 30.175 106.25 30.515V35H104.78V30.41C104.78 29.82 104.68 29.405 104.48 29.165C104.28 28.915 103.92 28.79 103.4 28.79C102.64 28.79 101.96 29.22 101.36 30.08V35H99.8754V27.8Z" fill="black"/>
<path d="M12.8691 19.0381L17.1807 17.1875V16.4746L12.8691 14.6289V15.5615L16.0283 16.7334L16.3213 16.8262L16.0283 16.9092L12.8691 18.1006V19.0381ZM20.875 19.0381L25.1865 17.1875V16.4746L20.875 14.6289V15.5615L24.0342 16.7334L24.3271 16.8262L24.0342 16.9092L20.875 18.1006V19.0381ZM36.7012 17.3145V17.417C36.7012 17.7946 36.75 18.1478 36.8477 18.4766C36.9453 18.8021 37.0853 19.0853 37.2676 19.3262C37.4466 19.5671 37.6663 19.7559 37.9268 19.8926C38.1872 20.0293 38.4785 20.0977 38.8008 20.0977C38.9928 20.0977 39.1719 20.0765 39.3379 20.0342C39.5039 19.9951 39.6553 19.9382 39.792 19.8633C39.8799 19.8145 39.9613 19.7575 40.0361 19.6924C40.1143 19.6273 40.1875 19.5557 40.2559 19.4775V19.9316C40.2559 20.1595 40.2233 20.3613 40.1582 20.5371C40.0931 20.7129 40.0003 20.8594 39.8799 20.9766C39.7562 21.097 39.6081 21.1882 39.4355 21.25C39.263 21.3118 39.0693 21.3428 38.8545 21.3428C38.734 21.3428 38.6136 21.3298 38.4932 21.3037C38.3727 21.2809 38.2523 21.2419 38.1318 21.1865C38.0114 21.1312 37.8926 21.0563 37.7754 20.9619C37.6582 20.8708 37.5443 20.7585 37.4336 20.625L36.9648 21.167C37.0853 21.3395 37.2285 21.4844 37.3945 21.6016C37.5638 21.7188 37.7396 21.8115 37.9219 21.8799C38.1009 21.9515 38.2783 22.002 38.4541 22.0312C38.6299 22.0638 38.7861 22.0801 38.9229 22.0801C39.2549 22.0801 39.5576 22.0312 39.8311 21.9336C40.1045 21.8359 40.3405 21.6927 40.5391 21.5039C40.7344 21.3151 40.8857 21.0856 40.9932 20.8154C41.1038 20.5452 41.1592 20.236 41.1592 19.8877V14.7168H40.3389L40.2949 15.293C40.2331 15.2148 40.1663 15.1432 40.0947 15.0781C40.0264 15.013 39.9531 14.9561 39.875 14.9072C39.7318 14.8128 39.5706 14.7412 39.3916 14.6924C39.2158 14.6436 39.0221 14.6191 38.8105 14.6191C38.4818 14.6191 38.1872 14.6859 37.9268 14.8193C37.6663 14.9528 37.445 15.1383 37.2627 15.376C37.0804 15.6136 36.9404 15.8984 36.8428 16.2305C36.7484 16.5592 36.7012 16.9206 36.7012 17.3145ZM37.6045 17.417V17.3145C37.6045 17.0573 37.6305 16.8132 37.6826 16.582C37.738 16.3477 37.8242 16.141 37.9414 15.9619C38.0553 15.7861 38.2018 15.6462 38.3809 15.542C38.5632 15.4378 38.7812 15.3857 39.0352 15.3857C39.1849 15.3857 39.3216 15.4053 39.4453 15.4443C39.569 15.4801 39.6813 15.5306 39.7822 15.5957C39.8831 15.6641 39.9727 15.7438 40.0508 15.835C40.1289 15.9261 40.1973 16.027 40.2559 16.1377V18.5596C40.1973 18.6735 40.1289 18.7777 40.0508 18.8721C39.9727 18.9665 39.8848 19.0479 39.7871 19.1162C39.6862 19.1846 39.5723 19.2383 39.4453 19.2773C39.3216 19.3132 39.1816 19.3311 39.0254 19.3311C38.7747 19.3311 38.5599 19.2806 38.3809 19.1797C38.2018 19.0755 38.0553 18.9355 37.9414 18.7598C37.8242 18.584 37.738 18.3805 37.6826 18.1494C37.6305 17.9183 37.6045 17.6742 37.6045 17.417ZM47.207 20.0977C47.7214 20.0977 48.1527 19.9951 48.501 19.79C48.8525 19.5817 49.1162 19.3441 49.292 19.0771L48.7402 18.6475C48.5742 18.8623 48.3659 19.0348 48.1152 19.165C47.8646 19.2952 47.5781 19.3604 47.2559 19.3604C47.0117 19.3604 46.7887 19.3148 46.5869 19.2236C46.3851 19.1325 46.2126 19.0072 46.0693 18.8477C45.9294 18.6979 45.8187 18.5254 45.7373 18.3301C45.6592 18.1348 45.6087 17.9085 45.5859 17.6514V17.6172H49.3604V17.2119C49.3604 16.8441 49.3132 16.5023 49.2188 16.1865C49.1276 15.8708 48.9876 15.5957 48.7988 15.3613C48.61 15.1302 48.3724 14.9495 48.0859 14.8193C47.8027 14.6859 47.4707 14.6191 47.0898 14.6191C46.7871 14.6191 46.4909 14.681 46.2012 14.8047C45.9147 14.9284 45.6592 15.1058 45.4346 15.3369C45.2067 15.5713 45.0244 15.8577 44.8877 16.1963C44.751 16.5316 44.6826 16.9124 44.6826 17.3389V17.5439C44.6826 17.9118 44.7445 18.252 44.8682 18.5645C44.9919 18.877 45.1644 19.1471 45.3857 19.375C45.6071 19.6029 45.8724 19.7803 46.1816 19.9072C46.4941 20.0342 46.8359 20.0977 47.207 20.0977ZM47.0898 15.3613C47.321 15.3613 47.5195 15.4036 47.6855 15.4883C47.8548 15.5729 47.9948 15.6836 48.1055 15.8203C48.2161 15.957 48.3024 16.1198 48.3643 16.3086C48.4261 16.4941 48.457 16.6683 48.457 16.8311V16.875H45.6152C45.651 16.6309 45.7129 16.416 45.8008 16.2305C45.8919 16.0417 46.0026 15.8822 46.1328 15.752C46.263 15.625 46.4095 15.529 46.5723 15.4639C46.735 15.3955 46.9076 15.3613 47.0898 15.3613ZM56.3506 20H57.293V19.9219C57.2344 19.7754 57.1888 19.6045 57.1562 19.4092C57.1237 19.2106 57.1074 19.0234 57.1074 18.8477V16.3916C57.1074 16.0954 57.0537 15.8366 56.9463 15.6152C56.8389 15.3939 56.6924 15.2083 56.5068 15.0586C56.318 14.9121 56.0951 14.8031 55.8379 14.7314C55.5807 14.6566 55.3024 14.6191 55.0029 14.6191C54.6742 14.6191 54.3796 14.6647 54.1191 14.7559C53.862 14.847 53.6439 14.9658 53.4648 15.1123C53.2826 15.262 53.1426 15.4297 53.0449 15.6152C52.9505 15.8008 52.9017 15.9896 52.8984 16.1816H53.8066C53.8066 16.071 53.8327 15.9652 53.8848 15.8643C53.9401 15.7601 54.0166 15.6706 54.1143 15.5957C54.2119 15.5208 54.3307 15.4606 54.4707 15.415C54.6139 15.3695 54.7751 15.3467 54.9541 15.3467C55.1462 15.3467 55.3187 15.3711 55.4717 15.4199C55.6279 15.4688 55.7598 15.5371 55.8672 15.625C55.9746 15.7161 56.0576 15.8252 56.1162 15.9521C56.1748 16.0791 56.2041 16.2223 56.2041 16.3818V16.7969H55.2178C54.8499 16.7969 54.5163 16.8327 54.2168 16.9043C53.9206 16.9759 53.6667 17.0833 53.4551 17.2266C53.2435 17.373 53.0791 17.5553 52.9619 17.7734C52.848 17.9915 52.791 18.2454 52.791 18.5352C52.791 18.7565 52.8333 18.9632 52.918 19.1553C53.0059 19.3441 53.1296 19.5068 53.2891 19.6436C53.4453 19.7835 53.6357 19.8942 53.8604 19.9756C54.0882 20.057 54.3421 20.0977 54.6221 20.0977C54.7946 20.0977 54.9574 20.0798 55.1104 20.0439C55.2633 20.0081 55.4082 19.9593 55.5449 19.8975C55.6784 19.8356 55.8005 19.764 55.9111 19.6826C56.0251 19.6012 56.1276 19.515 56.2188 19.4238C56.2285 19.5345 56.2432 19.6419 56.2627 19.7461C56.2855 19.847 56.3148 19.9316 56.3506 20ZM54.7539 19.3115C54.5781 19.3115 54.4235 19.2887 54.29 19.2432C54.1566 19.1976 54.0459 19.1341 53.958 19.0527C53.8701 18.9746 53.8034 18.8802 53.7578 18.7695C53.7155 18.6589 53.6943 18.5384 53.6943 18.4082C53.6943 18.2715 53.7188 18.1494 53.7676 18.042C53.8197 17.9346 53.8945 17.8418 53.9922 17.7637C54.1289 17.653 54.3128 17.5716 54.5439 17.5195C54.7783 17.4642 55.0518 17.4365 55.3643 17.4365H56.2041V18.5059C56.152 18.61 56.0804 18.7109 55.9893 18.8086C55.8981 18.903 55.7907 18.9876 55.667 19.0625C55.54 19.1374 55.4001 19.1976 55.2471 19.2432C55.0941 19.2887 54.9297 19.3115 54.7539 19.3115ZM64.3467 14.6191C63.9626 14.6191 63.6191 14.7038 63.3164 14.873C63.0169 15.0391 62.7598 15.2669 62.5449 15.5566L62.54 15.4248L62.501 14.7168H61.6416V20H62.5498V16.6113C62.6084 16.4486 62.6816 16.3021 62.7695 16.1719C62.8607 16.0384 62.9665 15.9261 63.0869 15.835C63.2204 15.7308 63.3766 15.6527 63.5557 15.6006C63.7347 15.5452 63.9349 15.5176 64.1562 15.5176C64.3288 15.5176 64.4932 15.5273 64.6494 15.5469C64.8089 15.5632 64.9766 15.5908 65.1523 15.6299L65.2744 14.7461C65.1833 14.707 65.0465 14.6761 64.8643 14.6533C64.6852 14.6305 64.5127 14.6191 64.3467 14.6191Z" fill="#707070"/>
<path d="M45 109.95L48.8818 103.9L56.6455 102.25L68.8455 98.95L71.6182 90.15V76.95L79.3818 66.5L88.2545 62.65L100.455 61L106 64.3V70L102.118 74.2H91.5818L83.8182 80.8V96.2L76.0545 108.85L52.7636 116L45 109.95Z" fill="url(#paint0_linear_95_33)"/>
<path d="M98 69L98.5 65H99V69H98Z" fill="white"/>
<path d="M102 69L101.5 65H101V69H102Z" fill="white"/>
<defs>
<linearGradient id="paint0_linear_95_33" x1="97.6818" y1="76.95" x2="63.0547" y2="114.634" gradientUnits="userSpaceOnUse">
<stop offset="0.0844341" stop-color="#FF6969"/>
<stop offset="0.465872" stop-color="#718F33"/>
<stop offset="1" stop-color="#0068C8"/>
</linearGradient>
</defs>
</svg>
