<svg width="150" height="200" viewBox="0 0 150 200" fill="none" xmlns="http://www.w3.org/2000/svg">
<rect width="150" height="200" fill="white"/>
<path d="M18.295 152.075C18.095 152.075 17.8967 152.057 17.7 152.02C17.5067 151.987 17.3483 151.94 17.225 151.88V151.42C17.545 151.57 17.89 151.645 18.26 151.645C18.78 151.645 19.04 151.47 19.04 151.12C19.04 151 19.0117 150.903 18.955 150.83C18.8983 150.757 18.8167 150.693 18.71 150.64C18.6033 150.583 18.43 150.507 18.19 150.41C17.86 150.277 17.6217 150.13 17.475 149.97C17.3283 149.81 17.255 149.608 17.255 149.365C17.255 149.182 17.305 149.02 17.405 148.88C17.505 148.737 17.645 148.627 17.825 148.55C18.005 148.47 18.2117 148.43 18.445 148.43C18.635 148.43 18.8067 148.445 18.96 148.475C19.1133 148.505 19.2633 148.553 19.41 148.62V149.06C19.12 148.93 18.8267 148.865 18.53 148.865C18.29 148.865 18.1067 148.908 17.98 148.995C17.8533 149.082 17.79 149.205 17.79 149.365C17.79 149.475 17.8167 149.568 17.87 149.645C17.9267 149.718 18.0083 149.785 18.115 149.845C18.225 149.902 18.3867 149.973 18.6 150.06C18.8367 150.157 19.0233 150.248 19.16 150.335C19.2967 150.422 19.4 150.528 19.47 150.655C19.5433 150.778 19.58 150.933 19.58 151.12C19.58 151.423 19.4717 151.658 19.255 151.825C19.0383 151.992 18.7183 152.075 18.295 152.075ZM21.877 152.075C21.6336 152.075 21.4453 152.005 21.312 151.865C21.182 151.725 21.117 151.527 21.117 151.27V149.99H20.752V149.6H21.117V148.88H21.627V149.6H22.217V149.99H21.627V151.235C21.627 151.395 21.657 151.508 21.717 151.575C21.7803 151.642 21.8936 151.675 22.057 151.675C22.1536 151.675 22.2503 151.653 22.347 151.61V152.01C22.2203 152.053 22.0636 152.075 21.877 152.075ZM25.1421 152.075C24.6987 152.075 24.3504 151.965 24.0971 151.745C23.8471 151.522 23.7221 151.208 23.7221 150.805C23.7221 150.412 23.8337 150.1 24.0571 149.87C24.2837 149.64 24.6054 149.525 25.0221 149.525C25.2987 149.525 25.5337 149.578 25.7271 149.685C25.9204 149.788 26.0654 149.933 26.1621 150.12C26.2621 150.303 26.3121 150.513 26.3121 150.75V151H24.2021C24.2187 151.227 24.3137 151.397 24.4871 151.51C24.6637 151.62 24.9021 151.675 25.2021 151.675C25.3554 151.675 25.5104 151.662 25.6671 151.635C25.8237 151.605 25.9621 151.567 26.0821 151.52V151.925C25.9754 151.968 25.8337 152.003 25.6571 152.03C25.4837 152.06 25.3121 152.075 25.1421 152.075ZM25.8371 150.645C25.8304 150.418 25.7554 150.243 25.6121 150.12C25.4721 149.993 25.2721 149.93 25.0121 149.93C24.7587 149.93 24.5621 149.995 24.4221 150.125C24.2821 150.255 24.2087 150.428 24.2021 150.645H25.8371ZM28.7241 152.075C28.4341 152.075 28.2007 152.002 28.0241 151.855C27.8507 151.705 27.7641 151.503 27.7641 151.25C27.7641 150.983 27.8474 150.778 28.0141 150.635C28.1841 150.488 28.4241 150.415 28.7341 150.415C29.0641 150.415 29.3441 150.482 29.5741 150.615V150.49C29.5741 150.3 29.5157 150.16 29.3991 150.07C29.2857 149.977 29.1057 149.93 28.8591 149.93C28.7124 149.93 28.5691 149.945 28.4291 149.975C28.2924 150.002 28.1691 150.04 28.0591 150.09V149.68C28.1591 149.633 28.2891 149.597 28.4491 149.57C28.6091 149.54 28.7641 149.525 28.9141 149.525C29.3107 149.525 29.6041 149.613 29.7941 149.79C29.9874 149.963 30.0841 150.205 30.0841 150.515V152H29.6091V151.73C29.5057 151.843 29.3824 151.93 29.2391 151.99C29.0991 152.047 28.9274 152.075 28.7241 152.075ZM28.8491 151.69C29.0091 151.69 29.1541 151.658 29.2841 151.595C29.4141 151.532 29.5107 151.443 29.5741 151.33V151.005C29.3574 150.865 29.1157 150.795 28.8491 150.795C28.6557 150.795 28.5107 150.833 28.4141 150.91C28.3207 150.983 28.2741 151.097 28.2741 151.25C28.2741 151.543 28.4657 151.69 28.8491 151.69ZM31.7107 148.305H32.2157V152H31.7107V148.305ZM37.5786 152.075C37.2886 152.075 37.0552 152.002 36.8786 151.855C36.7052 151.705 36.6186 151.503 36.6186 151.25C36.6186 150.983 36.7019 150.778 36.8686 150.635C37.0386 150.488 37.2786 150.415 37.5886 150.415C37.9186 150.415 38.1986 150.482 38.4286 150.615V150.49C38.4286 150.3 38.3702 150.16 38.2536 150.07C38.1402 149.977 37.9602 149.93 37.7136 149.93C37.5669 149.93 37.4236 149.945 37.2836 149.975C37.1469 150.002 37.0236 150.04 36.9136 150.09V149.68C37.0136 149.633 37.1436 149.597 37.3036 149.57C37.4636 149.54 37.6186 149.525 37.7686 149.525C38.1652 149.525 38.4586 149.613 38.6486 149.79C38.8419 149.963 38.9386 150.205 38.9386 150.515V152H38.4636V151.73C38.3602 151.843 38.2369 151.93 38.0936 151.99C37.9536 152.047 37.7819 152.075 37.5786 152.075ZM37.7036 151.69C37.8636 151.69 38.0086 151.658 38.1386 151.595C38.2686 151.532 38.3652 151.443 38.4286 151.33V151.005C38.2119 150.865 37.9702 150.795 37.7036 150.795C37.5102 150.795 37.3652 150.833 37.2686 150.91C37.1752 150.983 37.1286 151.097 37.1286 151.25C37.1286 151.543 37.3202 151.69 37.7036 151.69ZM43.4158 149.6H43.9058V150.03C44.0058 149.883 44.1458 149.775 44.3258 149.705C44.5092 149.635 44.7208 149.6 44.9608 149.6V149.995C44.7042 149.995 44.4842 150.037 44.3008 150.12C44.1175 150.203 43.9908 150.335 43.9208 150.515V152H43.4158V149.6ZM47.0483 152.075C46.7583 152.075 46.5249 152.002 46.3483 151.855C46.1749 151.705 46.0883 151.503 46.0883 151.25C46.0883 150.983 46.1716 150.778 46.3383 150.635C46.5083 150.488 46.7483 150.415 47.0583 150.415C47.3883 150.415 47.6683 150.482 47.8983 150.615V150.49C47.8983 150.3 47.8399 150.16 47.7233 150.07C47.6099 149.977 47.4299 149.93 47.1833 149.93C47.0366 149.93 46.8933 149.945 46.7533 149.975C46.6166 150.002 46.4933 150.04 46.3833 150.09V149.68C46.4833 149.633 46.6133 149.597 46.7733 149.57C46.9333 149.54 47.0883 149.525 47.2383 149.525C47.6349 149.525 47.9283 149.613 48.1183 149.79C48.3116 149.963 48.4083 150.205 48.4083 150.515V152H47.9333V151.73C47.8299 151.843 47.7066 151.93 47.5633 151.99C47.4233 152.047 47.2516 152.075 47.0483 152.075ZM47.1733 151.69C47.3333 151.69 47.4783 151.658 47.6083 151.595C47.7383 151.532 47.8349 151.443 47.8983 151.33V151.005C47.6816 150.865 47.4399 150.795 47.1733 150.795C46.9799 150.795 46.8349 150.833 46.7383 150.91C46.6449 150.983 46.5983 151.097 46.5983 151.25C46.5983 151.543 46.7899 151.69 47.1733 151.69ZM50.035 149.6H50.525V149.945C50.6383 149.802 50.7766 149.697 50.94 149.63C51.1066 149.56 51.28 149.525 51.46 149.525C51.78 149.525 52.0183 149.61 52.175 149.78C52.3316 149.95 52.41 150.178 52.41 150.465V152H51.905V150.515C51.905 150.125 51.7183 149.93 51.345 149.93C51.185 149.93 51.035 149.968 50.895 150.045C50.7583 150.118 50.64 150.232 50.54 150.385V152H50.035V149.6ZM55.193 152.075C54.953 152.075 54.7363 152.023 54.543 151.92C54.353 151.813 54.203 151.665 54.093 151.475C53.9863 151.282 53.933 151.058 53.933 150.805C53.933 150.555 53.9863 150.333 54.093 150.14C54.203 149.947 54.353 149.797 54.543 149.69C54.7363 149.58 54.953 149.525 55.193 149.525C55.6263 149.525 55.9547 149.657 56.178 149.92V148.305H56.683V152H56.193V151.65C56.0597 151.797 55.913 151.905 55.753 151.975C55.5963 152.042 55.4097 152.075 55.193 152.075ZM55.308 151.675C55.5147 151.675 55.6947 151.622 55.848 151.515C56.0047 151.405 56.1147 151.258 56.178 151.075V150.535C56.1213 150.352 56.013 150.205 55.853 150.095C55.6963 149.985 55.5147 149.93 55.308 149.93C55.1447 149.93 54.9963 149.967 54.863 150.04C54.733 150.113 54.6297 150.217 54.553 150.35C54.4797 150.483 54.443 150.635 54.443 150.805C54.443 150.975 54.4797 151.127 54.553 151.26C54.6297 151.393 54.733 151.497 54.863 151.57C54.9963 151.64 55.1447 151.675 55.308 151.675ZM59.5255 152.075C59.2555 152.075 59.0172 152.025 58.8105 151.925C58.6072 151.822 58.4472 151.675 58.3305 151.485C58.2172 151.292 58.1605 151.065 58.1605 150.805C58.1605 150.548 58.2172 150.323 58.3305 150.13C58.4439 149.937 58.6039 149.788 58.8105 149.685C59.0172 149.578 59.2555 149.525 59.5255 149.525C59.7955 149.525 60.0339 149.578 60.2405 149.685C60.4472 149.788 60.6072 149.937 60.7205 150.13C60.8372 150.323 60.8955 150.548 60.8955 150.805C60.8955 151.065 60.8372 151.292 60.7205 151.485C60.6072 151.675 60.4472 151.822 60.2405 151.925C60.0339 152.025 59.7955 152.075 59.5255 152.075ZM59.5255 151.675C59.7855 151.675 59.9922 151.595 60.1455 151.435C60.2989 151.275 60.3755 151.065 60.3755 150.805C60.3755 150.535 60.2989 150.322 60.1455 150.165C59.9922 150.008 59.7855 149.93 59.5255 149.93C59.2655 149.93 59.0589 150.008 58.9055 150.165C58.7522 150.322 58.6755 150.535 58.6755 150.805C58.6755 151.065 58.7522 151.275 58.9055 151.435C59.0589 151.595 59.2655 151.675 59.5255 151.675ZM62.4441 149.6H62.9241V149.945C63.0375 149.805 63.1658 149.7 63.3091 149.63C63.4525 149.56 63.6008 149.525 63.7541 149.525C63.9475 149.525 64.1008 149.558 64.2141 149.625C64.3275 149.688 64.4108 149.787 64.4641 149.92C64.5708 149.79 64.7008 149.692 64.8541 149.625C65.0108 149.558 65.1675 149.525 65.3241 149.525C65.6175 149.525 65.8291 149.6 65.9591 149.75C66.0891 149.897 66.1541 150.115 66.1541 150.405V152H65.6641V150.47C65.6641 150.273 65.6275 150.135 65.5541 150.055C65.4808 149.972 65.3558 149.93 65.1791 149.93C64.9258 149.93 64.7191 150.04 64.5591 150.26C64.5658 150.31 64.5691 150.392 64.5691 150.505V152H64.0791V150.47C64.0791 150.273 64.0458 150.135 63.9791 150.055C63.9125 149.972 63.7925 149.93 63.6191 149.93C63.3658 149.93 63.1391 150.073 62.9391 150.36V152H62.4441V149.6ZM71.8957 152.075C71.629 152.075 71.3923 152.025 71.1857 151.925C70.979 151.825 70.8173 151.68 70.7007 151.49C70.5873 151.297 70.5307 151.068 70.5307 150.805C70.5307 150.542 70.5873 150.315 70.7007 150.125C70.8173 149.932 70.979 149.783 71.1857 149.68C71.3957 149.577 71.6357 149.525 71.9057 149.525C72.2723 149.525 72.5657 149.597 72.7857 149.74V150.155C72.569 150.005 72.2923 149.93 71.9557 149.93C71.6823 149.93 71.4607 150.005 71.2907 150.155C71.124 150.302 71.0407 150.518 71.0407 150.805C71.0407 151.092 71.124 151.308 71.2907 151.455C71.4573 151.602 71.6757 151.675 71.9457 151.675C72.2823 151.675 72.5723 151.595 72.8157 151.435V151.845C72.699 151.925 72.5657 151.983 72.4157 152.02C72.269 152.057 72.0957 152.075 71.8957 152.075ZM75.2006 152.075C74.9106 152.075 74.6773 152.002 74.5006 151.855C74.3273 151.705 74.2406 151.503 74.2406 151.25C74.2406 150.983 74.324 150.778 74.4906 150.635C74.6606 150.488 74.9006 150.415 75.2106 150.415C75.5406 150.415 75.8206 150.482 76.0506 150.615V150.49C76.0506 150.3 75.9923 150.16 75.8756 150.07C75.7623 149.977 75.5823 149.93 75.3356 149.93C75.189 149.93 75.0456 149.945 74.9056 149.975C74.769 150.002 74.6456 150.04 74.5356 150.09V149.68C74.6356 149.633 74.7656 149.597 74.9256 149.57C75.0856 149.54 75.2406 149.525 75.3906 149.525C75.7873 149.525 76.0806 149.613 76.2706 149.79C76.464 149.963 76.5606 150.205 76.5606 150.515V152H76.0856V151.73C75.9823 151.843 75.859 151.93 75.7156 151.99C75.5756 152.047 75.404 152.075 75.2006 152.075ZM75.3256 151.69C75.4856 151.69 75.6306 151.658 75.7606 151.595C75.8906 151.532 75.9873 151.443 76.0506 151.33V151.005C75.834 150.865 75.5923 150.795 75.3256 150.795C75.1323 150.795 74.9873 150.833 74.8906 150.91C74.7973 150.983 74.7506 151.097 74.7506 151.25C74.7506 151.543 74.9423 151.69 75.3256 151.69ZM78.1873 149.6H78.6773V150.03C78.7773 149.883 78.9173 149.775 79.0973 149.705C79.2806 149.635 79.4923 149.6 79.7323 149.6V149.995C79.4756 149.995 79.2556 150.037 79.0723 150.12C78.889 150.203 78.7623 150.335 78.6923 150.515V152H78.1873V149.6ZM82.2711 152.075C82.0311 152.075 81.8145 152.023 81.6211 151.92C81.4311 151.813 81.2811 151.665 81.1711 151.475C81.0645 151.282 81.0111 151.058 81.0111 150.805C81.0111 150.555 81.0645 150.333 81.1711 150.14C81.2811 149.947 81.4311 149.797 81.6211 149.69C81.8145 149.58 82.0311 149.525 82.2711 149.525C82.7045 149.525 83.0328 149.657 83.2561 149.92V148.305H83.7611V152H83.2711V151.65C83.1378 151.797 82.9911 151.905 82.8311 151.975C82.6745 152.042 82.4878 152.075 82.2711 152.075ZM82.3861 151.675C82.5928 151.675 82.7728 151.622 82.9261 151.515C83.0828 151.405 83.1928 151.258 83.2561 151.075V150.535C83.1995 150.352 83.0911 150.205 82.9311 150.095C82.7745 149.985 82.5928 149.93 82.3861 149.93C82.2228 149.93 82.0745 149.967 81.9411 150.04C81.8111 150.113 81.7078 150.217 81.6311 150.35C81.5578 150.483 81.5211 150.635 81.5211 150.805C81.5211 150.975 81.5578 151.127 81.6311 151.26C81.7078 151.393 81.8111 151.497 81.9411 151.57C82.0745 151.64 82.2228 151.675 82.3861 151.675ZM88.4275 149.99H88.0625V149.6H88.4275V149.13C88.4275 148.853 88.5058 148.643 88.6625 148.5C88.8192 148.353 89.0292 148.28 89.2925 148.28C89.4292 148.28 89.5575 148.3 89.6775 148.34V148.76C89.5842 148.717 89.4875 148.695 89.3875 148.695C89.2308 148.695 89.1158 148.733 89.0425 148.81C88.9692 148.883 88.9325 149 88.9325 149.16V149.6H89.5325V149.99H88.9325V152H88.4275V149.99ZM91.0008 149.6H91.4908V150.03C91.5908 149.883 91.7308 149.775 91.9108 149.705C92.0941 149.635 92.3058 149.6 92.5458 149.6V149.995C92.2891 149.995 92.0691 150.037 91.8858 150.12C91.7024 150.203 91.5758 150.335 91.5058 150.515V152H91.0008V149.6ZM95.1896 152.075C94.9196 152.075 94.6813 152.025 94.4746 151.925C94.2713 151.822 94.1113 151.675 93.9946 151.485C93.8813 151.292 93.8246 151.065 93.8246 150.805C93.8246 150.548 93.8813 150.323 93.9946 150.13C94.1079 149.937 94.2679 149.788 94.4746 149.685C94.6813 149.578 94.9196 149.525 95.1896 149.525C95.4596 149.525 95.6979 149.578 95.9046 149.685C96.1113 149.788 96.2713 149.937 96.3846 150.13C96.5013 150.323 96.5596 150.548 96.5596 150.805C96.5596 151.065 96.5013 151.292 96.3846 151.485C96.2713 151.675 96.1113 151.822 95.9046 151.925C95.6979 152.025 95.4596 152.075 95.1896 152.075ZM95.1896 151.675C95.4496 151.675 95.6563 151.595 95.8096 151.435C95.9629 151.275 96.0396 151.065 96.0396 150.805C96.0396 150.535 95.9629 150.322 95.8096 150.165C95.6563 150.008 95.4496 149.93 95.1896 149.93C94.9296 149.93 94.7229 150.008 94.5696 150.165C94.4163 150.322 94.3396 150.535 94.3396 150.805C94.3396 151.065 94.4163 151.275 94.5696 151.435C94.7229 151.595 94.9296 151.675 95.1896 151.675ZM98.1082 149.6H98.5882V149.945C98.7015 149.805 98.8299 149.7 98.9732 149.63C99.1165 149.56 99.2649 149.525 99.4182 149.525C99.6115 149.525 99.7649 149.558 99.8782 149.625C99.9915 149.688 100.075 149.787 100.128 149.92C100.235 149.79 100.365 149.692 100.518 149.625C100.675 149.558 100.832 149.525 100.988 149.525C101.282 149.525 101.493 149.6 101.623 149.75C101.753 149.897 101.818 150.115 101.818 150.405V152H101.328V150.47C101.328 150.273 101.292 150.135 101.218 150.055C101.145 149.972 101.02 149.93 100.843 149.93C100.59 149.93 100.383 150.04 100.223 150.26C100.23 150.31 100.233 150.392 100.233 150.505V152H99.7432V150.47C99.7432 150.273 99.7099 150.135 99.6432 150.055C99.5765 149.972 99.4565 149.93 99.2832 149.93C99.0299 149.93 98.8032 150.073 98.6032 150.36V152H98.1082V149.6ZM107.155 152.075C106.865 152.075 106.631 152.002 106.455 151.855C106.281 151.705 106.195 151.503 106.195 151.25C106.195 150.983 106.278 150.778 106.445 150.635C106.615 150.488 106.855 150.415 107.165 150.415C107.495 150.415 107.775 150.482 108.005 150.615V150.49C108.005 150.3 107.946 150.16 107.83 150.07C107.716 149.977 107.536 149.93 107.29 149.93C107.143 149.93 107 149.945 106.86 149.975C106.723 150.002 106.6 150.04 106.49 150.09V149.68C106.59 149.633 106.72 149.597 106.88 149.57C107.04 149.54 107.195 149.525 107.345 149.525C107.741 149.525 108.035 149.613 108.225 149.79C108.418 149.963 108.515 150.205 108.515 150.515V152H108.04V151.73C107.936 151.843 107.813 151.93 107.67 151.99C107.53 152.047 107.358 152.075 107.155 152.075ZM107.28 151.69C107.44 151.69 107.585 151.658 107.715 151.595C107.845 151.532 107.941 151.443 108.005 151.33V151.005C107.788 150.865 107.546 150.795 107.28 150.795C107.086 150.795 106.941 150.833 106.845 150.91C106.751 150.983 106.705 151.097 106.705 151.25C106.705 151.543 106.896 151.69 107.28 151.69ZM110.141 149.6H110.631V149.945C110.745 149.802 110.883 149.697 111.046 149.63C111.213 149.56 111.386 149.525 111.566 149.525C111.886 149.525 112.125 149.61 112.281 149.78C112.438 149.95 112.516 150.178 112.516 150.465V152H112.011V150.515C112.011 150.125 111.825 149.93 111.451 149.93C111.291 149.93 111.141 149.968 111.001 150.045C110.865 150.118 110.746 150.232 110.646 150.385V152H110.141V149.6ZM115.331 152.075C115.061 152.075 114.823 152.025 114.616 151.925C114.413 151.822 114.253 151.675 114.136 151.485C114.023 151.292 113.966 151.065 113.966 150.805C113.966 150.548 114.023 150.323 114.136 150.13C114.25 149.937 114.41 149.788 114.616 149.685C114.823 149.578 115.061 149.525 115.331 149.525C115.601 149.525 115.84 149.578 116.046 149.685C116.253 149.788 116.413 149.937 116.526 150.13C116.643 150.323 116.701 150.548 116.701 150.805C116.701 151.065 116.643 151.292 116.526 151.485C116.413 151.675 116.253 151.822 116.046 151.925C115.84 152.025 115.601 152.075 115.331 152.075ZM115.331 151.675C115.591 151.675 115.798 151.595 115.951 151.435C116.105 151.275 116.181 151.065 116.181 150.805C116.181 150.535 116.105 150.322 115.951 150.165C115.798 150.008 115.591 149.93 115.331 149.93C115.071 149.93 114.865 150.008 114.711 150.165C114.558 150.322 114.481 150.535 114.481 150.805C114.481 151.065 114.558 151.275 114.711 151.435C114.865 151.595 115.071 151.675 115.331 151.675ZM119.102 152.075C118.858 152.075 118.67 152.005 118.537 151.865C118.407 151.725 118.342 151.527 118.342 151.27V149.99H117.977V149.6H118.342V148.88H118.852V149.6H119.442V149.99H118.852V151.235C118.852 151.395 118.882 151.508 118.942 151.575C119.005 151.642 119.118 151.675 119.282 151.675C119.378 151.675 119.475 151.653 119.572 151.61V152.01C119.445 152.053 119.288 152.075 119.102 152.075ZM121.047 148.305H121.552V149.93C121.782 149.66 122.088 149.525 122.472 149.525C122.792 149.525 123.03 149.61 123.187 149.78C123.343 149.95 123.422 150.178 123.422 150.465V152H122.917V150.515C122.917 150.125 122.73 149.93 122.357 149.93C122.197 149.93 122.047 149.968 121.907 150.045C121.77 150.118 121.652 150.232 121.552 150.385V152H121.047V148.305ZM126.365 152.075C125.921 152.075 125.573 151.965 125.32 151.745C125.07 151.522 124.945 151.208 124.945 150.805C124.945 150.412 125.056 150.1 125.28 149.87C125.506 149.64 125.828 149.525 126.245 149.525C126.521 149.525 126.756 149.578 126.95 149.685C127.143 149.788 127.288 149.933 127.385 150.12C127.485 150.303 127.535 150.513 127.535 150.75V151H125.425C125.441 151.227 125.536 151.397 125.71 151.51C125.886 151.62 126.125 151.675 126.425 151.675C126.578 151.675 126.733 151.662 126.89 151.635C127.046 151.605 127.185 151.567 127.305 151.52V151.925C127.198 151.968 127.056 152.003 126.88 152.03C126.706 152.06 126.535 152.075 126.365 152.075ZM127.06 150.645C127.053 150.418 126.978 150.243 126.835 150.12C126.695 149.993 126.495 149.93 126.235 149.93C125.981 149.93 125.785 149.995 125.645 150.125C125.505 150.255 125.431 150.428 125.425 150.645H127.06ZM129.087 149.6H129.577V150.03C129.677 149.883 129.817 149.775 129.997 149.705C130.18 149.635 130.392 149.6 130.632 149.6V149.995C130.375 149.995 130.155 150.037 129.972 150.12C129.788 150.203 129.662 150.335 129.592 150.515V152H129.087V149.6ZM17.325 157.6H17.815V157.955C18.0617 157.668 18.395 157.525 18.815 157.525C19.055 157.525 19.27 157.578 19.46 157.685C19.6533 157.792 19.8033 157.942 19.91 158.135C20.02 158.325 20.075 158.547 20.075 158.8C20.075 159.05 20.02 159.272 19.91 159.465C19.8033 159.658 19.655 159.808 19.465 159.915C19.275 160.022 19.0583 160.075 18.815 160.075C18.615 160.075 18.4283 160.042 18.255 159.975C18.0817 159.908 17.94 159.81 17.83 159.68V161.095H17.325V157.6ZM18.7 159.675C18.8633 159.675 19.01 159.64 19.14 159.57C19.2733 159.497 19.3767 159.393 19.45 159.26C19.5267 159.127 19.565 158.973 19.565 158.8C19.565 158.627 19.5267 158.475 19.45 158.345C19.3767 158.212 19.2733 158.11 19.14 158.04C19.01 157.967 18.8633 157.93 18.7 157.93C18.4967 157.93 18.3167 157.983 18.16 158.09C18.0067 158.197 17.8967 158.343 17.83 158.53V159.07C17.8867 159.253 17.995 159.4 18.155 159.51C18.315 159.62 18.4967 159.675 18.7 159.675ZM21.6258 156.305H22.1308V160H21.6258V156.305ZM24.643 160.075C24.353 160.075 24.1197 160.002 23.943 159.855C23.7697 159.705 23.683 159.503 23.683 159.25C23.683 158.983 23.7663 158.778 23.933 158.635C24.103 158.488 24.343 158.415 24.653 158.415C24.983 158.415 25.263 158.482 25.493 158.615V158.49C25.493 158.3 25.4347 158.16 25.318 158.07C25.2047 157.977 25.0247 157.93 24.778 157.93C24.6313 157.93 24.488 157.945 24.348 157.975C24.2113 158.002 24.088 158.04 23.978 158.09V157.68C24.078 157.633 24.208 157.597 24.368 157.57C24.528 157.54 24.683 157.525 24.833 157.525C25.2297 157.525 25.523 157.613 25.713 157.79C25.9063 157.963 26.003 158.205 26.003 158.515V160H25.528V159.73C25.4247 159.843 25.3013 159.93 25.158 159.99C25.018 160.047 24.8463 160.075 24.643 160.075ZM24.768 159.69C24.928 159.69 25.073 159.658 25.203 159.595C25.333 159.532 25.4297 159.443 25.493 159.33V159.005C25.2763 158.865 25.0347 158.795 24.768 158.795C24.5747 158.795 24.4297 158.833 24.333 158.91C24.2397 158.983 24.193 159.097 24.193 159.25C24.193 159.543 24.3847 159.69 24.768 159.69ZM27.9151 160.99C27.7351 160.99 27.5851 160.972 27.4651 160.935V160.54C27.5517 160.573 27.6584 160.59 27.7851 160.59C27.9017 160.59 27.9934 160.56 28.0601 160.5C28.1267 160.443 28.1867 160.35 28.2401 160.22L28.3551 159.94L27.3051 157.6H27.8251L28.6251 159.445L29.3701 157.6H29.8901L28.8101 160.27C28.7101 160.52 28.5901 160.702 28.4501 160.815C28.3134 160.932 28.1351 160.99 27.9151 160.99ZM32.5083 160.075C32.0649 160.075 31.7166 159.965 31.4633 159.745C31.2133 159.522 31.0883 159.208 31.0883 158.805C31.0883 158.412 31.1999 158.1 31.4233 157.87C31.6499 157.64 31.9716 157.525 32.3883 157.525C32.6649 157.525 32.8999 157.578 33.0933 157.685C33.2866 157.788 33.4316 157.933 33.5283 158.12C33.6283 158.303 33.6783 158.513 33.6783 158.75V159H31.5683C31.5849 159.227 31.6799 159.397 31.8533 159.51C32.0299 159.62 32.2683 159.675 32.5683 159.675C32.7216 159.675 32.8766 159.662 33.0333 159.635C33.1899 159.605 33.3283 159.567 33.4483 159.52V159.925C33.3416 159.968 33.1999 160.003 33.0233 160.03C32.8499 160.06 32.6783 160.075 32.5083 160.075ZM33.2033 158.645C33.1966 158.418 33.1216 158.243 32.9783 158.12C32.8383 157.993 32.6383 157.93 32.3783 157.93C32.1249 157.93 31.9283 157.995 31.7883 158.125C31.6483 158.255 31.5749 158.428 31.5683 158.645H33.2033ZM35.2303 157.6H35.7203V158.03C35.8203 157.883 35.9603 157.775 36.1403 157.705C36.3236 157.635 36.5353 157.6 36.7753 157.6V157.995C36.5186 157.995 36.2986 158.037 36.1153 158.12C35.9319 158.203 35.8053 158.335 35.7353 158.515V160H35.2303V157.6ZM38.3623 160C38.2957 160 38.239 159.978 38.1923 159.935C38.149 159.888 38.1273 159.832 38.1273 159.765C38.1273 159.698 38.149 159.642 38.1923 159.595C38.239 159.548 38.2957 159.525 38.3623 159.525C38.429 159.525 38.4857 159.548 38.5323 159.595C38.579 159.642 38.6023 159.698 38.6023 159.765C38.6023 159.832 38.579 159.888 38.5323 159.935C38.4857 159.978 38.429 160 38.3623 160ZM44.7408 160.075C44.3941 160.075 44.0808 160 43.8008 159.85C43.5208 159.697 43.3008 159.482 43.1408 159.205C42.9808 158.928 42.9008 158.612 42.9008 158.255C42.9008 157.898 42.9808 157.582 43.1408 157.305C43.3008 157.028 43.5208 156.813 43.8008 156.66C44.0808 156.507 44.3941 156.43 44.7408 156.43C45.0874 156.43 45.4008 156.507 45.6808 156.66C45.9608 156.813 46.1808 157.028 46.3408 157.305C46.5008 157.582 46.5808 157.898 46.5808 158.255C46.5808 158.612 46.5008 158.928 46.3408 159.205C46.1808 159.482 45.9608 159.697 45.6808 159.85C45.4008 160 45.0874 160.075 44.7408 160.075ZM44.7408 159.615C44.9874 159.615 45.2108 159.56 45.4108 159.45C45.6141 159.337 45.7741 159.178 45.8908 158.975C46.0074 158.768 46.0658 158.528 46.0658 158.255C46.0658 157.985 46.0074 157.748 45.8908 157.545C45.7774 157.338 45.6208 157.18 45.4208 157.07C45.2208 156.957 44.9974 156.9 44.7508 156.9C44.5008 156.9 44.2741 156.955 44.0708 157.065C43.8708 157.175 43.7108 157.333 43.5908 157.54C43.4741 157.747 43.4158 157.985 43.4158 158.255C43.4158 158.528 43.4741 158.768 43.5908 158.975C43.7074 159.178 43.8658 159.337 44.0658 159.45C44.2691 159.56 44.4941 159.615 44.7408 159.615ZM48.1316 157.6H48.6216V157.945C48.735 157.802 48.8733 157.697 49.0366 157.63C49.2033 157.56 49.3766 157.525 49.5566 157.525C49.8766 157.525 50.115 157.61 50.2716 157.78C50.4283 157.95 50.5066 158.178 50.5066 158.465V160H50.0016V158.515C50.0016 158.125 49.815 157.93 49.4416 157.93C49.2816 157.93 49.1316 157.968 48.9916 158.045C48.855 158.118 48.7366 158.232 48.6366 158.385V160H48.1316V157.6ZM53.4497 160.075C53.0064 160.075 52.658 159.965 52.4047 159.745C52.1547 159.522 52.0297 159.208 52.0297 158.805C52.0297 158.412 52.1414 158.1 52.3647 157.87C52.5914 157.64 52.913 157.525 53.3297 157.525C53.6064 157.525 53.8414 157.578 54.0347 157.685C54.228 157.788 54.373 157.933 54.4697 158.12C54.5697 158.303 54.6197 158.513 54.6197 158.75V159H52.5097C52.5264 159.227 52.6214 159.397 52.7947 159.51C52.9714 159.62 53.2097 159.675 53.5097 159.675C53.663 159.675 53.818 159.662 53.9747 159.635C54.1314 159.605 54.2697 159.567 54.3897 159.52V159.925C54.283 159.968 54.1414 160.003 53.9647 160.03C53.7914 160.06 53.6197 160.075 53.4497 160.075ZM54.1447 158.645C54.138 158.418 54.063 158.243 53.9197 158.12C53.7797 157.993 53.5797 157.93 53.3197 157.93C53.0664 157.93 52.8697 157.995 52.7297 158.125C52.5897 158.255 52.5164 158.428 52.5097 158.645H54.1447ZM59.9473 160.075C59.7039 160.075 59.5156 160.005 59.3823 159.865C59.2523 159.725 59.1873 159.527 59.1873 159.27V157.99H58.8223V157.6H59.1873V156.88H59.6973V157.6H60.2873V157.99H59.6973V159.235C59.6973 159.395 59.7273 159.508 59.7873 159.575C59.8506 159.642 59.9639 159.675 60.1273 159.675C60.2239 159.675 60.3206 159.653 60.4173 159.61V160.01C60.2906 160.053 60.1339 160.075 59.9473 160.075ZM62.1874 157.13C62.104 157.13 62.034 157.102 61.9774 157.045C61.9207 156.988 61.8924 156.918 61.8924 156.835C61.8924 156.752 61.9207 156.682 61.9774 156.625C62.034 156.568 62.104 156.54 62.1874 156.54C62.274 156.54 62.3457 156.568 62.4024 156.625C62.4624 156.682 62.4924 156.752 62.4924 156.835C62.4924 156.918 62.4624 156.988 62.4024 157.045C62.3457 157.102 62.274 157.13 62.1874 157.13ZM61.9324 157.6H62.4474V160H61.9324V157.6ZM64.1424 157.6H64.6224V157.945C64.7357 157.805 64.864 157.7 65.0074 157.63C65.1507 157.56 65.299 157.525 65.4524 157.525C65.6457 157.525 65.799 157.558 65.9124 157.625C66.0257 157.688 66.109 157.787 66.1624 157.92C66.269 157.79 66.399 157.692 66.5524 157.625C66.709 157.558 66.8657 157.525 67.0224 157.525C67.3157 157.525 67.5274 157.6 67.6574 157.75C67.7874 157.897 67.8524 158.115 67.8524 158.405V160H67.3624V158.47C67.3624 158.273 67.3257 158.135 67.2524 158.055C67.179 157.972 67.054 157.93 66.8774 157.93C66.624 157.93 66.4174 158.04 66.2574 158.26C66.264 158.31 66.2674 158.392 66.2674 158.505V160H65.7774V158.47C65.7774 158.273 65.744 158.135 65.6774 158.055C65.6107 157.972 65.4907 157.93 65.3174 157.93C65.064 157.93 64.8374 158.073 64.6374 158.36V160H64.1424V157.6ZM70.7983 160.075C70.355 160.075 70.0067 159.965 69.7533 159.745C69.5033 159.522 69.3783 159.208 69.3783 158.805C69.3783 158.412 69.49 158.1 69.7133 157.87C69.94 157.64 70.2617 157.525 70.6783 157.525C70.955 157.525 71.19 157.578 71.3833 157.685C71.5767 157.788 71.7217 157.933 71.8183 158.12C71.9183 158.303 71.9683 158.513 71.9683 158.75V159H69.8583C69.875 159.227 69.97 159.397 70.1433 159.51C70.32 159.62 70.5583 159.675 70.8583 159.675C71.0117 159.675 71.1667 159.662 71.3233 159.635C71.48 159.605 71.6183 159.567 71.7383 159.52V159.925C71.6317 159.968 71.49 160.003 71.3133 160.03C71.14 160.06 70.9683 160.075 70.7983 160.075ZM71.4933 158.645C71.4867 158.418 71.4117 158.243 71.2683 158.12C71.1283 157.993 70.9283 157.93 70.6683 157.93C70.415 157.93 70.2183 157.995 70.0783 158.125C69.9383 158.255 69.865 158.428 69.8583 158.645H71.4933ZM77.3259 160.075C77.0026 160.075 76.7576 159.988 76.5909 159.815C76.4276 159.642 76.3459 159.41 76.3459 159.12V157.6H76.8509V159.1C76.8509 159.483 77.0426 159.675 77.4259 159.675C77.7626 159.675 78.0259 159.523 78.2159 159.22V157.6H78.7209V160H78.2309V159.66C78.1176 159.803 77.9826 159.908 77.8259 159.975C77.6726 160.042 77.5059 160.075 77.3259 160.075ZM81.2539 160.075C81.0873 160.075 80.9106 160.053 80.7239 160.01C80.5373 159.97 80.3906 159.915 80.2839 159.845V159.415C80.4139 159.492 80.5639 159.555 80.7339 159.605C80.9039 159.652 81.0689 159.675 81.2289 159.675C81.4089 159.675 81.5406 159.653 81.6239 159.61C81.7073 159.567 81.7489 159.497 81.7489 159.4C81.7489 159.327 81.7289 159.268 81.6889 159.225C81.6523 159.178 81.5873 159.137 81.4939 159.1C81.4039 159.063 81.2673 159.02 81.0839 158.97C80.8873 158.913 80.7306 158.857 80.6139 158.8C80.5006 158.74 80.4139 158.665 80.3539 158.575C80.2973 158.485 80.2689 158.368 80.2689 158.225C80.2689 157.995 80.3589 157.822 80.5389 157.705C80.7223 157.585 80.9673 157.525 81.2739 157.525C81.4339 157.525 81.5906 157.54 81.7439 157.57C81.8973 157.6 82.0206 157.642 82.1139 157.695V158.115C82.0173 158.058 81.8973 158.013 81.7539 157.98C81.6139 157.947 81.4706 157.93 81.3239 157.93C81.1473 157.93 81.0123 157.952 80.9189 157.995C80.8256 158.038 80.7789 158.115 80.7789 158.225C80.7789 158.295 80.7989 158.352 80.8389 158.395C80.8789 158.438 80.9423 158.477 81.0289 158.51C81.1189 158.54 81.2606 158.58 81.4539 158.63C81.7573 158.713 81.9673 158.812 82.0839 158.925C82.2039 159.038 82.2639 159.195 82.2639 159.395C82.2639 159.602 82.1789 159.767 82.0089 159.89C81.8389 160.013 81.5873 160.075 81.2539 160.075ZM85.1352 160.075C84.6919 160.075 84.3436 159.965 84.0902 159.745C83.8402 159.522 83.7152 159.208 83.7152 158.805C83.7152 158.412 83.8269 158.1 84.0502 157.87C84.2769 157.64 84.5986 157.525 85.0152 157.525C85.2919 157.525 85.5269 157.578 85.7202 157.685C85.9136 157.788 86.0586 157.933 86.1552 158.12C86.2552 158.303 86.3052 158.513 86.3052 158.75V159H84.1952C84.2119 159.227 84.3069 159.397 84.4802 159.51C84.6569 159.62 84.8952 159.675 85.1952 159.675C85.3486 159.675 85.5036 159.662 85.6602 159.635C85.8169 159.605 85.9552 159.567 86.0752 159.52V159.925C85.9686 159.968 85.8269 160.003 85.6502 160.03C85.4769 160.06 85.3052 160.075 85.1352 160.075ZM85.8302 158.645C85.8236 158.418 85.7486 158.243 85.6052 158.12C85.4652 157.993 85.2652 157.93 85.0052 157.93C84.7519 157.93 84.5552 157.995 84.4152 158.125C84.2752 158.255 84.2019 158.428 84.1952 158.645H85.8302ZM91.9728 160.075C91.7028 160.075 91.4645 160.025 91.2578 159.925C91.0545 159.822 90.8945 159.675 90.7778 159.485C90.6645 159.292 90.6078 159.065 90.6078 158.805C90.6078 158.548 90.6645 158.323 90.7778 158.13C90.8911 157.937 91.0511 157.788 91.2578 157.685C91.4645 157.578 91.7028 157.525 91.9728 157.525C92.2428 157.525 92.4811 157.578 92.6878 157.685C92.8945 157.788 93.0545 157.937 93.1678 158.13C93.2845 158.323 93.3428 158.548 93.3428 158.805C93.3428 159.065 93.2845 159.292 93.1678 159.485C93.0545 159.675 92.8945 159.822 92.6878 159.925C92.4811 160.025 92.2428 160.075 91.9728 160.075ZM91.9728 159.675C92.2328 159.675 92.4395 159.595 92.5928 159.435C92.7461 159.275 92.8228 159.065 92.8228 158.805C92.8228 158.535 92.7461 158.322 92.5928 158.165C92.4395 158.008 92.2328 157.93 91.9728 157.93C91.7128 157.93 91.5061 158.008 91.3528 158.165C91.1995 158.322 91.1228 158.535 91.1228 158.805C91.1228 159.065 91.1995 159.275 91.3528 159.435C91.5061 159.595 91.7128 159.675 91.9728 159.675ZM94.8914 157.6H95.3814V157.945C95.4947 157.802 95.6331 157.697 95.7964 157.63C95.9631 157.56 96.1364 157.525 96.3164 157.525C96.6364 157.525 96.8747 157.61 97.0314 157.78C97.1881 157.95 97.2664 158.178 97.2664 158.465V160H96.7614V158.515C96.7614 158.125 96.5747 157.93 96.2014 157.93C96.0414 157.93 95.8914 157.968 95.7514 158.045C95.6147 158.118 95.4964 158.232 95.3964 158.385V160H94.8914V157.6ZM98.8895 156.305H99.3945V160H98.8895V156.305ZM101.557 160.99C101.377 160.99 101.227 160.972 101.107 160.935V160.54C101.193 160.573 101.3 160.59 101.427 160.59C101.543 160.59 101.635 160.56 101.702 160.5C101.768 160.443 101.828 160.35 101.882 160.22L101.997 159.94L100.947 157.6H101.467L102.267 159.445L103.012 157.6H103.532L102.452 160.27C102.352 160.52 102.232 160.702 102.092 160.815C101.955 160.932 101.777 160.99 101.557 160.99ZM105.116 160C105.05 160 104.993 159.978 104.946 159.935C104.903 159.888 104.881 159.832 104.881 159.765C104.881 159.698 104.903 159.642 104.946 159.595C104.993 159.548 105.05 159.525 105.116 159.525C105.183 159.525 105.24 159.548 105.286 159.595C105.333 159.642 105.356 159.698 105.356 159.765C105.356 159.832 105.333 159.888 105.286 159.935C105.24 159.978 105.183 160 105.116 160Z" fill="black"/>
<rect x="12.25" y="143.25" width="125.5" height="46.5" stroke="#6C6C6C" stroke-width="0.5"/>
<path d="M13.47 28.97H12.375V27.8H13.47V26.435C13.47 25.605 13.735 24.965 14.265 24.515C14.795 24.065 15.455 23.84 16.245 23.84C16.645 23.84 17.035 23.9 17.415 24.02V25.25C17.135 25.14 16.845 25.085 16.545 25.085C16.035 25.085 15.645 25.21 15.375 25.46C15.115 25.7 14.985 26.055 14.985 26.525V27.8H19.845V35H18.33V28.97H14.985V35H13.47V28.97ZM19.08 26.39C18.82 26.39 18.605 26.305 18.435 26.135C18.265 25.965 18.18 25.755 18.18 25.505C18.18 25.255 18.265 25.045 18.435 24.875C18.615 24.705 18.83 24.62 19.08 24.62C19.33 24.62 19.54 24.705 19.71 24.875C19.89 25.045 19.98 25.255 19.98 25.505C19.98 25.755 19.89 25.965 19.71 26.135C19.54 26.305 19.33 26.39 19.08 26.39ZM27.5802 35.225C27.0802 35.225 26.5502 35.16 25.9902 35.03C25.4302 34.91 24.9902 34.745 24.6702 34.535V33.245C25.0602 33.475 25.5102 33.665 26.0202 33.815C26.5302 33.955 27.0252 34.025 27.5052 34.025C28.0452 34.025 28.4402 33.96 28.6902 33.83C28.9402 33.7 29.0652 33.49 29.0652 33.2C29.0652 32.98 29.0052 32.805 28.8852 32.675C28.7752 32.535 28.5802 32.41 28.3002 32.3C28.0302 32.19 27.6202 32.06 27.0702 31.91C26.4802 31.74 26.0102 31.57 25.6602 31.4C25.3202 31.22 25.0602 30.995 24.8802 30.725C24.7102 30.455 24.6252 30.105 24.6252 29.675C24.6252 28.985 24.8952 28.465 25.4352 28.115C25.9852 27.755 26.7202 27.575 27.6402 27.575C28.1202 27.575 28.5902 27.62 29.0502 27.71C29.5102 27.8 29.8802 27.925 30.1602 28.085V29.345C29.8702 29.175 29.5102 29.04 29.0802 28.94C28.6602 28.84 28.2302 28.79 27.7902 28.79C27.2602 28.79 26.8552 28.855 26.5752 28.985C26.2952 29.115 26.1552 29.345 26.1552 29.675C26.1552 29.885 26.2152 30.055 26.3352 30.185C26.4552 30.315 26.6452 30.43 26.9052 30.53C27.1752 30.62 27.6002 30.74 28.1802 30.89C29.0902 31.14 29.7202 31.435 30.0702 31.775C30.4302 32.115 30.6102 32.585 30.6102 33.185C30.6102 33.805 30.3552 34.3 29.8452 34.67C29.3352 35.04 28.5802 35.225 27.5802 35.225ZM35.2641 23.915H36.7791V28.79C37.4691 27.98 38.3891 27.575 39.5391 27.575C40.4991 27.575 41.2141 27.83 41.6841 28.34C42.1541 28.85 42.3891 29.535 42.3891 30.395V35H40.8741V30.545C40.8741 29.375 40.3141 28.79 39.1941 28.79C38.7141 28.79 38.2641 28.905 37.8441 29.135C37.4341 29.355 37.0791 29.695 36.7791 30.155V35H35.2641V23.915ZM48.1432 26.39C47.8932 26.39 47.6832 26.305 47.5132 26.135C47.3432 25.965 47.2582 25.755 47.2582 25.505C47.2582 25.255 47.3432 25.045 47.5132 24.875C47.6832 24.705 47.8932 24.62 48.1432 24.62C48.4032 24.62 48.6182 24.705 48.7882 24.875C48.9682 25.045 49.0582 25.255 49.0582 25.505C49.0582 25.755 48.9682 25.965 48.7882 26.135C48.6182 26.305 48.4032 26.39 48.1432 26.39ZM47.3782 27.8H48.9232V35H47.3782V27.8ZM54.0082 27.8H55.4782V28.835C55.8182 28.405 56.2332 28.09 56.7232 27.89C57.2232 27.68 57.7432 27.575 58.2832 27.575C59.2432 27.575 59.9582 27.83 60.4282 28.34C60.8982 28.85 61.1332 29.535 61.1332 30.395V35H59.6182V30.545C59.6182 29.375 59.0582 28.79 57.9382 28.79C57.4582 28.79 57.0082 28.905 56.5882 29.135C56.1782 29.355 55.8232 29.695 55.5232 30.155V35H54.0082V27.8ZM69.7673 38.45C69.2773 38.45 68.7973 38.41 68.3273 38.33C67.8673 38.25 67.4773 38.135 67.1573 37.985V36.74C67.9073 37.08 68.7773 37.25 69.7673 37.25C70.6973 37.25 71.3723 37.045 71.7923 36.635C72.2223 36.235 72.4373 35.625 72.4373 34.805V34.04C71.7773 34.83 70.8073 35.225 69.5273 35.225C68.7973 35.225 68.1423 35.065 67.5623 34.745C66.9823 34.425 66.5273 33.975 66.1973 33.395C65.8673 32.815 65.7023 32.15 65.7023 31.4C65.7023 30.64 65.8623 29.975 66.1823 29.405C66.5123 28.825 66.9623 28.375 67.5323 28.055C68.1123 27.735 68.7623 27.575 69.4823 27.575C70.1523 27.575 70.7173 27.675 71.1773 27.875C71.6473 28.065 72.0823 28.385 72.4823 28.835V27.8H73.9523V34.64C73.9523 35.87 73.6073 36.81 72.9173 37.46C72.2373 38.12 71.1873 38.45 69.7673 38.45ZM69.8273 34.025C70.4473 34.025 70.9923 33.86 71.4623 33.53C71.9423 33.2 72.2673 32.76 72.4373 32.21V30.59C72.2473 30.03 71.9173 29.59 71.4473 29.27C70.9873 28.95 70.4473 28.79 69.8273 28.79C69.3373 28.79 68.8923 28.9 68.4923 29.12C68.1023 29.33 67.7923 29.635 67.5623 30.035C67.3423 30.435 67.2323 30.89 67.2323 31.4C67.2323 31.92 67.3423 32.38 67.5623 32.78C67.7923 33.17 68.1023 33.475 68.4923 33.695C68.8923 33.915 69.3373 34.025 69.8273 34.025ZM87.4564 23.915H88.9714V28.79C89.6614 27.98 90.5814 27.575 91.7314 27.575C92.6914 27.575 93.4064 27.83 93.8764 28.34C94.3464 28.85 94.5814 29.535 94.5814 30.395V35H93.0664V30.545C93.0664 29.375 92.5064 28.79 91.3864 28.79C90.9064 28.79 90.4564 28.905 90.0364 29.135C89.6264 29.355 89.2714 29.695 88.9714 30.155V35H87.4564V23.915ZM103.026 35.225C102.216 35.225 101.501 35.075 100.881 34.775C100.271 34.465 99.7909 34.025 99.4409 33.455C99.1009 32.875 98.9309 32.195 98.9309 31.415C98.9309 30.645 99.1009 29.97 99.4409 29.39C99.7809 28.81 100.261 28.365 100.881 28.055C101.501 27.735 102.216 27.575 103.026 27.575C103.836 27.575 104.551 27.735 105.171 28.055C105.791 28.365 106.271 28.81 106.611 29.39C106.961 29.97 107.136 30.645 107.136 31.415C107.136 32.195 106.961 32.875 106.611 33.455C106.271 34.025 105.791 34.465 105.171 34.775C104.551 35.075 103.836 35.225 103.026 35.225ZM103.026 34.025C103.806 34.025 104.426 33.785 104.886 33.305C105.346 32.825 105.576 32.195 105.576 31.415C105.576 30.605 105.346 29.965 104.886 29.495C104.426 29.025 103.806 28.79 103.026 28.79C102.246 28.79 101.626 29.025 101.166 29.495C100.706 29.965 100.476 30.605 100.476 31.415C100.476 32.195 100.706 32.825 101.166 33.305C101.626 33.785 102.246 34.025 103.026 34.025ZM115.196 35.225C114.386 35.225 113.671 35.075 113.051 34.775C112.441 34.465 111.961 34.025 111.611 33.455C111.271 32.875 111.101 32.195 111.101 31.415C111.101 30.645 111.271 29.97 111.611 29.39C111.951 28.81 112.431 28.365 113.051 28.055C113.671 27.735 114.386 27.575 115.196 27.575C116.006 27.575 116.721 27.735 117.341 28.055C117.961 28.365 118.441 28.81 118.781 29.39C119.131 29.97 119.306 30.645 119.306 31.415C119.306 32.195 119.131 32.875 118.781 33.455C118.441 34.025 117.961 34.465 117.341 34.775C116.721 35.075 116.006 35.225 115.196 35.225ZM115.196 34.025C115.976 34.025 116.596 33.785 117.056 33.305C117.516 32.825 117.746 32.195 117.746 31.415C117.746 30.605 117.516 29.965 117.056 29.495C116.596 29.025 115.976 28.79 115.196 28.79C114.416 28.79 113.796 29.025 113.336 29.495C112.876 29.965 112.646 30.605 112.646 31.415C112.646 32.195 112.876 32.825 113.336 33.305C113.796 33.785 114.416 34.025 115.196 34.025ZM123.952 23.915H125.467V35H123.952V23.915ZM125.482 31.355L128.797 27.8H130.642L127.312 31.355L130.987 35H129.142L125.482 31.355Z" fill="black"/>
<path d="M12.8691 19.0381L17.1807 17.1875V16.4746L12.8691 14.6289V15.5615L16.0283 16.7334L16.3213 16.8262L16.0283 16.9092L12.8691 18.1006V19.0381ZM20.875 19.0381L25.1865 17.1875V16.4746L20.875 14.6289V15.5615L24.0342 16.7334L24.3271 16.8262L24.0342 16.9092L20.875 18.1006V19.0381ZM36.7012 17.3145V17.417C36.7012 17.7946 36.75 18.1478 36.8477 18.4766C36.9453 18.8021 37.0853 19.0853 37.2676 19.3262C37.4466 19.5671 37.6663 19.7559 37.9268 19.8926C38.1872 20.0293 38.4785 20.0977 38.8008 20.0977C38.9928 20.0977 39.1719 20.0765 39.3379 20.0342C39.5039 19.9951 39.6553 19.9382 39.792 19.8633C39.8799 19.8145 39.9613 19.7575 40.0361 19.6924C40.1143 19.6273 40.1875 19.5557 40.2559 19.4775V19.9316C40.2559 20.1595 40.2233 20.3613 40.1582 20.5371C40.0931 20.7129 40.0003 20.8594 39.8799 20.9766C39.7562 21.097 39.6081 21.1882 39.4355 21.25C39.263 21.3118 39.0693 21.3428 38.8545 21.3428C38.734 21.3428 38.6136 21.3298 38.4932 21.3037C38.3727 21.2809 38.2523 21.2419 38.1318 21.1865C38.0114 21.1312 37.8926 21.0563 37.7754 20.9619C37.6582 20.8708 37.5443 20.7585 37.4336 20.625L36.9648 21.167C37.0853 21.3395 37.2285 21.4844 37.3945 21.6016C37.5638 21.7188 37.7396 21.8115 37.9219 21.8799C38.1009 21.9515 38.2783 22.002 38.4541 22.0312C38.6299 22.0638 38.7861 22.0801 38.9229 22.0801C39.2549 22.0801 39.5576 22.0312 39.8311 21.9336C40.1045 21.8359 40.3405 21.6927 40.5391 21.5039C40.7344 21.3151 40.8857 21.0856 40.9932 20.8154C41.1038 20.5452 41.1592 20.236 41.1592 19.8877V14.7168H40.3389L40.2949 15.293C40.2331 15.2148 40.1663 15.1432 40.0947 15.0781C40.0264 15.013 39.9531 14.9561 39.875 14.9072C39.7318 14.8128 39.5706 14.7412 39.3916 14.6924C39.2158 14.6436 39.0221 14.6191 38.8105 14.6191C38.4818 14.6191 38.1872 14.6859 37.9268 14.8193C37.6663 14.9528 37.445 15.1383 37.2627 15.376C37.0804 15.6136 36.9404 15.8984 36.8428 16.2305C36.7484 16.5592 36.7012 16.9206 36.7012 17.3145ZM37.6045 17.417V17.3145C37.6045 17.0573 37.6305 16.8132 37.6826 16.582C37.738 16.3477 37.8242 16.141 37.9414 15.9619C38.0553 15.7861 38.2018 15.6462 38.3809 15.542C38.5632 15.4378 38.7812 15.3857 39.0352 15.3857C39.1849 15.3857 39.3216 15.4053 39.4453 15.4443C39.569 15.4801 39.6813 15.5306 39.7822 15.5957C39.8831 15.6641 39.9727 15.7438 40.0508 15.835C40.1289 15.9261 40.1973 16.027 40.2559 16.1377V18.5596C40.1973 18.6735 40.1289 18.7777 40.0508 18.8721C39.9727 18.9665 39.8848 19.0479 39.7871 19.1162C39.6862 19.1846 39.5723 19.2383 39.4453 19.2773C39.3216 19.3132 39.1816 19.3311 39.0254 19.3311C38.7747 19.3311 38.5599 19.2806 38.3809 19.1797C38.2018 19.0755 38.0553 18.9355 37.9414 18.7598C37.8242 18.584 37.738 18.3805 37.6826 18.1494C37.6305 17.9183 37.6045 17.6742 37.6045 17.417ZM47.207 20.0977C47.7214 20.0977 48.1527 19.9951 48.501 19.79C48.8525 19.5817 49.1162 19.3441 49.292 19.0771L48.7402 18.6475C48.5742 18.8623 48.3659 19.0348 48.1152 19.165C47.8646 19.2952 47.5781 19.3604 47.2559 19.3604C47.0117 19.3604 46.7887 19.3148 46.5869 19.2236C46.3851 19.1325 46.2126 19.0072 46.0693 18.8477C45.9294 18.6979 45.8187 18.5254 45.7373 18.3301C45.6592 18.1348 45.6087 17.9085 45.5859 17.6514V17.6172H49.3604V17.2119C49.3604 16.8441 49.3132 16.5023 49.2188 16.1865C49.1276 15.8708 48.9876 15.5957 48.7988 15.3613C48.61 15.1302 48.3724 14.9495 48.0859 14.8193C47.8027 14.6859 47.4707 14.6191 47.0898 14.6191C46.7871 14.6191 46.4909 14.681 46.2012 14.8047C45.9147 14.9284 45.6592 15.1058 45.4346 15.3369C45.2067 15.5713 45.0244 15.8577 44.8877 16.1963C44.751 16.5316 44.6826 16.9124 44.6826 17.3389V17.5439C44.6826 17.9118 44.7445 18.252 44.8682 18.5645C44.9919 18.877 45.1644 19.1471 45.3857 19.375C45.6071 19.6029 45.8724 19.7803 46.1816 19.9072C46.4941 20.0342 46.8359 20.0977 47.207 20.0977ZM47.0898 15.3613C47.321 15.3613 47.5195 15.4036 47.6855 15.4883C47.8548 15.5729 47.9948 15.6836 48.1055 15.8203C48.2161 15.957 48.3024 16.1198 48.3643 16.3086C48.4261 16.4941 48.457 16.6683 48.457 16.8311V16.875H45.6152C45.651 16.6309 45.7129 16.416 45.8008 16.2305C45.8919 16.0417 46.0026 15.8822 46.1328 15.752C46.263 15.625 46.4095 15.529 46.5723 15.4639C46.735 15.3955 46.9076 15.3613 47.0898 15.3613ZM56.3506 20H57.293V19.9219C57.2344 19.7754 57.1888 19.6045 57.1562 19.4092C57.1237 19.2106 57.1074 19.0234 57.1074 18.8477V16.3916C57.1074 16.0954 57.0537 15.8366 56.9463 15.6152C56.8389 15.3939 56.6924 15.2083 56.5068 15.0586C56.318 14.9121 56.0951 14.8031 55.8379 14.7314C55.5807 14.6566 55.3024 14.6191 55.0029 14.6191C54.6742 14.6191 54.3796 14.6647 54.1191 14.7559C53.862 14.847 53.6439 14.9658 53.4648 15.1123C53.2826 15.262 53.1426 15.4297 53.0449 15.6152C52.9505 15.8008 52.9017 15.9896 52.8984 16.1816H53.8066C53.8066 16.071 53.8327 15.9652 53.8848 15.8643C53.9401 15.7601 54.0166 15.6706 54.1143 15.5957C54.2119 15.5208 54.3307 15.4606 54.4707 15.415C54.6139 15.3695 54.7751 15.3467 54.9541 15.3467C55.1462 15.3467 55.3187 15.3711 55.4717 15.4199C55.6279 15.4688 55.7598 15.5371 55.8672 15.625C55.9746 15.7161 56.0576 15.8252 56.1162 15.9521C56.1748 16.0791 56.2041 16.2223 56.2041 16.3818V16.7969H55.2178C54.8499 16.7969 54.5163 16.8327 54.2168 16.9043C53.9206 16.9759 53.6667 17.0833 53.4551 17.2266C53.2435 17.373 53.0791 17.5553 52.9619 17.7734C52.848 17.9915 52.791 18.2454 52.791 18.5352C52.791 18.7565 52.8333 18.9632 52.918 19.1553C53.0059 19.3441 53.1296 19.5068 53.2891 19.6436C53.4453 19.7835 53.6357 19.8942 53.8604 19.9756C54.0882 20.057 54.3421 20.0977 54.6221 20.0977C54.7946 20.0977 54.9574 20.0798 55.1104 20.0439C55.2633 20.0081 55.4082 19.9593 55.5449 19.8975C55.6784 19.8356 55.8005 19.764 55.9111 19.6826C56.0251 19.6012 56.1276 19.515 56.2188 19.4238C56.2285 19.5345 56.2432 19.6419 56.2627 19.7461C56.2855 19.847 56.3148 19.9316 56.3506 20ZM54.7539 19.3115C54.5781 19.3115 54.4235 19.2887 54.29 19.2432C54.1566 19.1976 54.0459 19.1341 53.958 19.0527C53.8701 18.9746 53.8034 18.8802 53.7578 18.7695C53.7155 18.6589 53.6943 18.5384 53.6943 18.4082C53.6943 18.2715 53.7188 18.1494 53.7676 18.042C53.8197 17.9346 53.8945 17.8418 53.9922 17.7637C54.1289 17.653 54.3128 17.5716 54.5439 17.5195C54.7783 17.4642 55.0518 17.4365 55.3643 17.4365H56.2041V18.5059C56.152 18.61 56.0804 18.7109 55.9893 18.8086C55.8981 18.903 55.7907 18.9876 55.667 19.0625C55.54 19.1374 55.4001 19.1976 55.2471 19.2432C55.0941 19.2887 54.9297 19.3115 54.7539 19.3115ZM64.3467 14.6191C63.9626 14.6191 63.6191 14.7038 63.3164 14.873C63.0169 15.0391 62.7598 15.2669 62.5449 15.5566L62.54 15.4248L62.501 14.7168H61.6416V20H62.5498V16.6113C62.6084 16.4486 62.6816 16.3021 62.7695 16.1719C62.8607 16.0384 62.9665 15.9261 63.0869 15.835C63.2204 15.7308 63.3766 15.6527 63.5557 15.6006C63.7347 15.5452 63.9349 15.5176 64.1562 15.5176C64.3288 15.5176 64.4932 15.5273 64.6494 15.5469C64.8089 15.5632 64.9766 15.5908 65.1523 15.6299L65.2744 14.7461C65.1833 14.707 65.0465 14.6761 64.8643 14.6533C64.6852 14.6305 64.5127 14.6191 64.3467 14.6191Z" fill="#707070"/>
<path d="M77.5 72.5L82 87L79 72.5L84.5 59.5L82.5 43L81.5 43.5L83 58.5L77.5 72.5Z" fill="#875E21"/>
<path d="M49 119.333L54.6471 118.667L60.2941 128L73 132L85 124.667L82.8824 86L85 82L79.3529 78L75.8235 82L79.3529 86L80.7647 121.333L71.5882 126.667L63.1176 124.667L58.1765 117.333L61 115.333L53.9412 113.333L49 119.333Z" fill="#7A7A7A"/>
</svg>
