<svg width="150" height="200" viewBox="0 0 150 200" fill="none" xmlns="http://www.w3.org/2000/svg">
<rect width="150" height="200" fill="white"/>
<path d="M17.325 148.505H19.63V148.935H17.835V150.05H19.175V150.455H17.835V152H17.325V148.505ZM21.1981 149.13C21.1148 149.13 21.0448 149.102 20.9881 149.045C20.9315 148.988 20.9031 148.918 20.9031 148.835C20.9031 148.752 20.9315 148.682 20.9881 148.625C21.0448 148.568 21.1148 148.54 21.1981 148.54C21.2848 148.54 21.3565 148.568 21.4131 148.625C21.4731 148.682 21.5031 148.752 21.5031 148.835C21.5031 148.918 21.4731 148.988 21.4131 149.045C21.3565 149.102 21.2848 149.13 21.1981 149.13ZM20.9431 149.6H21.4581V152H20.9431V149.6ZM24.0381 152.075C23.8715 152.075 23.6948 152.053 23.5081 152.01C23.3215 151.97 23.1748 151.915 23.0681 151.845V151.415C23.1981 151.492 23.3481 151.555 23.5181 151.605C23.6881 151.652 23.8531 151.675 24.0131 151.675C24.1931 151.675 24.3248 151.653 24.4081 151.61C24.4915 151.567 24.5331 151.497 24.5331 151.4C24.5331 151.327 24.5131 151.268 24.4731 151.225C24.4365 151.178 24.3715 151.137 24.2781 151.1C24.1881 151.063 24.0515 151.02 23.8681 150.97C23.6715 150.913 23.5148 150.857 23.3981 150.8C23.2848 150.74 23.1981 150.665 23.1381 150.575C23.0815 150.485 23.0531 150.368 23.0531 150.225C23.0531 149.995 23.1431 149.822 23.3231 149.705C23.5065 149.585 23.7515 149.525 24.0581 149.525C24.2181 149.525 24.3748 149.54 24.5281 149.57C24.6815 149.6 24.8048 149.642 24.8981 149.695V150.115C24.8015 150.058 24.6815 150.013 24.5381 149.98C24.3981 149.947 24.2548 149.93 24.1081 149.93C23.9315 149.93 23.7965 149.952 23.7031 149.995C23.6098 150.038 23.5631 150.115 23.5631 150.225C23.5631 150.295 23.5831 150.352 23.6231 150.395C23.6631 150.438 23.7265 150.477 23.8131 150.51C23.9031 150.54 24.0448 150.58 24.2381 150.63C24.5415 150.713 24.7515 150.812 24.8681 150.925C24.9881 151.038 25.0481 151.195 25.0481 151.395C25.0481 151.602 24.9631 151.767 24.7931 151.89C24.6231 152.013 24.3715 152.075 24.0381 152.075ZM26.5994 148.305H27.1044V149.93C27.3344 149.66 27.6411 149.525 28.0244 149.525C28.3444 149.525 28.5827 149.61 28.7394 149.78C28.8961 149.95 28.9744 150.178 28.9744 150.465V152H28.4694V150.515C28.4694 150.125 28.2827 149.93 27.9094 149.93C27.7494 149.93 27.5994 149.968 27.4594 150.045C27.3227 150.118 27.2044 150.232 27.1044 150.385V152H26.5994V148.305ZM34.308 152.075C34.018 152.075 33.7847 152.002 33.608 151.855C33.4347 151.705 33.348 151.503 33.348 151.25C33.348 150.983 33.4314 150.778 33.598 150.635C33.768 150.488 34.008 150.415 34.318 150.415C34.648 150.415 34.928 150.482 35.158 150.615V150.49C35.158 150.3 35.0997 150.16 34.983 150.07C34.8697 149.977 34.6897 149.93 34.443 149.93C34.2964 149.93 34.153 149.945 34.013 149.975C33.8764 150.002 33.753 150.04 33.643 150.09V149.68C33.743 149.633 33.873 149.597 34.033 149.57C34.193 149.54 34.348 149.525 34.498 149.525C34.8947 149.525 35.188 149.613 35.378 149.79C35.5714 149.963 35.668 150.205 35.668 150.515V152H35.193V151.73C35.0897 151.843 34.9664 151.93 34.823 151.99C34.683 152.047 34.5114 152.075 34.308 152.075ZM34.433 151.69C34.593 151.69 34.738 151.658 34.868 151.595C34.998 151.532 35.0947 151.443 35.158 151.33V151.005C34.9414 150.865 34.6997 150.795 34.433 150.795C34.2397 150.795 34.0947 150.833 33.998 150.91C33.9047 150.983 33.858 151.097 33.858 151.25C33.858 151.543 34.0497 151.69 34.433 151.69ZM37.2947 149.6H37.7847V150.03C37.8847 149.883 38.0247 149.775 38.2047 149.705C38.3881 149.635 38.5997 149.6 38.8397 149.6V149.995C38.5831 149.995 38.3631 150.037 38.1797 150.12C37.9964 150.203 37.8697 150.335 37.7997 150.515V152H37.2947V149.6ZM41.4604 152.075C41.0171 152.075 40.6688 151.965 40.4154 151.745C40.1654 151.522 40.0404 151.208 40.0404 150.805C40.0404 150.412 40.1521 150.1 40.3754 149.87C40.6021 149.64 40.9238 149.525 41.3404 149.525C41.6171 149.525 41.8521 149.578 42.0454 149.685C42.2388 149.788 42.3838 149.933 42.4804 150.12C42.5804 150.303 42.6304 150.513 42.6304 150.75V151H40.5204C40.5371 151.227 40.6321 151.397 40.8054 151.51C40.9821 151.62 41.2204 151.675 41.5204 151.675C41.6738 151.675 41.8288 151.662 41.9854 151.635C42.1421 151.605 42.2804 151.567 42.4004 151.52V151.925C42.2938 151.968 42.1521 152.003 41.9754 152.03C41.8021 152.06 41.6304 152.075 41.4604 152.075ZM42.1554 150.645C42.1488 150.418 42.0738 150.243 41.9304 150.12C41.7904 149.993 41.5904 149.93 41.3304 149.93C41.0771 149.93 40.8804 149.995 40.7404 150.125C40.6004 150.255 40.5271 150.428 40.5204 150.645H42.1554ZM47.033 148.305H47.538V152H47.033V148.305ZM47.543 150.785L48.648 149.6H49.263L48.153 150.785L49.378 152H48.763L47.543 150.785ZM51.1747 149.13C51.0914 149.13 51.0214 149.102 50.9647 149.045C50.908 148.988 50.8797 148.918 50.8797 148.835C50.8797 148.752 50.908 148.682 50.9647 148.625C51.0214 148.568 51.0914 148.54 51.1747 148.54C51.2614 148.54 51.333 148.568 51.3897 148.625C51.4497 148.682 51.4797 148.752 51.4797 148.835C51.4797 148.918 51.4497 148.988 51.3897 149.045C51.333 149.102 51.2614 149.13 51.1747 149.13ZM50.9197 149.6H51.4347V152H50.9197V149.6ZM53.1297 149.6H53.6197V149.945C53.733 149.802 53.8714 149.697 54.0347 149.63C54.2014 149.56 54.3747 149.525 54.5547 149.525C54.8747 149.525 55.113 149.61 55.2697 149.78C55.4264 149.95 55.5047 150.178 55.5047 150.465V152H54.9997V150.515C54.9997 150.125 54.813 149.93 54.4397 149.93C54.2797 149.93 54.1297 149.968 53.9897 150.045C53.853 150.118 53.7347 150.232 53.6347 150.385V152H53.1297V149.6ZM58.2877 152.075C58.0477 152.075 57.8311 152.023 57.6377 151.92C57.4477 151.813 57.2977 151.665 57.1877 151.475C57.0811 151.282 57.0277 151.058 57.0277 150.805C57.0277 150.555 57.0811 150.333 57.1877 150.14C57.2977 149.947 57.4477 149.797 57.6377 149.69C57.8311 149.58 58.0477 149.525 58.2877 149.525C58.7211 149.525 59.0494 149.657 59.2727 149.92V148.305H59.7777V152H59.2877V151.65C59.1544 151.797 59.0077 151.905 58.8477 151.975C58.6911 152.042 58.5044 152.075 58.2877 152.075ZM58.4027 151.675C58.6094 151.675 58.7894 151.622 58.9427 151.515C59.0994 151.405 59.2094 151.258 59.2727 151.075V150.535C59.2161 150.352 59.1077 150.205 58.9477 150.095C58.7911 149.985 58.6094 149.93 58.4027 149.93C58.2394 149.93 58.0911 149.967 57.9577 150.04C57.8277 150.113 57.7244 150.217 57.6477 150.35C57.5744 150.483 57.5377 150.635 57.5377 150.805C57.5377 150.975 57.5744 151.127 57.6477 151.26C57.7244 151.393 57.8277 151.497 57.9577 151.57C58.0911 151.64 58.2394 151.675 58.4027 151.675ZM65.5441 152.075C65.2741 152.075 65.0358 152.025 64.8291 151.925C64.6258 151.822 64.4658 151.675 64.3491 151.485C64.2358 151.292 64.1791 151.065 64.1791 150.805C64.1791 150.548 64.2358 150.323 64.3491 150.13C64.4624 149.937 64.6224 149.788 64.8291 149.685C65.0358 149.578 65.2741 149.525 65.5441 149.525C65.8141 149.525 66.0524 149.578 66.2591 149.685C66.4658 149.788 66.6258 149.937 66.7391 150.13C66.8558 150.323 66.9141 150.548 66.9141 150.805C66.9141 151.065 66.8558 151.292 66.7391 151.485C66.6258 151.675 66.4658 151.822 66.2591 151.925C66.0524 152.025 65.8141 152.075 65.5441 152.075ZM65.5441 151.675C65.8041 151.675 66.0108 151.595 66.1641 151.435C66.3174 151.275 66.3941 151.065 66.3941 150.805C66.3941 150.535 66.3174 150.322 66.1641 150.165C66.0108 150.008 65.8041 149.93 65.5441 149.93C65.2841 149.93 65.0774 150.008 64.9241 150.165C64.7708 150.322 64.6941 150.535 64.6941 150.805C64.6941 151.065 64.7708 151.275 64.9241 151.435C65.0774 151.595 65.2841 151.675 65.5441 151.675ZM68.4519 149.99H68.0869V149.6H68.4519V149.13C68.4519 148.853 68.5302 148.643 68.6869 148.5C68.8436 148.353 69.0536 148.28 69.3169 148.28C69.4536 148.28 69.5819 148.3 69.7019 148.34V148.76C69.6086 148.717 69.5119 148.695 69.4119 148.695C69.2552 148.695 69.1402 148.733 69.0669 148.81C68.9936 148.883 68.9569 149 68.9569 149.16V149.6H69.5569V149.99H68.9569V152H68.4519V149.99ZM73.9002 149.6H74.3902V150.03C74.4902 149.883 74.6302 149.775 74.8102 149.705C74.9935 149.635 75.2052 149.6 75.4452 149.6V149.995C75.1885 149.995 74.9685 150.037 74.7852 150.12C74.6019 150.203 74.4752 150.335 74.4052 150.515V152H73.9002V149.6ZM78.0659 152.075C77.6226 152.075 77.2742 151.965 77.0209 151.745C76.7709 151.522 76.6459 151.208 76.6459 150.805C76.6459 150.412 76.7576 150.1 76.9809 149.87C77.2076 149.64 77.5292 149.525 77.9459 149.525C78.2226 149.525 78.4576 149.578 78.6509 149.685C78.8442 149.788 78.9892 149.933 79.0859 150.12C79.1859 150.303 79.2359 150.513 79.2359 150.75V151H77.1259C77.1426 151.227 77.2376 151.397 77.4109 151.51C77.5876 151.62 77.8259 151.675 78.1259 151.675C78.2792 151.675 78.4342 151.662 78.5909 151.635C78.7476 151.605 78.8859 151.567 79.0059 151.52V151.925C78.8992 151.968 78.7576 152.003 78.5809 152.03C78.4076 152.06 78.2359 152.075 78.0659 152.075ZM78.7609 150.645C78.7542 150.418 78.6792 150.243 78.5359 150.12C78.3959 149.993 78.1959 149.93 77.9359 149.93C77.6826 149.93 77.4859 149.995 77.3459 150.125C77.2059 150.255 77.1326 150.428 77.1259 150.645H78.7609ZM80.7879 149.6H81.2779V149.955C81.5246 149.668 81.8579 149.525 82.2779 149.525C82.5179 149.525 82.7329 149.578 82.9229 149.685C83.1162 149.792 83.2662 149.942 83.3729 150.135C83.4829 150.325 83.5379 150.547 83.5379 150.8C83.5379 151.05 83.4829 151.272 83.3729 151.465C83.2662 151.658 83.1179 151.808 82.9279 151.915C82.7379 152.022 82.5212 152.075 82.2779 152.075C82.0779 152.075 81.8912 152.042 81.7179 151.975C81.5446 151.908 81.4029 151.81 81.2929 151.68V153.095H80.7879V149.6ZM82.1629 151.675C82.3262 151.675 82.4729 151.64 82.6029 151.57C82.7362 151.497 82.8396 151.393 82.9129 151.26C82.9896 151.127 83.0279 150.973 83.0279 150.8C83.0279 150.627 82.9896 150.475 82.9129 150.345C82.8396 150.212 82.7362 150.11 82.6029 150.04C82.4729 149.967 82.3262 149.93 82.1629 149.93C81.9596 149.93 81.7796 149.983 81.6229 150.09C81.4696 150.197 81.3596 150.343 81.2929 150.53V151.07C81.3496 151.253 81.4579 151.4 81.6179 151.51C81.7779 151.62 81.9596 151.675 82.1629 151.675ZM86.4087 152.075C85.9653 152.075 85.617 151.965 85.3637 151.745C85.1137 151.522 84.9887 151.208 84.9887 150.805C84.9887 150.412 85.1003 150.1 85.3237 149.87C85.5503 149.64 85.872 149.525 86.2887 149.525C86.5653 149.525 86.8003 149.578 86.9937 149.685C87.187 149.788 87.332 149.933 87.4287 150.12C87.5287 150.303 87.5787 150.513 87.5787 150.75V151H85.4687C85.4853 151.227 85.5803 151.397 85.7537 151.51C85.9303 151.62 86.1687 151.675 86.4687 151.675C86.622 151.675 86.777 151.662 86.9337 151.635C87.0903 151.605 87.2287 151.567 87.3487 151.52V151.925C87.242 151.968 87.1003 152.003 86.9237 152.03C86.7503 152.06 86.5787 152.075 86.4087 152.075ZM87.1037 150.645C87.097 150.418 87.022 150.243 86.8787 150.12C86.7387 149.993 86.5387 149.93 86.2787 149.93C86.0253 149.93 85.8287 149.995 85.6887 150.125C85.5487 150.255 85.4753 150.428 85.4687 150.645H87.1037ZM89.1307 148.305H89.6357V152H89.1307V148.305ZM91.2879 148.305H91.7929V152H91.2879V148.305ZM94.7651 152.075C94.3218 152.075 93.9735 151.965 93.7201 151.745C93.4701 151.522 93.3451 151.208 93.3451 150.805C93.3451 150.412 93.4568 150.1 93.6801 149.87C93.9068 149.64 94.2285 149.525 94.6451 149.525C94.9218 149.525 95.1568 149.578 95.3501 149.685C95.5435 149.788 95.6885 149.933 95.7851 150.12C95.8851 150.303 95.9351 150.513 95.9351 150.75V151H93.8251C93.8418 151.227 93.9368 151.397 94.1101 151.51C94.2868 151.62 94.5251 151.675 94.8251 151.675C94.9785 151.675 95.1335 151.662 95.2901 151.635C95.4468 151.605 95.5851 151.567 95.7051 151.52V151.925C95.5985 151.968 95.4568 152.003 95.2801 152.03C95.1068 152.06 94.9351 152.075 94.7651 152.075ZM95.4601 150.645C95.4535 150.418 95.3785 150.243 95.2351 150.12C95.0951 149.993 94.8951 149.93 94.6351 149.93C94.3818 149.93 94.1851 149.995 94.0451 150.125C93.9051 150.255 93.8318 150.428 93.8251 150.645H95.4601ZM98.6471 152.075C98.4071 152.075 98.1904 152.023 97.9971 151.92C97.8071 151.813 97.6571 151.665 97.5471 151.475C97.4404 151.282 97.3871 151.058 97.3871 150.805C97.3871 150.555 97.4404 150.333 97.5471 150.14C97.6571 149.947 97.8071 149.797 97.9971 149.69C98.1904 149.58 98.4071 149.525 98.6471 149.525C99.0804 149.525 99.4088 149.657 99.6321 149.92V148.305H100.137V152H99.6471V151.65C99.5138 151.797 99.3671 151.905 99.2071 151.975C99.0504 152.042 98.8638 152.075 98.6471 152.075ZM98.7621 151.675C98.9688 151.675 99.1488 151.622 99.3021 151.515C99.4588 151.405 99.5688 151.258 99.6321 151.075V150.535C99.5754 150.352 99.4671 150.205 99.3071 150.095C99.1504 149.985 98.9688 149.93 98.7621 149.93C98.5988 149.93 98.4504 149.967 98.3171 150.04C98.1871 150.113 98.0838 150.217 98.0071 150.35C97.9338 150.483 97.8971 150.635 97.8971 150.805C97.8971 150.975 97.9338 151.127 98.0071 151.26C98.0838 151.393 98.1871 151.497 98.3171 151.57C98.4504 151.64 98.5988 151.675 98.7621 151.675ZM106.128 152.075C105.912 152.075 105.723 152.042 105.563 151.975C105.407 151.905 105.262 151.797 105.128 151.65V152H104.638V148.305H105.143V149.92C105.253 149.79 105.395 149.692 105.568 149.625C105.742 149.558 105.928 149.525 106.128 149.525C106.368 149.525 106.583 149.58 106.773 149.69C106.967 149.797 107.117 149.947 107.223 150.14C107.333 150.333 107.388 150.555 107.388 150.805C107.388 151.058 107.333 151.282 107.223 151.475C107.117 151.665 106.967 151.813 106.773 151.92C106.583 152.023 106.368 152.075 106.128 152.075ZM106.013 151.675C106.177 151.675 106.323 151.64 106.453 151.57C106.587 151.497 106.69 151.393 106.763 151.26C106.84 151.127 106.878 150.975 106.878 150.805C106.878 150.635 106.84 150.483 106.763 150.35C106.69 150.217 106.587 150.113 106.453 150.04C106.323 149.967 106.177 149.93 106.013 149.93C105.81 149.93 105.628 149.985 105.468 150.095C105.308 150.205 105.2 150.352 105.143 150.535V151.075C105.207 151.258 105.315 151.405 105.468 151.515C105.625 151.622 105.807 151.675 106.013 151.675ZM109.122 152.99C108.942 152.99 108.792 152.972 108.672 152.935V152.54C108.759 152.573 108.865 152.59 108.992 152.59C109.109 152.59 109.2 152.56 109.267 152.5C109.334 152.443 109.394 152.35 109.447 152.22L109.562 151.94L108.512 149.6H109.032L109.832 151.445L110.577 149.6H111.097L110.017 152.27C109.917 152.52 109.797 152.702 109.657 152.815C109.52 152.932 109.342 152.99 109.122 152.99ZM115.692 149.13C115.609 149.13 115.539 149.102 115.482 149.045C115.426 148.988 115.397 148.918 115.397 148.835C115.397 148.752 115.426 148.682 115.482 148.625C115.539 148.568 115.609 148.54 115.692 148.54C115.779 148.54 115.851 148.568 115.907 148.625C115.967 148.682 115.997 148.752 115.997 148.835C115.997 148.918 115.967 148.988 115.907 149.045C115.851 149.102 115.779 149.13 115.692 149.13ZM115.437 149.6H115.952V152H115.437V149.6ZM118.572 152.075C118.329 152.075 118.141 152.005 118.007 151.865C117.877 151.725 117.812 151.527 117.812 151.27V149.99H117.447V149.6H117.812V148.88H118.322V149.6H118.912V149.99H118.322V151.235C118.322 151.395 118.352 151.508 118.412 151.575C118.476 151.642 118.589 151.675 118.752 151.675C118.849 151.675 118.946 151.653 119.042 151.61V152.01C118.916 152.053 118.759 152.075 118.572 152.075ZM120.652 152C120.586 152 120.529 151.978 120.482 151.935C120.439 151.888 120.417 151.832 120.417 151.765C120.417 151.698 120.439 151.642 120.482 151.595C120.529 151.548 120.586 151.525 120.652 151.525C120.719 151.525 120.776 151.548 120.822 151.595C120.869 151.642 120.892 151.698 120.892 151.765C120.892 151.832 120.869 151.888 120.822 151.935C120.776 151.978 120.719 152 120.652 152ZM17.655 160.075C17.5617 160.075 17.4633 160.067 17.36 160.05C17.2567 160.033 17.1783 160.013 17.125 159.99V159.555C17.175 159.575 17.2383 159.592 17.315 159.605C17.395 159.618 17.47 159.625 17.54 159.625C17.8833 159.625 18.055 159.458 18.055 159.125V156.505H18.565V159.16C18.565 159.447 18.4833 159.672 18.32 159.835C18.1567 159.995 17.935 160.075 17.655 160.075ZM21.1452 160.075C20.8219 160.075 20.5769 159.988 20.4102 159.815C20.2469 159.642 20.1652 159.41 20.1652 159.12V157.6H20.6702V159.1C20.6702 159.483 20.8619 159.675 21.2452 159.675C21.5819 159.675 21.8452 159.523 22.0352 159.22V157.6H22.5402V160H22.0502V159.66C21.9369 159.803 21.8019 159.908 21.6452 159.975C21.4919 160.042 21.3252 160.075 21.1452 160.075ZM25.0733 160.075C24.9066 160.075 24.7299 160.053 24.5433 160.01C24.3566 159.97 24.2099 159.915 24.1033 159.845V159.415C24.2333 159.492 24.3833 159.555 24.5533 159.605C24.7233 159.652 24.8883 159.675 25.0483 159.675C25.2283 159.675 25.3599 159.653 25.4433 159.61C25.5266 159.567 25.5683 159.497 25.5683 159.4C25.5683 159.327 25.5483 159.268 25.5083 159.225C25.4716 159.178 25.4066 159.137 25.3133 159.1C25.2233 159.063 25.0866 159.02 24.9033 158.97C24.7066 158.913 24.5499 158.857 24.4333 158.8C24.3199 158.74 24.2333 158.665 24.1733 158.575C24.1166 158.485 24.0883 158.368 24.0883 158.225C24.0883 157.995 24.1783 157.822 24.3583 157.705C24.5416 157.585 24.7866 157.525 25.0933 157.525C25.2533 157.525 25.4099 157.54 25.5633 157.57C25.7166 157.6 25.8399 157.642 25.9333 157.695V158.115C25.8366 158.058 25.7166 158.013 25.5733 157.98C25.4333 157.947 25.2899 157.93 25.1433 157.93C24.9666 157.93 24.8316 157.952 24.7383 157.995C24.6449 158.038 24.5983 158.115 24.5983 158.225C24.5983 158.295 24.6183 158.352 24.6583 158.395C24.6983 158.438 24.7616 158.477 24.8483 158.51C24.9383 158.54 25.0799 158.58 25.2733 158.63C25.5766 158.713 25.7866 158.812 25.9033 158.925C26.0233 159.038 26.0833 159.195 26.0833 159.395C26.0833 159.602 25.9983 159.767 25.8283 159.89C25.6583 160.013 25.4066 160.075 25.0733 160.075ZM28.4863 160.075C28.243 160.075 28.0547 160.005 27.9213 159.865C27.7913 159.725 27.7263 159.527 27.7263 159.27V157.99H27.3613V157.6H27.7263V156.88H28.2363V157.6H28.8263V157.99H28.2363V159.235C28.2363 159.395 28.2663 159.508 28.3263 159.575C28.3897 159.642 28.503 159.675 28.6663 159.675C28.763 159.675 28.8597 159.653 28.9563 159.61V160.01C28.8297 160.053 28.673 160.075 28.4863 160.075ZM33.282 156.305H33.787V157.93C34.017 157.66 34.3237 157.525 34.707 157.525C35.027 157.525 35.2654 157.61 35.422 157.78C35.5787 157.95 35.657 158.178 35.657 158.465V160H35.152V158.515C35.152 158.125 34.9654 157.93 34.592 157.93C34.432 157.93 34.282 157.968 34.142 158.045C34.0054 158.118 33.887 158.232 33.787 158.385V160H33.282V156.305ZM38.0668 160.075C37.7768 160.075 37.5435 160.002 37.3668 159.855C37.1935 159.705 37.1068 159.503 37.1068 159.25C37.1068 158.983 37.1902 158.778 37.3568 158.635C37.5268 158.488 37.7668 158.415 38.0768 158.415C38.4068 158.415 38.6868 158.482 38.9168 158.615V158.49C38.9168 158.3 38.8585 158.16 38.7418 158.07C38.6285 157.977 38.4485 157.93 38.2018 157.93C38.0552 157.93 37.9118 157.945 37.7718 157.975C37.6352 158.002 37.5118 158.04 37.4018 158.09V157.68C37.5018 157.633 37.6318 157.597 37.7918 157.57C37.9518 157.54 38.1068 157.525 38.2568 157.525C38.6535 157.525 38.9468 157.613 39.1368 157.79C39.3302 157.963 39.4268 158.205 39.4268 158.515V160H38.9518V159.73C38.8485 159.843 38.7252 159.93 38.5818 159.99C38.4418 160.047 38.2702 160.075 38.0668 160.075ZM38.1918 159.69C38.3518 159.69 38.4968 159.658 38.6268 159.595C38.7568 159.532 38.8535 159.443 38.9168 159.33V159.005C38.7002 158.865 38.4585 158.795 38.1918 158.795C37.9985 158.795 37.8535 158.833 37.7568 158.91C37.6635 158.983 37.6168 159.097 37.6168 159.25C37.6168 159.543 37.8085 159.69 38.1918 159.69ZM40.7289 157.6H41.2639L41.9689 159.325L42.6739 157.6H43.2089L42.1889 160H41.7489L40.7289 157.6ZM45.0536 157.13C44.9703 157.13 44.9003 157.102 44.8436 157.045C44.7869 156.988 44.7586 156.918 44.7586 156.835C44.7586 156.752 44.7869 156.682 44.8436 156.625C44.9003 156.568 44.9703 156.54 45.0536 156.54C45.1403 156.54 45.2119 156.568 45.2686 156.625C45.3286 156.682 45.3586 156.752 45.3586 156.835C45.3586 156.918 45.3286 156.988 45.2686 157.045C45.2119 157.102 45.1403 157.13 45.0536 157.13ZM44.7986 157.6H45.3136V160H44.7986V157.6ZM47.0086 157.6H47.4986V157.945C47.6119 157.802 47.7503 157.697 47.9136 157.63C48.0803 157.56 48.2536 157.525 48.4336 157.525C48.7536 157.525 48.9919 157.61 49.1486 157.78C49.3053 157.95 49.3836 158.178 49.3836 158.465V160H48.8786V158.515C48.8786 158.125 48.6919 157.93 48.3186 157.93C48.1586 157.93 48.0086 157.968 47.8686 158.045C47.7319 158.118 47.6136 158.232 47.5136 158.385V160H47.0086V157.6ZM52.2616 161.15C52.0983 161.15 51.9383 161.137 51.7816 161.11C51.6283 161.083 51.4983 161.045 51.3916 160.995V160.58C51.6416 160.693 51.9316 160.75 52.2616 160.75C52.5716 160.75 52.7966 160.682 52.9366 160.545C53.08 160.412 53.1516 160.208 53.1516 159.935V159.68C52.9316 159.943 52.6083 160.075 52.1816 160.075C51.9383 160.075 51.72 160.022 51.5266 159.915C51.3333 159.808 51.1816 159.658 51.0716 159.465C50.9616 159.272 50.9066 159.05 50.9066 158.8C50.9066 158.547 50.96 158.325 51.0666 158.135C51.1766 157.942 51.3266 157.792 51.5166 157.685C51.71 157.578 51.9266 157.525 52.1666 157.525C52.39 157.525 52.5783 157.558 52.7316 157.625C52.8883 157.688 53.0333 157.795 53.1666 157.945V157.6H53.6566V159.88C53.6566 160.29 53.5416 160.603 53.3116 160.82C53.085 161.04 52.735 161.15 52.2616 161.15ZM52.2816 159.675C52.4883 159.675 52.67 159.62 52.8266 159.51C52.9866 159.4 53.095 159.253 53.1516 159.07V158.53C53.0883 158.343 52.9783 158.197 52.8216 158.09C52.6683 157.983 52.4883 157.93 52.2816 157.93C52.1183 157.93 51.97 157.967 51.8366 158.04C51.7066 158.11 51.6033 158.212 51.5266 158.345C51.4533 158.478 51.4166 158.63 51.4166 158.8C51.4166 158.973 51.4533 159.127 51.5266 159.26C51.6033 159.39 51.7066 159.492 51.8366 159.565C51.97 159.638 52.1183 159.675 52.2816 159.675ZM59.083 160.075C58.8397 160.075 58.6513 160.005 58.518 159.865C58.388 159.725 58.323 159.527 58.323 159.27V157.99H57.958V157.6H58.323V156.88H58.833V157.6H59.423V157.99H58.833V159.235C58.833 159.395 58.863 159.508 58.923 159.575C58.9863 159.642 59.0997 159.675 59.263 159.675C59.3597 159.675 59.4563 159.653 59.553 159.61V160.01C59.4263 160.053 59.2697 160.075 59.083 160.075ZM61.0281 156.305H61.5331V157.93C61.7631 157.66 62.0698 157.525 62.4531 157.525C62.7731 157.525 63.0115 157.61 63.1681 157.78C63.3248 157.95 63.4031 158.178 63.4031 158.465V160H62.8981V158.515C62.8981 158.125 62.7115 157.93 62.3381 157.93C62.1781 157.93 62.0281 157.968 61.8881 158.045C61.7515 158.118 61.6331 158.232 61.5331 158.385V160H61.0281V156.305ZM65.3212 157.13C65.2378 157.13 65.1678 157.102 65.1112 157.045C65.0545 156.988 65.0262 156.918 65.0262 156.835C65.0262 156.752 65.0545 156.682 65.1112 156.625C65.1678 156.568 65.2378 156.54 65.3212 156.54C65.4078 156.54 65.4795 156.568 65.5362 156.625C65.5962 156.682 65.6262 156.752 65.6262 156.835C65.6262 156.918 65.5962 156.988 65.5362 157.045C65.4795 157.102 65.4078 157.13 65.3212 157.13ZM65.0662 157.6H65.5812V160H65.0662V157.6ZM68.1612 160.075C67.9945 160.075 67.8178 160.053 67.6312 160.01C67.4445 159.97 67.2978 159.915 67.1912 159.845V159.415C67.3212 159.492 67.4712 159.555 67.6412 159.605C67.8112 159.652 67.9762 159.675 68.1362 159.675C68.3162 159.675 68.4478 159.653 68.5312 159.61C68.6145 159.567 68.6562 159.497 68.6562 159.4C68.6562 159.327 68.6362 159.268 68.5962 159.225C68.5595 159.178 68.4945 159.137 68.4012 159.1C68.3112 159.063 68.1745 159.02 67.9912 158.97C67.7945 158.913 67.6378 158.857 67.5212 158.8C67.4078 158.74 67.3212 158.665 67.2612 158.575C67.2045 158.485 67.1762 158.368 67.1762 158.225C67.1762 157.995 67.2662 157.822 67.4462 157.705C67.6295 157.585 67.8745 157.525 68.1812 157.525C68.3412 157.525 68.4978 157.54 68.6512 157.57C68.8045 157.6 68.9278 157.642 69.0212 157.695V158.115C68.9245 158.058 68.8045 158.013 68.6612 157.98C68.5212 157.947 68.3778 157.93 68.2312 157.93C68.0545 157.93 67.9195 157.952 67.8262 157.995C67.7328 158.038 67.6862 158.115 67.6862 158.225C67.6862 158.295 67.7062 158.352 67.7462 158.395C67.7862 158.438 67.8495 158.477 67.9362 158.51C68.0262 158.54 68.1678 158.58 68.3612 158.63C68.6645 158.713 68.8745 158.812 68.9912 158.925C69.1112 159.038 69.1712 159.195 69.1712 159.395C69.1712 159.602 69.0862 159.767 68.9162 159.89C68.7462 160.013 68.4945 160.075 68.1612 160.075ZM73.868 157.13C73.7847 157.13 73.7147 157.102 73.658 157.045C73.6014 156.988 73.573 156.918 73.573 156.835C73.573 156.752 73.6014 156.682 73.658 156.625C73.7147 156.568 73.7847 156.54 73.868 156.54C73.9547 156.54 74.0264 156.568 74.083 156.625C74.143 156.682 74.173 156.752 74.173 156.835C74.173 156.918 74.143 156.988 74.083 157.045C74.0264 157.102 73.9547 157.13 73.868 157.13ZM73.613 157.6H74.128V160H73.613V157.6ZM75.823 157.6H76.313V157.945C76.4264 157.802 76.5647 157.697 76.728 157.63C76.8947 157.56 77.068 157.525 77.248 157.525C77.568 157.525 77.8064 157.61 77.963 157.78C78.1197 157.95 78.198 158.178 78.198 158.465V160H77.693V158.515C77.693 158.125 77.5064 157.93 77.133 157.93C76.973 157.93 76.823 157.968 76.683 158.045C76.5464 158.118 76.428 158.232 76.328 158.385V160H75.823V157.6ZM83.1817 160.99C83.0017 160.99 82.8517 160.972 82.7317 160.935V160.54C82.8183 160.573 82.925 160.59 83.0517 160.59C83.1683 160.59 83.26 160.56 83.3267 160.5C83.3933 160.443 83.4533 160.35 83.5067 160.22L83.6217 159.94L82.5717 157.6H83.0917L83.8917 159.445L84.6367 157.6H85.1567L84.0767 160.27C83.9767 160.52 83.8567 160.702 83.7167 160.815C83.58 160.932 83.4017 160.99 83.1817 160.99ZM87.5441 160.075C87.2741 160.075 87.0358 160.025 86.8291 159.925C86.6258 159.822 86.4658 159.675 86.3491 159.485C86.2358 159.292 86.1791 159.065 86.1791 158.805C86.1791 158.548 86.2358 158.323 86.3491 158.13C86.4624 157.937 86.6224 157.788 86.8291 157.685C87.0358 157.578 87.2741 157.525 87.5441 157.525C87.8141 157.525 88.0524 157.578 88.2591 157.685C88.4658 157.788 88.6258 157.937 88.7391 158.13C88.8558 158.323 88.9141 158.548 88.9141 158.805C88.9141 159.065 88.8558 159.292 88.7391 159.485C88.6258 159.675 88.4658 159.822 88.2591 159.925C88.0524 160.025 87.8141 160.075 87.5441 160.075ZM87.5441 159.675C87.8041 159.675 88.0108 159.595 88.1641 159.435C88.3174 159.275 88.3941 159.065 88.3941 158.805C88.3941 158.535 88.3174 158.322 88.1641 158.165C88.0108 158.008 87.8041 157.93 87.5441 157.93C87.2841 157.93 87.0774 158.008 86.9241 158.165C86.7708 158.322 86.6941 158.535 86.6941 158.805C86.6941 159.065 86.7708 159.275 86.9241 159.435C87.0774 159.595 87.2841 159.675 87.5441 159.675ZM91.4177 160.075C91.0944 160.075 90.8494 159.988 90.6827 159.815C90.5194 159.642 90.4377 159.41 90.4377 159.12V157.6H90.9427V159.1C90.9427 159.483 91.1344 159.675 91.5177 159.675C91.8544 159.675 92.1177 159.523 92.3077 159.22V157.6H92.8127V160H92.3227V159.66C92.2094 159.803 92.0744 159.908 91.9177 159.975C91.7644 160.042 91.5977 160.075 91.4177 160.075ZM94.4607 157.6H94.9507V158.03C95.0507 157.883 95.1907 157.775 95.3707 157.705C95.5541 157.635 95.7657 157.6 96.0057 157.6V157.995C95.7491 157.995 95.5291 158.037 95.3457 158.12C95.1624 158.203 95.0357 158.335 94.9657 158.515V160H94.4607V157.6ZM17.325 165.6H17.815V165.955C18.0617 165.668 18.395 165.525 18.815 165.525C19.055 165.525 19.27 165.578 19.46 165.685C19.6533 165.792 19.8033 165.942 19.91 166.135C20.02 166.325 20.075 166.547 20.075 166.8C20.075 167.05 20.02 167.272 19.91 167.465C19.8033 167.658 19.655 167.808 19.465 167.915C19.275 168.022 19.0583 168.075 18.815 168.075C18.615 168.075 18.4283 168.042 18.255 167.975C18.0817 167.908 17.94 167.81 17.83 167.68V169.095H17.325V165.6ZM18.7 167.675C18.8633 167.675 19.01 167.64 19.14 167.57C19.2733 167.497 19.3767 167.393 19.45 167.26C19.5267 167.127 19.565 166.973 19.565 166.8C19.565 166.627 19.5267 166.475 19.45 166.345C19.3767 166.212 19.2733 166.11 19.14 166.04C19.01 165.967 18.8633 165.93 18.7 165.93C18.4967 165.93 18.3167 165.983 18.16 166.09C18.0067 166.197 17.8967 166.343 17.83 166.53V167.07C17.8867 167.253 17.995 167.4 18.155 167.51C18.315 167.62 18.4967 167.675 18.7 167.675ZM22.7638 168.075C22.4938 168.075 22.2555 168.025 22.0488 167.925C21.8455 167.822 21.6855 167.675 21.5688 167.485C21.4555 167.292 21.3988 167.065 21.3988 166.805C21.3988 166.548 21.4555 166.323 21.5688 166.13C21.6822 165.937 21.8422 165.788 22.0488 165.685C22.2555 165.578 22.4938 165.525 22.7638 165.525C23.0338 165.525 23.2722 165.578 23.4788 165.685C23.6855 165.788 23.8455 165.937 23.9588 166.13C24.0755 166.323 24.1338 166.548 24.1338 166.805C24.1338 167.065 24.0755 167.292 23.9588 167.485C23.8455 167.675 23.6855 167.822 23.4788 167.925C23.2722 168.025 23.0338 168.075 22.7638 168.075ZM22.7638 167.675C23.0238 167.675 23.2305 167.595 23.3838 167.435C23.5372 167.275 23.6138 167.065 23.6138 166.805C23.6138 166.535 23.5372 166.322 23.3838 166.165C23.2305 166.008 23.0238 165.93 22.7638 165.93C22.5038 165.93 22.2972 166.008 22.1438 166.165C21.9905 166.322 21.9138 166.535 21.9138 166.805C21.9138 167.065 21.9905 167.275 22.1438 167.435C22.2972 167.595 22.5038 167.675 22.7638 167.675ZM26.4405 168.075C26.2738 168.075 26.0971 168.053 25.9105 168.01C25.7238 167.97 25.5771 167.915 25.4705 167.845V167.415C25.6005 167.492 25.7505 167.555 25.9205 167.605C26.0905 167.652 26.2555 167.675 26.4155 167.675C26.5955 167.675 26.7271 167.653 26.8105 167.61C26.8938 167.567 26.9355 167.497 26.9355 167.4C26.9355 167.327 26.9155 167.268 26.8755 167.225C26.8388 167.178 26.7738 167.137 26.6805 167.1C26.5905 167.063 26.4538 167.02 26.2705 166.97C26.0738 166.913 25.9171 166.857 25.8005 166.8C25.6871 166.74 25.6005 166.665 25.5405 166.575C25.4838 166.485 25.4555 166.368 25.4555 166.225C25.4555 165.995 25.5455 165.822 25.7255 165.705C25.9088 165.585 26.1538 165.525 26.4605 165.525C26.6205 165.525 26.7771 165.54 26.9305 165.57C27.0838 165.6 27.2071 165.642 27.3005 165.695V166.115C27.2038 166.058 27.0838 166.013 26.9405 165.98C26.8005 165.947 26.6571 165.93 26.5105 165.93C26.3338 165.93 26.1988 165.952 26.1055 165.995C26.0121 166.038 25.9655 166.115 25.9655 166.225C25.9655 166.295 25.9855 166.352 26.0255 166.395C26.0655 166.438 26.1288 166.477 26.2155 166.51C26.3055 166.54 26.4471 166.58 26.6405 166.63C26.9438 166.713 27.1538 166.812 27.2705 166.925C27.3905 167.038 27.4505 167.195 27.4505 167.395C27.4505 167.602 27.3655 167.767 27.1955 167.89C27.0255 168.013 26.7738 168.075 26.4405 168.075ZM29.7598 168.075C29.5931 168.075 29.4165 168.053 29.2298 168.01C29.0431 167.97 28.8965 167.915 28.7898 167.845V167.415C28.9198 167.492 29.0698 167.555 29.2398 167.605C29.4098 167.652 29.5748 167.675 29.7348 167.675C29.9148 167.675 30.0465 167.653 30.1298 167.61C30.2131 167.567 30.2548 167.497 30.2548 167.4C30.2548 167.327 30.2348 167.268 30.1948 167.225C30.1581 167.178 30.0931 167.137 29.9998 167.1C29.9098 167.063 29.7731 167.02 29.5898 166.97C29.3931 166.913 29.2365 166.857 29.1198 166.8C29.0065 166.74 28.9198 166.665 28.8598 166.575C28.8031 166.485 28.7748 166.368 28.7748 166.225C28.7748 165.995 28.8648 165.822 29.0448 165.705C29.2281 165.585 29.4731 165.525 29.7798 165.525C29.9398 165.525 30.0965 165.54 30.2498 165.57C30.4031 165.6 30.5265 165.642 30.6198 165.695V166.115C30.5231 166.058 30.4031 166.013 30.2598 165.98C30.1198 165.947 29.9765 165.93 29.8298 165.93C29.6531 165.93 29.5181 165.952 29.4248 165.995C29.3315 166.038 29.2848 166.115 29.2848 166.225C29.2848 166.295 29.3048 166.352 29.3448 166.395C29.3848 166.438 29.4481 166.477 29.5348 166.51C29.6248 166.54 29.7665 166.58 29.9598 166.63C30.2631 166.713 30.4731 166.812 30.5898 166.925C30.7098 167.038 30.7698 167.195 30.7698 167.395C30.7698 167.602 30.6848 167.767 30.5148 167.89C30.3448 168.013 30.0931 168.075 29.7598 168.075ZM33.6411 168.075C33.1978 168.075 32.8494 167.965 32.5961 167.745C32.3461 167.522 32.2211 167.208 32.2211 166.805C32.2211 166.412 32.3328 166.1 32.5561 165.87C32.7828 165.64 33.1044 165.525 33.5211 165.525C33.7978 165.525 34.0328 165.578 34.2261 165.685C34.4194 165.788 34.5644 165.933 34.6611 166.12C34.7611 166.303 34.8111 166.513 34.8111 166.75V167H32.7011C32.7178 167.227 32.8128 167.397 32.9861 167.51C33.1628 167.62 33.4011 167.675 33.7011 167.675C33.8544 167.675 34.0094 167.662 34.1661 167.635C34.3228 167.605 34.4611 167.567 34.5811 167.52V167.925C34.4744 167.968 34.3328 168.003 34.1561 168.03C33.9828 168.06 33.8111 168.075 33.6411 168.075ZM34.3361 166.645C34.3294 166.418 34.2544 166.243 34.1111 166.12C33.9711 165.993 33.7711 165.93 33.5111 165.93C33.2578 165.93 33.0611 165.995 32.9211 166.125C32.7811 166.255 32.7078 166.428 32.7011 166.645H34.3361ZM37.2481 168.075C37.0814 168.075 36.9048 168.053 36.7181 168.01C36.5314 167.97 36.3848 167.915 36.2781 167.845V167.415C36.4081 167.492 36.5581 167.555 36.7281 167.605C36.8981 167.652 37.0631 167.675 37.2231 167.675C37.4031 167.675 37.5348 167.653 37.6181 167.61C37.7014 167.567 37.7431 167.497 37.7431 167.4C37.7431 167.327 37.7231 167.268 37.6831 167.225C37.6464 167.178 37.5814 167.137 37.4881 167.1C37.3981 167.063 37.2614 167.02 37.0781 166.97C36.8814 166.913 36.7248 166.857 36.6081 166.8C36.4948 166.74 36.4081 166.665 36.3481 166.575C36.2914 166.485 36.2631 166.368 36.2631 166.225C36.2631 165.995 36.3531 165.822 36.5331 165.705C36.7164 165.585 36.9614 165.525 37.2681 165.525C37.4281 165.525 37.5848 165.54 37.7381 165.57C37.8914 165.6 38.0148 165.642 38.1081 165.695V166.115C38.0114 166.058 37.8914 166.013 37.7481 165.98C37.6081 165.947 37.4648 165.93 37.3181 165.93C37.1414 165.93 37.0064 165.952 36.9131 165.995C36.8198 166.038 36.7731 166.115 36.7731 166.225C36.7731 166.295 36.7931 166.352 36.8331 166.395C36.8731 166.438 36.9364 166.477 37.0231 166.51C37.1131 166.54 37.2548 166.58 37.4481 166.63C37.7514 166.713 37.9614 166.812 38.0781 166.925C38.1981 167.038 38.2581 167.195 38.2581 167.395C38.2581 167.602 38.1731 167.767 38.0031 167.89C37.8331 168.013 37.5814 168.075 37.2481 168.075ZM40.5674 168.075C40.4008 168.075 40.2241 168.053 40.0374 168.01C39.8508 167.97 39.7041 167.915 39.5974 167.845V167.415C39.7274 167.492 39.8774 167.555 40.0474 167.605C40.2174 167.652 40.3824 167.675 40.5424 167.675C40.7224 167.675 40.8541 167.653 40.9374 167.61C41.0208 167.567 41.0624 167.497 41.0624 167.4C41.0624 167.327 41.0424 167.268 41.0024 167.225C40.9658 167.178 40.9008 167.137 40.8074 167.1C40.7174 167.063 40.5808 167.02 40.3974 166.97C40.2008 166.913 40.0441 166.857 39.9274 166.8C39.8141 166.74 39.7274 166.665 39.6674 166.575C39.6108 166.485 39.5824 166.368 39.5824 166.225C39.5824 165.995 39.6724 165.822 39.8524 165.705C40.0358 165.585 40.2808 165.525 40.5874 165.525C40.7474 165.525 40.9041 165.54 41.0574 165.57C41.2108 165.6 41.3341 165.642 41.4274 165.695V166.115C41.3308 166.058 41.2108 166.013 41.0674 165.98C40.9274 165.947 40.7841 165.93 40.6374 165.93C40.4608 165.93 40.3258 165.952 40.2324 165.995C40.1391 166.038 40.0924 166.115 40.0924 166.225C40.0924 166.295 40.1124 166.352 40.1524 166.395C40.1924 166.438 40.2558 166.477 40.3424 166.51C40.4324 166.54 40.5741 166.58 40.7674 166.63C41.0708 166.713 41.2808 166.812 41.3974 166.925C41.5174 167.038 41.5774 167.195 41.5774 167.395C41.5774 167.602 41.4924 167.767 41.3224 167.89C41.1524 168.013 40.9008 168.075 40.5674 168.075ZM43.4237 165.13C43.3404 165.13 43.2704 165.102 43.2137 165.045C43.157 164.988 43.1287 164.918 43.1287 164.835C43.1287 164.752 43.157 164.682 43.2137 164.625C43.2704 164.568 43.3404 164.54 43.4237 164.54C43.5104 164.54 43.582 164.568 43.6387 164.625C43.6987 164.682 43.7287 164.752 43.7287 164.835C43.7287 164.918 43.6987 164.988 43.6387 165.045C43.582 165.102 43.5104 165.13 43.4237 165.13ZM43.1687 165.6H43.6837V168H43.1687V165.6ZM46.6437 168.075C46.3737 168.075 46.1354 168.025 45.9287 167.925C45.7254 167.822 45.5654 167.675 45.4487 167.485C45.3354 167.292 45.2787 167.065 45.2787 166.805C45.2787 166.548 45.3354 166.323 45.4487 166.13C45.562 165.937 45.722 165.788 45.9287 165.685C46.1354 165.578 46.3737 165.525 46.6437 165.525C46.9137 165.525 47.152 165.578 47.3587 165.685C47.5654 165.788 47.7254 165.937 47.8387 166.13C47.9554 166.323 48.0137 166.548 48.0137 166.805C48.0137 167.065 47.9554 167.292 47.8387 167.485C47.7254 167.675 47.5654 167.822 47.3587 167.925C47.152 168.025 46.9137 168.075 46.6437 168.075ZM46.6437 167.675C46.9037 167.675 47.1104 167.595 47.2637 167.435C47.417 167.275 47.4937 167.065 47.4937 166.805C47.4937 166.535 47.417 166.322 47.2637 166.165C47.1104 166.008 46.9037 165.93 46.6437 165.93C46.3837 165.93 46.177 166.008 46.0237 166.165C45.8704 166.322 45.7937 166.535 45.7937 166.805C45.7937 167.065 45.8704 167.275 46.0237 167.435C46.177 167.595 46.3837 167.675 46.6437 167.675ZM49.5623 165.6H50.0523V165.945C50.1656 165.802 50.304 165.697 50.4673 165.63C50.634 165.56 50.8073 165.525 50.9873 165.525C51.3073 165.525 51.5456 165.61 51.7023 165.78C51.859 165.95 51.9373 166.178 51.9373 166.465V168H51.4323V166.515C51.4323 166.125 51.2456 165.93 50.8723 165.93C50.7123 165.93 50.5623 165.968 50.4223 166.045C50.2856 166.118 50.1673 166.232 50.0673 166.385V168H49.5623V165.6ZM56.4109 165.6H56.9009V166.03C57.0009 165.883 57.1409 165.775 57.3209 165.705C57.5043 165.635 57.7159 165.6 57.9559 165.6V165.995C57.6993 165.995 57.4793 166.037 57.2959 166.12C57.1126 166.203 56.9859 166.335 56.9159 166.515V168H56.4109V165.6ZM60.5766 168.075C60.1333 168.075 59.785 167.965 59.5316 167.745C59.2816 167.522 59.1566 167.208 59.1566 166.805C59.1566 166.412 59.2683 166.1 59.4916 165.87C59.7183 165.64 60.04 165.525 60.4566 165.525C60.7333 165.525 60.9683 165.578 61.1616 165.685C61.355 165.788 61.5 165.933 61.5966 166.12C61.6966 166.303 61.7466 166.513 61.7466 166.75V167H59.6366C59.6533 167.227 59.7483 167.397 59.9216 167.51C60.0983 167.62 60.3366 167.675 60.6366 167.675C60.79 167.675 60.945 167.662 61.1016 167.635C61.2583 167.605 61.3966 167.567 61.5166 167.52V167.925C61.41 167.968 61.2683 168.003 61.0916 168.03C60.9183 168.06 60.7466 168.075 60.5766 168.075ZM61.2716 166.645C61.265 166.418 61.19 166.243 61.0466 166.12C60.9066 165.993 60.7066 165.93 60.4466 165.93C60.1933 165.93 59.9966 165.995 59.8566 166.125C59.7166 166.255 59.6433 166.428 59.6366 166.645H61.2716ZM65.4436 167.68C65.3336 167.81 65.192 167.908 65.0186 167.975C64.8453 168.042 64.6586 168.075 64.4586 168.075C64.2153 168.075 63.9986 168.022 63.8086 167.915C63.6186 167.808 63.4686 167.658 63.3586 167.465C63.252 167.272 63.1986 167.05 63.1986 166.8C63.1986 166.547 63.252 166.325 63.3586 166.135C63.4686 165.942 63.6186 165.792 63.8086 165.685C64.002 165.578 64.2186 165.525 64.4586 165.525C64.8786 165.525 65.212 165.668 65.4586 165.955V165.6H65.9486V169.095H65.4436V167.68ZM64.5736 167.675C64.777 167.675 64.9586 167.62 65.1186 167.51C65.2786 167.4 65.387 167.253 65.4436 167.07V166.53C65.377 166.343 65.2653 166.197 65.1086 166.09C64.9553 165.983 64.777 165.93 64.5736 165.93C64.4103 165.93 64.262 165.967 64.1286 166.04C63.9986 166.11 63.8953 166.212 63.8186 166.345C63.7453 166.475 63.7086 166.627 63.7086 166.8C63.7086 166.973 63.7453 167.127 63.8186 167.26C63.8953 167.393 63.9986 167.497 64.1286 167.57C64.262 167.64 64.4103 167.675 64.5736 167.675ZM68.5544 168.075C68.2311 168.075 67.9861 167.988 67.8194 167.815C67.6561 167.642 67.5744 167.41 67.5744 167.12V165.6H68.0794V167.1C68.0794 167.483 68.2711 167.675 68.6544 167.675C68.9911 167.675 69.2544 167.523 69.4444 167.22V165.6H69.9494V168H69.4594V167.66C69.3461 167.803 69.2111 167.908 69.0544 167.975C68.9011 168.042 68.7344 168.075 68.5544 168.075ZM71.8925 165.13C71.8091 165.13 71.7391 165.102 71.6825 165.045C71.6258 164.988 71.5975 164.918 71.5975 164.835C71.5975 164.752 71.6258 164.682 71.6825 164.625C71.7391 164.568 71.8091 164.54 71.8925 164.54C71.9791 164.54 72.0508 164.568 72.1075 164.625C72.1675 164.682 72.1975 164.752 72.1975 164.835C72.1975 164.918 72.1675 164.988 72.1075 165.045C72.0508 165.102 71.9791 165.13 71.8925 165.13ZM71.6375 165.6H72.1525V168H71.6375V165.6ZM73.8475 165.6H74.3375V166.03C74.4375 165.883 74.5775 165.775 74.7575 165.705C74.9408 165.635 75.1525 165.6 75.3925 165.6V165.995C75.1358 165.995 74.9158 166.037 74.7325 166.12C74.5491 166.203 74.4225 166.335 74.3525 166.515V168H73.8475V165.6ZM78.0132 168.075C77.5698 168.075 77.2215 167.965 76.9682 167.745C76.7182 167.522 76.5932 167.208 76.5932 166.805C76.5932 166.412 76.7048 166.1 76.9282 165.87C77.1548 165.64 77.4765 165.525 77.8932 165.525C78.1698 165.525 78.4048 165.578 78.5982 165.685C78.7915 165.788 78.9365 165.933 79.0332 166.12C79.1332 166.303 79.1832 166.513 79.1832 166.75V167H77.0732C77.0898 167.227 77.1848 167.397 77.3582 167.51C77.5348 167.62 77.7732 167.675 78.0732 167.675C78.2265 167.675 78.3815 167.662 78.5382 167.635C78.6948 167.605 78.8332 167.567 78.9532 167.52V167.925C78.8465 167.968 78.7048 168.003 78.5282 168.03C78.3548 168.06 78.1832 168.075 78.0132 168.075ZM78.7082 166.645C78.7015 166.418 78.6265 166.243 78.4832 166.12C78.3432 165.993 78.1432 165.93 77.8832 165.93C77.6298 165.93 77.4332 165.995 77.2932 166.125C77.1532 166.255 77.0798 166.428 77.0732 166.645H78.7082ZM81.6202 168.075C81.4535 168.075 81.2768 168.053 81.0902 168.01C80.9035 167.97 80.7568 167.915 80.6502 167.845V167.415C80.7802 167.492 80.9302 167.555 81.1002 167.605C81.2702 167.652 81.4352 167.675 81.5952 167.675C81.7752 167.675 81.9068 167.653 81.9902 167.61C82.0735 167.567 82.1152 167.497 82.1152 167.4C82.1152 167.327 82.0952 167.268 82.0552 167.225C82.0185 167.178 81.9535 167.137 81.8602 167.1C81.7702 167.063 81.6335 167.02 81.4502 166.97C81.2535 166.913 81.0968 166.857 80.9802 166.8C80.8668 166.74 80.7802 166.665 80.7202 166.575C80.6635 166.485 80.6352 166.368 80.6352 166.225C80.6352 165.995 80.7252 165.822 80.9052 165.705C81.0885 165.585 81.3335 165.525 81.6402 165.525C81.8002 165.525 81.9568 165.54 82.1102 165.57C82.2635 165.6 82.3868 165.642 82.4802 165.695V166.115C82.3835 166.058 82.2635 166.013 82.1202 165.98C81.9802 165.947 81.8368 165.93 81.6902 165.93C81.5135 165.93 81.3785 165.952 81.2852 165.995C81.1918 166.038 81.1452 166.115 81.1452 166.225C81.1452 166.295 81.1652 166.352 81.2052 166.395C81.2452 166.438 81.3085 166.477 81.3952 166.51C81.4852 166.54 81.6268 166.58 81.8202 166.63C82.1235 166.713 82.3335 166.812 82.4502 166.925C82.5702 167.038 82.6302 167.195 82.6302 167.395C82.6302 167.602 82.5452 167.767 82.3752 167.89C82.2052 168.013 81.9535 168.075 81.6202 168.075ZM87.892 168.075C87.602 168.075 87.3687 168.002 87.192 167.855C87.0187 167.705 86.932 167.503 86.932 167.25C86.932 166.983 87.0154 166.778 87.182 166.635C87.352 166.488 87.592 166.415 87.902 166.415C88.232 166.415 88.512 166.482 88.742 166.615V166.49C88.742 166.3 88.6837 166.16 88.567 166.07C88.4537 165.977 88.2737 165.93 88.027 165.93C87.8804 165.93 87.737 165.945 87.597 165.975C87.4604 166.002 87.337 166.04 87.227 166.09V165.68C87.327 165.633 87.457 165.597 87.617 165.57C87.777 165.54 87.932 165.525 88.082 165.525C88.4787 165.525 88.772 165.613 88.962 165.79C89.1554 165.963 89.252 166.205 89.252 166.515V168H88.777V167.73C88.6737 167.843 88.5504 167.93 88.407 167.99C88.267 168.047 88.0954 168.075 87.892 168.075ZM88.017 167.69C88.177 167.69 88.322 167.658 88.452 167.595C88.582 167.532 88.6787 167.443 88.742 167.33V167.005C88.5254 166.865 88.2837 166.795 88.017 166.795C87.8237 166.795 87.6787 166.833 87.582 166.91C87.4887 166.983 87.442 167.097 87.442 167.25C87.442 167.543 87.6337 167.69 88.017 167.69ZM90.8787 164.305H91.3837V168H90.8787V164.305ZM93.0359 164.305H93.5409V168H93.0359V164.305ZM98.2088 165.99H97.8438V165.6H98.2088V165.145C98.2088 164.868 98.2971 164.655 98.4738 164.505C98.6504 164.355 98.8704 164.28 99.1338 164.28C99.2671 164.28 99.3971 164.3 99.5238 164.34V164.75C99.4304 164.713 99.3338 164.695 99.2338 164.695C99.0638 164.695 98.9338 164.737 98.8438 164.82C98.7571 164.9 98.7138 165.018 98.7138 165.175V165.6H100.334V168H99.8288V165.99H98.7138V168H98.2088V165.99ZM100.079 165.13C99.9921 165.13 99.9204 165.102 99.8638 165.045C99.8071 164.988 99.7788 164.918 99.7788 164.835C99.7788 164.752 99.8071 164.682 99.8638 164.625C99.9238 164.568 99.9954 164.54 100.079 164.54C100.162 164.54 100.232 164.568 100.289 164.625C100.349 164.682 100.379 164.752 100.379 164.835C100.379 164.918 100.349 164.988 100.289 165.045C100.232 165.102 100.162 165.13 100.079 165.13ZM102.912 168.075C102.745 168.075 102.569 168.053 102.382 168.01C102.195 167.97 102.049 167.915 101.942 167.845V167.415C102.072 167.492 102.222 167.555 102.392 167.605C102.562 167.652 102.727 167.675 102.887 167.675C103.067 167.675 103.199 167.653 103.282 167.61C103.365 167.567 103.407 167.497 103.407 167.4C103.407 167.327 103.387 167.268 103.347 167.225C103.31 167.178 103.245 167.137 103.152 167.1C103.062 167.063 102.925 167.02 102.742 166.97C102.545 166.913 102.389 166.857 102.272 166.8C102.159 166.74 102.072 166.665 102.012 166.575C101.955 166.485 101.927 166.368 101.927 166.225C101.927 165.995 102.017 165.822 102.197 165.705C102.38 165.585 102.625 165.525 102.932 165.525C103.092 165.525 103.249 165.54 103.402 165.57C103.555 165.6 103.679 165.642 103.772 165.695V166.115C103.675 166.058 103.555 166.013 103.412 165.98C103.272 165.947 103.129 165.93 102.982 165.93C102.805 165.93 102.67 165.952 102.577 165.995C102.484 166.038 102.437 166.115 102.437 166.225C102.437 166.295 102.457 166.352 102.497 166.395C102.537 166.438 102.6 166.477 102.687 166.51C102.777 166.54 102.919 166.58 103.112 166.63C103.415 166.713 103.625 166.812 103.742 166.925C103.862 167.038 103.922 167.195 103.922 167.395C103.922 167.602 103.837 167.767 103.667 167.89C103.497 168.013 103.245 168.075 102.912 168.075ZM105.473 164.305H105.978V165.93C106.208 165.66 106.515 165.525 106.898 165.525C107.218 165.525 107.457 165.61 107.613 165.78C107.77 165.95 107.848 166.178 107.848 166.465V168H107.343V166.515C107.343 166.125 107.157 165.93 106.783 165.93C106.623 165.93 106.473 165.968 106.333 166.045C106.197 166.118 106.078 166.232 105.978 166.385V168H105.473V164.305ZM109.776 167.735H110.306L109.831 168.74H109.371L109.776 167.735ZM17.62 173.13C17.5367 173.13 17.4667 173.102 17.41 173.045C17.3533 172.988 17.325 172.918 17.325 172.835C17.325 172.752 17.3533 172.682 17.41 172.625C17.4667 172.568 17.5367 172.54 17.62 172.54C17.7067 172.54 17.7783 172.568 17.835 172.625C17.895 172.682 17.925 172.752 17.925 172.835C17.925 172.918 17.895 172.988 17.835 173.045C17.7783 173.102 17.7067 173.13 17.62 173.13ZM17.365 173.6H17.88V176H17.365V173.6ZM19.575 173.6H20.065V173.945C20.1783 173.802 20.3167 173.697 20.48 173.63C20.6467 173.56 20.82 173.525 21 173.525C21.32 173.525 21.5583 173.61 21.715 173.78C21.8717 173.95 21.95 174.178 21.95 174.465V176H21.445V174.515C21.445 174.125 21.2583 173.93 20.885 173.93C20.725 173.93 20.575 173.968 20.435 174.045C20.2983 174.118 20.18 174.232 20.08 174.385V176H19.575V173.6ZM24.838 176.075C24.5714 176.075 24.3347 176.025 24.128 175.925C23.9214 175.825 23.7597 175.68 23.643 175.49C23.5297 175.297 23.473 175.068 23.473 174.805C23.473 174.542 23.5297 174.315 23.643 174.125C23.7597 173.932 23.9214 173.783 24.128 173.68C24.338 173.577 24.578 173.525 24.848 173.525C25.2147 173.525 25.508 173.597 25.728 173.74V174.155C25.5114 174.005 25.2347 173.93 24.898 173.93C24.6247 173.93 24.403 174.005 24.233 174.155C24.0664 174.302 23.983 174.518 23.983 174.805C23.983 175.092 24.0664 175.308 24.233 175.455C24.3997 175.602 24.618 175.675 24.888 175.675C25.2247 175.675 25.5147 175.595 25.758 175.435V175.845C25.6414 175.925 25.508 175.983 25.358 176.02C25.2114 176.057 25.038 176.075 24.838 176.075ZM27.3074 172.305H27.8124V176H27.3074V172.305ZM30.4196 176.075C30.0963 176.075 29.8513 175.988 29.6846 175.815C29.5213 175.642 29.4396 175.41 29.4396 175.12V173.6H29.9446V175.1C29.9446 175.483 30.1363 175.675 30.5196 175.675C30.8563 175.675 31.1196 175.523 31.3096 175.22V173.6H31.8146V176H31.3246V175.66C31.2113 175.803 31.0763 175.908 30.9196 175.975C30.7663 176.042 30.5996 176.075 30.4196 176.075ZM34.6227 176.075C34.3827 176.075 34.166 176.023 33.9727 175.92C33.7827 175.813 33.6327 175.665 33.5227 175.475C33.416 175.282 33.3627 175.058 33.3627 174.805C33.3627 174.555 33.416 174.333 33.5227 174.14C33.6327 173.947 33.7827 173.797 33.9727 173.69C34.166 173.58 34.3827 173.525 34.6227 173.525C35.056 173.525 35.3844 173.657 35.6077 173.92V172.305H36.1127V176H35.6227V175.65C35.4894 175.797 35.3427 175.905 35.1827 175.975C35.026 176.042 34.8394 176.075 34.6227 176.075ZM34.7377 175.675C34.9444 175.675 35.1244 175.622 35.2777 175.515C35.4344 175.405 35.5444 175.258 35.6077 175.075V174.535C35.551 174.352 35.4427 174.205 35.2827 174.095C35.126 173.985 34.9444 173.93 34.7377 173.93C34.5744 173.93 34.426 173.967 34.2927 174.04C34.1627 174.113 34.0594 174.217 33.9827 174.35C33.9094 174.483 33.8727 174.635 33.8727 174.805C33.8727 174.975 33.9094 175.127 33.9827 175.26C34.0594 175.393 34.1627 175.497 34.2927 175.57C34.426 175.64 34.5744 175.675 34.7377 175.675ZM38.0585 173.13C37.9751 173.13 37.9051 173.102 37.8485 173.045C37.7918 172.988 37.7635 172.918 37.7635 172.835C37.7635 172.752 37.7918 172.682 37.8485 172.625C37.9051 172.568 37.9751 172.54 38.0585 172.54C38.1451 172.54 38.2168 172.568 38.2735 172.625C38.3335 172.682 38.3635 172.752 38.3635 172.835C38.3635 172.918 38.3335 172.988 38.2735 173.045C38.2168 173.102 38.1451 173.13 38.0585 173.13ZM37.8035 173.6H38.3185V176H37.8035V173.6ZM40.0135 173.6H40.5035V173.945C40.6168 173.802 40.7551 173.697 40.9185 173.63C41.0851 173.56 41.2585 173.525 41.4385 173.525C41.7585 173.525 41.9968 173.61 42.1535 173.78C42.3101 173.95 42.3885 174.178 42.3885 174.465V176H41.8835V174.515C41.8835 174.125 41.6968 173.93 41.3235 173.93C41.1635 173.93 41.0135 173.968 40.8735 174.045C40.7368 174.118 40.6185 174.232 40.5185 174.385V176H40.0135V173.6ZM45.2665 177.15C45.1032 177.15 44.9432 177.137 44.7865 177.11C44.6332 177.083 44.5032 177.045 44.3965 176.995V176.58C44.6465 176.693 44.9365 176.75 45.2665 176.75C45.5765 176.75 45.8015 176.682 45.9415 176.545C46.0849 176.412 46.1565 176.208 46.1565 175.935V175.68C45.9365 175.943 45.6132 176.075 45.1865 176.075C44.9432 176.075 44.7249 176.022 44.5315 175.915C44.3382 175.808 44.1865 175.658 44.0765 175.465C43.9665 175.272 43.9115 175.05 43.9115 174.8C43.9115 174.547 43.9649 174.325 44.0715 174.135C44.1815 173.942 44.3315 173.792 44.5215 173.685C44.7149 173.578 44.9315 173.525 45.1715 173.525C45.3949 173.525 45.5832 173.558 45.7365 173.625C45.8932 173.688 46.0382 173.795 46.1715 173.945V173.6H46.6615V175.88C46.6615 176.29 46.5465 176.603 46.3165 176.82C46.0899 177.04 45.7399 177.15 45.2665 177.15ZM45.2865 175.675C45.4932 175.675 45.6749 175.62 45.8315 175.51C45.9915 175.4 46.0999 175.253 46.1565 175.07V174.53C46.0932 174.343 45.9832 174.197 45.8265 174.09C45.6732 173.983 45.4932 173.93 45.2865 173.93C45.1232 173.93 44.9749 173.967 44.8415 174.04C44.7115 174.11 44.6082 174.212 44.5315 174.345C44.4582 174.478 44.4215 174.63 44.4215 174.8C44.4215 174.973 44.4582 175.127 44.5315 175.26C44.6082 175.39 44.7115 175.492 44.8415 175.565C44.9749 175.638 45.1232 175.675 45.2865 175.675ZM51.6729 176.99C51.4929 176.99 51.3429 176.972 51.2229 176.935V176.54C51.3096 176.573 51.4162 176.59 51.5429 176.59C51.6596 176.59 51.7512 176.56 51.8179 176.5C51.8846 176.443 51.9446 176.35 51.9979 176.22L52.1129 175.94L51.0629 173.6H51.5829L52.3829 175.445L53.1279 173.6H53.6479L52.5679 176.27C52.4679 176.52 52.3479 176.702 52.2079 176.815C52.0712 176.932 51.8929 176.99 51.6729 176.99ZM56.0353 176.075C55.7653 176.075 55.527 176.025 55.3203 175.925C55.117 175.822 54.957 175.675 54.8403 175.485C54.727 175.292 54.6703 175.065 54.6703 174.805C54.6703 174.548 54.727 174.323 54.8403 174.13C54.9536 173.937 55.1136 173.788 55.3203 173.685C55.527 173.578 55.7653 173.525 56.0353 173.525C56.3053 173.525 56.5436 173.578 56.7503 173.685C56.957 173.788 57.117 173.937 57.2303 174.13C57.347 174.323 57.4053 174.548 57.4053 174.805C57.4053 175.065 57.347 175.292 57.2303 175.485C57.117 175.675 56.957 175.822 56.7503 175.925C56.5436 176.025 56.3053 176.075 56.0353 176.075ZM56.0353 175.675C56.2953 175.675 56.502 175.595 56.6553 175.435C56.8086 175.275 56.8853 175.065 56.8853 174.805C56.8853 174.535 56.8086 174.322 56.6553 174.165C56.502 174.008 56.2953 173.93 56.0353 173.93C55.7753 173.93 55.5686 174.008 55.4153 174.165C55.262 174.322 55.1853 174.535 55.1853 174.805C55.1853 175.065 55.262 175.275 55.4153 175.435C55.5686 175.595 55.7753 175.675 56.0353 175.675ZM59.9089 176.075C59.5856 176.075 59.3406 175.988 59.1739 175.815C59.0106 175.642 58.9289 175.41 58.9289 175.12V173.6H59.4339V175.1C59.4339 175.483 59.6256 175.675 60.0089 175.675C60.3456 175.675 60.6089 175.523 60.7989 175.22V173.6H61.3039V176H60.8139V175.66C60.7006 175.803 60.5656 175.908 60.4089 175.975C60.2556 176.042 60.0889 176.075 59.9089 176.075ZM62.952 173.6H63.442V174.03C63.542 173.883 63.682 173.775 63.862 173.705C64.0453 173.635 64.257 173.6 64.497 173.6V173.995C64.2403 173.995 64.0203 174.037 63.837 174.12C63.6536 174.203 63.527 174.335 63.457 174.515V176H62.952V173.6ZM66.7608 176.075C66.5941 176.075 66.4174 176.053 66.2308 176.01C66.0441 175.97 65.8974 175.915 65.7908 175.845V175.415C65.9208 175.492 66.0708 175.555 66.2408 175.605C66.4108 175.652 66.5758 175.675 66.7358 175.675C66.9158 175.675 67.0474 175.653 67.1308 175.61C67.2141 175.567 67.2558 175.497 67.2558 175.4C67.2558 175.327 67.2358 175.268 67.1958 175.225C67.1591 175.178 67.0941 175.137 67.0008 175.1C66.9108 175.063 66.7741 175.02 66.5908 174.97C66.3941 174.913 66.2374 174.857 66.1208 174.8C66.0074 174.74 65.9208 174.665 65.8608 174.575C65.8041 174.485 65.7758 174.368 65.7758 174.225C65.7758 173.995 65.8658 173.822 66.0458 173.705C66.2291 173.585 66.4741 173.525 66.7808 173.525C66.9408 173.525 67.0974 173.54 67.2508 173.57C67.4041 173.6 67.5274 173.642 67.6208 173.695V174.115C67.5241 174.058 67.4041 174.013 67.2608 173.98C67.1208 173.947 66.9774 173.93 66.8308 173.93C66.6541 173.93 66.5191 173.952 66.4258 173.995C66.3324 174.038 66.2858 174.115 66.2858 174.225C66.2858 174.295 66.3058 174.352 66.3458 174.395C66.3858 174.438 66.4491 174.477 66.5358 174.51C66.6258 174.54 66.7674 174.58 66.9608 174.63C67.2641 174.713 67.4741 174.812 67.5908 174.925C67.7108 175.038 67.7708 175.195 67.7708 175.395C67.7708 175.602 67.6858 175.767 67.5158 175.89C67.3458 176.013 67.0941 176.075 66.7608 176.075ZM69.6271 175.735H70.1571L69.6821 176.74H69.2221L69.6271 175.735ZM75.4844 176.075C75.241 176.075 75.0527 176.005 74.9194 175.865C74.7894 175.725 74.7244 175.527 74.7244 175.27V173.99H74.3594V173.6H74.7244V172.88H75.2344V173.6H75.8244V173.99H75.2344V175.235C75.2344 175.395 75.2644 175.508 75.3244 175.575C75.3877 175.642 75.501 175.675 75.6644 175.675C75.761 175.675 75.8577 175.653 75.9544 175.61V176.01C75.8277 176.053 75.671 176.075 75.4844 176.075ZM78.6701 176.075C78.4001 176.075 78.1617 176.025 77.9551 175.925C77.7517 175.822 77.5917 175.675 77.4751 175.485C77.3617 175.292 77.3051 175.065 77.3051 174.805C77.3051 174.548 77.3617 174.323 77.4751 174.13C77.5884 173.937 77.7484 173.788 77.9551 173.685C78.1617 173.578 78.4001 173.525 78.6701 173.525C78.9401 173.525 79.1784 173.578 79.3851 173.685C79.5917 173.788 79.7517 173.937 79.8651 174.13C79.9817 174.323 80.0401 174.548 80.0401 174.805C80.0401 175.065 79.9817 175.292 79.8651 175.485C79.7517 175.675 79.5917 175.822 79.3851 175.925C79.1784 176.025 78.9401 176.075 78.6701 176.075ZM78.6701 175.675C78.9301 175.675 79.1367 175.595 79.2901 175.435C79.4434 175.275 79.5201 175.065 79.5201 174.805C79.5201 174.535 79.4434 174.322 79.2901 174.165C79.1367 174.008 78.9301 173.93 78.6701 173.93C78.4101 173.93 78.2034 174.008 78.0501 174.165C77.8967 174.322 77.8201 174.535 77.8201 174.805C77.8201 175.065 77.8967 175.275 78.0501 175.435C78.2034 175.595 78.4101 175.675 78.6701 175.675ZM84.4393 173.6H84.9293V173.955C85.1759 173.668 85.5093 173.525 85.9293 173.525C86.1693 173.525 86.3843 173.578 86.5743 173.685C86.7676 173.792 86.9176 173.942 87.0243 174.135C87.1343 174.325 87.1893 174.547 87.1893 174.8C87.1893 175.05 87.1343 175.272 87.0243 175.465C86.9176 175.658 86.7693 175.808 86.5793 175.915C86.3893 176.022 86.1726 176.075 85.9293 176.075C85.7293 176.075 85.5426 176.042 85.3693 175.975C85.1959 175.908 85.0543 175.81 84.9443 175.68V177.095H84.4393V173.6ZM85.8143 175.675C85.9776 175.675 86.1243 175.64 86.2543 175.57C86.3876 175.497 86.4909 175.393 86.5643 175.26C86.6409 175.127 86.6793 174.973 86.6793 174.8C86.6793 174.627 86.6409 174.475 86.5643 174.345C86.4909 174.212 86.3876 174.11 86.2543 174.04C86.1243 173.967 85.9776 173.93 85.8143 173.93C85.6109 173.93 85.4309 173.983 85.2743 174.09C85.1209 174.197 85.0109 174.343 84.9443 174.53V175.07C85.0009 175.253 85.1093 175.4 85.2693 175.51C85.4293 175.62 85.6109 175.675 85.8143 175.675ZM89.4731 176.075C89.1831 176.075 88.9498 176.002 88.7731 175.855C88.5998 175.705 88.5131 175.503 88.5131 175.25C88.5131 174.983 88.5964 174.778 88.7631 174.635C88.9331 174.488 89.1731 174.415 89.4831 174.415C89.8131 174.415 90.0931 174.482 90.3231 174.615V174.49C90.3231 174.3 90.2648 174.16 90.1481 174.07C90.0348 173.977 89.8548 173.93 89.6081 173.93C89.4614 173.93 89.3181 173.945 89.1781 173.975C89.0414 174.002 88.9181 174.04 88.8081 174.09V173.68C88.9081 173.633 89.0381 173.597 89.1981 173.57C89.3581 173.54 89.5131 173.525 89.6631 173.525C90.0598 173.525 90.3531 173.613 90.5431 173.79C90.7364 173.963 90.8331 174.205 90.8331 174.515V176H90.3581V175.73C90.2548 175.843 90.1314 175.93 89.9881 175.99C89.8481 176.047 89.6764 176.075 89.4731 176.075ZM89.5981 175.69C89.7581 175.69 89.9031 175.658 90.0331 175.595C90.1631 175.532 90.2598 175.443 90.3231 175.33V175.005C90.1064 174.865 89.8648 174.795 89.5981 174.795C89.4048 174.795 89.2598 174.833 89.1631 174.91C89.0698 174.983 89.0231 175.097 89.0231 175.25C89.0231 175.543 89.2148 175.69 89.5981 175.69ZM92.7452 176.99C92.5652 176.99 92.4152 176.972 92.2952 176.935V176.54C92.3818 176.573 92.4885 176.59 92.6152 176.59C92.7318 176.59 92.8235 176.56 92.8902 176.5C92.9568 176.443 93.0168 176.35 93.0702 176.22L93.1852 175.94L92.1352 173.6H92.6552L93.4552 175.445L94.2002 173.6H94.7202L93.6402 176.27C93.5402 176.52 93.4202 176.702 93.2802 176.815C93.1435 176.932 92.9652 176.99 92.7452 176.99ZM100.285 176.075C100.015 176.075 99.777 176.025 99.5703 175.925C99.367 175.822 99.207 175.675 99.0903 175.485C98.977 175.292 98.9203 175.065 98.9203 174.805C98.9203 174.548 98.977 174.323 99.0903 174.13C99.2036 173.937 99.3636 173.788 99.5703 173.685C99.777 173.578 100.015 173.525 100.285 173.525C100.555 173.525 100.794 173.578 101 173.685C101.207 173.788 101.367 173.937 101.48 174.13C101.597 174.323 101.655 174.548 101.655 174.805C101.655 175.065 101.597 175.292 101.48 175.485C101.367 175.675 101.207 175.822 101 175.925C100.794 176.025 100.555 176.075 100.285 176.075ZM100.285 175.675C100.545 175.675 100.752 175.595 100.905 175.435C101.059 175.275 101.135 175.065 101.135 174.805C101.135 174.535 101.059 174.322 100.905 174.165C100.752 174.008 100.545 173.93 100.285 173.93C100.025 173.93 99.8186 174.008 99.6653 174.165C99.512 174.322 99.4353 174.535 99.4353 174.805C99.4353 175.065 99.512 175.275 99.6653 175.435C99.8186 175.595 100.025 175.675 100.285 175.675ZM103.204 173.6H103.694V173.945C103.807 173.802 103.946 173.697 104.109 173.63C104.276 173.56 104.449 173.525 104.629 173.525C104.949 173.525 105.187 173.61 105.344 173.78C105.501 173.95 105.579 174.178 105.579 174.465V176H105.074V174.515C105.074 174.125 104.887 173.93 104.514 173.93C104.354 173.93 104.204 173.968 104.064 174.045C103.927 174.118 103.809 174.232 103.709 174.385V176H103.204V173.6ZM108.522 176.075C108.079 176.075 107.73 175.965 107.477 175.745C107.227 175.522 107.102 175.208 107.102 174.805C107.102 174.412 107.214 174.1 107.437 173.87C107.664 173.64 107.985 173.525 108.402 173.525C108.679 173.525 108.914 173.578 109.107 173.685C109.3 173.788 109.445 173.933 109.542 174.12C109.642 174.303 109.692 174.513 109.692 174.75V175H107.582C107.599 175.227 107.694 175.397 107.867 175.51C108.044 175.62 108.282 175.675 108.582 175.675C108.735 175.675 108.89 175.662 109.047 175.635C109.204 175.605 109.342 175.567 109.462 175.52V175.925C109.355 175.968 109.214 176.003 109.037 176.03C108.864 176.06 108.692 176.075 108.522 176.075ZM109.217 174.645C109.21 174.418 109.135 174.243 108.992 174.12C108.852 173.993 108.652 173.93 108.392 173.93C108.139 173.93 107.942 173.995 107.802 174.125C107.662 174.255 107.589 174.428 107.582 174.645H109.217ZM113.995 173.6H114.51L115.05 175.38L115.585 173.6H116.04L116.575 175.38L117.115 173.6H117.635L116.855 176H116.37L115.815 174.21L115.26 176H114.77L113.995 173.6ZM119.773 176.075C119.483 176.075 119.25 176.002 119.073 175.855C118.9 175.705 118.813 175.503 118.813 175.25C118.813 174.983 118.896 174.778 119.063 174.635C119.233 174.488 119.473 174.415 119.783 174.415C120.113 174.415 120.393 174.482 120.623 174.615V174.49C120.623 174.3 120.565 174.16 120.448 174.07C120.335 173.977 120.155 173.93 119.908 173.93C119.761 173.93 119.618 173.945 119.478 173.975C119.341 174.002 119.218 174.04 119.108 174.09V173.68C119.208 173.633 119.338 173.597 119.498 173.57C119.658 173.54 119.813 173.525 119.963 173.525C120.36 173.525 120.653 173.613 120.843 173.79C121.036 173.963 121.133 174.205 121.133 174.515V176H120.658V175.73C120.555 175.843 120.431 175.93 120.288 175.99C120.148 176.047 119.976 176.075 119.773 176.075ZM119.898 175.69C120.058 175.69 120.203 175.658 120.333 175.595C120.463 175.532 120.56 175.443 120.623 175.33V175.005C120.406 174.865 120.165 174.795 119.898 174.795C119.705 174.795 119.56 174.833 119.463 174.91C119.37 174.983 119.323 175.097 119.323 175.25C119.323 175.543 119.515 175.69 119.898 175.69ZM123.558 176.075C123.314 176.075 123.126 176.005 122.993 175.865C122.863 175.725 122.798 175.527 122.798 175.27V173.99H122.433V173.6H122.798V172.88H123.308V173.6H123.898V173.99H123.308V175.235C123.308 175.395 123.338 175.508 123.398 175.575C123.461 175.642 123.574 175.675 123.738 175.675C123.834 175.675 123.931 175.653 124.028 175.61V176.01C123.901 176.053 123.744 176.075 123.558 176.075ZM126.823 176.075C126.379 176.075 126.031 175.965 125.778 175.745C125.528 175.522 125.403 175.208 125.403 174.805C125.403 174.412 125.514 174.1 125.738 173.87C125.964 173.64 126.286 173.525 126.703 173.525C126.979 173.525 127.214 173.578 127.408 173.685C127.601 173.788 127.746 173.933 127.843 174.12C127.943 174.303 127.993 174.513 127.993 174.75V175H125.883C125.899 175.227 125.994 175.397 126.168 175.51C126.344 175.62 126.583 175.675 126.883 175.675C127.036 175.675 127.191 175.662 127.348 175.635C127.504 175.605 127.643 175.567 127.763 175.52V175.925C127.656 175.968 127.514 176.003 127.338 176.03C127.164 176.06 126.993 176.075 126.823 176.075ZM127.518 174.645C127.511 174.418 127.436 174.243 127.293 174.12C127.153 173.993 126.953 173.93 126.693 173.93C126.439 173.93 126.243 173.995 126.103 174.125C125.963 174.255 125.889 174.428 125.883 174.645H127.518ZM129.545 173.6H130.035V174.03C130.135 173.883 130.275 173.775 130.455 173.705C130.638 173.635 130.85 173.6 131.09 173.6V173.995C130.833 173.995 130.613 174.037 130.43 174.12C130.246 174.203 130.12 174.335 130.05 174.515V176H129.545V173.6ZM18.25 184.075C18.0067 184.075 17.8183 184.005 17.685 183.865C17.555 183.725 17.49 183.527 17.49 183.27V181.99H17.125V181.6H17.49V180.88H18V181.6H18.59V181.99H18V183.235C18 183.395 18.03 183.508 18.09 183.575C18.1533 183.642 18.2667 183.675 18.43 183.675C18.5267 183.675 18.6233 183.653 18.72 183.61V184.01C18.5933 184.053 18.4367 184.075 18.25 184.075ZM21.4357 184.075C21.1657 184.075 20.9274 184.025 20.7207 183.925C20.5174 183.822 20.3574 183.675 20.2407 183.485C20.1274 183.292 20.0707 183.065 20.0707 182.805C20.0707 182.548 20.1274 182.323 20.2407 182.13C20.354 181.937 20.514 181.788 20.7207 181.685C20.9274 181.578 21.1657 181.525 21.4357 181.525C21.7057 181.525 21.944 181.578 22.1507 181.685C22.3574 181.788 22.5174 181.937 22.6307 182.13C22.7474 182.323 22.8057 182.548 22.8057 182.805C22.8057 183.065 22.7474 183.292 22.6307 183.485C22.5174 183.675 22.3574 183.822 22.1507 183.925C21.944 184.025 21.7057 184.075 21.4357 184.075ZM21.4357 183.675C21.6957 183.675 21.9024 183.595 22.0557 183.435C22.209 183.275 22.2857 183.065 22.2857 182.805C22.2857 182.535 22.209 182.322 22.0557 182.165C21.9024 182.008 21.6957 181.93 21.4357 181.93C21.1757 181.93 20.969 182.008 20.8157 182.165C20.6624 182.322 20.5857 182.535 20.5857 182.805C20.5857 183.065 20.6624 183.275 20.8157 183.435C20.969 183.595 21.1757 183.675 21.4357 183.675ZM28.1599 184.075C27.8365 184.075 27.5915 183.988 27.4249 183.815C27.2615 183.642 27.1799 183.41 27.1799 183.12V181.6H27.6849V183.1C27.6849 183.483 27.8765 183.675 28.2599 183.675C28.5965 183.675 28.8599 183.523 29.0499 183.22V181.6H29.5549V184H29.0649V183.66C28.9515 183.803 28.8165 183.908 28.6599 183.975C28.5065 184.042 28.3399 184.075 28.1599 184.075ZM32.0879 184.075C31.9213 184.075 31.7446 184.053 31.5579 184.01C31.3713 183.97 31.2246 183.915 31.1179 183.845V183.415C31.2479 183.492 31.3979 183.555 31.5679 183.605C31.7379 183.652 31.9029 183.675 32.0629 183.675C32.2429 183.675 32.3746 183.653 32.4579 183.61C32.5413 183.567 32.5829 183.497 32.5829 183.4C32.5829 183.327 32.5629 183.268 32.5229 183.225C32.4863 183.178 32.4213 183.137 32.3279 183.1C32.2379 183.063 32.1013 183.02 31.9179 182.97C31.7213 182.913 31.5646 182.857 31.4479 182.8C31.3346 182.74 31.2479 182.665 31.1879 182.575C31.1313 182.485 31.1029 182.368 31.1029 182.225C31.1029 181.995 31.1929 181.822 31.3729 181.705C31.5563 181.585 31.8013 181.525 32.1079 181.525C32.2679 181.525 32.4246 181.54 32.5779 181.57C32.7313 181.6 32.8546 181.642 32.9479 181.695V182.115C32.8513 182.058 32.7313 182.013 32.5879 181.98C32.4479 181.947 32.3046 181.93 32.1579 181.93C31.9813 181.93 31.8463 181.952 31.7529 181.995C31.6596 182.038 31.6129 182.115 31.6129 182.225C31.6129 182.295 31.6329 182.352 31.6729 182.395C31.7129 182.438 31.7763 182.477 31.8629 182.51C31.9529 182.54 32.0946 182.58 32.2879 182.63C32.5913 182.713 32.8013 182.812 32.9179 182.925C33.0379 183.038 33.0979 183.195 33.0979 183.395C33.0979 183.602 33.0129 183.767 32.8429 183.89C32.6729 184.013 32.4213 184.075 32.0879 184.075ZM35.9692 184.075C35.5259 184.075 35.1776 183.965 34.9242 183.745C34.6742 183.522 34.5492 183.208 34.5492 182.805C34.5492 182.412 34.6609 182.1 34.8842 181.87C35.1109 181.64 35.4326 181.525 35.8492 181.525C36.1259 181.525 36.3609 181.578 36.5542 181.685C36.7476 181.788 36.8926 181.933 36.9892 182.12C37.0892 182.303 37.1392 182.513 37.1392 182.75V183H35.0292C35.0459 183.227 35.1409 183.397 35.3142 183.51C35.4909 183.62 35.7292 183.675 36.0292 183.675C36.1826 183.675 36.3376 183.662 36.4942 183.635C36.6509 183.605 36.7892 183.567 36.9092 183.52V183.925C36.8026 183.968 36.6609 184.003 36.4842 184.03C36.3109 184.06 36.1392 184.075 35.9692 184.075ZM36.6642 182.645C36.6576 182.418 36.5826 182.243 36.4392 182.12C36.2992 181.993 36.0992 181.93 35.8392 181.93C35.5859 181.93 35.3892 181.995 35.2492 182.125C35.1092 182.255 35.0359 182.428 35.0292 182.645H36.6642ZM42.4018 184.075C42.1118 184.075 41.8785 184.002 41.7018 183.855C41.5285 183.705 41.4418 183.503 41.4418 183.25C41.4418 182.983 41.5251 182.778 41.6918 182.635C41.8618 182.488 42.1018 182.415 42.4118 182.415C42.7418 182.415 43.0218 182.482 43.2518 182.615V182.49C43.2518 182.3 43.1935 182.16 43.0768 182.07C42.9635 181.977 42.7835 181.93 42.5368 181.93C42.3901 181.93 42.2468 181.945 42.1068 181.975C41.9701 182.002 41.8468 182.04 41.7368 182.09V181.68C41.8368 181.633 41.9668 181.597 42.1268 181.57C42.2868 181.54 42.4418 181.525 42.5918 181.525C42.9885 181.525 43.2818 181.613 43.4718 181.79C43.6651 181.963 43.7618 182.205 43.7618 182.515V184H43.2868V183.73C43.1835 183.843 43.0601 183.93 42.9168 183.99C42.7768 184.047 42.6051 184.075 42.4018 184.075ZM42.5268 183.69C42.6868 183.69 42.8318 183.658 42.9618 183.595C43.0918 183.532 43.1885 183.443 43.2518 183.33V183.005C43.0351 182.865 42.7935 182.795 42.5268 182.795C42.3335 182.795 42.1885 182.833 42.0918 182.91C41.9985 182.983 41.9518 183.097 41.9518 183.25C41.9518 183.543 42.1435 183.69 42.5268 183.69ZM45.3885 181.6H45.8785V181.945C45.9918 181.802 46.1301 181.697 46.2935 181.63C46.4601 181.56 46.6335 181.525 46.8135 181.525C47.1335 181.525 47.3718 181.61 47.5285 181.78C47.6851 181.95 47.7635 182.178 47.7635 182.465V184H47.2585V182.515C47.2585 182.125 47.0718 181.93 46.6985 181.93C46.5385 181.93 46.3885 181.968 46.2485 182.045C46.1118 182.118 45.9935 182.232 45.8935 182.385V184H45.3885V181.6ZM49.6719 184.99C49.4919 184.99 49.3419 184.972 49.2219 184.935V184.54C49.3086 184.573 49.4152 184.59 49.5419 184.59C49.6586 184.59 49.7502 184.56 49.8169 184.5C49.8836 184.443 49.9436 184.35 49.9969 184.22L50.1119 183.94L49.0619 181.6H49.5819L50.3819 183.445L51.1269 181.6H51.6469L50.5669 184.27C50.4669 184.52 50.3469 184.702 50.2069 184.815C50.0702 184.932 49.8919 184.99 49.6719 184.99ZM56.8071 184.075C56.5171 184.075 56.2837 184.002 56.1071 183.855C55.9337 183.705 55.8471 183.503 55.8471 183.25C55.8471 182.983 55.9304 182.778 56.0971 182.635C56.2671 182.488 56.5071 182.415 56.8171 182.415C57.1471 182.415 57.4271 182.482 57.6571 182.615V182.49C57.6571 182.3 57.5987 182.16 57.4821 182.07C57.3687 181.977 57.1887 181.93 56.9421 181.93C56.7954 181.93 56.6521 181.945 56.5121 181.975C56.3754 182.002 56.2521 182.04 56.1421 182.09V181.68C56.2421 181.633 56.3721 181.597 56.5321 181.57C56.6921 181.54 56.8471 181.525 56.9971 181.525C57.3937 181.525 57.6871 181.613 57.8771 181.79C58.0704 181.963 58.1671 182.205 58.1671 182.515V184H57.6921V183.73C57.5887 183.843 57.4654 183.93 57.3221 183.99C57.1821 184.047 57.0104 184.075 56.8071 184.075ZM56.9321 183.69C57.0921 183.69 57.2371 183.658 57.3671 183.595C57.4971 183.532 57.5937 183.443 57.6571 183.33V183.005C57.4404 182.865 57.1987 182.795 56.9321 182.795C56.7387 182.795 56.5937 182.833 56.4971 182.91C56.4037 182.983 56.3571 183.097 56.3571 183.25C56.3571 183.543 56.5487 183.69 56.9321 183.69ZM61.2838 184.075C61.0671 184.075 60.8788 184.042 60.7188 183.975C60.5621 183.905 60.4171 183.797 60.2838 183.65V184H59.7938V180.305H60.2988V181.92C60.4088 181.79 60.5504 181.692 60.7238 181.625C60.8971 181.558 61.0838 181.525 61.2838 181.525C61.5238 181.525 61.7388 181.58 61.9288 181.69C62.1221 181.797 62.2721 181.947 62.3788 182.14C62.4888 182.333 62.5438 182.555 62.5438 182.805C62.5438 183.058 62.4888 183.282 62.3788 183.475C62.2721 183.665 62.1221 183.813 61.9288 183.92C61.7388 184.023 61.5238 184.075 61.2838 184.075ZM61.1688 183.675C61.3321 183.675 61.4788 183.64 61.6088 183.57C61.7421 183.497 61.8454 183.393 61.9188 183.26C61.9954 183.127 62.0338 182.975 62.0338 182.805C62.0338 182.635 61.9954 182.483 61.9188 182.35C61.8454 182.217 61.7421 182.113 61.6088 182.04C61.4788 181.967 61.3321 181.93 61.1688 181.93C60.9654 181.93 60.7838 181.985 60.6238 182.095C60.4638 182.205 60.3554 182.352 60.2988 182.535V183.075C60.3621 183.258 60.4704 183.405 60.6238 183.515C60.7804 183.622 60.9621 183.675 61.1688 183.675ZM64.3895 181.13C64.3062 181.13 64.2362 181.102 64.1795 181.045C64.1229 180.988 64.0945 180.918 64.0945 180.835C64.0945 180.752 64.1229 180.682 64.1795 180.625C64.2362 180.568 64.3062 180.54 64.3895 180.54C64.4762 180.54 64.5479 180.568 64.6045 180.625C64.6645 180.682 64.6945 180.752 64.6945 180.835C64.6945 180.918 64.6645 180.988 64.6045 181.045C64.5479 181.102 64.4762 181.13 64.3895 181.13ZM64.1345 181.6H64.6495V184H64.1345V181.6ZM66.3445 180.305H66.8495V184H66.3445V180.305ZM68.7968 181.13C68.7134 181.13 68.6434 181.102 68.5868 181.045C68.5301 180.988 68.5018 180.918 68.5018 180.835C68.5018 180.752 68.5301 180.682 68.5868 180.625C68.6434 180.568 68.7134 180.54 68.7968 180.54C68.8834 180.54 68.9551 180.568 69.0118 180.625C69.0718 180.682 69.1018 180.752 69.1018 180.835C69.1018 180.918 69.0718 180.988 69.0118 181.045C68.9551 181.102 68.8834 181.13 68.7968 181.13ZM68.5418 181.6H69.0568V184H68.5418V181.6ZM71.6768 184.075C71.4334 184.075 71.2451 184.005 71.1118 183.865C70.9818 183.725 70.9168 183.527 70.9168 183.27V181.99H70.5518V181.6H70.9168V180.88H71.4268V181.6H72.0168V181.99H71.4268V183.235C71.4268 183.395 71.4568 183.508 71.5168 183.575C71.5801 183.642 71.6934 183.675 71.8568 183.675C71.9534 183.675 72.0501 183.653 72.1468 183.61V184.01C72.0201 184.053 71.8634 184.075 71.6768 184.075ZM73.9317 184.99C73.7517 184.99 73.6017 184.972 73.4817 184.935V184.54C73.5683 184.573 73.675 184.59 73.8017 184.59C73.9183 184.59 74.01 184.56 74.0767 184.5C74.1433 184.443 74.2033 184.35 74.2567 184.22L74.3717 183.94L73.3217 181.6H73.8417L74.6417 183.445L75.3867 181.6H75.9067L74.8267 184.27C74.7267 184.52 74.6067 184.702 74.4667 184.815C74.33 184.932 74.1517 184.99 73.9317 184.99ZM77.4913 184C77.4246 184 77.3679 183.978 77.3213 183.935C77.2779 183.888 77.2563 183.832 77.2563 183.765C77.2563 183.698 77.2779 183.642 77.3213 183.595C77.3679 183.548 77.4246 183.525 77.4913 183.525C77.5579 183.525 77.6146 183.548 77.6613 183.595C77.7079 183.642 77.7313 183.698 77.7313 183.765C77.7313 183.832 77.7079 183.888 77.6613 183.935C77.6146 183.978 77.5579 184 77.4913 184Z" fill="black"/>
<rect x="12.25" y="143.25" width="125.5" height="46.5" stroke="#6C6C6C" stroke-width="0.5"/>
<path d="M12.975 27.8H14.445V28.865C15.185 28.005 16.185 27.575 17.445 27.575C18.165 27.575 18.81 27.735 19.38 28.055C19.96 28.375 20.41 28.825 20.73 29.405C21.06 29.975 21.225 30.64 21.225 31.4C21.225 32.15 21.06 32.815 20.73 33.395C20.41 33.975 19.965 34.425 19.395 34.745C18.825 35.065 18.175 35.225 17.445 35.225C16.845 35.225 16.285 35.125 15.765 34.925C15.245 34.725 14.82 34.43 14.49 34.04V38.285H12.975V27.8ZM17.1 34.025C17.59 34.025 18.03 33.92 18.42 33.71C18.82 33.49 19.13 33.18 19.35 32.78C19.58 32.38 19.695 31.92 19.695 31.4C19.695 30.88 19.58 30.425 19.35 30.035C19.13 29.635 18.82 29.33 18.42 29.12C18.03 28.9 17.59 28.79 17.1 28.79C16.49 28.79 15.95 28.95 15.48 29.27C15.02 29.59 14.69 30.03 14.49 30.59V32.21C14.66 32.76 14.985 33.2 15.465 33.53C15.945 33.86 16.49 34.025 17.1 34.025ZM26.7623 26.39C26.5123 26.39 26.3023 26.305 26.1323 26.135C25.9623 25.965 25.8773 25.755 25.8773 25.505C25.8773 25.255 25.9623 25.045 26.1323 24.875C26.3023 24.705 26.5123 24.62 26.7623 24.62C27.0223 24.62 27.2373 24.705 27.4073 24.875C27.5873 25.045 27.6773 25.255 27.6773 25.505C27.6773 25.755 27.5873 25.965 27.4073 26.135C27.2373 26.305 27.0223 26.39 26.7623 26.39ZM25.9973 27.8H27.5423V35H25.9973V27.8ZM32.6273 27.8H34.0973V28.835C34.4373 28.405 34.8523 28.09 35.3423 27.89C35.8423 27.68 36.3623 27.575 36.9023 27.575C37.8623 27.575 38.5773 27.83 39.0473 28.34C39.5173 28.85 39.7523 29.535 39.7523 30.395V35H38.2373V30.545C38.2373 29.375 37.6773 28.79 36.5573 28.79C36.0773 28.79 35.6273 28.905 35.2073 29.135C34.7973 29.355 34.4423 29.695 34.1423 30.155V35H32.6273V27.8ZM48.5815 35.225C47.2515 35.225 46.2065 34.895 45.4465 34.235C44.6965 33.565 44.3215 32.625 44.3215 31.415C44.3215 30.235 44.6565 29.3 45.3265 28.61C46.0065 27.92 46.9715 27.575 48.2215 27.575C49.0515 27.575 49.7565 27.735 50.3365 28.055C50.9165 28.365 51.3515 28.8 51.6415 29.36C51.9415 29.91 52.0915 30.54 52.0915 31.25V32H45.7615C45.8115 32.68 46.0965 33.19 46.6165 33.53C47.1465 33.86 47.8615 34.025 48.7615 34.025C49.2215 34.025 49.6865 33.985 50.1565 33.905C50.6265 33.815 51.0415 33.7 51.4015 33.56V34.775C51.0815 34.905 50.6565 35.01 50.1265 35.09C49.6065 35.18 49.0915 35.225 48.5815 35.225ZM50.6665 30.935C50.6465 30.255 50.4215 29.73 49.9915 29.36C49.5715 28.98 48.9715 28.79 48.1915 28.79C47.4315 28.79 46.8415 28.985 46.4215 29.375C46.0015 29.765 45.7815 30.285 45.7615 30.935H50.6665ZM59.3275 35.225C58.4575 35.225 57.7575 35.005 57.2275 34.565C56.7075 34.115 56.4475 33.51 56.4475 32.75C56.4475 31.95 56.6975 31.335 57.1975 30.905C57.7075 30.465 58.4275 30.245 59.3575 30.245C60.3475 30.245 61.1875 30.445 61.8775 30.845V30.47C61.8775 29.9 61.7025 29.48 61.3525 29.21C61.0125 28.93 60.4725 28.79 59.7325 28.79C59.2925 28.79 58.8625 28.835 58.4425 28.925C58.0325 29.005 57.6625 29.12 57.3325 29.27V28.04C57.6325 27.9 58.0225 27.79 58.5025 27.71C58.9825 27.62 59.4475 27.575 59.8975 27.575C61.0875 27.575 61.9675 27.84 62.5375 28.37C63.1175 28.89 63.4075 29.615 63.4075 30.545V35H61.9825V34.19C61.6725 34.53 61.3025 34.79 60.8725 34.97C60.4525 35.14 59.9375 35.225 59.3275 35.225ZM59.7025 34.07C60.1825 34.07 60.6175 33.975 61.0075 33.785C61.3975 33.595 61.6875 33.33 61.8775 32.99V32.015C61.2275 31.595 60.5025 31.385 59.7025 31.385C59.1225 31.385 58.6875 31.5 58.3975 31.73C58.1175 31.95 57.9775 32.29 57.9775 32.75C57.9775 33.63 58.5525 34.07 59.7025 34.07ZM68.2875 27.8H69.7575V28.865C70.4975 28.005 71.4975 27.575 72.7575 27.575C73.4775 27.575 74.1225 27.735 74.6925 28.055C75.2725 28.375 75.7225 28.825 76.0425 29.405C76.3725 29.975 76.5375 30.64 76.5375 31.4C76.5375 32.15 76.3725 32.815 76.0425 33.395C75.7225 33.975 75.2775 34.425 74.7075 34.745C74.1375 35.065 73.4875 35.225 72.7575 35.225C72.1575 35.225 71.5975 35.125 71.0775 34.925C70.5575 34.725 70.1325 34.43 69.8025 34.04V38.285H68.2875V27.8ZM72.4125 34.025C72.9025 34.025 73.3425 33.92 73.7325 33.71C74.1325 33.49 74.4425 33.18 74.6625 32.78C74.8925 32.38 75.0075 31.92 75.0075 31.4C75.0075 30.88 74.8925 30.425 74.6625 30.035C74.4425 29.635 74.1325 29.33 73.7325 29.12C73.3425 28.9 72.9025 28.79 72.4125 28.79C71.8025 28.79 71.2625 28.95 70.7925 29.27C70.3325 29.59 70.0025 30.03 69.8025 30.59V32.21C69.9725 32.76 70.2975 33.2 70.7775 33.53C71.2575 33.86 71.8025 34.025 72.4125 34.025ZM81.1898 27.8H82.6598V28.865C83.3998 28.005 84.3998 27.575 85.6598 27.575C86.3798 27.575 87.0248 27.735 87.5948 28.055C88.1748 28.375 88.6248 28.825 88.9448 29.405C89.2748 29.975 89.4398 30.64 89.4398 31.4C89.4398 32.15 89.2748 32.815 88.9448 33.395C88.6248 33.975 88.1798 34.425 87.6098 34.745C87.0398 35.065 86.3898 35.225 85.6598 35.225C85.0598 35.225 84.4998 35.125 83.9798 34.925C83.4598 34.725 83.0348 34.43 82.7048 34.04V38.285H81.1898V27.8ZM85.3148 34.025C85.8048 34.025 86.2448 33.92 86.6348 33.71C87.0348 33.49 87.3448 33.18 87.5648 32.78C87.7948 32.38 87.9098 31.92 87.9098 31.4C87.9098 30.88 87.7948 30.425 87.5648 30.035C87.3448 29.635 87.0348 29.33 86.6348 29.12C86.2448 28.9 85.8048 28.79 85.3148 28.79C84.7048 28.79 84.1648 28.95 83.6948 29.27C83.2348 29.59 82.9048 30.03 82.7048 30.59V32.21C82.8748 32.76 83.1998 33.2 83.6798 33.53C84.1598 33.86 84.7048 34.025 85.3148 34.025ZM94.0922 23.915H95.6072V35H94.0922V23.915ZM104.524 35.225C103.194 35.225 102.149 34.895 101.389 34.235C100.639 33.565 100.264 32.625 100.264 31.415C100.264 30.235 100.599 29.3 101.269 28.61C101.949 27.92 102.914 27.575 104.164 27.575C104.994 27.575 105.699 27.735 106.279 28.055C106.859 28.365 107.294 28.8 107.584 29.36C107.884 29.91 108.034 30.54 108.034 31.25V32H101.704C101.754 32.68 102.039 33.19 102.559 33.53C103.089 33.86 103.804 34.025 104.704 34.025C105.164 34.025 105.629 33.985 106.099 33.905C106.569 33.815 106.984 33.7 107.344 33.56V34.775C107.024 34.905 106.599 35.01 106.069 35.09C105.549 35.18 105.034 35.225 104.524 35.225ZM106.609 30.935C106.589 30.255 106.364 29.73 105.934 29.36C105.514 28.98 104.914 28.79 104.134 28.79C103.374 28.79 102.784 28.985 102.364 29.375C101.944 29.765 101.724 30.285 101.704 30.935H106.609Z" fill="black"/>
<path d="M12.8691 19.0381L17.1807 17.1875V16.4746L12.8691 14.6289V15.5615L16.0283 16.7334L16.3213 16.8262L16.0283 16.9092L12.8691 18.1006V19.0381ZM20.875 19.0381L25.1865 17.1875V16.4746L20.875 14.6289V15.5615L24.0342 16.7334L24.3271 16.8262L24.0342 16.9092L20.875 18.1006V19.0381ZM36.7012 17.3145V17.417C36.7012 17.7946 36.75 18.1478 36.8477 18.4766C36.9453 18.8021 37.0853 19.0853 37.2676 19.3262C37.4466 19.5671 37.6663 19.7559 37.9268 19.8926C38.1872 20.0293 38.4785 20.0977 38.8008 20.0977C38.9928 20.0977 39.1719 20.0765 39.3379 20.0342C39.5039 19.9951 39.6553 19.9382 39.792 19.8633C39.8799 19.8145 39.9613 19.7575 40.0361 19.6924C40.1143 19.6273 40.1875 19.5557 40.2559 19.4775V19.9316C40.2559 20.1595 40.2233 20.3613 40.1582 20.5371C40.0931 20.7129 40.0003 20.8594 39.8799 20.9766C39.7562 21.097 39.6081 21.1882 39.4355 21.25C39.263 21.3118 39.0693 21.3428 38.8545 21.3428C38.734 21.3428 38.6136 21.3298 38.4932 21.3037C38.3727 21.2809 38.2523 21.2419 38.1318 21.1865C38.0114 21.1312 37.8926 21.0563 37.7754 20.9619C37.6582 20.8708 37.5443 20.7585 37.4336 20.625L36.9648 21.167C37.0853 21.3395 37.2285 21.4844 37.3945 21.6016C37.5638 21.7188 37.7396 21.8115 37.9219 21.8799C38.1009 21.9515 38.2783 22.002 38.4541 22.0312C38.6299 22.0638 38.7861 22.0801 38.9229 22.0801C39.2549 22.0801 39.5576 22.0312 39.8311 21.9336C40.1045 21.8359 40.3405 21.6927 40.5391 21.5039C40.7344 21.3151 40.8857 21.0856 40.9932 20.8154C41.1038 20.5452 41.1592 20.236 41.1592 19.8877V14.7168H40.3389L40.2949 15.293C40.2331 15.2148 40.1663 15.1432 40.0947 15.0781C40.0264 15.013 39.9531 14.9561 39.875 14.9072C39.7318 14.8128 39.5706 14.7412 39.3916 14.6924C39.2158 14.6436 39.0221 14.6191 38.8105 14.6191C38.4818 14.6191 38.1872 14.6859 37.9268 14.8193C37.6663 14.9528 37.445 15.1383 37.2627 15.376C37.0804 15.6136 36.9404 15.8984 36.8428 16.2305C36.7484 16.5592 36.7012 16.9206 36.7012 17.3145ZM37.6045 17.417V17.3145C37.6045 17.0573 37.6305 16.8132 37.6826 16.582C37.738 16.3477 37.8242 16.141 37.9414 15.9619C38.0553 15.7861 38.2018 15.6462 38.3809 15.542C38.5632 15.4378 38.7812 15.3857 39.0352 15.3857C39.1849 15.3857 39.3216 15.4053 39.4453 15.4443C39.569 15.4801 39.6813 15.5306 39.7822 15.5957C39.8831 15.6641 39.9727 15.7438 40.0508 15.835C40.1289 15.9261 40.1973 16.027 40.2559 16.1377V18.5596C40.1973 18.6735 40.1289 18.7777 40.0508 18.8721C39.9727 18.9665 39.8848 19.0479 39.7871 19.1162C39.6862 19.1846 39.5723 19.2383 39.4453 19.2773C39.3216 19.3132 39.1816 19.3311 39.0254 19.3311C38.7747 19.3311 38.5599 19.2806 38.3809 19.1797C38.2018 19.0755 38.0553 18.9355 37.9414 18.7598C37.8242 18.584 37.738 18.3805 37.6826 18.1494C37.6305 17.9183 37.6045 17.6742 37.6045 17.417ZM47.207 20.0977C47.7214 20.0977 48.1527 19.9951 48.501 19.79C48.8525 19.5817 49.1162 19.3441 49.292 19.0771L48.7402 18.6475C48.5742 18.8623 48.3659 19.0348 48.1152 19.165C47.8646 19.2952 47.5781 19.3604 47.2559 19.3604C47.0117 19.3604 46.7887 19.3148 46.5869 19.2236C46.3851 19.1325 46.2126 19.0072 46.0693 18.8477C45.9294 18.6979 45.8187 18.5254 45.7373 18.3301C45.6592 18.1348 45.6087 17.9085 45.5859 17.6514V17.6172H49.3604V17.2119C49.3604 16.8441 49.3132 16.5023 49.2188 16.1865C49.1276 15.8708 48.9876 15.5957 48.7988 15.3613C48.61 15.1302 48.3724 14.9495 48.0859 14.8193C47.8027 14.6859 47.4707 14.6191 47.0898 14.6191C46.7871 14.6191 46.4909 14.681 46.2012 14.8047C45.9147 14.9284 45.6592 15.1058 45.4346 15.3369C45.2067 15.5713 45.0244 15.8577 44.8877 16.1963C44.751 16.5316 44.6826 16.9124 44.6826 17.3389V17.5439C44.6826 17.9118 44.7445 18.252 44.8682 18.5645C44.9919 18.877 45.1644 19.1471 45.3857 19.375C45.6071 19.6029 45.8724 19.7803 46.1816 19.9072C46.4941 20.0342 46.8359 20.0977 47.207 20.0977ZM47.0898 15.3613C47.321 15.3613 47.5195 15.4036 47.6855 15.4883C47.8548 15.5729 47.9948 15.6836 48.1055 15.8203C48.2161 15.957 48.3024 16.1198 48.3643 16.3086C48.4261 16.4941 48.457 16.6683 48.457 16.8311V16.875H45.6152C45.651 16.6309 45.7129 16.416 45.8008 16.2305C45.8919 16.0417 46.0026 15.8822 46.1328 15.752C46.263 15.625 46.4095 15.529 46.5723 15.4639C46.735 15.3955 46.9076 15.3613 47.0898 15.3613ZM56.3506 20H57.293V19.9219C57.2344 19.7754 57.1888 19.6045 57.1562 19.4092C57.1237 19.2106 57.1074 19.0234 57.1074 18.8477V16.3916C57.1074 16.0954 57.0537 15.8366 56.9463 15.6152C56.8389 15.3939 56.6924 15.2083 56.5068 15.0586C56.318 14.9121 56.0951 14.8031 55.8379 14.7314C55.5807 14.6566 55.3024 14.6191 55.0029 14.6191C54.6742 14.6191 54.3796 14.6647 54.1191 14.7559C53.862 14.847 53.6439 14.9658 53.4648 15.1123C53.2826 15.262 53.1426 15.4297 53.0449 15.6152C52.9505 15.8008 52.9017 15.9896 52.8984 16.1816H53.8066C53.8066 16.071 53.8327 15.9652 53.8848 15.8643C53.9401 15.7601 54.0166 15.6706 54.1143 15.5957C54.2119 15.5208 54.3307 15.4606 54.4707 15.415C54.6139 15.3695 54.7751 15.3467 54.9541 15.3467C55.1462 15.3467 55.3187 15.3711 55.4717 15.4199C55.6279 15.4688 55.7598 15.5371 55.8672 15.625C55.9746 15.7161 56.0576 15.8252 56.1162 15.9521C56.1748 16.0791 56.2041 16.2223 56.2041 16.3818V16.7969H55.2178C54.8499 16.7969 54.5163 16.8327 54.2168 16.9043C53.9206 16.9759 53.6667 17.0833 53.4551 17.2266C53.2435 17.373 53.0791 17.5553 52.9619 17.7734C52.848 17.9915 52.791 18.2454 52.791 18.5352C52.791 18.7565 52.8333 18.9632 52.918 19.1553C53.0059 19.3441 53.1296 19.5068 53.2891 19.6436C53.4453 19.7835 53.6357 19.8942 53.8604 19.9756C54.0882 20.057 54.3421 20.0977 54.6221 20.0977C54.7946 20.0977 54.9574 20.0798 55.1104 20.0439C55.2633 20.0081 55.4082 19.9593 55.5449 19.8975C55.6784 19.8356 55.8005 19.764 55.9111 19.6826C56.0251 19.6012 56.1276 19.515 56.2188 19.4238C56.2285 19.5345 56.2432 19.6419 56.2627 19.7461C56.2855 19.847 56.3148 19.9316 56.3506 20ZM54.7539 19.3115C54.5781 19.3115 54.4235 19.2887 54.29 19.2432C54.1566 19.1976 54.0459 19.1341 53.958 19.0527C53.8701 18.9746 53.8034 18.8802 53.7578 18.7695C53.7155 18.6589 53.6943 18.5384 53.6943 18.4082C53.6943 18.2715 53.7188 18.1494 53.7676 18.042C53.8197 17.9346 53.8945 17.8418 53.9922 17.7637C54.1289 17.653 54.3128 17.5716 54.5439 17.5195C54.7783 17.4642 55.0518 17.4365 55.3643 17.4365H56.2041V18.5059C56.152 18.61 56.0804 18.7109 55.9893 18.8086C55.8981 18.903 55.7907 18.9876 55.667 19.0625C55.54 19.1374 55.4001 19.1976 55.2471 19.2432C55.0941 19.2887 54.9297 19.3115 54.7539 19.3115ZM64.3467 14.6191C63.9626 14.6191 63.6191 14.7038 63.3164 14.873C63.0169 15.0391 62.7598 15.2669 62.5449 15.5566L62.54 15.4248L62.501 14.7168H61.6416V20H62.5498V16.6113C62.6084 16.4486 62.6816 16.3021 62.7695 16.1719C62.8607 16.0384 62.9665 15.9261 63.0869 15.835C63.2204 15.7308 63.3766 15.6527 63.5557 15.6006C63.7347 15.5452 63.9349 15.5176 64.1562 15.5176C64.3288 15.5176 64.4932 15.5273 64.6494 15.5469C64.8089 15.5632 64.9766 15.5908 65.1523 15.6299L65.2744 14.7461C65.1833 14.707 65.0465 14.6761 64.8643 14.6533C64.6852 14.6305 64.5127 14.6191 64.3467 14.6191Z" fill="#707070"/>
<path d="M66.5 90.5L70.5 94L79.5 92.5L81 90L83.5 89.5L85.5 91L85 87.5L86.5 87V86.5L82.5 86L85 83.5L89.5 83L85.5 82L83 81.5L86.5 79L91.5 76.5L87.5 77L82 80L87 74.5L91.5 72.5L87 73.5L81.5 78L86 72L92.5 67.5L86.5 69L80.5 75L82 71L89 63.5L83 67.5L90.5 55L86.5 57.5L79 68L85.5 50L79 57V51L75.5 57.5L72.5 46L70.5 59.5L65.5 50.5V54.5L60.5 48.5L66 58L67.5 63L65 62L58.5 55L62.5 62.5L66.8096 70.5L64.2156 68L58.5 64.3744L62.5 68L65 74L58.5 73.5L61 75.5L64 80.5L61.5 80L57 80.5L60 81L66 85.5L64 84.5L60 85L63 86L60 87.5L64.5 87L66.8096 89H63.5L62.5 90.5H66.5Z" fill="#00810D"/>
<path d="M61.2727 100.892L68 93L81 92L89 104.349L91 117.687L84 131.024H66.2727L59 117.687L61.2727 100.892Z" fill="#FFF386"/>
<path fill-rule="evenodd" clip-rule="evenodd" d="M67.3972 93.7071L73.6108 96.9881L76.0433 92.3813L76.6982 92.3309L74.1021 97.2475L81.5695 101.19L83.9873 96.6115L84.3334 97.1458L82.0607 101.45L89.1245 105.18L89.2268 105.862L81.8013 101.941L77.8583 109.409L85.3257 113.352L89.2386 105.941L89.3776 106.868L85.817 113.611L90.7819 116.233L90.8842 116.915L85.5576 114.102L81.6146 121.57L87.3677 124.607L87.1096 125.099L81.3552 122.061L77.4122 129.528L80.2453 131.024H79.0555L77.1528 130.019L76.6223 131.024H75.9941L76.6615 129.76L69.1942 125.817L66.4447 131.024H66.2727L66.0409 130.599L68.7029 125.558L61.2355 121.615L61.1894 121.702L60.6228 120.663L61.0037 120.864L64.9466 113.397L59.9384 110.752L60.0177 110.166L65.206 112.905L69.149 105.438L61.6817 101.495L61.022 102.744L61.2727 100.892L61.4142 100.726L61.4498 100.744L61.5337 100.585L63.1845 98.6489L61.9411 101.004L69.4084 104.947L73.3514 97.4794L67.0279 94.1404L67.3972 93.7071ZM69.8997 105.206L73.8427 97.7388L81.31 101.682L77.3671 109.149L69.8997 105.206ZM80.8639 121.801L76.9209 129.269L69.4536 125.326L73.3965 117.858L80.8639 121.801ZM72.9053 117.599L68.9623 125.066L61.4949 121.123L65.4379 113.656L72.9053 117.599ZM65.6973 113.165L69.6403 105.697L77.1077 109.64L73.1647 117.108L65.6973 113.165ZM73.656 117.367L77.5989 109.9L85.0663 113.843L81.1233 121.31L73.656 117.367Z" fill="#E7D000"/>
</svg>
