<svg width="150" height="200" viewBox="0 0 150 200" fill="none" xmlns="http://www.w3.org/2000/svg">
<rect width="150" height="200" fill="white"/>
<path d="M17.325 148.505H18.45C18.8267 148.505 19.1533 148.575 19.43 148.715C19.7067 148.855 19.9183 149.055 20.065 149.315C20.215 149.575 20.29 149.882 20.29 150.235C20.29 150.815 20.1217 151.255 19.785 151.555C19.4517 151.852 18.9833 152 18.38 152H17.325V148.505ZM18.375 151.575C18.8417 151.575 19.1917 151.46 19.425 151.23C19.6583 151 19.775 150.668 19.775 150.235C19.775 149.835 19.66 149.518 19.43 149.285C19.2033 149.052 18.8783 148.935 18.455 148.935H17.835V151.575H18.375ZM22.1356 149.13C22.0523 149.13 21.9823 149.102 21.9256 149.045C21.869 148.988 21.8406 148.918 21.8406 148.835C21.8406 148.752 21.869 148.682 21.9256 148.625C21.9823 148.568 22.0523 148.54 22.1356 148.54C22.2223 148.54 22.294 148.568 22.3506 148.625C22.4106 148.682 22.4406 148.752 22.4406 148.835C22.4406 148.918 22.4106 148.988 22.3506 149.045C22.294 149.102 22.2223 149.13 22.1356 149.13ZM21.8806 149.6H22.3956V152H21.8806V149.6ZM24.9756 152.075C24.809 152.075 24.6323 152.053 24.4456 152.01C24.259 151.97 24.1123 151.915 24.0056 151.845V151.415C24.1356 151.492 24.2856 151.555 24.4556 151.605C24.6256 151.652 24.7906 151.675 24.9506 151.675C25.1306 151.675 25.2623 151.653 25.3456 151.61C25.429 151.567 25.4706 151.497 25.4706 151.4C25.4706 151.327 25.4506 151.268 25.4106 151.225C25.374 151.178 25.309 151.137 25.2156 151.1C25.1256 151.063 24.989 151.02 24.8056 150.97C24.609 150.913 24.4523 150.857 24.3356 150.8C24.2223 150.74 24.1356 150.665 24.0756 150.575C24.019 150.485 23.9906 150.368 23.9906 150.225C23.9906 149.995 24.0806 149.822 24.2606 149.705C24.444 149.585 24.689 149.525 24.9956 149.525C25.1556 149.525 25.3123 149.54 25.4656 149.57C25.619 149.6 25.7423 149.642 25.8356 149.695V150.115C25.739 150.058 25.619 150.013 25.4756 149.98C25.3356 149.947 25.1923 149.93 25.0456 149.93C24.869 149.93 24.734 149.952 24.6406 149.995C24.5473 150.038 24.5006 150.115 24.5006 150.225C24.5006 150.295 24.5206 150.352 24.5606 150.395C24.6006 150.438 24.664 150.477 24.7506 150.51C24.8406 150.54 24.9823 150.58 25.1756 150.63C25.479 150.713 25.689 150.812 25.8056 150.925C25.9256 151.038 25.9856 151.195 25.9856 151.395C25.9856 151.602 25.9006 151.767 25.7306 151.89C25.5606 152.013 25.309 152.075 24.9756 152.075ZM28.675 152.075C28.4083 152.075 28.1716 152.025 27.965 151.925C27.7583 151.825 27.5966 151.68 27.48 151.49C27.3666 151.297 27.31 151.068 27.31 150.805C27.31 150.542 27.3666 150.315 27.48 150.125C27.5966 149.932 27.7583 149.783 27.965 149.68C28.175 149.577 28.415 149.525 28.685 149.525C29.0516 149.525 29.345 149.597 29.565 149.74V150.155C29.3483 150.005 29.0716 149.93 28.735 149.93C28.4616 149.93 28.24 150.005 28.07 150.155C27.9033 150.302 27.82 150.518 27.82 150.805C27.82 151.092 27.9033 151.308 28.07 151.455C28.2366 151.602 28.455 151.675 28.725 151.675C29.0616 151.675 29.3516 151.595 29.595 151.435V151.845C29.4783 151.925 29.345 151.983 29.195 152.02C29.0483 152.057 28.875 152.075 28.675 152.075ZM31.9799 152.075C31.6899 152.075 31.4566 152.002 31.2799 151.855C31.1066 151.705 31.0199 151.503 31.0199 151.25C31.0199 150.983 31.1033 150.778 31.2699 150.635C31.4399 150.488 31.6799 150.415 31.9899 150.415C32.3199 150.415 32.5999 150.482 32.8299 150.615V150.49C32.8299 150.3 32.7716 150.16 32.6549 150.07C32.5416 149.977 32.3616 149.93 32.1149 149.93C31.9683 149.93 31.8249 149.945 31.6849 149.975C31.5483 150.002 31.4249 150.04 31.3149 150.09V149.68C31.4149 149.633 31.5449 149.597 31.7049 149.57C31.8649 149.54 32.0199 149.525 32.1699 149.525C32.5666 149.525 32.8599 149.613 33.0499 149.79C33.2433 149.963 33.3399 150.205 33.3399 150.515V152H32.8649V151.73C32.7616 151.843 32.6383 151.93 32.4949 151.99C32.3549 152.047 32.1833 152.075 31.9799 152.075ZM32.1049 151.69C32.2649 151.69 32.4099 151.658 32.5399 151.595C32.6699 151.532 32.7666 151.443 32.8299 151.33V151.005C32.6133 150.865 32.3716 150.795 32.1049 150.795C31.9116 150.795 31.7666 150.833 31.6699 150.91C31.5766 150.983 31.5299 151.097 31.5299 151.25C31.5299 151.543 31.7216 151.69 32.1049 151.69ZM34.9666 149.6H35.4566V150.03C35.5566 149.883 35.6966 149.775 35.8766 149.705C36.0599 149.635 36.2716 149.6 36.5116 149.6V149.995C36.2549 149.995 36.0349 150.037 35.8516 150.12C35.6683 150.203 35.5416 150.335 35.4716 150.515V152H34.9666V149.6ZM39.0504 152.075C38.8104 152.075 38.5938 152.023 38.4004 151.92C38.2104 151.813 38.0604 151.665 37.9504 151.475C37.8438 151.282 37.7904 151.058 37.7904 150.805C37.7904 150.555 37.8438 150.333 37.9504 150.14C38.0604 149.947 38.2104 149.797 38.4004 149.69C38.5938 149.58 38.8104 149.525 39.0504 149.525C39.4838 149.525 39.8121 149.657 40.0354 149.92V148.305H40.5404V152H40.0504V151.65C39.9171 151.797 39.7704 151.905 39.6104 151.975C39.4538 152.042 39.2671 152.075 39.0504 152.075ZM39.1654 151.675C39.3721 151.675 39.5521 151.622 39.7054 151.515C39.8621 151.405 39.9721 151.258 40.0354 151.075V150.535C39.9788 150.352 39.8704 150.205 39.7104 150.095C39.5538 149.985 39.3721 149.93 39.1654 149.93C39.0021 149.93 38.8538 149.967 38.7204 150.04C38.5904 150.113 38.4871 150.217 38.4104 150.35C38.3371 150.483 38.3004 150.635 38.3004 150.805C38.3004 150.975 38.3371 151.127 38.4104 151.26C38.4871 151.393 38.5904 151.497 38.7204 151.57C38.8538 151.64 39.0021 151.675 39.1654 151.675ZM46.0068 152.075C45.8035 152.075 45.6085 152.058 45.4218 152.025C45.2385 151.995 45.0785 151.948 44.9418 151.885V151.465C45.2518 151.605 45.5851 151.675 45.9418 151.675C46.2485 151.675 46.4751 151.62 46.6218 151.51C46.7718 151.397 46.8468 151.237 46.8468 151.03C46.8468 150.817 46.7701 150.665 46.6168 150.575C46.4635 150.482 46.2301 150.435 45.9168 150.435H45.5068V150.025H45.9068C46.1568 150.025 46.3585 149.975 46.5118 149.875C46.6651 149.772 46.7418 149.622 46.7418 149.425C46.7418 149.232 46.6785 149.085 46.5518 148.985C46.4251 148.885 46.2418 148.835 46.0018 148.835C45.8151 148.835 45.6468 148.857 45.4968 148.9C45.3468 148.943 45.1918 149.015 45.0318 149.115V148.695C45.3251 148.518 45.6685 148.43 46.0618 148.43C46.4518 148.43 46.7485 148.517 46.9518 148.69C47.1551 148.863 47.2568 149.103 47.2568 149.41C47.2568 149.597 47.2068 149.76 47.1068 149.9C47.0068 150.04 46.8568 150.148 46.6568 150.225C46.8835 150.278 47.0568 150.375 47.1768 150.515C47.3001 150.655 47.3618 150.832 47.3618 151.045C47.3618 151.362 47.2535 151.613 47.0368 151.8C46.8201 151.983 46.4768 152.075 46.0068 152.075ZM51.6635 149.6H52.1785L52.7185 151.38L53.2535 149.6H53.7085L54.2435 151.38L54.7835 149.6H55.3035L54.5235 152H54.0385L53.4835 150.21L52.9285 152H52.4385L51.6635 149.6ZM57.4418 152.075C57.1518 152.075 56.9185 152.002 56.7418 151.855C56.5685 151.705 56.4818 151.503 56.4818 151.25C56.4818 150.983 56.5652 150.778 56.7318 150.635C56.9018 150.488 57.1418 150.415 57.4518 150.415C57.7818 150.415 58.0618 150.482 58.2918 150.615V150.49C58.2918 150.3 58.2335 150.16 58.1168 150.07C58.0035 149.977 57.8235 149.93 57.5768 149.93C57.4302 149.93 57.2868 149.945 57.1468 149.975C57.0102 150.002 56.8868 150.04 56.7768 150.09V149.68C56.8768 149.633 57.0068 149.597 57.1668 149.57C57.3268 149.54 57.4818 149.525 57.6318 149.525C58.0285 149.525 58.3218 149.613 58.5118 149.79C58.7052 149.963 58.8018 150.205 58.8018 150.515V152H58.3268V151.73C58.2235 151.843 58.1002 151.93 57.9568 151.99C57.8168 152.047 57.6452 152.075 57.4418 152.075ZM57.5668 151.69C57.7268 151.69 57.8718 151.658 58.0018 151.595C58.1318 151.532 58.2285 151.443 58.2918 151.33V151.005C58.0752 150.865 57.8335 150.795 57.5668 150.795C57.3735 150.795 57.2285 150.833 57.1318 150.91C57.0385 150.983 56.9918 151.097 56.9918 151.25C56.9918 151.543 57.1835 151.69 57.5668 151.69ZM61.2266 152.075C60.9832 152.075 60.7949 152.005 60.6616 151.865C60.5316 151.725 60.4666 151.527 60.4666 151.27V149.99H60.1016V149.6H60.4666V148.88H60.9766V149.6H61.5666V149.99H60.9766V151.235C60.9766 151.395 61.0066 151.508 61.0666 151.575C61.1299 151.642 61.2432 151.675 61.4066 151.675C61.5032 151.675 61.5999 151.653 61.6966 151.61V152.01C61.5699 152.053 61.4132 152.075 61.2266 152.075ZM64.4917 152.075C64.0483 152.075 63.7 151.965 63.4467 151.745C63.1967 151.522 63.0717 151.208 63.0717 150.805C63.0717 150.412 63.1833 150.1 63.4067 149.87C63.6333 149.64 63.955 149.525 64.3717 149.525C64.6483 149.525 64.8833 149.578 65.0767 149.685C65.27 149.788 65.415 149.933 65.5117 150.12C65.6117 150.303 65.6617 150.513 65.6617 150.75V151H63.5517C63.5683 151.227 63.6633 151.397 63.8367 151.51C64.0133 151.62 64.2517 151.675 64.5517 151.675C64.705 151.675 64.86 151.662 65.0167 151.635C65.1733 151.605 65.3117 151.567 65.4317 151.52V151.925C65.325 151.968 65.1833 152.003 65.0067 152.03C64.8333 152.06 64.6617 152.075 64.4917 152.075ZM65.1867 150.645C65.18 150.418 65.105 150.243 64.9617 150.12C64.8217 149.993 64.6217 149.93 64.3617 149.93C64.1083 149.93 63.9117 149.995 63.7717 150.125C63.6317 150.255 63.5583 150.428 63.5517 150.645H65.1867ZM67.2137 149.6H67.7037V150.03C67.8037 149.883 67.9437 149.775 68.1237 149.705C68.307 149.635 68.5187 149.6 68.7587 149.6V149.995C68.502 149.995 68.282 150.037 68.0987 150.12C67.9153 150.203 67.7887 150.335 67.7187 150.515V152H67.2137V149.6ZM70.3457 152C70.2791 152 70.2224 151.978 70.1757 151.935C70.1324 151.888 70.1107 151.832 70.1107 151.765C70.1107 151.698 70.1324 151.642 70.1757 151.595C70.2224 151.548 70.2791 151.525 70.3457 151.525C70.4124 151.525 70.4691 151.548 70.5157 151.595C70.5624 151.642 70.5857 151.698 70.5857 151.765C70.5857 151.832 70.5624 151.888 70.5157 151.935C70.4691 151.978 70.4124 152 70.3457 152ZM77.8348 148.505H78.9598C79.3364 148.505 79.6631 148.575 79.9398 148.715C80.2164 148.855 80.4281 149.055 80.5748 149.315C80.7248 149.575 80.7998 149.882 80.7998 150.235C80.7998 150.815 80.6314 151.255 80.2948 151.555C79.9614 151.852 79.4931 152 78.8898 152H77.8348V148.505ZM78.8848 151.575C79.3514 151.575 79.7014 151.46 79.9348 151.23C80.1681 151 80.2848 150.668 80.2848 150.235C80.2848 149.835 80.1698 149.518 79.9398 149.285C79.7131 149.052 79.3881 148.935 78.9648 148.935H78.3448V151.575H78.8848ZM82.6454 149.13C82.5621 149.13 82.4921 149.102 82.4354 149.045C82.3787 148.988 82.3504 148.918 82.3504 148.835C82.3504 148.752 82.3787 148.682 82.4354 148.625C82.4921 148.568 82.5621 148.54 82.6454 148.54C82.7321 148.54 82.8037 148.568 82.8604 148.625C82.9204 148.682 82.9504 148.752 82.9504 148.835C82.9504 148.918 82.9204 148.988 82.8604 149.045C82.8037 149.102 82.7321 149.13 82.6454 149.13ZM82.3904 149.6H82.9054V152H82.3904V149.6ZM85.4854 152.075C85.3187 152.075 85.1421 152.053 84.9554 152.01C84.7687 151.97 84.6221 151.915 84.5154 151.845V151.415C84.6454 151.492 84.7954 151.555 84.9654 151.605C85.1354 151.652 85.3004 151.675 85.4604 151.675C85.6404 151.675 85.7721 151.653 85.8554 151.61C85.9387 151.567 85.9804 151.497 85.9804 151.4C85.9804 151.327 85.9604 151.268 85.9204 151.225C85.8837 151.178 85.8187 151.137 85.7254 151.1C85.6354 151.063 85.4987 151.02 85.3154 150.97C85.1187 150.913 84.9621 150.857 84.8454 150.8C84.7321 150.74 84.6454 150.665 84.5854 150.575C84.5287 150.485 84.5004 150.368 84.5004 150.225C84.5004 149.995 84.5904 149.822 84.7704 149.705C84.9537 149.585 85.1987 149.525 85.5054 149.525C85.6654 149.525 85.8221 149.54 85.9754 149.57C86.1287 149.6 86.2521 149.642 86.3454 149.695V150.115C86.2487 150.058 86.1287 150.013 85.9854 149.98C85.8454 149.947 85.7021 149.93 85.5554 149.93C85.3787 149.93 85.2437 149.952 85.1504 149.995C85.0571 150.038 85.0104 150.115 85.0104 150.225C85.0104 150.295 85.0304 150.352 85.0704 150.395C85.1104 150.438 85.1737 150.477 85.2604 150.51C85.3504 150.54 85.4921 150.58 85.6854 150.63C85.9887 150.713 86.1987 150.812 86.3154 150.925C86.4354 151.038 86.4954 151.195 86.4954 151.395C86.4954 151.602 86.4104 151.767 86.2404 151.89C86.0704 152.013 85.8187 152.075 85.4854 152.075ZM89.1847 152.075C88.9181 152.075 88.6814 152.025 88.4747 151.925C88.2681 151.825 88.1064 151.68 87.9897 151.49C87.8764 151.297 87.8197 151.068 87.8197 150.805C87.8197 150.542 87.8764 150.315 87.9897 150.125C88.1064 149.932 88.2681 149.783 88.4747 149.68C88.6847 149.577 88.9247 149.525 89.1947 149.525C89.5614 149.525 89.8547 149.597 90.0747 149.74V150.155C89.8581 150.005 89.5814 149.93 89.2447 149.93C88.9714 149.93 88.7497 150.005 88.5797 150.155C88.4131 150.302 88.3297 150.518 88.3297 150.805C88.3297 151.092 88.4131 151.308 88.5797 151.455C88.7464 151.602 88.9647 151.675 89.2347 151.675C89.5714 151.675 89.8614 151.595 90.1047 151.435V151.845C89.9881 151.925 89.8547 151.983 89.7047 152.02C89.5581 152.057 89.3847 152.075 89.1847 152.075ZM92.4897 152.075C92.1997 152.075 91.9664 152.002 91.7897 151.855C91.6164 151.705 91.5297 151.503 91.5297 151.25C91.5297 150.983 91.613 150.778 91.7797 150.635C91.9497 150.488 92.1897 150.415 92.4997 150.415C92.8297 150.415 93.1097 150.482 93.3397 150.615V150.49C93.3397 150.3 93.2814 150.16 93.1647 150.07C93.0514 149.977 92.8714 149.93 92.6247 149.93C92.478 149.93 92.3347 149.945 92.1947 149.975C92.058 150.002 91.9347 150.04 91.8247 150.09V149.68C91.9247 149.633 92.0547 149.597 92.2147 149.57C92.3747 149.54 92.5297 149.525 92.6797 149.525C93.0764 149.525 93.3697 149.613 93.5597 149.79C93.753 149.963 93.8497 150.205 93.8497 150.515V152H93.3747V151.73C93.2714 151.843 93.148 151.93 93.0047 151.99C92.8647 152.047 92.693 152.075 92.4897 152.075ZM92.6147 151.69C92.7747 151.69 92.9197 151.658 93.0497 151.595C93.1797 151.532 93.2764 151.443 93.3397 151.33V151.005C93.123 150.865 92.8814 150.795 92.6147 150.795C92.4214 150.795 92.2764 150.833 92.1797 150.91C92.0864 150.983 92.0397 151.097 92.0397 151.25C92.0397 151.543 92.2314 151.69 92.6147 151.69ZM95.4764 149.6H95.9664V150.03C96.0664 149.883 96.2064 149.775 96.3864 149.705C96.5697 149.635 96.7814 149.6 97.0214 149.6V149.995C96.7647 149.995 96.5447 150.037 96.3614 150.12C96.178 150.203 96.0514 150.335 95.9814 150.515V152H95.4764V149.6ZM99.5602 152.075C99.3202 152.075 99.1035 152.023 98.9102 151.92C98.7202 151.813 98.5702 151.665 98.4602 151.475C98.3535 151.282 98.3002 151.058 98.3002 150.805C98.3002 150.555 98.3535 150.333 98.4602 150.14C98.5702 149.947 98.7202 149.797 98.9102 149.69C99.1035 149.58 99.3202 149.525 99.5602 149.525C99.9935 149.525 100.322 149.657 100.545 149.92V148.305H101.05V152H100.56V151.65C100.427 151.797 100.28 151.905 100.12 151.975C99.9635 152.042 99.7769 152.075 99.5602 152.075ZM99.6752 151.675C99.8819 151.675 100.062 151.622 100.215 151.515C100.372 151.405 100.482 151.258 100.545 151.075V150.535C100.489 150.352 100.38 150.205 100.22 150.095C100.064 149.985 99.8819 149.93 99.6752 149.93C99.5119 149.93 99.3635 149.967 99.2302 150.04C99.1002 150.113 98.9969 150.217 98.9202 150.35C98.8469 150.483 98.8102 150.635 98.8102 150.805C98.8102 150.975 98.8469 151.127 98.9202 151.26C98.9969 151.393 99.1002 151.497 99.2302 151.57C99.3635 151.64 99.5119 151.675 99.6752 151.675ZM105.717 149.99H105.352V149.6H105.717V149.13C105.717 148.853 105.795 148.643 105.952 148.5C106.108 148.353 106.318 148.28 106.582 148.28C106.718 148.28 106.847 148.3 106.967 148.34V148.76C106.873 148.717 106.777 148.695 106.677 148.695C106.52 148.695 106.405 148.733 106.332 148.81C106.258 148.883 106.222 149 106.222 149.16V149.6H106.822V149.99H106.222V152H105.717V149.99ZM108.29 149.6H108.78V150.03C108.88 149.883 109.02 149.775 109.2 149.705C109.383 149.635 109.595 149.6 109.835 149.6V149.995C109.578 149.995 109.358 150.037 109.175 150.12C108.992 150.203 108.865 150.335 108.795 150.515V152H108.29V149.6ZM112.479 152.075C112.209 152.075 111.97 152.025 111.764 151.925C111.56 151.822 111.4 151.675 111.284 151.485C111.17 151.292 111.114 151.065 111.114 150.805C111.114 150.548 111.17 150.323 111.284 150.13C111.397 149.937 111.557 149.788 111.764 149.685C111.97 149.578 112.209 149.525 112.479 149.525C112.749 149.525 112.987 149.578 113.194 149.685C113.4 149.788 113.56 149.937 113.674 150.13C113.79 150.323 113.849 150.548 113.849 150.805C113.849 151.065 113.79 151.292 113.674 151.485C113.56 151.675 113.4 151.822 113.194 151.925C112.987 152.025 112.749 152.075 112.479 152.075ZM112.479 151.675C112.739 151.675 112.945 151.595 113.099 151.435C113.252 151.275 113.329 151.065 113.329 150.805C113.329 150.535 113.252 150.322 113.099 150.165C112.945 150.008 112.739 149.93 112.479 149.93C112.219 149.93 112.012 150.008 111.859 150.165C111.705 150.322 111.629 150.535 111.629 150.805C111.629 151.065 111.705 151.275 111.859 151.435C112.012 151.595 112.219 151.675 112.479 151.675ZM115.397 149.6H115.877V149.945C115.991 149.805 116.119 149.7 116.262 149.63C116.406 149.56 116.554 149.525 116.707 149.525C116.901 149.525 117.054 149.558 117.167 149.625C117.281 149.688 117.364 149.787 117.417 149.92C117.524 149.79 117.654 149.692 117.807 149.625C117.964 149.558 118.121 149.525 118.277 149.525C118.571 149.525 118.782 149.6 118.912 149.75C119.042 149.897 119.107 150.115 119.107 150.405V152H118.617V150.47C118.617 150.273 118.581 150.135 118.507 150.055C118.434 149.972 118.309 149.93 118.132 149.93C117.879 149.93 117.672 150.04 117.512 150.26C117.519 150.31 117.522 150.392 117.522 150.505V152H117.032V150.47C117.032 150.273 116.999 150.135 116.932 150.055C116.866 149.972 116.746 149.93 116.572 149.93C116.319 149.93 116.092 150.073 115.892 150.36V152H115.397V149.6ZM124.509 152.075C124.265 152.075 124.077 152.005 123.944 151.865C123.814 151.725 123.749 151.527 123.749 151.27V149.99H123.384V149.6H123.749V148.88H124.259V149.6H124.849V149.99H124.259V151.235C124.259 151.395 124.289 151.508 124.349 151.575C124.412 151.642 124.525 151.675 124.689 151.675C124.785 151.675 124.882 151.653 124.979 151.61V152.01C124.852 152.053 124.695 152.075 124.509 152.075ZM126.454 148.305H126.959V149.93C127.189 149.66 127.496 149.525 127.879 149.525C128.199 149.525 128.437 149.61 128.594 149.78C128.751 149.95 128.829 150.178 128.829 150.465V152H128.324V150.515C128.324 150.125 128.137 149.93 127.764 149.93C127.604 149.93 127.454 149.968 127.314 150.045C127.177 150.118 127.059 150.232 126.959 150.385V152H126.454V148.305ZM131.772 152.075C131.329 152.075 130.98 151.965 130.727 151.745C130.477 151.522 130.352 151.208 130.352 150.805C130.352 150.412 130.464 150.1 130.687 149.87C130.914 149.64 131.235 149.525 131.652 149.525C131.929 149.525 132.164 149.578 132.357 149.685C132.55 149.788 132.695 149.933 132.792 150.12C132.892 150.303 132.942 150.513 132.942 150.75V151H130.832C130.849 151.227 130.944 151.397 131.117 151.51C131.294 151.62 131.532 151.675 131.832 151.675C131.985 151.675 132.14 151.662 132.297 151.635C132.454 151.605 132.592 151.567 132.712 151.52V151.925C132.605 151.968 132.464 152.003 132.287 152.03C132.114 152.06 131.942 152.075 131.772 152.075ZM132.467 150.645C132.46 150.418 132.385 150.243 132.242 150.12C132.102 149.993 131.902 149.93 131.642 149.93C131.389 149.93 131.192 149.995 131.052 150.125C130.912 150.255 130.839 150.428 130.832 150.645H132.467ZM18.25 160.075C18.0067 160.075 17.8183 160.005 17.685 159.865C17.555 159.725 17.49 159.527 17.49 159.27V157.99H17.125V157.6H17.49V156.88H18V157.6H18.59V157.99H18V159.235C18 159.395 18.03 159.508 18.09 159.575C18.1533 159.642 18.2667 159.675 18.43 159.675C18.5267 159.675 18.6233 159.653 18.72 159.61V160.01C18.5933 160.053 18.4367 160.075 18.25 160.075ZM21.4357 160.075C21.1657 160.075 20.9274 160.025 20.7207 159.925C20.5174 159.822 20.3574 159.675 20.2407 159.485C20.1274 159.292 20.0707 159.065 20.0707 158.805C20.0707 158.548 20.1274 158.323 20.2407 158.13C20.354 157.937 20.514 157.788 20.7207 157.685C20.9274 157.578 21.1657 157.525 21.4357 157.525C21.7057 157.525 21.944 157.578 22.1507 157.685C22.3574 157.788 22.5174 157.937 22.6307 158.13C22.7474 158.323 22.8057 158.548 22.8057 158.805C22.8057 159.065 22.7474 159.292 22.6307 159.485C22.5174 159.675 22.3574 159.822 22.1507 159.925C21.944 160.025 21.7057 160.075 21.4357 160.075ZM21.4357 159.675C21.6957 159.675 21.9024 159.595 22.0557 159.435C22.209 159.275 22.2857 159.065 22.2857 158.805C22.2857 158.535 22.209 158.322 22.0557 158.165C21.9024 158.008 21.6957 157.93 21.4357 157.93C21.1757 157.93 20.969 158.008 20.8157 158.165C20.6624 158.322 20.5857 158.535 20.5857 158.805C20.5857 159.065 20.6624 159.275 20.8157 159.435C20.969 159.595 21.1757 159.675 21.4357 159.675ZM24.3543 157.6H24.8443V157.955C25.091 157.668 25.4243 157.525 25.8443 157.525C26.0843 157.525 26.2993 157.578 26.4893 157.685C26.6826 157.792 26.8326 157.942 26.9393 158.135C27.0493 158.325 27.1043 158.547 27.1043 158.8C27.1043 159.05 27.0493 159.272 26.9393 159.465C26.8326 159.658 26.6843 159.808 26.4943 159.915C26.3043 160.022 26.0876 160.075 25.8443 160.075C25.6443 160.075 25.4576 160.042 25.2843 159.975C25.111 159.908 24.9693 159.81 24.8593 159.68V161.095H24.3543V157.6ZM25.7293 159.675C25.8926 159.675 26.0393 159.64 26.1693 159.57C26.3026 159.497 26.406 159.393 26.4793 159.26C26.556 159.127 26.5943 158.973 26.5943 158.8C26.5943 158.627 26.556 158.475 26.4793 158.345C26.406 158.212 26.3026 158.11 26.1693 158.04C26.0393 157.967 25.8926 157.93 25.7293 157.93C25.526 157.93 25.346 157.983 25.1893 158.09C25.036 158.197 24.926 158.343 24.8593 158.53V159.07C24.916 159.253 25.0243 159.4 25.1843 159.51C25.3443 159.62 25.526 159.675 25.7293 159.675ZM32.7707 160.075C32.5007 160.075 32.2623 160.025 32.0557 159.925C31.8523 159.822 31.6923 159.675 31.5757 159.485C31.4623 159.292 31.4057 159.065 31.4057 158.805C31.4057 158.548 31.4623 158.323 31.5757 158.13C31.689 157.937 31.849 157.788 32.0557 157.685C32.2623 157.578 32.5007 157.525 32.7707 157.525C33.0407 157.525 33.279 157.578 33.4857 157.685C33.6923 157.788 33.8523 157.937 33.9657 158.13C34.0823 158.323 34.1407 158.548 34.1407 158.805C34.1407 159.065 34.0823 159.292 33.9657 159.485C33.8523 159.675 33.6923 159.822 33.4857 159.925C33.279 160.025 33.0407 160.075 32.7707 160.075ZM32.7707 159.675C33.0307 159.675 33.2373 159.595 33.3907 159.435C33.544 159.275 33.6207 159.065 33.6207 158.805C33.6207 158.535 33.544 158.322 33.3907 158.165C33.2373 158.008 33.0307 157.93 32.7707 157.93C32.5107 157.93 32.304 158.008 32.1507 158.165C31.9973 158.322 31.9207 158.535 31.9207 158.805C31.9207 159.065 31.9973 159.275 32.1507 159.435C32.304 159.595 32.5107 159.675 32.7707 159.675ZM35.6785 157.99H35.3135V157.6H35.6785V157.13C35.6785 156.853 35.7568 156.643 35.9135 156.5C36.0701 156.353 36.2801 156.28 36.5435 156.28C36.6801 156.28 36.8085 156.3 36.9285 156.34V156.76C36.8351 156.717 36.7385 156.695 36.6385 156.695C36.4818 156.695 36.3668 156.733 36.2935 156.81C36.2201 156.883 36.1835 157 36.1835 157.16V157.6H36.7835V157.99H36.1835V160H35.6785V157.99ZM42.0518 160.075C41.8084 160.075 41.6201 160.005 41.4868 159.865C41.3568 159.725 41.2918 159.527 41.2918 159.27V157.99H40.9268V157.6H41.2918V156.88H41.8018V157.6H42.3918V157.99H41.8018V159.235C41.8018 159.395 41.8318 159.508 41.8918 159.575C41.9551 159.642 42.0684 159.675 42.2318 159.675C42.3284 159.675 42.4251 159.653 42.5218 159.61V160.01C42.3951 160.053 42.2384 160.075 42.0518 160.075ZM43.9969 156.305H44.5019V157.93C44.7319 157.66 45.0385 157.525 45.4219 157.525C45.7419 157.525 45.9802 157.61 46.1369 157.78C46.2935 157.95 46.3719 158.178 46.3719 158.465V160H45.8669V158.515C45.8669 158.125 45.6802 157.93 45.3069 157.93C45.1469 157.93 44.9969 157.968 44.8569 158.045C44.7202 158.118 44.6019 158.232 44.5019 158.385V160H43.9969V156.305ZM49.3149 160.075C48.8716 160.075 48.5233 159.965 48.2699 159.745C48.0199 159.522 47.8949 159.208 47.8949 158.805C47.8949 158.412 48.0066 158.1 48.2299 157.87C48.4566 157.64 48.7783 157.525 49.1949 157.525C49.4716 157.525 49.7066 157.578 49.8999 157.685C50.0933 157.788 50.2383 157.933 50.3349 158.12C50.4349 158.303 50.4849 158.513 50.4849 158.75V159H48.3749C48.3916 159.227 48.4866 159.397 48.6599 159.51C48.8366 159.62 49.0749 159.675 49.3749 159.675C49.5283 159.675 49.6833 159.662 49.8399 159.635C49.9966 159.605 50.1349 159.567 50.2549 159.52V159.925C50.1483 159.968 50.0066 160.003 49.8299 160.03C49.6566 160.06 49.4849 160.075 49.3149 160.075ZM50.0099 158.645C50.0033 158.418 49.9283 158.243 49.7849 158.12C49.6449 157.993 49.4449 157.93 49.1849 157.93C48.9316 157.93 48.7349 157.995 48.5949 158.125C48.4549 158.255 48.3816 158.428 48.3749 158.645H50.0099ZM54.8875 156.505H56.0125C56.3892 156.505 56.7158 156.575 56.9925 156.715C57.2692 156.855 57.4808 157.055 57.6275 157.315C57.7775 157.575 57.8525 157.882 57.8525 158.235C57.8525 158.815 57.6842 159.255 57.3475 159.555C57.0142 159.852 56.5458 160 55.9425 160H54.8875V156.505ZM55.9375 159.575C56.4042 159.575 56.7542 159.46 56.9875 159.23C57.2208 159 57.3375 158.668 57.3375 158.235C57.3375 157.835 57.2225 157.518 56.9925 157.285C56.7658 157.052 56.4408 156.935 56.0175 156.935H55.3975V159.575H55.9375ZM59.4031 157.6H59.8931V158.03C59.9931 157.883 60.1331 157.775 60.3131 157.705C60.4965 157.635 60.7081 157.6 60.9481 157.6V157.995C60.6915 157.995 60.4715 158.037 60.2881 158.12C60.1048 158.203 59.9781 158.335 59.9081 158.515V160H59.4031V157.6ZM63.0356 160.075C62.7456 160.075 62.5123 160.002 62.3356 159.855C62.1623 159.705 62.0756 159.503 62.0756 159.25C62.0756 158.983 62.1589 158.778 62.3256 158.635C62.4956 158.488 62.7356 158.415 63.0456 158.415C63.3756 158.415 63.6556 158.482 63.8856 158.615V158.49C63.8856 158.3 63.8273 158.16 63.7106 158.07C63.5973 157.977 63.4173 157.93 63.1706 157.93C63.0239 157.93 62.8806 157.945 62.7406 157.975C62.6039 158.002 62.4806 158.04 62.3706 158.09V157.68C62.4706 157.633 62.6006 157.597 62.7606 157.57C62.9206 157.54 63.0756 157.525 63.2256 157.525C63.6223 157.525 63.9156 157.613 64.1056 157.79C64.2989 157.963 64.3956 158.205 64.3956 158.515V160H63.9206V159.73C63.8173 159.843 63.6939 159.93 63.5506 159.99C63.4106 160.047 63.2389 160.075 63.0356 160.075ZM63.1606 159.69C63.3206 159.69 63.4656 159.658 63.5956 159.595C63.7256 159.532 63.8223 159.443 63.8856 159.33V159.005C63.6689 158.865 63.4273 158.795 63.1606 158.795C62.9673 158.795 62.8223 158.833 62.7256 158.91C62.6323 158.983 62.5856 159.097 62.5856 159.25C62.5856 159.543 62.7773 159.69 63.1606 159.69ZM65.6488 157.6H66.1638L66.7038 159.38L67.2388 157.6H67.6938L68.2288 159.38L68.7688 157.6H69.2888L68.5088 160H68.0238L67.4688 158.21L66.9138 160H66.4238L65.6488 157.6ZM73.6912 156.505H75.0362C75.4129 156.505 75.7095 156.6 75.9262 156.79C76.1462 156.977 76.2562 157.243 76.2562 157.59C76.2562 157.943 76.1479 158.212 75.9312 158.395C75.7145 158.575 75.4162 158.665 75.0362 158.665H74.2012V160H73.6912V156.505ZM74.9812 158.24C75.2145 158.24 75.3995 158.192 75.5362 158.095C75.6729 157.998 75.7412 157.83 75.7412 157.59C75.7412 157.35 75.6729 157.182 75.5362 157.085C75.3995 156.985 75.2145 156.935 74.9812 156.935H74.2012V158.24H74.9812ZM77.9989 157.13C77.9156 157.13 77.8456 157.102 77.7889 157.045C77.7322 156.988 77.7039 156.918 77.7039 156.835C77.7039 156.752 77.7322 156.682 77.7889 156.625C77.8456 156.568 77.9156 156.54 77.9989 156.54C78.0856 156.54 78.1572 156.568 78.2139 156.625C78.2739 156.682 78.3039 156.752 78.3039 156.835C78.3039 156.918 78.2739 156.988 78.2139 157.045C78.1572 157.102 78.0856 157.13 77.9989 157.13ZM77.7439 157.6H78.2589V160H77.7439V157.6ZM79.9539 156.305H80.4589V160H79.9539V156.305ZM83.4311 160.075C82.9878 160.075 82.6395 159.965 82.3861 159.745C82.1361 159.522 82.0111 159.208 82.0111 158.805C82.0111 158.412 82.1228 158.1 82.3461 157.87C82.5728 157.64 82.8945 157.525 83.3111 157.525C83.5878 157.525 83.8228 157.578 84.0161 157.685C84.2095 157.788 84.3545 157.933 84.4511 158.12C84.5511 158.303 84.6011 158.513 84.6011 158.75V159H82.4911C82.5078 159.227 82.6028 159.397 82.7761 159.51C82.9528 159.62 83.1911 159.675 83.4911 159.675C83.6445 159.675 83.7995 159.662 83.9561 159.635C84.1128 159.605 84.2511 159.567 84.3711 159.52V159.925C84.2645 159.968 84.1228 160.003 83.9461 160.03C83.7728 160.06 83.6011 160.075 83.4311 160.075ZM84.1261 158.645C84.1195 158.418 84.0445 158.243 83.9011 158.12C83.7611 157.993 83.5611 157.93 83.3011 157.93C83.0478 157.93 82.8511 157.995 82.7111 158.125C82.5711 158.255 82.4978 158.428 82.4911 158.645H84.1261ZM89.9587 160.075C89.6354 160.075 89.3904 159.988 89.2237 159.815C89.0604 159.642 88.9787 159.41 88.9787 159.12V157.6H89.4837V159.1C89.4837 159.483 89.6754 159.675 90.0587 159.675C90.3954 159.675 90.6587 159.523 90.8487 159.22V157.6H91.3537V160H90.8637V159.66C90.7504 159.803 90.6154 159.908 90.4587 159.975C90.3054 160.042 90.1387 160.075 89.9587 160.075ZM93.0018 157.6H93.4918V157.945C93.6051 157.802 93.7434 157.697 93.9068 157.63C94.0734 157.56 94.2468 157.525 94.4268 157.525C94.7468 157.525 94.9851 157.61 95.1418 157.78C95.2984 157.95 95.3768 158.178 95.3768 158.465V160H94.8718V158.515C94.8718 158.125 94.6851 157.93 94.3118 157.93C94.1518 157.93 94.0018 157.968 93.8618 158.045C93.7251 158.118 93.6068 158.232 93.5068 158.385V160H93.0018V157.6ZM97.9248 160.075C97.6815 160.075 97.4931 160.005 97.3598 159.865C97.2298 159.725 97.1648 159.527 97.1648 159.27V157.99H96.7998V157.6H97.1648V156.88H97.6748V157.6H98.2648V157.99H97.6748V159.235C97.6748 159.395 97.7048 159.508 97.7648 159.575C97.8281 159.642 97.9415 159.675 98.1048 159.675C98.2015 159.675 98.2981 159.653 98.3948 159.61V160.01C98.2681 160.053 98.1115 160.075 97.9248 160.075ZM100.165 157.13C100.082 157.13 100.012 157.102 99.9549 157.045C99.8983 156.988 99.8699 156.918 99.8699 156.835C99.8699 156.752 99.8983 156.682 99.9549 156.625C100.012 156.568 100.082 156.54 100.165 156.54C100.252 156.54 100.323 156.568 100.38 156.625C100.44 156.682 100.47 156.752 100.47 156.835C100.47 156.918 100.44 156.988 100.38 157.045C100.323 157.102 100.252 157.13 100.165 157.13ZM99.9099 157.6H100.425V160H99.9099V157.6ZM102.12 156.305H102.625V160H102.12V156.305ZM107.638 160.99C107.458 160.99 107.308 160.972 107.188 160.935V160.54C107.274 160.573 107.381 160.59 107.508 160.59C107.624 160.59 107.716 160.56 107.783 160.5C107.849 160.443 107.909 160.35 107.963 160.22L108.078 159.94L107.028 157.6H107.548L108.348 159.445L109.093 157.6H109.613L108.533 160.27C108.433 160.52 108.313 160.702 108.173 160.815C108.036 160.932 107.858 160.99 107.638 160.99ZM112 160.075C111.73 160.075 111.492 160.025 111.285 159.925C111.082 159.822 110.922 159.675 110.805 159.485C110.692 159.292 110.635 159.065 110.635 158.805C110.635 158.548 110.692 158.323 110.805 158.13C110.918 157.937 111.078 157.788 111.285 157.685C111.492 157.578 111.73 157.525 112 157.525C112.27 157.525 112.508 157.578 112.715 157.685C112.922 157.788 113.082 157.937 113.195 158.13C113.312 158.323 113.37 158.548 113.37 158.805C113.37 159.065 113.312 159.292 113.195 159.485C113.082 159.675 112.922 159.822 112.715 159.925C112.508 160.025 112.27 160.075 112 160.075ZM112 159.675C112.26 159.675 112.467 159.595 112.62 159.435C112.773 159.275 112.85 159.065 112.85 158.805C112.85 158.535 112.773 158.322 112.62 158.165C112.467 158.008 112.26 157.93 112 157.93C111.74 157.93 111.533 158.008 111.38 158.165C111.227 158.322 111.15 158.535 111.15 158.805C111.15 159.065 111.227 159.275 111.38 159.435C111.533 159.595 111.74 159.675 112 159.675ZM115.874 160.075C115.55 160.075 115.305 159.988 115.139 159.815C114.975 159.642 114.894 159.41 114.894 159.12V157.6H115.399V159.1C115.399 159.483 115.59 159.675 115.974 159.675C116.31 159.675 116.574 159.523 116.764 159.22V157.6H117.269V160H116.779V159.66C116.665 159.803 116.53 159.908 116.374 159.975C116.22 160.042 116.054 160.075 115.874 160.075ZM17.325 165.6H17.815V166.03C17.915 165.883 18.055 165.775 18.235 165.705C18.4183 165.635 18.63 165.6 18.87 165.6V165.995C18.6133 165.995 18.3933 166.037 18.21 166.12C18.0267 166.203 17.9 166.335 17.83 166.515V168H17.325V165.6ZM21.4907 168.075C21.0474 168.075 20.699 167.965 20.4457 167.745C20.1957 167.522 20.0707 167.208 20.0707 166.805C20.0707 166.412 20.1824 166.1 20.4057 165.87C20.6324 165.64 20.954 165.525 21.3707 165.525C21.6474 165.525 21.8824 165.578 22.0757 165.685C22.269 165.788 22.414 165.933 22.5107 166.12C22.6107 166.303 22.6607 166.513 22.6607 166.75V167H20.5507C20.5674 167.227 20.6624 167.397 20.8357 167.51C21.0124 167.62 21.2507 167.675 21.5507 167.675C21.704 167.675 21.859 167.662 22.0157 167.635C22.1724 167.605 22.3107 167.567 22.4307 167.52V167.925C22.324 167.968 22.1824 168.003 22.0057 168.03C21.8324 168.06 21.6607 168.075 21.4907 168.075ZM22.1857 166.645C22.179 166.418 22.104 166.243 21.9607 166.12C21.8207 165.993 21.6207 165.93 21.3607 165.93C21.1074 165.93 20.9107 165.995 20.7707 166.125C20.6307 166.255 20.5574 166.428 20.5507 166.645H22.1857ZM25.0727 168.075C24.7827 168.075 24.5494 168.002 24.3727 167.855C24.1994 167.705 24.1127 167.503 24.1127 167.25C24.1127 166.983 24.196 166.778 24.3627 166.635C24.5327 166.488 24.7727 166.415 25.0827 166.415C25.4127 166.415 25.6927 166.482 25.9227 166.615V166.49C25.9227 166.3 25.8644 166.16 25.7477 166.07C25.6344 165.977 25.4544 165.93 25.2077 165.93C25.061 165.93 24.9177 165.945 24.7777 165.975C24.641 166.002 24.5177 166.04 24.4077 166.09V165.68C24.5077 165.633 24.6377 165.597 24.7977 165.57C24.9577 165.54 25.1127 165.525 25.2627 165.525C25.6594 165.525 25.9527 165.613 26.1427 165.79C26.336 165.963 26.4327 166.205 26.4327 166.515V168H25.9577V167.73C25.8544 167.843 25.731 167.93 25.5877 167.99C25.4477 168.047 25.276 168.075 25.0727 168.075ZM25.1977 167.69C25.3577 167.69 25.5027 167.658 25.6327 167.595C25.7627 167.532 25.8594 167.443 25.9227 167.33V167.005C25.706 166.865 25.4644 166.795 25.1977 166.795C25.0044 166.795 24.8594 166.833 24.7627 166.91C24.6694 166.983 24.6227 167.097 24.6227 167.25C24.6227 167.543 24.8144 167.69 25.1977 167.69ZM29.2267 168.075C28.9601 168.075 28.7234 168.025 28.5167 167.925C28.3101 167.825 28.1484 167.68 28.0317 167.49C27.9184 167.297 27.8617 167.068 27.8617 166.805C27.8617 166.542 27.9184 166.315 28.0317 166.125C28.1484 165.932 28.3101 165.783 28.5167 165.68C28.7267 165.577 28.9667 165.525 29.2367 165.525C29.6034 165.525 29.8967 165.597 30.1167 165.74V166.155C29.9001 166.005 29.6234 165.93 29.2867 165.93C29.0134 165.93 28.7917 166.005 28.6217 166.155C28.4551 166.302 28.3717 166.518 28.3717 166.805C28.3717 167.092 28.4551 167.308 28.6217 167.455C28.7884 167.602 29.0067 167.675 29.2767 167.675C29.6134 167.675 29.9034 167.595 30.1467 167.435V167.845C30.0301 167.925 29.8967 167.983 29.7467 168.02C29.6001 168.057 29.4267 168.075 29.2267 168.075ZM31.6961 164.305H32.2011V165.93C32.4311 165.66 32.7378 165.525 33.1211 165.525C33.4411 165.525 33.6794 165.61 33.8361 165.78C33.9928 165.95 34.0711 166.178 34.0711 166.465V168H33.5661V166.515C33.5661 166.125 33.3794 165.93 33.0061 165.93C32.8461 165.93 32.6961 165.968 32.5561 166.045C32.4194 166.118 32.3011 166.232 32.2011 166.385V168H31.6961V164.305ZM39.4047 168.075C39.1147 168.075 38.8814 168.002 38.7047 167.855C38.5314 167.705 38.4447 167.503 38.4447 167.25C38.4447 166.983 38.5281 166.778 38.6947 166.635C38.8647 166.488 39.1047 166.415 39.4147 166.415C39.7447 166.415 40.0247 166.482 40.2547 166.615V166.49C40.2547 166.3 40.1964 166.16 40.0797 166.07C39.9664 165.977 39.7864 165.93 39.5397 165.93C39.3931 165.93 39.2497 165.945 39.1097 165.975C38.9731 166.002 38.8497 166.04 38.7397 166.09V165.68C38.8397 165.633 38.9697 165.597 39.1297 165.57C39.2897 165.54 39.4447 165.525 39.5947 165.525C39.9914 165.525 40.2847 165.613 40.4747 165.79C40.6681 165.963 40.7647 166.205 40.7647 166.515V168H40.2897V167.73C40.1864 167.843 40.0631 167.93 39.9197 167.99C39.7797 168.047 39.6081 168.075 39.4047 168.075ZM39.5297 167.69C39.6897 167.69 39.8347 167.658 39.9647 167.595C40.0947 167.532 40.1914 167.443 40.2547 167.33V167.005C40.0381 166.865 39.7964 166.795 39.5297 166.795C39.3364 166.795 39.1914 166.833 39.0947 166.91C39.0014 166.983 38.9547 167.097 38.9547 167.25C38.9547 167.543 39.1464 167.69 39.5297 167.69ZM45.407 165.99H45.042V165.6H45.407V165.145C45.407 164.868 45.4953 164.655 45.672 164.505C45.8487 164.355 46.0687 164.28 46.332 164.28C46.4653 164.28 46.5953 164.3 46.722 164.34V164.75C46.6287 164.713 46.532 164.695 46.432 164.695C46.262 164.695 46.132 164.737 46.042 164.82C45.9553 164.9 45.912 165.018 45.912 165.175V165.6H47.532V168H47.027V165.99H45.912V168H45.407V165.99ZM47.277 165.13C47.1903 165.13 47.1187 165.102 47.062 165.045C47.0053 164.988 46.977 164.918 46.977 164.835C46.977 164.752 47.0053 164.682 47.062 164.625C47.122 164.568 47.1937 164.54 47.277 164.54C47.3603 164.54 47.4303 164.568 47.487 164.625C47.547 164.682 47.577 164.752 47.577 164.835C47.577 164.918 47.547 164.988 47.487 165.045C47.4303 165.102 47.3603 165.13 47.277 165.13ZM50.1104 168.075C49.9437 168.075 49.7671 168.053 49.5804 168.01C49.3937 167.97 49.2471 167.915 49.1404 167.845V167.415C49.2704 167.492 49.4204 167.555 49.5904 167.605C49.7604 167.652 49.9254 167.675 50.0854 167.675C50.2654 167.675 50.3971 167.653 50.4804 167.61C50.5637 167.567 50.6054 167.497 50.6054 167.4C50.6054 167.327 50.5854 167.268 50.5454 167.225C50.5087 167.178 50.4437 167.137 50.3504 167.1C50.2604 167.063 50.1237 167.02 49.9404 166.97C49.7437 166.913 49.5871 166.857 49.4704 166.8C49.3571 166.74 49.2704 166.665 49.2104 166.575C49.1537 166.485 49.1254 166.368 49.1254 166.225C49.1254 165.995 49.2154 165.822 49.3954 165.705C49.5787 165.585 49.8237 165.525 50.1304 165.525C50.2904 165.525 50.4471 165.54 50.6004 165.57C50.7537 165.6 50.8771 165.642 50.9704 165.695V166.115C50.8737 166.058 50.7537 166.013 50.6104 165.98C50.4704 165.947 50.3271 165.93 50.1804 165.93C50.0037 165.93 49.8687 165.952 49.7754 165.995C49.6821 166.038 49.6354 166.115 49.6354 166.225C49.6354 166.295 49.6554 166.352 49.6954 166.395C49.7354 166.438 49.7987 166.477 49.8854 166.51C49.9754 166.54 50.1171 166.58 50.3104 166.63C50.6137 166.713 50.8237 166.812 50.9404 166.925C51.0604 167.038 51.1204 167.195 51.1204 167.395C51.1204 167.602 51.0354 167.767 50.8654 167.89C50.6954 168.013 50.4437 168.075 50.1104 168.075ZM52.6717 164.305H53.1767V165.93C53.4067 165.66 53.7133 165.525 54.0967 165.525C54.4167 165.525 54.655 165.61 54.8117 165.78C54.9683 165.95 55.0467 166.178 55.0467 166.465V168H54.5417V166.515C54.5417 166.125 54.355 165.93 53.9817 165.93C53.8217 165.93 53.6717 165.968 53.5317 166.045C53.395 166.118 53.2767 166.232 53.1767 166.385V168H52.6717V164.305ZM56.8047 168C56.7381 168 56.6814 167.978 56.6347 167.935C56.5914 167.888 56.5697 167.832 56.5697 167.765C56.5697 167.698 56.5914 167.642 56.6347 167.595C56.6814 167.548 56.7381 167.525 56.8047 167.525C56.8714 167.525 56.9281 167.548 56.9747 167.595C57.0214 167.642 57.0447 167.698 57.0447 167.765C57.0447 167.832 57.0214 167.888 56.9747 167.935C56.9281 167.978 56.8714 168 56.8047 168ZM61.4432 164.505H62.7882C63.1648 164.505 63.4615 164.6 63.6782 164.79C63.8982 164.977 64.0082 165.243 64.0082 165.59C64.0082 165.943 63.8998 166.212 63.6832 166.395C63.4665 166.575 63.1682 166.665 62.7882 166.665H61.9532V168H61.4432V164.505ZM62.7332 166.24C62.9665 166.24 63.1515 166.192 63.2882 166.095C63.4248 165.998 63.4932 165.83 63.4932 165.59C63.4932 165.35 63.4248 165.182 63.2882 165.085C63.1515 164.985 62.9665 164.935 62.7332 164.935H61.9532V166.24H62.7332ZM65.4559 164.305H65.9609V168H65.4559V164.305ZM68.4731 168.075C68.1831 168.075 67.9498 168.002 67.7731 167.855C67.5998 167.705 67.5131 167.503 67.5131 167.25C67.5131 166.983 67.5964 166.778 67.7631 166.635C67.9331 166.488 68.1731 166.415 68.4831 166.415C68.8131 166.415 69.0931 166.482 69.3231 166.615V166.49C69.3231 166.3 69.2648 166.16 69.1481 166.07C69.0348 165.977 68.8548 165.93 68.6081 165.93C68.4614 165.93 68.3181 165.945 68.1781 165.975C68.0414 166.002 67.9181 166.04 67.8081 166.09V165.68C67.9081 165.633 68.0381 165.597 68.1981 165.57C68.3581 165.54 68.5131 165.525 68.6631 165.525C69.0598 165.525 69.3531 165.613 69.5431 165.79C69.7364 165.963 69.8331 166.205 69.8331 166.515V168H69.3581V167.73C69.2548 167.843 69.1314 167.93 68.9881 167.99C68.8481 168.047 68.6764 168.075 68.4731 168.075ZM68.5981 167.69C68.7581 167.69 68.9031 167.658 69.0331 167.595C69.1631 167.532 69.2598 167.443 69.3231 167.33V167.005C69.1064 166.865 68.8648 166.795 68.5981 166.795C68.4048 166.795 68.2598 166.833 68.1631 166.91C68.0698 166.983 68.0231 167.097 68.0231 167.25C68.0231 167.543 68.2148 167.69 68.5981 167.69ZM71.7452 168.99C71.5652 168.99 71.4152 168.972 71.2952 168.935V168.54C71.3818 168.573 71.4885 168.59 71.6152 168.59C71.7318 168.59 71.8235 168.56 71.8902 168.5C71.9568 168.443 72.0168 168.35 72.0702 168.22L72.1852 167.94L71.1352 165.6H71.6552L72.4552 167.445L73.2002 165.6H73.7202L72.6402 168.27C72.5402 168.52 72.4202 168.702 72.2802 168.815C72.1435 168.932 71.9652 168.99 71.7452 168.99ZM78.9453 168.075C78.702 168.075 78.5136 168.005 78.3803 167.865C78.2503 167.725 78.1853 167.527 78.1853 167.27V165.99H77.8203V165.6H78.1853V164.88H78.6953V165.6H79.2853V165.99H78.6953V167.235C78.6953 167.395 78.7253 167.508 78.7853 167.575C78.8486 167.642 78.962 167.675 79.1253 167.675C79.222 167.675 79.3186 167.653 79.4153 167.61V168.01C79.2886 168.053 79.132 168.075 78.9453 168.075ZM80.8904 164.305H81.3954V165.93C81.6254 165.66 81.9321 165.525 82.3154 165.525C82.6354 165.525 82.8738 165.61 83.0304 165.78C83.1871 165.95 83.2654 166.178 83.2654 166.465V168H82.7604V166.515C82.7604 166.125 82.5738 165.93 82.2004 165.93C82.0404 165.93 81.8904 165.968 81.7504 166.045C81.6138 166.118 81.4954 166.232 81.3954 166.385V168H80.8904V164.305ZM85.6752 168.075C85.3852 168.075 85.1519 168.002 84.9752 167.855C84.8019 167.705 84.7152 167.503 84.7152 167.25C84.7152 166.983 84.7986 166.778 84.9652 166.635C85.1352 166.488 85.3752 166.415 85.6852 166.415C86.0152 166.415 86.2952 166.482 86.5252 166.615V166.49C86.5252 166.3 86.4669 166.16 86.3502 166.07C86.2369 165.977 86.0569 165.93 85.8102 165.93C85.6636 165.93 85.5202 165.945 85.3802 165.975C85.2436 166.002 85.1202 166.04 85.0102 166.09V165.68C85.1102 165.633 85.2402 165.597 85.4002 165.57C85.5602 165.54 85.7152 165.525 85.8652 165.525C86.2619 165.525 86.5552 165.613 86.7452 165.79C86.9386 165.963 87.0352 166.205 87.0352 166.515V168H86.5602V167.73C86.4569 167.843 86.3336 167.93 86.1902 167.99C86.0502 168.047 85.8786 168.075 85.6752 168.075ZM85.8002 167.69C85.9602 167.69 86.1052 167.658 86.2352 167.595C86.3652 167.532 86.4619 167.443 86.5252 167.33V167.005C86.3086 166.865 86.0669 166.795 85.8002 166.795C85.6069 166.795 85.4619 166.833 85.3652 166.91C85.2719 166.983 85.2252 167.097 85.2252 167.25C85.2252 167.543 85.4169 167.69 85.8002 167.69ZM89.46 168.075C89.2166 168.075 89.0283 168.005 88.895 167.865C88.765 167.725 88.7 167.527 88.7 167.27V165.99H88.335V165.6H88.7V164.88H89.21V165.6H89.8V165.99H89.21V167.235C89.21 167.395 89.24 167.508 89.3 167.575C89.3633 167.642 89.4766 167.675 89.64 167.675C89.7366 167.675 89.8333 167.653 89.93 167.61V168.01C89.8033 168.053 89.6466 168.075 89.46 168.075ZM94.4207 165.99H94.0557V165.6H94.4207V165.145C94.4207 164.868 94.509 164.655 94.6857 164.505C94.8623 164.355 95.0823 164.28 95.3457 164.28C95.479 164.28 95.609 164.3 95.7357 164.34V164.75C95.6423 164.713 95.5457 164.695 95.4457 164.695C95.2757 164.695 95.1457 164.737 95.0557 164.82C94.969 164.9 94.9257 165.018 94.9257 165.175V165.6H96.5457V168H96.0407V165.99H94.9257V168H94.4207V165.99ZM96.2907 165.13C96.204 165.13 96.1323 165.102 96.0757 165.045C96.019 164.988 95.9907 164.918 95.9907 164.835C95.9907 164.752 96.019 164.682 96.0757 164.625C96.1357 164.568 96.2073 164.54 96.2907 164.54C96.374 164.54 96.444 164.568 96.5007 164.625C96.5607 164.682 96.5907 164.752 96.5907 164.835C96.5907 164.918 96.5607 164.988 96.5007 165.045C96.444 165.102 96.374 165.13 96.2907 165.13ZM99.1241 168.075C98.9574 168.075 98.7807 168.053 98.5941 168.01C98.4074 167.97 98.2607 167.915 98.1541 167.845V167.415C98.2841 167.492 98.4341 167.555 98.6041 167.605C98.7741 167.652 98.9391 167.675 99.0991 167.675C99.2791 167.675 99.4107 167.653 99.4941 167.61C99.5774 167.567 99.6191 167.497 99.6191 167.4C99.6191 167.327 99.5991 167.268 99.5591 167.225C99.5224 167.178 99.4574 167.137 99.3641 167.1C99.2741 167.063 99.1374 167.02 98.9541 166.97C98.7574 166.913 98.6007 166.857 98.4841 166.8C98.3707 166.74 98.2841 166.665 98.2241 166.575C98.1674 166.485 98.1391 166.368 98.1391 166.225C98.1391 165.995 98.2291 165.822 98.4091 165.705C98.5924 165.585 98.8374 165.525 99.1441 165.525C99.3041 165.525 99.4607 165.54 99.6141 165.57C99.7674 165.6 99.8907 165.642 99.9841 165.695V166.115C99.8874 166.058 99.7674 166.013 99.6241 165.98C99.4841 165.947 99.3407 165.93 99.1941 165.93C99.0174 165.93 98.8824 165.952 98.7891 165.995C98.6957 166.038 98.6491 166.115 98.6491 166.225C98.6491 166.295 98.6691 166.352 98.7091 166.395C98.7491 166.438 98.8124 166.477 98.8991 166.51C98.9891 166.54 99.1307 166.58 99.3241 166.63C99.6274 166.713 99.8374 166.812 99.9541 166.925C100.074 167.038 100.134 167.195 100.134 167.395C100.134 167.602 100.049 167.767 99.8791 167.89C99.7091 168.013 99.4574 168.075 99.1241 168.075ZM101.685 164.305H102.19V165.93C102.42 165.66 102.727 165.525 103.11 165.525C103.43 165.525 103.669 165.61 103.825 165.78C103.982 165.95 104.06 166.178 104.06 166.465V168H103.555V166.515C103.555 166.125 103.369 165.93 102.995 165.93C102.835 165.93 102.685 165.968 102.545 166.045C102.409 166.118 102.29 166.232 102.19 166.385V168H101.685V164.305ZM108.434 165.6H108.949L109.489 167.38L110.024 165.6H110.479L111.014 167.38L111.554 165.6H112.074L111.294 168H110.809L110.254 166.21L109.699 168H109.209L108.434 165.6ZM113.921 165.13C113.837 165.13 113.767 165.102 113.711 165.045C113.654 164.988 113.626 164.918 113.626 164.835C113.626 164.752 113.654 164.682 113.711 164.625C113.767 164.568 113.837 164.54 113.921 164.54C114.007 164.54 114.079 164.568 114.136 164.625C114.196 164.682 114.226 164.752 114.226 164.835C114.226 164.918 114.196 164.988 114.136 165.045C114.079 165.102 114.007 165.13 113.921 165.13ZM113.666 165.6H114.181V168H113.666V165.6ZM116.801 168.075C116.557 168.075 116.369 168.005 116.236 167.865C116.106 167.725 116.041 167.527 116.041 167.27V165.99H115.676V165.6H116.041V164.88H116.551V165.6H117.141V165.99H116.551V167.235C116.551 167.395 116.581 167.508 116.641 167.575C116.704 167.642 116.817 167.675 116.981 167.675C117.077 167.675 117.174 167.653 117.271 167.61V168.01C117.144 168.053 116.987 168.075 116.801 168.075ZM118.746 164.305H119.251V165.93C119.481 165.66 119.788 165.525 120.171 165.525C120.491 165.525 120.729 165.61 120.886 165.78C121.043 165.95 121.121 166.178 121.121 166.465V168H120.616V166.515C120.616 166.125 120.429 165.93 120.056 165.93C119.896 165.93 119.746 165.968 119.606 166.045C119.469 166.118 119.351 166.232 119.251 166.385V168H118.746V164.305ZM123.936 168.075C123.666 168.075 123.427 168.025 123.221 167.925C123.017 167.822 122.857 167.675 122.741 167.485C122.627 167.292 122.571 167.065 122.571 166.805C122.571 166.548 122.627 166.323 122.741 166.13C122.854 165.937 123.014 165.788 123.221 165.685C123.427 165.578 123.666 165.525 123.936 165.525C124.206 165.525 124.444 165.578 124.651 165.685C124.857 165.788 125.017 165.937 125.131 166.13C125.247 166.323 125.306 166.548 125.306 166.805C125.306 167.065 125.247 167.292 125.131 167.485C125.017 167.675 124.857 167.822 124.651 167.925C124.444 168.025 124.206 168.075 123.936 168.075ZM123.936 167.675C124.196 167.675 124.402 167.595 124.556 167.435C124.709 167.275 124.786 167.065 124.786 166.805C124.786 166.535 124.709 166.322 124.556 166.165C124.402 166.008 124.196 165.93 123.936 165.93C123.676 165.93 123.469 166.008 123.316 166.165C123.162 166.322 123.086 166.535 123.086 166.805C123.086 167.065 123.162 167.275 123.316 167.435C123.469 167.595 123.676 167.675 123.936 167.675ZM127.809 168.075C127.486 168.075 127.241 167.988 127.074 167.815C126.911 167.642 126.829 167.41 126.829 167.12V165.6H127.334V167.1C127.334 167.483 127.526 167.675 127.909 167.675C128.246 167.675 128.509 167.523 128.699 167.22V165.6H129.204V168H128.714V167.66C128.601 167.803 128.466 167.908 128.309 167.975C128.156 168.042 127.989 168.075 127.809 168.075ZM131.777 168.075C131.534 168.075 131.346 168.005 131.212 167.865C131.082 167.725 131.017 167.527 131.017 167.27V165.99H130.652V165.6H131.017V164.88H131.527V165.6H132.117V165.99H131.527V167.235C131.527 167.395 131.557 167.508 131.617 167.575C131.681 167.642 131.794 167.675 131.957 167.675C132.054 167.675 132.151 167.653 132.247 167.61V168.01C132.121 168.053 131.964 168.075 131.777 168.075ZM17.325 173.6H17.815V173.955C18.0617 173.668 18.395 173.525 18.815 173.525C19.055 173.525 19.27 173.578 19.46 173.685C19.6533 173.792 19.8033 173.942 19.91 174.135C20.02 174.325 20.075 174.547 20.075 174.8C20.075 175.05 20.02 175.272 19.91 175.465C19.8033 175.658 19.655 175.808 19.465 175.915C19.275 176.022 19.0583 176.075 18.815 176.075C18.615 176.075 18.4283 176.042 18.255 175.975C18.0817 175.908 17.94 175.81 17.83 175.68V177.095H17.325V173.6ZM18.7 175.675C18.8633 175.675 19.01 175.64 19.14 175.57C19.2733 175.497 19.3767 175.393 19.45 175.26C19.5267 175.127 19.565 174.973 19.565 174.8C19.565 174.627 19.5267 174.475 19.45 174.345C19.3767 174.212 19.2733 174.11 19.14 174.04C19.01 173.967 18.8633 173.93 18.7 173.93C18.4967 173.93 18.3167 173.983 18.16 174.09C18.0067 174.197 17.8967 174.343 17.83 174.53V175.07C17.8867 175.253 17.995 175.4 18.155 175.51C18.315 175.62 18.4967 175.675 18.7 175.675ZM22.3588 176.075C22.0688 176.075 21.8355 176.002 21.6588 175.855C21.4855 175.705 21.3988 175.503 21.3988 175.25C21.3988 174.983 21.4822 174.778 21.6488 174.635C21.8188 174.488 22.0588 174.415 22.3688 174.415C22.6988 174.415 22.9788 174.482 23.2088 174.615V174.49C23.2088 174.3 23.1505 174.16 23.0338 174.07C22.9205 173.977 22.7405 173.93 22.4938 173.93C22.3472 173.93 22.2038 173.945 22.0638 173.975C21.9272 174.002 21.8038 174.04 21.6938 174.09V173.68C21.7938 173.633 21.9238 173.597 22.0838 173.57C22.2438 173.54 22.3988 173.525 22.5488 173.525C22.9455 173.525 23.2388 173.613 23.4288 173.79C23.6222 173.963 23.7188 174.205 23.7188 174.515V176H23.2438V175.73C23.1405 175.843 23.0172 175.93 22.8738 175.99C22.7338 176.047 22.5622 176.075 22.3588 176.075ZM22.4838 175.69C22.6438 175.69 22.7888 175.658 22.9188 175.595C23.0488 175.532 23.1455 175.443 23.2088 175.33V175.005C22.9922 174.865 22.7505 174.795 22.4838 174.795C22.2905 174.795 22.1455 174.833 22.0488 174.91C21.9555 174.983 21.9088 175.097 21.9088 175.25C21.9088 175.543 22.1005 175.69 22.4838 175.69ZM25.6309 176.99C25.4509 176.99 25.3009 176.972 25.1809 176.935V176.54C25.2676 176.573 25.3742 176.59 25.5009 176.59C25.6176 176.59 25.7092 176.56 25.7759 176.5C25.8426 176.443 25.9026 176.35 25.9559 176.22L26.0709 175.94L25.0209 173.6H25.5409L26.3409 175.445L27.0859 173.6H27.6059L26.5259 176.27C26.4259 176.52 26.3059 176.702 26.1659 176.815C26.0292 176.932 25.8509 176.99 25.6309 176.99ZM29.3505 173.13C29.2671 173.13 29.1971 173.102 29.1405 173.045C29.0838 172.988 29.0555 172.918 29.0555 172.835C29.0555 172.752 29.0838 172.682 29.1405 172.625C29.1971 172.568 29.2671 172.54 29.3505 172.54C29.4371 172.54 29.5088 172.568 29.5655 172.625C29.6255 172.682 29.6555 172.752 29.6555 172.835C29.6555 172.918 29.6255 172.988 29.5655 173.045C29.5088 173.102 29.4371 173.13 29.3505 173.13ZM29.0955 173.6H29.6105V176H29.0955V173.6ZM31.3055 173.6H31.7955V173.945C31.9088 173.802 32.0471 173.697 32.2105 173.63C32.3771 173.56 32.5505 173.525 32.7305 173.525C33.0505 173.525 33.2888 173.61 33.4455 173.78C33.6021 173.95 33.6805 174.178 33.6805 174.465V176H33.1755V174.515C33.1755 174.125 32.9888 173.93 32.6155 173.93C32.4555 173.93 32.3055 173.968 32.1655 174.045C32.0288 174.118 31.9105 174.232 31.8105 174.385V176H31.3055V173.6ZM36.5585 177.15C36.3952 177.15 36.2352 177.137 36.0785 177.11C35.9252 177.083 35.7952 177.045 35.6885 176.995V176.58C35.9385 176.693 36.2285 176.75 36.5585 176.75C36.8685 176.75 37.0935 176.682 37.2335 176.545C37.3768 176.412 37.4485 176.208 37.4485 175.935V175.68C37.2285 175.943 36.9052 176.075 36.4785 176.075C36.2352 176.075 36.0168 176.022 35.8235 175.915C35.6302 175.808 35.4785 175.658 35.3685 175.465C35.2585 175.272 35.2035 175.05 35.2035 174.8C35.2035 174.547 35.2568 174.325 35.3635 174.135C35.4735 173.942 35.6235 173.792 35.8135 173.685C36.0068 173.578 36.2235 173.525 36.4635 173.525C36.6868 173.525 36.8752 173.558 37.0285 173.625C37.1852 173.688 37.3302 173.795 37.4635 173.945V173.6H37.9535V175.88C37.9535 176.29 37.8385 176.603 37.6085 176.82C37.3818 177.04 37.0318 177.15 36.5585 177.15ZM36.5785 175.675C36.7852 175.675 36.9668 175.62 37.1235 175.51C37.2835 175.4 37.3918 175.253 37.4485 175.07V174.53C37.3852 174.343 37.2752 174.197 37.1185 174.09C36.9652 173.983 36.7852 173.93 36.5785 173.93C36.4152 173.93 36.2668 173.967 36.1335 174.04C36.0035 174.11 35.9002 174.212 35.8235 174.345C35.7502 174.478 35.7135 174.63 35.7135 174.8C35.7135 174.973 35.7502 175.127 35.8235 175.26C35.9002 175.39 36.0035 175.492 36.1335 175.565C36.2668 175.638 36.4152 175.675 36.5785 175.675ZM42.7499 173.13C42.6665 173.13 42.5965 173.102 42.5399 173.045C42.4832 172.988 42.4549 172.918 42.4549 172.835C42.4549 172.752 42.4832 172.682 42.5399 172.625C42.5965 172.568 42.6665 172.54 42.7499 172.54C42.8365 172.54 42.9082 172.568 42.9649 172.625C43.0249 172.682 43.0549 172.752 43.0549 172.835C43.0549 172.918 43.0249 172.988 42.9649 173.045C42.9082 173.102 42.8365 173.13 42.7499 173.13ZM42.4949 173.6H43.0099V176H42.4949V173.6ZM45.6299 176.075C45.3865 176.075 45.1982 176.005 45.0649 175.865C44.9349 175.725 44.8699 175.527 44.8699 175.27V173.99H44.5049V173.6H44.8699V172.88H45.3799V173.6H45.9699V173.99H45.3799V175.235C45.3799 175.395 45.4099 175.508 45.4699 175.575C45.5332 175.642 45.6465 175.675 45.8099 175.675C45.9065 175.675 46.0032 175.653 46.0999 175.61V176.01C45.9732 176.053 45.8165 176.075 45.6299 176.075ZM48.3623 176.075C48.1957 176.075 48.019 176.053 47.8323 176.01C47.6457 175.97 47.499 175.915 47.3923 175.845V175.415C47.5223 175.492 47.6723 175.555 47.8423 175.605C48.0123 175.652 48.1773 175.675 48.3373 175.675C48.5173 175.675 48.649 175.653 48.7323 175.61C48.8157 175.567 48.8573 175.497 48.8573 175.4C48.8573 175.327 48.8373 175.268 48.7973 175.225C48.7607 175.178 48.6957 175.137 48.6023 175.1C48.5123 175.063 48.3757 175.02 48.1923 174.97C47.9957 174.913 47.839 174.857 47.7223 174.8C47.609 174.74 47.5223 174.665 47.4623 174.575C47.4057 174.485 47.3773 174.368 47.3773 174.225C47.3773 173.995 47.4673 173.822 47.6473 173.705C47.8307 173.585 48.0757 173.525 48.3823 173.525C48.5423 173.525 48.699 173.54 48.8523 173.57C49.0057 173.6 49.129 173.642 49.2223 173.695V174.115C49.1257 174.058 49.0057 174.013 48.8623 173.98C48.7223 173.947 48.579 173.93 48.4323 173.93C48.2557 173.93 48.1207 173.952 48.0273 173.995C47.934 174.038 47.8873 174.115 47.8873 174.225C47.8873 174.295 47.9073 174.352 47.9473 174.395C47.9873 174.438 48.0507 174.477 48.1373 174.51C48.2273 174.54 48.369 174.58 48.5623 174.63C48.8657 174.713 49.0757 174.812 49.1923 174.925C49.3123 175.038 49.3723 175.195 49.3723 175.395C49.3723 175.602 49.2873 175.767 49.1173 175.89C48.9473 176.013 48.6957 176.075 48.3623 176.075ZM53.6742 173.6H54.1892L54.7292 175.38L55.2642 173.6H55.7192L56.2542 175.38L56.7942 173.6H57.3142L56.5342 176H56.0492L55.4942 174.21L54.9392 176H54.4492L53.6742 173.6ZM59.4526 176.075C59.1626 176.075 58.9292 176.002 58.7526 175.855C58.5792 175.705 58.4926 175.503 58.4926 175.25C58.4926 174.983 58.5759 174.778 58.7426 174.635C58.9126 174.488 59.1526 174.415 59.4626 174.415C59.7926 174.415 60.0726 174.482 60.3026 174.615V174.49C60.3026 174.3 60.2442 174.16 60.1276 174.07C60.0142 173.977 59.8342 173.93 59.5876 173.93C59.4409 173.93 59.2976 173.945 59.1576 173.975C59.0209 174.002 58.8976 174.04 58.7876 174.09V173.68C58.8876 173.633 59.0176 173.597 59.1776 173.57C59.3376 173.54 59.4926 173.525 59.6426 173.525C60.0392 173.525 60.3326 173.613 60.5226 173.79C60.7159 173.963 60.8126 174.205 60.8126 174.515V176H60.3376V175.73C60.2342 175.843 60.1109 175.93 59.9676 175.99C59.8276 176.047 59.6559 176.075 59.4526 176.075ZM59.5776 175.69C59.7376 175.69 59.8826 175.658 60.0126 175.595C60.1426 175.532 60.2392 175.443 60.3026 175.33V175.005C60.0859 174.865 59.8442 174.795 59.5776 174.795C59.3842 174.795 59.2392 174.833 59.1426 174.91C59.0492 174.983 59.0026 175.097 59.0026 175.25C59.0026 175.543 59.1942 175.69 59.5776 175.69ZM63.2373 176.075C62.994 176.075 62.8056 176.005 62.6723 175.865C62.5423 175.725 62.4773 175.527 62.4773 175.27V173.99H62.1123V173.6H62.4773V172.88H62.9873V173.6H63.5773V173.99H62.9873V175.235C62.9873 175.395 63.0173 175.508 63.0773 175.575C63.1406 175.642 63.254 175.675 63.4173 175.675C63.514 175.675 63.6106 175.653 63.7073 175.61V176.01C63.5806 176.053 63.424 176.075 63.2373 176.075ZM66.5024 176.075C66.0591 176.075 65.7108 175.965 65.4574 175.745C65.2074 175.522 65.0824 175.208 65.0824 174.805C65.0824 174.412 65.1941 174.1 65.4174 173.87C65.6441 173.64 65.9658 173.525 66.3824 173.525C66.6591 173.525 66.8941 173.578 67.0874 173.685C67.2808 173.788 67.4258 173.933 67.5224 174.12C67.6224 174.303 67.6724 174.513 67.6724 174.75V175H65.5624C65.5791 175.227 65.6741 175.397 65.8474 175.51C66.0241 175.62 66.2624 175.675 66.5624 175.675C66.7158 175.675 66.8708 175.662 67.0274 175.635C67.1841 175.605 67.3224 175.567 67.4424 175.52V175.925C67.3358 175.968 67.1941 176.003 67.0174 176.03C66.8441 176.06 66.6724 176.075 66.5024 176.075ZM67.1974 174.645C67.1908 174.418 67.1158 174.243 66.9724 174.12C66.8324 173.993 66.6324 173.93 66.3724 173.93C66.1191 173.93 65.9224 173.995 65.7824 174.125C65.6424 174.255 65.5691 174.428 65.5624 174.645H67.1974ZM69.2244 173.6H69.7144V174.03C69.8144 173.883 69.9544 173.775 70.1344 173.705C70.3177 173.635 70.5294 173.6 70.7694 173.6V173.995C70.5127 173.995 70.2927 174.037 70.1094 174.12C69.9261 174.203 69.7994 174.335 69.7294 174.515V176H69.2244V173.6ZM76.3371 176.075C76.0704 176.075 75.8337 176.025 75.6271 175.925C75.4204 175.825 75.2587 175.68 75.1421 175.49C75.0287 175.297 74.9721 175.068 74.9721 174.805C74.9721 174.542 75.0287 174.315 75.1421 174.125C75.2587 173.932 75.4204 173.783 75.6271 173.68C75.8371 173.577 76.0771 173.525 76.3471 173.525C76.7137 173.525 77.0071 173.597 77.2271 173.74V174.155C77.0104 174.005 76.7337 173.93 76.3971 173.93C76.1237 173.93 75.9021 174.005 75.7321 174.155C75.5654 174.302 75.4821 174.518 75.4821 174.805C75.4821 175.092 75.5654 175.308 75.7321 175.455C75.8987 175.602 76.1171 175.675 76.3871 175.675C76.7237 175.675 77.0137 175.595 77.2571 175.435V175.845C77.1404 175.925 77.0071 175.983 76.8571 176.02C76.7104 176.057 76.5371 176.075 76.3371 176.075ZM79.9982 176.075C79.7282 176.075 79.4899 176.025 79.2832 175.925C79.0799 175.822 78.9199 175.675 78.8032 175.485C78.6899 175.292 78.6332 175.065 78.6332 174.805C78.6332 174.548 78.6899 174.323 78.8032 174.13C78.9165 173.937 79.0765 173.788 79.2832 173.685C79.4899 173.578 79.7282 173.525 79.9982 173.525C80.2682 173.525 80.5065 173.578 80.7132 173.685C80.9199 173.788 81.0799 173.937 81.1932 174.13C81.3099 174.323 81.3682 174.548 81.3682 174.805C81.3682 175.065 81.3099 175.292 81.1932 175.485C81.0799 175.675 80.9199 175.822 80.7132 175.925C80.5065 176.025 80.2682 176.075 79.9982 176.075ZM79.9982 175.675C80.2582 175.675 80.4649 175.595 80.6182 175.435C80.7715 175.275 80.8482 175.065 80.8482 174.805C80.8482 174.535 80.7715 174.322 80.6182 174.165C80.4649 174.008 80.2582 173.93 79.9982 173.93C79.7382 173.93 79.5315 174.008 79.3782 174.165C79.2249 174.322 79.1482 174.535 79.1482 174.805C79.1482 175.065 79.2249 175.275 79.3782 175.435C79.5315 175.595 79.7382 175.675 79.9982 175.675ZM83.6748 176.075C83.5082 176.075 83.3315 176.053 83.1448 176.01C82.9582 175.97 82.8115 175.915 82.7048 175.845V175.415C82.8348 175.492 82.9848 175.555 83.1548 175.605C83.3248 175.652 83.4898 175.675 83.6498 175.675C83.8298 175.675 83.9615 175.653 84.0448 175.61C84.1282 175.567 84.1698 175.497 84.1698 175.4C84.1698 175.327 84.1498 175.268 84.1098 175.225C84.0732 175.178 84.0082 175.137 83.9148 175.1C83.8248 175.063 83.6882 175.02 83.5048 174.97C83.3082 174.913 83.1515 174.857 83.0348 174.8C82.9215 174.74 82.8348 174.665 82.7748 174.575C82.7182 174.485 82.6898 174.368 82.6898 174.225C82.6898 173.995 82.7798 173.822 82.9598 173.705C83.1432 173.585 83.3882 173.525 83.6948 173.525C83.8548 173.525 84.0115 173.54 84.1648 173.57C84.3182 173.6 84.4415 173.642 84.5348 173.695V174.115C84.4382 174.058 84.3182 174.013 84.1748 173.98C84.0348 173.947 83.8915 173.93 83.7448 173.93C83.5682 173.93 83.4332 173.952 83.3398 173.995C83.2465 174.038 83.1998 174.115 83.1998 174.225C83.1998 174.295 83.2198 174.352 83.2598 174.395C83.2998 174.438 83.3632 174.477 83.4498 174.51C83.5398 174.54 83.6815 174.58 83.8748 174.63C84.1782 174.713 84.3882 174.812 84.5048 174.925C84.6248 175.038 84.6848 175.195 84.6848 175.395C84.6848 175.602 84.5998 175.767 84.4298 175.89C84.2598 176.013 84.0082 176.075 83.6748 176.075ZM87.0879 176.075C86.8446 176.075 86.6562 176.005 86.5229 175.865C86.3929 175.725 86.3279 175.527 86.3279 175.27V173.99H85.9629V173.6H86.3279V172.88H86.8379V173.6H87.4279V173.99H86.8379V175.235C86.8379 175.395 86.8679 175.508 86.9279 175.575C86.9912 175.642 87.1046 175.675 87.2679 175.675C87.3646 175.675 87.4612 175.653 87.5579 175.61V176.01C87.4312 176.053 87.2746 176.075 87.0879 176.075ZM89.168 176C89.1013 176 89.0447 175.978 88.998 175.935C88.9547 175.888 88.933 175.832 88.933 175.765C88.933 175.698 88.9547 175.642 88.998 175.595C89.0447 175.548 89.1013 175.525 89.168 175.525C89.2347 175.525 89.2913 175.548 89.338 175.595C89.3847 175.642 89.408 175.698 89.408 175.765C89.408 175.832 89.3847 175.888 89.338 175.935C89.2913 175.978 89.2347 176 89.168 176ZM97.542 172.935H96.457V172.505H99.142V172.935H98.057V176H97.542V172.935ZM100.592 172.305H101.097V173.93C101.327 173.66 101.633 173.525 102.017 173.525C102.337 173.525 102.575 173.61 102.732 173.78C102.888 173.95 102.967 174.178 102.967 174.465V176H102.462V174.515C102.462 174.125 102.275 173.93 101.902 173.93C101.742 173.93 101.592 173.968 101.452 174.045C101.315 174.118 101.197 174.232 101.097 174.385V176H100.592V172.305ZM105.91 176.075C105.466 176.075 105.118 175.965 104.865 175.745C104.615 175.522 104.49 175.208 104.49 174.805C104.49 174.412 104.601 174.1 104.825 173.87C105.051 173.64 105.373 173.525 105.79 173.525C106.066 173.525 106.301 173.578 106.495 173.685C106.688 173.788 106.833 173.933 106.93 174.12C107.03 174.303 107.08 174.513 107.08 174.75V175H104.97C104.986 175.227 105.081 175.397 105.255 175.51C105.431 175.62 105.67 175.675 105.97 175.675C106.123 175.675 106.278 175.662 106.435 175.635C106.591 175.605 106.73 175.567 106.85 175.52V175.925C106.743 175.968 106.601 176.003 106.425 176.03C106.251 176.06 106.08 176.075 105.91 176.075ZM106.605 174.645C106.598 174.418 106.523 174.243 106.38 174.12C106.24 173.993 106.04 173.93 105.78 173.93C105.526 173.93 105.33 173.995 105.19 174.125C105.05 174.255 104.976 174.428 104.97 174.645H106.605ZM18.21 184.075C18.0433 184.075 17.8667 184.053 17.68 184.01C17.4933 183.97 17.3467 183.915 17.24 183.845V183.415C17.37 183.492 17.52 183.555 17.69 183.605C17.86 183.652 18.025 183.675 18.185 183.675C18.365 183.675 18.4967 183.653 18.58 183.61C18.6633 183.567 18.705 183.497 18.705 183.4C18.705 183.327 18.685 183.268 18.645 183.225C18.6083 183.178 18.5433 183.137 18.45 183.1C18.36 183.063 18.2233 183.02 18.04 182.97C17.8433 182.913 17.6867 182.857 17.57 182.8C17.4567 182.74 17.37 182.665 17.31 182.575C17.2533 182.485 17.225 182.368 17.225 182.225C17.225 181.995 17.315 181.822 17.495 181.705C17.6783 181.585 17.9233 181.525 18.23 181.525C18.39 181.525 18.5467 181.54 18.7 181.57C18.8533 181.6 18.9767 181.642 19.07 181.695V182.115C18.9733 182.058 18.8533 182.013 18.71 181.98C18.57 181.947 18.4267 181.93 18.28 181.93C18.1033 181.93 17.9683 181.952 17.875 181.995C17.7817 182.038 17.735 182.115 17.735 182.225C17.735 182.295 17.755 182.352 17.795 182.395C17.835 182.438 17.8983 182.477 17.985 182.51C18.075 182.54 18.2167 182.58 18.41 182.63C18.7133 182.713 18.9233 182.812 19.04 182.925C19.16 183.038 19.22 183.195 19.22 183.395C19.22 183.602 19.135 183.767 18.965 183.89C18.795 184.013 18.5433 184.075 18.21 184.075ZM21.9093 184.075C21.6427 184.075 21.406 184.025 21.1993 183.925C20.9927 183.825 20.831 183.68 20.7143 183.49C20.601 183.297 20.5443 183.068 20.5443 182.805C20.5443 182.542 20.601 182.315 20.7143 182.125C20.831 181.932 20.9927 181.783 21.1993 181.68C21.4093 181.577 21.6493 181.525 21.9193 181.525C22.286 181.525 22.5793 181.597 22.7993 181.74V182.155C22.5827 182.005 22.306 181.93 21.9693 181.93C21.696 181.93 21.4743 182.005 21.3043 182.155C21.1377 182.302 21.0543 182.518 21.0543 182.805C21.0543 183.092 21.1377 183.308 21.3043 183.455C21.471 183.602 21.6893 183.675 21.9593 183.675C22.296 183.675 22.586 183.595 22.8293 183.435V183.845C22.7127 183.925 22.5793 183.983 22.4293 184.02C22.2827 184.057 22.1093 184.075 21.9093 184.075ZM24.3787 181.6H24.8687V182.03C24.9687 181.883 25.1087 181.775 25.2887 181.705C25.472 181.635 25.6837 181.6 25.9237 181.6V181.995C25.667 181.995 25.447 182.037 25.2637 182.12C25.0804 182.203 24.9537 182.335 24.8837 182.515V184H24.3787V181.6ZM28.3064 184.075C27.983 184.075 27.738 183.988 27.5714 183.815C27.408 183.642 27.3264 183.41 27.3264 183.12V181.6H27.8314V183.1C27.8314 183.483 28.023 183.675 28.4064 183.675C28.743 183.675 29.0064 183.523 29.1964 183.22V181.6H29.7014V184H29.2114V183.66C29.098 183.803 28.963 183.908 28.8064 183.975C28.653 184.042 28.4864 184.075 28.3064 184.075ZM31.3494 181.6H31.8294V181.945C31.9427 181.805 32.0711 181.7 32.2144 181.63C32.3577 181.56 32.5061 181.525 32.6594 181.525C32.8527 181.525 33.0061 181.558 33.1194 181.625C33.2327 181.688 33.3161 181.787 33.3694 181.92C33.4761 181.79 33.6061 181.692 33.7594 181.625C33.9161 181.558 34.0727 181.525 34.2294 181.525C34.5227 181.525 34.7344 181.6 34.8644 181.75C34.9944 181.897 35.0594 182.115 35.0594 182.405V184H34.5694V182.47C34.5694 182.273 34.5327 182.135 34.4594 182.055C34.3861 181.972 34.2611 181.93 34.0844 181.93C33.8311 181.93 33.6244 182.04 33.4644 182.26C33.4711 182.31 33.4744 182.392 33.4744 182.505V184H32.9844V182.47C32.9844 182.273 32.9511 182.135 32.8844 182.055C32.8177 181.972 32.6977 181.93 32.5244 181.93C32.2711 181.93 32.0444 182.073 31.8444 182.36V184H31.3494V181.6ZM36.6854 181.6H37.1754V181.955C37.422 181.668 37.7554 181.525 38.1754 181.525C38.4154 181.525 38.6304 181.578 38.8204 181.685C39.0137 181.792 39.1637 181.942 39.2704 182.135C39.3804 182.325 39.4354 182.547 39.4354 182.8C39.4354 183.05 39.3804 183.272 39.2704 183.465C39.1637 183.658 39.0154 183.808 38.8254 183.915C38.6354 184.022 38.4187 184.075 38.1754 184.075C37.9754 184.075 37.7887 184.042 37.6154 183.975C37.442 183.908 37.3004 183.81 37.1904 183.68V185.095H36.6854V181.6ZM38.0604 183.675C38.2237 183.675 38.3704 183.64 38.5004 183.57C38.6337 183.497 38.737 183.393 38.8104 183.26C38.887 183.127 38.9254 182.973 38.9254 182.8C38.9254 182.627 38.887 182.475 38.8104 182.345C38.737 182.212 38.6337 182.11 38.5004 182.04C38.3704 181.967 38.2237 181.93 38.0604 181.93C37.857 181.93 37.677 181.983 37.5204 182.09C37.367 182.197 37.257 182.343 37.1904 182.53V183.07C37.247 183.253 37.3554 183.4 37.5154 183.51C37.6754 183.62 37.857 183.675 38.0604 183.675ZM41.7354 184.075C41.492 184.075 41.3037 184.005 41.1704 183.865C41.0404 183.725 40.9754 183.527 40.9754 183.27V181.99H40.6104V181.6H40.9754V180.88H41.4854V181.6H42.0754V181.99H41.4854V183.235C41.4854 183.395 41.5154 183.508 41.5754 183.575C41.6387 183.642 41.752 183.675 41.9154 183.675C42.012 183.675 42.1087 183.653 42.2054 183.61V184.01C42.0787 184.053 41.922 184.075 41.7354 184.075ZM43.9755 181.13C43.8921 181.13 43.8221 181.102 43.7655 181.045C43.7088 180.988 43.6805 180.918 43.6805 180.835C43.6805 180.752 43.7088 180.682 43.7655 180.625C43.8221 180.568 43.8921 180.54 43.9755 180.54C44.0621 180.54 44.1338 180.568 44.1905 180.625C44.2505 180.682 44.2805 180.752 44.2805 180.835C44.2805 180.918 44.2505 180.988 44.1905 181.045C44.1338 181.102 44.0621 181.13 43.9755 181.13ZM43.7205 181.6H44.2355V184H43.7205V181.6ZM47.1955 184.075C46.9255 184.075 46.6871 184.025 46.4805 183.925C46.2771 183.822 46.1171 183.675 46.0005 183.485C45.8871 183.292 45.8305 183.065 45.8305 182.805C45.8305 182.548 45.8871 182.323 46.0005 182.13C46.1138 181.937 46.2738 181.788 46.4805 181.685C46.6871 181.578 46.9255 181.525 47.1955 181.525C47.4655 181.525 47.7038 181.578 47.9105 181.685C48.1171 181.788 48.2771 181.937 48.3905 182.13C48.5071 182.323 48.5655 182.548 48.5655 182.805C48.5655 183.065 48.5071 183.292 48.3905 183.485C48.2771 183.675 48.1171 183.822 47.9105 183.925C47.7038 184.025 47.4655 184.075 47.1955 184.075ZM47.1955 183.675C47.4555 183.675 47.6621 183.595 47.8155 183.435C47.9688 183.275 48.0455 183.065 48.0455 182.805C48.0455 182.535 47.9688 182.322 47.8155 182.165C47.6621 182.008 47.4555 181.93 47.1955 181.93C46.9355 181.93 46.7288 182.008 46.5755 182.165C46.4221 182.322 46.3455 182.535 46.3455 182.805C46.3455 183.065 46.4221 183.275 46.5755 183.435C46.7288 183.595 46.9355 183.675 47.1955 183.675ZM51.0691 184.075C50.7457 184.075 50.5007 183.988 50.3341 183.815C50.1707 183.642 50.0891 183.41 50.0891 183.12V181.6H50.5941V183.1C50.5941 183.483 50.7857 183.675 51.1691 183.675C51.5057 183.675 51.7691 183.523 51.9591 183.22V181.6H52.4641V184H51.9741V183.66C51.8607 183.803 51.7257 183.908 51.5691 183.975C51.4157 184.042 51.2491 184.075 51.0691 184.075ZM54.9971 184.075C54.8304 184.075 54.6538 184.053 54.4671 184.01C54.2804 183.97 54.1338 183.915 54.0271 183.845V183.415C54.1571 183.492 54.3071 183.555 54.4771 183.605C54.6471 183.652 54.8121 183.675 54.9721 183.675C55.1521 183.675 55.2838 183.653 55.3671 183.61C55.4504 183.567 55.4921 183.497 55.4921 183.4C55.4921 183.327 55.4721 183.268 55.4321 183.225C55.3954 183.178 55.3304 183.137 55.2371 183.1C55.1471 183.063 55.0104 183.02 54.8271 182.97C54.6304 182.913 54.4738 182.857 54.3571 182.8C54.2438 182.74 54.1571 182.665 54.0971 182.575C54.0404 182.485 54.0121 182.368 54.0121 182.225C54.0121 181.995 54.1021 181.822 54.2821 181.705C54.4654 181.585 54.7104 181.525 55.0171 181.525C55.1771 181.525 55.3338 181.54 55.4871 181.57C55.6404 181.6 55.7638 181.642 55.8571 181.695V182.115C55.7604 182.058 55.6404 182.013 55.4971 181.98C55.3571 181.947 55.2138 181.93 55.0671 181.93C54.8904 181.93 54.7554 181.952 54.6621 181.995C54.5688 182.038 54.5221 182.115 54.5221 182.225C54.5221 182.295 54.5421 182.352 54.5821 182.395C54.6221 182.438 54.6854 182.477 54.7721 182.51C54.8621 182.54 55.0038 182.58 55.1971 182.63C55.5004 182.713 55.7104 182.812 55.8271 182.925C55.9471 183.038 56.0071 183.195 56.0071 183.395C56.0071 183.602 55.9221 183.767 55.7521 183.89C55.5821 184.013 55.3304 184.075 54.9971 184.075ZM60.309 181.6H60.824L61.364 183.38L61.899 181.6H62.354L62.889 183.38L63.429 181.6H63.949L63.169 184H62.684L62.129 182.21L61.574 184H61.084L60.309 181.6ZM66.4386 184.075C66.1686 184.075 65.9303 184.025 65.7236 183.925C65.5203 183.822 65.3603 183.675 65.2436 183.485C65.1303 183.292 65.0736 183.065 65.0736 182.805C65.0736 182.548 65.1303 182.323 65.2436 182.13C65.357 181.937 65.517 181.788 65.7236 181.685C65.9303 181.578 66.1686 181.525 66.4386 181.525C66.7086 181.525 66.947 181.578 67.1536 181.685C67.3603 181.788 67.5203 181.937 67.6336 182.13C67.7503 182.323 67.8086 182.548 67.8086 182.805C67.8086 183.065 67.7503 183.292 67.6336 183.485C67.5203 183.675 67.3603 183.822 67.1536 183.925C66.947 184.025 66.7086 184.075 66.4386 184.075ZM66.4386 183.675C66.6986 183.675 66.9053 183.595 67.0586 183.435C67.212 183.275 67.2886 183.065 67.2886 182.805C67.2886 182.535 67.212 182.322 67.0586 182.165C66.9053 182.008 66.6986 181.93 66.4386 181.93C66.1786 181.93 65.972 182.008 65.8186 182.165C65.6653 182.322 65.5886 182.535 65.5886 182.805C65.5886 183.065 65.6653 183.275 65.8186 183.435C65.972 183.595 66.1786 183.675 66.4386 183.675ZM69.3572 181.6H69.8472V182.03C69.9472 181.883 70.0872 181.775 70.2672 181.705C70.4506 181.635 70.6622 181.6 70.9022 181.6V181.995C70.6456 181.995 70.4256 182.037 70.2422 182.12C70.0589 182.203 69.9322 182.335 69.8622 182.515V184H69.3572V181.6ZM72.3543 181.6H72.8343V181.945C72.9476 181.805 73.076 181.7 73.2193 181.63C73.3626 181.56 73.511 181.525 73.6643 181.525C73.8576 181.525 74.011 181.558 74.1243 181.625C74.2376 181.688 74.321 181.787 74.3743 181.92C74.481 181.79 74.611 181.692 74.7643 181.625C74.921 181.558 75.0776 181.525 75.2343 181.525C75.5276 181.525 75.7393 181.6 75.8693 181.75C75.9993 181.897 76.0643 182.115 76.0643 182.405V184H75.5743V182.47C75.5743 182.273 75.5376 182.135 75.4643 182.055C75.391 181.972 75.266 181.93 75.0893 181.93C74.836 181.93 74.6293 182.04 74.4693 182.26C74.476 182.31 74.4793 182.392 74.4793 182.505V184H73.9893V182.47C73.9893 182.273 73.956 182.135 73.8893 182.055C73.8226 181.972 73.7026 181.93 73.5293 181.93C73.276 181.93 73.0493 182.073 72.8493 182.36V184H72.3543V181.6ZM81.7958 185.15C81.6325 185.15 81.4725 185.137 81.3158 185.11C81.1625 185.083 81.0325 185.045 80.9258 184.995V184.58C81.1758 184.693 81.4658 184.75 81.7958 184.75C82.1058 184.75 82.3308 184.682 82.4708 184.545C82.6142 184.412 82.6858 184.208 82.6858 183.935V183.68C82.4658 183.943 82.1425 184.075 81.7158 184.075C81.4725 184.075 81.2542 184.022 81.0608 183.915C80.8675 183.808 80.7158 183.658 80.6058 183.465C80.4958 183.272 80.4408 183.05 80.4408 182.8C80.4408 182.547 80.4942 182.325 80.6008 182.135C80.7108 181.942 80.8608 181.792 81.0508 181.685C81.2442 181.578 81.4608 181.525 81.7008 181.525C81.9242 181.525 82.1125 181.558 82.2658 181.625C82.4225 181.688 82.5675 181.795 82.7008 181.945V181.6H83.1908V183.88C83.1908 184.29 83.0758 184.603 82.8458 184.82C82.6192 185.04 82.2692 185.15 81.7958 185.15ZM81.8158 183.675C82.0225 183.675 82.2042 183.62 82.3608 183.51C82.5208 183.4 82.6292 183.253 82.6858 183.07V182.53C82.6225 182.343 82.5125 182.197 82.3558 182.09C82.2025 181.983 82.0225 181.93 81.8158 181.93C81.6525 181.93 81.5042 181.967 81.3708 182.04C81.2408 182.11 81.1375 182.212 81.0608 182.345C80.9875 182.478 80.9508 182.63 80.9508 182.8C80.9508 182.973 80.9875 183.127 81.0608 183.26C81.1375 183.39 81.2408 183.492 81.3708 183.565C81.5042 183.638 81.6525 183.675 81.8158 183.675ZM86.1616 184.075C85.7183 184.075 85.3699 183.965 85.1166 183.745C84.8666 183.522 84.7416 183.208 84.7416 182.805C84.7416 182.412 84.8533 182.1 85.0766 181.87C85.3033 181.64 85.6249 181.525 86.0416 181.525C86.3183 181.525 86.5533 181.578 86.7466 181.685C86.9399 181.788 87.0849 181.933 87.1816 182.12C87.2816 182.303 87.3316 182.513 87.3316 182.75V183H85.2216C85.2383 183.227 85.3333 183.397 85.5066 183.51C85.6833 183.62 85.9216 183.675 86.2216 183.675C86.3749 183.675 86.5299 183.662 86.6866 183.635C86.8433 183.605 86.9816 183.567 87.1016 183.52V183.925C86.9949 183.968 86.8533 184.003 86.6766 184.03C86.5033 184.06 86.3316 184.075 86.1616 184.075ZM86.8566 182.645C86.8499 182.418 86.7749 182.243 86.6316 182.12C86.4916 181.993 86.2916 181.93 86.0316 181.93C85.7783 181.93 85.5816 181.995 85.4416 182.125C85.3016 182.255 85.2283 182.428 85.2216 182.645H86.8566ZM89.8086 184.075C89.5653 184.075 89.3769 184.005 89.2436 183.865C89.1136 183.725 89.0486 183.527 89.0486 183.27V181.99H88.6836V181.6H89.0486V180.88H89.5586V181.6H90.1486V181.99H89.5586V183.235C89.5586 183.395 89.5886 183.508 89.6486 183.575C89.7119 183.642 89.8253 183.675 89.9886 183.675C90.0853 183.675 90.1819 183.653 90.2786 183.61V184.01C90.1519 184.053 89.9953 184.075 89.8086 184.075ZM92.5411 184.075C92.3744 184.075 92.1977 184.053 92.0111 184.01C91.8244 183.97 91.6777 183.915 91.5711 183.845V183.415C91.7011 183.492 91.8511 183.555 92.0211 183.605C92.1911 183.652 92.3561 183.675 92.5161 183.675C92.6961 183.675 92.8277 183.653 92.9111 183.61C92.9944 183.567 93.0361 183.497 93.0361 183.4C93.0361 183.327 93.0161 183.268 92.9761 183.225C92.9394 183.178 92.8744 183.137 92.7811 183.1C92.6911 183.063 92.5544 183.02 92.3711 182.97C92.1744 182.913 92.0177 182.857 91.9011 182.8C91.7877 182.74 91.7011 182.665 91.6411 182.575C91.5844 182.485 91.5561 182.368 91.5561 182.225C91.5561 181.995 91.6461 181.822 91.8261 181.705C92.0094 181.585 92.2544 181.525 92.5611 181.525C92.7211 181.525 92.8777 181.54 93.0311 181.57C93.1844 181.6 93.3077 181.642 93.4011 181.695V182.115C93.3044 182.058 93.1844 182.013 93.0411 181.98C92.9011 181.947 92.7577 181.93 92.6111 181.93C92.4344 181.93 92.2994 181.952 92.2061 181.995C92.1127 182.038 92.0661 182.115 92.0661 182.225C92.0661 182.295 92.0861 182.352 92.1261 182.395C92.1661 182.438 92.2294 182.477 92.3161 182.51C92.4061 182.54 92.5477 182.58 92.7411 182.63C93.0444 182.713 93.2544 182.812 93.3711 182.925C93.4911 183.038 93.5511 183.195 93.5511 183.395C93.5511 183.602 93.4661 183.767 93.2961 183.89C93.1261 184.013 92.8744 184.075 92.5411 184.075ZM99.2729 184.075C98.8296 184.075 98.4813 183.965 98.2279 183.745C97.9779 183.522 97.8529 183.208 97.8529 182.805C97.8529 182.412 97.9646 182.1 98.1879 181.87C98.4146 181.64 98.7363 181.525 99.1529 181.525C99.4296 181.525 99.6646 181.578 99.8579 181.685C100.051 181.788 100.196 181.933 100.293 182.12C100.393 182.303 100.443 182.513 100.443 182.75V183H98.3329C98.3496 183.227 98.4446 183.397 98.6179 183.51C98.7946 183.62 99.0329 183.675 99.3329 183.675C99.4863 183.675 99.6413 183.662 99.7979 183.635C99.9546 183.605 100.093 183.567 100.213 183.52V183.925C100.106 183.968 99.9646 184.003 99.7879 184.03C99.6146 184.06 99.4429 184.075 99.2729 184.075ZM99.9679 182.645C99.9613 182.418 99.8863 182.243 99.7429 182.12C99.6029 181.993 99.4029 181.93 99.1429 181.93C98.8896 181.93 98.6929 181.995 98.5529 182.125C98.4129 182.255 98.3396 182.428 98.3329 182.645H99.9679ZM102.855 184.075C102.565 184.075 102.332 184.002 102.155 183.855C101.982 183.705 101.895 183.503 101.895 183.25C101.895 182.983 101.978 182.778 102.145 182.635C102.315 182.488 102.555 182.415 102.865 182.415C103.195 182.415 103.475 182.482 103.705 182.615V182.49C103.705 182.3 103.647 182.16 103.53 182.07C103.417 181.977 103.237 181.93 102.99 181.93C102.843 181.93 102.7 181.945 102.56 181.975C102.423 182.002 102.3 182.04 102.19 182.09V181.68C102.29 181.633 102.42 181.597 102.58 181.57C102.74 181.54 102.895 181.525 103.045 181.525C103.442 181.525 103.735 181.613 103.925 181.79C104.118 181.963 104.215 182.205 104.215 182.515V184H103.74V183.73C103.637 183.843 103.513 183.93 103.37 183.99C103.23 184.047 103.058 184.075 102.855 184.075ZM102.98 183.69C103.14 183.69 103.285 183.658 103.415 183.595C103.545 183.532 103.642 183.443 103.705 183.33V183.005C103.488 182.865 103.247 182.795 102.98 182.795C102.787 182.795 102.642 182.833 102.545 182.91C102.452 182.983 102.405 183.097 102.405 183.25C102.405 183.543 102.597 183.69 102.98 183.69ZM106.64 184.075C106.396 184.075 106.208 184.005 106.075 183.865C105.945 183.725 105.88 183.527 105.88 183.27V181.99H105.515V181.6H105.88V180.88H106.39V181.6H106.98V181.99H106.39V183.235C106.39 183.395 106.42 183.508 106.48 183.575C106.543 183.642 106.656 183.675 106.82 183.675C106.916 183.675 107.013 183.653 107.11 183.61V184.01C106.983 184.053 106.826 184.075 106.64 184.075ZM109.905 184.075C109.461 184.075 109.113 183.965 108.86 183.745C108.61 183.522 108.485 183.208 108.485 182.805C108.485 182.412 108.596 182.1 108.82 181.87C109.046 181.64 109.368 181.525 109.785 181.525C110.061 181.525 110.296 181.578 110.49 181.685C110.683 181.788 110.828 181.933 110.925 182.12C111.025 182.303 111.075 182.513 111.075 182.75V183H108.965C108.981 183.227 109.076 183.397 109.25 183.51C109.426 183.62 109.665 183.675 109.965 183.675C110.118 183.675 110.273 183.662 110.43 183.635C110.586 183.605 110.725 183.567 110.845 183.52V183.925C110.738 183.968 110.596 184.003 110.42 184.03C110.246 184.06 110.075 184.075 109.905 184.075ZM110.6 182.645C110.593 182.418 110.518 182.243 110.375 182.12C110.235 181.993 110.035 181.93 109.775 181.93C109.521 181.93 109.325 181.995 109.185 182.125C109.045 182.255 108.971 182.428 108.965 182.645H110.6ZM112.627 181.6H113.117V181.945C113.23 181.802 113.368 181.697 113.532 181.63C113.698 181.56 113.872 181.525 114.052 181.525C114.372 181.525 114.61 181.61 114.767 181.78C114.923 181.95 115.002 182.178 115.002 182.465V184H114.497V182.515C114.497 182.125 114.31 181.93 113.937 181.93C113.777 181.93 113.627 181.968 113.487 182.045C113.35 182.118 113.232 182.232 113.132 182.385V184H112.627V181.6ZM116.76 184C116.693 184 116.636 183.978 116.59 183.935C116.546 183.888 116.525 183.832 116.525 183.765C116.525 183.698 116.546 183.642 116.59 183.595C116.636 183.548 116.693 183.525 116.76 183.525C116.826 183.525 116.883 183.548 116.93 183.595C116.976 183.642 117 183.698 117 183.765C117 183.832 116.976 183.888 116.93 183.935C116.883 183.978 116.826 184 116.76 184Z" fill="black"/>
<rect x="12.25" y="143.25" width="125.5" height="46.5" stroke="#6C6C6C" stroke-width="0.5"/>
<path d="M12.975 27.8H14.445V29.09C14.745 28.65 15.165 28.325 15.705 28.115C16.255 27.905 16.89 27.8 17.61 27.8V28.985C16.84 28.985 16.18 29.11 15.63 29.36C15.08 29.61 14.7 30.005 14.49 30.545V35H12.975V27.8ZM25.4721 35.225C24.1421 35.225 23.0971 34.895 22.3371 34.235C21.5871 33.565 21.2121 32.625 21.2121 31.415C21.2121 30.235 21.5471 29.3 22.2171 28.61C22.8971 27.92 23.8621 27.575 25.1121 27.575C25.9421 27.575 26.6471 27.735 27.2271 28.055C27.8071 28.365 28.2421 28.8 28.5321 29.36C28.8321 29.91 28.9821 30.54 28.9821 31.25V32H22.6521C22.7021 32.68 22.9871 33.19 23.5071 33.53C24.0371 33.86 24.7521 34.025 25.6521 34.025C26.1121 34.025 26.5771 33.985 27.0471 33.905C27.5171 33.815 27.9321 33.7 28.2921 33.56V34.775C27.9721 34.905 27.5471 35.01 27.0171 35.09C26.4971 35.18 25.9821 35.225 25.4721 35.225ZM27.5571 30.935C27.5371 30.255 27.3121 29.73 26.8821 29.36C26.4621 28.98 25.8621 28.79 25.0821 28.79C24.3221 28.79 23.7321 28.985 23.3121 29.375C22.8921 29.765 22.6721 30.285 22.6521 30.935H27.5571ZM36.2181 35.225C35.3481 35.225 34.6481 35.005 34.1181 34.565C33.5981 34.115 33.3381 33.51 33.3381 32.75C33.3381 31.95 33.5881 31.335 34.0881 30.905C34.5981 30.465 35.3181 30.245 36.2481 30.245C37.2381 30.245 38.0781 30.445 38.7681 30.845V30.47C38.7681 29.9 38.5931 29.48 38.2431 29.21C37.9031 28.93 37.3631 28.79 36.6231 28.79C36.1831 28.79 35.7531 28.835 35.3331 28.925C34.9231 29.005 34.5531 29.12 34.2231 29.27V28.04C34.5231 27.9 34.9131 27.79 35.3931 27.71C35.8731 27.62 36.3381 27.575 36.7881 27.575C37.9781 27.575 38.8581 27.84 39.4281 28.37C40.0081 28.89 40.2981 29.615 40.2981 30.545V35H38.8731V34.19C38.5631 34.53 38.1931 34.79 37.7631 34.97C37.3431 35.14 36.8281 35.225 36.2181 35.225ZM36.5931 34.07C37.0731 34.07 37.5081 33.975 37.8981 33.785C38.2881 33.595 38.5781 33.33 38.7681 32.99V32.015C38.1181 31.595 37.3931 31.385 36.5931 31.385C36.0131 31.385 35.5781 31.5 35.2881 31.73C35.0081 31.95 34.8681 32.29 34.8681 32.75C34.8681 33.63 35.4431 34.07 36.5931 34.07ZM45.1781 23.915H46.6931V35H45.1781V23.915ZM59.9016 27.8H61.4466L63.0666 33.14L64.6716 27.8H66.0366L67.6416 33.14L69.2616 27.8H70.8216L68.4816 35H67.0266L65.3616 29.63L63.6966 35H62.2266L59.9016 27.8ZM78.2905 35.225C77.4805 35.225 76.7655 35.075 76.1455 34.775C75.5355 34.465 75.0555 34.025 74.7055 33.455C74.3655 32.875 74.1955 32.195 74.1955 31.415C74.1955 30.645 74.3655 29.97 74.7055 29.39C75.0455 28.81 75.5255 28.365 76.1455 28.055C76.7655 27.735 77.4805 27.575 78.2905 27.575C79.1005 27.575 79.8155 27.735 80.4355 28.055C81.0555 28.365 81.5355 28.81 81.8755 29.39C82.2255 29.97 82.4005 30.645 82.4005 31.415C82.4005 32.195 82.2255 32.875 81.8755 33.455C81.5355 34.025 81.0555 34.465 80.4355 34.775C79.8155 35.075 79.1005 35.225 78.2905 35.225ZM78.2905 34.025C79.0705 34.025 79.6905 33.785 80.1505 33.305C80.6105 32.825 80.8405 32.195 80.8405 31.415C80.8405 30.605 80.6105 29.965 80.1505 29.495C79.6905 29.025 79.0705 28.79 78.2905 28.79C77.5105 28.79 76.8905 29.025 76.4305 29.495C75.9705 29.965 75.7405 30.605 75.7405 31.415C75.7405 32.195 75.9705 32.825 76.4305 33.305C76.8905 33.785 77.5105 34.025 78.2905 34.025ZM87.0463 27.8H88.5163V29.09C88.8163 28.65 89.2363 28.325 89.7763 28.115C90.3263 27.905 90.9613 27.8 91.6813 27.8V28.985C90.9113 28.985 90.2513 29.11 89.7013 29.36C89.1513 29.61 88.7713 30.005 88.5613 30.545V35H87.0463V27.8ZM96.0375 27.8H97.4775V28.835C97.8175 28.415 98.2025 28.1 98.6325 27.89C99.0625 27.68 99.5075 27.575 99.9675 27.575C100.548 27.575 101.008 27.675 101.348 27.875C101.688 28.065 101.938 28.36 102.098 28.76C102.418 28.37 102.808 28.075 103.268 27.875C103.738 27.675 104.208 27.575 104.678 27.575C105.558 27.575 106.193 27.8 106.583 28.25C106.973 28.69 107.168 29.345 107.168 30.215V35H105.698V30.41C105.698 29.82 105.588 29.405 105.368 29.165C105.148 28.915 104.773 28.79 104.243 28.79C103.483 28.79 102.863 29.12 102.383 29.78C102.403 29.93 102.413 30.175 102.413 30.515V35H100.943V30.41C100.943 29.82 100.843 29.405 100.643 29.165C100.443 28.915 100.083 28.79 99.5625 28.79C98.8025 28.79 98.1225 29.22 97.5225 30.08V35H96.0375V27.8Z" fill="black"/>
<path d="M12.8691 19.0381L17.1807 17.1875V16.4746L12.8691 14.6289V15.5615L16.0283 16.7334L16.3213 16.8262L16.0283 16.9092L12.8691 18.1006V19.0381ZM20.875 19.0381L25.1865 17.1875V16.4746L20.875 14.6289V15.5615L24.0342 16.7334L24.3271 16.8262L24.0342 16.9092L20.875 18.1006V19.0381ZM36.7012 17.3145V17.417C36.7012 17.7946 36.75 18.1478 36.8477 18.4766C36.9453 18.8021 37.0853 19.0853 37.2676 19.3262C37.4466 19.5671 37.6663 19.7559 37.9268 19.8926C38.1872 20.0293 38.4785 20.0977 38.8008 20.0977C38.9928 20.0977 39.1719 20.0765 39.3379 20.0342C39.5039 19.9951 39.6553 19.9382 39.792 19.8633C39.8799 19.8145 39.9613 19.7575 40.0361 19.6924C40.1143 19.6273 40.1875 19.5557 40.2559 19.4775V19.9316C40.2559 20.1595 40.2233 20.3613 40.1582 20.5371C40.0931 20.7129 40.0003 20.8594 39.8799 20.9766C39.7562 21.097 39.6081 21.1882 39.4355 21.25C39.263 21.3118 39.0693 21.3428 38.8545 21.3428C38.734 21.3428 38.6136 21.3298 38.4932 21.3037C38.3727 21.2809 38.2523 21.2419 38.1318 21.1865C38.0114 21.1312 37.8926 21.0563 37.7754 20.9619C37.6582 20.8708 37.5443 20.7585 37.4336 20.625L36.9648 21.167C37.0853 21.3395 37.2285 21.4844 37.3945 21.6016C37.5638 21.7188 37.7396 21.8115 37.9219 21.8799C38.1009 21.9515 38.2783 22.002 38.4541 22.0312C38.6299 22.0638 38.7861 22.0801 38.9229 22.0801C39.2549 22.0801 39.5576 22.0312 39.8311 21.9336C40.1045 21.8359 40.3405 21.6927 40.5391 21.5039C40.7344 21.3151 40.8857 21.0856 40.9932 20.8154C41.1038 20.5452 41.1592 20.236 41.1592 19.8877V14.7168H40.3389L40.2949 15.293C40.2331 15.2148 40.1663 15.1432 40.0947 15.0781C40.0264 15.013 39.9531 14.9561 39.875 14.9072C39.7318 14.8128 39.5706 14.7412 39.3916 14.6924C39.2158 14.6436 39.0221 14.6191 38.8105 14.6191C38.4818 14.6191 38.1872 14.6859 37.9268 14.8193C37.6663 14.9528 37.445 15.1383 37.2627 15.376C37.0804 15.6136 36.9404 15.8984 36.8428 16.2305C36.7484 16.5592 36.7012 16.9206 36.7012 17.3145ZM37.6045 17.417V17.3145C37.6045 17.0573 37.6305 16.8132 37.6826 16.582C37.738 16.3477 37.8242 16.141 37.9414 15.9619C38.0553 15.7861 38.2018 15.6462 38.3809 15.542C38.5632 15.4378 38.7812 15.3857 39.0352 15.3857C39.1849 15.3857 39.3216 15.4053 39.4453 15.4443C39.569 15.4801 39.6813 15.5306 39.7822 15.5957C39.8831 15.6641 39.9727 15.7438 40.0508 15.835C40.1289 15.9261 40.1973 16.027 40.2559 16.1377V18.5596C40.1973 18.6735 40.1289 18.7777 40.0508 18.8721C39.9727 18.9665 39.8848 19.0479 39.7871 19.1162C39.6862 19.1846 39.5723 19.2383 39.4453 19.2773C39.3216 19.3132 39.1816 19.3311 39.0254 19.3311C38.7747 19.3311 38.5599 19.2806 38.3809 19.1797C38.2018 19.0755 38.0553 18.9355 37.9414 18.7598C37.8242 18.584 37.738 18.3805 37.6826 18.1494C37.6305 17.9183 37.6045 17.6742 37.6045 17.417ZM47.207 20.0977C47.7214 20.0977 48.1527 19.9951 48.501 19.79C48.8525 19.5817 49.1162 19.3441 49.292 19.0771L48.7402 18.6475C48.5742 18.8623 48.3659 19.0348 48.1152 19.165C47.8646 19.2952 47.5781 19.3604 47.2559 19.3604C47.0117 19.3604 46.7887 19.3148 46.5869 19.2236C46.3851 19.1325 46.2126 19.0072 46.0693 18.8477C45.9294 18.6979 45.8187 18.5254 45.7373 18.3301C45.6592 18.1348 45.6087 17.9085 45.5859 17.6514V17.6172H49.3604V17.2119C49.3604 16.8441 49.3132 16.5023 49.2188 16.1865C49.1276 15.8708 48.9876 15.5957 48.7988 15.3613C48.61 15.1302 48.3724 14.9495 48.0859 14.8193C47.8027 14.6859 47.4707 14.6191 47.0898 14.6191C46.7871 14.6191 46.4909 14.681 46.2012 14.8047C45.9147 14.9284 45.6592 15.1058 45.4346 15.3369C45.2067 15.5713 45.0244 15.8577 44.8877 16.1963C44.751 16.5316 44.6826 16.9124 44.6826 17.3389V17.5439C44.6826 17.9118 44.7445 18.252 44.8682 18.5645C44.9919 18.877 45.1644 19.1471 45.3857 19.375C45.6071 19.6029 45.8724 19.7803 46.1816 19.9072C46.4941 20.0342 46.8359 20.0977 47.207 20.0977ZM47.0898 15.3613C47.321 15.3613 47.5195 15.4036 47.6855 15.4883C47.8548 15.5729 47.9948 15.6836 48.1055 15.8203C48.2161 15.957 48.3024 16.1198 48.3643 16.3086C48.4261 16.4941 48.457 16.6683 48.457 16.8311V16.875H45.6152C45.651 16.6309 45.7129 16.416 45.8008 16.2305C45.8919 16.0417 46.0026 15.8822 46.1328 15.752C46.263 15.625 46.4095 15.529 46.5723 15.4639C46.735 15.3955 46.9076 15.3613 47.0898 15.3613ZM56.3506 20H57.293V19.9219C57.2344 19.7754 57.1888 19.6045 57.1562 19.4092C57.1237 19.2106 57.1074 19.0234 57.1074 18.8477V16.3916C57.1074 16.0954 57.0537 15.8366 56.9463 15.6152C56.8389 15.3939 56.6924 15.2083 56.5068 15.0586C56.318 14.9121 56.0951 14.8031 55.8379 14.7314C55.5807 14.6566 55.3024 14.6191 55.0029 14.6191C54.6742 14.6191 54.3796 14.6647 54.1191 14.7559C53.862 14.847 53.6439 14.9658 53.4648 15.1123C53.2826 15.262 53.1426 15.4297 53.0449 15.6152C52.9505 15.8008 52.9017 15.9896 52.8984 16.1816H53.8066C53.8066 16.071 53.8327 15.9652 53.8848 15.8643C53.9401 15.7601 54.0166 15.6706 54.1143 15.5957C54.2119 15.5208 54.3307 15.4606 54.4707 15.415C54.6139 15.3695 54.7751 15.3467 54.9541 15.3467C55.1462 15.3467 55.3187 15.3711 55.4717 15.4199C55.6279 15.4688 55.7598 15.5371 55.8672 15.625C55.9746 15.7161 56.0576 15.8252 56.1162 15.9521C56.1748 16.0791 56.2041 16.2223 56.2041 16.3818V16.7969H55.2178C54.8499 16.7969 54.5163 16.8327 54.2168 16.9043C53.9206 16.9759 53.6667 17.0833 53.4551 17.2266C53.2435 17.373 53.0791 17.5553 52.9619 17.7734C52.848 17.9915 52.791 18.2454 52.791 18.5352C52.791 18.7565 52.8333 18.9632 52.918 19.1553C53.0059 19.3441 53.1296 19.5068 53.2891 19.6436C53.4453 19.7835 53.6357 19.8942 53.8604 19.9756C54.0882 20.057 54.3421 20.0977 54.6221 20.0977C54.7946 20.0977 54.9574 20.0798 55.1104 20.0439C55.2633 20.0081 55.4082 19.9593 55.5449 19.8975C55.6784 19.8356 55.8005 19.764 55.9111 19.6826C56.0251 19.6012 56.1276 19.515 56.2188 19.4238C56.2285 19.5345 56.2432 19.6419 56.2627 19.7461C56.2855 19.847 56.3148 19.9316 56.3506 20ZM54.7539 19.3115C54.5781 19.3115 54.4235 19.2887 54.29 19.2432C54.1566 19.1976 54.0459 19.1341 53.958 19.0527C53.8701 18.9746 53.8034 18.8802 53.7578 18.7695C53.7155 18.6589 53.6943 18.5384 53.6943 18.4082C53.6943 18.2715 53.7188 18.1494 53.7676 18.042C53.8197 17.9346 53.8945 17.8418 53.9922 17.7637C54.1289 17.653 54.3128 17.5716 54.5439 17.5195C54.7783 17.4642 55.0518 17.4365 55.3643 17.4365H56.2041V18.5059C56.152 18.61 56.0804 18.7109 55.9893 18.8086C55.8981 18.903 55.7907 18.9876 55.667 19.0625C55.54 19.1374 55.4001 19.1976 55.2471 19.2432C55.0941 19.2887 54.9297 19.3115 54.7539 19.3115ZM64.3467 14.6191C63.9626 14.6191 63.6191 14.7038 63.3164 14.873C63.0169 15.0391 62.7598 15.2669 62.5449 15.5566L62.54 15.4248L62.501 14.7168H61.6416V20H62.5498V16.6113C62.6084 16.4486 62.6816 16.3021 62.7695 16.1719C62.8607 16.0384 62.9665 15.9261 63.0869 15.835C63.2204 15.7308 63.3766 15.6527 63.5557 15.6006C63.7347 15.5452 63.9349 15.5176 64.1562 15.5176C64.3288 15.5176 64.4932 15.5273 64.6494 15.5469C64.8089 15.5632 64.9766 15.5908 65.1523 15.6299L65.2744 14.7461C65.1833 14.707 65.0465 14.6761 64.8643 14.6533C64.6852 14.6305 64.5127 14.6191 64.3467 14.6191Z" fill="#707070"/>
<path d="M45 109.95L48.8818 103.9L56.6455 102.25L68.8455 98.95L71.6182 90.15V76.95L79.3818 66.5L88.2545 62.65L100.455 61L106 64.3V70L102.118 74.2H91.5818L83.8182 80.8V96.2L76.0545 108.85L52.7636 116L45 109.95Z" fill="#FFA4D5"/>
<path d="M98 69L98.5 65H99V69H98Z" fill="white"/>
<path d="M102 69L101.5 65H101V69H102Z" fill="white"/>
</svg>
