<svg width="150" height="200" viewBox="0 0 150 200" fill="none" xmlns="http://www.w3.org/2000/svg">
<rect width="150" height="200" fill="white"/>
<path d="M17.325 148.505H17.835V151.575H19.605V152H17.325V148.505ZM21.8901 152.075C21.6001 152.075 21.3667 152.002 21.1901 151.855C21.0167 151.705 20.9301 151.503 20.9301 151.25C20.9301 150.983 21.0134 150.778 21.1801 150.635C21.3501 150.488 21.5901 150.415 21.9001 150.415C22.2301 150.415 22.5101 150.482 22.7401 150.615V150.49C22.7401 150.3 22.6817 150.16 22.5651 150.07C22.4517 149.977 22.2717 149.93 22.0251 149.93C21.8784 149.93 21.7351 149.945 21.5951 149.975C21.4584 150.002 21.3351 150.04 21.2251 150.09V149.68C21.3251 149.633 21.4551 149.597 21.6151 149.57C21.7751 149.54 21.9301 149.525 22.0801 149.525C22.4767 149.525 22.7701 149.613 22.9601 149.79C23.1534 149.963 23.2501 150.205 23.2501 150.515V152H22.7751V151.73C22.6717 151.843 22.5484 151.93 22.4051 151.99C22.2651 152.047 22.0934 152.075 21.8901 152.075ZM22.0151 151.69C22.1751 151.69 22.3201 151.658 22.4501 151.595C22.5801 151.532 22.6767 151.443 22.7401 151.33V151.005C22.5234 150.865 22.2817 150.795 22.0151 150.795C21.8217 150.795 21.6767 150.833 21.5801 150.91C21.4867 150.983 21.4401 151.097 21.4401 151.25C21.4401 151.543 21.6317 151.69 22.0151 151.69ZM25.8318 152.075C25.5084 152.075 25.2634 151.988 25.0968 151.815C24.9334 151.642 24.8518 151.41 24.8518 151.12V149.6H25.3568V151.1C25.3568 151.483 25.5484 151.675 25.9318 151.675C26.2684 151.675 26.5318 151.523 26.7218 151.22V149.6H27.2268V152H26.7368V151.66C26.6234 151.803 26.4884 151.908 26.3318 151.975C26.1784 152.042 26.0118 152.075 25.8318 152.075ZM28.8748 149.6H29.3648V149.945C29.4781 149.802 29.6165 149.697 29.7798 149.63C29.9465 149.56 30.1198 149.525 30.2998 149.525C30.6198 149.525 30.8581 149.61 31.0148 149.78C31.1715 149.95 31.2498 150.178 31.2498 150.465V152H30.7448V150.515C30.7448 150.125 30.5581 149.93 30.1848 149.93C30.0248 149.93 29.8748 149.968 29.7348 150.045C29.5981 150.118 29.4798 150.232 29.3798 150.385V152H28.8748V149.6ZM34.1379 152.075C33.8712 152.075 33.6345 152.025 33.4279 151.925C33.2212 151.825 33.0595 151.68 32.9429 151.49C32.8295 151.297 32.7729 151.068 32.7729 150.805C32.7729 150.542 32.8295 150.315 32.9429 150.125C33.0595 149.932 33.2212 149.783 33.4279 149.68C33.6379 149.577 33.8779 149.525 34.1479 149.525C34.5145 149.525 34.8079 149.597 35.0279 149.74V150.155C34.8112 150.005 34.5345 149.93 34.1979 149.93C33.9245 149.93 33.7029 150.005 33.5329 150.155C33.3662 150.302 33.2829 150.518 33.2829 150.805C33.2829 151.092 33.3662 151.308 33.5329 151.455C33.6995 151.602 33.9179 151.675 34.1879 151.675C34.5245 151.675 34.8145 151.595 35.0579 151.435V151.845C34.9412 151.925 34.8079 151.983 34.6579 152.02C34.5112 152.057 34.3379 152.075 34.1379 152.075ZM36.6072 148.305H37.1122V149.93C37.3422 149.66 37.6489 149.525 38.0322 149.525C38.3522 149.525 38.5906 149.61 38.7472 149.78C38.9039 149.95 38.9822 150.178 38.9822 150.465V152H38.4772V150.515C38.4772 150.125 38.2906 149.93 37.9172 149.93C37.7572 149.93 37.6072 149.968 37.4672 150.045C37.3306 150.118 37.2122 150.232 37.1122 150.385V152H36.6072V148.305ZM43.9659 152.99C43.7859 152.99 43.6359 152.972 43.5159 152.935V152.54C43.6025 152.573 43.7092 152.59 43.8359 152.59C43.9525 152.59 44.0442 152.56 44.1109 152.5C44.1775 152.443 44.2375 152.35 44.2909 152.22L44.4059 151.94L43.3559 149.6H43.8759L44.6759 151.445L45.4209 149.6H45.9409L44.8609 152.27C44.7609 152.52 44.6409 152.702 44.5009 152.815C44.3642 152.932 44.1859 152.99 43.9659 152.99ZM48.3283 152.075C48.0583 152.075 47.8199 152.025 47.6133 151.925C47.4099 151.822 47.2499 151.675 47.1333 151.485C47.0199 151.292 46.9633 151.065 46.9633 150.805C46.9633 150.548 47.0199 150.323 47.1333 150.13C47.2466 149.937 47.4066 149.788 47.6133 149.685C47.8199 149.578 48.0583 149.525 48.3283 149.525C48.5983 149.525 48.8366 149.578 49.0433 149.685C49.2499 149.788 49.4099 149.937 49.5233 150.13C49.6399 150.323 49.6983 150.548 49.6983 150.805C49.6983 151.065 49.6399 151.292 49.5233 151.485C49.4099 151.675 49.2499 151.822 49.0433 151.925C48.8366 152.025 48.5983 152.075 48.3283 152.075ZM48.3283 151.675C48.5883 151.675 48.7949 151.595 48.9483 151.435C49.1016 151.275 49.1783 151.065 49.1783 150.805C49.1783 150.535 49.1016 150.322 48.9483 150.165C48.7949 150.008 48.5883 149.93 48.3283 149.93C48.0683 149.93 47.8616 150.008 47.7083 150.165C47.5549 150.322 47.4783 150.535 47.4783 150.805C47.4783 151.065 47.5549 151.275 47.7083 151.435C47.8616 151.595 48.0683 151.675 48.3283 151.675ZM52.2019 152.075C51.8785 152.075 51.6335 151.988 51.4669 151.815C51.3035 151.642 51.2219 151.41 51.2219 151.12V149.6H51.7269V151.1C51.7269 151.483 51.9185 151.675 52.3019 151.675C52.6385 151.675 52.9019 151.523 53.0919 151.22V149.6H53.5969V152H53.1069V151.66C52.9935 151.803 52.8585 151.908 52.7019 151.975C52.5485 152.042 52.3819 152.075 52.2019 152.075ZM55.2449 149.6H55.7349V150.03C55.8349 149.883 55.9749 149.775 56.1549 149.705C56.3383 149.635 56.5499 149.6 56.7899 149.6V149.995C56.5333 149.995 56.3133 150.037 56.1299 150.12C55.9466 150.203 55.8199 150.335 55.7499 150.515V152H55.2449V149.6ZM61.0926 149.6H61.5826V150.03C61.6826 149.883 61.8226 149.775 62.0026 149.705C62.1859 149.635 62.3976 149.6 62.6376 149.6V149.995C62.3809 149.995 62.1609 150.037 61.9776 150.12C61.7942 150.203 61.6676 150.335 61.5976 150.515V152H61.0926V149.6ZM65.2814 152.075C65.0114 152.075 64.7731 152.025 64.5664 151.925C64.3631 151.822 64.2031 151.675 64.0864 151.485C63.9731 151.292 63.9164 151.065 63.9164 150.805C63.9164 150.548 63.9731 150.323 64.0864 150.13C64.1997 149.937 64.3597 149.788 64.5664 149.685C64.7731 149.578 65.0114 149.525 65.2814 149.525C65.5514 149.525 65.7897 149.578 65.9964 149.685C66.2031 149.788 66.3631 149.937 66.4764 150.13C66.5931 150.323 66.6514 150.548 66.6514 150.805C66.6514 151.065 66.5931 151.292 66.4764 151.485C66.3631 151.675 66.2031 151.822 65.9964 151.925C65.7897 152.025 65.5514 152.075 65.2814 152.075ZM65.2814 151.675C65.5414 151.675 65.7481 151.595 65.9014 151.435C66.0547 151.275 66.1314 151.065 66.1314 150.805C66.1314 150.535 66.0547 150.322 65.9014 150.165C65.7481 150.008 65.5414 149.93 65.2814 149.93C65.0214 149.93 64.8147 150.008 64.6614 150.165C64.5081 150.322 64.4314 150.535 64.4314 150.805C64.4314 151.065 64.5081 151.275 64.6614 151.435C64.8147 151.595 65.0214 151.675 65.2814 151.675ZM69.3918 152.075C69.1251 152.075 68.8884 152.025 68.6818 151.925C68.4751 151.825 68.3134 151.68 68.1968 151.49C68.0834 151.297 68.0268 151.068 68.0268 150.805C68.0268 150.542 68.0834 150.315 68.1968 150.125C68.3134 149.932 68.4751 149.783 68.6818 149.68C68.8918 149.577 69.1318 149.525 69.4018 149.525C69.7684 149.525 70.0618 149.597 70.2818 149.74V150.155C70.0651 150.005 69.7884 149.93 69.4518 149.93C69.1784 149.93 68.9568 150.005 68.7868 150.155C68.6201 150.302 68.5368 150.518 68.5368 150.805C68.5368 151.092 68.6201 151.308 68.7868 151.455C68.9534 151.602 69.1718 151.675 69.4418 151.675C69.7784 151.675 70.0684 151.595 70.3118 151.435V151.845C70.1951 151.925 70.0618 151.983 69.9118 152.02C69.7651 152.057 69.5918 152.075 69.3918 152.075ZM71.8611 148.305H72.3661V152H71.8611V148.305ZM72.3711 150.785L73.4761 149.6H74.0911L72.9811 150.785L74.2061 152H73.5911L72.3711 150.785ZM76.417 152.075C76.2504 152.075 76.0737 152.053 75.887 152.01C75.7004 151.97 75.5537 151.915 75.447 151.845V151.415C75.577 151.492 75.727 151.555 75.897 151.605C76.067 151.652 76.232 151.675 76.392 151.675C76.572 151.675 76.7037 151.653 76.787 151.61C76.8704 151.567 76.912 151.497 76.912 151.4C76.912 151.327 76.892 151.268 76.852 151.225C76.8154 151.178 76.7504 151.137 76.657 151.1C76.567 151.063 76.4304 151.02 76.247 150.97C76.0504 150.913 75.8937 150.857 75.777 150.8C75.6637 150.74 75.577 150.665 75.517 150.575C75.4604 150.485 75.432 150.368 75.432 150.225C75.432 149.995 75.522 149.822 75.702 149.705C75.8854 149.585 76.1304 149.525 76.437 149.525C76.597 149.525 76.7537 149.54 76.907 149.57C77.0604 149.6 77.1837 149.642 77.277 149.695V150.115C77.1804 150.058 77.0604 150.013 76.917 149.98C76.777 149.947 76.6337 149.93 76.487 149.93C76.3104 149.93 76.1754 149.952 76.082 149.995C75.9887 150.038 75.942 150.115 75.942 150.225C75.942 150.295 75.962 150.352 76.002 150.395C76.042 150.438 76.1054 150.477 76.192 150.51C76.282 150.54 76.4237 150.58 76.617 150.63C76.9204 150.713 77.1304 150.812 77.247 150.925C77.367 151.038 77.427 151.195 77.427 151.395C77.427 151.602 77.342 151.767 77.172 151.89C77.002 152.013 76.7504 152.075 76.417 152.075ZM82.6889 152.075C82.3989 152.075 82.1656 152.002 81.9889 151.855C81.8156 151.705 81.7289 151.503 81.7289 151.25C81.7289 150.983 81.8122 150.778 81.9789 150.635C82.1489 150.488 82.3889 150.415 82.6989 150.415C83.0289 150.415 83.3089 150.482 83.5389 150.615V150.49C83.5389 150.3 83.4806 150.16 83.3639 150.07C83.2506 149.977 83.0706 149.93 82.8239 149.93C82.6772 149.93 82.5339 149.945 82.3939 149.975C82.2572 150.002 82.1339 150.04 82.0239 150.09V149.68C82.1239 149.633 82.2539 149.597 82.4139 149.57C82.5739 149.54 82.7289 149.525 82.8789 149.525C83.2756 149.525 83.5689 149.613 83.7589 149.79C83.9522 149.963 84.0489 150.205 84.0489 150.515V152H83.5739V151.73C83.4706 151.843 83.3472 151.93 83.2039 151.99C83.0639 152.047 82.8922 152.075 82.6889 152.075ZM82.8139 151.69C82.9739 151.69 83.1189 151.658 83.2489 151.595C83.3789 151.532 83.4756 151.443 83.5389 151.33V151.005C83.3222 150.865 83.0806 150.795 82.8139 150.795C82.6206 150.795 82.4756 150.833 82.3789 150.91C82.2856 150.983 82.2389 151.097 82.2389 151.25C82.2389 151.543 82.4306 151.69 82.8139 151.69ZM86.4736 152.075C86.2303 152.075 86.042 152.005 85.9086 151.865C85.7786 151.725 85.7136 151.527 85.7136 151.27V149.99H85.3486V149.6H85.7136V148.88H86.2236V149.6H86.8136V149.99H86.2236V151.235C86.2236 151.395 86.2536 151.508 86.3136 151.575C86.377 151.642 86.4903 151.675 86.6536 151.675C86.7503 151.675 86.847 151.653 86.9436 151.61V152.01C86.817 152.053 86.6603 152.075 86.4736 152.075ZM92.5343 152.075C92.2643 152.075 92.026 152.025 91.8193 151.925C91.616 151.822 91.456 151.675 91.3393 151.485C91.226 151.292 91.1693 151.065 91.1693 150.805C91.1693 150.548 91.226 150.323 91.3393 150.13C91.4527 149.937 91.6127 149.788 91.8193 149.685C92.026 149.578 92.2643 149.525 92.5343 149.525C92.8043 149.525 93.0427 149.578 93.2493 149.685C93.456 149.788 93.616 149.937 93.7293 150.13C93.846 150.323 93.9043 150.548 93.9043 150.805C93.9043 151.065 93.846 151.292 93.7293 151.485C93.616 151.675 93.456 151.822 93.2493 151.925C93.0427 152.025 92.8043 152.075 92.5343 152.075ZM92.5343 151.675C92.7943 151.675 93.001 151.595 93.1543 151.435C93.3077 151.275 93.3843 151.065 93.3843 150.805C93.3843 150.535 93.3077 150.322 93.1543 150.165C93.001 150.008 92.7943 149.93 92.5343 149.93C92.2743 149.93 92.0677 150.008 91.9143 150.165C91.761 150.322 91.6843 150.535 91.6843 150.805C91.6843 151.065 91.761 151.275 91.9143 151.435C92.0677 151.595 92.2743 151.675 92.5343 151.675ZM96.3047 152.075C96.0614 152.075 95.873 152.005 95.7397 151.865C95.6097 151.725 95.5447 151.527 95.5447 151.27V149.99H95.1797V149.6H95.5447V148.88H96.0547V149.6H96.6447V149.99H96.0547V151.235C96.0547 151.395 96.0847 151.508 96.1447 151.575C96.208 151.642 96.3214 151.675 96.4847 151.675C96.5814 151.675 96.678 151.653 96.7747 151.61V152.01C96.648 152.053 96.4914 152.075 96.3047 152.075ZM98.2498 148.305H98.7548V149.93C98.9848 149.66 99.2915 149.525 99.6748 149.525C99.9948 149.525 100.233 149.61 100.39 149.78C100.546 149.95 100.625 150.178 100.625 150.465V152H100.12V150.515C100.12 150.125 99.9331 149.93 99.5598 149.93C99.3998 149.93 99.2498 149.968 99.1098 150.045C98.9731 150.118 98.8548 150.232 98.7548 150.385V152H98.2498V148.305ZM103.568 152.075C103.125 152.075 102.776 151.965 102.523 151.745C102.273 151.522 102.148 151.208 102.148 150.805C102.148 150.412 102.26 150.1 102.483 149.87C102.71 149.64 103.031 149.525 103.448 149.525C103.725 149.525 103.96 149.578 104.153 149.685C104.346 149.788 104.491 149.933 104.588 150.12C104.688 150.303 104.738 150.513 104.738 150.75V151H102.628C102.645 151.227 102.74 151.397 102.913 151.51C103.09 151.62 103.328 151.675 103.628 151.675C103.781 151.675 103.936 151.662 104.093 151.635C104.25 151.605 104.388 151.567 104.508 151.52V151.925C104.401 151.968 104.26 152.003 104.083 152.03C103.91 152.06 103.738 152.075 103.568 152.075ZM104.263 150.645C104.256 150.418 104.181 150.243 104.038 150.12C103.898 149.993 103.698 149.93 103.438 149.93C103.185 149.93 102.988 149.995 102.848 150.125C102.708 150.255 102.635 150.428 102.628 150.645H104.263ZM106.29 149.6H106.78V150.03C106.88 149.883 107.02 149.775 107.2 149.705C107.383 149.635 107.595 149.6 107.835 149.6V149.995C107.578 149.995 107.358 150.037 107.175 150.12C106.992 150.203 106.865 150.335 106.795 150.515V152H106.29V149.6ZM112.303 149.99H111.938V149.6H112.303V149.145C112.303 148.868 112.391 148.655 112.568 148.505C112.744 148.355 112.964 148.28 113.228 148.28C113.361 148.28 113.491 148.3 113.618 148.34V148.75C113.524 148.713 113.428 148.695 113.328 148.695C113.158 148.695 113.028 148.737 112.938 148.82C112.851 148.9 112.808 149.018 112.808 149.175V149.6H114.428V152H113.923V149.99H112.808V152H112.303V149.99ZM114.173 149.13C114.086 149.13 114.014 149.102 113.958 149.045C113.901 148.988 113.873 148.918 113.873 148.835C113.873 148.752 113.901 148.682 113.958 148.625C114.018 148.568 114.089 148.54 114.173 148.54C114.256 148.54 114.326 148.568 114.382 148.625C114.443 148.682 114.473 148.752 114.473 148.835C114.473 148.918 114.443 148.988 114.382 149.045C114.326 149.102 114.256 149.13 114.173 149.13ZM117.006 152.075C116.839 152.075 116.663 152.053 116.476 152.01C116.289 151.97 116.143 151.915 116.036 151.845V151.415C116.166 151.492 116.316 151.555 116.486 151.605C116.656 151.652 116.821 151.675 116.981 151.675C117.161 151.675 117.293 151.653 117.376 151.61C117.459 151.567 117.501 151.497 117.501 151.4C117.501 151.327 117.481 151.268 117.441 151.225C117.404 151.178 117.339 151.137 117.246 151.1C117.156 151.063 117.019 151.02 116.836 150.97C116.639 150.913 116.483 150.857 116.366 150.8C116.253 150.74 116.166 150.665 116.106 150.575C116.049 150.485 116.021 150.368 116.021 150.225C116.021 149.995 116.111 149.822 116.291 149.705C116.474 149.585 116.719 149.525 117.026 149.525C117.186 149.525 117.343 149.54 117.496 149.57C117.649 149.6 117.773 149.642 117.866 149.695V150.115C117.769 150.058 117.649 150.013 117.506 149.98C117.366 149.947 117.223 149.93 117.076 149.93C116.899 149.93 116.764 149.952 116.671 149.995C116.578 150.038 116.531 150.115 116.531 150.225C116.531 150.295 116.551 150.352 116.591 150.395C116.631 150.438 116.694 150.477 116.781 150.51C116.871 150.54 117.013 150.58 117.206 150.63C117.509 150.713 117.719 150.812 117.836 150.925C117.956 151.038 118.016 151.195 118.016 151.395C118.016 151.602 117.931 151.767 117.761 151.89C117.591 152.013 117.339 152.075 117.006 152.075ZM119.567 148.305H120.072V149.93C120.302 149.66 120.609 149.525 120.992 149.525C121.312 149.525 121.551 149.61 121.707 149.78C121.864 149.95 121.942 150.178 121.942 150.465V152H121.437V150.515C121.437 150.125 121.251 149.93 120.877 149.93C120.717 149.93 120.567 149.968 120.427 150.045C120.291 150.118 120.172 150.232 120.072 150.385V152H119.567V148.305ZM123.7 152C123.634 152 123.577 151.978 123.53 151.935C123.487 151.888 123.465 151.832 123.465 151.765C123.465 151.698 123.487 151.642 123.53 151.595C123.577 151.548 123.634 151.525 123.7 151.525C123.767 151.525 123.824 151.548 123.87 151.595C123.917 151.642 123.94 151.698 123.94 151.765C123.94 151.832 123.917 151.888 123.87 151.935C123.824 151.978 123.767 152 123.7 152ZM17.325 156.505H18.45C18.8267 156.505 19.1533 156.575 19.43 156.715C19.7067 156.855 19.9183 157.055 20.065 157.315C20.215 157.575 20.29 157.882 20.29 158.235C20.29 158.815 20.1217 159.255 19.785 159.555C19.4517 159.852 18.9833 160 18.38 160H17.325V156.505ZM18.375 159.575C18.8417 159.575 19.1917 159.46 19.425 159.23C19.6583 159 19.775 158.668 19.775 158.235C19.775 157.835 19.66 157.518 19.43 157.285C19.2033 157.052 18.8783 156.935 18.455 156.935H17.835V159.575H18.375ZM23.1606 160.075C22.7173 160.075 22.369 159.965 22.1156 159.745C21.8656 159.522 21.7406 159.208 21.7406 158.805C21.7406 158.412 21.8523 158.1 22.0756 157.87C22.3023 157.64 22.624 157.525 23.0406 157.525C23.3173 157.525 23.5523 157.578 23.7456 157.685C23.939 157.788 24.084 157.933 24.1806 158.12C24.2806 158.303 24.3306 158.513 24.3306 158.75V159H22.2206C22.2373 159.227 22.3323 159.397 22.5056 159.51C22.6823 159.62 22.9206 159.675 23.2206 159.675C23.374 159.675 23.529 159.662 23.6856 159.635C23.8423 159.605 23.9806 159.567 24.1006 159.52V159.925C23.994 159.968 23.8523 160.003 23.6756 160.03C23.5023 160.06 23.3306 160.075 23.1606 160.075ZM23.8556 158.645C23.849 158.418 23.774 158.243 23.6306 158.12C23.4906 157.993 23.2906 157.93 23.0306 157.93C22.7773 157.93 22.5806 157.995 22.4406 158.125C22.3006 158.255 22.2273 158.428 22.2206 158.645H23.8556ZM26.7426 160.075C26.4526 160.075 26.2193 160.002 26.0426 159.855C25.8693 159.705 25.7826 159.503 25.7826 159.25C25.7826 158.983 25.866 158.778 26.0326 158.635C26.2026 158.488 26.4426 158.415 26.7526 158.415C27.0826 158.415 27.3626 158.482 27.5926 158.615V158.49C27.5926 158.3 27.5343 158.16 27.4176 158.07C27.3043 157.977 27.1243 157.93 26.8776 157.93C26.731 157.93 26.5876 157.945 26.4476 157.975C26.311 158.002 26.1876 158.04 26.0776 158.09V157.68C26.1776 157.633 26.3076 157.597 26.4676 157.57C26.6276 157.54 26.7826 157.525 26.9326 157.525C27.3293 157.525 27.6226 157.613 27.8126 157.79C28.006 157.963 28.1026 158.205 28.1026 158.515V160H27.6276V159.73C27.5243 159.843 27.401 159.93 27.2576 159.99C27.1176 160.047 26.946 160.075 26.7426 160.075ZM26.8676 159.69C27.0276 159.69 27.1726 159.658 27.3026 159.595C27.4326 159.532 27.5293 159.443 27.5926 159.33V159.005C27.376 158.865 27.1343 158.795 26.8676 158.795C26.6743 158.795 26.5293 158.833 26.4326 158.91C26.3393 158.983 26.2926 159.097 26.2926 159.25C26.2926 159.543 26.4843 159.69 26.8676 159.69ZM29.7293 156.305H30.2343V160H29.7293V156.305ZM32.7715 160.075C32.6049 160.075 32.4282 160.053 32.2415 160.01C32.0549 159.97 31.9082 159.915 31.8015 159.845V159.415C31.9315 159.492 32.0815 159.555 32.2515 159.605C32.4215 159.652 32.5865 159.675 32.7465 159.675C32.9265 159.675 33.0582 159.653 33.1415 159.61C33.2249 159.567 33.2665 159.497 33.2665 159.4C33.2665 159.327 33.2465 159.268 33.2065 159.225C33.1699 159.178 33.1049 159.137 33.0115 159.1C32.9215 159.063 32.7849 159.02 32.6015 158.97C32.4049 158.913 32.2482 158.857 32.1315 158.8C32.0182 158.74 31.9315 158.665 31.8715 158.575C31.8149 158.485 31.7865 158.368 31.7865 158.225C31.7865 157.995 31.8765 157.822 32.0565 157.705C32.2399 157.585 32.4849 157.525 32.7915 157.525C32.9515 157.525 33.1082 157.54 33.2615 157.57C33.4149 157.6 33.5382 157.642 33.6315 157.695V158.115C33.5349 158.058 33.4149 158.013 33.2715 157.98C33.1315 157.947 32.9882 157.93 32.8415 157.93C32.6649 157.93 32.5299 157.952 32.4365 157.995C32.3432 158.038 32.2965 158.115 32.2965 158.225C32.2965 158.295 32.3165 158.352 32.3565 158.395C32.3965 158.438 32.4599 158.477 32.5465 158.51C32.6365 158.54 32.7782 158.58 32.9715 158.63C33.2749 158.713 33.4849 158.812 33.6015 158.925C33.7215 159.038 33.7815 159.195 33.7815 159.395C33.7815 159.602 33.6965 159.767 33.5265 159.89C33.3565 160.013 33.1049 160.075 32.7715 160.075ZM49.9508 160.075C49.7108 160.075 49.4942 160.023 49.3008 159.92C49.1108 159.813 48.9608 159.665 48.8508 159.475C48.7442 159.282 48.6908 159.058 48.6908 158.805C48.6908 158.555 48.7442 158.333 48.8508 158.14C48.9608 157.947 49.1108 157.797 49.3008 157.69C49.4942 157.58 49.7108 157.525 49.9508 157.525C50.3842 157.525 50.7125 157.657 50.9358 157.92V156.305H51.4408V160H50.9508V159.65C50.8175 159.797 50.6708 159.905 50.5108 159.975C50.3542 160.042 50.1675 160.075 49.9508 160.075ZM50.0658 159.675C50.2725 159.675 50.4525 159.622 50.6058 159.515C50.7625 159.405 50.8725 159.258 50.9358 159.075V158.535C50.8792 158.352 50.7708 158.205 50.6108 158.095C50.4542 157.985 50.2725 157.93 50.0658 157.93C49.9025 157.93 49.7542 157.967 49.6208 158.04C49.4908 158.113 49.3875 158.217 49.3108 158.35C49.2375 158.483 49.2008 158.635 49.2008 158.805C49.2008 158.975 49.2375 159.127 49.3108 159.26C49.3875 159.393 49.4908 159.497 49.6208 159.57C49.7542 159.64 49.9025 159.675 50.0658 159.675ZM53.8784 160.075C53.5884 160.075 53.355 160.002 53.1784 159.855C53.005 159.705 52.9184 159.503 52.9184 159.25C52.9184 158.983 53.0017 158.778 53.1684 158.635C53.3384 158.488 53.5784 158.415 53.8884 158.415C54.2184 158.415 54.4984 158.482 54.7284 158.615V158.49C54.7284 158.3 54.67 158.16 54.5534 158.07C54.44 157.977 54.26 157.93 54.0134 157.93C53.8667 157.93 53.7234 157.945 53.5834 157.975C53.4467 158.002 53.3234 158.04 53.2134 158.09V157.68C53.3134 157.633 53.4434 157.597 53.6034 157.57C53.7634 157.54 53.9184 157.525 54.0684 157.525C54.465 157.525 54.7584 157.613 54.9484 157.79C55.1417 157.963 55.2384 158.205 55.2384 158.515V160H54.7634V159.73C54.66 159.843 54.5367 159.93 54.3934 159.99C54.2534 160.047 54.0817 160.075 53.8784 160.075ZM54.0034 159.69C54.1634 159.69 54.3084 159.658 54.4384 159.595C54.5684 159.532 54.665 159.443 54.7284 159.33V159.005C54.5117 158.865 54.27 158.795 54.0034 158.795C53.81 158.795 53.665 158.833 53.5684 158.91C53.475 158.983 53.4284 159.097 53.4284 159.25C53.4284 159.543 53.62 159.69 54.0034 159.69ZM56.865 157.6H57.345V157.945C57.4584 157.805 57.5867 157.7 57.73 157.63C57.8734 157.56 58.0217 157.525 58.175 157.525C58.3684 157.525 58.5217 157.558 58.635 157.625C58.7484 157.688 58.8317 157.787 58.885 157.92C58.9917 157.79 59.1217 157.692 59.275 157.625C59.4317 157.558 59.5884 157.525 59.745 157.525C60.0384 157.525 60.25 157.6 60.38 157.75C60.51 157.897 60.575 158.115 60.575 158.405V160H60.085V158.47C60.085 158.273 60.0484 158.135 59.975 158.055C59.9017 157.972 59.7767 157.93 59.6 157.93C59.3467 157.93 59.14 158.04 58.98 158.26C58.9867 158.31 58.99 158.392 58.99 158.505V160H58.5V158.47C58.5 158.273 58.4667 158.135 58.4 158.055C58.3334 157.972 58.2134 157.93 58.04 157.93C57.7867 157.93 57.56 158.073 57.36 158.36V160H56.865V157.6ZM62.9877 160.075C62.6977 160.075 62.4644 160.002 62.2877 159.855C62.1144 159.705 62.0277 159.503 62.0277 159.25C62.0277 158.983 62.1111 158.778 62.2777 158.635C62.4477 158.488 62.6877 158.415 62.9977 158.415C63.3277 158.415 63.6077 158.482 63.8377 158.615V158.49C63.8377 158.3 63.7794 158.16 63.6627 158.07C63.5494 157.977 63.3694 157.93 63.1227 157.93C62.9761 157.93 62.8327 157.945 62.6927 157.975C62.5561 158.002 62.4327 158.04 62.3227 158.09V157.68C62.4227 157.633 62.5527 157.597 62.7127 157.57C62.8727 157.54 63.0277 157.525 63.1777 157.525C63.5744 157.525 63.8677 157.613 64.0577 157.79C64.2511 157.963 64.3477 158.205 64.3477 158.515V160H63.8727V159.73C63.7694 159.843 63.6461 159.93 63.5027 159.99C63.3627 160.047 63.1911 160.075 62.9877 160.075ZM63.1127 159.69C63.2727 159.69 63.4177 159.658 63.5477 159.595C63.6777 159.532 63.7744 159.443 63.8377 159.33V159.005C63.6211 158.865 63.3794 158.795 63.1127 158.795C62.9194 158.795 62.7744 158.833 62.6777 158.91C62.5844 158.983 62.5377 159.097 62.5377 159.25C62.5377 159.543 62.7294 159.69 63.1127 159.69ZM67.2294 161.15C67.0661 161.15 66.9061 161.137 66.7494 161.11C66.5961 161.083 66.4661 161.045 66.3594 160.995V160.58C66.6094 160.693 66.8994 160.75 67.2294 160.75C67.5394 160.75 67.7644 160.682 67.9044 160.545C68.0477 160.412 68.1194 160.208 68.1194 159.935V159.68C67.8994 159.943 67.5761 160.075 67.1494 160.075C66.9061 160.075 66.6877 160.022 66.4944 159.915C66.3011 159.808 66.1494 159.658 66.0394 159.465C65.9294 159.272 65.8744 159.05 65.8744 158.8C65.8744 158.547 65.9277 158.325 66.0344 158.135C66.1444 157.942 66.2944 157.792 66.4844 157.685C66.6777 157.578 66.8944 157.525 67.1344 157.525C67.3577 157.525 67.5461 157.558 67.6994 157.625C67.8561 157.688 68.0011 157.795 68.1344 157.945V157.6H68.6244V159.88C68.6244 160.29 68.5094 160.603 68.2794 160.82C68.0527 161.04 67.7027 161.15 67.2294 161.15ZM67.2494 159.675C67.4561 159.675 67.6377 159.62 67.7944 159.51C67.9544 159.4 68.0627 159.253 68.1194 159.07V158.53C68.0561 158.343 67.9461 158.197 67.7894 158.09C67.6361 157.983 67.4561 157.93 67.2494 157.93C67.0861 157.93 66.9377 157.967 66.8044 158.04C66.6744 158.11 66.5711 158.212 66.4944 158.345C66.4211 158.478 66.3844 158.63 66.3844 158.8C66.3844 158.973 66.4211 159.127 66.4944 159.26C66.5711 159.39 66.6744 159.492 66.8044 159.565C66.9377 159.638 67.0861 159.675 67.2494 159.675ZM71.5952 160.075C71.1519 160.075 70.8035 159.965 70.5502 159.745C70.3002 159.522 70.1752 159.208 70.1752 158.805C70.1752 158.412 70.2869 158.1 70.5102 157.87C70.7369 157.64 71.0585 157.525 71.4752 157.525C71.7519 157.525 71.9869 157.578 72.1802 157.685C72.3735 157.788 72.5185 157.933 72.6152 158.12C72.7152 158.303 72.7652 158.513 72.7652 158.75V159H70.6552C70.6719 159.227 70.7669 159.397 70.9402 159.51C71.1169 159.62 71.3552 159.675 71.6552 159.675C71.8085 159.675 71.9635 159.662 72.1202 159.635C72.2769 159.605 72.4152 159.567 72.5352 159.52V159.925C72.4285 159.968 72.2869 160.003 72.1102 160.03C71.9369 160.06 71.7652 160.075 71.5952 160.075ZM72.2902 158.645C72.2835 158.418 72.2085 158.243 72.0652 158.12C71.9252 157.993 71.7252 157.93 71.4652 157.93C71.2119 157.93 71.0152 157.995 70.8752 158.125C70.7352 158.255 70.6619 158.428 70.6552 158.645H72.2902ZM77.1678 157.6H77.6578V157.955C77.9044 157.668 78.2378 157.525 78.6578 157.525C78.8978 157.525 79.1128 157.578 79.3028 157.685C79.4961 157.792 79.6461 157.942 79.7528 158.135C79.8628 158.325 79.9178 158.547 79.9178 158.8C79.9178 159.05 79.8628 159.272 79.7528 159.465C79.6461 159.658 79.4978 159.808 79.3078 159.915C79.1178 160.022 78.9011 160.075 78.6578 160.075C78.4578 160.075 78.2711 160.042 78.0978 159.975C77.9244 159.908 77.7828 159.81 77.6728 159.68V161.095H77.1678V157.6ZM78.5428 159.675C78.7061 159.675 78.8528 159.64 78.9828 159.57C79.1161 159.497 79.2194 159.393 79.2928 159.26C79.3694 159.127 79.4078 158.973 79.4078 158.8C79.4078 158.627 79.3694 158.475 79.2928 158.345C79.2194 158.212 79.1161 158.11 78.9828 158.04C78.8528 157.967 78.7061 157.93 78.5428 157.93C78.3394 157.93 78.1594 157.983 78.0028 158.09C77.8494 158.197 77.7394 158.343 77.6728 158.53V159.07C77.7294 159.253 77.8378 159.4 77.9978 159.51C78.1578 159.62 78.3394 159.675 78.5428 159.675ZM82.7886 160.075C82.3452 160.075 81.9969 159.965 81.7436 159.745C81.4936 159.522 81.3686 159.208 81.3686 158.805C81.3686 158.412 81.4802 158.1 81.7036 157.87C81.9302 157.64 82.2519 157.525 82.6686 157.525C82.9452 157.525 83.1802 157.578 83.3736 157.685C83.5669 157.788 83.7119 157.933 83.8086 158.12C83.9086 158.303 83.9586 158.513 83.9586 158.75V159H81.8486C81.8652 159.227 81.9602 159.397 82.1336 159.51C82.3102 159.62 82.5486 159.675 82.8486 159.675C83.0019 159.675 83.1569 159.662 83.3136 159.635C83.4702 159.605 83.6086 159.567 83.7286 159.52V159.925C83.6219 159.968 83.4802 160.003 83.3036 160.03C83.1302 160.06 82.9586 160.075 82.7886 160.075ZM83.4836 158.645C83.4769 158.418 83.4019 158.243 83.2586 158.12C83.1186 157.993 82.9186 157.93 82.6586 157.93C82.4052 157.93 82.2086 157.995 82.0686 158.125C81.9286 158.255 81.8552 158.428 81.8486 158.645H83.4836ZM85.5105 157.6H86.0005V158.03C86.1005 157.883 86.2405 157.775 86.4205 157.705C86.6039 157.635 86.8155 157.6 87.0555 157.6V157.995C86.7989 157.995 86.5789 158.037 86.3955 158.12C86.2122 158.203 86.0855 158.335 86.0155 158.515V160H85.5105V157.6ZM91.3582 157.6H91.8482V158.03C91.9482 157.883 92.0882 157.775 92.2682 157.705C92.4515 157.635 92.6632 157.6 92.9032 157.6V157.995C92.6465 157.995 92.4265 158.037 92.2432 158.12C92.0599 158.203 91.9332 158.335 91.8632 158.515V160H91.3582V157.6ZM95.547 160.075C95.277 160.075 95.0387 160.025 94.832 159.925C94.6287 159.822 94.4687 159.675 94.352 159.485C94.2387 159.292 94.182 159.065 94.182 158.805C94.182 158.548 94.2387 158.323 94.352 158.13C94.4654 157.937 94.6254 157.788 94.832 157.685C95.0387 157.578 95.277 157.525 95.547 157.525C95.817 157.525 96.0554 157.578 96.262 157.685C96.4687 157.788 96.6287 157.937 96.742 158.13C96.8587 158.323 96.917 158.548 96.917 158.805C96.917 159.065 96.8587 159.292 96.742 159.485C96.6287 159.675 96.4687 159.822 96.262 159.925C96.0554 160.025 95.817 160.075 95.547 160.075ZM95.547 159.675C95.807 159.675 96.0137 159.595 96.167 159.435C96.3204 159.275 96.397 159.065 96.397 158.805C96.397 158.535 96.3204 158.322 96.167 158.165C96.0137 158.008 95.807 157.93 95.547 157.93C95.287 157.93 95.0804 158.008 94.927 158.165C94.7737 158.322 94.697 158.535 94.697 158.805C94.697 159.065 94.7737 159.275 94.927 159.435C95.0804 159.595 95.287 159.675 95.547 159.675ZM99.6574 160.075C99.3907 160.075 99.154 160.025 98.9474 159.925C98.7407 159.825 98.579 159.68 98.4624 159.49C98.349 159.297 98.2924 159.068 98.2924 158.805C98.2924 158.542 98.349 158.315 98.4624 158.125C98.579 157.932 98.7407 157.783 98.9474 157.68C99.1574 157.577 99.3974 157.525 99.6674 157.525C100.034 157.525 100.327 157.597 100.547 157.74V158.155C100.331 158.005 100.054 157.93 99.7174 157.93C99.444 157.93 99.2224 158.005 99.0524 158.155C98.8857 158.302 98.8024 158.518 98.8024 158.805C98.8024 159.092 98.8857 159.308 99.0524 159.455C99.219 159.602 99.4374 159.675 99.7074 159.675C100.044 159.675 100.334 159.595 100.577 159.435V159.845C100.461 159.925 100.327 159.983 100.177 160.02C100.031 160.057 99.8574 160.075 99.6574 160.075ZM102.127 156.305H102.632V160H102.127V156.305ZM102.637 158.785L103.742 157.6H104.357L103.247 158.785L104.472 160H103.857L102.637 158.785ZM106.108 160C106.042 160 105.985 159.978 105.938 159.935C105.895 159.888 105.873 159.832 105.873 159.765C105.873 159.698 105.895 159.642 105.938 159.595C105.985 159.548 106.042 159.525 106.108 159.525C106.175 159.525 106.232 159.548 106.278 159.595C106.325 159.642 106.348 159.698 106.348 159.765C106.348 159.832 106.325 159.888 106.278 159.935C106.232 159.978 106.175 160 106.108 160ZM115.347 160.075C114.987 160.075 114.667 160 114.387 159.85C114.107 159.7 113.889 159.488 113.732 159.215C113.576 158.938 113.497 158.618 113.497 158.255C113.497 157.892 113.576 157.572 113.732 157.295C113.889 157.018 114.107 156.805 114.387 156.655C114.667 156.505 114.987 156.43 115.347 156.43C115.827 156.43 116.229 156.552 116.552 156.795V157.285C116.262 157.028 115.876 156.9 115.392 156.9C115.122 156.9 114.882 156.955 114.672 157.065C114.466 157.175 114.304 157.333 114.187 157.54C114.071 157.743 114.012 157.982 114.012 158.255C114.012 158.528 114.071 158.768 114.187 158.975C114.307 159.182 114.471 159.34 114.677 159.45C114.887 159.56 115.126 159.615 115.392 159.615C115.639 159.615 115.859 159.583 116.052 159.52C116.249 159.453 116.431 159.348 116.597 159.205V159.7C116.297 159.95 115.881 160.075 115.347 160.075ZM118.934 160.075C118.644 160.075 118.411 160.002 118.234 159.855C118.061 159.705 117.974 159.503 117.974 159.25C117.974 158.983 118.057 158.778 118.224 158.635C118.394 158.488 118.634 158.415 118.944 158.415C119.274 158.415 119.554 158.482 119.784 158.615V158.49C119.784 158.3 119.726 158.16 119.609 158.07C119.496 157.977 119.316 157.93 119.069 157.93C118.922 157.93 118.779 157.945 118.639 157.975C118.502 158.002 118.379 158.04 118.269 158.09V157.68C118.369 157.633 118.499 157.597 118.659 157.57C118.819 157.54 118.974 157.525 119.124 157.525C119.521 157.525 119.814 157.613 120.004 157.79C120.197 157.963 120.294 158.205 120.294 158.515V160H119.819V159.73C119.716 159.843 119.592 159.93 119.449 159.99C119.309 160.047 119.137 160.075 118.934 160.075ZM119.059 159.69C119.219 159.69 119.364 159.658 119.494 159.595C119.624 159.532 119.721 159.443 119.784 159.33V159.005C119.567 158.865 119.326 158.795 119.059 158.795C118.866 158.795 118.721 158.833 118.624 158.91C118.531 158.983 118.484 159.097 118.484 159.25C118.484 159.543 118.676 159.69 119.059 159.69ZM121.921 157.6H122.411V157.945C122.524 157.802 122.662 157.697 122.826 157.63C122.992 157.56 123.166 157.525 123.346 157.525C123.666 157.525 123.904 157.61 124.061 157.78C124.217 157.95 124.296 158.178 124.296 158.465V160H123.791V158.515C123.791 158.125 123.604 157.93 123.231 157.93C123.071 157.93 122.921 157.968 122.781 158.045C122.644 158.118 122.526 158.232 122.426 158.385V160H121.921V157.6ZM17.325 164.305H17.83V168H17.325V164.305ZM20.3422 168.075C20.0522 168.075 19.8189 168.002 19.6422 167.855C19.4689 167.705 19.3822 167.503 19.3822 167.25C19.3822 166.983 19.4656 166.778 19.6322 166.635C19.8022 166.488 20.0422 166.415 20.3522 166.415C20.6822 166.415 20.9622 166.482 21.1922 166.615V166.49C21.1922 166.3 21.1339 166.16 21.0172 166.07C20.9039 165.977 20.7239 165.93 20.4772 165.93C20.3306 165.93 20.1872 165.945 20.0472 165.975C19.9106 166.002 19.7872 166.04 19.6772 166.09V165.68C19.7772 165.633 19.9072 165.597 20.0672 165.57C20.2272 165.54 20.3822 165.525 20.5322 165.525C20.9289 165.525 21.2222 165.613 21.4122 165.79C21.6056 165.963 21.7022 166.205 21.7022 166.515V168H21.2272V167.73C21.1239 167.843 21.0006 167.93 20.8572 167.99C20.7172 168.047 20.5456 168.075 20.3422 168.075ZM20.4672 167.69C20.6272 167.69 20.7722 167.658 20.9022 167.595C21.0322 167.532 21.1289 167.443 21.1922 167.33V167.005C20.9756 166.865 20.7339 166.795 20.4672 166.795C20.2739 166.795 20.1289 166.833 20.0322 166.91C19.9389 166.983 19.8922 167.097 19.8922 167.25C19.8922 167.543 20.0839 167.69 20.4672 167.69ZM24.2839 168.075C23.9606 168.075 23.7156 167.988 23.5489 167.815C23.3856 167.642 23.3039 167.41 23.3039 167.12V165.6H23.8089V167.1C23.8089 167.483 24.0006 167.675 24.3839 167.675C24.7206 167.675 24.9839 167.523 25.1739 167.22V165.6H25.6789V168H25.1889V167.66C25.0756 167.803 24.9406 167.908 24.7839 167.975C24.6306 168.042 24.4639 168.075 24.2839 168.075ZM27.327 165.6H27.817V165.945C27.9303 165.802 28.0686 165.697 28.232 165.63C28.3986 165.56 28.572 165.525 28.752 165.525C29.072 165.525 29.3103 165.61 29.467 165.78C29.6236 165.95 29.702 166.178 29.702 166.465V168H29.197V166.515C29.197 166.125 29.0103 165.93 28.637 165.93C28.477 165.93 28.327 165.968 28.187 166.045C28.0503 166.118 27.932 166.232 27.832 166.385V168H27.327V165.6ZM32.59 168.075C32.3233 168.075 32.0867 168.025 31.88 167.925C31.6733 167.825 31.5117 167.68 31.395 167.49C31.2817 167.297 31.225 167.068 31.225 166.805C31.225 166.542 31.2817 166.315 31.395 166.125C31.5117 165.932 31.6733 165.783 31.88 165.68C32.09 165.577 32.33 165.525 32.6 165.525C32.9667 165.525 33.26 165.597 33.48 165.74V166.155C33.2633 166.005 32.9867 165.93 32.65 165.93C32.3767 165.93 32.155 166.005 31.985 166.155C31.8183 166.302 31.735 166.518 31.735 166.805C31.735 167.092 31.8183 167.308 31.985 167.455C32.1517 167.602 32.37 167.675 32.64 167.675C32.9767 167.675 33.2667 167.595 33.51 167.435V167.845C33.3933 167.925 33.26 167.983 33.11 168.02C32.9633 168.057 32.79 168.075 32.59 168.075ZM35.0594 164.305H35.5644V165.93C35.7944 165.66 36.101 165.525 36.4844 165.525C36.8044 165.525 37.0427 165.61 37.1994 165.78C37.356 165.95 37.4344 166.178 37.4344 166.465V168H36.9294V166.515C36.9294 166.125 36.7427 165.93 36.3694 165.93C36.2094 165.93 36.0594 165.968 35.9194 166.045C35.7827 166.118 35.6644 166.232 35.5644 166.385V168H35.0594V164.305ZM42.873 168.075C42.6697 168.075 42.4747 168.058 42.288 168.025C42.1047 167.995 41.9447 167.948 41.808 167.885V167.465C42.118 167.605 42.4513 167.675 42.808 167.675C43.1147 167.675 43.3413 167.62 43.488 167.51C43.638 167.397 43.713 167.237 43.713 167.03C43.713 166.817 43.6363 166.665 43.483 166.575C43.3297 166.482 43.0963 166.435 42.783 166.435H42.373V166.025H42.773C43.023 166.025 43.2247 165.975 43.378 165.875C43.5313 165.772 43.608 165.622 43.608 165.425C43.608 165.232 43.5447 165.085 43.418 164.985C43.2913 164.885 43.108 164.835 42.868 164.835C42.6813 164.835 42.513 164.857 42.363 164.9C42.213 164.943 42.058 165.015 41.898 165.115V164.695C42.1913 164.518 42.5347 164.43 42.928 164.43C43.318 164.43 43.6147 164.517 43.818 164.69C44.0213 164.863 44.123 165.103 44.123 165.41C44.123 165.597 44.073 165.76 43.973 165.9C43.873 166.04 43.723 166.148 43.523 166.225C43.7497 166.278 43.923 166.375 44.043 166.515C44.1663 166.655 44.228 166.832 44.228 167.045C44.228 167.362 44.1197 167.613 43.903 167.8C43.6863 167.983 43.343 168.075 42.873 168.075ZM48.6297 165.6H49.1197V166.03C49.2197 165.883 49.3597 165.775 49.5397 165.705C49.723 165.635 49.9347 165.6 50.1747 165.6V165.995C49.918 165.995 49.698 166.037 49.5147 166.12C49.3314 166.203 49.2047 166.335 49.1347 166.515V168H48.6297V165.6ZM52.8185 168.075C52.5485 168.075 52.3102 168.025 52.1035 167.925C51.9002 167.822 51.7402 167.675 51.6235 167.485C51.5102 167.292 51.4535 167.065 51.4535 166.805C51.4535 166.548 51.5102 166.323 51.6235 166.13C51.7368 165.937 51.8968 165.788 52.1035 165.685C52.3102 165.578 52.5485 165.525 52.8185 165.525C53.0885 165.525 53.3268 165.578 53.5335 165.685C53.7402 165.788 53.9002 165.937 54.0135 166.13C54.1302 166.323 54.1885 166.548 54.1885 166.805C54.1885 167.065 54.1302 167.292 54.0135 167.485C53.9002 167.675 53.7402 167.822 53.5335 167.925C53.3268 168.025 53.0885 168.075 52.8185 168.075ZM52.8185 167.675C53.0785 167.675 53.2852 167.595 53.4385 167.435C53.5918 167.275 53.6685 167.065 53.6685 166.805C53.6685 166.535 53.5918 166.322 53.4385 166.165C53.2852 166.008 53.0785 165.93 52.8185 165.93C52.5585 165.93 52.3518 166.008 52.1985 166.165C52.0452 166.322 51.9685 166.535 51.9685 166.805C51.9685 167.065 52.0452 167.275 52.1985 167.435C52.3518 167.595 52.5585 167.675 52.8185 167.675ZM56.9289 168.075C56.6622 168.075 56.4255 168.025 56.2189 167.925C56.0122 167.825 55.8505 167.68 55.7339 167.49C55.6205 167.297 55.5639 167.068 55.5639 166.805C55.5639 166.542 55.6205 166.315 55.7339 166.125C55.8505 165.932 56.0122 165.783 56.2189 165.68C56.4289 165.577 56.6689 165.525 56.9389 165.525C57.3055 165.525 57.5989 165.597 57.8189 165.74V166.155C57.6022 166.005 57.3255 165.93 56.9889 165.93C56.7155 165.93 56.4939 166.005 56.3239 166.155C56.1572 166.302 56.0739 166.518 56.0739 166.805C56.0739 167.092 56.1572 167.308 56.3239 167.455C56.4905 167.602 56.7089 167.675 56.9789 167.675C57.3155 167.675 57.6055 167.595 57.8489 167.435V167.845C57.7322 167.925 57.5989 167.983 57.4489 168.02C57.3022 168.057 57.1289 168.075 56.9289 168.075ZM59.3982 164.305H59.9032V168H59.3982V164.305ZM59.9082 166.785L61.0132 165.6H61.6282L60.5182 166.785L61.7432 168H61.1282L59.9082 166.785ZM63.9541 168.075C63.7875 168.075 63.6108 168.053 63.4241 168.01C63.2375 167.97 63.0908 167.915 62.9841 167.845V167.415C63.1141 167.492 63.2641 167.555 63.4341 167.605C63.6041 167.652 63.7691 167.675 63.9291 167.675C64.1091 167.675 64.2408 167.653 64.3241 167.61C64.4075 167.567 64.4491 167.497 64.4491 167.4C64.4491 167.327 64.4291 167.268 64.3891 167.225C64.3525 167.178 64.2875 167.137 64.1941 167.1C64.1041 167.063 63.9675 167.02 63.7841 166.97C63.5875 166.913 63.4308 166.857 63.3141 166.8C63.2008 166.74 63.1141 166.665 63.0541 166.575C62.9975 166.485 62.9691 166.368 62.9691 166.225C62.9691 165.995 63.0591 165.822 63.2391 165.705C63.4225 165.585 63.6675 165.525 63.9741 165.525C64.1341 165.525 64.2908 165.54 64.4441 165.57C64.5975 165.6 64.7208 165.642 64.8141 165.695V166.115C64.7175 166.058 64.5975 166.013 64.4541 165.98C64.3141 165.947 64.1708 165.93 64.0241 165.93C63.8475 165.93 63.7125 165.952 63.6191 165.995C63.5258 166.038 63.4791 166.115 63.4791 166.225C63.4791 166.295 63.4991 166.352 63.5391 166.395C63.5791 166.438 63.6425 166.477 63.7291 166.51C63.8191 166.54 63.9608 166.58 64.1541 166.63C64.4575 166.713 64.6675 166.812 64.7841 166.925C64.9041 167.038 64.9641 167.195 64.9641 167.395C64.9641 167.602 64.8791 167.767 64.7091 167.89C64.5391 168.013 64.2875 168.075 63.9541 168.075ZM70.856 168.075C70.6393 168.075 70.451 168.042 70.291 167.975C70.1343 167.905 69.9893 167.797 69.856 167.65V168H69.366V164.305H69.871V165.92C69.981 165.79 70.1227 165.692 70.296 165.625C70.4693 165.558 70.656 165.525 70.856 165.525C71.096 165.525 71.311 165.58 71.501 165.69C71.6943 165.797 71.8443 165.947 71.951 166.14C72.061 166.333 72.116 166.555 72.116 166.805C72.116 167.058 72.061 167.282 71.951 167.475C71.8443 167.665 71.6943 167.813 71.501 167.92C71.311 168.023 71.096 168.075 70.856 168.075ZM70.741 167.675C70.9043 167.675 71.051 167.64 71.181 167.57C71.3143 167.497 71.4177 167.393 71.491 167.26C71.5677 167.127 71.606 166.975 71.606 166.805C71.606 166.635 71.5677 166.483 71.491 166.35C71.4177 166.217 71.3143 166.113 71.181 166.04C71.051 165.967 70.9043 165.93 70.741 165.93C70.5377 165.93 70.356 165.985 70.196 166.095C70.036 166.205 69.9277 166.352 69.871 166.535V167.075C69.9343 167.258 70.0427 167.405 70.196 167.515C70.3527 167.622 70.5343 167.675 70.741 167.675ZM74.9868 168.075C74.5435 168.075 74.1951 167.965 73.9418 167.745C73.6918 167.522 73.5668 167.208 73.5668 166.805C73.5668 166.412 73.6785 166.1 73.9018 165.87C74.1285 165.64 74.4501 165.525 74.8668 165.525C75.1435 165.525 75.3785 165.578 75.5718 165.685C75.7651 165.788 75.9101 165.933 76.0068 166.12C76.1068 166.303 76.1568 166.513 76.1568 166.75V167H74.0468C74.0635 167.227 74.1585 167.397 74.3318 167.51C74.5085 167.62 74.7468 167.675 75.0468 167.675C75.2001 167.675 75.3551 167.662 75.5118 167.635C75.6685 167.605 75.8068 167.567 75.9268 167.52V167.925C75.8201 167.968 75.6785 168.003 75.5018 168.03C75.3285 168.06 75.1568 168.075 74.9868 168.075ZM75.6818 166.645C75.6751 166.418 75.6001 166.243 75.4568 166.12C75.3168 165.993 75.1168 165.93 74.8568 165.93C74.6035 165.93 74.4068 165.995 74.2668 166.125C74.1268 166.255 74.0535 166.428 74.0468 166.645H75.6818ZM77.8738 165.99H77.5088V165.6H77.8738V165.13C77.8738 164.853 77.9521 164.643 78.1088 164.5C78.2655 164.353 78.4755 164.28 78.7388 164.28C78.8755 164.28 79.0038 164.3 79.1238 164.34V164.76C79.0305 164.717 78.9338 164.695 78.8338 164.695C78.6771 164.695 78.5621 164.733 78.4888 164.81C78.4155 164.883 78.3788 165 78.3788 165.16V165.6H78.9788V165.99H78.3788V168H77.8738V165.99ZM81.5607 168.075C81.2907 168.075 81.0524 168.025 80.8457 167.925C80.6424 167.822 80.4824 167.675 80.3657 167.485C80.2524 167.292 80.1957 167.065 80.1957 166.805C80.1957 166.548 80.2524 166.323 80.3657 166.13C80.479 165.937 80.639 165.788 80.8457 165.685C81.0524 165.578 81.2907 165.525 81.5607 165.525C81.8307 165.525 82.069 165.578 82.2757 165.685C82.4824 165.788 82.6424 165.937 82.7557 166.13C82.8724 166.323 82.9307 166.548 82.9307 166.805C82.9307 167.065 82.8724 167.292 82.7557 167.485C82.6424 167.675 82.4824 167.822 82.2757 167.925C82.069 168.025 81.8307 168.075 81.5607 168.075ZM81.5607 167.675C81.8207 167.675 82.0274 167.595 82.1807 167.435C82.334 167.275 82.4107 167.065 82.4107 166.805C82.4107 166.535 82.334 166.322 82.1807 166.165C82.0274 166.008 81.8207 165.93 81.5607 165.93C81.3007 165.93 81.094 166.008 80.9407 166.165C80.7874 166.322 80.7107 166.535 80.7107 166.805C80.7107 167.065 80.7874 167.275 80.9407 167.435C81.094 167.595 81.3007 167.675 81.5607 167.675ZM84.4793 165.6H84.9693V166.03C85.0693 165.883 85.2093 165.775 85.3893 165.705C85.5726 165.635 85.7843 165.6 86.0243 165.6V165.995C85.7676 165.995 85.5476 166.037 85.3643 166.12C85.181 166.203 85.0543 166.335 84.9843 166.515V168H84.4793V165.6ZM88.645 168.075C88.2017 168.075 87.8533 167.965 87.6 167.745C87.35 167.522 87.225 167.208 87.225 166.805C87.225 166.412 87.3367 166.1 87.56 165.87C87.7867 165.64 88.1083 165.525 88.525 165.525C88.8017 165.525 89.0367 165.578 89.23 165.685C89.4233 165.788 89.5683 165.933 89.665 166.12C89.765 166.303 89.815 166.513 89.815 166.75V167H87.705C87.7217 167.227 87.8167 167.397 87.99 167.51C88.1667 167.62 88.405 167.675 88.705 167.675C88.8583 167.675 89.0133 167.662 89.17 167.635C89.3267 167.605 89.465 167.567 89.585 167.52V167.925C89.4783 167.968 89.3367 168.003 89.16 168.03C88.9867 168.06 88.815 168.075 88.645 168.075ZM89.34 166.645C89.3333 166.418 89.2583 166.243 89.115 166.12C88.975 165.993 88.775 165.93 88.515 165.93C88.2617 165.93 88.065 165.995 87.925 166.125C87.785 166.255 87.7117 166.428 87.705 166.645H89.34ZM95.7076 168.075C95.4909 168.075 95.3026 168.042 95.1426 167.975C94.9859 167.905 94.8409 167.797 94.7076 167.65V168H94.2176V164.305H94.7226V165.92C94.8326 165.79 94.9742 165.692 95.1476 165.625C95.3209 165.558 95.5076 165.525 95.7076 165.525C95.9476 165.525 96.1626 165.58 96.3526 165.69C96.5459 165.797 96.6959 165.947 96.8026 166.14C96.9126 166.333 96.9676 166.555 96.9676 166.805C96.9676 167.058 96.9126 167.282 96.8026 167.475C96.6959 167.665 96.5459 167.813 96.3526 167.92C96.1626 168.023 95.9476 168.075 95.7076 168.075ZM95.5926 167.675C95.7559 167.675 95.9026 167.64 96.0326 167.57C96.1659 167.497 96.2692 167.393 96.3426 167.26C96.4192 167.127 96.4576 166.975 96.4576 166.805C96.4576 166.635 96.4192 166.483 96.3426 166.35C96.2692 166.217 96.1659 166.113 96.0326 166.04C95.9026 165.967 95.7559 165.93 95.5926 165.93C95.3892 165.93 95.2076 165.985 95.0476 166.095C94.8876 166.205 94.7792 166.352 94.7226 166.535V167.075C94.7859 167.258 94.8942 167.405 95.0476 167.515C95.2042 167.622 95.3859 167.675 95.5926 167.675ZM98.5184 165.6H99.0084V166.03C99.1084 165.883 99.2484 165.775 99.4284 165.705C99.6117 165.635 99.8234 165.6 100.063 165.6V165.995C99.8067 165.995 99.5867 166.037 99.4034 166.12C99.22 166.203 99.0934 166.335 99.0234 166.515V168H98.5184V165.6ZM102.684 168.075C102.241 168.075 101.892 167.965 101.639 167.745C101.389 167.522 101.264 167.208 101.264 166.805C101.264 166.412 101.376 166.1 101.599 165.87C101.826 165.64 102.147 165.525 102.564 165.525C102.841 165.525 103.076 165.578 103.269 165.685C103.462 165.788 103.607 165.933 103.704 166.12C103.804 166.303 103.854 166.513 103.854 166.75V167H101.744C101.761 167.227 101.856 167.397 102.029 167.51C102.206 167.62 102.444 167.675 102.744 167.675C102.897 167.675 103.052 167.662 103.209 167.635C103.366 167.605 103.504 167.567 103.624 167.52V167.925C103.517 167.968 103.376 168.003 103.199 168.03C103.026 168.06 102.854 168.075 102.684 168.075ZM103.379 166.645C103.372 166.418 103.297 166.243 103.154 166.12C103.014 165.993 102.814 165.93 102.554 165.93C102.301 165.93 102.104 165.995 101.964 166.125C101.824 166.255 101.751 166.428 101.744 166.645H103.379ZM106.266 168.075C105.976 168.075 105.743 168.002 105.566 167.855C105.393 167.705 105.306 167.503 105.306 167.25C105.306 166.983 105.389 166.778 105.556 166.635C105.726 166.488 105.966 166.415 106.276 166.415C106.606 166.415 106.886 166.482 107.116 166.615V166.49C107.116 166.3 107.058 166.16 106.941 166.07C106.828 165.977 106.648 165.93 106.401 165.93C106.254 165.93 106.111 165.945 105.971 165.975C105.834 166.002 105.711 166.04 105.601 166.09V165.68C105.701 165.633 105.831 165.597 105.991 165.57C106.151 165.54 106.306 165.525 106.456 165.525C106.853 165.525 107.146 165.613 107.336 165.79C107.529 165.963 107.626 166.205 107.626 166.515V168H107.151V167.73C107.048 167.843 106.924 167.93 106.781 167.99C106.641 168.047 106.469 168.075 106.266 168.075ZM106.391 167.69C106.551 167.69 106.696 167.658 106.826 167.595C106.956 167.532 107.053 167.443 107.116 167.33V167.005C106.899 166.865 106.658 166.795 106.391 166.795C106.198 166.795 106.053 166.833 105.956 166.91C105.863 166.983 105.816 167.097 105.816 167.25C105.816 167.543 106.008 167.69 106.391 167.69ZM109.253 164.305H109.758V168H109.253V164.305ZM109.763 166.785L110.868 165.6H111.483L110.373 166.785L111.598 168H110.983L109.763 166.785ZM113.394 165.13C113.311 165.13 113.241 165.102 113.184 165.045C113.128 164.988 113.099 164.918 113.099 164.835C113.099 164.752 113.128 164.682 113.184 164.625C113.241 164.568 113.311 164.54 113.394 164.54C113.481 164.54 113.553 164.568 113.609 164.625C113.669 164.682 113.699 164.752 113.699 164.835C113.699 164.918 113.669 164.988 113.609 165.045C113.553 165.102 113.481 165.13 113.394 165.13ZM113.139 165.6H113.654V168H113.139V165.6ZM115.349 165.6H115.839V165.945C115.953 165.802 116.091 165.697 116.254 165.63C116.421 165.56 116.594 165.525 116.774 165.525C117.094 165.525 117.333 165.61 117.489 165.78C117.646 165.95 117.724 166.178 117.724 166.465V168H117.219V166.515C117.219 166.125 117.033 165.93 116.659 165.93C116.499 165.93 116.349 165.968 116.209 166.045C116.073 166.118 115.954 166.232 115.854 166.385V168H115.349V165.6ZM120.602 169.15C120.439 169.15 120.279 169.137 120.122 169.11C119.969 169.083 119.839 169.045 119.732 168.995V168.58C119.982 168.693 120.272 168.75 120.602 168.75C120.912 168.75 121.137 168.682 121.277 168.545C121.421 168.412 121.492 168.208 121.492 167.935V167.68C121.272 167.943 120.949 168.075 120.522 168.075C120.279 168.075 120.061 168.022 119.867 167.915C119.674 167.808 119.522 167.658 119.412 167.465C119.302 167.272 119.247 167.05 119.247 166.8C119.247 166.547 119.301 166.325 119.407 166.135C119.517 165.942 119.667 165.792 119.857 165.685C120.051 165.578 120.267 165.525 120.507 165.525C120.731 165.525 120.919 165.558 121.072 165.625C121.229 165.688 121.374 165.795 121.507 165.945V165.6H121.997V167.88C121.997 168.29 121.882 168.603 121.652 168.82C121.426 169.04 121.076 169.15 120.602 169.15ZM120.622 167.675C120.829 167.675 121.011 167.62 121.167 167.51C121.327 167.4 121.436 167.253 121.492 167.07V166.53C121.429 166.343 121.319 166.197 121.162 166.09C121.009 165.983 120.829 165.93 120.622 165.93C120.459 165.93 120.311 165.967 120.177 166.04C120.047 166.11 119.944 166.212 119.867 166.345C119.794 166.478 119.757 166.63 119.757 166.8C119.757 166.973 119.794 167.127 119.867 167.26C119.944 167.39 120.047 167.492 120.177 167.565C120.311 167.638 120.459 167.675 120.622 167.675ZM123.783 168C123.717 168 123.66 167.978 123.613 167.935C123.57 167.888 123.548 167.832 123.548 167.765C123.548 167.698 123.57 167.642 123.613 167.595C123.66 167.548 123.717 167.525 123.783 167.525C123.85 167.525 123.907 167.548 123.953 167.595C124 167.642 124.023 167.698 124.023 167.765C124.023 167.832 124 167.888 123.953 167.935C123.907 167.978 123.85 168 123.783 168Z" fill="black"/>
<path d="M38.0834 159.665L38.8384 158.94C38.9051 158.873 38.9984 158.787 39.1184 158.68C39.3084 158.507 39.4534 158.367 39.5534 158.26C39.6534 158.153 39.7351 158.04 39.7984 157.92C39.8617 157.797 39.8934 157.665 39.8934 157.525C39.8934 157.318 39.8334 157.162 39.7134 157.055C39.5934 156.945 39.4184 156.89 39.1884 156.89C39.0317 156.89 38.8701 156.918 38.7034 156.975C38.5401 157.032 38.3867 157.115 38.2434 157.225V156.735C38.5234 156.532 38.8651 156.43 39.2684 156.43C39.6284 156.43 39.9084 156.527 40.1084 156.72C40.3084 156.91 40.4084 157.17 40.4084 157.5C40.4084 157.66 40.3734 157.813 40.3034 157.96C40.2367 158.107 40.1417 158.252 40.0184 158.395C39.8951 158.535 39.7284 158.707 39.5184 158.91L38.8384 159.575H40.5384V160H38.0834V159.665ZM42.9637 160.075C42.7803 160.075 42.602 160.055 42.4287 160.015C42.2553 159.978 42.1087 159.927 41.9887 159.86V159.405C42.1253 159.488 42.2803 159.553 42.4537 159.6C42.627 159.643 42.792 159.665 42.9487 159.665C43.252 159.665 43.482 159.602 43.6387 159.475C43.7953 159.345 43.8737 159.155 43.8737 158.905C43.8737 158.668 43.8003 158.488 43.6537 158.365C43.5103 158.238 43.2953 158.175 43.0087 158.175C42.8887 158.175 42.762 158.187 42.6287 158.21C42.4987 158.233 42.382 158.265 42.2787 158.305L42.0537 158.175L42.1837 156.505H44.1387V156.935H42.6487L42.5737 157.835C42.7803 157.792 42.9903 157.77 43.2037 157.77C43.5737 157.77 43.8637 157.873 44.0737 158.08C44.2837 158.287 44.3887 158.562 44.3887 158.905C44.3887 159.282 44.2703 159.572 44.0337 159.775C43.797 159.975 43.4403 160.075 42.9637 160.075Z" fill="#877900"/>
<rect x="12.25" y="143.25" width="125.5" height="46.5" stroke="#6C6C6C" stroke-width="0.5"/>
<path d="M12.975 27.8H14.445V29.09C14.745 28.65 15.165 28.325 15.705 28.115C16.255 27.905 16.89 27.8 17.61 27.8V28.985C16.84 28.985 16.18 29.11 15.63 29.36C15.08 29.61 14.7 30.005 14.49 30.545V35H12.975V27.8ZM24.7915 35.225C23.9815 35.225 23.2665 35.075 22.6465 34.775C22.0365 34.465 21.5565 34.025 21.2065 33.455C20.8665 32.875 20.6965 32.195 20.6965 31.415C20.6965 30.645 20.8665 29.97 21.2065 29.39C21.5465 28.81 22.0265 28.365 22.6465 28.055C23.2665 27.735 23.9815 27.575 24.7915 27.575C25.6015 27.575 26.3165 27.735 26.9365 28.055C27.5565 28.365 28.0365 28.81 28.3765 29.39C28.7265 29.97 28.9015 30.645 28.9015 31.415C28.9015 32.195 28.7265 32.875 28.3765 33.455C28.0365 34.025 27.5565 34.465 26.9365 34.775C26.3165 35.075 25.6015 35.225 24.7915 35.225ZM24.7915 34.025C25.5715 34.025 26.1915 33.785 26.6515 33.305C27.1115 32.825 27.3415 32.195 27.3415 31.415C27.3415 30.605 27.1115 29.965 26.6515 29.495C26.1915 29.025 25.5715 28.79 24.7915 28.79C24.0115 28.79 23.3915 29.025 22.9315 29.495C22.4715 29.965 22.2415 30.605 22.2415 31.415C22.2415 32.195 22.4715 32.825 22.9315 33.305C23.3915 33.785 24.0115 34.025 24.7915 34.025ZM36.3725 35.225C35.5725 35.225 34.8625 35.075 34.2425 34.775C33.6225 34.475 33.1375 34.04 32.7875 33.47C32.4475 32.89 32.2775 32.205 32.2775 31.415C32.2775 30.625 32.4475 29.945 32.7875 29.375C33.1375 28.795 33.6225 28.35 34.2425 28.04C34.8725 27.73 35.5925 27.575 36.4025 27.575C37.5025 27.575 38.3825 27.79 39.0425 28.22V29.465C38.3925 29.015 37.5625 28.79 36.5525 28.79C35.7325 28.79 35.0675 29.015 34.5575 29.465C34.0575 29.905 33.8075 30.555 33.8075 31.415C33.8075 32.275 34.0575 32.925 34.5575 33.365C35.0575 33.805 35.7125 34.025 36.5225 34.025C37.5325 34.025 38.4025 33.785 39.1325 33.305V34.535C38.7825 34.775 38.3825 34.95 37.9325 35.06C37.4925 35.17 36.9725 35.225 36.3725 35.225ZM43.0307 23.915H44.5457V35H43.0307V23.915ZM44.5607 31.355L47.8757 27.8H49.7207L46.3907 31.355L50.0657 35H48.2207L44.5607 31.355ZM65.4175 35.225C64.6175 35.225 63.9075 35.075 63.2875 34.775C62.6675 34.475 62.1825 34.04 61.8325 33.47C61.4925 32.89 61.3225 32.205 61.3225 31.415C61.3225 30.625 61.4925 29.945 61.8325 29.375C62.1825 28.795 62.6675 28.35 63.2875 28.04C63.9175 27.73 64.6375 27.575 65.4475 27.575C66.5475 27.575 67.4275 27.79 68.0875 28.22V29.465C67.4375 29.015 66.6075 28.79 65.5975 28.79C64.7775 28.79 64.1125 29.015 63.6025 29.465C63.1025 29.905 62.8525 30.555 62.8525 31.415C62.8525 32.275 63.1025 32.925 63.6025 33.365C64.1025 33.805 64.7575 34.025 65.5675 34.025C66.5775 34.025 67.4475 33.785 68.1775 33.305V34.535C67.8275 34.775 67.4275 34.95 66.9775 35.06C66.5375 35.17 66.0175 35.225 65.4175 35.225ZM74.5823 35.225C73.7123 35.225 73.0123 35.005 72.4823 34.565C71.9623 34.115 71.7023 33.51 71.7023 32.75C71.7023 31.95 71.9523 31.335 72.4523 30.905C72.9623 30.465 73.6823 30.245 74.6123 30.245C75.6023 30.245 76.4423 30.445 77.1323 30.845V30.47C77.1323 29.9 76.9573 29.48 76.6073 29.21C76.2673 28.93 75.7273 28.79 74.9873 28.79C74.5473 28.79 74.1173 28.835 73.6973 28.925C73.2873 29.005 72.9173 29.12 72.5873 29.27V28.04C72.8873 27.9 73.2773 27.79 73.7573 27.71C74.2373 27.62 74.7023 27.575 75.1523 27.575C76.3423 27.575 77.2223 27.84 77.7923 28.37C78.3723 28.89 78.6623 29.615 78.6623 30.545V35H77.2373V34.19C76.9273 34.53 76.5573 34.79 76.1273 34.97C75.7073 35.14 75.1923 35.225 74.5823 35.225ZM74.9573 34.07C75.4373 34.07 75.8723 33.975 76.2623 33.785C76.6523 33.595 76.9423 33.33 77.1323 32.99V32.015C76.4823 31.595 75.7573 31.385 74.9573 31.385C74.3773 31.385 73.9423 31.5 73.6523 31.73C73.3723 31.95 73.2323 32.29 73.2323 32.75C73.2323 33.63 73.8073 34.07 74.9573 34.07ZM82.7924 27.8H84.2624V28.835C84.6024 28.405 85.0174 28.09 85.5074 27.89C86.0074 27.68 86.5274 27.575 87.0674 27.575C88.0274 27.575 88.7424 27.83 89.2124 28.34C89.6824 28.85 89.9174 29.535 89.9174 30.395V35H88.4024V30.545C88.4024 29.375 87.8424 28.79 86.7224 28.79C86.2424 28.79 85.7924 28.905 85.3724 29.135C84.9624 29.355 84.6074 29.695 84.3074 30.155V35H82.7924V27.8ZM94.0365 27.8H95.5065V28.835C95.8465 28.405 96.2615 28.09 96.7515 27.89C97.2515 27.68 97.7715 27.575 98.3115 27.575C99.2715 27.575 99.9865 27.83 100.457 28.34C100.927 28.85 101.162 29.535 101.162 30.395V35H99.6465V30.545C99.6465 29.375 99.0865 28.79 97.9665 28.79C97.4865 28.79 97.0365 28.905 96.6165 29.135C96.2065 29.355 95.8515 29.695 95.5515 30.155V35H94.0365V27.8ZM108.856 35.225C108.046 35.225 107.331 35.075 106.711 34.775C106.101 34.465 105.621 34.025 105.271 33.455C104.931 32.875 104.761 32.195 104.761 31.415C104.761 30.645 104.931 29.97 105.271 29.39C105.611 28.81 106.091 28.365 106.711 28.055C107.331 27.735 108.046 27.575 108.856 27.575C109.666 27.575 110.381 27.735 111.001 28.055C111.621 28.365 112.101 28.81 112.441 29.39C112.791 29.97 112.966 30.645 112.966 31.415C112.966 32.195 112.791 32.875 112.441 33.455C112.101 34.025 111.621 34.465 111.001 34.775C110.381 35.075 109.666 35.225 108.856 35.225ZM108.856 34.025C109.636 34.025 110.256 33.785 110.716 33.305C111.176 32.825 111.406 32.195 111.406 31.415C111.406 30.605 111.176 29.965 110.716 29.495C110.256 29.025 109.636 28.79 108.856 28.79C108.076 28.79 107.456 29.025 106.996 29.495C106.536 29.965 106.306 30.605 106.306 31.415C106.306 32.195 106.536 32.825 106.996 33.305C107.456 33.785 108.076 34.025 108.856 34.025ZM116.862 27.8H118.332V28.835C118.672 28.405 119.087 28.09 119.577 27.89C120.077 27.68 120.597 27.575 121.137 27.575C122.097 27.575 122.812 27.83 123.282 28.34C123.752 28.85 123.987 29.535 123.987 30.395V35H122.472V30.545C122.472 29.375 121.912 28.79 120.792 28.79C120.312 28.79 119.862 28.905 119.442 29.135C119.032 29.355 118.677 29.695 118.377 30.155V35H116.862V27.8Z" fill="black"/>
<path d="M12.8691 19.0381L17.1807 17.1875V16.4746L12.8691 14.6289V15.5615L16.0283 16.7334L16.3213 16.8262L16.0283 16.9092L12.8691 18.1006V19.0381ZM20.875 19.0381L25.1865 17.1875V16.4746L20.875 14.6289V15.5615L24.0342 16.7334L24.3271 16.8262L24.0342 16.9092L20.875 18.1006V19.0381ZM36.7012 17.3145V17.417C36.7012 17.7946 36.75 18.1478 36.8477 18.4766C36.9453 18.8021 37.0853 19.0853 37.2676 19.3262C37.4466 19.5671 37.6663 19.7559 37.9268 19.8926C38.1872 20.0293 38.4785 20.0977 38.8008 20.0977C38.9928 20.0977 39.1719 20.0765 39.3379 20.0342C39.5039 19.9951 39.6553 19.9382 39.792 19.8633C39.8799 19.8145 39.9613 19.7575 40.0361 19.6924C40.1143 19.6273 40.1875 19.5557 40.2559 19.4775V19.9316C40.2559 20.1595 40.2233 20.3613 40.1582 20.5371C40.0931 20.7129 40.0003 20.8594 39.8799 20.9766C39.7562 21.097 39.6081 21.1882 39.4355 21.25C39.263 21.3118 39.0693 21.3428 38.8545 21.3428C38.734 21.3428 38.6136 21.3298 38.4932 21.3037C38.3727 21.2809 38.2523 21.2419 38.1318 21.1865C38.0114 21.1312 37.8926 21.0563 37.7754 20.9619C37.6582 20.8708 37.5443 20.7585 37.4336 20.625L36.9648 21.167C37.0853 21.3395 37.2285 21.4844 37.3945 21.6016C37.5638 21.7188 37.7396 21.8115 37.9219 21.8799C38.1009 21.9515 38.2783 22.002 38.4541 22.0312C38.6299 22.0638 38.7861 22.0801 38.9229 22.0801C39.2549 22.0801 39.5576 22.0312 39.8311 21.9336C40.1045 21.8359 40.3405 21.6927 40.5391 21.5039C40.7344 21.3151 40.8857 21.0856 40.9932 20.8154C41.1038 20.5452 41.1592 20.236 41.1592 19.8877V14.7168H40.3389L40.2949 15.293C40.2331 15.2148 40.1663 15.1432 40.0947 15.0781C40.0264 15.013 39.9531 14.9561 39.875 14.9072C39.7318 14.8128 39.5706 14.7412 39.3916 14.6924C39.2158 14.6436 39.0221 14.6191 38.8105 14.6191C38.4818 14.6191 38.1872 14.6859 37.9268 14.8193C37.6663 14.9528 37.445 15.1383 37.2627 15.376C37.0804 15.6136 36.9404 15.8984 36.8428 16.2305C36.7484 16.5592 36.7012 16.9206 36.7012 17.3145ZM37.6045 17.417V17.3145C37.6045 17.0573 37.6305 16.8132 37.6826 16.582C37.738 16.3477 37.8242 16.141 37.9414 15.9619C38.0553 15.7861 38.2018 15.6462 38.3809 15.542C38.5632 15.4378 38.7812 15.3857 39.0352 15.3857C39.1849 15.3857 39.3216 15.4053 39.4453 15.4443C39.569 15.4801 39.6813 15.5306 39.7822 15.5957C39.8831 15.6641 39.9727 15.7438 40.0508 15.835C40.1289 15.9261 40.1973 16.027 40.2559 16.1377V18.5596C40.1973 18.6735 40.1289 18.7777 40.0508 18.8721C39.9727 18.9665 39.8848 19.0479 39.7871 19.1162C39.6862 19.1846 39.5723 19.2383 39.4453 19.2773C39.3216 19.3132 39.1816 19.3311 39.0254 19.3311C38.7747 19.3311 38.5599 19.2806 38.3809 19.1797C38.2018 19.0755 38.0553 18.9355 37.9414 18.7598C37.8242 18.584 37.738 18.3805 37.6826 18.1494C37.6305 17.9183 37.6045 17.6742 37.6045 17.417ZM47.207 20.0977C47.7214 20.0977 48.1527 19.9951 48.501 19.79C48.8525 19.5817 49.1162 19.3441 49.292 19.0771L48.7402 18.6475C48.5742 18.8623 48.3659 19.0348 48.1152 19.165C47.8646 19.2952 47.5781 19.3604 47.2559 19.3604C47.0117 19.3604 46.7887 19.3148 46.5869 19.2236C46.3851 19.1325 46.2126 19.0072 46.0693 18.8477C45.9294 18.6979 45.8187 18.5254 45.7373 18.3301C45.6592 18.1348 45.6087 17.9085 45.5859 17.6514V17.6172H49.3604V17.2119C49.3604 16.8441 49.3132 16.5023 49.2188 16.1865C49.1276 15.8708 48.9876 15.5957 48.7988 15.3613C48.61 15.1302 48.3724 14.9495 48.0859 14.8193C47.8027 14.6859 47.4707 14.6191 47.0898 14.6191C46.7871 14.6191 46.4909 14.681 46.2012 14.8047C45.9147 14.9284 45.6592 15.1058 45.4346 15.3369C45.2067 15.5713 45.0244 15.8577 44.8877 16.1963C44.751 16.5316 44.6826 16.9124 44.6826 17.3389V17.5439C44.6826 17.9118 44.7445 18.252 44.8682 18.5645C44.9919 18.877 45.1644 19.1471 45.3857 19.375C45.6071 19.6029 45.8724 19.7803 46.1816 19.9072C46.4941 20.0342 46.8359 20.0977 47.207 20.0977ZM47.0898 15.3613C47.321 15.3613 47.5195 15.4036 47.6855 15.4883C47.8548 15.5729 47.9948 15.6836 48.1055 15.8203C48.2161 15.957 48.3024 16.1198 48.3643 16.3086C48.4261 16.4941 48.457 16.6683 48.457 16.8311V16.875H45.6152C45.651 16.6309 45.7129 16.416 45.8008 16.2305C45.8919 16.0417 46.0026 15.8822 46.1328 15.752C46.263 15.625 46.4095 15.529 46.5723 15.4639C46.735 15.3955 46.9076 15.3613 47.0898 15.3613ZM56.3506 20H57.293V19.9219C57.2344 19.7754 57.1888 19.6045 57.1562 19.4092C57.1237 19.2106 57.1074 19.0234 57.1074 18.8477V16.3916C57.1074 16.0954 57.0537 15.8366 56.9463 15.6152C56.8389 15.3939 56.6924 15.2083 56.5068 15.0586C56.318 14.9121 56.0951 14.8031 55.8379 14.7314C55.5807 14.6566 55.3024 14.6191 55.0029 14.6191C54.6742 14.6191 54.3796 14.6647 54.1191 14.7559C53.862 14.847 53.6439 14.9658 53.4648 15.1123C53.2826 15.262 53.1426 15.4297 53.0449 15.6152C52.9505 15.8008 52.9017 15.9896 52.8984 16.1816H53.8066C53.8066 16.071 53.8327 15.9652 53.8848 15.8643C53.9401 15.7601 54.0166 15.6706 54.1143 15.5957C54.2119 15.5208 54.3307 15.4606 54.4707 15.415C54.6139 15.3695 54.7751 15.3467 54.9541 15.3467C55.1462 15.3467 55.3187 15.3711 55.4717 15.4199C55.6279 15.4688 55.7598 15.5371 55.8672 15.625C55.9746 15.7161 56.0576 15.8252 56.1162 15.9521C56.1748 16.0791 56.2041 16.2223 56.2041 16.3818V16.7969H55.2178C54.8499 16.7969 54.5163 16.8327 54.2168 16.9043C53.9206 16.9759 53.6667 17.0833 53.4551 17.2266C53.2435 17.373 53.0791 17.5553 52.9619 17.7734C52.848 17.9915 52.791 18.2454 52.791 18.5352C52.791 18.7565 52.8333 18.9632 52.918 19.1553C53.0059 19.3441 53.1296 19.5068 53.2891 19.6436C53.4453 19.7835 53.6357 19.8942 53.8604 19.9756C54.0882 20.057 54.3421 20.0977 54.6221 20.0977C54.7946 20.0977 54.9574 20.0798 55.1104 20.0439C55.2633 20.0081 55.4082 19.9593 55.5449 19.8975C55.6784 19.8356 55.8005 19.764 55.9111 19.6826C56.0251 19.6012 56.1276 19.515 56.2188 19.4238C56.2285 19.5345 56.2432 19.6419 56.2627 19.7461C56.2855 19.847 56.3148 19.9316 56.3506 20ZM54.7539 19.3115C54.5781 19.3115 54.4235 19.2887 54.29 19.2432C54.1566 19.1976 54.0459 19.1341 53.958 19.0527C53.8701 18.9746 53.8034 18.8802 53.7578 18.7695C53.7155 18.6589 53.6943 18.5384 53.6943 18.4082C53.6943 18.2715 53.7188 18.1494 53.7676 18.042C53.8197 17.9346 53.8945 17.8418 53.9922 17.7637C54.1289 17.653 54.3128 17.5716 54.5439 17.5195C54.7783 17.4642 55.0518 17.4365 55.3643 17.4365H56.2041V18.5059C56.152 18.61 56.0804 18.7109 55.9893 18.8086C55.8981 18.903 55.7907 18.9876 55.667 19.0625C55.54 19.1374 55.4001 19.1976 55.2471 19.2432C55.0941 19.2887 54.9297 19.3115 54.7539 19.3115ZM64.3467 14.6191C63.9626 14.6191 63.6191 14.7038 63.3164 14.873C63.0169 15.0391 62.7598 15.2669 62.5449 15.5566L62.54 15.4248L62.501 14.7168H61.6416V20H62.5498V16.6113C62.6084 16.4486 62.6816 16.3021 62.7695 16.1719C62.8607 16.0384 62.9665 15.9261 63.0869 15.835C63.2204 15.7308 63.3766 15.6527 63.5557 15.6006C63.7347 15.5452 63.9349 15.5176 64.1562 15.5176C64.3288 15.5176 64.4932 15.5273 64.6494 15.5469C64.8089 15.5632 64.9766 15.5908 65.1523 15.6299L65.2744 14.7461C65.1833 14.707 65.0465 14.6761 64.8643 14.6533C64.6852 14.6305 64.5127 14.6191 64.3467 14.6191Z" fill="#707070"/>
<path d="M83.6957 70L77 73.5897L80.6522 87.9487L83.6957 90H91L88.5652 84.359L90.3913 79.2308L84.913 74.1026L83.6957 70Z" fill="#FFA438"/>
<path d="M24 97.8396L30.4151 107.462L44.5283 108.745L82.3774 93.3491L84.9434 79.8774L77.2453 68.3302L30.4151 84.3679L24 97.8396Z" fill="#818181"/>
<path d="M27.8491 117.726L36.1887 123.5H45.1698L52.2264 111.953L48.3774 100.406L34.9057 97.1981L25.9245 106.179L27.8491 117.726Z" fill="#C67700"/>
<path d="M104.917 76.8519L120.889 80L126 68.6667L113.861 63L103 66.1481L104.917 76.8519Z" fill="#414141"/>
<path d="M131.21 17V16.2627H127.641L129.55 14.1924C129.729 13.9971 129.898 13.8018 130.058 13.6064C130.22 13.4079 130.364 13.2077 130.487 13.0059C130.608 12.804 130.704 12.6006 130.775 12.3955C130.847 12.1872 130.883 11.9772 130.883 11.7656C130.883 11.4824 130.832 11.2204 130.731 10.9795C130.634 10.7386 130.492 10.5303 130.307 10.3545C130.121 10.1787 129.893 10.042 129.623 9.94434C129.356 9.84342 129.055 9.79297 128.72 9.79297C128.355 9.79297 128.03 9.85156 127.743 9.96875C127.46 10.0859 127.221 10.2438 127.025 10.4424C126.827 10.641 126.675 10.8737 126.571 11.1406C126.467 11.4043 126.415 11.6859 126.415 11.9854H127.323C127.323 11.764 127.351 11.5638 127.406 11.3848C127.465 11.2057 127.553 11.0527 127.67 10.9258C127.784 10.8021 127.927 10.7061 128.1 10.6377C128.275 10.5693 128.482 10.5352 128.72 10.5352C128.915 10.5352 129.089 10.5693 129.242 10.6377C129.398 10.7028 129.532 10.7923 129.643 10.9062C129.75 11.0202 129.831 11.1553 129.887 11.3115C129.945 11.4645 129.975 11.6289 129.975 11.8047C129.975 11.9479 129.957 12.0879 129.921 12.2246C129.885 12.3581 129.825 12.4997 129.74 12.6494C129.656 12.8024 129.543 12.9684 129.403 13.1475C129.263 13.3265 129.089 13.5316 128.881 13.7627L126.552 16.3506V17H131.21ZM133.178 13.4355L133.9 13.6211C133.982 13.5495 134.06 13.486 134.135 13.4307C134.213 13.3753 134.296 13.3281 134.384 13.2891C134.472 13.25 134.569 13.2207 134.677 13.2012C134.787 13.1784 134.918 13.167 135.067 13.167C135.295 13.167 135.497 13.2077 135.673 13.2891C135.849 13.3704 135.997 13.4811 136.117 13.6211C136.238 13.7643 136.329 13.932 136.391 14.124C136.456 14.3161 136.488 14.5228 136.488 14.7441C136.488 14.9883 136.459 15.2096 136.4 15.4082C136.345 15.6068 136.262 15.776 136.151 15.916C136.037 16.0592 135.897 16.1699 135.731 16.248C135.565 16.3229 135.375 16.3604 135.16 16.3604C134.779 16.3604 134.467 16.2562 134.223 16.0479C133.982 15.8395 133.834 15.5335 133.778 15.1299H132.919C132.951 15.4587 133.031 15.7467 133.158 15.9941C133.288 16.2415 133.454 16.4466 133.656 16.6094C133.855 16.7721 134.083 16.8942 134.34 16.9756C134.597 17.057 134.87 17.0977 135.16 17.0977C135.538 17.0977 135.867 17.0391 136.146 16.9219C136.426 16.8014 136.659 16.6354 136.845 16.4238C137.027 16.2155 137.164 15.9665 137.255 15.6768C137.346 15.387 137.392 15.0729 137.392 14.7344C137.392 14.3763 137.343 14.0508 137.245 13.7578C137.147 13.4648 137.007 13.2142 136.825 13.0059C136.643 12.8008 136.422 12.6413 136.161 12.5273C135.901 12.4134 135.606 12.3564 135.277 12.3564C135.02 12.3564 134.794 12.3874 134.599 12.4492C134.403 12.5111 134.236 12.5827 134.096 12.6641L134.296 10.7695H137.182V9.89062H133.534L133.178 13.4355Z" fill="#877900"/>
<path d="M120.101 17.1268L120.894 16.5628L119.33 15.1133L122.689 10.9714L122.405 9.08467L120.717 9.14382L117.63 13.5379L115.93 11.9624L115.711 12.8421L117.479 14.4806L114.925 17.7441L116.081 18.8155L118.499 15.4258L120.101 17.1268Z" fill="#FFEC44"/>
</svg>
