<svg width="150" height="200" viewBox="0 0 150 200" fill="none" xmlns="http://www.w3.org/2000/svg">
<rect width="150" height="200" fill="white"/>
<rect width="150" height="200" fill="white"/>
<path d="M17.325 148.505H18.73C19.1033 148.505 19.39 148.595 19.59 148.775C19.79 148.955 19.89 149.218 19.89 149.565C19.89 149.822 19.8217 150.04 19.685 150.22C19.5483 150.397 19.355 150.517 19.105 150.58L19.875 152H19.345L18.6 150.62H17.835V152H17.325V148.505ZM18.645 150.19C18.8683 150.19 19.045 150.138 19.175 150.035C19.3083 149.928 19.375 149.772 19.375 149.565C19.375 149.338 19.31 149.177 19.18 149.08C19.0533 148.983 18.875 148.935 18.645 148.935H17.835V150.19H18.645ZM22.56 152.075C22.1167 152.075 21.7684 151.965 21.515 151.745C21.265 151.522 21.14 151.208 21.14 150.805C21.14 150.412 21.2517 150.1 21.475 149.87C21.7017 149.64 22.0234 149.525 22.44 149.525C22.7167 149.525 22.9517 149.578 23.145 149.685C23.3384 149.788 23.4834 149.933 23.58 150.12C23.68 150.303 23.73 150.513 23.73 150.75V151H21.62C21.6367 151.227 21.7317 151.397 21.905 151.51C22.0817 151.62 22.32 151.675 22.62 151.675C22.7734 151.675 22.9284 151.662 23.085 151.635C23.2417 151.605 23.38 151.567 23.5 151.52V151.925C23.3934 151.968 23.2517 152.003 23.075 152.03C22.9017 152.06 22.73 152.075 22.56 152.075ZM23.255 150.645C23.2484 150.418 23.1734 150.243 23.03 150.12C22.89 149.993 22.69 149.93 22.43 149.93C22.1767 149.93 21.98 149.995 21.84 150.125C21.7 150.255 21.6267 150.428 21.62 150.645H23.255ZM26.167 152.075C26.0004 152.075 25.8237 152.053 25.637 152.01C25.4504 151.97 25.3037 151.915 25.197 151.845V151.415C25.327 151.492 25.477 151.555 25.647 151.605C25.817 151.652 25.982 151.675 26.142 151.675C26.322 151.675 26.4537 151.653 26.537 151.61C26.6204 151.567 26.662 151.497 26.662 151.4C26.662 151.327 26.642 151.268 26.602 151.225C26.5654 151.178 26.5004 151.137 26.407 151.1C26.317 151.063 26.1804 151.02 25.997 150.97C25.8004 150.913 25.6437 150.857 25.527 150.8C25.4137 150.74 25.327 150.665 25.267 150.575C25.2104 150.485 25.182 150.368 25.182 150.225C25.182 149.995 25.272 149.822 25.452 149.705C25.6354 149.585 25.8804 149.525 26.187 149.525C26.347 149.525 26.5037 149.54 26.657 149.57C26.8104 149.6 26.9337 149.642 27.027 149.695V150.115C26.9304 150.058 26.8104 150.013 26.667 149.98C26.527 149.947 26.3837 149.93 26.237 149.93C26.0604 149.93 25.9254 149.952 25.832 149.995C25.7387 150.038 25.692 150.115 25.692 150.225C25.692 150.295 25.712 150.352 25.752 150.395C25.792 150.438 25.8554 150.477 25.942 150.51C26.032 150.54 26.1737 150.58 26.367 150.63C26.6704 150.713 26.8804 150.812 26.997 150.925C27.117 151.038 27.177 151.195 27.177 151.395C27.177 151.602 27.092 151.767 26.922 151.89C26.752 152.013 26.5004 152.075 26.167 152.075ZM29.5801 152.075C29.3367 152.075 29.1484 152.005 29.0151 151.865C28.8851 151.725 28.8201 151.527 28.8201 151.27V149.99H28.4551V149.6H28.8201V148.88H29.3301V149.6H29.9201V149.99H29.3301V151.235C29.3301 151.395 29.3601 151.508 29.4201 151.575C29.4834 151.642 29.5967 151.675 29.7601 151.675C29.8567 151.675 29.9534 151.653 30.0501 151.61V152.01C29.9234 152.053 29.7667 152.075 29.5801 152.075ZM32.7658 152.075C32.4958 152.075 32.2574 152.025 32.0508 151.925C31.8474 151.822 31.6874 151.675 31.5708 151.485C31.4574 151.292 31.4008 151.065 31.4008 150.805C31.4008 150.548 31.4574 150.323 31.5708 150.13C31.6841 149.937 31.8441 149.788 32.0508 149.685C32.2574 149.578 32.4958 149.525 32.7658 149.525C33.0358 149.525 33.2741 149.578 33.4808 149.685C33.6874 149.788 33.8474 149.937 33.9608 150.13C34.0774 150.323 34.1358 150.548 34.1358 150.805C34.1358 151.065 34.0774 151.292 33.9608 151.485C33.8474 151.675 33.6874 151.822 33.4808 151.925C33.2741 152.025 33.0358 152.075 32.7658 152.075ZM32.7658 151.675C33.0258 151.675 33.2324 151.595 33.3858 151.435C33.5391 151.275 33.6158 151.065 33.6158 150.805C33.6158 150.535 33.5391 150.322 33.3858 150.165C33.2324 150.008 33.0258 149.93 32.7658 149.93C32.5058 149.93 32.2991 150.008 32.1458 150.165C31.9924 150.322 31.9158 150.535 31.9158 150.805C31.9158 151.065 31.9924 151.275 32.1458 151.435C32.2991 151.595 32.5058 151.675 32.7658 151.675ZM35.6844 149.6H36.1744V150.03C36.2744 149.883 36.4144 149.775 36.5944 149.705C36.7777 149.635 36.9894 149.6 37.2294 149.6V149.995C36.9727 149.995 36.7527 150.037 36.5694 150.12C36.386 150.203 36.2594 150.335 36.1894 150.515V152H35.6844V149.6ZM39.8501 152.075C39.4067 152.075 39.0584 151.965 38.8051 151.745C38.5551 151.522 38.4301 151.208 38.4301 150.805C38.4301 150.412 38.5417 150.1 38.7651 149.87C38.9917 149.64 39.3134 149.525 39.7301 149.525C40.0067 149.525 40.2417 149.578 40.4351 149.685C40.6284 149.788 40.7734 149.933 40.8701 150.12C40.9701 150.303 41.0201 150.513 41.0201 150.75V151H38.9101C38.9267 151.227 39.0217 151.397 39.1951 151.51C39.3717 151.62 39.6101 151.675 39.9101 151.675C40.0634 151.675 40.2184 151.662 40.3751 151.635C40.5317 151.605 40.6701 151.567 40.7901 151.52V151.925C40.6834 151.968 40.5417 152.003 40.3651 152.03C40.1917 152.06 40.0201 152.075 39.8501 152.075ZM40.5451 150.645C40.5384 150.418 40.4634 150.243 40.3201 150.12C40.1801 149.993 39.9801 149.93 39.7201 149.93C39.4667 149.93 39.2701 149.995 39.1301 150.125C38.9901 150.255 38.9167 150.428 38.9101 150.645H40.5451ZM43.4571 152.075C43.2904 152.075 43.1137 152.053 42.9271 152.01C42.7404 151.97 42.5937 151.915 42.4871 151.845V151.415C42.6171 151.492 42.7671 151.555 42.9371 151.605C43.1071 151.652 43.2721 151.675 43.4321 151.675C43.6121 151.675 43.7437 151.653 43.8271 151.61C43.9104 151.567 43.9521 151.497 43.9521 151.4C43.9521 151.327 43.9321 151.268 43.8921 151.225C43.8554 151.178 43.7904 151.137 43.6971 151.1C43.6071 151.063 43.4704 151.02 43.2871 150.97C43.0904 150.913 42.9337 150.857 42.8171 150.8C42.7037 150.74 42.6171 150.665 42.5571 150.575C42.5004 150.485 42.4721 150.368 42.4721 150.225C42.4721 149.995 42.5621 149.822 42.7421 149.705C42.9254 149.585 43.1704 149.525 43.4771 149.525C43.6371 149.525 43.7937 149.54 43.9471 149.57C44.1004 149.6 44.2237 149.642 44.3171 149.695V150.115C44.2204 150.058 44.1004 150.013 43.9571 149.98C43.8171 149.947 43.6737 149.93 43.5271 149.93C43.3504 149.93 43.2154 149.952 43.1221 149.995C43.0287 150.038 42.9821 150.115 42.9821 150.225C42.9821 150.295 43.0021 150.352 43.0421 150.395C43.0821 150.438 43.1454 150.477 43.2321 150.51C43.3221 150.54 43.4637 150.58 43.6571 150.63C43.9604 150.713 44.1704 150.812 44.2871 150.925C44.4071 151.038 44.4671 151.195 44.4671 151.395C44.4671 151.602 44.3821 151.767 44.2121 151.89C44.0421 152.013 43.7904 152.075 43.4571 152.075ZM49.7939 152.075C49.5506 152.075 49.3623 152.005 49.2289 151.865C49.0989 151.725 49.0339 151.527 49.0339 151.27V149.99H48.6689V149.6H49.0339V148.88H49.5439V149.6H50.1339V149.99H49.5439V151.235C49.5439 151.395 49.5739 151.508 49.6339 151.575C49.6973 151.642 49.8106 151.675 49.9739 151.675C50.0706 151.675 50.1673 151.653 50.2639 151.61V152.01C50.1373 152.053 49.9806 152.075 49.7939 152.075ZM51.7391 148.305H52.2441V149.93C52.4741 149.66 52.7807 149.525 53.1641 149.525C53.4841 149.525 53.7224 149.61 53.8791 149.78C54.0357 149.95 54.1141 150.178 54.1141 150.465V152H53.6091V150.515C53.6091 150.125 53.4224 149.93 53.0491 149.93C52.8891 149.93 52.7391 149.968 52.5991 150.045C52.4624 150.118 52.3441 150.232 52.2441 150.385V152H51.7391V148.305ZM57.0571 152.075C56.6138 152.075 56.2654 151.965 56.0121 151.745C55.7621 151.522 55.6371 151.208 55.6371 150.805C55.6371 150.412 55.7488 150.1 55.9721 149.87C56.1988 149.64 56.5204 149.525 56.9371 149.525C57.2138 149.525 57.4488 149.578 57.6421 149.685C57.8354 149.788 57.9804 149.933 58.0771 150.12C58.1771 150.303 58.2271 150.513 58.2271 150.75V151H56.1171C56.1338 151.227 56.2288 151.397 56.4021 151.51C56.5788 151.62 56.8171 151.675 57.1171 151.675C57.2704 151.675 57.4254 151.662 57.5821 151.635C57.7388 151.605 57.8771 151.567 57.9971 151.52V151.925C57.8904 151.968 57.7488 152.003 57.5721 152.03C57.3988 152.06 57.2271 152.075 57.0571 152.075ZM57.7521 150.645C57.7454 150.418 57.6704 150.243 57.5271 150.12C57.3871 149.993 57.1871 149.93 56.9271 149.93C56.6738 149.93 56.4771 149.995 56.3371 150.125C56.1971 150.255 56.1238 150.428 56.1171 150.645H57.7521ZM63.5147 152.075C63.348 152.075 63.1714 152.053 62.9847 152.01C62.798 151.97 62.6514 151.915 62.5447 151.845V151.415C62.6747 151.492 62.8247 151.555 62.9947 151.605C63.1647 151.652 63.3297 151.675 63.4897 151.675C63.6697 151.675 63.8014 151.653 63.8847 151.61C63.968 151.567 64.0097 151.497 64.0097 151.4C64.0097 151.327 63.9897 151.268 63.9497 151.225C63.913 151.178 63.848 151.137 63.7547 151.1C63.6647 151.063 63.528 151.02 63.3447 150.97C63.148 150.913 62.9914 150.857 62.8747 150.8C62.7614 150.74 62.6747 150.665 62.6147 150.575C62.558 150.485 62.5297 150.368 62.5297 150.225C62.5297 149.995 62.6197 149.822 62.7997 149.705C62.983 149.585 63.228 149.525 63.5347 149.525C63.6947 149.525 63.8514 149.54 64.0047 149.57C64.158 149.6 64.2814 149.642 64.3747 149.695V150.115C64.278 150.058 64.158 150.013 64.0147 149.98C63.8747 149.947 63.7314 149.93 63.5847 149.93C63.408 149.93 63.273 149.952 63.1797 149.995C63.0864 150.038 63.0397 150.115 63.0397 150.225C63.0397 150.295 63.0597 150.352 63.0997 150.395C63.1397 150.438 63.203 150.477 63.2897 150.51C63.3797 150.54 63.5214 150.58 63.7147 150.63C64.018 150.713 64.228 150.812 64.3447 150.925C64.4647 151.038 64.5247 151.195 64.5247 151.395C64.5247 151.602 64.4397 151.767 64.2697 151.89C64.0997 152.013 63.848 152.075 63.5147 152.075ZM66.076 148.305H66.581V149.93C66.811 149.66 67.1176 149.525 67.501 149.525C67.821 149.525 68.0593 149.61 68.216 149.78C68.3726 149.95 68.451 150.178 68.451 150.465V152H67.946V150.515C67.946 150.125 67.7593 149.93 67.386 149.93C67.226 149.93 67.076 149.968 66.936 150.045C66.7993 150.118 66.681 150.232 66.581 150.385V152H66.076V148.305ZM70.369 149.13C70.2857 149.13 70.2157 149.102 70.159 149.045C70.1024 148.988 70.074 148.918 70.074 148.835C70.074 148.752 70.1024 148.682 70.159 148.625C70.2157 148.568 70.2857 148.54 70.369 148.54C70.4557 148.54 70.5274 148.568 70.584 148.625C70.644 148.682 70.674 148.752 70.674 148.835C70.674 148.918 70.644 148.988 70.584 149.045C70.5274 149.102 70.4557 149.13 70.369 149.13ZM70.114 149.6H70.629V152H70.114V149.6ZM73.644 152.075C73.2007 152.075 72.8524 151.965 72.599 151.745C72.349 151.522 72.224 151.208 72.224 150.805C72.224 150.412 72.3357 150.1 72.559 149.87C72.7857 149.64 73.1074 149.525 73.524 149.525C73.8007 149.525 74.0357 149.578 74.229 149.685C74.4224 149.788 74.5674 149.933 74.664 150.12C74.764 150.303 74.814 150.513 74.814 150.75V151H72.704C72.7207 151.227 72.8157 151.397 72.989 151.51C73.1657 151.62 73.404 151.675 73.704 151.675C73.8574 151.675 74.0124 151.662 74.169 151.635C74.3257 151.605 74.464 151.567 74.584 151.52V151.925C74.4774 151.968 74.3357 152.003 74.159 152.03C73.9857 152.06 73.814 152.075 73.644 152.075ZM74.339 150.645C74.3324 150.418 74.2574 150.243 74.114 150.12C73.974 149.993 73.774 149.93 73.514 149.93C73.2607 149.93 73.064 149.995 72.924 150.125C72.784 150.255 72.7107 150.428 72.704 150.645H74.339ZM76.366 148.305H76.871V152H76.366V148.305ZM79.6832 152.075C79.4432 152.075 79.2266 152.023 79.0332 151.92C78.8432 151.813 78.6932 151.665 78.5832 151.475C78.4766 151.282 78.4232 151.058 78.4232 150.805C78.4232 150.555 78.4766 150.333 78.5832 150.14C78.6932 149.947 78.8432 149.797 79.0332 149.69C79.2266 149.58 79.4432 149.525 79.6832 149.525C80.1166 149.525 80.4449 149.657 80.6682 149.92V148.305H81.1732V152H80.6832V151.65C80.5499 151.797 80.4032 151.905 80.2432 151.975C80.0866 152.042 79.8999 152.075 79.6832 152.075ZM79.7982 151.675C80.0049 151.675 80.1849 151.622 80.3382 151.515C80.4949 151.405 80.6049 151.258 80.6682 151.075V150.535C80.6116 150.352 80.5032 150.205 80.3432 150.095C80.1866 149.985 80.0049 149.93 79.7982 149.93C79.6349 149.93 79.4866 149.967 79.3532 150.04C79.2232 150.113 79.1199 150.217 79.0432 150.35C78.9699 150.483 78.9332 150.635 78.9332 150.805C78.9332 150.975 78.9699 151.127 79.0432 151.26C79.1199 151.393 79.2232 151.497 79.3532 151.57C79.4866 151.64 79.6349 151.675 79.7982 151.675ZM83.119 149.13C83.0357 149.13 82.9657 149.102 82.909 149.045C82.8524 148.988 82.824 148.918 82.824 148.835C82.824 148.752 82.8524 148.682 82.909 148.625C82.9657 148.568 83.0357 148.54 83.119 148.54C83.2057 148.54 83.2774 148.568 83.334 148.625C83.394 148.682 83.424 148.752 83.424 148.835C83.424 148.918 83.394 148.988 83.334 149.045C83.2774 149.102 83.2057 149.13 83.119 149.13ZM82.864 149.6H83.379V152H82.864V149.6ZM85.074 149.6H85.564V149.945C85.6774 149.802 85.8157 149.697 85.979 149.63C86.1457 149.56 86.319 149.525 86.499 149.525C86.819 149.525 87.0574 149.61 87.214 149.78C87.3707 149.95 87.449 150.178 87.449 150.465V152H86.944V150.515C86.944 150.125 86.7574 149.93 86.384 149.93C86.224 149.93 86.074 149.968 85.934 150.045C85.7974 150.118 85.679 150.232 85.579 150.385V152H85.074V149.6ZM90.3271 153.15C90.1637 153.15 90.0037 153.137 89.8471 153.11C89.6937 153.083 89.5637 153.045 89.4571 152.995V152.58C89.7071 152.693 89.9971 152.75 90.3271 152.75C90.6371 152.75 90.8621 152.682 91.0021 152.545C91.1454 152.412 91.2171 152.208 91.2171 151.935V151.68C90.9971 151.943 90.6737 152.075 90.2471 152.075C90.0037 152.075 89.7854 152.022 89.5921 151.915C89.3987 151.808 89.2471 151.658 89.1371 151.465C89.0271 151.272 88.9721 151.05 88.9721 150.8C88.9721 150.547 89.0254 150.325 89.1321 150.135C89.2421 149.942 89.3921 149.792 89.5821 149.685C89.7754 149.578 89.9921 149.525 90.2321 149.525C90.4554 149.525 90.6437 149.558 90.7971 149.625C90.9537 149.688 91.0987 149.795 91.2321 149.945V149.6H91.7221V151.88C91.7221 152.29 91.6071 152.603 91.3771 152.82C91.1504 153.04 90.8004 153.15 90.3271 153.15ZM90.3471 151.675C90.5537 151.675 90.7354 151.62 90.8921 151.51C91.0521 151.4 91.1604 151.253 91.2171 151.07V150.53C91.1537 150.343 91.0437 150.197 90.8871 150.09C90.7337 149.983 90.5537 149.93 90.3471 149.93C90.1837 149.93 90.0354 149.967 89.9021 150.04C89.7721 150.11 89.6687 150.212 89.5921 150.345C89.5187 150.478 89.4821 150.63 89.4821 150.8C89.4821 150.973 89.5187 151.127 89.5921 151.26C89.6687 151.39 89.7721 151.492 89.9021 151.565C90.0354 151.638 90.1837 151.675 90.3471 151.675ZM97.4884 152.075C97.2184 152.075 96.9801 152.025 96.7734 151.925C96.5701 151.822 96.4101 151.675 96.2934 151.485C96.1801 151.292 96.1234 151.065 96.1234 150.805C96.1234 150.548 96.1801 150.323 96.2934 150.13C96.4068 149.937 96.5668 149.788 96.7734 149.685C96.9801 149.578 97.2184 149.525 97.4884 149.525C97.7584 149.525 97.9968 149.578 98.2034 149.685C98.4101 149.788 98.5701 149.937 98.6834 150.13C98.8001 150.323 98.8584 150.548 98.8584 150.805C98.8584 151.065 98.8001 151.292 98.6834 151.485C98.5701 151.675 98.4101 151.822 98.2034 151.925C97.9968 152.025 97.7584 152.075 97.4884 152.075ZM97.4884 151.675C97.7484 151.675 97.9551 151.595 98.1084 151.435C98.2618 151.275 98.3384 151.065 98.3384 150.805C98.3384 150.535 98.2618 150.322 98.1084 150.165C97.9551 150.008 97.7484 149.93 97.4884 149.93C97.2284 149.93 97.0218 150.008 96.8684 150.165C96.7151 150.322 96.6384 150.535 96.6384 150.805C96.6384 151.065 96.7151 151.275 96.8684 151.435C97.0218 151.595 97.2284 151.675 97.4884 151.675ZM100.396 149.99H100.031V149.6H100.396V149.13C100.396 148.853 100.475 148.643 100.631 148.5C100.788 148.353 100.998 148.28 101.261 148.28C101.398 148.28 101.526 148.3 101.646 148.34V148.76C101.553 148.717 101.456 148.695 101.356 148.695C101.2 148.695 101.085 148.733 101.011 148.81C100.938 148.883 100.901 149 100.901 149.16V149.6H101.501V149.99H100.901V152H100.396V149.99ZM106.705 152.075C106.415 152.075 106.181 152.002 106.005 151.855C105.831 151.705 105.745 151.503 105.745 151.25C105.745 150.983 105.828 150.778 105.995 150.635C106.165 150.488 106.405 150.415 106.715 150.415C107.045 150.415 107.325 150.482 107.555 150.615V150.49C107.555 150.3 107.496 150.16 107.38 150.07C107.266 149.977 107.086 149.93 106.84 149.93C106.693 149.93 106.55 149.945 106.41 149.975C106.273 150.002 106.15 150.04 106.04 150.09V149.68C106.14 149.633 106.27 149.597 106.43 149.57C106.59 149.54 106.745 149.525 106.895 149.525C107.291 149.525 107.585 149.613 107.775 149.79C107.968 149.963 108.065 150.205 108.065 150.515V152H107.59V151.73C107.486 151.843 107.363 151.93 107.22 151.99C107.08 152.047 106.908 152.075 106.705 152.075ZM106.83 151.69C106.99 151.69 107.135 151.658 107.265 151.595C107.395 151.532 107.491 151.443 107.555 151.33V151.005C107.338 150.865 107.096 150.795 106.83 150.795C106.636 150.795 106.491 150.833 106.395 150.91C106.301 150.983 106.255 151.097 106.255 151.25C106.255 151.543 106.446 151.69 106.83 151.69ZM113.512 152.075C113.312 152.075 113.113 152.057 112.917 152.02C112.723 151.987 112.565 151.94 112.442 151.88V151.42C112.762 151.57 113.107 151.645 113.477 151.645C113.997 151.645 114.257 151.47 114.257 151.12C114.257 151 114.228 150.903 114.172 150.83C114.115 150.757 114.033 150.693 113.927 150.64C113.82 150.583 113.647 150.507 113.407 150.41C113.077 150.277 112.838 150.13 112.692 149.97C112.545 149.81 112.472 149.608 112.472 149.365C112.472 149.182 112.522 149.02 112.622 148.88C112.722 148.737 112.862 148.627 113.042 148.55C113.222 148.47 113.428 148.43 113.662 148.43C113.852 148.43 114.023 148.445 114.177 148.475C114.33 148.505 114.48 148.553 114.627 148.62V149.06C114.337 148.93 114.043 148.865 113.747 148.865C113.507 148.865 113.323 148.908 113.197 148.995C113.07 149.082 113.007 149.205 113.007 149.365C113.007 149.475 113.033 149.568 113.087 149.645C113.143 149.718 113.225 149.785 113.332 149.845C113.442 149.902 113.603 149.973 113.817 150.06C114.053 150.157 114.24 150.248 114.377 150.335C114.513 150.422 114.617 150.528 114.687 150.655C114.76 150.778 114.797 150.933 114.797 151.12C114.797 151.423 114.688 151.658 114.472 151.825C114.255 151.992 113.935 152.075 113.512 152.075ZM116.345 148.305H116.85V149.93C117.08 149.66 117.386 149.525 117.77 149.525C118.09 149.525 118.328 149.61 118.485 149.78C118.641 149.95 118.72 150.178 118.72 150.465V152H118.215V150.515C118.215 150.125 118.028 149.93 117.655 149.93C117.495 149.93 117.345 149.968 117.205 150.045C117.068 150.118 116.95 150.232 116.85 150.385V152H116.345V148.305ZM121.663 152.075C121.219 152.075 120.871 151.965 120.618 151.745C120.368 151.522 120.243 151.208 120.243 150.805C120.243 150.412 120.354 150.1 120.578 149.87C120.804 149.64 121.126 149.525 121.543 149.525C121.819 149.525 122.054 149.578 122.248 149.685C122.441 149.788 122.586 149.933 122.683 150.12C122.783 150.303 122.833 150.513 122.833 150.75V151H120.723C120.739 151.227 120.834 151.397 121.008 151.51C121.184 151.62 121.423 151.675 121.723 151.675C121.876 151.675 122.031 151.662 122.188 151.635C122.344 151.605 122.483 151.567 122.603 151.52V151.925C122.496 151.968 122.354 152.003 122.178 152.03C122.004 152.06 121.833 152.075 121.663 152.075ZM122.358 150.645C122.351 150.418 122.276 150.243 122.133 150.12C121.993 149.993 121.793 149.93 121.533 149.93C121.279 149.93 121.083 149.995 120.943 150.125C120.803 150.255 120.729 150.428 120.723 150.645H122.358ZM124.385 148.305H124.89V152H124.385V148.305ZM126.542 148.305H127.047V152H126.542V148.305ZM18.62 156.505H19.11L20.505 160H19.985L19.635 159.13H18.09L17.75 160H17.225L18.62 156.505ZM19.495 158.705L18.865 157.07L18.235 158.705H19.495ZM22.0555 157.6H22.5455V158.03C22.6455 157.883 22.7855 157.775 22.9655 157.705C23.1488 157.635 23.3605 157.6 23.6005 157.6V157.995C23.3438 157.995 23.1238 158.037 22.9405 158.12C22.7571 158.203 22.6305 158.335 22.5605 158.515V160H22.0555V157.6ZM25.0525 157.6H25.5325V157.945C25.6459 157.805 25.7742 157.7 25.9175 157.63C26.0609 157.56 26.2092 157.525 26.3625 157.525C26.5559 157.525 26.7092 157.558 26.8225 157.625C26.9359 157.688 27.0192 157.787 27.0725 157.92C27.1792 157.79 27.3092 157.692 27.4625 157.625C27.6192 157.558 27.7759 157.525 27.9325 157.525C28.2259 157.525 28.4375 157.6 28.5675 157.75C28.6975 157.897 28.7625 158.115 28.7625 158.405V160H28.2725V158.47C28.2725 158.273 28.2359 158.135 28.1625 158.055C28.0892 157.972 27.9642 157.93 27.7875 157.93C27.5342 157.93 27.3275 158.04 27.1675 158.26C27.1742 158.31 27.1775 158.392 27.1775 158.505V160H26.6875V158.47C26.6875 158.273 26.6542 158.135 26.5875 158.055C26.5209 157.972 26.4009 157.93 26.2275 157.93C25.9742 157.93 25.7475 158.073 25.5475 158.36V160H25.0525V157.6ZM31.5802 160.075C31.3102 160.075 31.0719 160.025 30.8652 159.925C30.6619 159.822 30.5019 159.675 30.3852 159.485C30.2719 159.292 30.2152 159.065 30.2152 158.805C30.2152 158.548 30.2719 158.323 30.3852 158.13C30.4986 157.937 30.6586 157.788 30.8652 157.685C31.0719 157.578 31.3102 157.525 31.5802 157.525C31.8502 157.525 32.0886 157.578 32.2952 157.685C32.5019 157.788 32.6619 157.937 32.7752 158.13C32.8919 158.323 32.9502 158.548 32.9502 158.805C32.9502 159.065 32.8919 159.292 32.7752 159.485C32.6619 159.675 32.5019 159.822 32.2952 159.925C32.0886 160.025 31.8502 160.075 31.5802 160.075ZM31.5802 159.675C31.8402 159.675 32.0469 159.595 32.2002 159.435C32.3536 159.275 32.4302 159.065 32.4302 158.805C32.4302 158.535 32.3536 158.322 32.2002 158.165C32.0469 158.008 31.8402 157.93 31.5802 157.93C31.3202 157.93 31.1136 158.008 30.9602 158.165C30.8069 158.322 30.7302 158.535 30.7302 158.805C30.7302 159.065 30.8069 159.275 30.9602 159.435C31.1136 159.595 31.3202 159.675 31.5802 159.675ZM34.4988 157.6H34.9888V158.03C35.0888 157.883 35.2288 157.775 35.4088 157.705C35.5922 157.635 35.8038 157.6 36.0438 157.6V157.995C35.7872 157.995 35.5672 158.037 35.3838 158.12C35.2005 158.203 35.0738 158.335 35.0038 158.515V160H34.4988V157.6ZM41.8365 160.075C41.6198 160.075 41.4315 160.042 41.2715 159.975C41.1148 159.905 40.9698 159.797 40.8365 159.65V160H40.3465V156.305H40.8515V157.92C40.9615 157.79 41.1032 157.692 41.2765 157.625C41.4498 157.558 41.6365 157.525 41.8365 157.525C42.0765 157.525 42.2915 157.58 42.4815 157.69C42.6748 157.797 42.8248 157.947 42.9315 158.14C43.0415 158.333 43.0965 158.555 43.0965 158.805C43.0965 159.058 43.0415 159.282 42.9315 159.475C42.8248 159.665 42.6748 159.813 42.4815 159.92C42.2915 160.023 42.0765 160.075 41.8365 160.075ZM41.7215 159.675C41.8848 159.675 42.0315 159.64 42.1615 159.57C42.2948 159.497 42.3982 159.393 42.4715 159.26C42.5482 159.127 42.5865 158.975 42.5865 158.805C42.5865 158.635 42.5482 158.483 42.4715 158.35C42.3982 158.217 42.2948 158.113 42.1615 158.04C42.0315 157.967 41.8848 157.93 41.7215 157.93C41.5182 157.93 41.3365 157.985 41.1765 158.095C41.0165 158.205 40.9082 158.352 40.8515 158.535V159.075C40.9148 159.258 41.0232 159.405 41.1765 159.515C41.3332 159.622 41.5148 159.675 41.7215 159.675ZM44.8301 160.99C44.6501 160.99 44.5001 160.972 44.3801 160.935V160.54C44.4668 160.573 44.5735 160.59 44.7001 160.59C44.8168 160.59 44.9085 160.56 44.9751 160.5C45.0418 160.443 45.1018 160.35 45.1551 160.22L45.2701 159.94L44.2201 157.6H44.7401L45.5401 159.445L46.2851 157.6H46.8051L45.7251 160.27C45.6251 160.52 45.5051 160.702 45.3651 160.815C45.2285 160.932 45.0501 160.99 44.8301 160.99ZM58.4161 160C58.3494 160 58.2927 159.978 58.2461 159.935C58.2027 159.888 58.1811 159.832 58.1811 159.765C58.1811 159.698 58.2027 159.642 58.2461 159.595C58.2927 159.548 58.3494 159.525 58.4161 159.525C58.4827 159.525 58.5394 159.548 58.5861 159.595C58.6327 159.642 58.6561 159.698 58.6561 159.765C58.6561 159.832 58.6327 159.888 58.5861 159.935C58.5394 159.978 58.4827 160 58.4161 160ZM67.6451 160.075C67.2984 160.075 66.9851 160 66.7051 159.85C66.4251 159.697 66.2051 159.482 66.0451 159.205C65.8851 158.928 65.8051 158.612 65.8051 158.255C65.8051 157.898 65.8851 157.582 66.0451 157.305C66.2051 157.028 66.4251 156.813 66.7051 156.66C66.9851 156.507 67.2984 156.43 67.6451 156.43C67.9917 156.43 68.3051 156.507 68.5851 156.66C68.8651 156.813 69.0851 157.028 69.2451 157.305C69.4051 157.582 69.4851 157.898 69.4851 158.255C69.4851 158.612 69.4051 158.928 69.2451 159.205C69.0851 159.482 68.8651 159.697 68.5851 159.85C68.3051 160 67.9917 160.075 67.6451 160.075ZM67.6451 159.615C67.8917 159.615 68.1151 159.56 68.3151 159.45C68.5184 159.337 68.6784 159.178 68.7951 158.975C68.9117 158.768 68.9701 158.528 68.9701 158.255C68.9701 157.985 68.9117 157.748 68.7951 157.545C68.6817 157.338 68.5251 157.18 68.3251 157.07C68.1251 156.957 67.9017 156.9 67.6551 156.9C67.4051 156.9 67.1784 156.955 66.9751 157.065C66.7751 157.175 66.6151 157.333 66.4951 157.54C66.3784 157.747 66.3201 157.985 66.3201 158.255C66.3201 158.528 66.3784 158.768 66.4951 158.975C66.6117 159.178 66.7701 159.337 66.9701 159.45C67.1734 159.56 67.3984 159.615 67.6451 159.615ZM71.0359 157.6H71.5259V157.945C71.6393 157.802 71.7776 157.697 71.9409 157.63C72.1076 157.56 72.2809 157.525 72.4609 157.525C72.7809 157.525 73.0193 157.61 73.1759 157.78C73.3326 157.95 73.4109 158.178 73.4109 158.465V160H72.9059V158.515C72.9059 158.125 72.7193 157.93 72.3459 157.93C72.1859 157.93 72.0359 157.968 71.8959 158.045C71.7593 158.118 71.6409 158.232 71.5409 158.385V160H71.0359V157.6ZM76.354 160.075C75.9107 160.075 75.5623 159.965 75.309 159.745C75.059 159.522 74.934 159.208 74.934 158.805C74.934 158.412 75.0457 158.1 75.269 157.87C75.4957 157.64 75.8173 157.525 76.234 157.525C76.5107 157.525 76.7457 157.578 76.939 157.685C77.1323 157.788 77.2773 157.933 77.374 158.12C77.474 158.303 77.524 158.513 77.524 158.75V159H75.414C75.4307 159.227 75.5257 159.397 75.699 159.51C75.8757 159.62 76.114 159.675 76.414 159.675C76.5673 159.675 76.7223 159.662 76.879 159.635C77.0357 159.605 77.174 159.567 77.294 159.52V159.925C77.1873 159.968 77.0457 160.003 76.869 160.03C76.6957 160.06 76.524 160.075 76.354 160.075ZM77.049 158.645C77.0423 158.418 76.9673 158.243 76.824 158.12C76.684 157.993 76.484 157.93 76.224 157.93C75.9707 157.93 75.774 157.995 75.634 158.125C75.494 158.255 75.4207 158.428 75.414 158.645H77.049ZM82.8516 160.075C82.6082 160.075 82.4199 160.005 82.2866 159.865C82.1566 159.725 82.0916 159.527 82.0916 159.27V157.99H81.7266V157.6H82.0916V156.88H82.6016V157.6H83.1916V157.99H82.6016V159.235C82.6016 159.395 82.6316 159.508 82.6916 159.575C82.7549 159.642 82.8682 159.675 83.0316 159.675C83.1282 159.675 83.2249 159.653 83.3216 159.61V160.01C83.1949 160.053 83.0382 160.075 82.8516 160.075ZM85.0917 157.13C85.0083 157.13 84.9383 157.102 84.8817 157.045C84.825 156.988 84.7967 156.918 84.7967 156.835C84.7967 156.752 84.825 156.682 84.8817 156.625C84.9383 156.568 85.0083 156.54 85.0917 156.54C85.1783 156.54 85.25 156.568 85.3067 156.625C85.3667 156.682 85.3967 156.752 85.3967 156.835C85.3967 156.918 85.3667 156.988 85.3067 157.045C85.25 157.102 85.1783 157.13 85.0917 157.13ZM84.8367 157.6H85.3517V160H84.8367V157.6ZM87.0467 157.6H87.5267V157.945C87.64 157.805 87.7683 157.7 87.9117 157.63C88.055 157.56 88.2033 157.525 88.3567 157.525C88.55 157.525 88.7033 157.558 88.8167 157.625C88.93 157.688 89.0133 157.787 89.0667 157.92C89.1733 157.79 89.3033 157.692 89.4567 157.625C89.6133 157.558 89.77 157.525 89.9267 157.525C90.22 157.525 90.4317 157.6 90.5617 157.75C90.6917 157.897 90.7567 158.115 90.7567 158.405V160H90.2667V158.47C90.2667 158.273 90.23 158.135 90.1567 158.055C90.0833 157.972 89.9583 157.93 89.7817 157.93C89.5283 157.93 89.3217 158.04 89.1617 158.26C89.1683 158.31 89.1717 158.392 89.1717 158.505V160H88.6817V158.47C88.6817 158.273 88.6483 158.135 88.5817 158.055C88.515 157.972 88.395 157.93 88.2217 157.93C87.9683 157.93 87.7417 158.073 87.5417 158.36V160H87.0467V157.6ZM93.7026 160.075C93.2593 160.075 92.911 159.965 92.6576 159.745C92.4076 159.522 92.2826 159.208 92.2826 158.805C92.2826 158.412 92.3943 158.1 92.6176 157.87C92.8443 157.64 93.166 157.525 93.5826 157.525C93.8593 157.525 94.0943 157.578 94.2876 157.685C94.481 157.788 94.626 157.933 94.7226 158.12C94.8226 158.303 94.8726 158.513 94.8726 158.75V159H92.7626C92.7793 159.227 92.8743 159.397 93.0476 159.51C93.2243 159.62 93.4626 159.675 93.7626 159.675C93.916 159.675 94.071 159.662 94.2276 159.635C94.3843 159.605 94.5226 159.567 94.6426 159.52V159.925C94.536 159.968 94.3943 160.003 94.2176 160.03C94.0443 160.06 93.8726 160.075 93.7026 160.075ZM94.3976 158.645C94.391 158.418 94.316 158.243 94.1726 158.12C94.0326 157.993 93.8326 157.93 93.5726 157.93C93.3193 157.93 93.1226 157.995 92.9826 158.125C92.8426 158.255 92.7693 158.428 92.7626 158.645H94.3976ZM100.23 160.075C99.9069 160.075 99.6619 159.988 99.4952 159.815C99.3319 159.642 99.2502 159.41 99.2502 159.12V157.6H99.7552V159.1C99.7552 159.483 99.9469 159.675 100.33 159.675C100.667 159.675 100.93 159.523 101.12 159.22V157.6H101.625V160H101.135V159.66C101.022 159.803 100.887 159.908 100.73 159.975C100.577 160.042 100.41 160.075 100.23 160.075ZM104.158 160.075C103.992 160.075 103.815 160.053 103.628 160.01C103.442 159.97 103.295 159.915 103.188 159.845V159.415C103.318 159.492 103.468 159.555 103.638 159.605C103.808 159.652 103.973 159.675 104.133 159.675C104.313 159.675 104.445 159.653 104.528 159.61C104.612 159.567 104.653 159.497 104.653 159.4C104.653 159.327 104.633 159.268 104.593 159.225C104.557 159.178 104.492 159.137 104.398 159.1C104.308 159.063 104.172 159.02 103.988 158.97C103.792 158.913 103.635 158.857 103.518 158.8C103.405 158.74 103.318 158.665 103.258 158.575C103.202 158.485 103.173 158.368 103.173 158.225C103.173 157.995 103.263 157.822 103.443 157.705C103.627 157.585 103.872 157.525 104.178 157.525C104.338 157.525 104.495 157.54 104.648 157.57C104.802 157.6 104.925 157.642 105.018 157.695V158.115C104.922 158.058 104.802 158.013 104.658 157.98C104.518 157.947 104.375 157.93 104.228 157.93C104.052 157.93 103.917 157.952 103.823 157.995C103.73 158.038 103.683 158.115 103.683 158.225C103.683 158.295 103.703 158.352 103.743 158.395C103.783 158.438 103.847 158.477 103.933 158.51C104.023 158.54 104.165 158.58 104.358 158.63C104.662 158.713 104.872 158.812 104.988 158.925C105.108 159.038 105.168 159.195 105.168 159.395C105.168 159.602 105.083 159.767 104.913 159.89C104.743 160.013 104.492 160.075 104.158 160.075ZM108.04 160.075C107.596 160.075 107.248 159.965 106.995 159.745C106.745 159.522 106.62 159.208 106.62 158.805C106.62 158.412 106.731 158.1 106.955 157.87C107.181 157.64 107.503 157.525 107.92 157.525C108.196 157.525 108.431 157.578 108.625 157.685C108.818 157.788 108.963 157.933 109.06 158.12C109.16 158.303 109.21 158.513 109.21 158.75V159H107.1C107.116 159.227 107.211 159.397 107.385 159.51C107.561 159.62 107.8 159.675 108.1 159.675C108.253 159.675 108.408 159.662 108.565 159.635C108.721 159.605 108.86 159.567 108.98 159.52V159.925C108.873 159.968 108.731 160.003 108.555 160.03C108.381 160.06 108.21 160.075 108.04 160.075ZM108.735 158.645C108.728 158.418 108.653 158.243 108.51 158.12C108.37 157.993 108.17 157.93 107.91 157.93C107.656 157.93 107.46 157.995 107.32 158.125C107.18 158.255 107.106 158.428 107.1 158.645H108.735ZM114.877 160.075C114.607 160.075 114.369 160.025 114.162 159.925C113.959 159.822 113.799 159.675 113.682 159.485C113.569 159.292 113.512 159.065 113.512 158.805C113.512 158.548 113.569 158.323 113.682 158.13C113.795 157.937 113.955 157.788 114.162 157.685C114.369 157.578 114.607 157.525 114.877 157.525C115.147 157.525 115.385 157.578 115.592 157.685C115.799 157.788 115.959 157.937 116.072 158.13C116.189 158.323 116.247 158.548 116.247 158.805C116.247 159.065 116.189 159.292 116.072 159.485C115.959 159.675 115.799 159.822 115.592 159.925C115.385 160.025 115.147 160.075 114.877 160.075ZM114.877 159.675C115.137 159.675 115.344 159.595 115.497 159.435C115.65 159.275 115.727 159.065 115.727 158.805C115.727 158.535 115.65 158.322 115.497 158.165C115.344 158.008 115.137 157.93 114.877 157.93C114.617 157.93 114.41 158.008 114.257 158.165C114.104 158.322 114.027 158.535 114.027 158.805C114.027 159.065 114.104 159.275 114.257 159.435C114.41 159.595 114.617 159.675 114.877 159.675ZM117.796 157.6H118.286V157.945C118.399 157.802 118.537 157.697 118.701 157.63C118.867 157.56 119.041 157.525 119.221 157.525C119.541 157.525 119.779 157.61 119.936 157.78C120.092 157.95 120.171 158.178 120.171 158.465V160H119.666V158.515C119.666 158.125 119.479 157.93 119.106 157.93C118.946 157.93 118.796 157.968 118.656 158.045C118.519 158.118 118.401 158.232 118.301 158.385V160H117.796V157.6ZM121.794 156.305H122.299V160H121.794V156.305ZM124.461 160.99C124.281 160.99 124.131 160.972 124.011 160.935V160.54C124.098 160.573 124.204 160.59 124.331 160.59C124.448 160.59 124.539 160.56 124.606 160.5C124.673 160.443 124.733 160.35 124.786 160.22L124.901 159.94L123.851 157.6H124.371L125.171 159.445L125.916 157.6H126.436L125.356 160.27C125.256 160.52 125.136 160.702 124.996 160.815C124.859 160.932 124.681 160.99 124.461 160.99ZM128.021 160C127.954 160 127.897 159.978 127.851 159.935C127.807 159.888 127.786 159.832 127.786 159.765C127.786 159.698 127.807 159.642 127.851 159.595C127.897 159.548 127.954 159.525 128.021 159.525C128.087 159.525 128.144 159.548 128.191 159.595C128.237 159.642 128.261 159.698 128.261 159.765C128.261 159.832 128.237 159.888 128.191 159.935C128.144 159.978 128.087 160 128.021 160Z" fill="black"/>
<path d="M51.7603 157.055L51.0053 157.6V157.115L51.8303 156.505H52.2703V160H51.7603V157.055ZM55.2767 160.075C54.9767 160.075 54.7167 160.002 54.4967 159.855C54.28 159.708 54.1133 159.498 53.9967 159.225C53.88 158.952 53.8217 158.628 53.8217 158.255C53.8217 157.882 53.8783 157.558 53.9917 157.285C54.1083 157.008 54.275 156.797 54.4917 156.65C54.7117 156.503 54.9733 156.43 55.2767 156.43C55.58 156.43 55.84 156.503 56.0567 156.65C56.2767 156.797 56.4433 157.008 56.5567 157.285C56.6733 157.558 56.7317 157.882 56.7317 158.255C56.7317 158.628 56.6733 158.952 56.5567 159.225C56.44 159.498 56.2717 159.708 56.0517 159.855C55.835 160.002 55.5767 160.075 55.2767 160.075ZM55.2767 159.625C55.5733 159.625 55.805 159.503 55.9717 159.26C56.1417 159.013 56.2267 158.68 56.2267 158.26C56.2267 157.84 56.1433 157.507 55.9767 157.26C55.81 157.013 55.5767 156.89 55.2767 156.89C54.9767 156.89 54.7433 157.013 54.5767 157.26C54.41 157.507 54.3267 157.84 54.3267 158.26C54.3267 158.68 54.41 159.013 54.5767 159.26C54.7467 159.503 54.98 159.625 55.2767 159.625Z" fill="#FF00C7"/>
<rect x="12.25" y="143.25" width="125.5" height="46.5" stroke="#6C6C6C" stroke-width="0.5"/>
<path d="M15.63 35.225C15.13 35.225 14.6 35.16 14.04 35.03C13.48 34.91 13.04 34.745 12.72 34.535V33.245C13.11 33.475 13.56 33.665 14.07 33.815C14.58 33.955 15.075 34.025 15.555 34.025C16.095 34.025 16.49 33.96 16.74 33.83C16.99 33.7 17.115 33.49 17.115 33.2C17.115 32.98 17.055 32.805 16.935 32.675C16.825 32.535 16.63 32.41 16.35 32.3C16.08 32.19 15.67 32.06 15.12 31.91C14.53 31.74 14.06 31.57 13.71 31.4C13.37 31.22 13.11 30.995 12.93 30.725C12.76 30.455 12.675 30.105 12.675 29.675C12.675 28.985 12.945 28.465 13.485 28.115C14.035 27.755 14.77 27.575 15.69 27.575C16.17 27.575 16.64 27.62 17.1 27.71C17.56 27.8 17.93 27.925 18.21 28.085V29.345C17.92 29.175 17.56 29.04 17.13 28.94C16.71 28.84 16.28 28.79 15.84 28.79C15.31 28.79 14.905 28.855 14.625 28.985C14.345 29.115 14.205 29.345 14.205 29.675C14.205 29.885 14.265 30.055 14.385 30.185C14.505 30.315 14.695 30.43 14.955 30.53C15.225 30.62 15.65 30.74 16.23 30.89C17.14 31.14 17.77 31.435 18.12 31.775C18.48 32.115 18.66 32.585 18.66 33.185C18.66 33.805 18.405 34.3 17.895 34.67C17.385 35.04 16.63 35.225 15.63 35.225ZM21.0639 23.915H22.5789V28.79C23.2689 27.98 24.1889 27.575 25.3389 27.575C26.2989 27.575 27.0139 27.83 27.4839 28.34C27.9539 28.85 28.1889 29.535 28.1889 30.395V35H26.6739V30.545C26.6739 29.375 26.1139 28.79 24.9939 28.79C24.5139 28.79 24.0639 28.905 23.6439 29.135C23.2339 29.355 22.8789 29.695 22.5789 30.155V35H21.0639V23.915ZM34.768 35.225C33.438 35.225 32.393 34.895 31.633 34.235C30.883 33.565 30.508 32.625 30.508 31.415C30.508 30.235 30.843 29.3 31.513 28.61C32.193 27.92 33.158 27.575 34.408 27.575C35.238 27.575 35.943 27.735 36.523 28.055C37.103 28.365 37.538 28.8 37.828 29.36C38.128 29.91 38.278 30.54 38.278 31.25V32H31.948C31.998 32.68 32.283 33.19 32.803 33.53C33.333 33.86 34.048 34.025 34.948 34.025C35.408 34.025 35.873 33.985 36.343 33.905C36.813 33.815 37.228 33.7 37.588 33.56V34.775C37.268 34.905 36.843 35.01 36.313 35.09C35.793 35.18 35.278 35.225 34.768 35.225ZM36.853 30.935C36.833 30.255 36.608 29.73 36.178 29.36C35.758 28.98 35.158 28.79 34.378 28.79C33.618 28.79 33.028 28.985 32.608 29.375C32.188 29.765 31.968 30.285 31.948 30.935H36.853ZM40.684 23.915H42.199V35H40.684V23.915ZM44.9057 23.915H46.4207V35H44.9057V23.915ZM55.4291 27.8H56.8691V28.835C57.2091 28.415 57.5941 28.1 58.0241 27.89C58.4541 27.68 58.8991 27.575 59.3591 27.575C59.9391 27.575 60.3991 27.675 60.7391 27.875C61.0791 28.065 61.3291 28.36 61.4891 28.76C61.8091 28.37 62.1991 28.075 62.6591 27.875C63.1291 27.675 63.5991 27.575 64.0691 27.575C64.9491 27.575 65.5841 27.8 65.9741 28.25C66.3641 28.69 66.5591 29.345 66.5591 30.215V35H65.0891V30.41C65.0891 29.82 64.9791 29.405 64.7591 29.165C64.5391 28.915 64.1641 28.79 63.6341 28.79C62.8741 28.79 62.2541 29.12 61.7741 29.78C61.7941 29.93 61.8041 30.175 61.8041 30.515V35H60.3341V30.41C60.3341 29.82 60.2341 29.405 60.0341 29.165C59.8341 28.915 59.4741 28.79 58.9541 28.79C58.1941 28.79 57.5141 29.22 56.9141 30.08V35H55.4291V27.8ZM73.1469 35.225C71.8169 35.225 70.7719 34.895 70.0119 34.235C69.2619 33.565 68.8869 32.625 68.8869 31.415C68.8869 30.235 69.2219 29.3 69.8919 28.61C70.5719 27.92 71.5369 27.575 72.7869 27.575C73.6169 27.575 74.3219 27.735 74.9019 28.055C75.4819 28.365 75.9169 28.8 76.2069 29.36C76.5069 29.91 76.6569 30.54 76.6569 31.25V32H70.3269C70.3769 32.68 70.6619 33.19 71.1819 33.53C71.7119 33.86 72.4269 34.025 73.3269 34.025C73.7869 34.025 74.2519 33.985 74.7219 33.905C75.1919 33.815 75.6069 33.7 75.9669 33.56V34.775C75.6469 34.905 75.2219 35.01 74.6919 35.09C74.1719 35.18 73.6569 35.225 73.1469 35.225ZM75.2319 30.935C75.2119 30.255 74.9869 29.73 74.5569 29.36C74.1369 28.98 73.5369 28.79 72.7569 28.79C71.9969 28.79 71.4069 28.985 70.9869 29.375C70.5669 29.765 70.3469 30.285 70.3269 30.935H75.2319ZM79.0629 27.8H80.5329V28.835C80.8729 28.405 81.2879 28.09 81.7779 27.89C82.2779 27.68 82.7979 27.575 83.3379 27.575C84.2979 27.575 85.0129 27.83 85.4829 28.34C85.9529 28.85 86.1879 29.535 86.1879 30.395V35H84.6729V30.545C84.6729 29.375 84.1129 28.79 82.9929 28.79C82.5129 28.79 82.0629 28.905 81.6429 29.135C81.2329 29.355 80.8779 29.695 80.5779 30.155V35H79.0629V27.8ZM92.287 35.225C91.567 35.225 90.917 35.07 90.337 34.76C89.767 34.44 89.317 33.995 88.987 33.425C88.667 32.845 88.507 32.175 88.507 31.415C88.507 30.665 88.667 30 88.987 29.42C89.317 28.84 89.767 28.39 90.337 28.07C90.917 27.74 91.567 27.575 92.287 27.575C93.587 27.575 94.572 27.97 95.242 28.76V23.915H96.757V35H95.287V33.95C94.887 34.39 94.447 34.715 93.967 34.925C93.497 35.125 92.937 35.225 92.287 35.225ZM92.632 34.025C93.252 34.025 93.792 33.865 94.252 33.545C94.722 33.215 95.052 32.775 95.242 32.225V30.605C95.072 30.055 94.747 29.615 94.267 29.285C93.797 28.955 93.252 28.79 92.632 28.79C92.142 28.79 91.697 28.9 91.297 29.12C90.907 29.34 90.597 29.65 90.367 30.05C90.147 30.45 90.037 30.905 90.037 31.415C90.037 31.925 90.147 32.38 90.367 32.78C90.597 33.18 90.907 33.49 91.297 33.71C91.697 33.92 92.142 34.025 92.632 34.025ZM100.344 26.39C100.094 26.39 99.8844 26.305 99.7144 26.135C99.5444 25.965 99.4594 25.755 99.4594 25.505C99.4594 25.255 99.5444 25.045 99.7144 24.875C99.8844 24.705 100.094 24.62 100.344 24.62C100.604 24.62 100.819 24.705 100.989 24.875C101.169 25.045 101.259 25.255 101.259 25.505C101.259 25.755 101.169 25.965 100.989 26.135C100.819 26.305 100.604 26.39 100.344 26.39ZM99.5794 27.8H101.124V35H99.5794V27.8ZM103.959 27.8H105.429V28.835C105.769 28.405 106.184 28.09 106.674 27.89C107.174 27.68 107.694 27.575 108.234 27.575C109.194 27.575 109.909 27.83 110.379 28.34C110.849 28.85 111.084 29.535 111.084 30.395V35H109.569V30.545C109.569 29.375 109.009 28.79 107.889 28.79C107.409 28.79 106.959 28.905 106.539 29.135C106.129 29.355 105.774 29.695 105.474 30.155V35H103.959V27.8ZM117.469 38.45C116.979 38.45 116.499 38.41 116.029 38.33C115.569 38.25 115.179 38.135 114.859 37.985V36.74C115.609 37.08 116.479 37.25 117.469 37.25C118.399 37.25 119.074 37.045 119.494 36.635C119.924 36.235 120.139 35.625 120.139 34.805V34.04C119.479 34.83 118.509 35.225 117.229 35.225C116.499 35.225 115.844 35.065 115.264 34.745C114.684 34.425 114.229 33.975 113.899 33.395C113.569 32.815 113.404 32.15 113.404 31.4C113.404 30.64 113.564 29.975 113.884 29.405C114.214 28.825 114.664 28.375 115.234 28.055C115.814 27.735 116.464 27.575 117.184 27.575C117.854 27.575 118.419 27.675 118.879 27.875C119.349 28.065 119.784 28.385 120.184 28.835V27.8H121.654V34.64C121.654 35.87 121.309 36.81 120.619 37.46C119.939 38.12 118.889 38.45 117.469 38.45ZM117.529 34.025C118.149 34.025 118.694 33.86 119.164 33.53C119.644 33.2 119.969 32.76 120.139 32.21V30.59C119.949 30.03 119.619 29.59 119.149 29.27C118.689 28.95 118.149 28.79 117.529 28.79C117.039 28.79 116.594 28.9 116.194 29.12C115.804 29.33 115.494 29.635 115.264 30.035C115.044 30.435 114.934 30.89 114.934 31.4C114.934 31.92 115.044 32.38 115.264 32.78C115.494 33.17 115.804 33.475 116.194 33.695C116.594 33.915 117.039 34.025 117.529 34.025ZM130.658 24.515H132.203V35H130.658V24.515ZM134.909 24.515H136.454V35H134.909V24.515Z" fill="black"/>
<path d="M12.8691 19.0381L17.1807 17.1875V16.4746L12.8691 14.6289V15.5615L16.0283 16.7334L16.3213 16.8262L16.0283 16.9092L12.8691 18.1006V19.0381ZM20.875 19.0381L25.1865 17.1875V16.4746L20.875 14.6289V15.5615L24.0342 16.7334L24.3271 16.8262L24.0342 16.9092L20.875 18.1006V19.0381ZM36.7012 17.3145V17.417C36.7012 17.7946 36.75 18.1478 36.8477 18.4766C36.9453 18.8021 37.0853 19.0853 37.2676 19.3262C37.4466 19.5671 37.6663 19.7559 37.9268 19.8926C38.1872 20.0293 38.4785 20.0977 38.8008 20.0977C38.9928 20.0977 39.1719 20.0765 39.3379 20.0342C39.5039 19.9951 39.6553 19.9382 39.792 19.8633C39.8799 19.8145 39.9613 19.7575 40.0361 19.6924C40.1143 19.6273 40.1875 19.5557 40.2559 19.4775V19.9316C40.2559 20.1595 40.2233 20.3613 40.1582 20.5371C40.0931 20.7129 40.0003 20.8594 39.8799 20.9766C39.7562 21.097 39.6081 21.1882 39.4355 21.25C39.263 21.3118 39.0693 21.3428 38.8545 21.3428C38.734 21.3428 38.6136 21.3298 38.4932 21.3037C38.3727 21.2809 38.2523 21.2419 38.1318 21.1865C38.0114 21.1312 37.8926 21.0563 37.7754 20.9619C37.6582 20.8708 37.5443 20.7585 37.4336 20.625L36.9648 21.167C37.0853 21.3395 37.2285 21.4844 37.3945 21.6016C37.5638 21.7188 37.7396 21.8115 37.9219 21.8799C38.1009 21.9515 38.2783 22.002 38.4541 22.0312C38.6299 22.0638 38.7861 22.0801 38.9229 22.0801C39.2549 22.0801 39.5576 22.0312 39.8311 21.9336C40.1045 21.8359 40.3405 21.6927 40.5391 21.5039C40.7344 21.3151 40.8857 21.0856 40.9932 20.8154C41.1038 20.5452 41.1592 20.236 41.1592 19.8877V14.7168H40.3389L40.2949 15.293C40.2331 15.2148 40.1663 15.1432 40.0947 15.0781C40.0264 15.013 39.9531 14.9561 39.875 14.9072C39.7318 14.8128 39.5706 14.7412 39.3916 14.6924C39.2158 14.6436 39.0221 14.6191 38.8105 14.6191C38.4818 14.6191 38.1872 14.6859 37.9268 14.8193C37.6663 14.9528 37.445 15.1383 37.2627 15.376C37.0804 15.6136 36.9404 15.8984 36.8428 16.2305C36.7484 16.5592 36.7012 16.9206 36.7012 17.3145ZM37.6045 17.417V17.3145C37.6045 17.0573 37.6305 16.8132 37.6826 16.582C37.738 16.3477 37.8242 16.141 37.9414 15.9619C38.0553 15.7861 38.2018 15.6462 38.3809 15.542C38.5632 15.4378 38.7812 15.3857 39.0352 15.3857C39.1849 15.3857 39.3216 15.4053 39.4453 15.4443C39.569 15.4801 39.6813 15.5306 39.7822 15.5957C39.8831 15.6641 39.9727 15.7438 40.0508 15.835C40.1289 15.9261 40.1973 16.027 40.2559 16.1377V18.5596C40.1973 18.6735 40.1289 18.7777 40.0508 18.8721C39.9727 18.9665 39.8848 19.0479 39.7871 19.1162C39.6862 19.1846 39.5723 19.2383 39.4453 19.2773C39.3216 19.3132 39.1816 19.3311 39.0254 19.3311C38.7747 19.3311 38.5599 19.2806 38.3809 19.1797C38.2018 19.0755 38.0553 18.9355 37.9414 18.7598C37.8242 18.584 37.738 18.3805 37.6826 18.1494C37.6305 17.9183 37.6045 17.6742 37.6045 17.417ZM47.207 20.0977C47.7214 20.0977 48.1527 19.9951 48.501 19.79C48.8525 19.5817 49.1162 19.3441 49.292 19.0771L48.7402 18.6475C48.5742 18.8623 48.3659 19.0348 48.1152 19.165C47.8646 19.2952 47.5781 19.3604 47.2559 19.3604C47.0117 19.3604 46.7887 19.3148 46.5869 19.2236C46.3851 19.1325 46.2126 19.0072 46.0693 18.8477C45.9294 18.6979 45.8187 18.5254 45.7373 18.3301C45.6592 18.1348 45.6087 17.9085 45.5859 17.6514V17.6172H49.3604V17.2119C49.3604 16.8441 49.3132 16.5023 49.2188 16.1865C49.1276 15.8708 48.9876 15.5957 48.7988 15.3613C48.61 15.1302 48.3724 14.9495 48.0859 14.8193C47.8027 14.6859 47.4707 14.6191 47.0898 14.6191C46.7871 14.6191 46.4909 14.681 46.2012 14.8047C45.9147 14.9284 45.6592 15.1058 45.4346 15.3369C45.2067 15.5713 45.0244 15.8577 44.8877 16.1963C44.751 16.5316 44.6826 16.9124 44.6826 17.3389V17.5439C44.6826 17.9118 44.7445 18.252 44.8682 18.5645C44.9919 18.877 45.1644 19.1471 45.3857 19.375C45.6071 19.6029 45.8724 19.7803 46.1816 19.9072C46.4941 20.0342 46.8359 20.0977 47.207 20.0977ZM47.0898 15.3613C47.321 15.3613 47.5195 15.4036 47.6855 15.4883C47.8548 15.5729 47.9948 15.6836 48.1055 15.8203C48.2161 15.957 48.3024 16.1198 48.3643 16.3086C48.4261 16.4941 48.457 16.6683 48.457 16.8311V16.875H45.6152C45.651 16.6309 45.7129 16.416 45.8008 16.2305C45.8919 16.0417 46.0026 15.8822 46.1328 15.752C46.263 15.625 46.4095 15.529 46.5723 15.4639C46.735 15.3955 46.9076 15.3613 47.0898 15.3613ZM56.3506 20H57.293V19.9219C57.2344 19.7754 57.1888 19.6045 57.1562 19.4092C57.1237 19.2106 57.1074 19.0234 57.1074 18.8477V16.3916C57.1074 16.0954 57.0537 15.8366 56.9463 15.6152C56.8389 15.3939 56.6924 15.2083 56.5068 15.0586C56.318 14.9121 56.0951 14.8031 55.8379 14.7314C55.5807 14.6566 55.3024 14.6191 55.0029 14.6191C54.6742 14.6191 54.3796 14.6647 54.1191 14.7559C53.862 14.847 53.6439 14.9658 53.4648 15.1123C53.2826 15.262 53.1426 15.4297 53.0449 15.6152C52.9505 15.8008 52.9017 15.9896 52.8984 16.1816H53.8066C53.8066 16.071 53.8327 15.9652 53.8848 15.8643C53.9401 15.7601 54.0166 15.6706 54.1143 15.5957C54.2119 15.5208 54.3307 15.4606 54.4707 15.415C54.6139 15.3695 54.7751 15.3467 54.9541 15.3467C55.1462 15.3467 55.3187 15.3711 55.4717 15.4199C55.6279 15.4688 55.7598 15.5371 55.8672 15.625C55.9746 15.7161 56.0576 15.8252 56.1162 15.9521C56.1748 16.0791 56.2041 16.2223 56.2041 16.3818V16.7969H55.2178C54.8499 16.7969 54.5163 16.8327 54.2168 16.9043C53.9206 16.9759 53.6667 17.0833 53.4551 17.2266C53.2435 17.373 53.0791 17.5553 52.9619 17.7734C52.848 17.9915 52.791 18.2454 52.791 18.5352C52.791 18.7565 52.8333 18.9632 52.918 19.1553C53.0059 19.3441 53.1296 19.5068 53.2891 19.6436C53.4453 19.7835 53.6357 19.8942 53.8604 19.9756C54.0882 20.057 54.3421 20.0977 54.6221 20.0977C54.7946 20.0977 54.9574 20.0798 55.1104 20.0439C55.2633 20.0081 55.4082 19.9593 55.5449 19.8975C55.6784 19.8356 55.8005 19.764 55.9111 19.6826C56.0251 19.6012 56.1276 19.515 56.2188 19.4238C56.2285 19.5345 56.2432 19.6419 56.2627 19.7461C56.2855 19.847 56.3148 19.9316 56.3506 20ZM54.7539 19.3115C54.5781 19.3115 54.4235 19.2887 54.29 19.2432C54.1566 19.1976 54.0459 19.1341 53.958 19.0527C53.8701 18.9746 53.8034 18.8802 53.7578 18.7695C53.7155 18.6589 53.6943 18.5384 53.6943 18.4082C53.6943 18.2715 53.7188 18.1494 53.7676 18.042C53.8197 17.9346 53.8945 17.8418 53.9922 17.7637C54.1289 17.653 54.3128 17.5716 54.5439 17.5195C54.7783 17.4642 55.0518 17.4365 55.3643 17.4365H56.2041V18.5059C56.152 18.61 56.0804 18.7109 55.9893 18.8086C55.8981 18.903 55.7907 18.9876 55.667 19.0625C55.54 19.1374 55.4001 19.1976 55.2471 19.2432C55.0941 19.2887 54.9297 19.3115 54.7539 19.3115ZM64.3467 14.6191C63.9626 14.6191 63.6191 14.7038 63.3164 14.873C63.0169 15.0391 62.7598 15.2669 62.5449 15.5566L62.54 15.4248L62.501 14.7168H61.6416V20H62.5498V16.6113C62.6084 16.4486 62.6816 16.3021 62.7695 16.1719C62.8607 16.0384 62.9665 15.9261 63.0869 15.835C63.2204 15.7308 63.3766 15.6527 63.5557 15.6006C63.7347 15.5452 63.9349 15.5176 64.1562 15.5176C64.3288 15.5176 64.4932 15.5273 64.6494 15.5469C64.8089 15.5632 64.9766 15.5908 65.1523 15.6299L65.2744 14.7461C65.1833 14.707 65.0465 14.6761 64.8643 14.6533C64.6852 14.6305 64.5127 14.6191 64.3467 14.6191Z" fill="#707070"/>
<path fill-rule="evenodd" clip-rule="evenodd" d="M80 117L78 131.5L76.1271 130.835L73.5714 115.714L80 117ZM65.409 114.082L67.3315 127.714L47 120.5L33.5 84L56.5 49.5L90 47.5L115 71V103L99 114L72.6987 110.551L71 100.5L79.4785 89.3238L90 94L95.5 80L73 65L72.4388 65.5737L71 62.5L71.8539 66.1716L50.5 88L65 114L65.409 114.082ZM63.5548 100.934L63 97L76 84L72.9812 71.0193L56.5 88L63.5548 100.934ZM75.6859 72.5108L81.8159 85.6067L87.5 88L89 80L75.6859 72.5108Z" fill="#EB8D00"/>
<path opacity="0.9" fill-rule="evenodd" clip-rule="evenodd" d="M19.7895 109.693H28.1579L26.2982 123.175H19.7895L17 131.544H42.5702H68.6053L70 123.175H57.9123V109.693H68.6053L66.2807 99H17L19.7895 109.693ZM37.4561 123.175L35.5965 109.693H52.7982L50.4737 123.175H37.4561Z" fill="#993483"/>
<path opacity="0.9" d="M101.408 76L102.676 64.2985H90V59.2836L102.676 58.4478V48H109.859V58.4478L120 59.2836V64.2985H108.592L109.859 76H101.408Z" fill="#FF00C7"/>
<path d="M129.779 17V9.89062H129.706L127.016 10.9258V11.751L128.876 11.043V17H129.779ZM137.318 14.2803V12.6152C137.318 12.1628 137.266 11.7624 137.162 11.4141C137.058 11.0625 136.908 10.7663 136.713 10.5254C136.514 10.2845 136.272 10.1022 135.985 9.97852C135.702 9.85156 135.378 9.78809 135.014 9.78809C134.652 9.78809 134.328 9.85156 134.042 9.97852C133.759 10.1022 133.52 10.2845 133.324 10.5254C133.126 10.7663 132.974 11.0625 132.87 11.4141C132.766 11.7624 132.714 12.1628 132.714 12.6152V14.2803C132.714 14.7327 132.766 15.1348 132.87 15.4863C132.974 15.8346 133.126 16.1276 133.324 16.3652C133.523 16.6094 133.765 16.7933 134.052 16.917C134.338 17.0374 134.662 17.0977 135.023 17.0977C135.388 17.0977 135.712 17.0358 135.995 16.9121C136.278 16.7884 136.518 16.6061 136.713 16.3652C136.908 16.1276 137.058 15.8346 137.162 15.4863C137.266 15.1348 137.318 14.7327 137.318 14.2803ZM133.622 14.0996C133.622 14.015 133.622 13.932 133.622 13.8506C133.622 13.7692 133.622 13.6878 133.622 13.6064V12.415C133.622 12.083 133.655 11.7917 133.72 11.541C133.788 11.2871 133.891 11.0804 134.027 10.9209C134.141 10.7939 134.28 10.6979 134.442 10.6328C134.608 10.5645 134.799 10.5303 135.014 10.5303C135.225 10.5303 135.411 10.5612 135.57 10.623C135.733 10.6849 135.87 10.7777 135.98 10.9014C136.094 11.0218 136.184 11.1732 136.249 11.3555C136.317 11.5345 136.365 11.7412 136.391 11.9756L133.622 14.0996ZM136.41 14.4707C136.41 14.819 136.374 15.1217 136.303 15.3789C136.234 15.6361 136.125 15.8444 135.976 16.0039C135.865 16.1211 135.73 16.2106 135.57 16.2725C135.411 16.3343 135.229 16.3652 135.023 16.3652C134.828 16.3652 134.652 16.3376 134.496 16.2822C134.34 16.2236 134.206 16.139 134.096 16.0283C133.975 15.9111 133.878 15.763 133.803 15.584C133.728 15.4017 133.676 15.1917 133.646 14.9541L136.41 12.8398C136.41 12.931 136.41 13.0465 136.41 13.1865C136.41 13.3232 136.41 13.416 136.41 13.4648V14.4707Z" fill="#FF00C7"/>
<path opacity="0.9" d="M117.803 18L118.225 14.2388H114V12.6269L118.225 12.3582V9H120.62V12.3582L124 12.6269V14.2388H120.197L120.62 18H117.803Z" fill="#FF00C7"/>
</svg>
