<svg width="167" height="122" viewBox="0 0 167 122" fill="none" xmlns="http://www.w3.org/2000/svg">
<path opacity="0.5" fill-rule="evenodd" clip-rule="evenodd" d="M0 46.8987L38.2708 59.574L45.2292 37.3922L78.7557 10.774L127.148 0L150.869 12.6753L167 37.3922L161 69L127.148 92.5L76 100L47 95.5L24.5 122L0 46.8987ZM119 40.5C119 44.0899 116.09 47 112.5 47C108.91 47 106 44.0899 106 40.5C106 36.9101 108.91 34 112.5 34C116.09 34 119 36.9101 119 40.5ZM136.5 44C140.09 44 143 41.0899 143 37.5C143 33.9101 140.09 31 136.5 31C132.91 31 130 33.9101 130 37.5C130 41.0899 132.91 44 136.5 44Z" fill="#44A5FF"/>
</svg>
