<svg width="1440" height="423" viewBox="0 0 1440 423" fill="none" xmlns="http://www.w3.org/2000/svg">
<g opacity="0.5">
<circle cx="764.572" cy="465.13" r="50" transform="rotate(-10.6096 764.572 465.13)" fill="#FFA825"/>
<circle cx="862.862" cy="446.719" r="50" transform="rotate(-10.6096 862.862 446.719)" fill="#FFA825"/>
<circle cx="961.153" cy="428.307" r="50" transform="rotate(-10.6096 961.153 428.307)" fill="#FFA825"/>
<circle cx="1059.44" cy="409.896" r="50" transform="rotate(-10.6096 1059.44 409.896)" fill="#FFA825"/>
<circle cx="1157.73" cy="391.484" r="50" transform="rotate(-10.6096 1157.73 391.484)" fill="#FFA825"/>
<circle cx="1256.02" cy="373.073" r="50" transform="rotate(-10.6096 1256.02 373.073)" fill="#FFA825"/>
<circle cx="1354.31" cy="354.661" r="50" transform="rotate(-10.6096 1354.31 354.661)" fill="#FFA825"/>
<circle cx="1452.24" cy="334.284" r="50" transform="rotate(-10.6096 1452.24 334.284)" fill="#FFA825"/>
<circle cx="355.576" cy="454.247" r="40" transform="rotate(-10.6096 355.576 454.247)" fill="#FFA825"/>
<circle cx="453.866" cy="435.835" r="40" transform="rotate(-10.6096 453.866 435.835)" fill="#FFA825"/>
<circle cx="552.157" cy="417.424" r="40" transform="rotate(-10.6096 552.157 417.424)" fill="#FFA825"/>
<circle cx="649.711" cy="395.081" r="40" transform="rotate(-10.6096 649.711 395.081)" fill="#FFA825"/>
<circle cx="748.001" cy="376.669" r="40" transform="rotate(-10.6096 748.001 376.669)" fill="#FFA825"/>
<circle cx="846.292" cy="358.257" r="40" transform="rotate(-10.6096 846.292 358.257)" fill="#FFA825"/>
<circle cx="944.582" cy="339.846" r="40" transform="rotate(-10.6096 944.582 339.846)" fill="#FFA825"/>
<circle cx="1042.87" cy="321.434" r="40" transform="rotate(-10.6096 1042.87 321.434)" fill="#FFA825"/>
<circle cx="1141.16" cy="303.023" r="40" transform="rotate(-10.6096 1141.16 303.023)" fill="#FFA825"/>
<circle cx="1239.45" cy="284.611" r="40" transform="rotate(-10.6096 1239.45 284.611)" fill="#FFA825"/>
<circle cx="1337.74" cy="266.2" r="40" transform="rotate(-10.6096 1337.74 266.2)" fill="#FFA825"/>
<circle cx="1435.67" cy="245.822" r="40" transform="rotate(-10.6096 1435.67 245.822)" fill="#FFA825"/>
<circle cx="45.9753" cy="430.849" r="30" transform="rotate(-10.6096 45.9753 430.849)" fill="#FFA825"/>
<circle cx="144.266" cy="412.438" r="30" transform="rotate(-10.6096 144.266 412.438)" fill="#FFA825"/>
<circle cx="242.556" cy="394.026" r="30" transform="rotate(-10.6096 242.556 394.026)" fill="#FFA825"/>
<circle cx="340.847" cy="375.615" r="30" transform="rotate(-10.6096 340.847 375.615)" fill="#FFA825"/>
<circle cx="439.137" cy="357.203" r="30" transform="rotate(-10.6096 439.137 357.203)" fill="#FFA825"/>
<circle cx="537.428" cy="338.791" r="30" transform="rotate(-10.6096 537.428 338.791)" fill="#FFA825"/>
<circle cx="635.718" cy="320.38" r="30" transform="rotate(-10.6096 635.718 320.38)" fill="#FFA825"/>
<circle cx="734.008" cy="301.968" r="30" transform="rotate(-10.6096 734.008 301.968)" fill="#FFA825"/>
<circle cx="832.299" cy="283.557" r="30" transform="rotate(-10.6096 832.299 283.557)" fill="#FFA825"/>
<circle cx="930.589" cy="265.145" r="30" transform="rotate(-10.6096 930.589 265.145)" fill="#FFA825"/>
<circle cx="1028.88" cy="246.734" r="30" transform="rotate(-10.6096 1028.88 246.734)" fill="#FFA825"/>
<circle cx="1127.17" cy="228.322" r="30" transform="rotate(-10.6096 1127.17 228.322)" fill="#FFA825"/>
<circle cx="1225.46" cy="209.91" r="30" transform="rotate(-10.6096 1225.46 209.91)" fill="#FFA825"/>
<circle cx="1323.75" cy="191.499" r="30" transform="rotate(-10.6096 1323.75 191.499)" fill="#FFA825"/>
<circle cx="1421.67" cy="171.121" r="30" transform="rotate(-10.6096 1421.67 171.121)" fill="#FFA825"/>
<circle cx="33.0872" cy="362.046" r="20" transform="rotate(-10.6096 33.0872 362.046)" fill="#FFA825"/>
<circle cx="131.378" cy="343.634" r="20" transform="rotate(-10.6096 131.378 343.634)" fill="#FFA825"/>
<circle cx="229.668" cy="325.223" r="20" transform="rotate(-10.6096 229.668 325.223)" fill="#FFA825"/>
<circle cx="327.959" cy="306.811" r="20" transform="rotate(-10.6096 327.959 306.811)" fill="#FFA825"/>
<circle cx="426.249" cy="288.4" r="20" transform="rotate(-10.6096 426.249 288.4)" fill="#FFA825"/>
<circle cx="524.539" cy="269.988" r="20" transform="rotate(-10.6096 524.539 269.988)" fill="#FFA825"/>
<circle cx="622.83" cy="251.577" r="20" transform="rotate(-10.6096 622.83 251.577)" fill="#FFA825"/>
<circle cx="721.12" cy="233.165" r="20" transform="rotate(-10.6096 721.12 233.165)" fill="#FFA825"/>
<circle cx="819.411" cy="214.753" r="20" transform="rotate(-10.6096 819.411 214.753)" fill="#FFA825"/>
<circle cx="917.701" cy="196.342" r="20" transform="rotate(-10.6096 917.701 196.342)" fill="#FFA825"/>
<circle cx="1015.99" cy="177.93" r="20" transform="rotate(-10.6096 1015.99 177.93)" fill="#FFA825"/>
<circle cx="1114.28" cy="159.519" r="20" transform="rotate(-10.6096 1114.28 159.519)" fill="#FFA825"/>
<circle cx="1212.57" cy="141.107" r="20" transform="rotate(-10.6096 1212.57 141.107)" fill="#FFA825"/>
<circle cx="1310.86" cy="122.696" r="20" transform="rotate(-10.6096 1310.86 122.696)" fill="#FFA825"/>
<circle cx="1408.79" cy="102.318" r="20" transform="rotate(-10.6096 1408.79 102.318)" fill="#FFA825"/>
<circle cx="20.9355" cy="297.174" r="10" transform="rotate(-10.6096 20.9355 297.174)" fill="#FFA825"/>
<circle cx="119.226" cy="278.763" r="10" transform="rotate(-10.6096 119.226 278.763)" fill="#FFA825"/>
<circle cx="217.516" cy="260.351" r="10" transform="rotate(-10.6096 217.516 260.351)" fill="#FFA825"/>
<circle cx="315.807" cy="241.94" r="10" transform="rotate(-10.6096 315.807 241.94)" fill="#FFA825"/>
<circle cx="414.097" cy="223.528" r="10" transform="rotate(-10.6096 414.097 223.528)" fill="#FFA825"/>
<circle cx="512.388" cy="205.116" r="10" transform="rotate(-10.6096 512.388 205.116)" fill="#FFA825"/>
<circle cx="610.678" cy="186.705" r="10" transform="rotate(-10.6096 610.678 186.705)" fill="#FFA825"/>
<circle cx="708.969" cy="168.293" r="10" transform="rotate(-10.6096 708.969 168.293)" fill="#FFA825"/>
<circle cx="807.259" cy="149.882" r="10" transform="rotate(-10.6096 807.259 149.882)" fill="#FFA825"/>
<circle cx="905.55" cy="131.47" r="10" transform="rotate(-10.6096 905.55 131.47)" fill="#FFA825"/>
<circle cx="1003.84" cy="113.059" r="10" transform="rotate(-10.6096 1003.84 113.059)" fill="#FFA825"/>
<circle cx="1102.13" cy="94.6469" r="10" transform="rotate(-10.6096 1102.13 94.6469)" fill="#FFA825"/>
<circle cx="1200.42" cy="76.2354" r="10" transform="rotate(-10.6096 1200.42 76.2354)" fill="#FFA825"/>
<circle cx="1298.71" cy="57.8238" r="10" transform="rotate(-10.6096 1298.71 57.8238)" fill="#FFA825"/>
<circle cx="1396.63" cy="37.4464" r="10" transform="rotate(-10.6096 1396.63 37.4464)" fill="#FFA825"/>
<path d="M1530 325L997.5 418L983.5 456.5L1522 490L1530 325Z" fill="#FFA825"/>
</g>
</svg>
