<svg width="2000" height="2000" viewBox="0 0 2000 2000" fill="none" xmlns="http://www.w3.org/2000/svg">
<rect width="2000" height="2000" fill="#FFFBE4"/>
<rect opacity="0.5" x="500" y="500" width="1000" height="1000" fill="#1448FF"/>
<path opacity="0.1" fill-rule="evenodd" clip-rule="evenodd" d="M500 584.629V543.573L575.47 500H646.581L500 584.629ZM500 660.326V619.27L706.581 500H777.692L500 660.326ZM500 736.023V694.967L837.692 500H908.803L500 736.023ZM500 811.72V770.664L968.803 500H1039.91L500 811.72ZM500 887.417V846.361L1099.91 500H1171.03L500 887.417ZM500 963.114V922.058L1231.03 500H1302.14L500 963.114ZM500 1038.81V997.755L1362.14 500H1433.25L500 1038.81ZM500 1114.51V1073.45L1493.25 500L1500 500V537.158L500 1114.51ZM500 1190.2V1149.15L1500 571.799V612.855L500 1190.2ZM500 1265.9V1224.85L1500 647.496V688.552L500 1265.9ZM500 1341.6V1300.54L1500 723.193V764.249L500 1341.6ZM500 1417.3V1376.24L1500 798.89V839.946L500 1417.3ZM500 1492.99V1451.94L1500 874.587V915.643L500 1492.99ZM618.975 1500H547.864L1500 950.284V991.34L618.975 1500ZM750.086 1500H678.975L1500 1025.98V1067.04L750.086 1500ZM881.197 1500H810.086L1500 1101.68V1142.73L881.197 1500ZM1012.31 1500H941.197L1500 1177.37V1218.43L1012.31 1500ZM1143.42 1500H1072.31L1500 1253.07V1294.13L1143.42 1500ZM1274.53 1500H1203.42L1500 1328.77V1369.83L1274.53 1500ZM1405.64 1500H1334.53L1500 1404.47V1445.52L1405.64 1500ZM1500 1480.16V1500H1465.64L1500 1480.16ZM515.47 500L500 508.932V500H515.47Z" fill="#1448FF"/>
<path fill-rule="evenodd" clip-rule="evenodd" d="M738.889 691.111L740.555 724.444L760.555 750.556L783.889 728.333V703.889L758.889 688.889L738.889 691.111ZM721.666 733.333L731.666 691.111V730L754.444 760L721.666 733.333ZM712.222 697.222L707.222 738.889L734.444 767.778L717.222 738.889L712.222 697.222ZM696.111 708.333L688.333 747.222L715 771.111L699.444 745L696.111 708.333ZM674.444 750.556L647.778 722.778L684.444 747.222L671.111 786.667L674.444 750.556ZM758.334 705L760.556 697.778L765 700.556L762.778 705L766.667 708.889L765 713.333L760.556 708.889L757.222 713.333L753.334 711.111L757.222 707.778L751.667 705L753.334 700.556L758.334 705Z" fill="#5269BF"/>
<path fill-rule="evenodd" clip-rule="evenodd" d="M1246.28 817.655L1244.91 796.08L1231.59 779.337L1216.48 793.926L1216.69 809.758L1233.2 819.263L1246.28 817.655ZM1257.22 790.164L1251.02 817.594L1250.69 792.407L1235.52 773.168L1257.22 790.164ZM1263.71 813.473L1266.64 786.444L1248.56 767.963L1260.08 786.528L1263.71 813.473ZM1274.17 806.141L1278.95 780.888L1261.27 765.64L1271.68 782.421L1274.17 806.141ZM1288.02 778.612L1305.73 796.379L1281.49 780.856L1289.9 755.196L1288.02 778.612ZM1233.43 808.823L1232.03 813.519L1229.09 811.758L1230.51 808.861L1227.93 806.374L1228.99 803.482L1231.94 806.323L1234.08 803.416L1236.65 804.823L1234.13 807.015L1237.79 808.767L1236.74 811.66L1233.43 808.823Z" fill="#5269BF"/>
<path fill-rule="evenodd" clip-rule="evenodd" d="M1379.83 1223.87L1348.06 1234.23L1328.38 1261.77L1356.36 1280.24L1380 1273.91L1387.55 1244.06L1379.83 1223.87ZM1334.21 1216.92L1376.66 1212.85L1340.22 1226.44L1319.17 1248.64L1334.21 1216.92ZM1366.5 1197.75L1323.9 1198.8L1304.46 1239.11L1329.67 1209.61L1366.5 1197.75ZM1349.87 1182.59L1311.51 1185.9L1295.83 1219.78L1318.22 1193.94L1349.87 1182.59ZM1303.24 1168.7L1326.35 1144.16L1310.43 1181.86L1273.38 1185.2L1303.24 1168.7ZM1371.81 1247.66L1379.42 1248.1L1377.97 1253.43L1373.05 1252.27L1372.61 1257.36L1367.85 1256.78L1368.67 1250.97L1363.49 1251.04L1364.55 1246.43L1368.82 1247.22L1369.96 1240.73L1374.72 1241.31L1371.81 1247.66Z" fill="#5269BF"/>
<path fill-rule="evenodd" clip-rule="evenodd" d="M659.178 1306.34L670.224 1284.59L666.169 1260.22L642.19 1265.12L633.258 1280.59L644.771 1299.9L659.178 1306.34ZM686.311 1286.38L666.502 1310.39L678.296 1284.56L677.699 1262.24L686.311 1286.38ZM679.537 1312.94L700.988 1290.4L690.211 1259.57L692.43 1287.81L679.537 1312.94ZM695.949 1312.18L714.043 1290.67L704.646 1265.09L706.424 1289.99L695.949 1312.18ZM727.185 1295.28L727.927 1319.87L716.687 1292.2L734.089 1271.35L727.185 1295.28ZM651.035 1289.92L646.886 1293.62L644.88 1290.12L648.014 1288.18L645.616 1285.32L648.373 1283.16L650.946 1286.59L653.586 1283.88L655.418 1286.81L652.805 1288.6L655.567 1292.54L652.81 1294.69L651.035 1289.92Z" fill="#5269BF"/>
<path opacity="0.23" fill-rule="evenodd" clip-rule="evenodd" d="M173.718 1708.53L236.791 1668L324.811 1678.37L378 1732.09L355.407 1797.6L275.859 1826.34L183.132 1805.61L124.295 1832L121 1678.37L173.718 1708.53ZM214.3 1742L214.15 1742.3V1744.45L214.3 1744.65L219.65 1743.3C219.683 1743.67 219.717 1744 219.75 1744.3C219.783 1744.6 219.8 1744.95 219.8 1745.35C219.833 1745.75 219.85 1746.25 219.85 1746.85V1749.15V1756.3V1759.2C219.85 1759.97 219.833 1760.63 219.8 1761.2C219.8 1761.73 219.783 1762.22 219.75 1762.65C219.717 1763.05 219.683 1763.47 219.65 1763.9C219.583 1764.57 219.433 1765.08 219.2 1765.45C218.967 1765.82 218.717 1766.12 218.45 1766.35C218.183 1766.62 217.7 1766.82 217 1766.95C216.333 1767.05 215.733 1767.1 215.2 1767.1L215.05 1767.3L214.95 1769L215.05 1769.2C215.283 1769.2 215.633 1769.18 216.1 1769.15C216.567 1769.12 217.067 1769.08 217.6 1769.05C218.133 1769.05 218.633 1769.03 219.1 1769H220.15H225H226.05C226.517 1769.03 227.017 1769.05 227.55 1769.05C228.083 1769.08 228.583 1769.12 229.05 1769.15C229.517 1769.18 229.867 1769.2 230.1 1769.2L230.2 1769L230.1 1767.35L229.85 1767.1C229.35 1767.1 228.783 1767.03 228.15 1766.9C227.517 1766.77 227.05 1766.58 226.75 1766.35C226.483 1766.12 226.233 1765.83 226 1765.5C225.767 1765.13 225.617 1764.6 225.55 1763.9C225.483 1763.33 225.433 1762.82 225.4 1762.35C225.4 1761.88 225.383 1761.35 225.35 1760.75V1758.55V1755.1V1749.05V1745.6V1743.3C225.383 1742.67 225.4 1742.12 225.4 1741.65C225.433 1741.18 225.467 1740.68 225.5 1740.15V1739.35C225.533 1739.02 225.55 1738.67 225.55 1738.3C225.583 1737.93 225.6 1737.58 225.6 1737.25C225.633 1736.88 225.667 1736.57 225.7 1736.3L224.1 1735.85H223.75C222.25 1737.28 220.733 1738.45 219.2 1739.35C217.667 1740.25 216.033 1741.13 214.3 1742ZM263.374 1737.1C261.741 1736.2 259.874 1735.75 257.774 1735.75C255.674 1735.75 253.808 1736.2 252.174 1737.1C250.541 1738 249.158 1739.23 248.024 1740.8C246.891 1742.33 246.024 1744.15 245.424 1746.25C244.824 1748.32 244.524 1750.53 244.524 1752.9C244.524 1755.13 244.791 1757.27 245.324 1759.3C245.891 1761.3 246.708 1763.07 247.774 1764.6C248.874 1766.1 250.224 1767.3 251.824 1768.2C253.458 1769.1 255.358 1769.55 257.524 1769.55C259.724 1769.55 261.674 1769.08 263.374 1768.15C265.074 1767.18 266.491 1765.92 267.624 1764.35C268.758 1762.78 269.608 1760.98 270.174 1758.95C270.774 1756.88 271.074 1754.75 271.074 1752.55C271.074 1750.32 270.774 1748.18 270.174 1746.15C269.574 1744.12 268.708 1742.33 267.574 1740.8C266.441 1739.23 265.041 1738 263.374 1737.1ZM260.874 1764.4C259.974 1765.07 258.924 1765.4 257.724 1765.4C256.658 1765.4 255.674 1765.1 254.774 1764.5C253.908 1763.9 253.141 1763.05 252.474 1761.95C251.841 1760.85 251.341 1759.52 250.974 1757.95C250.608 1756.35 250.424 1754.55 250.424 1752.55C250.424 1750.75 250.574 1749.08 250.874 1747.55C251.208 1745.98 251.674 1744.63 252.274 1743.5C252.874 1742.37 253.608 1741.48 254.474 1740.85C255.374 1740.22 256.408 1739.9 257.574 1739.9C258.741 1739.9 259.791 1740.23 260.724 1740.9C261.691 1741.53 262.508 1742.42 263.174 1743.55C263.841 1744.68 264.341 1746.03 264.674 1747.6C265.041 1749.13 265.224 1750.8 265.224 1752.6C265.224 1754.37 265.058 1756.03 264.724 1757.6C264.391 1759.13 263.891 1760.48 263.224 1761.65C262.591 1762.78 261.808 1763.7 260.874 1764.4ZM305.259 1737.1C303.626 1736.2 301.759 1735.75 299.659 1735.75C297.559 1735.75 295.692 1736.2 294.059 1737.1C292.426 1738 291.042 1739.23 289.909 1740.8C288.776 1742.33 287.909 1744.15 287.309 1746.25C286.709 1748.32 286.409 1750.53 286.409 1752.9C286.409 1755.13 286.676 1757.27 287.209 1759.3C287.776 1761.3 288.592 1763.07 289.659 1764.6C290.759 1766.1 292.109 1767.3 293.709 1768.2C295.342 1769.1 297.242 1769.55 299.409 1769.55C301.609 1769.55 303.559 1769.08 305.259 1768.15C306.959 1767.18 308.376 1765.92 309.509 1764.35C310.642 1762.78 311.492 1760.98 312.059 1758.95C312.659 1756.88 312.959 1754.75 312.959 1752.55C312.959 1750.32 312.659 1748.18 312.059 1746.15C311.459 1744.12 310.592 1742.33 309.459 1740.8C308.326 1739.23 306.926 1738 305.259 1737.1ZM302.759 1764.4C301.859 1765.07 300.809 1765.4 299.609 1765.4C298.542 1765.4 297.559 1765.1 296.659 1764.5C295.792 1763.9 295.026 1763.05 294.359 1761.95C293.726 1760.85 293.226 1759.52 292.859 1757.95C292.492 1756.35 292.309 1754.55 292.309 1752.55C292.309 1750.75 292.459 1749.08 292.759 1747.55C293.092 1745.98 293.559 1744.63 294.159 1743.5C294.759 1742.37 295.492 1741.48 296.359 1740.85C297.259 1740.22 298.292 1739.9 299.459 1739.9C300.626 1739.9 301.676 1740.23 302.609 1740.9C303.576 1741.53 304.392 1742.42 305.059 1743.55C305.726 1744.68 306.226 1746.03 306.559 1747.6C306.926 1749.13 307.109 1750.8 307.109 1752.6C307.109 1754.37 306.942 1756.03 306.609 1757.6C306.276 1759.13 305.776 1760.48 305.109 1761.65C304.476 1762.78 303.692 1763.7 302.759 1764.4Z" fill="#FFA825"/>
<path opacity="0.23" fill-rule="evenodd" clip-rule="evenodd" d="M1708.53 1826.28L1668 1763.21L1678.37 1675.19L1732.09 1622L1797.6 1644.59L1826.34 1724.14L1805.61 1816.87L1832 1875.71L1678.37 1879L1708.53 1826.28ZM1742 1785.7L1742.3 1785.85L1744.45 1785.85L1744.65 1785.7L1743.3 1780.35C1743.67 1780.32 1744 1780.28 1744.3 1780.25C1744.6 1780.22 1744.95 1780.2 1745.35 1780.2C1745.75 1780.17 1746.25 1780.15 1746.85 1780.15L1749.15 1780.15L1756.3 1780.15L1759.2 1780.15C1759.97 1780.15 1760.63 1780.17 1761.2 1780.2C1761.73 1780.2 1762.22 1780.22 1762.65 1780.25C1763.05 1780.28 1763.47 1780.32 1763.9 1780.35C1764.57 1780.42 1765.08 1780.57 1765.45 1780.8C1765.82 1781.03 1766.12 1781.28 1766.35 1781.55C1766.62 1781.82 1766.82 1782.3 1766.95 1783C1767.05 1783.67 1767.1 1784.27 1767.1 1784.8L1767.3 1784.95L1769 1785.05L1769.2 1784.95C1769.2 1784.72 1769.18 1784.37 1769.15 1783.9C1769.12 1783.43 1769.08 1782.93 1769.05 1782.4C1769.05 1781.87 1769.03 1781.37 1769 1780.9L1769 1779.85L1769 1775L1769 1773.95C1769.03 1773.48 1769.05 1772.98 1769.05 1772.45C1769.08 1771.92 1769.12 1771.42 1769.15 1770.95C1769.18 1770.48 1769.2 1770.13 1769.2 1769.9L1769 1769.8L1767.35 1769.9L1767.1 1770.15C1767.1 1770.65 1767.03 1771.22 1766.9 1771.85C1766.77 1772.48 1766.58 1772.95 1766.35 1773.25C1766.12 1773.52 1765.83 1773.77 1765.5 1774C1765.13 1774.23 1764.6 1774.38 1763.9 1774.45C1763.33 1774.52 1762.82 1774.57 1762.35 1774.6C1761.88 1774.6 1761.35 1774.62 1760.75 1774.65L1758.55 1774.65L1755.1 1774.65L1749.05 1774.65L1745.6 1774.65L1743.3 1774.65C1742.67 1774.62 1742.12 1774.6 1741.65 1774.6C1741.18 1774.57 1740.68 1774.53 1740.15 1774.5L1739.35 1774.5C1739.02 1774.47 1738.67 1774.45 1738.3 1774.45C1737.93 1774.42 1737.58 1774.4 1737.25 1774.4C1736.88 1774.37 1736.57 1774.33 1736.3 1774.3L1735.85 1775.9L1735.85 1776.25C1737.28 1777.75 1738.45 1779.27 1739.35 1780.8C1740.25 1782.33 1741.13 1783.97 1742 1785.7ZM1737.1 1736.63C1736.2 1738.26 1735.75 1740.13 1735.75 1742.23C1735.75 1744.33 1736.2 1746.19 1737.1 1747.83C1738 1749.46 1739.23 1750.84 1740.8 1751.98C1742.33 1753.11 1744.15 1753.98 1746.25 1754.58C1748.32 1755.18 1750.53 1755.48 1752.9 1755.48C1755.13 1755.48 1757.27 1755.21 1759.3 1754.68C1761.3 1754.11 1763.07 1753.29 1764.6 1752.23C1766.1 1751.13 1767.3 1749.78 1768.2 1748.18C1769.1 1746.54 1769.55 1744.64 1769.55 1742.48C1769.55 1740.28 1769.08 1738.33 1768.15 1736.63C1767.18 1734.93 1765.92 1733.51 1764.35 1732.38C1762.78 1731.24 1760.98 1730.39 1758.95 1729.83C1756.88 1729.23 1754.75 1728.93 1752.55 1728.93C1750.32 1728.93 1748.18 1729.23 1746.15 1729.83C1744.12 1730.43 1742.33 1731.29 1740.8 1732.43C1739.23 1733.56 1738 1734.96 1737.1 1736.63ZM1764.4 1739.13C1765.07 1740.03 1765.4 1741.08 1765.4 1742.28C1765.4 1743.34 1765.1 1744.33 1764.5 1745.23C1763.9 1746.09 1763.05 1746.86 1761.95 1747.53C1760.85 1748.16 1759.52 1748.66 1757.95 1749.03C1756.35 1749.39 1754.55 1749.58 1752.55 1749.58C1750.75 1749.58 1749.08 1749.43 1747.55 1749.13C1745.98 1748.79 1744.63 1748.33 1743.5 1747.73C1742.37 1747.13 1741.48 1746.39 1740.85 1745.53C1740.22 1744.63 1739.9 1743.59 1739.9 1742.43C1739.9 1741.26 1740.23 1740.21 1740.9 1739.28C1741.53 1738.31 1742.42 1737.49 1743.55 1736.83C1744.68 1736.16 1746.03 1735.66 1747.6 1735.33C1749.13 1734.96 1750.8 1734.78 1752.6 1734.78C1754.37 1734.78 1756.03 1734.94 1757.6 1735.28C1759.13 1735.61 1760.48 1736.11 1761.65 1736.78C1762.78 1737.41 1763.7 1738.19 1764.4 1739.13ZM1737.1 1694.74C1736.2 1696.37 1735.75 1698.24 1735.75 1700.34C1735.75 1702.44 1736.2 1704.31 1737.1 1705.94C1738 1707.57 1739.23 1708.96 1740.8 1710.09C1742.33 1711.22 1744.15 1712.09 1746.25 1712.69C1748.32 1713.29 1750.53 1713.59 1752.9 1713.59C1755.13 1713.59 1757.27 1713.32 1759.3 1712.79C1761.3 1712.22 1763.07 1711.41 1764.6 1710.34C1766.1 1709.24 1767.3 1707.89 1768.2 1706.29C1769.1 1704.66 1769.55 1702.76 1769.55 1700.59C1769.55 1698.39 1769.08 1696.44 1768.15 1694.74C1767.18 1693.04 1765.92 1691.62 1764.35 1690.49C1762.78 1689.36 1760.98 1688.51 1758.95 1687.94C1756.88 1687.34 1754.75 1687.04 1752.55 1687.04C1750.32 1687.04 1748.18 1687.34 1746.15 1687.94C1744.12 1688.54 1742.33 1689.41 1740.8 1690.54C1739.23 1691.67 1738 1693.07 1737.1 1694.74ZM1764.4 1697.24C1765.07 1698.14 1765.4 1699.19 1765.4 1700.39C1765.4 1701.46 1765.1 1702.44 1764.5 1703.34C1763.9 1704.21 1763.05 1704.97 1761.95 1705.64C1760.85 1706.27 1759.52 1706.77 1757.95 1707.14C1756.35 1707.51 1754.55 1707.69 1752.55 1707.69C1750.75 1707.69 1749.08 1707.54 1747.55 1707.24C1745.98 1706.91 1744.63 1706.44 1743.5 1705.84C1742.37 1705.24 1741.48 1704.51 1740.85 1703.64C1740.22 1702.74 1739.9 1701.71 1739.9 1700.54C1739.9 1699.37 1740.23 1698.32 1740.9 1697.39C1741.53 1696.42 1742.42 1695.61 1743.55 1694.94C1744.68 1694.27 1746.03 1693.77 1747.6 1693.44C1749.13 1693.07 1750.8 1692.89 1752.6 1692.89C1754.37 1692.89 1756.03 1693.06 1757.6 1693.39C1759.13 1693.72 1760.48 1694.22 1761.65 1694.89C1762.78 1695.52 1763.7 1696.31 1764.4 1697.24Z" fill="#FFA825"/>
<path opacity="0.23" fill-rule="evenodd" clip-rule="evenodd" d="M1826.28 291.471L1763.21 332L1675.19 321.632L1622 267.908L1644.59 202.402L1724.14 173.655L1816.87 194.391L1875.71 168L1879 321.632L1826.28 291.471ZM1785.7 258L1785.85 257.7L1785.85 255.55L1785.7 255.35L1780.35 256.7C1780.32 256.333 1780.28 256 1780.25 255.7C1780.22 255.4 1780.2 255.05 1780.2 254.65C1780.17 254.25 1780.15 253.75 1780.15 253.15L1780.15 250.85L1780.15 243.7L1780.15 240.8C1780.15 240.033 1780.17 239.367 1780.2 238.8C1780.2 238.267 1780.22 237.783 1780.25 237.35C1780.28 236.95 1780.32 236.533 1780.35 236.1C1780.42 235.433 1780.57 234.917 1780.8 234.55C1781.03 234.183 1781.28 233.883 1781.55 233.65C1781.82 233.383 1782.3 233.183 1783 233.05C1783.67 232.95 1784.27 232.9 1784.8 232.9L1784.95 232.7L1785.05 231L1784.95 230.8C1784.72 230.8 1784.37 230.817 1783.9 230.85C1783.43 230.883 1782.93 230.917 1782.4 230.95C1781.87 230.95 1781.37 230.967 1780.9 231L1779.85 231L1775 231L1773.95 231C1773.48 230.967 1772.98 230.95 1772.45 230.95C1771.92 230.917 1771.42 230.883 1770.95 230.85C1770.48 230.817 1770.13 230.8 1769.9 230.8L1769.8 231L1769.9 232.65L1770.15 232.9C1770.65 232.9 1771.22 232.967 1771.85 233.1C1772.48 233.233 1772.95 233.417 1773.25 233.65C1773.52 233.883 1773.77 234.167 1774 234.5C1774.23 234.867 1774.38 235.4 1774.45 236.1C1774.52 236.667 1774.57 237.183 1774.6 237.65C1774.6 238.117 1774.62 238.65 1774.65 239.25L1774.65 241.45L1774.65 244.9L1774.65 250.95L1774.65 254.4L1774.65 256.7C1774.62 257.333 1774.6 257.883 1774.6 258.35C1774.57 258.817 1774.53 259.317 1774.5 259.85L1774.5 260.65C1774.47 260.983 1774.45 261.333 1774.45 261.7C1774.42 262.067 1774.4 262.417 1774.4 262.75C1774.37 263.117 1774.33 263.433 1774.3 263.7L1775.9 264.15L1776.25 264.15C1777.75 262.717 1779.27 261.55 1780.8 260.65C1782.33 259.75 1783.97 258.867 1785.7 258ZM1736.63 262.9C1738.26 263.8 1740.13 264.25 1742.23 264.25C1744.33 264.25 1746.19 263.8 1747.83 262.9C1749.46 262 1750.84 260.767 1751.98 259.2C1753.11 257.667 1753.98 255.85 1754.58 253.75C1755.18 251.683 1755.48 249.467 1755.48 247.1C1755.48 244.867 1755.21 242.733 1754.68 240.7C1754.11 238.7 1753.29 236.933 1752.23 235.4C1751.13 233.9 1749.78 232.7 1748.18 231.8C1746.54 230.9 1744.64 230.45 1742.48 230.45C1740.28 230.45 1738.33 230.917 1736.63 231.85C1734.93 232.817 1733.51 234.083 1732.38 235.65C1731.24 237.217 1730.39 239.017 1729.83 241.05C1729.23 243.117 1728.93 245.25 1728.93 247.45C1728.93 249.683 1729.23 251.817 1729.83 253.85C1730.43 255.883 1731.29 257.667 1732.43 259.2C1733.56 260.767 1734.96 262 1736.63 262.9ZM1739.13 235.6C1740.03 234.933 1741.08 234.6 1742.28 234.6C1743.34 234.6 1744.33 234.9 1745.23 235.5C1746.09 236.1 1746.86 236.95 1747.53 238.05C1748.16 239.15 1748.66 240.483 1749.03 242.05C1749.39 243.65 1749.58 245.45 1749.58 247.45C1749.58 249.25 1749.43 250.917 1749.13 252.45C1748.79 254.017 1748.33 255.367 1747.73 256.5C1747.13 257.633 1746.39 258.517 1745.53 259.15C1744.63 259.783 1743.59 260.1 1742.43 260.1C1741.26 260.1 1740.21 259.767 1739.28 259.1C1738.31 258.467 1737.49 257.583 1736.83 256.45C1736.16 255.317 1735.66 253.967 1735.33 252.4C1734.96 250.867 1734.78 249.2 1734.78 247.4C1734.78 245.633 1734.94 243.967 1735.28 242.4C1735.61 240.867 1736.11 239.517 1736.78 238.35C1737.41 237.217 1738.19 236.3 1739.13 235.6ZM1694.74 262.9C1696.37 263.8 1698.24 264.25 1700.34 264.25C1702.44 264.25 1704.31 263.8 1705.94 262.9C1707.57 262 1708.96 260.767 1710.09 259.2C1711.22 257.667 1712.09 255.85 1712.69 253.75C1713.29 251.683 1713.59 249.467 1713.59 247.1C1713.59 244.867 1713.32 242.733 1712.79 240.7C1712.22 238.7 1711.41 236.933 1710.34 235.4C1709.24 233.9 1707.89 232.7 1706.29 231.8C1704.66 230.9 1702.76 230.45 1700.59 230.45C1698.39 230.45 1696.44 230.917 1694.74 231.85C1693.04 232.817 1691.62 234.083 1690.49 235.65C1689.36 237.217 1688.51 239.017 1687.94 241.05C1687.34 243.117 1687.04 245.25 1687.04 247.45C1687.04 249.683 1687.34 251.817 1687.94 253.85C1688.54 255.883 1689.41 257.667 1690.54 259.2C1691.67 260.767 1693.07 262 1694.74 262.9ZM1697.24 235.6C1698.14 234.933 1699.19 234.6 1700.39 234.6C1701.46 234.6 1702.44 234.9 1703.34 235.5C1704.21 236.1 1704.97 236.95 1705.64 238.05C1706.27 239.15 1706.77 240.483 1707.14 242.05C1707.51 243.65 1707.69 245.45 1707.69 247.45C1707.69 249.25 1707.54 250.917 1707.24 252.45C1706.91 254.017 1706.44 255.367 1705.84 256.5C1705.24 257.633 1704.51 258.517 1703.64 259.15C1702.74 259.783 1701.71 260.1 1700.54 260.1C1699.37 260.1 1698.32 259.767 1697.39 259.1C1696.42 258.467 1695.61 257.583 1694.94 256.45C1694.27 255.317 1693.77 253.967 1693.44 252.4C1693.07 250.867 1692.89 249.2 1692.89 247.4C1692.89 245.633 1693.06 243.967 1693.39 242.4C1693.72 240.867 1694.22 239.517 1694.89 238.35C1695.52 237.217 1696.31 236.3 1697.24 235.6Z" fill="#FFA825"/>
<path opacity="0.23" fill-rule="evenodd" clip-rule="evenodd" d="M291.471 174.718L332 237.791L321.632 325.811L267.908 379L202.402 356.407L173.655 276.859L194.391 184.132L168 125.295L321.632 122L291.471 174.718ZM258 215.3L257.7 215.15L255.55 215.15L255.35 215.3L256.7 220.65C256.333 220.683 256 220.717 255.7 220.75C255.4 220.783 255.05 220.8 254.65 220.8C254.25 220.833 253.75 220.85 253.15 220.85L250.85 220.85L243.7 220.85L240.8 220.85C240.033 220.85 239.367 220.833 238.8 220.8C238.267 220.8 237.783 220.783 237.35 220.75C236.95 220.717 236.533 220.683 236.1 220.65C235.433 220.583 234.917 220.433 234.55 220.2C234.183 219.967 233.883 219.717 233.65 219.45C233.383 219.183 233.183 218.7 233.05 218C232.95 217.333 232.9 216.733 232.9 216.2L232.7 216.05L231 215.95L230.8 216.05C230.8 216.283 230.817 216.633 230.85 217.1C230.883 217.567 230.917 218.067 230.95 218.6C230.95 219.133 230.967 219.633 231 220.1L231 221.15L231 226L231 227.05C230.967 227.517 230.95 228.017 230.95 228.55C230.917 229.083 230.883 229.583 230.85 230.05C230.817 230.517 230.8 230.867 230.8 231.1L231 231.2L232.65 231.1L232.9 230.85C232.9 230.35 232.967 229.783 233.1 229.15C233.233 228.517 233.417 228.05 233.65 227.75C233.883 227.483 234.167 227.233 234.5 227C234.867 226.767 235.4 226.617 236.1 226.55C236.667 226.483 237.183 226.433 237.65 226.4C238.117 226.4 238.65 226.383 239.25 226.35L241.45 226.35L244.9 226.35L250.95 226.35L254.4 226.35L256.7 226.35C257.333 226.383 257.883 226.4 258.35 226.4C258.817 226.433 259.317 226.467 259.85 226.5L260.65 226.5C260.983 226.533 261.333 226.55 261.7 226.55C262.067 226.583 262.417 226.6 262.75 226.6C263.117 226.633 263.433 226.667 263.7 226.7L264.15 225.1L264.15 224.75C262.717 223.25 261.55 221.733 260.65 220.2C259.75 218.667 258.867 217.033 258 215.3ZM262.9 264.374C263.8 262.741 264.25 260.874 264.25 258.774C264.25 256.674 263.8 254.808 262.9 253.174C262 251.541 260.767 250.158 259.2 249.024C257.667 247.891 255.85 247.024 253.75 246.424C251.683 245.824 249.467 245.524 247.1 245.524C244.867 245.524 242.733 245.791 240.7 246.324C238.7 246.891 236.933 247.708 235.4 248.774C233.9 249.874 232.7 251.224 231.8 252.824C230.9 254.458 230.45 256.358 230.45 258.524C230.45 260.724 230.917 262.674 231.85 264.374C232.817 266.074 234.083 267.491 235.65 268.624C237.217 269.758 239.017 270.608 241.05 271.174C243.117 271.774 245.25 272.074 247.45 272.074C249.683 272.074 251.817 271.774 253.85 271.174C255.883 270.574 257.667 269.708 259.2 268.574C260.767 267.441 262 266.041 262.9 264.374ZM235.6 261.874C234.933 260.974 234.6 259.924 234.6 258.724C234.6 257.658 234.9 256.674 235.5 255.774C236.1 254.908 236.95 254.141 238.05 253.474C239.15 252.841 240.483 252.341 242.05 251.974C243.65 251.608 245.45 251.424 247.45 251.424C249.25 251.424 250.917 251.574 252.45 251.874C254.017 252.208 255.367 252.674 256.5 253.274C257.633 253.874 258.517 254.608 259.15 255.474C259.783 256.374 260.1 257.408 260.1 258.574C260.1 259.741 259.767 260.791 259.1 261.724C258.467 262.691 257.583 263.508 256.45 264.174C255.317 264.841 253.967 265.341 252.4 265.674C250.867 266.041 249.2 266.224 247.4 266.224C245.633 266.224 243.967 266.058 242.4 265.724C240.867 265.391 239.517 264.891 238.35 264.224C237.217 263.591 236.3 262.808 235.6 261.874ZM262.9 306.259C263.8 304.626 264.25 302.759 264.25 300.659C264.25 298.559 263.8 296.692 262.9 295.059C262 293.426 260.767 292.042 259.2 290.909C257.667 289.776 255.85 288.909 253.75 288.309C251.683 287.709 249.467 287.409 247.1 287.409C244.867 287.409 242.733 287.676 240.7 288.209C238.7 288.776 236.933 289.592 235.4 290.659C233.9 291.759 232.7 293.109 231.8 294.709C230.9 296.342 230.45 298.242 230.45 300.409C230.45 302.609 230.917 304.559 231.85 306.259C232.817 307.959 234.083 309.376 235.65 310.509C237.217 311.642 239.017 312.492 241.05 313.059C243.117 313.659 245.25 313.959 247.45 313.959C249.683 313.959 251.817 313.659 253.85 313.059C255.883 312.459 257.667 311.592 259.2 310.459C260.767 309.326 262 307.926 262.9 306.259ZM235.6 303.759C234.933 302.859 234.6 301.809 234.6 300.609C234.6 299.542 234.9 298.559 235.5 297.659C236.1 296.792 236.95 296.026 238.05 295.359C239.15 294.726 240.483 294.226 242.05 293.859C243.65 293.492 245.45 293.309 247.45 293.309C249.25 293.309 250.917 293.459 252.45 293.759C254.017 294.092 255.367 294.559 256.5 295.159C257.633 295.759 258.517 296.492 259.15 297.359C259.783 298.259 260.1 299.292 260.1 300.459C260.1 301.626 259.767 302.676 259.1 303.609C258.467 304.576 257.583 305.392 256.45 306.059C255.317 306.726 253.967 307.226 252.4 307.559C250.867 307.926 249.2 308.109 247.4 308.109C245.633 308.109 243.967 307.942 242.4 307.609C240.867 307.276 239.517 306.776 238.35 306.109C237.217 305.476 236.3 304.692 235.6 303.759Z" fill="#FFA825"/>
<rect x="838" y="900" width="150" height="200" fill="#FFFBE4"/>
<rect x="1012" y="900" width="150" height="200" fill="#FFFBE4"/>
<path d="M1065.44 983.809L1069.19 1025.71L1074.34 1024.29L1087.94 1030.48L1105.28 1026.19L1108.09 978.095L1084.66 967.619L1065.44 983.809Z" fill="#D0D0D0"/>
<path d="M1075.28 1022.86L1050.44 1031.9L1075.28 1025.71L1089.34 1031.9L1123.56 1022.86L1089.34 1028.57L1075.28 1022.86Z" fill="#EBD68E"/>
<path d="M1085.87 1003.81L1086.19 995.549L1082.31 995.219V993.567H1085.87L1085.59 987.619H1087.86L1087.48 993.567H1091.69V995.549H1087.48L1087.94 1003.33L1085.87 1003.81Z" fill="#BEBEBE"/>
<path opacity="0.5" d="M338.476 842.929L360.783 848.906L344.453 865.236L338.476 842.929Z" fill="#FF8832"/>
</svg>
